<svg width="1e3" height="1e3" version="1.1" xmlns="http://www.w3.org/2000/svg">
 <link href="" rel="stylesheet" type="text/css"/>
 <style type="text/css"/>
 <g transform="translate(-1200 887.64)">
  <path d="m1200-193.64v-694h1e3v694l-166 166h-674z" fill="#7d50c8" fill-rule="evenodd"/>
  <path d="m1200 112.36h1e3v-306h-1e3z"/>
  <g transform="matrix(21.649 0 0 -21.649 1556.7 2.0546)">
   <path d="m-0.15927 0h-2.7707c-0.083 0-0.099 0.033-0.099 0.1v3.941c0 0.066 0.016 0.1 0.099 0.1h2.7707c1.742 0 2.439-0.498 2.439-2.066 0-1.569-0.697-2.075-2.439-2.075m2.422 5.344h-9.1927c-0.083 0-0.125-0.05-0.125-0.124v-6.299c0-0.075 0.042-0.124 0.125-0.124h9.1927c2.746 0 4.133 0.912 4.133 3.294 0 2.365-1.387 3.253-4.133 3.253" fill="#fff"/>
  </g>
  <g transform="matrix(21.649 0 0 -21.649 1890.9 -34.413)">
   <path d="m-0.34786 0h-3.1418c-0.075 0-0.1 0.025-0.1 0.099v2.258c0 0.074 0.025 0.099 0.1 0.099h3.1418c1.096 0 1.56-0.299 1.56-1.203 0-0.913-0.464-1.253-1.56-1.253m5.7599-2.622-2.705 1.908c-0.067 0.05-0.108 0.075-0.108 0.108s0.025 0.05 0.083 0.05c1.369 0 2.431 0.639 2.431 2.049 0 1.403-0.913 2.166-2.597 2.166h-10.007c-0.083 0-0.125-0.049-0.125-0.124v-6.298c0-0.075 0.042-0.125 0.125-0.125h3.771c0.083 0 0.125 0.05 0.125 0.125v1.493c0 0.075 0.024 0.1 0.099 0.1h2.0567c0.108 0 0.15-8e-3 0.224-0.067l1.8277-1.559c0.092-0.075 0.158-0.092 0.265-0.092h4.6173c0.067 0 0.1 0.025 0.1 0.075 0 0.066-0.117 0.141-0.183 0.191" fill="#fff"/>
  </g>
  <path d="m1422.6-701.02v322.82h87.562v-88.617h56.968c81.875 0 130.66-48.867 130.66-118.25 0-69.175-48.804-115.95-133.71-115.95zm87.562 78.068h48.528c29.582 0 49.672 12.284 49.672 39.609 0 26.485-20.04 39.514-48.988 39.514h-49.212z" fill="#fff"/>
  <path d="m1854.7-706.19c-70.828 0-120.03 40.161-120.03 92.071 0 46.557 39.246 63.961 39.246 63.961-23.464 7.5711-51.815 30.585-51.815 75.517 0 57.714 50.666 102.18 132.46 102.18 79.74 0 132.65-42.821 132.65-102.58 0-40.921-25.45-67.514-51.891-75.117 0 0 39.244-16.308 39.244-63.523 0-59.643-59.412-92.509-119.87-92.509zm-0.4967 66.385c25.106 0 38.937 14.001 38.937 32.657 0 17.486-14.228 30.918-39.02 30.918-24.086 0-38.111-13.792-38.111-31.911 0-16.779 12.294-31.663 38.193-31.663zm0.014 122.32c29.746 0 46.363 16.407 46.363 37.818 0 21.766-18.478 36.126-45.716 36.126-29.894 0-46.361-15.393-46.361-36.883 0-19.676 14.607-37.062 45.714-37.062z" fill="#fff"/>
 </g>
</svg>
