<svg version="1.1" viewBox="0 0 500.01 500" xmlns="http://www.w3.org/2000/svg">
 <path d="m0 500h500v-153h-500z" stroke-width=".5"/>
 <g transform="matrix(10.825 0 0 -10.825 178.37 444.84)">
  <path d="m-0.15927 0h-2.7707c-0.083 0-0.099 0.033-0.099 0.1v3.941c0 0.066 0.016 0.1 0.099 0.1h2.7707c1.742 0 2.439-0.498 2.439-2.066 0-1.569-0.697-2.075-2.439-2.075m2.422 5.344h-9.1927c-0.083 0-0.125-0.05-0.125-0.124v-6.299c0-0.075 0.042-0.124 0.125-0.124h9.1927c2.746 0 4.133 0.912 4.133 3.294 0 2.365-1.387 3.253-4.133 3.253" fill="#fff"/>
 </g>
 <g transform="matrix(10.825 0 0 -10.825 345.44 426.61)">
  <path d="m-0.34786 0h-3.1418c-0.075 0-0.1 0.025-0.1 0.099v2.258c0 0.074 0.025 0.099 0.1 0.099h3.1418c1.096 0 1.56-0.299 1.56-1.203 0-0.913-0.464-1.253-1.56-1.253m5.7599-2.622-2.705 1.908c-0.067 0.05-0.108 0.075-0.108 0.108s0.025 0.05 0.083 0.05c1.369 0 2.431 0.639 2.431 2.049 0 1.403-0.913 2.166-2.597 2.166h-10.007c-0.083 0-0.125-0.049-0.125-0.124v-6.298c0-0.075 0.042-0.125 0.125-0.125h3.771c0.083 0 0.125 0.05 0.125 0.125v1.493c0 0.075 0.024 0.1 0.099 0.1h2.0567c0.108 0 0.15-8e-3 0.224-0.067l1.8277-1.559c0.092-0.075 0.158-0.092 0.265-0.092h4.6173c0.067 0 0.1 0.025 0.1 0.075 0 0.066-0.117 0.141-0.183 0.191" fill="#fff"/>
 </g>
 <path d="m0 0h500.01v347h-500.01z" fill="#00a08c" stroke-width="13.889"/>
 <g transform="translate(0 -473.17)" fill="#fff">
  <path d="m189.06 536.67h-53.194c-1.2902 0-1.8658 0.94281-1.8658 2.4314l-0.0298 126.7c0 1.3199 0.93287 1.8658 2.4314 1.8658h32.849c1.4886 0 2.4314-0.69471 2.4314-2.2429v-31.996c0-2.0246 0.63514-2.6597 2.4414-2.6597h14.986c37.514-0.1984 58.057-17.07 58.057-47.339 0-30.289-20.543-46.743-58.057-46.743zm-1.6871 63.078h-13.298c-1.5879 0-2.4017-0.71455-2.4017-2.4116v-26.458c0-1.6077 0.6947-2.4017 2.4017-2.4017h13.298c18.856 0 22.399 9.5471 22.399 15.353s-3.533 15.918-22.399 15.918zm132.85 67.386h-33.584c-1.3199 0-2.233-0.94279-2.233-2.4116 3.5132-36.749 24.116-73.142 39.131-93.715 0.87335-1.4688 0.93289-1.8558-0.1984-1.8558h-59.208c-1.4688 0-2.233-0.74432-2.233-2.4215v-27.083c0-1.4886 0.5657-2.4215 1.8658-2.4215h100.04c1.4688 0 2.2429 0.92295 2.2429 2.4116v24.116c0 2.2032-0.99243 4.069-1.6871 5.3591-15.581 22.826-38.268 60.339-42.376 95.57-0.1192 1.4886-0.49622 2.4017-1.7864 2.4017" stroke-width="9.9242"/>
  <g transform="matrix(4.847 0 0 4.847 146.99 666.52)">
   <path d="m11.474 16.074h-0.53c-0.472-0.7-2.433-3.32-3.204-4.414v6.712c0 0.15-0.096 0.228-0.246 0.228h-3.32c-0.15 0-0.244-0.058-0.244-0.188v-12.786c0-0.132 0.095-0.227 0.245-0.227h2.998c0.245 0 0.32 0.034 0.415 0.185l3.603 4.96 3.49-4.96c0.096-0.15 0.17-0.188 0.415-0.188h2.942c0.15 0 0.244 0.056 0.244 0.19v12.784c0 0.15-0.094 0.227-0.244 0.227h-3.32c-0.148 0-0.244-0.058-0.244-0.19v-6.75l-2.994 4.413zm12.906 2.3c0 0.15-0.095 0.226-0.245 0.226h-3.317c-0.15 0-0.246-0.057-0.246-0.188v-12.786c0-0.132 0.095-0.227 0.246-0.227h3.317c0.15 0 0.244 0.053 0.244 0.185v12.786zm5.622 0.038c-0.095 0.15-0.17 0.188-0.416 0.188h-3.81c-0.11 0-0.227-0.037-0.11-0.188l4.145-6.657-3.991-6.165c-0.056-0.118-0.04-0.19 0.13-0.19h4.17c0.112 0 0.226 0.11 0.263 0.19l1.716 3.05 1.718-3.054c0.037-0.078 0.15-0.19 0.26-0.19h3.98c0.17 0 0.188 0.075 0.132 0.19l-3.98 5.976 4.32 6.846c0.11 0.15 0 0.187-0.114 0.187h-3.995c-0.245 0-0.32-0.037-0.415-0.188l-2-3.62-1.998 3.62z" fill="#fff"/>
  </g>
 </g>
</svg>
