<svg width="1e3" height="1e3" version="1.1" xmlns="http://www.w3.org/2000/svg">
 <g transform="translate(-1200 887.64)">
  <path d="m1200-193.64v-694h1e3v694l-166 166h-674z" fill="#af0055" fill-rule="evenodd"/>
  <path d="m1200 112.36h1e3v-306h-1e3z"/>
  <g transform="matrix(21.649 0 0 -21.649 1556.7 2.0546)">
   <path d="m-0.15927 0h-2.7707c-0.083 0-0.099 0.033-0.099 0.1v3.941c0 0.066 0.016 0.1 0.099 0.1h2.7707c1.742 0 2.439-0.498 2.439-2.066 0-1.569-0.697-2.075-2.439-2.075m2.422 5.344h-9.1927c-0.083 0-0.125-0.05-0.125-0.124v-6.299c0-0.075 0.042-0.124 0.125-0.124h9.1927c2.746 0 4.133 0.912 4.133 3.294 0 2.365-1.387 3.253-4.133 3.253" fill="#fff"/>
  </g>
  <g transform="matrix(21.649 0 0 -21.649 1890.9 -34.413)">
   <path d="m-0.34786 0h-3.1418c-0.075 0-0.1 0.025-0.1 0.099v2.258c0 0.074 0.025 0.099 0.1 0.099h3.1418c1.096 0 1.56-0.299 1.56-1.203 0-0.913-0.464-1.253-1.56-1.253m5.7599-2.622-2.705 1.908c-0.067 0.05-0.108 0.075-0.108 0.108s0.025 0.05 0.083 0.05c1.369 0 2.431 0.639 2.431 2.049 0 1.403-0.913 2.166-2.597 2.166h-10.007c-0.083 0-0.125-0.049-0.125-0.124v-6.298c0-0.075 0.042-0.125 0.125-0.125h3.771c0.083 0 0.125 0.05 0.125 0.125v1.493c0 0.075 0.024 0.1 0.099 0.1h2.0567c0.108 0 0.15-8e-3 0.224-0.067l1.8277-1.559c0.092-0.075 0.158-0.092 0.265-0.092h4.6173c0.067 0 0.1 0.025 0.1 0.075 0 0.066-0.117 0.141-0.183 0.191" fill="#fff"/>
  </g>
  <path d="m1422.6-701.31v323.11h87.64v-88.696h57.019c81.948 0 130.77-48.911 130.77-118.35 0-69.237-48.847-116.06-133.83-116.06zm87.64 78.137h48.572c29.608 0 49.716 12.295 49.716 39.644 0 26.509-20.058 39.549-49.032 39.549h-49.256z" fill="#fff"/>
  <path d="m1971.7-701.31h-217.52l-21.118 193.23h80.249c4.4543-11.649 16.799-28.584 44.961-28.584 28.172 0 44.23 19.881 44.23 45.608 0 30.162-20.699 45.328-44.065 45.328-24.355 0-41.516-15.439-45.127-34.37h-86.354c0.7095 64.533 54.824 107.41 128.21 107.41 81.606 0 132.85-49.025 132.85-119.87 0-69.467-48.748-109.8-111.37-109.8-40.562 0-60.569 19.776-60.569 19.776l4.6298-43.754h150.99z" fill="#fff"/>
 </g>
</svg>
