<svg width="1e3" height="1e3" version="1.1" xmlns="http://www.w3.org/2000/svg">
 <path d="m0 694v-694h1e3v694l-166 166h-674z" fill="#f36422" fill-rule="evenodd"/>
 <path d="m0 1e3h1e3v-306h-1e3z"/>
 <g transform="matrix(21.649 0 0 -21.649 356.7 889.69)">
  <path d="m-0.15927 0h-2.7707c-0.083 0-0.099 0.033-0.099 0.1v3.941c0 0.066 0.016 0.1 0.099 0.1h2.7707c1.742 0 2.439-0.498 2.439-2.066 0-1.569-0.697-2.075-2.439-2.075m2.422 5.344h-9.1927c-0.083 0-0.125-0.05-0.125-0.124v-6.299c0-0.075 0.042-0.124 0.125-0.124h9.1927c2.746 0 4.133 0.912 4.133 3.294 0 2.365-1.387 3.253-4.133 3.253" fill="#fff"/>
 </g>
 <g transform="matrix(21.649 0 0 -21.649 690.9 853.23)">
  <path d="m-0.34786 0h-3.1418c-0.075 0-0.1 0.025-0.1 0.099v2.258c0 0.074 0.025 0.099 0.1 0.099h3.1418c1.096 0 1.56-0.299 1.56-1.203 0-0.913-0.464-1.253-1.56-1.253m5.7599-2.622-2.705 1.908c-0.067 0.05-0.108 0.075-0.108 0.108s0.025 0.05 0.083 0.05c1.369 0 2.431 0.639 2.431 2.049 0 1.403-0.913 2.166-2.597 2.166h-10.007c-0.083 0-0.125-0.049-0.125-0.124v-6.298c0-0.075 0.042-0.125 0.125-0.125h3.771c0.083 0 0.125 0.05 0.125 0.125v1.493c0 0.075 0.024 0.1 0.099 0.1h2.0567c0.108 0 0.15-8e-3 0.224-0.067l1.8277-1.559c0.092-0.075 0.158-0.092 0.265-0.092h4.6173c0.067 0 0.1 0.025 0.1 0.075 0 0.066-0.117 0.141-0.183 0.191" fill="#fff"/>
 </g>
 <path d="m232.8 185.47v324.49h88.016v-89.077h57.264c82.3 0 131.34-49.12 131.34-118.86 0-69.534-49.057-116.56-134.41-116.56zm88.016 78.472h48.78c29.735 0 49.93 12.348 49.93 39.814 0 26.622-20.144 39.719-49.242 39.719h-49.468z" fill="#fff"/>
 <path d="m539.3 509.97h257.69v-78.472h-81.654v-246.02h-156.94v73.17h67.868v172.85h-86.956z" fill="#fff"/>
</svg>
