<svg width="1e3" height="1e3" version="1.1" xmlns="http://www.w3.org/2000/svg">
 <g transform="translate(-1200 887.64)">
  <path d="m1200-193.64v-694h1e3v694l-166 166h-674z" fill="#0f05a0" fill-rule="evenodd"/>
  <path d="m1200 112.36h1e3v-306h-1e3z"/>
  <g transform="matrix(21.649 0 0 -21.649 1556.7 2.0546)">
   <path d="m-0.15927 0h-2.7707c-0.083 0-0.099 0.033-0.099 0.1v3.941c0 0.066 0.016 0.1 0.099 0.1h2.7707c1.742 0 2.439-0.498 2.439-2.066 0-1.569-0.697-2.075-2.439-2.075m2.422 5.344h-9.1927c-0.083 0-0.125-0.05-0.125-0.124v-6.299c0-0.075 0.042-0.124 0.125-0.124h9.1927c2.746 0 4.133 0.912 4.133 3.294 0 2.365-1.387 3.253-4.133 3.253" fill="#fff"/>
  </g>
  <g transform="matrix(21.649 0 0 -21.649 1890.9 -34.413)">
   <path d="m-0.34786 0h-3.1418c-0.075 0-0.1 0.025-0.1 0.099v2.258c0 0.074 0.025 0.099 0.1 0.099h3.1418c1.096 0 1.56-0.299 1.56-1.203 0-0.913-0.464-1.253-1.56-1.253m5.7599-2.622-2.705 1.908c-0.067 0.05-0.108 0.075-0.108 0.108s0.025 0.05 0.083 0.05c1.369 0 2.431 0.639 2.431 2.049 0 1.403-0.913 2.166-2.597 2.166h-10.007c-0.083 0-0.125-0.049-0.125-0.124v-6.298c0-0.075 0.042-0.125 0.125-0.125h3.771c0.083 0 0.125 0.05 0.125 0.125v1.493c0 0.075 0.024 0.1 0.099 0.1h2.0567c0.108 0 0.15-8e-3 0.224-0.067l1.8277-1.559c0.092-0.075 0.158-0.092 0.265-0.092h4.6173c0.067 0 0.1 0.025 0.1 0.075 0 0.066-0.117 0.141-0.183 0.191" fill="#fff"/>
  </g>
  <path d="m1422.8-701.21v323.4h87.721v-88.777h57.071c82.023 0 130.89-48.956 130.89-118.46 0-69.301-48.892-116.16-133.95-116.16zm87.721 78.209h48.616c29.635 0 49.762 12.307 49.762 39.68 0 26.533-20.076 39.585-49.077 39.585h-49.301z" fill="#fff"/>
  <path d="m1735.1-377.81h247.84v-78.209h-113.09l46.502-44.389c29.447-28.58 59.167-59.963 59.167-106.91 0-61.286-46.766-99.037-117.73-99.037-83.007 0-131.67 51.403-131.67 121.39h88.045c0-23.751 12.2-46.608 40.408-46.608 21.31 0 33.439 13.771 33.439 30.921 0 24.43-25.712 48.177-44.579 64.303l-108.33 96.176z" fill="#fff"/>
 </g>
</svg>
