<svg width="800" height="505.32" version="1.1" viewBox="0 0 211.67 133.7" xmlns="http://www.w3.org/2000/svg">
 <g transform="translate(-214.97 56.839)">
  <g transform="matrix(1.6593 0 0 -1.6593 -1251.5 511.16)">
   <path d="m912.89 278.22h-5.83v3.293h15.358v-3.293h-5.802v-16.142h-3.726z" fill="#fff"/>
   <g transform="translate(925.67 274.28)">
    <path d="m0 0c0.675 1.322 1.836 2.375 3.158 2.375 0.513 0 0.999-0.135 1.404-0.297l-0.27-3.266c-0.459 0.135-0.837 0.189-1.35 0.189-1.08 0-2.078-0.972-2.537-1.755v-9.447h-3.59v14.252h2.862z" fill="#fff"/>
   </g>
   <g transform="translate(939.06 264.76)">
    <path d="m0 0c1.916 0 3.319 1.27 3.319 4.454 0 3.158-1.403 4.481-3.319 4.481-1.917 0-3.294-1.43-3.294-4.481 0-3.184 1.377-4.454 3.294-4.454m0.054 11.904c4.049 0 7.045-2.564 7.045-7.45 0-4.858-3.078-7.476-7.235-7.476-4.264 0-6.936 2.618-6.936 7.395 0 4.913 3.05 7.531 7.126 7.531" fill="#fff"/>
   </g>
   <g transform="translate(952.61 276.34)">
    <path d="m0 0 0.297-1.862c0.944 1.106 2.294 2.186 4.318 2.186 1.836 0 2.916-0.837 3.455-2.133 1.08 1.134 2.484 2.133 4.535 2.133 2.808 0 3.968-1.836 3.968-4.697v-9.879h-3.59v9.178c0 1.457-0.378 2.321-1.754 2.321-1.188 0-2.187-0.972-2.646-1.458v-10.041h-3.562v9.069c0 1.485-0.297 2.43-1.674 2.43-1.269 0-2.268-0.972-2.753-1.512v-9.987h-3.59v14.252z" fill="#fff"/>
   </g>
   <g transform="translate(973.73 266.38)">
    <path d="m0 0c1.35-1.025 3.131-1.836 4.508-1.836 1.296 0 1.997 0.567 1.997 1.458 0 0.944-0.485 1.377-2.834 1.971-3.077 0.782-4.373 1.943-4.373 4.292 0 2.753 2.159 4.399 5.398 4.399 2.268 0 4.185-0.809 5.669-2.159l-1.593-2.079c-1.349 0.972-2.671 1.512-3.914 1.512-1.322 0-1.97-0.459-1.97-1.269 0-1.053 0.945-1.35 3.104-1.971 3.024-0.863 4.401-1.862 4.401-4.237 0-3.023-2.242-4.724-5.697-4.724-2.618 0-4.831 1.08-6.289 2.484z" fill="#fff"/>
   </g>
   <path d="m883.73 304.7h8.911v25.429h-8.911z" fill="#fff"/>
   <path d="m909.16 304.7h8.906v25.429h-8.906z" fill="#fff"/>
   <path d="m929.24 304.7h8.912v25.429h-8.912z" fill="#fff"/>
   <g transform="translate(923.65 330.65)">
    <path d="m0 0c-2.774 0-5.02-2.267-5.02-5.064 0-2.796 2.246-5.07 5.02-5.07 2.778 0 5.033 2.274 5.033 5.07 0 2.797-2.255 5.064-5.033 5.064" fill="#fff"/>
   </g>
   <g transform="translate(949.3 316.23)">
    <path d="m0 0c-0.533 0.903-0.564 1.459-0.05 2.331l7.064 11.568h-9.8s-5.888-9.625-6.693-10.962c-0.796-1.335-0.762-2.167 0.034-3.54 0.804-1.371 6.659-10.926 6.659-10.926h9.8s-6.937 11.386-7.014 11.529" fill="#fff"/>
   </g>
   <g transform="translate(908.59 304.72)">
    <path d="m0 0-4.769 21.326c-0.456 2.33-2.493 4.086-4.935 4.086h-5.726l5.754-25.429h9.679z" fill="#fff"/>
   </g>
   <g transform="translate(986.41 342.31)">
    <path d="m0 0c-13.749 0-24.892-11.142-24.892-24.889 0-13.744 11.143-24.887 24.892-24.887 13.743 0 24.888 11.143 24.888 24.887 0 13.747-11.145 24.889-24.888 24.889" fill="#00b8f1"/>
   </g>
   <g transform="translate(995.71 304.71)">
    <path d="m0 0h6.21v25.431h-9.919v-5.386l3.709-5e-3z" fill="#fff"/>
   </g>
   <g transform="translate(976.96 324.77)">
    <path d="m0 0h3.219c2.508 0 3.636-1.341 3.636-3.462 0-2.157-1.237-3.466-3.782-3.466h-1.143v-5.089h1.499c6.465 0 9.611 3.357 9.611 8.835 0 5.371-3.428 8.553-9.295 8.553h-9.999v-25.433h6.254z" fill="#fff"/>
   </g>
  </g>
 </g>
</svg>
