<svg width="800" height="488.33" version="1.1" viewBox="0 0 211.67 129.2" xmlns="http://www.w3.org/2000/svg">
 <path d="m0.020288 97.465h5.9734v12.681h12.856v-12.681h5.9734v31.166h-5.9734v-13.073h-12.856v13.073h-5.9734z" stroke-width="1.6036"/>
 <g transform="matrix(1.6036 0 0 -1.6036 41.986 124.34)">
  <path d="m0 0c1.917 0 3.32 1.27 3.32 4.454 0 3.158-1.403 4.481-3.32 4.481-1.916 0-3.293-1.43-3.293-4.481 0-3.184 1.377-4.454 3.293-4.454m0.054 11.904c4.049 0 7.046-2.564 7.046-7.45 0-4.858-3.078-7.476-7.235-7.476-4.264 0-6.937 2.618-6.937 7.395 0 4.913 3.051 7.531 7.126 7.531"/>
 </g>
 <g transform="matrix(1.6036 0 0 -1.6036 64.02 109.07)">
  <path d="m0 0c0.675 1.322 1.836 2.375 3.158 2.375 0.513 0 0.999-0.135 1.404-0.297l-0.27-3.266c-0.459 0.135-0.837 0.189-1.35 0.189-1.08 0-2.078-0.972-2.537-1.755v-9.447h-3.59v14.252h2.862z"/>
 </g>
 <g transform="matrix(1.6036 0 0 -1.6036 90.511 112.75)">
  <path d="m0 0c-0.54 0.647-1.619 1.62-3.131 1.62-1.943 0-3.158-1.431-3.158-4.4 0-2.403 0.782-4.454 3.239-4.454 1.457 0 2.484 0.918 3.05 1.592zm0.216-8.07c-0.729-0.999-2.159-2.187-4.427-2.187-3.968 0-5.857 2.861-5.857 7.423 0 4.832 2.537 7.504 5.992 7.504 1.808 0 3.132-0.837 4.103-1.89v6.748h3.563v-19.434h-3.185z"/>
 </g>
 <g transform="matrix(1.6036 0 0 -1.6036 115.24 119.24)">
  <path d="m0 0c-0.405 0.081-0.972 0.135-1.701 0.135-1.944 0-3.266-0.513-3.266-2.106 0-1.052 0.675-1.592 1.944-1.592 1.862 0 3.023 1.701 3.023 3.185zm3.59-5.857h-2.861l-0.378 1.916c-1.026-1.511-2.484-2.267-4.481-2.267-2.564 0-4.4 1.403-4.4 4.184 0 2.267 1.62 4.507 6.506 4.507 0.809 0 1.349-0.027 2.024-0.108v1.053c0 1.701-0.892 2.429-2.43 2.429-1.727 0-2.834-0.54-4.211-1.349l-1.214 2.159c1.539 1.215 3.67 2.052 5.803 2.052 3.563 0 5.642-1.539 5.642-5.237z"/>
 </g>
 <path d="m127.41 97.465h5.7569v31.166h-5.7569z" stroke-width="1.6036"/>
 <g transform="matrix(1.6036 0 0 -1.6036 152.35 119.24)">
  <path d="m0 0c-0.405 0.081-0.972 0.135-1.701 0.135-1.944 0-3.266-0.513-3.266-2.106 0-1.052 0.675-1.592 1.944-1.592 1.862 0 3.023 1.701 3.023 3.185zm3.59-5.857h-2.861l-0.378 1.916c-1.026-1.511-2.484-2.267-4.481-2.267-2.564 0-4.4 1.403-4.4 4.184 0 2.267 1.62 4.507 6.506 4.507 0.809 0 1.349-0.027 2.024-0.108v1.053c0 1.701-0.892 2.429-2.43 2.429-1.727 0-2.834-0.54-4.211-1.349l-1.214 2.159c1.539 1.215 3.67 2.052 5.803 2.052 3.563 0 5.642-1.539 5.642-5.237z"/>
 </g>
 <g transform="matrix(1.6036 0 0 -1.6036 169.18 105.77)">
  <path d="m0 0 0.297-1.89c1.026 1.189 2.618 2.214 4.616 2.214 2.996 0 4.508-1.917 4.508-5.02v-9.556h-3.59v8.476c0 2.132-0.729 3.05-2.241 3.05-1.43 0-2.564-1.08-2.996-1.592v-9.934h-3.59v14.252z"/>
 </g>
 <g transform="matrix(1.6036 0 0 -1.6036 205.94 112.75)">
  <path d="m0 0c-0.54 0.647-1.62 1.62-3.132 1.62-1.943 0-3.158-1.431-3.158-4.4 0-2.403 0.783-4.454 3.239-4.454 1.458 0 2.484 0.918 3.051 1.592zm0.216-8.07c-0.73-0.999-2.16-2.187-4.427-2.187-3.969 0-5.857 2.861-5.857 7.423 0 4.832 2.537 7.504 5.992 7.504 1.808 0 3.131-0.837 4.102-1.89v6.748h3.564v-19.434h-3.186z"/>
 </g>
 <path d="m6.0017 60.293h14.29v-40.778h-14.29z" stroke-width="1.6036"/>
 <path d="m46.765 60.293h14.283v-40.778h-14.283z" stroke-width="1.6036"/>
 <path d="m78.982 60.293h14.29v-40.778h-14.29z" stroke-width="1.6036"/>
 <g transform="matrix(1.6036 0 0 -1.6036 70.001 18.68)">
  <path d="m0 0c-2.773 0-5.019-2.267-5.019-5.064 0-2.796 2.246-5.07 5.019-5.07 2.779 0 5.033 2.274 5.033 5.07 0 2.797-2.254 5.064-5.033 5.064"/>
 </g>
 <g transform="matrix(1.6036 0 0 -1.6036 111.13 41.804)">
  <path d="m0 0c-0.533 0.903-0.563 1.459-0.05 2.331l7.065 11.568h-9.8s-5.888-9.625-6.693-10.962c-0.797-1.335-0.762-2.167 0.033-3.54 0.805-1.371 6.66-10.926 6.66-10.926h9.8s-6.938 11.386-7.015 11.529"/>
 </g>
 <g transform="matrix(1.6036 0 0 -1.6036 45.867 60.261)">
  <path d="m0 0-4.769 21.326c-0.457 2.33-2.494 4.086-4.935 4.086h-5.726l5.754-25.429h9.678z"/>
 </g>
 <g transform="matrix(1.6036 0 0 -1.6036 170.64 -.018316)">
  <path d="m0 0c-13.75 0-24.892-11.142-24.892-24.889 0-13.744 11.142-24.887 24.892-24.887 13.743 0 24.887 11.143 24.887 24.887 0 13.747-11.144 24.889-24.887 24.889" fill="#00b8f1"/>
 </g>
 <g transform="matrix(1.6036 0 0 -1.6036 185.57 60.277)">
  <path d="m0 0h6.21v25.431h-9.92v-5.386l3.71-5e-3z" fill="#fff"/>
 </g>
 <g transform="matrix(1.6036 0 0 -1.6036 155.51 28.109)">
  <path d="m0 0h3.219c2.507 0 3.635-1.341 3.635-3.462 0-2.157-1.236-3.466-3.781-3.466h-1.144v-5.089h1.5c6.465 0 9.611 3.357 9.611 8.835 0 5.371-3.428 8.553-9.295 8.553h-10v-25.433h6.255z" fill="#fff"/>
 </g>
</svg>
