<svg width="800" height="515.49" version="1.1" viewBox="0 0 211.67 136.39" xmlns="http://www.w3.org/2000/svg">
 <defs>
  <clipPath id="clipPath278">
   <path d="m63.443 489.11h330.01v110.01h-330.01z"/>
  </clipPath>
 </defs>
 <g transform="translate(-103.65 337.42)">
  <g transform="matrix(1.6594 0 0 -1.6594 -169.6 636.85)">
   <g clip-path="url(#clipPath278)">
    <g transform="translate(193.73 522.49)">
     <path d="m0 0-3.752-12.309c0.189-0.027 0.405-0.027 0.621-0.027 3.402 0 5.345 2.402 5.345 6.775 0 2.511-0.783 4.455-2.214 5.561m-6.559-11.121 3.671 12.093h-0.216c-3.401 0-5.372-2.565-5.372-6.533 0-2.564 0.675-4.454 1.917-5.56m3.428 15.494c0.432 0 0.837-0.027 1.241-0.081l0.487 1.565h3.185l-0.702-2.321c3.131-1.431 5.048-4.589 5.048-9.097 0-6.639-3.698-10.175-9.259-10.175-0.566 0-1.106 0.053-1.646 0.107l-0.568-1.916h-3.157l0.836 2.78c-2.941 1.485-4.724 4.616-4.724 9.204 0 6.263 3.699 9.934 9.259 9.934" fill="#fff"/>
    </g>
    <g transform="translate(203.72 511.39)">
     <path d="m0 0c1.35-1.025 3.131-1.836 4.508-1.836 1.296 0 1.997 0.567 1.997 1.458 0 0.944-0.485 1.377-2.834 1.971-3.077 0.782-4.373 1.943-4.373 4.292 0 2.753 2.159 4.399 5.398 4.399 2.268 0 4.185-0.809 5.669-2.159l-1.593-2.079c-1.349 0.972-2.671 1.512-3.914 1.512-1.322 0-1.97-0.459-1.97-1.269 0-1.053 0.945-1.35 3.104-1.971 3.024-0.863 4.401-1.862 4.401-4.237 0-3.023-2.242-4.724-5.697-4.724-2.618 0-4.831 1.08-6.289 2.484z" fill="#fff"/>
    </g>
    <g transform="translate(221.86 518.65)">
     <path d="m0 0v-7.989c0-0.837 0.271-1.161 0.918-1.161 0.432 0 1.269 0.108 1.674 0.243l0.35-2.457c-0.944-0.324-2.267-0.539-3.346-0.539-2.133 0-3.159 1.16-3.159 3.184v8.719h-1.863v2.079l1.917 0.594 0.378 4.102h3.131v-4.076h2.564v-2.699z" fill="#fff"/>
    </g>
    <g transform="translate(228.24 518.65)">
     <path d="m0 0h-1.781v2.133l1.781 0.404v1.485c0 2.538 1.215 4.184 3.995 4.184 0.891 0 1.619-0.081 2.375-0.297l-0.188-2.348c-0.378 0.108-0.811 0.189-1.243 0.189-0.783 0-1.349-0.433-1.349-1.593v-1.458h2.456v-2.699h-2.456v-11.553h-3.59z" fill="#fff"/>
    </g>
    <g transform="translate(243.11 509.77)">
     <path d="m0 0c1.917 0 3.32 1.27 3.32 4.454 0 3.158-1.403 4.481-3.32 4.481-1.916 0-3.293-1.43-3.293-4.481 0-3.184 1.377-4.454 3.293-4.454m0.054 11.904c4.049 0 7.046-2.564 7.046-7.45 0-4.858-3.078-7.476-7.235-7.476-4.264 0-6.937 2.618-6.937 7.395 0 4.913 3.051 7.531 7.126 7.531" fill="#fff"/>
    </g>
    <path d="m253.75 526.54h3.59v-19.435h-3.59z" fill="#fff"/>
    <g transform="translate(271.03 517.01)">
     <path d="m0 0c-0.54 0.647-1.619 1.62-3.131 1.62-1.943 0-3.158-1.431-3.158-4.4 0-2.403 0.782-4.454 3.239-4.454 1.457 0 2.484 0.918 3.05 1.592zm0.216-8.07c-0.729-0.999-2.159-2.187-4.427-2.187-3.968 0-5.857 2.861-5.857 7.423 0 4.832 2.537 7.504 5.992 7.504 1.808 0 3.132-0.837 4.103-1.89v6.748h3.563v-19.434h-3.185z" fill="#fff"/>
    </g>
    <path d="m164.67 549.53h8.911v25.429h-8.911z" fill="#fff"/>
    <path d="m190.09 549.53h8.907v25.429h-8.907z" fill="#fff"/>
    <path d="m210.18 549.53h8.912v25.429h-8.912z" fill="#fff"/>
    <g transform="translate(204.58 575.48)">
     <path d="m0 0c-2.774 0-5.02-2.266-5.02-5.064 0-2.796 2.246-5.07 5.02-5.07 2.778 0 5.033 2.274 5.033 5.07 0 2.798-2.255 5.064-5.033 5.064" fill="#fff"/>
    </g>
    <g transform="translate(230.23 561.06)">
     <path d="m0 0c-0.533 0.904-0.564 1.459-0.049 2.332l7.063 11.567h-9.8s-5.887-9.625-6.692-10.962c-0.797-1.335-0.763-2.167 0.033-3.54 0.805-1.371 6.659-10.926 6.659-10.926h9.8s-6.937 11.387-7.014 11.529" fill="#fff"/>
    </g>
    <g transform="translate(189.53 549.55)">
     <path d="m0 0-4.769 21.327c-0.456 2.33-2.494 4.085-4.936 4.085h-5.725l5.754-25.429h9.678z" fill="#fff"/>
    </g>
    <g transform="translate(267.34 587.13)">
     <path d="m0 0c-13.75 0-24.892-11.142-24.892-24.888 0-13.745 11.142-24.888 24.892-24.888 13.743 0 24.887 11.143 24.887 24.888 0 13.746-11.144 24.888-24.887 24.888" fill="#00b8f1"/>
    </g>
    <g transform="translate(276.65 549.54)">
     <path d="m0 0h6.209v25.43h-9.919v-5.385l3.71-5e-3z" fill="#fff"/>
    </g>
    <g transform="translate(257.9 569.6)">
     <path d="m0 0h3.219c2.507 0 3.636-1.341 3.636-3.462 0-2.157-1.237-3.466-3.782-3.466h-1.144v-5.089h1.5c6.465 0 9.611 3.357 9.611 8.835 0 5.371-3.427 8.553-9.295 8.553h-9.999v-25.433h6.254z" fill="#fff"/>
    </g>
   </g>
  </g>
 </g>
</svg>
