<svg width="800" height="502.26" version="1.1" viewBox="0 0 211.67 132.89" xmlns="http://www.w3.org/2000/svg">
 <g fill="#000001">
  <g transform="matrix(1.6594 0 0 -1.6594 13.13 127.05)">
   <path d="m0 0h3.914c2.106 0 3.239 1.053 3.239 2.78 0 1.835-1.296 2.646-3.346 2.646h-3.807zm0 13.199v-4.912h2.97c1.997 0 3.346 0.782 3.346 2.564 0 1.566-1.052 2.348-2.968 2.348zm-3.725 3.077h7.18c4.535 0 6.694-1.538 6.694-4.777 0-1.943-1.079-3.806-3.374-4.346v-0.054c3.051-0.432 4.185-2.672 4.185-4.481 0-4.535-3.564-5.776-8.071-5.776h-6.614z" fill="#000001"/>
  </g>
  <g transform="matrix(1.6594 0 0 -1.6594 51.877 132.3)">
   <path d="m0 0-0.297 1.862c-1.025-1.16-2.429-2.213-4.508-2.213-3.32 0-4.534 1.97-4.534 4.94v9.663h3.59v-8.8c0-1.781 0.513-2.78 2.132-2.78 1.296 0 2.267 0.729 2.97 1.539v10.041h3.589v-14.252z" fill="#000001"/>
  </g>
  <g transform="matrix(1.6594 0 0 -1.6594 64.472 125.18)">
   <path d="m0 0c1.35-1.025 3.132-1.836 4.508-1.836 1.296 0 1.998 0.567 1.998 1.458 0 0.944-0.486 1.377-2.834 1.971-3.078 0.782-4.373 1.943-4.373 4.292 0 2.753 2.159 4.399 5.398 4.399 2.268 0 4.184-0.809 5.668-2.159l-1.592-2.079c-1.349 0.972-2.672 1.512-3.914 1.512-1.323 0-1.97-0.459-1.97-1.269 0-1.053 0.944-1.35 3.104-1.971 3.023-0.863 4.4-1.862 4.4-4.237 0-3.023-2.241-4.724-5.696-4.724-2.618 0-4.832 1.08-6.289 2.484z" fill="#000001"/>
  </g>
  <g transform="matrix(1.6594 0 0 -1.6594 93.362 116.8)">
   <path d="m0 0h1.755l3.131 4.912h3.941l-4.238-6.316 4.886-7.936h-4.184l-3.779 6.37h-1.512v-6.37h-3.59v19.435h3.59z" fill="#000001"/>
  </g>
  <g transform="matrix(1.6594 0 0 -1.6594 126.92 118.19)">
   <path d="m0 0c0 1.809-0.647 3.374-2.672 3.374-2.376 0-3.077-2.214-3.131-3.374zm3.051-7.019c-1.674-1.241-3.617-1.835-5.777-1.835-4.292 0-6.883 2.591-6.883 7.37 0 4.588 2.672 7.557 6.91 7.557 3.941 0 6.128-2.295 6.128-6.91 0-0.324-0.028-1.512-0.055-1.755h-9.204c0.162-1.943 1.106-3.293 3.536-3.293 1.431 0 2.591 0.378 4.184 1.215z" fill="#000001"/>
  </g>
  <g transform="matrix(1.6594 0 0 -1.6594 143.46 112.05)">
   <path d="m0 0c0.675 1.322 1.835 2.375 3.158 2.375 0.513 0 0.998-0.135 1.404-0.297l-0.27-3.266c-0.459 0.135-0.837 0.189-1.35 0.189-1.08 0-2.079-0.972-2.538-1.755v-9.447h-3.59v14.252h2.862z" fill="#000001"/>
  </g>
  <g transform="matrix(1.6594 0 0 -1.6594 170.79 132.3)">
   <path d="m0 0-0.297 1.862c-1.025-1.16-2.429-2.213-4.508-2.213-3.32 0-4.534 1.97-4.534 4.94v9.663h3.59v-8.8c0-1.781 0.513-2.78 2.132-2.78 1.296 0 2.267 0.729 2.97 1.539v10.041h3.589v-14.252z" fill="#000001"/>
  </g>
  <g transform="matrix(1.6594 0 0 -1.6594 198.25 115.85)">
   <path d="m0 0c-0.54 0.647-1.619 1.62-3.131 1.62-1.943 0-3.158-1.431-3.158-4.4 0-2.403 0.782-4.454 3.239-4.454 1.457 0 2.484 0.918 3.05 1.592zm0.216-8.07c-0.729-0.999-2.159-2.187-4.427-2.187-3.968 0-5.857 2.861-5.857 7.423 0 4.832 2.537 7.504 5.992 7.504 1.808 0 3.132-0.837 4.103-1.89v6.748h3.563v-19.434h-3.185z" fill="#000001"/>
  </g>
  <path d="m0.004398 62.386h14.787v-42.195h-14.787z" stroke-width="1.6594"/>
  <path d="m42.186 62.386h14.78v-42.195h-14.78z" stroke-width="1.6594"/>
  <path d="m75.524 62.386h14.789v-42.195h-14.789z" stroke-width="1.6594"/>
  <g transform="matrix(1.6594 0 0 -1.6594 66.231 19.325)">
   <path d="m0 0c-2.774 0-5.02-2.267-5.02-5.064 0-2.796 2.246-5.07 5.02-5.07 2.778 0 5.033 2.274 5.033 5.07 0 2.797-2.255 5.064-5.033 5.064" fill="#000001"/>
  </g>
  <g transform="matrix(1.6594 0 0 -1.6594 108.79 43.253)">
   <path d="m0 0c-0.533 0.904-0.564 1.459-0.049 2.332l7.063 11.567h-9.8s-5.887-9.625-6.692-10.962c-0.797-1.335-0.763-2.167 0.033-3.54 0.805-1.371 6.659-10.926 6.659-10.926h9.8s-6.937 11.386-7.014 11.529" fill="#000001"/>
  </g>
  <g transform="matrix(1.6594 0 0 -1.6594 41.257 62.353)">
   <path d="m0 0-4.769 21.327c-0.456 2.33-2.494 4.085-4.936 4.085h-5.725l5.754-25.429h9.678z" fill="#000001"/>
  </g>
 </g>
 <g transform="matrix(1.6594 0 0 -1.6594 170.38 -.007346)">
  <path d="m0 0c-13.75 0-24.892-11.141-24.892-24.888 0-13.744 11.142-24.887 24.892-24.887 13.743 0 24.887 11.143 24.887 24.887 0 13.747-11.144 24.888-24.887 24.888" fill="#00b8f1"/>
 </g>
 <g transform="matrix(1.6594 0 0 -1.6594 185.82 62.386)">
  <path d="m0 0h6.209v25.431h-9.919v-5.386l3.71-4e-3z" fill="#fff"/>
 </g>
 <g transform="matrix(1.6594 0 0 -1.6594 154.71 29.099)">
  <path d="m0 0h3.219c2.507 0 3.636-1.341 3.636-3.462 0-2.157-1.237-3.466-3.782-3.466h-1.144v-5.09h1.5c6.465 0 9.611 3.358 9.611 8.836 0 5.371-3.427 8.553-9.295 8.553h-9.999v-25.433h6.254z" fill="#fff"/>
 </g>
</svg>
