<svg width="800" height="538.2" version="1.1" viewBox="0 0 211.67 142.4" xmlns="http://www.w3.org/2000/svg">
 <defs>
  <clipPath id="clipPath556">
   <path d="m422.4 365.94h330.01v110.01h-330.01z"/>
  </clipPath>
 </defs>
 <g transform="translate(-133.16 285.4)">
  <g transform="matrix(1.6594 0 0 -1.6594 -735.72 484.5)">
   <g clip-path="url(#clipPath556)">
    <g transform="translate(531.37 400.05)">
     <path d="m0 0v-6.208h2.942c2.43 0 3.645 1.106 3.645 3.185 0 2.024-1.108 3.023-3.483 3.023zm3.267 3.212c4.751 0 7.126-2.402 7.126-6.073 0-2.484-0.999-4.238-3.105-5.345l4.157-8.017h-4.049l-3.589 7.154c-0.568-0.081-1.08-0.135-1.728-0.135h-2.079v-7.019h-3.725v19.435z" fill="#fff"/>
    </g>
    <g transform="translate(551.62 386.49)">
     <path d="m0 0c1.916 0 3.319 1.27 3.319 4.454 0 3.158-1.403 4.481-3.319 4.481-1.917 0-3.294-1.43-3.294-4.481 0-3.184 1.377-4.454 3.294-4.454m0.054 11.904c4.049 0 7.045-2.564 7.045-7.45 0-4.858-3.078-7.476-7.235-7.476-4.264 0-6.936 2.618-6.936 7.395 0 4.913 3.05 7.531 7.126 7.531" fill="#fff"/>
    </g>
    <g transform="translate(571.76 393.68)">
     <path d="m0 0c-0.485 0.647-1.7 1.674-3.158 1.674-2.025 0-3.131-1.458-3.131-4.266 0-2.672 0.972-4.211 3.185-4.211 1.511 0 2.483 0.865 3.104 1.539zm3.59-9.069c0-4.886-2.132-6.452-6.694-6.452-2.025 0-3.941 0.432-5.156 0.891l0.568 2.618c1.295-0.351 2.644-0.702 4.318-0.702 2.618 0 3.509 1.026 3.509 3.671v1.323c-0.998-1.242-2.537-2.051-4.372-2.051-3.753 0-5.831 2.483-5.831 6.963 0 4.454 2.024 7.532 6.073 7.532 2.052 0 3.536-1.188 4.373-2.16l0.243 1.835h2.969z" fill="#fff"/>
    </g>
    <g transform="translate(587.31 389.68)">
     <path d="m0 0c-0.405 0.081-0.972 0.135-1.701 0.135-1.944 0-3.266-0.513-3.266-2.106 0-1.052 0.675-1.592 1.944-1.592 1.862 0 3.023 1.701 3.023 3.185zm3.59-5.857h-2.861l-0.378 1.916c-1.026-1.511-2.484-2.267-4.481-2.267-2.564 0-4.4 1.403-4.4 4.184 0 2.267 1.62 4.507 6.506 4.507 0.809 0 1.349-0.027 2.024-0.108v1.053c0 1.701-0.892 2.429-2.43 2.429-1.727 0-2.834-0.54-4.211-1.349l-1.214 2.159c1.539 1.215 3.67 2.052 5.803 2.052 3.563 0 5.642-1.539 5.642-5.237z" fill="#fff"/>
    </g>
    <path d="m594.9 403.26h3.59v-19.435h-3.59z" fill="#fff"/>
    <g transform="translate(610.45 389.68)">
     <path d="m0 0c-0.405 0.081-0.972 0.135-1.701 0.135-1.944 0-3.266-0.513-3.266-2.106 0-1.052 0.675-1.592 1.944-1.592 1.862 0 3.023 1.701 3.023 3.185zm3.59-5.857h-2.861l-0.378 1.916c-1.026-1.511-2.484-2.267-4.481-2.267-2.564 0-4.4 1.403-4.4 4.184 0 2.267 1.62 4.507 6.506 4.507 0.809 0 1.349-0.027 2.024-0.108v1.053c0 1.701-0.892 2.429-2.43 2.429-1.727 0-2.834-0.54-4.211-1.349l-1.214 2.159c1.539 1.215 3.67 2.052 5.803 2.052 3.563 0 5.642-1.539 5.642-5.237z" fill="#fff"/>
    </g>
    <g transform="translate(620.95 398.07)">
     <path d="m0 0 0.297-1.89c1.026 1.189 2.618 2.214 4.616 2.214 2.996 0 4.508-1.917 4.508-5.02v-9.556h-3.59v8.476c0 2.132-0.729 3.05-2.241 3.05-1.43 0-2.564-1.08-2.996-1.592v-9.934h-3.59v14.252z" fill="#fff"/>
    </g>
    <g transform="translate(643.87 393.73)">
     <path d="m0 0c-0.54 0.647-1.62 1.62-3.132 1.62-1.943 0-3.158-1.431-3.158-4.4 0-2.403 0.783-4.454 3.239-4.454 1.458 0 2.484 0.918 3.051 1.592zm0.216-8.07c-0.73-0.999-2.16-2.187-4.427-2.187-3.969 0-5.857 2.861-5.857 7.423 0 4.832 2.537 7.504 5.992 7.504 1.808 0 3.131-0.837 4.102-1.89v6.748h3.564v-19.434h-3.186z" fill="#fff"/>
    </g>
    <path d="m523.62 426.37h8.911v25.429h-8.911z" fill="#fff"/>
    <path d="m549.05 426.37h8.907v25.429h-8.907z" fill="#fff"/>
    <path d="m569.13 426.37h8.912v25.429h-8.912z" fill="#fff"/>
    <g transform="translate(563.54 452.32)">
     <path d="m0 0c-2.774 0-5.02-2.267-5.02-5.064s2.246-5.07 5.02-5.07c2.778 0 5.033 2.273 5.033 5.07s-2.255 5.064-5.033 5.064" fill="#fff"/>
    </g>
    <g transform="translate(589.19 437.9)">
     <path d="m0 0c-0.532 0.903-0.563 1.459-0.049 2.332l7.064 11.567h-9.8s-5.888-9.625-6.693-10.962c-0.796-1.335-0.762-2.167 0.034-3.54 0.804-1.371 6.659-10.927 6.659-10.927h9.8s-6.937 11.387-7.015 11.53" fill="#fff"/>
    </g>
    <g transform="translate(548.49 426.38)">
     <path d="m0 0-4.769 21.326c-0.456 2.33-2.493 4.086-4.935 4.086h-5.726l5.754-25.429h9.679z" fill="#fff"/>
    </g>
    <g transform="translate(626.3 463.97)">
     <path d="m0 0c-13.749 0-24.892-11.142-24.892-24.888 0-13.744 11.143-24.888 24.892-24.888 13.743 0 24.887 11.144 24.887 24.888 0 13.746-11.144 24.888-24.887 24.888" fill="#00b8f1"/>
    </g>
    <g transform="translate(635.6 426.37)">
     <path d="m0 0h6.21v25.431h-9.92v-5.386l3.71-4e-3z" fill="#fff"/>
    </g>
    <g transform="translate(616.86 446.43)">
     <path d="m0 0h3.219c2.508 0 3.636-1.341 3.636-3.462 0-2.158-1.237-3.466-3.782-3.466h-1.143v-5.09h1.499c6.465 0 9.611 3.358 9.611 8.836 0 5.371-3.428 8.553-9.295 8.553h-9.999v-25.433h6.254z" fill="#fff"/>
    </g>
   </g>
  </g>
 </g>
</svg>
