<svg width="800" height="535.65" version="1.1" viewBox="0 0 211.67 141.72" xmlns="http://www.w3.org/2000/svg">
 <path d="m9.5497 105.74h-9.627v-5.4367h25.358v5.4367h-9.5808v26.65h-6.15z" stroke-width="1.651"/>
 <g transform="matrix(1.651 0 0 -1.651 30.633 112.25)">
  <path d="m0 0c0.675 1.322 1.835 2.375 3.158 2.375 0.513 0 0.998-0.135 1.404-0.297l-0.27-3.266c-0.459 0.135-0.837 0.189-1.35 0.189-1.08 0-2.079-0.972-2.538-1.755v-9.447h-3.59v14.252h2.862z"/>
 </g>
 <g transform="matrix(1.651 0 0 -1.651 56.752 115.09)">
  <path d="m0 0-2.457-7.802h0.027c1.917 0 3.321 1.27 3.321 4.454 0 1.539-0.325 2.619-0.891 3.348m-4.778-6.803 2.457 7.936h-0.109c-1.916 0-3.293-1.43-3.293-4.481 0-1.619 0.351-2.726 0.945-3.455m2.402 10.906c0.324 0 0.648-0.028 0.972-0.054l0.459 1.484h2.673l-0.675-2.186c2.186-1.08 3.617-3.347 3.617-6.695 0-4.858-3.077-7.476-7.234-7.476-0.271 0-0.568 0-0.81 0.026l-0.54-1.727h-2.646l0.729 2.321c-2.321 1.053-3.671 3.374-3.671 6.775 0 4.913 3.051 7.532 7.126 7.532"/>
 </g>
 <g transform="matrix(1.651 0 0 -1.651 74.236 108.86)">
  <path d="m0 0 0.297-1.89c1.026 1.189 2.618 2.214 4.616 2.214 2.996 0 4.508-1.917 4.508-5.02v-9.556h-3.59v8.476c0 2.132-0.729 3.05-2.241 3.05-1.43 0-2.564-1.08-2.996-1.592v-9.934h-3.59v14.252z"/>
 </g>
 <g transform="matrix(1.651 0 0 -1.651 112.08 116.03)">
  <path d="m0 0c-0.54 0.647-1.619 1.62-3.131 1.62-1.943 0-3.158-1.431-3.158-4.4 0-2.403 0.782-4.454 3.239-4.454 1.457 0 2.484 0.918 3.05 1.592zm0.216-8.07c-0.729-0.999-2.159-2.187-4.427-2.187-3.968 0-5.857 2.861-5.857 7.423 0 4.832 2.537 7.504 5.992 7.504 1.808 0 3.132-0.837 4.103-1.89v6.748h3.563v-19.434h-3.185z"/>
 </g>
 <g transform="matrix(1.651 0 0 -1.651 139.48 118.36)">
  <path d="m0 0c0 1.809-0.648 3.374-2.673 3.374-2.375 0-3.077-2.214-3.131-3.374zm3.05-7.019c-1.674-1.241-3.617-1.835-5.777-1.835-4.292 0-6.882 2.591-6.882 7.37 0 4.588 2.672 7.557 6.91 7.557 3.94 0 6.127-2.295 6.127-6.91 0-0.324-0.027-1.512-0.054-1.755h-9.205c0.162-1.943 1.107-3.293 3.536-3.293 1.431 0 2.592 0.378 4.185 1.215z"/>
 </g>
 <path d="m150.81 100.29h5.9271v32.087h-5.9271z" stroke-width="1.651"/>
 <g transform="matrix(1.651 0 0 -1.651 176.48 122.71)">
  <path d="m0 0c-0.405 0.081-0.972 0.135-1.7 0.135-1.944 0-3.267-0.513-3.267-2.106 0-1.052 0.675-1.592 1.944-1.592 1.863 0 3.023 1.701 3.023 3.185zm3.59-5.857h-2.861l-0.378 1.916c-1.026-1.511-2.484-2.267-4.481-2.267-2.564 0-4.399 1.403-4.399 4.184 0 2.267 1.619 4.507 6.505 4.507 0.809 0 1.349-0.027 2.024-0.108v1.053c0 1.701-0.891 2.429-2.43 2.429-1.727 0-2.834-0.54-4.21-1.349l-1.214 2.159c1.538 1.215 3.67 2.052 5.802 2.052 3.564 0 5.642-1.539 5.642-5.237z"/>
 </g>
 <g transform="matrix(1.651 0 0 -1.651 204.63 116.13)">
  <path d="m0 0c-0.485 0.647-1.7 1.674-3.158 1.674-2.025 0-3.131-1.458-3.131-4.266 0-2.672 0.972-4.211 3.185-4.211 1.511 0 2.483 0.865 3.104 1.539zm3.59-9.069c0-4.886-2.132-6.452-6.694-6.452-2.025 0-3.941 0.432-5.156 0.891l0.568 2.618c1.295-0.351 2.644-0.702 4.318-0.702 2.618 0 3.509 1.026 3.509 3.671v1.323c-0.998-1.242-2.537-2.051-4.372-2.051-3.753 0-5.831 2.483-5.831 6.963 0 4.454 2.024 7.532 6.073 7.532 2.052 0 3.536-1.188 4.373-2.16l0.243 1.835h2.969z"/>
 </g>
 <path d="m0.98105 62.106h14.712v-41.983h-14.712z" stroke-width="1.651"/>
 <path d="m42.949 62.106h14.704v-41.983h-14.704z" stroke-width="1.651"/>
 <path d="m76.118 62.106h14.714v-41.983h-14.714z" stroke-width="1.651"/>
 <g transform="matrix(1.651 0 0 -1.651 66.872 19.263)">
  <path d="m0 0c-2.774 0-5.02-2.267-5.02-5.064 0-2.796 2.246-5.07 5.02-5.07 2.778 0 5.033 2.274 5.033 5.07 0 2.797-2.255 5.064-5.033 5.064"/>
 </g>
 <g transform="matrix(1.651 0 0 -1.651 109.22 43.07)">
  <path d="m0 0c-0.533 0.903-0.564 1.459-0.05 2.332l7.064 11.567h-9.8s-5.887-9.625-6.692-10.962c-0.797-1.335-0.763-2.167 0.033-3.54 0.804-1.371 6.659-10.927 6.659-10.927h9.8s-6.937 11.387-7.014 11.53"/>
 </g>
 <g transform="matrix(1.651 0 0 -1.651 42.025 62.073)">
  <path d="m0 0-4.77 21.326c-0.456 2.331-2.493 4.086-4.935 4.086h-5.726l5.754-25.429h9.679z"/>
 </g>
 <g transform="matrix(1.651 0 0 -1.651 170.49 .02877)">
  <path d="m0 0c-13.749 0-24.892-11.142-24.892-24.888 0-13.744 11.143-24.887 24.892-24.887 13.743 0 24.888 11.143 24.888 24.887 0 13.746-11.145 24.888-24.888 24.888" fill="#00b8f1"/>
 </g>
 <g transform="matrix(1.651 0 0 -1.651 185.86 62.106)">
  <path d="m0 0h6.209v25.431h-9.919v-5.386l3.71-4e-3z" fill="#fff"/>
 </g>
 <g transform="matrix(1.651 0 0 -1.651 154.9 28.987)">
  <path d="m0 0h3.219c2.508 0 3.636-1.341 3.636-3.462 0-2.158-1.237-3.466-3.782-3.466h-1.143v-5.09h1.5c6.464 0 9.61 3.358 9.61 8.836 0 5.371-3.427 8.553-9.295 8.553h-9.999v-25.433h6.254z" fill="#fff"/>
 </g>
</svg>
