<svg width="800" height="504.22" version="1.1" viewBox="0 0 211.67 133.41" xmlns="http://www.w3.org/2000/svg">
 <path d="m6.8159 100.56h6.1813v32.25h-6.1813z" stroke-width="1.6594"/>
 <g transform="matrix(1.6594 0 0 -1.6594 25.003 109.17)">
  <path d="m0 0 0.297-1.89c1.025 1.189 2.618 2.214 4.615 2.214 2.996 0 4.508-1.917 4.508-5.02v-9.556h-3.59v8.476c0 2.132-0.728 3.05-2.24 3.05-1.431 0-2.565-1.08-2.996-1.592v-9.934h-3.59v14.252z"/>
 </g>
 <g transform="matrix(1.6594 0 0 -1.6594 52.118 109.17)">
  <path d="m0 0 0.297-1.89c1.025 1.189 2.618 2.214 4.615 2.214 2.996 0 4.508-1.917 4.508-5.02v-9.556h-3.59v8.476c0 2.132-0.728 3.05-2.24 3.05-1.431 0-2.565-1.08-2.996-1.592v-9.934h-3.59v14.252z"/>
 </g>
 <path d="m74.37 100.56h5.9572v32.25h-5.9572z" stroke-width="1.6594"/>
 <g transform="matrix(1.6594 0 0 -1.6594 100.19 123.09)">
  <path d="m0 0c-0.405 0.081-0.972 0.135-1.701 0.135-1.944 0-3.266-0.513-3.266-2.106 0-1.052 0.675-1.592 1.944-1.592 1.862 0 3.023 1.701 3.023 3.185zm3.59-5.857h-2.861l-0.378 1.916c-1.026-1.511-2.484-2.267-4.481-2.267-2.564 0-4.4 1.403-4.4 4.184 0 2.267 1.62 4.507 6.506 4.507 0.809 0 1.349-0.027 2.024-0.108v1.053c0 1.701-0.892 2.429-2.43 2.429-1.727 0-2.834-0.54-4.211-1.349l-1.214 2.159c1.539 1.215 3.67 2.052 5.803 2.052 3.563 0 5.642-1.539 5.642-5.237z"/>
 </g>
 <g transform="matrix(1.6594 0 0 -1.6594 117.61 109.17)">
  <path d="m0 0 0.297-1.89c1.025 1.189 2.618 2.214 4.615 2.214 2.996 0 4.508-1.917 4.508-5.02v-9.556h-3.59v8.476c0 2.132-0.728 3.05-2.24 3.05-1.431 0-2.565-1.08-2.996-1.592v-9.934h-3.59v14.252z"/>
 </g>
 <g transform="matrix(1.6594 0 0 -1.6594 155.65 116.37)">
  <path d="m0 0c-0.54 0.647-1.619 1.62-3.131 1.62-1.943 0-3.158-1.431-3.158-4.4 0-2.403 0.782-4.454 3.239-4.454 1.457 0 2.484 0.918 3.05 1.592zm0.216-8.07c-0.729-0.999-2.159-2.187-4.427-2.187-3.968 0-5.857 2.861-5.857 7.423 0 4.832 2.537 7.504 5.992 7.504 1.808 0 3.132-0.837 4.103-1.89v6.748h3.563v-19.434h-3.185z"/>
 </g>
 <g transform="matrix(1.6594 0 0 -1.6594 183.19 118.7)">
  <path d="m0 0c0 1.809-0.647 3.374-2.672 3.374-2.376 0-3.077-2.214-3.131-3.374zm3.051-7.019c-1.674-1.241-3.617-1.835-5.777-1.835-4.292 0-6.883 2.591-6.883 7.37 0 4.588 2.672 7.557 6.91 7.557 3.941 0 6.128-2.295 6.128-6.91 0-0.324-0.028-1.512-0.055-1.755h-9.204c0.162-1.943 1.106-3.293 3.536-3.293 1.431 0 2.591 0.378 4.184 1.215z"/>
 </g>
 <g transform="matrix(1.6594 0 0 -1.6594 201.61 113.64)">
  <path d="m0 0v-7.989c0-0.837 0.271-1.161 0.918-1.161 0.432 0 1.269 0.108 1.674 0.243l0.35-2.457c-0.944-0.324-2.267-0.539-3.346-0.539-2.133 0-3.159 1.16-3.159 3.184v8.719h-1.863v2.079l1.917 0.594 0.378 4.102h3.131v-4.076h2.564v-2.699z"/>
 </g>
 <path d="m0.012398 62.377h14.787v-42.197h-14.787z" stroke-width="1.6594"/>
 <path d="m42.194 62.377h14.78v-42.197h-14.78z" stroke-width="1.6594"/>
 <path d="m75.532 62.377h14.789v-42.197h-14.789z" stroke-width="1.6594"/>
 <g transform="matrix(1.6594 0 0 -1.6594 66.239 19.316)">
  <path d="m0 0c-2.774 0-5.02-2.267-5.02-5.064 0-2.796 2.246-5.07 5.02-5.07 2.778 0 5.033 2.274 5.033 5.07 0 2.797-2.255 5.064-5.033 5.064"/>
 </g>
 <g transform="matrix(1.6594 0 0 -1.6594 108.8 43.245)">
  <path d="m0 0c-0.533 0.903-0.564 1.459-0.049 2.331l7.063 11.568h-9.8s-5.887-9.625-6.692-10.962c-0.797-1.335-0.763-2.167 0.033-3.54 0.805-1.371 6.659-10.926 6.659-10.926h9.8s-6.937 11.386-7.014 11.529"/>
 </g>
 <g transform="matrix(1.6594 0 0 -1.6594 41.265 62.361)">
  <path d="m0 0-4.769 21.326c-0.456 2.33-2.494 4.086-4.936 4.086h-5.725l5.754-25.429h9.678z"/>
 </g>
 <g transform="matrix(1.6594 0 0 -1.6594 170.38 -.015998)">
  <path d="m0 0c-13.75 0-24.892-11.141-24.892-24.888 0-13.744 11.142-24.887 24.892-24.887 13.743 0 24.887 11.143 24.887 24.887 0 13.747-11.144 24.888-24.887 24.888" fill="#00b8f1"/>
 </g>
 <g transform="matrix(1.6594 0 0 -1.6594 185.83 62.377)">
  <path d="m0 0h6.209v25.431h-9.919v-5.386l3.71-5e-3z" fill="#fff"/>
 </g>
 <g transform="matrix(1.6594 0 0 -1.6594 154.72 29.09)">
  <path d="m0 0h3.219c2.507 0 3.636-1.341 3.636-3.462 0-2.157-1.237-3.466-3.782-3.466h-1.144v-5.089h1.5c6.465 0 9.611 3.357 9.611 8.835 0 5.371-3.427 8.553-9.295 8.553h-9.999v-25.433h6.254z" fill="#fff"/>
 </g>
</svg>
