<svg width="800" height="505.11" version="1.1" viewBox="0 0 211.67 133.64" xmlns="http://www.w3.org/2000/svg">
 <path d="m8.6492 100.82h20.648v5.4644h-14.467v8.2422h12.766v5.33h-12.766v13.214h-6.1813z" stroke-width="1.6594"/>
 <path d="m40.725 133.06h-5.9124v-23.65h5.9124zm-2.8658-32.788c2.1041 0 3.5826 1.0753 3.5826 3.0898 0 1.9282-1.4785 3.0019-3.5826 3.0019-1.973 0-3.5395-1.0736-3.5395-3.0019 0-2.0145 1.5665-3.0898 3.5395-3.0898" stroke-width="1.6594"/>
 <g transform="matrix(1.6594 0 0 -1.6594 52.656 109.41)">
  <path d="m0 0 0.297-1.89c1.026 1.189 2.618 2.214 4.616 2.214 2.996 0 4.508-1.917 4.508-5.02v-9.556h-3.59v8.476c0 2.132-0.729 3.05-2.241 3.05-1.43 0-2.564-1.08-2.996-1.592v-9.934h-3.59v14.252z"/>
 </g>
 <g transform="matrix(1.6594 0 0 -1.6594 79.754 109.41)">
  <path d="m0 0 0.297-1.89c1.026 1.189 2.618 2.214 4.616 2.214 2.996 0 4.508-1.917 4.508-5.02v-9.556h-3.59v8.476c0 2.132-0.729 3.05-2.241 3.05-1.43 0-2.564-1.08-2.996-1.592v-9.934h-3.59v14.252z"/>
 </g>
 <g transform="matrix(1.6594 0 0 -1.6594 106.87 109.41)">
  <path d="m0 0 0.297-1.862c0.945 1.106 2.295 2.186 4.319 2.186 1.835 0 2.915-0.837 3.455-2.133 1.079 1.134 2.484 2.133 4.534 2.133 2.808 0 3.969-1.836 3.969-4.697v-9.879h-3.591v9.178c0 1.457-0.378 2.321-1.754 2.321-1.187 0-2.186-0.972-2.645-1.458v-10.041h-3.563v9.069c0 1.485-0.297 2.43-1.673 2.43-1.269 0-2.268-0.972-2.754-1.512v-9.987h-3.59v14.252z"/>
 </g>
 <g transform="matrix(1.6594 0 0 -1.6594 153.9 123.33)">
  <path d="m0 0c-0.405 0.081-0.972 0.135-1.7 0.135-1.944 0-3.267-0.513-3.267-2.106 0-1.052 0.675-1.592 1.944-1.592 1.863 0 3.023 1.701 3.023 3.185zm3.59-5.857h-2.861l-0.378 1.916c-1.026-1.511-2.484-2.267-4.481-2.267-2.564 0-4.399 1.403-4.399 4.184 0 2.267 1.619 4.507 6.505 4.507 0.809 0 1.349-0.027 2.024-0.108v1.053c0 1.701-0.891 2.429-2.43 2.429-1.727 0-2.834-0.54-4.211-1.349l-1.213 2.159c1.538 1.215 3.67 2.052 5.802 2.052 3.564 0 5.642-1.539 5.642-5.237z"/>
 </g>
 <g transform="matrix(1.6594 0 0 -1.6594 171.65 112.81)">
  <path d="m0 0c0.675 1.322 1.836 2.375 3.158 2.375 0.513 0 0.999-0.135 1.404-0.297l-0.27-3.266c-0.459 0.135-0.837 0.189-1.35 0.189-1.08 0-2.078-0.972-2.537-1.755v-9.447h-3.59v14.252h2.862z"/>
 </g>
 <g transform="matrix(1.6594 0 0 -1.6594 189.61 117.56)">
  <path d="m0 0h1.755l3.131 4.912h3.94l-4.237-6.316 4.886-7.936h-4.185l-3.778 6.37h-1.512v-6.37h-3.59v19.435h3.59z"/>
 </g>
 <path d="m0.03687 62.384h14.787v-42.197h-14.787z" stroke-width="1.6594"/>
 <path d="m42.219 62.384h14.779v-42.197h-14.779z" stroke-width="1.6594"/>
 <path d="m75.556 62.384h14.789v-42.197h-14.789z" stroke-width="1.6594"/>
 <g transform="matrix(1.6594 0 0 -1.6594 66.264 19.323)">
  <path d="m0 0c-2.774 0-5.02-2.267-5.02-5.064 0-2.796 2.246-5.07 5.02-5.07 2.778 0 5.033 2.274 5.033 5.07 0 2.797-2.255 5.064-5.033 5.064"/>
 </g>
 <g transform="matrix(1.6594 0 0 -1.6594 108.83 43.251)">
  <path d="m0 0c-0.533 0.903-0.564 1.459-0.05 2.331l7.064 11.567h-9.8s-5.887-9.624-6.692-10.961c-0.797-1.335-0.763-2.167 0.033-3.54 0.804-1.371 6.659-10.927 6.659-10.927h9.8s-6.937 11.387-7.014 11.53"/>
 </g>
 <g transform="matrix(1.6594 0 0 -1.6594 41.29 62.368)">
  <path d="m0 0-4.77 21.326c-0.456 2.33-2.493 4.085-4.935 4.085h-5.726l5.754-25.429h9.679z"/>
 </g>
 <g transform="matrix(1.6594 0 0 -1.6594 170.41 -.00916)">
  <path d="m0 0c-13.749 0-24.892-11.142-24.892-24.888 0-13.744 11.143-24.887 24.892-24.887 13.743 0 24.888 11.143 24.888 24.887 0 13.746-11.145 24.888-24.888 24.888" fill="#00b8f1"/>
 </g>
 <g transform="matrix(1.6594 0 0 -1.6594 185.86 62.384)">
  <path d="m0 0h6.209v25.431h-9.919v-5.386l3.71-5e-3z" fill="#fff"/>
 </g>
 <g transform="matrix(1.6594 0 0 -1.6594 154.74 29.097)">
  <path d="m0 0h3.219c2.508 0 3.636-1.341 3.636-3.462 0-2.157-1.237-3.466-3.782-3.466h-1.143v-5.09h1.5c6.464 0 9.61 3.358 9.61 8.836 0 5.371-3.427 8.553-9.295 8.553h-9.999v-25.433h6.254z" fill="#fff"/>
 </g>
</svg>
