<svg width="800" height="515.66" version="1.1" viewBox="0 0 211.67 136.44" xmlns="http://www.w3.org/2000/svg">
 <g transform="matrix(1.6594 0 0 -1.6594 5.8893 124.42)">
  <path d="m0 0c1.781-1.484 3.778-2.43 5.749-2.43 1.7 0 2.942 0.946 2.942 2.538 0 1.457-0.783 2.267-4.076 3.185-4.049 1.134-5.695 2.592-5.695 5.642 0 3.805 2.942 5.641 6.748 5.641 2.537 0 4.832-0.918 6.641-2.726l-1.809-2.213c-1.431 1.268-3.132 1.916-4.751 1.916-1.755 0-2.996-0.756-2.996-2.24 0-1.674 1.296-2.16 4.508-3.212 3.724-1.215 5.317-2.592 5.317-5.615 0-3.753-2.726-6.019-6.964-6.019-3.023 0-5.56 1.214-7.477 3.239z"/>
 </g>
 <g transform="matrix(1.6594 0 0 -1.6594 47.358 115.62)">
  <path d="m0 0-2.456-7.802h0.027c1.916 0 3.32 1.27 3.32 4.454 0 1.539-0.324 2.619-0.891 3.348m-4.777-6.803 2.456 7.936h-0.108c-1.917 0-3.294-1.43-3.294-4.481 0-1.619 0.352-2.726 0.946-3.455m2.402 10.906c0.324 0 0.647-0.028 0.972-0.054l0.459 1.484h2.672l-0.675-2.186c2.186-1.08 3.617-3.347 3.617-6.695 0-4.858-3.077-7.476-7.234-7.476-0.27 0-0.567 0-0.81 0.026l-0.54-1.727h-2.645l0.729 2.321c-2.321 1.053-3.671 3.374-3.671 6.775 0 4.913 3.05 7.532 7.126 7.532"/>
 </g>
 <g transform="matrix(1.6594 0 0 -1.6594 65.246 112.77)">
  <path d="m0 0c0.675 1.322 1.835 2.375 3.158 2.375 0.513 0 0.998-0.135 1.404-0.297l-0.27-3.266c-0.459 0.135-0.837 0.189-1.35 0.189-1.08 0-2.079-0.972-2.538-1.755v-9.447h-3.59v14.252h2.862z"/>
 </g>
 <path d="m77.393 100.76h5.9572v32.25h-5.9572z" stroke-width="1.6594"/>
 <g transform="matrix(1.6594 0 0 -1.6594 103.2 123.29)">
  <path d="m0 0c-0.405 0.081-0.972 0.135-1.7 0.135-1.944 0-3.267-0.513-3.267-2.106 0-1.052 0.675-1.592 1.944-1.592 1.863 0 3.023 1.701 3.023 3.185zm3.59-5.857h-2.861l-0.378 1.916c-1.026-1.511-2.484-2.267-4.481-2.267-2.564 0-4.399 1.403-4.399 4.184 0 2.267 1.619 4.507 6.505 4.507 0.809 0 1.349-0.027 2.024-0.108v1.053c0 1.701-0.891 2.429-2.43 2.429-1.727 0-2.834-0.54-4.211-1.349l-1.213 2.159c1.538 1.215 3.67 2.052 5.802 2.052 3.564 0 5.642-1.539 5.642-5.237z"/>
 </g>
 <g transform="matrix(1.6594 0 0 -1.6594 120.62 109.37)">
  <path d="m0 0 0.297-1.89c1.025 1.189 2.618 2.214 4.615 2.214 2.996 0 4.508-1.917 4.508-5.02v-9.556h-3.59v8.476c0 2.132-0.728 3.05-2.24 3.05-1.431 0-2.565-1.08-2.996-1.592v-9.934h-3.59v14.252z"/>
 </g>
 <g transform="matrix(1.6594 0 0 -1.6594 158.65 116.57)">
  <path d="m0 0c-0.54 0.647-1.619 1.62-3.131 1.62-1.943 0-3.158-1.431-3.158-4.4 0-2.403 0.782-4.454 3.239-4.454 1.457 0 2.484 0.918 3.05 1.592zm0.216-8.07c-0.729-0.999-2.159-2.187-4.427-2.187-3.968 0-5.857 2.861-5.857 7.423 0 4.832 2.537 7.504 5.992 7.504 1.808 0 3.132-0.837 4.103-1.89v6.748h3.563v-19.434h-3.185z"/>
 </g>
 <g transform="matrix(1.6594 0 0 -1.6594 186.22 118.91)">
  <path d="m0 0c0 1.809-0.648 3.374-2.673 3.374-2.375 0-3.077-2.214-3.131-3.374zm3.05-7.019c-1.674-1.241-3.617-1.835-5.777-1.835-4.292 0-6.882 2.591-6.882 7.37 0 4.588 2.672 7.557 6.91 7.557 3.94 0 6.127-2.295 6.127-6.91 0-0.324-0.028-1.512-0.054-1.755h-9.205c0.162-1.943 1.107-3.293 3.536-3.293 1.431 0 2.592 0.378 4.185 1.215z"/>
 </g>
 <g transform="matrix(1.6594 0 0 -1.6594 204.62 113.85)">
  <path d="m0 0v-7.989c0-0.837 0.271-1.161 0.918-1.161 0.432 0 1.269 0.108 1.674 0.243l0.35-2.457c-0.944-0.324-2.267-0.539-3.346-0.539-2.133 0-3.159 1.16-3.159 3.184v8.719h-1.863v2.079l1.917 0.594 0.378 4.102h3.131v-4.076h2.564v-2.699z"/>
 </g>
 <path d="m0.015028 62.373h14.787v-42.197h-14.787z" stroke-width="1.6594"/>
 <path d="m42.214 62.373h14.78v-42.197h-14.78z" stroke-width="1.6594"/>
 <path d="m75.534 62.373h14.789v-42.197h-14.789z" stroke-width="1.6594"/>
 <g transform="matrix(1.6594 0 0 -1.6594 66.258 19.312)">
  <path d="m0 0c-2.774 0-5.02-2.267-5.02-5.064 0-2.796 2.246-5.07 5.02-5.07 2.778 0 5.033 2.274 5.033 5.07 0 2.797-2.255 5.064-5.033 5.064"/>
 </g>
 <g transform="matrix(1.6594 0 0 -1.6594 108.82 43.24)">
  <path d="m0 0c-0.532 0.903-0.563 1.459-0.049 2.332l7.064 11.567h-9.8s-5.888-9.625-6.693-10.962c-0.796-1.335-0.762-2.167 0.034-3.54 0.804-1.371 6.659-10.927 6.659-10.927h9.8s-6.937 11.387-7.015 11.53"/>
 </g>
 <g transform="matrix(1.6594 0 0 -1.6594 41.284 62.34)">
  <path d="m0 0-4.769 21.326c-0.456 2.331-2.493 4.086-4.935 4.086h-5.726l5.754-25.429h9.679z"/>
 </g>
 <g transform="matrix(1.6594 0 0 -1.6594 170.4 -.020362)">
  <path d="m0 0c-13.749 0-24.892-11.142-24.892-24.888 0-13.744 11.143-24.887 24.892-24.887 13.743 0 24.887 11.143 24.887 24.887 0 13.746-11.144 24.888-24.887 24.888" fill="#00b8f1"/>
 </g>
 <g transform="matrix(1.6594 0 0 -1.6594 185.83 62.373)">
  <path d="m0 0h6.21v25.431h-9.92v-5.386l3.71-4e-3z" fill="#fff"/>
 </g>
 <g transform="matrix(1.6594 0 0 -1.6594 154.74 29.086)">
  <path d="m0 0h3.219c2.508 0 3.636-1.341 3.636-3.462 0-2.158-1.237-3.466-3.782-3.466h-1.143v-5.09h1.499c6.465 0 9.611 3.358 9.611 8.836 0 5.371-3.428 8.553-9.295 8.553h-9.999v-25.433h6.254z" fill="#fff"/>
 </g>
</svg>
