<svg width="800" height="129.1" aria-hidden="true" version="1.1" viewBox="0 0 800 129.1" xmlns="http://www.w3.org/2000/svg">
 <path d="m699.86 56.475c0.43226-8.3571 3.0258-15.417 11.959-15.417 7.7807 0 10.374 5.4753 10.518 15.417zm13.112 45.532c12.536 0 21.901-3.0258 28.529-7.3485l-4.0345-14.265c-7.6366 3.314-14.553 4.6108-20.46 4.6108-11.815 0-16.858-6.1958-17.291-15.417h42.074c0.43226-2.5936 0.57635-7.3485 0.57635-10.23 0-22.478-9.798-34.005-29.97-34.005-21.181 0-34.581 13.977-34.581 38.904 0 26.08 14.121 37.751 35.157 37.751zm-296.82 27.088c15.994 0 23.486-9.6539 29.97-29.25l19.308-59.364 5.9076-1.7291v-11.671h-29.97v11.239l6.484 2.1613-11.095 39.768h-0.28818l-10.518-39.768 6.9162-2.0172v-11.383h-36.166v11.383l5.7635 2.1613 20.749 62.678-1.1527 3.0258c-1.8731 4.899-4.7549 6.1958-9.5098 6.1958-4.6108 0-9.942-2.0172-12.392-2.8818l-4.1786 14.697c4.1786 2.1613 11.383 4.7549 20.172 4.7549zm161.23-72.62c0.43226-8.3571 3.0258-15.417 11.959-15.417 7.7807 0 10.374 5.4753 10.518 15.417zm213.39 43.803v-11.095l-11.815-2.8818v-32.708c3.0258-4.3226 7.2044-6.4839 13.256-6.4839 1.585 0 5.6194 0.28818 7.7807 0.72044v-21.613c-2.1613-0.57635-3.8904-0.86453-6.628-0.86453-7.4926 0-13.4 6.1958-16.426 12.392h-0.28817l-2.0172-10.662h-24.783v11.383l7.4926 2.1613v46.108l-7.4926 2.4495v11.095zm-133.71 1.729c5.3312 0 14.409-1.729 19.596-4.899l-3.8904-13.4c-2.3054 0.86453-5.6194 2.0172-8.6453 2.0172-5.6194 0-7.3485-2.1613-7.3485-8.7894v-34.005h15.994v-15.85h-15.994v-17.723h-16.858l-3.8904 17.723h-10.518v15.85h9.6539v36.886c0 15.706 6.1958 22.19 21.901 22.19zm-66.569 0c12.536 0 21.901-3.0258 28.529-7.3485l-4.0345-14.265c-7.6366 3.314-14.553 4.6108-20.46 4.6108-11.815 0-16.858-6.1958-17.291-15.417h42.074c0.43226-2.5936 0.57635-7.3485 0.57635-10.23 0-22.478-9.798-34.005-29.97-34.005-21.181 0-34.581 13.977-34.581 38.904 0 26.08 14.121 37.751 35.157 37.751zm-39.048-1.729v-11.095l-8.5012-2.5936v-37.031c0-16.138-7.6366-24.207-21.325-24.207-9.0775 0-14.985 3.0258-20.749 9.3657h-0.28818v-32.852h-28.962v11.383l7.7807 2.1613v71.179l-7.7807 2.5936v11.095h38.183v-11.095l-8.7894-2.5936v-38.471c2.3054-2.0172 7.2044-5.3312 11.959-5.3312 5.7635 0 8.3571 3.0258 8.3571 11.239v46.252zm-162.82 0v-84.435l8.3571-2.4495v-11.527h-34.149v11.527l8.3571 2.4495v49.422h-0.28817l-37.463-63.399h-28.818v11.527l8.3571 2.4495v70.459l-8.3571 2.5936v11.383h33.861v-11.383l-8.213-2.5936v-45.964h0.28818l36.166 59.94zm-133.85-44.638c-2.0629-3.4948-2.1811-5.6436-0.19161-9.0175l27.332-44.738h-37.918s-22.781 37.224-25.896 42.397c-3.0848 5.1654-2.9516 8.3818 0.12638 13.69 3.1147 5.3013 25.77 42.259 25.77 42.259h37.918s-26.842-44.039-27.141-44.59m-77.805 44.59h34.484v-98.346h-34.484m-21.747-1.8841c-10.788 0-19.52 8.8134-19.52 19.695 0 10.874 8.7315 19.715 19.52 19.715 10.806 0 19.574-8.8407 19.574-19.715 0-10.881-8.7684-19.695-19.574-19.695m-56.361 100.23h34.464v-98.346h-34.464m-98.867 98.346h34.4v-98.346h-34.4m77.929 15.801c-1.7653-9.012-9.6484-15.801-19.097-15.801h-22.156l22.263 98.346h37.451z" fill="#fff" stroke-width="8.1955"/>
</svg>
