<svg width="800" height="273.31" version="1.1" viewBox="0 0 211.67 72.313" xmlns="http://www.w3.org/2000/svg">
 <defs>
  <clipPath id="clipPath20">
   <path d="m63.443 610.76h330.01v110.01h-330.01z"/>
  </clipPath>
 </defs>
 <g transform="translate(66.706 93.606)">
  <g transform="matrix(.8447 0 0 -.8447 -153.69 505.1)">
   <g clip-path="url(#clipPath20)">
    <g transform="translate(115.37 644.23)">
     <path d="m0 0-3.752-12.309c0.189-0.027 0.405-0.027 0.621-0.027 3.401 0 5.344 2.402 5.344 6.775 0 2.511-0.782 4.455-2.213 5.561m-6.559-11.121 3.671 12.093h-0.216c-3.401 0-5.372-2.565-5.372-6.533 0-2.564 0.675-4.454 1.917-5.56m3.428 15.494c0.432 0 0.837-0.027 1.241-0.081l0.487 1.565h3.185l-0.702-2.321c3.131-1.431 5.047-4.589 5.047-9.097 0-6.639-3.698-10.175-9.258-10.175-0.567 0-1.107 0.053-1.647 0.107l-0.567-1.916h-3.157l0.836 2.78c-2.942 1.485-4.724 4.616-4.724 9.204 0 6.263 3.699 9.934 9.259 9.934" fill="#fff"/>
    </g>
    <g transform="translate(125.36 633.13)">
     <path d="m0 0c1.35-1.025 3.131-1.836 4.508-1.836 1.296 0 1.997 0.567 1.997 1.458 0 0.944-0.485 1.377-2.834 1.971-3.077 0.782-4.373 1.943-4.373 4.292 0 2.753 2.16 4.399 5.399 4.399 2.267 0 4.184-0.809 5.668-2.159l-1.592-2.079c-1.35 0.972-2.672 1.512-3.914 1.512-1.323 0-1.971-0.459-1.971-1.269 0-1.053 0.945-1.35 3.105-1.971 3.023-0.863 4.4-1.862 4.4-4.237 0-3.023-2.241-4.724-5.696-4.724-2.618 0-4.832 1.08-6.289 2.484z" fill="#fff"/>
    </g>
    <g transform="translate(143.5 640.39)">
     <path d="m0 0v-7.989c0-0.837 0.27-1.161 0.917-1.161 0.433 0 1.27 0.108 1.674 0.243l0.351-2.457c-0.944-0.324-2.267-0.539-3.347-0.539-2.133 0-3.158 1.16-3.158 3.184v8.719h-1.863v2.079l1.917 0.594 0.378 4.102h3.131v-4.076h2.564v-2.699z" fill="#fff"/>
    </g>
    <path d="m149.26 648.27h3.59v-19.435h-3.59z" fill="#fff"/>
    <g transform="translate(164.81 634.7)">
     <path d="m0 0c-0.405 0.081-0.972 0.135-1.701 0.135-1.943 0-3.266-0.513-3.266-2.106 0-1.052 0.675-1.592 1.944-1.592 1.862 0 3.023 1.701 3.023 3.185zm3.59-5.857h-2.861l-0.378 1.916c-1.026-1.511-2.484-2.267-4.481-2.267-2.564 0-4.4 1.403-4.4 4.184 0 2.267 1.62 4.507 6.506 4.507 0.809 0 1.349-0.027 2.024-0.108v1.053c0 1.701-0.891 2.429-2.43 2.429-1.727 0-2.834-0.54-4.21-1.349l-1.215 2.159c1.539 1.215 3.671 2.052 5.803 2.052 3.563 0 5.642-1.539 5.642-5.237z" fill="#fff"/>
    </g>
    <g transform="translate(175.31 643.09)">
     <path d="m0 0 0.297-1.89c1.026 1.189 2.618 2.214 4.616 2.214 2.996 0 4.507-1.917 4.507-5.02v-9.556h-3.589v8.476c0 2.132-0.729 3.05-2.241 3.05-1.43 0-2.564-1.08-2.996-1.592v-9.934h-3.59v14.252z" fill="#fff"/>
    </g>
    <g transform="translate(198.23 638.75)">
     <path d="m0 0c-0.54 0.647-1.62 1.62-3.131 1.62-1.944 0-3.159-1.431-3.159-4.4 0-2.403 0.783-4.454 3.24-4.454 1.457 0 2.483 0.918 3.05 1.592zm0.216-8.07c-0.729-0.999-2.16-2.187-4.427-2.187-3.968 0-5.857 2.861-5.857 7.423 0 4.832 2.537 7.504 5.992 7.504 1.808 0 3.131-0.837 4.103-1.89v6.748h3.563v-19.434h-3.185z" fill="#fff"/>
    </g>
    <g transform="translate(206.41 633.13)">
     <path d="m0 0c1.35-1.025 3.131-1.836 4.508-1.836 1.296 0 1.997 0.567 1.997 1.458 0 0.944-0.485 1.377-2.834 1.971-3.077 0.782-4.373 1.943-4.373 4.292 0 2.753 2.16 4.399 5.399 4.399 2.267 0 4.184-0.809 5.668-2.159l-1.592-2.079c-1.35 0.972-2.672 1.512-3.914 1.512-1.323 0-1.971-0.459-1.971-1.269 0-1.053 0.945-1.35 3.105-1.971 3.023-0.863 4.4-1.862 4.4-4.237 0-3.023-2.241-4.724-5.696-4.724-2.618 0-4.832 1.08-6.289 2.484z" fill="#fff"/>
    </g>
    <g transform="translate(220.67 633.13)">
     <path d="m0 0c1.35-1.025 3.131-1.836 4.508-1.836 1.296 0 1.997 0.567 1.997 1.458 0 0.944-0.485 1.377-2.834 1.971-3.077 0.782-4.373 1.943-4.373 4.292 0 2.753 2.16 4.399 5.399 4.399 2.267 0 4.184-0.809 5.668-2.159l-1.592-2.079c-1.35 0.972-2.672 1.512-3.914 1.512-1.323 0-1.971-0.459-1.971-1.269 0-1.053 0.945-1.35 3.105-1.971 3.023-0.863 4.4-1.862 4.4-4.237 0-3.023-2.241-4.724-5.696-4.724-2.618 0-4.832 1.08-6.289 2.484z" fill="#fff"/>
    </g>
    <g transform="translate(243.54 637.34)">
     <path d="m0 0c0 1.809-0.648 3.374-2.672 3.374-2.376 0-3.078-2.214-3.131-3.374zm3.05-7.019c-1.674-1.241-3.617-1.835-5.776-1.835-4.292 0-6.883 2.591-6.883 7.37 0 4.588 2.672 7.557 6.91 7.557 3.941 0 6.127-2.295 6.127-6.91 0-0.324-0.027-1.512-0.054-1.755h-9.205c0.163-1.943 1.107-3.293 3.537-3.293 1.43 0 2.591 0.378 4.184 1.215z" fill="#fff"/>
    </g>
    <g transform="translate(253.31 643.09)">
     <path d="m0 0 0.297-1.89c1.026 1.189 2.618 2.214 4.616 2.214 2.996 0 4.507-1.917 4.507-5.02v-9.556h-3.589v8.476c0 2.132-0.729 3.05-2.241 3.05-1.43 0-2.564-1.08-2.996-1.592v-9.934h-3.59v14.252z" fill="#fff"/>
    </g>
    <g transform="translate(276.23 638.75)">
     <path d="m0 0c-0.54 0.647-1.62 1.62-3.131 1.62-1.944 0-3.159-1.431-3.159-4.4 0-2.403 0.783-4.454 3.24-4.454 1.457 0 2.483 0.918 3.05 1.592zm0.216-8.07c-0.729-0.999-2.16-2.187-4.427-2.187-3.968 0-5.857 2.861-5.857 7.423 0 4.832 2.537 7.504 5.992 7.504 1.808 0 3.131-0.837 4.103-1.89v6.748h3.563v-19.434h-3.185z" fill="#fff"/>
    </g>
    <path d="m287.52 628.84h-3.563v14.252h3.563zm-1.727 19.758c1.268 0 2.159-0.647 2.159-1.862 0-1.161-0.891-1.809-2.159-1.809-1.188 0-2.133 0.648-2.133 1.809 0 1.215 0.945 1.862 2.133 1.862" fill="#fff"/>
    <g transform="translate(294.7 643.09)">
     <path d="m0 0 0.297-1.89c1.026 1.189 2.618 2.214 4.616 2.214 2.996 0 4.507-1.917 4.507-5.02v-9.556h-3.589v8.476c0 2.132-0.729 3.05-2.241 3.05-1.43 0-2.564-1.08-2.996-1.592v-9.934h-3.59v14.252z" fill="#fff"/>
    </g>
    <g transform="translate(317.62 638.69)">
     <path d="m0 0c-0.486 0.647-1.701 1.674-3.158 1.674-2.025 0-3.132-1.458-3.132-4.266 0-2.672 0.972-4.211 3.186-4.211 1.511 0 2.483 0.865 3.104 1.539zm3.59-9.069c0-4.886-2.132-6.452-6.694-6.452-2.025 0-3.941 0.432-5.156 0.891l0.567 2.618c1.296-0.351 2.645-0.702 4.319-0.702 2.618 0 3.509 1.026 3.509 3.671v1.323c-0.999-1.242-2.537-2.051-4.373-2.051-3.752 0-5.83 2.483-5.83 6.963 0 4.454 2.024 7.532 6.073 7.532 2.051 0 3.536-1.188 4.373-2.16l0.243 1.835h2.969z" fill="#fff"/>
    </g>
    <g transform="translate(334.36 637.34)">
     <path d="m0 0c0 1.809-0.648 3.374-2.672 3.374-2.376 0-3.078-2.214-3.131-3.374zm3.05-7.019c-1.674-1.241-3.617-1.835-5.776-1.835-4.292 0-6.883 2.591-6.883 7.37 0 4.588 2.672 7.557 6.91 7.557 3.941 0 6.127-2.295 6.127-6.91 0-0.324-0.027-1.512-0.054-1.755h-9.205c0.163-1.943 1.107-3.293 3.537-3.293 1.43 0 2.591 0.378 4.184 1.215z" fill="#fff"/>
    </g>
    <g transform="translate(344.14 643.09)">
     <path d="m0 0 0.297-1.89c1.025 1.189 2.618 2.214 4.616 2.214 2.996 0 4.508-1.917 4.508-5.02v-9.556h-3.591v8.476c0 2.132-0.728 3.05-2.24 3.05-1.431 0-2.565-1.08-2.996-1.592v-9.934h-3.59v14.252z" fill="#fff"/>
    </g>
    <path d="m164.67 671.18h8.911v25.428h-8.911z" fill="#fff"/>
    <path d="m190.09 671.18h8.907v25.428h-8.907z" fill="#fff"/>
    <path d="m210.18 671.18h8.912v25.428h-8.912z" fill="#fff"/>
    <g transform="translate(204.58 697.13)">
     <path d="m0 0c-2.774 0-5.02-2.267-5.02-5.064 0-2.796 2.246-5.07 5.02-5.07 2.778 0 5.033 2.274 5.033 5.07 0 2.797-2.255 5.064-5.033 5.064" fill="#fff"/>
    </g>
    <g transform="translate(230.23 682.71)">
     <path d="m0 0c-0.533 0.904-0.564 1.459-0.049 2.332l7.063 11.567h-9.8s-5.887-9.625-6.692-10.962c-0.797-1.335-0.763-2.167 0.033-3.54 0.805-1.371 6.659-10.926 6.659-10.926h9.8s-6.937 11.386-7.014 11.529" fill="#fff"/>
    </g>
    <g transform="translate(189.53 671.19)">
     <path d="m0 0-4.769 21.327c-0.456 2.33-2.494 4.085-4.936 4.085h-5.725l5.754-25.429h9.678z" fill="#fff"/>
    </g>
    <g transform="translate(267.34 708.78)">
     <path d="m0 0c-13.75 0-24.892-11.141-24.892-24.888 0-13.744 11.142-24.887 24.892-24.887 13.743 0 24.887 11.143 24.887 24.887 0 13.747-11.144 24.888-24.887 24.888" fill="#00b8f1"/>
    </g>
    <g transform="translate(276.65 671.18)">
     <path d="m0 0h6.209v25.431h-9.919v-5.386l3.71-4e-3z" fill="#fff"/>
    </g>
    <g transform="translate(257.9 691.24)">
     <path d="m0 0h3.219c2.507 0 3.636-1.341 3.636-3.462 0-2.157-1.237-3.466-3.782-3.466h-1.144v-5.09h1.5c6.465 0 9.611 3.358 9.611 8.836 0 5.371-3.427 8.553-9.295 8.553h-9.999v-25.433h6.254z" fill="#fff"/>
    </g>
   </g>
  </g>
 </g>
</svg>
