<svg width="800" height="504.41" version="1.1" viewBox="0 0 211.67 133.46" xmlns="http://www.w3.org/2000/svg">
 <g transform="translate(-172.12 67.336)">
  <g transform="matrix(1.6594 0 0 -1.6594 -101.12 300.98)">
   <path d="m174.93 161.32h3.914l4.427-15.089 4.508 15.089h3.833l-6.209-19.435h-4.346z" fill="#fff"/>
   <g transform="translate(201.76 150.39)">
    <path d="m0 0c0 1.809-0.647 3.374-2.672 3.374-2.376 0-3.077-2.214-3.131-3.374zm3.051-7.019c-1.674-1.241-3.617-1.835-5.777-1.835-4.292 0-6.883 2.591-6.883 7.37 0 4.588 2.672 7.557 6.91 7.557 3.941 0 6.128-2.295 6.128-6.91 0-0.324-0.028-1.512-0.055-1.755h-9.204c0.162-1.943 1.106-3.293 3.536-3.293 1.431 0 2.591 0.378 4.184 1.215z" fill="#fff"/>
   </g>
   <g transform="translate(209.16 146.18)">
    <path d="m0 0c1.35-1.025 3.131-1.836 4.508-1.836 1.296 0 1.997 0.567 1.997 1.458 0 0.944-0.485 1.377-2.834 1.971-3.077 0.782-4.373 1.943-4.373 4.292 0 2.753 2.159 4.399 5.398 4.399 2.268 0 4.185-0.809 5.669-2.159l-1.593-2.079c-1.349 0.972-2.671 1.512-3.914 1.512-1.322 0-1.97-0.459-1.97-1.269 0-1.053 0.945-1.35 3.104-1.971 3.024-0.863 4.401-1.862 4.401-4.237 0-3.023-2.242-4.724-5.697-4.724-2.618 0-4.831 1.08-6.289 2.484z" fill="#fff"/>
   </g>
   <g transform="translate(227.3 153.44)">
    <path d="m0 0v-7.989c0-0.837 0.271-1.161 0.918-1.161 0.432 0 1.269 0.108 1.674 0.243l0.35-2.457c-0.944-0.324-2.267-0.539-3.346-0.539-2.133 0-3.159 1.16-3.159 3.184v8.719h-1.863v2.079l1.917 0.594 0.378 4.102h3.131v-4.076h2.564v-2.699z" fill="#fff"/>
   </g>
   <g transform="translate(233.68 153.44)">
    <path d="m0 0h-1.781v2.133l1.781 0.404v1.485c0 2.538 1.215 4.184 3.995 4.184 0.891 0 1.619-0.081 2.375-0.297l-0.188-2.348c-0.378 0.108-0.811 0.189-1.243 0.189-0.783 0-1.349-0.433-1.349-1.593v-1.458h2.456v-2.699h-2.456v-11.553h-3.59z" fill="#fff"/>
   </g>
   <g transform="translate(248.55 144.55)">
    <path d="m0 0c1.917 0 3.32 1.27 3.32 4.454 0 3.158-1.403 4.481-3.32 4.481-1.916 0-3.293-1.43-3.293-4.481 0-3.184 1.377-4.454 3.293-4.454m0.054 11.904c4.049 0 7.046-2.564 7.046-7.45 0-4.858-3.078-7.476-7.235-7.476-4.264 0-6.937 2.618-6.937 7.395 0 4.913 3.051 7.531 7.126 7.531" fill="#fff"/>
   </g>
   <path d="m259.19 161.32h3.59v-19.435h-3.59z" fill="#fff"/>
   <g transform="translate(276.47 151.79)">
    <path d="m0 0c-0.54 0.647-1.619 1.62-3.131 1.62-1.943 0-3.158-1.431-3.158-4.4 0-2.403 0.782-4.454 3.239-4.454 1.457 0 2.484 0.918 3.05 1.592zm0.216-8.07c-0.729-0.999-2.159-2.187-4.427-2.187-3.968 0-5.857 2.861-5.857 7.423 0 4.832 2.537 7.504 5.992 7.504 1.808 0 3.132-0.837 4.103-1.89v6.748h3.563v-19.434h-3.185z" fill="#fff"/>
   </g>
   <path d="m164.67 184.36h8.911v25.429h-8.911z" fill="#fff"/>
   <path d="m190.09 184.36h8.907v25.429h-8.907z" fill="#fff"/>
   <path d="m210.18 184.36h8.912v25.429h-8.912z" fill="#fff"/>
   <g transform="translate(204.58 210.31)">
    <path d="m0 0c-2.774 0-5.02-2.267-5.02-5.064 0-2.796 2.246-5.07 5.02-5.07 2.778 0 5.033 2.274 5.033 5.07 0 2.797-2.255 5.064-5.033 5.064" fill="#fff"/>
   </g>
   <g transform="translate(230.23 195.89)">
    <path d="m0 0c-0.533 0.903-0.564 1.459-0.049 2.331l7.063 11.568h-9.8s-5.887-9.625-6.692-10.962c-0.797-1.335-0.763-2.167 0.033-3.54 0.805-1.371 6.659-10.926 6.659-10.926h9.8s-6.937 11.386-7.014 11.529" fill="#fff"/>
   </g>
   <g transform="translate(189.53 184.38)">
    <path d="m0 0-4.769 21.326c-0.456 2.33-2.494 4.086-4.936 4.086h-5.725l5.754-25.429h9.678z" fill="#fff"/>
   </g>
   <g transform="translate(267.34 221.96)">
    <path d="m0 0c-13.75 0-24.892-11.141-24.892-24.888 0-13.744 11.142-24.887 24.892-24.887 13.743 0 24.887 11.143 24.887 24.887 0 13.747-11.144 24.888-24.887 24.888" fill="#00b8f1"/>
   </g>
   <g transform="translate(276.65 184.36)">
    <path d="m0 0h6.209v25.431h-9.919v-5.386l3.71-5e-3z" fill="#fff"/>
   </g>
   <g transform="translate(257.9 204.42)">
    <path d="m0 0h3.219c2.507 0 3.636-1.341 3.636-3.462 0-2.157-1.237-3.466-3.782-3.466h-1.144v-5.089h1.5c6.465 0 9.611 3.357 9.611 8.835 0 5.371-3.427 8.553-9.295 8.553h-9.999v-25.433h6.254z" fill="#fff"/>
   </g>
  </g>
 </g>
</svg>
