<svg width="800" height="503.03" version="1.1" viewBox="0 0 211.67 133.09" xmlns="http://www.w3.org/2000/svg">
 <path d="m18.59 105.75h-9.6743v-5.4644h25.485v5.4644h-9.6278v26.786h-6.1829z" stroke-width="1.6594"/>
 <g transform="matrix(1.6594 0 0 -1.6594 48.891 118.43)">
  <path d="m0 0c0 1.809-0.648 3.374-2.673 3.374-2.375 0-3.077-2.214-3.131-3.374zm3.05-7.019c-1.674-1.241-3.617-1.835-5.777-1.835-4.292 0-6.882 2.591-6.882 7.37 0 4.588 2.672 7.557 6.91 7.557 3.94 0 6.127-2.295 6.127-6.91 0-0.324-0.027-1.512-0.054-1.755h-9.205c0.162-1.943 1.107-3.293 3.536-3.293 1.431 0 2.592 0.378 4.185 1.215z"/>
 </g>
 <path d="m60.274 100.27h5.9572v32.25h-5.9572z" stroke-width="1.6594"/>
 <g transform="matrix(1.6594 0 0 -1.6594 88.036 118.43)">
  <path d="m0 0c0 1.809-0.647 3.374-2.672 3.374-2.376 0-3.077-2.214-3.131-3.374zm3.051-7.019c-1.674-1.241-3.617-1.835-5.777-1.835-4.292 0-6.883 2.591-6.883 7.37 0 4.588 2.672 7.557 6.91 7.557 3.941 0 6.128-2.295 6.128-6.91 0-0.324-0.028-1.512-0.055-1.755h-9.204c0.162-1.943 1.106-3.293 3.536-3.293 1.431 0 2.591 0.378 4.184 1.215z"/>
 </g>
 <g transform="matrix(1.6594 0 0 -1.6594 104.27 108.88)">
  <path d="m0 0 0.297-1.862c0.945 1.106 2.295 2.186 4.319 2.186 1.835 0 2.915-0.837 3.455-2.133 1.079 1.134 2.484 2.133 4.534 2.133 2.808 0 3.969-1.836 3.969-4.697v-9.879h-3.591v9.178c0 1.457-0.378 2.321-1.754 2.321-1.187 0-2.186-0.972-2.645-1.458v-10.041h-3.563v9.069c0 1.485-0.297 2.43-1.673 2.43-1.269 0-2.268-0.972-2.754-1.512v-9.987h-3.59v14.252z"/>
 </g>
 <g transform="matrix(1.6594 0 0 -1.6594 151.31 122.81)">
  <path d="m0 0c-0.405 0.081-0.972 0.135-1.7 0.135-1.944 0-3.267-0.513-3.267-2.106 0-1.052 0.675-1.592 1.944-1.592 1.863 0 3.023 1.701 3.023 3.185zm3.59-5.857h-2.861l-0.378 1.916c-1.026-1.511-2.484-2.267-4.481-2.267-2.564 0-4.399 1.403-4.399 4.184 0 2.267 1.619 4.507 6.505 4.507 0.809 0 1.349-0.027 2.024-0.108v1.053c0 1.701-0.891 2.429-2.43 2.429-1.727 0-2.834-0.54-4.21-1.349l-1.214 2.159c1.538 1.215 3.67 2.052 5.802 2.052 3.564 0 5.642-1.539 5.642-5.237z"/>
 </g>
 <g transform="matrix(1.6594 0 0 -1.6594 169.05 112.29)">
  <path d="m0 0c0.675 1.322 1.835 2.375 3.158 2.375 0.513 0 0.998-0.135 1.404-0.297l-0.27-3.266c-0.459 0.135-0.837 0.189-1.35 0.189-1.08 0-2.079-0.972-2.538-1.755v-9.447h-3.59v14.252h2.862z"/>
 </g>
 <g transform="matrix(1.6594 0 0 -1.6594 187.02 117.03)">
  <path d="m0 0h1.755l3.131 4.912h3.94l-4.237-6.316 4.886-7.936h-4.185l-3.778 6.37h-1.512v-6.37h-3.59v19.435h3.59z"/>
 </g>
 <path d="m0.005028 62.405h14.787v-42.197h-14.787z" stroke-width="1.6594"/>
 <path d="m42.204 62.405h14.78v-42.197h-14.78z" stroke-width="1.6594"/>
 <path d="m75.524 62.405h14.789v-42.197h-14.789z" stroke-width="1.6594"/>
 <g transform="matrix(1.6594 0 0 -1.6594 66.248 19.344)">
  <path d="m0 0c-2.774 0-5.02-2.266-5.02-5.064 0-2.796 2.246-5.07 5.02-5.07 2.778 0 5.033 2.274 5.033 5.07 0 2.798-2.255 5.064-5.033 5.064"/>
 </g>
 <g transform="matrix(1.6594 0 0 -1.6594 108.81 43.272)">
  <path d="m0 0c-0.532 0.904-0.563 1.459-0.049 2.332l7.064 11.567h-9.8s-5.888-9.625-6.693-10.962c-0.796-1.335-0.762-2.167 0.034-3.54 0.804-1.371 6.659-10.926 6.659-10.926h9.8s-6.937 11.387-7.015 11.529"/>
 </g>
 <g transform="matrix(1.6594 0 0 -1.6594 41.274 62.389)">
  <path d="m0 0-4.769 21.327c-0.456 2.33-2.493 4.085-4.935 4.085h-5.726l5.754-25.429h9.679z"/>
 </g>
 <g transform="matrix(1.6594 0 0 -1.6594 170.39 .011696)">
  <path d="m0 0c-13.749 0-24.892-11.142-24.892-24.888 0-13.745 11.143-24.888 24.892-24.888 13.743 0 24.887 11.143 24.887 24.888 0 13.746-11.144 24.888-24.887 24.888" fill="#00b8f1"/>
 </g>
 <g transform="matrix(1.6594 0 0 -1.6594 185.82 62.405)">
  <path d="m0 0h6.21v25.43h-9.92v-5.385l3.71-5e-3z" fill="#fff"/>
 </g>
 <g transform="matrix(1.6594 0 0 -1.6594 154.73 29.118)">
  <path d="m0 0h3.219c2.508 0 3.636-1.341 3.636-3.462 0-2.157-1.237-3.466-3.782-3.466h-1.143v-5.089h1.499c6.465 0 9.611 3.357 9.611 8.835 0 5.371-3.428 8.553-9.295 8.553h-9.999v-25.433h6.254z" fill="#fff"/>
 </g>
</svg>
