<svg width="800" height="308.03" version="1.1" viewBox="0 0 211.67 81.498" xmlns="http://www.w3.org/2000/svg">
 <path d="m16.799 76.097-1.2092-12.5-4.0632 12.5h-2.8549l-4.0642-12.527-1.2092 12.527h-3.3952l1.801-18.52h3.8069l4.4749 13.608 4.5787-13.608h3.6525l1.8267 18.52z" stroke-width=".95291"/>
 <g transform="matrix(.95291 0 0 -.95291 32.026 66.12)">
  <path d="m0 0-2.456-7.802h0.027c1.916 0 3.32 1.27 3.32 4.454 0 1.539-0.324 2.619-0.891 3.348m-4.777-6.803 2.456 7.936h-0.108c-1.917 0-3.294-1.43-3.294-4.481 0-1.619 0.352-2.726 0.946-3.455m2.402 10.906c0.324 0 0.647-0.028 0.972-0.054l0.459 1.484h2.672l-0.675-2.186c2.186-1.08 3.617-3.347 3.617-6.695 0-4.858-3.077-7.476-7.234-7.476-0.27 0-0.567 0-0.81 0.026l-0.54-1.727h-2.645l0.729 2.321c-2.321 1.053-3.671 3.374-3.671 6.775 0 4.913 3.05 7.532 7.126 7.532"/>
 </g>
 <g transform="matrix(.95291 0 0 -.95291 42.299 64.471)">
  <path d="m0 0c0.675 1.322 1.835 2.375 3.158 2.375 0.513 0 0.998-0.135 1.404-0.297l-0.27-3.266c-0.459 0.135-0.837 0.189-1.35 0.189-1.08 0-2.079-0.972-2.538-1.755v-9.447h-3.59v14.252h2.862z"/>
 </g>
 <g transform="matrix(.95291 0 0 -.95291 57.478 67.997)">
  <path d="m0 0c0 1.809-0.648 3.374-2.673 3.374-2.375 0-3.077-2.214-3.131-3.374zm3.05-7.019c-1.674-1.241-3.617-1.835-5.777-1.835-4.292 0-6.882 2.591-6.882 7.37 0 4.588 2.672 7.557 6.91 7.557 3.94 0 6.127-2.295 6.127-6.91 0-0.324-0.028-1.512-0.054-1.755h-9.205c0.162-1.943 1.107-3.293 3.536-3.293 1.431 0 2.592 0.378 4.185 1.215z"/>
 </g>
 <g transform="matrix(.95291 0 0 -.95291 75.793 73.552)">
  <path d="m0 0c1.916 0 3.319 1.27 3.319 4.454 0 3.158-1.403 4.481-3.319 4.481-1.917 0-3.294-1.43-3.294-4.481 0-3.184 1.377-4.454 3.294-4.454m0.054 11.904c4.049 0 7.045-2.564 7.045-7.45 0-4.858-3.078-7.476-7.235-7.476-4.264 0-6.936 2.618-6.936 7.395 0 4.913 3.05 7.531 7.126 7.531"/>
 </g>
 <g transform="matrix(.95291 0 0 -.95291 94.985 66.71)">
  <path d="m0 0c-0.486 0.647-1.701 1.674-3.158 1.674-2.025 0-3.132-1.458-3.132-4.266 0-2.672 0.972-4.211 3.186-4.211 1.511 0 2.483 0.865 3.104 1.539zm3.59-9.069c0-4.886-2.133-6.452-6.694-6.452-2.025 0-3.942 0.432-5.156 0.891l0.567 2.618c1.296-0.351 2.645-0.702 4.319-0.702 2.618 0 3.509 1.026 3.509 3.671v1.323c-0.999-1.242-2.537-2.051-4.373-2.051-3.752 0-5.83 2.483-5.83 6.963 0 4.454 2.024 7.532 6.073 7.532 2.051 0 3.536-1.188 4.373-2.16l0.242 1.835h2.97z"/>
 </g>
 <g transform="matrix(.95291 0 0 -.95291 111.69 60.64)">
  <path d="m0 0v-6.208h2.942c2.43 0 3.645 1.106 3.645 3.185 0 2.024-1.108 3.023-3.483 3.023zm3.267 3.212c4.751 0 7.126-2.402 7.126-6.073 0-2.484-0.999-4.238-3.105-5.345l4.157-8.017h-4.049l-3.589 7.154c-0.568-0.081-1.08-0.135-1.728-0.135h-2.079v-7.019h-3.725v19.435z"/>
 </g>
 <g transform="matrix(.95291 0 0 -.95291 130.99 73.552)">
  <path d="m0 0c1.916 0 3.319 1.27 3.319 4.454 0 3.158-1.403 4.481-3.319 4.481-1.917 0-3.294-1.43-3.294-4.481 0-3.184 1.377-4.454 3.294-4.454m0.054 11.904c4.049 0 7.045-2.564 7.045-7.45 0-4.858-3.078-7.476-7.235-7.476-4.264 0-6.936 2.618-6.936 7.395 0 4.913 3.05 7.531 7.126 7.531"/>
 </g>
 <g transform="matrix(.95291 0 0 -.95291 143.9 62.518)">
  <path d="m0 0 0.297-1.862c0.944 1.106 2.294 2.186 4.318 2.186 1.836 0 2.916-0.837 3.455-2.133 1.08 1.134 2.484 2.133 4.535 2.133 2.808 0 3.968-1.836 3.968-4.697v-9.879h-3.59v9.178c0 1.457-0.378 2.321-1.754 2.321-1.188 0-2.187-0.972-2.646-1.458v-10.041h-3.562v9.069c0 1.485-0.297 2.43-1.674 2.43-1.269 0-2.268-0.972-2.753-1.512v-9.987h-3.59v14.252z"/>
 </g>
 <g transform="matrix(.95291 0 0 -.95291 164 72.009)">
  <path d="m0 0c1.35-1.025 3.131-1.836 4.508-1.836 1.296 0 1.997 0.567 1.997 1.458 0 0.944-0.485 1.377-2.834 1.971-3.077 0.782-4.373 1.943-4.373 4.292 0 2.753 2.159 4.399 5.398 4.399 2.268 0 4.185-0.809 5.669-2.159l-1.593-2.079c-1.349 0.972-2.671 1.512-3.914 1.512-1.322 0-1.97-0.459-1.97-1.269 0-1.053 0.945-1.35 3.104-1.971 3.024-0.863 4.401-1.862 4.401-4.237 0-3.023-2.242-4.724-5.697-4.724-2.618 0-4.831 1.08-6.289 2.484z"/>
 </g>
 <g transform="matrix(.95291 0 0 -.95291 186.3 66.653)">
  <path d="m0 0c-0.54 0.647-1.619 1.62-3.131 1.62-1.943 0-3.158-1.431-3.158-4.4 0-2.403 0.782-4.454 3.239-4.454 1.457 0 2.484 0.918 3.05 1.592zm0.216-8.07c-0.729-0.999-2.159-2.187-4.427-2.187-3.968 0-5.857 2.861-5.857 7.423 0 4.832 2.537 7.504 5.992 7.504 1.808 0 3.132-0.837 4.103-1.89v6.748h3.563v-19.434h-3.185z"/>
 </g>
 <g transform="matrix(.95291 0 0 -.95291 200.98 70.513)">
  <path d="m0 0c-0.405 0.081-0.972 0.135-1.7 0.135-1.944 0-3.267-0.513-3.267-2.106 0-1.052 0.675-1.592 1.944-1.592 1.863 0 3.023 1.701 3.023 3.185zm3.59-5.857h-2.861l-0.378 1.916c-1.026-1.511-2.484-2.267-4.481-2.267-2.564 0-4.399 1.403-4.399 4.184 0 2.267 1.619 4.507 6.505 4.507 0.809 0 1.349-0.027 2.024-0.108v1.053c0 1.701-0.891 2.429-2.43 2.429-1.727 0-2.834-0.54-4.211-1.349l-1.213 2.159c1.538 1.215 3.67 2.052 5.802 2.052 3.564 0 5.642-1.539 5.642-5.237z"/>
 </g>
 <path d="m208.22 57.572h3.421v18.52h-3.421z" stroke-width=".95291"/>
 <path d="m45.415 35.827h8.4914v-24.232h-8.4914z" stroke-width=".95291"/>
 <path d="m69.638 35.827h8.4866v-24.232h-8.4866z" stroke-width=".95291"/>
 <path d="m88.782 35.827h8.4923v-24.232h-8.4923z" stroke-width=".95291"/>
 <g transform="matrix(.95291 0 0 -.95291 83.445 11.099)">
  <path d="m0 0c-2.774 0-5.02-2.266-5.02-5.064 0-2.796 2.246-5.07 5.02-5.07 2.778 0 5.033 2.274 5.033 5.07 0 2.798-2.255 5.064-5.033 5.064"/>
 </g>
 <g transform="matrix(.95291 0 0 -.95291 107.89 24.84)">
  <path d="m0 0c-0.533 0.904-0.564 1.459-0.05 2.332l7.064 11.567h-9.8s-5.887-9.625-6.692-10.962c-0.797-1.335-0.763-2.167 0.033-3.54 0.804-1.371 6.659-10.926 6.659-10.926h9.8s-6.937 11.387-7.014 11.529"/>
 </g>
 <g transform="matrix(.95291 0 0 -.95291 69.104 35.817)">
  <path d="m0 0-4.77 21.327c-0.456 2.33-2.493 4.085-4.935 4.085h-5.726l5.754-25.429h9.679z"/>
 </g>
 <g transform="matrix(.95291 0 0 -.95291 143.25 -.0028356)">
  <path d="m0 0c-13.749 0-24.892-11.142-24.892-24.888 0-13.745 11.143-24.888 24.892-24.888 13.743 0 24.888 11.143 24.888 24.888 0 13.746-11.145 24.888-24.888 24.888" fill="#00b8f1"/>
 </g>
 <g transform="matrix(.95291 0 0 -.95291 152.12 35.827)">
  <path d="m0 0h6.209v25.43h-9.919v-5.385l3.71-5e-3z" fill="#fff"/>
 </g>
 <g transform="matrix(.95291 0 0 -.95291 134.25 16.711)">
  <path d="m0 0h3.219c2.508 0 3.636-1.341 3.636-3.462 0-2.157-1.237-3.466-3.782-3.466h-1.143v-5.089h1.5c6.464 0 9.61 3.357 9.61 8.835 0 5.371-3.427 8.553-9.295 8.553h-9.999v-25.433h6.254z" fill="#fff"/>
 </g>
</svg>
