<svg width="800" height="504.84" version="1.1" viewBox="0 0 211.67 133.57" xmlns="http://www.w3.org/2000/svg">
 <path d="m9.1994 100.72h5.4644l14.334 21.814v-21.814h6.1365v32.25h-5.4213l-14.422-21.546v21.546h-6.0917z" stroke-width="1.6594"/>
 <g transform="matrix(1.6594 0 0 -1.6594 52.875 128.55)">
  <path d="m0 0c1.917 0 3.32 1.27 3.32 4.454 0 3.158-1.403 4.481-3.32 4.481-1.916 0-3.293-1.43-3.293-4.481 0-3.184 1.377-4.454 3.293-4.454m0.054 11.904c4.049 0 7.046-2.564 7.046-7.45 0-4.858-3.078-7.476-7.235-7.476-4.264 0-6.937 2.618-6.937 7.395 0 4.913 3.051 7.531 7.126 7.531"/>
 </g>
 <g transform="matrix(1.6594 0 0 -1.6594 75.675 112.73)">
  <path d="m0 0c0.675 1.322 1.836 2.375 3.158 2.375 0.513 0 0.999-0.135 1.404-0.297l-0.27-3.266c-0.459 0.135-0.837 0.189-1.35 0.189-1.08 0-2.078-0.972-2.537-1.755v-9.447h-3.59v14.252h2.862z"/>
 </g>
 <g transform="matrix(1.6594 0 0 -1.6594 103.1 116.53)">
  <path d="m0 0c-0.54 0.647-1.619 1.62-3.131 1.62-1.943 0-3.158-1.431-3.158-4.4 0-2.403 0.782-4.454 3.239-4.454 1.457 0 2.484 0.918 3.05 1.592zm0.216-8.07c-0.729-0.999-2.159-2.187-4.427-2.187-3.968 0-5.857 2.861-5.857 7.423 0 4.832 2.537 7.504 5.992 7.504 1.808 0 3.132-0.837 4.103-1.89v6.748h3.563v-19.434h-3.185z"/>
 </g>
 <path d="m115.78 100.72h5.9572v32.25h-5.9572z" stroke-width="1.6594"/>
 <g transform="matrix(1.6594 0 0 -1.6594 141.59 123.26)">
  <path d="m0 0c-0.405 0.081-0.972 0.135-1.7 0.135-1.944 0-3.267-0.513-3.267-2.106 0-1.052 0.675-1.592 1.944-1.592 1.863 0 3.023 1.701 3.023 3.185zm3.59-5.857h-2.861l-0.378 1.916c-1.026-1.511-2.484-2.267-4.481-2.267-2.564 0-4.399 1.403-4.399 4.184 0 2.267 1.619 4.507 6.505 4.507 0.809 0 1.349-0.027 2.024-0.108v1.053c0 1.701-0.891 2.429-2.43 2.429-1.727 0-2.834-0.54-4.21-1.349l-1.214 2.159c1.538 1.215 3.67 2.052 5.802 2.052 3.564 0 5.642-1.539 5.642-5.237z"/>
 </g>
 <g transform="matrix(1.6594 0 0 -1.6594 159.01 109.33)">
  <path d="m0 0 0.297-1.89c1.025 1.189 2.618 2.214 4.615 2.214 2.996 0 4.508-1.917 4.508-5.02v-9.556h-3.59v8.476c0 2.132-0.728 3.05-2.24 3.05-1.431 0-2.565-1.08-2.996-1.592v-9.934h-3.59v14.252z"/>
 </g>
 <g transform="matrix(1.6594 0 0 -1.6594 197.08 116.53)">
  <path d="m0 0c-0.54 0.647-1.619 1.62-3.131 1.62-1.943 0-3.158-1.431-3.158-4.4 0-2.403 0.782-4.454 3.239-4.454 1.457 0 2.484 0.918 3.05 1.592zm0.216-8.07c-0.729-0.999-2.159-2.187-4.427-2.187-3.968 0-5.857 2.861-5.857 7.423 0 4.832 2.537 7.504 5.992 7.504 1.808 0 3.132-0.837 4.103-1.89v6.748h3.563v-19.434h-3.185z"/>
 </g>
 <path d="m0.02287 62.372h14.787v-42.197h-14.787z" stroke-width="1.6594"/>
 <path d="m42.205 62.372h14.779v-42.197h-14.779z" stroke-width="1.6594"/>
 <path d="m75.542 62.372h14.789v-42.197h-14.789z" stroke-width="1.6594"/>
 <g transform="matrix(1.6594 0 0 -1.6594 66.25 19.31)">
  <path d="m0 0c-2.774 0-5.02-2.267-5.02-5.064s2.246-5.07 5.02-5.07c2.778 0 5.033 2.273 5.033 5.07s-2.255 5.064-5.033 5.064"/>
 </g>
 <g transform="matrix(1.6594 0 0 -1.6594 108.81 43.239)">
  <path d="m0 0c-0.533 0.903-0.564 1.459-0.05 2.332l7.064 11.567h-9.8s-5.887-9.625-6.692-10.962c-0.797-1.335-0.763-2.167 0.033-3.54 0.804-1.371 6.659-10.927 6.659-10.927h9.8s-6.937 11.387-7.014 11.53"/>
 </g>
 <g transform="matrix(1.6594 0 0 -1.6594 41.276 62.355)">
  <path d="m0 0-4.77 21.326c-0.456 2.33-2.493 4.086-4.935 4.086h-5.726l5.754-25.429h9.679z"/>
 </g>
 <g transform="matrix(1.6594 0 0 -1.6594 170.39 -.021818)">
  <path d="m0 0c-13.749 0-24.892-11.142-24.892-24.888 0-13.744 11.143-24.888 24.892-24.888 13.743 0 24.888 11.144 24.888 24.888 0 13.746-11.145 24.888-24.888 24.888" fill="#00b8f1"/>
 </g>
 <g transform="matrix(1.6594 0 0 -1.6594 185.84 62.372)">
  <path d="m0 0h6.209v25.431h-9.919v-5.386l3.71-4e-3z" fill="#fff"/>
 </g>
 <g transform="matrix(1.6594 0 0 -1.6594 154.73 29.084)">
  <path d="m0 0h3.219c2.508 0 3.636-1.341 3.636-3.462 0-2.158-1.237-3.466-3.782-3.466h-1.143v-5.09h1.5c6.464 0 9.61 3.358 9.61 8.836 0 5.371-3.427 8.553-9.295 8.553h-9.999v-25.433h6.254z" fill="#fff"/>
 </g>
</svg>
