<svg width="800" height="302.57" version="1.1" viewBox="0 0 211.67 80.054" xmlns="http://www.w3.org/2000/svg">
 <g transform="matrix(.93241 0 0 -.93241 1.7316 69.942)">
  <path d="m0 0c1.781-1.484 3.778-2.43 5.749-2.43 1.7 0 2.942 0.946 2.942 2.538 0 1.457-0.783 2.267-4.076 3.185-4.049 1.134-5.695 2.592-5.695 5.642 0 3.805 2.942 5.641 6.748 5.641 2.537 0 4.832-0.918 6.641-2.726l-1.809-2.213c-1.431 1.268-3.132 1.916-4.751 1.916-1.755 0-2.996-0.756-2.996-2.24 0-1.674 1.296-2.16 4.508-3.212 3.724-1.215 5.317-2.592 5.317-5.615 0-3.753-2.726-6.019-6.964-6.019-3.023 0-5.56 1.214-7.477 3.239z"/>
 </g>
 <g transform="matrix(.93241 0 0 -.93241 22.776 72.283)">
  <path d="m0 0c1.916 0 3.319 1.27 3.319 4.454 0 3.158-1.403 4.481-3.319 4.481-1.917 0-3.294-1.43-3.294-4.481 0-3.184 1.377-4.454 3.294-4.454m0.054 11.904c4.049 0 7.045-2.564 7.045-7.45 0-4.858-3.078-7.476-7.235-7.476-4.264 0-6.936 2.618-6.936 7.395 0 4.913 3.05 7.531 7.126 7.531"/>
 </g>
 <g transform="matrix(.93241 0 0 -.93241 41.555 65.588)">
  <path d="m0 0c-0.486 0.647-1.701 1.674-3.158 1.674-2.025 0-3.132-1.458-3.132-4.266 0-2.672 0.972-4.211 3.186-4.211 1.511 0 2.483 0.865 3.104 1.539zm3.59-9.069c0-4.886-2.133-6.452-6.694-6.452-2.025 0-3.942 0.432-5.156 0.891l0.567 2.618c1.296-0.351 2.645-0.702 4.319-0.702 2.618 0 3.509 1.026 3.509 3.671v1.323c-0.999-1.242-2.537-2.051-4.373-2.051-3.752 0-5.83 2.483-5.83 6.963 0 4.454 2.024 7.532 6.073 7.532 2.051 0 3.536-1.188 4.373-2.16l0.242 1.835h2.97z"/>
 </g>
 <g transform="matrix(.93241 0 0 -.93241 51.532 61.486)">
  <path d="m0 0 0.297-1.89c1.026 1.189 2.618 2.214 4.616 2.214 2.996 0 4.508-1.917 4.508-5.02v-9.556h-3.59v8.476c0 2.132-0.729 3.05-2.241 3.05-1.43 0-2.564-1.08-2.996-1.592v-9.934h-3.59v14.252z"/>
 </g>
 <g transform="matrix(.93241 0 0 -.93241 75.569 72.283)">
  <path d="m0 0c1.916 0 3.319 1.27 3.319 4.454 0 3.158-1.403 4.481-3.319 4.481-1.917 0-3.294-1.43-3.294-4.481 0-3.184 1.377-4.454 3.294-4.454m0.054 11.904c4.049 0 7.045-2.564 7.045-7.45 0-4.858-3.078-7.476-7.235-7.476-4.264 0-6.936 2.618-6.936 7.395 0 4.913 3.05 7.531 7.126 7.531"/>
 </g>
 <g transform="matrix(.93241 0 0 -.93241 94.348 65.588)">
  <path d="m0 0c-0.485 0.647-1.7 1.674-3.158 1.674-2.025 0-3.131-1.458-3.131-4.266 0-2.672 0.972-4.211 3.185-4.211 1.511 0 2.483 0.865 3.104 1.539zm3.59-9.069c0-4.886-2.132-6.452-6.694-6.452-2.025 0-3.941 0.432-5.156 0.891l0.568 2.618c1.295-0.351 2.644-0.702 4.318-0.702 2.618 0 3.509 1.026 3.509 3.671v1.323c-0.998-1.242-2.537-2.051-4.372-2.051-3.753 0-5.831 2.483-5.831 6.963 0 4.454 2.024 7.532 6.073 7.532 2.052 0 3.536-1.188 4.373-2.16l0.243 1.835h2.969z"/>
 </g>
 <g transform="matrix(.93241 0 0 -.93241 107.22 56.656)">
  <path d="m0 0h12.443v-3.293h-8.718v-4.967h7.693v-3.212h-7.693v-7.963h-3.725z"/>
 </g>
 <g transform="matrix(.93241 0 0 -.93241 123.61 56.348)">
  <path d="m0 0c1.269 0 2.159-0.647 2.159-1.862 0-1.161-0.89-1.809-2.159-1.809-1.187 0-2.159 0.648-2.159 1.809 0 1.215 0.944 1.862 2.159 1.862m1.755-21.108c0-2.646-1.053-4.158-3.888-4.158-0.863 0-1.781 0.162-2.456 0.378l0.27 2.511c0.351-0.081 0.891-0.162 1.269-0.162 0.863 0 1.241 0.297 1.241 1.619v15.413h3.564z"/>
 </g>
 <g transform="matrix(.93241 0 0 -.93241 135.21 72.283)">
  <path d="m0 0c1.916 0 3.319 1.27 3.319 4.454 0 3.158-1.403 4.481-3.319 4.481-1.917 0-3.294-1.43-3.294-4.481 0-3.184 1.377-4.454 3.294-4.454m0.054 11.904c4.049 0 7.045-2.564 7.045-7.45 0-4.858-3.078-7.476-7.235-7.476-4.264 0-6.936 2.618-6.936 7.395 0 4.913 3.05 7.531 7.126 7.531"/>
 </g>
 <g transform="matrix(.93241 0 0 -.93241 148.03 63.397)">
  <path d="m0 0c0.675 1.322 1.836 2.375 3.158 2.375 0.513 0 0.999-0.135 1.404-0.297l-0.27-3.266c-0.459 0.135-0.837 0.189-1.35 0.189-1.08 0-2.078-0.972-2.537-1.755v-9.447h-3.59v14.252h2.862z"/>
 </g>
 <g transform="matrix(.93241 0 0 -.93241 163.43 65.532)">
  <path d="m0 0c-0.54 0.647-1.619 1.62-3.131 1.62-1.943 0-3.158-1.431-3.158-4.4 0-2.403 0.782-4.454 3.239-4.454 1.457 0 2.484 0.918 3.05 1.592zm0.216-8.07c-0.729-0.999-2.159-2.187-4.427-2.187-3.968 0-5.857 2.861-5.857 7.423 0 4.832 2.537 7.504 5.992 7.504 1.808 0 3.132-0.837 4.103-1.89v6.748h3.563v-19.434h-3.185z"/>
 </g>
 <g transform="matrix(.93241 0 0 -.93241 177.81 69.308)">
  <path d="m0 0c-0.405 0.081-0.972 0.135-1.7 0.135-1.944 0-3.267-0.513-3.267-2.106 0-1.052 0.675-1.592 1.944-1.592 1.863 0 3.023 1.701 3.023 3.185zm3.59-5.857h-2.861l-0.378 1.916c-1.026-1.511-2.484-2.267-4.481-2.267-2.564 0-4.399 1.403-4.399 4.184 0 2.267 1.619 4.507 6.505 4.507 0.809 0 1.349-0.027 2.024-0.108v1.053c0 1.701-0.891 2.429-2.43 2.429-1.727 0-2.834-0.54-4.21-1.349l-1.214 2.159c1.538 1.215 3.67 2.052 5.802 2.052 3.564 0 5.642-1.539 5.642-5.237z"/>
 </g>
 <g transform="matrix(.93241 0 0 -.93241 187.6 61.486)">
  <path d="m0 0 0.297-1.89c1.026 1.189 2.618 2.214 4.616 2.214 2.996 0 4.508-1.917 4.508-5.02v-9.556h-3.59v8.476c0 2.132-0.729 3.05-2.241 3.05-1.43 0-2.564-1.08-2.996-1.592v-9.934h-3.59v14.252z"/>
 </g>
 <g transform="matrix(.93241 0 0 -.93241 208.47 66.847)">
  <path d="m0 0c0 1.809-0.647 3.374-2.673 3.374-2.375 0-3.077-2.214-3.131-3.374zm3.05-7.019c-1.673-1.241-3.616-1.835-5.777-1.835-4.292 0-6.882 2.591-6.882 7.37 0 4.588 2.672 7.557 6.91 7.557 3.94 0 6.127-2.295 6.127-6.91 0-0.324-0.027-1.512-0.054-1.755h-9.205c0.162-1.943 1.107-3.293 3.536-3.293 1.432 0 2.592 0.378 4.185 1.215z"/>
 </g>
 <path d="m46.609 35.061h8.3087v-23.71h-8.3087z" stroke-width=".93241"/>
 <path d="m70.32 35.061h8.305v-23.71h-8.305z" stroke-width=".93241"/>
 <path d="m89.043 35.061h8.3096v-23.71h-8.3096z" stroke-width=".93241"/>
 <g transform="matrix(.93241 0 0 -.93241 83.83 10.865)">
  <path d="m0 0c-2.774 0-5.02-2.267-5.02-5.064 0-2.796 2.246-5.07 5.02-5.07 2.778 0 5.033 2.274 5.033 5.07 0 2.797-2.255 5.064-5.033 5.064"/>
 </g>
 <g transform="matrix(.93241 0 0 -.93241 107.75 24.31)">
  <path d="m0 0c-0.532 0.903-0.563 1.459-0.049 2.331l7.064 11.567h-9.8s-5.888-9.624-6.693-10.961c-0.796-1.335-0.762-2.167 0.034-3.54 0.804-1.371 6.659-10.927 6.659-10.927h9.8s-6.937 11.387-7.015 11.53"/>
 </g>
 <g transform="matrix(.93241 0 0 -.93241 69.798 35.052)">
  <path d="m0 0-4.769 21.326c-0.456 2.33-2.493 4.085-4.935 4.085h-5.726l5.754-25.429h9.679z"/>
 </g>
 <g transform="matrix(.93241 0 0 -.93241 142.35 .002426)">
  <path d="m0 0c-13.749 0-24.892-11.142-24.892-24.888 0-13.744 11.143-24.887 24.892-24.887 13.743 0 24.887 11.143 24.887 24.887 0 13.746-11.144 24.888-24.887 24.888" fill="#00b8f1"/>
 </g>
 <g transform="matrix(.93241 0 0 -.93241 151.02 35.061)">
  <path d="m0 0h6.21v25.431h-9.92v-5.386l3.71-5e-3z" fill="#fff"/>
 </g>
 <g transform="matrix(.93241 0 0 -.93241 133.55 16.357)">
  <path d="m0 0h3.219c2.508 0 3.636-1.341 3.636-3.462 0-2.157-1.237-3.466-3.782-3.466h-1.143v-5.09h1.499c6.465 0 9.611 3.358 9.611 8.836 0 5.371-3.428 8.553-9.295 8.553h-9.999v-25.433h6.254z" fill="#fff"/>
 </g>
</svg>
