<svg enable-background="new 0 0 61 40" version="1.1" viewBox="0 0 61 40" xml:space="preserve" xmlns="http://www.w3.org/2000/svg">
<style type="text/css">
	.st0{fill:#195EA9;}
</style>
<path class="st0" d="m1.6 0h3.3c2.2 0 4.1 1.5 4.5 3.7 0.4 2.4-1.2 4.6-3.6 5-0.2 0-0.4 0.1-0.7 0.1h-1.9v1.6c0 0.9-0.6 1.6-1.5 1.6h-0.1c-0.9 0-1.6-0.7-1.6-1.6v-8.8c0-0.9 0.7-1.6 1.6-1.6zm1.6 6.1h1.8c0.9 0 1.7-0.7 1.8-1.7 0-0.9-0.7-1.7-1.6-1.8h-2z" fill="#195ea9"/><path class="st0" d="m16 5.2c0.4-0.6 0.5-0.8 0.5-1.2 0-0.8-0.7-1.4-1.4-1.4-0.5 0-1 0.3-1.2 0.7s-0.7 0.7-1.1 0.7c-0.7 0-1.3-0.6-1.3-1.2 0-0.2 0-0.4 0.1-0.6 0.7-1.3 2.1-2.1 3.6-2.1 2.1-0.1 3.8 1.5 3.9 3.5v0.1c0 0.5-0.1 1-0.4 1.4-0.1 0.3-0.3 0.5-0.5 0.8-0.5 0.8-1.1 1.5-1.7 2.2l-1.2 1.3h2.9c0.7 0 1.3 0.6 1.3 1.2 0 0.7-0.6 1.3-1.3 1.3h-5.4c-0.7 0-1.3-0.6-1.3-1.3 0-0.3 0.1-0.5 0.2-0.7z" fill="#195ea9"/><path class="st0" d="m29.1 7v3.8c0 0.7-0.6 1.2-1.3 1.2s-1.3-0.6-1.3-1.3v-1.2h-4.2c-0.7 0-1.3-0.6-1.3-1.3v-0.9c0-0.3 0.1-0.5 0.2-0.7l4.2-6c0.2-0.3 0.6-0.5 1-0.5h1.3c0.7 0 1.3 0.5 1.3 1.2zm-2.5 0v-3.4l-2.4 3.3z" fill="#195ea9"/><path class="st0" d="m31.6 7h4.8c0.5 0 0.8 0.4 0.8 0.8 0 0.1 0 0.3-0.1 0.4l-0.5 0.9c-0.1 0.3-0.4 0.4-0.7 0.4h-4.3c-0.5 0-0.8-0.4-0.8-0.8v-0.9c0-0.4 0.4-0.8 0.8-0.8z" fill="#195ea9"/><path class="st0" d="m45.9 1.3v1c0 0.2-0.1 0.4-0.2 0.6l-4.9 8.5c-0.2 0.4-0.6 0.6-1.1 0.6-0.7 0-1.3-0.6-1.3-1.3 0-0.2 0.1-0.4 0.2-0.6l4.4-7.4h-5.1c-0.7 0-1.3-0.6-1.3-1.3s0.5-1.3 1.2-1.3h6.8c0.7 0 1.3 0.5 1.3 1.2z" fill="#195ea9"/><path d="m2 16.4c-1.1 0-2 0.9-2 2v19.6c0 1.1 0.9 2 2 2h2.1992c1.1 0 2-0.9 2-2v-10l4.9004 4.1992c0.8 0.7 1.9012 0.7 2.7012 0l4.8984-4.1992v10c0 1.1 0.9 2 2 2h2.2012c1.1 0 2-0.9 2-2v-19.6c0-1.1-0.9-2-2-2-0.5 0-1.0004 0.2-1.4004 0.5l-9.0508 8.2383-9.0488-8.2383c-0.4-0.3-0.90039-0.5-1.4004-0.5z" fill="#195ea9"/><path class="st0" d="m33.5 16.4c1.7 0 3.1 1.4 3.1 3.1v17.4c0 1.7-1.4 3.1-3.1 3.1s-3.1-1.4-3.1-3.1v-17.4c0-1.7 1.4-3.1 3.1-3.1z" fill="#195ea9"/><path d="m56.268 16.391c-0.76289 0.038281-1.4297 0.49688-1.8672 1.1094l-3.3008 4.6992-3.2988-4.6992c-0.5-0.7-1.3012-1.0996-2.2012-1.0996h-1.0996c-0.5 0-1.1 0.2-1.5 0.5-1.2 0.8-1.4992 2.4992-0.69922 3.6992l5 7.0996-5.7012 8.1016c-0.3 0.4-0.5 1-0.5 1.5 0 1.5 1.2012 2.6992 2.7012 2.6992h1c0.9 0 1.6992-0.49922 2.1992-1.1992l4.0996-5.6016h0.09961l4 5.7012c0.5 0.7 1.3012 1.0996 2.2012 1.0996h1c0.6 0 1.0996-0.2 1.5996-0.5 1.2-0.8 1.4996-2.4992 0.59961-3.6992l-5.6992-8.1016 5-7.0996c0.3-0.4 0.5-1 0.5-1.5 0-1.5-1.2012-2.6992-2.7012-2.6992h-1.0996c-0.1125-0.0125-0.22305-0.015235-0.33203-0.009766z" fill="#195ea9"/>
</svg>
