<svg width="674.22" height="800" version="1.1" viewBox="0 0 674.22 800" xml:space="preserve" xmlns="http://www.w3.org/2000/svg"><defs>
			<radialGradient id="SVGID_5_" cx="329.81" cy="294.8" r="53.554" gradientUnits="userSpaceOnUse">
				<stop stop-opacity=".3" offset="0"/>
				<stop stop-opacity=".0049503" offset=".9835"/>
				<stop stop-opacity="0" offset="1"/>
			</radialGradient>
				<filter id="filter1845" x="-.050116" y="-.046055" width="1.1002" height="1.0921" color-interpolation-filters="sRGB"><feGaussianBlur stdDeviation="1.942"/></filter><filter id="filter1870" x="-.078306" y="-.071961" width="1.1566" height="1.1439" color-interpolation-filters="sRGB"><feGaussianBlur stdDeviation="3.034375"/></filter><clipPath id="clipPath1889"><path d="m333.6 313h-48.6l-4.6-19.7 52.1-62h28.1v60.8h12.8v20.9h-12.8v19.5h-27zm0-20.7v-28.8l-24 28.8z" fill="#fff"/></clipPath><filter id="filter2746" x="-.11808" y="-.099509" width="1.2362" height="1.199" color-interpolation-filters="sRGB"><feGaussianBlur stdDeviation="8.491527"/></filter><clipPath id="clipPath2792"><g transform="translate(72.997 879.1)" fill="#ff1d1d"><path transform="translate(-281.67 -359.83)" d="m616.47 565.93c-5.2 0-10.101 0.40157-14.801 1.1016-7.5504 1.1922-14.507 3.2742-20.873 6.0469-0.0428-0.015-0.0841-0.0319-0.12695-0.0469-9 4-16.699 9.3-23.299 15.5 0.0321 0.056 0.0655 0.1101 0.0976 0.16601l-0.0976-0.0664c-4.2 3.9-7.9008 8.1988-11.301 12.799-5.2 7.2-9.3004 15.001-12.4 22.801-2.3 5.8-3.8996 11.5-5.0996 17.1-1.1 5.7-1.6992 11.201-1.6992 16.201 0 4.9 0.29922 9.8 0.69922 14.5 5e-3 9e-3 0.0106 0.0168 0.0156 0.0254 0.9025 8.3534 2.4968 16.311 4.7852 23.773 10.8 35.9 37.299 63.1 75.299 74.9v-23.1c-0.0677-0.0802-0.13542-0.16006-0.20313-0.24024l0.20313 0.14063v-26.5c11.2 1.1 22.301-3.9e-4 32.701-2.9004 6.6-1.8 12.899-4.4012 18.699-7.7012-0.01-0.0104-0.0195-0.0209-0.0293-0.0312 0.0432 0.0101 0.0857 0.0212 0.12891 0.0312 8-4.4 15.201-10.099 21.201-16.799 3.8-4.2 7.0988-8.8008 9.7988-13.801l-0.34571-0.23632c0.11504 0.046 0.23068 0.0907 0.34571 0.13672 4.1865-7.6752 7.1796-16.146 8.4863-25.51l0.0137 0.01c0.5-3.7 0.80078-7.4008 0.80078-11.301 0-3.1-0.20118-6.0992-0.70118-9.1992-4.9-34.3-36.699-67.801-82.299-67.801z" fill="#ff1d1d"/></g></clipPath><clipPath id="clipPath2798"><g transform="translate(450.21 930.46)" fill="#ff1d1d"><path transform="translate(-281.67 -359.83)" d="m616.47 565.93c-5.2 0-10.101 0.40157-14.801 1.1016-7.5504 1.1922-14.507 3.2742-20.873 6.0469-0.0428-0.015-0.0841-0.0319-0.12695-0.0469-9 4-16.699 9.3-23.299 15.5 0.0321 0.056 0.0655 0.1101 0.0976 0.16601l-0.0976-0.0664c-4.2 3.9-7.9008 8.1988-11.301 12.799-5.2 7.2-9.3004 15.001-12.4 22.801-2.3 5.8-3.8996 11.5-5.0996 17.1-1.1 5.7-1.6992 11.201-1.6992 16.201 0 4.9 0.29922 9.8 0.69922 14.5 5e-3 9e-3 0.0106 0.0168 0.0156 0.0254 0.9025 8.3534 2.4968 16.311 4.7852 23.773 10.8 35.9 37.299 63.1 75.299 74.9v-23.1c-0.0677-0.0802-0.13542-0.16006-0.20313-0.24024l0.20313 0.14063v-26.5c11.2 1.1 22.301-3.9e-4 32.701-2.9004 6.6-1.8 12.899-4.4012 18.699-7.7012-0.01-0.0104-0.0195-0.0209-0.0293-0.0312 0.0432 0.0101 0.0857 0.0212 0.12891 0.0312 8-4.4 15.201-10.099 21.201-16.799 3.8-4.2 7.0988-8.8008 9.7988-13.801l-0.34571-0.23632c0.11504 0.046 0.23068 0.0907 0.34571 0.13672 4.1865-7.6752 7.1796-16.146 8.4863-25.51l0.0137 0.01c0.5-3.7 0.80078-7.4008 0.80078-11.301 0-3.1-0.20118-6.0992-0.70118-9.1992-4.9-34.3-36.699-67.801-82.299-67.801z" fill="#ff1d1d"/></g></clipPath><filter id="filter2804" x="-.11808" y="-.099509" width="1.2362" height="1.199" color-interpolation-filters="sRGB"><feGaussianBlur stdDeviation="8.491527"/></filter></defs>
<g transform="matrix(3.9062 0 0 3.9062 -957.81 -805.07)">
		<path d="m250.7 336 75.3 51.7v-20.6l-80.1-55c0.9 8.4 2.5 16.4 4.8 23.9z"/>
		<path d="m299 213.3 118 81.1c0.5-3.7 0.8-7.4 0.8-11.3 0-3.1-0.2-6.1-0.7-9.2l-97.1-66.7c-7.6 1.2-14.6 3.3-21 6.1z"/>
		<path d="m264.4 241.6 134.3 92.2c3.8-4.2 7.1-8.8 9.8-13.8l-132.8-91.2c-4.2 3.9-7.9 8.2-11.3 12.8z"/>
		<path d="m246.9 281.5 111.8 76.8c6.6-1.8 12.9-4.4 18.7-7.7l-125.4-86.2c-2.3 5.8-3.9 11.5-5.1 17.1z"/>
		<path d="m326 410.9v-23.1l-75.3-51.8c10.8 35.9 37.3 63.1 75.3 74.9z" fill="#ed1c24"/>
		<path d="m245.2 297.7c0 4.9 0.3 9.8 0.7 14.5l80.1 55v-6c11.2 1.1 22.3 0 32.7-2.9l-111.8-76.8c-1.1 5.7-1.7 11.2-1.7 16.2z" fill="#00aeef"/>
		<path d="m252 264.4 125.5 86.2c8-4.4 15.2-10.1 21.2-16.8l-134.3-92.2c-5.2 7.2-9.3 15-12.4 22.8z" fill="#0db14b"/>
		<path d="m275.7 228.7 132.8 91.2c4.2-7.7 7.2-16.2 8.5-25.6l-118-81.1c-9 4-16.7 9.3-23.3 15.5z" fill="#f7941d"/>
		<path d="m334.8 206.1c-5.2 0-10.1 0.4-14.8 1.1l97.1 66.7c-4.9-34.3-36.7-67.8-82.3-67.8z" fill="#c6168d"/>
	</g>
<path transform="matrix(3.9062 0 0 3.9062 -2716.4 -4439.6)" d="m785.01 1136.6c-5.2 0-10.101 0.4016-14.801 1.1016-7.5504 1.1922-14.507 3.2743-20.873 6.0469-0.0428-0.015-0.0841-0.032-0.12695-0.047-9 4-16.699 9.3-23.299 15.5 0.0321 0.056 0.0655 0.1101 0.0976 0.166l-0.0976-0.066c-4.2 3.9-7.9008 8.1988-11.301 12.799-5.2 7.2-9.3004 15.001-12.4 22.801-2.3 5.8-3.8996 11.5-5.0996 17.1-1.1 5.7-1.6992 11.201-1.6992 16.201 0 4.9 0.29922 9.8 0.69922 14.5 5e-3 0.01 0.0106 0.017 0.0156 0.025 0.9025 8.3534 2.4968 16.312 4.7852 23.773 10.8 35.9 37.299 63.1 75.299 74.9v-23.1c-0.0677-0.08-0.13542-0.16-0.20313-0.2402l0.20313 0.1406v-24.292l-8.728-9.2299c1.0159 0.1 10.759 7.2037 11.773 7.2676 10.163 0.6403 20.2-0.5088 29.656-3.1457 6.6-1.8 12.899-4.4012 18.699-7.7012h0.0996c8-4.4 15.201-10.099 21.201-16.799 3.8-4.2 7.0988-8.8008 9.7988-13.801v-0.1c4.1865-7.6752 7.1796-16.146 8.4863-25.51l0.0137 0.01c0.5-3.7 0.80078-7.4008 0.80078-11.301 0-3.1-0.20118-6.0992-0.70118-9.1992-4.9-34.3-36.699-67.801-82.299-67.801z" clip-path="url(#clipPath2798)" fill="none" filter="url(#filter2746)" opacity=".5" stroke="#000" stroke-width="10"/><path transform="matrix(3.9062 0 0 3.9062 -1243 -4239)" d="m407.8 1085.2c-5.2 0-10.101 0.4016-14.801 1.1016-7.5504 1.1922-14.507 3.2743-20.873 6.0469-0.0428-0.015-0.0841-0.032-0.12695-0.047-9 4-16.699 9.3-23.299 15.5 0.0321 0.056 0.0655 0.1101 0.0976 0.166l-0.0976-0.066c-4.2 3.9-7.9008 8.1988-11.301 12.799-5.2 7.2-9.3004 15.001-12.4 22.801-2.3 5.8-3.8996 11.5-5.0996 17.1-1.1 5.7-1.6992 11.201-1.6992 16.201 0 4.9 0.29922 9.8 0.69922 14.5 5e-3 0.01 0.0106 0.017 0.0156 0.025 0.9025 8.3534 2.4968 16.312 4.7852 23.773 10.8 35.9 37.299 63.1 75.299 74.9v-23.1c-0.0677-0.08-0.13542-0.16-0.20313-0.2402l0.20313 0.1406v-24.292l-8.728-9.2299c1.0159 0.1 10.759 7.2037 11.773 7.2676 10.163 0.6403 20.2-0.5088 29.656-3.1457 6.6-1.8 12.899-4.4012 18.699-7.7012h0.0996c8-4.4 15.201-10.099 21.201-16.799 3.8-4.2 7.0988-8.8008 9.7988-13.801v-0.1c4.1865-7.6752 7.1796-16.146 8.4863-25.51l0.0137 0.01c0.5-3.7 0.80078-7.4008 0.80078-11.301 0-3.1-0.20118-6.0992-0.70118-9.1992-4.9-34.3-36.699-67.801-82.299-67.801z" clip-path="url(#clipPath2792)" fill="none" filter="url(#filter2804)" opacity=".5" stroke="#000" stroke-width="15"/><path d="m580.86 116.02s73.828 99.218 56.25 189.45c0 0-18.75-18.359-21.094-3.5156-4.6875 27.734-19.141 52.734-19.922 55.469 0 0 61.718-1.5625 62.5-55.859 0.78124-56.25-20.703-124.22-77.734-185.55z" fill="#fff" opacity=".4" stroke-width="3.9062"/><path d="m113.67 454.69c-66.406-102.73-68.75-143.36-37.5-290.62-122.66 201.56-20.703 414.84 34.375 483.59-77.734-164.45-76.172-279.69 3.125-192.97z" fill="#fff" opacity=".4" stroke-width="3.9062"/><path transform="matrix(3.9062 0 0 3.9062 -957.8 -805.06)" d="m333.6 313h-48.6l-4.6-19.7 52.1-62h28.1v60.8h12.8v20.9h-12.8v19.5h-27zm0-20.7v-28.8l-24 28.8z" filter="url(#filter1870)" opacity=".8"/><path transform="matrix(3.9062 0 0 3.9062 -957.8 -805.06)" d="m333.6 313h-48.6l-4.6-19.7 52.1-62h28.1v60.8h12.8v20.9h-12.8v19.5h-27zm0-20.7v-28.8l-24 28.8z" filter="url(#filter1845)" opacity=".8"/><g transform="matrix(3.9062 0 0 3.9062 -957.81 -805.07)" opacity=".4">
				<path d="m395.7 287.3c8.9-31.4-18.9-62.3-50.2-70.7-39.7-10.6-68.3 12.5-76.3 44.4 54.6-42.9 116.7 60.9 126.5 26.3z" fill="#fff"/>
			</g><path d="m345.31 417.58h-189.84l-17.969-76.953 203.51-242.19h109.77v237.5h50v81.64h-50v76.172h-105.47zm0-80.859v-112.5l-93.75 112.5z" fill="#fff" stroke-width="3.9062"/><path transform="matrix(3.9062 0 0 3.9062 -957.81 -805.07)" d="m274 307.9c-13.5-26.2 107.2 16.2 122.8-9.5-0.9 29.4-26 51.6-61.1 51.6-20.4-0.1-44.8-9.4-61.7-42.1z" clip-path="url(#clipPath1889)" fill="url(#SVGID_5_)" opacity=".6"/></svg>
