<svg data-name="Layer 1" version="1.1" viewBox="0 0 1165.6 915.45" xmlns="http://www.w3.org/2000/svg">
 <path class="cls-1" d="m1121.2 0.20622-815.9 78.5 24.8 12c-84.638-5.4085-179.67 6.8445-270.4 11.8 17.4-1.7 63.6-6.2 110.4-10.8l-149 14.29c-15.4 1.5-24.3 20.4-20.1 41.7l113.1 575.6c2.5 12.9 14.6 25.2 27 27.4l924.86 164.11c18.5 3.3 35-6.4 36.3-21.7l63.1-843.8c2.6-29.4-17.46-51.7-44.16-49.1z" fill="#712d81"/>
 <path d="m307.05 78.68c-0.55552-0.0014-1.1254 0.0086-1.7129 0.02734l-135.2 13c-46.8 4.6-93 9.0988-110.4 10.799-10.7 1.1-12.898 7.9-11.398 15 1.1 5.3 71.3 326.2 95.6 438 6.4 29.8 24.599 41.401 36.299 29.801 12.6-12.5 5.2008-40.2 2.3008-55.4-3.9-20.1-26.7-134.4-30.9-154.1-2.4-11.4-0.6-21.2 12-21 20.5 0.2 109.7 3.2988 145.7-16.701 37.6-20.7 68.2-69.3 65.6-130-2.8-64.8-20.601-93.698-44.801-117.4-9.75-9.5625-14.753-12.006-23.086-12.027zm-116.26 17.9c19.366-0.1375 33.43 2.8441 49.242 11.025 33.54 17.39 44.199 68.1 45.199 106.4s-15.1 63.001-39.6 76.801c-23.7 13.4-93.1 9.9004-93.1 9.9004s-22.6-128.1-28.5-160.8c-6.1-34-27.999-34.599-33.199-34.199 7.1-0.8 46.6-4.9012 69.6-7.2012 11.656-1.1562 21.555-1.8633 30.357-1.9258zm468.88 286.73c-18.754-0.0332-33.621 4.3965-47.434 10.896-23.6 11.1-39.999 38.299-53.799 39.199-10.5 0.6-18.5-7.8996-31.5-27.1-6.5-9.5-15.301-26.701-29.801-22.201-13.5 4.1-11.1 26.201-10.6 34.801 2.3 40.9 13.999 247.3 19.199 348.5 1.5 29.5 0.20158 39.6 18.102 45.9 11.2 4 24.3 5.8996 34.5 2.5996 11.3-3.7 13.7-14.3 13.5-27.4-0.6-34.6-1.7004-55.499-2.9004-97.199-0.6-18.9 7.4004-9.9004 16.9-1.9004 37.6 31.6 93.798 32.399 126.9 13.199 26.3-15.2 47.601-47.4 55.701-119 3.7-33.4 9.1-104.4-16.5-149.8-9.9-17.5-27.201-38.3-53.701-45.1-14.662-3.75-27.314-5.3766-38.566-5.3965zm-350.36 52.484c-15.214 0.0281-29.381 1.9176-39.969 6.1113-26 10.3-53.301 34.099-47.701 76.199 4.7 35.1 14.801 94.1 17.701 105.9 6.6 27.2 33.798 66.001 96.398 80.701 61.2 14.3 92.2-7.6012 99.5-15.701 7.9-8.8 18.301-21.8 19.701-67.1 1.3-43.91-5.5012-90.801-7.2012-99.801-4.9-28.9-27.8-52.899-57.5-69.199-19.031-10.434-51.886-17.165-80.93-17.111zm311.18 4.9121c25.308 3.8e-4 44.568 10.719 54.49 24 13.2 17.6 14.601 38.8 16.201 59.5 2 25-2.6012 87.599-13.701 108.8-9.8 18.7-20.5 25.6-37.1 28.6-23.6 4.1-53-1.4996-67.9-18.6s-16.5-28.699-16.5-54.699v-95.9s5.5004-40.5 41.9-49c7.9625-1.8594 15.523-2.6993 22.609-2.6992zm-313.54 33.336c3.5734-0.0656 7.1848 0.30312 10.635 0.95312 16.2 3.11 47.462 14.61 52.602 47.5 5.4 33.9 8.2 108.5 7.5 120.7-0.59998 11.3-7.9016 26.602-26.102 26.102-11.8-0.3-39.7-4.1016-51.1-23.102-13.6-22.5-25.999-137.6-19.199-155.7 4.575-12.15 14.944-16.256 25.664-16.453zm503.96 132.13c-4.1457 0.0992-7.5118 3.5759-7.3613 7.8262l2.5996 109.71c0.25508 4.8076 3.7676 8.8151 8.5 9.6992l18.9 3.0996c4.4059 0.77102 8.394-2.7306 8.1992-7.1992l-0.39844-37.301c-0.14892-4.5164 3.8291-8.0645 8.2988-7.4004l20.9 2.5c4.4886 0.67069 8.4998-2.8611 8.4004-7.3984v-6.3008c-0.13238-4.7437-3.6946-8.6879-8.4004-9.3008l-21.1-2.2988c-4.7087-0.63813-8.2868-4.5538-8.5-9.3008l-0.0996-12.6c-0.17651-4.5674 3.7575-8.2173 8.2988-7.6992l25.1 2.2988c4.5366 0.45392 8.4589-3.1403 8.4004-7.6992v-6.6113c-0.0796-4.7276-3.6942-8.6427-8.4004-9.0996l-62.5-4.9004c-0.2825-0.0242-0.56151-0.032-0.83789-0.0254zm97.09 7.8066c-4.2028 0.0792-7.6617 3.5233-7.6504 7.8301l-0.70117 116.3c0.12863 4.7878 3.5905 8.8338 8.3008 9.7012l15.4 2.5c4.46 0.78081 8.5366-2.6735 8.5-7.2012l1.0996-57.398c0-4.7 0.1-12.3 0-16.9v-7.9004c-0.1-4.7 0.80039-4.8008 1.9004-0.30078l22.299 86.9c1.5023 4.7895 5.4839 8.3883 10.4 9.4004l22.6 3.5c4.8201 0.56197 9.4168-2.1864 11.201-6.6992l29.699-82.9c1.5-4.4 1.7992 0.19881 1.6992 2.2988-0.1 2.1-0.3996 7.7008-0.5996 12.301l-3.5996 72.301c-0.1283 4.7423 3.2303 8.8649 7.9004 9.6992l19.299 3.1992c4.4952 0.77961 8.6618-2.5436 8.9004-7.0996l8.4004-128.8h-0.039c0.1881-4.705-3.2833-8.7604-7.9609-9.3008l-44.1-3.0996c-4.8742-0.1474-9.2996 2.8301-11 7.4004l-21.201 64.898c-1.5 4.5-6.2 20.601-7 24.701s-2.2996 3.6996-3.0996-0.90039l-5.5-25.4-4-16.4-12.5-51.1c-1.4209-4.7322-5.4983-8.1808-10.4-8.7988l-37.398-2.7012c-0.28599-0.0254-0.56942-0.0346-0.84961-0.0293z" fill="#fff"/>
</svg>
