<svg version="1.1" viewBox="0 0 132 76.1" xml:space="preserve" xmlns="http://www.w3.org/2000/svg">
<g fill="#f00"><path d="m30.6 0.4c-1.5-0.2-3.1-0.3-4.7-0.3h-25.9v57.6h19.2v-15.6h6.3c7.9 0 14.6-1.9 19.2-5.7zm-6.2 27.9h-5.2v-12.8h5.3c5.1 0 8.1 2.1 8.1 6.3v0.2c0 4.1-3.3 6.3-8.2 6.3z"/><polygon transform="translate(-33.8,-28.9)" points="105.5 54.5 115.1 29 84.4 29 94 54.5 99.7 41.1"/><polygon transform="translate(-33.8,-28.9)" points="105.9 86.6 99.7 69.3 93.6 86.6"/><path d="m119.2 39.1c7-3.4 11.4-9.4 11.4-18.6v-0.2c0-6.1-2.1-10.4-5.7-13.9-3.2-3.2-9.5-6.4-21.1-6.4h-2.5l-22.5 57.6h19.2v-15.5h2.6l9.3 15.6h22zm-7.5-16.7c0 3.7-3 5.9-8 5.9h-5.6v-11.9h5.7c4.8 0 7.9 1.9 7.9 5.8z"/></g><g transform="translate(-33.8,-28.9)">
		<path d="m33.8 95.2h4.1c2.4 0 4 1.3 4 3.4 0 2.3-1.7 3.5-4.1 3.5h-1.3v2.8h-2.7zm3.9 4.7c0.9 0 1.5-0.5 1.5-1.2 0-0.8-0.6-1.3-1.5-1.3h-1.3v2.5z"/>
		<path d="m42.7 100c0-2.8 2.2-5 5.2-5s5.2 2.2 5.2 5-2.2 5-5.2 5-5.2-2.2-5.2-5zm7.6 0c0-1.4-1-2.6-2.5-2.6s-2.4 1.2-2.4 2.6 1 2.6 2.5 2.6 2.4-1.2 2.4-2.6z"/>
		<path d="m53.3 95.2h2.8l1.7 5.6 1.9-5.6h2.3l1.9 5.6 1.7-5.6h2.8l-3.2 9.7h-2.3l-1.9-5.5-1.9 5.5h-2.3z"/>
		<path d="m69.3 95.2h7.7v2.3h-5.1v1.5h4.6v2.1h-4.6v1.5h5.2v2.3h-7.8z"/>
		<path d="m78.4 95.2h4.6c1.5 0 2.5 0.4 3.1 1s0.9 1.3 0.9 2.2c0 1.5-0.8 2.4-2 3l2.3 3.4h-3.1l-1.9-2.9h-1.2v2.9h-2.7zm4.5 4.6c0.9 0 1.4-0.4 1.4-1.1 0-0.8-0.6-1.1-1.4-1.1h-1.7v2.3h1.7z"/>
		<path d="m92.1 95.2h2.7v3.6h3.4v-3.6h2.7v9.6h-2.7v-3.7h-3.4v3.7h-2.7z"/>
		<path d="m102.7 95.2h2.7v9.6h-2.7z"/>
		<path d="m109.5 97.5h-2.9v-2.3h8.4v2.3h-2.9v7.3h-2.7v-7.3z"/>
		<path d="m120 95.2h4.5c1.5 0 2.5 0.4 3.1 1s0.9 1.3 0.9 2.2c0 1.5-0.8 2.4-2 3l2.3 3.4h-3.1l-1.9-2.9h-1.2v2.9h-2.6zm4.4 4.6c0.9 0 1.4-0.4 1.4-1.1 0-0.8-0.5-1.1-1.4-1.1h-1.7v2.3h1.7z"/>
		<path d="m133 95.1h2.6l4.1 9.7h-2.9l-0.7-1.7h-3.7l-0.7 1.7h-2.8zm2.4 5.9-1.1-2.7-1.1 2.7z"/>
		<path d="m140.7 95.2h3.7c3.4 0 5.4 2 5.4 4.8s-2 4.8-5.5 4.8h-3.7v-9.6zm3.7 7.2c1.6 0 2.7-0.9 2.7-2.4s-1.1-2.4-2.7-2.4h-1.1v4.9h1.1z"/>
		<path d="m151.2 95.2h2.7v9.6h-2.7z"/>
		<path d="m155.4 100c0-2.8 2.2-5 5.2-5s5.2 2.2 5.2 5-2.2 5-5.2 5-5.2-2.2-5.2-5zm7.6 0c0-1.4-1-2.6-2.5-2.6s-2.4 1.2-2.4 2.6 1 2.6 2.5 2.6c1.4 0 2.4-1.2 2.4-2.6z"/>
	</g>
</svg>
