<svg width="800" height="612.98" version="1.1" viewBox="0 0 800 612.98" xmlns="http://www.w3.org/2000/svg">
 <defs>
  <linearGradient id="linearGradient975" x1="-1825.8" x2="-1025.7" y1="-672.9" y2="127.16" gradientTransform="matrix(.99993 0 0 .99993 1825.6 579.39)" gradientUnits="userSpaceOnUse">
   <stop stop-color="#d727d7" offset="0"/>
   <stop stop-color="#480848" offset="1"/>
  </linearGradient>
 </defs>
 <g transform="translate(.025986 -.047973)" fill="url(#linearGradient975)" stroke-width="2.6387">
  <path d="m2.6998 348.09v-347.94h159.03c8.7253-0.069595 17.428 0.95143 26.106 1.7637l85.096 217.6c-30.121 23.507-68.828 33.092-106.49 33.811-15.757 1.1835-31.595 0.64977-47.375 0.789v93.983h-116.36m116.36-255.03v77.718h31.658c6.8912 0 13.732-0.93715 20.476-2.6712 9.143-2.7615 18.449-7.5882 23.484-16.035 6.9849-11.023 7.1009-25.573 1.9493-37.338-4.5251-10.233-14.875-16.662-25.433-19.261-7.4335-1.4967-14.941-2.4143-22.484-2.4143z" stop-color="#000000" style="-inkscape-stroke:none;font-variation-settings:normal"/>
  <path d="m308.78 0.19442h184.86l-57.562 151.99-34.913-79.108-33.695 79.108z" stop-color="#000000" style="-inkscape-stroke:none;font-variation-settings:normal"/>
  <path d="m479.97 348.06 135.89-347.99c36.386-0.25526 73.911 1.694 107.77 16.314 35.203 14.341 61.751 48.245 66.763 86.001 4.2698 30.748 0.023 63.63-16.685 90.27-11.812 19.192-30.191 33.486-50.194 43.372l76.462 112.02h-132.81l-55.531-93.844h-15.873v93.844h-115.79m115.79-249.25v71.938h34.306c11.471 0 22.664-2.2405 32.667-8.1749 20.166-11.603 20.189-45.507-0.39447-56.645-10.405-5.6012-21.845-7.1177-33.493-7.1177z" stop-color="#000000" style="-inkscape-stroke:none;font-variation-settings:normal"/>
  <path d="m401.17 243.5 36.85 104.49h-73.748z" stop-color="#000000" style="-inkscape-stroke:none;font-variation-settings:normal"/>
  <path d="m34.198 423.13c38.127-34.738 102.43-33.393 140.14 1.3227 14.202 13.134 22.672 31.931 23.507 51.215h-54.116c-1.578-14.156-12.369-26.199-26.153-29.541-13.622-3.2024-29.286-2.9703-41.121 5.3837-13.575 9.0502-19.516 25.665-21.72 41.19-2.3902 19.261 0.13919 40.123 11.255 56.483 13.018 19.075 41.956 22.88 60.939 10.953 10.86-6.6832 15.339-19.389 17.103-31.386 17.915-0.0232 35.829-0.0464 53.768 0-1.3228 20.954-8.7718 42.13-23.67 57.307-18.031 18.751-44.625 27.429-70.244 26.895-26.942 0.88181-54.185-9.3519-73.238-28.543-42.026-42.815-40.888-120.53 3.5505-161.28z" stop-color="#000000" style="-inkscape-stroke:none;font-variation-settings:normal"/>
  <path d="m226.38 401.67h54.29v161.11h95.967v46.412h-150.26z" stop-color="#000000" style="-inkscape-stroke:none;font-variation-settings:normal"/>
  <path d="m402.27 401.64h53.594v126.19c0.48726 10.976 2.3089 23.113 10.709 31.096 8.5165 7.7739 20.861 8.1684 31.746 7.5187 8.7254-0.4177 17.961-3.7129 23.089-11.185 6.4512-8.5861 6.8457-19.795 7.4722-30.075v-123.55h53.756v123.62c-0.53366 22.509-4.4439 46.969-20.387 64.071-16.662 18.101-42.49 23.716-66.182 23.623-23.902 0.64976-50.008-2.6919-68.643-19.006-18.379-15.71-24.319-41.028-25.155-64.187z" stop-color="#000000" style="-inkscape-stroke:none;font-variation-settings:normal"/>
  <path d="m618.56 401.76h100.12c17.544 0.64977 36.061 2.2393 51.192 11.986 13.297 8.0988 20.769 23.902 20.166 39.287 0.92824 17.985-10.883 34.785-26.849 42.281 16.639 5.5694 30.701 19.354 34.066 36.897 4.3859 22.161-1.6244 48.615-21.024 62.076-17.265 12.369-39.171 14.097-59.709 14.84h-97.963c-0.13929-69.13-0.16248-138.26 0-207.36m54.22 41.77v39.299h47.642c12.485-1.4852 19.215-16.082 14.597-27.22-2.7847-8.6326-12.461-12.009-20.745-12.078h-41.492m0 74.644v47.465h41.329c7.9363 0.0464 16.523-0.68457 23.113-5.5346 13.32-11.023 8.4933-36.99-9.2823-40.401-5.2231-0.86499-10.469-1.5304-15.743-1.5304z" stop-color="#000000" style="-inkscape-stroke:none;font-variation-settings:normal"/>
 </g>
</svg>
