<svg version="1.1" viewBox="0 0 297.24 261.89" xml:space="preserve" xmlns="http://www.w3.org/2000/svg">
<g transform="translate(-446.59 -291.13)">
		<polygon points="478.06 543.81 481.22 543.81 490.55 515.77 488.42 515.77 479.64 542.16 470.85 515.77 468.72 515.77"/>
		<path d="m562.98 515.76v4.063c-1.899-2.758-5.076-4.492-8.547-4.492h-0.692c-4.392 0-8.321 2.769-9.776 6.889-0.37 1.049-0.795 2.854-0.795 7.564 0 4.781 0.454 6.617 0.795 7.582 1.455 4.119 5.385 6.889 9.776 6.889h0.692c3.464 0 6.635-1.728 8.535-4.476-0.05 2.682-0.269 4.545-0.667 5.672-1.171 3.314-4.332 5.539-7.868 5.539h-0.692c-3.13 0-6.075-1.455-7.642-3.629h-2.352c1.68 3.369 5.632 5.654 9.994 5.654h0.692c4.392 0 8.32-2.769 9.775-6.891 0.342-0.965 0.795-2.801 0.795-7.58v-22.783h-2.023zm-0.679 20.931c-1.171 3.313-4.332 5.539-7.868 5.539h-0.692c-3.536 0-6.698-2.227-7.868-5.539-0.169-0.476-0.68-1.924-0.68-6.908 0-4.453 0.388-6.064 0.68-6.889 1.17-3.315 4.332-5.541 7.868-5.541h0.692c3.536 0 6.697 2.227 7.868 5.541 0.169 0.475 0.679 1.92 0.679 6.889 0 3.355-0.222 5.615-0.679 6.908"/>
		<path d="m588.94 536.87-0.049 0.137c-1.07 3.029-4.64 5.229-8.488 5.229h-0.691c-3.536 0-6.698-2.225-7.868-5.539-0.169-0.475-0.68-1.922-0.68-6.906v-0.142h19.818l-0.017-1.029c-0.065-3.918-0.479-5.525-0.786-6.393-1.455-4.121-5.385-6.889-9.776-6.889h-0.691c-4.393 0-8.321 2.768-9.776 6.889-0.37 1.047-0.795 2.854-0.795 7.564 0 4.779 0.454 6.615 0.795 7.58 1.455 4.121 5.384 6.889 9.776 6.889h0.691c4.753 0 9.028-2.705 10.396-6.578l0.286-0.811h-2.145zm-17.097-13.971c1.17-3.313 4.332-5.539 7.868-5.539h0.691c3.536 0 6.698 2.227 7.868 5.539 0.137 0.385 0.524 1.484 0.645 4.725h-17.716c0.102-2.85 0.405-4.049 0.644-4.725"/>
		<path d="m511.25 536.87-0.049 0.137c-1.071 3.029-4.641 5.229-8.488 5.229h-0.692c-3.536 0-6.697-2.225-7.868-5.539-0.169-0.475-0.68-1.922-0.68-6.906v-0.142h19.818l-0.017-1.029c-0.063-3.918-0.479-5.525-0.786-6.393-1.454-4.121-5.384-6.889-9.775-6.889h-0.692c-4.392 0-8.32 2.768-9.776 6.889-0.37 1.047-0.795 2.854-0.795 7.564 0 4.779 0.454 6.615 0.795 7.58 1.456 4.121 5.385 6.889 9.776 6.889h0.692c4.753 0 9.027-2.705 10.396-6.578l0.286-0.811h-2.145zm-17.097-13.971c1.171-3.313 4.332-5.539 7.868-5.539h0.692c3.536 0 6.697 2.227 7.868 5.539 0.136 0.385 0.524 1.484 0.645 4.725h-17.717c0.102-2.85 0.404-4.049 0.644-4.725"/>
		<path d="m457.36 527.66c-5.131 0-7.732-1.668-7.732-4.955 0-2.289 0.745-5.334 7.192-5.334h0.821c5.901 0 7.026 2.549 7.175 4.736h2.025c-0.191-3.217-2.03-6.76-9.2-6.76h-0.821c-7.617 0-9.216 4.002-9.216 7.357 0 2.607 1.268 6.977 9.756 6.977 7.477 0 8.484 3.271 8.484 6.471 0 4.033-2.67 6.08-7.938 6.08h-1.352c-5.267 0-7.937-2.047-7.937-6.08h-2.023c0 5.225 3.537 8.104 9.96 8.104h1.352c6.424 0 9.961-2.879 9.961-8.104 1e-3 -5.714-3.436-8.492-10.507-8.492"/>
		<polygon points="538.14 506.94 538.14 509 538.14 512.34 536.12 512.34 536.12 506.94"/>
		<polygon points="538.14 543.8 538.14 528.33 538.14 515.76 536.12 515.76 536.12 543.8"/>
		<polygon points="698.59 506.94 698.59 509.67 698.59 512.34 696.56 512.34 696.56 506.94"/>
		<polygon points="698.59 543.8 698.59 528.33 698.59 515.76 696.57 515.76 696.57 543.8"/>
		<path d="m531.71 515.66c-0.838-0.213-1.703-0.322-2.594-0.322h-0.691c-3.469 0-6.643 1.732-8.542 4.488v-4.066h-2.023v28.047h2.023v-14.504c0.028-4.082 0.396-5.611 0.677-6.406 1.17-3.31 4.33-5.535 7.865-5.535h0.691c0.899 0 1.765 0.148 2.594 0.416z"/>
		<path d="m714.46 544.25h-0.691c-4.391 0-8.315-2.768-9.772-6.887-0.34-0.965-0.793-2.799-0.793-7.578 0-4.709 0.424-6.514 0.795-7.561 1.455-4.119 5.38-6.887 9.771-6.887h0.691c4.391 0 8.316 2.767 9.773 6.887 0.369 1.047 0.793 2.852 0.793 7.561 0 4.779-0.453 6.613-0.793 7.578-1.458 4.119-5.384 6.887-9.774 6.887m-0.692-26.889c-3.535 0-6.694 2.225-7.864 5.537-0.291 0.824-0.678 2.436-0.678 6.887 0 4.984 0.51 6.43 0.678 6.904 1.17 3.313 4.329 5.539 7.864 5.539h0.691c3.535 0 6.695-2.227 7.867-5.539 0.455-1.291 0.676-3.551 0.676-6.904 0-4.967-0.51-6.412-0.676-6.887-1.172-3.313-4.332-5.537-7.867-5.537z"/>
		<path d="m689.22 543.81h2.022v-36.879h-2.022v12.906c-1.9-2.762-5.076-4.498-8.549-4.498h-0.693c-4.389 0-8.318 2.768-9.771 6.887-0.371 1.047-0.797 2.852-0.797 7.561 0 4.779 0.453 6.613 0.797 7.58 1.453 4.119 5.383 6.885 9.771 6.885h0.693c3.473 0 6.648-1.734 8.549-4.498zm-0.686-7.118c-1.17 3.313-4.33 5.537-7.863 5.537h-0.693c-3.535 0-6.695-2.225-7.865-5.537-0.168-0.477-0.68-1.922-0.68-6.906 0-4.451 0.387-6.063 0.68-6.887 1.17-3.313 4.33-5.537 7.865-5.537h0.693c3.533 0 6.693 2.225 7.863 5.537 0.168 0.475 0.68 1.92 0.68 6.887 0 3.356-0.223 5.614-0.68 6.906"/>
		<path d="m665.28 523.28c0-5.006-3.453-7.996-9.238-7.996h-0.824c-5.991 0-9.528 2.465-9.827 6.777h2.035c0.373-3.9 4.391-4.75 7.792-4.75h0.824c2.695 0 7.213 0.775 7.213 5.975l2e-3 4.314h-8.761c-7.188 0-10.533 2.605-10.533 8.201v0.309c0 5.238 3.545 8.125 9.984 8.125l0.814-6e-3c3.454-0.019 6.608-1.754 8.497-4.502l2e-3 4.07h2.027zm-2.023 6.471h-4e-3c0 3.357-0.223 5.617-0.68 6.912-1.17 3.313-4.332 5.541-7.87 5.541l-0.756 4e-3c-5.279 0-7.959-2.051-7.959-6.098v-0.309c0-3.207 1.031-6.176 8.508-6.176h8.761z"/>
		<path d="m633.27 522.65c0-7.109-6.992-6.69-9.162-7.109h10.094c2.897 2e-3 7.535 1.914 7.535 7.111 0 5.195-3.639 7.107-6.533 7.111h-4.738c-1e-3 1e-3 2.804-1e-3 2.804-7.113z"/>
		<polygon points="607.12 543.8 595.02 531.19 595.02 543.8"/>
		<polygon points="619.28 529.3 619.28 515.54 607.77 515.54"/>
		<polygon points="629.94 529.76 619.67 529.76 631.41 543.8 642.39 543.8"/>
		<path d="m603.25 522.65c0 5.359 1.725 6.691 3.873 7.111h-6.063c-2.867-4e-3 -6.47-1.914-6.47-7.111 0-5.195 3.603-7.108 6.47-7.111h6.063c-2.15 0.42-3.873 1.754-3.873 7.111z"/>
		<path d="m611.64 536.78c0-5.289-1.74-6.604-3.91-7.018h6.123c2.897 4e-3 6.533 1.891 6.533 7.02s-3.637 7.016-6.533 7.018h-6.123c2.169-0.414 3.91-1.731 3.91-7.02z"/>
	</g><g transform="translate(-446.59 -291.13)" fill="#c21eaa">
		<path d="m547.8 353.93c0 43.633-24.1 48.295-24.1 48.295h25.956c3.176 0 65.518 2.4 65.518-55.543 0-57.941-48.636-55.541-51.812-55.541h-39.662s24.1 4.953 24.1 48.588z"/>
		<polygon points="507.24 291.14 447.81 291.14 447.81 482.01 507.24 482.01 507.24 370.5"/>
		<polygon points="674.44 291.14 585.67 437.49 652.99 437.49 743.83 291.14"/>
		<polygon points="725.46 386.3 698.8 386.3 667.21 437.48 667.21 482.01 725.46 482.01"/>
	</g>
</svg>
