<svg width="211.67mm" height="94.197mm" version="1.1" viewBox="0 0 211.67 94.197" xmlns="http://www.w3.org/2000/svg">
 <g transform="matrix(.26459 0 0 .26459 68.23 27.667)">
  <g transform="matrix(1.0596,0,0,1.0596,-266.35,-113.05)" fill="#ad1480" fill-rule="evenodd" stroke-linecap="square" stroke-linejoin="bevel">
   <g transform="translate(8,8)">
    <path d="m615.82 239.31c-0.629-0.16-1.078-0.719-1.115-1.362l-0.333-4.494c-0.03-0.35 0.07-0.703 0.266-0.983l50.034-72.213c0.379-0.536 1.062-0.779 1.694-0.593l74.984 22.72-48.462-64.669c-0.386-0.516-0.403-1.239-0.037-1.772l45.672-66.16-75.799 26.532c-0.619 0.2097-1.322 0.01-1.718-0.5194l-46.564-61.356 1.834 76.991c0.014 0.6659-0.389 1.2551-1.022 1.4815l-60.764 21.258-0.879 0.04-4.681-1.205c-0.652-0.174-1.115-0.736-1.145-1.412-0.04-0.676 0.38-1.292 1.012-1.508l61.607-21.551-2.011-86.972c-0.014-0.66254 0.396-1.2618 1.022-1.4716 0.616-0.21974 1.315-0.0066976 1.724 0.50939l52.8 69.21 85.015-29.741c0.626-0.2231 1.319-0.0133 1.718 0.5227 0.41 0.516 0.426 1.2552 0.047 1.7945l-51.276 74.078 54.195 72.646c0.387 0.529 0.397 1.242 0.02 1.791-0.372 0.543-1.062 0.763-1.694 0.586l-84.309-25.406-50.173 72.633c-0.287 0.419-0.763 0.659-1.256 0.659-0.143-6e-3 -0.273-0.02-0.406-0.063m80.171-122.54 0.11 0.143c-0.024-0.07-0.037-0.156-0.047-0.223l-0.063 0.08m-33.224-43.708 0.06-0.0233c-0.043-0.0132-0.07-0.0299-0.116-0.0532l0.056 0.0766v-1e-4" fill="#ad1480" fill-rule="nonzero"/>
   </g>
   <g transform="matrix(3.3293,0,0,3.3293,-463.88,-201.5)">
    <path d="m339.56 89.193-10.332-13.534 0.383 17.014-16.922 5.92 17.208 5.15 0.781 18.18 9.746-14.257 16.653 5.032-10.87-14.66 10.297-14.771-16.944 5.926" fill="#ad1480" fill-rule="nonzero"/>
   </g>
   <g transform="translate(8,8)">
    <path d="m9.8848 280.73c11.926 6.113 31.123 12.225 50.899 12.225 18.035 0 26.758-6.112 26.758-15.997 0-9.599-8.7229-14.842-30.83-22.393-33.157-11.926-55.264-29.968-55.264-59.053 0-34.612 29.378-61.366 78.829-61.366 23.259 0 40.129 4.358 52.933 9.891l-11.053 42.173c-8.437-3.772-22.972-9.296-42.459-9.296-16.004 0-24.727 5.803-24.727 14.526 0 9.898 10.474 13.677 35.194 22.989 35.195 13.075 50.899 31.699 50.899 59.03 0 33.746-26.178 62.538-83.47 62.538-23.565 0-46.541-6.106-57.594-11.916l9.8848-43.351" fill="#ad1480" fill-rule="nonzero"/>
   </g>
   <g transform="matrix(3.3293,0,0,3.3293,-463.88,-201.5)">
    <path d="m198.87 162.97v-45.604h-15.026v-13.278h46.125v13.278h-15.287v45.604h-15.812" fill="#ad1480" fill-rule="nonzero"/>
   </g>
   <g transform="translate(8,8)">
    <path d="m331.57 287.72-11.044 45.376h-54.395l57.009-196.03h69.803l58.466 196.03h-56.728l-12.505-45.376h-50.606m43.341-38.683-9.019-35.198c-2.907-11.044-6.685-27.041-9.595-38.677h-0.586c-2.9 11.636-5.817 27.633-8.723 38.677l-8.43 35.198h36.353" fill="#ad1480" fill-rule="nonzero"/>
   </g>
   <g transform="translate(8,8)">
    <path d="m458.98 139.96c14.829-2.328 37.232-4.359 63.404-4.359 29.96 0 51.475 4.072 66.31 15.409 12.512 9.605 19.197 23.568 19.197 42.475 0 24.435-18.314 41.581-33.446 47.407v0.876c12.798 5.809 20.076 18.314 25.023 35.181 5.813 20.069 12.212 48.575 15.998 56.139h-53.52c-2.906-5.826-8.143-20.941-13.67-45.375-5.237-23.269-12.502-28.217-28.789-28.217h-8.44v73.592h-52.061v-193.13h-6e-3m52.061 81.735h13.67c19.779 0 31.119-9.592 31.119-24.141 0-14.536-9.592-22.973-27.054-22.973-9.885 0-15.115 0.586-17.735 1.169v45.945" fill="#ad1480" fill-rule="nonzero"/>
   </g>
   <g transform="matrix(3.3293,0,0,3.3293,-463.88,-201.5)">
    <path d="m343.38 139.48v2.543h-9.62v7.807h8.889v2.51h-8.889v10.63h-3.028v-23.49h12.648" fill="#ad1480" fill-rule="nonzero"/>
   </g>
   <g transform="translate(8,8)">
    <path d="m743.16 298.76c-0.58-10.904-1.279-24.015-1.162-33.77h-0.35c-2.67 9.172-5.913 19.034-9.861 29.705l-13.807 37.937h-7.654l-12.645-37.242c-3.712-11.03-6.845-21.111-9.049-30.4h-0.233c-0.227 9.755-0.813 22.863-1.502 34.575l-2.101 33.527h-9.628l5.46-78.196h12.871l13.348 37.824c3.252 9.635 5.913 18.218 7.887 26.335h0.349c1.968-7.89 4.758-16.467 8.234-26.335l13.923-37.824h12.892l4.864 78.196h-9.855l-1.981-34.332" fill="#ad1480" fill-rule="nonzero"/>
   </g>
  </g>
 </g>
</svg>
