<svg id="a" enable-background="new 0 0 510.236 226.771" version="1.1" viewBox="0 0 700 332.43" xml:space="preserve" xmlns="http://www.w3.org/2000/svg">
<g id="b"><polygon id="c" transform="matrix(2.3297 0 0 2.3297 -244.34 -97.933)" points="322.14 64.729 323.27 65.464 324.67 64.934 325.77 65.797 327.12 65.524 328.27 66.139 329.58 66.063 330.54 67.479 332.01 66.768 333.38 66.48 334.6 66.778 335.76 67.278 336.77 68.372 337.84 69.225 339.29 68.659 340.25 69.91 341.85 68.867 342.9 69.754 344.13 70.022 345.23 70.753 346.65 70.415 347.6 71.573 348.83 71.869 350.15 71.874 351.12 72.943 352.47 72.893 353.93 72.53 354.63 74.343 355.9 74.508 357.3 74.353 358.65 74.347 359.39 75.958 360.52 76.503 362.12 75.92 363.06 76.936 364.05 77.836 365.25 78.237 366.57 78.37 367.85 78.591 369 79.132 369.92 80.125 371.36 80.061 372.52 80.568 373.16 82.086 374.77 81.736 376 82.133 376.58 83.701 377.91 83.912 378.67 85.107 380.34 84.783 380.98 86.146 382.15 86.652 383.28 87.232 384.42 87.812 385.07 89.078 386.53 89.222 387.19 90.438 388.21 91.175 389.39 91.726 390.67 92.184 391.48 93.185 392.38 94.095 393.07 95.194 394.17 95.898 395.06 96.811 396.16 97.537 396.57 98.861 396.72 100.34 397.58 101.26 399.27 101.63 399.43 103.04 400.46 103.91 400.13 105.53 401.89 106.06 402.3 107.29 401.64 108.93 403.08 109.74 403.23 111.03 402.72 112.48 403.98 113.46 404.44 114.68 404.18 116.01 403.48 117.34 404.22 118.53 404.13 119.79 404.6 121.05 404.86 122.34 404.27 123.57 404.88 124.92 404.19 126.11 402.85 127.13 403.32 128.52 403.49 129.87 402 130.72 402.9 132.38 401.18 133.05 401.34 134.48 400.99 135.72 400.81 137.07 400.08 138.14 398.33 138.53 398.46 140.12 396.84 140.51 396.21 141.59 396.07 143.08 395.72 144.46 393.88 144.5 393.56 145.93 392.77 146.92 391.92 147.86 390.98 148.72 389.77 149.26 389.04 150.34 388.23 151.36 386.62 151.35 385.97 152.58 385.02 153.42 383.95 154.09 383.05 155.02 382.05 155.8 380.84 156.26 379.49 156.48 378.7 157.61 377.09 157.36 376.06 158.08 375.06 158.85 373.9 159.34 372.74 159.83 371.81 160.76 370.71 161.37 369.94 162.68 368.53 162.65 367.37 163.13 366.39 164.03 364.91 163.8 364.01 164.89 362.92 165.55 361.76 166.07 360.56 166.47 359.04 166.03 357.82 166.34 357.1 168.03 355.52 167.38 354.49 168.25 353.39 168.92 352.15 169.18 350.99 169.7 349.62 169.57 348.41 169.91 347.17 170.17 346.18 171.22 345.08 171.95 343.54 171.23 342.46 171.99 341.07 171.72 339.81 171.9 338.74 172.74 337.4 172.59 336.4 173.74 334.95 173.21 333.73 173.51 332.66 174.46 331.36 174.44 330.26 175.27 328.95 175.24 327.68 175.36 326.72 176.85 325.41 176.78 324.15 176.94 322.7 176.25 321.62 177.21 320.39 177.5 319.29 178.43 318.01 178.45 316.58 177.77 315.42 178.36 314.07 178.04 312.81 178.12 311.77 179.41 310.54 179.64 309.14 178.98 308.17 180.65 306.67 179.36 305.69 181.06 304.37 180.83 302.97 180.05 301.84 180.91 300.72 181.82 299.31 180.98 298.23 182.17 296.99 182.32 295.78 182.66 294.42 182.09 293.31 183.13 291.86 181.82 290.72 182.67 289.44 182.52 288.31 183.8 287.01 183.38 285.77 183.5 284.5 183.43 283.28 183.84 281.95 182.6 280.76 183.63 279.51 183.9 278.28 184.34 277 183.65 275.73 183.06 274.48 182.82 273.26 184.52 271.99 183.79 270.74 183.25 269.48 183.06 268.24 183.34 267 183.32 265.75 184.2 264.5 184.46 263.26 183.24 262.01 183.04 260.75 183.55 259.5 183.98 258.25 183.68 256.98 184.32 255.75 183.67 254.49 183.97 253.26 183.19 252.02 182.71 250.75 183.14 249.47 183.95 248.25 182.86 247 182.58 245.72 183.36 244.44 183.96 243.2 183.31 241.97 182.63 240.69 183.24 239.43 183.39 238.22 182.38 236.94 182.93 235.72 182.09 234.46 182.17 233.14 183.26 231.9 183.06 230.64 183.11 229.41 182.54 228.12 183.02 226.88 182.77 225.67 181.94 224.41 182.02 223.19 181.48 221.94 181.39 220.59 182.85 219.34 182.78 218.12 182.14 216.88 182.02 215.61 182.14 214.43 181.11 213.2 180.63 211.93 180.86 210.66 181.09 209.34 181.91 208.08 181.86 206.85 181.52 205.68 180.52 204.43 180.45 203.15 180.73 201.9 180.62 200.69 180.01 199.32 181.28 198.21 179.67 196.85 180.86 195.64 180.34 193.87 179.86 195.26 178.99 196.03 177.94 196.23 176.55 196.9 175.45 198.26 174.76 198.58 173.45 198.67 171.99 200.14 171.38 200.12 169.85 201.1 168.93 201.38 167.58 203.29 166.89 201.38 165.8 199.98 166.43 198.67 166.59 197.65 165.33 196.41 165.12 195.02 165.65 193.69 165.82 192.82 164 191.52 164.04 190.02 164.99 189.06 163.57 187.86 163.2 186.64 162.91 185.36 162.86 184.3 161.98 182.71 163.13 181.62 162.3 180.35 162.22 179.16 161.81 178.26 160.33 177 160.18 175.65 160.36 174.22 160.81 173.48 158.85 172.27 158.55 170.72 159.38 169.5 159.12 168.52 158.05 167.28 157.82 166.18 157.17 164.71 157.64 163.55 157.15 162.44 156.52 161.26 156.08 160.3 155.04 158.87 155.34 157.58 155.22 156.44 154.66 155.59 153.34 154.52 152.62 153.05 152.97 152 152.21 150.75 151.96 149.82 150.91 148.59 150.61 147.24 150.62 145.95 150.43 145.17 149.06 143.73 149.24 142.35 149.23 141.44 148.19 140.22 147.82 139.44 146.55 138.26 146.1 136.78 146.28 135.94 145.15 135.03 144.17 133.6 144.2 132.79 143.08 131.64 142.57 130.43 142.16 129.35 141.52 127.82 141.62 127.34 140.02 125.52 140.53 124.59 139.64 123.75 138.63 122.52 138.19 121.56 137.36 121.28 135.64 119.53 135.85 119.04 134.45 117.68 134.1 116.78 133.22 116.11 132.09 115.31 131.11 113.86 130.76 112.97 129.86 112.01 128.99 112.39 127.07 111 126.56 109.72 125.9 109.94 124.26 108.67 123.55 108.02 122.45 108.06 121.04 107.42 119.95 107.23 118.69 105.85 117.78 105.91 116.44 105.5 115.21 105.44 113.92 105.41 112.63 106.21 111.36 106.26 110.13 105.84 108.84 106.97 107.73 107.2 106.53 107.2 105.28 107.74 104.15 106.54 102.48 107.33 101.4 108.32 100.44 109.43 99.566 109.76 98.364 109.81 96.992 110.11 95.719 110.75 94.629 111.66 93.715 111.92 92.366 112.5 91.227 113.55 90.43 114.52 89.59 115.54 88.81 115.78 87.348 117.18 86.922 118.55 86.497 118.35 84.556 119.15 83.57 121.07 83.761 121.57 82.462 122.81 81.971 123.56 80.934 123.8 79.27 124.94 78.671 125.79 77.702 127.15 77.406 128.45 77.041 129.1 75.807 130.62 75.781 131.73 75.192 132.82 74.58 133.31 73.051 134.59 72.722 135.62 72 137 71.855 138.06 71.205 138.75 69.911 139.77 69.164 141.32 69.36 142.42 68.775 143.13 67.469 144.4 67.183 144.98 65.574 146.45 65.677 147.9 65.792 149.04 65.283 149.95 64.3 150.95 63.497 152.21 63.243 153.4 62.841 154.21 61.583 155.62 61.682 156.44 60.417 157.94 60.74 159.18 60.459 160.41 60.156 161.06 58.413 162.21 57.919 163.94 58.893 164.59 57.082 165.75 56.594 167.4 57.442 168.4 56.552 169.45 55.75 170.55 55.088 172.17 55.966 172.95 54.333 174.11 53.82 175.21 53.141 176.94 54.439 177.97 53.554 178.95 52.454 180.07 51.795 181.45 52.025 182.49 51.096 184 51.839 185.28 51.778 186.45 51.308 187.41 50.019 188.85 50.589 190 49.996 191.18 49.542 192.43 49.394 193.67 49.16 194.67 47.903 196.03 48.203 197.31 48.18 198.5 47.74 199.78 47.747 200.86 46.692 202.31 47.562 203.5 47.136 204.59 46.097 206.1 47.417 207.3 46.979 208.5 46.539 209.69 46.039 211.02 46.405 212.19 45.794 213.36 45.117 214.65 45.198 216.01 45.897 217.06 44.273 218.4 44.801 219.74 45.433 220.98 45.282 222.06 43.559 223.32 43.54 224.7 44.718 225.84 43.322 227.11 43.435 228.33 42.895 229.62 43.203 230.9 43.356 232.13 42.963 233.42 43.331 234.67 43.272 235.92 43.077 237.17 42.848 238.47 43.973 239.72 43.662 240.96 43.17 242.23 43.874 243.48 43.267 244.73 43.026 245.99 42.204 247.24 43.808 248.5 43.143 249.75 42.35 251.01 43.078 252.26 43.102 253.52 42.291 254.77 43.852 256.03 42.25 257.28 42.704 258.53 42.979 259.78 42.883 261.03 42.823 262.27 43.41 263.52 43.774 264.76 44.063 266.04 42.863 267.29 42.86 268.54 42.988 269.78 43.125 270.98 44.192 272.24 43.885 273.51 43.512 274.77 43.367 276.01 43.435 277.2 44.421 278.49 43.834 279.71 44.259 281.04 43.356 282.19 44.539 283.51 43.827 284.7 44.434 285.94 44.572 287.22 44.319 288.44 44.646 289.67 44.904 290.92 44.921 292.19 44.855 293.24 46.29 294.48 46.429 295.82 45.918 297.1 45.826 298.45 45.481 299.49 46.591 300.66 47.092 302.08 46.533 303.04 47.847 304.23 48.19 305.75 47.309 306.57 49.041 307.79 49.328 309.16 48.971 310.81 49.326 308.98 49.669 309.36 51.569 307.62 51.805 307.16 53.047 307.11 54.609 305.7 55.11 304.4 55.692 304.75 57.562 303.05 57.84 302.63 59.117 302.05 60.269 300.62 60.97 302.27 61.627 303.66 60.705 304.92 60.87 306.02 62.045 307.31 61.875 308.44 62.767 309.78 62.382 311.06 62.39 312.16 63.422 313.37 63.762 314.71 63.425 316.03 63.217 317.19 63.842 318.35 64.483 319.81 63.584 320.75 65.277" fill="#ed1c24"/><path id="d" d="m331.63 0.059105c-117.63-1.1322-244.51 40.629-301.65 99.301-19.907 20.438-29.985 41.533-29.985 62.733 0 0.80606 0.013978 1.6098 0.044263 2.4135 1.3326 36.923 40.086 69.747 115.18 97.566 47.807 17.708 95.784 27.595 108.44 30.043-2.8468 4.6896-18.933 31.199-18.933 31.199l3.6669 0.34246c1.6913 0.15842 169.96 15.76 233.58 4.9785l8.2726-1.3535c29.633-4.7921 91.294-14.761 146.49-36.718 68.531-27.262 103.27-63.674 103.27-108.24 0-0.40769-5e-3 -0.82004-0.014-1.2301-0.36342-25.668-13.528-48.969-39.131-69.261-20.228-16.035-48.263-30.244-83.327-42.234-50.793-17.368-101.88-25.009-116.18-26.926 3.8975-4.9994 21.652-27.786 21.652-27.786l-3.9441-0.55912c-2.6395-0.37274-5.6448-1.1881-9.4491-2.2202-16.608-4.5079-47.52-12.895-137.98-12.051zm136.77 16.501c2.3366 0.63366 4.3355 1.1485 6.2225 1.5818-3.6692 4.7082-21.917 28.131-21.917 28.131l4.0816 0.46593c2.3716 0.27024 237.07 28.352 238.59 134.43 5e-3 0.3844 9e-3 0.76879 9e-3 1.1508 0 42.5-33.759 77.47-100.36 103.97-54.721 21.768-116.05 31.686-145.52 36.45l-8.3075 1.3605c-57.85 9.8055-203.83-2.4857-228.7-4.6942 3.0914-5.095 18.577-30.609 18.577-30.609l-3.3128-0.58707c-2.1992-0.39371-220.08-40.14-223.11-123.86-0.027956-0.74549-0.041934-1.491-0.041934-2.2388 0-19.963 9.6378-39.977 28.678-59.525 26.894-27.616 71.646-52.713 126.01-70.67 54.819-18.106 116.02-27.779 172.33-27.236 89.864-0.83634 120.38 7.4409 136.77 11.888z"/><ellipse id="e" cx="349.59" cy="165.61" rx="320.26" ry="137.33" fill="#ed1c24" stroke-width="2.3297"/><path id="f" d="m121.62 66.224c-61.771 26.504-95.788 62.025-95.788 100.01 0 37.987 34.02 73.505 95.788 100.01 61.046 26.192 142.15 40.62 228.38 40.62 86.225 0 167.33-14.425 228.38-40.62 61.768-26.504 95.786-62.022 95.786-100.01 0-37.99-34.02-73.508-95.786-100.01-61.046-26.195-142.15-40.622-228.38-40.622-86.227 0.00233-167.33 14.428-228.38 40.622zm-90.409 100.01c0-74.579 143.01-135.25 318.79-135.25s318.78 60.673 318.78 135.25-143.01 135.25-318.78 135.25-318.79-60.671-318.79-135.25z"/><ellipse id="g" cx="344.97" cy="166.48" rx="274.66" ry="137.49" stroke-width="2.3297"/><path id="h" d="m69.596 166.93c0 76.252 123.6 138.29 275.53 138.29s275.53-62.036 275.53-138.29-123.6-138.29-275.53-138.29-275.53 62.036-275.53 138.29zm3.0938 0c0-74.54 122.22-135.18 272.44-135.18s272.44 60.641 272.44 135.18c0 74.537-122.22 135.18-272.44 135.18-150.23 0-272.44-60.646-272.44-135.18z" fill="#ed1c24"/><g id="i"><path id="j" d="m66.062 69.8-40.557 140.01h62.337c18.362 0 30.6-0.79441 37.419-2.4345 7.7717-1.866 14.23-5.484 19.185-10.754 4.7758-5.088 8.466-12.287 11.287-22.027l3.2755-11.308c1.3535-4.6779 2.0338-8.883 2.0338-12.657 0-4.8364-1.1159-8.9622-3.35-12.457-0.41235-0.64299-0.8876-1.2464-1.3792-1.8404 0.31217-0.20501 0.70821-0.37973 1.0018-0.59173 5.5399-4.0093 9.6797-10.64 12.305-19.707 1.7775-6.134 2.6674-11.55 2.6674-16.303 0-5.5026-1.1928-10.115-3.5807-13.922-4.2702-6.8096-10.989-11.334-19.972-13.444-7.3617-1.7286-17.997-2.5719-32.508-2.5719h-50.164zm50.162 18.202c12.911 0 22.446 0.70356 28.343 2.0874 4.2097 0.98777 7.0588 2.7537 8.7152 5.3931 0.20501 0.32849 0.80373 1.5213 0.80373 4.3099 0 2.3972-0.4403 5.9709-1.9499 11.182-1.4304 4.9342-3.3803 8.4939-5.4933 10.022-1.5096 1.0949-5.6098 3.1776-16.072 4.8387l-0.13046 17.957c10.101 1.7566 11.914 4.184 11.93 4.2074 0.24228 0.38206 0.46593 1.2347 0.46593 2.6418 0 1.6843-0.32149 4.1678-1.3093 7.583l-3.2755 11.308c-2.4601 8.4869-5.1998 12.638-7.0682 14.626-2.516 2.6721-5.8428 4.4822-10.174 5.5189-3.6715 0.88294-12.398 1.9336-33.165 1.9336h-38.115c5.1858-17.901 26.949-93.039 30.011-103.61 9.7007 0.0023 36.485 0.0023 36.485 0.0023z"/><path id="k" d="m74.94 189.08 12.419-0.30518c8.0839-0.19569 13.274-1.2557 16.832-3.4362 4.1398-2.5277 7.0635-7.1218 9.1858-14.451l3.2778-11.317c1.2417-4.2842 3.8253-13.2-2.106-18.67-3.1683-2.9051-7.8672-4.0606-17.363-4.2819l-7.0053-0.16308z"/><path id="l" d="m90.255 136.2 16.527-0.29121c6.7397 0 11.667-1.5632 15.059-4.7804 2.9913-2.8352 5.3139-7.7997 8.0163-17.132 1.6913-5.8404 1.9196-9.9896 0.7385-13.444-1.4723-4.3192-4.7804-7.4922-9.074-8.7036-1.6634-0.46128-4.2633-0.9342-11.18-1.0157l-6.9237-0.08154z"/><path id="m" d="m195.88 69.8-66.064 140.01h65.591s4.3495-10.924 6.4065-16.091c-0.3611 1.9918-2.9191 16.091-2.9191 16.091h63.551l11.951-140.01zm58.696 18.202c-1.3186 15.436-7.7181 90.414-8.8434 103.61h-25.037c1.0018-5.5236 3.9488-21.778 3.9488-21.778h-32.913s-6.1899 15.555-8.6686 21.778h-24.531c9.3116-19.734 44.881-95.117 48.888-103.61h47.157z"/><path id="n" d="m195.7 153.8-4.9435 12.459h36.124l1.0856-7.8579c1.88-13.605 4.5708-30.772 8.0024-51.029l-17.218-5.3745c-10.954 23.439-18.709 40.867-23.05 51.802z"/><path id="o" d="m350.49 69.8s-4.5265 15.63-6.2644 21.633c-0.79907-5.258-3.2848-21.633-3.2848-21.633h-50.789l-40.555 140.01h55.46s4.2446-14.649 5.4887-18.949c0.41468 3.4619 2.2714 18.949 2.2714 18.949h52.578l40.555-140.01zm31.238 18.202c-5.1881 17.901-26.949 93.039-30.011 103.61h-22.749c-1.4071-11.73-5.675-47.357-5.675-47.357l-17.78-1.449s-11.18 38.6-14.136 48.806h-17.561c5.1858-17.901 26.947-93.039 30.011-103.61h21.463c1.7333 11.415 7.152 47.117 7.152 47.117l17.74 1.1648s11.036-38.101 13.983-48.282h17.563z"/><path id="p" d="m404.63 69.8-40.555 140.01h66.74c10.94 0 19.115-0.43797 24.995-1.3442 6.3017-0.96448 12.009-2.7304 16.958-5.2371 5.4956-2.7932 9.9709-6.735 13.307-11.706 3.0658-4.5708 6.1293-12.349 9.6424-24.468l12.356-42.658c4.7618-16.44 5.498-22.33 5.6354-25.333 0.28421-6.3227-1.9499-12.289-6.4578-17.253-4.2982-4.7269-10.756-7.9068-19.753-9.7216-7.6273-1.5422-21.894-2.29-43.62-2.29h-39.248zm39.25 18.202c25.177 0 35.66 1.0507 40.016 1.9313 6.784 1.3698 9.1742 3.3407 9.887 4.1235 1.4747 1.6261 1.7472 2.8748 1.7472 3.8905 0 0.0978 0 0.19336-5e-3 0.28887-0.0839 1.8032-0.83402 6.9424-4.9342 21.097l-12.356 42.658c-3.7904 13.09-6.1852 17.771-7.2755 19.397-1.6051 2.3949-3.7088 4.2283-6.4298 5.6121-3.2196 1.6331-7.0845 2.8026-11.485 3.4782-4.8899 0.75248-12.368 1.1346-22.23 1.1346h-42.516c5.1835-17.901 26.945-93.039 30.008-103.61h25.573z"/><path id="q" d="m441.97 90.839-28.368 97.934h12.112c8.7315 0 14.553-1.6494 18.339-5.1928 3.3221-3.1124 5.9988-8.7851 8.9482-18.966l13.64-47.096c2.4252-8.3658 2.7327-11.294 2.7047-13.211-0.0862-4.9552-2.8189-9.2208-7.3151-11.443-2.926-1.4281-6.8678-2.0291-13.225-2.0291h-6.8352z"/><path id="r" d="m521.48 69.8-40.557 140.01h62.379l40.552-140.01zm38.155 18.202c-5.1835 17.901-26.949 93.039-30.008 103.61h-24.478c5.1858-17.901 26.947-93.039 30.011-103.61h24.475z"/><path id="s" d="m574.69 69.8-12.326 42.565h25.747c-5.2254 18.043-28.221 97.449-28.221 97.449h62.376s24.916-86.022 28.224-97.449h26.136l12.324-42.565zm90.041 18.202c-0.8876 3.0751-1.081 3.7344-1.7845 6.1596h-26.134s-24.916 86.027-28.226 97.452h-24.475c5.2254-18.043 28.224-97.452 28.224-97.452h-25.752c0.89225-3.0728 1.0856-3.7321 1.7892-6.1596h76.359z"/><path id="t" d="m72.899 78.899h43.325c13.687 0 23.825 0.7781 30.425 2.3297 6.5999 1.5515 11.378 4.6873 14.344 9.4165 2.9656 4.7292 2.926 12.349-0.11648 22.859-2.0594 7.1054-5.0251 12.061-8.8993 14.863-3.8742 2.8049-10.539 4.9552-19.981 6.4555 9.5539 1.661 15.56 4.4124 18.025 8.254 2.4601 3.8486 2.5416 9.7403 0.24228 17.677l-3.2755 11.308c-2.3902 8.247-5.4491 14.358-9.1742 18.323-3.7321 3.9697-8.6267 6.6861-14.686 8.1398-6.0618 1.4584-17.824 2.1852-35.287 2.1852h-50.227zm24.075 66.812-9.8358 33.962c6.1573-0.15143 10.255-0.84567 12.301-2.099 2.0408-1.244 3.7787-4.3192 5.1998-9.2208l3.2778-11.317c1.505-5.1951 1.661-8.3448 0.46826-9.4444-1.1974-1.0996-4.9971-1.7263-11.411-1.88zm13.26-45.771-7.8067 26.947c1.8637-0.0466 3.3198-0.0745 4.3518-0.0745 4.2563 0 7.1916-0.7618 8.7968-2.2831s3.4526-5.8707 5.5353-13.058c1.0996-3.795 1.3861-6.4485 0.86896-7.9721-0.51951-1.5213-1.498-2.4788-2.9307-2.8841-1.4327-0.39837-4.3704-0.62435-8.8154-0.6756z" fill="#f2ff00"/><path id="u" d="m70.663 75.922-37.009 127.77h54.188c17.871 0 29.643-0.74083 35.984-2.2691 6.5976-1.5842 12.035-4.608 16.158-8.9925 4.0373-4.3005 7.357-10.87 9.8661-19.536l3.2755-11.308c1.1951-4.1258 1.7938-7.7531 1.7938-10.924 0-3.6529-0.79442-6.6954-2.3856-9.1835-1.6471-2.5673-4.445-4.6593-8.3658-6.339 3.993-1.2254 7.2103-2.6581 9.5562-4.3541 4.4077-3.1893 7.7764-8.7222 10.013-16.447 1.6238-5.6121 2.4368-10.455 2.4368-14.588 0-4.3145-0.88527-7.8533-2.6581-10.679-3.3826-5.3931-8.827-9.0064-16.184-10.735-6.8958-1.6191-17.072-2.4089-31.108-2.4089h-45.561zm45.561 5.9546c13.382 0 23.39 0.75714 29.745 2.2504 5.8568 1.3768 9.9476 4.028 12.503 8.1025 1.1695 1.8637 1.7542 4.3774 1.7542 7.5201 0 3.5271-0.73617 7.8463-2.2085 12.927-1.8591 6.4182-4.4776 10.886-7.7857 13.279-3.4735 2.5137-9.7659 4.5056-18.702 5.9243l-0.0443 5.873c10.777 1.8754 14.665 4.8037 16.03 6.9284 0.96448 1.5096 1.4467 3.5108 1.4467 5.9919 0 2.5743-0.51951 5.6657-1.5562 9.251l-3.2755 11.308c-2.2434 7.7508-5.0996 13.51-8.4869 17.116-3.3128 3.5248-7.7577 5.9732-13.209 7.2825-5.8008 1.3955-17.437 2.1013-34.593 2.1013h-46.265c2.0315-7.0099 32.396-111.84 33.559-115.86 4.0256 0.0047 41.088 0.0047 41.088 0.0047z" fill="#ed1c24"/><path id="v" d="m83.15 182.75 4.0629-0.10018c6.8492-0.16773 11.229-0.97379 13.782-2.537 2.7257-1.6634 4.855-5.2394 6.5044-10.931l3.2778-11.317c1.9429-6.7024 1.8311-10.43-0.37507-12.464-1.3698-1.2534-3.9301-2.4392-13.354-2.6628l-2.2924-0.0536-11.606 40.065zm16.037-33.973c4.622 0.22364 6.3833 0.70821 6.9796 0.9435 0.0163 0.12581 0.0326 0.27956 0.0326 0.52651 0 0.89225-0.1887 2.6698-1.1439 5.9616l-3.2778 11.317c-1.6308 5.6308-3.2638 7.1264-3.8905 7.5085-0.6989 0.43098-2.4764 1.0926-6.7257 1.449 1.675-5.7845 7.0402-24.303 8.0257-27.707z" fill="#ed1c24"/><path id="w" d="m98.446 129.93 8.3332-0.14444c5.0973 0 8.6453-1.0134 10.845-3.1008 1.4001-1.3256 3.385-4.1608 6.3483-14.39 1.3023-4.4962 1.5632-7.597 0.8247-9.7589-0.83868-2.4578-2.5463-4.1142-4.9389-4.7874-1.0973-0.30519-3.2685-0.71288-9.5912-0.78743l-2.2644-0.0256-9.5562 32.995zm14.006-26.959c3.6645 0.11415 5.244 0.3541 5.8008 0.50786 0.34246 0.0979 0.65697 0.23996 0.90857 0.97613 0.0303 0.0885 0.0955 0.34012 0.0955 0.86197 0 0.86663-0.18171 2.4764-1.0041 5.3209-2.6861 9.2697-4.2959 11.317-4.7245 11.725-0.46593 0.44031-2.0548 1.4677-6.749 1.4677 0 0-0.31451 5e-3 -0.37042 7e-3 1.4886-5.1369 5.1369-17.731 6.0431-20.867z" fill="#ed1c24"/><path id="x" d="m264.49 78.899-10.4 121.82h-44.291l3.9488-21.782h-15.842l-8.6686 21.782h-45.06l57.477-121.82zm-45.54 78.258c1.908-13.826 4.5918-30.926 8.0443-51.304-10.956 23.441-18.565 40.543-22.835 51.304z" fill="#f2ff00"/><path id="y" d="m199.77 75.922-60.287 127.77h51.777s7.42-18.644 8.6686-21.78h10.257c-0.89458 4.9389-3.9488 21.78-3.9488 21.78h50.591l10.907-127.77zm61.48 5.9546c-0.51019 5.9802-9.4584 110.8-9.8894 115.86h-37.997c0.89691-4.9365 3.9488-21.78 3.9488-21.78h-21.426s-7.4223 18.647-8.6686 21.78h-38.346c3.6808-7.7997 53.158-112.66 54.67-115.86h57.708z" fill="#ed1c24"/><path id="z" d="m201.39 156.06-1.6168 4.0746h21.766l0.3541-2.5696c1.887-13.666 4.5894-30.898 8.0303-51.213l-5.6308-1.7566c-10.903 23.327-18.609 40.641-22.903 51.464zm19.094-29.006c-1.6168 10.092-3.0006 19.182-4.1188 27.129h-7.7904c2.8794-6.968 6.8795-16.077 11.909-27.129z" fill="#ed1c24"/><path id="aa" d="m393.84 78.899-35.28 121.82h-37.663l-6.6372-55.378-16.04 55.378h-36.51l35.283-121.82h36.126l8.3262 54.852 15.886-54.852z" fill="#f2ff00"/><path id="ab" d="m355.1 75.922s-8.3541 28.843-12.741 43.986c-2.3227-15.303-6.6768-43.986-6.6768-43.986h-40.92l-37.007 127.77h42.71s8.0536-27.809 12.587-43.462c1.894 15.811 5.2068 43.462 5.2068 43.462h42.542l37.007-127.77zm34.784 5.9546c-2.0338 7.0123-32.394 111.84-33.556 115.86h-32.785c-0.57076-4.7595-6.3203-52.753-6.3203-52.753l-5.8148-0.47525s-14.267 49.258-15.418 53.228h-30.311c2.0315-7.0099 32.394-111.84 33.556-115.86h31.332c0.69656 4.6057 7.9418 52.322 7.9418 52.322l5.8032 0.38206s14.115-48.734 15.264-52.704h30.309z" fill="#ed1c24"/><path id="ac" d="m411.47 78.899h32.41c20.916 0 34.854 0.70356 41.82 2.1107 6.9633 1.4071 11.9 3.7158 14.814 6.9237 2.9144 3.2056 4.2796 6.7816 4.1025 10.716-0.17938 3.9394-1.9406 11.681-5.286 23.215l-12.354 42.658c-3.1683 10.935-5.9895 18.248-8.4613 21.936-2.4764 3.6902-5.7682 6.572-9.8638 8.6547-4.1025 2.0827-8.8504 3.5388-14.227 4.3611-5.3862 0.82936-13.256 1.2417-23.609 1.2417h-54.628zm37.335 21.041-23.094 79.732c6.1386 0 10.169-0.91323 12.114-2.735 1.9476-1.8218 4.0885-6.77 6.4322-14.856l13.64-47.094c1.5912-5.491 2.3669-9.0111 2.3483-10.556-0.0303-1.5469-0.78043-2.6814-2.2504-3.4083-1.477-0.71986-4.5428-1.0833-9.1905-1.0833z" fill="#f2ff00"/><path id="ad" d="m409.23 75.922-37.004 127.77h58.586c10.628 0 18.495-0.417 24.063-1.2743 5.6634-0.87129 10.751-2.4345 15.119-4.6476 4.5475-2.311 8.2446-5.5609 10.989-9.6564 2.6698-3.979 5.5655-11.422 8.8504-22.763l12.356-42.658c3.4386-11.872 5.1998-19.693 5.3932-23.907 0.21899-4.7362-1.4211-9.06-4.8713-12.855-3.385-3.7251-8.7595-6.2877-16.426-7.837-7.2289-1.4607-21.102-2.1712-42.411-2.1712h-34.644zm34.647 5.9546c20.62 0 34.493 0.68958 41.228 2.0501 6.2947 1.272 10.735 3.2941 13.204 6.0082 2.2458 2.4718 3.343 5.1043 3.343 8.035 0 0.17939-2e-3 0.3611-0.0116 0.54514-0.16774 3.6878-1.908 11.266-5.1695 22.521l-12.356 42.658c-3.0658 10.588-5.7845 17.691-8.0746 21.104-2.1736 3.2406-5.1113 5.8171-8.7362 7.6599-3.8066 1.929-8.2936 3.2988-13.333 4.0722-5.1928 0.79907-12.983 1.2068-23.159 1.2068h-50.665c2.0291-7.0099 32.394-111.84 33.554-115.86h30.176z" fill="#ed1c24"/><path id="ae" d="m446.57 96.963-24.82 85.687h3.9627c7.0775 0 11.574-1.1252 14.153-3.5411 1.505-1.4094 3.8998-4.6267 7.2545-16.2l13.638-47.094c2.2434-7.7484 2.4811-10.23 2.4671-11.425-0.0489-2.6744-1.4351-4.8131-3.9092-6.0361-1.2324-0.60105-3.6482-1.3931-10.511-1.3931h-2.2341zm4.4613 5.9895c4.0326 0.13046 5.3372 0.5894 5.6634 0.74782 0.56611 0.28189 0.57077 0.47059 0.5731 0.78509v0.0303c0 0.59872-0.22598 2.7304-2.2295 9.6448l-13.638 47.094c-2.9633 10.236-4.9062 12.86-5.6051 13.512-0.48457 0.45428-1.9895 1.3722-6.0688 1.7519 2.0245-6.9843 20.17-69.645 21.305-73.566z" fill="#ed1c24"/><path id="af" d="m571.75 78.899-35.285 121.82h-43.429l35.285-121.82z" fill="#f2ff00"/><path id="ag" d="m526.08 75.922-37.007 127.77h49.629l37.009-127.77zm41.705 5.9546c-2.0291 7.0123-32.394 111.84-33.554 115.86h-37.23c2.0291-7.0122 32.394-111.84 33.556-115.86h37.228z" fill="#ed1c24"/><path id="ah" d="m676.84 78.899-7.0518 24.364h-26.134l-28.228 97.452h-43.427l28.226-97.452h-25.752l7.0565-24.364z" fill="#f2ff00"/><path id="ai" d="m579.29 75.922-8.7781 30.318h25.747c-2.0338 7.0262-28.226 97.452-28.226 97.452h49.629s27.033-93.34 28.224-97.452h26.134l8.7828-30.318zm93.589 5.9546c-1.4071 4.8527-4.4729 15.448-5.3326 18.409h-26.134s-27.033 93.342-28.228 97.452h-37.226c2.0315-7.0262 28.221-97.452 28.221-97.452h-25.747c1.4071-4.8527 4.4729-15.448 5.3279-18.409h89.119z" fill="#ed1c24"/></g><g id="aj"><path id="ak" d="m259.24 222.89h20.482c11.907 0 20.934 0.53349 17.945 11.059l-1.3885 4.8853c-1.6913 5.9499-5.6494 9.2301-13.631 9.6098l-0.0443 0.15376c8.1678 0.37973 10.586 3.5853 8.8527 9.689l-5.4211 19.071h-17.356l5.8754-20.671c0.73617-2.5952 0.3378-4.7338-3.4968-4.7338-0.90856 0-1.4351 0.0769-2.1829 0.23296l-7.1567 25.174h-17.959l15.481-54.47zm12.044 20.825h1.4118c2.523 0 5.7426-0.68724 6.6325-3.8183l1.279-4.4986c0.88759-3.1264-1.9429-3.8136-4.466-3.8136h-1.4118z" fill="#f2ff00"/><path id="al" d="m257.84 221.02-16.538 58.188h21.829s6.5789-23.15 7.1986-25.323c0.35411-0.0396 0.73384-0.0792 0.73384-0.0792 1.1136 0 1.6774 0.22597 1.8218 0.41701 0.14677 0.19569 0.20501 0.82236-0.11415 1.9476l-6.5487 23.04h21.223l5.8055-20.424c0.4007-1.4094 0.60338-2.6931 0.60338-3.8532 0-1.7076-0.43797-3.1544-1.3116-4.3728-0.54514-0.75481-1.3093-1.3559-2.1782-1.8894 3.8859-1.7076 6.4066-4.7595 7.7065-9.3372l1.3885-4.8806c0.43564-1.5306 0.6523-2.919 0.6523-4.1724 0-1.9103-0.50321-3.5131-1.512-4.8503-3.0845-4.0839-10.066-4.41-18.873-4.41h-21.887zm21.887 3.7228c7.2149 0 13.859 0.22365 15.905 2.9284 0.50786 0.67094 0.76179 1.5446 0.76179 2.6348 0 0.89226-0.17006 1.9313-0.51019 3.1287l-1.3861 4.883c-1.5539 5.4677-5.1206 7.9371-11.93 8.2633l-0.0419 3.8696c3.6785 0.17006 6.0338 0.94118 7.0006 2.2831 0.40769 0.5661 0.6127 1.3023 0.6127 2.2202 0 0.79674-0.15376 1.7333-0.46361 2.8142 0 0-4.3728 15.385-5.0367 17.719h-13.489c1.0553-3.7135 5.2021-18.302 5.2021-18.302 0.24927-0.88526 0.37741-1.6843 0.37741-2.4065 0-1.1042-0.29121-2.0268-0.87362-2.8002-0.94817-1.2557-2.5626-1.894-4.7921-1.894l-3.809 0.39837-0.16541 1.1835s-6.0804 21.403-6.77 23.823h-14.092c1.1998-4.2237 13.724-48.291 14.423-50.744 2.4368-2e-3 19.078-2e-3 19.078-2e-3z" fill="#ed1c24"/><path id="am" d="m273.33 229.72-4.5055 15.849h3.8765c4.4822 0 7.4735-1.8334 8.4217-5.1672l1.279-4.4986c0.57076-2.0082 2e-3 -3.3407-0.57309-4.1002-1.0437-1.3838-2.9563-2.085-5.6797-2.085h-2.8189zm2.8189 3.7181c1.7845 0 2.5533 0.39604 2.714 0.60571 0.0396 0.0513 0.0582 0.1421 0.0582 0.26092 0 0.15142-0.0326 0.35177-0.0978 0.57775l-1.279 4.5009c-0.39604 1.3978-1.696 2.1712-3.767 2.3762 0.76412-2.6861 1.894-6.6698 2.3646-8.3192h7e-3z" fill="#ed1c24"/><path id="an" d="m303.51 238.6c2.4508-8.6197 8.2213-16.86 26.889-16.86 18.67 0 19.758 8.24 17.309 16.86l-6.5487 23.04c-2.4508 8.6174-8.2213 16.857-26.889 16.857-18.668 0-19.755-8.24-17.307-16.857zm10.849 27.159c-0.54281 1.9056-0.3145 3.583 2.5114 3.583s4.0093-1.6774 4.5521-3.583l8.8876-31.28c0.54281-1.9033 0.31218-3.583-2.5137-3.583s-4.007 1.6797-4.5498 3.583z" fill="#f2ff00"/><path id="ao" d="m301.72 238.09-6.5487 23.038c-1.654 5.8288-1.293 10.211 1.1112 13.389 2.968 3.9324 8.8527 5.8404 17.985 5.8404 21.067 0 26.456-10.393 28.678-18.209l6.5486-23.038c1.6564-5.8288 1.2953-10.209-1.1089-13.389-2.9703-3.9301-8.8527-5.8428-17.987-5.8428-21.065 0-26.456 10.395-28.678 18.211zm28.678-14.488c7.7787 0 12.829 1.4677 15.019 4.3658 1.675 2.2132 1.8334 5.4328 0.49854 10.125l-6.5486 23.038c-2.0524 7.2242-6.7583 15.511-25.1 15.511-7.7764 0-12.829-1.4723-15.017-4.3658-1.675-2.2155-1.8334-5.4328-0.49855-10.127l6.5463-23.038c2.0524-7.2219 6.7607-15.508 25.1-15.508z" fill="#ed1c24"/><path id="ap" d="m321.46 233.97-8.8876 31.276c-0.51718 1.8241-0.36809 3.2965 0.44496 4.3728 0.79441 1.0483 2.0897 1.5842 3.8556 1.5842 2.2504 0 5.1811-0.85498 6.3413-4.9365l8.8876-31.276c0.51951-1.8218 0.36808-3.2941-0.44497-4.3704-0.79208-1.0507-2.092-1.5865-3.8579-1.5865-2.2504 0-5.1788 0.85499-6.339 4.9365zm-5.3093 32.294 8.8876-31.276c0.45661-1.6075 1.2301-2.2341 2.7606-2.2341 0.57775 0 0.84566 0.0955 0.91089 0.13745-0.0256 7e-3 0.0326 0.30984-0.1887 1.0786l-8.8876 31.276c-0.45662 1.6075-1.2324 2.2341-2.763 2.2341-0.57543 0-0.84334-0.0932-0.9109-0.13745 0.0303-7e-3 -0.0279-0.30985 0.19104-1.0786z" fill="#ed1c24"/><path id="aq" d="m354.17 238.6c2.4508-8.6197 9.3303-16.86 27.294-16.86 13.619 0 19.159 5.7216 16.426 15.336l-2.1875 7.7042h-18.567l2.8841-10.143c0.51951-1.8334 1.0623-3.7368-2.2691-3.7368-2.12 0-3.3034 1.6797-3.8439 3.583l-8.8876 31.28c-0.54281 1.9057-0.31218 3.583 1.8055 3.583 3.3314 0 3.9161-2.0571 4.5871-4.424l3.1427-11.061h18.57l-2.5603 9.0041c-2.7327 9.6098-12.415 15.637-25.633 15.637-18.668 0-19.755-8.24-17.307-16.857z" fill="#f2ff00"/><path id="ar" d="m352.38 238.09-6.5463 23.038c-1.6564 5.8288-1.293 10.211 1.1112 13.389 2.968 3.9324 8.848 5.8404 17.985 5.8404 13.936 0 24.443-6.5067 27.422-16.988l3.2312-11.371h-22.435l-3.5271 12.412c-0.69191 2.4368-0.9505 3.0705-2.7979 3.0705 0 0-0.0932-7e-3 -0.17939-0.0186-9e-3 -0.0466-0.0186-0.0606-0.0186-0.13279 0-0.21899 0.0419-0.56843 0.18171-1.0646l8.8853-31.276c0.424-1.484 1.1159-2.2341 2.0571-2.2341 0.37507 0 0.62201 0.0326 0.77577 0.0606-0.0349 0.34712-0.18637 0.91788-0.29819 1.3046l-3.5527 12.517h22.432l2.5719-9.0577c1.3628-4.7921 0.88293-8.7711-1.4258-11.825-2.947-3.9022-8.5918-5.8777-16.787-5.8777-19.762 2e-3 -26.726 9.9057-29.086 18.213zm29.083-14.488c6.8655 0 11.644 1.5189 13.822 4.3984 0.94817 1.258 1.4211 2.8096 1.4211 4.6383 0 1.1928-0.20035 2.5044-0.60571 3.9301 0 0-1.2836 4.5149-1.8055 6.353h-14.698c0.79208-2.7816 2.2108-7.7764 2.2108-7.7764 0.20501-0.73151 0.45428-1.6075 0.45428-2.4904 0-0.72918-0.16773-1.463-0.66861-2.12-1.1276-1.4956-3.1706-1.4956-3.8439-1.4956-2.6884 0-4.7432 1.7985-5.6331 4.9365l-8.89 31.276c-0.54048 1.915-0.39837 3.4456 0.43332 4.5428 0.4869 0.64532 1.4327 1.4118 3.1637 1.4118 4.7338 0 5.6844-3.3384 6.3739-5.7729 0 0 2.1712-7.6296 2.763-9.7146h14.7c-0.73151 2.5719-1.887 6.6325-1.887 6.6325-2.509 8.8154-11.644 14.29-23.844 14.29-7.7787 0-12.832-1.4723-15.017-4.3658-1.675-2.2155-1.8334-5.4328-0.49855-10.127l6.5487-23.038c2.9214-10.292 11.499-15.508 25.5-15.508z" fill="#ed1c24"/><path id="as" d="m409.38 222.89h17.962l-6.0664 21.361h0.20035l14.444-21.361h17.656l-17.768 24.182 3.802 30.285h-19.776l-0.95982-23.953h-0.20035l-6.8096 23.953h-17.959z" fill="#f2ff00"/><path id="at" d="m434.93 221.02s-4.7874 7.0798-8.8434 13.074c1.5236-5.3559 3.7158-13.074 3.7158-13.074h-21.827l-16.538 58.188h21.829s2.311-8.1305 4.1864-14.726c0.2586 6.4275 0.59174 14.726 0.59174 14.726h23.674s-3.7997-30.239-3.9744-31.641c0.83401-1.1369 19.504-26.546 19.504-26.546zm14.973 3.7228c-3.3547 4.5615-16.033 21.815-16.033 21.815s3.173 25.305 3.6342 28.93h-15.884c-0.12114-3.0588-0.96214-23.953-0.96214-23.953h-3.392s-6.1246 21.547-6.8072 23.953h-14.094c1.1998-4.2237 13.724-48.291 14.423-50.744h14.09c-1.0623 3.7438-6.0664 21.358-6.0664 21.358h3.6506s13.423-19.849 14.444-21.358h12.997z" fill="#ed1c24"/></g></g>
</svg>
