<svg id="a" version="1.1" viewBox="0 0 500.01 500" xmlns="http://www.w3.org/2000/svg">
 <path id="b" d="m0 500h500v-153h-500z" stroke-width=".5"/>
 <g id="c" transform="matrix(10.825 0 0 -10.825 178.37 444.84)">
  <path id="d" d="m-0.15927 0h-2.7707c-0.083 0-0.099 0.033-0.099 0.1v3.941c0 0.066 0.016 0.1 0.099 0.1h2.7707c1.742 0 2.439-0.498 2.439-2.066 0-1.569-0.697-2.075-2.439-2.075m2.422 5.344h-9.1927c-0.083 0-0.125-0.05-0.125-0.124v-6.299c0-0.075 0.042-0.124 0.125-0.124h9.1927c2.746 0 4.133 0.912 4.133 3.294 0 2.365-1.387 3.253-4.133 3.253" fill="#fff"/>
 </g>
 <g id="e" transform="matrix(10.825 0 0 -10.825 345.44 426.61)">
  <path id="f" d="m-0.34786 0h-3.1418c-0.075 0-0.1 0.025-0.1 0.099v2.258c0 0.074 0.025 0.099 0.1 0.099h3.1418c1.096 0 1.56-0.299 1.56-1.203 0-0.913-0.464-1.253-1.56-1.253m5.7599-2.622-2.705 1.908c-0.067 0.05-0.108 0.075-0.108 0.108s0.025 0.05 0.083 0.05c1.369 0 2.431 0.639 2.431 2.049 0 1.403-0.913 2.166-2.597 2.166h-10.007c-0.083 0-0.125-0.049-0.125-0.124v-6.298c0-0.075 0.042-0.125 0.125-0.125h3.771c0.083 0 0.125 0.05 0.125 0.125v1.493c0 0.075 0.024 0.1 0.099 0.1h2.0567c0.108 0 0.15-8e-3 0.224-0.067l1.8277-1.559c0.092-0.075 0.158-0.092 0.265-0.092h4.6173c0.067 0 0.1 0.025 0.1 0.075 0 0.066-0.117 0.141-0.183 0.191" fill="#fff"/>
 </g>
 <path id="g" d="m0 0h500.01v347h-500.01z" fill="#732d8c" stroke-width="13.889"/>
 <g id="h" transform="translate(-4.8231e-6 -472.67)" fill="#fff">
  <path id="i" d="m187.35 536.96h-53.337c-1.2936 0-1.8708 0.93539-1.8708 2.428l-0.0298 127.03c0 1.3235 0.93539 1.8708 2.438 1.8708h32.938c1.4926 0 2.438-0.69657 2.438-2.239v-32.092c0-2.02 0.63686-2.6669 2.4479-2.6669h15.026c37.615-0.19902 58.213-17.086 58.213-47.466 0-30.351-20.599-46.869-58.213-46.869zm-1.6917 63.239h-13.334c-1.5922 0-2.4081-0.71647-2.4081-2.4181v-26.529c0-1.6121 0.69657-2.4081 2.4081-2.4081h13.334c18.907 0 22.459 9.5728 22.459 15.394 0 5.8213-3.5426 15.961-22.459 15.961zm111.33-23.454c0 7.4632 6.3388 14.16 16.757 14.16 10.429 0 16.757-6.707 16.757-14.15 0-7.4433-6.1398-14.479-16.757-14.479-10.618 0-16.757 7.0652-16.757 14.528m-1.2936 48.939c0 7.6324 6.697 15.076 18.011 15.076 11.374 0 18.061-7.4433 18.061-15.066 0-7.6324-6.5478-15.245-18.091-15.245-11.523 0-18.031 7.6324-18.031 15.265m67.766-51.914c0 15.852-10.031 23.882-14.727 25.932-0.22887 0.0995-0.22887 0.39803 0.0299 0.49754 5.2143 1.8111 19.176 12.26 19.176 26.768 0 24.728-20.459 42.61-54.133 42.61-33.694 0-54.133-17.882-54.133-42.62 0-14.578 14.071-25.076 19.245-26.798 0.22887-0.0995 0.23882-0.33834 0.0199-0.4279-4.7964-1.9902-14.986-10.021-14.986-26.012 0-19.703 21.016-38.142 49.854-38.142 28.818 0 49.655 18.439 49.655 38.162" stroke-width="9.951"/>
  <g id="j" transform="matrix(5.1632 0 0 5.1632 113.51 660.6)">
   <path id="k" d="m8.126 5.624c0-0.13 0.094-0.223 0.243-0.223h3.27c0.15 0 0.24 0.06 0.24 0.19v8.496c0 2.733-1.488 4.52-4.35 4.52-1.608 0-3.447-0.486-3.87-0.743-0.037-0.02-0.056-0.065-0.056-0.11v-2.9c0.02-0.242 0.13-0.187 0.28-0.13 0.26 0.13 1.84 0.632 2.677 0.632 1.06 0 1.563-0.835 1.563-2.1v-7.63zm12.854 7.826c-0.502-1.748-1.135-3.55-1.785-5.057-0.63 1.506-1.283 3.31-1.785 5.057zm1.413 4.964c-0.242 0-0.394-0.033-0.408-0.186-0.056-0.56-0.15-1.19-0.28-1.88h-5c-0.132 0.69-0.247 1.32-0.28 1.88-7e-3 0.146-0.166 0.186-0.406 0.186h-2.94c-0.136 0-0.228-0.094-0.228-0.242v-0.148c0.262-3.438 2.398-10.15 3.922-12.438 0.095-0.13 0.205-0.186 0.315-0.186h4.222c0.112 0 0.224 0.056 0.315 0.186 1.523 2.287 3.662 9 3.922 12.438v0.148c0 0.148-0.095 0.242-0.225 0.242h-2.932zm14.517-13.014c0.148 0 0.224 0.093 0.224 0.242v2.528c0 0.223-0.094 0.298-0.167 0.39l-5.523 6.693h5.65c0.148 0 0.223 0.095 0.223 0.242v2.678c0 0.147-0.057 0.24-0.187 0.24h-10.187c-0.133 0-0.227-0.093-0.227-0.24v-2.103c0-0.223 0.02-0.334 0.112-0.444l5.77-7.064h-5.95c-0.15 0-0.225-0.075-0.225-0.242v-2.676c0-0.15 0.057-0.242 0.188-0.242l10.3-2e-3zm12.135 0c0.148 0 0.223 0.093 0.223 0.242v2.528c0 0.223-0.093 0.298-0.166 0.39l-5.728 6.693h5.65c0.148 0 0.224 0.095 0.224 0.242v2.678c0 0.147-0.055 0.24-0.184 0.24h-10.188c-0.13 0-0.224-0.093-0.224-0.24v-2.103c0-0.223 0.018-0.334 0.108-0.444l5.972-7.064h-5.486c-0.146 0-0.223-0.075-0.223-0.242v-2.676c0-0.15 0.056-0.242 0.186-0.242l9.831-2e-3z" fill="#fff"/>
  </g>
 </g>
</svg>
