<svg id="a" version="1.1" viewBox="0 0 500 500" xmlns="http://www.w3.org/2000/svg">
 <path id="b" d="m2e-6 500h500v-153h-500z" stroke-width=".5"/>
 <g id="c" transform="matrix(10.824 0 0 -10.824 178.36 444.85)">
  <path id="d" d="m-0.15927 0h-2.7707c-0.083 0-0.099 0.033-0.099 0.1v3.941c0 0.066 0.016 0.1 0.099 0.1h2.7707c1.742 0 2.439-0.498 2.439-2.066 0-1.569-0.697-2.075-2.439-2.075m2.422 5.344h-9.1927c-0.083 0-0.125-0.05-0.125-0.124v-6.299c0-0.075 0.042-0.124 0.125-0.124h9.1927c2.746 0 4.133 0.912 4.133 3.294 0 2.365-1.387 3.253-4.133 3.253" fill="#fff"/>
 </g>
 <g id="e" transform="matrix(10.824 0 0 -10.824 345.43 426.62)">
  <path id="f" d="m-0.34786 0h-3.1418c-0.075 0-0.1 0.025-0.1 0.099v2.258c0 0.074 0.025 0.099 0.1 0.099h3.1418c1.096 0 1.56-0.299 1.56-1.203 0-0.913-0.464-1.253-1.56-1.253m5.7599-2.622-2.705 1.908c-0.067 0.05-0.108 0.075-0.108 0.108s0.025 0.05 0.083 0.05c1.369 0 2.431 0.639 2.431 2.049 0 1.403-0.913 2.166-2.597 2.166h-10.007c-0.083 0-0.125-0.049-0.125-0.124v-6.298c0-0.075 0.042-0.125 0.125-0.125h3.771c0.083 0 0.125 0.05 0.125 0.125v1.493c0 0.075 0.024 0.1 0.099 0.1h2.0567c0.108 0 0.15-8e-3 0.224-0.067l1.8277-1.559c0.092-0.075 0.158-0.092 0.265-0.092h4.6173c0.067 0 0.1 0.025 0.1 0.075 0 0.066-0.117 0.141-0.183 0.191" fill="#fff"/>
 </g>
 <path id="g" d="m0 0h500v347h-500z" fill="#ff6400" stroke-width="13.889"/>
 <path id="h" d="m350.72 211.81c0 2.0236 0.87932 2.915 2.8909 2.915h32.342c1.9995 0 2.8909 0.91545 2.8909 2.9391v32.643c0 1.59-0.89137 2.6982-2.8909 2.6982h-120.9c-1.7586 0-2.6982-1.1082-2.6982-2.6861v-32.643c0-2.0477 0.9034-2.9511 2.6982-2.9511h38.377c1.7827 0 2.915-0.89137 2.915-2.915v-72.068c0-1.8068-1.1323-1.8068-1.5659-1.8068-14.936 1.3491-27.247 4.2641-34.125 6.083-1.1443 0.24091-1.7707 0.24091-2.2525 0.24091-1.1443 0-1.325-0.48182-1.325-2.0477v-36.715c0-1.5659 0.87932-2.0236 2.4332-2.4814 15.382-4.0473 38.136-9.01 78.295-9.01 1.9995 0 2.8909 1.1323 2.8909 2.927v114.88zm-172.65-117.8h-64.564c-1.5659 0-2.2645 1.1443-2.2645 2.9511l-0.0843 153.78c0 1.602 1.1323 2.2646 2.9511 2.2646h39.87c1.8068 0 2.9511-0.86727 2.9511-2.7223v-38.835c0-2.4573 0.77091-3.2282 2.9632-3.2282h18.128c45.532-0.24091 70.466-20.682 70.466-57.457 0-36.763-24.934-56.734-70.466-56.734zm-2.0477 76.561h-16.141c-1.9273 0-2.915-0.86727-2.915-2.927v-32.113c0-1.9514 0.84318-2.915 2.915-2.915h16.141c22.886 0 27.187 11.588 27.187 18.634 0 7.0466-4.2882 19.321-27.187 19.321z" fill="#fff" stroke-width="12.045"/>
</svg>
