<svg version="1.1" viewBox="0 0 500.01 500" xmlns="http://www.w3.org/2000/svg">
 <path d="m4e-3 500h500v-153h-500z" stroke-width=".5"/>
 <g transform="matrix(10.825 0 0 -10.825 178.37 444.85)">
  <path d="m-0.15927 0h-2.7707c-0.083 0-0.099 0.033-0.099 0.1v3.941c0 0.066 0.016 0.1 0.099 0.1h2.7707c1.742 0 2.439-0.498 2.439-2.066 0-1.569-0.697-2.075-2.439-2.075m2.422 5.344h-9.1927c-0.083 0-0.125-0.05-0.125-0.124v-6.299c0-0.075 0.042-0.124 0.125-0.124h9.1927c2.746 0 4.133 0.912 4.133 3.294 0 2.365-1.387 3.253-4.133 3.253" fill="#fff"/>
 </g>
 <g transform="matrix(10.825 0 0 -10.825 345.44 426.62)">
  <path d="m-0.34786 0h-3.1418c-0.075 0-0.1 0.025-0.1 0.099v2.258c0 0.074 0.025 0.099 0.1 0.099h3.1418c1.096 0 1.56-0.299 1.56-1.203 0-0.913-0.464-1.253-1.56-1.253m5.7599-2.622-2.705 1.908c-0.067 0.05-0.108 0.075-0.108 0.108s0.025 0.05 0.083 0.05c1.369 0 2.431 0.639 2.431 2.049 0 1.403-0.913 2.166-2.597 2.166h-10.007c-0.083 0-0.125-0.049-0.125-0.124v-6.298c0-0.075 0.042-0.125 0.125-0.125h3.771c0.083 0 0.125 0.05 0.125 0.125v1.493c0 0.075 0.024 0.1 0.099 0.1h2.0567c0.108 0 0.15-8e-3 0.224-0.067l1.8277-1.559c0.092-0.075 0.158-0.092 0.265-0.092h4.6173c0.067 0 0.1 0.025 0.1 0.075 0 0.066-0.117 0.141-0.183 0.191" fill="#fff"/>
 </g>
 <path d="m0 0h500.01v347h-500.01z" fill="#504b50" stroke-width="13.889"/>
 <g transform="translate(.004 -473.17)" fill="#fff">
  <path d="m189.84 537.03h-53.701c-1.3024 0-1.8835 0.94177-1.8835 2.4446l-0.03 127.9c0 1.3325 0.94177 1.8835 2.4546 1.8835h33.162c1.5028 0 2.4546-0.70132 2.4546-2.2542v-32.311c0-2.0338 0.6412-2.685 2.4646-2.685h15.128c37.871-0.20038 58.61-17.232 58.61-47.79s-20.739-47.189-58.61-47.189zm-1.7032 63.67h-13.425c-1.603 0-2.4246-0.72136-2.4246-2.4346v-26.71c0-1.623 0.70132-2.4246 2.4246-2.4246h13.425c19.036 0 22.613 9.6381 22.613 15.499 0 5.861-3.5667 16.07-22.613 16.07zm143.03 21.17c0-7.8548-6.933-15.93-18.164-15.93-11.291 0-18.204 8.0752-18.204 15.93s6.7326 16.311 18.164 16.311c11.401 0 18.154-8.4359 18.154-16.301m34.665 1.7032c0 27.151-23.815 46.087-54.162 46.087s-52.829-25.648-52.829-53.2c0-31.98 26.81-63.82 42.279-78.498 0.83156-0.80151 1.7333-1.3024 3.4765-1.3024h36.318c2.2643 0 2.8053 1.6731 1.7032 2.8053-16.431 14.427-32.481 34.765-37.17 42.109-0.20037 0.28053 0.03 0.44083 0.36068 0.28053 2.5248-1.3525 6.9831-2.675 11.291-2.675 25.087 0 48.692 17.232 48.692 44.403" stroke-width="10.019"/>
  <g transform="matrix(6.5725 0 0 6.5725 108.39 634.37)">
   <path d="m10.641 13.624c0.79853-0.23336 1.3477-0.9772 1.3477-1.9938 0-1.8012-1.6627-2.6545-4.0007-2.6545h-3.8898c-0.11085 0-0.16773 0.069279-0.16773 0.16627v9.2834c0 0.10939 0.070008 0.17721 0.16627 0.17721h4.1677c2.3642 0 4.0014-1.0013 4.0014-2.8441 0-1.072-0.79999-1.9938-1.6248-2.1316zm-3.9598-2.5845h1.2791c0.83864 0 1.2776 0.38432 1.2776 0.9349 0 0.54913-0.43901 0.90646-1.3054 0.90646h-1.2514zm1.457 5.4986h-1.4585v-1.8961h1.4585c0.96261 0 1.3754 0.35733 1.3754 0.90792 0 0.55058-0.41203 0.98959-1.3754 0.98959zm12.546-7.5623c0.10939 0 0.16627 0.069279 0.16627 0.17867v1.8705c0 0.10939-0.04376 0.17867-0.13856 0.17867h-4.5666v1.4848h3.7958c0.11085 0 0.16627 0.07147 0.16627 0.18231v1.8158c0 0.10793-0.0423 0.17721-0.13856 0.17721h-3.8213v1.5132h4.3996c0.11085 0 0.16627 0.06928 0.16627 0.1794v1.8698c0 0.10939-0.04084 0.17794-0.1371 0.17794h-7.0271c-0.10939 0-0.17867-0.05834-0.17867-0.15606v-9.3074c0-0.096261 0.07001-0.16481 0.17867-0.16481zm6.925 5.9558c-0.37192-1.2937-0.83864-2.6282-1.3214-3.7411-0.46672 1.1136-0.94803 2.4474-1.3199 3.7411zm1.045 3.671c-0.1794 0-0.2917-0.03209-0.30337-0.13418-0.04084-0.41276-0.10939-0.88021-0.20565-1.3885h-3.6988c-0.09772 0.50829-0.17502 0.9772-0.20565 1.3885-0.0073 0.10574-0.12397 0.1371-0.29899 0.1371h-2.1732c-0.09699 0-0.16627-0.06782-0.16627-0.17648v-0.10939c0.19398-2.5429 1.775-7.5091 2.9024-9.2002 0.06855-0.094803 0.15023-0.13637 0.23336-0.13637h3.1212c0.08168 0 0.16481 0.040109 0.23336 0.13637 1.1303 1.6919 2.7092 6.6581 2.9024 9.2002v0.10939c0 0.10939-0.07001 0.17867-0.16627 0.17867h-2.1703zm10.341-9.6261c0.11085 0 0.16627 0.070737 0.16627 0.18012v1.9923c0 0.11085-0.03792 0.17867-0.13418 0.17867h-2.8732v7.1102c0 0.10939-0.06855 0.16481-0.1794 0.16481h-2.4211c-0.10939 0-0.17867-0.03792-0.17867-0.13418v-7.1394h-2.8485c-0.09772 0-0.16627-0.06709-0.16627-0.17721v-1.996c0-0.10939 0.0423-0.17794 0.13856-0.17794h8.4958z" fill="#fff" stroke-width=".72925"/>
  </g>
 </g>
</svg>
