<svg id="a" version="1.1" viewBox="0 0 500 500" xmlns="http://www.w3.org/2000/svg">
 <path id="b" d="m2e-6 500h500v-153h-500z" stroke-width=".5"/>
 <g id="c" transform="matrix(10.824 0 0 -10.824 178.36 444.85)">
  <path id="d" d="m-0.15927 0h-2.7707c-0.083 0-0.099 0.033-0.099 0.1v3.941c0 0.066 0.016 0.1 0.099 0.1h2.7707c1.742 0 2.439-0.498 2.439-2.066 0-1.569-0.697-2.075-2.439-2.075m2.422 5.344h-9.1927c-0.083 0-0.125-0.05-0.125-0.124v-6.299c0-0.075 0.042-0.124 0.125-0.124h9.1927c2.746 0 4.133 0.912 4.133 3.294 0 2.365-1.387 3.253-4.133 3.253" fill="#fff"/>
 </g>
 <g id="e" transform="matrix(10.824 0 0 -10.824 345.43 426.62)">
  <path id="f" d="m-0.34786 0h-3.1418c-0.075 0-0.1 0.025-0.1 0.099v2.258c0 0.074 0.025 0.099 0.1 0.099h3.1418c1.096 0 1.56-0.299 1.56-1.203 0-0.913-0.464-1.253-1.56-1.253m5.7599-2.622-2.705 1.908c-0.067 0.05-0.108 0.075-0.108 0.108s0.025 0.05 0.083 0.05c1.369 0 2.431 0.639 2.431 2.049 0 1.403-0.913 2.166-2.597 2.166h-10.007c-0.083 0-0.125-0.049-0.125-0.124v-6.298c0-0.075 0.042-0.125 0.125-0.125h3.771c0.083 0 0.125 0.05 0.125 0.125v1.493c0 0.075 0.024 0.1 0.099 0.1h2.0567c0.108 0 0.15-8e-3 0.224-0.067l1.8277-1.559c0.092-0.075 0.158-0.092 0.265-0.092h4.6173c0.067 0 0.1 0.025 0.1 0.075 0 0.066-0.117 0.141-0.183 0.191" fill="#fff"/>
 </g>
 <path id="g" d="m0 0h500v347h-500z" fill="#0032a0" stroke-width="13.889"/>
 <path id="h" d="m264.07 223.23c0-1.3718 0.44894-1.8457 1.1722-2.3445l58.612-48.948c15.114-12.471 21.599-18.008 21.599-27.012 0-8.7295-7.9314-13.094-22.323-13.094-21.163 0-44.645 10.139-53.499 14.541-0.91036 0.46142-1.1598 0.46142-1.6212 0.46142-1.1847 0-1.4092-0.68589-1.4092-2.0701v-37.412c0-1.3718 0.74824-1.8706 1.6711-2.3071 5.2876-3.4294 26.712-14.042 58.114-14.042 45.556 0 66.032 23.782 66.032 48.262 0 24.692-10.226 35.317-34.881 56.093l-22.572 18.706c-0.74824 0.47389-0.94777 0.91036-0.94777 1.3718 0 0.49883 0.24941 0.71083 1.3718 0.71083h56.305c2.0826 0 3.2673 0.92283 3.2673 2.993v33.496c0 2.0701-1.1972 2.993-3.2923 2.993h-124.63c-1.8457 0-2.993-0.92284-2.993-2.993v-29.406zm-89.814-131.82-66.818-0.0249c-1.6461 0-2.3694 1.1847-2.3694 3.0553l-0.0249 159.21c0 1.6586 1.1722 2.3445 3.0553 2.3445h41.278c1.8706 0 3.0553-0.89789 3.0553-2.8059v-40.218c0-2.5316 0.79813-3.3422 3.0678-3.3422h18.756c47.139-0.24942 72.954-21.412 72.954-59.485 0-38.061-25.814-58.737-72.954-58.737zm-2.12 79.239h-16.711c-1.9953 0-2.993-0.89789-2.993-3.0304v-33.185c0-2.0202 0.87295-3.0179 2.993-3.0179h16.711c23.694 0 28.159 11.997 28.159 19.292 0 7.2954-4.452 20.015-28.146 20.015z" fill="#fff" stroke-width="12.471"/>
</svg>
