<svg id="a" version="1.1" viewBox="0 0 500.01 500" xmlns="http://www.w3.org/2000/svg">
 <path id="b" d="m2e-6 500h500v-153h-500z" stroke-width=".5"/>
 <g id="c" transform="matrix(10.825 0 0 -10.825 178.37 444.84)">
  <path id="d" d="m-0.15927 0h-2.7707c-0.083 0-0.099 0.033-0.099 0.1v3.941c0 0.066 0.016 0.1 0.099 0.1h2.7707c1.742 0 2.439-0.498 2.439-2.066 0-1.569-0.697-2.075-2.439-2.075m2.422 5.344h-9.1927c-0.083 0-0.125-0.05-0.125-0.124v-6.299c0-0.075 0.042-0.124 0.125-0.124h9.1927c2.746 0 4.133 0.912 4.133 3.294 0 2.365-1.387 3.253-4.133 3.253" fill="#fff"/>
 </g>
 <g id="e" transform="matrix(10.825 0 0 -10.825 345.44 426.61)">
  <path id="f" d="m-0.34786 0h-3.1418c-0.075 0-0.1 0.025-0.1 0.099v2.258c0 0.074 0.025 0.099 0.1 0.099h3.1418c1.096 0 1.56-0.299 1.56-1.203 0-0.913-0.464-1.253-1.56-1.253m5.7599-2.622-2.705 1.908c-0.067 0.05-0.108 0.075-0.108 0.108s0.025 0.05 0.083 0.05c1.369 0 2.431 0.639 2.431 2.049 0 1.403-0.913 2.166-2.597 2.166h-10.007c-0.083 0-0.125-0.049-0.125-0.124v-6.298c0-0.075 0.042-0.125 0.125-0.125h3.771c0.083 0 0.125 0.05 0.125 0.125v1.493c0 0.075 0.024 0.1 0.099 0.1h2.0567c0.108 0 0.15-8e-3 0.224-0.067l1.8277-1.559c0.092-0.075 0.158-0.092 0.265-0.092h4.6173c0.067 0 0.1 0.025 0.1 0.075 0 0.066-0.117 0.141-0.183 0.191" fill="#fff"/>
 </g>
 <path id="g" d="m0 0h500.01v347h-500.01z" fill="#8ca0a0" stroke-width="13.889"/>
 <path id="h" d="m266.19 94.482c0-2.0748 0.94424-2.9818 3.0315-2.9818h117.01c2.5221 0 2.9818 0.90697 2.9818 2.9818v31.843c0 1.6152-0.24848 2.7582-1.6152 3.9136l-27.582 25.37c-0.24848 0.24848-0.45969 0.68333-0.45969 0.93182 0 0.4597 0.24848 0.68335 0.91939 0.9194 21.817 6.2121 33.632 19.556 33.632 43.547 0 39.671-38.677 54.455-72.085 54.455-25.47 0-50.977-7.5788-57.201-11.281-0.89455-0.45969-1.1679-1.1927-1.1679-2.3358v-37.372c0-0.44727 0.2485-1.1554 0.94425-1.1554 0.24849 0 0.91939 0.24848 1.6152 0.47211 6.4606 2.7955 32.887 11.555 53.76 11.555 23.407 0 27.793-11.989 27.793-17.319 0-9.9021-5.3673-18.214-30.601-18.214h-9.4797c-1.6152 0-2.547-0.70819-2.547-2.3233v-14.039c0-1.1555 0-1.6152 0.93181-2.5346l29.694-29.073c0.24849-0.24848 0.24849-0.45969 0.24849-0.68333 0 0-0.24849-0.41-0.94425-0.41h-65.799c-1.3667 0-3.0191-0.47212-3.0191-3.0067v-33.173zm-91.343-2.9818h-66.557c-1.64 0-2.3606 1.1679-2.3606 3.0315l-0.0373 158.61c0 1.6648 1.1679 2.3606 3.0439 2.3606h41.124c1.8636 0 3.0439-0.90697 3.0439-2.8203v-40.068c0-2.5221 0.79516-3.3173 3.0564-3.3173h18.686c46.964-0.24848 72.682-21.283 72.682-59.264 0-37.894-25.718-58.518-72.682-58.518zm-2.1121 78.956h-16.648c-1.9879 0-2.9818-0.89455-2.9818-3.0191v-33.123c0-2.0127 0.8697-3.0067 2.9818-3.0067h16.648c23.606 0 28.054 11.952 28.054 19.22s-4.4355 19.978-28.042 19.978z" fill="#fff" stroke-width="12.424"/>
</svg>
