<svg id="a" version="1.1" viewBox="0 0 500 500" xmlns="http://www.w3.org/2000/svg">
 <path id="b" d="m2e-6 500h500v-153h-500z" stroke-width=".5"/>
 <g id="c" transform="matrix(10.824 0 0 -10.824 178.36 444.85)">
  <path id="d" d="m-0.15927 0h-2.7707c-0.083 0-0.099 0.033-0.099 0.1v3.941c0 0.066 0.016 0.1 0.099 0.1h2.7707c1.742 0 2.439-0.498 2.439-2.066 0-1.569-0.697-2.075-2.439-2.075m2.422 5.344h-9.1927c-0.083 0-0.125-0.05-0.125-0.124v-6.299c0-0.075 0.042-0.124 0.125-0.124h9.1927c2.746 0 4.133 0.912 4.133 3.294 0 2.365-1.387 3.253-4.133 3.253" fill="#fff"/>
 </g>
 <g id="e" transform="matrix(10.824 0 0 -10.824 345.43 426.62)">
  <path id="f" d="m-0.34786 0h-3.1418c-0.075 0-0.1 0.025-0.1 0.099v2.258c0 0.074 0.025 0.099 0.1 0.099h3.1418c1.096 0 1.56-0.299 1.56-1.203 0-0.913-0.464-1.253-1.56-1.253m5.7599-2.622-2.705 1.908c-0.067 0.05-0.108 0.075-0.108 0.108s0.025 0.05 0.083 0.05c1.369 0 2.431 0.639 2.431 2.049 0 1.403-0.913 2.166-2.597 2.166h-10.007c-0.083 0-0.125-0.049-0.125-0.124v-6.298c0-0.075 0.042-0.125 0.125-0.125h3.771c0.083 0 0.125 0.05 0.125 0.125v1.493c0 0.075 0.024 0.1 0.099 0.1h2.0567c0.108 0 0.15-8e-3 0.224-0.067l1.8277-1.559c0.092-0.075 0.158-0.092 0.265-0.092h4.6173c0.067 0 0.1 0.025 0.1 0.075 0 0.066-0.117 0.141-0.183 0.191" fill="#fff"/>
 </g>
 <path id="g" d="m0 0h500v347h-500z" fill="#d2005a" stroke-width="13.889"/>
 <path id="h" d="m177.22 92.614h-65.705c-1.5936 0-2.3046 1.1523-2.3046 2.991l-0.0368 156.49c0 1.6304 1.1523 2.3046 3.0033 2.3046h40.575c1.8388 0 3.0033-0.8581 3.0033-2.7581v-39.533c0-2.4885 0.78454-3.2852 3.0156-3.2852h18.51c46.337-0.24517 71.712-21.048 71.712-58.473 0-37.388-25.375-57.737-71.712-57.737zm-2.0839 77.902h-16.426c-1.9614 0-2.9665-0.88261-2.9665-2.9788v-32.681c0-1.9859 0.85808-2.9665 2.9665-2.9665h16.426c23.291 0 27.667 11.793 27.667 18.964 0 7.1712-4.364 19.662-27.667 19.662zm96.302-78.515h109.34c2.5375 0 2.991 0.90712 2.991 2.9788v31.627c0 1.6181 0.22066 3.9227-1.6304 3.9227l-67.139-0.0368c-2.513 0-3.2852 0.7355-3.2852 3.1136v14.71c0 1.3484 0.1471 1.6426 0.90712 1.6181 3.3098-0.12259 10.027-0.39227 14.22-0.39227 34.838 0 63.989 16.512 63.989 48.139 0 37.388-29.604 57.32-64.442 57.32-27.778 0-52.748-7.6002-58.963-11.278-0.85809-0.45357-1.14-1.1523-1.14-2.3046v-35.929c0-0.49034 0.24516-1.1891 0.90712-1.1891 0.24517 0 0.90712 0.24516 1.5936 0.45355 6.4234 2.7827 32.571 11.474 51.829 11.474 15.151 0 25.252-5.4795 25.252-16.524 0-10.984-10.971-16.953-43.309-16.953-12.553 0-28.623 0.69873-30.683 0.69873-1.5936 0-3.4324-1.3484-3.4324-2.9665v-85.49c0.0491-2.0839 0.95615-2.991 3.0401-2.991" fill="#fff" stroke-width="12.258"/>
</svg>
