<?xml version="1.0" encoding="UTF-8"?>
<svg id="Layer_1" width="778.67" height="113.22" enable-background="new 0 0 581.102 581.102" version="1.1" viewBox="0 0 778.67 113.22" xml:space="preserve" xmlns="http://www.w3.org/2000/svg" xmlns:cc="http://creativecommons.org/ns#" xmlns:dc="http://purl.org/dc/elements/1.1/" xmlns:rdf="http://www.w3.org/1999/02/22-rdf-syntax-ns#"><metadata id="metadata246"><rdf:RDF><cc:Work rdf:about=""><dc:format>image/svg+xml</dc:format><dc:type rdf:resource="http://purl.org/dc/dcmitype/StillImage"/><dc:title/></cc:Work></rdf:RDF></metadata>
<g id="g1248"><path id="path308" d="m320.35 98.046c0 8.0038-6.4767 14.428-14.428 14.428h-119.69c-7.9511 0-14.375-6.4241-14.375-14.428v-83.618c0-7.9511 6.4241-14.428 14.375-14.428h119.69c7.9511 0 14.428 6.4709 14.428 14.428v83.618" fill="#367539"/><path id="path310" d="m172.33 14.375c0-7.8517 6.582-14.165 14.375-14.165h118.74c7.7932 0 14.375 6.3129 14.375 14.165l0.26328 17.687v65.873c0 7.9043-6.4767 14.323-14.375 14.323h-119.27c-6.5821 0-12.111-4.4231-13.796-10.479-0.3686-1.2111-0.52657-2.5743-0.52657-3.9492v-64.978l0.21063-18.477" fill="#377739"/><path id="path312" d="m172.81 14.264c0-7.6352 6.74-13.849 14.375-13.849h117.79c7.6352 0 14.375 6.2193 14.375 13.849l0.47391 17.646v65.873c0 7.8985-6.4241 14.264-14.323 14.264h-118.85c-6.582 0-12.111-4.4231-13.743-10.479-0.3686-1.2111-0.52657-2.627-0.52657-3.9492v-64.972l0.42126-18.383" fill="#377839"/><path id="path314" d="m173.28 14.217c0-7.5299 6.898-13.585 14.375-13.585h116.84c7.5299 0 14.375 6.0555 14.375 13.585l0.63188 17.482v65.926c0 7.8458-6.3714 14.27-14.217 14.27h-118.42c-6.5821 0-12.111-4.4816-13.743-10.537-0.31593-1.2111-0.4739-2.6855-0.4739-3.9492v-64.972l0.63187-18.219" fill="#387839"/><path id="path316" d="m173.81 14.112c0-7.3192 6.9506-13.275 14.323-13.275h115.9c7.3719 0 14.323 5.956 14.323 13.275l0.89516 17.377v65.973c0 7.8517-6.3188 14.223-14.165 14.223h-118c-6.582 0-12.111-4.4816-13.691-10.59-0.31594-1.1526-0.47391-2.6855-0.47391-3.9492v-64.925l0.89516-18.108" fill="#38793a"/><path id="path318" d="m174.28 14.053c0-7.2081 7.1086-13.053 14.323-13.053h114.95c7.2139 0 14.323 5.8449 14.323 13.053 0.63188 0 1.1058 16.645 1.1058 17.219v66.031c0 7.8458-6.3188 14.165-14.112 14.165h-117.58c-6.5821 0-12.111-4.4758-13.638-10.59-0.31594-1.1526-0.47391-2.6855-0.47391-3.9492v-64.925c0-0.62603 0.47391-17.95 1.1058-17.95" fill="#3a7a3a"/><path id="path320" d="m174.76 13.954c0-7.0033 7.2666-12.743 14.323-12.743h114c7.056 0 14.323 5.7337 14.323 12.743 0.73719 0 1.3164 16.429 1.3164 17.166v66.031c0 7.7931-6.2661 14.112-14.059 14.112h-117.11c-6.582 0-12.111-4.5285-13.638-10.584-0.31594-1.1058-0.47391-2.744-0.47391-3.9551v-64.925c0-0.73719 0.57922-17.845 1.3164-17.845" fill="#3a7b3a"/><path id="path322" d="m175.28 13.901c0-6.9038 7.3719-12.485 14.27-12.485h113.05c6.898 0 14.27 5.5816 14.27 12.485 0.89516 0 1.5797 16.113 1.5797 17.002v66.142c0 7.7346-6.2661 14.007-14.007 14.007h-116.69c-6.5821 0-12.111-4.5226-13.585-10.631-0.31593-1.059-0.4739-2.744-0.4739-3.8966v-64.931c0-0.8425 0.68453-17.693 1.5797-17.693" fill="#3a7c3a"/><path id="path324" d="m175.76 13.79c0-6.6874 7.5299-12.164 14.27-12.164h112.16c6.6874 0 14.217 5.4821 14.217 12.164 1.0005 0 1.7903 15.902 1.7903 16.909v66.189c0 7.7405-6.2661 14.012-14.007 14.012h-116.21c-6.582 0-12.111-4.5811-13.533-10.689-0.31594-1.059-0.47391-2.7966-0.47391-3.9551v-64.879c0-1.0005 0.78984-17.587 1.7903-17.587" fill="#3b7d3b"/><path id="path326" d="m176.23 13.743c0-6.5821 7.6352-11.9 14.217-11.9h111.26c6.5821 0 14.217 5.3183 14.217 11.9 1.1058 0 2.001 15.639 2.001 16.797v66.189c0 7.6878-6.2135 13.96-13.954 13.96h-115.79c-6.5821 0-12.111-4.5811-13.533-10.689-0.26328-1.0531-0.42125-2.7966-0.42125-3.9492v-64.873c0-1.1116 0.89516-17.435 2.001-17.435" fill="#3b7e3b"/><path id="path328" d="m176.76 13.691c0-6.4767 7.7405-11.637 14.165-11.637h110.32c6.4241 0 14.165 5.1603 14.165 11.637 1.2638 0 2.2642 15.376 2.2642 16.639v66.242c0 7.682-6.2135 13.901-13.901 13.901h-115.37c-6.5821 0-12.058-4.5811-13.48-10.689-0.26328-1.0531-0.42125-2.8434-0.42125-3.9492v-64.873c0-1.2111 1.0005-17.271 2.2642-17.271" fill="#3c7f3b"/><path id="path330" d="m177.23 13.58c0-6.2603 7.8985-11.368 14.165-11.368h109.37c6.2661 0 14.165 5.1077 14.165 11.368 1.3691 0 2.4748 15.171 2.4748 16.534v66.294c0 7.6878-6.1608 13.849-13.849 13.849h-114.95c-6.582 0-12.058-4.5811-13.427-10.742-0.26329-0.94782-0.42126-2.8434-0.42126-3.8966v-64.873c0-1.3691 1.1058-17.166 2.4749-17.166" fill="#3c7f3c"/><path id="path332" d="m177.7 13.527c0-6.1608 8.0564-11.105 14.165-11.105h108.42c6.1082 0 14.165 4.9497 14.165 11.105 1.4744 0 2.6855 14.902 2.6855 16.435v66.289c0 7.641-6.1608 13.796-13.796 13.796h-114.53c-6.5821 0-12.058-4.5811-13.375-10.742-0.26328-0.94782-0.42125-2.8961-0.42125-3.9492v-64.82c0-1.4685 1.2111-17.008 2.6855-17.008" fill="#3d803c"/><path id="path334" d="m178.23 13.427c0-5.956 8.1618-10.8 14.112-10.8h107.47c5.9502 0 14.112 4.8444 14.112 10.8 1.6324 0 2.9488 14.691 2.9488 16.323v66.4c0 7.5825-6.1608 13.743-13.743 13.743h-114.11c-6.582 0-12.058-4.6338-13.322-10.795-0.26328-0.94782-0.42125-2.8961-0.42125-3.9492v-64.82c0-1.5797 1.3164-16.903 2.9488-16.903" fill="#3d803c"/><path id="path336" d="m178.7 13.375c0-5.8449 8.3197-10.537 14.112-10.537h106.52c5.8449 0 14.112 4.6923 14.112 10.537 1.7377 0 3.1594 14.428 3.1594 16.166v66.447c0 7.5299-6.1081 13.697-13.691 13.697h-113.69c-6.5821 0-12.058-4.6338-13.269-10.847-0.26328-0.89516-0.42125-2.8961-0.42125-3.8966v-64.82c0-1.7377 1.4217-16.745 3.1594-16.745" fill="#3e813c"/><path id="path338" d="m179.18 13.264c0-5.6342 8.425-10.215 14.112-10.215h105.58c5.6869 0 14.112 4.5811 14.112 10.215 1.843 0 3.37 14.217 3.37 16.113v66.452c0 7.5299-6.1082 13.638-13.638 13.638h-113.26c-6.582 0-12.006-4.6923-13.269-10.847-0.21063-0.88931-0.3686-2.9488-0.3686-3.8966v-64.762c0-1.8956 1.527-16.698 3.37-16.698" fill="#3f823d"/><path id="path340" d="m179.7 13.217c0-5.5289 8.5304-10.005 14.059-10.005h104.63c5.5289 0 14.059 4.4758 14.059 10.005 2.001 0 3.6333 13.954 3.6333 15.955v66.505c0 7.5299-6.0555 13.585-13.585 13.585h-112.84c-6.5294 0-12.006-4.6864-13.217-10.847-0.21062-0.88931-0.36859-3.0014-0.36859-3.9492v-64.715c0-2.0068 1.6324-16.534 3.6333-16.534" fill="#40833d"/><path id="path342" d="m180.18 13.106c0-5.3125 8.6883-9.6829 14.059-9.6829h103.68c5.371 0 14.059 4.3705 14.059 9.6829 2.1062 0 3.8439 13.749 3.8439 15.85v66.558c0 7.4772-6.0555 13.533-13.533 13.533h-112.42c-6.5294 0-12.006-4.6864-13.164-10.847-0.26328-0.8425-0.36859-3.0482-0.36859-3.9492v-64.715c0-2.1531 1.7377-16.429 3.8439-16.429" fill="#40843d"/><path id="path344" d="m180.65 13.053c0-5.213 8.8463-9.4197 14.059-9.4197h102.73c5.213 0 14.059 4.2125 14.059 9.4197 2.2642 0 4.0546 13.486 4.0546 15.744v66.558c0 7.4714-6.0555 13.533-13.48 13.533h-112c-6.5294 0-12.006-4.7391-13.111-10.953-0.26329-0.78985-0.3686-3.0014-0.3686-3.8966v-64.709c0-2.2642 1.843-16.277 4.0546-16.277" fill="#41853e"/><path id="path346" d="m181.18 12.953c0-5.0024 8.9516-9.1154 14.007-9.1154h101.78c5.055 0 14.059 4.1072 14.059 9.1154 2.3695 0 4.2652 13.269 4.2652 15.639v66.663c0 7.4304-6.0028 13.427-13.427 13.427h-111.58c-6.5294 0-12.006-4.7391-13.059-10.947-0.26328-0.7957-0.3686-3.0541-0.3686-3.9551v-64.662c0-2.3754 1.9483-16.166 4.3178-16.166" fill="#41863e"/><path id="path348" d="m181.65 12.901c0-4.9029 9.1096-8.8521 14.007-8.8521h100.89c4.897 0 13.954 3.9492 13.954 8.8521 2.5275 0 4.5284 13.006 4.5284 15.481v66.716c0 7.3719-6.0028 13.375-13.375 13.375h-111.16c-6.5294 0-11.953-4.7449-13.006-10.953-0.26328-0.7957-0.36859-3.1067-0.36859-3.9551v-64.662c0-2.5217 2.0009-16.002 4.5284-16.002" fill="#42873e"/><path id="path350" d="m182.13 12.842c0-4.7859 9.2149-8.6357 13.954-8.6357h99.995c4.7391 0 13.954 3.8439 13.954 8.6357 2.6328 0 4.7391 12.749 4.7391 15.376v66.716c0 7.3719-5.9502 13.322-13.322 13.322h-110.74c-6.5294 0-11.953-4.7449-13.006-10.953-0.21063-0.78985-0.31594-3.1594-0.31594-3.9492v-64.668c0-2.6211 2.1063-15.844 4.7391-15.844" fill="#42883e"/><path id="path352" d="m182.65 12.743c0-4.5811 9.3202-8.3197 13.901-8.3197h99.047c4.5811 0 13.954 3.7386 13.954 8.3197 2.7381 0 4.9497 12.532 4.9497 15.27v66.763c0 7.3192-5.9502 13.275-13.269 13.275h-110.32c-6.5294 0-11.953-4.7449-12.953-11.005-0.21063-0.68453-0.31594-3.1067-0.31594-3.8966v-64.668c0-2.7381 2.2116-15.738 5.0024-15.738" fill="#44893f"/><path id="path354" d="m183.13 12.69c0-4.4816 9.4782-8.0564 13.901-8.0564h98.099c4.4231 0 13.901 3.5748 13.901 8.0564 2.8961 0 5.213 12.269 5.213 15.112v66.821c0 7.3192-5.9502 13.217-13.217 13.217h-109.89c-6.5294 0-11.953-4.7391-12.901-11.005-0.21063-0.68453-0.31594-3.1594-0.31594-3.9492v-64.609c0-2.8961 2.3169-15.586 5.213-15.586" fill="#44893f"/><path id="path356" d="m183.6 12.579c0-4.2652 9.6361-7.7405 13.901-7.7405h97.151c4.2652 0 13.901 3.4812 13.901 7.7405 3.0014 0 5.4236 12.064 5.4236 15.06v66.821c0 7.3192-5.8975 13.217-13.164 13.217h-109.42c-6.582 0-12.006-4.8444-12.901-11.058-0.21062-0.68453-0.31594-3.212-0.31594-3.9492v-64.609c0-3.0014 2.4222-15.481 5.4236-15.481" fill="#458a3f"/><path id="path358" d="m184.08 12.532c0-4.1599 9.7941-7.4772 13.901-7.4772h96.203c4.1072 0 13.901 3.3174 13.901 7.4772 3.1067 0 5.6342 11.795 5.6342 14.902v66.926c0 7.2081-5.8975 13.106-13.111 13.106h-109c-6.5821 0-11.953-4.8385-12.848-11.105-0.21063-0.63188-0.31594-3.212-0.31594-3.8966v-64.609c0-3.1126 2.5275-15.323 5.6342-15.323" fill="#458b3f"/><path id="path360" d="m184.6 12.427c0-3.9551 9.8468-7.2139 13.849-7.2139h95.256c4.0019 0 13.849 3.2647 13.849 7.2139 3.2647 0 5.8975 11.579 5.8975 14.791v66.979c0 7.2139-5.8449 13.059-13.111 13.059h-108.52c-6.582 0-11.953-4.8444-12.796-11.111-0.21063-0.63188-0.31594-3.212-0.31594-3.8966v-64.609c0-3.2588 2.6328-15.212 5.8975-15.212" fill="#468d3f"/><path id="path362" d="m185.08 12.368c0-3.8381 10.005-6.9507 13.849-6.9507h94.308c3.8439 0 13.849 3.1067 13.849 6.9507 3.37 0 6.1081 11.274 6.1081 14.638v67.032c0 7.2139-5.8449 13.012-13.059 13.012h-108.1c-6.5294 0-11.953-4.8444-12.796-11.111-0.15797-0.62603-0.26328-3.2647-0.26328-3.9492v-64.557c0-3.3759 2.7381-15.066 6.1082-15.066" fill="#468e40"/><path id="path364" d="m185.55 12.269c0-3.6333 10.163-6.6347 13.849-6.6347h93.36c3.686 0 13.849 3.0014 13.849 6.6347 3.4753 0 6.3188 11.058 6.3188 14.586v67.032c0 7.1613-5.8449 12.953-13.006 12.953h-107.68c-6.5294 0-11.953-4.8444-12.743-11.111-0.15797-0.57922-0.26329-3.3115-0.26329-3.9492v-64.557c0-3.528 2.8434-14.954 6.3188-14.954" fill="#488f40"/><path id="path366" d="m186.08 12.216c0-3.5338 10.268-6.3714 13.796-6.3714h92.412c3.528 0 13.796 2.8376 13.796 6.3714 3.6333 0 6.5821 10.795 6.5821 14.428v67.084c0 7.1613-5.7922 12.953-12.953 12.953h-107.26c-6.5294 0-11.953-4.897-12.69-11.216-0.15797-0.52656-0.26328-3.3115-0.26328-3.8966v-64.557c0-3.6333 2.9488-14.796 6.582-14.796" fill="#489040"/><path id="path368" d="m186.55 12.105c0-3.3115 10.426-6.0555 13.796-6.0555h91.464c3.37 0 13.796 2.744 13.796 6.0555 3.7386 0 6.7927 10.59 6.7927 14.323v67.137c0 7.1145-5.7922 12.901-12.901 12.901h-106.84c-6.5294 0-11.9-4.897-12.638-11.216-0.15797-0.52656-0.26328-3.3115-0.26328-3.8966v-64.551c0-3.7445 3.0541-14.697 6.7927-14.697" fill="#499140"/><path id="path370" d="m187.02 12.052c0-3.212 10.584-5.8449 13.796-5.8449h90.516c3.2647 0 13.796 2.6328 13.796 5.8449 3.8439 0 7.0033 10.321 7.0033 14.217v67.19c0 7.056-5.7396 12.801-12.848 12.801h-106.42c-6.5294 0-11.9-4.9029-12.585-11.216-0.15797-0.53242-0.26328-3.37-0.26328-3.9551v-64.498c0-3.8966 3.1594-14.539 7.0033-14.539" fill="#499141"/><path id="path372" d="m187.55 12.006c0-3.1067 10.637-5.5816 13.743-5.5816h89.621c3.0541 0 13.691 2.4749 13.691 5.5816 4.0019 0 7.2666 10.057 7.2666 14.059v67.236c0 7.056-5.7396 12.749-12.796 12.749h-106c-6.5294 0-11.9-4.9556-12.585-11.216-0.10531-0.53242-0.21063-3.4227-0.21063-3.9551v-64.498c0-4.0077 3.2647-14.375 7.2666-14.375" fill="#4a9341"/><path id="path374" d="m188.02 11.895c0-2.8903 10.795-5.2598 13.743-5.2598h88.673c2.8961 0 13.691 2.3695 13.691 5.2598 4.1072 0 7.4772 9.8526 7.4772 13.96v67.295c0 6.9975-5.7396 12.69-12.743 12.69h-105.58c-6.5294 0-11.9-4.9556-12.532-11.268l-0.15797-3.8966v-64.504c0-4.1131 3.3174-14.276 7.4246-14.276" fill="#4a9341"/><path id="path376" d="m188.5 11.842c0-2.7908 10.953-4.9965 13.691-4.9965h87.778c2.7381 0 13.691 2.2116 13.691 4.9965 4.2125 0 7.6878 9.5893 7.6878 13.849v67.295c0 7.0033-5.6869 12.69-12.69 12.69h-105.15c-6.5294 0-11.9-4.9965-12.48-11.321l-0.15797-3.8966v-64.504c0-4.2593 3.4227-14.112 7.6352-14.112" fill="#4c9441"/><path id="path378" d="m189.02 11.742c0-2.5802 11.058-4.6864 13.638-4.6864h86.83c2.5802 0 13.638 2.1004 13.638 4.6864 4.3705 0 7.9511 9.3728 7.9511 13.743v67.348c0 7.0033-5.6869 12.638-12.638 12.638h-104.73c-6.5294 0-11.848-4.9965-12.427-11.321l-0.15796-3.9492v-64.457c0-4.3705 3.528-14.001 7.8985-14.001" fill="#4c9542"/><path id="path380" d="m189.5 11.69c0-2.4807 11.216-4.429 13.638-4.429h85.883c2.4222 0 13.638 1.9483 13.638 4.429 4.4758 0 8.1091 9.1096 8.1091 13.58v67.406c0 6.9507-5.5816 12.579-12.532 12.579h-104.31c-6.5294 0-11.848-4.9965-12.374-11.368l-0.15797-3.8966v-64.457c0-4.4699 3.6333-13.843 8.1091-13.843" fill="#4d9742"/><path id="path382" d="m189.97 11.579c0-2.2642 11.374-4.1599 13.638-4.1599h84.935c2.3169 0 13.638 1.8956 13.638 4.1599 4.5811 0 8.3197 8.8989 8.3197 13.533v67.447c0 6.9038-5.5816 12.485-12.48 12.485h-103.89c-6.5294 0-11.848-5.0024-12.322-11.374l-0.15797-3.8966v-64.451c0-4.6279 3.7386-13.743 8.3197-13.743" fill="#4d9742"/><path id="path384" d="m190.5 11.532c0-2.1589 11.426-3.8966 13.585-3.8966h83.987c2.1589 0 13.638 1.7377 13.638 3.8966 4.7391 0 8.5303 8.6357 8.5303 13.375v67.506c0 6.8453-5.5289 12.427-12.427 12.427h-103.47c-6.4767 0-11.848-5.0024-12.322-11.374l-0.10532-3.8966v-64.451c0-4.7449 3.8439-13.585 8.583-13.585" fill="#4e9842"/><path id="path386" d="m190.97 11.421c0-1.9424 11.584-3.5748 13.585-3.5748h83.039c2.0009 0 13.585 1.6324 13.585 3.5748 4.897 0 8.7936 8.425 8.7936 13.275v67.558c0 6.8453-5.5289 12.427-12.374 12.427h-103.05c-6.4767 0-11.848-5.055-12.269-11.426l-0.10532-3.9492v-64.399c0-4.8444 3.8966-13.486 8.7936-13.486" fill="#4e9943"/><path id="path388" d="m191.45 11.368c0-1.8371 11.742-3.3115 13.585-3.3115h82.091c1.843 0 13.585 1.4744 13.585 3.3115 5.0024 0 9.0042 8.1676 9.0042 13.164v67.558c0 6.8512-5.5289 12.374-12.322 12.374h-102.63c-6.4768 0-11.795-5.055-12.216-11.479l-0.10531-3.8966v-64.399c0-5.0024 4.0019-13.322 9.0042-13.322" fill="#509b43"/><path id="path390" d="m191.97 11.268c0-1.6323 11.848-3.0014 13.533-3.0014h81.144c1.685 0 13.585 1.3632 13.585 3.0014 5.1077 0 9.2149 7.9453 9.2149 13.053v67.617c0 6.7927-5.4763 12.316-12.269 12.316h-102.21c-6.4767 0-11.795-5.1077-12.164-11.479l-0.10531-3.8966v-64.399c0-5.1077 4.1072-13.211 9.2675-13.211" fill="#509b43"/><path id="path392" d="m192.45 11.216c0-1.5329 12.006-2.7966 13.533-2.7966h80.196c1.527 0 13.533 1.2638 13.533 2.7966 5.2656 0 9.4782 7.682 9.4782 12.901v67.658c0 6.7927-5.4763 12.269-12.216 12.269h-101.78c-6.4768 0-11.795-5.1018-12.111-11.479l-0.10531-3.9492v-64.346c0-5.2071 4.2125-13.053 9.4782-13.053" fill="#519d43"/><path id="path394" d="m192.92 11.157c0-1.4159 12.111-2.5275 13.533-2.5275h79.248c1.4217 0 13.533 1.1058 13.533 2.5275 5.371 0 9.6888 7.4304 9.6888 12.801v67.716c0 6.7342-5.4236 12.164-12.164 12.164h-101.31c-6.5294 0-11.848-5.1077-12.111-11.479l-0.10532-3.9551v-64.346c0-5.371 4.3178-12.901 9.6888-12.901" fill="#519e44"/><path id="path396" d="m193.4 11.058c0-1.2111 12.269-2.2116 13.533-2.2116h78.353c1.2111 0 13.48 1.0005 13.48 2.2116 5.4763 0 9.8994 7.2139 9.8994 12.69v67.769c0 6.6874-5.4236 12.111-12.111 12.111h-100.89c-6.5294 0-11.848-5.1077-12.111-11.538l-0.0526-3.8966v-64.34c0-5.4763 4.4231-12.796 9.8994-12.796" fill="#539f44"/><path id="path398" d="m193.92 11.005c0-1.1058 12.374-1.9483 13.427-1.9483h77.458c1.0531 0 13.427 0.8425 13.427 1.9483 5.6342 0 10.163 6.9507 10.163 12.532v67.822c0 6.6932-5.4236 12.111-12.111 12.111h-100.42c-6.5294 0-11.795-5.1603-12.058-11.579l-0.0526-3.8966v-64.346c0-5.5874 4.5284-12.643 10.163-12.643" fill="#53a044"/><path id="path400" d="m194.4 10.894c0-0.88931 12.532-1.6265 13.427-1.6265h76.51c0.89516 0 13.427 0.73719 13.427 1.6265 5.7396 0 10.373 6.74 10.373 12.485v67.822c0 6.6347-5.371 12.058-12.058 12.058h-99.995c-6.5294 0-11.795-5.1603-12.006-11.579l-0.0527-3.9551v-64.288c0-5.7513 4.6338-12.544 10.373-12.544" fill="#53a144"/><path id="path402" d="m194.87 10.841c0-0.78985 12.69-1.4217 13.427-1.4217h75.562c0.73719 0 13.427 0.63188 13.427 1.4217 5.8449 0 10.584 6.4299 10.584 12.322v67.874c0 6.6347-5.371 12.006-12.006 12.006h-99.573c-6.5294 0-11.795-5.1603-11.953-11.631l-0.0527-3.8966v-64.294c0-5.8449 4.7391-12.38 10.584-12.38" fill="#54a245"/><path id="path404" d="m195.4 10.742c0-0.58507 12.796-1.1058 13.375-1.1058h74.614c0.57922 0 13.375 0.52656 13.375 1.1058 6.0028 0 10.847 6.2135 10.847 12.216v67.921c0 6.6406-5.3183 11.953-11.953 11.953h-99.152c-6.5294 0-11.795-5.1603-11.9-11.631l-0.0527-3.8966v-64.294c0-5.9502 4.8444-12.269 10.847-12.269" fill="#54a345"/><path id="path406" d="m195.87 10.689 13.375-0.84835h73.666l13.375 0.84835c6.1082 0 11.058 5.9502 11.058 12.058v68.032c0 6.5294-5.3183 11.848-11.9 11.848h-98.731c-6.4767 0-11.795-5.1662-11.848-11.637l-0.0526-3.8966v-64.294c0-6.114 4.9497-12.111 11.058-12.111" fill="#56a445"/><path id="path408" d="m196.34 10.584 13.375-0.52656h72.719l13.375 0.52656c6.2135 0 11.268 5.7396 11.268 12.006v68.032c0 6.5294-5.3183 11.848-11.848 11.848h-98.31c-6.4767 0-11.742-5.2656-11.848-11.69v-68.19c0-6.2135 5.055-12.006 11.268-12.006" fill="#56a546"/><path id="path410" d="m196.87 10.531 13.322-0.26328h71.771l13.322 0.26328c6.3714 0 11.532 5.4763 11.532 11.842v68.091c0 6.5294-5.2656 11.795-11.795 11.795h-97.888c-6.4768 0-11.742-5.2598-11.795-11.742v-68.137c0-6.3188 5.1603-11.848 11.532-11.848" fill="#58a746"/><path id="path412" d="m306.55 90.3c0 6.4767-5.2656 11.742-11.742 11.742h-97.467c-6.4767 0-11.742-5.2598-11.742-11.742v-68.137c0-6.4767 5.2656-11.748 11.742-11.748h97.467c6.4768 0 11.742 5.2656 11.742 11.748v68.137" fill="#58a846"/><path id="path414" d="m197.98 11.058 48.128-0.05266 48.075 0.05266c6.4241 0 11.584 5.1603 11.584 11.584l0.0527 33.589-0.0527 33.647c-0.0527 6.4299-5.213 11.584-11.584 11.584l-48.075 0.0526-48.128-0.0526c-6.4241 0-11.584-5.2188-11.584-11.584l-0.0527-33.647 0.0527-33.589c0-6.4299 5.1603-11.584 11.584-11.584" fill="#5aaa46"/><path id="path416" d="m198.61 11.631 47.496-0.10531 47.443 0.10531c6.3188 0 11.426 5.1077 11.426 11.426l0.0527 33.174-0.10532 33.279c0 6.3188-5.1077 11.426-11.426 11.426l-47.391 0.0527-47.496-0.11116c-6.3188-0.0527-11.426-5.1603-11.426-11.479l-0.0527-33.174 0.0527-33.174c0-6.3129 5.1077-11.421 11.426-11.421" fill="#5caa46"/><path id="path418" d="m199.24 12.216 46.864-0.15797 46.812 0.15797c6.2135 0 11.268 5.055 11.321 11.268l0.0527 32.752-0.15796 32.858c-0.0527 6.2193-5.055 11.268-11.268 11.268l-46.759 0.11117-46.864-0.15797c-6.2135-0.0527-11.268-5.1077-11.321-11.321l-0.0527-32.758 0.0527-32.752c0.0526-6.2135 5.1077-11.268 11.321-11.268" fill="#5daa46"/><path id="path420" d="m199.87 12.79 46.232-0.21062 46.18 0.21062c6.1608 0.05266 11.111 5.0024 11.163 11.163l0.10531 32.278-0.21062 32.495c-0.0527 6.1081-5.0024 11.058-11.163 11.105l-46.074 0.11116-46.232-0.21063c-6.1608-0.05266-11.111-5.055-11.163-11.163l-0.0526-32.331 0.0526-32.278c0.0527-6.1608 5.0024-11.116 11.163-11.169" fill="#5daa46"/><path id="path422" d="m200.5 13.375 45.6-0.26913 45.6 0.26913c6.0028 0.05266 10.9 4.9497 10.953 11.005l0.10532 31.851-0.26328 32.068c-0.0527 6.0555-4.9497 10.9-10.953 10.953l-45.443 0.15212-45.6-0.26328c-6.0555-0.05266-10.953-4.9965-11.005-11.058l-0.10531-31.857 0.10531-31.851c0.0527-6.0496 4.9497-10.947 11.005-10.999" fill="#5eab46"/><path id="path424" d="m201.08 13.954 45.021-0.31594 44.969 0.31594c5.9502 0.05266 10.742 4.897 10.795 10.847l0.15797 31.436-0.31594 31.647c-0.0527 5.956-4.897 10.795-10.847 10.795l-44.758 0.21063-45.021-0.31594c-5.9502-0.10531-10.742-4.9497-10.795-10.9l-0.15797-31.436 0.15797-31.436c0.0526-5.9502 4.8444-10.8 10.795-10.847" fill="#5fab46"/><path id="path426" d="m201.72 14.527 44.389-0.3686 44.337 0.3686c5.8449 0.05266 10.584 4.8444 10.689 10.742l0.10531 30.962-0.31594 31.284c-0.10531 5.8449-4.8444 10.584-10.689 10.631l-44.126 0.15797-44.389-0.31594c-5.8449-0.11116-10.584-4.897-10.637-10.742l-0.15796-31.02 0.15796-30.962c0.0527-5.8917 4.7917-10.683 10.637-10.736" fill="#60ac46"/><path id="path428" d="m202.35 15.112 43.758-0.42125 43.705 0.42125c5.7922 0.10531 10.479 4.7859 10.531 10.584l0.15797 30.541-0.42125 30.857c-0.0527 5.7337-4.7391 10.426-10.531 10.479l-43.442 0.21062-43.758-0.3686c-5.7396-0.10531-10.426-4.8444-10.531-10.631l-0.15796-30.547 0.15796-30.541c0.10532-5.7981 4.7917-10.479 10.531-10.584" fill="#61ac46"/><path id="path430" d="m202.98 15.692 43.126-0.47391 43.073 0.47391c5.6869 0.10531 10.321 4.7391 10.373 10.479l0.21063 30.067-0.47391 30.488c-0.10531 5.6401-4.6864 10.215-10.373 10.327l-42.81 0.21063-43.126-0.42125c-5.6869-0.11116-10.268-4.7449-10.373-10.479l-0.21062-30.119 0.21062-30.067c0.10531-5.7513 4.6864-10.385 10.373-10.484" fill="#62ad45"/><path id="path432" d="m203.61 16.265 42.494-0.52656 42.441 0.52656c5.5816 0.11116 10.163 4.6923 10.215 10.327l0.21062 29.64-0.4739 30.073c-0.10532 5.5816-4.6338 10.11-10.268 10.157l-42.125 0.26328-42.494-0.47391c-5.5816-0.15212-10.163-4.6864-10.215-10.321l-0.21063-29.698 0.21063-29.64c0.0526-5.6342 4.6338-10.215 10.215-10.327" fill="#63ad45"/><path id="path434" d="m204.24 16.85c0.36859-0.3686 41.335-0.58507 41.862-0.58507 0.52656 0 41.493 0.21063 41.809 0.58507 5.5289 0.10531 10.005 4.6338 10.057 10.157l0.26328 29.224c0 0.52656-0.21062 29.335-0.57922 29.646-0.10531 5.4763-4.5284 9.9521-10.057 10.005l-41.493 0.31594c-0.52657 0-41.493-0.21063-41.862-0.57922-5.5289-0.11116-10.005-4.5811-10.057-10.163l-0.26329-29.224 0.26329-29.224c0.0526-5.5231 4.5284-10.057 10.057-10.157" fill="#64ae45"/><path id="path436" d="m204.87 17.423c0.3686-0.3686 40.651-0.62603 41.23-0.62603 0.52656 0 40.809 0.26328 41.177 0.62603 5.4236 0.15797 9.8468 4.5811 9.9521 10.057l0.26328 28.75c0 0.58507-0.26328 28.908-0.63187 29.277-0.10532 5.371-4.5285 9.7414-9.8994 9.8526l-40.861 0.31594c-0.57922 0-40.861-0.21062-41.23-0.62603-5.4236-0.11116-9.8468-4.5285-9.8994-10.011l-0.26328-28.803 0.26328-28.75c0.0527-5.4763 4.4758-9.8994 9.8994-10.063" fill="#66ae45"/><path id="path438" d="m205.51 18.003c0.42125-0.4154 39.966-0.62603 40.598-0.62603 0.57922 0 40.177 0.21063 40.545 0.62603 5.371 0.15797 9.6888 4.5285 9.7941 9.8994l0.26329 28.329c0 0.63188-0.26329 28.434-0.63188 28.862-0.15797 5.3183-4.4758 9.6303-9.7941 9.6829l-40.177 0.3686c-0.63188 0-40.177-0.26328-40.598-0.68453-5.371-0.10531-9.6888-4.4758-9.7941-9.8468l-0.26328-28.388 0.26328-28.329c0.10532-5.3651 4.4231-9.7356 9.7941-9.8936" fill="#67af45"/><path id="path440" d="m206.14 18.588c0.42125-0.42125 39.282-0.68453 39.966-0.68453 0.63187 0 39.492 0.26328 39.914 0.68453 5.2656 0.15797 9.5308 4.4758 9.6361 9.7414l0.31594 27.908c0 0.68453-0.26329 28.013-0.73719 28.434-0.10532 5.213-4.3705 9.4782-9.5835 9.5835l-39.545 0.3686c-0.68454 0-39.545-0.26328-39.966-0.73719-5.2656-0.15797-9.5308-4.4231-9.6361-9.7414l-0.31594-27.914 0.31594-27.908c0.10531-5.2656 4.3705-9.5776 9.6361-9.7356" fill="#68af45"/><path id="path442" d="m206.77 19.161c0.47391-0.47391 38.597-0.73719 39.334-0.73719 0.68453 0 38.86 0.26328 39.282 0.73719 5.1603 0.15797 9.3728 4.4231 9.4782 9.6361l0.31594 27.428c0 0.73719-0.26328 27.598-0.73719 28.066-0.15797 5.1077-4.3178 9.2675-9.4782 9.3787l-38.86 0.42125c-0.73719 0-38.86-0.32179-39.334-0.7957-5.1603-0.15212-9.3728-4.3705-9.4782-9.5835l-0.31594-27.487 0.31594-27.428c0.10531-5.213 4.3178-9.4723 9.4782-9.6361" fill="#69af45"/><path id="path444" d="m207.35 19.746c0.52656-0.47391 37.965-0.7957 38.755-0.7957 0.73719 0 38.176 0.32179 38.702 0.7957 5.055 0.21063 9.1622 4.3705 9.2675 9.4782l0.3686 27.007c0 0.7957-0.31594 27.177-0.78985 27.65-0.15797 5.0492-4.2652 9.1096-9.3202 9.2149-0.42125 0.31594-37.702 0.46806-38.229 0.46806-0.78985 0-38.229-0.31594-38.755-0.8425-5.055-0.15797-9.1622-4.3178-9.2675-9.4255l-0.36859-27.065 0.36859-27.007c0.10532-5.1077 4.2125-9.2675 9.2675-9.4782" fill="#6ab044"/><path id="path446" d="m207.98 20.325c0.57922-0.52656 37.281-0.8425 38.123-0.8425 0.78984 0 37.544 0.31594 38.071 0.8425 4.9497 0.21063 9.0042 4.3178 9.1622 9.3202l0.3686 26.592c0 0.84835-0.3686 26.697-0.89516 27.276-0.15797 4.897-4.1599 8.9516-9.1622 9.0569-0.42126 0.26328-36.965 0.47391-37.544 0.47391-0.84251 0-37.544-0.3686-38.123-0.88931-4.9497-0.15797-9.0043-4.2652-9.1622-9.326l-0.36859-26.592 0.36859-26.592c0.15797-5.0024 4.2125-9.1096 9.1622-9.3202" fill="#6bb044"/><path id="path448" d="m208.61 20.899c0.57922-0.52656 36.596-0.88931 37.491-0.88931 0.8425 0 36.86 0.3686 37.439 0.88931 4.897 0.21063 8.8463 4.2652 9.0043 9.2149 0.26328 0.42125 0.36859 25.591 0.36859 26.118 0 0.89516-0.31594 26.276-0.89516 26.855-0.15797 4.8444-4.1599 8.7995-9.0042 8.8989-0.47391 0.31594-36.333 0.52656-36.912 0.52656-0.89516 0-36.912-0.3686-37.491-0.94782-4.897-0.21062-8.8463-4.2125-9.0042-9.1564-0.26328-0.47391-0.3686-25.591-0.3686-26.176 0-0.52656 0.10532-25.696 0.3686-26.118 0.15797-4.9439 4.1072-9.0043 9.0042-9.2149" fill="#6cb144"/><path id="path450" d="m209.25 21.484c0.63188-0.58507 35.912-0.94782 36.86-0.94782 0.89516 0 36.228 0.3686 36.807 0.94782 4.7917 0.21062 8.6883 4.2125 8.8463 9.0569 0.26328 0.47391 0.42125 25.117 0.42125 25.696 0 0.94782-0.36859 25.854-0.94782 26.439-0.21062 4.7859-4.1072 8.6357-8.8989 8.7936-0.4739 0.31594-35.596 0.47391-36.228 0.47391-0.94782 0-36.228-0.3686-36.86-0.94782-4.7917-0.21063-8.6883-4.1599-8.8463-9.0043-0.26329-0.47391-0.42126-25.17-0.42126-25.749s0.15797-25.222 0.42126-25.696c0.15797-4.8502 4.0545-8.8521 8.8463-9.0628" fill="#6db144"/><path id="path452" d="m209.88 22.057c0.63188-0.57922 35.227-1.0005 36.228-1.0005 0.94781 0 35.543 0.42125 36.175 1.0005 4.7391 0.26328 8.5303 4.1599 8.6883 8.8989 0.31594 0.52656 0.47391 24.696 0.47391 25.269 0 0.94782-0.42125 25.439-1.0531 26.065-0.15797 4.6338-4.0019 8.425-8.6883 8.583-0.52657 0.3686-34.911 0.53242-35.596 0.53242-1.0005 0-35.596-0.3686-36.228-1.0005-4.6864-0.21063-8.5304-4.1072-8.6883-8.8989-0.31594-0.47391-0.4739-24.643-0.4739-25.275 0-0.57922 0.15796-24.743 0.4739-25.269 0.15797-4.7449 4.0019-8.6415 8.6883-8.9048" fill="#6eb144"/><path id="path454" d="m210.51 22.642c0.68453-0.63188 34.543-1.059 35.596-1.059 1.0005 0 34.911 0.42125 35.543 1.059 4.6338 0.26328 8.3724 4.1014 8.583 8.7936 0.26328 0.52656 0.42125 24.169 0.42125 24.795 0 1.0005-0.36859 25.012-1.0531 25.65-0.21062 4.5753-3.9492 8.3197-8.583 8.4192-0.52656 0.3686-34.227 0.57922-34.911 0.57922-1.0531 0-34.911-0.3686-35.596-1.0531-4.6338-0.21063-8.3724-4.0487-8.5304-8.741-0.31594-0.52656-0.47391-24.169-0.47391-24.854 0-0.62603 0.15797-24.269 0.47391-24.795 0.15797-4.6923 3.8966-8.5303 8.5304-8.7936" fill="#6fb244"/><path id="path456" d="m211.14 23.268c0.68454-0.73719 33.858-1.1584 34.964-1.1584 1.0531 0 34.227 0.42125 34.911 1.1584 4.5285 0.21063 8.2144 4.0077 8.425 8.583 0.31593 0.52656 0.4739 23.701 0.4739 24.38 0 1.059-0.42125 24.538-1.1058 25.228-0.21063 4.5226-3.8966 8.1618-8.425 8.3197-0.57923 0.3686-33.542 0.57922-34.279 0.57922-1.1058 0-34.279-0.4154-34.964-1.0999-4.5284-0.26328-8.2144-4.0077-8.425-8.583-0.26328-0.58507-0.47391-23.754-0.47391-24.438 0-0.67868 0.21063-23.853 0.47391-24.38 0.21063-4.5811 3.8966-8.3724 8.425-8.5889" fill="#70b344"/><path id="path458" d="m211.77 23.853c0.73719-0.74304 33.226-1.2111 34.332-1.2111 1.1058 0 33.595 0.46806 34.279 1.2111 4.4758 0.20478 8.1091 3.9492 8.2671 8.4192 0.31594 0.57922 0.52656 23.28 0.52656 23.959 0 1.1058-0.4739 24.117-1.2111 24.854-0.21062 4.3705-3.7913 7.9511-8.2671 8.1149-0.57922 0.4154-32.805 0.62603-33.595 0.62603-1.1058 0-33.595-0.42125-34.332-1.1584-4.4758-0.26328-8.0564-3.9492-8.2671-8.4718-0.31594-0.58507-0.47391-23.227-0.47391-23.965 0-0.67868 0.15797-23.379 0.47391-23.959 0.21062-4.4699 3.7913-8.2144 8.2671-8.4192" fill="#72b344"/><path id="path460" d="m212.4 24.433c0.73719-0.78985 32.542-1.2638 33.7-1.2638 1.1058 0 32.91 0.47391 33.647 1.2638 4.3705 0.26328 7.9511 3.8966 8.1091 8.3197 0.3686 0.57922 0.52657 22.748 0.52657 23.485 0 1.1584-0.47391 23.701-1.2111 24.438-0.21063 4.312-3.7386 7.8458-8.1091 7.9979-0.63187 0.42125-32.173 0.63188-32.963 0.63188-1.1584 0-32.963-0.47391-33.7-1.2111-4.3705-0.26328-7.8985-3.8966-8.1091-8.3197-0.31593-0.63188-0.52656-22.8-0.52656-23.537 0-0.73719 0.21063-22.906 0.52656-23.485 0.21063-4.4231 3.7386-8.0564 8.1091-8.3197" fill="#72b343"/><path id="path462" d="m213.04 25.006c0.78985-0.78985 31.857-1.3164 33.068-1.3164 1.1584 0 32.278 0.52656 33.016 1.3164 4.3178 0.26328 7.7932 3.8439 7.9511 8.1676 0.36859 0.62603 0.57922 22.32 0.57922 23.058 0 1.2111-0.47391 23.28-1.2638 24.064-0.26328 4.2125-3.7386 7.6352-7.9511 7.7932-0.68454 0.42125-31.489 0.68453-32.331 0.68453-1.2111 0-32.278-0.47391-33.068-1.2638-4.3178-0.32179-7.7932-3.8439-7.9511-8.1676-0.36859-0.62603-0.57922-22.32-0.57922-23.116 0-0.73719 0.21063-22.432 0.57922-23.058 0.15797-4.312 3.6333-7.8985 7.9511-8.1618" fill="#73b443"/><path id="path464" d="m213.67 25.591c0.78985-0.84835 31.173-1.3223 32.436-1.3223 1.2111 0 31.594 0.47391 32.436 1.3223 4.1599 0.26328 7.5825 3.7386 7.7932 7.9979 0.31594 0.68453 0.52657 21.852 0.52657 22.642 0 1.2696-0.47391 22.8-1.3164 23.643-0.21063 4.1072-3.6333 7.4772-7.7932 7.641-0.68453 0.47391-30.751 0.73719-31.647 0.73719-1.2638 0-31.647-0.53242-32.436-1.3223-4.2125-0.31594-7.6352-3.7854-7.7932-8.0564-0.3686-0.62603-0.57922-21.847-0.57922-22.642 0-0.78985 0.21062-21.958 0.57922-22.642 0.15797-4.2593 3.5806-7.7346 7.7932-7.9979" fill="#75b443"/><path id="path466" d="m214.25 26.17c0.89516-0.8425 30.541-1.3691 31.857-1.3691 1.2638 0 30.962 0.53242 31.804 1.3691 4.0546 0.31594 7.4246 3.686 7.6352 7.8985 0.36859 0.68453 0.57922 21.332 0.57922 22.168 0 1.3223-0.52657 22.379-1.3691 23.227-0.26328 4.0487-3.5806 7.3192-7.6352 7.524-0.73719 0.47391-30.119 0.73719-31.015 0.73719-1.3164 0-30.962-0.52656-31.857-1.3632-4.0545-0.31594-7.4246-3.7386-7.6352-7.9043-0.3686-0.67868-0.57922-21.373-0.57922-22.221 0-0.8425 0.21062-21.484 0.57922-22.168 0.21062-4.2184 3.5806-7.5884 7.6352-7.8985" fill="#76b543"/><path id="path468" d="m214.88 26.744c0.89516-0.88931 29.856-1.4159 31.225-1.4159 1.3164 0 30.277 0.52656 31.173 1.4159 4.0019 0.32179 7.2666 3.6333 7.4772 7.7405 0.3686 0.68453 0.63188 20.905 0.63188 21.747 0 1.3691-0.57922 21.958-1.4217 22.853-0.26328 3.9492-3.528 7.1613-7.5299 7.3192-0.73719 0.47391-29.382 0.78985-30.33 0.78985-1.3691 0-30.33-0.57922-31.225-1.4159-4.0019-0.32179-7.2666-3.6918-7.4772-7.7932-0.36859-0.68453-0.63187-20.852-0.63187-21.753 0-0.8425 0.26328-21.063 0.63187-21.747 0.21063-4.1072 3.4753-7.4187 7.4772-7.7405" fill="#77b543"/><path id="path470" d="m215.51 27.329c0.94781-0.89516 29.172-1.4744 30.593-1.4744 1.3691 0 29.593 0.57922 30.541 1.4744 3.8966 0.31594 7.1086 3.5748 7.3192 7.5825 0.42126 0.73719 0.63188 20.431 0.63188 21.326 0 1.4217-0.52656 21.542-1.4744 22.432-0.26328 3.8439-3.4227 7.0033-7.3192 7.2139-0.78984 0.47391-28.698 0.78985-29.698 0.78985-1.4217 0-29.646-0.57922-30.593-1.4744-3.8966-0.3686-7.1086-3.6333-7.3192-7.6352-0.42125-0.73719-0.63188-20.431-0.63188-21.332 0-0.88931 0.21063-20.589 0.63188-21.326 0.21063-4.0019 3.4227-7.2607 7.3192-7.5767" fill="#78b643"/><path id="path472" d="m216.14 27.902c0.94781-0.94782 28.487-1.527 29.962-1.527 1.4217 0 28.961 0.57922 29.909 1.527 3.8439 0.31594 6.9506 3.5338 7.1613 7.4772 0.42125 0.73719 0.68453 19.957 0.68453 20.846 0 1.4744-0.57922 21.115-1.527 22.063-0.26328 3.7386-3.37 6.7927-7.2139 7.0033-0.78985 0.52656-28.013 0.8425-29.014 0.8425-1.4744 0-29.014-0.57922-29.962-1.527-3.8439-0.3686-6.9507-3.5806-7.1613-7.4772-0.42125-0.73719-0.68454-19.957-0.68454-20.905 0-0.88931 0.26329-20.115 0.68454-20.846 0.21062-3.9434 3.3174-7.1613 7.1613-7.4772" fill="#79b642"/><path id="path474" d="m216.77 28.481c1.0005-1.0005 27.803-1.5797 29.33-1.5797 1.4744 0 28.329 0.57922 29.277 1.5797 3.7386 0.3686 6.7927 3.4812 7.056 7.3251 0.42125 0.78985 0.68453 19.477 0.68453 20.425 0 1.4744-0.63188 20.641-1.5797 21.642-0.31594 3.686-3.37 6.6347-7.056 6.8453-0.8425 0.58507-27.329 0.89516-28.382 0.89516-1.527 0-28.329-0.63188-29.33-1.5855-3.7386-0.3686-6.7927-3.528-7.056-7.3719-0.42125-0.73719-0.63188-19.483-0.63188-20.431s0.21063-19.635 0.63188-20.425c0.26328-3.8381 3.3174-6.9448 7.056-7.3192" fill="#7ab742"/><path id="path476" d="m217.41 29.066c1.0005-1.0005 27.118-1.6324 28.698-1.6324 1.527 0 27.645 0.63188 28.645 1.6324 3.686 0.3686 6.6347 3.4227 6.898 7.1613 0.42125 0.84835 0.68453 19.062 0.68453 20.009 0 1.5329-0.63187 20.22-1.6324 21.221-0.26328 3.5806-3.2647 6.5294-6.898 6.74-0.8425 0.52656-26.592 0.8425-27.697 0.8425-1.5797 0-27.697-0.57922-28.698-1.6265-3.6333-0.32179-6.6347-3.4227-6.898-7.1671-0.42126-0.78985-0.68454-19.009-0.68454-20.009 0-0.94782 0.26328-19.161 0.68454-20.009 0.26328-3.7386 3.2647-6.7985 6.898-7.1613" fill="#7bb742"/><path id="path478" d="m218.04 29.64c1.0531-1.0531 26.434-1.685 28.066-1.685 1.5797 0 27.013 0.63188 28.013 1.685 3.5806 0.3686 6.4767 3.37 6.74 7.056 0.47391 0.78985 0.73719 18.535 0.73719 19.536 0 1.5855-0.63187 19.805-1.685 20.852-0.31594 3.4753-3.212 6.3188-6.74 6.5294-0.89516 0.57922-25.96 0.88931-27.065 0.88931-1.6324 0-27.013-0.62603-28.066-1.685-3.5806-0.3686-6.4768-3.3642-6.74-6.9975-0.47391-0.84835-0.73719-18.535-0.73719-19.594 0-1.0005 0.26328-18.746 0.73719-19.536 0.26328-3.6801 3.1594-6.6757 6.74-7.0501" fill="#7cb842"/><path id="path480" d="m218.67 30.225c1.0531-1.059 25.802-1.7435 27.434-1.7435s26.328 0.68453 27.381 1.7435c3.4753 0.3686 6.3188 3.3115 6.5821 6.898 0.47391 0.8425 0.73719 18.061 0.73719 19.114 0 1.6324-0.63188 19.383-1.685 20.431-0.31594 3.4227-3.1594 6.1608-6.6347 6.4241-0.89516 0.58507-25.222 0.89516-26.381 0.89516-1.6324 0-26.381-0.62603-27.434-1.7377-3.4753-0.3686-6.3188-3.3174-6.5821-6.898-0.47391-0.84835-0.73719-18.061-0.73719-19.12 0-1.0531 0.26328-18.272 0.73719-19.114 0.26328-3.5806 3.1067-6.5294 6.5821-6.8921" fill="#7db842"/><path id="path482" d="m219.3 30.804c1.1058-1.1058 25.117-1.7903 26.802-1.7903 1.6324 0 25.696 0.67868 26.749 1.7903 3.4227 0.42125 6.1608 3.2647 6.4768 6.74 0.4739 0.88931 0.73719 17.64 0.73719 18.687 0 1.685-0.68454 18.956-1.7903 20.009-0.31594 3.3174-3.0541 6.0028-6.4241 6.2661-0.94782 0.57922-24.591 0.94782-25.749 0.94782-1.685 0-25.696-0.68453-26.802-1.7903-3.4227-0.3686-6.1608-3.2706-6.4241-6.74-0.52657-0.89516-0.78985-17.587-0.78985-18.693 0-1.0531 0.26328-17.798 0.78985-18.687 0.26328-3.4812 3.0014-6.3188 6.4241-6.74" fill="#7eb842"/><path id="path484" d="m219.93 31.377c1.1058-1.0999 24.433-1.8371 26.17-1.8371 1.685 0 25.012 0.73719 26.17 1.8371 3.2647 0.42125 5.9502 3.2179 6.2661 6.6406 0.47391 0.88931 0.78985 17.113 0.78985 18.213 0 1.7377-0.73719 18.482-1.843 19.641-0.31594 3.212-3.0014 5.8449-6.2661 6.0555-1.0005 0.62603-23.906 1.0005-25.117 1.0005-1.7377 0-25.064-0.68453-26.17-1.843-3.3174-0.3686-6.0028-3.212-6.3188-6.5821-0.47391-0.88931-0.78985-17.166-0.78985-18.272 0-1.0999 0.31594-17.324 0.78985-18.213 0.31593-3.4227 3.0014-6.2193 6.3188-6.6406" fill="#7fb942"/><path id="path486" d="m220.51 31.962c1.2111-1.1584 23.801-1.8956 25.591-1.8956 1.7377 0 24.38 0.73719 25.538 1.8956 3.212 0.4154 5.7922 3.1594 6.1082 6.4709 0.52657 0.94782 0.78985 16.698 0.78985 17.798 0 1.7962-0.68453 18.061-1.843 19.22-0.36859 3.1067-2.9488 5.6869-6.1608 5.956-1.0005 0.62603-23.169 1.0005-24.433 1.0005-1.7903 0-24.38-0.73719-25.591-1.8956-3.212-0.42125-5.7922-3.1594-6.1082-6.4767-0.52656-0.88931-0.78984-16.639-0.78984-17.798 0-1.0999 0.26328-16.85 0.78984-17.798 0.31594-3.3174 2.8961-6.0613 6.1082-6.4767" fill="#80ba41"/><path id="path488" d="m221.15 32.536c1.2111-1.1584 23.116-1.8956 24.959-1.8956 1.7903 0 23.695 0.73719 24.906 1.8956 3.1067 0.42125 5.6342 3.1067 5.9502 6.3188 0.52656 1.0005 0.8425 16.218 0.8425 17.377 0 1.843-0.73719 17.646-1.9483 18.857-0.31594 3.0014-2.8961 5.4763-5.9502 5.7337-1.0531 0.68453-22.537 1.059-23.801 1.059-1.843 0-23.748-0.74304-24.959-1.9483-3.1067-0.42125-5.6342-3.1067-5.9502-6.3188-0.52657-0.94782-0.8425-16.218-0.8425-17.382 0-1.1526 0.31593-16.376 0.8425-17.377 0.31594-3.2062 2.8434-5.8917 5.9502-6.3188" fill="#80ba41"/><path id="path490" d="m221.78 33.121c1.2638-1.2111 22.432-1.9483 24.327-1.9483 1.843 0 23.011 0.73719 24.275 1.9483 3.0014 0.46806 5.5289 3.0482 5.7922 6.2135 0.57922 0.94782 0.89516 15.692 0.89516 16.903 0 1.8956-0.78985 17.219-2.001 18.43-0.36859 2.9488-2.8434 5.371-5.8449 5.6342-1.0531 0.63188-21.8 1.0531-23.116 1.0531-1.8956 0-23.064-0.78985-24.327-2.0009-3.0014-0.42125-5.4763-3.0482-5.7922-6.1608-0.57922-1.0005-0.89516-15.744-0.89516-16.955 0-1.1526 0.31594-15.955 0.89516-16.903 0.31593-3.1594 2.7908-5.7454 5.7922-6.2135" fill="#81bb41"/><path id="path492" d="m222.41 33.7c1.2638-1.2638 21.747-2.0009 23.695-2.0009 1.8956 0 22.379 0.73719 23.643 2.0009 2.9488 0.47391 5.371 3.0014 5.6869 6.0555 0.52656 1.0005 0.8425 15.265 0.8425 16.476 0 1.9483-0.78984 16.745-2.0009 18.009-0.3686 2.8434-2.7908 5.2188-5.6869 5.4821-1.1058 0.67868-21.115 1.0999-22.484 1.0999-1.9483 0-22.432-0.78985-23.695-2.0536-2.9488-0.42125-5.371-3.0073-5.6869-6.0555-0.52657-1.0005-0.84251-15.218-0.84251-16.481 0-1.2111 0.31594-15.481 0.89516-16.476 0.26329-3.0599 2.6855-5.5816 5.6342-6.0555" fill="#81bb41"/><path id="path494" d="m223.04 34.273c1.3164-1.2638 21.063-2.0536 23.064-2.0536 1.9483 0 21.694 0.78985 23.011 2.0536 2.8434 0.47391 5.213 2.9488 5.5289 5.8975 0.57922 1.059 0.89516 14.796 0.89516 16.06 0 2.0068-0.78984 16.324-2.1063 17.646-0.36859 2.7381-2.6855 4.9965-5.5289 5.2598-1.1058 0.73719-20.431 1.1584-21.8 1.1584-2.001 0-21.747-0.78985-23.064-2.1063-2.8434-0.47391-5.213-2.9488-5.5289-5.8975-0.57922-1.0005-0.89516-14.791-0.89516-16.06 0-1.2638 0.31594-15.001 0.89516-16.06 0.31594-2.9488 2.6855-5.4236 5.5289-5.8975" fill="#82bc41"/><path id="path496" d="m223.67 34.859c1.3164-1.3223 20.378-2.1063 22.432-2.1063 2.0009 0 21.063 0.78985 22.379 2.1063 2.7908 0.47391 5.055 2.8961 5.371 5.7864 0.57922 1.059 0.94781 14.323 0.94781 15.586 0 2.0595-0.8425 15.908-2.1589 17.219-0.3686 2.6855-2.6328 4.8444-5.371 5.1603-1.1584 0.73719-19.746 1.1584-21.168 1.1584-2.0536 0-21.115-0.84835-22.432-2.1589-2.7908-0.47391-5.055-2.8961-5.371-5.7396-0.57922-1.0531-0.89516-14.317-0.89516-15.639 0-1.2638 0.31594-14.527 0.89516-15.586 0.31594-2.8903 2.5802-5.3125 5.371-5.7864" fill="#83bc40"/><path id="path498" d="m224.3 35.485c1.3691-1.3632 19.694-2.2116 21.8-2.2116 2.0536 0 20.378 0.84835 21.747 2.2116 2.6855 0.47391 4.897 2.7966 5.213 5.5816 0.63188 1.1058 0.94782 13.849 0.94782 15.165 0 2.0595-0.84251 15.481-2.1589 16.85-0.42125 2.5334-2.5802 4.6923-5.2656 4.9556-1.1584 0.73719-19.009 1.2111-20.483 1.2111-2.1063 0-20.431-0.84835-21.8-2.2116-2.6855-0.47391-4.897-2.8434-5.213-5.6342-0.63188-1.059-0.94782-13.849-0.94782-15.171 0-1.3164 0.31594-14.053 0.94782-15.165 0.31594-2.7849 2.5275-5.1077 5.213-5.5816" fill="#84bc40"/><path id="path500" d="m224.94 36.07c1.3691-1.4217 19.009-2.2701 21.168-2.2701 2.1062 0 19.746 0.84835 21.115 2.2701 2.5802 0.47391 4.7391 2.7381 5.055 5.4763 0.63188 1.0531 1.0005 13.375 1.0005 14.691 0 2.1063-0.8425 15.06-2.2642 16.435-0.3686 2.4749-2.5275 4.5226-5.055 4.8444-1.2111 0.73719-18.377 1.1526-19.851 1.1526-2.1589 0-19.799-0.8425-21.168-2.2116-2.5802-0.52656-4.7391-2.7381-5.055-5.4763-0.63187-1.1058-1.0005-13.375-1.0005-14.75 0-1.3164 0.3686-13.638 1.0005-14.691 0.31594-2.7323 2.4749-4.9965 5.055-5.4704" fill="#85bd40"/><path id="path502" d="m225.57 36.649c1.4217-1.4217 18.377-2.3169 20.536-2.3169 2.1589 0 19.062 0.89516 20.483 2.3169 2.5275 0.47391 4.5811 2.6855 4.9497 5.3183 0.63188 1.0999 0.94782 12.901 0.94782 14.264 0 2.1589-0.84251 14.586-2.2642 16.008-0.42125 2.4222-2.4748 4.3705-4.9497 4.6864-1.2111 0.78985-17.64 1.2111-19.167 1.2111-2.1589 0-19.114-0.8425-20.536-2.2642-2.5275-0.52656-4.5811-2.6855-4.9497-5.3183-0.63187-1.1584-0.94781-12.901-0.94781-14.323 0-1.3632 0.31594-13.164 0.94781-14.264 0.3686-2.6328 2.4222-4.8444 4.9497-5.3183" fill="#86bd40"/><path id="path504" d="m226.2 37.222c1.4217-1.4744 17.693-2.3637 19.904-2.3637 2.1589 0 18.43 0.88931 19.851 2.3637 2.4222 0.53242 4.4231 2.6328 4.7917 5.1662 0.63187 1.1526 1.0005 12.421 1.0005 13.843 0 2.2116-0.89516 14.165-2.3169 15.639-0.42125 2.2701-2.4222 4.1657-4.7917 4.4816-1.2638 0.8425-16.955 1.2638-18.535 1.2638-2.2116 0-18.482-0.89516-19.904-2.3169-2.4222-0.53242-4.4231-2.6328-4.7917-5.2188-0.63188-1.1584-1.0005-12.427-1.0005-13.849s0.36859-12.69 1.0005-13.843c0.3686-2.5334 2.3695-4.6338 4.7917-5.1662" fill="#87be40"/><path id="path506" d="m226.83 37.807c1.4744-1.4744 17.008-2.4222 19.272-2.4222 2.2116 0 17.745 0.94782 19.272 2.4222 2.3169 0.52656 4.2125 2.5743 4.5811 5.0492 0.68453 1.1584 1.0531 11.953 1.0531 13.375 0 2.2701-0.94782 13.749-2.4222 15.224-0.42125 2.2116-2.3169 4.0487-4.6338 4.3705-1.2638 0.78985-16.271 1.2638-17.851 1.2638-2.2642 0-17.798-0.89516-19.272-2.3695-2.3696-0.52656-4.2652-2.5743-4.6338-5.055-0.63188-1.1526-1.0531-11.953-1.0531-13.427 0-1.4217 0.42125-12.216 1.0531-13.375 0.36859-2.4807 2.2642-4.5285 4.6338-5.055" fill="#88be3f"/><path id="path508" d="m227.41 38.381c1.527-1.527 16.376-2.4749 18.693-2.4749 2.2642 0 17.113 0.94782 18.64 2.4749 2.2116 0.52656 4.0546 2.5275 4.4231 4.897 0.68454 1.2111 1.0531 11.479 1.0531 12.953 0 2.3169-0.89516 13.322-2.4222 14.796-0.42125 2.1589-2.2642 3.8966-4.4758 4.2125-1.3164 0.84835-15.586 1.3223-17.219 1.3223-2.3169 0-17.166-0.94782-18.693-2.4222-2.2116-0.58507-4.0546-2.5334-4.4232-4.897-0.68453-1.2111-1.0531-11.538-1.0531-13.012 0-1.4744 0.36859-11.742 1.0531-12.953 0.3686-2.3695 2.2116-4.3705 4.4232-4.897" fill="#89bf3f"/><path id="path510" d="m228.04 38.96c1.5797-1.527 15.692-2.5275 18.061-2.5275 2.3169 0 16.429 1.0005 18.008 2.5275 2.1589 0.53242 3.8966 2.4807 4.3178 4.7449 0.68454 1.2638 1.0531 11.058 1.0531 12.532 0 2.3695-0.94782 12.901-2.4748 14.434-0.47391 2.0009-2.2116 3.686-4.3178 4.0487-1.3691 0.84835-14.902 1.3223-16.587 1.3223-2.3695 0-16.481-0.94782-18.061-2.4807-2.1062-0.57922-3.8966-2.4749-4.2652-4.7859-0.68453-1.2111-1.1058-11.005-1.1058-12.538 0-1.4744 0.42125-11.268 1.1058-12.532 0.3686-2.2642 2.1589-4.2125 4.2652-4.7449" fill="#89bf3f"/><path id="path512" d="m228.68 39.545c1.5797-1.5855 15.007-2.5334 17.429-2.5334 2.3695 0 15.797 0.94782 17.377 2.5334 2.0536 0.57922 3.7386 2.4222 4.1598 4.6338 0.68454 1.2111 1.1058 10.531 1.1058 12.058 0 2.4222-1.0005 12.427-2.5802 14.012-0.42125 1.9483-2.1062 3.5748-4.1599 3.8966-1.3691 0.8425-14.217 1.3632-15.902 1.3632-2.4222 0-15.85-0.94782-17.429-2.5275-2.0536-0.57922-3.7386-2.4222-4.1599-4.6338-0.68453-1.2638-1.1058-10.584-1.1058-12.111s0.42125-10.847 1.1058-12.058c0.42125-2.2116 2.1063-4.0604 4.1599-4.6338" fill="#8ac03f"/><path id="path514" d="m229.31 40.118c1.6324-1.6265 14.323-2.5743 16.797-2.5743 2.4222 0 15.112 0.94782 16.745 2.5743 1.9483 0.58507 3.5806 2.3695 4.0019 4.4816 0.73719 1.2638 1.1058 10.057 1.1058 11.631 0 2.4749-1.0005 12.012-2.5802 13.638-0.47391 1.843-2.1063 3.37-4.0019 3.686-1.4217 0.89516-13.533 1.4217-15.27 1.4217-2.4749 0-15.165-1.0005-16.797-2.5743-1.9483-0.58507-3.5806-2.3695-4.0019-4.4816-0.68454-1.3164-1.1058-10.11-1.1058-11.69 0-1.5797 0.42125-10.367 1.1058-11.631 0.42125-2.1063 2.0536-3.8966 4.0019-4.4816" fill="#8bc03f"/><path id="path516" d="m229.94 40.703c1.6324-1.6324 13.638-2.6328 16.166-2.6328 2.4748 0 14.481 1.0005 16.113 2.6328 1.8956 0.57922 3.4227 2.3169 3.8439 4.312 0.73719 1.3223 1.1584 9.6361 1.1584 11.216 0 2.5334-1.0005 11.584-2.6328 13.223-0.47391 1.7377-2.0536 3.212-3.8966 3.5748-1.4217 0.89516-12.796 1.4217-14.586 1.4217-2.5275 0-14.533-1.0005-16.166-2.6328-1.8956-0.62603-3.4227-2.3169-3.8439-4.3705-0.73719-1.3164-1.1584-9.5835-1.1584-11.216 0-1.5797 0.42125-9.8936 1.1584-11.216 0.42126-2.0009 1.9483-3.7328 3.8439-4.312" fill="#8cc13f"/><path id="path518" d="m230.57 41.283c1.685-1.685 12.953-2.6855 15.534-2.6855 2.5275 0 13.796 1.0005 15.481 2.6855 1.7903 0.57922 3.2647 2.2642 3.686 4.2125 0.73719 1.3223 1.2111 9.1154 1.2111 10.742 0 2.5802-1.0531 11.163-2.7381 12.801-0.47391 1.685-1.9483 3.0482-3.686 3.4227-1.4217 0.94782-12.164 1.4744-13.954 1.4744-2.5802 0-13.849-1.0531-15.534-2.6855-1.7903-0.63188-3.2647-2.2642-3.686-4.2125-0.73719-1.3223-1.1584-9.1622-1.1584-10.8 0-1.6265 0.42125-9.4197 1.1584-10.742 0.42125-1.9541 1.8956-3.6391 3.686-4.2125" fill="#8ec13e"/><path id="path520" d="m231.2 41.856c1.685-1.685 12.269-2.7381 14.902-2.7381 2.5802 0 13.164 1.0531 14.849 2.7381 1.7377 0.63188 3.1594 2.2116 3.5806 4.0545 0.73719 1.3691 1.1584 8.6883 1.1584 10.321 0 2.5802-1.0531 10.689-2.7381 12.427-0.47391 1.5855-1.8956 2.8961-3.5806 3.2706-1.4217 0.88931-11.426 1.4744-13.269 1.4744-2.6328 0-13.217-1.059-14.902-2.7966-1.7377-0.57922-3.1067-2.1589-3.528-4.0019-0.78985-1.3691-1.2111-8.6883-1.2111-10.373 0-1.6265 0.42125-8.9457 1.2111-10.321 0.42125-1.843 1.7903-3.4168 3.528-4.0545" fill="#8fc23e"/><path id="path522" d="m231.83 42.441c1.7377-1.7377 11.584-2.7966 14.27-2.7966 2.6328 0 12.48 1.059 14.217 2.7966 1.6324 0.62603 3.0014 2.1589 3.4227 3.8966 0.73719 1.3632 1.2111 8.2086 1.2111 9.8936 0 2.6328-1.1058 10.268-2.7908 12.012-0.52656 1.4744-1.843 2.7381-3.4227 3.1009-1.4744 0.94782-10.742 1.5329-12.638 1.5329-2.6855 0-12.532-1.1058-14.27-2.8434-1.6324-0.57922-3.0014-2.1063-3.4227-3.8966-0.73719-1.3691-1.2111-8.2144-1.2111-9.8994s0.47391-8.5303 1.2111-9.8936c0.47391-1.7435 1.7903-3.2764 3.4227-3.9024" fill="#90c33e"/><path id="path524" d="m232.45 43.02c1.7611-1.7611 10.947-2.8493 13.632-2.8493s11.871 1.0941 13.632 2.8493c1.527 0.63188 2.8025 2.0829 3.2413 3.7737 0.784 1.3983 1.2345 7.7288 1.2345 9.4489 0 2.6913-1.0882 9.8409-2.8493 11.596-0.49731 1.3983-1.7728 2.5626-3.2647 2.9429-1.5153 0.97122-10.063 1.5329-11.994 1.5329-2.6855 0-11.871-1.0882-13.632-2.8434-1.5329-0.63188-2.8025-2.077-3.2413-3.7679-0.784-1.4042-1.2345-7.7405-1.2345-9.4606s0.45051-8.0506 1.2345-9.4489c0.4388-1.685 1.7084-3.136 3.2413-3.7737" fill="#90c33e"/><path id="path526" d="m233.08 43.611c1.7962-1.802 10.268-2.902 13.006-2.902 2.7381 0 11.21 1.0999 13 2.902 1.4451 0.63773 2.6504 2.0185 3.095 3.6157 0.80154 1.4276 1.252 7.2666 1.252 9.016 0 2.744-1.1058 9.408-2.8961 11.198-0.50901 1.3047-1.7143 2.3988-3.1126 2.7908-1.5446 0.98877-9.3728 1.5621-11.339 1.5621-2.7381 0-11.21-1.1058-13.006-2.902-1.4393-0.63773-2.6445-2.0243-3.0892-3.6216-0.80155-1.4217-1.252-7.2607-1.252-9.0218 0-1.7494 0.4505-7.5884 1.252-9.016 0.44466-1.6031 1.6499-2.9839 3.0892-3.6216" fill="#91c43e"/><path id="path528" d="m233.71 44.19c1.8196-1.8313 9.5893-2.9546 12.374-2.9546s10.555 1.1233 12.374 2.9546c1.3574 0.65528 2.4866 1.9658 2.9429 3.4812 0.81325 1.451 1.2755 6.7927 1.2755 8.5772 0 2.7908-1.1292 8.975-2.9546 10.8-0.50901 1.2111-1.644 2.235-2.9546 2.627-1.568 1.0063-8.6825 1.5855-10.683 1.5855-2.7849 0-10.555-1.1292-12.374-2.9546-1.3574-0.65528-2.4866-1.9658-2.9429-3.4753-0.81325-1.4568-1.2755-6.7985-1.2755-8.5889 0-1.7845 0.46221-7.1262 1.2755-8.5772 0.45635-1.5095 1.5855-2.82 2.9429-3.4753" fill="#92c43e"/><path id="path530" d="m234.33 44.764c1.8547-1.8488 8.9165-3.0014 11.748-3.0014 2.8318 0 9.8936 1.1467 11.748 3.0014 1.2696 0.66698 2.3286 1.9132 2.7908 3.3408 0.82496 1.4802 1.2989 6.3246 1.2989 8.1383 0 2.8317-1.1467 8.542-3.0014 10.397-0.52657 1.1175-1.5914 2.0712-2.8142 2.469-1.5914 1.0239-7.9862 1.6148-10.022 1.6148-2.8317 0-9.8936-1.1467-11.748-3.0073-1.2696-0.66113-2.3286-1.9015-2.7908-3.3349-0.82495-1.4744-1.2989-6.3246-1.2989-8.1442 0-1.8137 0.47391-6.6581 1.2989-8.1383 0.46221-1.4217 1.5212-2.6621 2.7908-3.3349" fill="#93c53d"/><path id="path532" d="m234.96 45.355c1.8839-1.8898 8.2437-3.0541 11.122-3.0541 2.8786 0 9.2324 1.1643 11.122 3.0541 1.176 0.67283 2.1648 1.843 2.6387 3.1945 0.8425 1.5036 1.3223 5.8566 1.3223 7.6937 0 2.8786-1.1701 8.1149-3.0599 9.993-0.52657 1.0356-1.5212 1.9073-2.6504 2.3169-1.6265 1.0414-7.3017 1.6441-9.3728 1.6441-2.8786 0-9.2383-1.1701-11.122-3.0599-1.176-0.67283-2.1706-1.8488-2.6387-3.1945-0.84251-1.5036-1.3164-5.8566-1.3164-7.6995 0-1.8371 0.4739-6.1959 1.3164-7.6937 0.47391-1.3515 1.4627-2.5217 2.6387-3.1945" fill="#94c63d"/><path id="path534" d="m235.58 45.934c1.919-1.919 7.5708-3.1009 10.496-3.1009s8.5772 1.1818 10.496 3.1009c1.0882 0.69038 2.0068 1.7962 2.4866 3.0541 0.85421 1.527 1.3398 5.3885 1.3398 7.2549 0 2.9254-1.1877 7.682-3.1067 9.601-0.53827 0.93612-1.4568 1.7435-2.5041 2.1531-1.6499 1.059-6.6055 1.6675-8.7117 1.6675-2.9254 0-8.5772-1.1818-10.496-3.1009-1.0882-0.69038-2.0068-1.802-2.4866-3.0541-0.8542-1.527-1.3398-5.3827-1.3398-7.2607 0-1.8664 0.48561-5.7279 1.3398-7.2549 0.47976-1.2696 1.3983-2.3695 2.4866-3.0599" fill="#95c63d"/><path id="path536" d="m236.21 46.513c1.9483-1.9541 6.8922-3.1535 9.8702-3.1535 2.9722 0 7.916 1.1994 9.8702 3.1535 1.0005 0.69624 1.8488 1.7435 2.3344 2.9078 0.8659 1.5621 1.3632 4.9205 1.3632 6.8219 0 2.9839-1.2052 7.2432-3.1594 9.1915-0.54412 0.8542-1.3983 1.5855-2.352 2.0009-1.6733 1.0824-5.9151 1.6967-8.0564 1.6967-2.978 0-7.9219-1.2052-9.8702-3.1535-1.0005-0.70209-1.8488-1.7435-2.3344-2.9137-0.86591-1.5504-1.3632-4.9146-1.3632-6.8219 0-1.9015 0.49731-5.2598 1.3632-6.8219 0.48561-1.1643 1.334-2.2116 2.3344-2.9078" fill="#95c73d"/><path id="path538" d="m236.84 47.098c1.9834-1.9775 6.2193-3.2062 9.2441-3.2062s7.2607 1.2287 9.2441 3.2062c0.90686 0.71379 1.685 1.685 2.1823 2.7674 0.87761 1.5855 1.3808 4.4465 1.3808 6.3831 0 3.0307-1.2228 6.8102-3.2062 8.7878-0.55582 0.76644-1.334 1.4159-2.1999 1.843-1.7026 1.0941-5.2305 1.726-7.4012 1.726-3.0248 0-7.2607-1.2228-9.2441-3.2062-0.91271-0.71379-1.685-1.6792-2.1823-2.7674-0.88345-1.5855-1.3866-4.4524-1.3866-6.389s0.50317-4.7976 1.3866-6.3831c0.49731-1.0765 1.2755-2.0478 2.1823-2.7615" fill="#97c73c"/><path id="path540" d="m237.46 47.677c2.0185-2.0126 5.5465-3.2588 8.6181-3.2588s6.6055 1.2462 8.6123 3.2588c0.82495 0.71964 1.5329 1.6206 2.036 2.6211 0.89516 1.6031 1.4042 3.9785 1.4042 5.9443 0 3.0716-1.2462 6.3831-3.2588 8.3958-0.56167 0.66698-1.2696 1.2521-2.0478 1.685-1.7318 1.1058-4.5402 1.7552-6.7459 1.7552-3.0716 0-6.5996-1.2462-8.6181-3.2588-0.82495-0.72549-1.527-1.6265-2.0302-2.627-0.89516-1.6031-1.4042-3.9843-1.4042-5.9502s0.50901-4.3354 1.4042-5.9443c0.50316-0.99462 1.2111-1.9015 2.0302-2.6211" fill="#97c83c"/><path id="path542" d="m257.38 56.243c0 3.1184-1.2638 5.9502-3.3115 7.9862-2.0419 2.0536-4.8678 3.3115-7.9862 3.3115s-5.9443-1.2638-7.9862-3.3115c-2.0478-2.0419-3.3115-4.8678-3.3115-7.9862 0-3.1126 1.2638-5.9443 3.3115-7.9804 2.0419-2.0478 4.8678-3.3115 7.9862-3.3115s5.9443 1.2696 7.9862 3.3115c2.0478 2.0419 3.3115 4.8678 3.3115 7.9804" fill="#98c93c"/><rect id="rect544" x="197.16" y="22.806" width="23.005" height="23.017" fill="#fff"/><path id="path546" d="m245.88 96.338c22.344 0 38.726-10.011 49.123-30.014h-97.847c10.391 20.004 26.632 30.014 48.725 30.014" fill="#fff"/><path id="path548" d="m281.95 13.89-13.954-0.10531c2.118-0.30424 4.3471-0.46806 6.6464-0.46806 2.5451 0 5.0024 0.19892 7.3076 0.57337" fill="#9dc586"/><path id="path550" d="m284.97 14.486-19.887-0.16382c0.94197-0.19892 1.919-0.3803 2.9195-0.53242l13.954 0.10531c1.0356 0.15212 2.0419 0.35689 3.0131 0.59092" fill="#9dc586"/><path id="path552" d="m287.18 15.089-24.228-0.23403c0.69038-0.19307 1.3983-0.37445 2.1297-0.53827l19.887 0.16382c0.76059 0.18722 1.4978 0.38615 2.2116 0.60847" fill="#9ec586"/><path id="path554" d="m288.96 15.692-27.732-0.31009c0.55582-0.18722 1.1292-0.3686 1.7201-0.52656l24.228 0.23403c0.61432 0.18137 1.2052 0.3803 1.7845 0.60262" fill="#9ec686"/><path id="path556" d="m291.45 16.745c-0.92441-0.29254-1.9015-0.46221-2.9078-0.47976l-28.762-0.35689c0.46806-0.18722 0.95367-0.3686 1.4451-0.53242l27.732 0.31009c0.8776 0.32179 1.7084 0.68453 2.4924 1.059m7.3251 7.3895c-0.11701-0.02925-0.23403-0.05851-0.35689-0.08191-0.3569-1.3574-0.98878-2.6153-1.8313-3.7094 1.1058 1.176 1.8605 2.4456 2.1882 3.7913" fill="#9fc686"/><path id="path558" d="m298.42 24.052c-0.31594-0.06436-0.64358-0.11701-0.97122-0.15797-1.334-4.0253-5.096-6.9624-9.5367-7.0443-0.19893-0.23403-16.944-0.4037-29.178-0.49731 0.33935-0.15212 0.69039-0.30424 1.0473-0.4388l28.762 0.35689c1.0063 0.01755 1.9834 0.18722 2.9078 0.47976 2.1121 1.0297 3.8615 2.2467 5.1369 3.5982 0.8425 1.0882 1.4744 2.3461 1.8313 3.7035" fill="#a0c686"/><path id="path560" d="m297.45 23.894c-0.32179-0.04096-0.64943-0.08191-0.98292-0.10531-1.5036-3.6508-5.055-6.2369-9.1856-6.3656-0.23988-0.23988-17.576-0.4388-29.675-0.54412 0.36274-0.18137 0.74304-0.3686 1.1292-0.53242 12.234 0.09361 28.979 0.26328 29.178 0.49731 4.4407 0.08191 8.2027 3.0248 9.5367 7.0501" fill="#a0c686"/><path id="path562" d="m296.47 23.789c-0.33349-0.0234-0.67284-0.04096-1.0122-0.04096-1.5855-3.3115-4.9204-5.6284-8.8053-5.7454-0.24573-0.28083-18.161-0.46221-30.09-0.56167 0.33934-0.19307 0.68453-0.37445 1.0473-0.56167 12.099 0.10531 29.435 0.30424 29.675 0.54412 4.1306 0.12872 7.682 2.7147 9.1856 6.3656" fill="#a1c786"/><path id="path564" d="m294.43 23.766c-1.644-3.0014-4.7917-5.0726-8.4133-5.1837-0.28669-0.28668-18.629-0.50316-30.342-0.60847 0.28083-0.17552 0.57922-0.36274 0.88346-0.53242 11.93 0.09946 29.844 0.28084 30.09 0.56167 3.8849 0.12286 7.2198 2.4339 8.8053 5.7454-0.0761-0.0059-0.14627-0.0059-0.22232-0.0059-0.26914 0.0059-0.53242 0.0059-0.80155 0.0234" fill="#a1c786"/><path id="path566" d="m293.4 23.842c-1.685-2.7264-4.6455-4.5694-8.0155-4.6806-0.29254-0.33349-18.997-0.56167-30.488-0.66113 0.24573-0.17552 0.50902-0.35689 0.77815-0.52656 11.713 0.11116 30.055 0.32764 30.342 0.60847 3.6216 0.11116 6.7693 2.1823 8.4133 5.1837-0.3452 0.0117-0.69039 0.04096-1.0297 0.07606" fill="#a2c886"/><path id="path568" d="m292.4 23.988c-1.6733-2.4573-4.4466-4.1131-7.5884-4.2418-0.37445-0.34519-19.378-0.59677-30.617-0.71379 0.22817-0.18137 0.4622-0.36274 0.70793-0.53242 11.491 0.10531 30.196 0.33349 30.488 0.66113 3.37 0.11116 6.3305 1.9541 8.0155 4.6806-0.33934 0.04095-0.67868 0.09361-1.0063 0.14627" fill="#a3c886"/><path id="path570" d="m291.42 24.193c-1.6792-2.2467-4.3061-3.7445-7.2432-3.8673-0.3803-0.3803-19.623-0.64943-30.605-0.7723 0.19893-0.17552 0.4037-0.35689 0.62018-0.52071 11.239 0.12286 30.242 0.3686 30.617 0.71379 3.1418 0.12286 5.9151 1.7845 7.5884 4.2418-0.33349 0.05266-0.66113 0.12872-0.97707 0.20478" fill="#a3c986"/><path id="path572" d="m290.46 24.462c-1.6499-2.0712-4.1248-3.4402-6.9156-3.5572-0.4271-0.3803-19.834-0.67868-30.541-0.8191 0.18137-0.18137 0.3686-0.35689 0.56752-0.53242 10.982 0.12286 30.225 0.38615 30.605 0.7723 2.9371 0.12286 5.564 1.6206 7.2432 3.8673-0.32764 0.07606-0.64943 0.16967-0.95952 0.26913" fill="#a4c986"/><path id="path574" d="m289.53 24.784c-1.6206-1.9249-3.9843-3.1886-6.623-3.2998-0.42711-0.4271-19.963-0.74304-30.4-0.87761 0.15797-0.17552 0.32179-0.35104 0.49146-0.52071 10.707 0.13457 30.114 0.43295 30.541 0.8191 2.7908 0.12286 5.2656 1.4919 6.9156 3.5572-0.31594 0.09361-0.62603 0.21062-0.92441 0.32179" fill="#a4c986"/><path id="path576" d="m288.66 25.181c-1.5797-1.7962-3.8439-2.978-6.3831-3.1184-0.47391-0.43295-20.05-0.77815-30.207-0.92441 0.14041-0.17552 0.28668-0.35689 0.4388-0.53242 10.438 0.13457 29.973 0.4505 30.4 0.87761 2.6387 0.11701 5.0024 1.3749 6.623 3.2998-0.29839 0.12872-0.59093 0.25158-0.87176 0.39785" fill="#a5c986"/><path id="path578" d="m287.84 25.638c-1.5563-1.726-3.7503-2.8552-6.1901-2.9956-0.47976-0.47976-20.056-0.8425-29.956-0.98292 0.11702-0.17552 0.24573-0.35689 0.3803-0.52656 10.157 0.14627 29.733 0.49146 30.207 0.92441 2.5392 0.14042 4.8034 1.3281 6.3831 3.1184-0.28668 0.15212-0.56167 0.29839-0.82495 0.46221" fill="#a6c986"/><path id="path580" d="m287.08 26.17c-1.5329-1.685-3.6801-2.7849-6.0614-2.8961-0.52071-0.56167-20.015-0.94196-29.651-1.0882 0.0995-0.17552 0.21063-0.35689 0.32764-0.52656 9.8994 0.14042 29.476 0.50316 29.956 0.98292 2.4398 0.13457 4.6338 1.2696 6.1901 2.9956-0.26913 0.16967-0.52071 0.33934-0.76059 0.53242" fill="#a6ca87"/><path id="path582" d="m286.4 26.744c-1.5095-1.6792-3.645-2.7849-6.0204-2.8903-0.52657-0.57337-19.91-0.98292-29.3-1.1409 0.0819-0.17552 0.17552-0.35689 0.28083-0.52656 9.6361 0.14042 29.131 0.52656 29.651 1.0882 2.3812 0.11701 4.5285 1.2111 6.0614 2.8961-0.24573 0.18722-0.46806 0.3803-0.67284 0.57337m2.4514 8.9926c-6e-3 -0.09361-6e-3 -0.18722-0.0117-0.28084 0.11117 0.05266 0.22818 0.11116 0.34519 0.15797-0.11116 0.0468-0.22232 0.08191-0.33349 0.12286" fill="#a7ca86"/><path id="path584" d="m285.77 27.452c-1.4861-1.7318-3.6333-2.8786-6.0204-3.0248-0.56752-0.60847-19.746-1.0356-28.903-1.1935 0.0702-0.17552 0.14627-0.35104 0.23403-0.52656 9.3904 0.15797 28.774 0.57337 29.3 1.1409 2.3754 0.11116 4.5109 1.2111 6.0204 2.8903-0.23403 0.23403-0.44465 0.46806-0.63187 0.71379m2.311 8.5537c-0.0117-0.34519-0.0234-0.66698-0.041-0.97707 0.25744 0.15212 0.52657 0.29839 0.80155 0.4271 6e-3 0.09361 6e-3 0.18722 0.0117 0.28084-0.25743 0.09946-0.51486 0.18722-0.77229 0.26913" fill="#a7ca86"/><path id="path586" d="m285.26 28.265c-1.4568-1.8547-3.6567-3.1009-6.1374-3.2588-0.57337-0.60847-19.512-1.0707-28.458-1.2404 0.0527-0.18137 0.11702-0.35689 0.18723-0.53242 9.1564 0.15797 28.335 0.58507 28.903 1.1935 2.3871 0.14042 4.5343 1.293 6.0204 3.0248-0.19893 0.25743-0.3686 0.52656-0.51487 0.81325m2.036 7.9979c-0.0234-0.68453-0.0527-1.293-0.0819-1.7786 0.26328 0.19307 0.53827 0.37445 0.8308 0.54412 0.0176 0.31009 0.0293 0.63188 0.041 0.97707-0.26328 0.09361-0.52657 0.17552-0.78985 0.25743" fill="#a8cb86"/><path id="path588" d="m284.88 29.265c-1.4217-2.0887-3.7328-3.5163-6.3363-3.6742-0.65528-0.65528-19.284-1.0941-28.025-1.2462 0.041-0.19307 0.0878-0.38615 0.14626-0.57922 8.9458 0.16967 27.885 0.62603 28.458 1.2404 2.4807 0.15212 4.6806 1.3983 6.1374 3.2588-0.16382 0.32179-0.29253 0.64943-0.38029 1.0005m1.644 7.2256c-0.0468-1.3398-0.0936-2.3227-0.15212-2.7264 0.25743 0.25158 0.53827 0.49146 0.8425 0.71964 0.0293 0.48561 0.0585 1.0941 0.0819 1.7786-0.25158 0.08776-0.50901 0.16382-0.77229 0.22818" fill="#a9cb86"/><path id="path590" d="m284.84 31.126c-1.217-2.7557-3.879-4.7215-6.9331-4.9614-0.65528-0.65528-18.915-1.1233-27.487-1.293 0.0234-0.18137 0.0526-0.36274 0.0936-0.53242 8.741 0.15212 27.37 0.59092 28.025 1.2462 2.6036 0.15797 4.9146 1.5855 6.3363 3.6742-0.0819 0.32764-0.12287 0.66113-0.12287 1.0122 0 0.29839 0.0351 0.57337 0.0878 0.8542m0.90686 5.5757c-0.0585-1.4978-0.12871-2.4983-0.20477-2.6387-0.0293-0.60848-0.12872-1.2111-0.28669-1.7845 0.26914 0.53242 0.64943 1.0297 1.1116 1.4861 0.0585 0.39785 0.10531 1.3808 0.15212 2.7264-0.25158 0.08191-0.50901 0.15212-0.7723 0.21063" fill="#a9cc87"/><path id="path592" d="m284.96 36.906c-0.0644-1.3749-0.12872-2.2818-0.20478-2.4163-0.21062-4.1072-3.4753-7.4246-7.4772-7.7405-0.69624-0.69624-18.5-1.1643-26.902-1.3398 0.0117-0.18137 0.0234-0.36274 0.0468-0.52656 8.5713 0.16382 26.831 0.63188 27.487 1.293 3.0541 0.23988 5.7162 2.2057 6.9331 4.9614 0.0878 0.39785 0.22233 0.78985 0.4154 1.1526 0.15797 0.57337 0.25743 1.1701 0.28669 1.7845 0.0761 0.14042 0.14627 1.1409 0.20477 2.6387-0.25743 0.06436-0.52071 0.12872-0.78984 0.19307" fill="#aacc87"/><path id="path594" d="m284.18 37.082c-0.0644-1.2228-0.14042-2.036-0.21648-2.1706-0.21062-4.0077-3.4227-7.2666-7.3192-7.5825-0.73719-0.69624-18.009-1.2052-26.27-1.3925-6e-3 -0.08191-6e-3 -0.15797-6e-3 -0.23988 0-0.09946 0-0.19892 6e-3 -0.29254 8.4016 0.17552 26.205 0.64358 26.902 1.3398 4.0019 0.32179 7.2666 3.6333 7.4772 7.7405 0.0761 0.13457 0.14042 1.0414 0.20478 2.4163-0.25744 0.05851-0.51487 0.12872-0.77815 0.18137" fill="#aacc87"/><path id="path596" d="m283.38 37.246c-0.0643-1.0531-0.12871-1.7377-0.20477-1.8605-0.21063-3.9492-3.3174-7.1671-7.1613-7.4772-0.73719-0.73719-17.459-1.2462-25.597-1.4393-0.0175-0.17552-0.0351-0.35689-0.041-0.53242 8.2612 0.18722 25.533 0.69624 26.27 1.3925 3.8966 0.31594 7.1086 3.5748 7.3192 7.5825 0.0761 0.13457 0.15212 0.94782 0.21648 2.1706-0.26328 0.05851-0.53241 0.11116-0.80155 0.16382" fill="#abcd87"/><path id="path598" d="m282.62 37.386c-0.0585-0.87761-0.12286-1.4568-0.18722-1.5797-0.26328-3.8439-3.3174-6.9507-7.056-7.3251-0.73134-0.7723-16.85-1.293-24.877-1.4919-0.0351-0.16967-0.0644-0.35104-0.0878-0.52656 8.1384 0.19307 24.86 0.70209 25.597 1.4393 3.8439 0.31594 6.9506 3.5338 7.1613 7.4772 0.0761 0.12286 0.14042 0.81325 0.20477 1.8605-0.25158 0.05851-0.50316 0.10531-0.75474 0.14627" fill="#accd87"/><path id="path600" d="m281.82 37.526c-0.0527-0.71379-0.11116-1.1818-0.16967-1.3047-0.26328-3.7386-3.212-6.7927-6.898-7.1613-0.76645-0.76644-16.195-1.3223-24.111-1.5329-0.0526-0.17552-0.0995-0.36274-0.13456-0.54412 8.0272 0.19892 24.146 0.71964 24.877 1.4919 3.7386 0.3686 6.7927 3.4812 7.056 7.3251 0.0644 0.12286 0.12871 0.69624 0.18722 1.5797-0.26913 0.05266-0.53827 0.09361-0.8074 0.14627" fill="#accd87"/><path id="path602" d="m281.02 37.644c-0.0468-0.51486-0.0995-0.84835-0.15797-0.94196-0.26328-3.686-3.1594-6.6874-6.74-7.056-0.75474-0.7957-15.481-1.3457-23.298-1.5738-0.0702-0.17552-0.12871-0.36274-0.18137-0.53827 7.916 0.21063 23.344 0.76644 24.111 1.5329 3.686 0.3686 6.6347 3.4227 6.898 7.1613 0.0585 0.12286 0.11702 0.59092 0.16967 1.3047-0.26328 0.0351-0.53241 0.07021-0.80155 0.11116" fill="#adce87"/><path id="path604" d="m280.19 37.743c-0.0351-0.33349-0.0761-0.54997-0.12286-0.62018-0.26329-3.5806-3.1067-6.5294-6.5821-6.898-0.784-0.78985-14.726-1.3632-22.438-1.6089-0.0819-0.18137-0.15797-0.36274-0.22818-0.54412 7.8166 0.22233 22.543 0.77814 23.298 1.5738 3.5806 0.3686 6.4767 3.37 6.74 7.056 0.0585 0.09946 0.11117 0.4271 0.15797 0.94196-0.26913 0.02925-0.54411 0.06436-0.82495 0.09946" fill="#adce87"/><path id="path606" d="m279.41 37.831c-0.0234-0.14042-0.0468-0.23988-0.0761-0.28668-0.31594-3.4812-3.0541-6.3188-6.4768-6.74-0.77229-0.81325-13.925-1.3983-21.519-1.6499-0.10532-0.16967-0.19893-0.35689-0.28669-0.53827 7.7112 0.24573 21.654 0.82495 22.438 1.6089 3.4753 0.3686 6.3188 3.3115 6.5821 6.898 0.0468 0.07606 0.0878 0.29254 0.12286 0.62018-0.25743 0.0351-0.52071 0.06436-0.78399 0.08776" fill="#aecf87"/><path id="path608" d="m278.53 37.907c-0.36275-3.3759-3.0248-6.114-6.2544-6.5294-0.8308-0.7957-13.135-1.3925-20.6-1.6792-0.12287-0.17552-0.23403-0.36274-0.33934-0.54997 7.5942 0.25158 20.747 0.8425 21.519 1.6499 3.4227 0.42125 6.1608 3.2647 6.4768 6.74 0.0292 0.0468 0.0527 0.14042 0.0761 0.28668-0.29254 0.0351-0.58508 0.06436-0.87761 0.08191" fill="#afcf87"/><path id="path610" d="m277.69 37.965c-0.50317-3.095-2.9897-5.605-6.0496-6.0028-0.81324-0.8191-12.251-1.4217-19.571-1.7084-0.14042-0.18137-0.27499-0.3686-0.39785-0.55582 7.4655 0.28668 19.77 0.88346 20.6 1.6792 3.2296 0.4154 5.8917 3.1535 6.2544 6.5294-0.28084 0.0234-0.55582 0.04095-0.83665 0.05851" fill="#afcf87"/><path id="path612" d="m276.83 38.018c-0.63188-2.8259-2.9839-5.0901-5.8156-5.4821-0.82495-0.78985-11.298-1.3866-18.436-1.685-0.17552-0.19892-0.34519-0.392-0.50316-0.60262 7.3192 0.28669 18.757 0.88931 19.571 1.7084 3.0599 0.39785 5.5465 2.9078 6.0496 6.0028-0.28669 0.02925-0.57922 0.04681-0.86591 0.05851" fill="#b0cf87"/><path id="path614" d="m275.93 38.053c-0.73719-2.5626-2.9663-4.5226-5.5523-4.9322-0.83665-0.8074-10.367-1.3925-17.265-1.7026-0.18722-0.18722-0.36274-0.37445-0.53826-0.56752 7.1379 0.29839 17.611 0.89516 18.436 1.685 2.8317 0.38615 5.1837 2.6504 5.8156 5.4821-0.29839 0.01755-0.59677 0.02925-0.89516 0.03511" fill="#b0cf87"/><path id="path616" d="m275.03 38.071c-0.86006-2.2642-2.902-3.996-5.2832-4.3705-0.80155-0.80155-9.3846-1.3925-16.013-1.7201-0.21648-0.18137-0.42125-0.37445-0.62018-0.56167 6.898 0.31009 16.429 0.89516 17.265 1.7026 2.586 0.4037 4.8151 2.3695 5.5523 4.9322-0.29839 0.0059-0.59677 0.0117-0.90101 0.01755" fill="#b1d087"/><path id="path618" d="m274.64 38.071c-0.20477 0-0.4037 0-0.60262-0.0059-0.93612-1.9541-2.7966-3.4285-4.9263-3.7854-0.7957-0.76644-8.3782-1.3515-14.65-1.7084-0.25743-0.19307-0.49731-0.3803-0.73134-0.59092 6.6289 0.32764 15.212 0.91856 16.013 1.7201 2.3812 0.37445 4.4231 2.1063 5.2832 4.3705h-0.38615" fill="#b2d187"/><path id="path620" d="m274.04 38.065c-0.35689 0-0.70794-0.0117-1.059-0.0234-0.96537-1.6499-2.6094-2.861-4.4992-3.1828-0.75474-0.75474-7.3368-1.3398-13.193-1.6967-0.28668-0.19307-0.56167-0.38615-0.82495-0.59677 6.272 0.35689 13.854 0.94197 14.65 1.7084 2.1297 0.36274 3.9902 1.8371 4.9263 3.7913" fill="#b2d187"/><path id="path622" d="m272.98 38.041c-0.392-0.0117-0.77815-0.02925-1.1584-0.05851-0.96537-1.2872-2.3812-2.2174-3.9726-2.4983-0.72549-0.72549-6.231-1.3047-11.543-1.6909-0.3569-0.20478-0.69039-0.40955-1.018-0.63188 5.8566 0.36274 12.439 0.94197 13.193 1.6967 1.8898 0.32179 3.5338 1.5329 4.4992 3.1828" fill="#b3d287"/><path id="path624" d="m271.82 37.983c-0.43881-0.02925-0.86591-0.05851-1.293-0.09361-0.89516-0.93612-2.0536-1.5855-3.3115-1.8254-0.66113-0.68453-5.0843-1.2345-9.7297-1.6206-0.40955-0.21062-0.8074-0.4271-1.1818-0.64943 5.3124 0.38615 10.818 0.96537 11.543 1.6909 1.5914 0.28083 3.0073 1.2111 3.9726 2.4983" fill="#b3d287"/><path id="path626" d="m270.53 37.889c-0.50901-0.04681-1.018-0.09946-1.5153-0.15797-0.71378-0.53827-1.5387-0.91856-2.428-1.0882-0.58508-0.58507-3.7913-1.0824-7.5123-1.4627-0.54997-0.23403-1.0824-0.47976-1.5856-0.73719 4.6455 0.38615 9.0686 0.93612 9.7297 1.6206 1.2579 0.23988 2.4164 0.88931 3.3115 1.8254" fill="#b4d287"/><path id="path628" d="m269.02 37.731c-0.91856-0.11116-1.8196-0.25158-2.6972-0.40955-0.12286-0.0351-0.23988-0.07021-0.36274-0.09946-0.43295-0.4388-2.2291-0.8425-4.587-1.1701-0.80155-0.26913-1.568-0.56167-2.2935-0.86591 3.721 0.3803 6.9272 0.87761 7.5123 1.4627 0.8893 0.16382 1.7143 0.54412 2.428 1.0824" fill="#b5d287"/><path id="path630" d="m266.32 37.322c-1.7552-0.33349-3.411-0.75474-4.9497-1.2696 2.3578 0.33349 4.154 0.73134 4.587 1.1701 0.12286 0.02925 0.23988 0.06436 0.36274 0.09946" fill="#b5d387"/><path id="path632" d="m304.99 32.583-0.0117-4.6338c0.4388 0.71964 0.67868 1.5036 0.67868 2.3227 0 0.81325-0.23988 1.5914-0.66698 2.311" fill="#9bc486"/><path id="path634" d="m304.25 33.554-0.0117-6.5762c0.28668 0.31594 0.53241 0.63188 0.73719 0.97122l0.0117 4.6338c-0.20477 0.34519-0.4505 0.66698-0.73719 0.97122" fill="#9bc486"/><path id="path636" d="m303.48 34.268-0.0293-8.0155c0.28669 0.22818 0.54997 0.47391 0.78985 0.72549l0.0117 6.5762c-0.23403 0.24573-0.49146 0.48561-0.77229 0.71379" fill="#9cc586"/><path id="path638" d="m302.69 34.841-0.0292-9.1505c0.28083 0.18137 0.54411 0.3686 0.78984 0.56752l0.0293 8.0155c-0.24573 0.19892-0.50902 0.392-0.78985 0.56752" fill="#9cc586"/><path id="path640" d="m301.92 35.286-0.0526-10.057c0.28083 0.14627 0.54411 0.29839 0.7957 0.45636l0.0292 9.1505c-0.24573 0.15797-0.50316 0.31594-0.7723 0.45051" fill="#9dc586"/><path id="path642" d="m301.17 35.648-0.0351-10.373c0-0.12872-0.0117-0.26328-0.0176-0.38615 0.26328 0.11116 0.51486 0.22818 0.75474 0.35104l0.0526 10.057c-0.23987 0.11701-0.49731 0.23403-0.75474 0.35104" fill="#9dc586"/><path id="path644" d="m300.39 35.947-0.0527-10.256c-6e-3 -0.38615-0.0292-0.76644-0.0702-1.1409 0.28669 0.10531 0.57337 0.21063 0.84251 0.33349 6e-3 0.12286 0.0176 0.25743 0.0176 0.38615l0.0351 10.373c-0.25158 0.11116-0.50901 0.21648-0.77229 0.30424" fill="#9ec586"/><path id="path646" d="m299.62 36.198-0.0702-10.034c-6e-3 -0.64358-0.0702-1.2755-0.18722-1.8898 0.31009 0.08776 0.60848 0.17552 0.90686 0.27498 0.041 0.37445 0.0644 0.75474 0.0702 1.1409l0.0527 10.256c-0.25158 0.08776-0.50902 0.18137-0.7723 0.25158" fill="#9ec686"/><path id="path648" d="m298.83 36.409-0.0644-9.0979c0.13456-0.53242 0.20477-1.0765 0.20477-1.6148 0-0.52656-0.0643-1.0531-0.19307-1.5621 0.19892 0.04681 0.392 0.09361 0.58507 0.14042 0.11702 0.61432 0.18137 1.2462 0.18722 1.8898l0.0702 10.034c-0.25743 0.07021-0.52071 0.14627-0.78984 0.21063" fill="#9fc686"/><path id="path650" d="m298.06 36.561-0.0702-7.3836c0.35105-0.60262 0.61433-1.2345 0.77815-1.8664l0.0644 9.0979c-0.25158 0.05266-0.51487 0.09946-0.7723 0.15212" fill="#a0c686"/><path id="path652" d="m297.32 36.672-0.0585-6.4124c0.28084-0.35689 0.52072-0.71379 0.73134-1.0882l0.0702 7.3836c-0.24573 0.05266-0.49146 0.08776-0.74304 0.11701" fill="#a0c686"/><path id="path654" d="m296.53 36.748-0.0526-5.5874c0.28668-0.29254 0.54996-0.59677 0.78399-0.89516l0.0585 6.4124c-0.25743 0.0234-0.52071 0.05266-0.78985 0.07021" fill="#a1c786"/><path id="path656" d="m295.75 36.801-0.0527-4.897c0.27499-0.23988 0.53242-0.48561 0.77815-0.74304l0.0526 5.5874c-0.25743 0.02925-0.51486 0.04095-0.77814 0.05266" fill="#a1c786"/><path id="path658" d="m295.23 36.807c-0.0936 0-0.18138 0-0.27499-0.0059l-0.0527-4.2593c0.27499-0.21062 0.53827-0.42125 0.78985-0.63773l0.0527 4.897c-0.16967 0-0.33934 0.0059-0.51486 0.0059" fill="#a2c886"/><path id="path660" d="m294.96 36.801c-0.26328 0-0.52071-0.0117-0.77814-0.0351l-0.0527-3.6625c0.26913-0.17552 0.53241-0.3686 0.77814-0.56167l0.0527 4.2593" fill="#a3c886"/><path id="path662" d="m294.18 36.766c-0.25158-0.0117-0.49731-0.0351-0.74304-0.06436l-0.0468-3.1243c0.25158-0.14627 0.49731-0.31009 0.73719-0.47391l0.0527 3.6625" fill="#a3c986"/><path id="path664" d="m293.44 36.702c-0.23403-0.0234-0.45636-0.05266-0.68454-0.08191-0.0117-0.95367-0.0292-1.843-0.0409-2.6387 0.23402-0.12872 0.45635-0.26328 0.67868-0.4037l0.0468 3.1243" fill="#a4c986"/><path id="path666" d="m292.75 36.625c-0.26328-0.04096-0.52656-0.08776-0.78399-0.14042-0.0117-0.74304-0.0234-1.4393-0.041-2.0712 0.26913-0.14042 0.52656-0.28084 0.784-0.42125 0.0117 0.784 0.0292 1.6792 0.0409 2.6328" fill="#a4c986"/><path id="path668" d="m291.97 36.479c-0.25744-0.05266-0.51487-0.11116-0.76645-0.16967-0.0117-0.54412-0.0234-1.059-0.0351-1.5387 0.25743-0.11702 0.51486-0.24573 0.76059-0.3686 0.0176 0.63773 0.0293 1.334 0.041 2.077" fill="#a5c986"/><path id="path670" d="m291.2 36.31c-0.26328-0.07606-0.52656-0.14627-0.77814-0.22818-0.0117-0.33934-0.0176-0.64943-0.0234-0.95367 0.26329-0.12286 0.51487-0.22818 0.76645-0.35689 0.0117 0.47976 0.0234 0.99462 0.0351 1.5387" fill="#a6c986"/><path id="path672" d="m290.42 36.081c-0.26914-0.08776-0.52657-0.17552-0.77815-0.27498 0-0.12286-6e-3 -0.24573-6e-3 -0.3686 0.25743-0.10531 0.50901-0.21063 0.76059-0.31594 6e-3 0.31009 0.0117 0.62018 0.0234 0.95952" fill="#a6ca87"/><path id="path674" d="m289.65 35.806c-0.15212-0.06436-0.30424-0.12286-0.45636-0.18722 0.15212-0.05851 0.29839-0.12286 0.45051-0.17552 0 0.11701 6e-3 0.23988 6e-3 0.36274" fill="#a7ca86"/><path id="path676" d="m298.77 27.311-6e-3 -0.71964c-6e-3 -0.87176-0.12287-1.7201-0.33934-2.5392 0.12286 0.0234 0.23988 0.05266 0.35689 0.08191 0.12872 0.50901 0.19307 1.0356 0.19307 1.5621 0 0.53827-0.0702 1.0824-0.20477 1.6148" fill="#c4d9b1"/><path id="path678" d="m297.99 29.178-0.0176-2.1706c-0.0117-1.0882-0.19307-2.1297-0.52071-3.1126 0.32764 0.04681 0.65528 0.09946 0.97122 0.15797 0.21647 0.8191 0.33349 1.6616 0.33934 2.5392l6e-3 0.71964c-0.16382 0.63188-0.4271 1.2696-0.77815 1.8664" fill="#c4d9b1"/><path id="path680" d="m297.26 30.266-0.0234-2.7849c-0.0234-1.3047-0.29839-2.5509-0.76644-3.6918 0.33349 0.0234 0.66113 0.06436 0.98292 0.10531 0.32764 0.98292 0.50901 2.0302 0.52071 3.1126l0.0176 2.1706c-0.21062 0.37445-0.4505 0.73134-0.73134 1.0882" fill="#c4d9b1"/><path id="path682" d="m296.47 31.161-0.0293-3.2588c-0.0292-1.4861-0.38029-2.8903-0.98877-4.154 0.33934 0 0.67869 0.01755 1.0122 0.04096 0.46805 1.1409 0.74304 2.3871 0.76644 3.6918l0.0234 2.7849c-0.23403 0.30424-0.49731 0.60262-0.78399 0.89516" fill="#c5d9b1"/><path id="path684" d="m295.7 31.904-0.041-3.5748c-0.0351-1.6441-0.47391-3.2003-1.2228-4.5577 0.26913-0.01755 0.53241-0.0234 0.80155-0.0234 0.076 0 0.14626 0 0.22232 0.0059 0.60848 1.2638 0.95952 2.6679 0.98877 4.154l0.0293 3.2588c-0.24573 0.25158-0.50316 0.49731-0.77815 0.73719" fill="#c5dab1"/><path id="path686" d="m294.91 32.542-0.041-3.7445c-0.0351-1.8137-0.56752-3.5104-1.4627-4.9614 0.33934-0.0351 0.68453-0.06436 1.0297-0.07606 0.74889 1.3574 1.1877 2.9137 1.2228 4.5577l0.041 3.5748c-0.25158 0.22818-0.51486 0.4388-0.78985 0.64943" fill="#c6dab1"/><path id="path688" d="m294.13 33.103-0.0527-3.879c-0.041-1.9366-0.65528-3.7386-1.6792-5.2422 0.32764-0.05266 0.66698-0.10531 1.0063-0.14042 0.89516 1.451 1.4276 3.1477 1.4627 4.9614l0.041 3.7445c-0.24573 0.19307-0.50901 0.3803-0.77814 0.55582" fill="#c6dab1"/><path id="path690" d="m293.39 33.577-0.0527-3.9375c-0.0643-2.0302-0.77229-3.92-1.919-5.4529 0.31594-0.07606 0.64358-0.14627 0.97707-0.20478 1.0239 1.5036 1.6382 3.2998 1.6792 5.2422l0.0527 3.879c-0.23988 0.16382-0.48561 0.32764-0.73719 0.47391" fill="#c6dab1"/><path id="path692" d="m292.71 33.987c-0.0468-2.2525-0.0995-3.7679-0.16382-3.8673-0.0702-2.1297-0.84251-4.0955-2.0887-5.6576 0.31009-0.09946 0.63188-0.18722 0.95952-0.26913 1.1467 1.5329 1.8547 3.4227 1.919 5.4529l0.0527 3.9375c-0.22233 0.14042-0.44466 0.26913-0.67868 0.4037" fill="#c7dbb1"/><path id="path694" d="m291.93 34.408c-0.0468-2.2408-0.10531-3.762-0.16967-3.8673-0.0702-2.1765-0.90101-4.1833-2.2233-5.7513 0.29838-0.11702 0.60847-0.22818 0.92441-0.32764 1.2462 1.5621 2.0185 3.528 2.0887 5.6576 0.0643 0.10531 0.11701 1.6148 0.16382 3.8673-0.25744 0.14042-0.51487 0.27498-0.784 0.42125" fill="#c7dbb1"/><path id="path696" d="m291.17 34.771c-0.0585-2.194-0.12287-3.686-0.19893-3.8088-0.0702-2.1999-0.93026-4.2301-2.3052-5.7805 0.28083-0.14042 0.57337-0.26913 0.87176-0.392 1.3223 1.5738 2.1531 3.5748 2.2233 5.7513 0.0644 0.11116 0.12286 1.6265 0.16967 3.8673-0.24573 0.11701-0.50316 0.25158-0.76059 0.36274" fill="#c7dbb1"/><path id="path698" d="m290.4 35.128c-0.0526-2.1297-0.10531-3.5689-0.16967-3.6918-0.0995-2.2233-0.98877-4.2535-2.3929-5.7981 0.26328-0.15797 0.53827-0.31009 0.82495-0.45636 1.3749 1.5563 2.235 3.5806 2.3052 5.7805 0.0761 0.12286 0.14042 1.6148 0.19893 3.8088-0.25158 0.12872-0.50316 0.23403-0.76645 0.35689" fill="#c8dbb1"/><path id="path700" d="m289.64 35.444c-0.0585-2.0653-0.12287-3.4636-0.19892-3.5865-0.0995-2.1706-0.98292-4.1657-2.3637-5.6869 0.23988-0.18722 0.49146-0.36274 0.76059-0.53242 1.4042 1.5504 2.2935 3.5748 2.3929 5.7981 0.0644 0.12286 0.11702 1.5621 0.16967 3.6918-0.25158 0.09946-0.50316 0.21063-0.76059 0.31594" fill="#c8dcb1"/><path id="path702" d="m289.19 35.619c-0.11701-0.05266-0.23402-0.11116-0.34519-0.15797-0.0585-1.8313-0.12286-3.0482-0.19307-3.1828-0.0761-2.1004-0.91271-4.0428-2.2467-5.5289 0.20478-0.19307 0.42711-0.38615 0.67284-0.57922 1.3808 1.5212 2.2642 3.5163 2.3637 5.6869 0.0761 0.12286 0.14041 1.527 0.19892 3.5865-0.15212 0.05266-0.29839 0.11701-0.45051 0.17552" fill="#c9dcb1"/><path id="path704" d="m288.84 35.455c-0.27498-0.12872-0.54411-0.27498-0.80155-0.4271-0.0527-1.3223-0.11116-2.1765-0.18137-2.2818-0.0702-2.0068-0.8542-3.8556-2.0887-5.2949 0.18722-0.24573 0.39784-0.47976 0.63187-0.70794 1.334 1.4861 2.1706 3.4285 2.2467 5.5289 0.0702 0.13457 0.13457 1.3574 0.19307 3.1828" fill="#c9dcb1"/><path id="path706" d="m288.04 35.028c-0.29253-0.16382-0.56752-0.35104-0.8308-0.54412-0.041-0.75474-0.0878-1.2286-0.14041-1.3164-0.0644-1.8371-0.7372-3.5397-1.8137-4.9088 0.14627-0.28668 0.31594-0.55582 0.51487-0.81325 1.2345 1.4393 2.0185 3.294 2.0887 5.2949 0.0702 0.11116 0.12872 0.97122 0.18137 2.2876" fill="#c9dcb1"/><path id="path708" d="m287.21 34.484c-0.30423-0.22818-0.58507-0.46806-0.8425-0.71964-0.0117-0.08776-0.0234-0.14042-0.0351-0.17552-0.0761-1.5914-0.60847-3.0775-1.4568-4.3237 0.0878-0.35104 0.21647-0.67868 0.38029-1.0005 1.0765 1.3632 1.7494 3.0658 1.8137 4.9088 0.0527 0.08191 0.0995 0.56167 0.14041 1.3106" fill="#caddb1"/><path id="path710" d="m286.37 33.764c-0.46221-0.45636-0.8425-0.95367-1.1116-1.4861-0.11116-0.39785-0.24573-0.784-0.4154-1.1526-0.0526-0.28083-0.0878-0.56167-0.0878-0.8542 0-0.35104 0.041-0.68453 0.12287-1.0122 0.84835 1.2462 1.3808 2.7323 1.4568 4.3237 0.0117 0.04096 0.0234 0.09946 0.0351 0.18137" fill="#caddb2"/><path id="path712" d="m285.26 32.278c-0.19307-0.3686-0.32764-0.75474-0.4154-1.1526 0.16967 0.37445 0.30424 0.75474 0.4154 1.1526" fill="#caddb2"/></g><g id="g1266" fill="#231f20"><g id="g1257"><path id="path724" transform="matrix(5.8507 0 0 5.8507 -99.006 -1874.2)" d="m125.01 339.11c0 0.295 0.239 0.535 0.534 0.535h1.504c0.294 0 0.534-0.24 0.534-0.535v-1.568c0-0.294 0.241-0.533 0.534-0.533h6.676c0.294 0 0.534-0.24 0.534-0.533v-1.149c0-0.293-0.24-0.534-0.534-0.534h-6.676c-0.293 0-0.534-0.239-0.534-0.533v-0.422c0-0.293 0.241-0.534 0.534-0.534h6.676c0.294 0 0.534-0.239 0.534-0.533v-1.225c0-0.295-0.24-0.534-0.534-0.534h-9.248c-0.295 0-0.534 0.239-0.534 0.534" clip-path="url(#SVGID_43_)"/><path id="path726" transform="matrix(5.8507 0 0 5.8507 -99.006 -1874.2)" d="m143.21 331.01h6.275c0.294 0 0.534 0.239 0.534 0.534v7.565c0 0.295-0.24 0.535-0.534 0.535h-1.672c-0.294 0-0.536-0.24-0.539-0.535l-0.041-5.273c-2e-3 -0.293-0.245-0.534-0.538-0.534h-1.231c-0.294 0-0.535 0.241-0.536 0.534l-9e-3 5.273c-1e-3 0.295-0.24 0.535-0.535 0.535h-1.472c-0.294 0-0.534-0.24-0.534-0.535v-5.273c0-0.293-0.241-0.534-0.534-0.534h-1.607c-0.294 0-0.535 0.241-0.535 0.534v5.273c0 0.295-0.24 0.535-0.533 0.535h-1.606c-0.294 0-0.534-0.24-0.534-0.535v-7.565c0-0.295 0.24-0.534 0.534-0.534" clip-path="url(#SVGID_43_)"/></g><g id="g1253"><path id="path714" d="m460.05 0.45051c-5.1545 0-11.216 3.7854-13.468 8.4192l-33.7 69.138c-2.2642 4.6338-5.9619 4.6338-8.2144 0l-33.706-69.138c-2.2584-4.6338-8.3197-8.4192-13.474-8.4192h-14.404c-5.1545 0-7.6586 3.8498-5.564 8.5654l42.418 95.373c2.1004 4.704 8.0272 8.5596 13.176 8.5596h31.307c5.1545 0 11.081-3.8556 13.176-8.5596l42.424-95.373c2.1004-4.7157-0.40369-8.5654-5.5582-8.5654"/><path id="path728" d="m125.67 0.45051c-5.1545 0-9.367 4.2125-9.367 9.367v50.872c0 5.1545-3.2354 6.664-7.1847 3.3525l-68.799-57.583c-3.9492-3.2998-11.397-6.0087-16.552-6.0087h-14.404c-5.1545 0-9.367 4.2125-9.367 9.367v93.758c0 5.1545 4.2125 9.3728 9.367 9.3728h14.404c5.1545 0 9.3728-4.2184 9.3728-9.3728v-50.603c0-5.1545 3.2354-6.664 7.1964-3.3642l68.769 57.337c3.9551 3.2998 11.409 6.0028 16.563 6.0028h14.404c5.1545 0 9.3728-4.2184 9.3728-9.3728v-93.758c0-5.1545-4.2184-9.367-9.3728-9.367"/><path id="path738" transform="matrix(5.8507 0 0 5.8507 -99.006 -1874.2)" d="m115.4 338.22c0.358 0.805 1.372 1.464 2.252 1.464h2.463c0.881 0 1.309-0.659 0.951-1.464l-7.251-16.301c-0.359-0.805-1.372-1.463-2.252-1.463h-5.351c-0.881 0-1.894 0.658-2.252 1.463l-7.251 16.301c-0.358 0.805 0.07 1.464 0.951 1.464h2.462c0.881 0 1.895-0.659 2.252-1.464l0.882-1.98c0.357-0.804 1.37-1.463 2.251-1.463h6.76c0.882 0 1.894 0.659 2.252 1.463m-7.034-5.91c-0.881 0-1.278-0.646-0.884-1.433l1.569-3.135c0.394-0.787 1.04-0.787 1.434 1e-3l1.569 3.134c0.394 0.787-4e-3 1.433-0.885 1.433z" clip-path="url(#SVGID_45_)"/></g></g>
</svg>
