<svg id="a" version="1.1" viewBox="0 0 363.2 141.8" xml:space="preserve" xmlns="http://www.w3.org/2000/svg">
<style id="b" type="text/css">
	.st0{fill:#00B4C3;}
</style>
<path id="c" class="st0" d="m0 34.3h25.4v72.4h-25.4zm206.6 0h-27.9s-16.8 27.4-19.1 31.2-2.2 6.2 0.1 10.1 19 31.1 19 31.1h27.9s-19.7-32.4-20-32.8c-1.5-2.6-1.6-4.2-0.1-6.6zm-77.1 72.4h25.4v-72.4h-25.4zm-86.4-72.4h-16.3l16.4 72.4h27.6l-13.6-60.8c-1.3-6.6-7.1-11.6-14.1-11.6zm70.5-1.5c-7.9 0-14.3 6.5-14.3 14.4 0 8 6.4 14.4 14.3 14.4s14.3-6.5 14.3-14.4c0.1-7.9-6.4-14.4-14.3-14.4zm-41.2 73.9h25.4v-72.4h-25.4zm290.8-35.8c0 38.9-31.9 70.9-70.9 70.9s-70.9-31.9-70.9-70.9 31.8-70.9 70.9-70.9c39 0 70.9 31.9 70.9 70.9zm-13-0.2c0-32.5-25.7-58.4-57.9-58.4-31.8 0-57.9 26.2-57.9 58.6 0 32.1 26 58.6 57.9 58.6 32.2 0 57.9-26.8 57.9-58.8zm-81.3-11.8c-6.3 0-11.8 4.8-11.8 11.8s5.5 11.8 11.8 11.8c6.6 0 11.8-4.8 11.8-11.8s-5.2-11.8-11.8-11.8zm62.5 5.9h-10.8c-0.8 0-1.2-0.3-1.5-1.1l-3.1-10.2c-0.2-0.5-0.5-0.7-0.7 0l-3.7 10.6c-0.2 0.4-0.4 0.7-0.9 0.7h-10.8c-0.5 0-0.5 0.4-0.2 0.5l8.9 6.6c0.5 0.4 0.5 0.8 0.4 1.4l-3.2 10.2c-0.2 0.6 0.2 0.7 0.5 0.5l8.8-6.4c0.5-0.4 1.1-0.3 1.5 0l8.7 6.3c0.4 0.2 0.6 0.2 0.5-0.4l-3.1-10.2c-0.2-0.6-0.2-1 0.4-1.4l8.8-6.5c0.2-0.2 0.1-0.6-0.5-0.6z" fill="#00b4c3"/>
</svg>
