<?xml version="1.0" encoding="UTF-8" standalone="no"?>
<!-- Generator: Adobe Illustrator 22.0.1, SVG Export Plug-In . SVG Version: 6.00 Build 0)  -->

<svg
   xmlns:dc="http://purl.org/dc/elements/1.1/"
   xmlns:cc="http://creativecommons.org/ns#"
   xmlns:rdf="http://www.w3.org/1999/02/22-rdf-syntax-ns#"
   xmlns:svg="http://www.w3.org/2000/svg"
   xmlns="http://www.w3.org/2000/svg"
   xmlns:sodipodi="http://sodipodi.sourceforge.net/DTD/sodipodi-0.dtd"
   xmlns:inkscape="http://www.inkscape.org/namespaces/inkscape"
   version="1.1"
   id="Layer_1"
   x="0px"
   y="0px"
   viewBox="0 0 432.29998 86.900002"
   xml:space="preserve"
   sodipodi:docname="NRK Sport.svg"
   width="432.29999"
   height="86.900002"
   inkscape:version="0.92.3 (2405546, 2018-03-11)"><metadata
   id="metadata12"><rdf:RDF><cc:Work
       rdf:about=""><dc:format>image/svg+xml</dc:format><dc:type
         rdf:resource="http://purl.org/dc/dcmitype/StillImage" /><dc:title></dc:title></cc:Work></rdf:RDF></metadata><defs
   id="defs10" /><sodipodi:namedview
   pagecolor="#ffffff"
   bordercolor="#666666"
   borderopacity="1"
   objecttolerance="10"
   gridtolerance="10"
   guidetolerance="10"
   inkscape:pageopacity="0"
   inkscape:pageshadow="2"
   inkscape:window-width="716"
   inkscape:window-height="480"
   id="namedview8"
   showgrid="false"
   fit-margin-top="0"
   fit-margin-left="0"
   fit-margin-right="0"
   fit-margin-bottom="0"
   inkscape:zoom="0.65725526"
   inkscape:cx="216.05"
   inkscape:cy="43.55"
   inkscape:window-x="0"
   inkscape:window-y="0"
   inkscape:window-maximized="0"
   inkscape:current-layer="Layer_1" />
<style
   type="text/css"
   id="style2">
	.st0{fill:#FFFFFF;}
</style>
<g
   id="NRKSport-Vert.Sort"
   transform="translate(0,-0.4)">
	<path
   class="st0"
   d="m 223.3,69.5 c 15.6,0 24.9,-8.1 24.9,-21.8 0,-21.7 -28.8,-17.6 -28.8,-29.1 0,-3.7 2.4,-6.8 8.6,-6.8 1.9,0 3.8,0.3 5.9,1.2 l 2.1,6.4 h 10.1 V 5.1 c -5.5,-2.9 -11.8,-4.5 -18.5,-4.5 -13.1,0 -24,6 -24,19.5 0,22.5 29,16.5 29,29.9 0,5.3 -3.1,8.3 -8.6,8.3 -3.5,0 -6,-0.6 -7.8,-1.3 l -2.3,-8.4 h -10.2 v 16.9 c 5,2.4 12,4 19.6,4 z m 55.9,17.8 v -7.7 l -8.8,-1.8 V 64.9 c 1.9,1.8 6,4.7 12.2,4.7 12.5,0 20.1,-8.7 20.1,-27 0,-18.3 -8,-24.8 -18.6,-24.8 -5.6,0 -11.1,2.5 -14.7,6.5 h -0.2 l -1,-5.4 h -17 v 7.7 l 5.1,1.6 v 49.9 l -5.2,1.5 v 7.7 z M 279,57.9 c -3.2,0 -6.6,-1.5 -8.2,-2.6 V 32.9 c 1.8,-1.8 5.5,-3.4 8.7,-3.4 5.1,0 8,3.8 8,14.1 0,10.3 -3.3,14.3 -8.5,14.3 z m 53.7,11.6 c 14.7,0 24.9,-8.4 24.9,-26.2 0,-18.2 -9.2,-25.6 -23.7,-25.6 -14.9,0 -25.1,8 -25.1,26.5 0.1,16.6 9.4,25.3 23.9,25.3 z m 0.6,-11.1 c -5.6,0 -8.9,-4 -8.9,-15 0,-10.8 3.4,-14.6 8.9,-14.6 5.6,0 8.9,3.7 8.9,14.6 0,11 -3.3,15 -8.9,15 z m 56.2,10 v -7.7 l -8.3,-1.8 V 37 c 2.3,-3.2 5.9,-4.5 9.7,-4.5 1.6,0 3.2,0.3 4.7,0.5 l 1,-14.1 c -1.5,-0.4 -3.2,-0.5 -4.9,-0.5 -4.6,0 -9.4,2.4 -11.9,8.3 h -0.2 l -1.3,-7.8 h -16.7 v 7.7 l 5,1.6 v 31 l -5,1.6 v 7.7 h 27.9 z m 30.6,1.1 c 4.2,0 8.1,-0.7 12.2,-2 l -1.5,-10.1 c -1.7,0.4 -3.3,0.8 -5.2,0.8 -3.1,0 -4.3,-1.1 -4.3,-3.6 v -25 h 10.9 V 18.9 H 421.3 V 6.9 H 409.8 L 407.2,19 h -6.4 l -0.7,10.7 h 6.5 v 27.5 c 0,7.9 4.1,12.3 13.5,12.3 z M 160.7,1.9 h 25.8 L 167,32.8 c -0.7,1 -1.1,1.7 -1.1,2.4 0,0.7 0.2,1.2 1.1,2.5 l 19.5,30.7 H 160.7 L 144.3,39.2 c -0.7,-1.2 -1.6,-2.7 -1.6,-4.9 0,-1.6 0.4,-2.8 1.6,-5 z m -136.5,0 h 16.3 c 6,0 10,3.2 11.4,9.7 L 63.3,68.4 H 39 Z M 0,1.9 H 22.9 V 68.4 H 0 Z m 64.8,0 H 87.5 V 68.4 H 64.8 Z m 51.9,0 h 22.8 v 66.5 h -22.8 z m -1.5,11.4 c 0,-8.8 -6.4,-12.9 -12.8,-12.9 -6.5,0 -12.9,3.7 -12.9,12.9 0,9.2 6.4,12.9 12.9,12.9 6.3,0 12.8,-3.3 12.8,-12.9 z"
   id="path4"
   inkscape:connector-curvature="0"
   style="fill:#ffffff" />
</g>
</svg>