<?xml version="1.0" encoding="UTF-8" standalone="no"?>
<svg
   xmlns:dc="http://purl.org/dc/elements/1.1/"
   xmlns:cc="http://creativecommons.org/ns#"
   xmlns:rdf="http://www.w3.org/1999/02/22-rdf-syntax-ns#"
   xmlns:svg="http://www.w3.org/2000/svg"
   xmlns="http://www.w3.org/2000/svg"
   xmlns:sodipodi="http://sodipodi.sourceforge.net/DTD/sodipodi-0.dtd"
   xmlns:inkscape="http://www.inkscape.org/namespaces/inkscape"
   width="81"
   height="32"
   viewBox="0 0 81 32"
   version="1.1"
   id="svg23"
   sodipodi:docname="NRK P2.svg"
   inkscape:version="0.92.3 (2405546, 2018-03-11)">
  <metadata
     id="metadata27">
    <rdf:RDF>
      <cc:Work
         rdf:about="">
        <dc:format>image/svg+xml</dc:format>
        <dc:type
           rdf:resource="http://purl.org/dc/dcmitype/StillImage" />
        <dc:title>nrk-logo-nrk-p2--colorwhite</dc:title>
      </cc:Work>
    </rdf:RDF>
  </metadata>
  <sodipodi:namedview
     pagecolor="#ffffff"
     bordercolor="#666666"
     borderopacity="1"
     objecttolerance="10"
     gridtolerance="10"
     guidetolerance="10"
     inkscape:pageopacity="0"
     inkscape:pageshadow="2"
     inkscape:window-width="1920"
     inkscape:window-height="1017"
     id="namedview25"
     showgrid="false"
     fit-margin-top="0"
     fit-margin-left="0"
     fit-margin-right="0"
     fit-margin-bottom="0"
     inkscape:zoom="3.4634146"
     inkscape:cx="41"
     inkscape:cy="16"
     inkscape:window-x="-8"
     inkscape:window-y="-8"
     inkscape:window-maximized="1"
     inkscape:current-layer="svg23" />
  <!-- Generator: Sketch 46.2 (44496) - http://www.bohemiancoding.com/sketch -->
  <title
     id="title2">nrk-logo-nrk-p2--colorwhite</title>
  <desc
     id="desc4">Created with Sketch.</desc>
  <defs
     id="defs6" />
  <g
     id="Radio"
     style="fill:none;fill-rule:evenodd;stroke:none;stroke-width:1"
     transform="translate(0,-2)">
    <g
       id="nrk-logo-nrk-p2--colorwhite">
      <g
         id="nrk-tv-nrk-1__nrk--white"
         transform="translate(0,9)"
         style="fill:#ffffff">
        <g
           id="nrk-tv-nrk-1__nrk">
          <path
             d="M 41.27426,10.318843 C 40.93865,9.7168255 40.919415,9.3466775 41.243086,8.7654842 l 4.44672,-7.7066607 H 39.52082 c 0,0 -3.7063,6.4123123 -4.213031,7.3032882 -0.501867,0.889806 -0.480201,1.4438582 0.02056,2.3582313 C 35.835081,11.633547 39.52082,18 39.52082,18 h 6.168986 c 0,0 -4.366907,-7.586164 -4.415546,-7.681157"
             id="k"
             inkscape:connector-curvature="0" />
          <path
             style=""
             d="m 34.258069,1.0588235 h -5.6103 V 18 h 5.6103 z"
             id="polygon9" />
          <path
             d="m 25.127403,0.73058823 c -1.746365,0 -3.159773,1.51059537 -3.159773,3.37560587 0,1.8638401 1.413408,3.3791172 3.159773,3.3791172 1.749239,0 3.168617,-1.5152771 3.168617,-3.3791172 0,-1.8650105 -1.419378,-3.37560587 -3.168617,-3.37560587"
             id="o"
             inkscape:connector-curvature="0" />
          <path
             style=""
             d="M 21.611017,1.0588235 H 16.004034 V 18 h 5.606983 z"
             id="r" />
          <path
             style=""
             d="M 5.5965922,1.0588235 H 0 V 18 h 5.5965922 z"
             id="n" />
          <path
             d="M 12.648378,3.7806519 C 12.361186,2.2282294 11.078661,1.0588235 9.5414447,1.0588235 H 5.9368449 L 9.5589105,18 h 6.0929325 z"
             id="path14"
             inkscape:connector-curvature="0" />
        </g>
      </g>
      <path
         d="M 65.002146,2 C 56.162017,2 49,9.16285 49,17.999463 49,26.835004 56.162017,34 65.002146,34 73.83691,34 81,26.835004 81,17.999463 81,9.16285 73.83691,2 65.002146,2"
         id="radio-nrk-p2__p2"
         inkscape:connector-curvature="0"
         style="fill:#be1f3b" />
      <path
         d="m 73.859442,18.854585 c 1.536481,-1.627628 2.214592,-2.394769 2.214592,-4.073898 0,-2.920503 -2.198498,-4.8818102 -5.12339,-4.8818102 h -4.96352 c 1.119099,0.7038392 1.998928,1.9065882 2.456009,3.3754232 h 2.217811 c 0.681331,0 1.521459,0.523588 1.521459,1.457033 0,0.659849 -0.146995,0.908768 -0.637339,1.425918 -0.659871,0.693109 -1.317596,1.413042 -3.209227,3.483788 -1.891631,2.070746 -2.638412,3.164057 -2.638412,5.632859 v 0.830444 h 10.022532 v -3.479497 h -5.399142 l 3.538627,-3.77026"
         id="radio-nrk-p2__p2__2"
         inkscape:connector-curvature="0"
         style="fill:#ffffff" />
      <path
         d="M 61.348712,9.8226991 H 54.910944 V 26.200905 h 4.023605 V 13.278592 h 2.072962 c 1.61588,0 2.343347,0.865851 2.343347,2.231685 0,1.387292 -0.79721,2.229539 -2.435622,2.229539 h -0.736052 v 3.275641 h 0.964593 c 4.164163,0 6.187768,-2.160872 6.187768,-5.687578 0,-3.456965 -2.206009,-5.5051799 -5.982833,-5.5051799"
         id="radio-nrk-p2__p2__p"
         inkscape:connector-curvature="0"
         style="fill:#ffffff" />
    </g>
  </g>
</svg>
