<svg id="a" version="1.1" viewBox="0 0 284.1 24.3" xml:space="preserve" xmlns="http://www.w3.org/2000/svg">
<g id="c">
	<g id="d">
		<polygon id="e" class="st0" points="0 23.8 8.2 23.8 8.2 0.5 0 0.5 0 22"/>
		<rect id="f" class="st0" x="23.4" y=".5" width="8.2" height="23.3"/>
		<rect id="g" class="st0" x="42" y=".5" width="8.2" height="23.3"/>
		<g id="h">
			<path id="i" class="st0" d="m36.8 0c-2.6 0-4.6 2.1-4.6 4.6 0 2.6 2.1 4.7 4.6 4.7 2.6 0 4.6-2.1 4.6-4.7 0-2.5-2-4.6-4.6-4.6"/>
			<path id="j" class="st0" d="m60.4 13.3c-0.5-0.8-0.5-1.3-0.1-2.1l6.5-10.6h-9s-5.4 8.8-6.2 10c-0.7 1.2-0.7 2 0 3.2 0.7 1.3 6.1 10 6.1 10h9c0.2 0-6.2-10.4-6.3-10.5"/>
			<path id="k" class="st0" d="m18.5 4.3c-0.4-2.1-2.3-3.7-4.6-3.7h-5.3l5.4 23.2h8.9z"/>
		</g>
	</g>
</g>
<path id="l" class="st0" d="m74.9 0.5h13.9v2.2h-11.4v8.2h10v2.2h-10v10.7h-2.5z"/>
<path id="m" class="st0" d="m100.7 0.1c6 0 10.3 4 10.3 11.8 0 8.6-4.5 12.3-10.5 12.3-6.1 0-10.5-3.8-10.5-12.3 0-7.7 4.5-11.8 10.7-11.8zm-0.1 21.9c4.7 0 7.8-3.2 7.8-10.1 0-6.2-3.1-9.5-7.8-9.5-4.8 0-7.9 3.4-7.9 9.5 0 6.8 3.1 10.1 7.9 10.1z"/>
<path id="n" class="st0" d="m116.8 0.5v21.1h10.9v2.2h-13.4v-23.3z"/>
<path id="o" class="st0" d="m130.7 0.5h2.5v10.2h4.5l6-10.2h2.8l-6.6 11.2 7.8 12.1h-2.9l-7.1-11h-4.5v11h-2.5z"/>
<path id="p" class="st0" d="m150.9 0.5h14.6v2.2h-12.1v8h11v2.3h-11v8.6h12.3v2.2h-14.8z"/>
<path id="q" class="st0" d="m191.5 23.9-2-19.1-6.7 19.1h-2.1l-6.7-19.2-1.9 19.1h-2.4l2.3-23.3h2.9l6.8 19.7 6.9-19.7h2.9l2.4 23.3h-2.4z"/>
<path id="r" class="st0" d="m200.5 0.5v14.4c0 4.8 2.4 7.1 6.3 7.1 4.4 0 6-2.5 6-7.1v-14.4h2.5v14.7c0 6-2.9 9-8.6 9-5.2 0-8.6-2.8-8.6-9v-14.7z"/>
<path id="s" class="st0" d="m220.1 19.1c2.1 1.9 4.3 3 6.8 3 2.9 0 5.1-1.5 5.1-4.3 0-2.5-1.1-3.6-5.4-4.9-5.1-1.6-7.1-3.1-7.1-6.6 0-4 3.2-6.3 7.5-6.3 3 0 5.5 1.1 7.5 3.3l-1.6 1.7c-1.7-1.9-3.9-2.7-6-2.7-2.8 0-4.9 1.3-4.9 3.9 0 2.7 2 3.4 6 4.7 4.8 1.6 6.5 3.2 6.5 6.7 0 4.1-3.1 6.7-7.8 6.7-3.3 0-6.2-1.4-8.1-3.5z"/>
<path id="t" class="st0" d="m239.2 0.5h2.5v23.3h-2.5z"/>
<path id="u" class="st0" d="m247.3 0.5h2.5v10.2h4.5l6-10.2h2.8l-6.6 11.2 7.8 12.1h-2.9l-7.1-11h-4.5v11h-2.5z"/>
<path id="v" class="st0" d="m267.1 0.5h2.5v10.2h4.5l6-10.2h2.8l-6.6 11.2 7.8 12.1h-2.9l-7.1-11h-4.5v11h-2.5z"/>
</svg>
