<?xml version="1.0" encoding="UTF-8" standalone="no"?>
<!-- Generator: Adobe Illustrator 22.0.1, SVG Export Plug-In . SVG Version: 6.00 Build 0)  -->

<svg
   xmlns:dc="http://purl.org/dc/elements/1.1/"
   xmlns:cc="http://creativecommons.org/ns#"
   xmlns:rdf="http://www.w3.org/1999/02/22-rdf-syntax-ns#"
   xmlns:svg="http://www.w3.org/2000/svg"
   xmlns="http://www.w3.org/2000/svg"
   xmlns:sodipodi="http://sodipodi.sourceforge.net/DTD/sodipodi-0.dtd"
   xmlns:inkscape="http://www.inkscape.org/namespaces/inkscape"
   version="1.1"
   id="Layer_1"
   x="0px"
   y="0px"
   viewBox="0 0 284.10002 24.3"
   xml:space="preserve"
   sodipodi:docname="NRK Folkemusikk.svg"
   width="284.10001"
   height="24.299999"
   inkscape:version="0.92.3 (2405546, 2018-03-11)"><metadata
   id="metadata49"><rdf:RDF><cc:Work
       rdf:about=""><dc:format>image/svg+xml</dc:format><dc:type
         rdf:resource="http://purl.org/dc/dcmitype/StillImage" /><dc:title></dc:title></cc:Work></rdf:RDF></metadata><defs
   id="defs47" /><sodipodi:namedview
   pagecolor="#ffffff"
   bordercolor="#666666"
   borderopacity="1"
   objecttolerance="10"
   gridtolerance="10"
   guidetolerance="10"
   inkscape:pageopacity="0"
   inkscape:pageshadow="2"
   inkscape:window-width="716"
   inkscape:window-height="480"
   id="namedview45"
   showgrid="false"
   fit-margin-top="0"
   fit-margin-left="0"
   fit-margin-right="0"
   fit-margin-bottom="0"
   inkscape:zoom="0.99719105"
   inkscape:cx="142.39999"
   inkscape:cy="12.35"
   inkscape:window-x="0"
   inkscape:window-y="0"
   inkscape:window-maximized="0"
   inkscape:current-layer="Layer_1" />
<style
   type="text/css"
   id="style2">
	.st0{fill:#FFFFFF;}
</style>
<g
   id="g20">
	<g
   id="g18">
		<polygon
   class="st0"
   points="0,23.8 8.2,23.8 8.2,0.5 0,0.5 0,22 "
   id="polygon4"
   style="fill:#ffffff" />
		<rect
   x="23.4"
   y="0.5"
   class="st0"
   width="8.1999998"
   height="23.299999"
   id="rect6"
   style="fill:#ffffff" />
		<rect
   x="42"
   y="0.5"
   class="st0"
   width="8.1999998"
   height="23.299999"
   id="rect8"
   style="fill:#ffffff" />
		<g
   id="g16">
			<path
   class="st0"
   d="m 36.8,0 c -2.6,0 -4.6,2.1 -4.6,4.6 0,2.6 2.1,4.7 4.6,4.7 2.6,0 4.6,-2.1 4.6,-4.7 0,-2.5 -2,-4.6 -4.6,-4.6"
   id="path10"
   inkscape:connector-curvature="0"
   style="fill:#ffffff" />
			<path
   class="st0"
   d="M 60.4,13.3 C 59.9,12.5 59.9,12 60.3,11.2 L 66.8,0.6 h -9 c 0,0 -5.4,8.8 -6.2,10 -0.7,1.2 -0.7,2 0,3.2 0.7,1.3 6.1,10 6.1,10 h 9 c 0.2,0 -6.2,-10.4 -6.3,-10.5"
   id="path12"
   inkscape:connector-curvature="0"
   style="fill:#ffffff" />
			<path
   class="st0"
   d="M 18.5,4.3 C 18.1,2.2 16.2,0.6 13.9,0.6 H 8.6 L 14,23.8 h 8.9 z"
   id="path14"
   inkscape:connector-curvature="0"
   style="fill:#ffffff" />
		</g>
	</g>
</g>
<path
   class="st0"
   d="M 74.9,0.5 H 88.8 V 2.7 H 77.4 v 8.2 h 10 v 2.2 h -10 v 10.7 h -2.5 z"
   id="path22"
   inkscape:connector-curvature="0"
   style="fill:#ffffff" />
<path
   class="st0"
   d="m 100.7,0.1 c 6,0 10.3,4 10.3,11.8 0,8.6 -4.5,12.3 -10.5,12.3 C 94.4,24.2 90,20.4 90,11.9 90,4.2 94.5,0.1 100.7,0.1 Z M 100.6,22 c 4.7,0 7.8,-3.2 7.8,-10.1 0,-6.2 -3.1,-9.5 -7.8,-9.5 -4.8,0 -7.9,3.4 -7.9,9.5 0,6.8 3.1,10.1 7.9,10.1 z"
   id="path24"
   inkscape:connector-curvature="0"
   style="fill:#ffffff" />
<path
   class="st0"
   d="m 116.8,0.5 v 21.1 h 10.9 v 2.2 H 114.3 V 0.5 Z"
   id="path26"
   inkscape:connector-curvature="0"
   style="fill:#ffffff" />
<path
   class="st0"
   d="m 130.7,0.5 h 2.5 v 10.2 h 4.5 l 6,-10.2 h 2.8 l -6.6,11.2 7.8,12.1 h -2.9 l -7.1,-11 h -4.5 v 11 h -2.5 z"
   id="path28"
   inkscape:connector-curvature="0"
   style="fill:#ffffff" />
<path
   class="st0"
   d="m 150.9,0.5 h 14.6 v 2.2 h -12.1 v 8 h 11 V 13 h -11 v 8.6 h 12.3 v 2.2 h -14.8 z"
   id="path30"
   inkscape:connector-curvature="0"
   style="fill:#ffffff" />
<path
   class="st0"
   d="m 191.5,23.9 -2,-19.1 -6.7,19.1 h -2.1 L 174,4.7 172.1,23.8 h -2.4 L 172,0.5 h 2.9 l 6.8,19.7 6.9,-19.7 h 2.9 l 2.4,23.3 h -2.4 z"
   id="path32"
   inkscape:connector-curvature="0"
   style="fill:#ffffff" />
<path
   class="st0"
   d="m 200.5,0.5 v 14.4 c 0,4.8 2.4,7.1 6.3,7.1 4.4,0 6,-2.5 6,-7.1 V 0.5 h 2.5 v 14.7 c 0,6 -2.9,9 -8.6,9 -5.2,0 -8.6,-2.8 -8.6,-9 V 0.5 Z"
   id="path34"
   inkscape:connector-curvature="0"
   style="fill:#ffffff" />
<path
   class="st0"
   d="m 220.1,19.1 c 2.1,1.9 4.3,3 6.8,3 2.9,0 5.1,-1.5 5.1,-4.3 0,-2.5 -1.1,-3.6 -5.4,-4.9 -5.1,-1.6 -7.1,-3.1 -7.1,-6.6 0,-4 3.2,-6.3 7.5,-6.3 3,0 5.5,1.1 7.5,3.3 L 232.9,5 c -1.7,-1.9 -3.9,-2.7 -6,-2.7 -2.8,0 -4.9,1.3 -4.9,3.9 0,2.7 2,3.4 6,4.7 4.8,1.6 6.5,3.2 6.5,6.7 0,4.1 -3.1,6.7 -7.8,6.7 -3.3,0 -6.2,-1.4 -8.1,-3.5 z"
   id="path36"
   inkscape:connector-curvature="0"
   style="fill:#ffffff" />
<path
   class="st0"
   d="m 239.2,0.5 h 2.5 v 23.3 h -2.5 z"
   id="path38"
   inkscape:connector-curvature="0"
   style="fill:#ffffff" />
<path
   class="st0"
   d="m 247.3,0.5 h 2.5 v 10.2 h 4.5 l 6,-10.2 h 2.8 l -6.6,11.2 7.8,12.1 h -2.9 l -7.1,-11 h -4.5 v 11 h -2.5 z"
   id="path40"
   inkscape:connector-curvature="0"
   style="fill:#ffffff" />
<path
   class="st0"
   d="m 267.1,0.5 h 2.5 v 10.2 h 4.5 l 6,-10.2 h 2.8 l -6.6,11.2 7.8,12.1 h -2.9 l -7.1,-11 h -4.5 v 11 h -2.5 z"
   id="path42"
   inkscape:connector-curvature="0"
   style="fill:#ffffff" />
</svg>