<?xml version="1.0" encoding="UTF-8" standalone="no"?>
<!-- Generator: Adobe Illustrator 22.0.1, SVG Export Plug-In . SVG Version: 6.00 Build 0)  -->

<svg
   xmlns:dc="http://purl.org/dc/elements/1.1/"
   xmlns:cc="http://creativecommons.org/ns#"
   xmlns:rdf="http://www.w3.org/1999/02/22-rdf-syntax-ns#"
   xmlns:svg="http://www.w3.org/2000/svg"
   xmlns="http://www.w3.org/2000/svg"
   xmlns:sodipodi="http://sodipodi.sourceforge.net/DTD/sodipodi-0.dtd"
   xmlns:inkscape="http://www.inkscape.org/namespaces/inkscape"
   version="1.1"
   id="Layer_1"
   x="0px"
   y="0px"
   viewBox="0 0 217 24.100001"
   xml:space="preserve"
   sodipodi:docname="NRK Klassisk.svg"
   width="217"
   height="24.1"
   inkscape:version="0.92.3 (2405546, 2018-03-11)"><metadata
   id="metadata43"><rdf:RDF><cc:Work
       rdf:about=""><dc:format>image/svg+xml</dc:format><dc:type
         rdf:resource="http://purl.org/dc/dcmitype/StillImage" /><dc:title></dc:title></cc:Work></rdf:RDF></metadata><defs
   id="defs41" /><sodipodi:namedview
   pagecolor="#ffffff"
   bordercolor="#666666"
   borderopacity="1"
   objecttolerance="10"
   gridtolerance="10"
   guidetolerance="10"
   inkscape:pageopacity="0"
   inkscape:pageshadow="2"
   inkscape:window-width="716"
   inkscape:window-height="480"
   id="namedview39"
   showgrid="false"
   fit-margin-top="0"
   fit-margin-left="0"
   fit-margin-right="0"
   fit-margin-bottom="0"
   inkscape:zoom="1.2868147"
   inkscape:cx="108.85"
   inkscape:cy="12.1"
   inkscape:window-x="0"
   inkscape:window-y="0"
   inkscape:window-maximized="0"
   inkscape:current-layer="Layer_1" />
<style
   type="text/css"
   id="style2">
	.st0{fill:#FFFFFF;}
</style>
<g
   id="g20"
   transform="translate(-1.5,-1.7)">
	<g
   id="g18">
		<polygon
   class="st0"
   points="1.5,25.5 9.7,25.5 9.7,2.2 1.5,2.2 1.5,23.7 "
   id="polygon4"
   style="fill:#ffffff" />
		<rect
   x="25"
   y="2.2"
   class="st0"
   width="8.1999998"
   height="23.299999"
   id="rect6"
   style="fill:#ffffff" />
		<rect
   x="43.5"
   y="2.2"
   class="st0"
   width="8.1999998"
   height="23.299999"
   id="rect8"
   style="fill:#ffffff" />
		<g
   id="g16">
			<path
   class="st0"
   d="m 38.3,1.7 c -2.6,0 -4.6,2.1 -4.6,4.6 0,2.6 2.1,4.7 4.6,4.7 2.6,0 4.6,-2.1 4.6,-4.7 0.1,-2.5 -2,-4.6 -4.6,-4.6"
   id="path10"
   inkscape:connector-curvature="0"
   style="fill:#ffffff" />
			<path
   class="st0"
   d="M 62,14.9 C 61.5,14.1 61.5,13.6 61.9,12.8 L 68.4,2.2 h -9 c 0,0 -5.4,8.8 -6.2,10.1 -0.7,1.2 -0.7,2 0,3.2 0.7,1.3 6.1,10 6.1,10 h 9 c 0.2,0 -6.2,-10.4 -6.3,-10.6"
   id="path12"
   inkscape:connector-curvature="0"
   style="fill:#ffffff" />
			<path
   class="st0"
   d="M 20,5.9 C 19.6,3.8 17.7,2.2 15.4,2.2 h -5.3 l 5.3,23.3 h 9 z"
   id="path14"
   inkscape:connector-curvature="0"
   style="fill:#ffffff" />
		</g>
	</g>
</g>
<path
   class="st0"
   d="m 76.8,0.5 h 2.5 v 10.2 h 4.5 l 6,-10.2 h 2.8 L 86,11.7 93.8,23.9 h -2.9 l -7.1,-11 h -4.5 v 11 h -2.5 z"
   id="path22"
   inkscape:connector-curvature="0"
   style="fill:#ffffff" />
<path
   class="st0"
   d="m 99.4,0.5 v 21.1 h 10.9 v 2.2 H 96.9 V 0.5 Z"
   id="path24"
   inkscape:connector-curvature="0"
   style="fill:#ffffff" />
<path
   class="st0"
   d="m 122.9,0.5 8.5,23.3 h -2.7 l -2.5,-6.7 h -9.4 l -2.4,6.7 h -2.7 l 8.5,-23.3 z m 2.7,14.4 -4,-11.6 -4,11.6 z"
   id="path26"
   inkscape:connector-curvature="0"
   style="fill:#ffffff" />
<path
   class="st0"
   d="m 134.5,19.1 c 2.1,1.9 4.3,3 6.8,3 2.9,0 5.1,-1.5 5.1,-4.3 0,-2.5 -1.1,-3.6 -5.4,-4.9 -5.1,-1.6 -7.1,-3.1 -7.1,-6.6 0,-4 3.2,-6.3 7.5,-6.3 3,0 5.5,1.1 7.5,3.3 l -1.5,1.5 c -1.7,-1.9 -3.9,-2.7 -6,-2.7 -2.8,0 -4.9,1.3 -4.9,3.9 0,2.7 2,3.4 6,4.7 4.8,1.6 6.5,3.2 6.5,6.7 0,4.1 -3.1,6.7 -7.8,6.7 -3.3,0 -6.2,-1.4 -8.1,-3.5 z"
   id="path28"
   inkscape:connector-curvature="0"
   style="fill:#ffffff" />
<path
   class="st0"
   d="m 153.2,19.1 c 2.1,1.9 4.3,3 6.8,3 2.9,0 5.1,-1.5 5.1,-4.3 0,-2.5 -1.1,-3.6 -5.4,-4.9 -5.1,-1.6 -7.1,-3.1 -7.1,-6.6 0,-4 3.2,-6.3 7.5,-6.3 3,0 5.5,1.1 7.5,3.3 l -1.5,1.5 c -1.7,-1.9 -3.9,-2.7 -6,-2.7 -2.8,0 -4.9,1.3 -4.9,3.9 0,2.7 2,3.4 6,4.7 4.8,1.6 6.5,3.2 6.5,6.7 0,4.1 -3.1,6.7 -7.8,6.7 -3.3,0 -6.2,-1.4 -8.1,-3.5 z"
   id="path30"
   inkscape:connector-curvature="0"
   style="fill:#ffffff" />
<path
   class="st0"
   d="m 172.7,0.5 h 2.5 v 23.3 h -2.5 z"
   id="path32"
   inkscape:connector-curvature="0"
   style="fill:#ffffff" />
<path
   class="st0"
   d="m 181,19.1 c 2.1,1.9 4.3,3 6.8,3 2.9,0 5.1,-1.5 5.1,-4.3 0,-2.5 -1.1,-3.6 -5.4,-4.9 -5.1,-1.6 -7.1,-3.1 -7.1,-6.6 0,-4 3.2,-6.3 7.5,-6.3 3,0 5.5,1.1 7.5,3.3 l -1.5,1.5 c -1.7,-1.9 -3.9,-2.7 -6,-2.7 -2.8,0 -4.9,1.3 -4.9,3.9 0,2.7 2,3.4 6,4.7 4.8,1.6 6.5,3.2 6.5,6.7 0,4.1 -3.1,6.7 -7.8,6.7 -3.3,0 -6.2,-1.4 -8.1,-3.5 z"
   id="path34"
   inkscape:connector-curvature="0"
   style="fill:#ffffff" />
<path
   class="st0"
   d="m 200,0.5 h 2.5 v 10.2 h 4.5 l 6,-10.2 h 2.8 l -6.6,11.2 7.8,12.2 h -2.9 l -7.1,-11 h -4.5 v 11 H 200 Z"
   id="path36"
   inkscape:connector-curvature="0"
   style="fill:#ffffff" />
</svg>