<?xml version="1.0" encoding="UTF-8"?>
<svg width="32px" height="32px" viewBox="0 0 32 32" version="1.1" xmlns="http://www.w3.org/2000/svg" xmlns:xlink="http://www.w3.org/1999/xlink">
    <!-- Generator: Sketch 46.2 (44496) - http://www.bohemiancoding.com/sketch -->
    <title>nrk-logo-nrk-p3-symbol--color</title>
    <desc>Created with Sketch.</desc>
    <defs></defs>
    <g id="Radio" stroke="none" stroke-width="1" fill="none" fill-rule="evenodd">
        <g id="nrk-logo-nrk-p3-symbol--color">
            <g id="Group-2">
                <polygon id="Combined-Shape" fill="#FFE100" points="0 32 32 32 32 0 0 0"></polygon>
                <path d="M24.5850088,22.0805321 C24.8002502,22.4520869 24.8100339,22.6770368 24.5936636,23.0390337 C24.4426184,23.289948 23.7190008,24.5146414 23.2349335,25.3065944 L20.2241126,25.3065944 L21.8725908,22.5971867 L20.1627763,19.7273264 L21.6960327,17.2148722 L17.9816885,17.2148722 L16.4410567,14.6308464 L23.4935994,14.6308464 C23.4935994,14.6308464 24.4742272,16.2106882 24.5850088,16.3995889 C24.8002502,16.7710685 24.8100339,16.9960183 24.5936636,17.3580152 C24.4426184,17.6089295 23.1462781,19.7572796 23.1462781,19.7572796 C23.6279372,20.5444911 24.4340388,21.8232208 24.5850088,22.0805321 L24.5850088,22.0805321 Z" id="Path" fill="#000000"></path>
                <path d="M19.1947921,23.3122999 C19.049316,23.5539573 18.266921,24.8344932 17.80069,25.5972455 C17.3344591,24.8344932 16.5520641,23.5539573 16.406588,23.3122999 C16.1982704,22.9636239 16.2076779,22.7470278 16.4149418,22.3891702 C16.5604179,22.1414168 17.3366416,20.8711162 17.80069,20.1128794 C18.2647385,20.8711162 19.0410374,22.1414168 19.1864383,22.3891702 C19.3937022,22.7470278 19.4031096,22.9636239 19.1947921,23.3122999 L19.1947921,23.3122999 Z" id="Path" fill="#000000"></path>
                <path d="M16.0715339,18.535747 C15.8542605,18.8964645 14.2653876,21.4948647 14.2653876,21.4948647 L10.9701621,21.4948647 L12.8756506,18.3712303 C13.015708,18.1361957 13.0068274,17.9865803 12.8634586,17.7428157 C12.842386,17.7042077 10.9701621,14.6308464 10.9701621,14.6308464 L14.2653876,14.6308464 C15.8284466,17.1819839 15.8289734,17.1816828 16.0628791,17.5801052 C16.2774432,17.9506064 16.2871516,18.1748789 16.0715339,18.535747 L16.0715339,18.535747 Z" id="Path" fill="#000000"></path>
                <polygon id="Path" fill="#000000" points="7.61051466 25.3065944 10.5447969 25.3065944 10.5447969 14.6307711 7.61051466 14.6307711"></polygon>
            </g>
            <g id="nrk" transform="translate(7.000000, 6.000000)" fill-rule="nonzero" fill="#000000">
                <rect id="Rectangle-path" x="0.601998002" y="0.975424575" width="2.09390609" height="5.99080919"></rect>
                <rect id="Rectangle-path" x="6.57362637" y="0.975424575" width="2.09390609" height="5.99080919"></rect>
                <rect id="Rectangle-path" x="11.2921079" y="0.975424575" width="2.09390609" height="5.99080919"></rect>
                <path d="M9.97822178,3.23876124 C10.6303696,3.23876124 11.161039,2.7048951 11.161039,2.04315684 C11.161039,1.38461538 10.6303696,0.850749251 9.97822178,0.850749251 C9.32607393,0.850749251 8.7986014,1.38461538 8.7986014,2.04315684 C8.7986014,2.7048951 9.32607393,3.23876124 9.97822178,3.23876124 Z" id="Shape"></path>
                <path d="M15.352048,6.96623377 L17.6537463,6.96623377 C17.6537463,6.96623377 16.0233766,4.28411588 16.0041958,4.24895105 C15.8795205,4.03476523 15.8731269,3.90689311 15.9946054,3.6991009 L17.6537463,0.972227772 L15.352048,0.972227772 C15.352048,0.972227772 13.9678322,3.24195804 13.7792208,3.55524476 C13.5906094,3.87172827 13.6001998,4.06673327 13.7856144,4.38961039 C13.9742258,4.71568432 15.352048,6.96623377 15.352048,6.96623377 Z" id="Shape"></path>
                <path d="M6.44255744,6.96623377 L6.44255744,6.96303696 L5.32367632,1.93766234 C5.21498501,1.38781219 4.73866134,0.975424575 4.16323676,0.975424575 L2.81738262,0.975424575 L4.16963037,6.96943057 L6.44255744,6.96943057 L6.44255744,6.96623377 Z" id="Shape"></path>
            </g>
        </g>
    </g>
</svg>