<svg id="a" version="1.1" viewBox="0 0 217 24.1" xml:space="preserve" xmlns="http://www.w3.org/2000/svg">
<style id="b" type="text/css">
	.st0{fill:#FFFFFF;}
</style>
<g id="c" transform="translate(-1.5,-1.7)">
	<g id="d">
		<polygon id="e" class="st0" points="1.5 25.5 9.7 25.5 9.7 2.2 1.5 2.2 1.5 23.7"/>
		<rect id="f" class="st0" x="25" y="2.2" width="8.2" height="23.3"/>
		<rect id="g" class="st0" x="43.5" y="2.2" width="8.2" height="23.3"/>
		<g id="h">
			<path id="i" class="st0" d="m38.3 1.7c-2.6 0-4.6 2.1-4.6 4.6 0 2.6 2.1 4.7 4.6 4.7 2.6 0 4.6-2.1 4.6-4.7 0.1-2.5-2-4.6-4.6-4.6"/>
			<path id="j" class="st0" d="m62 14.9c-0.5-0.8-0.5-1.3-0.1-2.1l6.5-10.6h-9s-5.4 8.8-6.2 10.1c-0.7 1.2-0.7 2 0 3.2 0.7 1.3 6.1 10 6.1 10h9c0.2 0-6.2-10.4-6.3-10.6"/>
			<path id="k" class="st0" d="m20 5.9c-0.4-2.1-2.3-3.7-4.6-3.7h-5.3l5.3 23.3h9z"/>
		</g>
	</g>
</g>
<path id="l" class="st0" d="m76.8 0.5h2.5v10.2h4.5l6-10.2h2.8l-6.6 11.2 7.8 12.2h-2.9l-7.1-11h-4.5v11h-2.5z"/>
<path id="m" class="st0" d="m99.4 0.5v21.1h10.9v2.2h-13.4v-23.3z"/>
<path id="n" class="st0" d="m122.9 0.5 8.5 23.3h-2.7l-2.5-6.7h-9.4l-2.4 6.7h-2.7l8.5-23.3zm2.7 14.4-4-11.6-4 11.6z"/>
<path id="o" class="st0" d="m134.5 19.1c2.1 1.9 4.3 3 6.8 3 2.9 0 5.1-1.5 5.1-4.3 0-2.5-1.1-3.6-5.4-4.9-5.1-1.6-7.1-3.1-7.1-6.6 0-4 3.2-6.3 7.5-6.3 3 0 5.5 1.1 7.5 3.3l-1.5 1.5c-1.7-1.9-3.9-2.7-6-2.7-2.8 0-4.9 1.3-4.9 3.9 0 2.7 2 3.4 6 4.7 4.8 1.6 6.5 3.2 6.5 6.7 0 4.1-3.1 6.7-7.8 6.7-3.3 0-6.2-1.4-8.1-3.5z"/>
<path id="p" class="st0" d="m153.2 19.1c2.1 1.9 4.3 3 6.8 3 2.9 0 5.1-1.5 5.1-4.3 0-2.5-1.1-3.6-5.4-4.9-5.1-1.6-7.1-3.1-7.1-6.6 0-4 3.2-6.3 7.5-6.3 3 0 5.5 1.1 7.5 3.3l-1.5 1.5c-1.7-1.9-3.9-2.7-6-2.7-2.8 0-4.9 1.3-4.9 3.9 0 2.7 2 3.4 6 4.7 4.8 1.6 6.5 3.2 6.5 6.7 0 4.1-3.1 6.7-7.8 6.7-3.3 0-6.2-1.4-8.1-3.5z"/>
<path id="q" class="st0" d="m172.7 0.5h2.5v23.3h-2.5z"/>
<path id="r" class="st0" d="m181 19.1c2.1 1.9 4.3 3 6.8 3 2.9 0 5.1-1.5 5.1-4.3 0-2.5-1.1-3.6-5.4-4.9-5.1-1.6-7.1-3.1-7.1-6.6 0-4 3.2-6.3 7.5-6.3 3 0 5.5 1.1 7.5 3.3l-1.5 1.5c-1.7-1.9-3.9-2.7-6-2.7-2.8 0-4.9 1.3-4.9 3.9 0 2.7 2 3.4 6 4.7 4.8 1.6 6.5 3.2 6.5 6.7 0 4.1-3.1 6.7-7.8 6.7-3.3 0-6.2-1.4-8.1-3.5z"/>
<path id="s" class="st0" d="m200 0.5h2.5v10.2h4.5l6-10.2h2.8l-6.6 11.2 7.8 12.2h-2.9l-7.1-11h-4.5v11h-2.5z"/>
</svg>
