<?xml version="1.0" encoding="UTF-8" standalone="no"?>
<!-- Generator: Adobe Illustrator 22.0.1, SVG Export Plug-In . SVG Version: 6.00 Build 0)  -->

<svg
   xmlns:dc="http://purl.org/dc/elements/1.1/"
   xmlns:cc="http://creativecommons.org/ns#"
   xmlns:rdf="http://www.w3.org/1999/02/22-rdf-syntax-ns#"
   xmlns:svg="http://www.w3.org/2000/svg"
   xmlns="http://www.w3.org/2000/svg"
   xmlns:sodipodi="http://sodipodi.sourceforge.net/DTD/sodipodi-0.dtd"
   xmlns:inkscape="http://www.inkscape.org/namespaces/inkscape"
   version="1.1"
   id="Layer_1"
   x="0px"
   y="0px"
   viewBox="0 0 143.5 24.3"
   style="enable-background:new 0 0 143.5 24.3;"
   xml:space="preserve"
   sodipodi:docname="NRK Jazz - Dark.svg"
   inkscape:version="0.92.3 (2405546, 2018-03-11)"><metadata
   id="metadata35"><rdf:RDF><cc:Work
       rdf:about=""><dc:format>image/svg+xml</dc:format><dc:type
         rdf:resource="http://purl.org/dc/dcmitype/StillImage" /><dc:title></dc:title></cc:Work></rdf:RDF></metadata><defs
   id="defs33" /><sodipodi:namedview
   pagecolor="#ffffff"
   bordercolor="#666666"
   borderopacity="1"
   objecttolerance="10"
   gridtolerance="10"
   guidetolerance="10"
   inkscape:pageopacity="0"
   inkscape:pageshadow="2"
   inkscape:window-width="716"
   inkscape:window-height="480"
   id="namedview31"
   showgrid="false"
   inkscape:zoom="1.9790941"
   inkscape:cx="71.75"
   inkscape:cy="12.15"
   inkscape:window-x="0"
   inkscape:window-y="0"
   inkscape:window-maximized="0"
   inkscape:current-layer="Layer_1" />
<style
   type="text/css"
   id="style2">
	.st0{fill:#FFFFFF;}
</style>
<g
   id="g20"
   style="fill:#000000;fill-opacity:1">
	<g
   id="g18"
   style="fill:#000000;fill-opacity:1">
		<polygon
   class="st0"
   points="0,0.7 0,22.2 0,24 8.3,24 8.3,0.7   "
   id="polygon4"
   style="fill:#000000;fill-opacity:1" />
		<rect
   x="23.5"
   y="0.7"
   class="st0"
   width="8.2"
   height="23.3"
   id="rect6"
   style="fill:#000000;fill-opacity:1" />
		<rect
   x="42"
   y="0.7"
   class="st0"
   width="8.2"
   height="23.3"
   id="rect8"
   style="fill:#000000;fill-opacity:1" />
		<g
   id="g16"
   style="fill:#000000;fill-opacity:1">
			<path
   class="st0"
   d="M36.9,0.2c-2.6,0-4.6,2.1-4.6,4.6c0,2.6,2.1,4.7,4.6,4.7c2.6,0,4.6-2.1,4.6-4.7C41.5,2.3,39.4,0.2,36.9,0.2"
   id="path10"
   style="fill:#000000;fill-opacity:1" />
			<path
   class="st0"
   d="M60.5,13.4c-0.5-0.8-0.5-1.3-0.1-2.1L67,0.7h-9c0,0-5.4,8.8-6.2,10.1c-0.7,1.2-0.7,2,0,3.2     c0.7,1.3,6.1,10,6.1,10h9C67,24,60.6,13.6,60.5,13.4"
   id="path12"
   style="fill:#000000;fill-opacity:1" />
			<path
   class="st0"
   d="M18.6,4.4c-0.4-2.1-2.3-3.7-4.6-3.7l-5.3,0L14,24h9L18.6,4.4z"
   id="path14"
   style="fill:#000000;fill-opacity:1" />
		</g>
	</g>
</g>
<path
   class="st0"
   d="M82.6,18.9c0,3.8-1.6,5.5-5.1,5.5c-1.4,0-3.3-0.3-4.5-0.9l0.6-2c1.1,0.5,2.2,0.7,3.5,0.7c2.1,0,3-0.9,3-3.9V0.7  h2.5V18.9z"
   id="path22"
   style="fill:#000000;fill-opacity:1" />
<path
   class="st0"
   d="M96.6,0.7l8.5,23.3h-2.7l-2.5-6.7h-9.4L88.2,24h-2.7L94,0.7H96.6z M99.3,15.1l-4-11.6l-4,11.6H99.3z"
   id="path24"
   style="fill:#000000;fill-opacity:1" />
<path
   class="st0"
   d="M107.5,22.4l12.8-19.4h-11.9V0.7H124v1.1l-13.2,20h13.2V24h-16.5V22.4z"
   id="path26"
   style="fill:#000000;fill-opacity:1" />
<path
   class="st0"
   d="M126.9,22.4l12.8-19.4h-11.9V0.7h15.6v1.1l-13.2,20h13.2V24h-16.5V22.4z"
   id="path28"
   style="fill:#000000;fill-opacity:1" />
</svg>