<?xml version="1.0" encoding="UTF-8" standalone="no"?>
<!-- Generator: Adobe Illustrator 22.0.1, SVG Export Plug-In . SVG Version: 6.00 Build 0)  -->

<svg
   xmlns:dc="http://purl.org/dc/elements/1.1/"
   xmlns:cc="http://creativecommons.org/ns#"
   xmlns:rdf="http://www.w3.org/1999/02/22-rdf-syntax-ns#"
   xmlns:svg="http://www.w3.org/2000/svg"
   xmlns="http://www.w3.org/2000/svg"
   xmlns:sodipodi="http://sodipodi.sourceforge.net/DTD/sodipodi-0.dtd"
   xmlns:inkscape="http://www.inkscape.org/namespaces/inkscape"
   version="1.1"
   x="0px"
   y="0px"
   viewBox="0 0 195.3 35.499999"
   xml:space="preserve"
   id="svg66"
   sodipodi:docname="NRK Sapmi - Dark.svg"
   width="195.3"
   height="35.5"
   inkscape:version="0.92.3 (2405546, 2018-03-11)"><metadata
   id="metadata72"><rdf:RDF><cc:Work
       rdf:about=""><dc:format>image/svg+xml</dc:format><dc:type
         rdf:resource="http://purl.org/dc/dcmitype/StillImage" /><dc:title></dc:title></cc:Work></rdf:RDF></metadata><defs
   id="defs70" /><sodipodi:namedview
   pagecolor="#ffffff"
   bordercolor="#666666"
   borderopacity="1"
   objecttolerance="10"
   gridtolerance="10"
   guidetolerance="10"
   inkscape:pageopacity="0"
   inkscape:pageshadow="2"
   inkscape:window-width="716"
   inkscape:window-height="480"
   id="namedview68"
   showgrid="false"
   fit-margin-top="0"
   fit-margin-left="0"
   fit-margin-right="0"
   fit-margin-bottom="0"
   inkscape:zoom="1.454173"
   inkscape:cx="-14.097362"
   inkscape:cy="17.899999"
   inkscape:window-x="0"
   inkscape:window-y="0"
   inkscape:window-maximized="0"
   inkscape:current-layer="svg66" />
<style
   type="text/css"
   id="style2">
	.st0{display:none;}
	.st1{display:inline;}
	.st2{fill:#FFFFFF;}
</style>
<g
   id="Layer_1"
   class="st0"
   style="display:none">
	<g
   class="st1"
   id="g20"
   style="display:inline">
		<g
   id="g18">
			<polygon
   points="9.8,7 0,7 0,32.7 0,34.8 9.8,34.8 "
   id="polygon4" />
			<rect
   x="27.9"
   y="7"
   width="9.8000002"
   height="27.799999"
   id="rect6" />
			<rect
   x="50"
   y="7"
   width="9.8000002"
   height="27.799999"
   id="rect8" />
			<g
   id="g16">
				<path
   d="m 43.9,6.5 c -3.1,0 -5.5,2.5 -5.5,5.5 0,3.1 2.5,5.5 5.5,5.5 3.1,0 5.5,-2.5 5.5,-5.5 0,-3.1 -2.5,-5.5 -5.5,-5.5"
   id="path10"
   inkscape:connector-curvature="0" />
				<path
   d="m 72,22.2 c -0.6,-1 -0.6,-1.6 -0.1,-2.5 L 79.7,7 H 69 c 0,0 -6.5,10.5 -7.4,12 -0.9,1.5 -0.8,2.4 0,3.9 0.9,1.5 7.3,11.9 7.3,11.9 h 10.8 c 0,0 -7.6,-12.4 -7.7,-12.6"
   id="path12"
   inkscape:connector-curvature="0" />
				<path
   d="M 22.1,11.5 C 21.6,9 19.3,7 16.7,7 h -6.3 l 6.3,27.8 h 10.7 z"
   id="path14"
   inkscape:connector-curvature="0" />
			</g>
		</g>
	</g>
	<path
   class="st1"
   d="m 92.4,29.2 c 2.5,2.2 5.1,3.5 8.1,3.5 3.5,0 6.1,-1.8 6.1,-5.1 0,-2.9 -1.3,-4.2 -6.4,-5.8 -6.1,-1.9 -8.4,-3.7 -8.4,-7.8 0,-4.8 3.8,-7.4 8.9,-7.4 3.5,0 6.6,1.3 8.9,4 l -1.7,1.8 c -2,-2.3 -4.7,-3.2 -7.1,-3.2 -3.3,0 -5.8,1.5 -5.8,4.7 0,3.2 2.4,4 7.1,5.6 5.7,1.9 7.7,3.8 7.7,7.9 0,4.9 -3.7,7.9 -9.3,7.9 -3.9,0 -7.4,-1.7 -9.7,-4.2 z"
   id="path22"
   inkscape:connector-curvature="0"
   style="display:inline" />
	<path
   class="st1"
   d="m 127.9,32 c -1,1.2 -3.2,3.3 -6.7,3.3 -5.7,0 -8.3,-4.2 -8.3,-10.5 0,-6.4 3,-10.6 8.3,-10.6 3,0 5.2,1.5 6.6,3.5 v -3 h 2.7 V 35 H 128 Z m -0.2,-11.6 c -1,-1.3 -3.1,-3.7 -6.1,-3.7 -3.4,0 -5.7,2.8 -5.7,8 0,4 1.4,8 6,8 2.9,0 4.8,-2 5.9,-3.4 v -8.9 z m -2.6,-14.8 1.7,2 -5.8,4.7 -1.3,-1.6 z"
   id="path24"
   inkscape:connector-curvature="0"
   style="display:inline" />
	<path
   class="st1"
   d="m 135.9,42.5 v -28 h 2.7 v 3.1 c 1.8,-2.3 4,-3.6 6.9,-3.6 5.4,0 8.1,4.1 8.1,10.6 0,6.4 -2.7,10.6 -8.4,10.6 -3.5,0 -5.7,-1.9 -6.4,-2.9 v 10.2 z m 2.8,-13 c 1,1.3 3.1,3.2 5.9,3.2 3.7,0 5.9,-2.7 5.9,-7.9 0,-5.2 -2,-8.1 -5.6,-8.1 -2.7,0 -4.9,1.9 -6.3,3.6 v 9.2 z"
   id="path26"
   inkscape:connector-curvature="0"
   style="display:inline" />
	<path
   class="st1"
   d="m 160.7,14.5 v 3.1 c 1.5,-1.9 3.4,-3.5 6.3,-3.5 3,0 4.3,1.5 4.9,3.5 1.6,-1.9 3.6,-3.5 6.5,-3.5 4.3,0 5.4,3.1 5.4,6.7 v 14 H 181 V 21.2 c 0,-2.8 -0.7,-4.5 -3.3,-4.5 -2.5,0 -4.5,2.2 -5.3,3.2 v 14.8 h -2.9 V 21.3 c 0,-2.8 -0.7,-4.6 -3.2,-4.6 -2.5,0 -4.5,2.2 -5.4,3.3 v 14.7 h -2.8 V 14.5 Z"
   id="path28"
   inkscape:connector-curvature="0"
   style="display:inline" />
	<path
   class="st1"
   d="m 190.6,7.3 c 1.1,0 1.9,0.7 1.9,1.8 0,1 -0.8,1.7 -1.9,1.7 -1.1,0 -1.9,-0.7 -1.9,-1.7 0,-1.1 0.9,-1.8 1.9,-1.8 z m 1.4,27.5 h -2.8 V 14.5 h 2.8 z"
   id="path30"
   inkscape:connector-curvature="0"
   style="display:inline" />
</g>
<g
   id="Layer_3"
   style="fill:#000000;fill-opacity:1">
	<g
   id="g43"
   style="fill:#000000;fill-opacity:1">
		<path
   class="st2"
   d="m 89.5,29.2 c 2.5,2.2 5.1,3.6 8.1,3.6 3.5,0 6.1,-1.8 6.1,-5.1 0,-2.9 -1.4,-4.2 -6.5,-5.8 -6.1,-1.9 -8.5,-3.7 -8.5,-7.8 0,-4.8 3.8,-7.5 8.9,-7.5 3.6,0 6.6,1.3 8.9,4 l -1.7,1.8 c -2,-2.3 -4.7,-3.2 -7.1,-3.2 -3.3,0 -5.8,1.5 -5.8,4.7 0,3.2 2.4,4 7.1,5.6 5.7,1.9 7.7,3.8 7.7,8 0,4.9 -3.7,8 -9.3,8 -3.9,0 -7.4,-1.7 -9.7,-4.2 z"
   id="path33"
   inkscape:connector-curvature="0"
   style="fill:#000000;fill-opacity:1" />
		<path
   class="st2"
   d="m 122.2,7 10.2,27.8 h -3.2 l -2.9,-8 H 115 l -2.9,8 H 109 L 119,7 Z m 3.2,17.2 -4.8,-13.8 -4.8,13.8 z M 123.2,0 l 1.2,2.4 -6.7,3.2 -1,-1.8 z"
   id="path35"
   inkscape:connector-curvature="0"
   style="fill:#000000;fill-opacity:1" />
		<path
   class="st2"
   d="m 136.3,7 h 8.8 c 6.3,0 9.3,3.1 9.3,8.3 0,5.1 -3.1,8.5 -9.8,8.5 h -5.3 v 11 h -3 z m 2.9,2.6 v 11.6 h 5.3 c 4.6,0 6.9,-2.1 6.9,-5.9 0,-3.8 -2,-5.7 -6.5,-5.7 z"
   id="path37"
   inkscape:connector-curvature="0"
   style="fill:#000000;fill-opacity:1" />
		<path
   class="st2"
   d="m 184,34.8 -2.3,-22.8 -8,22.8 h -2.5 l -8,-22.8 -2.3,22.8 H 158 L 160.8,7 h 3.5 l 8.1,23.5 8.2,-23.5 h 3.4 l 2.8,27.8 z"
   id="path39"
   inkscape:connector-curvature="0"
   style="fill:#000000;fill-opacity:1" />
		<path
   class="st2"
   d="m 192.3,7 h 3 v 27.8 h -3 z"
   id="path41"
   inkscape:connector-curvature="0"
   style="fill:#000000;fill-opacity:1" />
	</g>
	<g
   id="g63"
   style="fill:#000000;fill-opacity:1">
		<g
   id="g61"
   style="fill:#000000;fill-opacity:1">
			<g
   id="g59"
   style="fill:#000000;fill-opacity:1">
				<polygon
   class="st2"
   points="9.8,7 0,7 0,32.7 0,34.8 9.8,34.8 "
   id="polygon45"
   style="fill:#000000;fill-opacity:1" />
				<rect
   x="28"
   y="7"
   class="st2"
   width="9.8000002"
   height="27.799999"
   id="rect47"
   style="fill:#000000;fill-opacity:1" />
				<rect
   x="50.099998"
   y="7"
   class="st2"
   width="9.8000002"
   height="27.799999"
   id="rect49"
   style="fill:#000000;fill-opacity:1" />
				<g
   id="g57"
   style="fill:#000000;fill-opacity:1">
					<path
   class="st2"
   d="m 44,6.4 c -3.1,0 -5.5,2.5 -5.5,5.5 0,3.1 2.5,5.6 5.5,5.6 3.1,0 5.5,-2.5 5.5,-5.6 0,-3 -2.5,-5.5 -5.5,-5.5"
   id="path51"
   inkscape:connector-curvature="0"
   style="fill:#000000;fill-opacity:1" />
					<path
   class="st2"
   d="m 72.2,22.2 c -0.6,-1 -0.6,-1.6 -0.1,-2.6 L 79.9,7 H 69.2 c 0,0 -6.5,10.5 -7.4,12 -0.9,1.5 -0.9,2.4 0,3.9 0.9,1.5 7.3,12 7.3,12 h 10.8 c 0,-0.1 -7.6,-12.5 -7.7,-12.7"
   id="path53"
   inkscape:connector-curvature="0"
   style="fill:#000000;fill-opacity:1" />
					<path
   class="st2"
   d="M 22.2,11.4 C 21.6,8.9 19.4,7 16.7,7 h -6.3 l 6.3,27.8 h 10.7 z"
   id="path55"
   inkscape:connector-curvature="0"
   style="fill:#000000;fill-opacity:1" />
				</g>
			</g>
		</g>
	</g>
</g>
</svg>