<?xml version="1.0" encoding="UTF-8" standalone="no"?>
<!-- Generator: Adobe Illustrator 22.0.1, SVG Export Plug-In . SVG Version: 6.00 Build 0)  -->

<svg
   xmlns:dc="http://purl.org/dc/elements/1.1/"
   xmlns:cc="http://creativecommons.org/ns#"
   xmlns:rdf="http://www.w3.org/1999/02/22-rdf-syntax-ns#"
   xmlns:svg="http://www.w3.org/2000/svg"
   xmlns="http://www.w3.org/2000/svg"
   xmlns:sodipodi="http://sodipodi.sourceforge.net/DTD/sodipodi-0.dtd"
   xmlns:inkscape="http://www.inkscape.org/namespaces/inkscape"
   version="1.1"
   id="Layer_1"
   x="0px"
   y="0px"
   viewBox="0 0 363.20001 141.8"
   xml:space="preserve"
   sodipodi:docname="NRK Radio Super.svg"
   width="363.20001"
   height="141.8"
   inkscape:version="0.92.3 (2405546, 2018-03-11)"><metadata
   id="metadata11"><rdf:RDF><cc:Work
       rdf:about=""><dc:format>image/svg+xml</dc:format><dc:type
         rdf:resource="http://purl.org/dc/dcmitype/StillImage" /><dc:title></dc:title></cc:Work></rdf:RDF></metadata><defs
   id="defs9" /><sodipodi:namedview
   pagecolor="#ffffff"
   bordercolor="#666666"
   borderopacity="1"
   objecttolerance="10"
   gridtolerance="10"
   guidetolerance="10"
   inkscape:pageopacity="0"
   inkscape:pageshadow="2"
   inkscape:window-width="716"
   inkscape:window-height="480"
   id="namedview7"
   showgrid="false"
   fit-margin-top="0"
   fit-margin-left="0"
   fit-margin-right="0"
   fit-margin-bottom="0"
   inkscape:zoom="0.78129298"
   inkscape:cx="181.75"
   inkscape:cy="71.1"
   inkscape:window-x="0"
   inkscape:window-y="0"
   inkscape:window-maximized="0"
   inkscape:current-layer="Layer_1" />
<style
   type="text/css"
   id="style2">
	.st0{fill:#00B4C3;}
</style>
<path
   class="st0"
   d="m 0,34.3 h 25.4 v 72.4 H 0 Z m 206.6,0 h -27.9 c 0,0 -16.8,27.4 -19.1,31.2 -2.3,3.8 -2.2,6.2 0.1,10.1 2.3,3.9 19,31.1 19,31.1 h 27.9 c 0,0 -19.7,-32.4 -20,-32.8 -1.5,-2.6 -1.6,-4.2 -0.1,-6.6 z m -77.1,72.4 h 25.4 V 34.3 H 129.5 Z M 43.1,34.3 H 26.8 l 16.4,72.4 H 70.8 L 57.2,45.9 C 55.9,39.3 50.1,34.3 43.1,34.3 Z m 70.5,-1.5 c -7.9,0 -14.3,6.5 -14.3,14.4 0,8 6.4,14.4 14.3,14.4 7.9,0 14.3,-6.5 14.3,-14.4 0.1,-7.9 -6.4,-14.4 -14.3,-14.4 z M 72.4,106.7 H 97.8 V 34.3 H 72.4 Z M 363.2,70.9 c 0,38.9 -31.9,70.9 -70.9,70.9 -39,0 -70.9,-31.9 -70.9,-70.9 0,-39 31.8,-70.9 70.9,-70.9 39,0 70.9,31.9 70.9,70.9 z m -13,-0.2 c 0,-32.5 -25.7,-58.4 -57.9,-58.4 -31.8,0 -57.9,26.2 -57.9,58.6 0,32.1 26,58.6 57.9,58.6 32.2,0 57.9,-26.8 57.9,-58.8 z M 268.9,58.9 c -6.3,0 -11.8,4.8 -11.8,11.8 0,7 5.5,11.8 11.8,11.8 6.6,0 11.8,-4.8 11.8,-11.8 0,-7 -5.2,-11.8 -11.8,-11.8 z m 62.5,5.9 h -10.8 c -0.8,0 -1.2,-0.3 -1.5,-1.1 L 316,53.5 c -0.2,-0.5 -0.5,-0.7 -0.7,0 l -3.7,10.6 c -0.2,0.4 -0.4,0.7 -0.9,0.7 h -10.8 c -0.5,0 -0.5,0.4 -0.2,0.5 l 8.9,6.6 c 0.5,0.4 0.5,0.8 0.4,1.4 l -3.2,10.2 c -0.2,0.6 0.2,0.7 0.5,0.5 l 8.8,-6.4 c 0.5,-0.4 1.1,-0.3 1.5,0 l 8.7,6.3 c 0.4,0.2 0.6,0.2 0.5,-0.4 l -3.1,-10.2 c -0.2,-0.6 -0.2,-1 0.4,-1.4 l 8.8,-6.5 c 0.2,-0.2 0.1,-0.6 -0.5,-0.6 z"
   id="path4"
   inkscape:connector-curvature="0"
   style="fill:#00b4c3" />
</svg>