<?xml version="1.0" encoding="UTF-8" standalone="no"?>
<svg
   xmlns:dc="http://purl.org/dc/elements/1.1/"
   xmlns:cc="http://creativecommons.org/ns#"
   xmlns:rdf="http://www.w3.org/1999/02/22-rdf-syntax-ns#"
   xmlns:svg="http://www.w3.org/2000/svg"
   xmlns="http://www.w3.org/2000/svg"
   xmlns:sodipodi="http://sodipodi.sourceforge.net/DTD/sodipodi-0.dtd"
   xmlns:inkscape="http://www.inkscape.org/namespaces/inkscape"
   width="17.149317"
   height="18.746496"
   viewBox="0 0 17.149317 18.746496"
   version="1.1"
   id="svg30"
   sodipodi:docname="NRK P3 - Dark.svg"
   inkscape:version="0.92.3 (2405546, 2018-03-11)">
  <metadata
     id="metadata34">
    <rdf:RDF>
      <cc:Work
         rdf:about="">
        <dc:format>image/svg+xml</dc:format>
        <dc:type
           rdf:resource="http://purl.org/dc/dcmitype/StillImage" />
        <dc:title>nrk-logo-nrk-p3-symbol--color</dc:title>
      </cc:Work>
    </rdf:RDF>
  </metadata>
  <sodipodi:namedview
     pagecolor="#ffffff"
     bordercolor="#666666"
     borderopacity="1"
     objecttolerance="10"
     gridtolerance="10"
     guidetolerance="10"
     inkscape:pageopacity="0"
     inkscape:pageshadow="2"
     inkscape:window-width="1920"
     inkscape:window-height="1017"
     id="namedview32"
     showgrid="false"
     fit-margin-top="0"
     fit-margin-left="0"
     fit-margin-right="0"
     fit-margin-bottom="0"
     inkscape:zoom="7.375"
     inkscape:cx="-13.635896"
     inkscape:cy="9.597245"
     inkscape:window-x="-8"
     inkscape:window-y="-8"
     inkscape:window-maximized="1"
     inkscape:current-layer="svg30" />
  <!-- Generator: Sketch 46.2 (44496) - http://www.bohemiancoding.com/sketch -->
  <title
     id="title2">nrk-logo-nrk-p3-symbol--color</title>
  <desc
     id="desc4">Created with Sketch.</desc>
  <defs
     id="defs6" />
  <g
     id="g898"
     style="fill:#000000;fill-opacity:1"
     transform="translate(-7.6019979,-6.8507492)">
    <path
       d="m 24.585009,22.080532 c 0.215241,0.371555 0.225025,0.596505 0.0087,0.958502 -0.151046,0.250914 -0.874663,1.475607 -1.358731,2.26756 h -3.01082 l 1.648478,-2.709407 -1.709815,-2.869861 1.533257,-2.512454 h -3.714345 l -1.540631,-2.584026 h 7.052542 c 0,0 0.980628,1.579842 1.09141,1.768743 0.215241,0.371479 0.225025,0.596429 0.0087,0.958426 -0.151046,0.250914 -1.447386,2.399265 -1.447386,2.399265 0.481659,0.787211 1.287761,2.065941 1.438731,2.323252 z"
       id="Path"
       inkscape:connector-curvature="0"
       style="fill:#000000;fill-opacity:1;fill-rule:evenodd;stroke:none;stroke-width:1" />
    <path
       d="m 19.194792,23.3123 c -0.145476,0.241657 -0.927871,1.522193 -1.394102,2.284945 -0.466231,-0.762752 -1.248626,-2.043288 -1.394102,-2.284945 -0.208318,-0.348676 -0.19891,-0.565272 0.0084,-0.92313 0.145476,-0.247753 0.9217,-1.518054 1.385748,-2.276291 0.464048,0.758237 1.240347,2.028538 1.385748,2.276291 0.207264,0.357858 0.216672,0.574454 0.0084,0.92313 z"
       id="path10"
       inkscape:connector-curvature="0"
       style="fill:#000000;fill-opacity:1;fill-rule:evenodd;stroke:none;stroke-width:1" />
    <path
       d="m 16.071534,18.535747 c -0.217273,0.360717 -1.806146,2.959118 -1.806146,2.959118 h -3.295226 l 1.905489,-3.123635 c 0.140057,-0.235034 0.131176,-0.38465 -0.01219,-0.628414 -0.02107,-0.03861 -1.893297,-3.11197 -1.893297,-3.11197 h 3.295226 c 1.563059,2.551138 1.563585,2.550837 1.797491,2.949259 0.214564,0.370501 0.224273,0.594774 0.0087,0.955642 z"
       id="path12"
       inkscape:connector-curvature="0"
       style="fill:#000000;fill-opacity:1;fill-rule:evenodd;stroke:none;stroke-width:1" />
    <polygon
       id="polygon14"
       points="7.6105147,25.306594 10.544797,25.306594 10.544797,14.630771 7.6105147,14.630771 "
       style="fill:#000000;fill-opacity:1;fill-rule:evenodd;stroke:none;stroke-width:1" />
    <g
       id="g885"
       style="fill:#000000;fill-opacity:1">
      <rect
         style="fill:#000000;fill-opacity:1;fill-rule:nonzero;stroke:none;stroke-width:1"
         height="5.990809"
         width="2.0939062"
         y="6.9754248"
         x="7.6019979"
         id="Rectangle-path" />
      <rect
         style="fill:#000000;fill-opacity:1;fill-rule:nonzero;stroke:none;stroke-width:1"
         height="5.990809"
         width="2.0939062"
         y="6.9754248"
         x="13.573627"
         id="rect18" />
      <rect
         style="fill:#000000;fill-opacity:1;fill-rule:nonzero;stroke:none;stroke-width:1"
         height="5.990809"
         width="2.0939062"
         y="6.9754248"
         x="18.292107"
         id="rect20" />
      <path
         style="fill:#000000;fill-opacity:1;fill-rule:nonzero;stroke:none;stroke-width:1"
         inkscape:connector-curvature="0"
         id="Shape"
         d="m 16.978222,9.2387612 c 0.652148,0 1.182817,-0.5338661 1.182817,-1.1956044 0,-0.6585414 -0.530669,-1.1924076 -1.182817,-1.1924076 -0.652148,0 -1.179621,0.5338662 -1.179621,1.1924076 0,0.6617383 0.527473,1.1956044 1.179621,1.1956044 z" />
      <path
         style="fill:#000000;fill-opacity:1;fill-rule:nonzero;stroke:none;stroke-width:1"
         inkscape:connector-curvature="0"
         id="path23"
         d="m 22.352048,12.966234 h 2.301698 c 0,0 -1.630369,-2.682118 -1.64955,-2.717283 -0.124675,-0.214186 -0.131069,-0.3420579 -0.0096,-0.5498501 l 1.659141,-2.7268731 h -2.301698 c 0,0 -1.384216,2.2697302 -1.572827,2.583017 -0.188612,0.3164835 -0.179021,0.5114882 0.0064,0.8343652 0.188612,0.326074 1.566434,2.576624 1.566434,2.576624 z" />
      <path
         style="fill:#000000;fill-opacity:1;fill-rule:nonzero;stroke:none;stroke-width:1"
         inkscape:connector-curvature="0"
         id="path25"
         d="m 13.442557,12.966234 v -0.0032 L 12.323676,7.9376623 C 12.214985,7.3878122 11.738661,6.9754246 11.163237,6.9754246 H 9.8173826 L 11.16963,12.969431 h 2.272927 z" />
    </g>
  </g>
</svg>
