<?xml version="1.0" encoding="UTF-8" standalone="no"?>
<!-- Generator: Adobe Illustrator 22.0.1, SVG Export Plug-In . SVG Version: 6.00 Build 0)  -->

<svg
   xmlns:dc="http://purl.org/dc/elements/1.1/"
   xmlns:cc="http://creativecommons.org/ns#"
   xmlns:rdf="http://www.w3.org/1999/02/22-rdf-syntax-ns#"
   xmlns:svg="http://www.w3.org/2000/svg"
   xmlns="http://www.w3.org/2000/svg"
   xmlns:sodipodi="http://sodipodi.sourceforge.net/DTD/sodipodi-0.dtd"
   xmlns:inkscape="http://www.inkscape.org/namespaces/inkscape"
   version="1.1"
   id="Layer_1"
   x="0px"
   y="0px"
   viewBox="0 0 226.10001 87.999997"
   xml:space="preserve"
   sodipodi:docname="NRK  P13.svg"
   width="226.10001"
   height="88"
   inkscape:version="0.92.3 (2405546, 2018-03-11)"><metadata
   id="metadata39"><rdf:RDF><cc:Work
       rdf:about=""><dc:format>image/svg+xml</dc:format><dc:type
         rdf:resource="http://purl.org/dc/dcmitype/StillImage" /><dc:title></dc:title></cc:Work></rdf:RDF></metadata><defs
   id="defs37" /><sodipodi:namedview
   pagecolor="#ffffff"
   bordercolor="#666666"
   borderopacity="1"
   objecttolerance="10"
   gridtolerance="10"
   guidetolerance="10"
   inkscape:pageopacity="0"
   inkscape:pageshadow="2"
   inkscape:window-width="1920"
   inkscape:window-height="1017"
   id="namedview35"
   showgrid="false"
   fit-margin-top="0"
   fit-margin-left="0"
   fit-margin-right="0"
   fit-margin-bottom="0"
   inkscape:zoom="1.2555261"
   inkscape:cx="112.9"
   inkscape:cy="44.149998"
   inkscape:window-x="-8"
   inkscape:window-y="-8"
   inkscape:window-maximized="1"
   inkscape:current-layer="Layer_1" />
<style
   type="text/css"
   id="style2">
	.st0{fill:#FFFFFF;}
</style>
<path
   class="st0"
   d="m 182.1,0 c -24.3,0 -44,19.7 -44,44 0,24.3 19.7,44 44,44 24.3,0 44,-19.7 44,-44 C 226,19.7 206.4,0 182.1,0"
   id="path4"
   inkscape:connector-curvature="0"
   style="fill:#ffffff;fill-opacity:1" />
<g
   id="g16"
   transform="translate(-0.2,-0.3)"
   style="fill:#ffffff;fill-opacity:1">
	<path
   d="M 163.2,28.6 H 150.8 V 60 h 7.7 V 35.2 h 4 c 3.1,0 4.5,1.7 4.5,4.3 0,2.7 -1.5,4.3 -4.7,4.3 H 161 v 6.3 h 1.9 c 8,0 11.9,-4.1 11.9,-10.9 -0.1,-6.7 -4.4,-10.6 -11.6,-10.6"
   id="path6"
   inkscape:connector-curvature="0"
   style="fill:#000000;fill-opacity:1" />
	<g
   id="g14"
   style="fill:#ffffff;fill-opacity:1">
		<g
   id="g12"
   style="fill:#ffffff;fill-opacity:1">
			<g
   id="g10"
   style="fill:#ffffff;fill-opacity:1">
				<path
   style="fill:#000000;fill-opacity:1"
   d="m 189.7,28.6 h -12.3 v 6.6 H 182 V 60 h 7.7 z"
   id="polygon8" />
			</g>
		</g>
	</g>
</g>
<g
   id="g30"
   transform="translate(-0.2,-0.3)"
   style="fill:#ffffff;fill-opacity:1">
	<rect
   x="0.2"
   y="21.799999"
   class="st0"
   width="15.8"
   height="45"
   id="rect18"
   style="fill:#ffffff;fill-opacity:1" />
	<rect
   x="45.200001"
   y="21.799999"
   class="st0"
   width="15.8"
   height="45"
   id="rect20"
   style="fill:#ffffff;fill-opacity:1" />
	<rect
   x="80.800003"
   y="21.799999"
   class="st0"
   width="15.8"
   height="45"
   id="rect22"
   style="fill:#ffffff;fill-opacity:1" />
	<path
   class="st0"
   d="m 70.9,20.8 c -4.9,0 -8.9,4 -8.9,9 0,5 4,9 8.9,9 4.9,0 8.9,-4 8.9,-9 0,-4.9 -4,-9 -8.9,-9"
   id="path24"
   inkscape:connector-curvature="0"
   style="fill:#ffffff;fill-opacity:1" />
	<path
   class="st0"
   d="m 116.3,46.4 c -0.9,-1.6 -1,-2.6 -0.1,-4.1 l 12.5,-20.5 h -17.4 c 0,0 -10.4,17 -11.9,19.4 -1.4,2.4 -1.4,3.8 0.1,6.3 1.4,2.4 11.8,19.4 11.8,19.4 h 17.4 c 0,-0.1 -12.3,-20.3 -12.4,-20.5"
   id="path26"
   inkscape:connector-curvature="0"
   style="fill:#ffffff;fill-opacity:1" />
	<path
   class="st0"
   d="M 44.2,66.8 35.8,29 C 35,24.9 31.4,21.8 27.1,21.8 H 16.9 l 10.2,45 z"
   id="path28"
   inkscape:connector-curvature="0"
   style="fill:#ffffff;fill-opacity:1" />
</g>
<path
   d="m 209.1,37.5 6.4,-9.2 H 193.2 V 35 h 9.5 l -4.6,6.8 -1.1,1.6 h 6.6 c 2.7,0 4.9,2.2 4.9,4.9 0,2.7 -2.2,4.9 -4.9,4.9 h -10.4 v 6.5 h 11.3 c 6.4,0 11.6,-5.2 11.6,-11.6 0,-4.7 -2.9,-8.8 -7,-10.6 z"
   id="path32"
   inkscape:connector-curvature="0"
   style="fill:#000000;fill-opacity:1" />
</svg>