<?xml version="1.0" encoding="UTF-8"?>
<svg width="32px" height="32px" viewBox="0 0 32 32" version="1.1" xmlns="http://www.w3.org/2000/svg" xmlns:xlink="http://www.w3.org/1999/xlink">
    <!-- Generator: Sketch 46.2 (44496) - http://www.bohemiancoding.com/sketch -->
    <title>nrk-logo-nrk-mp3-symbol--color</title>
    <desc>Created with Sketch.</desc>
    <defs></defs>
    <g id="Radio" stroke="none" stroke-width="1" fill="none" fill-rule="evenodd">
        <g id="nrk-logo-nrk-mp3-symbol--color" fill-rule="nonzero">
            <rect id="Rectangle-path" fill="#03FCA3" x="0.015984016" y="0" width="32" height="32"></rect>
            <g id="nrk" transform="translate(7.000000, 6.000000)" fill="#000000">
                <rect id="Rectangle-path" x="0.601998002" y="0.975424575" width="2.09390609" height="5.99080919"></rect>
                <rect id="Rectangle-path" x="6.57362637" y="0.975424575" width="2.09390609" height="5.99080919"></rect>
                <rect id="Rectangle-path" x="11.2921079" y="0.975424575" width="2.09390609" height="5.99080919"></rect>
                <path d="M9.97822178,3.23876124 C10.6303696,3.23876124 11.161039,2.7048951 11.161039,2.04315684 C11.161039,1.38461538 10.6303696,0.850749251 9.97822178,0.850749251 C9.32607393,0.850749251 8.7986014,1.38461538 8.7986014,2.04315684 C8.7986014,2.7048951 9.32607393,3.23876124 9.97822178,3.23876124 Z" id="Shape"></path>
                <path d="M15.352048,6.96623377 L17.6537463,6.96623377 C17.6537463,6.96623377 16.0233766,4.28411588 16.0041958,4.24895105 C15.8795205,4.03476523 15.8731269,3.90689311 15.9946054,3.6991009 L17.6537463,0.972227772 L15.352048,0.972227772 C15.352048,0.972227772 13.9678322,3.24195804 13.7792208,3.55524476 C13.5906094,3.87172827 13.6001998,4.06673327 13.7856144,4.38961039 C13.9742258,4.71568432 15.352048,6.96623377 15.352048,6.96623377 Z" id="Shape"></path>
                <path d="M6.44255744,6.96623377 L6.44255744,6.96303696 L5.32367632,1.93766234 C5.21498501,1.38781219 4.73866134,0.975424575 4.16323676,0.975424575 L2.81738262,0.975424575 L4.16963037,6.96943057 L6.44255744,6.96943057 L6.44255744,6.96623377 Z" id="Shape"></path>
            </g>
            <g id="mp3" transform="translate(3.452547, 14.609391)" fill="#000000">
                <path d="M14.5998002,0.00639360639 L11.3070929,0.00639360639 C11.3070929,0.00639360639 13.1772228,3.07532468 13.1996004,3.11688312 C13.3434565,3.35984016 13.353047,3.51008991 13.2123876,3.74345654 L11.3102897,6.86353646 L14.602997,6.86353646 C14.602997,6.86353646 16.1918082,4.26773227 16.405994,3.90649351 C16.6201798,3.54525475 16.6105894,3.32147852 16.3964036,2.95064935 C16.163037,2.55424575 16.1598402,2.55424575 14.5998002,0.00639360639 Z" id="Shape"></path>
                <path d="M24.9094905,1.77422577 C24.7976024,1.58561439 23.8193806,0.00639360639 23.8193806,0.00639360639 L16.7736264,0.00639360639 L18.3112887,2.58941059 L22.0227772,2.58941059 L20.4915085,5.0989011 L22.1986014,7.96643357 L20.5522478,10.6741259 L23.5604396,10.6741259 C24.0431568,9.88451548 24.7656344,8.66013986 24.9190809,8.40759241 C25.1364635,8.04635365 25.1268731,7.82257742 24.9094905,7.44855145 C24.7592408,7.19280719 23.9536464,5.91408591 23.4709291,5.12767233 C23.4709291,5.12767233 24.7656344,2.98261738 24.9158841,2.73006993 C25.1332667,2.36883117 25.1236763,2.14505495 24.9094905,1.77422577 Z" id="Shape"></path>
                <path d="M18.1322677,5.48251748 C17.6687313,6.24015984 16.8919081,7.50929071 16.7480519,7.75544456 C16.5402597,8.11348651 16.5306693,8.33086913 16.7384615,8.67612388 C16.8823177,8.91908092 17.6655345,10.1978022 18.1322677,10.9586414 C18.599001,10.1978022 19.379021,8.91588412 19.5260739,8.67612388 C19.7338661,8.32767233 19.7242757,8.11028971 19.5164835,7.75544456 C19.3694306,7.50929071 18.5958042,6.24015984 18.1322677,5.48251748 Z" id="Shape"></path>
                <path d="M8.76883117,0.00639360639 C8.46833167,0.00639360639 8.17102897,0.0767232767 7.80659341,0.3004995 C7.56363636,0.450749251 5.59120879,2.12587413 5.44095904,2.25374625 C5.29070929,2.12587413 3.31508492,0.450749251 3.07532468,0.3004995 C2.71088911,0.0799200799 2.41358641,0.00639360639 2.11308691,0.00639360639 C1.85734266,0.00639360639 0.015984016,0.00639360639 0.015984016,0.00639360639 L0.015984016,9.404995 L2.92827173,7.21518482 L2.92827173,3.44295704 L5.44095904,5.33226773 L7.95364635,3.44295704 L7.95364635,10.6741259 L10.8851149,10.6741259 L10.8851149,0.00639360639 C10.8819181,0.00639360639 9.02777223,0.00639360639 8.76883117,0.00639360639 Z" id="Shape"></path>
            </g>
        </g>
    </g>
</svg>