<?xml version="1.0" encoding="UTF-8" standalone="no"?>
<!-- Generator: Adobe Illustrator 22.0.1, SVG Export Plug-In . SVG Version: 6.00 Build 0)  -->

<svg
   xmlns:dc="http://purl.org/dc/elements/1.1/"
   xmlns:cc="http://creativecommons.org/ns#"
   xmlns:rdf="http://www.w3.org/1999/02/22-rdf-syntax-ns#"
   xmlns:svg="http://www.w3.org/2000/svg"
   xmlns="http://www.w3.org/2000/svg"
   xmlns:sodipodi="http://sodipodi.sourceforge.net/DTD/sodipodi-0.dtd"
   xmlns:inkscape="http://www.inkscape.org/namespaces/inkscape"
   version="1.1"
   id="Layer_1"
   x="0px"
   y="0px"
   viewBox="0 0 432.1 87.5"
   style="enable-background:new 0 0 432.1 87.5;"
   xml:space="preserve"
   sodipodi:docname="NRK Sport - Dark.svg"
   inkscape:version="0.92.3 (2405546, 2018-03-11)"><metadata
   id="metadata12"><rdf:RDF><cc:Work
       rdf:about=""><dc:format>image/svg+xml</dc:format><dc:type
         rdf:resource="http://purl.org/dc/dcmitype/StillImage" /><dc:title></dc:title></cc:Work></rdf:RDF></metadata><defs
   id="defs10" /><sodipodi:namedview
   pagecolor="#ffffff"
   bordercolor="#666666"
   borderopacity="1"
   objecttolerance="10"
   gridtolerance="10"
   guidetolerance="10"
   inkscape:pageopacity="0"
   inkscape:pageshadow="2"
   inkscape:window-width="716"
   inkscape:window-height="480"
   id="namedview8"
   showgrid="false"
   inkscape:zoom="0.65725526"
   inkscape:cx="216.05"
   inkscape:cy="43.75"
   inkscape:window-x="0"
   inkscape:window-y="0"
   inkscape:window-maximized="0"
   inkscape:current-layer="Layer_1" />
<style
   type="text/css"
   id="style2">
	.st0{fill:#FFFFFF;}
</style>
<g
   id="NRKSport-Vert.Sort"
   style="fill:#000000;fill-opacity:1">
	<path
   class="st0"
   d="M223.3,69.5c15.6,0,24.9-8.1,24.9-21.8c0-21.7-28.8-17.6-28.8-29.1c0-3.7,2.4-6.8,8.6-6.8   c1.9,0,3.8,0.3,5.9,1.2l2.1,6.4h10.1V5.1c-5.5-2.9-11.8-4.5-18.5-4.5c-13.1,0-24,6-24,19.5c0,22.5,29,16.5,29,29.9   c0,5.3-3.1,8.3-8.6,8.3c-3.5,0-6-0.6-7.8-1.3l-2.3-8.4h-10.2v16.9C208.7,67.9,215.7,69.5,223.3,69.5L223.3,69.5z M279.2,87.3v-7.7   l-8.8-1.8V64.9c1.9,1.8,6,4.7,12.2,4.7c12.5,0,20.1-8.7,20.1-27c0-18.3-8-24.8-18.6-24.8c-5.6,0-11.1,2.5-14.7,6.5h-0.2l-1-5.4h-17   v7.7l5.1,1.6v49.9l-5.2,1.5v7.7H279.2z M279,57.9c-3.2,0-6.6-1.5-8.2-2.6V32.9c1.8-1.8,5.5-3.4,8.7-3.4c5.1,0,8,3.8,8,14.1   C287.5,53.9,284.2,57.9,279,57.9L279,57.9z M332.7,69.5c14.7,0,24.9-8.4,24.9-26.2c0-18.2-9.2-25.6-23.7-25.6   c-14.9,0-25.1,8-25.1,26.5C308.9,60.8,318.2,69.5,332.7,69.5L332.7,69.5z M333.3,58.4c-5.6,0-8.9-4-8.9-15   c0-10.8,3.4-14.6,8.9-14.6c5.6,0,8.9,3.7,8.9,14.6C342.2,54.4,338.9,58.4,333.3,58.4L333.3,58.4z M389.5,68.4v-7.7l-8.3-1.8V37   c2.3-3.2,5.9-4.5,9.7-4.5c1.6,0,3.2,0.3,4.7,0.5l1-14.1c-1.5-0.4-3.2-0.5-4.9-0.5c-4.6,0-9.4,2.4-11.9,8.3h-0.2l-1.3-7.8h-16.7v7.7   l5,1.6v31l-5,1.6v7.7H389.5z M420.1,69.5c4.2,0,8.1-0.7,12.2-2l-1.5-10.1c-1.7,0.4-3.3,0.8-5.2,0.8c-3.1,0-4.3-1.1-4.3-3.6V29.6   h10.9V18.9h-10.9V6.9h-11.5l-2.6,12.1h-6.4l-0.7,10.7h6.5v27.5C406.6,65.1,410.7,69.5,420.1,69.5L420.1,69.5z M160.7,1.9h25.8   l-19.5,30.9c-0.7,1-1.1,1.7-1.1,2.4c0,0.7,0.2,1.2,1.1,2.5l19.5,30.7h-25.8l-16.4-29.2c-0.7-1.2-1.6-2.7-1.6-4.9   c0-1.6,0.4-2.8,1.6-5L160.7,1.9z M24.2,1.9h16.3c6,0,10,3.2,11.4,9.7l11.4,56.8H39L24.2,1.9z M0,1.9h22.9v66.5H0V1.9z M64.8,1.9   h22.7v66.5H64.8V1.9z M116.7,1.9h22.8v66.5h-22.8V1.9z M115.2,13.3c0-8.8-6.4-12.9-12.8-12.9c-6.5,0-12.9,3.7-12.9,12.9   c0,9.2,6.4,12.9,12.9,12.9C108.7,26.2,115.2,22.9,115.2,13.3z"
   id="path4"
   style="fill:#000000;fill-opacity:1" />
</g>
</svg>