<svg id="a" version="1.1" viewBox="0 0 226.1 88" xml:space="preserve" xmlns="http://www.w3.org/2000/svg">
<path id="c" class="st0" d="m182.1 0c-24.3 0-44 19.7-44 44s19.7 44 44 44 44-19.7 44-44c-0.1-24.3-19.7-44-44-44"/>
<g id="d" transform="translate(-.2 -.3)">
	<path id="e" d="m163.2 28.6h-12.4v31.4h7.7v-24.8h4c3.1 0 4.5 1.7 4.5 4.3 0 2.7-1.5 4.3-4.7 4.3h-1.3v6.3h1.9c8 0 11.9-4.1 11.9-10.9-0.1-6.7-4.4-10.6-11.6-10.6" fill="#fff"/>
	<g id="f">
		<g id="g">
			<g id="h">
				<path id="i" d="m189.7 28.6h-12.3v6.6h4.6v24.8h7.7z" fill="#fff"/>
			</g>
		</g>
	</g>
</g>
<g id="j" transform="translate(-.2 -.3)">
	<rect id="k" class="st0" x=".2" y="21.8" width="15.8" height="45"/>
	<rect id="l" class="st0" x="45.2" y="21.8" width="15.8" height="45"/>
	<rect id="m" class="st0" x="80.8" y="21.8" width="15.8" height="45"/>
	<path id="n" class="st0" d="m70.9 20.8c-4.9 0-8.9 4-8.9 9s4 9 8.9 9 8.9-4 8.9-9c0-4.9-4-9-8.9-9"/>
	<path id="o" class="st0" d="m116.3 46.4c-0.9-1.6-1-2.6-0.1-4.1l12.5-20.5h-17.4s-10.4 17-11.9 19.4c-1.4 2.4-1.4 3.8 0.1 6.3 1.4 2.4 11.8 19.4 11.8 19.4h17.4c0-0.1-12.3-20.3-12.4-20.5"/>
	<path id="p" class="st0" d="m44.2 66.8-8.4-37.8c-0.8-4.1-4.4-7.2-8.7-7.2h-10.2l10.2 45z"/>
</g>
<path id="q" d="m209.1 37.5 6.4-9.2h-22.3v6.7h9.5l-4.6 6.8-1.1 1.6h6.6c2.7 0 4.9 2.2 4.9 4.9s-2.2 4.9-4.9 4.9h-10.4v6.5h11.3c6.4 0 11.6-5.2 11.6-11.6 0-4.7-2.9-8.8-7-10.6z" fill="#fff"/>
</svg>
