<svg id="a" width="344.72pt" height="264.15pt" version="1.1" viewBox="0 0 344.72 264.15" xmlns="http://www.w3.org/2000/svg">
 <g id="b" transform="translate(-28.272 -67.691)" fill="#681269">
  <path id="c" d="m29.44 217.67v-149.94h68.53c3.76-0.03 7.51 0.41 11.25 0.76l36.67 93.77c-12.98 10.13-29.66 14.26-45.89 14.57-6.79 0.51-13.615 0.28-20.415 0.34v40.5h-50.145m50.145-109.9v33.491h13.642c2.9696 0 5.9174-0.40384 8.8234-1.1511 3.94-1.19 7.95-3.27 10.12-6.91 3.01-4.75 3.06-11.02 0.84-16.09-1.95-4.41-6.41-7.18-10.96-8.3-3.2033-0.64499-6.4387-1.0404-9.6893-1.0404z"/>
  <path id="d" d="m161.34 67.755h79.66l-24.805 65.495-15.045-34.09-14.52 34.09z"/>
  <path id="e" d="m235.09 217.66 58.56-149.96c15.68-0.11 31.85 0.73 46.44 7.03 15.17 6.18 26.61 20.79 28.77 37.06 1.84 13.25 0.01 27.42-7.19 38.9-5.09 8.27-13.01 14.43-21.63 18.69l32.95 48.275h-57.23l-23.93-40.44h-6.84v40.44h-49.9m49.9-107.41v31h14.783c4.9432 0 9.7665-0.96551 14.077-3.5228 8.69-5 8.7-19.61-0.17-24.41-4.484-2.4137-9.4138-3.0672-14.433-3.0672z"/>
  <path id="f" d="m201.15 172.6 15.88 45.03h-31.78z"/>
  <path id="g" d="m43.02 250.01c16.43-14.97 44.14-14.39 60.39 0.57 6.12 5.66 9.77 13.76 10.13 22.07h-23.32c-0.68-6.1-5.33-11.29-11.27-12.73-5.87-1.38-12.62-1.28-17.72 2.32-5.85 3.9-8.41 11.06-9.36 17.75-1.03 8.3 0.06 17.29 4.85 24.34 5.61 8.22 18.08 9.86 26.26 4.72 4.68-2.88 6.61-8.355 7.37-13.525 7.72-0.01 15.44-0.02 23.17 0-0.57 9.03-3.78 18.155-10.2 24.695-7.77 8.08-19.23 11.82-30.27 11.59-11.61 0.38-23.35-4.03-31.56-12.3-18.11-18.45-17.62-51.94 1.53-69.5z"/>
  <path id="h" d="m125.82 240.76h23.395v69.425h41.355v20h-64.75z"/>
  <path id="i" d="m201.64 240.75h23.095v54.38c0.21 4.73 0.995 9.96 4.615 13.4 3.67 3.35 8.99 3.52 13.68 3.24 3.76-0.18 7.74-1.6 9.95-4.82 2.78-3.7 2.95-8.53 3.22-12.96v-53.24h23.165v53.27c-0.23 9.7-1.915 20.24-8.785 27.61-7.18 7.8-18.31 10.22-28.52 10.18-10.3 0.28-21.55-1.16-29.58-8.19-7.92-6.77-10.48-17.68-10.84-27.66z"/>
  <path id="j" d="m294.84 240.8h43.145c7.56 0.28 15.54 0.965 22.06 5.165 5.73 3.49 8.95 10.3 8.69 16.93 0.4 7.75-4.69 14.99-11.57 18.22 7.17 2.4 13.23 8.34 14.68 15.9 1.89 9.55-0.7 20.95-9.06 26.75-7.44 5.33-16.88 6.075-25.73 6.395h-42.215c-0.06-29.79-0.07-59.58 0-89.36m23.365 18v16.935h20.53c5.38-0.64 8.28-6.93 6.29-11.73-1.2-3.72-5.37-5.175-8.94-5.205h-17.88m0 32.166v20.454h17.81c3.42 0.02 7.12-0.295 9.96-2.385 5.74-4.75 3.66-15.94-4-17.41-2.2508-0.37275-4.5117-0.6595-6.7841-0.6595z"/>
 </g>
</svg>
