<?xml version="1.0" encoding="UTF-8"?>
<!-- Created with Inkscape (http://www.inkscape.org/) -->
<svg id="svg11475" width="800" height="334.13" version="1.1" viewBox="0 0 211.67 88.406" xmlns="http://www.w3.org/2000/svg" xmlns:cc="http://creativecommons.org/ns#" xmlns:dc="http://purl.org/dc/elements/1.1/" xmlns:rdf="http://www.w3.org/1999/02/22-rdf-syntax-ns#">
 <metadata id="metadata11472">
  <rdf:RDF>
   <cc:Work rdf:about="">
    <dc:format>image/svg+xml</dc:format>
    <dc:type rdf:resource="http://purl.org/dc/dcmitype/StillImage"/>
    <dc:title/>
   </cc:Work>
  </rdf:RDF>
 </metadata>
 <g id="g2164" fill="#fff" stroke-width="9.8668">
  <path id="path2458" d="m34.901 63.372c-0.01973 0.28614-0.03947 0.55254-0.0592 0.83868l-0.4144-0.01973c0.0099-0.28614 0.0296-0.57227 0.0592-0.85841zm-0.39467 3.8086c-0.0296-0.27627-0.04933-0.56241-0.06907-0.85841l0.41441-0.01973c0.01973 0.28614 0.03947 0.56241 0.06907 0.83868zm0.49334 0.58214c0.03947 0.27627 0.0888 0.55254 0.148 0.81894l-0.41441 0.0888c-0.049334-0.27627-0.10853-0.56241-0.148-0.84854zm0.50321 2.2398-0.39467 0.1184c-0.0888-0.2664-0.16774-0.54267-0.22694-0.81894l0.40454-0.10854c0.0592 0.27627 0.13814 0.54267 0.21707 0.80908m0.50321 1.3616-0.38481 0.16774c-0.10853-0.25654-0.21707-0.52294-0.31574-0.78934l0.39467-0.148c0.09867 0.2664 0.19734 0.52294 0.30587 0.76961m0.2664-4.7262c0.06907 0.68081 0.18747 1.332 0.34534 1.9635l-0.42427 0.10854c-0.16774-0.65121-0.28614-1.3222-0.36507-2.0227zm1.3123 4.6571-0.39467 0.19734c-0.296-0.60187-0.54267-1.2432-0.75974-1.9043l0.42427-0.13814c0.2072 0.64134 0.45387 1.263 0.73014 1.8451m0.4144 0.77948c0.3256 0.58214 0.70054 1.1248 1.1051 1.628l-0.34534 0.28614c-0.42427-0.52294-0.79921-1.0853-1.1445-1.6872zm1.6774 2.299c0.45387 0.48347 0.93735 0.91761 1.4603 1.3123l-0.2664 0.36507c-0.53281-0.41441-1.0459-0.86828-1.5096-1.3715zm2.1806 1.8155c0.54267 0.3552 1.1248 0.66108 1.7267 0.91761l-0.16774 0.4144c-0.63148-0.2664-1.2334-0.58214-1.8056-0.94721zm2.5358 2.6443-0.12827 0.40454c-0.2664-0.0888-0.53281-0.1776-0.79921-0.27627l0.148-0.39467c0.25654 0.0888 0.51307 0.18747 0.77948 0.2664m0.0099-1.4208c0.61174 0.2072 1.2432 0.3552 1.8944 0.46374l-0.06907 0.44401c-0.67094-0.09867-1.332-0.2664-1.9635-0.47361zm1.9832 1.9043c0.27627 0.04933 0.55254 0.0888 0.81894 0.12827l-0.04933 0.41441c-0.27627-0.0296-0.55254-0.06907-0.83868-0.1184zm0.77948-1.332c0.46374 0.03947 0.90775 0.0592 1.3518 0.0592 0.2072 0 0.41441 0 0.61174-0.0099l0.01973 0.44401c-0.2072 0.0099-0.42427 0.0099-0.63148 0.0099-0.45387 0-0.91761-0.0099-1.3912-0.0592zm2.9206 1.5096 0.0296 0.42427c-0.27627 0.01973-0.56241 0.03947-0.83868 0.03947l-0.01973-0.42427c0.28614-0.0099 0.56241-0.01973 0.82881-0.03947m1.8352-1.8846 0.10854 0.43414c-0.63148 0.16774-1.2926 0.296-1.9832 0.37494l-0.04933-0.45387c0.67094-0.06907 1.3123-0.19734 1.924-0.3552m0.98668 1.3419 0.1184 0.40454c-0.25654 0.0888-0.53281 0.15787-0.81894 0.22694l-0.0888-0.4144c0.2664-0.0592 0.53281-0.13814 0.78934-0.21707m1.628-2.4075 0.21707 0.39467c-0.57228 0.3256-1.1939 0.61174-1.855 0.82881l-0.13814-0.4144c0.63148-0.22694 1.2235-0.49334 1.776-0.80908m0.99655 1.2334 0.2072 0.36507c-0.2368 0.148-0.48347 0.28614-0.74001 0.4144l-0.18747-0.37494c0.24667-0.13814 0.48347-0.2664 0.72028-0.40454m1.2531-2.9403 0.31574 0.31574c-0.46374 0.48347-0.99655 0.91761-1.5688 1.3123l-0.24667-0.37494c0.55254-0.37494 1.0557-0.79921 1.4998-1.2531m0.99655 1.1445 0.296 0.296c-0.19734 0.19734-0.40454 0.40454-0.62161 0.59201l-0.2664-0.31574c0.2072-0.18747 0.40454-0.37494 0.59201-0.57228m0.63148-3.4534 0.39467 0.19734c-0.28614 0.62161-0.66108 1.2038-1.1051 1.7464l-0.33547-0.28614c0.4144-0.51307 0.76961-1.0755 1.0459-1.6576m0.72028-2.7232 0.44401 0.03947c-0.04933 0.69068-0.19734 1.3715-0.42427 2.0326l-0.4144-0.15787c0.21707-0.61174 0.34534-1.2531 0.39467-1.9142m0.69068 4.0257c-0.12827 0.25654-0.2664 0.50321-0.42427 0.74988l-0.34534-0.22694c0.13814-0.2368 0.27627-0.47361 0.40454-0.72028zm0.1776-1.5294 0.39467 0.12827c-0.07893 0.27627-0.1776 0.54267-0.296 0.81894l-0.3848-0.16774c0.10854-0.2664 0.2072-0.52294 0.28614-0.77948m0.296-1.411 0.41441 0.04933c-0.0296 0.28614-0.07894 0.57227-0.148 0.85841l-0.40454-0.09867c0.0592-0.2664 0.10854-0.54267 0.13814-0.80908m-1.7859 4.9038-0.31574-0.27627c0.1776-0.2072 0.34534-0.42427 0.50321-0.65121l0.34534 0.24667c-0.16774 0.2368-0.34534 0.46374-0.53281 0.68081m-2.2299 1.9931-0.22694-0.34534c0.21707-0.15787 0.44401-0.3256 0.65121-0.49334l0.2664 0.33547c-0.21707 0.1776-0.45387 0.34534-0.69068 0.50321m-2.6443 1.3616-0.148-0.39467c0.2664-0.09867 0.51307-0.19734 0.75974-0.31574l0.1776 0.39467c-0.25654 0.1184-0.52294 0.21707-0.78934 0.31574m-2.891 0.70054-0.04933-0.41441c0.27627-0.03947 0.54267-0.07893 0.80908-0.12827l0.07894 0.41441c-0.27627 0.04933-0.55254 0.0888-0.83868 0.12827m-2.1016-0.31574-0.0099 0.42427c-0.27627 0-0.56241-0.01973-0.84854-0.03947l0.0296-0.42427c0.28614 0.01973 0.55254 0.03947 0.82881 0.03947m-2.8614-0.3256-0.0888 0.41441c-0.27627-0.0592-0.55254-0.12827-0.81894-0.19734l0.10854-0.41441c0.2664 0.06907 0.53281 0.13814 0.79921 0.19734m-2.9107-0.48347c-0.25654-0.10854-0.51307-0.2368-0.76961-0.3552l0.18747-0.3848c0.2368 0.12827 0.49334 0.2368 0.74988 0.34534zm-1.1347-1.0261-0.19734 0.36507c-0.24667-0.12827-0.49334-0.27627-0.73014-0.43414l0.21707-0.3552c0.2368 0.148 0.47361 0.28614 0.71041 0.42427m-1.2235-0.76961-0.2368 0.3552c-0.22695-0.16773-0.45389-0.34534-0.68083-0.51307l0.25654-0.33547c0.21707 0.1776 0.44401 0.33547 0.66108 0.49334m-1.411-0.57227c-0.2072-0.18747-0.41441-0.37494-0.62161-0.58214l0.296-0.296c0.19734 0.18747 0.39467 0.37494 0.60188 0.55254zm-0.75974-1.332-0.30587 0.28614c-0.18747-0.2072-0.37494-0.42427-0.55254-0.65121l0.3256-0.2664c0.16774 0.21707 0.3552 0.42427 0.53281 0.63148m-0.90774-1.1248-0.34534 0.24667c-0.15787-0.22694-0.3256-0.46374-0.47361-0.71041l0.3552-0.22694c0.13814 0.2368 0.296 0.46374 0.46374 0.69068m-1.5491-1.776 0.37494-0.18747c0.12827 0.25654 0.24667 0.50321 0.38481 0.74001l-0.36507 0.2072c-0.13814-0.24667-0.2664-0.50321-0.39467-0.75974m-1.4899-6.9265c0-0.12827 0-0.24667 0.0099-0.37494l0.41441 0.01973v0.83868h-0.41444c0-0.15787-0.0099-0.31574-0.0099-0.48347m-0.97681 0.13814c0.0099 8.1401 5.259 13.942 12.669 15.294 0.93735 0.16774 1.8451 0.24667 2.7331 0.24667 3.5619 0 6.6897-1.263 8.9295-3.0686 2.2398-1.7859 3.5619-4.1046 3.5619-6.1766 0-0.57228-0.09867-1.1248-0.31574-1.6478-0.0888-0.16774-0.18747-0.31574-0.28614-0.45387 0.0296 0.33547 0.03947 0.49334 0.03947 0.66108v0.09867l-0.41441-0.0099v-0.0888c0-0.22694-0.01973-0.45387-0.10853-1.2334-0.21707-0.22694-0.45387-0.41441-0.70054-0.58214 0.0296 0.21707 0.04933 0.43414 0.0592 0.65121l-0.44401 0.01973c-0.01973-0.30587-0.04933-0.63148-0.09867-0.95708-0.86828-0.4144-1.8451-0.51307-2.7627-0.24667-2.1115 0.62161-11.436 3.2955-17.257-0.85841-1.2136-0.86828-2.151-1.8451-2.8416-2.8811-0.01973 0.2664-0.01973 0.45387-0.01973 0.64134 0 0.34534 0.0099 0.68081 0.0296 1.0163l-0.44401 0.01973c-0.01973-0.34534-0.0296-0.69068-0.0296-1.036 0-0.31574 0.0099-0.64134 0.04933-1.3024-0.28614-0.50321-0.51307-1.0163-0.69068-1.5294-0.06907 0.47361-0.0888 0.65121-0.10853 0.83868l-0.41441-0.0592c0.0296-0.2664 0.06907-0.54267 0.24667-1.7662-0.18747-0.84854-0.24667-1.707-0.19734-2.5358-0.80908 2.4568-1.184 4.7854-1.184 6.9462m40.592-41.796c-2.22-0.70054-4.0849-0.30587-5.555 0.51307 0.62161-0.13814 1.263-0.2072 1.9043-0.2072 2.5555 0 5.2294 1.1347 6.6996 4.0849 0.40454 0.81894 0.61174 1.776 0.61174 2.8219-0.0099 5.5747-5.6241 13.666-16.497 15.915-1.2334 0.25654-2.4371 0.37494-3.5816 0.37494-2.9502 0-5.555-0.77948-7.4396-2.0819-1.8747-1.2926-3.039-3.1278-3.039-5.1998 0-0.65121 0.1184-1.3222 0.3552-2.003 0.53281-2.072 2.6542-4.4894 7.4001-9.5708 5.5945-5.9891 6.1174-11.949 5.9299-14.968-0.18747-3.0883-2.3187-9.0873-9.1071-11.998-6.0385-2.5851-11.258-0.64134-13.892 1.8155-0.44401 0.41441-0.83868 0.85841-1.184 1.332 0.84854-0.2368 1.7464-0.38481 2.6936-0.42427 0.16774 0 0.33547-0.00987 0.50321-0.00987 3.7889 0 8.0414 1.7563 10.784 6.5614 1.0163 1.8056 1.48 3.927 1.48 6.1569 0 4.2625-1.6675 8.9295-4.2625 12.659-1.4406 2.072-2.9896 3.8086-4.3315 5.111-1.3616 1.3024-2.5062 2.1707-3.1968 2.516-0.04933 0.01973-0.0888 0.03947-0.12827 0.0592-0.09867 0.04933-0.19734 0.10853-0.30587 0.148-0.21707 0.0888-0.43414 0.15787-0.66108 0.2072-0.58214 0.19734-1.2235 0.296-1.8944 0.296-2.2398 0-4.8249-1.0755-6.9758-3.4139-2.5259-2.743-3.6211-6.3838-3.6211-9.6399 0.0099-3.1771 1.036-5.999 2.8712-7.2817 0.72028-0.49334 1.411-0.71041 2.0424-0.71041 0.75974 0 1.4208 0.30587 1.9142 0.75974-0.12827-0.296-0.296-0.57228-0.49334-0.82881-1.3616-1.6971-4.7953-2.516-7.5974-0.09867-3.2166 2.7726-3.3942 8.6334-3.5126 9.8569-0.09867 1.1149 0.07893 1.9142-0.12827 2.0819-0.1776 0.148-0.75974-0.12827-1.9536-0.48347-1.1939-0.34533-4.1441-1.4701-8.6236-0.46373-5.2097 1.184-9.8964 6.4924-10.942 11.978-0.99655 5.1998 0.77948 8.7519 3.7297 10.104 0.22694 0.10854 0.45387 0.19734 0.66108 0.2664-0.21707-0.19734-0.41441-0.42427-0.58214-0.69068-0.49334-0.78934-0.75974-1.8648-0.75974-3.0883 0-2.2398 0.89788-4.9926 2.9798-7.331 2.5555-2.8712 6.6009-4.1835 10.567-4.1934 3.039 0.0099 6.0385 0.77948 8.3276 2.2496 4.1243 2.6443 5.407 5.9398 5.407 8.6038 0 0.21707-0.0099 0.4144-0.01973 0.61174 0.01973 1.6971-0.94721 3.8481-2.7824 7.5777-5.4366 10.992-2.7824 20.474 0.4144 25.417 3.5027 5.407 10.192 8.89 15.678 9.4031 5.3774 0.50321 11.485-1.628 14.524-5.7819 2.516-3.4336 3.5718-7.5777 3.2758-10.331-0.21707 2.072-1.5787 4.2329-3.6902 5.9201-2.3088 1.855-5.5254 3.1574-9.186 3.1574-0.90775 0-1.8451-0.07894-2.8022-0.25654-7.5876-1.3616-13.024-7.3705-13.014-15.708 0-2.96 0.68081-6.2161 2.1806-9.6596l0.0099 0.0099c0.16774-0.44401 0.36507-0.86828 0.60188-1.2728 2.0622-3.552 5.8214-4.7361 8.4164-4.9334 1.5491-0.10854 3.9369 0.28614 6.295 1.4504 2.2398 1.0952 5.5353 2.2398 8.2585 2.2694 3.3448 0.0296 6.3838-0.71041 9.038-1.9536 2.7627-1.2926 12.758-6.7391 13.231-16.27 0.2664-5.3083-2.2299-9.926-7.0252-11.436m-33.636-5.3083c-0.296 0.27627-1.0064 0.91761-1.1643 1.855-0.148 0.95708 0.39467 2.2595 1.4011 3.256 1.9438 1.9142 2.6936 3.3054 2.8515 6.0582 1.4011-5.7523-2.2299-10.331-3.0883-11.169m-7.0745 0.81894c-0.16774-0.2368-0.34534-0.42427-0.53281-0.56241l0.24667-0.34534c0.2368 0.1776 0.44401 0.40454 0.62161 0.66108zm-0.90774 0.69068c-0.18747-0.19734-0.3552-0.28614-0.48347-0.296h-0.03947c-0.34534 0-0.64134 0.148-0.90774 0.41441l-0.30587-0.3256c0.3256-0.31574 0.73014-0.53281 1.2136-0.53281h0.04933c0.30587 0.0099 0.57228 0.18747 0.79921 0.43414zm-0.43414 13.587-0.296 0.30587c-0.2072-0.2072-0.39467-0.41441-0.58214-0.63148l0.31574-0.27627c0.1776 0.2072 0.36507 0.40454 0.56241 0.60188m0.44401 0.43414c0.2072 0.18747 0.4144 0.36507 0.63148 0.53281l-0.25654 0.33547c-0.22694-0.1776-0.44401-0.36507-0.65121-0.55254zm-1.7267-1.263c-0.1776-0.22694-0.34534-0.45387-0.50321-0.69068l0.33547-0.2368c0.15787 0.22694 0.31574 0.45387 0.49334 0.67094zm-1.2827-1.9832 0.37494-0.19734c0.12827 0.24667 0.25654 0.48347 0.40454 0.73014l-0.3552 0.21707c-0.148-0.24667-0.28614-0.49334-0.42427-0.74988m-0.60188-1.3715 0.3848-0.148c0.09867 0.25654 0.19734 0.51307 0.31574 0.76961l-0.37494 0.1776c-0.12827-0.2664-0.2368-0.53281-0.3256-0.79921m-0.24667-0.75974c-0.0592-0.22694-0.1184-0.46374-0.16774-0.70054l0.40454-0.0888c0.04933 0.22694 0.09867 0.45387 0.16774 0.67094 0.0099 0.04933 0.01973 0.0888 0.03947 0.13814l-0.40454 0.1184c-0.0099-0.04933-0.0296-0.0888-0.03947-0.13814m-0.41441-2.1806 0.42427-0.04933c0.01973 0.27627 0.0592 0.55254 0.10853 0.82881l-0.4144 0.06907c-0.04933-0.28614-0.0888-0.57227-0.1184-0.84854m-0.07893-1.5096h0.4144c0 0.27627 0.0099 0.55254 0.0296 0.83868l-0.41441 0.01973c-0.01973-0.28614-0.0296-0.57228-0.0296-0.85841m0.0592-1.4998 0.42427 0.03947c-0.0296 0.2664-0.04933 0.55254-0.0592 0.83868l-0.4144-0.01973c0.0099-0.296 0.0296-0.58214 0.04933-0.85841m0.2368-1.4899 0.40454 0.0888c-0.0592 0.25654-0.10854 0.53281-0.148 0.81894l-0.41441-0.0592c0.03947-0.30587 0.09867-0.58214 0.15787-0.84854m0.44401-1.4603 0.3848 0.1776c-0.09867 0.21707-0.18747 0.47361-0.27627 0.76961l-0.39467-0.1184c0.0888-0.30587 0.18747-0.58214 0.28614-0.82881m0.82881-1.2926 0.31574 0.27627c-0.16774 0.19734-0.3256 0.4144-0.47361 0.66108l-0.3552-0.22694c0.15787-0.25654 0.3256-0.49334 0.51307-0.71041m0.86828 9.9556c0.21707 0.57227 0.51307 1.1741 0.87815 1.7662l-0.38481 0.2368c-0.37494-0.61174-0.68081-1.2432-0.90774-1.8451zm-0.62161-2.7923c0.07893 0.61174 0.19734 1.263 0.36507 1.9536l-0.42427 0.1184c-0.1776-0.71042-0.296-1.3814-0.37494-2.0227zm-0.42427-3.8185c0.01973-0.09867 0.03947-0.18747 0.04933-0.27627 0.12827-0.56241 0.31574-1.184 0.60187-1.7168l0.38481 0.21707c-0.25654 0.48347-0.43414 1.0557-0.55254 1.5984-0.0099 0.07894-0.0296 0.15787-0.04933 0.24667zm0.33547 0.93735c-0.01973 0.296-0.0296 0.60187-0.0296 0.94721 0 0.3256 0.0099 0.67094 0.0296 1.0459l-0.43414 0.0296c-0.0296-0.37494-0.03947-0.74001-0.03947-1.0755 0-0.3552 0.0099-0.68081 0.0296-0.97681zm1.0459-5.2491 0.1776 0.37494c-0.21707 0.10854-0.43414 0.25654-0.65121 0.44401l-0.2664-0.3256c0.22694-0.2072 0.48347-0.37494 0.74001-0.49334m0.98668-0.2368c0.18747 0 0.3848 0.0296 0.58214 0.0888l-0.1184 0.40454c-0.15787-0.04933-0.31574-0.06907-0.46374-0.06907-0.0888 0-0.1776 0.0099-0.2664 0.01973l-0.069068-0.42427c0.10854-0.0099 0.21707-0.01973 0.33547-0.01973m-0.19734-0.72028c-0.54267 0-1.1445 0.1776-1.8155 0.64134-1.6478 1.1347-2.6838 3.8382-2.6739 6.9265 0 3.1574 1.0557 6.6996 3.5027 9.3537 1.9438 2.1115 4.2329 3.1376 6.2358 3.256-0.85841-0.27627-1.6576-0.78934-2.2792-1.4208-0.66108-0.3552-1.0755-0.62161-1.2926-0.76961l0.2368-0.3552c0.1184 0.07893 0.22694 0.15787 0.34534 0.2368-0.2368-0.37494-0.45387-0.78934-0.64134-1.2531-0.67094-0.66108-1.3616-1.4504-1.7366-1.9734l0.3552-0.2664c0.31574 0.44401 0.66108 0.86828 1.036 1.2531-0.56241-1.9635-0.65121-4.5091 0.06907-7.3508 0.2664-1.0261 0.50321-1.9832 0.67094-2.8811-0.18747-0.70054-0.52294-1.5392-0.75974-1.9832l0.3848-0.21707c0.19734 0.37494 0.38481 0.79921 0.54267 1.2531 0.0592-0.4144 0.10854-0.80908 0.12827-1.1939-0.09867-0.25654-0.2368-0.55254-0.34534-0.76961l0.36507-0.2072c-0.0099-0.296-0.03947-0.59201-0.0888-0.86828-0.42427-0.76961-1.2334-1.411-2.2398-1.411m23.384 50.104c0.44401-0.54267 1.184-3.3843-0.72028-4.9334-1.8056-1.4504-4.9235-0.75974-8.742 1.5096-3.335 1.9734-5.0025 2.151-7.6468 1.1741 0.55254 0.62161 1.8254 1.7662 3.6704 2.5358 4.8545 2.0128 13.034 0.2368 13.439-0.28614m-16.083-60.809 0.03947 0.44401c-0.66108 0.059201-1.3024 0.16774-1.9339 0.33547l-0.10854-0.43414c0.65121-0.1776 1.3222-0.296 2.003-0.34534m-1.036-1.1051 0.0592 0.42427c-0.2664 0.039467-0.53281 0.088801-0.79921 0.15787l-0.09867-0.41441c0.27627-0.059201 0.55254-0.1184 0.83868-0.16774m1.48-0.13814 0.0099 0.42427c-0.27627 0.00987-0.55254 0.0296-0.81894 0.059201l-0.03947-0.42427c0.28614-0.0296 0.56241-0.049334 0.84854-0.059201m0.46374 1.2037c0.52294 0.00987 1.0459 0.049334 1.559 0.13814 0.15787 0.0296 0.31574 0.059201 0.46374 0.088801l-0.09867 0.44401c-0.13816-0.039467-0.28616-0.069067-0.43417-0.088801-0.49334-0.078934-0.99655-0.12827-1.4899-0.12827zm0.1776-1.2037c0.09867 0 0.18747 0.00987 0.296 0.00987 0.1776 0.00987 0.36507 0.0296 0.54267 0.049334l-0.03947 0.42427c-0.1776-0.019734-0.3552-0.039467-0.53281-0.049334-0.0888 0-0.18747 0-0.28614-0.00987zm1.411 0.56241 0.06907-0.42427c0.27627 0.049334 0.56241 0.10853 0.83868 0.16774l-0.0987 0.41441c-0.2664-0.069068-0.53281-0.1184-0.80908-0.15787m1.1643 1.5491 0.148-0.42427c0.63148 0.22694 1.2531 0.52294 1.8352 0.89788l-0.2368 0.37494c-0.55254-0.34534-1.1445-0.63148-1.7464-0.84854m0.3552-1.628c0.27627 0.078934 0.54267 0.16774 0.80908 0.27627l-0.15787 0.39467c-0.25654-0.098668-0.51307-0.18747-0.76961-0.2664zm1.3912 0.53281c0.25654 0.1184 0.51307 0.25654 0.75974 0.39467l-0.2072 0.36507c-0.2368-0.12827-0.47361-0.25654-0.72028-0.37494zm2.4667 3.5027-0.3256 0.296c-0.43414-0.50321-0.91761-0.95708-1.4307-1.3518l0.27627-0.3552c0.53281 0.40454 1.0261 0.87815 1.48 1.411m-1.1544-2.7726c0.2368 0.148 0.46374 0.31574 0.69068 0.49334l-0.24667 0.33547c-0.22694-0.16774-0.44401-0.3256-0.68081-0.47361zm1.184 0.90775c0.21707 0.18747 0.42427 0.37494 0.63148 0.58214l-0.30587 0.30587c-0.18747-0.19734-0.3848-0.39467-0.59201-0.57227zm1.0656 1.0557c0.18747 0.21707 0.36507 0.43414 0.54267 0.67094l-0.33547 0.25654c-0.16774-0.22694-0.34534-0.43414-0.52294-0.64134zm0.91761 1.1939c0.148 0.2368 0.30587 0.48347 0.44401 0.73014l-0.3552 0.21707c-0.148-0.24667-0.28614-0.47361-0.43414-0.71041zm1.1149 2.0819-0.38481 0.16774c-0.10853-0.25654-0.22694-0.51307-0.34534-0.75974l0.36507-0.18747c0.13814 0.24667 0.25654 0.50321 0.36507 0.77948m0.27627 0.69068c0.0888 0.2368 0.15787 0.48347 0.22694 0.74001l-0.40454 0.09867c-0.06907-0.2368-0.13814-0.47361-0.21707-0.69068l-0.0296-0.0888 0.3848-0.15787c0.01973 0.03947 0.0296 0.06907 0.03947 0.09867m0.48347 2.2299-0.4144 0.03947c-0.0296-0.28614-0.06907-0.56241-0.1184-0.81894l0.41441-0.07893c0.04933 0.27627 0.0888 0.55254 0.1184 0.85841m0.06907 1.3912v0.10853h-0.41441v-0.10853c0-0.24667-0.0099-0.48347-0.01973-0.73014l0.4144-0.01973c0.0099 0.24667 0.01973 0.50321 0.01973 0.74988m-0.07894 1.6182-0.4144-0.04933c0.0296-0.28614 0.04933-0.56241 0.0592-0.83868l0.4144 0.01973c-0.0099 0.28614-0.0296 0.57228-0.0592 0.86828m-0.2072 1.48-0.41441-0.06907c0.04933-0.28614 0.09867-0.56241 0.12827-0.82881l0.42427 0.04933c-0.04933 0.28614-0.0888 0.56241-0.13814 0.84854m-0.31574 1.4702-0.40454-0.10854c0.06907-0.27627 0.13814-0.55254 0.18747-0.81894l0.41441 0.0888c-0.0592 0.27627-0.12827 0.55254-0.19734 0.83868m-0.4144 1.4307-0.39467-0.12827c0.0888-0.2664 0.16774-0.53281 0.24667-0.79921l0.39467 0.1184c-0.06907 0.2664-0.15787 0.54267-0.24667 0.80908m-0.49334 1.411-0.39467-0.148c0.10854-0.2664 0.19734-0.53281 0.296-0.78934l0.39467 0.13814-0.296 0.79921m-0.59201 1.3814-0.37494-0.18747c0.1184-0.25654 0.22694-0.51307 0.33547-0.76961l0.3848 0.16774c-0.10853 0.2664-0.21707 0.52294-0.34534 0.78934m-0.66108 1.332-0.36507-0.19734c0.12827-0.25654 0.25654-0.50321 0.3848-0.74988l0.36507 0.18747c-0.1184 0.25654-0.24667 0.51307-0.3848 0.75974m-0.73014 1.3024-0.3552-0.22694c0.148-0.2368 0.28614-0.48347 0.4144-0.72028l0.37494 0.2072c-0.13814 0.24667-0.28614 0.49334-0.43414 0.74001m0.0592-3.5619 0.40454 0.18747c-0.2664 0.61174-0.57227 1.2136-0.89788 1.8254l-0.3848-0.21707c0.3256-0.60188 0.62161-1.1939 0.87814-1.7958m0.70054-11.968c-0.296-0.60188-0.63148-1.1741-1.0064-1.6971l0.3552-0.2664c0.39467 0.55254 0.74988 1.1347 1.0459 1.7662zm0.86828 2.7134c-0.1184-0.66108-0.296-1.3024-0.52294-1.9043l0.40454-0.15787c0.2368 0.63148 0.43414 1.2926 0.56241 1.9832zm0.15787 2.8515c0.01973-0.296 0.0296-0.59201 0.0296-0.87814 0-0.37494-0.01973-0.74001-0.04933-1.1051l0.43414-0.03947c0.03947 0.37494 0.0592 0.74988 0.0592 1.1445 0 0.30587-0.01973 0.61174-0.03947 0.91761zm-0.28614 3.8283c-0.18747 0.64134-0.4144 1.2827-0.67094 1.924l-0.41441-0.16774c0.25654-0.63148 0.47361-1.263 0.66108-1.8846zm-0.18747-0.98668c0.16774-0.66108 0.296-1.3222 0.3848-1.9635l0.43414 0.0592c-0.0888 0.66108-0.21707 1.332-0.3848 2.0128zm-2.1115 8.3769-0.34534-0.2368c0.15787-0.2368 0.30587-0.47361 0.45387-0.70054l0.3552 0.22694c-0.148 0.2368-0.30587 0.47361-0.46374 0.71041m-0.85841 1.2136-0.33547-0.25654c0.16774-0.22694 0.33547-0.45387 0.49334-0.68081l0.33547 0.24667c-0.15787 0.2368-0.3256 0.46374-0.49334 0.69068m0.77948-3.2363c-0.33547 0.58214-0.70054 1.1544-1.0853 1.7168l-0.36507-0.25654c0.3848-0.55254 0.74001-1.1149 1.0656-1.6872zm-1.707 4.4006-0.31574-0.27627c0.1776-0.21707 0.3552-0.43414 0.52294-0.65121l0.3256 0.2664c-0.16774 0.22694-0.34534 0.44401-0.53281 0.66108m-0.21707-3.6507c-0.06907 0.59201-0.15787 1.184-0.27627 1.7563 0.07893-0.09867 0.15787-0.2072 0.2368-0.31574l0.3552 0.2664c-0.2664 0.36507-0.54267 0.73014-0.82881 1.0853-0.148 0.57227-0.3256 1.1248-0.51307 1.6576 0.19734-0.22694 0.41441-0.47361 0.52294-0.59201l0.31574 0.27627c-0.16774 0.19734-0.99655 1.0952-1.2827 1.411-0.33547 0.74001-0.71041 1.4208-1.1149 1.9832 0.24667-0.19734 0.50321-0.42427 0.76961-0.67094 1.4504-1.3222 3.2166-3.2363 4.8446-5.5649 2.5456-3.6606 4.1835-8.2782 4.1835-12.422 0-2.1707-0.44401-4.2131-1.4307-5.9398-2.664-4.6769-6.7489-6.3444-10.419-6.3444h-0.48347c-1.1051 0.049334-2.1411 0.24667-3.0883 0.56241-0.15787 0.2664-0.296 0.53281-0.43414 0.80908 0.2072-0.069068 0.4144-0.13814 0.62161-0.19734l0.10854 0.40454c-0.22694 0.069068-0.64134 0.19734-0.95708 0.3256-0.1184 0.30587-0.21707 0.62161-0.296 0.93735 0.24667-0.098668 0.50321-0.19734 0.76961-0.28614l0.13814 0.42427c-0.3552 0.1184-0.69068 0.25654-1.0163 0.40454-0.1776 1.0656-0.09867 2.1312 0.25654 3.0982 1.8846 5.0913 10.025 7.8441 9.0183 16.931m15.224 17.464 0.04933 0.42427c-0.27627 0.03947-0.56241 0.0592-0.83868 0.0888l-0.0296-0.42427c0.2664-0.01973 0.54267-0.04933 0.81894-0.0888m1.1445-1.4603 0.07893 0.44401c-0.68081 0.12827-1.3419 0.21707-1.9931 0.25654l-0.0296-0.44401c0.63148-0.04933 1.2827-0.12827 1.9438-0.25654m0.28614 1.2235 0.07893 0.41441-0.1184 0.0296c-0.2368 0.04933-0.47361 0.0888-0.71041 0.12827l-0.06907-0.42427c0.22694-0.0296 0.46374-0.07893 0.70054-0.12827 0.03947 0 0.07894-0.0099 0.1184-0.01973m2.4568-1.9635 0.15787 0.42427c-0.63148 0.21707-1.2728 0.41441-1.9339 0.57228l-0.10852-0.43414c0.64134-0.15787 1.2827-0.34534 1.8846-0.56241m0.46374 1.5886c-0.25654 0.0888-0.52294 0.1776-0.79921 0.2664l-0.1184-0.40454c0.2664-0.0888 0.53281-0.16774 0.77948-0.2664zm2.1411-2.7627 0.2072 0.40454c-0.58214 0.31574-1.1939 0.60187-1.8254 0.86828l-0.16774-0.42427c0.62161-0.24667 1.2136-0.53281 1.7859-0.84854m1.8944-15.511 0.06907 0.44401c-0.64134 0.10854-1.2728 0.27627-1.8846 0.51307l-0.15787-0.42427c0.64134-0.24667 1.3123-0.42427 1.9734-0.53281m0.44401-1.263 0.06907 0.42427c-0.27627 0.03947-0.54267 0.0888-0.80908 0.15787l-0.09867-0.41441c0.27627-0.06907 0.56241-0.12827 0.83868-0.16774m0.3256 15.599c-0.52294 0.39467-1.0853 0.76961-1.6774 1.1248l-0.22694-0.3848c0.58214-0.34534 1.1248-0.71041 1.6478-1.1051zm0.83868-14.475c0.45387 0 0.89788 0.0296 1.3222 0.10854l-0.06907 0.43414c-0.40454-0.0592-0.81894-0.09867-1.2531-0.09867-0.22694 0-0.45387 0.01973-0.68081 0.0296l-0.0296-0.44401c0.2368-0.01973 0.47361-0.0296 0.71041-0.0296m0.18747-1.2235h0.13814v0.42427h-0.13814c-0.22694 0-0.45387 0.0099-0.68081 0.0296l-0.0296-0.42427c0.2368-0.01973 0.47361-0.0296 0.71041-0.0296m0.77948 0.03947c0.296 0.01973 0.57227 0.0592 0.85841 0.1184l-0.0888 0.4144c-0.2664-0.04933-0.53281-0.0888-0.79921-0.1184zm1.2531 1.4899c0.69068 0.2072 1.3222 0.52294 1.8352 0.95708l-0.27627 0.34534c-0.47361-0.3848-1.0459-0.68081-1.6872-0.86828zm0.22694-1.2235c0.27627 0.0888 0.55254 0.1776 0.80908 0.296l-0.15787 0.3848c-0.24667-0.09867-0.50321-0.19734-0.76961-0.2664zm1.3912 0.58214c0.25654 0.13814 0.49334 0.296 0.73014 0.47361l-0.24667 0.33547c-0.21707-0.15787-0.44401-0.30587-0.68081-0.44401zm1.1939 2.7726c0.2368 0.44401 0.3848 0.93735 0.44401 1.4702l-0.43414 0.0592c-0.0592-0.49334-0.18747-0.92748-0.40454-1.3123-0.07893-0.15787-0.1776-0.30587-0.27627-0.43414l0.34534-0.27627c0.1184 0.15787 0.22694 0.31574 0.3256 0.49334m0.0296-1.8747c0.2072 0.19734 0.40454 0.4144 0.58214 0.65121l-0.3256 0.25654c-0.16773-0.21707-0.34534-0.4144-0.54267-0.60187zm0.94721 1.2037c0.04933 0.06907 0.0888 0.148 0.12827 0.21707 0.09867 0.18747 0.1776 0.37494 0.24667 0.58214l-0.39467 0.13814c-0.06907-0.1776-0.13814-0.3552-0.22694-0.51307-0.0296-0.07893-0.06907-0.148-0.10853-0.21707zm0.67094 2.3088-0.41441 0.0296c-0.01973-0.28614-0.04933-0.55254-0.10854-0.80908l0.40454-0.0888c0.0592 0.27627 0.09867 0.56241 0.1184 0.86828m-0.06907 1.5195-0.4144-0.0592c0.03947-0.27627 0.0592-0.55254 0.06907-0.81894l0.42427 0.0099c-0.0099 0.28614-0.03947 0.57228-0.07894 0.86828m-0.3256 1.48-0.40454-0.1184c0.07893-0.27627 0.148-0.54267 0.2072-0.80908l0.40454 0.0888c-0.0592 0.27627-0.12827 0.56241-0.2072 0.83868m-0.53281 1.411-0.37494-0.16774c0.10854-0.25654 0.21707-0.51307 0.30587-0.77948l0.39467 0.15787c-0.09867 0.25654-0.2072 0.52294-0.3256 0.78934m-0.67094 1.3419-0.36507-0.2072c0.13814-0.24667 0.27627-0.49334 0.39467-0.74001l0.37494 0.19734c-0.12827 0.24667-0.2664 0.50321-0.40454 0.74988m-0.79921 1.263h-0.0099l-0.33547-0.2368c0.15787-0.2368 0.31574-0.46374 0.46374-0.70054l0.34534 0.22694c-0.13814 0.2368-0.30587 0.47361-0.46374 0.71041m0.46374-3.3547c-0.2664 0.60188-0.58214 1.2038-0.96695 1.8056l-0.3749-0.23684c0.37494-0.59201 0.68081-1.1741 0.93735-1.7464zm0.3256-0.85841-0.4144-0.13814c0.22694-0.67094 0.36507-1.3222 0.39467-1.9142l0.44401 0.0296c-0.03947 0.64134-0.18747 1.3222-0.42427 2.0227m-1.6971 5.407-0.3256-0.27627c0.1776-0.21707 0.3552-0.43414 0.52294-0.65121l0.3256 0.25654c-0.16774 0.22694-0.34534 0.44401-0.52294 0.67094m-1.3814-0.39467-0.3256-0.30587c0.45387-0.50321 0.87815-1.0261 1.2432-1.5491l0.3552 0.2664c-0.37494 0.53281-0.79921 1.0755-1.2728 1.5886m0.37494 1.4998-0.296-0.30587c0.19734-0.19734 0.3848-0.40454 0.57228-0.60188l0.30587 0.28614c-0.18747 0.2072-0.3848 0.41441-0.58214 0.62161m-1.0853 1.0163-0.2664-0.31574c0.2072-0.18747 0.4144-0.37494 0.61174-0.56241l0.28614 0.30587c-0.19734 0.19734-0.4144 0.3848-0.63148 0.57227m-1.1445 0.93735-0.25654-0.33547c0.22694-0.16774 0.44401-0.34534 0.66108-0.52294l0.25654 0.33547c-0.21707 0.1776-0.43414 0.3552-0.66108 0.52294m-0.2664-1.4307-0.27627-0.34534c0.52294-0.43414 1.0163-0.87814 1.4702-1.3419l0.31574 0.3256c-0.47361 0.47361-0.96695 0.92748-1.5096 1.3616m-0.95708 2.2792-0.22694-0.3552c0.2368-0.148 0.46374-0.30587 0.69068-0.46374l0.2368 0.34534c-0.22694 0.16774-0.46374 0.3256-0.70054 0.47361m-1.2728 0.75974-0.19734-0.36507c0.24667-0.13814 0.48347-0.27627 0.72028-0.42427l0.2072 0.36507c-0.2368 0.148-0.48347 0.28614-0.73014 0.42427m-1.3222 0.67094-0.1776-0.3848c0.25654-0.1184 0.50321-0.24667 0.74988-0.36507l0.18747 0.37494c-0.24667 0.12827-0.50321 0.25654-0.75974 0.37494m-1.3616 0.57227-0.148-0.39467c0.25654-0.09867 0.51307-0.2072 0.76961-0.31574l0.15787 0.39467c-0.25654 0.10853-0.51307 0.21707-0.77948 0.31574m-2.8318 0.86828-0.0888-0.41441c0.27627-0.0592 0.54267-0.12827 0.79921-0.2072l0.1184 0.41441c-0.27627 0.06907-0.54267 0.148-0.82881 0.2072m-4.1638 0.51307h-0.22694l0.0099-0.42427h0.21707c0.19734 0 0.40454 0 0.60188-0.0099l0.01973 0.42427c-0.2072 0.0099-0.41441 0.0099-0.62161 0.0099m-0.85841-0.01973c-0.28614-0.01973-0.57228-0.03947-0.84854-0.06907l0.04933-0.42427c0.2664 0.0296 0.54267 0.04933 0.81894 0.06907zm-1.48-0.15787c-0.28614-0.03947-0.56241-0.0888-0.83868-0.15787l0.0888-0.40454c0.2664 0.04933 0.54267 0.09867 0.81894 0.148zm-1.4504-0.30587c-0.27627-0.07893-0.55254-0.15787-0.81894-0.25654l0.13814-0.39467c0.25654 0.0888 0.52294 0.16774 0.78934 0.2368zm-1.4109-0.48351c-0.2664-0.10854-0.52294-0.22694-0.77948-0.3552l0.18747-0.3848c0.2368 0.12827 0.49334 0.24667 0.74988 0.34534zm0.85841-1.4899c0.58214 0.21707 1.2038 0.3848 1.8846 0.51307l-0.07893 0.44401c-0.70054-0.12827-1.3518-0.30587-1.9635-0.53281zm2.6936 1.0853 0.04933-0.44401c0.55254 0.06907 1.1248 0.09867 1.7168 0.09867h0.24667l0.0099 0.45387h-0.25654c-0.60188 0-1.1939-0.03947-1.7662-0.10854m-4.894-0.26641c-0.24667-0.148-0.48347-0.31574-0.71041-0.48347l0.24667-0.33547c0.21707 0.15787 0.44401 0.31574 0.68081 0.45387zm2.0424-1.1149c-0.19734 0.0099-0.3848 0.0099-0.57227 0.0099l-0.18747 0.40454c-0.3256-0.15787-0.63148-0.3256-0.91761-0.50321-0.72028-0.12827-1.3814-0.3552-1.9536-0.68081 0.28614 0.3552 0.54267 0.57227 0.65121 0.67094l-0.27627 0.31574c-0.2072-0.1875-0.91761-0.86831-1.332-1.6774-0.44401-0.41441-0.78934-0.91761-0.99655-1.4702 0.12827 1.7662 1.1643 3.335 2.8416 4.4993 1.7958 1.2432 4.3217 2.003 7.2028 2.003 1.1149 0 2.2891-0.1184 3.5027-0.36507 10.705-2.2102 16.162-10.192 16.152-15.501 0-0.98668-0.18747-1.8846-0.56241-2.6344-1.4011-2.7923-3.8777-3.8382-6.3246-3.8481-1.0656 0-2.1115 0.2072-3.0488 0.55254-0.3552 0.28614-0.68081 0.59201-0.96695 0.89788 0.31574-0.13814 0.58214-0.2368 0.71041-0.27627l0.1184 0.40454c-0.2072 0.06907-0.76961 0.2664-1.4208 0.57227-0.148 0.1776-0.27627 0.3552-0.38481 0.53281-0.07893 0.10854-0.15787 0.2368-0.2368 0.36507 0.07894-0.04933 0.15787-0.0888 0.2368-0.12827l0.18747 0.40454c-0.28614 0.13814-0.56241 0.296-0.82881 0.46374-1.1051 2.1707-2.1608 5.4465-3.8283 8.7223-2.1411 4.2033-4.7262 6.0779-7.7652 6.2654m-41.095-5.3478c0.62161-0.2368 1.2728-0.4144 1.9536-0.55254l0.0888 0.44401c-0.66108 0.12827-1.2926 0.30587-1.8846 0.52294zm-0.2664-1.184c0.2664-0.09867 0.53281-0.1776 0.80908-0.25654l0.10854 0.4144c-0.2664 0.07894-0.52294 0.15787-0.77948 0.24667zm-1.263 2.447c-0.2664 0.1776-0.52294 0.3552-0.75974 0.54267l-0.2664-0.3552c0.24667-0.19734 0.50321-0.3848 0.77948-0.56241 0.296-0.19734 0.61174-0.37494 0.94721-0.53281l0.18747 0.40454c-0.31574 0.148-0.61174 0.31574-0.88801 0.50321m-1.1544-0.74988-0.2368-0.34534c0.019734-0.01973 0.049334-0.03947 0.069068-0.0592 0.2072-0.148 0.42427-0.27627 0.64134-0.4144l0.2072 0.36507c-0.2072 0.12827-0.40454 0.25654-0.60187 0.40454-0.0296 0.0099-0.059201 0.0296-0.078934 0.04933m-1.5294 3.3547-0.36507-0.25654c0.36507-0.53281 0.80908-1.0656 1.332-1.559l0.30587 0.32561c-0.50321 0.47361-0.92748 0.97681-1.2728 1.4899m-1.1939 2.5654-0.42427-0.1184c0.16774-0.62161 0.41441-1.2728 0.76961-1.924l0.39467 0.22694c-0.34534 0.61174-0.58214 1.2235-0.74001 1.8155m-0.53281 2.891c-0.069068-0.21707-0.10853-0.45387-0.12827-0.69068-0.019734-0.148-0.019734-0.30587-0.019734-0.46374 0-0.296 0.019734-0.62161 0.069068-0.94721l0.43414 0.0592c-0.039467 0.31574-0.059201 0.61174-0.059201 0.88801 0 0.148 0 0.28614 0.00987 0.42427 0.019734 0.2072 0.059201 0.41441 0.1184 0.60188zm0.098668 2.516c-0.22694-0.18747-0.43414-0.39467-0.62161-0.61174l0.31574-0.27627c0.16774 0.2072 0.3552 0.38481 0.57227 0.56241zm-1.0163-1.1544c-0.148-0.24667-0.27627-0.52294-0.36507-0.80908l0.39467-0.12827c0.078934 0.24667 0.19734 0.49334 0.33547 0.72028zm-0.52294-1.4603c-0.039467-0.2368-0.059201-0.47361-0.059201-0.73014v-0.148h0.41441v0.148c0 0.2368 0.019734 0.45387 0.049334 0.66108zm0.078934-2.3878 0.41441 0.06907c-0.049334 0.296-0.078934 0.56241-0.10853 0.81894l-0.41441-0.0296c0.0296-0.2664 0.059201-0.55254 0.10853-0.85841m0.37494-1.4702 0.39467 0.13814c-0.088801 0.27627-0.16774 0.53281-0.22694 0.78934l-0.40454-0.09867c0.059201-0.2664 0.148-0.54267 0.2368-0.82881m0.60187-1.3912 0.36507 0.19734c-0.12827 0.25654-0.24667 0.5032-0.34534 0.74988l-0.39467-0.16774c0.1184-0.25654 0.2368-0.51307 0.37494-0.77948m0.79921-1.2728 0.33547 0.25654c-0.16774 0.21707-0.31574 0.45387-0.45387 0.68081l-0.36507-0.22694c0.148-0.2368 0.30587-0.47361 0.48347-0.71041m0.97681-1.1445 0.296 0.296c-0.19734 0.2072-0.38481 0.4144-0.55254 0.61174l-0.31574-0.27627c0.1776-0.2072 0.36507-0.42427 0.57227-0.63148m1.1149-1.0064 0.25654 0.33547c-0.21707 0.1776-0.43414 0.3552-0.62161 0.54267l-0.28614-0.31574c0.2072-0.18747 0.42427-0.37494 0.65121-0.56241m2.5654-1.5195 0.15787 0.39467c-0.25654 0.10854-0.50321 0.21707-0.74988 0.33547l-0.1776-0.37494c0.24667-0.12827 0.50321-0.24667 0.76961-0.3552m2.8712-0.77948 0.06907 0.4144c-0.27627 0.04933-0.55254 0.09867-0.81894 0.15787l-0.0888-0.4144c0.27627-0.0592 0.55254-0.10854 0.83868-0.15787m1.4702-0.1776 0.0296 0.43414c-0.27627 0.01973-0.55254 0.03947-0.82881 0.07893l-0.04933-0.42427c0.28614-0.03947 0.56241-0.0592 0.84854-0.0888m1.2926-0.03947h0.18747l-0.0099 0.42427h-0.1776c-0.21707 0-0.43414 0-0.65121 0.0099l-0.0099-0.42427c0.21707-0.0099 0.43414-0.0099 0.66108-0.0099m0.81894 0.0099c0.27627 0.01973 0.56241 0.03947 0.83868 0.06907l-0.0296 0.4144c-0.27621-0.019764-0.55248-0.039498-0.82875-0.049365zm1.4702 0.13814c0.28614 0.0296 0.56241 0.06907 0.83868 0.1184l-0.06907 0.4144c-0.2664-0.03947-0.54267-0.0888-0.81894-0.1184zm1.4603 0.24667c0.27627 0.04933 0.55254 0.1184 0.82881 0.18747l-0.10854 0.41441c-0.2664-0.06907-0.53281-0.13814-0.79921-0.19734zm1.4307 0.37494c0.28614 0.0888 0.54267 0.1776 0.80908 0.27627l-0.148 0.39467c-0.25654-0.09867-0.51307-0.18747-0.77948-0.2664zm1.4011 0.53281c0.2664 0.1184 0.51307 0.2368 0.75974 0.37494l-0.19734 0.37494c-0.2368-0.12827-0.48347-0.25654-0.74001-0.36507zm1.3123 0.71041c0.2368 0.15787 0.47361 0.3256 0.70054 0.49334l-0.24667 0.33547c-0.21707-0.15787-0.44401-0.3256-0.68081-0.47361zm0.13814 2.072c-0.46374-0.39467-0.98668-0.76961-1.6182-1.1149l0.21707-0.39467c0.64134 0.3552 1.2038 0.74988 1.6774 1.1643zm-2.3877-1.4899c-0.58214-0.25654-1.2037-0.45387-1.8648-0.61174l0.10854-0.44401c0.68081 0.16774 1.332 0.37494 1.924 0.64134zm-2.7134-0.79921c-0.64134-0.10854-1.2926-0.1776-1.9536-0.2072l0.01973-0.44401c0.68081 0.0296 1.3518 0.09867 2.003 0.2072zm-4.7953-0.0888-0.0592-0.44401c0.66108-0.0888 1.3419-0.13814 2.0227-0.13814v0.44401c-0.66108 0.0099-1.3222 0.04933-1.9635 0.13814m10.962 1.1939c0.21707 0.19734 0.42427 0.38481 0.62161 0.58214l-0.28614 0.30587c-0.19734-0.18747-0.39467-0.37494-0.61174-0.56241zm1.0656 1.0459c0.19734 0.22694 0.3848 0.44401 0.55254 0.66108l-0.3256 0.2664c-0.16774-0.21707-0.34534-0.42427-0.53281-0.64134zm-4.667 0.36507c1.0459 0.07893 2.3483 0.37494 3.6014 0.85841-0.13814-0.16774-0.28614-0.3256-0.43414-0.49334l0.31574-0.31574c0.36507 0.3848 0.67094 0.77948 0.94721 1.1741 0.50321 0.22694 0.98668 0.50321 1.4307 0.79921-0.38481-0.63148-0.48347-0.78934-0.60188-0.95708l0.34534-0.24667c0.15787 0.2368 0.30587 0.47361 1.184 1.9438 0.3848 0.3552 0.71041 0.74001 0.94721 1.1643 0.01973 0.0296 0.03947 0.0592 0.0592 0.09867-0.36507-2.2595-1.7464-4.8249-5.1209-6.9956-2.2003-1.4208-5.1307-2.1806-8.1006-2.1806-3.8777 0-7.8046 1.3024-10.261 4.0454-2.0128 2.2694-2.8712 4.9235-2.8712 7.0548 0 1.1643 0.25654 2.1608 0.70054 2.8614 0.44401 0.69068 1.0557 1.0853 1.8254 1.0853h0.10853c0.13814-0.01973 0.2664-0.04933 0.39467-0.07893l0.2368-0.34534c0.078934 0.0592 0.16774 0.10854 0.25654 0.16774 0.25654-0.12828 0.50321-0.27628 0.72028-0.44401-0.70054-0.4144-1.1643-0.82881-1.4998-1.3518l0.37494-0.2368c0.30587 0.47361 0.74988 0.86828 1.48 1.2728 0.53281-0.52294 0.92748-1.1544 1.2136-1.6675 4.1046-7.4494 10.35-7.3902 12.748-7.2126m-11.692 7.2422c-0.74001 1.3123-1.2136 4.3019 1.4702 5.3478 2.7923 1.0755 4.7755-1.2334 5.0321-2.9502 0.94721-6.4726 4.1737-8.2684 6.1766-8.6038-3.5422-0.89788-9.2156 0.148-12.679 6.2062m43.592 6.1075c1.2926 1.1347 2.3878 2.3286 3.8382 4.4993 1.8747 2.812 5.8806 3.779 8.219 1.3814 1.7859-1.8254 1.5096-5.2097 0.71041-6.7588-3.2659 1.3715-8.1105 2.2496-12.768 0.87814"/>
  <path id="path2962" d="m6.768 49.862c0.16774-0.049334 0.33547-0.10854 0.49334-0.1776-0.088801-0.049334-0.16774-0.10854-0.24667-0.16774z"/>
 </g>
 <g id="g3329" transform="translate(20.793,-62.008)" fill="#fff">
  <g id="g3324" transform="matrix(9.8668,0,0,-9.8668,77.005,102.04)">
   <path id="path3326" d="m0 0h0.472c0.22 0 0.507 8e-3 0.507 0.306 0 0.274-0.248 0.317-0.468 0.317h-0.511zm-0.604 1.133h1.177c0.56 0 1.032-0.193 1.032-0.831 0-0.383-0.204-0.681-0.591-0.75l0.696-1.157h-0.723l-0.573 1.094h-0.414v-1.094h-0.604z" fill="#fff"/>
  </g>
  <g id="g3328" transform="matrix(9.8668,0,0,-9.8668,108.11,98.719)">
   <path id="path3330" d="m0 0-0.332-0.851h0.669zm-0.232 0.797h0.499l1.191-2.739h-0.68l-0.236 0.581h-1.064l-0.228-0.581h-0.666z" fill="#fff"/>
  </g>
  <g id="g3332" transform="matrix(9.8668,0,0,-9.8668,129.63,112.38)">
   <path id="path3334" d="m0 0h0.313c0.561 0 0.983 0.213 0.983 0.835 0 0.538-0.43 0.79-0.94 0.79h-0.356zm-0.603 2.181h0.905c0.882 0 1.62-0.375 1.62-1.376 0-0.886-0.723-1.362-1.539-1.362h-0.986z" fill="#fff"/>
  </g>
  <path id="path3336" d="m152.56 90.858h5.9595v27.015h-5.9595z"/>
  <g id="g3338" transform="matrix(9.8668,0,0,-9.8668,176.3,113.07)">
   <path id="path3340" d="m0 0c0.514 0 0.851 0.371 0.851 0.882 0 0.51-0.337 0.882-0.851 0.882s-0.851-0.372-0.851-0.882c0-0.511 0.337-0.882 0.851-0.882m0 2.32c0.855 0 1.478-0.56 1.478-1.438s-0.623-1.439-1.478-1.439-1.477 0.561-1.477 1.439 0.622 1.438 1.477 1.438" fill="#fff"/>
  </g>
  <g id="g3342" transform="matrix(9.8668,0,0,-9.8668,54.678,122.42)">
   <path id="path3344" d="m0 0h0.82l1.164-1.903h8e-3v1.903h0.603v-2.738h-0.789l-1.195 1.949h-8e-3v-1.949h-0.603z" fill="#fff"/>
  </g>
  <g id="g3346" transform="matrix(9.8668,0,0,-9.8668,98.144,144.63)">
   <path id="path3348" d="m0 0c0.514 0 0.851 0.371 0.851 0.882 0 0.51-0.337 0.882-0.851 0.882s-0.851-0.372-0.851-0.882c0-0.511 0.337-0.882 0.851-0.882m0 2.32c0.855 0 1.477-0.56 1.477-1.438s-0.622-1.439-1.477-1.439-1.477 0.561-1.477 1.438c0 0.879 0.622 1.439 1.477 1.439" fill="#fff"/>
  </g>
  <g id="g3350" transform="matrix(9.8668,0,0,-9.8668,121.95,133.6)">
   <path id="path3352" d="m0 0h0.356c0.22 0 0.506 8e-3 0.506 0.305 0 0.275-0.247 0.318-0.467 0.318h-0.395zm-0.603 1.133h1.059c0.561 0 1.033-0.193 1.033-0.831 0-0.383-0.205-0.681-0.591-0.751l0.696-1.156h-0.724l-0.572 1.094h-0.298v-1.094h-0.603z" fill="#fff"/>
  </g>
  <g id="g3354" transform="matrix(9.8668,0,0,-9.8668,165.19,147.53)">
   <path id="path3356" d="m0 0c-0.356-0.186-0.747-0.263-1.149-0.263-0.855 0-1.477 0.561-1.477 1.439s0.622 1.439 1.477 1.439c0.433 0 0.816-0.097 1.091-0.352l-0.425-0.465c-0.163 0.171-0.36 0.26-0.666 0.26-0.514 0-0.851-0.372-0.851-0.882s0.337-0.882 0.851-0.882c0.263 0 0.457 0.074 0.569 0.135v0.445h-0.491v0.557h1.071z" fill="#fff"/>
  </g>
  <g id="g3358" transform="matrix(9.8668,0,0,-9.8668,169.88,122.42)">
   <path id="path3360" d="m0 0h1.861v-0.557h-1.257v-0.51h1.187v-0.557h-1.187v-0.557h1.326v-0.557h-1.93z" fill="#fff"/>
  </g>
 </g>
</svg>
