<svg version="1.1" viewBox="0 0 468.47 600" xml:space="preserve" xmlns="http://www.w3.org/2000/svg">
<g transform="matrix(1.6524 0 0 1.6524 -180.61 -107.24)">
	<path class="st0" d="m251.1 346.1c-77.5 0-140.6-63.1-140.6-140.6s63.1-140.6 140.6-140.6 140.6 63.1 140.6 140.6c0 77.6-63.1 140.6-140.6 140.6zm0-275.5c-74.4 0-135 60.6-135 135s60.6 135 135 135 135-60.6 135-135-60.6-135-135-135z" fill="#020202"/>
	<path class="st0" d="m205.6 282c11.4 0 13.3-1.6 16.5-4.7s4.8-9 4.8-17.7v-83.3c0-5.6-0.4-7.3-1.7-9.6s-3.6-3.5-7.1-3.5h-11.8v-5.7l71.6-33.9v137.4c0 8.2 1.3 13.7 3.9 16.7 2.6 2.9 3.9 4.4 14.8 4.4v5.4h-91.1v-5.5z" fill="#020202"/>
			<path class="st0" d="m155.1 428h-6.8l-12.3-21.4h-20.9v21.4h-5.8v-56.9h27.2c4.7 0 9.2 1.9 12.6 5.2 3.4 3.4 5.2 7.8 5.2 12.5 0 7.6-4.7 13.9-12.2 16.7zm-39.9-27.2h21.5c5.6-0.1 10.5-4.1 11.6-9.6v-0.2l0.1-0.4c0-0.2 0.1-0.3 0.1-0.5 0-0.5 0.1-0.9 0.1-1.3 0-6.5-5.3-11.8-11.8-11.9h-21.5v23.9z" fill="#020202"/>
				<path class="st0" d="m218.9 428h-6.6l-8-16.8h-28.8l-7.8 16.8h-6.6l26.6-57h4.4zm-40.7-22.5h23.5l-11.7-25.1z" fill="#020202"/>
		<path class="st0" d="m248.4 428h-21.9v-56.9h21.9c15.6 0.1 28.4 12.8 28.4 28.4 0 15.8-12.7 28.5-28.4 28.5zm-16-5.8h15.9c12.5 0 22.6-10.1 22.6-22.6 0-12.4-10.2-22.6-22.6-22.6h-15.9z" fill="#020202"/>
		<path class="st0" d="m295 428h-5.8v-56.5h5.8z" fill="#020202"/>
		<path class="st0" d="m336.9 428c-7.6 0-14.8-2.9-20.1-8.3-5.4-5.4-8.3-12.5-8.3-20.1s2.9-14.8 8.3-20.1c5.4-5.4 12.5-8.3 20.1-8.3 15.7 0 28.5 12.8 28.5 28.4 0 15.7-12.8 28.4-28.5 28.4zm0-51c-6.1 0-11.8 2.3-16.1 6.6s-6.6 10-6.6 16.1 2.3 11.8 6.6 16.1 10 6.6 16.1 6.6 11.8-2.3 16.1-6.6 6.6-10 6.6-16-2.4-11.8-6.6-16c-4.3-4.5-10-6.8-16.1-6.8z" fill="#020202"/>
	<polygon class="st0" points="374.6 386.5 387 378.6 387 428 392.8 428 392.8 371.5 387 371.5 374.6 379.6" fill="#020202"/>
</g>
</svg>
