<svg width="471.48" height="335" version="1.1" viewBox="0 0 124.75 88.636" xmlns="http://www.w3.org/2000/svg">
 <defs>
  <clipPath id="a">
   <path d="M 0,187.01 H 263.2 V 0 H 0 Z"/>
  </clipPath>
 </defs>
 <g transform="matrix(1.3435 0 0 1.3435 53.706 -147.02)">
  <g transform="matrix(.35278 0 0 -.35278 -39.974 175.4)" fill="#ff151f">
   <g fill="#ff151f">
    <g clip-path="url(#a)" fill="#ff151f">
     <g transform="translate(251.91,97.667)">
      <path d="m-170.38-5.522c-0.041 0.147-0.059 0.299-0.054 0.452m181.68 4.62c0.45 11.46-2.482 20.812-8.482 27.059-2.568 2.701-5.736 4.756-9.247 6 3.573 4.484 6.053 9.737 7.245 15.345 1.829 8.918 0.142 17.13-4.755 23.137-4.184 5.159-10.497 8.118-17.138 8.033-3.997-0.039-7.935-0.961-11.535-2.7l-0.75-0.353c-0.504 3.72-2.34 7.131-5.167 9.6-2.745 2.395-6.272 3.703-9.915 3.675-1.539-5e-3 -3.07-0.217-4.553-0.63-4.076-1.155-7.648-3.642-10.147-7.065-0.135-0.187-0.277-0.375-0.404-0.57-0.128-0.195-10.418-2.595-10.418-2.595-5.363-1.459-9.155-6.236-9.36-11.79l-0.15-3.824-0.69-0.181c-4.162-1.189-7.974-3.366-11.115-6.344-1.429 0.579-2.958 0.875-4.5 0.87-1.138-1e-3 -2.27-0.155-3.367-0.458 0 0-15.668-3.637-17.535-4.147-1.822-0.507-3.583-1.213-5.25-2.108-3.848 5.178-9.952 8.189-16.402 8.093-2.26-0.012-4.507-0.327-6.683-0.938l-21.465-5.888c-5.361-1.543-9.13-6.349-9.352-11.924l-1.372-34.875c-1.23 0.416-2.52 0.629-3.818 0.63-1.095-1e-3 -2.185-0.15-3.24-0.442l-11.737-3.225c-5.54-1.569-9.451-6.511-9.705-12.263l-0.225-5.67-3.548 4.808c-2.43 3.693-6.558 5.912-10.979 5.902-1.294-5e-3 -2.58-0.184-3.825-0.532l-11.662-3.203c-5.361-1.47-9.151-6.243-9.368-11.797l-2.52-63.989c-0.339-6.751 4.858-12.5 11.609-12.84 0.2-0.01 0.401-0.015 0.601-0.015 1.115 0 2.224 0.15 3.3 0.443l11.295 3.104c5.732 1.552 9.753 6.7 9.87 12.638l0.21 5.362 3.554-4.785c2.431-3.692 6.559-5.912 10.98-5.902 1.293 2e-3 2.58 0.179 3.826 0.525l11.647 3.202c4.426 1.257 7.853 4.769 9 9.225 3.879-2.068 8.211-3.14 12.607-3.12 4.466 0.052 8.876 1.012 12.96 2.82 5.326 2.335 10.107 5.752 14.039 10.035 2.233-1.903 5.069-2.951 8.003-2.955 1.128 0 2.25 0.152 3.337 0.45l11.16 3.068c5.542 1.589 9.446 6.547 9.69 12.307l3-3c-3.93-6.472-1.867-13.08 2.325-16.62 4.673-4.102 11.37-6.36 18.893-6.36 12.817 0 29.399 6.862 37.499 26.122 1.94 4.832 3.224 9.902 3.817 15.075 3.861-2.031 8.162-3.082 12.525-3.059 2.738 8e-3 5.462 0.384 8.1 1.117 7.827 2.179 15.009 6.222 20.933 11.782 2.693 2.4 4.313 5.779 4.5 9.383 0.102 2.095-0.326 4.182-1.245 6.067 3.128 2.514 4.994 6.277 5.099 10.29" fill="#ff151f"/>
     </g>
    </g>
   </g>
  </g>
 </g>
 <path d="m97.817 7.4221c-0.25731-0.01004-0.51835 0.02979-0.7679 0.1215-0.79438 0.23604-1.4832 0.73798-1.951 1.4219-0.53322 0.68774-0.84169 1.5233-0.88246 2.3926-0.08532 0.6939 0.1712 1.3866 0.68736 1.8586 0.52801 0.4242 1.2387 0.54301 1.8767 0.31313 0.81097-0.22656 1.5253-0.71395 2.0329-1.3865 0.53843-0.64887 0.85204-1.4538 0.89565-2.2961 0.0948-0.73182-0.16474-1.4656-0.69986-1.9732-0.34304-0.28083-0.76257-0.43527-1.1914-0.45199zm-6.7403 3.9311c-0.06469-0.0067-0.14164 0.0023-0.23051 0.02639l-3.7326 1.0234c-0.29908 0.082-0.51045 0.348-0.52281 0.6575l-0.27703 7.0138c-0.0024 0.08389-0.031 0.16437-0.08123 0.2312-0.13603 0.18057-0.39199 0.21679-0.5721 0.08123-0.84984-0.63939-2.0159-0.85329-3.3847-0.49782-3.7965 1.0451-6.4407 5.5422-6.6223 10.131-0.18153 4.6212 2.1684 7.7139 5.9759 6.6688 1.3395-0.40288 2.5248-1.202 3.4007-2.2926 0.07963-0.08721 0.19442-0.13613 0.31243-0.13331 0.22561 0.0052 0.40377 0.19166 0.39853 0.41728-0.0016 0.04266 0.0039 0.0849 0.01527 0.12566 0.06114 0.21946 0.28809 0.34789 0.50754 0.28674l3.6902-1.013c0.34647-0.0801 0.57934-0.4032 0.54711-0.75679l0.84288-21.475c0.01318-0.31425-0.07324-0.47493-0.26731-0.49504zm19.804 0.94356c-1.0227-0.01935-2.1445 0.22502-3.3195 0.77484-2.9723 1.3968-5.4822 4.721-6.1932 8.1511v0.0028c-1.2759 6.228 2.9401 10.117 8.315 7.6144 2.986-1.3902 5.5239-4.7279 6.2348-8.1761 1.0002-4.8682-1.3848-8.2979-5.0372-8.367zm-12.038 3.2972c-0.06984-0.0063-0.15214 0.0035-0.24717 0.02916l-3.7541 1.0317c-0.36022 0.07724-0.61227 0.4024-0.5971 0.77067l-0.68319 14.994c-0.01754 0.41236 0.16026 0.56504 0.54086 0.46171l3.761-1.0303c0.3588-0.08057 0.60974-0.40726 0.59363-0.77554l0.67903-14.99c0.01349-0.30927-0.08349-0.4727-0.293-0.49156zm10.505 1.9045c1.3147-0.061 2.2154 0.99961 2.1503 2.6668-0.0744 1.9054-1.3788 3.6999-3.0036 4.1478-1.621 0.44791-2.7836-0.63563-2.7092-2.5766 0.0749-1.9409 1.3512-3.6943 2.9751-4.1422 0.2031-0.05598 0.39957-0.0871 0.58738-0.09581zm-56.011 4.5296c-0.55487-0.0017-1.1532 0.08221-1.792 0.26106l-10.178 2.7973c-0.30618 0.10759-0.51883 0.38726-0.54017 0.71096l-0.82483 21.069c-0.0024 0.07252 0.0063 0.14481 0.02569 0.21454 0.1038 0.37876 0.4959 0.60122 0.87412 0.49643l3.3521-0.92064c0.34553-0.0801 0.57934-0.4032 0.54711-0.75679l0.26661-6.7896h0.02151c0.70101-0.60148 1.5693-0.97403 2.4884-1.0664 0.346-0.02463 0.69304 0.01765 1.0234 0.12428 0.21376 0.06257 0.39958 0.19815 0.52281 0.38395l3.2382 5.2823c0.1512 0.34742 0.55539 0.50667 0.90329 0.35548l4.1478-1.1407c0.43368-0.1384 0.50508-0.41236 0.31313-0.71096l-3.718-6.1286c-0.10712-0.17158-0.07124-0.39619 0.08471-0.52559 1.4684-1.2409 3.683-4.0638 3.8214-7.6186 0.13837-3.5213-1.5812-6.0273-4.5775-6.037zm20.168 0.63112c-0.06472-0.0073-0.14094 0.0013-0.22981 0.02431l-3.7326 1.0276c-0.29908 0.082-0.51045 0.34731-0.52281 0.65681l-0.02151 0.54364c-0.0034 0.08626-0.03278 0.16898-0.0854 0.23676-0.13983 0.17965-0.39894 0.21272-0.57905 0.0729-0.96027-0.73608-2.2231-0.94813-3.3701-0.56516-3.8003 1.0451-6.4452 5.5422-6.6229 10.131-0.1781 4.5814 2.1638 7.706 5.962 6.6653 1.3456-0.41188 2.5322-1.227 3.3986-2.3356 0.08104-0.09717 0.20255-0.15165 0.3291-0.14789 0.22798 0.0071 0.40675 0.1974 0.39922 0.42491-0.0016 0.04502 0.0035 0.09018 0.01527 0.1333 0.06493 0.23888 0.31148 0.37945 0.54988 0.31452l3.6437-0.99841c0.346-0.0801 0.57982-0.40342 0.54712-0.75748l0.58668-14.93c0.01386-0.3146-0.07314-0.47532-0.26731-0.49712zm10.496 1.8066c1.3148-0.061 2.2182 0.99961 2.153 2.6668-0.07442 1.9054-1.3788 3.7036-3.0036 4.1478-1.6281 0.44791-2.7868-0.67118-2.7119-2.5766 0.07489-1.9054 1.3503-3.6931 2.9751-4.1415 0.20298-0.05599 0.39955-0.0878 0.58738-0.09651zm-32.81 2.8008c1.2894-0.04064 1.9012 0.75596 1.8462 2.1135-0.0218 1.2148-0.6556 2.3365-1.6851 2.982-0.4716 0.29197-1.0019 0.47618-1.5532 0.54017-0.52943 0.06777-1.049 0.07155-1.5747 0.09997-0.81286 0.05214-1.6045 0.28311-2.3183 0.67556-0.06067 0.0346-0.12843 0.05252-0.19858 0.05346-0.22751 0.0015-0.414-0.18096-0.41588-0.40894l0.16733-4.2908c0.0081-0.17964 0.12949-0.33418 0.30202-0.38395l4.429-1.2157c0.36988-0.10194 0.70362-0.15586 1.0012-0.16524zm15.491 1.9628c1.3151-0.061 2.2186 0.99892 2.153 2.6661-0.07442 1.9054-1.3788 3.7043-3.0036 4.1485-1.6248 0.44791-2.7834-0.64011-2.7085-2.5772 0.07442-1.9376 1.3473-3.6936 2.9716-4.1415 0.20304-0.05598 0.3995-0.0871 0.58738-0.09581zm46.817 4.4602c-0.71301 0.02114-1.4759 0.13867-2.2877 0.36173-5.901 1.6423-10.167 8.4493-10.401 14.439-0.25262 6.3911 4.3198 10.394 10.007 8.8267 2.9083-0.81997 5.5742-2.3326 7.7706-4.4081 0.3697-0.32372 0.51179-0.85272 0.24162-1.1338l-2.1614-2.9681c-0.19196-0.1711-0.34843-0.30586-0.59016-0.23814-0.16494 0.05404-0.31749 0.14106-0.44783 0.2562-1.2788 1.057-2.7686 1.8296-4.3692 2.2676-1.9978 0.55076-3.4263-0.24512-4.0311-1.5177-8e-3 -0.01934-0.0152-0.03928-0.0208-0.05971-0.0592-0.2204 0.0717-0.4469 0.29161-0.50615l12.442-3.4229c0.51148-0.1248 0.86383-0.5934 0.84219-1.1192 0.25174-6.3391-2.2942-10.926-7.2853-10.778zm-15.702 4.5775c-0.03339 0.0016-0.06813 0.0079-0.10415 0.01807-1.2442 0.34505-4.3932 1.2051-5.6232 1.5393-0.29908 0.082-0.51045 0.348-0.52281 0.6575l-0.04999 1.2727c-0.0038 0.08863-0.0362 0.17336-0.09164 0.24161-0.14362 0.17681-0.40295 0.20402-0.57974 0.0604-1.2086-0.96692-2.6804-1.5992-4.9768-0.96647-5.2611 1.4466-8.9618 7.585-9.2002 14.034-0.23794 6.4479 3.0323 10.493 8.2934 9.0468 2.2428-0.61142 3.8143-2.044 5.0865-3.6361 0.082-0.10658 0.21162-0.16572 0.34576-0.159 0.22514 0.01143 0.39855 0.20276 0.38673 0.42838l-0.03888 0.9748c-0.10427 3.1429-2.2808 5.8351-5.3322 6.5973-1.7419 0.47966-3.3344 0.24856-4.3047-0.5117-0.09527-0.09029-0.23177-0.11901-0.35548-0.07776-0.25737 0.1057-0.47469 0.29002-0.6221 0.52558l-2.7439 4.6213c-0.29528 0.48013-0.3095 0.84227 0 1.0664 3.5652 3.2244 14.151 2.6017 18.36-7.3797 1.2793-3.0429 1.6561-6.9888 1.7774-9.9924l0.6818-17.905c0.0095-0.27994-0.1523-0.4676-0.38603-0.45546zm14.136 1.2713c1.2739-0.01905 2.0961 0.76624 2.5009 2.0371l6e-3 0.02223c0.0479 0.20854-0.0819 0.41681-0.29091 0.46518l-6.1668 1.6948c-0.0867 0.02365-0.17833 0.01902-0.26175-0.01458-0.20902-0.08484-0.30953-0.32303-0.22565-0.53253 0.64034-1.6314 1.8346-3.0713 3.484-3.5264 0.34251-0.09394 0.66069-0.14141 0.95466-0.14581zm-38.073 5.0885c-0.67685-3e-3 -1.3643 0.15247-1.9461 0.31243-2.3078 0.63276-4.2869 3.1387-5.0837 5.0976h-0.03888l0.1097-2.8189c5.29e-4 -0.02795-0.0021-0.05507-0.0077-0.08261-0.04121-0.19199-0.23065-0.31357-0.42213-0.27286-1.1911 0.33464-4.4364 1.2012-5.6877 1.5566-0.29905 0.08201-0.50977 0.3487-0.52211 0.6582l-0.83594 21.239c-0.01331 0.07963-0.0078 0.16228 0.01595 0.23954 0.08437 0.27819 0.37837 0.435 0.65612 0.35062l5.2857-1.4539c0.38771-0.1365 0.65532-0.49262 0.67902-0.9026l0.35548-9.4668c0.14267-3.6041 2.0797-6.0566 4.4685-6.7111 0.57635-0.16821 1.1826-0.21159 1.7774-0.12776 0.13319 0.03224 0.27238 0.02471 0.40131-0.02082 0.2749-0.07963 0.49362-0.29009 0.58321-0.56169l1.5823-5.6565v-7e-3c0.14176-0.57209 0.24108-1.0025-0.18881-1.1623-0.37307-0.14928-0.77559-0.20796-1.1817-0.20968zm-40.803 2.5099c-0.04921-0.0043-0.09996 0.0013-0.14997 0.01736l-5.5634 1.5289c-0.37065 0.14409-0.62082 0.49452-0.63598 0.89218l-0.65403 16.69c-0.0071 0.12087-0.06716 0.23393-0.16386 0.30688-0.18343 0.13929-0.44365 0.1031-0.58252-0.07985l-10.06-13.622c-0.22372-0.47258-0.77478-0.69134-1.2615-0.50129l-5.528 1.5177c-0.2986 0.082-0.50975 0.3487-0.52212 0.6582l-1.1907 30.328c-0.01423 0.07631-0.0089 0.15608 0.01528 0.23051 0.08057 0.24786 0.34735 0.38333 0.59571 0.30271l5.3322-1.4678c0.4825-0.11897 0.80661-0.57114 0.76442-1.0664l0.64987-16.544c0.0057-0.12372 0.0671-0.23923 0.16663-0.31313 0.18248-0.13555 0.44094-0.09755 0.57696 0.0854l10.06 13.618c0.22277 0.47392 0.77547 0.69393 1.2622 0.50198l5.5169-1.5143c0.30429-0.10808 0.51474-0.38866 0.53322-0.71096l1.1803-30.408c0.01183-0.06302 0.0081-0.12702-0.01183-0.18816-0.04834-0.14963-0.18144-0.24935-0.3291-0.26245zm55.347 0.30063c0.09721-3e-3 0.19302-0.0019 0.28675 0.0035 1.6247 0.09397 2.7114 1.4403 2.639 3.6381-0.06256 2.5519-1.7549 4.7756-4.1978 5.5169-2.268 0.62184-3.9001-0.62544-3.793-3.3271 0.10665-2.7017 1.8805-5.0621 4.1485-5.6877 0.3184-0.08745 0.62484-0.13465 0.91648-0.14372zm-39.342 4.0256c-1.2008 0.03384-2.4924 0.32253-3.8381 0.89912-4.4468 1.9092-8.2254 6.9032-9.1245 12.008-1.4574 8.2718 4.1124 13.412 11.289 10.348 4.4719-1.9054 8.2869-6.9139 9.1898-12.04 1.1869-6.7239-2.313-11.362-7.5165-11.215zm-1.7427 7.252c1.8363-0.08518 3.0983 1.3946 3.0049 3.7208-0.10665 2.6595-1.9233 5.1614-4.1908 5.787-2.2684 0.62611-3.8897-0.89104-3.7826-3.5965 0.10665-2.7054 1.8843-5.1554 4.1485-5.7773 0.2835-0.07815 0.55766-0.12183 0.81997-0.134z" fill="#a81240" stroke-width=".47397"/>
 <path d="m96.43 5.3054c-0.25731-0.01004-0.51835 0.02979-0.7679 0.1215-0.79438 0.23604-1.4832 0.73798-1.951 1.4219-0.53322 0.68774-0.84169 1.5233-0.88246 2.3926-0.08532 0.6939 0.1712 1.3866 0.68736 1.8586 0.52801 0.4242 1.2387 0.54301 1.8767 0.31313 0.81097-0.22656 1.5253-0.71395 2.0329-1.3865 0.53844-0.64887 0.85204-1.4538 0.89565-2.2961 0.0948-0.73182-0.16474-1.4656-0.69986-1.9732-0.34304-0.28083-0.76257-0.43527-1.1914-0.45199zm-6.7403 3.9311c-0.06469-0.0067-0.14164 0.0023-0.23051 0.02639l-3.7326 1.0234c-0.29908 0.082-0.51045 0.348-0.52281 0.6575l-0.27703 7.0138c-0.0024 0.08389-0.031 0.16437-0.08123 0.2312-0.13603 0.18057-0.39199 0.21679-0.57211 0.08123-0.84984-0.63939-2.0159-0.85329-3.3847-0.49782-3.7965 1.0451-6.4407 5.5422-6.6223 10.131-0.18153 4.6212 2.1684 7.7139 5.9759 6.6688 1.3395-0.40288 2.5248-1.202 3.4007-2.2926 0.07963-0.08721 0.19442-0.13613 0.31243-0.13331 0.22561 0.0052 0.40377 0.19166 0.39853 0.41728-0.0015 0.04266 0.0039 0.0849 0.01528 0.12566 0.06114 0.21946 0.28809 0.34789 0.50754 0.28675l3.6902-1.013c0.34648-0.0801 0.57934-0.4032 0.54711-0.75679l0.84288-21.475c0.01317-0.31425-0.07324-0.47493-0.26731-0.49504zm19.804 0.94356c-1.0227-0.01935-2.1445 0.22502-3.3195 0.77484-2.9723 1.3968-5.4822 4.721-6.1932 8.1511v0.0028c-1.2759 6.228 2.9401 10.117 8.315 7.6144 2.986-1.3902 5.5239-4.7279 6.2348-8.1761 1.0002-4.8682-1.3848-8.2979-5.0372-8.367zm-12.038 3.2972c-0.06984-0.0063-0.15214 0.0035-0.24717 0.02915l-3.7541 1.0317c-0.36022 0.07724-0.61227 0.4024-0.5971 0.77067l-0.68319 14.994c-0.01753 0.41236 0.16026 0.56504 0.54086 0.46171l3.761-1.0303c0.3588-0.08057 0.60974-0.40726 0.59363-0.77554l0.67903-14.99c0.0135-0.30927-0.08349-0.4727-0.293-0.49156zm10.505 1.9045c1.3147-0.061 2.2154 0.99961 2.1503 2.6668-0.0744 1.9054-1.3788 3.6999-3.0036 4.1478-1.621 0.44791-2.7836-0.63563-2.7092-2.5766 0.0749-1.9409 1.3512-3.6943 2.9751-4.1422 0.2031-0.05598 0.39957-0.0871 0.58738-0.09581zm-56.011 4.5296c-0.55487-0.0018-1.1532 0.08221-1.792 0.26106l-10.178 2.7973c-0.30618 0.10759-0.51883 0.38726-0.54017 0.71097l-0.82483 21.069c-0.0024 0.07252 0.0063 0.14481 0.02569 0.21454 0.1038 0.37876 0.49589 0.60122 0.87412 0.49642l3.3521-0.92064c0.34553-0.0801 0.57934-0.4032 0.54711-0.75679l0.26661-6.7896h0.02152c0.70101-0.60147 1.5693-0.97403 2.4884-1.0664 0.346-0.02464 0.69304 0.01764 1.0234 0.12428 0.21376 0.06257 0.39958 0.19815 0.52281 0.38395l3.2382 5.2823c0.1512 0.34742 0.55539 0.50667 0.90329 0.35548l4.1478-1.1407c0.43368-0.1384 0.50509-0.41236 0.31313-0.71096l-3.718-6.1286c-0.10712-0.17158-0.07124-0.39619 0.08471-0.52559 1.4684-1.2409 3.683-4.0638 3.8214-7.6186 0.13837-3.5213-1.5812-6.0273-4.5775-6.037zm20.168 0.63112c-0.06472-0.0073-0.14094 0.0013-0.22981 0.0243l-3.7326 1.0276c-0.29908 0.082-0.51045 0.34731-0.52281 0.65681l-0.02152 0.54364c-0.0034 0.08625-0.03278 0.16898-0.0854 0.23676-0.13982 0.17965-0.39894 0.21272-0.57905 0.0729-0.96027-0.73608-2.2231-0.94813-3.3701-0.56516-3.8003 1.0451-6.4452 5.5422-6.6229 10.131-0.1781 4.5814 2.1638 7.706 5.962 6.6653 1.3456-0.41188 2.5322-1.227 3.3986-2.3356 0.08104-0.09717 0.20255-0.15165 0.3291-0.14789 0.22798 0.0071 0.40675 0.1974 0.39922 0.42491-0.0015 0.04502 0.0035 0.09018 0.01528 0.13331 0.06493 0.23888 0.31148 0.37945 0.54988 0.31452l3.6437-0.99841c0.346-0.0801 0.57981-0.40342 0.54711-0.75748l0.58668-14.93c0.01386-0.3146-0.07314-0.47532-0.26731-0.49712zm10.496 1.8066c1.3148-0.061 2.2181 0.99961 2.153 2.6668-0.07442 1.9054-1.3788 3.7036-3.0036 4.1478-1.6281 0.44791-2.7868-0.67118-2.7119-2.5766 0.07489-1.9054 1.3503-3.6931 2.9751-4.1415 0.20298-0.05599 0.39955-0.0878 0.58738-0.09651zm-32.81 2.8008c1.2894-0.04064 1.9012 0.75596 1.8461 2.1135-0.02181 1.2148-0.6556 2.3365-1.6851 2.982-0.4716 0.29197-1.0019 0.47618-1.5532 0.54017-0.52943 0.06777-1.049 0.07154-1.5747 0.09997-0.81286 0.05214-1.6045 0.28311-2.3183 0.67556-0.06067 0.0346-0.12843 0.05252-0.19857 0.05346-0.22751 0.0015-0.41401-0.18096-0.41589-0.40894l0.16733-4.2908c0.0081-0.17964 0.12949-0.33418 0.30202-0.38395l4.429-1.2157c0.36988-0.10193 0.70362-0.15586 1.0012-0.16524zm15.491 1.9628c1.3151-0.061 2.2186 0.99892 2.153 2.6661-0.07442 1.9054-1.3788 3.7043-3.0036 4.1485-1.6248 0.44791-2.7834-0.64011-2.7085-2.5772 0.07442-1.9376 1.3473-3.6936 2.9716-4.1415 0.20304-0.05598 0.3995-0.0871 0.58738-0.09581zm46.817 4.4602c-0.71301 0.02113-1.4759 0.13867-2.2877 0.36173-5.901 1.6423-10.167 8.4493-10.401 14.439-0.25263 6.3911 4.3198 10.394 10.007 8.8267 2.9083-0.81997 5.5742-2.3326 7.7706-4.4081 0.3697-0.32372 0.51179-0.85272 0.24162-1.1338l-2.1614-2.9681c-0.19196-0.1711-0.34843-0.30586-0.59016-0.23814-0.16494 0.05404-0.31749 0.14106-0.44783 0.2562-1.2788 1.057-2.7686 1.8296-4.3692 2.2676-1.9978 0.55076-3.4263-0.24512-4.0311-1.5177-8e-3 -0.01935-0.0152-0.03928-0.0208-0.05971-0.0592-0.2204 0.0717-0.44689 0.29161-0.50615l12.442-3.4229c0.51148-0.1248 0.86383-0.5934 0.84219-1.1192 0.25174-6.3391-2.2942-10.926-7.2853-10.778zm-15.702 4.5775c-0.03339 0.0017-0.06813 0.0079-0.10415 0.01806-1.2442 0.34505-4.3932 1.2051-5.6232 1.5393-0.29908 0.082-0.51045 0.348-0.52281 0.6575l-0.04999 1.2727c-0.0038 0.08863-0.0362 0.17336-0.09164 0.24161-0.14362 0.17681-0.40295 0.20402-0.57974 0.0604-1.2086-0.96692-2.6804-1.5992-4.9768-0.96647-5.2611 1.4466-8.9618 7.585-9.2002 14.034-0.23794 6.4479 3.0323 10.493 8.2934 9.0468 2.2428-0.61142 3.8143-2.044 5.0865-3.6361 0.082-0.10658 0.21163-0.16571 0.34576-0.159 0.22514 0.01142 0.39855 0.20276 0.38673 0.42838l-0.03888 0.9748c-0.10427 3.1429-2.2808 5.8351-5.3322 6.5973-1.7419 0.47966-3.3344 0.24855-4.3047-0.5117-0.09527-0.09029-0.23177-0.11901-0.35548-0.07776-0.25737 0.1057-0.47469 0.29002-0.62209 0.52558l-2.7439 4.6213c-0.29528 0.48013-0.3095 0.84226 0 1.0664 3.5652 3.2244 14.151 2.6017 18.36-7.3797 1.2793-3.0429 1.6561-6.9888 1.7774-9.9924l0.6818-17.905c0.0095-0.27994-0.1523-0.4676-0.38603-0.45546zm14.136 1.2713c1.2739-0.01905 2.0961 0.76625 2.5009 2.0371l6e-3 0.02222c0.0479 0.20854-0.0819 0.41681-0.29091 0.46518l-6.1668 1.6948c-0.0867 0.02365-0.17833 0.01901-0.26175-0.01458-0.20902-0.08484-0.30954-0.32303-0.22565-0.53253 0.64034-1.6314 1.8346-3.0713 3.484-3.5264 0.3425-0.09394 0.66069-0.14141 0.95466-0.1458zm-38.073 5.0885c-0.67685-3e-3 -1.3643 0.15247-1.9461 0.31243-2.3078 0.63277-4.2869 3.1387-5.0837 5.0976h-0.03888l0.1097-2.8189c5.38e-4 -0.02795-2e-3 -0.05507-0.0077-0.08261-0.04121-0.19199-0.23065-0.31357-0.42214-0.27286-1.1911 0.33464-4.4364 1.2012-5.6877 1.5566-0.29905 0.08201-0.50977 0.3487-0.52211 0.6582l-0.83594 21.239c-0.0133 0.07963-0.0078 0.16228 0.01596 0.23954 0.08437 0.27819 0.37837 0.435 0.65612 0.35062l5.2857-1.4539c0.38771-0.13651 0.65532-0.49261 0.67902-0.9026l0.35548-9.4668c0.14267-3.6041 2.0797-6.0566 4.4685-6.7111 0.57635-0.16821 1.1826-0.21159 1.7774-0.12776 0.13319 0.03224 0.27238 0.02472 0.4013-0.02082 0.2749-0.07963 0.49363-0.29009 0.58322-0.56169l1.5823-5.6565v-7e-3c0.14176-0.57209 0.24108-1.0025-0.18881-1.1623-0.37308-0.14927-0.77559-0.20796-1.1817-0.20968zm-40.803 2.5099c-0.04921-0.0043-0.09996 0.0012-0.14997 0.01736l-5.5634 1.5289c-0.37065 0.14409-0.62082 0.49452-0.63598 0.89218l-0.65403 16.69c-0.0071 0.12086-0.06716 0.23392-0.16386 0.30688-0.18343 0.1393-0.44365 0.1031-0.58252-0.07985l-10.06-13.622c-0.22372-0.47258-0.77478-0.69134-1.2615-0.50129l-5.528 1.5177c-0.2986 0.082-0.50975 0.3487-0.52212 0.6582l-1.1907 30.328c-0.014228 0.07631-0.00889 0.15608 0.015275 0.23051 0.080575 0.24786 0.34735 0.38333 0.59571 0.30271l5.3322-1.4678c0.4825-0.11897 0.80661-0.57114 0.76443-1.0664l0.64987-16.544c0.0057-0.12371 0.0671-0.23923 0.16663-0.31313 0.18248-0.13555 0.44094-0.09755 0.57696 0.0854l10.06 13.618c0.22277 0.47392 0.77547 0.69393 1.2622 0.50198l5.5169-1.5143c0.30429-0.10807 0.51474-0.38866 0.53322-0.71096l1.1803-30.408c0.01182-0.06302 0.0081-0.12702-0.01182-0.18816-0.04834-0.14963-0.18144-0.24935-0.3291-0.26245zm55.347 0.30063c0.09721-3e-3 0.19302-0.0019 0.28675 0.0035 1.6247 0.09397 2.7114 1.4403 2.639 3.6381-0.06256 2.5519-1.7549 4.7756-4.1977 5.5169-2.268 0.62184-3.9001-0.62544-3.793-3.3271 0.10665-2.7017 1.8805-5.0621 4.1485-5.6877 0.3184-0.08745 0.62485-0.13465 0.91648-0.14372zm-39.342 4.0256c-1.2008 0.03384-2.4924 0.32253-3.8381 0.89912-4.4468 1.9092-8.2254 6.9033-9.1245 12.008-1.4574 8.2718 4.1124 13.412 11.289 10.348 4.4719-1.9054 8.2869-6.9139 9.1898-12.04 1.1869-6.7239-2.313-11.362-7.5165-11.215zm-1.7427 7.252c1.8363-0.08518 3.0983 1.3946 3.0049 3.7208-0.10665 2.6595-1.9233 5.1614-4.1908 5.787-2.2684 0.62611-3.8897-0.89104-3.7826-3.5965 0.10665-2.7054 1.8843-5.1554 4.1485-5.7773 0.2835-0.07815 0.55766-0.12183 0.81997-0.134z" fill="#fff" stroke-width=".47397"/>
</svg>
