<?xml version="1.0" encoding="UTF-8"?>
<svg id="svg18" width="689.96pt" height="725.5pt" version="1.1" viewBox="0 0 689.96 725.5" xmlns="http://www.w3.org/2000/svg" xmlns:cc="http://creativecommons.org/ns#" xmlns:dc="http://purl.org/dc/elements/1.1/" xmlns:rdf="http://www.w3.org/1999/02/22-rdf-syntax-ns#">
 <metadata id="metadata24">
  <rdf:RDF>
   <cc:Work rdf:about="">
    <dc:format>image/svg+xml</dc:format>
    <dc:type rdf:resource="http://purl.org/dc/dcmitype/StillImage"/>
    <dc:title/>
   </cc:Work>
  </rdf:RDF>
 </metadata>
 <g id="#ffffffff" transform="translate(-453.48 -79.415)" fill="#fff">
  <path id="path3" d="m735.09 84.69c46.05-6.35 92.87-6.91 139.08-1.99 40.28 4.51 80.36 13.33 117.69 29.38 25.32 10.91 49.38 25.44 69.19 44.76 17.08 16.5 30.91 36.62 38.76 59.12 4.48 12.19 7.05 25.02 8.34 37.93 1.84 22.03-1.6 44.015-3.79 65.885h-13.34c1.27-13.59 3.28-27.085 3.88-40.725 2.6-30.61-5.31-62.02-22.51-87.5-14.94-22.48-36.19-40.12-59.39-53.57-30.61-17.53-64.65-28.3-99.11-35.23-43.37-8.57-87.83-10.83-131.94-8.67-43.31 2.51-86.65 9.63-127.49 24.6-32.16 11.73-62.97 29.01-86.59 54.14-12.25 13.18-22.23 28.55-28.77 45.34-6.78 17.39-9.8 36.19-9.3 54.84 0.03 10.66 0.74 21.34 2.2 31.91 0.91 6.59 2.3938 12.955 4.17 19.515h-13.47c-3.9524-21.37-7.53-42.725-5.99-64.395 1.41-24.36 8.4-48.43 20.95-69.39 16.58-28.01 41.83-50.09 70.02-65.92 39.24-21.78 83.21-33.67 127.41-40.03z"/>
  <path id="path5" d="m951.51 216.73c13.33-1.82 27.58 1.16 38.36 9.44 12.4 9.13 20.23 24.37 19.88 39.83 0.14 9.43-2.86 18.79-7.98 26.67-7.18 11.06-18.96 18.91-31.84 21.61-11.47 2.17-23.72 1.18-34.25-4.05-12.83-6.14-22.81-18.03-26.39-31.82-3.05-11.69-1.43-24.45 3.95-35.22 7.31-14.47 22.26-24.5 38.27-26.46m3.78 21.58c-9.75 1.91-17.04 10.5-19.03 19.97-2.11 9.17-0.3 19.44 5.74 26.79 8.22 10.54 25.75 11.69 35.2 2.2 11.34-10.97 11.47-30.88 0.75-42.32-5.68-6.03-14.65-8.45-22.66-6.64z"/>
  <path id="path7" d="m617.16 219.65h46.84c5.7 0.15 11.88 0.24 16.79 3.56 4.52 3.47 8.74 7.84 10.42 13.43 4.57 14.07-1.32 31.59-15.3 37.83l3.8 7.83 16.52 30.71 36.84-93.38h21.18l35.52 92.73v-92.72h41.2c11.76 0.22 24.1 4.27 31.77 13.61 8.51 9.72 11.82 23 11.36 35.7-0.37 12.57-4.07 25.88-13.55 34.67-8.97 8.45-21.6 11.58-33.64 11.78-20.99 0.12-41.99-0.02-62.99 0l-20.26-64.48-21.6 64.48h-24.64l7.17 13.22c37.15-0.58 74.74 20.08 91.47 53.74 8.61-17.16 22.26-31.78 38.99-41.23 32.75-18.26 75.99-16.77 106.78 4.97 4.96 3.53 9.61 7.5 13.89 11.84l-27.58 42.27c-5.85-12.36-16.5-22.72-29.68-26.87-13.25-3.91-28.25-2.4-40.02 5.03-10.5 6.47-18.05 17.07-21.94 28.67-5.23 15.2-3.8 32.34 2.95 46.84 6.05 13.18 17.7 24.18 32.1 27.34 12.88 2.52 26.37-0.13 38.1-5.74 20.36-9.69 36.01-26.8 48.89-44.91 6.48-9.09 11.995-18.79 17.635-28.4v65.1c-13.36 25.7-37.645 45.57-65.495 53.59-31.79 9.38-68.38 1.87-93.02-20.57-9.21-8.29-16.74-18.38-22.39-29.39-7.72 15.48-19.8 28.73-34.46 37.9-32.52 20.86-76.85 21.37-109.88 1.34-16.69-9.91-30.26-24.94-38.63-42.44-16.49-34.07-9.6-77.71 15.81-105.6 13.86-15.48 32.73-26.16 52.93-30.79l-32.09-62.08v-8.65c5.2078 0 11.858 0.36867 15.48-2.19 7.23-5.58 5.89-18.58-2.41-22.49-5.2678-2.6098-11.557-2.32-17.585-2.32v77.235h-27.275v-91.165m200.07 18.41v54.32c7.6083 0 16.137 0.74326 22.64-3.52 7.2-4.64 9.54-13.77 9.59-21.85 0.13-9.44-2.42-20.21-10.82-25.67-5.6658-3.8259-14.89-3.28-21.41-3.28m-117.72 133.58c-13.99 1.37-26.89 9.37-34.97 20.78-9.1 12.67-12.9 29.12-9.97 44.48 2.37 14.11 10.19 27.39 21.87 35.78 10.14 7.48 23.2 10.53 35.65 9.16 12.57-1 24.35-7.82 32.11-17.67 8.81-10.95 13.25-25.21 12.97-39.19-0.82-16.86-8.28-33.88-21.89-44.27-10.07-7.73-23.28-10.67-35.77-9.07z"/>
  <path id="path9" d="m880.6 219.59h23.01v95.87h-23.01z"/>
  <path id="path11" d="m453.48 333.4h51.56c18.602 0 37.97-0.405 55.94 5.645 16.13 5.21 28.35 19.36 33.43 35.26 5.25 17.35 4.78 37.06-3.86 53.26-5.6 10.81-15.47 18.97-26.63 23.58l77.07 140.49h-49.89l-83.09-150.32v-7.92c7.77 0.14 15.59-0.48 23.15-2.34 4.9-1.44 10.07-3.34 13.3-7.51 5.32-6.86 7.67-15.94 6.61-24.52-0.99-9.74-9.03-18.68-18.95-19.67-4.5326-0.61877-18.97-0.51-28.45-0.51v140.98h-50.19z"/>
  <path id="path13" d="m985.16 333.4h50.155v83.25l51.515-83.25h50.84l-62.21 94.43 67.984 96.59h-58.714l-49.415-84.74v80.15h-50.155z"/>
  <path id="path15" d="m1022.4 532.4h15.31c-20.05 36.31-42.08 71.475-65.51 105.68-22.32 32.34-45.89 63.84-71.37 93.76-17.45 20.08-35.46 39.9-56.19 56.68-8.17 6.16-16.62 12.54-26.54 15.53-8.78 2.79-17.57-1.66-24.9-6.15-19.42-12.45-35.45-29.31-51.09-46.06-19.89-21.57-38.25-44.51-56.07-67.81-19.45-25.78-38.21-52.105-55.93-79.115h16c18.65 28.67 38.36 56.645 59.35 83.655 17.86 22.98 36.47 45.43 56.76 66.32 9.21 9.41 18.79 18.53 29.27 26.52 4.7769 3.9206 13.894 9.8829 20.669 10.023 7.2361-0.26699 12.393-4.0905 17.711-7.6326 17.33-12.39 31.9-28.11 46.21-43.76 26.72-29.97 51.15-61.92 74.4-94.64 25.77-36.47 50.07-74.055 71.92-113z"/>
 </g>
</svg>
