<?xml version="1.0" encoding="UTF-8"?>
<svg id="Layer_1" data-name="Layer 1" version="1.1" viewBox="0 0 1532.6 478.88" xmlns="http://www.w3.org/2000/svg" xmlns:cc="http://creativecommons.org/ns#" xmlns:dc="http://purl.org/dc/elements/1.1/" xmlns:rdf="http://www.w3.org/1999/02/22-rdf-syntax-ns#">
 <metadata id="metadata27">
  <rdf:RDF>
   <cc:Work rdf:about="">
    <dc:format>image/svg+xml</dc:format>
    <dc:type rdf:resource="http://purl.org/dc/dcmitype/StillImage"/>
   </cc:Work>
  </rdf:RDF>
 </metadata>
 <path id="path22" class="cls-1" d="m1483.5 0h-524.3c-30 0-57.2 24.4-60.4 54.2l-26.8 248.7c-3.2 29.8 18.7 54.2 48.7 54.2h321.6v93.6c0 30 17.4 37.2 38.6 16l109.6-109.6h54.6c30 0 57.2-24.4 60.4-54.2l26.8-248.7c3.2-29.7-18.8-54.2-48.8-54.2z" fill="#fff"/>
 <path id="path8" class="cls-1" d="M0,114.3H52v36.9h.8c10-25,36.9-42.3,63.5-42.3a42.32,42.32,0,0,1,11.9,1.9v50.8a96.51,96.51,0,0,0-19.6-1.9c-40,0-53.9,28.9-53.9,63.9v89.7H.1v-199Z" fill="#008ecf"/>
 <path id="path10" class="cls-1" d="M143.9,175.5c3.1-51.2,48.9-66.6,93.5-66.6,39.6,0,87.4,8.9,87.4,56.6V269c0,18.1,1.9,36.2,6.9,44.3H276.3a78.75,78.75,0,0,1-3.8-19.2c-17.3,18.1-42.7,24.6-67,24.6-37.7,0-67.7-18.9-67.7-59.6,0-45,33.9-55.8,67.7-60.4,33.5-5,64.7-3.8,64.7-26.2,0-23.5-16.2-26.9-35.4-26.9-20.8,0-34.2,8.5-36.2,30H143.9Zm126.2,40.4c-9.2,8.1-28.5,8.5-45.4,11.5-16.9,3.5-32.3,9.2-32.3,29.2,0,20.4,15.8,25.4,33.5,25.4,42.7,0,44.3-33.9,44.3-45.8V215.9Z" fill="#008ecf"/>
 <path id="path12" class="cls-1" d="m491.6 287.9h-0.8c-12.7 21.5-35 30.8-60.4 30.8-60 0-89.3-51.6-89.3-106.6 0-53.5 29.6-103.1 88.1-103.1 23.5 0 46.6 10 59.3 29.6h0.4v-100.1h54.6v274.8h-52v-25.4zm-47.7-137.8c-35.8 0-48.1 30.8-48.1 63.5 0 31.2 14.2 63.9 48.1 63.9 36.2 0 46.9-31.6 46.9-64.3 0-32.3-11.5-63.1-46.9-63.1z" fill="#008ecf"/>
 <path id="path14" class="cls-1" d="m617.5 83.6h-54.6v-45h54.6zm-54.7 30.7h54.6v199h-54.6z" fill="#008ecf"/>
 <path id="path16" class="cls-1" d="m739.4 109c62.7 0 103.1 41.6 103.1 105.1 0 63.1-40.4 104.7-103.1 104.7-62.3 0-102.7-41.6-102.7-104.7 0-63.6 40.4-105.1 102.7-105.1zm0 168.5c37.3 0 48.5-31.9 48.5-63.5 0-31.9-11.2-63.9-48.5-63.9-36.9 0-48.1 31.9-48.1 63.9 0 31.6 11.2 63.5 48.1 63.5z" fill="#008ecf"/>
 <path id="path22-7" d="m1143.1 38.6c-53.1 0-98.5 33.8-98.5 138.9 0 107.3 45.4 141.2 98.5 141.2 53.8 0 99.201-33.899 99.301-141.2 0-105-45.401-138.9-99.301-138.9zm217 0c-53.1 0-98.5 33.8-98.5 138.9 0 107.3 45.4 141.2 98.5 141.2 53.9 0 99.301-33.899 99.301-141.2 0-105-45.401-138.9-99.301-138.9zm-405.6 5.4004-9.5996 45h25.799v224.3h54.602 0.0996v-269.3h-70.9zm188.6 39.6c44.6 0 44.6 65.8 44.6 93.9 0 30.4 4e-4 96.199-44.6 96.199-43.9 0-43.9-65.799-43.9-96.199 0-28.1 4e-4 -93.9 43.9-93.9zm217 0c44.6 0 44.6 65.8 44.6 93.9 0 30.4 4e-4 96.199-44.6 96.199-43.9 0-43.9-65.799-43.9-96.199 0-28.1 4e-4 -93.9 43.9-93.9z" fill="#2c0700"/>
</svg>
