<svg version="1.1" viewBox="0 0 1077.1 499.2" xml:space="preserve" xmlns="http://www.w3.org/2000/svg">
<g transform="translate(-48 -.4)">
			<path class="st1" d="m104.4 269.6h-24.8v58.2h-31.6v-150.6h66.1c17.5 0 30.5 5 39.4 14.1 8.4 8.7 13.5 19.2 13.5 32.6 0 21.1-11 35.8-30 42.1l37.8 61.7h-35.4zm-24.8-24.9h31.6c16 0 24.5-7.4 24.5-20.6 0-13.7-8.9-20.5-24-20.5h-32v41.1z"/>
			<path class="st1" d="m244.9 314.9c-5.8 8.2-14.4 15.4-32.9 15.4-22.1 0-37.2-11.4-37.2-32.9 0-23.8 19.3-31.6 43.3-34.9 17.9-2.5 26.1-4.1 26.1-12.2 0-7.8-6.7-12.9-19.1-12.9-13.6 0-19.9 4.7-20.5 15.2h-25.5c0.7-18.9 14.6-35.6 46.4-35.6 32.9 0 46.3 14.6 46.3 39.8v44.2c0 6.9 1.3 9.5 7.6 8.4h0.6v17.5c-2.4 1.3-5.9 2.5-12.2 2.5-13.6 0-20.5-4-22.9-14.5zm0-25.3v-16c-5 3-12.9 4.7-20 6.3-15 3.3-22.3 6.5-22.3 16.6 0 9.9 6.8 13.7 16.8 13.7 16.4 0.1 25.5-10 25.5-20.6z"/>
			<path class="st1" d="m284.2 273.8c0-33.7 19.1-57 46.1-57 15.1 0 24.6 6.9 30.5 16h0.6v-55.6h28.7v150.6h-27.6v-14.1h-0.5c-6.3 10.3-16.9 17.3-32.2 17.3-27.1-0.1-45.6-22.2-45.6-57.2zm77.8 0.7c0-20.7-6.7-34.5-25-34.5-15.8 0-23.8 13.9-23.8 33.9 0 20.9 8.2 33 23 33 17.1 0 25.8-12.7 25.8-32.4z"/>
			<path class="st1" d="m407.2 177.2h28.6v25.7h-28.6v-25.7zm0 42.5h28.6v108h-28.6v-108z"/>
			<path class="st1" d="m447.4 273.9c0-32.2 22.9-57.1 56.4-57.1s56.4 24.8 56.4 57.1-22.9 57.1-56.4 57.1c-33.4-0.1-56.4-24.9-56.4-57.1zm83.8 0c0-21.1-9.9-35.4-27.4-35.4-17.7 0-27.4 14.3-27.4 35.4s9.7 35.2 27.4 35.2c17.5-0.1 27.4-14.2 27.4-35.2z"/>
			<path class="st1" d="m609.1 267.9c18.9-14.9 39.6-25.4 39.6-44.8 0-14.1-7.1-23.8-20.8-23.8-15.5 0-24.7 11.2-25.1 30.7h-27.8c0-34.3 17.7-55.6 53.4-55.6 33.2 0 51 21.9 51 47.8 0 28.4-19.4 41.5-37.9 53.9-11.6 7.4-25.5 17.4-30.6 27.1h69.3v24.5h-107.3c1-28.8 19.2-46.3 36.2-59.8z"/>
			<path class="st1" d="m755.5 294.7h-69.5v-31.1l68.4-87.4h30v94.9h22.4v23.6h-22.4v33.1h-28.9zm-45.7-23.6h45.6v-58.5h-0.4l-45.3 57.9z"/>
			<path class="st1" d="m821.5 292.8h26.5c1.9 12.4 10.7 17.9 23.6 17.9 12.6 0 19.8-4.8 19.8-12.4 0-10.3-13.7-11.4-28.4-14.3-19.3-3.8-38.3-9.1-38.3-32.6 0-23.4 19.3-34.5 44-34.5 28.4 0 44.2 14.1 46.3 35.8h-26c-1.1-11.6-8.5-15.8-20.8-15.8-11.1 0-18.5 4.2-18.5 12 0 9.2 14.2 10.1 29.7 13.2 18 3.8 38 8.8 38 34.1 0 21.6-18.5 34.7-45.4 34.7-31.5 0-48.9-15.2-50.5-38.1z"/>
			<path class="st1" d="m926.8 340.6h10.2c11.4 0 16.1-5.9 16.1-14.7 0-5.9-2.1-12.8-8.4-29.3l-29-76.8h30l16 48.6c3.4 9.9 7 23.6 7 23.6h0.4s2.9-13.7 6.3-23.6l15.2-48.6h28.8l-37.7 110.7c-8.2 24-16.1 32.7-38.2 32.7h-16.9z"/>
			<path class="st1" d="m1022.5 219.7h29.1l17.2 56c3.1 10.3 4.9 17.3 4.9 17.3h0.3s1.5-6.9 4.7-17.3l17.7-56h28.7l-37.7 108h-27.4z"/>
		</g><rect class="st2" x="464.7" y=".1" width="28.6" height="499" fill="#f00" stroke="#f00" stroke-miterlimit="10" stroke-width=".2"/>
</svg>
