<svg id="a" version="1.1" viewBox="0 0 600 319.88" xml:space="preserve" xmlns="http://www.w3.org/2000/svg">
<path id="b" d="m334.66 78.322c-2.3976 0-5.5944-1.5984-7.1929-3.1968-8.7913-8.7913-15.984-18.382-22.378-29.571-0.79921-0.7992-0.79921-1.5984-0.79921-1.5984 7.9921-3.1968 13.587-10.39 14.386-19.181 0-6.3937-3.1968-12.787-9.5905-15.984-5.5944-2.3976-12.787-3.996-19.181-3.1968-10.39 0-18.382 0-24.775 0.79921-0.7992 0-0.7992 0.79921-0.7992 1.5984 0 0.79921 0 1.5984 0.7992 2.3976l3.996 0.79921c3.996 0.79921 3.996 1.5984 3.996 11.988v39.96c0 11.988 0 12.787-6.3936 12.787h-3.1968c-0.79921 0.79921-0.79921 1.5984-0.79921 2.3976s0.79921 0.7992 0.79921 1.5984h27.174c1.5984 0 1.5984-0.79921 1.5984-1.5984v-1.5984h-2.3976c-5.5944-0.79921-6.3937-0.79921-6.3937-12.787v-14.386c0-1.5984 0-1.5984 4.7952-1.5984 3.1968-0.79921 5.5944 0.7992 7.1929 3.1968 1.5984 2.3976 3.996 5.5944 5.5944 8.7913 1.5984 3.1968 3.996 6.3936 5.5944 7.9921 7.9921 11.189 13.587 14.386 23.976 14.386 1.5984 0 3.1968 0 4.7952-0.79921 0.7992 0 0.7992-0.7992 0.7992-1.5984-0.7992-0.79921-0.7992-0.79921-1.5984-1.5984zm-27.972-51.149c0 4.7952-1.5984 9.5905-5.5944 12.787-3.1968 2.3976-7.1929 3.1968-11.189 2.3976h-7.1929v-28.772c0-2.3976 0-3.1968 6.3937-3.1968 8.7913-0.7992 15.984 6.3937 16.783 15.185 1.5984 0.79921 1.5984 0.79921 0.79921 1.5984z" fill="#485564" stroke-width="7.9921"/>
<path id="c" d="m378.62 74.326c-0.7992 0-0.7992 0-1.5984 0.79921-0.79921 0-1.5984 0.7992-2.3976 0.7992s-2.3976 0-3.1968-0.7992c-1.5984-2.3976-2.3976-5.5944-1.5984-7.9921l0.79921-19.181c0.7992-3.996-0.79921-7.1929-3.1968-10.39-2.3976-2.3976-5.5944-3.1968-8.7913-3.1968-7.9921 0-21.579 7.9921-21.579 14.386 0 0.79921 0.79921 2.3976 1.5984 2.3976 2.3976 0 4.7952-0.7992 6.3937-2.3976 1.5984-0.7992 1.5984-2.3976 1.5984-3.996 0-3.1968 3.996-3.996 6.3937-3.996 1.5984 0 3.996 0.79921 5.5944 1.5984 1.5984 1.5984 2.3976 4.7952 2.3976 7.1929v4.7952c0 1.5984 0 2.3976-1.5984 2.3976l-13.587 4.7952c-5.5944 2.3976-8.7913 4.7952-8.7913 9.5905 0 3.1968 1.5984 5.5944 3.996 7.9921 2.3976 1.5984 4.7952 2.3976 7.9921 2.3976s5.5944-0.7992 7.9921-2.3976l1.5984-0.7992c0.79921-0.79921 1.5984-0.79921 2.3976-0.79921l1.5984 1.5984c1.5984 2.3976 4.7952 3.996 7.9921 3.996 3.996 0 7.9921-2.3976 9.5905-5.5944 0-1.5984 0-3.1968-1.5984-3.1968zm-17.583-11.988v7.1929c0 2.3976 0 3.1968-1.5984 4.7952s-3.996 2.3976-6.3936 2.3976c-3.1968 0-6.3937-2.3976-6.3937-5.5944 0-3.996 2.3976-5.5944 9.5905-7.1929 1.5984-2.3976 3.1968-2.3976 4.7952-1.5984z" fill="#485564" stroke-width="7.9921"/>
<path id="d" d="m434.56 75.125c-1.5984 0.7992-3.1968 0.7992-4.7952 0.7992-2.3976 0-2.3976-3.1968-2.3976-11.988v-63.138c0-0.7992-0.79921-0.7992-1.5984-0.7992-3.996 1.5984-7.9921 3.1968-11.988 4.7952-0.7992 0-1.5984 0.7992-1.5984 1.5984s0 1.5984 0.79921 1.5984l0.7992 0.79921c3.1968 1.5984 3.1968 2.3976 3.1968 8.7913v17.582c-2.3976-0.79921-4.7952-0.79921-7.1929-0.79921-14.386-0.79921-26.374 9.5905-27.173 23.976v2.3976c-0.79921 11.988 8.7913 21.579 19.98 22.378h0.79921c4.7952 0 9.5905-1.5984 13.587-4.7952v3.996c0 0.79921 0.79921 1.5984 1.5984 1.5984 4.7952-1.5984 9.5905-3.1968 14.386-3.1968 0.79921-0.79921 1.5984-1.5984 0.79921-3.1968 1.5984-1.5984 0.7992-2.3976 0.7992-2.3976zm-17.583-27.972v21.579c0 0.79921 0 3.1968-0.7992 3.1968-2.3976 1.5984-4.7952 3.1968-7.9921 3.1968-9.5905-0.79921-16.783-8.7913-15.984-17.583v-0.79921c0-8.7913 4.7952-17.583 14.386-17.583 3.1968 0 6.3937 1.5984 8.7913 4.7952 1.5984 0.79921 1.5984 1.5984 1.5984 3.1968z" fill="#485564" stroke-width="7.9921"/>
<path id="e" d="m452.15 23.177c3.1968 0 6.3937-2.3976 6.3937-5.5944v-0.79921c0-3.1968-2.3976-6.3937-5.5944-6.3937h-0.79921c-3.1968 0-6.3936 2.3976-6.3936 6.3937v0.79921c0 2.3976 2.3976 5.5944 6.3936 5.5944-0.7992 0 0 0 0 0z" fill="#485564" stroke-width="7.9921"/>
<path id="f" d="m460.94 76.724c-3.1968-0.79921-3.996-0.79921-3.996-8.7913v-19.98c0-5.5944 0-11.189 0.79921-13.587 0-0.79921-0.79921-1.5984-1.5984-1.5984-3.996 2.3976-7.9921 3.996-11.988 4.7952-0.7992 0-0.7992 0.7992-0.7992 1.5984s0 1.5984 0.7992 1.5984l0.79921 0.79921c2.3976 1.5984 2.3976 2.3976 2.3976 6.3937v19.181c0 7.9921 0 8.7913-3.996 8.7913h-2.3976c-0.79921 0.79921-0.79921 1.5984-0.79921 2.3976s0.79921 1.5984 0.79921 1.5984h20.78c0.79921 0 0.79921-0.79921 0.79921-1.5984 0-0.79921 0-1.5984-0.79921-2.3976h-0.7992z" fill="#485564" stroke-width="7.9921"/>
<path id="g" d="m489.71 34.366c-13.587 0-23.976 10.39-23.976 23.976v0.79921c-0.79921 12.787 8.7913 23.177 21.579 23.976h1.5984c12.787 0 23.976-9.5905 23.976-22.378v-1.5984c0.79921-12.787-8.7913-23.177-21.579-23.976-0.79921-0.79921-1.5984-0.79921-1.5984-0.79921zm0 43.157c-8.7913 0-13.587-10.39-13.587-19.98 0-11.189 4.7952-18.382 11.988-18.382 10.39 0 13.587 12.787 13.587 20.779s-3.1968 17.583-11.988 17.583z" fill="#485564" stroke-width="7.9921"/>
<path id="h" d="m120.48 244.56c-3.1968 1.5984-7.1929 2.3976-11.189 2.3976-3.1968 0-6.3936-0.79921-8.7913-2.3976-3.1968-7.9921-8.7913-24.775-12.787-35.964l-50.35-126.27c-11.189-29.571-12.787-30.37-23.177-32.767l-12.787-3.1968c-2.3976-3.1968-1.5984-7.9921 1.5984-10.39 15.984 0 26.374 0.79921 42.358 0.79921 14.386 0 27.972 0 46.354-0.79921 2.3976 1.5984 2.3976 7.9921 0 10.39l-8.7913 1.5984c-5.5944 1.5984-7.9921 3.1968-7.9921 5.5944 3.1968 11.988 7.1929 23.177 12.787 34.366l27.173 70.33 10.39 26.374c2.3976-5.5944 7.1929-15.984 11.189-25.575l11.988-28.771c7.9921-19.98 20.779-54.346 24.775-65.535 1.5984-3.1968 2.3976-7.1929 3.1968-11.189 0-2.3976-2.3976-3.1968-10.39-5.5944l-9.5905-1.5984c-2.3976-2.3976-2.3976-8.7913 1.5984-10.39 13.587 0.79921 24.775 0.79921 35.964 0.79921 13.587-10.39 33.567-7.1929 43.157 6.3936 9.5905 13.587 7.1929 33.567-6.3937 43.157-13.587 10.39-32.767 7.1929-43.157-6.3936-3.996 8.7913-7.9921 18.382-13.587 30.37l-23.177 54.346c-15.185 38.362-23.177 63.137-30.37 79.921z" fill="#485564" stroke-width="7.9921"/>
<path id="i" d="m338.66 243.76c-2.3976-3.1968-2.3976-7.9921 0-11.189l5.5944-0.7992c7.1929-1.5984 7.9921-3.1968 7.9921-20.779v-52.748c1.5984-11.189-6.3937-20.779-17.583-22.378h-4.7952c-6.3937 0-12.787 2.3976-17.583 7.1929-2.3976 3.1968-3.1968 7.1929-2.3976 11.189v55.944c0 16.783 1.5984 19.98 8.7913 20.779l4.7952 0.79921c2.3976 3.1968 2.3976 7.9921 0 11.189-9.5905-0.7992-19.98-0.7992-34.366-0.7992h-76.724c-14.386 0-27.173 0-37.563 0.7992-2.3976-3.1968-2.3976-7.9921 0-11.189l5.5944-0.79921c10.39-0.79921 11.189-3.996 11.189-25.575v-47.153c0-12.787 0-15.984-5.5944-19.98l-3.996-3.1968c-2.3976-2.3976-2.3976-6.3936 0-9.5905 15.984-4.7952 31.169-10.39 46.354-18.382 2.3976 0 3.996 0.79921 5.5944 3.1968-0.79921 9.5905-0.79921 23.177-0.79921 36.764v57.543c0 21.579 1.5984 24.775 11.189 25.575h11.988c11.189-1.5984 12.787-3.996 12.787-25.575v-47.153c0-12.787 0-15.984-5.5944-19.98l-3.996-3.1968c-2.3976-2.3976-2.3976-6.3936 0-9.5905 15.984-3.996 31.169-10.39 46.354-18.382 2.3976 0 3.996 0.79921 5.5944 3.1968 0 4.7952-0.79921 11.988-0.79921 14.386s0.79921 2.3976 1.5984 2.3976c2.3976-0.7992 3.996-1.5984 5.5944-2.3976 10.39-7.1929 23.177-11.189 35.964-12.787 19.98-1.5984 37.563 13.587 39.161 34.366v58.342c0 21.579 1.5984 23.976 12.787 25.575l4.7952 0.7992c2.3976 3.1968 2.3976 7.9921 0 11.189-9.5905-0.79921-22.378-0.79921-37.563-0.79921-13.587 1.5984-25.575 2.3976-34.366 3.1968z" fill="#485564" stroke-width="7.9921"/>
<path id="j" d="m561.64 241.36c-13.587 0-26.374 0-36.764 0.79921-0.7992-1.5984-1.5984-2.3976-1.5984-3.996s0-3.1968 1.5984-4.7952l5.5944-0.79921c11.189-0.7992 12.787-5.5944 12.787-26.374v-79.121l-4.7952 0.79921c-5.5944 0-11.189 3.1968-15.185 7.1929-7.1929 10.39-13.587 21.579-18.382 32.767l-63.937 131.87c-6.3937 13.587-14.386 19.98-25.575 19.98-5.5944 0.79921-10.39-0.79921-14.386-4.7952-3.1968-3.1968-4.7952-7.9921-4.7952-13.587 0-7.9921 6.3937-15.185 15.185-15.185h9.5905c6.3936 0 11.988-2.3976 15.984-7.1929 3.1968-3.996 5.5944-8.7913 7.1929-13.587l1.5984-3.996c2.3976-3.996 3.996-8.7913 4.7952-13.587-0.79921-7.9921-2.3976-15.984-6.3937-23.177l-30.37-75.125c-5.5944-14.386-8.7913-20.779-19.181-23.177l-5.5944-0.7992c-0.7992-0.79921-1.5984-3.1968-0.7992-5.5944 0-0.79921 0.7992-1.5984 1.5984-2.3976 11.189 0.79921 24.775 0.79921 40.76 0.79921 11.988 0 23.177 0 34.366-0.79921 0.79921 0.79921 1.5984 1.5984 1.5984 3.1968 0.7992 1.5984 0 3.996-0.79921 5.5944l-5.5944 1.5984c-8.7913 1.5984-10.39 3.1968-10.39 7.1929 1.5984 6.3936 3.1968 12.787 6.3937 19.181l3.1968 8.7913 3.996 9.5905c3.1968 8.7913 7.9921 19.98 10.39 26.374l0.7992 1.5984 0.79921-1.5984c2.3976-5.5944 5.5944-11.189 7.9921-16.783l7.1929-16.783c4.7952-10.39 8.7913-20.779 11.988-31.968 0-2.3976-3.1968-4.7952-7.9921-5.5944l-6.3936-0.79921c-1.5984-1.5984-1.5984-3.996-0.79921-6.3936 0-0.79921 0.79921-2.3976 1.5984-3.1968 7.1929 0.79921 16.783 0.79921 30.37 0.79921l22.378-0.79921h0.7992v-48.752c0-12.787 0-16.783-6.3936-20.779l-4.7952-3.1968c-0.79921-0.79921-1.5984-2.3976-1.5984-3.996s0-2.3976 0.7992-3.996c15.984-4.7952 31.968-10.39 47.153-17.583 1.5984 0 3.1968 0.79921 3.996 1.5984-0.79921 13.587-0.79921 26.374-0.79921 45.555v139.06c0 21.579 0.79921 24.775 12.787 26.374l4.7952 0.7992c0.79921 1.5984 1.5984 3.1968 1.5984 4.7952s-0.79921 3.1968-1.5984 3.996h-36.764z" fill="#485564" stroke-width="7.9921"/>
</svg>
