<?xml version="1.0" encoding="UTF-8"?>
<svg id="svg47" width="350.93" height="249.34" version="1.1" viewBox="0 0 92.85 65.972" xmlns="http://www.w3.org/2000/svg" xmlns:cc="http://creativecommons.org/ns#" xmlns:dc="http://purl.org/dc/elements/1.1/" xmlns:rdf="http://www.w3.org/1999/02/22-rdf-syntax-ns#">
 <metadata id="metadata51">
  <rdf:RDF>
   <cc:Work rdf:about="">
    <dc:format>image/svg+xml</dc:format>
    <dc:type rdf:resource="http://purl.org/dc/dcmitype/StillImage"/>
    <dc:title/>
   </cc:Work>
  </rdf:RDF>
 </metadata>
 <defs id="defs5">
  <clipPath id="a">
   <path id="path2" d="M 0,187.01 H 263.2 V 0 H 0 Z"/>
  </clipPath>
 </defs>
 <g id="g45" transform="translate(39.974 -109.43)">
  <g id="g43" transform="matrix(.35278 0 0 -.35278 -39.974 175.4)" fill="#ff151f">
   <g id="g41" fill="#ff151f">
    <g id="g39" clip-path="url(#a)" fill="#ff151f">
     <g id="g9" transform="translate(172.51,125.48)">
      <path id="path7" d="m0 0c3.428 0.937 6.181 4.732 6.338 8.752s-2.356 6.368-5.782 5.423c-3.428-0.946-6.12-4.718-6.278-8.738s2.287-6.382 5.722-5.437" fill="#ff151f"/>
     </g>
     <g id="g13" transform="translate(95.182,67.315)">
      <path id="path11" d="m0 0c-4.777-1.312-8.527-6.48-8.752-12.188-0.226-5.708 3.194-8.91 7.98-7.589 4.784 1.32 8.617 6.599 8.842 12.21 0.225 5.609-3.285 8.886-8.07 7.567" fill="#ff151f"/>
     </g>
     <g id="g17" transform="translate(181.66,91.089)">
      <path id="path15" d="m0 0c-4.785-1.32-8.527-6.3-8.752-12-0.226-5.7 3.217-8.332 8.002-7.02 5.154 1.564 8.725 6.256 8.857 11.64 0.188 5.707-3.33 8.692-8.107 7.38" fill="#ff151f"/>
     </g>
     <g id="g21" transform="translate(225.98,140.18)">
      <path id="path19" d="m0 0c3.428 0.945 6.181 4.732 6.338 8.752s-2.348 6.368-5.776 5.423c-3.426-0.945-6.119-4.643-6.277-8.738-0.157-4.095 2.295-6.382 5.715-5.437" fill="#ff151f"/>
     </g>
     <g id="g25" transform="translate(102.97,133.6)">
      <path id="path23" d="m0 0-9.345-2.565c-0.364-0.105-0.62-0.431-0.637-0.81l-0.353-9.052c4e-3 -0.481 0.397-0.866 0.877-0.863 0.148 2e-3 0.292 0.04 0.42 0.113 1.506 0.828 3.176 1.315 4.891 1.425 1.109 0.06 2.205 0.067 3.322 0.21 1.163 0.135 2.282 0.524 3.277 1.14 2.172 1.362 3.509 3.729 3.555 6.292 0.143 3.525-1.845 5.257-6.007 4.11" fill="#ff151f"/>
     </g>
     <g id="g29" transform="translate(251.91,97.667)">
      <path id="path27" d="m0 0c0.05-1.113-0.695-2.106-1.777-2.37l-26.25-7.222c-0.464-0.125-0.74-0.602-0.615-1.067 0.012-0.043 0.027-0.085 0.044-0.126 1.276-2.685 4.29-4.365 8.505-3.203 3.377 0.924 6.52 2.555 9.218 4.785 0.275 0.243 0.597 0.426 0.945 0.54 0.51 0.143 0.84-0.142 1.245-0.503l4.56-6.261c0.57-0.593 0.27-1.71-0.51-2.393-4.634-4.379-10.259-7.57-16.395-9.3-11.999-3.307-21.645 5.138-21.112 18.622 0.495 12.638 9.495 27 21.945 30.465 13.702 3.765 20.804-6.69 20.197-21.975zm-40.965 49.034c1.5 7.237 6.795 14.25 13.066 17.197 11.332 5.303 20.332-2.872 17.631-16.019-1.5-7.275-6.854-14.317-13.154-17.25-11.34-5.28-20.235 2.925-17.543 16.065zm-3.502 24c-0.092-1.777-0.754-3.476-1.89-4.845-1.071-1.419-2.578-2.447-4.289-2.925-1.346-0.485-2.846-0.235-3.96 0.66-1.089 0.996-1.629 2.458-1.449 3.922 0.086 1.834 0.736 3.597 1.861 5.048 0.987 1.443 2.441 2.502 4.117 3 1.404 0.516 2.975 0.25 4.133-0.698 1.129-1.071 1.677-2.618 1.477-4.162m-2.64-44.789c0.034-0.777-0.495-1.466-1.252-1.636l-7.935-2.174c-0.803-0.218-1.178 0.105-1.141 0.975l1.441 31.634c-0.032 0.777 0.5 1.464 1.26 1.627l7.92 2.176c0.802 0.217 1.177-0.105 1.139-0.975zm-2.017-53.91c-0.256-6.337-1.051-14.663-3.75-21.083-8.88-21.059-31.215-22.372-38.737-15.569-0.653 0.473-0.623 1.237 0 2.25l5.79 9.75c0.311 0.497 0.769 0.886 1.312 1.109 0.261 0.087 0.549 0.025 0.75-0.165 2.047-1.604 5.407-2.091 9.082-1.079 6.438 1.608 11.03 7.288 11.25 13.919l0.082 2.056c0.025 0.476-0.341 0.881-0.816 0.905-0.283 0.015-0.556-0.111-0.729-0.336-2.684-3.359-6-6.382-10.732-7.672-11.1-3.052-17.999 5.483-17.497 19.087 0.503 13.606 8.31 26.558 19.41 29.61 4.845 1.335 7.95 0 10.5-2.04 0.373-0.303 0.921-0.245 1.224 0.128 0.117 0.144 0.185 0.323 0.193 0.51l0.105 2.685c0.026 0.653 0.472 1.214 1.103 1.387 2.595 0.705 9.239 2.52 11.864 3.248 0.608 0.172 1.058-0.248 1.035-0.923zm-46.095 56.137c0.383 9.682 5.962 19.17 13.972 21.375 2.888 0.75 5.348 0.299 7.141-1.05 0.38-0.286 0.92-0.21 1.207 0.171 0.106 0.141 0.167 0.312 0.172 0.489l0.585 14.797c0.026 0.653 0.472 1.215 1.103 1.388l7.875 2.159c0.75 0.203 1.087-0.105 1.05-0.989l-1.778-45.308c0.068-0.746-0.424-1.428-1.155-1.597l-7.785-2.137c-0.463-0.129-0.942 0.142-1.071 0.605-0.024 0.086-0.035 0.175-0.032 0.265 0.011 0.476-0.366 0.87-0.842 0.881-0.249 6e-3 -0.49-0.097-0.658-0.281-1.848-2.301-4.35-3.988-7.176-4.838-8.033-2.205-12.991 4.32-12.608 14.07m-0.892-33.727-3.338-11.933c-0.189-0.573-0.65-1.017-1.23-1.185-0.272-0.096-0.566-0.112-0.847-0.044-1.255 0.177-2.534 0.085-3.75-0.27-5.04-1.381-9.127-6.556-9.428-14.16l-0.75-19.973c-0.05-0.865-0.614-1.616-1.432-1.904l-11.153-3.068c-0.586-0.178-1.206 0.153-1.384 0.74-0.05 0.163-0.061 0.337-0.033 0.505l1.763 44.812c0.026 0.653 0.471 1.215 1.102 1.388 2.64 0.75 9.487 2.579 12 3.285 0.404 0.086 0.804-0.171 0.891-0.576 0.012-0.058 0.017-0.116 0.016-0.175l-0.232-5.947h0.082c1.681 4.133 5.857 9.42 10.726 10.755 1.964 0.54 4.5 1.057 6.599 0.217 0.907-0.337 0.697-1.245 0.398-2.452zm-35.633 23.67c0.375 9.682 5.955 19.169 13.973 21.374 2.42 0.808 5.084 0.361 7.11-1.192 0.38-0.295 0.926-0.225 1.221 0.154 0.111 0.143 0.174 0.317 0.181 0.499l0.045 1.147c0.026 0.653 0.472 1.214 1.103 1.387l7.875 2.168c0.75 0.194 1.088-0.113 1.049-0.998l-1.237-31.499c0.069-0.747-0.425-1.429-1.155-1.598l-7.688-2.107c-0.503-0.137-1.022 0.16-1.159 0.664-0.025 0.091-0.036 0.186-0.033 0.281 0.016 0.48-0.361 0.882-0.842 0.897-0.267 8e-3 -0.524-0.107-0.695-0.312-1.828-2.339-4.331-4.059-7.17-4.928-8.018-2.197-12.96 4.403-12.578 14.078zm-0.9 14.182c-0.292-7.5-4.964-13.455-8.062-16.073-0.329-0.273-0.406-0.747-0.18-1.109l7.845-12.93c0.405-0.63 0.255-1.208-0.66-1.5l-8.752-2.408c-0.734-0.319-1.586 0.017-1.905 0.75l-6.833 11.145c-0.26 0.392-0.651 0.678-1.102 0.81-0.697 0.225-1.43 0.314-2.16 0.262-1.939-0.195-3.771-0.981-5.25-2.25h-0.045l-0.563-14.324c0.068-0.746-0.425-1.428-1.154-1.597l-7.073-1.943c-0.798-0.221-1.625 0.249-1.844 1.048-0.041 0.147-0.059 0.299-0.054 0.452l1.741 44.452c0.045 0.683 0.493 1.273 1.139 1.5l21.473 5.902c8.625 2.415 13.785-3.382 13.439-12.187m-2.819-73.027c-1.905-10.815-9.953-21.382-19.388-25.402-15.142-6.464-26.894 4.38-23.819 21.832 1.897 10.77 9.87 21.307 19.252 25.335 15.142 6.488 27.037-4.305 23.955-21.765m-51.397-32.317c-0.039-0.68-0.483-1.272-1.125-1.5l-11.64-3.195c-1.027-0.405-2.193 0.058-2.663 1.058l-21.224 28.732c-0.287 0.386-0.832 0.466-1.217 0.18-0.21-0.156-0.339-0.399-0.351-0.66l-1.372-34.905c0.089-1.045-0.595-1.999-1.613-2.25l-11.249-3.097c-0.524-0.17-1.087 0.117-1.257 0.64-0.051 0.157-0.063 0.324-0.033 0.485l2.512 63.989c0.026 0.653 0.472 1.215 1.102 1.388l11.663 3.202c1.027 0.401 2.19-0.061 2.662-1.058l21.225-28.739c0.293-0.386 0.843-0.462 1.23-0.168 0.204 0.154 0.33 0.392 0.345 0.647l1.38 35.213c0.032 0.839 0.56 1.578 1.342 1.882l11.738 3.226c0.422 0.136 0.874-0.096 1.01-0.517 0.042-0.129 0.05-0.265 0.025-0.398zm198.1 70.297c0.45 11.46-2.482 20.812-8.482 27.059-2.568 2.701-5.736 4.756-9.247 6 3.573 4.484 6.053 9.737 7.245 15.345 1.829 8.918 0.142 17.13-4.755 23.137-4.184 5.159-10.497 8.118-17.138 8.033-3.997-0.039-7.935-0.961-11.535-2.7l-0.75-0.353c-0.504 3.72-2.34 7.131-5.167 9.6-2.745 2.395-6.272 3.703-9.915 3.675-1.539-5e-3 -3.07-0.217-4.553-0.63-4.076-1.155-7.648-3.642-10.147-7.065-0.135-0.187-0.277-0.375-0.404-0.57-0.128-0.195-10.418-2.595-10.418-2.595-5.363-1.459-9.155-6.236-9.36-11.79l-0.15-3.824-0.69-0.181c-4.162-1.189-7.974-3.366-11.115-6.344-1.429 0.579-2.958 0.875-4.5 0.87-1.138-1e-3 -2.27-0.155-3.367-0.458 0 0-15.668-3.637-17.535-4.147-1.822-0.507-3.583-1.213-5.25-2.108-3.848 5.178-9.952 8.189-16.402 8.093-2.26-0.012-4.507-0.327-6.683-0.938l-21.465-5.888c-5.361-1.543-9.13-6.349-9.352-11.924l-1.372-34.875c-1.23 0.416-2.52 0.629-3.818 0.63-1.095-1e-3 -2.185-0.15-3.24-0.442l-11.737-3.225c-5.54-1.569-9.451-6.511-9.705-12.263l-0.225-5.67-3.548 4.808c-2.43 3.693-6.558 5.912-10.979 5.902-1.294-5e-3 -2.58-0.184-3.825-0.532l-11.662-3.203c-5.361-1.47-9.151-6.243-9.368-11.797l-2.52-63.989c-0.339-6.751 4.858-12.5 11.609-12.84 0.2-0.01 0.401-0.015 0.601-0.015 1.115 0 2.224 0.15 3.3 0.443l11.295 3.104c5.732 1.552 9.753 6.7 9.87 12.638l0.21 5.362 3.554-4.785c2.431-3.692 6.559-5.912 10.98-5.902 1.293 2e-3 2.58 0.179 3.826 0.525l11.647 3.202c4.426 1.257 7.853 4.769 9 9.225 3.879-2.068 8.211-3.14 12.607-3.12 4.466 0.052 8.876 1.012 12.96 2.82 5.326 2.335 10.107 5.752 14.039 10.035 2.233-1.903 5.069-2.951 8.003-2.955 1.128 0 2.25 0.152 3.337 0.45l11.16 3.068c5.542 1.589 9.446 6.547 9.69 12.307l3-3c-3.93-6.472-1.867-13.08 2.325-16.62 4.673-4.102 11.37-6.36 18.893-6.36 12.817 0 29.399 6.862 37.499 26.122 1.94 4.832 3.224 9.902 3.817 15.075 3.861-2.031 8.162-3.082 12.525-3.059 2.738 8e-3 5.462 0.384 8.1 1.117 7.827 2.179 15.009 6.222 20.933 11.782 2.693 2.4 4.313 5.779 4.5 9.383 0.102 2.095-0.326 4.182-1.245 6.067 3.128 2.514 4.994 6.277 5.099 10.29" fill="#ff151f"/>
     </g>
     <g id="g33" transform="translate(231.22,107.75)">
      <path id="path31" d="m0 0c-3.48-0.96-6-3.998-7.351-7.44-0.177-0.442 0.036-0.944 0.477-1.123 0.176-0.071 0.369-0.082 0.552-0.032l13.011 3.577c0.441 0.102 0.714 0.541 0.613 0.981l-0.012 0.047c-1.051 3.3-3.436 5.047-7.29 3.99" fill="#ff151f"/>
     </g>
     <g id="g37" transform="translate(135.97,115.43)">
      <path id="path35" d="m0 0c3.428 0.937 6.18 4.732 6.337 8.752 0.158 4.02-2.355 6.368-5.782 5.423s-6.113-4.65-6.27-8.738c-0.158-4.087 2.287-6.382 5.715-5.437" fill="#ff151f"/>
     </g>
    </g>
   </g>
  </g>
 </g>
</svg>
