<svg width="2434pt" height="602.03pt" version="1.1" viewBox="0 0 2434 602.03" xmlns="http://www.w3.org/2000/svg">
 <path d="m2249.9 123.29c24.43-6.55 50.21-7.76 75.26-4.53 19.78 2.69 39.31 9.02 56.01 20.13 16.13 10.71 29.26 26.04 36.81 43.91 8.16 18.73 10.21 39.62 8.47 59.84-1.49 17.84-6.67 35.35-15.09 51.15-8.06 15.24-18.79 28.92-30.7 41.31-29.2 30.17-64.11 53.915-98.67 77.405h151.96v69.96h-273.76v-67.935c35.77-25.96 71.655-51.84 105.54-80.27 16.15-13.78 31.97-28.19 45.21-44.87 11.85-14.87 21.26-32.45 23.06-51.64 1.19-13.68 0.23-28.98-8.8-40.05-8.08-9.82-21.69-12.49-33.78-11.66-10.99 0.58-22.1 5.15-28.95 14-10.32 13.26-12.36 30.88-12.29 47.17h-90.67c0.2-28.87 7.82-58.43 25.54-81.63 15.88-21.09 39.48-35.57 64.85-42.29z" fill="#f96e00"/>
 <g transform="scale(.99983)" fill="#f96e00">
  <path d="m1438.4 5.541h108.57l-95.947 82.505h-66.443z"/>
  <path d="m1706.3 123.26c19.76-9.42 41.45-14.22 63.18-16.19 38.38-3.19 77.95 1.01 113.68 15.93 25.83 10.72 49.14 27.34 67.81 48.14l-60.37 51.09c-12.6-13.56-27.86-24.92-45.14-31.77-17.98-7.25-37.62-9.72-56.91-9.1-10.74 0.51-21.69 2.03-31.47 6.7-7.33 3.5-13.92 9.48-16.3 17.44-2 6.76-1.79 14.29 0.93 20.83 3.68 8.06 11.8 12.78 19.66 16.07 16.07 6.52 33.22 9.67 50.19 12.92 20.63 3.49 41.27 7.42 61.19 13.97 16.87 5.44 33.4 12.64 47.65 23.33 11.12 8.29 20.5 19.05 26.61 31.54 7.35 14.96 10.14 31.82 10.05 48.38 0.36 20.06-4.33 40.43-14.81 57.65-13 21.67-34.4 37.18-57.58 46.5-20.37 8.27-42.18 12.54-64.03 14.29-36.73 2.77-74.25-0.42-109.22-12.42-32.26-10.99-62.1-29.67-85.08-54.94l58.19-55.19c12.71 12.3 26.82 23.37 42.69 31.31 17.8 9.21 37.64 14.1 57.58 15.47 16.63 1.18 33.72 0.52 49.68-4.75 9.09-3.15 18.16-8.19 23.37-16.57 4.61-7.19 4.81-16.36 2.76-24.42-2.09-8.19-8.93-14.06-16.16-17.82-12.52-6.51-26.33-9.92-39.95-13.22-21.73-5.04-43.88-8.22-65.27-14.65-19.58-5.78-39.02-13.2-55.72-25.17-13.26-9.49-24.35-22.29-30.65-37.42-7.47-17.73-9.18-37.45-7.57-56.48 1.81-18.66 9.13-36.79 21.12-51.24 10.68-13.03 24.7-23.05 39.89-30.21z"/>
  <path d="m894.01 115.54h132.6c19.53-0.24 39.16 0.215 58.47 3.525 19.91 3.34 39.63 9.39 56.91 20.03 14.85 9.1 27.55 21.94 35.71 37.39 9.94 18.62 13.33 40.15 12.34 61.06-0.82 20.17-6.63 40.49-18.7 56.86-13.29 18.46-33.19 31.05-54.09 39.29l95.01 148.82h-109.46l-76.33-133.72h-39.925v133.72h-92.535zm92.535 73.515v89.96h53.965c10.48-0.18 21.22-1.2 30.94-5.42 7.85-3.3 14.68-9.26 18.52-16.92 3.89-7.71 5.07-16.5 4.95-25.05-0.21-9-2.26-18.31-7.79-25.6-5.2-7.17-13.29-11.68-21.67-14.08-9.38-2.69-19.21-2.97-28.9-2.89z"/>
  <path d="m377.29 301.6 24.798-2.6062c66.554-6.998 132.62-21.168 196.23-42.09l0.5362-0.1351-0.068-0.5791c-3.442-23.03-9.5858-45.636-18.258-67.214l-0.3427-0.8397-0.6911 0.5646c-53.054 42.485-113.56 71.702-179.78 86.795l-23.895 5.4295 23.161-7.9536c66.066-22.678 122.59-68.113 159.13-127.95l0.251-0.3426-0.251-0.333c-13.021-21.37-28.784-41.11-46.78-58.697l-0.9358-0.9218-0.1882 1.2934c-12.278 106.02-102.11 186-208.97 186-53.62 0-104.71-20.183-143.81-56.848-36.442-34.146-59.589-80.144-65.198-129.53l-0.1641-1.332-0.9604 0.9315c-18.031 17.573-33.836 37.317-46.93 58.687l-0.222 0.3572 0.222 0.3185c37.534 61.771 96.013 107.99 164.58 130.11l23.335 7.5289-23.996-4.9903c-68.575-14.281-131.16-43.667-186.1-87.225l-0.7003-0.5598-0.333 0.8205c-8.3059 21.048-14.218 43.064-17.62 65.438l-0.082 0.5739 0.5498 0.1399c64.044 21.163 130.54 35.473 197.59 42.539l24.86 2.6062h-226.26v0.6563c0.111 31.978 5.2413 63.489 15.236 93.594l0.2414 0.7964 0.6853-0.4634c56.684-34.787 118.46-58.71 183.62-70.975l16.221-3.0743-15.507 5.584c-65.333 23.494-121.01 69.368-156.7 129.21l-0.1834 0.3282 0.1834 0.3137c13.345 21.858 29.469 42.018 47.94 59.884l1.0043 0.9749 0.1351-1.3465c10.507-108.2 100.54-189.82 209.37-189.82 53.652 0 104.72 20.208 143.84 56.877 36.78 34.416 59.97 80.892 65.322 130.79l0.1689 1.3223 0.9261-0.9218c18.146-17.877 33.937-37.997 47.017-59.787l0.1545-0.3234-0.1931-0.3861c-35.516-58.397-90.341-103.43-154.39-126.73l-15.492-5.6515 16.177 3.1563c63.976 12.316 124.66 35.829 180.37 69.85l0.6897 0.4392 0.2654-0.7963c9.8214-29.903 14.894-61.182 14.976-92.938v-0.6611zm-76.258-278.92c60.511 0 109.72 49.217 109.72 109.71 0 60.535-49.208 109.76-109.72 109.76-60.487 0-109.73-49.223-109.73-109.76 0-60.497 49.246-109.71 109.73-109.71m0 236.09c88.455 0 160.41-71.949 160.41-160.4 0-20.11-3.7403-39.85-11.129-58.619l-0.097-0.2317-0.1785-0.1351c-45.184-25.762-96.69-39.373-148.98-39.373-52.272 0-103.8 13.609-149.01 39.373l-0.164 0.1351-0.111 0.2317c-7.374 18.755-11.124 38.495-11.124 58.619 0 88.455 71.949 160.4 160.39 160.4m0 320.43c-60.487 0-109.72-49.261-109.72-109.75 0-60.54 49.232-109.79 109.72-109.79 60.511 0 109.72 49.246 109.72 109.79 0 60.487-49.208 109.75-109.72 109.75m0-236.13c-88.445 0-160.39 71.936-160.39 160.36 0 20.275 3.7929 40.097 11.255 58.905l0.068 0.2316 0.2027 0.1255c2.0077 1.1824 4.2085 2.4421 6.7277 3.8417 43.402 23.297 92.567 35.598 142.16 35.598 52.224 0 103.7-13.581 148.82-39.291l0.222-0.1496 0.068-0.1882c7.4709-18.875 11.284-38.73 11.284-59.073 0-88.426-71.955-160.36-160.41-160.36" stroke-width="13.681"/>
  <path d="m1363.8 115.55h115.18l117.49 366.98h-97.99l-14.6-53.475h-128.66l-14.62 53.475h-93.73l116.93-366.98m11.31 240.98h89.4l-44.68-171.48z"/>
 </g>
</svg>
