<svg version="1.1" viewBox="0 0 152.38 127.32" xml:space="preserve" xmlns="http://www.w3.org/2000/svg">
<path d="m26.058 107.26-5.027 15.102h-1.706l-5.027-15.102h1.148l4.732 14.215 4.732-14.215zm40.107-6e-3v12.273c0 2.576-0.243 3.564-0.428 4.086-0.784 2.219-2.9 3.709-5.267 3.709h-0.373c-2.35 0-4.478-1.229-5.384-3.045h1.268c0.844 1.172 2.431 1.955 4.116 1.955h0.373c1.905 0 3.607-1.199 4.239-2.982 0.214-0.607 0.333-1.611 0.359-3.057-1.024 1.48-2.732 2.412-4.599 2.412h-0.373c-2.365 0-4.482-1.492-5.267-3.713-0.183-0.52-0.428-1.508-0.428-4.082 0-2.539 0.229-3.512 0.428-4.076 0.784-2.219 2.901-3.711 5.267-3.711h0.373c1.87 0 3.581 0.934 4.605 2.42v-2.189zm-1.455 11.277c0.246-0.697 0.366-1.914 0.366-3.721 0-2.678-0.275-3.457-0.366-3.713-0.632-1.785-2.334-2.984-4.239-2.984h-0.373c-1.904 0-3.608 1.199-4.238 2.984-0.157 0.445-0.366 1.313-0.366 3.713 0 2.684 0.275 3.463 0.366 3.721 0.63 1.783 2.334 2.984 4.238 2.984h0.373c1.905 1e-3 3.607-1.201 4.239-2.984m15.507 0.094-0.154 0.438c-0.736 2.086-3.039 3.545-5.6 3.545h-0.373c-2.366 0-4.482-1.492-5.267-3.713-0.184-0.52-0.429-1.508-0.429-4.082 0-2.539 0.229-3.512 0.429-4.076 0.784-2.221 2.9-3.711 5.267-3.711h0.373c2.365 0 4.482 1.49 5.266 3.711 0.166 0.467 0.389 1.332 0.424 3.443l0.01 0.555h-10.679v0.078c0 2.684 0.275 3.463 0.367 3.721 0.63 1.783 2.333 2.983 4.238 2.983h0.373c2.072 0 3.995-1.184 4.572-2.816l0.026-0.074h1.157zm-10.365-7.526c-0.129 0.363-0.292 1.01-0.348 2.545h9.544c-0.063-1.746-0.273-2.338-0.347-2.545-0.631-1.785-2.334-2.984-4.238-2.984h-0.373c-1.905 0-3.609 1.199-4.238 2.984m-31.488 7.526-0.153 0.438c-0.737 2.086-3.04 3.545-5.601 3.545h-0.372c-2.366 0-4.482-1.492-5.267-3.713-0.184-0.52-0.428-1.508-0.428-4.082 0-2.539 0.229-3.512 0.428-4.076 0.784-2.221 2.9-3.711 5.267-3.711h0.372c2.367 0 4.483 1.49 5.267 3.711 0.165 0.467 0.389 1.332 0.424 3.443l9e-3 0.555h-10.677v0.078c0 2.684 0.275 3.463 0.365 3.721 0.631 1.783 2.334 2.983 4.239 2.983h0.372c2.074 0 3.996-1.184 4.573-2.816l0.026-0.074h1.156zm-10.366-7.526c-0.129 0.363-0.291 1.01-0.346 2.545h9.543c-0.064-1.746-0.273-2.338-0.346-2.545-0.631-1.785-2.334-2.984-4.24-2.984h-0.372c-1.905 0-3.608 1.199-4.239 2.984m-19.823 2.563c-2.765 0-4.166-0.898-4.166-2.67 0-1.232 0.401-2.873 3.875-2.873h0.442c3.179 0 3.785 1.373 3.865 2.553h1.091c-0.102-1.732-1.093-3.643-4.956-3.643h-0.442c-4.104 0-4.965 2.156-4.965 3.963 0 1.406 0.683 3.76 5.256 3.76 4.027 0 4.57 1.762 4.57 3.484 0 2.174-1.439 3.275-4.276 3.275h-0.729c-2.837 0-4.275-1.102-4.275-3.275h-1.09c0 2.814 1.905 4.367 5.365 4.367h0.728c3.461 0 5.366-1.553 5.366-4.367 1e-3 -3.078-1.85-4.574-5.659-4.574m43.519-11.165h-1.091v2.91h1.091v-1.887zm0 6.647v-1.895h-1.089v15.109h1.09v-13.214zm86.437-6.647h-1.091v2.91h1.09v-2.91zm0 7.12v-2.367h-1.09v15.109h1.09zm-89.903-2.42c-0.451-0.115-0.917-0.174-1.397-0.174h-0.372c-1.868 0-3.578 0.934-4.602 2.418v-2.191h-1.09v15.109h1.09v-7.813c0.015-2.199 0.213-3.023 0.364-3.451 0.631-1.785 2.333-2.982 4.237-2.982h0.372c0.485 0 0.951 0.08 1.397 0.223v-1.139zm98.455 15.402c2.365 0 4.48-1.49 5.265-3.709 0.184-0.52 0.428-1.51 0.428-4.084 0-2.535-0.229-3.508-0.428-4.072-0.784-2.219-2.899-3.709-5.265-3.709h-0.372c-2.365 0-4.48 1.49-5.265 3.709-0.2 0.564-0.429 1.537-0.429 4.072 0 2.574 0.245 3.564 0.428 4.084 0.785 2.219 2.9 3.709 5.266 3.709h0.372m0-14.486c1.904 0 3.606 1.199 4.237 2.984 0.09 0.256 0.365 1.033 0.365 3.709 0 1.807-0.119 3.023-0.365 3.721-0.631 1.783-2.333 2.982-4.237 2.982h-0.372c-1.904 0-3.607-1.199-4.237-2.982-0.091-0.258-0.366-1.035-0.366-3.721 0-2.396 0.209-3.266 0.366-3.709 0.63-1.785 2.333-2.984 4.237-2.984zm-13.6 12.063c-1.024 1.488-2.736 2.424-4.607 2.424h-0.372c-2.365 0-4.481-1.49-5.265-3.711-0.185-0.52-0.429-1.508-0.429-4.082 0-2.537 0.229-3.51 0.429-4.072 0.783-2.221 2.899-3.711 5.265-3.711h0.372c1.871 0 3.583 0.936 4.607 2.424v-6.954h1.089v19.868h-1.089zm-0.369-1.649c0.247-0.697 0.366-1.914 0.366-3.721 0-2.676-0.275-3.455-0.366-3.711-0.63-1.785-2.333-2.982-4.237-2.982h-0.372c-1.905 0-3.606 1.197-4.237 2.982-0.158 0.445-0.366 1.313-0.366 3.711 0 2.684 0.275 3.463 0.366 3.721 0.631 1.783 2.332 2.982 4.237 2.982h0.372c1.904 1e-3 3.607-1.199 4.237-2.982m-12.524 3.828h-1.092l-1e-3 -2.191c-1.018 1.48-2.717 2.414-4.578 2.426l-0.439 2e-3c-3.469 0-5.378-1.555-5.378-4.377v-0.166c0-3.014 1.804-4.418 5.675-4.418h4.719v-2.324c0-2.801-2.436-3.219-3.886-3.219h-0.444c-1.834 0-3.997 0.457-4.199 2.559h-1.096c0.161-2.322 2.067-3.65 5.295-3.65h0.444c3.116 0 4.978 1.609 4.978 4.309zm-1.093-7.632h-4.72c-4.028 0-4.584 1.598-4.584 3.326v0.166c0 2.18 1.443 3.285 4.287 3.285l0.408-2e-3c1.905 0 3.609-1.199 4.239-2.984 0.247-0.697 0.367-1.916 0.367-3.725h2e-3v-0.066zm-17.668 0.074h2.552c1.561-2e-3 3.52-1.031 3.52-3.83 0-2.801-2.499-3.83-4.059-3.832h-5.438c1.168 0.227 4.936 0 4.936 3.832-1e-3 3.83-1.511 3.83-1.511 3.83zm-19.095 7.558h6.519l-6.519-6.789zm6.872-15.22 6.198 7.41v-7.41zm11.942 7.66h-5.534l6.326 7.561h5.911zm-12.294-7.66h-3.266c-1.544 2e-3 -3.484 1.031-3.484 3.832 0 2.799 1.94 3.828 3.484 3.83h3.266c-1.156-0.227-2.086-0.943-2.086-3.83s0.928-3.606 2.086-3.832zm0.329 15.224h3.3c1.559-2e-3 3.519-1.018 3.519-3.781 0-2.764-1.96-3.779-3.52-3.781h-3.299c1.169 0.223 2.108 0.932 2.108 3.781-1e-3 2.85-0.94 3.557-2.108 3.781z"/><path d="m29.479 13.783c-1.979-2.523-5.597-4.161-8.6-4.161-3.002 0-6.754 1.024-6.754 4.845 0 3.206 2.864 4.231 7.439 5.663 6.55 2.115 15.012 4.912 15.012 14.532 0 11.125-8.939 16.105-18.494 16.105-6.892 0-13.852-2.526-18.082-6.962l7.643-7.777c2.32 2.936 6.62 5.119 10.439 5.119 3.549 0 6.688-1.365 6.688-5.255 0-3.685-3.684-4.845-10.031-6.892-6.14-1.978-12.35-5.118-12.35-13.851 0-10.714 9.688-15.149 18.697-15.149 5.457 0 11.6 2.048 15.83 5.937zm16.241 35.755v-48.311h11.735v48.31h-11.735zm48.921-35.755c-1.979-2.523-5.595-4.161-8.597-4.161-3.004 0-6.756 1.024-6.756 4.845 0 3.206 2.865 4.231 7.437 5.663 6.55 2.115 15.013 4.912 15.013 14.532 0 11.125-8.939 16.105-18.491 16.105-6.895 0-13.853-2.526-18.084-6.962l7.642-7.777c2.321 2.936 6.62 5.119 10.442 5.119 3.548 0 6.683-1.365 6.683-5.255 0-3.685-3.681-4.845-10.029-6.892-6.14-1.978-12.349-5.118-12.349-13.851 0-10.714 9.688-15.149 18.697-15.149 5.458 0 11.599 2.048 15.83 5.937zm36.925 37.054c-12.691 0-20.606-7.918-20.606-19.518v-30.092h11.6v29.137c0 5.186 2.525 9.963 9.075 9.963 6.62 0 9.075-4.776 9.075-9.963v-29.137h11.667v30.092c0 11.6-8.188 19.518-20.811 19.518zm-111.54 41.063-7.122-13.083h-2.701v13.083h-7.823v-32.964h12.57c6.333 0 12.617 2.419 12.617 9.963 0 4.423-2.605 7.589-6.843 8.893l8.613 14.108zm-5.633-26.539h-4.237v7.682h3.772c2.561 0 5.77-0.652 5.77-4.004 0-3.073-2.93-3.678-5.305-3.678zm41.202 26.539-2.561-6.473h-12.756l-2.423 6.473h-8.658l13.827-32.964h7.73l13.687 32.964zm-8.847-24.165-4.188 11.313h8.287zm32.729 24.165h-12.29v-32.964h11.92c9.358 0 18.854 3.91 18.854 16.389-1e-3 11.592-9.404 16.575-18.484 16.575zm-0.559-26.166h-3.956v19.276h3.769c5.682 0 10.943-2.327 10.943-9.684 1e-3 -7.405-5.261-9.592-10.756-9.592zm24.304 26.166v-32.964h8.005v32.964zm31.19 0.884c-10.289 0-17.923-7.076-17.923-17.505 0-10.569 7.634-17.228 17.923-17.228 10.336 0 17.973 6.658 17.973 17.228 0 10.429-7.637 17.505-17.973 17.505zm0-27.563c-5.584 0-9.405 4.286-9.405 10.059 0 5.959 3.867 10.243 9.405 10.243 5.54 0 9.455-4.284 9.455-10.243 0-5.773-3.866-10.059-9.455-10.059z" fill="#0065bd"/>
</svg>
