<?xml version="1.0" encoding="UTF-8"?>
<svg id="Layer_1" data-name="Layer 1" version="1.1" viewBox="0 0 1699.8 689.6" xmlns="http://www.w3.org/2000/svg" xmlns:cc="http://creativecommons.org/ns#" xmlns:dc="http://purl.org/dc/elements/1.1/" xmlns:rdf="http://www.w3.org/1999/02/22-rdf-syntax-ns#">
 <metadata id="metadata13">
  <rdf:RDF>
   <cc:Work rdf:about="">
    <dc:format>image/svg+xml</dc:format>
    <dc:type rdf:resource="http://purl.org/dc/dcmitype/StillImage"/>
    <dc:title>thevoice</dc:title>
   </cc:Work>
  </rdf:RDF>
 </metadata>
 <title id="title6">thevoice</title>
 <path id="path8" class="cls-1" d="m0 0v502.8h100l-100 186.8 284.9-186.8h1414.9v-502.8z"/>
 <path id="path8-8" class="cls-1" d="m1456.7 222.4h59.6v35.2h-59.6zm-864.8 0h59.6v35.2h-59.6zm-314.6 127.3h-48.6v-166.7h48.6zm50.7-175.3h-149.7v-35.2h149.7zm76.6 175.3h-48.6v-210.5h48.6zm97.2 0h-48.6v-91.8h-40v-35.2h40v-83.5h48.6zm82.9 0h-48.9v-210.5h48.9zm70.4 0h-63.2v-36.4h63.2zm0-175.3h-63.2v-35.2h63.2zm172 175.3-58.1-210.5h48.3l49.8 210.5zm49.8 0-18.8-76.6 28-133.9h48.3zm147.5-180.4c-13.7 1.5-20.6 8.9-20.6 22.6v105.3c0 14 6.9 21.4 20.6 22.6v34c-46.5-1.5-70.1-22.7-70.1-64.1v-96.1c0-37.5 23.3-57.2 70.1-58.7zm79.6 121.4c0 41.1-23.8 62-71.3 63.1v-34c14.3-0.9 21.5-8.6 21.5-22.6v-105.3c0-14-7.2-21.7-21.5-22.6v-34.6c47.4 0.3 71.3 20.3 71.3 59.9zm82.5 59h-49.8v-210.5h49.8zm101.4-180.1c-12.8 1.5-19.1 8.6-19.1 20.8v109.2c0 11.9 6.3 18.4 19.1 20.2v34c-45.9-1.8-68.6-22.4-68.6-61.7v-100c0-36 22.7-55.1 68.6-57.2zm81.1 123.5c0 39.3-23.9 59.6-71.3 60.8v-34c14.3-0.9 21.5-7.7 21.5-20.2v-28.9h49.8zm0-80.3h-49.8v-22.4c0-13.1-7.2-20.2-21.5-21.1v-34.6c48 0.3 71.3 20 71.3 58.4zm80.6 136.9h-48.9v-210.5h48.9zm70.3 0h-63.2v-36.4h63.2zm0-175.3h-63.2v-35.2h63.2z" fill="#fff"/>
</svg>
