<svg width="800" height="604.82" enable-background="new 0 0 845 650" space="preserve" version="1.1" viewBox="0 0 800 604.82" xmlns="http://www.w3.org/2000/svg">
 <defs>
  <linearGradient id="linearGradient900" x1="383.01" x2="383.01" y1="643.43" y2="7.1518" gradientUnits="userSpaceOnUse">
   <stop stop-color="#ed549b" offset="0"/>
   <stop stop-color="#f48169" offset="1"/>
  </linearGradient>
 </defs>
 <link href="" rel="stylesheet" type="text/css"/>
 <style type="text/css"/>
 <g transform="matrix(.95046 0 0 .95046 -.95107 -6.7994)" fill="url(#linearGradient900)">
  <path d="m583.63 38.079v-5.419c0-2.716-2.201-4.918-4.918-4.918h-67.84c-2.717 0-4.918 2.202-4.918 4.918v5.419c0 2.716 2.201 4.918 4.918 4.918h25.891v72.356c0 2.716 2.203 4.918 4.918 4.918h6.123c2.676-0.055 4.816-2.241 4.816-4.918v-72.457h26.092c2.678 0 4.863-2.14 4.918-4.817z"/>
  <path d="m628.99 26.338c-25.764-0.67-47.193 19.674-47.861 45.438-0.018 0.676-0.021 1.353-8e-3 2.029 0 26.438 21.432 47.87 47.869 47.87s47.869-21.432 47.869-47.87c0.51-25.712-19.922-46.969-45.633-47.478-0.745-0.014-1.492-0.011-2.236 0.011zm0 79.683c-17.291 0.284-31.537-13.502-31.822-30.792-8e-3 -0.475-4e-3 -0.948 0.01-1.423-0.02-17.569 14.207-31.828 31.777-31.848s31.828 14.208 31.848 31.778v0.069c0.502 17.286-13.105 31.705-30.391 32.206-0.474 0.014-0.947 0.017-1.422 0.01z"/>
  <path d="m730.05 27.742h-36.027c-2.717 0-4.918 2.202-4.918 4.918v82.693c0 2.716 2.201 4.917 4.918 4.918h6.121c2.717-1e-3 4.918-2.202 4.918-4.918v-26.292h24.988c16.932 0 30.658-13.727 30.658-30.659s-13.726-30.66-30.658-30.66zm-0.602 46.064h-24.387v-30.91h24.387c8.535-1e-3 15.455 6.917 15.457 15.453 0 8.535-6.918 15.455-15.453 15.456-2e-3 1e-3 -4e-3 1e-3 -4e-3 1e-3z"/>
  <path d="m812.04 27.742h-36.029c-2.715 0-4.916 2.202-4.916 4.918v82.693c0 2.716 2.201 4.917 4.916 4.918h6.123c2.715-1e-3 4.916-2.202 4.916-4.918v-26.292h24.99c16.932 0 30.658-13.727 30.658-30.659s-13.726-30.66-30.658-30.66zm-0.603 46.064h-24.387v-30.91h24.387c8.535-1e-3 15.457 6.917 15.457 15.453 2e-3 8.535-6.918 15.455-15.453 15.456-2e-3 1e-3 -2e-3 1e-3 -4e-3 1e-3z"/>
  <path d="m814.65 364.24c11.086 0.149 19.949 9.257 19.799 20.341-0.023 1.847-0.305 3.681-0.83 5.451-28.996 89.65-125.18 138.82-214.83 109.82-52.113-16.856-92.967-57.709-109.82-109.82-3.162-10.625 2.889-21.801 13.514-24.962 1.738-0.517 3.539-0.796 5.352-0.83z"/>
  <path d="m817.16 318.27c11.084-0.175 19.928-9.301 19.754-20.385-0.025-1.519-0.221-3.029-0.586-4.504-23.666-91.202-116.78-145.95-207.99-122.28-59.932 15.552-106.73 62.354-122.28 122.28-2.66 10.761 3.904 21.642 14.666 24.304 1.473 0.365 2.984 0.561 4.502 0.585z"/>
  <path d="m53.143 364.24c-5.848 0.054-11.382 2.656-15.153 7.126l-10.036 11.44c-4.683 5.62-9.199 11.44-13.548 17.462-4.043 5.318-7.413 11.116-10.035 17.261-2.131 5.159-3.255 10.678-3.312 16.258-0.838 19.041 7.389 37.354 22.179 49.376 14.786 12.109 36.965 18.164 66.537 18.164h215.06c11.085 0 20.071 8.986 20.071 20.071v58.608c-1.155 17.2 4.546 34.158 15.855 47.167 11.223 11.04 26.522 16.928 42.25 16.258 15.725 0.748 31.067-4.983 42.451-15.856 11.562-13.303 17.277-30.703 15.857-48.271v-195.29c0-11.085-8.986-20.071-20.072-20.071z"/>
  <path d="m421.55 318.27c11.085 0 20.072-8.986 20.072-20.071v-217.67c0-48.907-23.651-73.361-70.953-73.361-13.709-0.319-27.062 4.393-37.533 13.247-14.547 13.109-27.975 27.409-40.142 42.752l-184.25 222.79c-6.821 8.737-5.269 21.351 3.469 28.172 3.375 2.636 7.505 4.122 11.785 4.243z"/>
 </g>
</svg>
