<svg enable-background="new 0 0 1000 668.4" version="1.1" viewBox="0 0 1e3 668.4" xml:space="preserve" xmlns="http://www.w3.org/2000/svg">
<path d="m269.8 334.2c0-140 114-253.9 254-253.9s254 114 254 253.9c0 140.1-113.9 254-254 254s-254-114-254-254m254.1 334.2c184.3 0 334.2-150 334.2-334.3 0-184.1-149.9-334.1-334.2-334.1s-334.3 150-334.3 334.2c0 184.3 150 334.2 334.3 334.2z" fill="#1E398D"/><g fill="#fff">
<polyline points="342.8 531.9 360.3 546.4 351.2 582.6 351.4 582.7 379.9 560.3 398.1 571.4 350 603.4 333.4 591.2 342.8 531.9"/>
<polyline points="413.6 578.7 431.7 585.8 412.7 634.4 394.7 627 413.6 578.7"/>
<path d="m435.2 641.7 19 4.8 4.4-7.8 19.8 3.2 0.8 9.1 20.2 2.2-12.1-53.2-23.3-4.8-28.8 46.5m41.1-12.1-11.5-1.9 8.4-15.4 0.1 0.1 3 17.2z"/>
<path d="m533.7 632.2c-9.5-0.6-13.9-5.7-14.5-12.5-1.1-12.6 10.9-17.1 26.7-18.5 21.6-1.9 31.1 2.9 32.7 13.1l-22.3 2.1c-0.1-1.8-1.5-3.3-3.3-3.6-2-0.6-4.1-0.8-6.1-0.5-5.7 0.5-7.5 2.1-7.4 4.1 0.1 1.4 0.8 2.2 2.8 2.3l23.2 1.4c9.8 0.6 16.2 4.5 16.9 12.7 1 11.8-8.1 18.4-29.7 20.2-14.8 1.3-31.1 0.7-32.4-13.6l23.2-2.1c0 1.5 0.9 2.8 2.3 3.3 2.2 0.6 4.4 0.8 6.7 0.5 6-0.5 7.4-2.3 7.2-4.7-0.1-1.4-1.2-2.8-3.8-2.9l-22.2-1.3"/>
<path d="m604.7 643.7 19.3-5.5 0.1-9.2 18.9-6.8 5.7 6.8 18.2-8.4-37-40.3-22 8.6-3.2 54.8m30.3-31.3-11 3.9-0.2-17.5 0.1-0.1 11.1 13.7z"/>
<path d="m676.7 571.1-15 9.7-8.2-11.8s8.8-5.2 22.8-14.6c7.8-5.2 15.3-10.8 22.5-16.9l8.9 13.3-14.9 9.7 20.7 31.3-16.2 11.3-20.6-32"/>
<polyline points="181.1 170.7 1e3 226.9 871.8 526.9 1.1 359.9 181.1 170.7"/>
</g><polyline points="11.6 355 864.4 513.3 984.3 236.7 181.1 176.9 11.6 355" fill="#C3CCDA"/>
<polyline points="0.7 360.8 12.3 355 864.1 513.6 871.8 526.9 0.7 360.8" fill="#A2AAB0"/>
<polyline points="872.8 526.3 865 512.4 984.6 237 999.8 228 872.8 526.3" fill="#89909A"/>
<polyline points="0 359.9 10.6 354.4 180.4 176.5 180.3 170.6 0 359.9" fill="#D3E0E8"/>
<polyline points="181.6 170 182 175.6 984.6 234.8 998.7 226.8 181.6 170" fill="#E1E8F6"/><g fill="#fff">
<path d="m872.4 486c4.3 0.9 7.8-0.7 8.4-2.9s0.6-5-5.6-6.4c0 0-838-143-840.6-143.3s-4.4 0.1-5.4 1.4c-0.9 1.2-2.8 3.2 0.5 4.1 3.2 0.8 842.7 147.1 842.7 147.1"/>
<path d="m900.7 421.8c4.2 0.9 7.8-0.7 8.3-2.9 0.6-2.2 0.4-4-5.7-5.1 0 0-828.6-120.2-831.2-120.5-2.6-0.2-3.7-0.1-5.2 1.6-1 1.2-2.8 2.7 0.5 3.6 3.4 0.8 833.3 123.3 833.3 123.3"/>
<path d="m926.5 362c4.3 0.9 7.6-0.1 8.2-2.4 0.6-2.2-0.3-4.4-5.5-5.3 0 0-817.4-98.9-820-99.2s-4.1 0.3-5.3 1.3c-1.7 1.5-2.8 3.1 0.5 3.7 3.8 0.9 822.1 101.9 822.1 101.9"/>
<path d="m951 305.7c4.8 0.5 7.8-0.7 8.5-2.9 0.6-2.2-1-3.7-6-4.5 0 0-807.5-79.1-810.1-79.4-2.6-0.2-4 0.3-4.9 1.6-1 1.3-2.9 2.8 0.5 3.3 3.5 0.6 812 81.9 812 81.9"/>
<path d="m972.9 252.8c4.1 0.6 8.2 0.3 8.9-1.8 0.6-2.2 0.1-3.3-4-4.3 0 0-798.6-62.6-801.1-62.9-2.6-0.2-4.5 0.1-5.4 1.4-1 1.3-2.5 3 0.9 3.3 3.9 0.3 800.7 64.3 800.7 64.3"/></g><g fill="#0459A9">
<path d="m880.8 483c-0.6 2.2-4.1 3.8-8.4 2.9 0 0-839.5-146.3-842.7-147.1-3.3-0.9-1.4-2.9-0.5-4.1 0 0 0.4 1.5 4.9 2.2 5.8 0.8 828.3 143.8 835.9 145.1 7.8 1.3 10.8 1 10.8 1"/>
<path d="m900.1 418.4c7 1.1 9 0.5 9 0.5-0.6 2.2-4.1 3.8-8.3 2.9 0 0-830-122.5-833.2-123.3-3.2-0.9-1.5-2.4-0.5-3.6 0 0 0.7 1.2 4.7 1.7 3.8 0.5 828.3 121.8 828.3 121.8"/>
<path d="m934.7 359.6c-0.6 2.2-4 3.2-8.2 2.4 0 0-818.3-101-822.2-101.8-3.3-0.6-2.2-2.2-0.5-3.7 0 0 0.7 0.7 3.6 1.3 2.8 0.5 815.5 101 819.6 101.6 5.6 1 7.7 0.2 7.7 0.2"/>
<path d="m138.5 220.5c-1 1.3-2.9 2.8 0.5 3.3 3.5 0.6 812.1 81.9 812.1 81.9 4.8 0.5 7.8-0.7 8.5-2.9-2.5 0.1-5 0-7.5-0.3-5.4-0.5-805.5-80.8-809.1-80.9-3.8-0.2-4.5-1.1-4.5-1.1"/>
<path d="m171.2 185.2c-1 1.3-2.5 3 0.9 3.3 3.9 0.3 800.7 64.4 800.7 64.4 4.1 0.6 8.2 0.3 8.9-1.8-0.1 0-4-0.1-8.6-0.3-4.5-0.2-788.3-63.6-797.8-64.3-1.3-0.4-2.7-0.8-4.1-1.3"/></g><g fill="#000640">
<path d="m89.6 312.5c3.5-3.5 91.5-77.3 92.8-78.6 2-2.1 4.9-3 7.8-2.6 3.9 0.5 92.2 9.6 94.4 9.9 2.3 0.2 13.3 3.9 11.3 12.3-1.2 5-2.1 9.1-8.5 15.1 0 0-69.7 64.4-71.3 65.6s-6.7 4.1-14-1.7c-5.2-4-4.6-9.3-0.5-17.4 4.1-8.2 9.2-11.3 12.7-14.8s35.8-31.2 35.8-31.2l-17.4-2.3s-64.5 57.5-67.2 59.3c-3.6 2.5-7.1 3.6-12.4-0.1-5.2-3.6-4.9-8.2-2.5-14.6 2.5-6.7 8.1-11.6 11.2-14.3 4.8-4.1 39.1-33.6 39.1-33.6l-16.3-2.4s-42.8 37.2-49.3 42.1c-6.4 4.8-24.3 12-30.9 13.5-17 3.6-18.3-0.7-14.8-4.2"/>
<path d="m328.6 250.2c3.6-3.3 8.9-4 13.2-1.7 5.2 2.6 9 5.6 7 13.8s-7.8 12.7-12.3 16.7-36.9 35-36.9 35l52.3 7.7s38-36.3 43-41c5.6-5.1 16.8-14.2 27.2-17.8 16.2-5.5 26.6-4.6 29.4-3.9 2.9 0.8 4.2 2.9 1.4 6-2.8 3.2-87.6 85.8-90.8 88.8s-6.6 5.8-13.6 4.6c-6.9-1.1-79.1-12.1-88-14.3-10.2-2.4-14-9.7-9.8-18.4s11-14.3 14.6-17.9c3.9-3.4 60.6-54.8 63.3-57.6"/>
<path d="m377.5 355.3c1.4-1.8 7.2-6.7 13.9-10.8 5.7-3.5 11.9-6.3 18.3-8.3 10.8-3.1 18.8-4.7 27.2-3.4 8.5 1.3 65.9 9.9 68.9 10.1 2.1 0.2 4.1-0.6 5.6-2 0.9-0.8 2.5-2.5-0.9-3.1-3.5-0.6-54.1-6.7-61-8.5-7-1.8-16.4-6.4-14.2-18.1s15.1-25.3 26.9-32.3 30.9-15.7 47.9-14.2c17 1.6 89.7 9 96.2 9.8 6.5 0.7 5.8 4.9 2.5 7.8-2 1.9-17.9 15.4-33.2 18.9-15.3 3.6-22.5 4-32.9 2.6-10.4-1.3-51.3-5.9-53-6.3-1.5-0.5-3.1-0.1-4.3 0.9-1.9 1.7-3.6 2.8 1.2 3.3 1.6 0.2 55.8 7.1 59.9 7.7s15.7 4.9 17.3 12.2c0.9 4.1 2.2 12.9-6.3 23.4-6 7.4-12.3 14.8-28 23.2-20.1 10.8-42.9 11.8-54.8 10-12-1.9-88.5-13.9-93.5-14.8-10.1-1.7-3.7-8.1-3.7-8.1"/>
<path d="m566 392c8.6 1 23.4 1 37.7-13.3 11-11.1 79.3-87 81-89.3s3.3-7.1-5.8-7.8-27.7 2.2-35.4 6.3-16.3 8.8-23.3 16.2-58.6 62.9-63.4 68.3c-5.1 5.7-5.8 18 9.2 19.6"/>
<path d="m707.3 266.5c6.4-4.9 18.9-16.2 6.5-25.5-9.3-7-32.8-2.1-43 5.1-10.3 7.2-21.6 21.5-8.4 27.2 22.8 10 44.9-6.8 44.9-6.8"/>
<path d="m875.2 302.8c-8.7-1.3-104.9-11.4-113.3-12.1-8.5-0.7-43.8-1.5-63.2 19-19.3 20.5-38.3 42.3-48 52.9-9.8 10.6-21.9 38.9 11.9 44.2 33.7 5.2 113 17.8 120.3 18.9 7.4 1.2 10.9 2.1 13.8-4s9.2-18.5 5.4-25.5c-2.7-5.1-6.2-13.1-26.9-15.8-21.1-2.8-64.5-8.9-67.4-9.4-2.8-0.6-5.4-1.6-2.9-4.5s25.5-30 28.2-33.2c2.8-3.2 6.4-5.8 15.9-4.7s45.2 5.2 59.9 7.1c14.3 1.7 31.2 0.3 44.1-6s24-15.3 26.5-18.4c6.1-7.2-4.3-8.5-4.3-8.5"/></g><g fill="#fff">
<path d="m92.1 310.7c3.2-3.2 88.5-74.6 89.7-75.8s4.5-3.3 8.1-2.8c3.5 0.5 90.4 9.3 92.5 9.6 2 0.2 11.6 4 9.7 11.5-1.1 4.5-1.9 8.2-7.7 13.6 0 0-67.6 62.2-69.1 63.3-1.4 1.1-6.1 3.7-12.6-1.4-4.7-3.7-4.4-5.9-0.7-13.3s11.9-13.7 15-16.8c3.2-3.2 36.5-32.2 36.5-32.2l-22.5-3s-61.3 55.1-63.7 56.7c-3.3 2.2-7.9 5.7-12.7 2.4-4.7-3.3-4.9-6.4-2.8-12.1 2.2-6 10.5-13.5 13.3-15.8 9.1-7.9 12.7-11.2 38.7-33.5l-21.9-2.7s-32.5 28.6-44.4 37.9c-11.8 9.3-27.8 15.5-33.8 16.8-15 3.3-14.8 0.8-11.6-2.4"/>
<path d="m328.8 250.4c3.2-3 8-3.6 11.9-1.6 4.7 2.4 6.5 5.5 4.7 12.9-1.8 7.3-7.7 12.1-11.7 15.8-4 3.6-40 36.6-40 36.6l58.1 8.6s38.4-36.8 43-41c4.9-4.6 17.7-14.8 27-17.9 14.6-4.9 23.4-4.6 25.9-3.9s3.2 1.5 0.7 4.4-85.4 82.1-88.2 84.7c-2.9 2.7-6 5.2-12.2 4.1-6.3-1-77.7-11.5-85.8-13.5-9.2-2.2-12.6-8.7-8.9-16.5s11.6-13.8 18.6-20.8c14.8-13.4 52.4-47.5 56.9-51.9"/>
<path d="m382.1 352.6c1.3-1.7 5.9-5.3 12.2-8.7 6.1-3.2 13.1-6.5 17.7-7.8 10-2.7 16-3.8 23.7-2.6 7.6 1.2 68.7 10 71.3 10.2 4.3 0.6 8.2-6.2 9-7 0.8-0.7 0.5-3.5-2.6-4s-56.9-7.2-63.2-8.9c-6.3-1.6-15.2-3.9-13.2-14.4s17-25 27.6-31.4c10.6-6.3 30.1-14.1 45.4-12.7 15.2 1.4 86.7 8.7 92.6 9.4 5.9 0.6 4.2 2.8 1.3 5.5-1.8 1.7-20.7 13.3-34.5 16.5-13.8 3.3-24.6 2.4-34 1.3-9.4-1.2-43.5-5.1-45-5.5-1.6-0.3-5.5-0.3-6.5 0.6-1.7 1.5-8.4 8.2-4.1 8.7 1.4 0.1 53 7.2 56.8 7.6 8.1 0.9 20.7 3.6 22.6 10 1 3.7 3 8.7-4.6 18.2-5.3 6.6-13.4 16.3-27.5 23.9-18.2 9.7-40.1 11.3-50.9 9.7-10.8-1.7-85.1-12.5-89.6-13.4-9.2-1.6-4.5-5.2-4.5-5.2"/>
<path d="m567 386.2c7.8 0.8 21.4 0.5 34.2-12.5 9.9-10 75.6-82.9 77.1-85.1 1.6-2.1 5.3-5.9-2.8-6.5-8.2-0.6-25.3 2.2-32.3 5.9s-14.3 7.7-20.7 14.4c-6.3 6.7-58.4 62-63.7 68.3-4.3 5.3-5.3 14 8.2 15.5"/>
<path d="m703.6 262.9c5.8-4.4 17.6-13 6.4-21.3-8.3-6.2-28.5-2-37.8 4.5-9.2 6.5-20.1 18.6-8.2 23.8 20.7 8.9 39.6-7 39.6-7"/>
<path d="m870.4 302.7c-7.8-1.2-104.1-10.5-111.7-11.1-7.7-0.6-40.3-1.2-59.8 19.2-17.5 18.4-35.1 39.6-43.9 49.2-8.8 9.5-25.4 36.8 4.9 41.4 30.3 4.7 113.9 17.5 120.6 18.5s9.8 1.9 12.4-3.6 7.5-15.6 4-22c-2.5-4.5-4.9-10.6-23.6-13-18.9-2.5-70.1-9.8-72.7-10.3-2.5-0.5-4.3-2.4-2-5 2.3-2.7 29.9-35.3 32.3-38.2s5.8-5.1 14.4-4.2c8.6 1 43.3 4.9 56.6 6.6 12.8 1.6 36.7 0.7 48.3-4.9s22.5-12.9 24.7-15.8c5.5-6.5-4.5-6.8-4.5-6.8"/></g><g fill="#0459A9">
<path d="m96.9 310c4-3.7 83.9-71.1 85-72.3 1.9-2 4.6-3 7.3-2.6 3.5 0.5 90.4 9.4 92.4 9.6 2.1 0.2 12.2 1 10.4 8.5-1.1 4.5-1.9 8.2-7.7 13.6 0 0-67.6 62.2-69.1 63.3-1.4 1.1-6.1 3.7-12.6-1.4-4.7-3.7-0.6-9.3 1.9-13.1 4.4-6.6 10.9-11.7 14.1-14.9 2.8-2.8 29.6-26.5 36.5-32.3 1.8-1.6-0.4-1.7-0.4-1.7l-23.8-3.3s-61.3 55.1-63.7 56.7c-3.3 2.2-7 6.4-12.7 2.4-3.6-2.6-1.9-6.1 0.1-11.8 1.6-4.4 9.7-11.3 12.5-13.7 9-7.8 26.1-22.8 38.5-33.4 2.1-1.8-1.4-2.2-1.4-2.2l-22.3-3s-32.5 28.6-44.4 37.9c-11.8 9.3-27.8 15.5-33.8 16.8-15 3.3-10.1-0.1-6.8-3.1"/>
<path d="m329.7 253.9c2.5-2.5 5.9-5.3 10.6-3s6.9 3.5 5.1 10.9c-1.8 7.3-7.7 12.1-11.7 15.8-3.5 3.1-31.9 29.6-40 37.1-1.4 1.3 0.5 2.4 0.5 2.4l56.2 9s3.4-0.1 4.4-1.2c7.1-7.6 38.5-38.3 42.6-41.9 5-4.6 16.7-14.2 26-17.3 14.6-4.9 21.6-5.1 24.2-4.9 2.6 0.3 3.6 0.6 1 3.5-2.5 2.9-85.4 82.1-88.2 84.7-2.9 2.7-6 5.2-12.2 4.1-6.3-1-77.7-11.5-85.8-13.5-9.2-2.2-10.2-7.4-6.4-15.2 3.8-7.7 12.8-14 19.8-20.9 14.5-13.3 49.3-45.2 53.9-49.6"/>
<path d="m385.7 353.5c8.7-6.5 18.5-11.4 29-14.4 10.1-2.6 14.2-3.4 21.7-2.2 7.7 1.2 69.1 9.8 71.7 10 6.1 0.3 11.7-8.6 12.2-9.5 1.8-4-3.8-4.1-6.9-4.6s-56.9-7.2-63.2-8.9c-6.3-1.6-12-4.3-10-14.8 1.8-9.4 15.9-22.5 26.5-28.9s28.4-13.2 43.7-11.7c15.2 1.4 82.5 7.8 88.4 8.5 5.9 0.6 8.1 0.6 5.2 3.3-1.8 1.7-20.7 13.3-34.5 16.5-13.8 3.3-24.6 2.4-34 1.3-9.4-1.2-41.9-4.8-43.4-5.2-1.6-0.3-6.1-0.5-7.1 0.4-1.7 1.6-13.2 10.2-7.3 11.4 1.4 0.3 54.6 6.9 58.3 7.4s19.6 2.8 22.3 8.6c1.6 3.6 4 7.5-3.6 17-5.3 6.6-13.4 16.3-27.5 23.9-18.2 9.7-40.1 11.3-50.9 9.7-10.8-1.7-85.1-12.5-89.6-13.4-6.4-0.7-2.5-3.1-1-4.4"/>
<path d="m567 386.2c7.8 0.8 21.4 0.5 34.2-12.5 9.9-10 74.8-81.5 76.3-83.6s4.6-5.2-3.6-5.8-21.6 2.6-28.5 6.3c-7.4 3.8-14.1 8.8-19.8 14.9-6.3 6.7-57.7 61-63 67.3-4.4 5.4-9.1 11.9 4.4 13.4"/>
<path d="m703.6 262.9c5.8-4.4 17.6-13.5 7.7-21.2-5.3-4.1-26.6-0.6-35.8 5.9-9.3 6.6-18.6 18.5-10.1 22.4 19.3 8.8 38.2-7.1 38.2-7.1"/>
<path d="m862.3 304.7c-7.8-1.1-95.3-9-102.9-9.7-12-1-40.1 0.3-57.5 18.8s-33.1 36.8-41.4 46.7c-11.2 13.3-23.1 37.3-0.6 40.9 30.3 4.9 113.9 17.5 120.6 18.5s9.8 1.9 12.4-3.6 7.5-15.6 4-22c-2.5-4.5-6.5-7.8-25.2-10.2-19-2.5-70.1-10.4-72.7-10.9-2.5-0.5-4-2.6-1.7-5.3s31.2-37.3 33.7-40.2 5.8-5.1 14.4-4.2c8.6 1 43.3 4.9 56.6 6.6 12.8 1.6 36.7 0.7 48.3-4.9s22.5-12.9 24.7-15.8c3.6-4-12.7-4.7-12.7-4.7"/>
</g></svg>
