<?xml version="1.0" encoding="UTF-8"?>
<!-- Generator: Adobe Illustrator 16.0.0, SVG Export Plug-In . SVG Version: 6.00 Build 0)  -->
<svg id="Layer_1" width="820.3" height="228.54" enable-background="new 0 0 1206.125 595.28" version="1.1" viewBox="0 0 820.3 228.54" xml:space="preserve" xmlns="http://www.w3.org/2000/svg" xmlns:cc="http://creativecommons.org/ns#" xmlns:dc="http://purl.org/dc/elements/1.1/" xmlns:rdf="http://www.w3.org/1999/02/22-rdf-syntax-ns#" xmlns:xlink="http://www.w3.org/1999/xlink"><metadata id="metadata75"><rdf:RDF><cc:Work rdf:about=""><dc:format>image/svg+xml</dc:format><dc:type rdf:resource="http://purl.org/dc/dcmitype/StillImage"/><dc:title/></cc:Work></rdf:RDF></metadata><g id="g40" transform="translate(-166.13 -28.544)" fill="#008b95"><g id="g18"><defs id="defs5"><rect id="SVGID_1_" x="166.12" y="28.544" width="228.55" height="228.54"/></defs><clipPath id="SVGID_2_"><use id="use7" width="100%" height="100%" overflow="visible" xlink:href="#SVGID_1_"/></clipPath><path id="path10" d="m394.67 39.143v207.34c0 5.661-4.894 10.606-10.265 10.606h-207.55c-5.832 0-10.73-4.945-10.73-10.606v-207.34c0-5.884 4.898-10.599 10.73-10.599h207.55c5.371 0 10.265 4.715 10.265 10.599" clip-path="url(#SVGID_2_)" fill="#008b95"/><path id="path12" d="m259.71 115.3c0-2.823-1.831-4.644-4.651-4.644h-3.683c-3.191 0-4.625 1.589-5.704 6.33l-10.422 45.284h-2.32c-3.514 0-4.985-0.884-6.229-5.843l-10.412-39.478-0.116-0.432c-0.794-3.018-1.544-5.861-5.14-5.861h-3.901c-3.141 0-4.869 1.647-4.869 4.644 0 1.822 0.495 4.532 1.557 8.56l11.065 39.463c1.983 7.447 6.024 10.63 13.5 10.63h4.438c-0.468 2.478-1.47 7.582-2.096 9.52-2.029 6.317-5.172 7.643-10.586 7.643-4.47 0-7.403-0.345-9.544-0.595-1.287-0.147-2.313-0.271-3.254-0.271-2.543 0-3.996 1.536-3.996 4.214v2.602c0 2.975 1.528 3.886 3.073 4.543 2.635 1.195 5.945 1.842 15.889 1.842 9.975 0 17.378-5.346 19.792-14.316 4.383-16.273 16.152-65.692 16.268-66.173-1e-3 -2e-3 1.341-5.229 1.341-7.662" clip-path="url(#SVGID_2_)" fill="#fff"/><path id="path14" d="m289.21 87.545c0-5.102-0.526-10.073-6.821-10.073h-9.323c-1.683 0-6.167 0-6.167 4.43v4.125c0 1.735 0.858 4.643 6.595 4.643h2.294v77.557c0 4.142 0.845 6.382 5.295 6.382h3.038c4.223 0 5.088-2.549 5.088-6.382v-80.682z" clip-path="url(#SVGID_2_)" fill="#fff"/><path id="path16" d="m359.4 138.71c0-12.667-2.912-29.787-26.259-29.787-19.564 0-28.288 10.67-28.288 34.583 0 23.307 8.14 31.972 30.024 31.972 9.765 0 16.178-1.336 18.68-2.482 1.57-0.666 3.099-1.562 3.099-4.556v-2.378c0-2.684-1.454-4.215-3.995-4.215-0.892 0-1.803 0.179-2.952 0.405-2.248 0.442-5.643 1.113-12.232 1.113-16.421 0-18.475-2.963-18.946-16.519h31.016c7.472 0 9.853-3.251 9.853-8.136m-12.338-2.813-28.274 0.023c0.426-11.647 4.857-16.632 14.586-16.638 9.585-2e-3 13.404 5.669 13.688 16.615" clip-path="url(#SVGID_2_)" fill="#fff"/></g><g id="g38"><path id="path20" d="m439.67 104.73h10.898v40.279c15.599-14.637 24.467-27.031 32.693-40.279h12.18c-10.043 16.347-19.125 27.352-28.634 37.608l29.488 38.57h-13.782l-23.292-31.625-8.653 8.867v22.758h-10.898z"/><path id="path22" d="m506.8 180.9v-76.178h10.685v66.563h35.578v9.615z"/><path id="path24" d="m608.65 159.54h-30.984l-7.266 21.368h-10.791l27.031-76.499h15.172l25.962 76.499h-11.432zm-14.744-46.584-13.035 37.288h25.107z"/><path id="path26" d="m660.71 148.74-6.411-3.098c-8.868-4.274-17.735-8.654-17.735-21.475 0-12.607 11.752-20.514 28.74-20.514 13.782 0 19.766 2.244 19.766 2.244l-1.816 8.761s-9.829-2.03-18.27-2.03c-10.791 0-17.522 4.915-17.522 11.646 0 7.372 6.838 9.83 15.92 14.21l6.624 3.206c7.479 3.632 16.026 8.654 16.026 20.193 0 13.462-12.394 20.086-27.993 20.086-12.286 0-21.582-2.457-21.582-2.457l1.068-8.762s11.753 2.137 21.048 2.137c9.723 0 16.668-2.777 16.668-11.218-1e-3 -6.304-6.732-9.189-14.531-12.929z"/><path id="path28" d="m718.71 148.74-6.411-3.098c-8.868-4.274-17.735-8.654-17.735-21.475 0-12.607 11.752-20.514 28.74-20.514 13.782 0 19.766 2.244 19.766 2.244l-1.816 8.761s-9.829-2.03-18.27-2.03c-10.791 0-17.522 4.915-17.522 11.646 0 7.372 6.838 9.83 15.92 14.21l6.624 3.206c7.479 3.632 16.026 8.654 16.026 20.193 0 13.462-12.394 20.086-27.993 20.086-12.286 0-21.582-2.457-21.582-2.457l1.068-8.762s11.753 2.137 21.048 2.137c9.723 0 16.668-2.777 16.668-11.218-1e-3 -6.304-6.732-9.189-14.531-12.929z"/><path id="path30" d="m755.67 104.73h10.685v76.178h-10.685z"/><path id="path32" d="m793.34 180.9h-10.149v-76.178h9.723l42.736 56.199v-56.199h10.257v76.178h-7.052l-45.515-58.549z"/><path id="path34" d="m862.68 180.9v-76.178h48.506v9.188h-38.143v24.68h33.229v8.761h-33.229v24.36h39.211v9.188h-49.574z"/><path id="path36" d="m933.86 180.9h-10.149v-76.178h9.723l42.736 56.199v-56.199h10.257v76.178h-7.052l-45.515-58.549z"/></g></g></svg>
