<?xml version="1.0" encoding="UTF-8"?>
<!-- Generator: Adobe Illustrator 16.0.0, SVG Export Plug-In . SVG Version: 6.00 Build 0)  -->
<svg id="Layer_1" width="673.67" height="228.54" enable-background="new 0 0 900.5 595.28" version="1.1" viewBox="0 0 673.67 228.54" xml:space="preserve" xmlns="http://www.w3.org/2000/svg" xmlns:cc="http://creativecommons.org/ns#" xmlns:dc="http://purl.org/dc/elements/1.1/" xmlns:rdf="http://www.w3.org/1999/02/22-rdf-syntax-ns#" xmlns:xlink="http://www.w3.org/1999/xlink"><metadata id="metadata59"><rdf:RDF><cc:Work rdf:about=""><dc:format>image/svg+xml</dc:format><dc:type rdf:resource="http://purl.org/dc/dcmitype/StillImage"/><dc:title/></cc:Work></rdf:RDF></metadata><g id="g32" transform="translate(-166.13 -28.544)"><g id="g18"><defs id="defs5"><rect id="SVGID_1_" x="166.12" y="28.544" width="228.55" height="228.54"/></defs><clipPath id="SVGID_2_"><use id="use7" width="100%" height="100%" overflow="visible" xlink:href="#SVGID_1_"/></clipPath><path id="path10" d="m394.67 39.143v207.34c0 5.661-4.894 10.606-10.265 10.606h-207.55c-5.832 0-10.73-4.945-10.73-10.606v-207.34c0-5.884 4.898-10.599 10.73-10.599h207.55c5.371 0 10.265 4.715 10.265 10.599" clip-path="url(#SVGID_2_)" fill="#010202"/><path id="path12" d="m259.71 115.3c0-2.823-1.831-4.644-4.651-4.644h-3.683c-3.191 0-4.625 1.589-5.704 6.33l-10.422 45.284h-2.32c-3.514 0-4.985-0.884-6.229-5.843l-10.412-39.478-0.116-0.432c-0.794-3.018-1.544-5.861-5.14-5.861h-3.901c-3.141 0-4.869 1.647-4.869 4.644 0 1.822 0.495 4.532 1.557 8.56l11.065 39.463c1.983 7.447 6.024 10.63 13.5 10.63h4.438c-0.468 2.478-1.47 7.582-2.096 9.52-2.029 6.317-5.172 7.643-10.586 7.643-4.47 0-7.403-0.345-9.544-0.595-1.287-0.147-2.313-0.271-3.254-0.271-2.543 0-3.996 1.536-3.996 4.214v2.602c0 2.975 1.528 3.886 3.073 4.543 2.635 1.195 5.945 1.842 15.889 1.842 9.975 0 17.378-5.346 19.792-14.316 4.383-16.273 16.152-65.692 16.268-66.173-1e-3 -2e-3 1.341-5.229 1.341-7.662" clip-path="url(#SVGID_2_)" fill="#fff"/><path id="path14" d="m289.21 87.545c0-5.102-0.526-10.073-6.821-10.073h-9.323c-1.683 0-6.167 0-6.167 4.43v4.125c0 1.735 0.858 4.643 6.595 4.643h2.294v77.557c0 4.142 0.845 6.382 5.295 6.382h3.038c4.223 0 5.088-2.549 5.088-6.382v-80.682z" clip-path="url(#SVGID_2_)" fill="#fff"/><path id="path16" d="m359.4 138.71c0-12.667-2.912-29.787-26.259-29.787-19.564 0-28.288 10.67-28.288 34.583 0 23.307 8.14 31.972 30.024 31.972 9.765 0 16.178-1.336 18.68-2.482 1.57-0.666 3.099-1.562 3.099-4.556v-2.378c0-2.684-1.454-4.215-3.995-4.215-0.892 0-1.803 0.179-2.952 0.405-2.248 0.442-5.643 1.113-12.232 1.113-16.421 0-18.475-2.963-18.946-16.519h31.016c7.472 0 9.853-3.251 9.853-8.136m-12.338-2.813-28.274 0.023c0.426-11.647 4.857-16.632 14.586-16.638 9.585-2e-3 13.404 5.669 13.688 16.615" clip-path="url(#SVGID_2_)" fill="#fff"/></g><g id="g30" fill="#010202"><path id="path20" d="m442.77 104.76h13.462l24.039 60.686 23.185-60.686h12.929l3.205 76.178h-10.577l-2.03-58.229-22.971 58.122h-8.334l-23.612-58.122-1.923 58.229h-10.471z"/><path id="path22" d="m531.76 144.18c0-25.962 14.21-41.027 38.57-41.027 19.552 0 32.8 13.035 32.8 36.327 0 28.313-12.928 42.523-38.355 42.523-21.156-1e-3 -33.015-14.745-33.015-37.823zm60.045-3.098c0-17.95-6.41-28.634-22.65-28.634-16.987 0-26.069 10.043-26.069 30.343 0 19.445 7.266 30.344 23.719 30.344 16.88 0 25-12.074 25-32.053z"/><path id="path24" d="m627.26 180.94h-10.149v-76.178h9.723l42.736 56.199v-56.199h10.257v76.178h-7.052l-45.515-58.549z"/><path id="path26" d="m696.6 106.04s6.731-2.35 24.895-2.35c21.902 0 36.86 9.295 36.86 33.655 0 31.092-14.638 44.66-38.998 44.66-14.53 0-22.757-2.137-22.757-2.137zm10.684 66.135s3.739 1.069 13.142 1.069c16.025 0 26.924-9.296 26.924-35.472 0-19.445-11.646-25.429-25.963-25.429-9.937 0-14.103 1.282-14.103 1.282z"/><path id="path28" d="m768.43 144.18c0-25.962 14.21-41.027 38.57-41.027 19.552 0 32.8 13.035 32.8 36.327 0 28.313-12.928 42.523-38.355 42.523-21.156-1e-3 -33.015-14.745-33.015-37.823zm60.045-3.098c0-17.95-6.41-28.634-22.65-28.634-16.987 0-26.069 10.043-26.069 30.343 0 19.445 7.266 30.344 23.719 30.344 16.88 0 25-12.074 25-32.053z"/></g></g></svg>
