<svg enable-background="new 0 0 841.89 595.28" version="1.1" viewBox="0 0 549.84 228.54" xml:space="preserve" xmlns="http://www.w3.org/2000/svg" xmlns:xlink="http://www.w3.org/1999/xlink"><g transform="translate(-166.13 -28.544)"><defs><rect id="b" x="166.12" y="28.544" width="228.55" height="228.54"/></defs><clipPath id="a"><use width="100%" height="100%" overflow="visible" xlink:href="#b"/></clipPath><path d="m394.67 39.143v207.34c0 5.661-4.894 10.606-10.265 10.606h-207.55c-5.832 0-10.73-4.945-10.73-10.606v-207.34c0-5.884 4.898-10.599 10.73-10.599h207.55c5.371 0 10.265 4.715 10.265 10.599" clip-path="url(#a)"/><path d="m259.71 115.3c0-2.823-1.831-4.644-4.651-4.644h-3.683c-3.191 0-4.625 1.589-5.704 6.33l-10.422 45.284h-2.32c-3.514 0-4.985-0.884-6.229-5.843l-10.412-39.478-0.116-0.432c-0.794-3.018-1.544-5.861-5.14-5.861h-3.901c-3.141 0-4.869 1.647-4.869 4.644 0 1.822 0.495 4.532 1.557 8.56l11.065 39.463c1.983 7.447 6.024 10.63 13.5 10.63h4.438c-0.468 2.478-1.47 7.582-2.096 9.52-2.029 6.317-5.172 7.643-10.586 7.643-4.47 0-7.403-0.345-9.544-0.595-1.287-0.147-2.313-0.271-3.254-0.271-2.543 0-3.996 1.536-3.996 4.214v2.602c0 2.975 1.528 3.886 3.073 4.543 2.635 1.195 5.945 1.842 15.889 1.842 9.975 0 17.378-5.346 19.792-14.316 4.383-16.273 16.152-65.692 16.268-66.173-1e-3 -2e-3 1.341-5.229 1.341-7.662" clip-path="url(#a)" fill="#fff"/><path d="m289.21 87.545c0-5.102-0.526-10.073-6.821-10.073h-9.323c-1.683 0-6.167 0-6.167 4.43v4.125c0 1.735 0.858 4.643 6.595 4.643h2.294v77.557c0 4.142 0.845 6.382 5.295 6.382h3.038c4.223 0 5.088-2.549 5.088-6.382v-80.682z" clip-path="url(#a)" fill="#fff"/><path d="m359.4 138.71c0-12.667-2.912-29.787-26.259-29.787-19.564 0-28.288 10.67-28.288 34.583 0 23.307 8.14 31.972 30.024 31.972 9.765 0 16.178-1.336 18.68-2.482 1.57-0.666 3.099-1.562 3.099-4.556v-2.378c0-2.684-1.454-4.215-3.995-4.215-0.892 0-1.803 0.179-2.952 0.405-2.248 0.442-5.643 1.113-12.232 1.113-16.421 0-18.475-2.963-18.946-16.519h31.016c7.472 0 9.853-3.251 9.853-8.136m-12.338-2.813-28.274 0.023c0.426-11.647 4.857-16.632 14.586-16.638 9.585-2e-3 13.404 5.669 13.688 16.615" clip-path="url(#a)" fill="#fff"/><g fill="#010202"><path d="m449.82 154.41v26.283h-10.15v-73.721s9.616-3.098 27.352-3.098c17.949 0 28.1 6.304 28.1 22.864 0 16.773-11.111 28.527-30.877 28.527-8.655 1e-3 -14.425-0.855-14.425-0.855zm0-8.867s6.73 1.068 12.073 1.068c16.987 0 22.437-8.441 22.437-19.125 0-10.364-5.449-14.745-17.202-14.745-10.577 0-17.308 1.496-17.308 1.496z"/><path d="m560.38 174.39c-6.304 3.312-16.24 7.372-27.138 7.372-20.086 0-28.1-7.372-28.1-30.344v-46.903h10.898v45.834c0 16.775 4.273 22.224 17.095 22.224 12.714 0 23.719-6.838 23.719-6.838v-61.22h10.149v63.143l6.518 8.762-7.692 5.342z"/><path d="m638.98 104.51h10.685v76.178h-10.685v-32.48h-43.271v32.48h-10.685v-76.178h10.685v34.083h43.271z"/><path d="m666.39 180.69v-76.178h48.506v9.188h-38.143v24.68h33.229v8.761h-33.229v24.36h39.211v9.188h-49.574z"/></g></g></svg>
