<svg id="a" version="1.1" viewBox="0 0 800 800" xml:space="preserve" xmlns="http://www.w3.org/2000/svg">
<g id="b" transform="matrix(4.7847 0 0 4.7847 -1024.6 -1612.9)"><path id="c" transform="matrix(.1884 -.9821 .9821 .1884 -171.52 633.81)" d="m381.3 420.7a83.6 83.6 0 0 1-83.6 83.6 83.6 83.6 0 0 1-83.6-83.6 83.6 83.6 0 0 1 83.6-83.6 83.6 83.6 0 0 1 83.6 83.6z" fill="#00b8f1"/><g id="d" fill="#fff"><path id="e" d="m348.2 446.9c-2.9-3.1-7.4-9.3-7.4-9.3 4-1.1 7.6-3.2 10.5-6 4.6-4.6 7.1-11 7.1-18 0.1-7.2-3.1-13.7-8.1-17.8s-11.4-6-18.1-6h-11.8c-11.1 0-20.1 9-20.1 20.1v49.6h13.4v-14.1c0-3.6 3.1-6.7 6.7-6.7h5.3l14.4 17.6 1 1.2c1.1 1 2.5 1.7 4.1 1.9h8.8v-10.8c-0.1 0-3.4 0.9-5.8-1.7zm-15-21.6h-13c-2.4 0-4.6 1-6.7 1.7v-17.1c0-3.6 3.1-6.7 6.7-6.7h11.8c4.2 0 7.5 1.2 9.6 3 2 1.8 3.2 3.9 3.3 7.5 0 3.9-1.3 6.6-3.1 8.5-1.9 1.8-4.7 3.1-8.6 3.1z"/><path id="f" d="m290.7 412.7"/><path id="g" d="m291.4 391.9h-13.2v21.7c-0.3 8.1-7.8 10.7-13.8 10.8-6.9-0.1-14.1-3.9-14.1-14.4v-18h-13.1v18c0 8.2 2.8 15.2 8.2 20.2 4.8 4.6 11.5 7.1 18.7 7.2h0.6c4.9-0.1 12-3.3 13.4-6.1v6c0 7.9-10.1 13.1-12.8 14.4l0.2 0.2c-0.1 0-0.1 0.1-0.2 0.1l8.4 10.2c4.9-2.8 17.7-8.5 17.7-26.4z"/></g></g></svg>
