<svg width="800" height="673.3" version="1.1" viewBox="0 0 211.67 178.15" xmlns="http://www.w3.org/2000/svg">
 <defs>
  <linearGradient id="linearGradient334" x2="1" gradientTransform="matrix(5.4888 25.823 25.823 -5.4888 47.827 63.751)" gradientUnits="userSpaceOnUse">
   <stop stop-color="#f1f1f4" offset="0"/>
   <stop stop-color="#f1f1f4" offset=".27962"/>
   <stop stop-color="#b7b7b7" offset=".68635"/>
   <stop stop-color="#484545" offset="1"/>
  </linearGradient>
  <linearGradient id="linearGradient4842" x2="1" gradientTransform="matrix(-34.608 -42.392 -42.392 34.608 182.27 86.681)" gradientUnits="userSpaceOnUse">
   <stop stop-color="#f1f1f4" offset="0"/>
   <stop stop-color="#b7b7b7" offset=".17148"/>
   <stop stop-color="#484545" offset=".57082"/>
   <stop stop-color="#484545" offset=".71524"/>
   <stop stop-color="#484545" offset="1"/>
  </linearGradient>
  <filter id="filter6829" x="-.045012" y="-.04226" width="1.09" height="1.0845" color-interpolation-filters="sRGB">
   <feGaussianBlur stdDeviation="1.2597682"/>
  </filter>
  <linearGradient id="linearGradient1316" x2="1" gradientTransform="matrix(96.415 137.7 -137.7 96.415 40.179 20.288)" gradientUnits="userSpaceOnUse">
   <stop stop-color="#a13c8f" offset="0"/>
   <stop stop-color="#a13c8f" offset=".022528"/>
   <stop stop-color="#8c2484" offset=".68904"/>
   <stop stop-color="#861e82" offset="1"/>
  </linearGradient>
  <linearGradient id="linearGradient300-9" x2="1" gradientTransform="matrix(-32.805 -14.606 -14.606 32.805 110.61 87.725)" gradientUnits="userSpaceOnUse">
   <stop stop-color="#f1f1f4" offset="0"/>
   <stop stop-color="#f1f1f4" offset=".10034"/>
   <stop stop-color="#b7b7b7" offset=".30878"/>
   <stop stop-color="#484545" offset="1"/>
  </linearGradient>
  <linearGradient id="linearGradient1246" x1="168.99" x2="163.13" y1="128.49" y2="138.61" gradientTransform="matrix(3.7794 0 0 3.7794 .0072736 0)" gradientUnits="userSpaceOnUse">
   <stop stop-color="#aa8bad" offset="0"/>
   <stop stop-color="#ac8dae" stop-opacity="0" offset="1"/>
  </linearGradient>
 </defs>
 <path d="m178.17 89.071c0 49.184-39.877 89.075-89.084 89.075-49.204 0-89.089-39.891-89.089-89.075 0-49.2 39.885-89.071 89.089-89.071 49.208 0 89.084 39.871 89.084 89.071" fill="#f1f1f4"/>
 <path transform="matrix(.26459 0 0 .26459 -.0019245 0)" d="m589.97 473.5v84.914c22.135-25.253 40.551-53.84 54.398-84.914h-54.398z" fill="url(#linearGradient1246)" stroke-width="3.7794"/>
 <path d="m88.383 173.17c32.565 0 60.791-18.507 74.75-45.564-17.462-4.1075-30.446-19.78-30.446-38.47 0-18.702 12.983-34.357 30.446-38.47-13.96-27.063-42.186-45.559-74.75-45.559-46.413 0-84.048 37.605-84.048 84.03 0 46.416 37.634 84.034 84.048 84.034z" fill="url(#linearGradient1316)"/>
 <path d="m172.18 115.05c14.334 0 25.979-11.626 25.979-25.96 0-14.364-11.645-25.973-25.979-25.973-14.363 0-25.976 11.609-25.976 25.973 0 14.334 11.613 25.96 25.976 25.96z" fill="url(#linearGradient1316)" stop-color="#000000" style="-inkscape-stroke:none;font-variation-settings:normal"/>
 <path transform="matrix(.43246 0 0 -.43246 67.903 83.841)" d="m0 0c5.239 7.364 8.256 16.375 8.256 26.062 0 25.072-20.33 45.398-45.444 45.398-25.036 0-45.357-20.275-45.399-45.316h31.411c0.042 7.682 6.307 13.951 13.988 13.951 7.773 0 14.034-6.306 14.034-14.033 0-7.535-5.952-13.689-13.427-13.993v-31.406c16.821 0 30.473-13.606 30.473-30.477 0-16.807-13.652-30.468-30.473-30.468-16.816 0-30.422 13.615-30.505 30.551l-30.697-8.528c4.075-30.127 29.952-53.351 61.202-53.351 34.13 0 61.773 27.676 61.773 61.796 0 20.445-9.889 38.549-25.192 49.814" fill="#6f2779" filter="url(#filter6829)" style="mix-blend-mode:normal"/>
 <path transform="matrix(.43246 0 0 -.43246 108.28 118.56)" d="m0 0c-16.816 0-30.478 13.661-30.478 30.468 0 16.871 13.662 30.476 30.478 30.476 16.77 0 30.458-13.605 30.458-30.476 0-16.807-13.688-30.468-30.458-30.468m1.692 92.25 36.015 59.492h-36.765l-53.323-88.461c-5.993-9.466-9.43-20.735-9.43-32.813 0-34.12 27.677-61.796 61.811-61.796 34.166 0 61.837 27.676 61.837 61.796 0 33.558-26.77 60.871-60.145 61.782" fill="#6f2779" filter="url(#filter6829)" style="mix-blend-mode:normal"/>
 <path transform="translate(13.063,-34.149)" d="m162.8 87.221c-21.835 0-39.497 17.68-39.497 39.477 0 13.21 6.4618 24.893 16.399 32.066l7e-3 -6e-3 8.7736-10.407c-7.0147-4.6522-11.641-12.62-11.641-21.669 0-14.35 11.629-25.993 25.976-25.993 7.4677 0 14.196 3.1535 18.933 8.199l8.7214-10.345-4.8254 6.2687c-7.1289-6.9979-12.072-17.591-22.847-17.591z" fill="#6f2779" fill-rule="evenodd" filter="url(#filter6829)" style="mix-blend-mode:normal"/>
 <path d="m172.19 115.07c14.352 0 25.977-11.632 25.977-25.982s-11.625-25.993-25.977-25.993c-14.347 0-25.976 11.643-25.976 25.993s11.629 25.982 25.976 25.982zm-0.0177 13.548c-21.835 0-39.497-17.673-39.497-39.514 0-21.797 17.662-39.477 39.497-39.477 21.805 0 39.499 17.68 39.499 39.477 0 21.841-17.694 39.514-39.499 39.514z" fill="#f1f1f4" fill-rule="evenodd" stroke-width=".43246"/>
 <path d="m64.199 80.401c2.2657-3.1846 3.5704-7.0815 3.5704-11.271 0-10.843-8.7919-19.633-19.653-19.633-10.827 0-19.615 8.7681-19.633 19.597h13.584c0.01816-3.3222 2.7275-6.0333 6.0493-6.0333 3.3615 0 6.0692 2.7271 6.0692 6.0687 0 3.2586-2.574 5.92-5.8067 6.0514v13.582c7.2744 0 13.178 5.8841 13.178 13.18 0 7.2684-5.904 13.176-13.178 13.176-7.2723 0-13.156-5.888-13.192-13.212l-13.275 3.688c1.7623 13.029 12.953 23.072 26.467 23.072 14.76 0 26.714-11.969 26.714-26.724 0-8.8417-4.2766-16.671-10.895-21.543" fill="#f1f1f4" stroke-width=".43246"/>
 <path d="m48.116 49.498c-10.823 0-19.609 8.7615-19.633 19.585h13.523c0-3.3416 2.7231-6.069 6.0664-6.069 1.7924 0 3.4035 0.77742 4.5166 2.0149 0.99198 1.0816 1.5968 2.5231 1.5968 4.1016 0 3.2586-2.5744 5.92-5.807 6.0514 5.8395 0.08736 11.434 1.9751 15.82 5.2194 0.10836-0.15231 0.21234-0.30802 0.31627-0.46355 0.09263-0.13945 0.1838-0.27968 0.27286-0.42169 0.0061-0.0097 0.0125-0.01923 0.0186-0.02894 0.0032-0.0051 0.0061-0.01039 0.0093-0.01551 1.8708-3.0014 2.9394-6.5631 2.9394-10.357 0-1.8205-0.24707-3.5825-0.70798-5.2556-0.0274-0.09845-0.05483-0.19674-0.08372-0.29456-0.04388-0.15008-0.08962-0.29948-0.13695-0.44804-0.06971-0.2167-0.14163-0.43262-0.2186-0.64597-0.01454-0.04069-0.02809-0.08191-0.04289-0.12248-2.7624-7.5007-9.9759-12.851-18.449-12.851z" fill="url(#linearGradient334)" stroke-width=".43246"/>
 <path d="m104.58 115.12c-7.2723 0-13.181-5.9078-13.181-13.176 0-7.296 5.9083-13.18 13.181-13.18 7.2524 0 13.172 5.8836 13.172 13.18 0 7.2684-5.9196 13.176-13.172 13.176m0.73172-39.895 15.575-25.728h-15.899l-23.06 38.256c-2.5917 4.0937-4.0781 8.9671-4.0781 14.19 0 14.756 11.969 26.724 26.731 26.724 14.775 0 26.742-11.969 26.742-26.724 0-14.513-11.577-26.324-26.01-26.718" fill="#f1f1f4" stroke-width=".43246"/>
 <path d="m199.84 60.951c7.2956 7.1633 11.827 17.13 11.827 28.155 0 21.841-17.694 39.515-39.499 39.515-8.6286 0-16.599-2.7686-23.091-7.455l8.7749-10.409c4.1087 2.725 9.0351 4.3159 14.335 4.3159 14.352 0 25.976-11.633 25.976-25.983 0-6.8834-2.6792-13.139-7.0467-17.791z" fill="url(#linearGradient4842)" stop-color="#000000" style="-inkscape-stroke:none;font-variation-settings:normal;paint-order:markers stroke fill"/>
 <path d="m105.31 75.227c-3.4e-4 1.94e-4 -7e-4 3.26e-4 -1e-3 5.19e-4l-11.306 18.844c2.404-3.2235 6.2477-5.3063 10.574-5.3063 7.2524 0 13.172 5.8833 13.172 13.179l13.569 4e-3 2e-3 -3e-3v-1e-3c0-14.512-11.576-26.323-26.009-26.718z" fill="url(#linearGradient300-9)" stroke-width=".43246"/>
</svg>
