<svg width="800" height="673.31" version="1.1" viewBox="0 0 211.67 178.15" xmlns="http://www.w3.org/2000/svg">
 <defs>
  <linearGradient id="linearGradient300" x2="1" gradientTransform="matrix(-75.856 33.773 -33.773 -75.856 266.97 222.55)" gradientUnits="userSpaceOnUse">
   <stop stop-color="#fff" offset="0"/>
   <stop stop-color="#fff" offset=".10034"/>
   <stop stop-color="#fff" offset=".23954"/>
   <stop stop-color="#484545" offset=".47158"/>
   <stop stop-color="#484545" offset="1"/>
  </linearGradient>
  <linearGradient id="linearGradient334" x2="1" gradientTransform="matrix(12.692 -59.711 59.711 12.692 122.09 277.7)" gradientUnits="userSpaceOnUse">
   <stop stop-color="#fff" offset="0"/>
   <stop stop-color="#fff" offset=".48422"/>
   <stop stop-color="#484545" offset="1"/>
  </linearGradient>
  <linearGradient id="linearGradient1519" x2="1" gradientTransform="matrix(96.415 137.7 -137.7 96.415 27.116 54.437)" gradientUnits="userSpaceOnUse">
   <stop stop-color="#a13c8f" offset="0"/>
   <stop stop-color="#a13c8f" offset=".022528"/>
   <stop stop-color="#8c2484" offset=".68904"/>
   <stop stop-color="#861e82" offset="1"/>
  </linearGradient>
  <linearGradient id="linearGradient4842" x2="1" gradientTransform="matrix(-34.608 -42.392 -42.392 34.608 169.21 120.83)" gradientUnits="userSpaceOnUse">
   <stop stop-color="#efeff1" offset="0"/>
   <stop stop-color="#484545" offset=".57082"/>
   <stop stop-color="#484545" offset=".71524"/>
   <stop stop-color="#484545" offset="1"/>
  </linearGradient>
  <filter id="filter6829" x="-.045012" y="-.042261" width="1.09" height="1.0845" color-interpolation-filters="sRGB">
   <feGaussianBlur stdDeviation="1.2597682"/>
  </filter>
  <clipPath id="clipPath7020">
   <g transform="matrix(.43246 0 0 -.43246 133.15 123.24)" fill="#f00">
    <path d="m60.025-91.408c-50.49 0-91.33 40.867-91.33 91.371 0 50.403 40.84 91.285 91.33 91.285 50.421 0 91.335-40.882 91.335-91.285 0-50.504-40.914-91.371-91.335-91.371z" fill="#f00" fill-rule="evenodd"/>
   </g>
  </clipPath>
 </defs>
 <g transform="translate(13.064 -34.151)">
  <path d="m165.11 123.22c0 49.184-39.877 89.075-89.084 89.075-49.204 0-89.089-39.891-89.089-89.075 0-49.2 39.885-89.071 89.089-89.071 49.208 0 89.084 39.871 89.084 89.071" fill="#efeff1"/>
  <path d="m75.32 207.32c32.565 0 60.791-18.507 74.75-45.564-17.462-4.1075-30.446-19.78-30.446-38.47 0-18.702 12.983-34.357 30.446-38.47-13.96-27.063-42.186-45.559-74.75-45.559-46.413 0-84.048 37.605-84.048 84.03 0 46.416 37.634 84.034 84.048 84.034z" fill="url(#linearGradient1519)"/>
  <path d="m159.12 149.2c14.334 0 25.979-11.626 25.979-25.96 0-14.364-11.645-25.973-25.979-25.973-14.363 0-25.976 11.609-25.976 25.973 0 14.334 11.613 25.96 25.976 25.96z" fill="url(#linearGradient1519)" stop-color="#000000" style="-inkscape-stroke:none;font-variation-settings:normal"/>
  <path d="m162.8 87.221c-21.835 0-39.497 17.68-39.497 39.477 0 13.21 6.4618 24.893 16.399 32.066l7e-3 -6e-3 8.7736-10.407c-7.0147-4.6522-11.641-12.62-11.641-21.669 0-14.35 11.629-25.993 25.976-25.993 7.4677 0 14.196 3.1535 18.933 8.199l8.7214-10.345 6.8e-4 -0.0052c-7.1289-6.9979-16.898-11.317-27.673-11.317z" clip-path="url(#clipPath7020)" fill="#6f2779" fill-rule="evenodd" filter="url(#filter6829)" style="mix-blend-mode:normal"/>
  <g transform="matrix(.43246 0 0 -.43246 54.84 117.99)" fill="#6f2779" filter="url(#filter6829)" style="mix-blend-mode:normal">
   <path d="m0 0c5.239 7.364 8.256 16.375 8.256 26.062 0 25.072-20.33 45.398-45.444 45.398-25.036 0-45.357-20.275-45.399-45.316h31.411c0.042 7.682 6.307 13.951 13.988 13.951 7.773 0 14.034-6.306 14.034-14.033 0-7.535-5.952-13.689-13.427-13.993v-31.406c16.821 0 30.473-13.606 30.473-30.477 0-16.807-13.652-30.468-30.473-30.468-16.816 0-30.422 13.615-30.505 30.551l-30.697-8.528c4.075-30.127 29.952-53.351 61.202-53.351 34.13 0 61.773 27.676 61.773 61.796 0 20.445-9.889 38.549-25.192 49.814" fill="#6f2779"/>
  </g>
  <g transform="matrix(.43246 0 0 -.43246 95.218 152.71)" fill="#6f2779" filter="url(#filter6829)" style="mix-blend-mode:normal">
   <path d="m0 0c-16.816 0-30.478 13.661-30.478 30.468 0 16.871 13.662 30.476 30.478 30.476 16.77 0 30.458-13.605 30.458-30.476 0-16.807-13.688-30.468-30.458-30.468m1.692 92.25 36.015 59.492h-36.765l-53.323-88.461c-5.993-9.466-9.43-20.735-9.43-32.813 0-34.12 27.677-61.796 61.811-61.796 34.166 0 61.837 27.676 61.837 61.796 0 33.558-26.77 60.871-60.145 61.782" fill="#6f2779"/>
  </g>
  <g transform="matrix(.43246 0 0 -.43246 133.15 123.24)">
   <path d="m60.066-60.08c33.187 0 60.067 26.898 60.067 60.08s-26.88 60.104-60.067 60.104c-33.176 0-60.066-26.922-60.066-60.104s26.89-60.08 60.066-60.08zm-0.041-31.328c-50.49 0-91.33 40.867-91.33 91.371 0 50.403 40.84 91.285 91.33 91.285 50.421 0 91.335-40.882 91.335-91.285 0-50.504-40.914-91.371-91.335-91.371z" fill="#efeff1" fill-rule="evenodd"/>
  </g>
  <g transform="matrix(.43246 0 0 -.43246 51.136 114.55)">
   <path d="m0 0c5.239 7.364 8.256 16.375 8.256 26.062 0 25.072-20.33 45.398-45.444 45.398-25.036 0-45.357-20.275-45.399-45.316h31.411c0.042 7.682 6.307 13.951 13.988 13.951 7.773 0 14.034-6.306 14.034-14.033 0-7.535-5.952-13.689-13.427-13.993v-31.406c16.821 0 30.473-13.606 30.473-30.477 0-16.807-13.652-30.468-30.473-30.468-16.816 0-30.422 13.615-30.505 30.551l-30.697-8.528c4.075-30.127 29.952-53.351 61.202-53.351 34.13 0 61.773 27.676 61.773 61.796 0 20.445-9.889 38.549-25.192 49.814" fill="#f9f8fa"/>
  </g>
  <g transform="matrix(.43246 0 0 -.43246 91.514 149.27)">
   <path d="m0 0c-16.816 0-30.478 13.661-30.478 30.468 0 16.871 13.662 30.476 30.478 30.476 16.77 0 30.458-13.605 30.458-30.476 0-16.807-13.688-30.468-30.458-30.468m1.692 92.25 36.015 59.492h-36.765l-53.323-88.461c-5.993-9.466-9.43-20.735-9.43-32.813 0-34.12 27.677-61.796 61.811-61.796 34.166 0 61.837 27.676 61.837 61.796 0 33.558-26.77 60.871-60.145 61.782" fill="#f7f8fa"/>
  </g>
  <g transform="matrix(.43246 0 0 -.43246 -17.922 218.04)">
   <path d="m228.32 207.45c5.548 7.618 14.517 12.603 24.659 12.603 16.931 0 30.62-13.688 30.62-30.597h31.483l7e-3 0.016c-7e-3 33.673-26.857 61.076-60.371 61.978z" fill="url(#linearGradient300)"/>
   <path d="m77.099 265.37h31.531c0 7.727 6.297 14.033 14.028 14.033 7.765 0 14.062-6.306 14.062-14.107 0-7.308-5.653-13.403-12.897-13.946 13.503-0.202 25.983-4.65 36.125-12.152 5.206 7.36 8.224 16.402 8.224 26.098 0 25.197-20.404 45.592-45.514 45.592-25.113 0-45.517-20.362-45.559-45.518" fill="url(#linearGradient334)"/>
  </g>
  <path d="m186.78 95.1c7.2956 7.1633 11.827 17.13 11.827 28.155 0 21.841-17.694 39.515-39.499 39.515-8.6286 0-16.599-2.7686-23.091-7.455l8.7749-10.409c4.1087 2.725 9.0351 4.3159 14.335 4.3159 14.352 0 25.976-11.633 25.976-25.983 0-6.8834-2.6792-13.139-7.0467-17.791z" fill="url(#linearGradient4842)" stop-color="#000000" style="-inkscape-stroke:none;font-variation-settings:normal;paint-order:markers stroke fill"/>
 </g>
</svg>
