<svg width="600pt" height="96.081pt" version="1.1" viewBox="0 0 600 96.081" xmlns="http://www.w3.org/2000/svg">
 <g transform="matrix(.53242 0 0 .53242 -62.346 96.687)">
  <path d="m464.64-158.92h23.182v134.11h-23.182v-55.369h-56.136v55.369h-23.182v-134.11h23.182v55.369h56.136z" style="white-space:pre"/>
  <path d="m601.63-24.806h-94.453v-23.182h94.453zm0-110.93h-94.453v-23.182h94.453zm-15.902 55.561h-78.552v-23.374h78.552z" style="white-space:pre"/>
  <path d="m715.43-119.64q0 11.304-5.9393 20.692-5.9393 9.3879-15.71 14.369l21.65 59.776h-24.715l-20.117-55.369h-49.622v-23.374h55.178q6.7056 0 11.304-4.5981 4.7897-4.7897 4.7897-11.304 0-6.7056-4.7897-11.495-4.5981-4.7897-11.304-4.7897h-55.178v-23.182h55.178q16.285 0 27.78 11.495t11.495 27.78z" style="white-space:pre"/>
  <path d="m757.96-24.806h-23.182v-134.11h23.182z" style="white-space:pre"/>
  <path d="m777.31-158.92h94.453v23.182h-35.636v110.93h-23.182v-110.93h-35.636z" style="white-space:pre"/>
  <path d="m943.61-158.92 48.855 134.11h-24.715l-36.594-100.2-36.402 100.2h-24.715l48.855-134.11z" style="white-space:pre"/>
  <path d="m1130.4-103.36v11.495q0 18.201-9.0047 33.72-9.0047 15.327-24.523 24.332-15.327 9.0047-33.528 9.0047t-33.72-9.0047q-15.327-9.0047-24.332-24.332-9.0047-15.519-9.0047-33.72t9.0047-33.528q9.0047-15.519 24.332-24.523 15.519-9.0047 33.72-9.0047 6.8972 0 13.411 1.3411 6.7057 1.3411 12.645 4.0234 6.1309 2.4907 11.495 6.1308 5.3645 3.6402 9.771 8.2383l-16.285 16.285q-12.836-12.836-31.037-12.836t-31.037 12.836q-12.836 12.836-12.836 31.037t12.836 31.037 31.037 12.836q14.944 0 26.631-9.0047 11.687-9.1963 15.519-23.182h-23.182v-23.182z" style="white-space:pre"/>
  <path d="m1244-24.806h-94.454v-23.182h94.454zm0-110.93h-94.454v-23.182h94.454zm-15.902 55.561h-78.552v-23.374h78.552z" style="white-space:pre"/>
 </g>
 <g transform="matrix(.70004 0 0 .70004 -82.605 -122.33)" fill="#eeba04">
  <path transform="matrix(.75 0 0 .75 118 -108)" d="m0 377v183h227v-183zm75.273 23h23.301v79.922h15.408v23.303h-15.408v31.582h-23.301v-31.582h-56.428v-23.303zm104.57 0.19336h28.311l-46.605 67.402 46.605 67.404h-28.311l-32.354-46.797-14.25-20.607zm-104.57 40.441-27.732 39.287h27.732z" fill="#eeba04"/>
 </g>
</svg>
