<svg width="600pt" height="110.52pt" version="1.1" viewBox="0 0 600 110.52" xmlns="http://www.w3.org/2000/svg">
 <defs>
  <linearGradient id="linearGradient1028" x1="160.16" x2="160.16" y1="33.656" y2="21.653" gradientTransform="matrix(3.708 0 0 3.708 -155.65 -14.28)" gradientUnits="userSpaceOnUse">
   <stop stop-color="#a31925" offset="0"/>
   <stop stop-color="#c4007a" offset="1"/>
  </linearGradient>
 </defs>
 <path d="m376.79 14.379c-14.549 0-22.018 9.6169-22.018 22.719v50.701c0 12.415 7.2446 22.719 22.018 22.719h121.91c16.438 0 22.018-10.022 22.018-22.719v-50.701c0-12.855-7.3435-22.719-22.018-22.719z" fill="url(#linearGradient1028)" stroke-width="2.781"/>
 <g transform="matrix(2.781 0 0 2.781 -117.29 -14.28)" fill="#fff">
  <path d="m54.127 5.1348c8.4366 0 11.758 4.6359 11.758 12.775v21.83h-4.59v-15.36h-12.525v-4.485h12.525v-3.885c0-3.2169-2.4846-6.492-7.0928-6.492-4.1172 0-7.0925 3.2133-7.0925 6.492v23.73h-4.935v-21.83c0-8.4222 4.2242-12.775 11.952-12.775z"/>
  <path d="m135.33 5.24h4.345v34.52h-4.345z"/>
  <path d="m250.12 5.43v4.26c-7.7311 0-7.7834 1.2804-7.775 6.56h7.085v4.06h-7.085v19.52h-4.595v-25.81c0-7.4151 3.4025-8.59 12.37-8.59z"/>
  <path d="m92.795 5.685h4.645v21.365c0 8.2711-4.5013 12.861-11.917 12.861-7.5621 0-12.528-5.0277-12.528-12.55 0-7.6525 5.0794-11.667 11.497-11.667 2.4526 0 4.6908 0.62319 6.7322 1.7853v4.29c-1.9259-1.1315-4.2268-1.9623-6.7322-1.9623-4.2769 0-7.075 3.5854-7.075 7.5535 0 4.3496 3.3149 8.494 8.1055 8.3903 4.4497 0 6.9459-2.9921 7.2717-6.7015z"/>
  <path d="m257.93 10.713a2.6182 2.7746 0 0 1-2.6182 2.7746 2.6182 2.7746 0 0 1-2.6182-2.7746 2.6182 2.7746 0 0 1 2.6182-2.7746 2.6182 2.7746 0 0 1 2.6182 2.7746z" style="paint-order:stroke fill markers"/>
  <path d="m149.8 9.86h4.465v5.98h8.46v4.08h-8.46v12.1c0 2.133 1.8026 3.3398 4.4255 3.3398h4.0345v4.4l-4.0345 0.02891c-5.9063 0-8.8302-3.2614-8.8905-7.7687z"/>
  <path transform="scale(.75)" d="m140.31 21.113v16.148c0 10.173 3.4033 15.967 13.547 15.967 10.362 0 13.547-5.6663 13.547-15.967v-16.148h-5.7595v15.531c-0.035 4.4407-1.1653 8.7179-4.0648 10.369-1.0188 0.55134-2.2496 0.86523-3.7226 0.86523-1.4731 0-2.7038-0.3139-3.7227-0.86523-2.8996-1.6513-4.0299-5.9284-4.0649-10.369v-15.531z" stroke-width="1.3333"/>
  <path d="m253.02 15.875h4.585v23.935h-4.585z"/>
 </g>
 <g transform="matrix(2.781 0 0 2.781 -117.29 -14.28)" fill="#fff">
  <path d="m225.19 37.145a2.5924 2.7379 0 0 1-2.5924 2.7379 2.5924 2.7379 0 0 1-2.5924-2.7379 2.5924 2.7379 0 0 1 2.5924-2.7379 2.5924 2.7379 0 0 1 2.5924 2.7379z" style="paint-order:stroke fill markers"/>
  <path transform="scale(.75)" d="m266.15 20.906 10.557 29.314c0.52762 1.4112 1.5226 2.752 3.2645 2.752 1.7419 5e-6 2.7376-1.3432 3.2648-2.7559l10.555-29.311h-6.2812l-7.5391 22.013-7.541-22.013z" stroke-width="1.3333"/>
  <path transform="scale(.75)" d="m238.25 20.906v5.5605h8.3669v26.514h5.754v-26.514h8.3654v-5.5601z" stroke-width="1.3333"/>
 </g>
</svg>
