<svg width="785.28pt" height="355.06pt" version="1.1" viewBox="0 0 785.28 355.06" xmlns="http://www.w3.org/2000/svg">
 <path d="m15.17 0.0036593c-3.7478-0.081082-7.5407 1.1873-10.392 3.6006-1.5586 1.2561-2.7944 2.8555-3.416 4.8018-1.0096 2.4508-1.4184 5.1543-1.3564 7.793v322.67c-0.06195 2.6372 0.34672 5.3389 1.355 7.7886 0.62064 1.9479 1.8556 3.5477 3.4145 4.8047 2.9584 2.5055 6.9322 3.7632 10.816 3.5742 3.2115 0.1292 6.4436-0.38448 9.1934-2.0786l267.45-160.47c4.0746-2.6194 7.4896-6.6534 8.8096-11.335 0.3423-1.0503 0.55525-2.1513 0.59033-3.3047-2e-3 -0.10581-0.0138-0.20955-0.0176-0.31494 4e-3 -0.10589 0.0161-0.21012 0.0176-0.31641-0.035-1.1512-0.24776-2.2489-0.58887-3.2974-1.3185-4.6846-4.7344-8.7201-8.811-11.341l-267.45-160.47c-2.751-1.6949-5.9848-2.2085-9.1978-2.0786-0.13928-0.00675-0.278-0.024825-0.41748-0.027825z" fill="#00f"/>
 <path d="m755.95 126.26h10.12l-2 9.95h-10.03z" fill="#00f"/>
 <path d="m775.22 126.26h10.06l-1.96 9.95h-10z" fill="#00f"/>
 <path d="m369.39 144.09h15l-25.44 71.485h-15.01z" fill="#00f"/>
 <path d="m387.98 151.81c2.77-4.4 7.68-7.87 13.04-7.72h49.41l-5.1 14.305h-44.92l-3.72 10.225h35.4c3.08-0.12 6.01 2.3 6.45 5.35 0.43 2.47-0.53 4.88-1.3 7.18-2.87 7.85-5.63 15.73-8.45 23.59-2.03 6.16-8.13 11.09-14.74 10.86h-49.04l5.08-14.305h44.99l6.47-18.385h-35.66c-3.64 0.05-6.65-3.43-6.28-7.02 0.58-4.14 2.51-7.93 3.75-11.9 1.57-4.04 2.61-8.32 4.62-12.18z" fill="#00f"/>
 <path d="m456.48 144.1h14.96l-15.96 44.835 47.9-44.835h19.04l-38.28 35.715 12.8 35.79h-18.99l-7.97-22.51-24.08 22.51h-14.94z" fill="#00f"/>
 <path d="m524.65 154.7c2.15-6.26 8.56-11.085 15.29-10.615h43.5l-5.11 14.325h-39.99l-3.69 10.2h40.01l-4.96 14.245h-40.19l-6.46 18.445h40.03l-5.1 14.285h-44.02c-2.33 0.06-4.91-0.345-6.45-2.255-2.07-2.42-1.61-5.96-0.65-8.75z" fill="#00f"/>
 <path d="m589.37 144.1h14.97l-20.37 57.18h39.98l-5.08 14.32h-43.97c-2.3 0.05-4.87-0.315-6.42-2.195-2.14-2.43-1.75-5.97-0.73-8.8z" fill="#00f"/>
 <path d="m650.27 144.1h14.98l5.47 48.475 40.5-48.475h15.02l-25.52 71.485h-14.98l12.68-35.735-29.68 35.735h-11.97l-4.31-35.735-12.69 35.735h-15.02z" fill="#00f"/>
 <path d="m757.22 144.1h19.01l2.51 71.5h-16.98l-0.63-16.405h-28.08l-12.31 16.405h-16.99l53.47-71.5m-13.6 40.91h16.98l-0.55-21.805z" fill="#00f"/>
 <path d="m595.74 225.19c1.6-0.01 3.21 0 4.83 0-0.37 1.62-0.74 3.24-1.1 4.87-1.58-0.03-3.15-0.05-4.71-0.06 0.31-1.61 0.65-3.21 0.98-4.81z" fill="#00f"/>
 <path d="m604.91 225.18c1.59 0 3.19 0.01 4.8 0.01-0.34 1.61-0.69 3.22-1.03 4.84-1.57-0.02-3.14-0.02-4.69-0.02 0.28-1.62 0.6-3.22 0.92-4.83z" fill="#00f"/>
 <path d="m315.61 265.32 12.3-33.7h7.21l-4.24 11.53 14.43 0.02 4.28-11.56 7.22 0.01-12.33 33.72-7.2-0.03 5.61-15.4-14.48 0.02-5.54 15.38z" fill="#00f"/>
 <path d="m345.95 265.32 25.83-33.71 9.02 0.01 1.33 33.7-8.29-0.01-0.2-7.69-13.62 0.01-5.89 7.7-8.18-0.01m19.23-14.37h8.16l-0.24-10.33z" fill="#00f"/>
 <path d="m383.52 265.33 12.29-33.71 24.22 0.06c2.12-0.18 3.97 2.15 3.03 4.16-1.26 4.22-2.62 9.55-7.6 10.66 1.42 0.87 2.98 2.28 2.22 4.16-1.51 4.97-3.56 9.76-5.26 14.67l-7.23-0.01 5.63-15.42-14.5 0.04-5.55 15.38-7.25 0.01m15.31-22.17 14.42 0.01 1.79-4.83-14.46-0.01z" fill="#00f"/>
 <path d="m449.34 231.61 7.18 0.02-10.43 28.49c-1.01 2.94-3.87 5.36-7.08 5.18l-19.06-0.02c-1.84 0.19-3.52-1.65-3.18-3.45l3.8-10.88 7.22-0.07-2.77 7.69 14.42 0.03z" fill="#00f"/>
 <path d="m449.42 258.93 10.07-27.35 7.14 0.05-9.86 26.94 14.48 0.01 9.8-26.95 7.26-0.01-10.34 28.28c-0.96 2.96-3.74 5.5-6.97 5.4l-17 0.04c-1.533-0.1152-3.6235 0.27215-4.6712-1.0159-0.27407-0.36082-0.45261-0.69138-0.62106-1.1302-0.47879-1.3717 0.36879-2.9342 0.71225-4.264z" fill="#00f"/>
 <path d="m505.85 236.63c3.22-7.81 16.77-5.97 18.34 2.13 0.78 3.93-1.61 7.52-4.61 9.79 0.57 2.15 1.14 4.31 1.72 6.47 1.97-0.64 3.93-1.3 5.91-1.96-0.55 2.06-1.08 4.13-1.61 6.2-1.01 0.37-2.01 0.74-3 1.13 0.6 2.28 1.19 4.58 1.8 6.87-3.05-1.45-8.23-0.37-9.35-4.28-3.96 1.16-8.73 1.78-12.2-0.96-5.34-4.43-3.18-14.94 4.12-15.84-1.88-2.8-2.64-6.4-1.12-9.55m8.34 6.53c1.6174-1.1449 3.5238-3.2145 2.7032-5.2486-0.19165-0.56964-0.6182-0.80083-1.2843-0.85589-2.5998-0.22683-2.042 4.2353-1.4189 6.1045m-5.1637 14.423c0.46852 0.51116 1.0939 0.66335 1.767 0.64426l2.3768-0.0674c-0.63-2.07-1.28-4.14-1.98-6.18-1.2883 1.2429-2.7741 2.7327-2.5682 4.6188 0.0409 0.48923 0.23582 0.79213 0.4045 0.9843z" fill="#00f"/>
 <path d="m539.11 265.31 12.36-33.7 24.57 0.1c1.91-0.02 3.35 2.19 2.66 3.95l-3.3 9.33c-0.97 2.62-3.45 4.74-6.29 4.84l-17.19 0.1-5.57 15.4-7.24-0.02m17.05-26.94-1.76 4.8 14.47-0.01 1.78-4.82z" fill="#00f"/>
 <path d="m585.34 232.29c2.06-0.96 4.4-0.61 6.61-0.69 5.4 0.14 10.81-0.19 16.2 0.15 1.85 0.23 3.05 2.31 2.34 4.03l-8.66 24c-1 3.31-4.24 5.89-7.78 5.55l-19.06-0.12c-2.11-0.02-3.18-2.59-2.38-4.35l8.3-23.06c0.73-2.31 2.13-4.52 4.43-5.51m2.63 6.05-7.36 20.25h14.46l7.37-20.26z" fill="#00f"/>
 <path d="m615.02 231.63 7.19-0.01 7.09 20.15 7.4-20.16 7.21 0.02-12.3 33.69-7.17 0.02-7.14-20.19-7.32 20.16-7.24 0.02z" fill="#00f"/>
 <path d="m644.33 238.35 2.48-6.73h28.88l-2.44 6.73-10.37 0.01-9.82 26.96-7.23-0.01 9.86-26.97z" fill="#00f"/>
 <path d="m666.33 265.32 12.29-33.71 7.23 0.01-12.37 33.74z" fill="#00f"/>
 <path d="m676.46 265.32 12.33-33.7 7.19 0.01 7.05 20.22 7.44-20.24 7.19 0.02-12.3 33.71-7.22-0.04-7.09-20.17-7.32 20.18z" fill="#00f"/>
 <path d="m718.48 237.25c0.96-3.25 4.07-5.8 7.54-5.62l21.02-0.01-2.46 6.74-19.25-0.03-1.79 4.83h19.3l-2.42 6.67-19.34 0.1-3.12 8.66h19.24l-2.41 6.73-22.75-0.14c-2.37-0.34-2.77-3.26-1.86-5.07z" fill="#00f"/>
 <path d="m737.63 265.32 12.3-33.7h7.19l7.02 20.91 7.47-20.92 7.22 0.01-12.35 33.72-7.17-0.02-7.1-20.17-7.33 20.16z" fill="#00f"/>
 <path d="m59.236 144.1h19l2.5 71.485h-17l-0.56-16.365h-28.14l-12.27 16.365h-17.02l53.49-71.485m-13.56 40.905h16.98l-0.66-21.875z" fill="#fff"/>
 <path d="m109.19 144.1h15.05l-25.53 71.485h-14.97z" fill="#fff"/>
 <path d="m130.25 144.1h60.02l-5.11 14.305h-21.51l-20.36 57.185h-14.98l20.38-57.185h-23.53z" fill="#fff"/>
 <path d="m205.26 144.16h41.72c4.71-0.07 7.61 5.435 5.73 9.545l-17.22 48.53c-1.65 6.72-7.18 13.02-14.43 13.34h-40.14c-2.69 0.12-5.54-1.23-6.57-3.82-1.09-2.36-0.42-5.01 0.37-7.35l17.57-49.32c1.82-5.64 7.02-10.275 12.97-10.925m0.86 14.265-15.27 42.855h30.03l15.27-42.855z" fill="#fff"/>
</svg>
