<svg width="648.4" height="800" version="1.1" viewBox="0 0 648.4 800" xml:space="preserve" xmlns="http://www.w3.org/2000/svg"><g transform="matrix(1.3333 0 0 -1.3333 -462.39 1120.7)"><path d="m804.7 810.68c-38.815 38.812-390.1 40.751-430.85 0-40.762-40.751-31.059-399.77 0-430.83 31.049-31.049 393.98-36.872 430.85 0 36.878 36.878 38.825 392.02 0 430.83" fill="#d01417"/><path transform="matrix(.75 0 0 -.75 346.79 840.52)" d="m278.59 104.6-152.02 426.46h53.553c27.888 0 52.63-17.878 61.385-44.357l9.625-29.703 92.869-0.04883-25.861-85.828-39.148-0.01367 43.607-136.86 85.471 253.81c8.6551 25.697 32.747 43.008 59.867 43.008h53.881l-155.37-426.46h-87.861z" fill="#fff"/><path d="m621.63 762.06 116.53-319.84h-40.414c-20.337 0-38.409 12.983-44.897 32.255l-64.105 190.36-32.702-102.64 29.358-0.0136 19.396-64.371-69.652-0.0341-7.2175-22.28c-6.5663-19.856-25.123-33.268-46.039-33.268h-40.162l-3e-3 -3e-3 86.392-86.392c114.81-4.8583 254.45 1.8819 276.58 24.019 15.72 15.72 25.086 89.269 27.66 171.5z" fill="#c11818"/><g fill="#d01417"><path d="m460.35 276.13-5.0185 17.091c-1.4353 4.7798-2.8706 10.756-4.0639 15.536h-0.23865c-1.1967-4.7798-2.3899-10.876-3.7059-15.536l-4.7798-17.091zm-20.435-13.62-5.7345-20.677h-18.765l24.499 80.545h23.899l25.096-80.545h-19.716l-6.2152 20.677z"/><path d="m498.23 326.68h18.165v-84.851h-18.165z"/><path d="m533.24 241.83v45.054h-7.7698v13.385h7.7698v2.2706c0 7.0504 2.1513 14.817 7.2891 19.6 4.6605 4.2991 10.876 5.8538 16.252 5.8538 3.9446 0 7.0504-0.59663 9.5597-1.1933l-0.71596-13.985c-1.5546 0.48071-3.4673 0.83869-5.8572 0.83869-5.9731 0-8.4824-4.6605-8.4824-10.398v-2.9866h11.711v-13.385h-11.592v-45.054z"/><path d="m602.9 269.44c-9.5597 0-16.968-2.2706-16.968-9.2017 0-4.6605 3.1059-6.9311 7.1698-6.9311 4.4185 0 8.2437 2.9866 9.4404 6.6925 0.23865 0.9546 0.35798 2.0319 0.35798 3.1059zm17.568-13.504c0-5.4958 0.23865-10.872 0.9546-14.101h-16.372l-1.0739 5.8572h-0.35798c-3.8252-4.6639-9.8018-7.1732-16.733-7.1732-11.83 0-18.881 8.6051-18.881 17.926 0 15.178 13.624 22.348 34.298 22.348v0.71595c0 3.2286-1.674 7.6471-10.637 7.6471-5.9765 0-12.308-2.0285-16.133-4.4185l-3.3479 11.711c4.0639 2.2706 12.072 5.2572 22.706 5.2572 19.481 0 25.577-11.472 25.577-25.335z"/><path d="m643.89 307.08h-21.748v15.298h61.899v-15.298h-21.987v-65.251h-18.165z"/><path d="m716.06 241.83-25.815 80.545h19.958l9.7984-34.059c2.7513-9.6756 5.2606-18.758 7.1732-28.798h0.35797c2.032 9.679 4.5412 19.239 7.2891 28.444l10.276 34.414h19.361l-27.128-80.545z"/></g></g></svg>
