<svg width="1088.9pt" height="204.56pt" version="1.1" viewBox="0 0 1088.9 204.56" xmlns="http://www.w3.org/2000/svg">
 <g transform="translate(-55.22,-46.99)" fill="#015598">
  <path d="m140.11 46.99 414.33 0.03-84.66 204.5h-414.56l84.89-204.54"/>
  <path d="m587.3 47.02h58.47l-60.29 161.52h68.99l-9.33 25.335c-2.86 7.01-6.35 14.925-14.03 17.655h-119.7z"/>
  <path d="m730.3 47.02h58.46l-76.06 204.5h-58.29z"/>
  <path d="m802.04 47.02h56.64l-21.63 151.03 87.65-145.33c2.93-4.95 9.07-5.67 14.28-5.7h49.44l-121.15 186.42c-4.79 6.45-10.51 12.45-17.74 16.16-2.38 1.14-4.79 2.135-7.53 1.925h-67.63z"/>
  <path d="m1004.3 47.02h139.86l-14.11 38.82c-1.44 4.47-5.3 7.84-10.17 7.59-24.82 0.19-49.65 0-74.48 0l-12.49 34.085h75.36l-14.37 38.275c-1.3 2.73-2.53 6.16-5.65 7.23-4.97 1.5-10.23 0.925-15.33 1.065h-57.5l-12.94 34.415h85.04l-10.32 27.78c-2.3641 6.3638-6.25 12.965-13.12 15.245h-135.67z"/>
 </g>
 <g transform="translate(-55.22,-46.99)" fill="#ffea15">
  <path d="m415.05 91.4c9.61-1.04 19.29-0.54 28.93-0.63 8.46 0.53 17.16 0.96 25.12 4.14 4.31 1.68 8.32 5.03 9.5 9.66 1.45 5.16 0.32 10.56-0.69 15.69h-49.93c-6.83 0.21-14.55-0.06-20.03 4.76-6.16 5.72-9.01 13.9-12.28 21.43-2.33 6.3-5.29 12.68-5.26 19.52-0.31 3.73 3.12 6.55 6.56 6.98 6.15 0.93 12.62 1.09 18.66-0.59 5.95-2.19 8.52-8.625 10.49-14.145h-20.76c3.38-6.89 5.68-14.365 10.07-20.715 3-4.39 8.6-5.48 13.57-5.49h46.44l-16.59 37.77c-5.67 11.06-13.75 21.76-25.64 26.52-14.61 5.8-30.72 5.63-46.17 5.03-9.78-0.83-20.2-2.36-28.18-8.55-6.23-4.81-8.84-13.02-8.27-20.67 0.89-13.26 6.37-25.6 11.65-37.61 5.28-11.45 11.03-23.21 20.7-31.63 8.73-7.85 20.71-10.58 32.11-11.47z"/>
  <path d="m184.64 97.61c7.5-4.76 16.73-5.325 25.37-5.315h32.87c-4.79 35.94-9.97 71.73-14.72 107.68h-34.66l2.67-18.74h-35.84l-13.22 18.74h-39.41l65.06-90.175c3.4-4.55 6.97-9.17 11.88-12.19m-6.29 57.18h21.86l5.74-39.57z"/>
  <path d="m260.31 99.62c4.21-5.86 11.86-7.275 18.61-7.325h90.51l-10.26 24.005c-1.53 3.65-5.37 5.765-9.2 5.895h-23.24l-32.72 77.78h-38.71l32.98-77.78-39.05 0.045z"/>
 </g>
</svg>
