<svg version="1.1" viewBox="0 0 255.4 65.67" xmlns="http://www.w3.org/2000/svg">
 <g fill="#fff" data-name="Layer 2">
  <g fill="#fff" data-name="Lager 1">
   <g data-name="&lt;Group&gt;">
    <path class="cls-1" d="M73,14.68A13.47,13.47,0,1,1,86.49,28,13.46,13.46,0,0,1,73,14.68Zm-16,3c-.66,1-1.14,1.69-2.5,1.69h-.7c-1.36,0-1.83-.73-2.5-1.69l-4.44-6.57V25.54a2,2,0,0,1-2.2,2.13h-.73a2,2,0,0,1-2.2-2.13V3.78a1.94,1.94,0,0,1,2.2-2.13h.92A2.53,2.53,0,0,1,47.3,3l6.83,10L61,3a2.47,2.47,0,0,1,2.46-1.32h.92a1.94,1.94,0,0,1,2.2,2.13V25.54a2,2,0,0,1-2.2,2.13h-.73a2,2,0,0,1-2.2-2.13V11.08Zm54.56,7.89a1.94,1.94,0,0,1-2.17,2.13h-.77a2,2,0,0,1-2.2-2.13V3.78a2,2,0,0,1,2.2-2.13h8.26a8.32,8.32,0,0,1,8.29,8.26,7.93,7.93,0,0,1-3.82,6.53A8.36,8.36,0,0,1,124,20.55l1.21,4.18a4.77,4.77,0,0,1,.26,1.28,1.82,1.82,0,0,1-2,1.65h-1.1a2,2,0,0,1-2.09-1.58L119,21.8a4.87,4.87,0,0,0-4.7-3.67h-2.75Zm23.15,2.13a2,2,0,0,1-2.2-2.13V3.78a2,2,0,0,1,2.2-2.13h12a2,2,0,0,1,2.2,2.13v.59a2,2,0,0,1-2.2,2.13h-9.1v5.8h7.56a2,2,0,0,1,2.2,2.13V15a1.94,1.94,0,0,1-2.2,2.09h-7.56v5.69h9.25a2,2,0,0,1,2.2,2.13v.62a1.93,1.93,0,0,1-2.2,2.09Zm-56.44-13a8.22,8.22,0,1,0,16.44,0,8.22,8.22,0,1,0-16.44,0Zm33.28-8.18v6.79h5.06a3.28,3.28,0,0,0,3.3-3.38,3.36,3.36,0,0,0-3.3-3.41ZM8.29,14.68a6.55,6.55,0,0,0,6.57,6.49,7.17,7.17,0,0,0,4.44-1.72,4.45,4.45,0,0,1,2.83-1.17,4.26,4.26,0,0,1,2.61.88,3.67,3.67,0,0,1,1.47,3,4.28,4.28,0,0,1-1.21,3C23,27.37,19,29.36,14.57,29.36A14.68,14.68,0,0,1,14.57,0,14.2,14.2,0,0,1,24.84,4.18a4.28,4.28,0,0,1,1.21,3,3.72,3.72,0,0,1-1.47,3,4.22,4.22,0,0,1-2.61.88,4.45,4.45,0,0,1-2.83-1.17,7,7,0,0,0-4.37-1.72A6.53,6.53,0,0,0,8.29,14.68Z" fill="#fff" data-name="&lt;Compound Path&gt;"/>
   </g>
   <path class="cls-1" d="M47.67,53.63c-3.56-1-6.39-3.3-6.39-7.12,0-4.07,3.23-7.67,8.26-7.67,4.29,0,6.57,2.5,7.3,4.29a2.39,2.39,0,0,1,.22.84c0,.51-.37.81-.92,1l-1,.33a1,1,0,0,1-1.43-.55,4.35,4.35,0,0,0-4.11-2.39c-2.72,0-4.62,1.76-4.62,3.93A4,4,0,0,0,48.3,50l2.72.7c4.26,1.1,6.75,3.71,6.75,7.19,0,3.89-3,7.78-8.66,7.78-5.43,0-7.71-3.67-8.29-5.72-.33-1.1-.11-1.5.81-1.8l1-.29c1.06-.33,1.36.29,1.65,1a5,5,0,0,0,5,3.34c3.16,0,4.92-1.91,4.92-4.07,0-1.62-1-3-3.82-3.74Z"/>
   <path class="cls-1" d="M65.47,65.26a1.26,1.26,0,0,1-1.39-1.39V40.64a1.26,1.26,0,0,1,1.39-1.39h8.81a7.91,7.91,0,0,1,0,15.82H67.68v8.81a1.26,1.26,0,0,1-1.39,1.39ZM74,51.61a4.46,4.46,0,1,0,0-8.92H67.68v8.92Z"/>
   <path class="cls-1" d="m100 65.67a13.41 13.41 0 1 1 13.43-13.39 13.37 13.37 0 0 1-13.43 13.39zm9.76-13.39a9.74 9.74 0 1 0-9.76 9.86 9.88 9.88 0 0 0 9.77-9.87z"/>
   <path class="cls-1" d="M135.06,65.26a1.27,1.27,0,0,1-1.32-1l-1.32-4.62a6,6,0,0,0-5.91-4.55h-3.89v8.81a1.26,1.26,0,0,1-1.39,1.39h-.81A1.26,1.26,0,0,1,119,63.87V40.64a1.26,1.26,0,0,1,1.39-1.39h8.81a7.93,7.93,0,0,1,7.89,7.93A7.56,7.56,0,0,1,132.56,54a8.25,8.25,0,0,1,3.34,4.77l1.28,4.44a4.67,4.67,0,0,1,.22,1,1.09,1.09,0,0,1-1.17,1ZM129,51.61a4.42,4.42,0,0,0,4.48-4.44A4.47,4.47,0,0,0,129,42.69h-6.35v8.92Z"/>
   <path class="cls-1" d="M151.79,65.26a1.26,1.26,0,0,1-1.39-1.39V42.69H144a1.26,1.26,0,0,1-1.39-1.39v-.66A1.26,1.26,0,0,1,144,39.24h16.37a1.26,1.26,0,0,1,1.39,1.39v.66a1.26,1.26,0,0,1-1.39,1.39H154V63.87a1.26,1.26,0,0,1-1.39,1.39Z"/>
   <path class="cls-1" d="M174.62,65.26a1.24,1.24,0,0,1-1.39-1.32v-.7c0-1.8,1.28-5.21,4.62-7.56l5-3.52C185,50.62,186,48.79,186,46.77a4.17,4.17,0,0,0-4.4-4.48c-3.56,0-4.37,2.2-4.48,3.78a1.27,1.27,0,0,1-1.47,1.39h-.81c-.84,0-1.32-.37-1.32-1.39,0-2.68,1.87-7.23,8.07-7.23a7.66,7.66,0,0,1,8.07,8,9.57,9.57,0,0,1-4.44,7.89l-4.7,3.3c-1.47,1-2.72,2-3.08,3.78h11.3a1.26,1.26,0,0,1,1.39,1.39v.66a1.26,1.26,0,0,1-1.39,1.39Z"/>
   <path class="cls-1" d="M47.69,53.61c-3.57-1-6.4-3.31-6.4-7.13,0-4.08,3.23-7.68,8.27-7.68,4.3,0,6.58,2.5,7.31,4.3a2.37,2.37,0,0,1,.22.84c0,.51-.37.81-.92,1l-1,.33a1,1,0,0,1-1.43-.55,4.36,4.36,0,0,0-4.12-2.39c-2.72,0-4.63,1.76-4.63,3.93A4,4,0,0,0,48.31,50l2.72.7c4.26,1.1,6.76,3.71,6.76,7.2,0,3.9-3.05,7.79-8.67,7.79-5.44,0-7.72-3.68-8.31-5.73-.33-1.1-.11-1.51.81-1.8l1-.29c1.07-.33,1.36.29,1.65,1a5,5,0,0,0,5,3.35c3.16,0,4.93-1.91,4.93-4.08,0-1.62-1-3-3.82-3.75Z"/>
   <path class="cls-1" d="M65.37,65.26a1.26,1.26,0,0,1-1.4-1.4V40.6a1.26,1.26,0,0,1,1.4-1.4h8.82a7.92,7.92,0,0,1,0,15.84H67.57v8.82a1.26,1.26,0,0,1-1.4,1.4Zm8.56-13.67a4.47,4.47,0,1,0,0-8.93H67.57v8.93Z"/>
   <path class="cls-1" d="m99.81 65.67a13.44 13.44 0 1 1 13.45-13.42 13.4 13.4 0 0 1-13.45 13.42zm9.78-13.42a9.76 9.76 0 1 0-9.78 9.89 9.9 9.9 0 0 0 9.78-9.89z"/>
   <path class="cls-1" d="M135.32,65.26a1.27,1.27,0,0,1-1.32-1l-1.32-4.63A6,6,0,0,0,126.75,55h-3.9v8.82a1.26,1.26,0,0,1-1.4,1.4h-.81a1.26,1.26,0,0,1-1.4-1.4V40.6a1.26,1.26,0,0,1,1.4-1.4h8.82a8,8,0,0,1,7.9,7.94A7.57,7.57,0,0,1,132.82,54a8.26,8.26,0,0,1,3.34,4.78l1.29,4.45a4.67,4.67,0,0,1,.22,1,1.09,1.09,0,0,1-1.18,1Zm-6.1-13.67a4.42,4.42,0,0,0,4.48-4.45,4.48,4.48,0,0,0-4.48-4.48h-6.36v8.93Z"/>
   <path class="cls-1" d="M152.12,65.26a1.26,1.26,0,0,1-1.4-1.4V42.66h-6.4a1.26,1.26,0,0,1-1.4-1.4V40.6a1.26,1.26,0,0,1,1.4-1.4h16.39a1.26,1.26,0,0,1,1.4,1.4v.66a1.26,1.26,0,0,1-1.4,1.4h-6.4V63.87a1.26,1.26,0,0,1-1.4,1.4Z"/>
   <path class="cls-1" d="M223.24,65.26a1.26,1.26,0,0,1-1.4-1.4V53.72H209.12V63.87a1.26,1.26,0,0,1-1.4,1.4h-.81a1.26,1.26,0,0,1-1.4-1.4V40.6a1.26,1.26,0,0,1,1.4-1.4h.81a1.26,1.26,0,0,1,1.4,1.4v9.7h12.72V40.6a1.26,1.26,0,0,1,1.4-1.4H224a1.26,1.26,0,0,1,1.4,1.4V63.87a1.26,1.26,0,0,1-1.4,1.4Z"/>
   <path class="cls-1" d="M234.19,65.26a1.26,1.26,0,0,1-1.4-1.4V40.6a1.26,1.26,0,0,1,1.4-1.4H243c6.62,0,12.39,4.52,12.39,13s-5.84,13-12.46,13Zm8.64-3.46c4.82,0,8.86-3.2,8.86-9.56s-4-9.59-8.79-9.59H236.4V61.81Z"/>
  </g>
 </g>
</svg>
