<svg version="1.1" viewBox="0 0 800 126.65" xml:space="preserve" xmlns="http://www.w3.org/2000/svg"><defs><clipPath id="a"><path d="m309.5 48.698h229.44v36.324h-229.44z"/></clipPath></defs><g transform="matrix(1.3333 0 0 -1.3333 -1.9179e-7 126.65)">
<g transform="matrix(2.6151 0 0 2.6151 -809.37 -127.35)"><g clip-path="url(#a)"><g transform="translate(332.57 66.084)"><path d="m0 0c0 2.22-1.799 4.019-4.021 4.019-2.22 0-4.02-1.799-4.02-4.019 0-2.219 1.8-4.017 4.02-4.017 2.222 0 4.021 1.798 4.021 4.017" fill="#1e2831"/></g><g transform="translate(351.05 84.014)"><path d="m0 0c2.81-1.859 2.616-6.302 2.616-17.191 0-9.535 0.199-14.914-2.833-17.041-1.629-1.142-3.85-1.177-7.163-1.013-1.628 0.081-8.463 0.801-14.904 1.827-6.082 0.969-11.832 2.116-13.577 2.573-1.886 0.495-3.088 0.811-4.173 2.074-1.238 1.442-1.513 4.637-1.513 11.58 0 6.944 0.201 9.981 1.593 11.564 1.006 1.144 2.207 1.595 4.093 2.09 1.745 0.457 7.517 1.497 13.598 2.465 6.441 1.027 13.255 1.853 14.883 1.935 3.313 0.164 5.396 0.449 7.38-0.863m-6.31-29.736c1.671 1.358 1.746 3.783 1.746 12.545s-0.15 11.969-1.746 13.057c-1.443 0.984-4.556 0.859-13.443 8e-3 -3.903-0.374-11.347-1.258-12.458-1.433-2.658-0.417-4.477-0.582-5.593-2.152-0.655-0.921-0.888-3.651-0.888-9.48 0-5.828 0.233-8.559 0.888-9.48 0.878-1.236 2.284-1.639 4.097-1.942l-0.573 0.462c-1.621 1.488-1.912 5.619-1.912 9.476 0 3.843-0.288 9.102 1.597 10.625 1.23 0.993 2.485 1.124 5.026 0.968 0.959-0.058 4.258-0.207 9.298-0.787 3.625-0.417 7.378-0.953 8.263-1.119 3.53-0.661 4.081-1.9 3.988-9.092-0.054-4.174 8e-3 -6.225-0.792-7.467-0.578-0.898-1.672-1.424-3.274-1.784-0.878-0.198-4.8-0.929-8.413-1.438-2.493-0.351-4.498-0.596-6.04-0.752 2.364-0.273 4.962-0.559 6.786-0.735 8.679-0.837 12.283-0.422 13.443 0.52m-19.838 3.037c1.797 0.094 3.877 0.347 5.692 0.504 5.71 0.498 8.359 1.002 9.152 1.606 0.568 0.433 0.908 1.757 0.866 6.509-0.042 4.753-0.145 5.774-0.789 6.351-0.619 0.555-3.641 0.866-9.344 1.424-2.137 0.209-8.186 0.616-9.653 0-1.325-0.556-1.351-2.405-1.338-7.862 0.013-5.966 0.336-7.026 1.246-7.942 0.697-0.701 2.198-0.693 4.168-0.59" fill="#1e2831"/></g><g transform="translate(366.21 75.058)"><path d="m0 0c-0.497-0.656-1.075-2.924-1.075-9.148 0-5.672 0.64-8.258 1.238-9.074 0.867-1.182 3.621-2.197 8.004-2.197 4.235 0 6.042 0.587 6.42 0.777 0.314 0.157 0.546 0.379 0.546 1.238v1.977c0 0.742-0.193 1.015-0.891 0.788-0.508-0.165-2.902-0.636-5.394-0.636-2.321 0-4.473 0.098-5.041 0.827-0.38 0.49-0.583 1.524-0.583 6.417 0 3.646 0.04 5.659 0.638 6.257s3.101 0.78 5.542 0.78c2.454 0 4.163-0.388 4.63-0.485 0.678-0.139 1.099-0.058 1.099 0.772v2.303c0 0.576-0.268 0.815-0.862 0.976-0.364 0.097-1.593 0.551-5.059 0.551-3.464 0-8.015-0.543-9.212-2.123" fill="#1e2831"/></g><g transform="translate(505.02 76.279)"><path d="m0 0c-0.542 0-0.896-0.363-0.896-0.921v-3.38c0-0.203-0.078-0.277-0.28-0.277h-1.1c-0.56 0-0.919-0.328-0.919-0.874v-1.802c0-0.506 0.329-0.848 0.821-0.848h1.161c0.214 0 0.284-0.045 0.284-0.269v-10.623c0-2.205 1.668-2.647 4.367-2.647 1.856 0 3.445 0.403 3.445 0.403 0.311 0.084 0.659 0.131 0.659 0.831v1.968c0 0.428-2e-3 0.832-0.858 0.679-0.469-0.081-2.161-0.285-2.788-0.286-0.666 0-0.786 0.257-0.786 1.001v8.695c0 0.179 0.088 0.251 0.226 0.251h2.979c0.499 0 0.836 0.339 0.836 0.845v1.816c0 0.766-0.533 0.872-1.112 0.872h-2.679c-0.187 0-0.227 0.09-0.227 0.273v3.395c0 0.533-0.195 0.898-0.976 0.898z" fill="#1e2831"/></g><g transform="translate(412.92 54.835)"><path d="m0 0c0.72 0 1.105 0.252 1.105 0.976v13.303c0 1.77-2.686 2.869-6.864 2.869-3.996 0-6.681-1.154-6.681-2.869v-13.303c0-0.673 0.433-0.976 1.104-0.976h1.812c0.701 0 1.102 0.272 1.102 0.976v11.161c0 0.894 0.148 1.333 2.663 1.333 2.829 0 2.826-0.376 2.826-1.355v-11.176c0-0.726 0.382-0.93 1.102-0.93z" fill="#1e2831"/></g><g transform="translate(474.42 55.688)"><path d="m0 0v15.164c0 0.467-0.38 0.847-0.848 0.847h-2.334c-0.472 0-0.843-0.373-0.843-0.847v-15.164c0-0.467 0.377-0.847 0.843-0.847h2.334c0.468 0 0.848 0.38 0.848 0.847" fill="#1e2831"/></g><g transform="translate(474.43 73.908)"><path d="m0 0v2.225c0 0.468-0.381 0.849-0.85 0.849h-2.324c-0.468 0-0.85-0.381-0.85-0.849v-2.225c0-0.465 0.382-0.845 0.85-0.845h2.324c0.469 0 0.85 0.38 0.85 0.845" fill="#1e2831"/></g><g transform="translate(498.94 55.688)"><path d="m0 0v15.164c0 0.467-0.38 0.847-0.848 0.847h-2.335c-0.471 0-0.843-0.373-0.843-0.847v-15.164c0-0.467 0.378-0.847 0.843-0.847h2.335c0.468 0 0.848 0.38 0.848 0.847" fill="#1e2831"/></g><g transform="translate(498.94 73.908)"><path d="m0 0v2.225c0 0.468-0.384 0.849-0.852 0.849h-2.324c-0.466 0-0.85-0.381-0.85-0.849v-2.225c0-0.465 0.384-0.845 0.85-0.845h2.324c0.468 0 0.852 0.38 0.852 0.845" fill="#1e2831"/></g><g transform="translate(434.73 76.978)"><path d="m0 0c-0.598 0-0.868-0.426-0.868-0.85v-18.623c0-1.799 1.132-2.812 3.194-2.855 1.754-0.034 3.369 0.318 3.776 0.447 0.301 0.097 0.597 0.232 0.597 0.849v1.845c0 0.485-0.243 0.785-0.782 0.692-0.295-0.051-1.476-0.291-2.069-0.23-0.35 0.036-0.689 0.223-0.689 0.87v16.989c0 0.527-0.332 0.866-0.845 0.866z" fill="#1e2831"/></g><g transform="translate(532.24 76.978)"><path d="m0 0c-0.599 0-0.868-0.426-0.868-0.85v-18.623c0-1.799 1.133-2.812 3.194-2.855 1.753-0.034 3.369 0.318 3.776 0.447 0.3 0.097 0.597 0.232 0.597 0.849v1.845c0 0.485-0.243 0.785-0.783 0.692-0.294-0.051-1.475-0.291-2.068-0.23-0.349 0.036-0.687 0.223-0.687 0.87v16.989c0 0.527-0.334 0.866-0.847 0.866z" fill="#1e2831"/></g><g transform="translate(388 59.09)"><path d="m0 0v2.601c0 0.636-0.043 1.086 2.621 1.086 2.659 0 2.824-0.425 2.824-1.027v-2.689c0-0.686 0.042-1.099-2.824-1.099-2.646 0-2.621 0.275-2.621 1.128m-2.565 12.254c-0.473-0.157-0.804-0.199-0.779-0.955v-2.066c0-0.623 0.405-0.701 0.972-0.582 0.643 0.134 2.493 0.535 4.047 0.535 3.636 0 3.77-0.398 3.77-1.104v-1.316c0-0.155-0.057-0.281-0.275-0.242-0.215 0.038-1.774 0.503-3.481 0.503-3.856 0-5.727-0.716-5.727-2.19v-6.782c0-1.731 1.976-2.502 6.413-2.502 4.787 0 7.095 0.771 7.095 2.502v11.647c0 1.579-1.029 3.191-7.346 3.191-2.402 0-4.316-0.516-4.689-0.639" fill="#1e2831"/></g><g transform="translate(421.16 59.09)"><path d="m0 0v2.601c0 0.636-0.043 1.086 2.621 1.086 2.66 0 2.824-0.425 2.824-1.027v-2.689c0-0.686 0.042-1.099-2.824-1.099-2.647 0-2.621 0.275-2.621 1.128m-2.565 12.254c-0.473-0.157-0.804-0.199-0.78-0.955v-2.066c0-0.623 0.406-0.701 0.973-0.582 0.642 0.134 2.493 0.535 4.048 0.535 3.636 0 3.769-0.398 3.769-1.104v-1.316c0-0.155-0.056-0.281-0.275-0.242-0.216 0.038-1.775 0.503-3.481 0.503-3.856 0-5.727-0.716-5.727-2.19v-6.782c0-1.731 1.976-2.502 6.413-2.502 4.787 0 7.095 0.771 7.095 2.502v11.647c0 1.579-1.029 3.191-7.346 3.191-2.402 0-4.316-0.516-4.689-0.639" fill="#1e2831"/></g><g transform="translate(518.63 59.09)"><path d="m0 0v2.601c0 0.636-0.044 1.086 2.619 1.086 2.661 0 2.825-0.425 2.825-1.027v-2.689c0-0.686 0.042-1.099-2.825-1.099-2.644 0-2.619 0.275-2.619 1.128m-2.565 12.254c-0.474-0.157-0.806-0.199-0.78-0.955v-2.066c0-0.623 0.406-0.701 0.973-0.582 0.642 0.134 2.492 0.535 4.047 0.535 3.636 0 3.769-0.398 3.769-1.104v-1.316c0-0.155-0.056-0.281-0.274-0.242-0.216 0.038-1.775 0.503-3.482 0.503-3.856 0-5.727-0.716-5.727-2.19v-6.782c0-1.731 1.976-2.502 6.414-2.502 4.787 0 7.094 0.771 7.094 2.502v11.647c0 1.579-1.028 3.191-7.345 3.191-2.403 0-4.318-0.516-4.689-0.639" fill="#1e2831"/></g><g transform="translate(481.82 60.62)"><path d="m0 0v6.616c0 0.686 0.288 1.143 2.772 1.143 2.638 0 2.955-0.401 2.955-1.143v-6.616c0-0.887-0.681-1.08-3.066-1.08-2.187 0-2.661 0.233-2.661 1.08m-4.018 8.67v-10.67c0-1.613 2.4-2.655 6.116-2.655 1.612 0 2.587 0.447 2.933 0.565 0.43 0.148 0.696 0.122 0.696-0.366v-1.597c0-1.036-0.722-1.211-3.485-1.211-1.927 0-4.127 0.611-4.505 0.722-0.494 0.146-0.9-0.055-0.9-0.632v-2.254c0-0.716 0.212-0.797 0.833-0.988 6e-3 -3e-3 2.333-0.637 4.757-0.637 4.831 0 7.318 1.004 7.318 2.902v16.865c0 1.004-0.935 2.649-6.926 2.649-5.651 0-6.837-1.464-6.837-2.693" fill="#1e2831"/></g><g transform="translate(454.63 58.694)"><path d="m0 0c-0.731 0-1.087 0.201-1.087 1.058v12.396c0 0.614 0.404 0.967 1.01 0.967h3.42c2.208 0 3.699 0.095 4.403-0.812 0.711-0.915 0.626-2.383 0.626-6.393 0-3.53 0.054-5.764-0.577-6.445-0.745-0.922-2.397-0.771-4.406-0.771zm-4.284 18.133c-0.729-0.244-0.987-0.882-0.987-1.399v-19.107c0-0.666 0.258-1.154 0.987-1.393 0.588-0.198 2.719-0.275 7.594-0.275 4.193 0 6.045 0.438 7.402 1.845 1.769 1.833 1.855 5.141 1.855 9.501 0 4.706 7e-3 7.803-1.709 9.465-1.448 1.402-4.401 1.723-7.813 1.723-4.002 0-6.602-0.129-7.329-0.36" fill="#1e2831"/></g></g></g>
</g></svg>
