<svg width="800" height="800" version="1.1" viewBox="0 0 211.67 211.67" xmlns="http://www.w3.org/2000/svg">
 <g transform="translate(126.24 118.02)" stroke-width=".26458">
  <path class="cls-1" d="m-126.24-118.02h30.239v211.67h-30.239z" fill="#8400e0"/>
  <path class="cls-2" d="m-96.005-118.02h30.239v211.67h-30.239z" fill="#007fff"/>
  <path class="cls-3" d="m-65.768-118.02h30.239v211.67h-30.239z" fill="#00fefe"/>
  <path class="cls-4" d="m-35.529-118.02h30.239v211.67h-30.239z" fill="#7bff1f"/>
  <path class="cls-5" d="m-5.2924-118.02h30.239v211.67h-30.239z" fill="#ff0"/>
  <path class="cls-6" d="m24.947-118.02h30.239v211.67h-30.239z" fill="#ff8000"/>
  <path class="cls-7" d="m55.183-118.02h30.239v211.67h-30.239z" fill="#e50000"/>
  <path d="m-126.24 30.149h211.67v63.5h-211.67z"/>
  <g fill="#fff">
   <path class="cls-8" d="m-41.771 45.672h-45.297a0.54769 0.54769 0 0 0-0.60325 0.6006v30.506a0.55298 0.55298 0 0 0 0.60325 0.6059h45.297c13.306 0 20.021-4.4212 20.021-15.957 0-11.456-6.7151-15.756-20.021-15.756zm-11.729 25.884h-14.19c-0.40217 0-0.48419-0.1614-0.48419-0.48419v-19.092c0-0.3175 0.08202-0.48154 0.48419-0.48154h14.19c8.4376 0 11.816 2.4104 11.816 10.009 0 7.5988-3.3787 10.049-11.816 10.049z"/>
   <path class="cls-8" d="m49.704 76.099-13.102-9.2445c-0.32279-0.24341-0.52917-0.36248-0.52917-0.52916 0-0.16669 0.12171-0.24342 0.40482-0.24342 6.6146 0 11.774-3.093 11.774-9.9245s-4.4053-10.485-12.57-10.485h-49.636a0.54504 0.54504 0 0 0-0.60061 0.6006v30.506a0.55033 0.55033 0 0 0 0.60061 0.6059h18.256a0.55033 0.55033 0 0 0 0.60325-0.6059v-7.2337c0-0.36247 0.1217-0.48154 0.48418-0.48154h10.512c0.52917 0 0.72231 0.0397 1.0848 0.32279l9.1255 7.5565a1.7462 1.7462 0 0 0 1.2832 0.44186h22.712q0.48419 0 0.48419-0.36513c0.0106-0.32014-0.55298-0.67998-0.88635-0.92075zm-28.453-12.7h-15.825c-0.36248 0-0.48419-0.1217-0.48419-0.48154v-10.938c0-0.35984 0.12171-0.48154 0.48419-0.48154h15.835c5.3075 0 7.5565 1.4499 7.5565 5.8208 0 4.4291-2.249 6.0775-7.5565 6.0775z"/>
  </g>
  <path d="m49.77-35.78c-0.68262-1.4499-1.5002-4.0984-7.9534-0.73819 0.35983-2.2966-0.13494-9.9748-6.8315-11.888 1.5875-6.9162 2.8178-11.808 3.3893-14.459 0.71173-3.2782 0.6006-3.6618-0.49213-5.6012-3.9688-7.0511-6.9321-10.186-9.0911-10.186-2.0505 0-4.4979 1.651-13.372 7.4083-2.4077-9.8954-2.4606-13.695-5.5219-13.695-2.1828 0-4.7281 1.942-11.34 6.178-3.2544-6.7786-4.6196-10.634-7.0247-10.634-2.4871 0-3.937 2.3812-11.533 11.017-0.92869-5.8499-0.52917-5.6859-2.0214-7.3263-1.8045-1.9659-7.7364-5.6832-10.988-5.6832-2.712 0-5.3314 4.8154-10.808 13.658-1.8336-7.2152-8.6069-11.578-18.759-11.774-6.9003-0.13494-15.296 2.4818-20.981 5.3446a0.2884 0.2884 0 0 1-0.07144 0.0291c-0.32279 0.16404-0.635 0.33602-0.93927 0.49742-0.16669 0.0926-0.32279 0.17462-0.4789 0.26458-0.1561 0.08996-0.26458 0.1561-0.4154 0.23548-0.32015 0.18256-0.63235 0.37042-0.9234 0.55827-0.29104 0.18785-0.54769 0.3519-0.79375 0.52917a0.72496 0.72496 0 0 0-0.10319 0.0635c-2.4765 1.7198-3.9026 3.519-2.3812 6.7628l11.454 24.77c-2.9236 2.0241-4.8869 4.9054-4.8869 9.099 0 2.0796 0.48948 4.6752 1.6933 7.9005-6.0695 1.0372-12.872 5.9558-12.872 16.478 0 11.97 8.3635 22.548 22.355 22.548 6.3156 0 11.261-3.0612 11.261-3.0612s3.9052 5.5748 12.298 5.5748c6.2045 0 11.89-3.2253 14.023-8.9085 3.0612 0.62971 4.0719 0.87577 5.4663 0.87577 1.6933 0 2.3812-0.79375 2.9501-3.0903a64.648 64.648 0 0 0 1.3679-7.7867l4.8366 4.4979c1.6669 1.5584 2.4871 1.7462 3.4978 1.7462 1.2303 0 4.0428-1.9923 7.4612-5.8208 3.7438 5.1091 5.6568 8.2021 8.0089 8.2021 2.0479 0 6.9956-2.9236 11.234-6.0854 0 0 6.8289 7.8714 17.404 7.8714 14.129 0 24.159-10.112 24.159-23.693-8e-3 -5.7203-1.5478-10.094-2.2754-11.679z"/>
  <path class="cls-8" d="m45.616-23.4-8.636-8.0989c-0.57414-0.51594-0.95514-0.35454-1.3388 0.0291-1.6933 1.6933-2.7622 2.6247-4.8657 5.0271-0.35454 0.4101-0.37835 0.76729 0 1.2568l2.6273 3.212c-1.2568 2.0505-3.638 3.2517-6.3156 3.2517-4.8366 0-8.337-3.7968-8.337-8.9641 0-3.9899 2.4871-6.8051 5.8208-6.8051 1.4764 0 2.7622 0.73819 3.5004 1.2859 0.40746 0.26458 0.76465 0.32808 1.1483-0.32808l4.3445-7.2258a0.74083 0.74083 0 0 0-0.35983-1.1748 16.325 16.325 0 0 0-5.7917-1.2859l2.4474-19.672a1.4922 1.4922 0 0 0-0.30163-1.2859c-2.0188-2.757-5.2017-5.3234-6.35-6.1965a1.2594 1.2594 0 0 0-0.76464-0.32808 1.3917 1.3917 0 0 0-0.84667 0.381l-13.856 11.475 1.1721-12.025a1.7674 1.7674 0 0 0-0.35718-1.4208 18.256 18.256 0 0 0-2.5374-2.7622 0.70908 0.70908 0 0 0-1.0134 0.05556c-1.2303 1.2303-4.5641 5.0826-8.3635 9.0461l-3.3893-14.785c-0.10848-0.43656-0.43392-0.57415-0.87313-0.49212-1.2277 0.2196-3.7042 0.70908-4.9212 1.0583a1.1906 1.1906 0 0 0-0.9525 0.84667c-1.2621 3.0083-4.7863 13.42-7.4348 20.77l-4.7731-20.817c-0.1905-0.79375-0.43921-0.89958-0.92869-1.0927a28.017 28.017 0 0 0-7.4348-1.7489 0.84667 0.84667 0 0 0-0.95514 0.52917l-11.885 23.045c-2.5823-1.4922-6.0854-3.4158-6.0854-3.4158a13.041 13.041 0 0 0 3.3152-8.337 10.086 10.086 0 0 0-3.474-7.7788 3.8656 3.8656 0 0 0-0.39158-0.3175c-0.2249-0.17992-0.46831-0.34925-0.72231-0.52917a10.999 10.999 0 0 0-3.6142-1.5108c-0.16669-0.03969-0.34131-0.06879-0.50535-0.0979a11.877 11.877 0 0 0-2.2251-0.22754c-5.7229-0.08467-13.867 3.5401-18.989 7.3422-0.4736 0.34925-0.52917 0.62177-0.32279 1.2594 2.4342 6.1965 7.7417 18.624 10.803 25.76 0.24871 0.56356 0.4736 1.0954 0.69321 1.5875 0.02381 0.06086 0.05027 0.11906 0.07673 0.17992-4.4185 1.651-6.7786 5.3816-6.7495 9.353 0.05556 8.6889 9.4853 14.92 9.4853 20.77 0 2.1167-1.4526 3.3338-3.474 3.3338-2.6776 0-4.5641-2.5135-4.5641-5.8499a10.168 10.168 0 0 1 0.79375-3.8523 0.69321 0.69321 0 0 0-0.33073-0.92869c-1.7224-0.92869-6.6675-3.8259-8.7154-4.863-0.43921-0.2196-0.87842-0.24606-1.1509 0.43392-0.57415 1.4764-1.8018 4.7308-1.8018 8.5831 0 9.1572 6.0854 16.933 16.587 16.933 4.8101 0 10.165-2.4315 11.724-8.7312 1.233 4.4556 4.318 8.5011 9.8663 8.5011 5.6303 0 9.5938-3.0903 10.319-10.634l7.6226 1.0398c0.4101 0.0556 0.62971-0.11113 0.62971-0.52917l-0.05027-8.2153c1.3229-0.49212 2.876-1.0583 5.7388-1.8521l2.9474 7.583a0.56621 0.56621 0 0 0 0.7673 0.30163c3.2253-0.95515 5.3261-1.5663 6.4505-2.0029 0.40746-0.16669 0.26458-0.57415 0.18785-0.73819-0.43656-0.90223-0.90223-1.7754-1.3388-2.6458l6.35 1.5028a0.44715 0.44715 0 0 0 0.54769-0.49212l-0.11113-14.211c1.1483 3.6618 5.0562 15.933 6.8342 21.754a0.48683 0.48683 0 0 0 0.68262 0.29898 63.765 63.765 0 0 0 6.3976-2.4844 1.0583 1.0583 0 0 0 0.7329-0.95515l1.6431-11.398c0.49212 10.247 7.8687 16.288 15.685 16.288 9.2604 0 12.025-8.7154 12.025-8.7154l2.704 3.5772c0.26459 0.38364 0.74348 0.57679 1.0583-0.0265l4.6487-8.636a0.91017 0.91017 0 0 0-0.17727-1.1668zm-22.344-40.989-3.175 11.139-4.9689-2.7808zm-55.163-10.501 1.0266 13.152-5.7415-0.61383zm-37.282 3.5057c1.4949-0.77523 3.5322-1.6589 5.6991-1.6484a5.7732 5.7732 0 0 1 1.7886 0.2831c0.01323 0 0.02646 0.01852 0.03704 0.01588a1.823 1.823 0 0 1 0.39158 0.15346 3.8761 3.8761 0 0 1 1.2594 0.82815 4.1275 4.1275 0 0 1 1.2621 3.1618c-0.07673 3.5745-4.4979 6.1198-5.2917 6.6754zm40.825 48.368 0.21696-12.494 4.3127 10.816zm-29.694-28.258-3.9688-6.9294 0.06615 0.05556 6.514 5.2176 5.5404 4.4291 7.5671 6.0457a0.66675 0.66675 0 0 0 0.32808 0.16669 0.127 0.127 0 0 0 0.07673 0.01587 0.51065 0.51065 0 0 0 0.4789-0.26458c2.4924-3.6063 4.8048-9.2604 4.8048-9.2604a0.79375 0.79375 0 0 0-0.3175-0.99748l-2.5082-1.4579 1.6933-4.2519 7.3263 2.077 1.1721 8.3344c0.11112 0.73819 0.41275 0.76465 0.92869 0.82021a84.518 84.518 0 0 0 9.2525 0.61648c0.54769 0 0.90487-0.08202 0.71173-0.90223l-0.79375-3.4396c2.704 0.4101 5.0562 0.65617 6.6146 0.73819 0.46567 0.02646 0.79375-0.11112 0.90488-0.73819l2.5823-15.69 2.1034 12.462c0.082 0.48948 0.54769 0.67998 0.90223 0.26458l6.6675-8.255c0.0265 0-0.35454 0.71173-2.3522 11.343-0.0794 0.43656-0.0265 0.79375 0.38365 1.0398 1.3414 0.79375 5.2202 2.622 7.0511 3.3867 0.41011 0.16404 0.84667 0.13758 0.90223-0.54504l0.3281-3.4978c0.29896 0.21696 1.3044 0.79375 1.5266 0.93398 0.26458 0.1905 0.62442 0.32808 0.98161-0.08202l3.5454-3.8867 6.223 2.9766-2.0082 6.5511c-0.1905 0.57415 0.045 0.762 0.29898 0.90223a11.594 11.594 0 0 0 2.2781 1.0927c-3.7439 1.4208-7.1041 4.2095-8.8556 8.7445l0.67998-4.6725c0.11377-0.73819-0.24342-0.84931-0.84402-0.84931l-7.1596 0.13759c-0.54769 0-0.73819 0.21696-0.73819 0.82021l-0.29898 13.721-5.5562-17.462a0.762 0.762 0 0 0-0.84931-0.57415 60.899 60.899 0 0 0-7.1861 0.98425c-0.54768 0.10848-0.65881 0.35719-0.76464 0.76465-0.79375 2.9792-2.7622 11.314-4.1275 16.618-3.0083-5.9293-5.9584-11.808-8.7736-17.793-0.21695-0.46567-0.57414-0.52917-1.0583-0.35454-1.8521 0.62706-5.5562 1.9103-7.5988 2.6776-0.43656 0.16404-0.52917 0.35454-0.57679 0.76464-0.40746 3.0083-1.7462 16.206-2.2939 23.125-0.13494-4.3471-1.1192-9.7896-3.0877-16.484-0.08202-0.30162-0.43656-0.52917-0.90223-0.26458l-7.2416 3.9344c-0.54769 0.30162-0.46567 0.73819-0.32808 1.0583 1.3652 3.1988 3.5798 9.7023 3.5798 13.721 0 2.0214-0.52917 3.4131-1.9659 3.4131-1.5875 0-2.2146-2.3812-2.1616-5.0535 0.0291-0.79375-0.1905-1.0954-0.92869-0.95779-1.8521 0.35454-4.9477 0.93133-6.858 1.3944-0.68527-8.5804-8.9667-13.121-8.9667-18.883 0-1.5055 1.0134-2.6802 3.0083-2.6802 1.5875 0 2.5956 1.2012 3.1988 2.7887 0.92604 2.3812 1.1456 5.6832 1.2277 6.9665 0.02646 0.46567 0.26458 0.63235 0.79375 0.46567l6.6966-1.995c0.54504-0.1614 0.65617-0.46302 0.65617-0.92604 0.10583-6.641-2.5691-12.909-7.8105-15.526l1.9738-0.87312a0.49742 0.49742 0 0 0 0.3466-0.64029z" fill="#fff"/>
 </g>
</svg>
