<svg version="1.1" viewBox="0 0 1e3 1e3" xmlns="http://www.w3.org/2000/svg">
 <g transform="translate(-80 407.64)">
  <path d="m80 286.36v-694h1e3v694l-166 166h-674z" fill="#54c0fc" fill-rule="evenodd"/>
  <path d="m80 592.36h1e3v-306h-1e3z"/>
  <g transform="matrix(21.649 0 0 -21.649 436.73 482.05)">
   <path d="m-0.15927 0h-2.7707c-0.083 0-0.099 0.033-0.099 0.1v3.941c0 0.066 0.016 0.1 0.099 0.1h2.7707c1.742 0 2.439-0.498 2.439-2.066 0-1.569-0.697-2.075-2.439-2.075m2.422 5.344h-9.1927c-0.083 0-0.125-0.05-0.125-0.124v-6.299c0-0.075 0.042-0.124 0.125-0.124h9.1927c2.746 0 4.133 0.912 4.133 3.294 0 2.365-1.387 3.253-4.133 3.253" fill="#fff"/>
  </g>
  <g transform="matrix(21.649 0 0 -21.649 770.87 445.59)">
   <path d="m-0.34786 0h-3.1418c-0.075 0-0.1 0.025-0.1 0.099v2.258c0 0.074 0.025 0.099 0.1 0.099h3.1418c1.096 0 1.56-0.299 1.56-1.203 0-0.913-0.464-1.253-1.56-1.253m5.7599-2.622-2.705 1.908c-0.067 0.05-0.108 0.075-0.108 0.108s0.025 0.05 0.083 0.05c1.369 0 2.431 0.639 2.431 2.049 0 1.403-0.913 2.166-2.597 2.166h-10.007c-0.083 0-0.125-0.049-0.125-0.124v-6.298c0-0.075 0.042-0.125 0.125-0.125h3.771c0.083 0 0.125 0.05 0.125 0.125v1.493c0 0.075 0.024 0.1 0.099 0.1h2.0567c0.108 0 0.15-8e-3 0.224-0.067l1.8277-1.559c0.092-0.075 0.158-0.092 0.265-0.092h4.6173c0.067 0 0.1 0.025 0.1 0.075 0 0.066-0.117 0.141-0.183 0.191" fill="#fff"/>
  </g>
  <g transform="matrix(50.553 0 0 -50.553 459.1 56.434)" fill="#fff">
   <path d="m0 0v-1.299c0-0.087 0.046-0.133 0.133-0.133h5.486c0.087 0 0.133 0.046 0.133 0.133v1.489c0 0.087-0.046 0.128-0.133 0.128h-2.476c-0.053 0-0.064 0.017-0.064 0.035 0 0.017 6e-3 0.042 0.035 0.065l0.991 0.829c1.09 0.91 1.537 1.386 1.537 2.482 0 1.078-0.899 2.134-2.899 2.134-1.381 0-2.326-0.464-2.563-0.621-0.035-0.023-0.07-0.046-0.07-0.104v-1.653c0-0.063 0.011-0.098 0.064-0.098 0.017 0 0.034 6e-3 0.069 0.023 0.395 0.197 1.427 0.649 2.349 0.649 0.637 0 0.986-0.197 0.986-0.591 0-0.395-0.284-0.638-0.946-1.189l-2.586-2.169c-0.023-0.023-0.046-0.046-0.046-0.11" fill="#fff"/>
  </g>
 </g>
</svg>
