<svg width="1e3" height="1e3" version="1.1" xmlns="http://www.w3.org/2000/svg">
 <g transform="translate(-80 407.64)">
  <path d="m80 286.36v-694h1e3v694l-166 166h-674z" fill="#00afff" fill-rule="evenodd"/>
  <path d="m80 592.36h1e3v-306h-1e3z"/>
  <g transform="matrix(21.649 0 0 -21.649 436.73 482.05)">
   <path d="m-0.15927 0h-2.7707c-0.083 0-0.099 0.033-0.099 0.1v3.941c0 0.066 0.016 0.1 0.099 0.1h2.7707c1.742 0 2.439-0.498 2.439-2.066 0-1.569-0.697-2.075-2.439-2.075m2.422 5.344h-9.1927c-0.083 0-0.125-0.05-0.125-0.124v-6.299c0-0.075 0.042-0.124 0.125-0.124h9.1927c2.746 0 4.133 0.912 4.133 3.294 0 2.365-1.387 3.253-4.133 3.253" fill="#fff"/>
  </g>
  <g transform="matrix(21.649 0 0 -21.649 770.87 445.59)">
   <path d="m-0.34786 0h-3.1418c-0.075 0-0.1 0.025-0.1 0.099v2.258c0 0.074 0.025 0.099 0.1 0.099h3.1418c1.096 0 1.56-0.299 1.56-1.203 0-0.913-0.464-1.253-1.56-1.253m5.7599-2.622-2.705 1.908c-0.067 0.05-0.108 0.075-0.108 0.108s0.025 0.05 0.083 0.05c1.369 0 2.431 0.639 2.431 2.049 0 1.403-0.913 2.166-2.597 2.166h-10.007c-0.083 0-0.125-0.049-0.125-0.124v-6.298c0-0.075 0.042-0.125 0.125-0.125h3.771c0.083 0 0.125 0.05 0.125 0.125v1.493c0 0.075 0.024 0.1 0.099 0.1h2.0567c0.108 0 0.15-8e-3 0.224-0.067l1.8277-1.559c0.092-0.075 0.158-0.092 0.265-0.092h4.6173c0.067 0 0.1 0.025 0.1 0.075 0 0.066-0.117 0.141-0.183 0.191" fill="#fff"/>
  </g>
  <path d="m465.03 58.263v70.438h277.84v-89.026h-126.2l57.72-54.785c25.445-26.706 59.932-59.99 59.932-115.16 0-63.508-47.446-109.57-131.87-109.57-93.562 0-147.2 57.48-147.2 135.7h98.122c0-32.371 18.115-51.94 44.235-51.94 22.495 0 38.706 12.369 38.706 34.315 0 27.778-23.963 48.425-45.408 68.576z" fill="#fff"/>
 </g>
</svg>
