<svg width="263.11pt" height="50.12pt" version="1.1" viewBox="0 0 263.11 50.12" xmlns="http://www.w3.org/2000/svg">
 <g transform="translate(-8.61 -7.9158)" fill="#ca1261">
  <path d="m54.47 8.57c7.45-1.18 15.13-0.68 22.51 0.83l-1.15 9.35c-5.39-1.03-10.98-1.97-16.45-1.17-1.9825 0.27989-2.4539 2.216-2.5045 3.9943-0.01411 0.8495 0.02823 1.6653 0.11178 2.4539 0.42034 2.0863 2.4344 2.8617 4.546 3.3878 2.1327 0.48209 4.2414 1.0606 6.1763 1.601 4.3654 1.2228 9.109 3.0349 9.9704 7.913 0.44 5.29 1.24 11.27-1.55 16.07-3.15 4.47-9.15 4.94-14.14 5.02-5.74 0.14-11.59-0.65-16.85-3.05l1.81-8.47c5.42 1.61 11.08 2.79 16.76 2.15 3.6388-0.20865 4.1432-4.4015 3.3036-7.428-0.4035-2.0594-2.5094-2.6532-4.1363-3.1931-4.9074-1.6112-10.53-1.6815-14.357-5.5089-2.3051-2.9889-2.5082-6.748-2.3959-10.454 0.047029-1.5513 0.067636-3.0934 0.17589-4.5658 0.18-4.52 3.78-8.21 8.17-8.93z"/>
  <path d="m8.61 9.015h30.11v9.53h-19.335v8.93h17.85v9.54h-17.85v10.445h19.335v9.515h-30.11z"/>
  <path d="m82.755 8.99h36.505v9.53h-12.805v38.435h-10.85v-38.435h-12.85z"/>
  <path d="m124.6 8.98h21.385c4.18 0.03 8.91 0.9 11.67 4.38 2.49 2.93 2.66 7 2.61 10.66-0.12 4.21 0.54 8.81-1.77 12.58-1.1 1.98-3.05 3.23-4.93 4.4l11.36 15.995h-13.04l-10.36-14.59h-6.115v14.59h-10.81v-48.015m10.81 24.006h6.8598c1.495 0 2.9805-0.13348 4.4452-0.48581 2.85-0.64 2.68-4.18 2.75-6.47-0.0475-1.9327 0.18729-4.5117-1.1145-6.0323-0.85701-0.94932-1.9634-1.0914-3.0896-1.2786-0.89683-0.1249-1.8217-0.17493-2.9944-0.17493h-6.8564z"/>
  <path d="m183.03 9.045h14.67l14.5 47.93h-11.43l-2.56-8.915h-15.77l-2.42 8.915h-11.48l14.49-47.93m1.99 29.94h10.56l-5.28-19.155z"/>
  <path d="m218.59 9.085h21.46c5.8 0.14 12.16 3.655 13.01 9.845 0.41 6.01 0.05 12.05 0.19 18.07-0.24 4.36 0.75 9.01-1.17 13.11-2.34 4.81-8 6.835-13.06 6.905h-20.43v-47.93m10.805 9.4517v28.928h5.6304c1.6426 0 3.2665-0.21034 4.8246-0.77479 2.64-1.02 2.5337-4.31 2.5937-6.66v-13.673c0-2.5049 0.0869-4.847-1.7079-6.415-1.3017-1.1153-3.1299-1.4056-5.0573-1.4056z"/>
  <path d="m260.91 9.03h10.81v47.945h-10.81z"/>
 </g>
</svg>
