<svg width="824.29" height="220" enable-background="new 0 0 1000 611.1998291" version="1.1" viewBox="0 0 824.29 220" xml:space="preserve" xmlns="http://www.w3.org/2000/svg">
<path d="m526.3 220h-297.84c-3.9411 0-7.0662-3.1704-7.0662-7.1678l5.3e-4 -205.66c0.0524-3.8607 3.1455-7.1689 7.095-7.1689h297.84c3.9396 0 7.0651 3.3082 7.0651 7.1678v205.66c0 3.9976-3.125 7.1678-7.0651 7.1678" fill="#d50032" stroke-width="3.4953"/><g transform="matrix(.36352 0 0 .36352 0 -2.1858)" fill="#171f50"><path d="m277.36 177.64h-133.87v-151.97c0-10.824 8.833-19.657 19.657-19.657h349.15c10.845 0 19.656 8.8759 19.656 19.721l-0.0211 85.187c0 11.711-7.3174 20.133-18.964 20.133h-235.6z"/><path d="m513.02 611.2h-374.3l138.64-125h235.19c11.301 0 19.462 9.5689 19.462 19.505v85.836c0 10.846-7.8578 19.656-18.682 19.656"/><polygon points="175.46 416.99 277.36 486.2 277.36 373.5 455.03 297.84 277.36 297.84 277.36 177.64 174.42 297.84 0 297.84 111.36 373.5 15.738 486.2"/></g><path d="m297.74 59v41.341h-41.341v24.318h41.341v41.341h24.318v-41.341h41.341v-24.318h-41.341v-41.341z" fill="#fff" stroke-width="5.2376"/><path d="m405.47 97.51 41.312-36.414h-68.489v-26.096h106.54v24.46l-40.766 35.331c22.829 0.549 45.113 17.943 45.113 46.203 0 26.096-20.654 50.006-57.617 50.006-35.331 0-56.528-22.829-58.161-48.372l28.808-5.9844c1.0871 16.856 13.046 28.265 29.353 28.265 17.938 0 27.722-11.409 27.722-24.46 0-17.394-13.589-24.998-26.634-24.998-4.892 0-9.7839 1.0817-13.589 3.256z" fill="#fff" fill-rule="evenodd" stroke-width="2.6878"/><g transform="translate(-154.24 293.24)"><g transform="matrix(5.496 0 0 5.496 296.34 -3589.9)" color="#000000" fill="#171f50"><path d="m105.99 599.84v20.629c3.02-0.017 6.04 0.038 9.06-0.036 3.221-0.153 6.397-2 7.834-4.94 1.717-3.417 1.661-7.715-0.224-11.05-1.636-2.945-5.04-4.608-8.346-4.591-2.773-0.017-5.547-3e-3 -8.32-8e-3zm4.28 4.254c1.754 0.026 3.514-0.062 5.264 0.063 1.994 0.201 3.349 2.053 3.763 3.889 0.62 2.505 0.113 5.498-1.89 7.26-1.233 1.107-2.964 0.933-4.496 0.939h-2.641v-12.152z"/><path d="m85.53 599.85v20.621h4.281v-8.152h7.57v8.152h4.281v-20.621h-4.281v8.188h-7.57v-8.188z"/></g></g></svg>
