<svg enable-background="new 0 0 1000 611.1998291" version="1.1" viewBox="0 0 531.4 220" xml:space="preserve" xmlns="http://www.w3.org/2000/svg">
<path d="m524.3 220h-295.84c-3.9411 0-7.0662-3.1704-7.0662-7.1678l5.3e-4 -205.66c0.0524-3.8607 3.1455-7.1689 7.095-7.1689h295.84c3.9396 0 7.0651 3.3082 7.0651 7.1678v205.66c0 3.9976-3.125 7.1678-7.0651 7.1678" fill="#d50032" stroke-width="3.4953"/><g transform="matrix(.36352 0 0 .36352 0 -2.1859)" fill="#171f50"><path d="m277.36 177.64h-133.87v-151.97c0-10.824 8.833-19.657 19.657-19.657h349.15c10.845 0 19.656 8.8759 19.656 19.721l-0.0211 85.187c0 11.711-7.3174 20.133-18.964 20.133h-235.6z"/><path d="m513.02 611.2h-374.3l138.64-125h235.19c11.301 0 19.462 9.5689 19.462 19.505v85.836c0 10.846-7.8578 19.656-18.682 19.656"/><polygon points="174.42 297.84 0 297.84 111.36 373.5 15.738 486.2 175.46 416.99 277.36 486.2 277.36 373.5 455.03 297.84 277.36 297.84 277.36 177.64"/></g><path d="m297.74 59v41.341h-41.341v24.318h41.341v41.341h24.318v-41.341h41.341v-24.318h-41.341v-41.341z" fill="#fff" stroke-width="5.2376"/><path d="m377.54 92.023c-0.53658-2.141-1.0678-5.9027-1.0678-9.1165 0-26.298 19.312-49.906 54.19-49.906 33.272 0 53.658 22.005 53.658 47.757 0 19.859-10.732 35.957-28.976 46.687l-29.513 18.238c-6.4336 4.2981-12.342 8.591-14.482 15.561h73.506v25.756h-109.46c0-26.287 9.122-46.682 35.952-62.778l24.678-15.556c12.884-8.0487 18.249-16.639 18.249-27.371 0-11.799-8.0487-22.531-24.146-22.531-17.171 0-25.219 11.799-25.219 26.83 0 2.683 0.5312 5.3658 1.0732 8.0487z" fill="#fff" fill-rule="evenodd" stroke-width="2.6533"/></svg>
