<svg width="387.01pt" height="167.1pt" version="1.1" viewBox="0 0 387.01 167.1" xmlns="http://www.w3.org/2000/svg">
 <g transform="translate(-286.11 -186.39)">
  <path transform="scale(.75)" d="m492.88 249.04a110.89 110.89 0 0 0-110.89 110.89 110.89 110.89 0 0 0 110.89 110.89 110.89 110.89 0 0 0 110.89-110.89 110.89 110.89 0 0 0-110.89-110.89zm-20.01 19.215c7.3119 0.0959 14.727 2.0261 21.258 5.8359 14.737 8.7081 23.446 22.775 34.164 22.775 3.3493 0 9.3769-2.6784 8.707-10.047-0.66987-8.0383-12.728-15.407-24.785-8.0391l-2.0078-4.0195c10.718-8.0383 31.483-4.6877 34.832 13.398 2.0096 9.378-3.3497 26.123-24.115 27.463-3.3493 2.6794-6.6992 9.3796-6.6992 16.078 0 4.689 1.34 8.7075 3.3496 13.396 1.3397-8.0383 8.038-14.736 17.416-14.736 8.7081 0 16.078 6.0281 14.738 14.066 0 9.378-6.6998 14.066-12.729 14.066-6.6986 0-12.057-5.358-12.057-11.387 0-4.689 2.0099-6.6994 3.3496-8.0391 2.0096-1.3397 3.3478-2.0098 5.3574-2.6797h0.66992c0-0.66987-2.008-1.3398-4.0176-0.66993-5.3588 0.66987-8.0391 6.0295-8.709 8.0391-0.66986 2.6794-1.3398 6.0277-0.66992 10.047 1.3397 6.0287 4.6896 10.719 6.6992 14.738 4.0191 6.6986 11.387 20.765 10.717 36.842 0 8.0383-2.6801 15.407-6.6992 22.775-6.0287 11.388-22.103 23.445-41.529 23.445s-38.182-10.049-44.881-30.814c-2.6794-8.0383-3.3491-20.095 2.0098-33.492 2.6794-5.3589 5.3578-10.047 9.377-16.076 2.0096-2.6794 4.6895-7.3695 4.6895-11.389 0-6.0287-4.6896-6.6992-6.6992-6.6992-6.0287 0.66987-12.056 9.3781-8.0371 20.766l-4.0195 2.0098c-5.3589-10.718-0.67077-24.784 10.717-28.133 10.048-3.3493 21.436 2.0088 25.455 12.057 6.0287 14.067-3.35 28.134-7.3691 36.842-14.737 28.134-0.66992 50.24 19.426 50.24 20.096 0 32.823-22.776 20.096-49.57-7.3684-16.077-16.746-30.812-16.076-47.559 0.66985-16.077 8.7083-26.796 21.436-34.164-23.445-3.3493-34.832-22.774-49.568-27.463-2.6794-0.66985-11.387-2.0093-17.416 3.3496-4.689 4.0191-8.7087 12.056-5.3594 21.434 2.6794 8.0383 10.048 13.398 18.756 13.398 6.6986 0 16.077-4.0186 20.096-14.736l4.6895 1.3379c-2.6794 9.378-12.728 19.428-27.465 18.088-10.718-1.3397-18.756-8.0399-22.105-16.748-4.0191-11.388-2.0089-24.784 6.6992-34.832 7.1591-7.5568 17.624-11.336 28.311-11.195z" stroke="#fff" stroke-width="1.0227" style="paint-order:stroke fill markers"/>
  <path d="m487.08 219.52h84.905v20.04l-28.7-0.03v78.745h-27.275v-78.745l-28.93 0.03z"/>
  <path d="m573.9 219.52h28.35l22.775 69.15 22.775-69.15h25.32l-35.88 98.755h-27.04z"/>
 </g>
</svg>
