<svg width="600pt" height="600pt" version="1.1" viewBox="0 0 600 600" xmlns="http://www.w3.org/2000/svg">
 <path d="m300 0c-79.565 1e-5 -155.87 31.607-212.13 87.868-56.261 56.261-87.868 132.57-87.868 212.13 0 79.565 31.607 155.87 87.868 212.13 56.261 56.261 132.57 87.868 212.13 87.868 20.763-0.1171 41.457-2.3894 61.751-6.7803-3.8971-4.9927-7.0578-10.587-9.0513-16.606-2.404-7.1552-3.0576-14.937-1.4652-22.338 1.8513-9.0634 6.9096-17.293 13.674-23.536 11.349-10.441 26.554-15.806 41.693-17.491-6.1505-10.037-9.4886-22.119-7.7558-33.885 1.2503-8.9801 5.5891-17.408 11.849-23.922 4.9836-5.2337 11.125-9.2963 17.727-12.187 17.114-7.4579 36.701-7.6987 54.627-3.2196 6.5629-12.972 19.289-21.768 32.744-26.489 9.9386-3.4723 20.435-5.0547 30.936-4.9643 10.431 0.09 20.867 1.8319 30.769 5.0106 14.806-36.044 22.449-74.626 22.501-113.59 0-79.565-31.607-155.87-87.868-212.13-56.261-56.261-132.57-87.868-212.13-87.868z" fill="#011e41" style="paint-order:stroke fill markers"/>
 <path d="m80.824 351.95c-9.396 0-17.909-2.3477-25.542-7.0462-7.6355-4.6955-13.484-10.795-17.55-18.295-4.0639-7.4962-6.0979-15.492-6.0979-23.985 0-7.4972 1.2879-14.408 3.8616-20.733 2.5748-6.3229 6.0071-11.539 10.3-15.652 4.2888-4.1093 9.167-7.3167 14.634-9.621 5.4642-2.3034 11.133-3.4561 17.007-3.4561 11.383 0 20.867 2.4406 28.457 7.3177 7.588 4.8801 11.383 10.797 11.383 17.752 0 3.3446-0.99584 6.0101-2.9814 7.9956-1.9886 1.9886-4.6067 2.9814-7.8605 2.9814-3.2517 0-6.1887-0.902-8.8068-2.71-2.6212-1.8069-4.8781-3.9978-6.7759-6.5726-1.8968-2.5737-3.7264-5.1701-5.489-7.7923-1.7616-2.6192-3.84-4.8307-6.2331-6.6387-2.3942-1.8069-4.9926-2.7109-7.7913-2.7109-4.7904 0-8.6283 2.2146-11.519 6.6396-2.8916 4.4272-4.3363 10.12-4.3363 17.075 0 13.371 3.0257 24.845 9.0792 34.419 6.0514 9.5776 13.279 14.365 21.682 14.365 3.0701 0 5.6459-0.4509 7.7243-1.356v-17.751c0-2.3477-1.2662-4.6088-3.7935-6.7759-2.5314-2.1692-3.7945-3.7935-3.7945-4.8781v-0.5428c0-0.8122 0.33848-1.4664 1.0154-1.9649 0.678-0.4953 1.5118-0.744 2.5077-0.744l30.218 0.1352c2.1692 0 3.2517 0.903 3.2517 2.7089v0.5439c0 1.0825-1.0825 2.7089-3.2517 4.8771-2.1682 2.1681-3.2517 4.4281-3.2517 6.7758v15.719c0 3.7935-1.8968 7.1814-5.6913 10.163-8.2227 6.5056-18.34 9.7573-30.355 9.7573m86.999-6.6403c5.78 0 8.6726-5.5571 8.6726-16.667 0-4.0659-0.56655-8.8966-1.6934-14.499-1.131-5.6005-3.0278-10.885-5.6923-15.854-2.6656-4.9689-5.6232-7.4539-8.8759-7.4539-3.163 0-5.4199 1.4014-6.7759 4.2001-1.3539 2.8018-2.0319 7.0463-2.0319 12.739 0 2.9814 0.35912 6.5055 1.0836 10.569 0.72237 4.0659 1.7151 8.1546 2.9814 12.264 1.2631 4.1113 3.003 7.588 5.2176 10.433 2.2125 2.8471 4.584 4.2692 7.1144 4.2692m-2.8462 6.6407c-10.481 0-19.357-3.229-26.628-9.6891-7.2723-6.4581-10.909-14.567-10.909-24.324s3.6129-17.819 10.842-24.188c7.2258-6.3693 15.808-9.554 25.747-9.554 10.299 0 19.06 3.2084 26.289 9.6221 7.2258 6.4136 10.841 14.546 10.841 24.392 0 9.7562-3.5231 17.819-10.569 24.188-7.0483 6.3692-15.584 9.5539-25.612 9.5539m79.543-6.6407c2.4385 0.092 4.4932-0.9009 6.166-2.9814 1.6708-2.0763 2.5066-4.877 2.5066-8.4012v-26.153c0-4.3363-1.2435-8.2433-3.7264-11.721-2.485-3.4777-5.3084-5.2176-8.4693-5.2176-6.6871 0-10.255 5.5561-10.706 16.667-0.18163 4.2465 0.2033 9.1701 1.1517 14.77 0.94838 5.6015 2.5748 10.819 4.8791 15.652 2.3033 4.8326 5.035 7.2959 8.1979 7.3847zm31.71-9.4858c0 2.26 0.90194 4.4962 2.7099 6.7088 1.8059 2.2135 2.7089 3.8616 2.7089 4.9452v0.5428c0 1.7172-1.0382 2.5737-3.1165 2.5737h-19.377c-2.3508 0-3.5231-1.129-3.5231-3.388v-1.2187c-4.2486 3.9762-9.7572 5.9627-16.532 5.9627-8.7634 0-16.284-3.0041-22.563-9.0132-6.2805-6.005-9.4177-14.295-9.4177-24.865 0-9.845 3.1609-17.954 9.4848-24.323 6.3228-6.3693 13.868-9.554 22.631-9.554 5.5097 0 10.164 1.2663 13.957 3.7946v-18.023c0-1.806-0.58925-3.3653-1.7626-4.6748-1.1733-1.3085-2.3704-2.4385-3.5902-3.388-1.2198-0.9483-1.8297-1.9648-1.8297-3.0484v-0.4076c0-1.7141 1.0382-2.8895 3.1176-3.5231l21.139-6.3683c3.9751-1.2642 5.9637-0.1806 5.9637 3.2528zm131.31-51.629c3.8843 0 6.9792 1.2663 9.2825 3.7946 2.3044 2.5304 3.456 5.7377 3.456 9.62 0 8.493-3.4787 12.738-10.435 12.738-2.7997 0-4.9245-0.6532-6.3672-1.9648-1.4478-1.3075-2.2837-2.777-2.5077-4.4045-0.22703-1.6253-0.70174-3.0928-1.4231-4.4034-0.72341-1.3085-1.808-1.9658-3.2528-1.9658-3.3436 0-5.0133 4.3363-5.0133 13.009v25.205c0 2.2611 1.1961 4.4973 3.5912 6.7088 2.3921 2.2146 3.5902 3.8617 3.5902 4.9452v0.5439c0 1.7172-1.0846 2.5737-3.2517 2.5737h-29.136c-2.1671 0-3.2517-0.8565-3.2517-2.5737v-0.5439c0-1.0835 0.90192-2.7306 2.71-4.9452 1.8069-2.2115 2.7099-4.4477 2.7099-6.7088v-26.965c0-1.807-0.54179-3.3426-1.6253-4.6067-1.0846-1.2652-2.1692-2.3488-3.2528-3.2538-1.0825-0.9019-1.6254-1.8968-1.6254-2.9803v-0.4076c0-1.5335 1.0371-2.8452 3.1165-3.9298l19.107-8.943c1.8059-0.6305 3.0701-0.678 3.7935-0.1352 0.72235 0.5417 1.0846 1.582 1.0846 3.1175v9.8904c3.0701-8.942 9.3042-13.414 18.7-13.414m45.803 6.6403c-2.712 0-4.9029 1.3539-6.5726 4.0649-1.6728 2.7089-2.5087 6.0978-2.5087 10.163 0 5.4209 0.67801 10.165 2.034 14.229l12.603-7.588c2.3477-1.6264 3.5221-3.9298 3.5221-6.9121 0-2.9804-0.74508-6.0505-2.2363-9.2145-1.4891-3.1609-3.7728-4.7418-6.8419-4.7418m25.068 38.348c0.99277-0.9928 2.1-1.2858 3.3198-0.8803 1.2198 0.4066 1.7832 1.3354 1.6934 2.7791-0.18162 4.518-2.8008 9.1267-7.8584 13.822-5.0608 4.6975-11.611 7.0462-19.651 7.0462-9.847 0-17.887-3.1609-24.12-9.4858-6.2331-6.3239-9.3496-14.589-9.3496-24.799 0-9.7551 3.2724-17.772 9.8243-24.053 6.5489-6.2775 14.386-9.4178 23.51-9.4178 8.2196 0 14.589 1.8968 19.107 5.6913 4.517 3.7946 6.7759 8.0876 6.7759 12.875 0 3.7935-1.7606 6.5943-5.2847 8.3992l-26.966 15.178c3.7027 5.8739 8.8522 8.8088 15.448 8.8088 2.7997 0 5.4416-0.5624 7.9265-1.6945 2.4839-1.1289 4.358-2.55 5.6242-4.2692m-157.87 15.854c2.0774 0 3.7708-0.9917 5.0825-2.9803 1.3075-1.9855 1.9638-4.2455 1.9638-6.7749l-0.54179-6.2331c-0.90402-7.4992-3.7058-11.248-8.4012-11.248-2.0804 0-3.7502 0.8369-5.0143 2.5077-1.2662 1.6728-1.8967 3.9091-1.8967 6.7078 0 5.0597 0.78943 9.3279 2.3715 12.805 1.5799 3.4798 3.7264 5.2166 6.4363 5.2166zm31.303-9.2144c0.27142 2.1692 0.79049 3.9091 1.5582 5.2176 0.76675 1.3106 1.5356 2.1475 2.3044 2.5077 0.76574 0.3612 1.4675 0.8132 2.1001 1.3549 0.63155 0.5418 0.94838 1.2188 0.94838 2.033 0 2.9814-5.1052 4.4705-15.313 4.4705-4.1557 0-7.2485-0.4974-9.2815-1.4891-2.033-0.9928-3.3209-2.6646-3.8627-5.0144-3.4344 4.6986-9.17 7.0463-17.21 7.0463-7.587 0-13.754-1.7605-18.496-5.2847-4.7429-3.5242-7.1144-8.6252-7.1144-15.313 0-6.5025 2.3477-11.586 7.0463-15.244 4.6965-3.6594 10.479-5.4891 17.346-5.4891 5.328 0 9.8914 1.1311 13.685 3.389v-0.4076c-0.90402-8.942-1.9195-14.993-3.0485-18.158-1.13-3.1609-3.3198-4.7419-6.5726-4.7419-2.0784 0-3.7491 0.9495-5.0133 2.8462-1.2662 1.8957-2.1919 3.9762-2.778 6.2331-0.5882 2.2589-1.6934 4.3363-3.3198 6.233-1.6274 1.8978-3.7946 2.8462-6.5045 2.8462-2.8018 0-5.0814-0.8142-6.844-2.4396-1.7605-1.6263-2.6429-3.7481-2.6429-6.3692 0-5.2383 2.6202-9.1907 7.8605-11.857 5.2393-2.6635 11.654-3.9968 19.242-3.9968 9.0328 0 16.508 2.4622 22.428 7.3847 5.9162 4.9256 9.4177 11.587 10.501 19.987zm168.63-17.82c-4.3363 0-7.9038-0.7327-10.705-2.2033-2.8008-1.4664-4.2011-3.3735-4.2011-5.7232 0-1.4438 0.43962-2.5304 1.3199-3.2528 0.88235-0.7224 2.0454-1.0836 3.4911-1.0836 1.5346 0 2.7533 0.4861 3.6583 1.4551 0.90402 0.9742 1.5128 2.035 1.8297 3.1847 0.31476 1.1527 0.85756 2.2145 1.6264 3.1846 0.76675 0.9742 1.7616 1.4582 2.9803 1.4582 2.4406 0 3.6593-1.2436 3.6593-3.7275 0-1.6264-0.62123-2.9132-1.8648-3.8616-1.2425-0.9484-2.743-1.6708-4.5045-2.1671-1.771-0.4997-3.5228-1.0653-5.2517-1.6956-1.7389-0.6315-3.229-1.6934-4.4715-3.1846-1.2435-1.4891-1.8637-3.454-1.8637-5.8936 0-3.0246 1.3333-5.4972 3.9978-7.4198 2.6656-1.9184 6.0979-2.8781 10.299-2.8781 4.2021 0 7.6242 0.7915 10.264 2.3714 2.6449 1.582 3.9648 3.5015 3.9648 5.7584 0 1.1754-0.44067 2.1568-1.3199 2.9483-0.88335 0.7905-1.9556 1.1847-3.2197 1.1847-1.4902 0-2.6666-0.4737-3.5242-1.422-0.85651-0.9495-1.4334-1.999-1.7254-3.1517-0.29515-1.1527-0.74714-2.2022-1.3571-3.1506-0.60988-0.9483-1.4334-1.423-2.4726-1.423-0.99273 0-1.7729 0.3859-2.3384 1.1527-0.56552 0.7688-0.8462 1.6707-0.8462 2.7099 0 1.6708 0.59852 3.0278 1.7946 4.066 1.1971 1.0391 2.6449 1.8286 4.3363 2.3714 1.6965 0.5408 3.389 1.13 5.0814 1.7616 1.6966 0.6315 3.1403 1.6604 4.3363 3.0825 1.1971 1.423 1.7977 3.2857 1.7977 5.5911 0 2.8885-1.323 5.2734-3.9638 7.1454-2.6439 1.8751-6.2444 2.8121-10.808 2.8121m34.138-30.488c-1.356 0-2.451 0.678-3.2868 2.0319-0.83484 1.356-1.2538 3.0485-1.2538 5.0814 0 2.712 0.3385 5.0825 1.0165 7.1144l6.3022-3.7935c1.1723-0.8132 1.7615-1.9649 1.7615-3.4561 0-1.4901-0.37461-3.0246-1.1186-4.6077-0.74408-1.5789-1.8864-2.3704-3.421-2.3704m12.535 19.174c0.49639-0.4953 1.0475-0.6419 1.6604-0.4417 0.60887 0.2054 0.88959 0.6677 0.84519 1.3901-0.0908 2.26-1.3994 4.5633-3.9308 6.9111-2.5283 2.3497-5.8027 3.5241-9.8233 3.5241-4.9235 0-8.943-1.583-12.061-4.7439-3.1165-3.1599-4.6738-7.2929-4.6738-12.399 0-4.8771 1.6346-8.8852 4.9101-12.026 3.2755-3.1403 7.1928-4.7088 11.756-4.7088 4.1103 0 7.2939 0.9483 9.555 2.8451 2.2579 1.8967 3.3859 4.0422 3.3859 6.4374 0 1.8967-0.88025 3.2981-2.6418 4.1991l-13.484 7.5901c1.8524 2.9359 4.4282 4.4023 7.7243 4.4023 1.4004 0 2.7213-0.2817 3.9648-0.8462 1.2404-0.5645 2.1774-1.2765 2.8121-2.1341m-67.775-16.09c0 3.5366-2.8668 6.4034-6.4033 6.4034s-6.4033-2.8668-6.4033-6.4034c0-3.5365 2.8668-6.4033 6.4033-6.4033 3.5366 0 6.4033 2.8668 6.4033 6.4033" fill="#f4d3d6" fill-rule="evenodd" stroke-width="1.032"/>
</svg>
