<svg width="800" height="138.61" version="1.1" viewBox="0 0 800 138.61" xml:space="preserve" xmlns="http://www.w3.org/2000/svg" xmlns:xlink="http://www.w3.org/1999/xlink">
<path d="m98.497 138h-36.899v-52.499h-23.799v52.499h-37.799v-135.6h37.699v50.599h23.899v-50.599h36.899zm169 0.59998c37.699 0 68.598-31.399 68.598-69.698 0-38.799-30.799-68.898-68.598-68.898-38.299 0-57.598 27.799-62.298 39.099 0-16.8-16.8-36.899-36.299-36.899h-62.998v135.8h58.598c23.899 0 40.699-20.399 40.699-38.299 5.3999 11.1 24.099 38.899 62.298 38.899zm-107.6-55.099c5.4999 0 9.7997 5.2999 9.7997 11.3 0 6.2998-4.3999 11.6-9.7997 11.6h-18.8v-22.999h18.8zm0-50.899c5.4999 0 9.7997 5.2999 9.7997 11.3 0 5.9998-4.3999 11.3-9.7997 11.3h-18.8v-22.599zm24.799 36.299c4.3999-0.29999 11.5-5.2999 14.2-8.2998-0.99998 3.5999-0.99998 15.1 0 18.8-2.9999-4.3999-9.7998-9.6997-14.2-10.5zm48.399 0c0-19.099 15.6-34.499 34.699-34.499 19.199 0.1 34.499 15.8 34.299 34.999-0.3 18.9-15.6 34.099-34.499 34.099-19.1 0.1-34.499-15.4-34.499-34.599zm34.399 27.199c14.7 0 27.099-12.1 27.099-27.199 0-15.1-12.4-27.099-27.099-27.099-15.1 0-27.199 11.9-27.199 27.099 0 15.2 12.1 27.199 27.199 27.199z" fill="#fff" stroke-width=".99997"/>
<g transform="matrix(.72723 0 0 .72723 709.14 -54.542)">
	
		<linearGradient id="SVGID_1_" x1="-1509.7" x2="-890.24" y1="-128.46" y2="-128.46" gradientTransform="matrix(.7272 0 0 -.7272 603.4 76.886)" gradientUnits="userSpaceOnUse">
		<stop stop-color="#991EEB" offset="0"/>
		<stop stop-color="#5822B4" offset=".399"/>
		<stop stop-color="#5822B4" offset=".727"/>
		<stop stop-color="#991EEB" offset="1"/>
	</linearGradient>
	<path d="m-241.9 144.3c-1-45.2-33-69.1-72.2-69.1-21.5 0-40.9 7.2-54.1 21.2-13.2-14-32.6-21.2-54.1-21.2-39.2 0-71.2 24-72.2 69.2v103.4c0 9.5 7.7 17.1 17.1 17.1h16.2c1.6 0 2.9-1.3 2.9-2.9v-117.4c0.7-22.3 16.5-34.1 36-34.1s35.3 11.8 36 34.1v103.1c0 9.5 7.7 17.1 17.1 17.1h16.2c1.6 0 2.9-1.3 2.9-2.9v-117.4c0.7-22.3 16.5-34.1 36-34.1s35.3 11.8 36 34.1v103.1c0 9.5 7.7 17.1 17.1 17.1h16.2c1.6 0 2.9-1.3 2.9-2.9v-117.5c0.1 0.2 0 0.1 0 0zm364.7-66.2h-27.5c-7.6 0-14.7 3.8-19 10.1l-30.4 45c-4 5.9-12.6 5.9-16.6 0l-30.4-45c-4.2-6.3-11.4-10.1-19-10.1h-27.5c-1.7 0-2.7 1.9-1.8 3.3l54.2 80.4c3.9 5.8 3.9 13.4 0 19.2l-54.2 80.4c-1 1.4 0.1 3.3 1.8 3.3h27.5c7.6 0 14.7-3.8 19-10.1l30.4-45c4-5.9 12.6-5.9 16.6 0l30.4 45c4.2 6.3 11.4 10.1 19 10.1h27.5c1.7 0 2.7-1.9 1.8-3.3l-54.3-80.3c-3.9-5.8-3.9-13.4 0-19.2l54.2-80.4c1-1.4 0-3.4-1.7-3.4zm-184.6 0h-16.2c-8.2 0-15.1 5.8-16.8 13.5-14.4-11-32.5-16.6-52-16.6-47.4 0-85.9 33-85.9 95.3s38.4 95.3 85.9 95.3c19.4 0 37.3-5.5 51.7-16.3 0.8 8.7 8.1 15.6 17.1 15.6h16.2c1.6 0 2.9-1.3 2.9-2.9v-181c-0.1-1.6-1.3-2.9-2.9-2.9zm-85 152.1c-28.3 0-51.3-20.7-51.3-59.8s23-59.8 51.3-59.8 51.3 20.7 51.3 59.8-23 59.8-51.3 59.8z" fill="url(#SVGID_1_)"/>
	<g transform="translate(0 .1)">
		
			<defs>
				<path id="SVGID_2_" d="m-241.9 144.2c-1-45.2-33-69.1-72.2-69.1-21.5 0-40.9 7.2-54.1 21.2-13.2-14-32.6-21.2-54.1-21.2-39.2 0-71.2 24-72.2 69.2v103.4c0 9.5 7.7 17.1 17.1 17.1h16.2c1.6 0 2.9-1.3 2.9-2.9v-117.4c0.7-22.3 16.5-34.1 36-34.1s35.3 11.8 36 34.1v103.1c0 9.5 7.7 17.1 17.1 17.1h16.2c1.6 0 2.9-1.3 2.9-2.9v-117.4c0.7-22.3 16.5-34.1 36-34.1s35.3 11.8 36 34.1v103.1c0 9.5 7.7 17.1 17.1 17.1h16.2c1.6 0 2.9-1.3 2.9-2.9v-117.5c0.1 0.2 0 0.1 0 0zm364.7-66.2h-27.5c-7.6 0-14.7 3.8-19 10.1l-30.4 45c-4 5.9-12.6 5.9-16.6 0l-30.4-45c-4.2-6.3-11.4-10.1-19-10.1h-27.5c-1.7 0-2.7 1.9-1.8 3.3l54.2 80.4c3.9 5.8 3.9 13.4 0 19.2l-54.2 80.4c-1 1.4 0.1 3.3 1.8 3.3h27.5c7.6 0 14.7-3.8 19-10.1l30.4-45c4-5.9 12.6-5.9 16.6 0l30.4 45c4.2 6.3 11.4 10.1 19 10.1h27.5c1.7 0 2.7-1.9 1.8-3.3l-54.3-80.3c-3.9-5.8-3.9-13.4 0-19.2l54.2-80.4c1-1.4 0-3.4-1.7-3.4zm-184.6 0h-16.2c-8.2 0-15.1 5.8-16.8 13.5-14.4-11-32.5-16.6-52-16.6-47.4 0-85.9 33-85.9 95.3s38.4 95.3 85.9 95.3c19.4 0 37.3-5.5 51.7-16.3 0.8 8.7 8.1 15.6 17.1 15.6h16.2c1.6 0 2.9-1.3 2.9-2.9v-181c-0.1-1.6-1.3-2.9-2.9-2.9zm-85 152.1c-28.3 0-51.3-20.7-51.3-59.8s23-59.8 51.3-59.8 51.3 20.7 51.3 59.8-23 59.8-51.3 59.8z"/>
			</defs>
			<clipPath id="SVGID_3_">
				<use width="100%" height="100%" xlink:href="#SVGID_2_"/>
			</clipPath>
			
				<radialGradient id="SVGID_4_" cx="-5830" cy="-31.698" r="164.6" gradientTransform="matrix(.4887 0 0 -.6362 2503.8 115.04)" gradientUnits="userSpaceOnUse">
				<stop stop-color="#7BA7F2" stop-opacity=".5" offset="0"/>
				<stop stop-color="#7BA7F2" stop-opacity="0" offset="1"/>
			</radialGradient>
			<ellipse cx="-345.4" cy="135.2" rx="110.6" ry="144" clip-path="url(#SVGID_3_)" fill="url(#SVGID_4_)"/>
		
		
			<defs>
				<path id="SVGID_5_" d="m-241.9 144.2c-1-45.2-33-69.1-72.2-69.1-21.5 0-40.9 7.2-54.1 21.2-13.2-14-32.6-21.2-54.1-21.2-39.2 0-71.2 24-72.2 69.2v103.4c0 9.5 7.7 17.1 17.1 17.1h16.2c1.6 0 2.9-1.3 2.9-2.9v-117.4c0.7-22.3 16.5-34.1 36-34.1s35.3 11.8 36 34.1v103.1c0 9.5 7.7 17.1 17.1 17.1h16.2c1.6 0 2.9-1.3 2.9-2.9v-117.4c0.7-22.3 16.5-34.1 36-34.1s35.3 11.8 36 34.1v103.1c0 9.5 7.7 17.1 17.1 17.1h16.2c1.6 0 2.9-1.3 2.9-2.9v-117.5c0.1 0.2 0 0.1 0 0zm364.7-66.2h-27.5c-7.6 0-14.7 3.8-19 10.1l-30.4 45c-4 5.9-12.6 5.9-16.6 0l-30.4-45c-4.2-6.3-11.4-10.1-19-10.1h-27.5c-1.7 0-2.7 1.9-1.8 3.3l54.2 80.4c3.9 5.8 3.9 13.4 0 19.2l-54.2 80.4c-1 1.4 0.1 3.3 1.8 3.3h27.5c7.6 0 14.7-3.8 19-10.1l30.4-45c4-5.9 12.6-5.9 16.6 0l30.4 45c4.2 6.3 11.4 10.1 19 10.1h27.5c1.7 0 2.7-1.9 1.8-3.3l-54.3-80.3c-3.9-5.8-3.9-13.4 0-19.2l54.2-80.4c1-1.4 0-3.4-1.7-3.4zm-184.6 0h-16.2c-8.2 0-15.1 5.8-16.8 13.5-14.4-11-32.5-16.6-52-16.6-47.4 0-85.9 33-85.9 95.3s38.4 95.3 85.9 95.3c19.4 0 37.3-5.5 51.7-16.3 0.8 8.7 8.1 15.6 17.1 15.6h16.2c1.6 0 2.9-1.3 2.9-2.9v-181c-0.1-1.6-1.3-2.9-2.9-2.9zm-85 152.1c-28.3 0-51.3-20.7-51.3-59.8s23-59.8 51.3-59.8 51.3 20.7 51.3 59.8-23 59.8-51.3 59.8z"/>
			</defs>
			<clipPath id="SVGID_6_">
				<use width="100%" height="100%" xlink:href="#SVGID_5_"/>
			</clipPath>
			
				<radialGradient id="SVGID_7_" cx="-1153.1" cy="-141.56" r="227.56" gradientTransform="matrix(.7272 0 0 -.515 603.4 182.31)" gradientUnits="userSpaceOnUse">
				<stop stop-color="#7BA7F2" offset=".2"/>
				<stop stop-color="#7BA7F2" stop-opacity="0" offset="1"/>
			</radialGradient>
			<ellipse cx="-235.2" cy="255.2" rx="227.6" ry="161.1" clip-path="url(#SVGID_6_)" fill="url(#SVGID_7_)"/>
		
		
			<defs>
				<path id="SVGID_8_" d="m-241.9 144.2c-1-45.2-33-69.1-72.2-69.1-21.5 0-40.9 7.2-54.1 21.2-13.2-14-32.6-21.2-54.1-21.2-39.2 0-71.2 24-72.2 69.2v103.4c0 9.5 7.7 17.1 17.1 17.1h16.2c1.6 0 2.9-1.3 2.9-2.9v-117.4c0.7-22.3 16.5-34.1 36-34.1s35.3 11.8 36 34.1v103.1c0 9.5 7.7 17.1 17.1 17.1h16.2c1.6 0 2.9-1.3 2.9-2.9v-117.4c0.7-22.3 16.5-34.1 36-34.1s35.3 11.8 36 34.1v103.1c0 9.5 7.7 17.1 17.1 17.1h16.2c1.6 0 2.9-1.3 2.9-2.9v-117.5c0.1 0.2 0 0.1 0 0zm364.7-66.2h-27.5c-7.6 0-14.7 3.8-19 10.1l-30.4 45c-4 5.9-12.6 5.9-16.6 0l-30.4-45c-4.2-6.3-11.4-10.1-19-10.1h-27.5c-1.7 0-2.7 1.9-1.8 3.3l54.2 80.4c3.9 5.8 3.9 13.4 0 19.2l-54.2 80.4c-1 1.4 0.1 3.3 1.8 3.3h27.5c7.6 0 14.7-3.8 19-10.1l30.4-45c4-5.9 12.6-5.9 16.6 0l30.4 45c4.2 6.3 11.4 10.1 19 10.1h27.5c1.7 0 2.7-1.9 1.8-3.3l-54.3-80.3c-3.9-5.8-3.9-13.4 0-19.2l54.2-80.4c1-1.4 0-3.4-1.7-3.4zm-184.6 0h-16.2c-8.2 0-15.1 5.8-16.8 13.5-14.4-11-32.5-16.6-52-16.6-47.4 0-85.9 33-85.9 95.3s38.4 95.3 85.9 95.3c19.4 0 37.3-5.5 51.7-16.3 0.8 8.7 8.1 15.6 17.1 15.6h16.2c1.6 0 2.9-1.3 2.9-2.9v-181c-0.1-1.6-1.3-2.9-2.9-2.9zm-85 152.1c-28.3 0-51.3-20.7-51.3-59.8s23-59.8 51.3-59.8 51.3 20.7 51.3 59.8-23 59.8-51.3 59.8z"/>
			</defs>
			<clipPath id="SVGID_9_">
				<use width="100%" height="100%" xlink:href="#SVGID_8_"/>
			</clipPath>
			
				<radialGradient id="SVGID_10_" cx="-961.03" cy="-12.506" r="123.8" gradientTransform="matrix(.7272 0 0 -.7272 603.4 76.714)" gradientUnits="userSpaceOnUse">
				<stop stop-color="#7BA7F2" offset="0"/>
				<stop stop-color="#7BA7F2" stop-opacity="0" offset="1"/>
			</radialGradient>
			<circle cx="-95.5" cy="85.8" r="123.8" clip-path="url(#SVGID_9_)" fill="url(#SVGID_10_)"/>
		
	</g>
</g>
</svg>
