<svg width="800" height="228.53" version="1.1" viewBox="0 0 800 228.53" xmlns="http://www.w3.org/2000/svg">
 <g fill="#161e33" stroke-width=".67603">
  <path d="m490.83 0.060798c-0.26947 19.639-16.267 35.418-35.907 35.418s-35.638-15.779-35.907-35.418z"/>
  <path d="m163.57-3.6343e-6v92.623c-38.304 35.715-99.16 27.116-122.96 2.2647l-0.18929-94.888h-40.427v224.67h40.562v-84.957c52.163 26.027 100.85 11.459 123.15-2.8664v87.884h40.224v-224.73z"/>
  <path d="m402.24 152.51c0.0811-6.5237 0.18252-13.595-0.37182-20.342-0.91212-11.602-4.1784-22.896-9.5997-33.193-8.4234-15.995-20.91-27.758-37.682-34.39-21.457-8.491-43.327-8.7546-65.001-0.7166-24.993 9.3022-41.028 27.21-48.613 52.568-5.2799 17.49-5.341 36.14-0.17577 53.663 3.2652 11.411 8.5045 21.883 16.407 30.807 15.204 17.158 34.667 25.75 57.273 27.373 17.049 1.2777 34.108-2.3438 49.168-10.438 15.468-8.18 26.757-22.728 31.287-32.524-0.55434-0.28393-34.295-16.272-34.329-15.981-0.43942 0.83152-0.79772 1.5008-1.1628 2.1701-1.9863 3.6974-4.6089 7.0157-7.7473 9.8025-14.521 13.899-33.301 12.169-33.301 12.169-40.765-1.663-41.691-38.203-41.691-38.203h125.49s0.0406-1.8861 0.0473-2.765zm-37.79-25.013h-87.208s0.17577-36.506 44.023-37.939c0 0 42.374-2.9543 43.192 36.506"/>
  <path d="m799.88 132.75c-0.0466-7.1763-0.64298-14.338-1.7847-21.423-1.8996-11.878-6.1857-22.884-13.859-32.389-6.6544-8.3894-15.529-14.744-25.615-18.341-10.566-3.7993-21.511-4.8336-32.612-4.1508-8.7276 0.53407-17.225 2.3458-25.013 6.6116-9.9039 5.4083-17.739 13.25-24.479 22.201-2.1498 2.8596-3.9683 5.9558-6.0032 9.0318-0.67603-1.3994-1.2439-2.7514-1.8929-4.09-4.9421-10.605-13.063-19.409-23.235-25.189-8.1868-4.6646-17.009-7.1795-26.365-8.1597-12.486-1.3183-24.641-0.56111-36.195 4.9215-7.9028 3.752-15.366 8.1124-21.173 14.832-2.5419 2.9272-4.7998 6.0843-7.4972 9.5456v-24.973h-38.743v163.48h38.784l0.0676-84.004c0.0247-5.2138 0.49741-10.416 1.4129-15.549 1.8861-10.472 7.3823-18.767 16.522-24.337 13.041-7.9975 27.041-9.3157 41.427-4.7322 11.222 3.5965 18.544 11.493 22.309 22.715 1.8253 5.4691 2.2782 11.114 2.285 16.806v89.182h38.872l0.0338-81.448c-0.0223-4.9698 0.25568-9.9364 0.83152-14.873 1.5752-12.466 7.4769-22.309 18.598-28.569 12.98-7.3282 26.676-8.2814 40.65-3.6168 9.4239 3.1503 16.117 9.6673 20.186 18.787 2.8799 6.4561 3.6709 13.277 3.6641 20.281v89.412h38.939z"/>
  <path d="m435.51 61.391 38.689 0.28393v163h-38.689z"/>
 </g>
</svg>
