<svg width="800" height="335.64" version="1.1" viewBox="0 0 800 335.64" xml:space="preserve" xmlns="http://www.w3.org/2000/svg"><defs><clipPath id="clipPath18"><path d="M 0,576.357 H 1372.904 V 0 H 0 Z"/></clipPath></defs><g transform="matrix(1.3333 0 0 -1.3333 0 336.11)"><g transform="matrix(.43703 0 0 .43703 0 .19997)"><g clip-path="url(#clipPath18)"><g transform="translate(460.02 174.3)"><path d="m0 0h-33.193v45.514h-42.613v-45.514h-33.202v119.78h33.202v-44.83h42.613v44.83h33.193zm-54.504 189.32c-71.48 0-129.43-57.948-129.43-129.43 0-71.488 57.949-129.44 129.43-129.44s129.43 57.948 129.43 129.44c0 71.48-57.948 129.43-129.43 129.43" fill="#f46473"/></g><g transform="translate(981.52 256.55)"><path d="m0 0c-2.797 2.049-6.638 3.074-11.537 3.074h-19.026v-25.173h19.175c4.989 0 8.838 1.128 11.537 3.371 2.698 2.252 4.051 5.264 4.051 9.07v0.298c0 4.195-1.397 7.319-4.2 9.36" fill="#f46473"/></g><g transform="translate(986.89 172.46)"><path d="m0 0-24.12 36.275h-14.538v-36.275h-33.201v119.79h56.636c9.239 0 17.058-1.143 23.444-3.422 6.386-2.28 11.577-5.473 15.563-9.589 7.079-6.837 10.612-16.135 10.612-27.891v-0.35c0-9.23-2.219-16.879-6.668-22.914-4.448-6.044-10.439-10.672-17.97-13.867l28.575-41.755zm-22.726 189.32c-71.487 0-129.44-57.948-129.44-129.43s57.948-129.43 129.44-129.43c71.474 0 129.41 57.948 129.41 129.43s-57.94 129.43-129.41 129.43" fill="#f46473"/></g><g transform="translate(733.35 174.3)"><path d="m0 0h-97.038v119.79h96.184v-28.226h-63.492v-18.154h57.496v-26.178h-57.496v-18.988h64.346zm-48.523 189.32c-71.48 0-129.42-57.949-129.42-129.43 0-71.487 57.94-129.44 129.42-129.44s129.44 57.948 129.44 129.44c0 71.48-57.955 129.43-129.44 129.43" fill="#f46473"/></g><g transform="translate(1265.5 256.78)"><path d="m0 0c-2.739 2.971-5.993 5.337-9.775 7.104-3.767 1.768-7.951 2.657-12.527 2.657-4.585 0-8.725-0.863-12.439-2.57-3.715-1.71-6.916-4.015-9.613-6.933-2.693-2.904-4.757-6.303-6.174-10.179-1.435-3.875-2.142-7.982-2.142-12.32v-0.342c0-4.337 0.741-8.444 2.226-12.329 1.487-3.868 3.57-7.301 6.268-10.263 2.681-2.971 5.916-5.337 9.7-7.104 3.773-1.767 7.939-2.654 12.516-2.654s8.76 0.861 12.534 2.569c3.773 1.716 6.985 4.021 9.614 6.933 2.629 2.911 4.678 6.301 6.172 10.179 1.47 3.875 2.231 7.982 2.231 12.328v0.341c0 4.33-0.761 8.435-2.231 12.321-1.494 3.875-3.61 7.3-6.36 10.262" fill="#f46473"/></g><g transform="translate(1308 234.19)"><path d="m0 0c0-8.562-1.631-16.632-4.876-24.212-3.26-7.592-7.796-14.21-13.617-19.852-5.815-5.653-12.655-10.102-20.526-13.355-7.881-3.252-16.437-4.884-25.673-4.884-9.241 0-17.794 1.632-25.666 4.884-7.873 3.253-14.662 7.677-20.364 13.269-5.714 5.592-10.196 12.15-13.432 19.681-3.26 7.522-4.883 15.573-4.883 24.129v0.34c0 8.556 1.623 16.624 4.883 24.216 3.236 7.59 7.772 14.198 13.603 19.85 5.804 5.643 12.654 10.101 20.525 13.345 7.872 3.252 16.436 4.875 25.673 4.875 9.241 0 17.793-1.623 25.666-4.875 7.88-3.244 14.662-7.667 20.373-13.259 5.703-5.601 10.178-12.15 13.438-19.681 3.245-7.53 4.876-15.573 4.876-24.129zm-64.53 129.43c-71.472 0-129.42-57.948-129.42-129.43 0-71.481 57.948-129.44 129.42-129.44 71.496 0 129.44 57.955 129.44 129.44 0 71.48-57.941 129.43-129.44 129.43" fill="#f46473"/></g><g transform="translate(252.22 .3552)"><path d="m0 0-153.97 4e-3c-24.39 0.194-47.668 9.256-65.682 25.52-19.639 17.724-31.161 42.018-32.445 68.404-1.28 26.327 7.779 51.643 25.507 71.284l340.54 378.2c18.705 20.712 45.489 32.581 73.497 32.583 24.672 0 48.336-9.096 66.636-25.612 20.331-18.349 32.197-44.558 32.562-71.905v-10.551h-34.489v10.322c-0.239 17.812-7.762 34.418-21.182 46.532-11.951 10.784-27.408 16.725-43.525 16.725-18.27-2e-3 -35.724-7.727-47.884-21.192l-340.53-378.2c-11.591-12.843-17.506-29.357-16.672-46.515 0.834-17.15 8.328-32.948 21.104-44.476 11.743-10.602 26.91-16.508 42.711-16.635l153.83-4e-3z" fill="#f46473"/></g></g></g></g></svg>
