<svg width="800" height="435.52" version="1.1" viewBox="0 0 800 435.52" xml:space="preserve" xmlns="http://www.w3.org/2000/svg"><defs><clipPath id="clipPath18"><path d="M 0,576.357 H 1058.052 V 0 H 0 Z"/></clipPath></defs><g transform="matrix(1.3333 0 0 -1.3333 0 435.99)"><g transform="matrix(.56708 0 0 .56708 0 .15377)"><g clip-path="url(#clipPath18)"><g transform="translate(575.01 301.57)"><path d="m0 0c26.73-8.863 30.883 0.443 41.547 26.322 12.053 29.254 18.344 48.801-1.464 58.217-20.227 9.613-32.436 1.888-43.748-22.023-9.727-20.555-21.443-54.19 3.665-62.516m-147.02 106.5c-6.711 13.592-16.187 16.93-33.889 7.665-18.843-9.863-22.116-18.084-14.785-33.772 26.438-56.57 45.756-106.84 52.935-155.24 6.06-40.864 7.386-105.68-40.299-115.48-37.712-7.755-77.673 25.506-101.86 49.226-5.61 5.499-14.931 10.75-27.907-0.641-11.744-10.31-15.649-17.849-5.463-29.637 14.7-17.015 70.543-72.675 139.91-69.091 73.858 3.814 97.507 82.127 88.967 163.62-4.302 41.033-25.95 124.68-57.603 183.36m625.55-258.67c-9.069-12.816-52.659-71.518-114.58-71.518-70.91 0-85.078 74.511-85.078 74.586 0 0.013-12.841-29.568-18.479-40.581-7.392-14.441-13.614-30.637-35.498-30.637-20.735 0-27.262 12.882-33.382 32.747-2.938 9.534-10.013 37.396-10.06 37.383-0.013-4e-3 -12.662-29.113-17.25-38.33-5.234-10.516-14.627-30.107-33.199-30.107-18.082 0-26.166 12.119-28.868 34.96-1.869 15.767-4.309 47.565-4.311 47.565 0 0-21.475-22.305-35.598-34.201-14.282-12.036-37.404-26.964-64.789-23.325-30.923 4.109-51.058 25.022-51.419 66.716-0.295 33.908 6.625 66.921 13.555 83.782 5.979 14.537 14.103 16.917 35.981 10.515 19.728-5.775 19.358-16.248 13.927-32.454-4.642-13.858-17.697-63.58-8.047-76.434 13.187-17.571 46.388 15.33 74.927 44.603 13.092 13.43 24.745 23.926 41.54 23.926 15.775 0 20.022-16.949 21.663-31.644 1.036-9.233 2.769-32.51 2.769-32.51s17.368 33.002 19.868 38.148c5.193 10.686 14.34 24.794 28.868 24.794 18.235 0 22.778-16.368 24.446-22.788 2.792-10.751 12.431-51.752 12.446-51.756 0.568-0.134 14.476 31.026 19.596 41.074 7.999 15.693 17.16 35.026 39.247 35.026 37.761 0 26.201-106.49 82.035-106.49 36.14 0 59.232 30.163 73.011 46.656 9.827 11.764 16.418 14.432 29.786 6.757 13.953-8.014 13.632-16.312 6.897-26.466" fill="#ff5d00"/></g><g transform="translate(252.22 .3552)"><path d="m0 0-153.97 4e-3c-24.39 0.194-47.668 9.256-65.681 25.52-19.64 17.724-31.162 42.018-32.446 68.404-1.28 26.327 7.779 51.643 25.507 71.284l340.54 378.2c18.705 20.712 45.489 32.581 73.497 32.583 24.672 0 48.336-9.096 66.636-25.612 20.331-18.349 32.197-44.558 32.562-71.905v-10.551h-34.489v10.322c-0.239 17.812-7.762 34.418-21.182 46.532-11.951 10.784-27.408 16.725-43.525 16.725-18.27-2e-3 -35.724-7.727-47.884-21.192l-340.53-378.2c-11.59-12.843-17.506-29.357-16.672-46.515 0.834-17.15 8.328-32.948 21.104-44.476 11.743-10.602 26.91-16.508 42.711-16.635l153.83-4e-3z" fill="#ff5d00"/></g></g></g></g></svg>
