<svg width="800" height="201.65" version="1.1" viewBox="0 0 800 201.65" xml:space="preserve" xmlns="http://www.w3.org/2000/svg"><g transform="matrix(1.3333 0 0 -1.3333 -141.77 892.87)"><g transform="matrix(2.8807 0 0 2.8807 -199.97 -974.98)" fill="#fff"><path d="m149.38 536.11c0 10.038 7.795 17.693 18.423 17.693 10.699 0 18.422-7.655 18.422-17.693 0-10.037-7.793-17.693-18.422-17.693-10.558 0-18.423 7.656-18.423 17.693m25.438 0c0 4.477-2.906 7.727-7.015 7.727-4.11 0-6.944-3.25-6.944-7.727s3.047-7.727 6.944-7.727c3.968 0 7.015 3.25 7.015 7.727"/><path d="m213.08 529.75v-9.966h-8.006c-8.219 0-12.471 3.972-12.471 11.771v11.924h-5.598v8.954h5.669v7.655l11.549 5.344v-12.999h8.857v-8.954h-8.857v-9.035c0-3.539 1.205-4.694 4.323-4.694z"/><path d="m215.85 564.64c0 3.683 2.834 6.283 6.873 6.283 4.11 0 6.873-2.6 6.873-6.355 0-3.683-2.834-6.283-6.873-6.283-3.968 0-6.873 2.6-6.873 6.355m0.992-12.204h11.691v-32.641h-11.691z"/><path d="m132.75 548.95 18.151 21.284h-14.507l-18.01-22.351v22.351h-12.054v-50.567h12.054v12.57l6.237 7.143 12.404-19.713h14.506z"/></g><g transform="matrix(2.8807 0 0 2.8807 -199.97 -974.98)"><g transform="translate(233.83 559.34)"><path d="m0 0v10.888h41.979v-10.888h-14.997v-39.561h-11.916v39.561z" fill="#e56c7a"/></g><g transform="translate(302.63 570.23)"><path d="m0 0-18.696-50.44h11.982l18.696 50.44z" fill="#e56c7a"/></g><g transform="translate(283.94 519.79)"><path d="m0 0-18.695 50.44h11.981l18.696-50.44z" fill="#e56c7a"/></g></g></g></svg>
