<svg width="800" height="131.04" version="1.1" viewBox="0 0 800 131.04" xmlns="http://www.w3.org/2000/svg">
 <g transform="matrix(8.6184 0 0 8.6184 -130.35 -294.11)">
  <path d="m21.734 34.264h15.47l-6.228 14.198-1.16 0.864h-14.69z" fill="#048cc6"/>
  <path d="m38.686 34.264h15.468l-6.226 14.198-1.161 0.864h-14.691zm33.671 0 15.204-0.043-6.383 15.062-14.08 0.043-0.987-0.809z" fill="#d61f26"/>
  <path d="m55.892 34.264 14.477-0.138-6.383 15.06-14.342 0.14 0.075-0.875z" fill="#048cc6"/>
  <path d="m29.816 49.326 6.485-15.062h0.903l-6.228 14.198zm-6.616-15.062-6.56 15.062h-1.515l6.609-15.062zm-6.555 15.053 0.387-0.89 13.155 0.033-0.369 0.857z" fill="#00afd8"/>
  <path d="m15.515 48.435-0.39 0.89h1.515l0.387-0.886zm15.461 0.027-0.789-2e-3 -0.371 0.866zm18.679 0.724 6.579-14.972-0.342 0.05-6.173 14.187z" fill="#57c8e1"/>
  <path d="m49.644 49.326 0.075-0.875 14.574 4e-3 -0.312 0.871z" fill="#00afd8"/>
  <path d="m49.719 48.45h0.26l-0.335 0.876z" fill="#57c8e1"/>
  <path d="m47.928 48.462h-15.472l-0.38 0.864h14.69zm18.183 0.055h15.39l-0.328 0.81h-14.075z" fill="#e93f3f"/>
  <path d="m67.098 49.326 6.5-15.062h-1.24l-6.248 14.253z" fill="#e93f3f"/>
  <path d="m67.45 48.51-0.352 0.816-0.987-0.809z" fill="#eb736e"/>
  <g fill="#fff">
   <path d="m41.354 44.056h-0.342s-0.767 1.77-1.116 2.563c-0.219 0.499-0.437 1-0.658 1.498-0.057 0.13-0.119 0.256-0.18 0.387h-3.784l5.74-12.907h0.408c1.884 0 3.768-0.011 5.652 7e-3 0.558 7e-3 1.116 0.09 1.67 0.159 0.205 0.025 0.408 0.099 0.601 0.175 0.756 0.292 1.12 0.845 1.062 1.666a5.287 5.287 0 0 1-0.205 1.113c-0.233 0.786-0.57 1.53-0.973 2.247-0.857 1.524-2.139 2.44-3.827 2.786-0.114 0.023-0.226 0.055-0.387 0.095 0.505 1.553 1.007 3.084 1.517 4.65h-4.347c-0.273-1.474-0.831-4.439-0.831-4.439zm0.948-2.777c0.774 0 1.496 0.012 2.218-4e-3 0.301-7e-3 0.57-0.152 0.777-0.377 0.485-0.529 0.759-1.166 0.91-1.857a0.58 0.58 0 0 0 6e-3 -0.14c-0.01-0.249-0.114-0.398-0.358-0.451a3.152 3.152 0 0 0-0.59-0.06c-0.474 0-0.922-9e-3 -1.4-9e-3 -0.24 0-0.354 0.078-0.447 0.296-0.328 0.77-1.073 2.478-1.116 2.602zm-14.819 0.478 2.47 6.74h-4.47c-0.396-1.44-1.207-4.367-1.207-4.367l-0.991 0.861s-0.984 2.248-1.39 3.159c-0.052 0.117-0.1 0.213-0.157 0.333-1.255 0-2.496-0.01-3.788-0.01 1.918-4.314 3.818-8.564 5.727-12.855h3.804l-2.007 4.498s3.504-2.942 5.117-4.319c0.138-0.117 0.27-0.206 0.467-0.204 1.31 0.01 4.237 0 4.237 0s-0.711 0.588-1.026 0.843c-0.314 0.253-0.633 0.497-0.95 0.745-0.325 0.255-0.65 0.513-0.977 0.768-0.325 0.255-0.653 0.51-0.98 0.765l-0.951 0.745-0.978 0.768c-0.316 0.248-0.635 0.494-0.952 0.742-0.326 0.258-0.65 0.515-0.998 0.788zm37.446-6.16-0.727 12.9h-3.868l0.37-3.324c-0.153-0.01-0.279-0.023-0.402-0.023-0.995-2e-3 -1.988 7e-3 -2.984-7e-3 -0.264-4e-3 -0.43 0.078-0.588 0.294-0.701 0.959-1.419 1.901-2.13 2.853-0.102 0.14-0.186 0.202-0.382 0.2h-3.654l0.23-0.278c3.328-4.069 6.66-8.132 9.982-12.208 0.24-0.294 0.472-0.427 0.854-0.416 0.946 0.032 1.896 0.01 2.843 0.01h0.456zm-3.451 3.644c0-0.049-0.055-0.07-0.09-0.03l-2.37 3.19h2.011c0-2e-3 0.298-2.11 0.449-3.16zm13.242 6.504h5.426s-0.77 1.766-1.094 2.52c-0.073 0.167-0.155 0.262-0.36 0.262-2.936-7e-3 -5.872-5e-3 -8.809-7e-3 -0.034 0-0.173-0.014-0.04-0.313 1.863-4.192 3.729-8.385 5.596-12.589h3.791s-0.114 0.264-0.166 0.377c-1.378 3.085-2.759 6.17-4.14 9.254-0.06 0.147-0.12 0.299-0.204 0.496z"/>
  </g>
  <path d="m70.713 40.935-3.267 7.58h14.055l3.55-8.337zm-20.994 7.515h14.57l3.168-7.435-14.843 0.784zm-14.762-5.69-2.5 5.702h15.471l2.866-6.537zm-17.342 0.88-2.1 4.795 15.46 0.027 2.479-5.656z" opacity=".1"/>
  <g fill="#2775bb">
   <path d="m88.533 49.331h-2.692l4.303-9.84h-3.276l1.048-2.386h9.244l-1.048 2.386h-3.276zm6.716 0 1.93-12.226h2.728l-1.733 9.895 6.866-9.895h2.91l-8.717 12.226z"/>
  </g>
 </g>
</svg>
