<svg width="800" height="473.33" version="1.1" viewBox="0 0 800 473.33" xml:space="preserve" xmlns="http://www.w3.org/2000/svg">
<g transform="matrix(3.3333 0 0 3.3333 -1583.3 -1166.3)" fill="#ff46b4">
		<path d="m637 349.9v40h8.6v-19.6h17.2v19.6h8.6v-40h-8.6v12.8h-17.2v-12.8z"/>
		<path d="m695.9 349.9h-14.3v40h14.2c9.9 0 19.2-6.5 19.2-20.3 0-13.4-9.3-19.7-19.1-19.7zm-0.4 32.4h-5.4v-24.9h5.2c6.4 0 10.9 4.7 10.9 12.2-0.1 8.1-4.3 12.7-10.7 12.7z"/>
			<path d="m617 349.9h-142v142h142l-35.1-71zm-44.5 129.8h-85.3v-117.6h85.3l-29.1 58.8z"/>
</g>
</svg>
