<svg width="800" height="536.69" version="1.1" viewBox="0 0 800 536.69" xml:space="preserve" xmlns="http://www.w3.org/2000/svg"><defs><clipPath id="clipPath18"><path d="m0 576.36h858.6v-576.36h-858.6z"/></clipPath></defs><g transform="matrix(1.3333 0 0 -1.3333 0 536.92)"><g transform="matrix(.69881 0 0 .69881 0 .053702)"><g clip-path="url(#clipPath18)"><g transform="translate(401.95 144.18)"><path d="m0 0c-1.01-4.2-2.204-9.77-3.581-16.717s-2.063-12.089-2.063-15.413c0-8.4 2.091-14.114 6.272-17.151 4.184-3.038 11.101-4.561 20.75-4.561 3.602 0 8.497 0.76 14.689 2.28 6.186 1.52 10.58 2.858 13.173 4.018l-4.776-19.54c-14.327-5.644-26.049-9.952-35.17-12.919-9.116-2.964-19.468-4.449-31.043-4.449-17.37 0-31.046 4.232-41.031 12.699-9.987 8.467-14.982 19.214-14.982 32.239 0 5.355 0.469 10.925 1.412 16.719 0.938 5.787 1.989 11.357 3.148 16.714l46.886 203.86c0.578 2.458 1.014 4.777 1.305 6.949 0.285 2.169 0.432 3.976 0.432 5.426 0 5.21-0.868 9.336-2.606 12.374-1.734 3.04-4.34 5.496-7.813 7.383-3.472 1.879-7.455 3.181-11.939 3.907-4.486 0.721-9.698 1.37-15.626 1.954l3.911 16.065 114.14 6.095c1.922 0.101 3.408-1.666 2.978-3.542z" fill="#34d440"/></g><g transform="translate(599.43 96.634)"><path d="m0 0-4.775-19.54c-14.33-5.644-25.768-9.952-34.303-12.918-8.54-2.964-18.451-4.45-29.741-4.45-17.368 0-30.867 4.232-40.489 12.699-9.627 8.469-14.436 19.214-14.436 32.242 0 5.061 0.36 10.236 1.083 15.519 0.721 5.279 1.881 11.251 3.475 17.912l17.922 63.394c1.599 6.078 2.946 11.831 4.034 17.257 1.086 5.429 1.626 10.382 1.626 14.873 0 8.1-1.665 13.746-5.003 16.932-3.336 3.183-9.724 4.778-19.157 4.778-4.646 0-9.398-0.726-14.261-2.172-4.86-1.451-9.037-2.821-12.517-4.124l4.785 19.538c11.74 4.777 22.966 8.861 33.69 12.267 10.721 3.4 20.863 5.101 30.427 5.101 17.239 0 30.535-4.163 39.882-12.482 9.34-8.324 14.016-19.145 14.016-32.456 0-2.754-0.326-7.599-0.977-14.546-0.652-6.949-1.846-13.318-3.584-19.105l-17.853-63.175c-1.451-5.066-2.761-10.856-3.92-17.368-1.16-6.513-1.742-11.438-1.742-14.762 0-8.4 1.88-14.113 5.639-17.151 3.761-3.038 10.262-4.561 19.517-4.561 4.329 0 9.243 0.763 14.734 2.281 5.496 1.52 9.472 2.857 11.928 4.017" fill="#34d440"/></g><g transform="translate(858.6 231.89)"><path d="m0 0c0-20.406-3.438-41.105-10.311-62.089-6.877-20.991-16.538-39.588-28.983-55.794-14.76-18.962-31.119-32.93-49.064-41.9-17.951-8.971-36.622-13.46-56.012-13.46-25.765 0-46.241 6.014-61.437 18.041-15.197 12.02-22.795 29.261-22.795 51.725 0 6.954 1.153 14.409 3.472 22.384 2.315 7.973 5.212 17.313 8.687 28.041 2.89 9.123 5.602 18.145 8.138 27.057 2.533 8.909 3.801 17.35 3.801 25.32 0 7.823-1.738 13.404-5.21 16.736-3.474 3.331-9.703 4.996-18.671 4.996-4.634 0-9.377-0.725-14.221-2.169-4.85-1.453-9.008-2.823-12.483-4.126l4.769 19.54c11.726 4.775 22.94 8.862 33.646 12.265 10.707 3.401 20.831 5.103 30.381 5.103 17.213 0 30.488-4.313 39.823-12.935 9.329-8.621 13.996-19.311 13.996-32.056 0-9.421-1.264-19.42-3.794-29.994-2.529-10.573-5.17-20.064-7.912-28.468-2.463-7.543-5.027-16.197-7.702-25.976-2.678-9.784-4.015-17.569-4.015-23.361 0-12.32 2.966-22.174 8.901-29.559 5.939-7.391 15.492-11.085 28.667-11.085 19.687 0 36.763 7.34 51.241 22.035 14.478 14.688 21.715 34.48 21.715 59.377 0 2.454-0.148 5.136-0.434 8.033-0.291 2.89-0.868 6.147-1.737 9.767-1.594 3.327-4.706 6.873-9.333 10.639-4.635 3.758-8.541 7.233-11.725 10.421-4.2 4.193-7.889 9.151-11.07 14.871-3.188 5.713-4.778 13.133-4.778 22.252 0 7.667 1.479 13.894 4.45 18.671 2.966 4.775 6.547 8.684 10.747 11.722 3.472 2.458 7.633 4.413 12.484 5.861 4.842 1.446 9.368 2.172 13.568 2.172 13.459 0 24.022-4.817 31.696-14.437 7.668-9.627 11.505-22.834 11.505-39.62" fill="#34d440"/></g><g transform="translate(603.92 361.58)"><path d="m0 0c0-22.479-18.224-40.7-40.702-40.7-22.479 0-40.7 18.221-40.7 40.7 0 22.478 18.221 40.702 40.7 40.702 22.478 0 40.702-18.224 40.702-40.702" fill="#34d440"/></g><g transform="translate(252.22 .1783)"><path d="m0 0-153.97 4e-3c-24.39 0.194-47.668 9.257-65.682 25.52-19.64 17.724-31.162 42.018-32.445 68.404-1.28 26.327 7.779 51.643 25.507 71.284l340.54 378.2c18.705 20.712 45.488 32.581 73.497 32.583 24.672 0 48.336-9.096 66.636-25.612 20.331-18.349 32.197-44.558 32.562-71.905v-10.551h-34.489v10.322c-0.239 17.812-7.763 34.418-21.183 46.532-11.951 10.784-27.407 16.725-43.524 16.725-18.27-2e-3 -35.724-7.727-47.885-21.192l-340.53-378.2c-11.591-12.843-17.507-29.357-16.673-46.515 0.835-17.15 8.329-32.948 21.104-44.476 11.744-10.602 26.911-16.508 42.712-16.635l153.83-4e-3z" fill="#34d440"/></g></g></g></g></svg>
