<svg width="800" height="109.82" version="1.1" viewBox="0 0 800 109.82" xml:space="preserve" xmlns="http://www.w3.org/2000/svg"><g transform="matrix(1.3333 0 0 -1.3333 -734.41 769.49)"><g transform="matrix(2.4725 0 0 -2.4725 667.07 1162.2)" fill="#e44e00" stroke="#000" stroke-width="3.7012" style="paint-order:markers stroke fill;shape-inside:url(#rect2683);white-space:pre" aria-label="LIVECHAT.FI"><path d="m-39.369 262.83h11.758c0.93747 0 1.6536 0.22786 2.1484 0.68359 0.50781 0.45573 0.76172 1.0287 0.76172 1.7188 0 0.70313-0.2474 1.2761-0.74219 1.7188-0.49479 0.42969-1.2175 0.64453-2.168 0.64453h-14.004c-1.263 0-2.1745-0.27995-2.7344-0.83984-0.54687-0.5599-0.82031-1.4648-0.82031-2.7148v-22.051c0-1.1719 0.26042-2.0508 0.78125-2.6367 0.53385-0.58593 1.2305-0.8789 2.0898-0.8789 0.8724 0 1.5755 0.29297 2.1094 0.8789 0.54687 0.57292 0.82031 1.4518 0.82032 2.0442z"/><path d="m-20.658 264.55v-22.559q0-1.7578 0.80078-2.6367t2.0703-0.8789q1.3086 0 2.1094 0.8789 0.82031 0.85938 0.82031 2.6367v22.559q0 1.7773-0.82031 2.6562-0.80078 0.8789-2.1094 0.8789-1.25 0-2.0703-0.8789-0.80078-0.89844-0.80078-2.6562z"/><path d="m2.3496 261.48 6.5039-19.336c0.33854-1.0156 0.59245-1.7187 0.76172-2.1094 0.16927-0.40365 0.44922-0.76171 0.83984-1.0742 0.39063-0.32552 0.92449-0.48828 1.6016-0.48828 0.49479 0 0.95053 0.1237 1.3672 0.37109 0.42969 0.2474 0.76172 0.57943 0.99609 0.9961 0.24739 0.40364 0.37109 0.81381 0.37109 1.2305 0 0.28646-0.03906 0.59896-0.11719 0.9375-0.07813 0.32553-0.17578 0.65105-0.29297 0.97657-0.11719 0.3125-0.23437 0.63802-0.35156 0.97656l-6.9336 18.711c-0.24739 0.71613-0.49479 1.3997-0.74219 2.0508-0.24739 0.63802-0.53385 1.2044-0.85938 1.6992-0.32552 0.48177-0.76172 0.8789-1.3086 1.1914-0.53385 0.3125-1.1914 0.46875-1.9727 0.46875s-1.4453-0.15625-1.9922-0.46875c-0.53385-0.29948-0.97005-0.69661-1.3086-1.1914-0.32552-0.50781-0.61198-1.0808-0.85938-1.7188-0.24739-0.63802-0.49479-1.3151-0.74219-2.0312l-6.8164-18.555c-0.11719-0.33854-0.24088-0.67057-0.37109-0.99609-0.11719-0.32553-0.22135-0.67709-0.3125-1.0547-0.07813-0.37761-0.11719-0.69662-0.11719-0.95703 0-0.66407 0.26693-1.2695 0.80078-1.8164 0.53385-0.54687 1.2044-0.82031 2.0117-0.82031 0.9896 0 1.6862 0.30599 2.0898 0.91797 0.41667 0.59895 0.83983 1.5625 1.0547 2.2268z"/><path d="m24.948 243.43v7.0312h12.031c0.8854 0 1.543 0.20182 1.9727 0.60546 0.44271 0.39063 0.66406 0.91146 0.66406 1.5625 0 0.65105-0.21484 1.1849-0.64453 1.6016-0.42969 0.40365-1.0938 0.60547-1.9922 0.60547h-12.031v8.1445h13.516c0.91147 0 1.5951 0.21484 2.0508 0.64453 0.46875 0.41667 0.70312 0.97657 0.70312 1.6797 0 0.67707-0.23437 1.2305-0.70312 1.6602-0.45573 0.41667-1.1393 0.625-2.0508 0.625h-15.762c-1.263 0-2.1745-0.27995-2.7344-0.83984-0.54687-0.5599-0.82031-1.4648-0.82031-2.7148v-21.523c0-0.83333 0.1237-1.5104 0.37109-2.0312 0.24739-0.53385 0.63149-0.91799 1.1523-1.1524 0.53385-0.24739 1.2109-0.37109 2.0312-0.37109h15.312c0.92447 0 1.6081 0.20833 2.0508 0.625 0.45573 0.40365 0.68359 0.93751 0.68359 1.6016 0 0.67707-0.22786 1.2239-0.68359 1.6406-0.44271 0.40365-1.1263 0.60547-1.5885 0.60522z"/><path d="m69.537 261.52c-0.44271 1.0547-1.1458 2.0963-2.1094 3.125-0.96353 1.0156-2.194 1.8424-3.6914 2.4805s-3.2422 0.95708-5.2344 0.95703c-1.5104 0-2.8841-0.14323-4.1211-0.42968-1.237-0.28646-2.3633-0.72916-3.3789-1.3281-1.0026-0.61198-1.9271-1.4128-2.7734-2.4023-0.7552-0.89847-1.3997-1.9011-1.9336-3.0078-0.53385-1.1198-0.93749-2.3112-1.2109-3.5742-0.26041-1.263-0.39062-2.6041-0.39062-4.0234 0-2.3047 0.33203-4.3685 0.99609-6.1914 0.67707-1.8229 1.6406-3.3789 2.8906-4.668 1.25-1.3021 2.7148-2.2917 4.3945-2.9688 1.6797-0.67707 3.47-1.0156 5.3711-1.0156 2.3177 0 4.3815 0.46223 6.1914 1.3867s3.1966 2.0703 4.1602 3.4375c0.96353 1.3541 1.4453 2.6367 1.4453 3.8476 0 0.66407-0.23437 1.25-0.70312 1.7578-0.46875 0.50781-1.0351 0.76171-1.6992 0.76171-0.7422 0-1.3021-0.17578-1.6797-0.52734-0.36459-0.35156-0.77475-0.95703-1.2305-1.8164-0.7552-1.4193-1.6471-2.4805-2.6758-3.1836-1.0156-0.70313-2.2721-1.0547-3.7695-1.0547-2.3828 0-4.2838 0.90493-5.7031 2.7148-1.4063 1.8099-2.1094 4.3815-2.1094 7.7148 0 2.2265 0.3125 4.082 0.9375 5.5664 0.625 1.4713 1.5104 2.5716 2.6562 3.3008s2.4869 1.0938 4.0234 1.0938c1.6667 0 3.0729-0.41017 4.2188-1.2305 1.1589-0.83333 2.0313-2.0508 2.6172-3.6523 0.24739-0.7552 0.55338-1.3672 0.91797-1.8359 0.36459-0.48177 0.95052-0.72266 1.7578-0.72266 0.69013 0 1.2826 0.24089 1.7773 0.72266 0.49479 0.48177 0.74219 1.0807 0.74223 1.8945s-0.22782 1.8034-0.68355 2.8711z"/><path d="m81.275 250.19h12.52v-8.2031c0-1.1719 0.26042-2.0508 0.78125-2.6367 0.53385-0.58593 1.2305-0.8789 2.0898-0.8789 0.8724 0 1.5755 0.29297 2.1094 0.8789 0.54687 0.57292 0.82031 1.4518 0.82031 2.6367v22.559c0 1.1849-0.27344 2.0703-0.82031 2.6562s-1.25 0.8789-2.1094 0.8789c-0.8724 0-1.569-0.29297-2.0898-0.8789-0.52083-0.59896-0.78125-1.4844-0.78125-2.6562v-9.6289h-12.52v9.6289c0 1.1849-0.27344 2.0703-0.82031 2.6562s-1.25 0.8789-2.1094 0.8789c-0.8724 0-1.569-0.29297-2.0898-0.8789-0.52083-0.59896-0.78125-1.4844-0.78125-2.6562v-22.559c0-1.1719 0.25391-2.0508 0.76172-2.6367 0.52083-0.58593 1.224-0.8789 2.1094-0.8789 0.8724 0 1.5755 0.29297 2.1094 0.8789 0.54687 0.57292 0.82031 1.4518 0.82028 2.0443z"/><path d="m122.78 260.76h-11.641l-1.3672 3.6719c-0.53385 1.4323-0.98959 2.4023-1.3672 2.9102-0.37761 0.49479-0.99611 0.74218-1.8555 0.74218-0.7292 0-1.3737-0.26693-1.9336-0.80078-0.55989-0.53385-0.83984-1.1393-0.83984-1.8164 0-0.39063 0.0651-0.79426 0.19531-1.2109 0.13021-0.41667 0.34506-0.9961 0.64453-1.7383l7.3242-18.594c0.20833-0.53385 0.45573-1.1719 0.74219-1.9141 0.29948-0.7552 0.61198-1.3802 0.9375-1.875 0.33854-0.49479 0.77474-0.89192 1.3086-1.1914 0.54688-0.3125 1.2174-0.46875 2.0117-0.46875 0.80727 0 1.4778 0.15625 2.0117 0.46875 0.54687 0.29948 0.98307 0.69011 1.3086 1.1719 0.33854 0.48177 0.61849 1.0026 0.83984 1.5625 0.23437 0.54688 0.52734 1.2826 0.87891 2.207l7.4805 18.477c0.58594 1.4063 0.87891 2.4284 0.87891 3.0664 0 0.66407-0.27995 1.276-0.83984 1.8359-0.54688 0.54687-1.211 0.82031-1.9922 0.82031-0.45573 0-0.84636-0.0846-1.1719-0.2539-0.32552-0.15625-0.59896-0.3711-0.82031-0.64453-0.22135-0.28646-0.46224-0.71616-0.72265-1.2891-0.2474-0.58593-0.46225-1.1003-0.55315-1.3217zm-10.117-4.3554h8.5547l-4.3164-11.816z"/><path d="m143.34 243.75v20.801c0 1.1979-0.26693 2.0899-0.80078 2.6758-0.53385 0.57291-1.224 0.85937-2.0703 0.85937-0.8594 0-1.5625-0.29297-2.1094-0.8789-0.53385-0.58594-0.80078-1.4713-0.80078-2.6562v-20.801h-6.3281c-0.9896 0-1.7253-0.21485-2.207-0.64454-0.48177-0.44271-0.72266-1.0221-0.72266-1.7383 0-0.7422 0.2474-1.3281 0.74219-1.7578 0.50781-0.42969 1.237-0.64453 2.1875-0.64453h18.438c1.0026 0 1.7448 0.22135 2.2266 0.66406 0.49479 0.44271 0.74219 1.0221 0.74219 1.7383s-0.2474 1.2956-0.74219 1.7383c-0.49479 0.42969-1.237 0.64454-1.7321 0.64449z"/><path d="m152.15 267.3c-0.58594-0.52083-0.87891-1.25-0.87891-2.1875 0-0.79427 0.27995-1.4779 0.83984-2.0508 0.5599-0.57291 1.25-0.85937 2.0703-0.85937s1.5169 0.28646 2.0898 0.85937c0.58594 0.5599 0.87891 1.2435 0.87891 2.0508 0 0.92447-0.29297 1.6536-0.87891 2.1875-0.57291 0.52083-1.25 0.78125-2.0442 0.78125s-1.4909-0.26042-2.0768-0.78125z"/><path d="m169.28 243.43v7.3242h9.5508c0.8854 0 1.543 0.20182 1.9727 0.60547 0.44271 0.39063 0.66406 0.91796 0.66406 1.582 0 0.66407-0.22135 1.1914-0.66406 1.582-0.44271 0.39062-1.1003 0.58593-1.9727 0.58593h-9.5508v9.4336c0 1.1979-0.27344 2.0899-0.82031 2.6758-0.53385 0.57291-1.224 0.85937-2.0703 0.85937-0.8594 0-1.5625-0.29297-2.1094-0.8789-0.53385-0.58594-0.80078-1.4713-0.80078-2.6562v-22.031c0-0.83333 0.1237-1.5104 0.3711-2.0312 0.24739-0.53385 0.63149-0.91799 1.1523-1.1524 0.53385-0.24739 1.2109-0.37109 2.0312-0.37109h13.672c0.92447 0 1.6081 0.20833 2.0508 0.625 0.45573 0.40365 0.68359 0.93751 0.68359 1.6016 0 0.67707-0.22786 1.2239-0.68359 1.6406-0.44271 0.40365-1.1263 0.60547-1.5885 0.60534z"/><path d="m187.99 264.55v-22.559q0-1.7578 0.80078-2.6367t2.0703-0.8789q1.3086 0 2.1094 0.8789 0.82031 0.85938 0.82031 2.6367v22.559q0 1.7773-0.82031 2.6562-0.80078 0.8789-2.1094 0.8789-1.25 0-2.0703-0.8789-0.80078-0.89844-0.80078-2.6562z"/></g></g></svg>
