<svg width="800" height="109.82" version="1.1" viewBox="0 0 800 109.82" xml:space="preserve" xmlns="http://www.w3.org/2000/svg"><g fill="#e44e00" stroke="#fff" stroke-width="12.201"><path d="m25.211 86.37h38.761c3.0904 0 5.4512 0.75116 7.0824 2.2535 1.674 1.5024 2.5111 3.3911 2.5111 5.6662 0 2.3179-0.81556 4.2067-2.4467 5.6662-1.6311 1.4165-4.0135 2.1247-7.147 2.1247h-46.165c-4.1636 0-7.1683-0.92288-9.0142-2.7686-1.8028-1.8458-2.7042-4.8289-2.7042-8.9496v-72.693c0-3.8632 0.85849-6.7605 2.5755-8.6921 1.7599-1.9316 4.0563-2.8974 6.8892-2.8974 2.8759 0 5.1939 0.9658 6.9538 2.8974 1.8028 1.8887 2.7042 4.786 2.7043 6.7389z" style="paint-order:markers stroke fill;white-space:pre"/><path d="m86.894 92.04v-74.368q0-5.7947 2.6398-8.6921t6.8249-2.8974q4.3139 0 6.9538 2.8974 2.7042 2.833 2.7042 8.6921v74.368q0 5.859-2.7042 8.7564-2.6398 2.8974-6.9538 2.8974-4.1207 0-6.8249-2.8974-2.6398-2.9618-2.6398-8.7564z" style="paint-order:markers stroke fill;white-space:pre"/><path d="m162.74 81.916 21.441-63.743c1.116-3.348 1.953-5.6659 2.5111-6.9538 0.55803-1.3307 1.4809-2.511 2.7686-3.5412 1.2877-1.0731 3.0477-1.6097 5.2798-1.6097 1.6311 0 3.1335 0.40779 4.5071 1.2233 1.4165 0.81557 2.5111 1.9101 3.2837 3.2837 0.81555 1.3306 1.2233 2.6828 1.2233 4.0564 0 0.94434-0.12876 1.9745-0.38633 3.0905-0.25756 1.0731-0.57948 2.1462-0.9658 3.2193-0.38631 1.0302-0.77263 2.1033-1.1589 3.2193l-22.857 61.682c-0.81555 2.3608-1.6311 4.6143-2.4467 6.7606-0.81556 2.1033-1.7599 3.9705-2.833 5.6016-1.0731 1.5882-2.5111 2.8974-4.3139 3.9276-1.7599 1.0302-3.9276 1.5453-6.5032 1.5453s-4.7647-0.51509-6.5675-1.5453c-1.7599-0.98726-3.1979-2.2964-4.3139-3.9276-1.0731-1.674-2.0174-3.5628-2.833-5.6662-0.81555-2.1033-1.6311-4.3353-2.4467-6.696l-22.471-61.168c-0.38631-1.116-0.79409-2.2106-1.2233-3.2837-0.38631-1.0731-0.7297-2.2321-1.0302-3.4769-0.25756-1.2448-0.38633-2.2965-0.38633-3.1549 0-2.1892 0.87995-4.1851 2.6398-5.9879 1.7599-1.8028 3.9705-2.7042 6.6317-2.7042 3.2623 0 5.5587 1.0087 6.8892 3.0262 1.3736 1.9745 2.7686 5.1509 3.477 7.3408z" style="paint-order:markers stroke fill;white-space:pre"/><path d="m237.24 22.416v23.179h39.661c2.9188 0 5.0865 0.66532 6.5032 1.996 1.4594 1.2877 2.1891 3.0047 2.1891 5.1509s-0.70825 3.9062-2.1248 5.2798c-1.4165 1.3307-3.6056 1.996-6.5674 1.996h-39.661v26.849h44.557c3.0047 0 5.2583 0.70824 6.7606 2.1247 1.5453 1.3736 2.3179 3.2193 2.3179 5.5373 0 2.232-0.77263 4.0563-2.3179 5.473-1.5023 1.3736-3.7559 2.0604-6.7606 2.0604h-51.961c-4.1636 0-7.1683-0.92288-9.0142-2.7686-1.8028-1.8458-2.7042-4.8289-2.7042-8.9496v-70.952c0-2.7471 0.40778-4.9792 1.2233-6.696 0.81556-1.7599 2.0818-3.0262 3.7987-3.799 1.7599-0.81554 3.9919-1.2233 6.696-1.2233h50.477c3.0476 0 5.3011 0.68678 6.7606 2.0604 1.5024 1.3307 2.2535 3.0906 2.2535 5.2798 0 2.232-0.75117 4.0348-2.2535 5.4084-1.4594 1.3307-3.713 1.996-5.2366 1.9952z" style="paint-order:markers stroke fill;white-space:pre"/><path d="m384.23 82.048c-1.4594 3.4768-3.7774 6.9107-6.9538 10.302-3.1764 3.348-7.2327 6.0737-12.169 8.1772s-10.688 3.1551-17.256 3.1549c-4.9792 0-9.5077-0.47217-13.586-1.4165-4.0779-0.94434-7.7908-2.4037-11.139-4.3782-3.3052-2.0174-6.3527-4.6572-9.1427-7.9194-2.4896-2.9619-4.6143-6.267-6.3743-9.9155-1.7599-3.6915-3.0905-7.6191-3.9918-11.783-0.85847-4.1636-1.2877-8.5847-1.2877-13.263 0-7.5975 1.0946-14.401 3.2837-20.41 2.232-6.0094 5.4084-11.139 9.5291-15.388 4.1207-4.2924 8.9497-7.5547 14.487-9.7869 5.5372-2.232 11.439-3.348 17.706-3.348 7.6406 0 14.444 1.5238 20.41 4.5714 5.9664 3.0476 10.538 6.8249 13.714 11.332 3.1764 4.464 4.7646 8.692 4.7646 12.684 0 2.1892-0.77263 4.1207-2.3179 5.7947-1.5453 1.674-3.4124 2.511-5.6016 2.511-2.4467 0-4.2925-0.57947-5.5373-1.7384-1.2019-1.1589-2.554-3.1549-4.0564-5.9879-2.4896-4.6787-5.4299-8.1771-8.821-10.495-3.348-2.3179-7.4902-3.4769-12.426-3.4769-7.8551 0-14.122 2.9832-18.801 8.9496-4.6359 5.9664-6.9538 14.444-6.9538 25.432 0 7.3399 1.0302 13.457 3.0906 18.35 2.0604 4.8504 4.9792 8.4775 8.7564 10.881 3.7772 2.4039 8.1984 3.6058 13.263 3.6058 5.4943 0 10.13-1.3522 13.908-4.0564 3.8203-2.7471 6.6962-6.7605 8.6278-12.04 0.81555-2.4896 1.8243-4.507 3.0262-6.0522 1.2019-1.5882 3.1335-2.3823 5.7947-2.3823 2.2751 0 4.2281 0.79412 5.859 2.3823 1.6311 1.5882 2.4467 3.5627 2.4468 6.2453 1.4e-4 2.6826-0.75103 5.9449-2.2534 9.4648z" style="paint-order:markers stroke fill;white-space:pre"/><path d="m422.92 44.711h41.273v-27.042c0-3.8632 0.85849-6.7605 2.5755-8.6921 1.7599-1.9316 4.0563-2.8974 6.8892-2.8974 2.8759 0 5.1939 0.9658 6.9538 2.8974 1.8028 1.8887 2.7042 4.786 2.7042 8.6921v74.368c0 3.906-0.90141 6.8248-2.7042 8.7564-1.8028 1.9316-4.1208 2.8974-6.9538 2.8974-2.8759 0-5.1723-0.96581-6.8892-2.8974-1.717-1.9745-2.5755-4.8933-2.5755-8.7564v-31.742h-41.273v31.742c0 3.906-0.90141 6.8248-2.7042 8.7564-1.8028 1.9316-4.1208 2.8974-6.9538 2.8974-2.8759 0-5.1723-0.96581-6.8892-2.8974-1.717-1.9745-2.5755-4.8933-2.5755-8.7564v-74.368c0-3.8632 0.83703-6.7605 2.5111-8.6921 1.717-1.9316 4.0349-2.8974 6.9538-2.8974 2.8759 0 5.1939 0.9658 6.9538 2.8974 1.8028 1.8887 2.7042 4.786 2.7041 6.7391z" style="paint-order:markers stroke fill;white-space:pre"/><path d="m559.76 79.534h-38.376l-4.5071 12.105c-1.7599 4.7216-3.2623 7.9195-4.5071 9.5937-1.2448 1.6311-3.2838 2.4467-6.1168 2.4467-2.4039 0-4.5286-0.87996-6.3743-2.6398-1.8457-1.7599-2.7686-3.7559-2.7686-5.9879 0-1.2877 0.21461-2.6183 0.64386-3.9918 0.42925-1.3736 1.1375-3.2837 2.1248-5.7305l24.145-61.297c0.68678-1.7599 1.5024-3.8632 2.4467-6.31 0.98726-2.4896 2.0174-4.5499 3.0906-6.1811 1.116-1.6311 2.554-2.9403 4.3139-3.9276 1.8028-1.0302 4.0134-1.5453 6.6317-1.5453 2.6612 0 4.8718 0.51509 6.6317 1.5453 1.8028 0.98726 3.2408 2.275 4.3139 3.8633 1.116 1.5882 2.0389 3.3052 2.7686 5.1509 0.77262 1.8028 1.7384 4.228 2.8974 7.2756l24.66 60.911c1.9316 4.6359 2.8974 8.0054 2.8974 10.109 0 2.1892-0.92288 4.2065-2.7686 6.0522-1.8028 1.8028-3.992 2.7042-6.5675 2.7042-1.5024 0-2.7901-0.27889-3.8633-0.837-1.0731-0.51509-1.9745-1.2234-2.7042-2.1248-0.7297-0.94434-1.5238-2.3609-2.3823-4.2496-0.81558-1.9316-1.5238-3.6271-1.8235-4.357zm-33.351-14.358h28.201l-14.229-38.952z" style="paint-order:markers stroke fill;white-space:pre"/><path d="m627.53 23.471v68.572c0 3.9491-0.87996 6.8894-2.6398 8.821-1.7599 1.8886-4.0349 2.833-6.8249 2.833-2.8331 0-5.151-0.9658-6.9538-2.8974-1.7599-1.9316-2.6398-4.8504-2.6398-8.7564v-68.572h-20.861c-3.2623 0-5.6875-0.70827-7.2756-2.1248-1.5882-1.4594-2.3823-3.3696-2.3823-5.7305 0-2.4467 0.81557-4.3783 2.4467-5.7947 1.674-1.4165 4.0778-2.1247 7.2113-2.1247h60.782c3.3052 0 5.7519 0.7297 7.3402 2.1891 1.6311 1.4594 2.4467 3.3696 2.4467 5.7305s-0.81558 4.271-2.4467 5.7305c-1.6311 1.4165-4.0778 2.1248-5.71 2.1246z" style="paint-order:markers stroke fill;white-space:pre"/><path d="m656.57 101.1c-1.9316-1.717-2.8974-4.1207-2.8974-7.2113 0-2.6184 0.92288-4.8719 2.7686-6.7606 1.8458-1.8886 4.1207-2.833 6.8249-2.833s5.0006 0.94434 6.8892 2.833c1.9316 1.8458 2.8974 4.0993 2.8974 6.7606 0 3.0476-0.9658 5.4513-2.8974 7.2113-1.8886 1.717-4.1207 2.5755-6.739 2.5755s-4.9147-0.8585-6.8463-2.5755z" style="paint-order:markers stroke fill;white-space:pre"/><path d="m713.05 22.416v24.145h31.485c2.9188 0 5.0865 0.66532 6.5032 1.996 1.4594 1.2877 2.1891 3.0261 2.1891 5.2152 0 2.1892-0.7297 3.9276-2.1891 5.2152-1.4594 1.2877-3.6271 1.9316-6.5032 1.9316h-31.485v31.099c0 3.9491-0.90142 6.8894-2.7042 8.821-1.7599 1.8886-4.0349 2.833-6.8249 2.833-2.8331 0-5.151-0.9658-6.9538-2.8974-1.7599-1.9316-2.6398-4.8504-2.6398-8.7564v-72.627c0-2.7471 0.40779-4.9792 1.2234-6.696 0.81554-1.7599 2.0818-3.0262 3.7986-3.799 1.7599-0.81554 3.9919-1.2233 6.696-1.2233h45.071c3.0476 0 5.3011 0.68678 6.7606 2.0604 1.5024 1.3307 2.2535 3.0906 2.2535 5.2798 0 2.232-0.75116 4.0348-2.2535 5.4084-1.4594 1.3307-3.713 1.996-5.2365 1.9956z" style="paint-order:markers stroke fill;white-space:pre"/><path d="m774.72 92.04v-74.368q0-5.7947 2.6398-8.6921t6.8249-2.8974q4.3139 0 6.9538 2.8974 2.7042 2.833 2.7042 8.6921v74.368q0 5.859-2.7042 8.7564-2.6398 2.8974-6.9538 2.8974-4.1207 0-6.8249-2.8974-2.6398-2.9618-2.6398-8.7564z" style="paint-order:markers stroke fill;white-space:pre"/></g></svg>
