<svg width="800" height="109.82" version="1.1" viewBox="0 0 800 109.82" xml:space="preserve" xmlns="http://www.w3.org/2000/svg"><g transform="matrix(1.3333 0 0 -1.3333 -734.41 769.49)"><g transform="matrix(2.4725 0 0 -2.4725 667.07 1162.2)" fill="#e44e00" stroke="#000" stroke-width="3.7012" style="paint-order:markers stroke fill;shape-inside:url(#rect2683);white-space:pre" aria-label="LIVECHAT.FI"><path d="m-39.369 241.99v20.84h11.758q1.4062 0 2.1484 0.68359 0.76172 0.68359 0.76172 1.7188 0 1.0547-0.74219 1.7188-0.74219 0.64453-2.168 0.64453h-14.004q-1.8945 0-2.7344-0.83984-0.82031-0.83985-0.82031-2.7148v-22.051q0-1.7578 0.78125-2.6367 0.80078-0.8789 2.0898-0.8789 1.3086 0 2.1094 0.8789 0.82031 0.85938 0.82031 2.6367z"/><path d="m-20.658 264.55v-22.559q0-1.7578 0.80078-2.6367t2.0703-0.8789q1.3086 0 2.1094 0.8789 0.82031 0.85938 0.82031 2.6367v22.559q0 1.7773-0.82031 2.6562-0.80078 0.8789-2.1094 0.8789-1.25 0-2.0703-0.8789-0.80078-0.89844-0.80078-2.6562z"/><path d="m-4.1348 242.28 6.4844 19.199 6.5039-19.336q0.50781-1.5234 0.76172-2.1094 0.25391-0.60547 0.83984-1.0742 0.58594-0.48828 1.6016-0.48828 0.74219 0 1.3672 0.37109 0.64453 0.3711 0.99609 0.9961 0.37109 0.60546 0.37109 1.2305 0 0.42969-0.11719 0.9375-0.11719 0.48829-0.29297 0.97657-0.17578 0.46875-0.35156 0.97656l-6.9336 18.711q-0.37109 1.0742-0.74219 2.0508-0.37109 0.95703-0.85938 1.6992-0.48828 0.72265-1.3086 1.1914-0.80078 0.46875-1.9727 0.46875t-1.9922-0.46875q-0.80078-0.44922-1.3086-1.1914-0.48828-0.76172-0.85938-1.7188-0.37109-0.95703-0.74219-2.0312l-6.8164-18.555q-0.17578-0.50781-0.37109-0.99609-0.17578-0.48829-0.3125-1.0547-0.11719-0.56641-0.11719-0.95703 0-0.9961 0.80078-1.8164 0.80078-0.82031 2.0117-0.82031 1.4844 0 2.0898 0.91797 0.625 0.89843 1.2695 2.8906z"/><path d="m38.014 243.43h-13.066v7.0312h12.031q1.3281 0 1.9727 0.60546 0.66406 0.58594 0.66406 1.5625 0 0.97657-0.64453 1.6016-0.64453 0.60547-1.9922 0.60547h-12.031v8.1445h13.516q1.3672 0 2.0508 0.64453 0.70312 0.625 0.70312 1.6797 0 1.0156-0.70312 1.6602-0.68359 0.625-2.0508 0.625h-15.762q-1.8945 0-2.7344-0.83984-0.82031-0.83985-0.82031-2.7148v-21.523q0-1.25 0.37109-2.0312 0.37109-0.80078 1.1523-1.1524 0.80078-0.37109 2.0312-0.37109h15.312q1.3867 0 2.0508 0.625 0.68359 0.60547 0.68359 1.6016 0 1.0156-0.68359 1.6406-0.66406 0.60547-2.0508 0.60547z"/><path d="m70.221 258.55q0 1.3672-0.68359 2.9688-0.66406 1.582-2.1094 3.125-1.4453 1.5234-3.6914 2.4805t-5.2344 0.95703q-2.2656 0-4.1211-0.42968-1.8555-0.42969-3.3789-1.3281-1.5039-0.91797-2.7734-2.4023-1.1328-1.3477-1.9336-3.0078-0.80078-1.6797-1.2109-3.5742-0.39062-1.8945-0.39062-4.0234 0-3.457 0.99609-6.1914 1.0156-2.7344 2.8906-4.668 1.875-1.9531 4.3945-2.9688 2.5195-1.0156 5.3711-1.0156 3.4766 0 6.1914 1.3867t4.1602 3.4375q1.4453 2.0312 1.4453 3.8476 0 0.9961-0.70312 1.7578-0.70312 0.76171-1.6992 0.76171-1.1133 0-1.6797-0.52734-0.54688-0.52734-1.2305-1.8164-1.1328-2.1289-2.6758-3.1836-1.5234-1.0547-3.7695-1.0547-3.5742 0-5.7031 2.7148-2.1094 2.7148-2.1094 7.7148 0 3.3398 0.9375 5.5664 0.9375 2.207 2.6562 3.3008t4.0234 1.0938q2.5 0 4.2188-1.2305 1.7383-1.25 2.6172-3.6523 0.37109-1.1328 0.91797-1.8359 0.54688-0.72266 1.7578-0.72266 1.0352 0 1.7773 0.72266 0.74219 0.72265 0.74219 1.7969z"/><path d="m81.275 241.99v8.2031h12.52v-8.2031q0-1.7578 0.78125-2.6367 0.80078-0.8789 2.0898-0.8789 1.3086 0 2.1094 0.8789 0.82031 0.85938 0.82031 2.6367v22.559q0 1.7773-0.82031 2.6562t-2.1094 0.8789q-1.3086 0-2.0898-0.8789-0.78125-0.89844-0.78125-2.6562v-9.6289h-12.52v9.6289q0 1.7773-0.82031 2.6562t-2.1094 0.8789q-1.3086 0-2.0898-0.8789-0.78125-0.89844-0.78125-2.6562v-22.559q0-1.7578 0.76172-2.6367 0.78125-0.8789 2.1094-0.8789 1.3086 0 2.1094 0.8789 0.82031 0.85938 0.82031 2.6367z"/><path d="m124.15 264.35-1.3672-3.5938h-11.641l-1.3672 3.6719q-0.80078 2.1484-1.3672 2.9102-0.56641 0.74218-1.8555 0.74218-1.0938 0-1.9336-0.80078-0.83984-0.80078-0.83984-1.8164 0-0.58594 0.19531-1.2109 0.19532-0.625 0.64453-1.7383l7.3242-18.594q0.3125-0.80078 0.74219-1.9141 0.44922-1.1328 0.9375-1.875 0.50781-0.74218 1.3086-1.1914 0.82032-0.46875 2.0117-0.46875 1.2109 0 2.0117 0.46875 0.82031 0.44922 1.3086 1.1719 0.50781 0.72266 0.83984 1.5625 0.35156 0.82032 0.87891 2.207l7.4805 18.477q0.87891 2.1094 0.87891 3.0664 0 0.9961-0.83984 1.8359-0.82032 0.82031-1.9922 0.82031-0.68359 0-1.1719-0.2539-0.48828-0.23438-0.82031-0.64453-0.33203-0.42969-0.72265-1.2891-0.3711-0.8789-0.64454-1.543zm-11.484-7.9492h8.5547l-4.3164-11.816z"/><path d="m149.67 243.75h-6.3281v20.801q0 1.7969-0.80078 2.6758-0.80078 0.85937-2.0703 0.85937-1.2891 0-2.1094-0.8789-0.80078-0.87891-0.80078-2.6562v-20.801h-6.3281q-1.4844 0-2.207-0.64454-0.72266-0.66406-0.72266-1.7383 0-1.1133 0.74219-1.7578 0.76172-0.64453 2.1875-0.64453h18.438q1.5039 0 2.2266 0.66406 0.74219 0.66406 0.74219 1.7383t-0.74219 1.7383q-0.74219 0.64454-2.2266 0.64454z"/><path d="m154.24 268.08q-1.2109 0-2.0898-0.78125-0.87891-0.78125-0.87891-2.1875 0-1.1914 0.83984-2.0508 0.83985-0.85937 2.0703-0.85937t2.0898 0.85937q0.87891 0.83985 0.87891 2.0508 0 1.3867-0.87891 2.1875-0.85937 0.78125-2.0312 0.78125z"/><path d="m180.71 243.43h-11.426v7.3242h9.5508q1.3281 0 1.9727 0.60547 0.66406 0.58594 0.66406 1.582 0 0.9961-0.66406 1.582-0.66406 0.58593-1.9727 0.58593h-9.5508v9.4336q0 1.7969-0.82031 2.6758-0.80078 0.85937-2.0703 0.85937-1.2891 0-2.1094-0.8789-0.80078-0.87891-0.80078-2.6562v-22.031q0-1.25 0.3711-2.0312 0.37109-0.80078 1.1523-1.1524 0.80078-0.37109 2.0312-0.37109h13.672q1.3867 0 2.0508 0.625 0.68359 0.60547 0.68359 1.6016 0 1.0156-0.68359 1.6406-0.66407 0.60547-2.0508 0.60547z"/><path d="m187.99 264.55v-22.559q0-1.7578 0.80078-2.6367t2.0703-0.8789q1.3086 0 2.1094 0.8789 0.82031 0.85938 0.82031 2.6367v22.559q0 1.7773-0.82031 2.6562-0.80078 0.8789-2.1094 0.8789-1.25 0-2.0703-0.8789-0.80078-0.89844-0.80078-2.6562z"/></g></g></svg>
