<svg width="800" height="463.31" data-name="Layer 1" version="1.1" viewBox="0 0 800 463.31" xmlns="http://www.w3.org/2000/svg">
 <path d="m411.5 462.36h-137.48a5.0315 5.0315 0 0 1-2.8557-9.3831l18.766-12.239a20.262 20.262 0 0 0 9.2471-19.174v-303.25l-122.39 202.62-98.182-183.85v284.48a19.31 19.31 0 0 0 10.063 18.766l17.27 13.599c5.0315 3.9436 4.4876 9.3831-2.8557 9.3831h-80.776c-7.8872 0-8.0232-5.5755-2.8557-9.3831l17.27-12.239a20.942 20.942 0 0 0 10.199-20.126v-332.08a36.58 36.58 0 0 0-6.1194-18.766l-35.765-57.114c-5.0315-8.5672-7.6153-13.599-1.3599-13.599h102.26c5.0315 0 6.1194 0.9519 9.3831 7.2073l101.04 190.38 114.64-190.38a12.239 12.239 0 0 1 11.559-7.2073h69.217c4.2156 0 5.4395 3.3997-0.81592 11.559l-16.59 21.622v389.33a22.166 22.166 0 0 0 9.5191 18.902c8.0232 5.7114 18.222 12.511 18.222 12.511 4.4876 8.9751-10.607 8.9751-10.607 8.9751m387.83-367.71c3.1277 8.4312-5.5754 10.471-10.063 3.5357-16.454-25.158-59.426-74.929-109.33-74.929h-20.534v397.76a22.302 22.302 0 0 0 11.559 20.126l17.27 12.239c7.0713 5.0315 5.1675 9.3831-2.8557 9.3831h-148.5c-8.0232 0-9.927-4.3516-2.8557-9.3831l17.27-12.239a22.03 22.03 0 0 0 11.559-20.126v-397.76h-18.902c-50.587 0-92.471 50.859-110.29 77.105-4.2156 6.1194-12.783 3.1277-9.3831-5.7114l32.501-87.304c2.0398-5.4395 5.3035-7.8872 9.3831-7.8872h289.92a11.015 11.015 0 0 1 10.743 7.8872z" fill="#fff" stroke-width="13.599"/>
</svg>
