<svg width="800" height="465.9" data-name="Layer 1" version="1.1" viewBox="0 0 800 465.9" xmlns="http://www.w3.org/2000/svg">
 <link href="" rel="stylesheet" type="text/css"/>
 <style type="text/css"/>
 <path d="m694.32 136.12a136.12 136.12 0 0 1-136.12 136.12 136.12 136.12 0 0 1-136.12-136.12 136.12 136.12 0 0 1 136.12-136.12 136.12 136.12 0 0 1 136.12 136.12z" fill="#72b36f" stop-color="#000000" style="paint-order:stroke fill markers"/>
 <defs>
  <style>.cls-1{fill:none;}.cls-2{fill:#9b00ff;}</style>
 </defs>
 <g transform="matrix(8.7878 0 0 8.7878 1347.5 -914.42)" fill="#fff" style="shape-inside:url(#rect873);white-space:pre" aria-label="malmo">
  <path d="m-153.33 139.63h1.5625v0.41015q1.4453-1.4062 3.457-1.4062 2.0898 0 3.5547 1.4648 0.39062 0.39062 0.68359 0.85937 0.3125-0.44922 0.72266-0.85937 1.4648-1.4648 3.5547-1.4648 2.0898 0 3.5547 1.4648 1.3867 1.4258 1.4648 3.3984v13.086h-1.5625v-13.086h0.0195q-0.0586-1.3476-1.0156-2.2852-1.0352-1.0156-2.4609-1.0156-1.4453 0-2.4805 1.0156-1.0156 1.0156-1.0156 2.5391v12.832h-1.543v-13.086h0.0195q-0.0781-1.3476-1.0352-2.2852-1.0352-1.0156-2.4609-1.0156t-2.4414 1.0156q-0.89843 0.8789-1.0156 2.1484v13.223h-1.5625z"/>
  <path d="m-112.67 156.58h-1.5625v-3.457q-0.44922 0.60547-0.97656 1.1523-2.7734 2.793-6.7188 2.793-3.9062 0-6.6992-2.7734-2.7734-2.793-2.7734-6.6992 0-3.9453 2.7734-6.7188 2.793-2.7734 6.6992-2.7734 3.9453 0 6.7188 2.7734 0.52734 0.54687 0.97656 1.1523v-2.4023h1.5625zm-1.5625-7.4609v-3.0664q-0.42969-2.2852-2.1484-4.0039-2.3047-2.3047-5.5469-2.3047t-5.5469 2.3047q-2.2852 2.3047-2.2852 5.5469t2.2852 5.5273q2.3047 2.2852 5.5469 2.2852t5.5469-2.3047q1.7188-1.7188 2.1484-3.9844z"/>
  <path d="m-107.22 128.97v27.617h-1.5625v-27.617z"/>
  <path d="m-103.14 139.63h1.5625v0.41015q1.4453-1.4062 3.457-1.4062 2.0898 0 3.5547 1.4648 0.39062 0.39062 0.68359 0.85937 0.3125-0.44922 0.72266-0.85937 1.4648-1.4648 3.5547-1.4648 2.0898 0 3.5547 1.4648 1.3867 1.4258 1.4648 3.3984v13.086h-1.5625v-13.086h0.01953q-0.05859-1.3476-1.0156-2.2852-1.0352-1.0156-2.4609-1.0156-1.4453 0-2.4805 1.0156-1.0156 1.0156-1.0156 2.5391v12.832h-1.543v-13.086h0.01953q-0.07813-1.3476-1.0352-2.2852-1.0352-1.0156-2.4609-1.0156-1.4258 0-2.4414 1.0156-0.89844 0.8789-1.0156 2.1484v13.223h-1.5625z"/>
  <path d="m-71.77 138.11q3.9453 0 6.6992 2.7734 2.7734 2.7734 2.7734 6.7188 0 3.9062-2.7734 6.6992-2.7539 2.7734-6.6992 2.7734-3.9062 0-6.6992-2.7734-2.7734-2.793-2.7734-6.6992 0-3.9453 2.7734-6.7188 2.793-2.7734 6.6992-2.7734zm0 1.6406q-3.2422 0-5.5469 2.3047-2.2852 2.3047-2.2852 5.5469t2.2852 5.5273q2.3047 2.2852 5.5469 2.2852t5.5273-2.2852q2.3047-2.2852 2.3047-5.5273 0-3.2422-2.3047-5.5469-2.2852-2.3047-5.5273-2.3047z"/>
 </g>
 <g fill="#fff">
  <path d="m524.52 140.33a18.243 18.243 0 0 1-18.243 18.243 18.243 18.243 0 0 1-18.243-18.243 18.243 18.243 0 0 1 18.243-18.243 18.243 18.243 0 0 1 18.243 18.243z" stop-color="#000000" style="paint-order:stroke fill markers"/>
  <path d="m523.26 4.5608a136.12 136.12 0 0 0-33.685 14.003 18.243 18.243 0 0 0 16.703 10.906 18.243 18.243 0 0 0 18.243-18.243 18.243 18.243 0 0 0-1.2608-6.6658z" stop-color="#000000" style="paint-order:stroke fill markers"/>
  <path d="m622.69 16.25c5.7557 23.31 8.202 47.497 6.5562 71.474-1.3453 19.706-5.6251 39.172-12.298 57.75-5.3013 14.436-11.841 28.487-20.285 41.371-10.454 16.026-22.939 30.611-35.982 44.569l16.516 3.5357c16.244-14.128 30.801-30.182 43.27-47.73 15.133-20.908 25.008-45.397 29.623-70.734 5.2003-27.916 2.8716-56.816-4.0675-84.216-0.0112-0.0595-0.029-0.11872-0.0411-0.17815a136.12 136.12 0 0 0-23.292-15.842z" stop-color="#000000" style="paint-order:stroke fill markers"/>
 </g>
</svg>
