<svg width="800" height="320.5" version="1.1" viewBox="0 0 800 320.5" xmlns="http://www.w3.org/2000/svg">
 <g transform="matrix(1.4309 0 0 1.4309 0 .057235)" data-name="Layer 2">
  <g fill="#ff3334" data-name="Layer 1">
   <path class="cls-1" d="m405.91 53.58-34.29 87.18-27.2-83.7h-44.3l51.31 128.34h37.64s35.9-71.77 37.13-74.5c8.88-19.69-1.43-46.21-20.29-57.32"/>
   <path class="cls-1" d="m277.48 158c-12 0-15.51-10.64-15.51-19.44v-50.56h30.75v-30.94h-30.72v-38.87h-2.7c-18.62 0-37.2 14.49-37.2 38.82v79.41a87.92 87.92 0 0 0 2.5 21.88c5.6 22.18 26.8 31.75 46.78 31.75a63.7 63.7 0 0 0 36.45-11.5l-11.66-27.29c-2.56 1.8-8.37 6.78-18.69 6.78"/>
   <path class="cls-1" d="m158.88 54c-17.57 0-32.93 6.25-43.46 17.79-6.84-9.39-17.72-17.79-37.3-17.79-14.37 0-32.12 9.4-38.53 20.21l-1.76-20.09h-2.62c-17.7 0.47-35.21 14.33-35.21 33.82v97.46h39.87v-69q0-12.3 7-20.24t18.42-7.94q10.23 0 15.36 6.3t5.11 17.8v73.05h38.49v-69q0-12.3 6.91-20.24t18.55-7.94c6.82 0 12 2.11 15.35 6.3s5.13 10.12 5.13 17.8v73.05h39.91v-79.34q0-24.07-13.15-38t-38.07-14"/>
   <path class="cls-1" d="m530.65 102.44c10.24-6.3 21.2-20.22 21.2-41 0-35.62-26.08-61.48-62-61.48-24.74 0-47.91 13.46-59.28 34l28.43 17.65c8.62-12.12 18.75-18.08 30.87-18.08 17.37 0 28.59 11 28.59 27.95 0 15.43-12.65 27.06-29.42 27.06h-17.79v32.05h17.83c20.26 0 36.12 15.47 36.12 35.24s-13.8 32.52-35.15 32.52c-14.08 0-26.9-9.52-34.67-25.47l-27.16 22.54c10.19 23 34.5 38.53 61.83 38.53 41.94 0 69.05-26.74 69.05-68.12 0-24.22-14.3-46.34-28.45-53.39z"/>
  </g>
 </g>
</svg>
