<svg width="800" height="527.42" data-name="Layer 1" version="1.1" viewBox="0 0 800 527.42" xmlns="http://www.w3.org/2000/svg">
 <g transform="matrix(3.7478 0 0 3.7478 -274.6 -17.465)" fill="#9b00ff">
  <path class="cls-2" d="m73.28 113.58h5.22l8.14 15.28h0.07v-15.28h5.08v24h-5.22l-8.14-15.27h-0.07v15.27h-5.08z"/>
  <path class="cls-2" d="m94.77 128.51c0-5.73 3.67-9.61 9-9.61s9 3.88 9 9.61-3.67 9.62-9 9.62-9-3.88-9-9.62zm13.11 0c0-3.26-1.51-5.15-4.12-5.15s-4.08 1.89-4.08 5.15 1.51 5.16 4.08 5.16 4.12-1.89 4.12-5.16z"/>
  <path class="cls-2" d="m115.84 119.42h4.61v1.58h0.06a4.48 4.48 0 0 1 3.92-2 8.67 8.67 0 0 1 2.37 0.31l-0.83 4.67a7.71 7.71 0 0 0-2-0.27c-2.1 0-3.2 1.41-3.2 4v9.78h-4.91z"/>
  <path class="cls-2" d="m127.31 128.51c0-5.59 3.4-9.61 8.14-9.61a6.58 6.58 0 0 1 4.63 1.62h0.07v-8h4.91v25.06h-4.53v-1.58h-0.07a6.58 6.58 0 0 1-5 2.13c-4.75 0-8.15-4.02-8.15-9.62zm12.84 1.31v-2.61a3.65 3.65 0 0 0-3.77-3.81c-2.68 0-4.16 1.85-4.16 5.11s1.51 5.12 4.16 5.12a3.67 3.67 0 0 0 3.77-3.81z"/>
  <path class="cls-2" d="m148.77 111.62h5v4.81h-5zm0.06 7.8h4.91v18.19h-4.91z"/>
  <path class="cls-2" d="m156.76 128.51c0-5.73 3.68-9.61 8.83-9.61 4.43 0 7.55 2.61 8.2 6.73l-4.63 0.83a3.4 3.4 0 0 0-3.57-3.1c-2.4 0-3.92 1.89-3.92 5.15s1.52 5.16 3.92 5.16a3.34 3.34 0 0 0 3.57-3.09l4.63 0.82c-0.65 4.12-3.77 6.73-8.2 6.73-5.15 0-8.83-3.88-8.83-9.62z"/>
  <path class="cls-2" d="m186.46 113.58h15.48v4.67h-10.4v5.87h9.68v4.46h-9.68v9h-5.08z"/>
  <path class="cls-2" d="m204 132.67c0-3.06 1.82-4.7 6.49-5.84 2.88-0.68 3.77-1.2 3.77-2.16s-0.92-1.68-2.5-1.68a3.29 3.29 0 0 0-3.47 2.92l-4.5-1c0.55-3.6 3.78-6 8-6 4.56 0 7.45 2.65 7.45 6.9v11.81h-4.4v-1.44h-0.07c-0.89 1.27-2.57 2-4.77 2-3.63-0.05-6-2.18-6-5.51zm10.44-1.2v-2.65h-0.07c-0.31 0.55-1.07 1-2.72 1.45-2.19 0.58-3 1.13-3 2.09s0.76 1.65 2.23 1.65c2.12-0.01 3.56-1.01 3.56-2.54z"/>
  <path class="cls-2" d="m222.77 119.42h4.54v1.58h0.07a6 6 0 0 1 4.77-2.13 5.81 5.81 0 0 1 4.67 2.23h0.07a6.12 6.12 0 0 1 4.87-2.23 6.5 6.5 0 0 1 6.73 6.66v12.05h-4.74v-11.09a2.8 2.8 0 0 0-2.92-3.13 2.92 2.92 0 0 0-3 3.23v11h-4.53v-11.1a2.81 2.81 0 0 0-2.92-3.13c-1.79 0-2.92 1.28-2.92 3.23v11h-4.74z"/>
  <path class="cls-2" d="m252 111.62h5v4.81h-5zm0.07 7.8h4.93v18.19h-4.91z"/>
  <path class="cls-2" d="m260.84 112.55h4.91v25.06h-4.91z"/>
  <path class="cls-2" d="m274.78 136.69-7-17.27h5.08l4.36 11.58h0.07l4.39-11.53h5.05l-10.47 25.92h-5.05z"/>
  <path class="cls-2" d="m173.32 29.84c3.29 0.29 5.07 2.69 5.07 6.16 0 3.28-1.78 5.68-5.07 6h-20.25c-3.29-0.29-5.06-2.69-5.06-6 0-3.47 1.77-5.87 5.06-6.16z"/>
  <path class="cls-2" d="m179 4.66c3.29 0.29 5.07 2.68 5.07 6.13 0 3.26-1.78 5.66-5.07 5.94h-26c-3.29-0.28-5.06-2.68-5.06-5.94 0-3.45 1.77-5.84 5.06-6.13z"/>
  <path class="cls-2" d="m73.27 26.64c0-5.07 3-7.65 7.2-7.65 3.83 0 5.16 1.69 10 7.73l23.92 30h0.18v-30c0-5.07 3-7.65 7.21-7.65s7.2 2.58 7.2 7.65v49c0 5.07-3 7.65-7.2 7.65-3.83 0-5.25-1.69-10-7.74l-23.93-30h-0.17v22.6c0 5.07-3 7.65-7.21 7.65s-7.2-2.58-7.2-7.65z"/>
 </g>
</svg>
