<svg width="800" height="312.17" version="1.1" viewBox="0 0 800 312.17" xml:space="preserve" xmlns="http://www.w3.org/2000/svg"><g transform="matrix(1.3333 0 0 -1.3333 -3.5293 314.08)"><g transform="matrix(1.6519 0 0 1.6519 602.65 118.49)"><path d="m0 0c0-39.138-31.729-70.865-70.866-70.865-39.139 0-70.866 31.727-70.866 70.865 0 39.139 31.727 70.866 70.866 70.866 39.137 0 70.866-31.727 70.866-70.866" fill="#00b8f1"/></g><g transform="matrix(1.6519 0 0 1.6519 522.89 75.919)"><path d="m0 0-17.913 8.802-0.591 0.29-4.645 2.283c-0.676 0.332-0.957 1.157-0.625 1.834l0.08 0.163c0.333 0.677 1.157 0.958 1.834 0.626l5.235-2.573 14.328-7.04c1.691-0.831 3.714-0.207 4.497 1.385 0.782 1.592 0.039 3.575-1.651 4.405l-17.72 8.707c-0.072 0.035-0.147 0.054-0.221 0.083-0.065 0.038-0.121 0.085-0.189 0.118l-4.378 2.151 6.351 1.265c1.847 0.367 3.078 2.095 2.734 3.838s-2.137 2.868-3.983 2.5l-19.64-3.909c-0.024-5e-3 -0.041-0.022-0.065-0.027-5.355-0.841-10.232-4.173-12.805-9.411-3.943-8.024-1.083-17.621 6.348-22.248 0.247-0.227 10.191-5.189 10.191-5.189 0.068-0.033 10.96-5.385 10.96-5.385 1.69-0.831 3.714-0.207 4.496 1.385 0.782 1.593 0.039 3.575-1.651 4.406l-7.342 3.607-0.406 0.2-4.461 2.192c-0.778 0.382-1.124 1.284-0.77 2.006 0.355 0.722 1.28 0.999 2.058 0.616l4.867-2.392h1e-3l11.417-5.61c1.69-0.83 3.714-0.207 4.497 1.385 0.782 1.593 0.039 3.576-1.651 4.406l-16.47 8.093c-0.676 0.332-0.957 1.157-0.625 1.833l0.08 0.164c0.332 0.676 1.157 0.958 1.834 0.625l5.235-2.572h1e-3l17.912-8.802c1.691-0.831 3.714-0.207 4.496 1.385 0.784 1.592 0.04 3.575-1.65 4.405" fill="#fff"/></g><g transform="matrix(1.6519 0 0 1.6519 490.17 150.26)"><path d="m0 0 5.139 2.78h1e-3l17.581 9.51c1.66 0.898 2.325 2.911 1.48 4.474-0.846 1.563-2.894 2.107-4.554 1.21l-17.583-9.51-0.579-0.314-4.559-2.466c-0.664-0.36-1.501-0.11-1.861 0.554l-0.086 0.16c-0.359 0.664-0.11 1.501 0.554 1.861l4.56 2.466 0.579 0.313 14.063 7.607c1.66 0.897 2.326 2.911 1.481 4.473-0.846 1.564-2.895 2.108-4.555 1.21l-17.391-9.407c-0.072-0.038-0.13-0.09-0.197-0.132-0.068-0.031-0.139-0.05-0.206-0.086l-4.298-2.324 2.656 5.917c0.772 1.722 0.077 3.728-1.545 4.46-1.622 0.731-3.581-0.079-4.354-1.8l-8.211-18.299c-0.01-0.021-6e-3 -0.045-0.015-0.067-2.422-4.86-2.534-10.774 0.247-15.915 0.966-1.787 2.165-3.296 3.592-4.583 0.522 0.243 1.051 0.501 1.641 0.614l19.592 3.739c2.321 0.444 4.504-0.866 5.438-3.12 1.214 0.645 1.731 0.921 1.731 0.921 0.067 0.036 10.757 5.818 10.757 5.818 1.659 0.898 2.325 2.911 1.48 4.474-0.846 1.563-2.895 2.108-4.555 1.21l-7.207-3.898-0.398-0.215-4.378-2.369c-0.764-0.412-1.701-0.171-2.085 0.537-0.383 0.708-0.071 1.624 0.692 2.037l4.778 2.584v1e-3l11.207 6.06c1.659 0.899 2.325 2.911 1.479 4.474-0.844 1.563-2.894 2.108-4.553 1.211l-11.026-5.964h-1e-3l-5.139-2.78c-0.663-0.359-1.5-0.11-1.86 0.554l-0.087 0.161c-0.358 0.664-0.109 1.501 0.555 1.859" fill="#fff"/></g><g fill="#fff"><path d="m2.647 58.688h41.916v119.61h-41.916z"/><path d="m122.23 58.688h41.895v119.61h-41.895z"/><path d="m216.7 58.688h41.92v119.61h-41.92z"/><g transform="matrix(1.6519 0 0 1.6519 190.4 180.75)"><path d="m0 0c-7.9 0-14.292-6.453-14.292-14.42 0-7.962 6.392-14.435 14.292-14.435 7.912 0 14.332 6.473 14.332 14.435 0 7.967-6.42 14.42-14.332 14.42" fill="#fff"/></g><g transform="matrix(1.6519 0 0 1.6519 311.04 112.92)"><path d="m0 0c-1.518 2.573-1.605 4.155-0.141 6.64l20.113 32.937h-27.903s-16.765-27.406-19.056-31.214c-2.271-3.802-2.172-6.171 0.093-10.079 2.292-3.903 18.963-31.113 18.963-31.113h27.903s-19.752 32.424-19.972 32.829" fill="#fff"/></g><g transform="matrix(1.6519 0 0 1.6519 119.59 58.768)"><path d="m0 0-13.579 60.726c-1.299 6.634-7.1 11.632-14.053 11.632h-16.304l16.383-72.406h27.559z" fill="#fff"/></g></g></g></svg>
