<svg width="800" height="536.39" version="1.1" viewBox="0 0 211.67 141.92" xmlns="http://www.w3.org/2000/svg">
 <g transform="translate(159.64 -48.292)">
  <path d="m-112.08 181.12-2.1057-21.767-7.0755 21.767h-4.9714l-7.0772-21.814-2.1057 21.814h-5.9123l3.1362-32.25h6.6291l7.7924 23.696 7.9732-23.696h6.3603l3.181 32.25z" fill="#fff"/>
  <path d="m-94.192 181.12h-5.9123v-23.649h5.9123zm-2.8674-32.787c2.1057 0 3.5826 1.0736 3.5826 3.0897 0 1.9265-1.4768 3.0018-3.5826 3.0018-1.9713 0-3.5394-1.0753-3.5394-3.0018 0-2.0161 1.5681-3.0897 3.5394-3.0897" fill="#fff"/>
  <g transform="matrix(1.6594 0 0 -1.6594 -71.345 164.68)">
   <path d="m0 0c-0.54 0.647-1.62 1.62-3.132 1.62-1.943 0-3.158-1.431-3.158-4.4 0-2.403 0.783-4.454 3.239-4.454 1.458 0 2.484 0.918 3.051 1.592zm0.216-8.07c-0.73-0.999-2.16-2.187-4.427-2.187-3.969 0-5.857 2.861-5.857 7.423 0 4.832 2.537 7.504 5.992 7.504 1.808 0 3.131-0.837 4.102-1.89v6.748h3.564v-19.434h-3.186z" fill="#fff"/>
  </g>
  <g transform="matrix(1.6594 0 0 -1.6594 -51.631 161.95)">
   <path d="m0 0v-7.989c0-0.837 0.27-1.161 0.917-1.161 0.433 0 1.27 0.108 1.674 0.243l0.35-2.457c-0.944-0.324-2.266-0.539-3.346-0.539-2.133 0-3.158 1.16-3.158 3.184v8.719h-1.863v2.079l1.916 0.594 0.378 4.102h3.132v-4.076h2.564v-2.699z" fill="#fff"/>
  </g>
  <g transform="matrix(1.6594 0 0 -1.6594 -37.249 157.47)">
   <path d="m0 0 0.297-1.89c1.026 1.189 2.618 2.214 4.616 2.214 2.996 0 4.508-1.917 4.508-5.02v-9.556h-3.59v8.476c0 2.132-0.729 3.05-2.241 3.05-1.43 0-2.564-1.08-2.996-1.592v-9.934h-3.59v14.252z" fill="#fff"/>
  </g>
  <g transform="matrix(1.6594 0 0 -1.6594 4.3694 157.47)">
   <path d="m0 0-4.805-13.686c-1.43-4.102-2.079-6.045-5.831-6.045-0.782 0-1.593 0.108-2.402 0.324l0.27 2.537c0.432-0.081 1.08-0.19 1.809-0.19 1.025 0 1.754 0.271 2.321 1.998l0.135 0.405-4.967 14.657h3.752l2.943-10.527 3.184 10.527z" fill="#fff"/>
  </g>
  <g transform="matrix(1.6594 0 0 -1.6594 29.279 161.95)">
   <path d="m0 0v-7.989c0-0.837 0.27-1.161 0.918-1.161 0.432 0 1.269 0.108 1.674 0.243l0.35-2.457c-0.945-0.324-2.267-0.539-3.347-0.539-2.132 0-3.158 1.16-3.158 3.184v8.719h-4.507v-8.044c0-0.837 0.377-1.106 1.025-1.106 0.404 0 0.782 0.081 1.188 0.215l0.35-2.429c-0.944-0.351-1.916-0.539-2.969-0.539-2.132 0-3.13 1.16-3.13 3.184v8.719h-1.89v2.133l1.943 0.566 0.378 4.049h3.105v-4.049h4.561l0.378 4.076h3.131v-4.076h2.618v-2.699z" fill="#fff"/>
  </g>
  <g transform="matrix(1.6594 0 0 -1.6594 52.023 89.593)">
   <path d="m0 0c0-13.743-11.143-24.886-24.887-24.886-13.746 0-24.889 11.143-24.889 24.886 0 13.747 11.143 24.89 24.889 24.89 13.744 0 24.887-11.143 24.887-24.89" fill="#00b8f1"/>
  </g>
  <g transform="matrix(1.6594 0 0 -1.6594 -2.2275 68.495)">
   <path d="m0 0v-6.674h3.697v-4e-3h0.013v-18.751h8.922v25.429h-4.46z" fill="#fff"/>
  </g>
  <path d="m-159.64 110.69h14.787v-42.193h-14.787z" fill="#fff"/>
  <path d="m-117.46 110.69h14.788v-42.193h-14.788z" fill="#fff"/>
  <path d="m-84.128 110.69h14.785v-42.193h-14.785z" fill="#fff"/>
  <g transform="matrix(1.6594 0 0 -1.6594 -93.41 67.629)">
   <path d="m0 0c-2.772 0-5.021-2.265-5.021-5.063 0-2.797 2.249-5.069 5.021-5.069 2.78 0 5.033 2.272 5.033 5.069 0 2.798-2.253 5.063-5.033 5.063" fill="#fff"/>
  </g>
  <g transform="matrix(1.6594 0 0 -1.6594 -50.853 91.557)">
   <path d="m0 0c-0.532 0.904-0.56 1.46-0.047 2.332l7.068 11.566h-9.801s-5.887-9.623-6.692-10.96c-0.802-1.336-0.766-2.167 0.032-3.54 0.804-1.371 6.66-10.926 6.66-10.926h9.801s-6.939 11.386-7.021 11.528" fill="#fff"/>
  </g>
  <g transform="matrix(1.6594 0 0 -1.6594 -118.39 110.66)">
   <path d="m0 0-4.77 21.327c-0.456 2.331-2.49 4.085-4.934 4.085h-5.724l5.754-25.427h9.679z" fill="#fff"/>
  </g>
 </g>
</svg>
