<svg width="800" height="505.33" version="1.1" viewBox="0 0 211.67 133.7" xmlns="http://www.w3.org/2000/svg">
 <path d="m211.67 41.302c0 22.807-18.491 41.297-41.297 41.297-22.81 0-41.301-18.491-41.301-41.297 0-22.812 18.491-41.302 41.301-41.302 22.807 0 41.297 18.491 41.297 41.302" fill="#00b8f1" stroke-width="1.6594"/>
 <path d="m157.42 20.203v11.075h6.1348v0.0083h0.0216v31.114h14.805v-42.197h-7.4009z" fill="#fff" stroke-width="1.6594"/>
 <path d="m4.57 100.87h6.1828v32.25h-6.1828z" fill="#1d1d1b"/>
 <path d="m22.76 109.47 0.49284 3.1363c1.7025-1.973 4.3443-3.6739 7.6598-3.6739 4.9716 0 7.4806 3.1811 7.4806 8.3302v15.857h-5.9572v-14.065c0-3.5378-1.2097-5.0612-3.7187-5.0612-2.3729 0-4.2547 1.7922-4.9716 2.6418v16.484h-5.9572v-23.65z" fill="#1d1d1b" stroke-width="1.6594"/>
 <path d="m49.867 109.47 0.49284 3.1363c1.7025-1.973 4.3443-3.6739 7.6598-3.6739 4.9716 0 7.4806 3.1811 7.4806 8.3302v15.857h-5.9572v-14.065c0-3.5378-1.2097-5.0612-3.7187-5.0612-2.3729 0-4.2547 1.7922-4.9716 2.6418v16.484h-5.9572v-23.65z" fill="#1d1d1b" stroke-width="1.6594"/>
 <path d="m72.136 100.87h5.9571v32.25h-5.9571z" fill="#1d1d1b"/>
 <path d="m97.939 123.4c-0.67206-0.13441-1.6129-0.22402-2.821-0.22402-3.2259 0-5.4213 0.85127-5.4213 3.4947 0 1.7457 1.1201 2.6418 3.2259 2.6418 3.0915 0 5.0164-2.8226 5.0164-5.2852zm5.9572 9.7191h-4.7475l-0.62725-3.1794c-1.7025 2.5074-4.1219 3.7619-7.4358 3.7619-4.2547 0-7.2997-2.3281-7.2997-6.9429 0-3.7619 2.6866-7.4789 10.794-7.4789 1.3425 0 2.2385 0.0448 3.3586 0.17922v-1.7474c0-2.8226-1.4785-4.0307-4.0323-4.0307-2.8658 0-4.7027 0.89608-6.9861 2.2385l-2.0145-3.5826c2.5522-2.0162 6.09-3.4051 9.6278-3.4051 5.9141 0 9.3623 2.5538 9.3623 8.6903z" fill="#1d1d1b" stroke-width="1.6594"/>
 <path d="m115.37 109.47 0.49284 3.1363c1.7009-1.973 4.3443-3.6739 7.6581-3.6739 4.9716 0 7.4806 3.1811 7.4806 8.3302v15.857h-5.9572v-14.065c0-3.5378-1.208-5.0612-3.717-5.0612-2.3746 0-4.2564 1.7922-4.9716 2.6418v16.484h-5.9572v-23.65z" fill="#1d1d1b" stroke-width="1.6594"/>
 <path d="m153.4 116.68c-0.89608-1.0736-2.6866-2.6882-5.1956-2.6882-3.2242 0-5.2404 2.3746-5.2404 7.3014 0 3.9875 1.2976 7.391 5.3748 7.391 2.4178 0 4.122-1.5233 5.0612-2.6418zm0.35843 13.391c-1.2097 1.6577-3.5826 3.6291-7.3462 3.6291-6.5845 0-9.7191-4.7476-9.7191-12.318 0-8.0182 4.2099-12.452 9.9431-12.452 3.0002 0 5.1972 1.3889 6.8085 3.1363v-11.198h5.9124v32.249h-5.2852z" fill="#1d1d1b" stroke-width="1.6594"/>
 <path d="m180.96 119.01c0-3.0018-1.0736-5.5988-4.4339-5.5988-3.9427 0-5.106 3.6739-5.1956 5.5988zm5.0628 11.647c-2.7778 2.0593-6.002 3.045-9.5864 3.045-7.1222 0-11.422-4.2995-11.422-12.23 0-7.6133 4.4339-12.54 11.466-12.54 6.5397 0 10.169 3.8083 10.169 11.466 0 0.53764-0.0465 2.509-0.0913 2.9122h-15.273c0.26882 3.2242 1.8353 5.4644 5.8676 5.4644 2.3746 0 4.2995-0.62725 6.9429-2.0162z" fill="#1d1d1b" stroke-width="1.6594"/>
 <path d="m199.37 113.95v13.257c0 1.3889 0.4497 1.9266 1.5233 1.9266 0.71686 0 2.1058-0.17922 2.7778-0.40323l0.58079 4.0771c-1.5665 0.53765-3.7619 0.89442-5.5524 0.89442-3.5395 0-5.242-1.9249-5.242-5.2835v-14.468h-3.0915v-3.4499l3.1811-0.98569 0.62725-6.8069h5.1956v6.7637h4.2547v4.4787z" fill="#1d1d1b" stroke-width="1.6594"/>
 <path d="m0 62.394h14.785v-42.193h-14.785z" fill="#1d1d1b"/>
 <path d="m42.18 62.394h14.787v-42.193h-14.787z" fill="#1d1d1b"/>
 <path d="m75.515 62.394h14.783v-42.193h-14.783z" fill="#1d1d1b"/>
 <path d="m66.232 19.338c-4.5999 0-8.3318 3.7602-8.3318 8.4032 0 4.6397 3.732 8.4098 8.3318 8.4098 4.6131 0 8.3518-3.7702 8.3518-8.4098 0-4.643-3.7386-8.4032-8.3518-8.4032" fill="#1d1d1b" stroke-width="1.6594"/>
 <path d="m108.79 43.266c-0.8828-1.5001-0.92926-2.4211-0.078-3.8697l11.729-19.193h-16.264s-9.7689 15.968-11.106 18.187c-1.3292 2.2186-1.2694 3.5959 0.05476 5.8743 1.3325 2.275 11.052 18.131 11.052 18.131h16.264s-11.516-18.892-11.651-19.13" fill="#1d1d1b" stroke-width="1.6594"/>
 <path d="m41.25 62.374-7.9153-35.39c-0.75669-3.8681-4.1319-6.7786-8.1875-6.7786h-9.4984l9.5482 42.194h16.063z" fill="#1d1d1b" stroke-width="1.6594"/>
</svg>
