<svg width="800" height="323.28" version="1.1" viewBox="0 0 211.67 85.535" xmlns="http://www.w3.org/2000/svg">
 <g transform="translate(237.55 -25.147)">
  <path d="m-237.55 85.808h3.9079l4.4201 15.065 4.501-15.065h3.827l-6.1983 19.405h-4.3392z" fill="#fff"/>
  <g transform="matrix(.99844 0 0 -.99844 -210.76 96.722)">
   <path d="m0 0c0 1.809-0.647 3.374-2.672 3.374-2.376 0-3.077-2.214-3.131-3.374zm3.051-7.019c-1.674-1.241-3.617-1.835-5.777-1.835-4.292 0-6.883 2.591-6.883 7.37 0 4.588 2.672 7.557 6.91 7.557 3.941 0 6.128-2.295 6.128-6.91 0-0.324-0.028-1.512-0.055-1.755h-9.204c0.162-1.943 1.106-3.293 3.536-3.293 1.431 0 2.591 0.378 4.184 1.215z" fill="#fff"/>
  </g>
  <g transform="matrix(.99844 0 0 -.99844 -203.37 100.93)">
   <path d="m0 0c1.35-1.025 3.132-1.836 4.508-1.836 1.296 0 1.998 0.567 1.998 1.458 0 0.944-0.486 1.377-2.834 1.971-3.077 0.782-4.373 1.943-4.373 4.292 0 2.753 2.159 4.399 5.398 4.399 2.268 0 4.184-0.809 5.668-2.159l-1.592-2.079c-1.349 0.972-2.672 1.512-3.914 1.512-1.323 0-1.97-0.459-1.97-1.269 0-1.053 0.944-1.35 3.104-1.971 3.023-0.863 4.4-1.862 4.4-4.237 0-3.023-2.241-4.724-5.696-4.724-2.618 0-4.832 1.08-6.289 2.484z" fill="#fff"/>
  </g>
  <g transform="matrix(.99844 0 0 -.99844 -185.26 93.677)">
   <path d="m0 0v-7.989c0-0.837 0.271-1.161 0.918-1.161 0.432 0 1.269 0.108 1.674 0.243l0.35-2.457c-0.944-0.324-2.267-0.539-3.346-0.539-2.133 0-3.159 1.16-3.159 3.184v8.719h-1.863v2.079l1.917 0.594 0.378 4.102h3.131v-4.076h2.564v-2.699z" fill="#fff"/>
  </g>
  <path d="m-179.51 85.808h3.5844v19.405h-3.5844z" fill="#fff"/>
  <g transform="matrix(.99844 0 0 -.99844 -163.99 99.364)">
   <path d="m0 0c-0.405 0.081-0.972 0.135-1.701 0.135-1.944 0-3.266-0.513-3.266-2.106 0-1.052 0.675-1.592 1.944-1.592 1.862 0 3.023 1.701 3.023 3.185zm3.59-5.857h-2.861l-0.378 1.916c-1.026-1.511-2.484-2.267-4.481-2.267-2.564 0-4.4 1.403-4.4 4.184 0 2.267 1.62 4.507 6.506 4.507 0.809 0 1.349-0.027 2.024-0.108v1.053c0 1.701-0.892 2.429-2.43 2.429-1.727 0-2.834-0.54-4.211-1.349l-1.214 2.159c1.539 1.215 3.67 2.052 5.803 2.052 3.563 0 5.642-1.539 5.642-5.237z" fill="#fff"/>
  </g>
  <g transform="matrix(.99844 0 0 -.99844 -153.5 90.982)">
   <path d="m0 0 0.297-1.89c1.025 1.189 2.618 2.214 4.615 2.214 2.996 0 4.508-1.917 4.508-5.02v-9.556h-3.59v8.476c0 2.132-0.728 3.05-2.24 3.05-1.431 0-2.565-1.08-2.996-1.592v-9.934h-3.59v14.252z" fill="#fff"/>
  </g>
  <g transform="matrix(.99844 0 0 -.99844 -130.61 95.321)">
   <path d="m0 0c-0.54 0.647-1.62 1.62-3.132 1.62-1.943 0-3.158-1.431-3.158-4.4 0-2.403 0.783-4.454 3.239-4.454 1.458 0 2.484 0.918 3.051 1.592zm0.216-8.07c-0.73-0.999-2.16-2.187-4.427-2.187-3.969 0-5.857 2.861-5.857 7.423 0 4.832 2.537 7.504 5.992 7.504 1.808 0 3.131-0.837 4.102-1.89v6.748h3.564v-19.434h-3.186z" fill="#fff"/>
  </g>
  <g transform="matrix(.99844 0 0 -.99844 -122.44 100.93)">
   <path d="m0 0c1.35-1.025 3.132-1.836 4.508-1.836 1.296 0 1.998 0.567 1.998 1.458 0 0.944-0.486 1.377-2.834 1.971-3.077 0.782-4.373 1.943-4.373 4.292 0 2.753 2.159 4.399 5.398 4.399 2.268 0 4.184-0.809 5.668-2.159l-1.592-2.079c-1.349 0.972-2.672 1.512-3.914 1.512-1.323 0-1.97-0.459-1.97-1.269 0-1.053 0.944-1.35 3.104-1.971 3.023-0.863 4.4-1.862 4.4-4.237 0-3.023-2.241-4.724-5.696-4.724-2.618 0-4.832 1.08-6.289 2.484z" fill="#fff"/>
  </g>
  <g transform="matrix(.99844 0 0 -.99844 -105.46 93.03)">
   <path d="m0 0c0.675 1.322 1.836 2.375 3.158 2.375 0.513 0 0.999-0.135 1.404-0.297l-0.27-3.266c-0.459 0.135-0.837 0.189-1.35 0.189-1.08 0-2.078-0.972-2.537-1.755v-9.447h-3.59v14.252h2.862z" fill="#fff"/>
  </g>
  <g transform="matrix(.99844 0 0 -.99844 -89.557 96.722)">
   <path d="m0 0c0 1.809-0.648 3.374-2.673 3.374-2.375 0-3.077-2.214-3.131-3.374zm3.05-7.019c-1.674-1.241-3.617-1.835-5.777-1.835-4.292 0-6.882 2.591-6.882 7.37 0 4.588 2.672 7.557 6.91 7.557 3.94 0 6.127-2.295 6.127-6.91 0-0.324-0.027-1.512-0.054-1.755h-9.205c0.162-1.943 1.107-3.293 3.536-3.293 1.431 0 2.592 0.378 4.185 1.215z" fill="#fff"/>
  </g>
  <g transform="matrix(.99844 0 0 -.99844 -80.74 90.982)">
   <path d="m0 0 3.131-10.77 3.132 10.77h3.617l-4.697-14.252h-4.184l-4.751 14.252z" fill="#fff"/>
  </g>
  <g transform="matrix(.99844 0 0 -.99844 -56.157 90.982)">
   <path d="m0 0-4.805-13.686c-1.43-4.102-2.079-6.045-5.831-6.045-0.782 0-1.593 0.108-2.402 0.324l0.27 2.537c0.432-0.081 1.08-0.19 1.809-0.19 1.025 0 1.754 0.271 2.321 1.998l0.135 0.405-4.967 14.657h3.752l2.943-10.527 3.184 10.527z" fill="#fff"/>
  </g>
  <g transform="matrix(.99844 0 0 -.99844 -45.05 96.722)">
   <path d="m0 0c0 1.809-0.648 3.374-2.673 3.374-2.375 0-3.077-2.214-3.131-3.374zm3.05-7.019c-1.674-1.241-3.617-1.835-5.777-1.835-4.292 0-6.882 2.591-6.882 7.37 0 4.588 2.672 7.557 6.91 7.557 3.94 0 6.127-2.295 6.127-6.91 0-0.324-0.027-1.512-0.054-1.755h-9.205c0.162-1.943 1.107-3.293 3.536-3.293 1.431 0 2.592 0.378 4.185 1.215z" fill="#fff"/>
  </g>
  <g transform="matrix(.99844 0 0 -.99844 -35.29 90.982)">
   <path d="m0 0 0.297-1.89c1.025 1.189 2.618 2.214 4.615 2.214 2.996 0 4.508-1.917 4.508-5.02v-9.556h-3.59v8.476c0 2.132-0.728 3.05-2.24 3.05-1.431 0-2.565-1.08-2.996-1.592v-9.934h-3.59v14.252z" fill="#fff"/>
  </g>
  <g transform="matrix(.99844 0 0 -.99844 -67.284 49.999)">
   <path d="m0 0c0-13.744-11.143-24.887-24.887-24.887-13.745 0-24.889 11.143-24.889 24.887 0 13.746 11.144 24.89 24.889 24.89 13.744 0 24.887-11.144 24.887-24.89" fill="#00b8f1"/>
  </g>
  <g transform="matrix(.99844 0 0 -.99844 -99.927 37.304)">
   <path d="m0 0v-6.675h3.697v-4e-3h0.013v-18.75h8.922v25.429h-4.46z" fill="#fff"/>
  </g>
  <path d="m-194.64 62.69h8.8961v-25.387h-8.8961z" fill="#fff"/>
  <path d="m-169.26 62.69h8.8981v-25.387h-8.8981z" fill="#fff"/>
  <path d="m-149.21 62.69h8.8961v-25.387h-8.8961z" fill="#fff"/>
  <g transform="matrix(.99844 0 0 -.99844 -154.79 36.783)">
   <path d="m0 0c-2.772 0-5.021-2.266-5.021-5.064 0-2.797 2.249-5.069 5.021-5.069 2.779 0 5.033 2.272 5.033 5.069 0 2.798-2.254 5.064-5.033 5.064" fill="#fff"/>
  </g>
  <g transform="matrix(.99844 0 0 -.99844 -129.18 51.18)">
   <path d="m0 0c-0.532 0.904-0.56 1.459-0.047 2.332l7.068 11.566h-9.801s-5.887-9.624-6.692-10.96c-0.802-1.337-0.766-2.167 0.032-3.541 0.803-1.37 6.66-10.925 6.66-10.925h9.801s-6.94 11.385-7.021 11.528" fill="#fff"/>
  </g>
  <g transform="matrix(.99844 0 0 -.99844 -169.82 62.676)">
   <path d="m0 0-4.77 21.327c-0.456 2.33-2.49 4.085-4.934 4.085h-5.724l5.754-25.427h9.68z" fill="#fff"/>
  </g>
 </g>
</svg>
