<svg width="800" height="505.33" version="1.1" viewBox="0 0 211.67 133.7" xmlns="http://www.w3.org/2000/svg">
 <g transform="translate(143.59 -51.066)">
  <path d="m-139.02 151.94h6.1828v32.25h-6.1828z" fill="#fff"/>
  <g transform="matrix(1.6594 0 0 -1.6594 -120.83 160.54)">
   <path d="m0 0 0.297-1.89c1.026 1.189 2.618 2.214 4.616 2.214 2.996 0 4.508-1.917 4.508-5.02v-9.556h-3.59v8.476c0 2.132-0.729 3.05-2.241 3.05-1.43 0-2.564-1.08-2.996-1.592v-9.934h-3.59v14.252z" fill="#fff"/>
  </g>
  <g transform="matrix(1.6594 0 0 -1.6594 -93.723 160.54)">
   <path d="m0 0 0.297-1.89c1.026 1.189 2.618 2.214 4.616 2.214 2.996 0 4.508-1.917 4.508-5.02v-9.556h-3.59v8.476c0 2.132-0.729 3.05-2.241 3.05-1.43 0-2.564-1.08-2.996-1.592v-9.934h-3.59v14.252z" fill="#fff"/>
  </g>
  <path d="m-71.454 151.94h5.9571v32.25h-5.9571z" fill="#fff"/>
  <g transform="matrix(1.6594 0 0 -1.6594 -45.651 174.47)">
   <path d="m0 0c-0.405 0.081-0.972 0.135-1.7 0.135-1.944 0-3.267-0.513-3.267-2.106 0-1.052 0.675-1.592 1.944-1.592 1.863 0 3.023 1.701 3.023 3.185zm3.59-5.857h-2.861l-0.378 1.916c-1.026-1.511-2.484-2.267-4.481-2.267-2.564 0-4.399 1.403-4.399 4.184 0 2.267 1.619 4.507 6.505 4.507 0.809 0 1.349-0.027 2.024-0.108v1.053c0 1.701-0.891 2.429-2.43 2.429-1.727 0-2.834-0.54-4.21-1.349l-1.214 2.159c1.538 1.215 3.67 2.052 5.802 2.052 3.564 0 5.642-1.539 5.642-5.237z" fill="#fff"/>
  </g>
  <g transform="matrix(1.6594 0 0 -1.6594 -28.222 160.54)">
   <path d="m0 0 0.297-1.89c1.025 1.189 2.618 2.214 4.615 2.214 2.996 0 4.508-1.917 4.508-5.02v-9.556h-3.59v8.476c0 2.132-0.728 3.05-2.24 3.05-1.431 0-2.565-1.08-2.996-1.592v-9.934h-3.59v14.252z" fill="#fff"/>
  </g>
  <g transform="matrix(1.6594 0 0 -1.6594 9.8127 167.75)">
   <path d="m0 0c-0.54 0.647-1.619 1.62-3.131 1.62-1.943 0-3.158-1.431-3.158-4.4 0-2.403 0.782-4.454 3.239-4.454 1.457 0 2.484 0.918 3.05 1.592zm0.216-8.07c-0.729-0.999-2.159-2.187-4.427-2.187-3.968 0-5.857 2.861-5.857 7.423 0 4.832 2.537 7.504 5.992 7.504 1.808 0 3.132-0.837 4.103-1.89v6.748h3.563v-19.434h-3.185z" fill="#fff"/>
  </g>
  <g transform="matrix(1.6594 0 0 -1.6594 37.366 170.08)">
   <path d="m0 0c0 1.809-0.647 3.374-2.672 3.374-2.376 0-3.077-2.214-3.131-3.374zm3.051-7.019c-1.674-1.241-3.617-1.835-5.777-1.835-4.292 0-6.883 2.591-6.883 7.37 0 4.588 2.672 7.557 6.91 7.557 3.941 0 6.128-2.295 6.128-6.91 0-0.324-0.028-1.512-0.055-1.755h-9.204c0.162-1.943 1.106-3.293 3.536-3.293 1.431 0 2.591 0.378 4.184 1.215z" fill="#fff"/>
  </g>
  <g transform="matrix(1.6594 0 0 -1.6594 55.782 165.02)">
   <path d="m0 0v-7.989c0-0.837 0.271-1.161 0.918-1.161 0.432 0 1.269 0.108 1.674 0.243l0.35-2.457c-0.944-0.324-2.267-0.539-3.346-0.539-2.133 0-3.159 1.16-3.159 3.184v8.719h-1.863v2.079l1.917 0.594 0.378 4.102h3.131v-4.076h2.564v-2.699z" fill="#fff"/>
  </g>
  <g transform="matrix(1.6594 0 0 -1.6594 68.077 92.368)">
   <path d="m0 0c0-13.744-11.143-24.887-24.887-24.887-13.746 0-24.889 11.143-24.889 24.887 0 13.747 11.143 24.89 24.889 24.89 13.744 0 24.887-11.143 24.887-24.89" fill="#00b8f1"/>
  </g>
  <g transform="matrix(1.6594 0 0 -1.6594 13.827 71.269)">
   <path d="m0 0v-6.674h3.697v-5e-3h0.013v-18.75h8.922v25.429h-4.46z" fill="#fff"/>
  </g>
  <path d="m-143.59 113.46h14.785v-42.193h-14.785z" fill="#fff"/>
  <path d="m-101.41 113.46h14.787v-42.193h-14.787z" fill="#fff"/>
  <path d="m-68.075 113.46h14.783v-42.193h-14.783z" fill="#fff"/>
  <g transform="matrix(1.6594 0 0 -1.6594 -77.358 70.404)">
   <path d="m0 0c-2.772 0-5.021-2.266-5.021-5.064 0-2.796 2.249-5.068 5.021-5.068 2.78 0 5.033 2.272 5.033 5.068 0 2.798-2.253 5.064-5.033 5.064" fill="#fff"/>
  </g>
  <g transform="matrix(1.6594 0 0 -1.6594 -34.799 94.332)">
   <path d="m0 0c-0.532 0.904-0.56 1.459-0.047 2.332l7.068 11.566h-9.801s-5.887-9.623-6.693-10.96c-0.801-1.337-0.765-2.167 0.033-3.54 0.803-1.371 6.66-10.926 6.66-10.926h9.801s-6.94 11.385-7.021 11.528" fill="#fff"/>
  </g>
  <g transform="matrix(1.6594 0 0 -1.6594 -102.34 113.44)">
   <path d="m0 0-4.77 21.327c-0.456 2.331-2.49 4.085-4.934 4.085h-5.724l5.754-25.427h9.68z" fill="#fff"/>
  </g>
 </g>
</svg>
