<svg width="800" height="389.38" version="1.1" viewBox="0 0 211.67 103.02" xmlns="http://www.w3.org/2000/svg">
 <defs>
  <clipPath id="clipPath422">
   <path d="m609.53 488.38h330.01v110.01h-330.01z"/>
  </clipPath>
 </defs>
 <g transform="translate(109.95 -20.159)">
  <g transform="matrix(1.2002 0 0 -1.2002 -933.55 725.01)">
   <g clip-path="url(#clipPath422)">
    <g transform="translate(695.48 510.15)">
     <path d="m0 0c3.4 0 5.344 2.402 5.344 6.775 0 3.996-1.97 6.533-5.318 6.533-3.401 0-5.371-2.565-5.371-6.533 0-4.345 1.997-6.775 5.345-6.775m0 16.709c5.587 0 9.258-3.671 9.258-9.934 0-6.639-3.698-10.175-9.258-10.175-5.561 0-9.259 3.562-9.259 10.175 0 6.263 3.698 9.934 9.259 9.934" fill="#fff"/>
    </g>
    <g transform="translate(708.92 511.4)">
     <path d="m0 0c1.35-1.025 3.131-1.836 4.508-1.836 1.296 0 1.997 0.567 1.997 1.458 0 0.944-0.485 1.377-2.834 1.971-3.077 0.782-4.373 1.943-4.373 4.292 0 2.753 2.159 4.399 5.398 4.399 2.268 0 4.185-0.809 5.669-2.159l-1.593-2.079c-1.349 0.972-2.671 1.512-3.914 1.512-1.322 0-1.97-0.459-1.97-1.269 0-1.053 0.945-1.35 3.104-1.971 3.024-0.863 4.401-1.862 4.401-4.237 0-3.023-2.242-4.724-5.697-4.724-2.618 0-4.831 1.08-6.289 2.484z" fill="#fff"/>
    </g>
    <path d="m722.83 526.54h3.59v-19.435h-3.59z" fill="#fff"/>
    <g transform="translate(737.03 509.78)">
     <path d="m0 0c1.916 0 3.319 1.27 3.319 4.454 0 3.158-1.403 4.481-3.319 4.481-1.917 0-3.294-1.43-3.294-4.481 0-3.184 1.377-4.454 3.294-4.454m0.054 11.904c4.049 0 7.045-2.564 7.045-7.45 0-4.858-3.078-7.476-7.235-7.476-4.264 0-6.936 2.618-6.936 7.395 0 4.913 3.05 7.531 7.126 7.531" fill="#fff"/>
    </g>
    <g transform="translate(760.03 509.78)">
     <path d="m0 0c1.917 0 3.32 1.27 3.32 4.454 0 3.158-1.403 4.481-3.32 4.481-1.916 0-3.293-1.43-3.293-4.481 0-3.184 1.377-4.454 3.293-4.454m0.054 11.904c4.049 0 7.046-2.564 7.046-7.45 0-4.858-3.078-7.476-7.235-7.476-4.264 0-6.937 2.618-6.937 7.395 0 4.913 3.051 7.531 7.126 7.531" fill="#fff"/>
    </g>
    <g transform="translate(780.17 516.96)">
     <path d="m0 0c-0.486 0.647-1.701 1.674-3.158 1.674-2.025 0-3.132-1.458-3.132-4.266 0-2.672 0.972-4.211 3.186-4.211 1.511 0 2.483 0.865 3.104 1.539zm3.59-9.069c0-4.886-2.133-6.452-6.694-6.452-2.025 0-3.942 0.432-5.156 0.891l0.567 2.618c1.296-0.351 2.645-0.702 4.319-0.702 2.618 0 3.509 1.026 3.509 3.671v1.323c-0.999-1.242-2.537-2.051-4.373-2.051-3.752 0-5.83 2.483-5.83 6.963 0 4.454 2.024 7.532 6.073 7.532 2.051 0 3.536-1.188 4.373-2.16l0.242 1.835h2.97z" fill="#fff"/>
    </g>
    <g transform="translate(792.38 526.54)">
     <path d="m0 0h3.914l4.427-15.089 4.508 15.089h3.833l-6.208-19.435h-4.346z" fill="#fff"/>
    </g>
    <path d="m815.38 507.1h-3.563v14.252h3.563zm-1.727 19.758c1.268 0 2.159-0.647 2.159-1.862 0-1.161-0.891-1.809-2.159-1.809-1.189 0-2.133 0.648-2.133 1.809 0 1.215 0.944 1.862 2.133 1.862" fill="#fff"/>
    <g transform="translate(823.16 516.44)">
     <path d="m0 0h1.755l3.131 4.912h3.94l-4.237-6.316 4.886-7.936h-4.185l-3.778 6.37h-1.512v-6.37h-3.59v19.435h3.59z" fill="#fff"/>
    </g>
    <g transform="translate(843.38 515.61)">
     <path d="m0 0c0 1.809-0.648 3.374-2.673 3.374-2.375 0-3.077-2.214-3.131-3.374zm3.05-7.019c-1.674-1.241-3.617-1.835-5.777-1.835-4.292 0-6.882 2.591-6.882 7.37 0 4.588 2.672 7.557 6.91 7.557 3.94 0 6.127-2.295 6.127-6.91 0-0.324-0.028-1.512-0.054-1.755h-9.205c0.162-1.943 1.107-3.293 3.536-3.293 1.431 0 2.592 0.378 4.185 1.215z" fill="#fff"/>
    </g>
    <g transform="translate(853.15 521.36)">
     <path d="m0 0 0.297-1.89c1.025 1.189 2.618 2.214 4.615 2.214 2.996 0 4.508-1.917 4.508-5.02v-9.556h-3.59v8.476c0 2.132-0.728 3.05-2.24 3.05-1.431 0-2.565-1.08-2.996-1.592v-9.934h-3.59v14.252z" fill="#fff"/>
    </g>
    <g transform="translate(838.31 562.38)">
     <path d="m0 0c0-13.744-11.143-24.887-24.887-24.887-13.745 0-24.889 11.143-24.889 24.887 0 13.747 11.144 24.889 24.889 24.889 13.744 0 24.887-11.142 24.887-24.889" fill="#00b8f1"/>
    </g>
    <g transform="translate(805.62 575.1)">
     <path d="m0 0v-6.674h3.697v-4e-3h0.013v-18.751h8.922v25.429h-4.46z" fill="#fff"/>
    </g>
    <path d="m710.75 549.67h8.91v25.427h-8.91z" fill="#fff"/>
    <path d="m736.17 549.67h8.912v25.427h-8.912z" fill="#fff"/>
    <path d="m756.26 549.67h8.91v25.427h-8.91z" fill="#fff"/>
    <g transform="translate(750.67 575.62)">
     <path d="m0 0c-2.772 0-5.021-2.265-5.021-5.063 0-2.797 2.249-5.069 5.021-5.069 2.779 0 5.033 2.272 5.033 5.069 0 2.798-2.254 5.063-5.033 5.063" fill="#fff"/>
    </g>
    <g transform="translate(776.31 561.2)">
     <path d="m0 0c-0.532 0.904-0.56 1.459-0.047 2.332l7.068 11.566h-9.801s-5.887-9.623-6.692-10.96c-0.802-1.337-0.766-2.167 0.032-3.54 0.803-1.371 6.66-10.926 6.66-10.926h9.801s-6.94 11.386-7.021 11.528" fill="#fff"/>
    </g>
    <g transform="translate(735.61 549.69)">
     <path d="m0 0-4.77 21.327c-0.456 2.331-2.49 4.085-4.934 4.085h-5.724l5.754-25.427h9.68z" fill="#fff"/>
    </g>
   </g>
  </g>
 </g>
</svg>
