<svg width="800" height="502.25" version="1.1" viewBox="0 0 211.67 132.89" xmlns="http://www.w3.org/2000/svg">
 <g transform="translate(208.04 -84.553)">
  <g transform="matrix(1.6594 0 0 -1.6594 -155.7 212.42)">
   <path d="m0 0c1.917 0 3.32 1.27 3.32 4.454 0 3.158-1.403 4.481-3.32 4.481-1.916 0-3.293-1.43-3.293-4.481 0-3.184 1.377-4.454 3.293-4.454m0.054 11.904c4.049 0 7.046-2.564 7.046-7.45 0-4.858-3.078-7.476-7.235-7.476-4.264 0-6.937 2.618-6.937 7.395 0 4.913 3.051 7.531 7.126 7.531" fill="#fff"/>
  </g>
  <g transform="matrix(1.6594 0 0 -1.6594 -132.89 196.61)">
   <path d="m0 0c0.675 1.322 1.835 2.375 3.158 2.375 0.513 0 0.998-0.135 1.404-0.297l-0.27-3.266c-0.459 0.135-0.837 0.189-1.35 0.189-1.08 0-2.079-0.972-2.538-1.755v-9.447h-3.59v14.252h2.862z" fill="#fff"/>
  </g>
  <g transform="matrix(1.6594 0 0 -1.6594 -105.47 200.42)">
   <path d="m0 0c-0.54 0.647-1.62 1.62-3.132 1.62-1.943 0-3.158-1.431-3.158-4.4 0-2.403 0.783-4.454 3.239-4.454 1.458 0 2.484 0.918 3.051 1.592zm0.216-8.07c-0.73-0.999-2.16-2.187-4.427-2.187-3.969 0-5.857 2.861-5.857 7.423 0 4.832 2.537 7.504 5.992 7.504 1.808 0 3.131-0.837 4.102-1.89v6.748h3.564v-19.434h-3.186z" fill="#fff"/>
  </g>
  <path d="m-92.793 184.61h5.9571v32.25h-5.9571z" fill="#fff"/>
  <g transform="matrix(1.6594 0 0 -1.6594 -66.99 207.14)">
   <path d="m0 0c-0.405 0.081-0.972 0.135-1.7 0.135-1.944 0-3.267-0.513-3.267-2.106 0-1.052 0.675-1.592 1.944-1.592 1.863 0 3.023 1.701 3.023 3.185zm3.59-5.857h-2.861l-0.378 1.916c-1.026-1.511-2.484-2.267-4.481-2.267-2.564 0-4.399 1.403-4.399 4.184 0 2.267 1.619 4.507 6.505 4.507 0.809 0 1.349-0.027 2.024-0.108v1.053c0 1.701-0.891 2.429-2.43 2.429-1.727 0-2.834-0.54-4.211-1.349l-1.213 2.159c1.538 1.215 3.67 2.052 5.802 2.052 3.564 0 5.642-1.539 5.642-5.237z" fill="#fff"/>
  </g>
  <g transform="matrix(1.6594 0 0 -1.6594 -49.558 193.21)">
   <path d="m0 0 0.297-1.89c1.025 1.189 2.618 2.214 4.615 2.214 2.996 0 4.508-1.917 4.508-5.02v-9.556h-3.59v8.476c0 2.132-0.728 3.05-2.24 3.05-1.431 0-2.565-1.08-2.996-1.592v-9.934h-3.59v14.252z" fill="#fff"/>
  </g>
  <g transform="matrix(1.6594 0 0 -1.6594 -11.524 200.42)">
   <path d="m0 0c-0.54 0.647-1.62 1.62-3.132 1.62-1.943 0-3.158-1.431-3.158-4.4 0-2.403 0.783-4.454 3.239-4.454 1.458 0 2.484 0.918 3.051 1.592zm0.216-8.07c-0.73-0.999-2.16-2.187-4.427-2.187-3.969 0-5.857 2.861-5.857 7.423 0 4.832 2.537 7.504 5.992 7.504 1.808 0 3.131-0.837 4.102-1.89v6.748h3.564v-19.434h-3.186z" fill="#fff"/>
  </g>
  <g transform="matrix(1.6594 0 0 -1.6594 3.6246 125.85)">
   <path d="m0 0c0-13.744-11.143-24.887-24.887-24.887-13.746 0-24.889 11.143-24.889 24.887 0 13.747 11.143 24.889 24.889 24.889 13.744 0 24.887-11.142 24.887-24.889" fill="#00b8f1"/>
  </g>
  <g transform="matrix(1.6594 0 0 -1.6594 -50.626 104.75)">
   <path d="m0 0v-6.674h3.697v-4e-3h0.013v-18.751h8.922v25.429h-4.46z" fill="#fff"/>
  </g>
  <path d="m-208.04 146.95h14.787v-42.193h-14.787z" fill="#fff"/>
  <path d="m-165.86 146.95h14.788v-42.193h-14.788z" fill="#fff"/>
  <path d="m-132.53 146.95h14.785v-42.193h-14.785z" fill="#fff"/>
  <g transform="matrix(1.6594 0 0 -1.6594 -141.81 103.89)">
   <path d="m0 0c-2.772 0-5.021-2.265-5.021-5.063 0-2.797 2.249-5.069 5.021-5.069 2.78 0 5.033 2.272 5.033 5.069 0 2.798-2.253 5.063-5.033 5.063" fill="#fff"/>
  </g>
  <g transform="matrix(1.6594 0 0 -1.6594 -99.252 127.82)">
   <path d="m0 0c-0.532 0.904-0.56 1.459-0.047 2.332l7.068 11.566h-9.801s-5.887-9.623-6.692-10.96c-0.802-1.337-0.766-2.167 0.032-3.54 0.804-1.371 6.66-10.926 6.66-10.926h9.801s-6.939 11.386-7.021 11.528" fill="#fff"/>
  </g>
  <g transform="matrix(1.6594 0 0 -1.6594 -166.79 146.92)">
   <path d="m0 0-4.77 21.327c-0.456 2.331-2.49 4.085-4.934 4.085h-5.724l5.754-25.427h9.679z" fill="#fff"/>
  </g>
  <path d="m-199.38 184.61h5.4643l14.334 21.814v-21.814h6.1346v32.25h-5.4195l-14.421-21.545v21.545h-6.0915z" fill="#fff"/>
 </g>
</svg>
