<svg width="800" height="536.9" version="1.1" viewBox="0 0 211.67 142.05" xmlns="http://www.w3.org/2000/svg">
 <g transform="matrix(1.6594 0 0 -1.6594 211.7 41.302)">
  <path d="m0 0c0-13.744-11.143-24.887-24.887-24.887-13.746 0-24.889 11.143-24.889 24.887 0 13.747 11.143 24.889 24.889 24.889 13.744 0 24.887-11.142 24.887-24.889" fill="#00b8f1"/>
 </g>
 <g transform="matrix(1.6594 0 0 -1.6594 157.43 20.194)">
  <path d="m0 0v-6.674h3.697v-4e-3h0.013v-18.751h8.922v25.429h-4.46z" fill="#fff"/>
 </g>
 <g transform="matrix(1.6594 0 0 -1.6594 12.8 105.72)" fill="#1d1d1b">
  <path d="m0 0v-6.208h2.942c2.43 0 3.644 1.106 3.644 3.185 0 2.024-1.107 3.023-3.482 3.023zm3.266 3.212c4.751 0 7.127-2.402 7.127-6.073 0-2.484-0.999-4.238-3.105-5.345l4.157-8.017h-4.049l-3.59 7.154c-0.567-0.081-1.079-0.135-1.727-0.135h-2.079v-7.019h-3.725v19.435z" fill="#1d1d1b"/>
 </g>
 <g transform="matrix(1.6594 0 0 -1.6594 46.403 128.22)" fill="#1d1d1b">
  <path d="m0 0c1.917 0 3.32 1.27 3.32 4.454 0 3.158-1.403 4.481-3.32 4.481s-3.293-1.43-3.293-4.481c0-3.184 1.376-4.454 3.293-4.454m0.054 11.904c4.049 0 7.045-2.564 7.045-7.45 0-4.858-3.077-7.476-7.234-7.476-4.265 0-6.937 2.618-6.937 7.395 0 4.913 3.05 7.531 7.126 7.531" fill="#1d1d1b"/>
 </g>
 <g transform="matrix(1.6594 0 0 -1.6594 79.823 116.29)" fill="#1d1d1b">
  <path d="m0 0c-0.486 0.647-1.701 1.674-3.158 1.674-2.025 0-3.132-1.458-3.132-4.266 0-2.672 0.972-4.211 3.186-4.211 1.511 0 2.483 0.865 3.104 1.539zm3.59-9.069c0-4.886-2.132-6.452-6.694-6.452-2.025 0-3.941 0.432-5.156 0.891l0.567 2.618c1.296-0.351 2.645-0.702 4.319-0.702 2.618 0 3.509 1.026 3.509 3.671v1.323c-0.999-1.242-2.537-2.051-4.373-2.051-3.752 0-5.83 2.483-5.83 6.963 0 4.454 2.024 7.532 6.073 7.532 2.051 0 3.536-1.188 4.373-2.16l0.243 1.835h2.969z" fill="#1d1d1b"/>
 </g>
 <g transform="matrix(1.6594 0 0 -1.6594 105.63 122.93)" fill="#1d1d1b">
  <path d="m0 0c-0.405 0.081-0.972 0.135-1.701 0.135-1.943 0-3.266-0.513-3.266-2.106 0-1.052 0.675-1.592 1.944-1.592 1.862 0 3.023 1.701 3.023 3.185zm3.59-5.857h-2.861l-0.378 1.916c-1.026-1.511-2.484-2.267-4.481-2.267-2.564 0-4.4 1.403-4.4 4.184 0 2.267 1.62 4.507 6.506 4.507 0.809 0 1.349-0.027 2.024-0.108v1.053c0 1.701-0.891 2.429-2.43 2.429-1.727 0-2.834-0.54-4.21-1.349l-1.215 2.159c1.539 1.215 3.671 2.052 5.803 2.052 3.563 0 5.642-1.539 5.642-5.237z" fill="#1d1d1b"/>
 </g>
 <path d="m118.22 100.39h5.9572v32.25h-5.9572z" fill="#1d1d1b" stroke-width="1.6594"/>
 <g transform="matrix(1.6594 0 0 -1.6594 144.03 122.93)" fill="#1d1d1b">
  <path d="m0 0c-0.405 0.081-0.972 0.135-1.701 0.135-1.943 0-3.266-0.513-3.266-2.106 0-1.052 0.675-1.592 1.944-1.592 1.862 0 3.023 1.701 3.023 3.185zm3.59-5.857h-2.861l-0.378 1.916c-1.026-1.511-2.484-2.267-4.481-2.267-2.564 0-4.4 1.403-4.4 4.184 0 2.267 1.62 4.507 6.506 4.507 0.809 0 1.349-0.027 2.024-0.108v1.053c0 1.701-0.891 2.429-2.43 2.429-1.727 0-2.834-0.54-4.21-1.349l-1.215 2.159c1.539 1.215 3.671 2.052 5.803 2.052 3.563 0 5.642-1.539 5.642-5.237z" fill="#1d1d1b"/>
 </g>
 <g transform="matrix(1.6594 0 0 -1.6594 161.45 109.01)" fill="#1d1d1b">
  <path d="m0 0 0.297-1.89c1.026 1.189 2.618 2.214 4.616 2.214 2.996 0 4.507-1.917 4.507-5.02v-9.556h-3.589v8.476c0 2.132-0.729 3.05-2.241 3.05-1.43 0-2.564-1.08-2.996-1.592v-9.934h-3.59v14.252z" fill="#1d1d1b"/>
 </g>
 <g transform="matrix(1.6594 0 0 -1.6594 199.48 116.21)" fill="#1d1d1b">
  <path d="m0 0c-0.54 0.647-1.62 1.62-3.131 1.62-1.944 0-3.159-1.431-3.159-4.4 0-2.403 0.783-4.454 3.24-4.454 1.457 0 2.483 0.918 3.05 1.592zm0.216-8.07c-0.729-0.999-2.16-2.187-4.427-2.187-3.968 0-5.857 2.861-5.857 7.423 0 4.832 2.537 7.504 5.992 7.504 1.808 0 3.131-0.837 4.103-1.89v6.748h3.563v-19.434h-3.185z" fill="#1d1d1b"/>
 </g>
 <path d="m0.02292 62.393h14.787v-42.194h-14.787z" fill="#1d1d1b" stroke-width="1.6594"/>
 <path d="m42.205 62.393h14.789v-42.194h-14.789z" fill="#1d1d1b" stroke-width="1.6594"/>
 <path d="m75.526 62.393h14.785v-42.194h-14.785z" fill="#1d1d1b" stroke-width="1.6594"/>
 <g transform="matrix(1.6594 0 0 -1.6594 66.25 19.332)" fill="#1d1d1b">
  <path d="m0 0c-2.772 0-5.021-2.265-5.021-5.063 0-2.797 2.249-5.069 5.021-5.069 2.78 0 5.033 2.272 5.033 5.069 0 2.798-2.253 5.063-5.033 5.063" fill="#1d1d1b"/>
 </g>
 <g transform="matrix(1.6594 0 0 -1.6594 108.81 43.26)" fill="#1d1d1b">
  <path d="m0 0c-0.532 0.904-0.56 1.459-0.047 2.332l7.068 11.566h-9.801s-5.887-9.623-6.692-10.96c-0.802-1.337-0.766-2.167 0.032-3.54 0.804-1.371 6.66-10.926 6.66-10.926h9.801s-6.939 11.386-7.021 11.528" fill="#1d1d1b"/>
 </g>
 <g transform="matrix(1.6594 0 0 -1.6594 41.276 62.36)" fill="#1d1d1b">
  <path d="m0 0-4.77 21.327c-0.456 2.331-2.49 4.085-4.934 4.085h-5.724l5.754-25.427h9.679z" fill="#1d1d1b"/>
 </g>
</svg>
