<svg width="800" height="513.7" version="1.1" viewBox="0 0 211.67 135.92" xmlns="http://www.w3.org/2000/svg">
 <defs>
  <clipPath id="clipPath354">
   <path d="m609.53 609.8h330.01v110.01h-330.01z"/>
  </clipPath>
 </defs>
 <g transform="translate(-65.369 136.69)">
  <g transform="matrix(1.6594 0 0 -1.6594 -1114 1039)">
   <g clip-path="url(#clipPath354)">
    <g transform="translate(714.15 633.87)">
     <path d="m0 0c1.781-1.484 3.779-2.43 5.749-2.43 1.701 0 2.942 0.946 2.942 2.538 0 1.457-0.782 2.267-4.075 3.185-4.05 1.134-5.696 2.592-5.696 5.642 0 3.805 2.942 5.641 6.749 5.641 2.537 0 4.831-0.918 6.64-2.726l-1.809-2.213c-1.431 1.268-3.131 1.916-4.751 1.916-1.754 0-2.996-0.756-2.996-2.24 0-1.674 1.296-2.16 4.508-3.212 3.725-1.215 5.318-2.592 5.318-5.615 0-3.753-2.726-6.019-6.965-6.019-3.022 0-5.56 1.214-7.476 3.239z" fill="#fff"/>
    </g>
    <g transform="translate(739.15 639.16)">
     <path d="m0 0-2.456-7.802h0.027c1.916 0 3.32 1.27 3.32 4.454 0 1.539-0.324 2.619-0.891 3.348m-4.777-6.803 2.456 7.936h-0.108c-1.917 0-3.294-1.43-3.294-4.481 0-1.619 0.352-2.726 0.946-3.455m2.402 10.906c0.324 0 0.647-0.028 0.972-0.054l0.459 1.484h2.672l-0.675-2.186c2.186-1.08 3.617-3.347 3.617-6.695 0-4.858-3.077-7.476-7.234-7.476-0.27 0-0.567 0-0.81 0.026l-0.54-1.727h-2.645l0.729 2.321c-2.321 1.053-3.671 3.374-3.671 6.775 0 4.913 3.05 7.532 7.126 7.532" fill="#fff"/>
    </g>
    <g transform="translate(749.92 640.89)">
     <path d="m0 0c0.675 1.322 1.836 2.375 3.158 2.375 0.513 0 0.999-0.135 1.404-0.297l-0.27-3.266c-0.459 0.135-0.837 0.189-1.35 0.189-1.08 0-2.078-0.972-2.537-1.755v-9.447h-3.59v14.252h2.862z" fill="#fff"/>
    </g>
    <path d="m757.24 648.12h3.59v-19.435h-3.59z" fill="#fff"/>
    <g transform="translate(772.79 634.54)">
     <path d="m0 0c-0.405 0.081-0.972 0.135-1.701 0.135-1.944 0-3.266-0.513-3.266-2.106 0-1.052 0.675-1.592 1.944-1.592 1.862 0 3.023 1.701 3.023 3.185zm3.59-5.857h-2.861l-0.378 1.916c-1.026-1.511-2.484-2.267-4.481-2.267-2.564 0-4.4 1.403-4.4 4.184 0 2.267 1.62 4.507 6.506 4.507 0.809 0 1.349-0.027 2.024-0.108v1.053c0 1.701-0.892 2.429-2.43 2.429-1.727 0-2.834-0.54-4.211-1.349l-1.214 2.159c1.539 1.215 3.67 2.052 5.803 2.052 3.563 0 5.642-1.539 5.642-5.237z" fill="#fff"/>
    </g>
    <g transform="translate(783.3 642.94)">
     <path d="m0 0 0.297-1.89c1.026 1.189 2.618 2.214 4.616 2.214 2.996 0 4.508-1.917 4.508-5.02v-9.556h-3.59v8.476c0 2.132-0.729 3.05-2.241 3.05-1.43 0-2.564-1.08-2.996-1.592v-9.934h-3.59v14.252z" fill="#fff"/>
    </g>
    <g transform="translate(806.22 638.59)">
     <path d="m0 0c-0.54 0.647-1.62 1.62-3.132 1.62-1.943 0-3.158-1.431-3.158-4.4 0-2.403 0.783-4.454 3.239-4.454 1.458 0 2.484 0.918 3.051 1.592zm0.216-8.07c-0.73-0.999-2.16-2.187-4.427-2.187-3.969 0-5.857 2.861-5.857 7.423 0 4.832 2.537 7.504 5.992 7.504 1.808 0 3.131-0.837 4.102-1.89v6.748h3.564v-19.434h-3.186z" fill="#fff"/>
    </g>
    <g transform="translate(822.82 637.19)">
     <path d="m0 0c0 1.809-0.648 3.374-2.673 3.374-2.375 0-3.077-2.214-3.131-3.374zm3.05-7.019c-1.674-1.241-3.617-1.835-5.777-1.835-4.292 0-6.882 2.591-6.882 7.37 0 4.588 2.672 7.557 6.91 7.557 3.94 0 6.127-2.295 6.127-6.91 0-0.324-0.027-1.512-0.054-1.755h-9.205c0.162-1.943 1.107-3.293 3.536-3.293 1.431 0 2.592 0.378 4.185 1.215z" fill="#fff"/>
    </g>
    <g transform="translate(833.92 640.24)">
     <path d="m0 0v-7.989c0-0.837 0.27-1.161 0.917-1.161 0.433 0 1.27 0.108 1.674 0.243l0.351-2.457c-0.945-0.324-2.267-0.539-3.347-0.539-2.133 0-3.158 1.16-3.158 3.184v8.719h-1.863v2.079l1.916 0.594 0.378 4.102h3.132v-4.076h2.564v-2.699z" fill="#fff"/>
    </g>
    <g transform="translate(838.31 683.65)">
     <path d="m0 0c0-13.744-11.143-24.887-24.887-24.887-13.745 0-24.889 11.143-24.889 24.887 0 13.747 11.144 24.889 24.889 24.889 13.744 0 24.887-11.142 24.887-24.889" fill="#00b8f1"/>
    </g>
    <g transform="translate(805.62 696.37)">
     <path d="m0 0v-6.674h3.697v-5e-3h0.013v-18.75h8.922v25.429h-4.46z" fill="#fff"/>
    </g>
    <path d="m710.75 670.94h8.91v25.427h-8.91z" fill="#fff"/>
    <path d="m736.17 670.94h8.912v25.427h-8.912z" fill="#fff"/>
    <path d="m756.26 670.94h8.91v25.427h-8.91z" fill="#fff"/>
    <g transform="translate(750.67 696.89)">
     <path d="m0 0c-2.772 0-5.021-2.265-5.021-5.064 0-2.797 2.249-5.068 5.021-5.068 2.779 0 5.033 2.271 5.033 5.068 0 2.799-2.254 5.064-5.033 5.064" fill="#fff"/>
    </g>
    <g transform="translate(776.31 682.47)">
     <path d="m0 0c-0.532 0.904-0.56 1.459-0.047 2.333l7.068 11.566h-9.801s-5.887-9.624-6.692-10.961c-0.802-1.337-0.766-2.167 0.032-3.54 0.803-1.371 6.66-10.926 6.66-10.926h9.801s-6.94 11.386-7.021 11.528" fill="#fff"/>
    </g>
    <g transform="translate(735.61 670.96)">
     <path d="m0 0-4.77 21.327c-0.456 2.331-2.49 4.085-4.934 4.085h-5.724l5.754-25.427h9.68z" fill="#fff"/>
    </g>
   </g>
  </g>
 </g>
</svg>
