<svg width="800" height="253.41" version="1.1" viewBox="0 0 211.67 67.049" xmlns="http://www.w3.org/2000/svg">
 <g transform="matrix(.78131 0 0 -.78131 155.66 19.45)">
  <path d="m0 0c0-13.744-11.143-24.887-24.887-24.887-13.745 0-24.889 11.143-24.889 24.887 0 13.747 11.144 24.89 24.889 24.89 13.744 0 24.887-11.143 24.887-24.89" fill="#00b8f1"/>
 </g>
 <g transform="matrix(.78131 0 0 -.78131 130.11 9.512)">
  <path d="m0 0v-6.674h3.697v-4e-3h0.013v-18.751h8.922v25.429h-4.46z" fill="#fff"/>
 </g>
 <path d="m0 47.43h3.0581l3.4589 11.789 3.5222-11.789h2.9948l-4.8504 15.185h-3.3956z" fill="#1d1d1b"/>
 <g transform="matrix(.78131 0 0 -.78131 20.97 55.98)" fill="#1d1d1b">
  <path d="m0 0c0 1.809-0.647 3.374-2.672 3.374-2.376 0-3.077-2.214-3.131-3.374zm3.051-7.019c-1.674-1.241-3.617-1.835-5.777-1.835-4.292 0-6.883 2.591-6.883 7.37 0 4.588 2.672 7.557 6.91 7.557 3.941 0 6.128-2.295 6.128-6.91 0-0.324-0.028-1.512-0.055-1.755h-9.204c0.162-1.943 1.106-3.293 3.536-3.293 1.431 0 2.591 0.378 4.184 1.215z" fill="#1d1d1b"/>
 </g>
 <g transform="matrix(.78131 0 0 -.78131 26.75 59.27)" fill="#1d1d1b">
  <path d="m0 0c1.35-1.025 3.132-1.836 4.508-1.836 1.296 0 1.998 0.567 1.998 1.458 0 0.944-0.486 1.377-2.834 1.971-3.078 0.782-4.373 1.943-4.373 4.292 0 2.753 2.159 4.399 5.398 4.399 2.268 0 4.184-0.809 5.668-2.159l-1.592-2.079c-1.349 0.972-2.672 1.512-3.914 1.512-1.323 0-1.97-0.459-1.97-1.269 0-1.053 0.944-1.35 3.104-1.971 3.023-0.863 4.4-1.862 4.4-4.237 0-3.023-2.241-4.724-5.696-4.724-2.618 0-4.832 1.08-6.289 2.484z" fill="#1d1d1b"/>
 </g>
 <g transform="matrix(.78131 0 0 -.78131 40.92 53.59)" fill="#1d1d1b">
  <path d="m0 0v-7.989c0-0.837 0.271-1.161 0.918-1.161 0.432 0 1.269 0.108 1.674 0.243l0.35-2.457c-0.944-0.324-2.267-0.539-3.346-0.539-2.133 0-3.159 1.16-3.159 3.184v8.719h-1.863v2.079l1.917 0.594 0.378 4.102h3.131v-4.076h2.564v-2.699z" fill="#1d1d1b"/>
 </g>
 <g transform="matrix(.78131 0 0 -.78131 45.9 53.59)" fill="#1d1d1b">
  <path d="m0 0h-1.781v2.133l1.781 0.404v1.485c0 2.538 1.215 4.184 3.995 4.184 0.891 0 1.62-0.081 2.376-0.297l-0.189-2.348c-0.378 0.108-0.81 0.189-1.242 0.189-0.783 0-1.349-0.433-1.349-1.593v-1.458h2.456v-2.699h-2.456v-11.553h-3.591z" fill="#1d1d1b"/>
 </g>
 <g transform="matrix(.78131 0 0 -.78131 57.53 60.53)" fill="#1d1d1b">
  <path d="m0 0c1.916 0 3.319 1.27 3.319 4.454 0 3.158-1.403 4.481-3.319 4.481-1.917 0-3.294-1.43-3.294-4.481 0-3.184 1.377-4.454 3.294-4.454m0.054 11.904c4.049 0 7.045-2.564 7.045-7.45 0-4.858-3.078-7.476-7.235-7.476-4.264 0-6.936 2.618-6.936 7.395 0 4.913 3.05 7.531 7.126 7.531" fill="#1d1d1b"/>
 </g>
 <path d="m65.84 47.44h2.8049v15.185h-2.8049z" fill="#1d1d1b"/>
 <g transform="matrix(.78131 0 0 -.78131 79.34 54.88)" fill="#1d1d1b">
  <path d="m0 0c-0.54 0.647-1.62 1.62-3.132 1.62-1.943 0-3.158-1.431-3.158-4.4 0-2.403 0.783-4.454 3.239-4.454 1.458 0 2.484 0.918 3.051 1.592zm0.216-8.07c-0.73-0.999-2.16-2.187-4.427-2.187-3.969 0-5.857 2.861-5.857 7.423 0 4.832 2.537 7.504 5.992 7.504 1.808 0 3.131-0.837 4.102-1.89v6.748h3.564v-19.434h-3.186z" fill="#1d1d1b"/>
 </g>
 <g transform="matrix(.78131 0 0 -.78131 94.969 60.53)" fill="#1d1d1b">
  <path d="m0 0c1.917 0 3.32 1.27 3.32 4.454 0 3.158-1.403 4.481-3.32 4.481-1.916 0-3.293-1.43-3.293-4.481 0-3.184 1.377-4.454 3.293-4.454m0.054 11.904c4.049 0 7.046-2.564 7.046-7.45 0-4.858-3.078-7.476-7.235-7.476-4.264 0-6.937 2.618-6.937 7.395 0 4.913 3.051 7.531 7.126 7.531" fill="#1d1d1b"/>
 </g>
 <g transform="matrix(.78131 0 0 -.78131 110.7 54.92)" fill="#1d1d1b">
  <path d="m0 0c-0.485 0.647-1.7 1.674-3.158 1.674-2.025 0-3.131-1.458-3.131-4.266 0-2.672 0.972-4.211 3.185-4.211 1.511 0 2.483 0.865 3.104 1.539zm3.59-9.069c0-4.886-2.132-6.452-6.694-6.452-2.025 0-3.941 0.432-5.156 0.891l0.568 2.618c1.295-0.351 2.644-0.702 4.318-0.702 2.618 0 3.509 1.026 3.509 3.671v1.323c-0.998-1.242-2.537-2.051-4.372-2.051-3.753 0-5.831 2.483-5.831 6.963 0 4.454 2.024 7.532 6.073 7.532 2.052 0 3.536-1.188 4.373-2.16l0.243 1.835h2.969z" fill="#1d1d1b"/>
 </g>
 <g transform="matrix(.78131 0 0 -.78131 124.97 50.01)" fill="#1d1d1b">
  <path d="m0 0h-5.83v3.293h15.358v-3.293h-5.802v-16.142h-3.726z" fill="#1d1d1b"/>
 </g>
 <g transform="matrix(.78131 0 0 -.78131 139.23 55.98)" fill="#1d1d1b">
  <path d="m0 0c0 1.809-0.647 3.374-2.672 3.374-2.376 0-3.077-2.214-3.131-3.374zm3.051-7.019c-1.674-1.241-3.617-1.835-5.777-1.835-4.292 0-6.883 2.591-6.883 7.37 0 4.588 2.672 7.557 6.91 7.557 3.941 0 6.128-2.295 6.128-6.91 0-0.324-0.028-1.512-0.055-1.755h-9.204c0.162-1.943 1.106-3.293 3.536-3.293 1.431 0 2.591 0.378 4.184 1.215z" fill="#1d1d1b"/>
 </g>
 <path d="m144.59 47.44h2.8049v15.185h-2.8049z" fill="#1d1d1b"/>
 <g transform="matrix(.78131 0 0 -.78131 157.66 55.98)" fill="#1d1d1b">
  <path d="m0 0c0 1.809-0.648 3.374-2.673 3.374-2.375 0-3.077-2.214-3.131-3.374zm3.05-7.019c-1.674-1.241-3.617-1.835-5.777-1.835-4.292 0-6.882 2.591-6.882 7.37 0 4.588 2.672 7.557 6.91 7.557 3.94 0 6.127-2.295 6.127-6.91 0-0.324-0.028-1.512-0.054-1.755h-9.205c0.162-1.943 1.107-3.293 3.536-3.293 1.431 0 2.592 0.378 4.185 1.215z" fill="#1d1d1b"/>
 </g>
 <g transform="matrix(.78131 0 0 -.78131 165.3 51.48)" fill="#1d1d1b">
  <path d="m0 0 0.297-1.862c0.944 1.106 2.294 2.186 4.318 2.186 1.836 0 2.916-0.837 3.455-2.133 1.08 1.134 2.484 2.133 4.535 2.133 2.808 0 3.968-1.836 3.968-4.697v-9.879h-3.59v9.178c0 1.457-0.378 2.321-1.754 2.321-1.188 0-2.187-0.972-2.646-1.458v-10.041h-3.562v9.069c0 1.485-0.297 2.43-1.674 2.43-1.269 0-2.268-0.972-2.753-1.512v-9.987h-3.59v14.252z" fill="#1d1d1b"/>
 </g>
 <g transform="matrix(.78131 0 0 -.78131 187.45 58.04)" fill="#1d1d1b">
  <path d="m0 0c-0.405 0.081-0.972 0.135-1.701 0.135-1.944 0-3.266-0.513-3.266-2.106 0-1.052 0.675-1.592 1.944-1.592 1.862 0 3.023 1.701 3.023 3.185zm3.59-5.857h-2.861l-0.378 1.916c-1.026-1.511-2.484-2.267-4.481-2.267-2.564 0-4.4 1.403-4.4 4.184 0 2.267 1.62 4.507 6.506 4.507 0.809 0 1.349-0.027 2.024-0.108v1.053c0 1.701-0.892 2.429-2.43 2.429-1.727 0-2.834-0.54-4.211-1.349l-1.214 2.159c1.539 1.215 3.67 2.052 5.803 2.052 3.563 0 5.642-1.539 5.642-5.237z" fill="#1d1d1b"/>
 </g>
 <g transform="matrix(.78131 0 0 -.78131 195.81 53.09)" fill="#1d1d1b">
  <path d="m0 0c0.675 1.322 1.835 2.375 3.157 2.375 0.514 0 0.999-0.135 1.405-0.297l-0.271-3.266c-0.459 0.135-0.836 0.189-1.35 0.189-1.079 0-2.078-0.972-2.537-1.755v-9.447h-3.59v14.252h2.862z" fill="#1d1d1b"/>
 </g>
 <g transform="matrix(.78131 0 0 -.78131 204.26 55.32)" fill="#1d1d1b">
  <path d="m0 0h1.755l3.131 4.912h3.941l-4.238-6.316 4.886-7.936h-4.184l-3.779 6.37h-1.512v-6.37h-3.59v19.435h3.59z" fill="#1d1d1b"/>
 </g>
 <path d="m55.99 29.38h6.9615v-19.866h-6.9615z" fill="#1d1d1b"/>
 <path d="m75.85 29.38h6.9631v-19.866h-6.9631z" fill="#1d1d1b"/>
 <path d="m91.548 29.38h6.9615v-19.866h-6.9615z" fill="#1d1d1b"/>
 <g transform="matrix(.78131 0 0 -.78131 87.18 9.105)" fill="#1d1d1b">
  <path d="m0 0c-2.772 0-5.021-2.265-5.021-5.064 0-2.797 2.249-5.068 5.021-5.068 2.779 0 5.033 2.271 5.033 5.068 0 2.799-2.254 5.064-5.033 5.064" fill="#1d1d1b"/>
 </g>
 <g transform="matrix(.78131 0 0 -.78131 107.22 20.37)" fill="#1d1d1b">
  <path d="m0 0c-0.532 0.904-0.56 1.459-0.047 2.332l7.068 11.566h-9.801s-5.887-9.623-6.692-10.96c-0.802-1.337-0.766-2.167 0.032-3.54 0.803-1.371 6.66-10.926 6.66-10.926h9.801s-6.94 11.386-7.021 11.528" fill="#1d1d1b"/>
 </g>
 <g transform="matrix(.78131 0 0 -.78131 75.42 29.37)" fill="#1d1d1b">
  <path d="m0 0-4.77 21.327c-0.456 2.331-2.49 4.085-4.934 4.085h-5.724l5.754-25.427h9.68z" fill="#1d1d1b"/>
 </g>
</svg>
