<svg width="800" height="536.31" version="1.1" viewBox="0 0 211.67 141.9" xmlns="http://www.w3.org/2000/svg">
 <g transform="translate(-30.774 -68.198)">
  <path d="m45.958 168.76h5.4643l14.334 21.814v-21.814h6.1363v32.25h-5.4211l-14.421-21.545v21.545h-6.0915z" fill="#fff"/>
  <g transform="matrix(1.6594 0 0 -1.6594 89.638 196.57)">
   <path d="m0 0c1.916 0 3.319 1.27 3.319 4.454 0 3.158-1.403 4.481-3.319 4.481-1.917 0-3.294-1.43-3.294-4.481 0-3.184 1.377-4.454 3.294-4.454m0.054 11.904c4.049 0 7.045-2.564 7.045-7.45 0-4.858-3.078-7.476-7.235-7.476-4.264 0-6.936 2.618-6.936 7.395 0 4.913 3.05 7.531 7.126 7.531" fill="#fff"/>
  </g>
  <g transform="matrix(1.6594 0 0 -1.6594 112.44 180.76)">
   <path d="m0 0c0.675 1.322 1.836 2.375 3.158 2.375 0.513 0 0.999-0.135 1.404-0.297l-0.27-3.266c-0.459 0.135-0.837 0.189-1.35 0.189-1.08 0-2.078-0.972-2.537-1.755v-9.447h-3.59v14.252h2.862z" fill="#fff"/>
  </g>
  <g transform="matrix(1.6594 0 0 -1.6594 139.86 184.57)">
   <path d="m0 0c-0.54 0.647-1.62 1.62-3.132 1.62-1.943 0-3.158-1.431-3.158-4.4 0-2.403 0.783-4.454 3.239-4.454 1.458 0 2.484 0.918 3.051 1.592zm0.216-8.07c-0.73-0.999-2.16-2.187-4.427-2.187-3.969 0-5.857 2.861-5.857 7.423 0 4.832 2.537 7.504 5.992 7.504 1.808 0 3.131-0.837 4.102-1.89v6.748h3.564v-19.434h-3.186z" fill="#fff"/>
  </g>
  <g transform="matrix(1.6594 0 0 -1.6594 157.38 177.36)">
   <path d="m0 0 0.297-1.89c1.026 1.189 2.618 2.214 4.616 2.214 2.996 0 4.508-1.917 4.508-5.02v-9.556h-3.59v8.476c0 2.132-0.729 3.05-2.241 3.05-1.43 0-2.564-1.08-2.996-1.592v-9.934h-3.59v14.252z" fill="#fff"/>
  </g>
  <g transform="matrix(1.6594 0 0 -1.6594 199 177.36)">
   <path d="m0 0-4.805-13.686c-1.43-4.102-2.078-6.045-5.83-6.045-0.783 0-1.593 0.108-2.402 0.324l0.269 2.537c0.432-0.081 1.08-0.19 1.809-0.19 1.025 0 1.755 0.271 2.321 1.998l0.135 0.405-4.967 14.657h3.753l2.942-10.527 3.185 10.527z" fill="#fff"/>
  </g>
  <g transform="matrix(1.6594 0 0 -1.6594 223.91 181.83)">
   <path d="m0 0v-7.989c0-0.837 0.27-1.161 0.917-1.161 0.433 0 1.269 0.108 1.674 0.243l0.35-2.457c-0.944-0.324-2.266-0.539-3.346-0.539-2.133 0-3.158 1.16-3.158 3.184v8.719h-4.508v-8.044c0-0.837 0.378-1.106 1.025-1.106 0.405 0 0.783 0.081 1.189 0.215l0.35-2.429c-0.945-0.351-1.917-0.539-2.97-0.539-2.131 0-3.13 1.16-3.13 3.184v8.719h-1.89v2.133l1.943 0.566 0.378 4.049h3.105v-4.049h4.561l0.378 4.076h3.132v-4.076h2.618v-2.699z" fill="#fff"/>
  </g>
  <g transform="matrix(1.6594 0 0 -1.6594 242.44 109.5)">
   <path d="m0 0c0-13.744-11.143-24.886-24.887-24.886-13.746 0-24.889 11.142-24.889 24.886 0 13.747 11.143 24.89 24.889 24.89 13.744 0 24.887-11.143 24.887-24.89" fill="#00b8f1"/>
  </g>
  <g transform="matrix(1.6594 0 0 -1.6594 188.19 88.4)">
   <path d="m0 0v-6.674h3.697v-4e-3h0.013v-18.751h8.922v25.429h-4.46z" fill="#fff"/>
  </g>
  <path d="m30.774 130.59h14.787v-42.193h-14.787z" fill="#fff"/>
  <path d="m72.955 130.59h14.788v-42.193h-14.788z" fill="#fff"/>
  <path d="m106.29 130.59h14.785v-42.193h-14.785z" fill="#fff"/>
  <g transform="matrix(1.6594 0 0 -1.6594 97.007 87.535)">
   <path d="m0 0c-2.772 0-5.021-2.265-5.021-5.064 0-2.797 2.249-5.068 5.021-5.068 2.78 0 5.033 2.271 5.033 5.068 0 2.799-2.253 5.064-5.033 5.064" fill="#fff"/>
  </g>
  <g transform="matrix(1.6594 0 0 -1.6594 139.56 111.46)">
   <path d="m0 0c-0.532 0.904-0.56 1.459-0.047 2.332l7.068 11.566h-9.801s-5.887-9.623-6.692-10.96c-0.802-1.337-0.766-2.167 0.032-3.54 0.804-1.371 6.66-10.926 6.66-10.926h9.801s-6.939 11.386-7.021 11.528" fill="#fff"/>
  </g>
  <g transform="matrix(1.6594 0 0 -1.6594 72.027 130.57)">
   <path d="m0 0-4.77 21.327c-0.456 2.331-2.49 4.085-4.934 4.085h-5.724l5.754-25.427h9.679z" fill="#fff"/>
  </g>
 </g>
</svg>
