<svg width="800" height="323.28" version="1.1" viewBox="0 0 211.67 85.535" xmlns="http://www.w3.org/2000/svg">
 <path d="m170.27 24.852c0 13.723-11.126 24.848-24.848 24.848-13.724 0-24.85-11.126-24.85-24.848 0-13.725 11.127-24.851 24.85-24.851s24.848 11.127 24.848 24.851" fill="#00b8f1" stroke-width=".99844"/>
 <path d="m137.62 12.157v6.6646h3.6912v4e-3h0.013v18.721h8.9081v-25.389h-4.453z" fill="#fff" stroke-width=".99844"/>
 <path d="m0 60.661h3.9079l4.4201 15.065 4.501-15.065h3.827l-6.1983 19.405h-4.3392z" fill="#1d1d1b"/>
 <path d="m26.79 71.575c0-1.8062-0.64599-3.3687-2.6678-3.3687-2.3723 0-3.0722 2.2105-3.1261 3.3687zm3.0462 7.008c-1.6714 1.2391-3.6114 1.8321-5.768 1.8321-4.2853 0-6.8723-2.587-6.8723-7.3585 0-4.5808 2.6678-7.5452 6.8992-7.5452 3.9349 0 6.1184 2.2914 6.1184 6.8992 0 0.3235-0.02796 1.5096-0.05491 1.7523h-9.1896c0.16175 1.94 1.1043 3.2879 3.5305 3.2879 1.4288 0 2.587-0.37741 4.1775-1.2131z" fill="#1d1d1b" stroke-width=".99844"/>
 <path d="m34.18 75.783c1.3479 1.0234 3.1271 1.8331 4.501 1.8331 1.294 0 1.9949-0.56612 1.9949-1.4557 0-0.94253-0.48524-1.3749-2.8296-1.9679-3.0722-0.78078-4.3662-1.94-4.3662-4.2853 0-2.7487 2.1556-4.3921 5.3896-4.3921 2.2645 0 4.1775 0.80774 5.6592 2.1556l-1.5895 2.0758c-1.3469-0.97048-2.6678-1.5096-3.9079-1.5096-1.3209 0-1.9669 0.45828-1.9669 1.267 0 1.0514 0.94253 1.3479 3.0992 1.9679 3.0183 0.86165 4.3931 1.8591 4.3931 4.2304 0 3.0183-2.2375 4.7166-5.6871 4.7166-2.6139 0-4.8245-1.0783-6.2792-2.4801z" fill="#1d1d1b" stroke-width=".99844"/>
 <path d="m52.29 68.53v7.9765c0 0.83569 0.27058 1.1592 0.91657 1.1592 0.43133 0 1.267-0.10783 1.6714-0.24262l0.34945 2.4532c-0.94253 0.3235-2.2635 0.53816-3.3408 0.53816-2.1297 0-3.1541-1.1582-3.1541-3.179v-8.7054h-1.8601v-2.0758l1.914-0.59307 0.37741-4.0956h3.1261v4.0696h2.56v2.6948z" fill="#1d1d1b" stroke-width=".99844"/>
 <path d="m58.04 60.661h3.5844v19.405h-3.5844z" fill="#1d1d1b"/>
 <path d="m73.56 74.217c-0.40437-0.08087-0.97048-0.13479-1.6983-0.13479-1.941 0-3.2609 0.5122-3.2609 2.1027 0 1.0504 0.67395 1.5895 1.941 1.5895 1.8591 0 3.0183-1.6983 3.0183-3.18zm3.5844 5.8479h-2.8565l-0.37741-1.913c-1.0244 1.5086-2.4801 2.2635-4.474 2.2635-2.56 0-4.3931-1.4008-4.3931-4.1775 0-2.2635 1.6175-4.5 6.4958-4.5 0.80774 0 1.3469 0.02696 2.0208 0.10783v-1.0514c0-1.6983-0.89061-2.4252-2.4262-2.4252-1.7243 0-2.8296 0.53916-4.2044 1.3469l-1.2121-2.1556c1.5366-1.2131 3.6643-2.0488 5.7939-2.0488 3.5574 0 5.6332 1.5366 5.6332 5.2288z" fill="#1d1d1b" stroke-width=".99844"/>
 <path d="m84.05 65.835 0.29654 1.8871c1.0234-1.1871 2.6139-2.2105 4.6078-2.2105 2.9913 0 4.501 1.914 4.501 5.0122v9.5411h-3.5844v-8.4628c0-2.1287-0.72686-3.0452-2.2365-3.0452-1.4288 0-2.561 1.0783-2.9913 1.5895v9.9185h-3.5844v-14.23z" fill="#1d1d1b" stroke-width=".99844"/>
 <path d="m106.94 70.174c-0.53916-0.64599-1.6175-1.6175-3.1271-1.6175-1.94 0-3.1531 1.4288-3.1531 4.3931 0 2.3993 0.78178 4.4471 3.234 4.4471 1.4557 0 2.4801-0.91657 3.0462-1.5895zm0.21566 8.0574c-0.72886 0.99744-2.1566 2.1836-4.4201 2.1836-3.9628 0-5.8479-2.8565-5.8479-7.4114 0-4.8245 2.533-7.4923 5.9827-7.4923 1.8052 0 3.1261 0.83569 4.0956 1.8871v-6.7375h3.5584v19.404h-3.181z" fill="#1d1d1b" stroke-width=".99844"/>
 <path d="m115.11 75.783c1.3479 1.0234 3.1271 1.8331 4.501 1.8331 1.294 0 1.9949-0.56612 1.9949-1.4557 0-0.94253-0.48524-1.3749-2.8296-1.9679-3.0722-0.78078-4.3662-1.94-4.3662-4.2853 0-2.7487 2.1556-4.3921 5.3896-4.3921 2.2645 0 4.1775 0.80774 5.6592 2.1556l-1.5895 2.0758c-1.3469-0.97048-2.6678-1.5096-3.9079-1.5096-1.3209 0-1.9669 0.45828-1.9669 1.267 0 1.0514 0.94253 1.3479 3.0992 1.9679 3.0183 0.86165 4.3931 1.8591 4.3931 4.2304 0 3.0183-2.2375 4.7166-5.6871 4.7166-2.6139 0-4.8245-1.0783-6.2792-2.4801z" fill="#1d1d1b" stroke-width=".99844"/>
 <path d="m132.09 67.883c0.67395-1.3199 1.8331-2.3713 3.1531-2.3713 0.5122 0 0.99745 0.13479 1.4018 0.29654l-0.26958 3.2609c-0.45828-0.13479-0.83569-0.1887-1.3479-0.1887-1.0783 0-2.0748 0.97048-2.533 1.7523v9.4323h-3.5844v-14.23h2.8575z" fill="#1d1d1b" stroke-width=".99844"/>
 <path d="m147.99 71.575c0-1.8062-0.64699-3.3687-2.6688-3.3687-2.3713 0-3.0722 2.2105-3.1261 3.3687zm3.0452 7.008c-1.6714 1.2391-3.6114 1.8321-5.768 1.8321-4.2853 0-6.8713-2.587-6.8713-7.3585 0-4.5808 2.6678-7.5452 6.8992-7.5452 3.9338 0 6.1174 2.2914 6.1174 6.8992 0 0.3235-0.027 1.5096-0.0539 1.7523h-9.1906c0.16174 1.94 1.1053 3.2879 3.5305 3.2879 1.4288 0 2.588-0.37741 4.1785-1.2131z" fill="#1d1d1b" stroke-width=".99844"/>
 <path d="m156.81 65.835 3.1261 10.753 3.1271-10.753h3.6114l-4.6897 14.23h-4.1775l-4.7436-14.23z" fill="#1d1d1b" stroke-width=".99844"/>
 <path d="m181.39 65.835-4.7975 13.665c-1.4278 4.0956-2.0758 6.0356-5.8219 6.0356-0.78078 0-1.5905-0.10783-2.3982-0.3235l0.26958-2.533c0.43132 0.08087 1.0783 0.1897 1.8062 0.1897 1.0234 0 1.7513-0.27058 2.3174-1.9949l0.13478-0.40437-4.9592-14.634h3.7462l2.9384 10.511 3.179-10.511z" fill="#1d1d1b" stroke-width=".99844"/>
 <path d="m192.5 71.575c0-1.8062-0.64699-3.3687-2.6688-3.3687-2.3713 0-3.0722 2.2105-3.1261 3.3687zm3.0452 7.008c-1.6714 1.2391-3.6114 1.8321-5.768 1.8321-4.2853 0-6.8713-2.587-6.8713-7.3585 0-4.5808 2.6678-7.5452 6.8992-7.5452 3.9338 0 6.1174 2.2914 6.1174 6.8992 0 0.3235-0.027 1.5096-0.0539 1.7523h-9.1906c0.16174 1.94 1.1053 3.2879 3.5305 3.2879 1.4288 0 2.588-0.37741 4.1785-1.2131z" fill="#1d1d1b" stroke-width=".99844"/>
 <path d="m202.26 65.835 0.29654 1.8871c1.0234-1.1871 2.6139-2.2105 4.6078-2.2105 2.9913 0 4.501 1.914 4.501 5.0122v9.5411h-3.5844v-8.4628c0-2.1287-0.72687-3.0452-2.2365-3.0452-1.4288 0-2.561 1.0783-2.9913 1.5895v9.9185h-3.5844v-14.23z" fill="#1d1d1b" stroke-width=".99844"/>
 <path d="m42.91 37.543h8.8961v-25.387h-8.8961z" fill="#1d1d1b"/>
 <path d="m68.29 37.543h8.8981v-25.387h-8.8981z" fill="#1d1d1b"/>
 <path d="m88.34 37.543h8.8961v-25.387h-8.8961z" fill="#1d1d1b"/>
 <path d="m82.76 11.636c-2.7677 0-5.0132 2.2625-5.0132 5.0561 0 2.7926 2.2455 5.0611 5.0132 5.0611 2.7747 0 5.0251-2.2685 5.0251-5.0611 0-2.7936-2.2505-5.0561-5.0251-5.0561" fill="#1d1d1b" stroke-width=".99844"/>
 <path d="m108.37 26.033c-0.53117-0.90259-0.55913-1.4567-0.0469-2.3284l7.057-11.548h-9.7857s-5.8778 9.609-6.6816 10.943c-0.80075 1.3349-0.7648 2.1636 0.03195 3.5355 0.80175 1.3679 6.6496 10.908 6.6496 10.908h9.7857s-6.9292-11.367-7.01-11.51" fill="#1d1d1b" stroke-width=".99844"/>
 <path d="m67.73 37.529-4.7626-21.294c-0.45529-2.3264-2.4861-4.0786-4.9263-4.0786h-5.7151l5.745 25.387h9.6649z" fill="#1d1d1b" stroke-width=".99844"/>
</svg>
