<svg width="700" height="700" version="1.1" viewBox="0 0 700 700" xml:space="preserve" xmlns="http://www.w3.org/2000/svg"><defs><radialGradient id="radialGradient879" cx="144" cy="144" r="144" gradientTransform="matrix(1.8197 -1.8197 -1.8229 -1.8229 252.31 798.93)" gradientUnits="userSpaceOnUse"><stop stop-color="#db0000" offset="0"/><stop stop-color="#600" offset="1"/></radialGradient></defs><g transform="matrix(1.3333 0 0 -1.3333 14.211 715.87)"><path d="m87.779 536.9c-54.247-0.16678-98.438-44.19-98.438-98.438v-426.56h426.56c54.366 0 98.438 44.072 98.438 98.438v426.56z" fill="url(#radialGradient879)" stop-color="#000000" stroke-width="9.2005" style="paint-order:stroke fill markers"/><text transform="matrix(2.4306 0 0 2.4306 15.247 -17.026)" fill="#000000" font-family="sans-serif" font-size="30px" style="line-height:1.25;shape-inside:url(#rect883);white-space:pre" xml:space="preserve"/><g transform="matrix(2.8009 0 0 -2.8009 680.4 929.37)" fill="#fff" style="shape-inside:url(#rect888-2);white-space:pre" aria-label="ONE WAY"><path d="m-198.79 193.19q0 2.34-0.93 4.38-0.9 2.04-2.46 3.57-1.53 1.53-3.6 2.43-2.07 0.87-4.38 0.87-2.34 0-4.41-0.87-2.07-0.9-3.63-2.43-1.53-1.53-2.46-3.57-0.9-2.04-0.9-4.35 0-2.34 0.9-4.38t2.46-3.57 3.63-2.4q2.07-0.9 4.38-0.9 2.34 0 4.41 0.9 2.07 0.87 3.6 2.4 1.56 1.53 2.46 3.57 0.93 2.04 0.93 4.35zm-3.06 0.09q0-1.71-0.66-3.24t-1.8-2.7-2.67-1.86q-1.5-0.69-3.18-0.69-1.71 0-3.24 0.69-1.5 0.69-2.64 1.86t-1.8 2.7-0.66 3.21q0 1.71 0.66 3.24t1.8 2.7 2.64 1.86q1.53 0.69 3.21 0.69 1.71 0 3.21-0.69 1.53-0.69 2.67-1.86t1.8-2.7 0.66-3.21z"/><path d="m-193.6 189.2v14.97h-3.09v-22.62l16.02 16.02v-15.3h3.09v22.92z"/><path d="m-174.58 204.17v-21.9h11.76v2.46h-8.67v6.48h8.37v2.49h-8.37v7.95h8.67v2.52z"/><path d="m-132.37 205.19-5.82-15.57-5.82 15.57-9.51-22.92h3.09l6.39 15.09 5.94-16.32 5.97 16.32 5.76-15.09h3.09z"/><path d="m-105.13 204.17-2.64-5.73h-9.48l-2.61 5.73h-3.42l10.77-23.13 10.77 23.13zm-7.41-16.11-3.54 7.74h7.08z"/><path d="m-91.508 194.06v10.11h-3.09v-9.99l-7.14-11.91h3.45l5.25 8.85 5.13-8.85h3.45z"/></g><g transform="matrix(.99999 0 0 .99999 947.39 -12.685)" fill="#fff"><path transform="matrix(.75 0 0 -.75 -10.658 227.9)" d="m-1151.4-159.92 18.186 41.932h71.951l0.1 226.07h45.934l0.1016-226.07h71.994l-18.186-41.932z" stroke-width="1.0008"/><path d="m-723.93 347.84 87.177-201h32.657l87.177 201h-38.782l-64.724-152.39-64.725 152.39z" stroke-width=".75056"/></g></g></svg>
