<svg width="600pt" height="388.52pt" version="1.1" viewBox="0 0 600 388.52" xmlns="http://www.w3.org/2000/svg">
 <defs>
  <filter id="filter1255" x="-.0056863" y="-.011827" width="1.0114" height="1.0237" color-interpolation-filters="sRGB">
   <feGaussianBlur stdDeviation="1.1383969"/>
  </filter>
 </defs>
 <path transform="matrix(1.2224 0 0 1.2224 .014889 -286.37)" d="m315.66 237.04c-76.685 0-201.44 48.222-308.67 171.77 3.491 7.8423 17.569 16.167 24.875 0 54.637-48.742 170.21-127.8 269.67-127.8 113.24 0 144.17 102.27 159.02 187.06 1.1556 5.296 26.913 6.4923 26.913 4.4e-4 0-100.7-25.332-231.02-171.81-231.02z" fill="#f11001" filter="url(#filter1255)" stop-color="#000000" style="paint-order:stroke markers fill"/>
 <g transform="matrix(1.6299 0 0 1.6299 0 -286.41)">
  <g transform="matrix(2.6252 0 0 2.6252 0 -589.01)">
   <path d="m6.87 338.11q0.57-1.62 0.81-3.18 0.24-1.59 0.24-3.87v-14.25q-2.22 0-4.23 0.51t-3.63 1.38l-0.06-0.06 1.5-5.1h19.23l-2.07 4.83q-1.32-0.78-2.85-1.14-1.5-0.39-3.48-0.42v14.25q0 2.22 0.24 3.81t0.81 3.24z" style="white-space:pre"/>
   <path d="m45.15 313.54v0.09q-1.08 1.26-1.83 2.52-0.72 1.26-1.62 3.42l-7.8 18.54h-4.11l-7.11-18.09q-0.87-2.16-1.83-3.9-0.93-1.77-1.65-2.49v-0.09h7.29q-0.24 0.87-0.24 1.74 0 1.98 1.14 4.89l4.59 11.7 4.65-11.07q1.59-3.75 1.59-5.64 0-0.81-0.3-1.62z" style="white-space:pre"/>
  </g>
  <g transform="matrix(2.6079 0 0 2.6079 -.77428 -610.06)">
   <path d="m2.31 376.07c0.38-1.1 0.65-2.18 0.81-3.24s0.24-2.33 0.24-3.81v-10.47c0-1.48-0.08-2.75-0.24-3.81s-0.43-2.14-0.81-3.24h14.1l-2.13 4.65c-1.74-1.02-3.91-1.56-6.51-1.62v7.44h7.8l-2.49 4.23c-1.42-0.62-3.19-0.98-5.31-1.08v7.77c2 0 3.78-0.14 5.34-0.42s3.08-0.74 4.56-1.38l0.06 0.06-2.04 4.92z" style="white-space:pre"/>
   <path d="m23.31 376.28q-1.2 0-2.22-0.15t-2.25-0.48l0.24-5.04h0.12q0.99 1.71 1.83 2.37t2.04 0.66q0.93 0 1.41-0.45 0.51-0.48 0.51-1.32 0-0.87-0.51-1.5-0.51-0.66-2.07-1.68-1.68-1.08-2.37-2.19-0.66-1.14-0.66-2.67 0-1.44 0.72-2.61 0.75-1.17 2.07-1.83 1.35-0.66 3.09-0.66 1.89 0 3.54 0.51v3.48h-0.12q-0.93-0.78-1.65-1.08-0.72-0.33-1.5-0.33-0.9 0-1.38 0.45-0.48 0.42-0.48 1.17 0 0.78 0.54 1.47 0.57 0.66 1.92 1.53 1.71 1.08 2.46 2.22t0.75 2.7q0 2.61-1.68 4.02-1.65 1.41-4.35 1.41z" style="white-space:pre"/>
   <path d="m36.84 371.27q0 1.38 0.18 2.49 0.21 1.08 0.69 2.31h-6q0.48-1.23 0.66-2.31 0.21-1.11 0.21-2.49v-13.38q0-2.01-0.21-3.21t-0.66-2.28l5.88-1.11q-0.33 1.35-0.54 3.51-0.21 2.13-0.21 4.5zm7.29-0.3q1.32 2.22 3.45 5.01v0.09h-6.42q0.15-1.47-1.02-3.51l-3.27-5.73 3.84-5.28q0.51-0.69 0.69-1.23 0.21-0.57 0.27-1.32h5.73v0.12q-1.02 0.81-1.89 1.74-0.84 0.93-1.92 2.43l-2.19 2.97z" style="white-space:pre"/>
   <path d="m52.11 351.5q1.11 0 1.89 0.81 0.81 0.78 0.81 1.92t-0.81 1.95q-0.78 0.78-1.89 0.78-1.14 0-1.95-0.78-0.81-0.81-0.81-1.95t0.81-1.92q0.81-0.81 1.95-0.81zm2.97 7.5q-0.48 1.23-0.69 2.31-0.18 1.08-0.18 2.46v7.5q0 1.38 0.18 2.49 0.21 1.08 0.69 2.31h-6q0.48-1.23 0.66-2.31 0.21-1.11 0.21-2.49v-7.5q0-1.38-0.21-2.46-0.18-1.08-0.66-2.31z" style="white-space:pre"/>
   <path d="m57.96 376.07q0.48-1.23 0.66-2.31 0.21-1.11 0.21-2.49v-13.38q0-2.01-0.21-3.21t-0.66-2.28l5.88-1.11q-0.33 1.35-0.54 3.51-0.21 2.13-0.21 4.5v11.97q0 1.38 0.18 2.49 0.21 1.08 0.69 2.31z" style="white-space:pre"/>
   <path d="m70.89 376.28q-1.2 0-2.22-0.15t-2.25-0.48l0.24-5.04h0.12q0.99 1.71 1.83 2.37t2.04 0.66q0.93 0 1.41-0.45 0.51-0.48 0.51-1.32 0-0.87-0.51-1.5-0.51-0.66-2.07-1.68-1.68-1.08-2.37-2.19-0.66-1.14-0.66-2.67 0-1.44 0.72-2.61 0.75-1.17 2.07-1.83 1.35-0.66 3.09-0.66 1.89 0 3.54 0.51v3.48h-0.12q-0.93-0.78-1.65-1.08-0.72-0.33-1.5-0.33-0.9 0-1.38 0.45-0.48 0.42-0.48 1.17 0 0.78 0.54 1.47 0.57 0.66 1.92 1.53 1.71 1.08 2.46 2.22t0.75 2.7q0 2.61-1.68 4.02-1.65 1.41-4.35 1.41z" style="white-space:pre"/>
   <path d="m84.66 359h4.53v2.76h-4.53v9.03q0 1.11 0.51 1.59 0.51 0.45 1.65 0.45 1.32 0 2.76-0.45l0.06 0.06-2.37 3.51q-1.32 0.3-2.52 0.3-2.28 0-3.33-0.99-1.02-0.99-1.02-3.24v-10.26h-2.1v-0.12l6.24-6.6h0.12z" style="white-space:pre"/>
   <path d="m96.51 376.31c-1.14 0-2.1-0.27-2.88-0.81-0.76-0.54-1.32-1.3-1.68-2.28v-9.45c0-0.92-0.07-1.74-0.21-2.46-0.12-0.72-0.33994-1.49-0.65994-2.31h6.0299c-0.32 0.8-0.55 1.56-0.69 2.28s-0.21 1.55-0.21 2.49v5.64c0 1.08 0.22 1.87 0.66 2.37 0.44 0.48 1.12 0.72 2.04 0.72 0.48 0 0.95-0.06 1.41-0.18s0.98-0.33 1.56-0.63v-7.92c0-0.92-0.07-1.74-0.21-2.46-0.12-0.72-0.34-1.49-0.66-2.31h6c-0.32 0.82-0.55 1.59-0.69 2.31-0.12 0.72-0.18 1.54-0.18 2.46v7.5c0 0.92 0.06 1.75 0.18 2.49 0.14 0.72 0.37 1.49 0.69 2.31h-5.37c0.16-0.7 0.24-1.83 0.24-3.39l-2.31 3c-0.86 0.42-1.88 0.63-3.06 0.63z" style="white-space:pre"/>
   <path d="m109.95 376.07q0.48-1.23 0.66-2.31 0.21-1.11 0.21-2.49v-7.65q0-1.32-0.18-2.37-0.15-1.05-0.54-2.25h5.16q-0.18 1.02-0.18 2.22v1.2l2.67-3.15q0.99-0.54 2.52-0.54 2.19 0 3.57 1.38 1.41 1.38 1.41 4.11v7.05q0 1.38 0.18 2.49 0.21 1.08 0.69 2.31h-6.03q0.48-1.23 0.69-2.31t0.21-2.49v-6q0-1.26-0.81-1.98-0.81-0.75-2.16-0.75-0.75 0-1.44 0.21t-1.5 0.69v7.83q0 1.38 0.18 2.49 0.21 1.08 0.69 2.31z" style="white-space:pre"/>
   <path d="m134.55 358.73c1.96 0 3.44 0.47 4.44 1.41s1.5 2.2799 1.5 4.0199l4e-5 7.1101c1e-5 1 0.07 1.85 0.21 2.55s0.39 1.45 0.75 2.25h-5.22v-1.95c-0.9 0.52-1.8 1.19-2.7 2.01-0.1 0.02-0.3 0.03-0.6 0.03-1.6 0-2.85-0.38-3.75-1.14s-1.35-1.8-1.35-3.12c0-0.96 0.3-1.8 0.9-2.52 0.62-0.72 1.72-1.45 3.3-2.19 1.26-0.6 2.66-1.21 4.2-1.83v-0.39c0-0.92-0.26-1.62-0.78-2.1-0.5-0.5-1.19-0.75-2.07-0.75-1.36 0-2.73 0.43-4.11 1.29l-0.06-0.06 1.26-3.93c1.18-0.46 2.54-0.69 4.08-0.69zm-1.8 9.81c-0.28 0.66-0.42 1.33-0.42 2.01 0 0.9 0.24 1.57 0.72 2.01 0.5 0.42 1.29 0.63 2.37 0.63 0.34 0 0.61-0.03 0.81-0.09v-4.5601z" style="white-space:pre"/>
  </g>
  <g transform="matrix(1.3187 0 0 1.3187 8.2845 -131.99)">
   <path d="m12.87 392.99c-3.18 0-5.94 0.99-7.92 2.85-2.22 2.04-3.27 4.59-3.27 7.71 0 3.15 1.08 5.7 3.24 7.71 2.19 2.01 4.77 2.82 8.22 2.82 3.18 0 5.94-1.02 8.1-3s3.24-4.5 3.24-7.59c0-3-1.05-5.52-3.09-7.47-2.25-2.13-4.95-3.03-8.52-3.03zm-0.09 1.47c4.17 0 6.27 3.03 6.27 9.09 0 6.12-1.8 9.06-5.82 9.06-3.99 0-6.12-3.03-6.12-8.97 0-6.15 1.77-9.18 5.67-9.18zm-2.58-7.11c-0.9 0-1.65 0.75-1.65 1.65 0 0.96 0.69 1.65 1.65 1.65s1.65-0.69 1.65-1.65c0-0.9-0.75-1.65-1.65-1.65zm5.64 0c-0.9 0-1.65 0.78-1.65 1.65 0 0.96 0.69 1.65 1.65 1.65s1.65-0.69 1.65-1.65c0-0.9-0.75-1.65-1.65-1.65z" style="white-space:pre"/>
   <path d="m26.79 393.47v1.17c2.22 0.15 2.64 0.6 2.64 2.46v12.9c0 1.77-0.57 2.28-2.64 2.43v1.23c0.96-0.09 2.1-0.09 3.48-0.09 2.82 0 5.13 0.03 6.93 0.09v-1.23h-0.15c-2.28 0-2.88-0.63-2.88-2.58v-5.34c0.51 0.03 1.02 0.03 1.47 0.03 6.03 0 8.94-1.77 8.94-5.67 0-3.87-3.03-5.37-9.36-5.37-2.07 0-3.81 0.06-5.16 0.06-1.08 0-2.16 0-3.27-0.09zm7.38 9.57v-7.29c0-0.66 0.39-0.81 1.59-0.81 2.4 0 3.69 1.32 3.69 3.84 0 3.06-1.29 4.29-4.47 4.29-0.27 0-0.54 0-0.81-0.03z" style="white-space:pre"/>
   <path d="m46.65 393.47v1.17c2.22 0.15 2.64 0.6 2.64 2.46v12.9c0 1.77-0.57 2.28-2.64 2.43v1.23c0.96-0.09 2.1-0.09 3.48-0.09 2.82 0 5.13 0.03 6.93 0.09v-1.23h-0.15c-2.28 0-2.88-0.63-2.88-2.58v-5.34c0.51 0.03 1.02 0.03 1.47 0.03 6.03 0 8.94-1.77 8.94-5.67 0-3.87-3.03-5.37-9.36-5.37-2.07 0-3.81 0.06-5.16 0.06-1.08 0-2.16 0-3.27-0.09zm7.38 9.57v-7.29c0-0.66 0.39-0.81 1.59-0.81 2.4 0 3.69 1.32 3.69 3.84 0 3.06-1.29 4.29-4.47 4.29-0.27 0-0.54 0-0.81-0.03z" style="white-space:pre"/>
   <path d="m81.84 393.44v1.17c2.1 0.03 2.79 1.02 2.79 3.54v8.97l-11.97-13.68c-1.05 0.09-2.22 0.09-3.42 0.09-1.11 0-2.1 0-2.94-0.09v1.17c1.5 0.06 2.37 0.45 2.91 1.56v12.63c0 2.4-0.45 3.39-2.73 3.63v1.26c0.81-0.09 1.68-0.12 2.64-0.12 1.17 0 2.67 0.03 4.5 0.09v-1.23c-1.92-0.03-2.76-1.17-2.76-3.63v-10.74l13.68 15.99h1.68v-15.75c0-2.52 0.45-3.54 2.76-3.69v-1.17c-1.47 0.06-2.7 0.09-3.69 0.09-0.78 0-1.95-0.03-3.45-0.09z" style="white-space:pre"/>
   <path d="m98.94 398.9 2.64 6.99h-5.49zm0.9-5.85-7.23 17.04c-0.63 1.47-1.53 2.22-3 2.34v1.23c1.17-0.06 2.34-0.09 3.51-0.09 1.2 0 2.43 0.03 3.69 0.09v-1.23c-1.68 0-2.49-0.51-2.49-1.65 0-0.33 0.18-1.17 0.63-2.25l0.51-1.17h6.69l0.6 1.59c0.42 1.11 0.6 1.89 0.6 2.28 0 0.96-0.72 1.11-2.58 1.2v1.23c1.59-0.06 3.3-0.09 5.16-0.09 1.8 0 3.51 0.03 5.19 0.09v-1.23c-1.74-0.12-2.46-0.84-3.06-2.4l-6.75-16.98z" style="white-space:pre"/>
   <path d="m120.18 393.38v1.14c2.19 0.06 2.79 0.69 2.79 2.67v12.57c0 1.98-0.48 2.61-2.79 2.67v1.26c1.29-0.09 3.03-0.12 5.19-0.12 2.19 0 3.84 0.03 5.04 0.12v-1.26c-2.64-0.09-2.73-0.72-2.73-2.82v-3.33l1.71-2.01 4.56 6.06c0.33 0.45 0.48 0.93 0.48 1.2 0 0.57-0.6 0.9-1.74 0.9h-0.39v1.26c1.68-0.09 3.42-0.12 5.16-0.12 1.38 0 3.03 0.03 4.98 0.12v-1.29c-0.93-0.03-1.77-0.57-2.61-1.68l-7.53-9.75 3.72-4.32c1.14-1.32 2.07-2.04 3.75-2.1v-1.14c-1.05 0.09-2.13 0.15-3.27 0.15-1.29 0-2.76-0.03-4.38-0.12v1.11c1.44 0 2.16 0.36 2.16 1.11 0 0.84-1.35 2.55-3.84 5.4l-2.76 3.15v-6.57c0-2.28 0.36-3.06 2.46-3.06h0.12v-1.17c-1.68 0.09-3.33 0.12-4.92 0.12-1.83 0-3.57-0.03-5.16-0.15z" style="white-space:pre"/>
   <path d="m151.17 398.9 2.64 6.99h-5.49zm0.9-5.85-7.23 17.04c-0.63 1.47-1.53 2.22-3 2.34v1.23c1.17-0.06 2.34-0.09 3.51-0.09 1.2 0 2.43 0.03 3.69 0.09v-1.23c-1.68 0-2.49-0.51-2.49-1.65 0-0.33 0.18-1.17 0.63-2.25l0.51-1.17h6.69l0.6 1.59c0.42 1.11 0.6 1.89 0.6 2.28 0 0.96-0.72 1.11-2.58 1.2v1.23c1.59-0.06 3.3-0.09 5.16-0.09 1.8 0 3.51 0.03 5.19 0.09v-1.23c-1.74-0.12-2.46-0.84-3.06-2.4l-6.75-16.98z" style="white-space:pre"/>
   <path d="m179.61 393.44v1.17c2.1 0.03 2.79 1.02 2.79 3.54v8.97l-11.97-13.68c-1.05 0.09-2.22 0.09-3.42 0.09-1.11 0-2.1 0-2.94-0.09v1.17c1.5 0.06 2.37 0.45 2.91 1.56v12.63c0 2.4-0.45 3.39-2.73 3.63v1.26c0.81-0.09 1.68-0.12 2.64-0.12 1.17 0 2.67 0.03 4.5 0.09v-1.23c-1.92-0.03-2.76-1.17-2.76-3.63v-10.74l13.68 15.99h1.68v-15.75c0-2.52 0.45-3.54 2.76-3.69v-1.17c-1.47 0.06-2.7 0.09-3.69 0.09-0.78 0-1.95-0.03-3.45-0.09z" style="white-space:pre"/>
   <path d="m196.71 398.9 2.64 6.99h-5.49zm0.9-5.85-7.23 17.04c-0.63 1.47-1.53 2.22-3 2.34v1.23c1.17-0.06 2.34-0.09 3.51-0.09 1.2 0 2.43 0.03 3.69 0.09v-1.23c-1.68 0-2.49-0.51-2.49-1.65 0-0.33 0.18-1.17 0.63-2.25l0.51-1.17h6.69l0.6 1.59c0.42 1.11 0.6 1.89 0.6 2.28 0 0.96-0.72 1.11-2.58 1.2v1.23c1.59-0.06 3.3-0.09 5.16-0.09 1.8 0 3.51 0.03 5.19 0.09v-1.23c-1.74-0.12-2.46-0.84-3.06-2.4l-6.75-16.98z" style="white-space:pre"/>
   <path d="m209.61 393.44v1.2h0.15c1.98 0 2.61 0.57 2.61 2.37v12.42c0 2.22-0.48 3-2.43 3h-0.33v1.26c3.21-0.06 6.24-0.12 9-0.12 2.82 0 5.88 0 9.18 0.06l0.12-6h-1.23c-0.63 3.12-2.4 4.5-5.76 4.5-3.03 0-3.78-0.96-3.78-3.96v-10.98c0-1.98 0.54-2.55 2.7-2.55h0.18v-1.2c-2.07 0.06-3.81 0.09-5.22 0.09-1.68 0-3.39-0.03-5.19-0.09z" style="white-space:pre"/>
   <path d="m229.47 393.35v1.17h0.21c2.01 0 2.61 0.81 2.61 2.91v11.1c0 3-0.3 3.93-2.82 3.93v1.26c2.01-0.18 4.26-0.21 6.78-0.21 2.79 0 6.45 0.06 10.98 0.18v-6.09h-1.11c-0.66 3.48-2.19 4.5-5.7 4.5-2.4 0-3.42-0.81-3.42-2.94v-5.37h0.39c2.46 0 3.45 0.81 3.87 3.36h1.23c-0.09-1.2-0.15-2.58-0.15-4.17 0-1.41 0.03-2.73 0.15-3.93h-1.29c-0.45 2.52-1.32 3.36-3.69 3.36h-0.51v-6.6c0-0.9 0.39-0.93 1.71-0.93 3.87 0 5.43 0.57 6.09 3.72h1.23v-5.25c-5.16 0.15-8.43 0.18-9.78 0.18-2.1 0-4.38-0.06-6.78-0.18z" style="white-space:pre"/>
   <path d="m264.81 393.44v1.17c2.1 0.03 2.79 1.02 2.79 3.54v8.97l-11.97-13.68c-1.05 0.09-2.22 0.09-3.42 0.09-1.11 0-2.1 0-2.94-0.09v1.17c1.5 0.06 2.37 0.45 2.91 1.56v12.63c0 2.4-0.45 3.39-2.73 3.63v1.26c0.81-0.09 1.68-0.12 2.64-0.12 1.17 0 2.67 0.03 4.5 0.09v-1.23c-1.92-0.03-2.76-1.17-2.76-3.63v-10.74l13.68 15.99h1.68v-15.75c0-2.52 0.45-3.54 2.76-3.69v-1.17c-1.47 0.06-2.7 0.09-3.69 0.09-0.78 0-1.95-0.03-3.45-0.09z" style="white-space:pre"/>
  </g>
 </g>
</svg>
