<svg width="800" height="156.25" version="1.1" viewBox="0 0 800 156.25" xmlns="http://www.w3.org/2000/svg">
 <g transform="matrix(3.125 0 0 3.125 0 -1.2276e-6)" fill="none" fill-rule="evenodd">
  <g transform="translate(-52,-102)" fill="#00c389">
   <g transform="translate(52,102)">
    <path d="m220.76 36.249c-6.3518-5.207-7.3772-14.712-2.2961-21.206 5.114-6.4675 14.425-7.4979 20.776-2.2906 6.3518 5.207 7.3772 14.712 2.2962 21.206-5.1137 6.4675-14.425 7.4974-20.776 2.2903zm35.237-36.249h-26.037v0.0057647c-7.005 0.011529-13.945 3.1222-18.678 9.1004l-1e-3 -0.00125-0.22292 0.28272 2e-3 0.00175c-8.0469 10.543-6.3289 25.819 3.913 34.216 10.314 8.4561 25.434 6.7863 33.743-3.71l1e-3 1e-3 0.0479-0.0604v-2.51e-4l0.1743-0.22182-2e-3 -0.0018c6.9908-9.1591 6.6078-21.888-0.3275-30.578h7.3863z"/>
    <path d="m59.302 41.92c-5.7882 0.02363-8.7504-2.772-8.5064-8.0277 0.15661-3.3713 2.0594-5.7888 5.5849-6.719 5.1824-1.3675 10.252-0.60998 15.129 1.4003 0.64333 0.26519 1.3023 1.6257 1.2194 2.3979-0.70157 6.5453-6.1538 10.919-13.427 10.949m22.959-6.4018c-0.15221-6.4598 0.006363-12.934-0.35604-19.379-0.32864-5.8431-2.9049-10.74-8.4846-12.88-9.2217-3.5357-18.39-2.9198-27.161 1.8334-0.57775 0.3132-1.2465 1.101-1.2764 1.6986-0.13606 2.7399-0.05995 5.4908-0.05995 8.6273 1.1281-0.61769 1.8979-0.98711 2.6159-1.4411 4.9083-3.1049 10.249-4.2437 15.979-3.7447 6.6533 0.57913 10.141 4.9955 9.1953 11.913-0.94089-0.26767-1.8647-0.51719-2.7808-0.79282-5.7528-1.7309-11.536-1.9242-17.35-0.34554-8.6119 2.3382-13.065 9.5631-11.137 18.055 1.5742 6.9369 8.8891 11.502 17.142 10.881 6.1399-0.46097 11.225-2.9362 15.172-7.883 3.0167 6.6605 7.9659 9.0206 13.241 6.5812v-8.2509c-4.0254-0.25648-4.6447-0.83934-4.7392-4.8729"/>
    <path d="m158.13 23.38c-2.394-1.0166-4.9422-1.6565-7.4365-2.4114-3.0486-0.9221-6.1839-1.5985-9.1323-2.7773-1.0093-0.40373-2.1945-2.0189-2.1689-3.0512 0.03-1.2162 1.0289-2.8376 2.0745-3.4915 1.4128-0.88347 3.2471-1.2364 4.942-1.4263 6.1999-0.69482 11.86 0.91836 17.523 5.3968 0-3.421 0.17067-6.0026-0.084-8.5384-0.10264-1.0243-0.91703-2.4284-1.7789-2.8453-8.1807-3.9543-16.619-4.3184-25.011-0.90491-6.3393 2.5789-9.2725 8.918-7.5844 15.564 1.2056 4.7481 4.7517 7.1533 8.9125 8.587 4.2927 1.4794 8.7479 2.4565 13.055 3.8965 2.1887 0.7317 4.5256 1.7949 4.3269 4.8505-0.19706 3.0317-2.6673 3.5882-4.8803 4.3192-0.45198 0.14928-0.95601 0.13009-1.4351 0.19539-7.1358 0.97469-13.822-0.17719-19.834-4.777-0.58223 11.218-2.103 10.636 8.1892 13.267 0.28179 0.07202 0.55656 0.18666 0.84198 0.22504 6.7988 0.91562 13.541 0.96023 19.876-2.2036 4.9788-2.4862 7.535-6.7378 7.476-12.457-0.0579-5.6178-2.9821-9.3406-7.8727-11.417"/>
    <path d="m19.137 10.285v-8.3439h-19.137v8.8059h9.2455v29.324h-9.2413v8.929h31.375v-9.1402h-12.119c0-5.612-0.19277-9.7211 0.04471-15.002 0.37259-8.3011 16.531-14.698 17.696-14.273v-9.5852c-7.3694-0.007481-13.141 2.8113-17.863 9.2846"/>
    <polygon points="104.32 11.685 104.32 40.369 95 40.369 95 49 124 49 124 40.313 114.35 40.313 114.35 3 95.018 3 95.018 11.685"/>
    <polygon points="184.36 11.784 184.36 40.38 175 40.38 175 49 204 49 204 40.307 194.37 40.307 194.37 3 175.08 3 175.08 11.784"/>
   </g>
  </g>
 </g>
</svg>
