<svg width="800" height="539.43" version="1.1" viewBox="0 0 800 539.43" xml:space="preserve" xmlns="http://www.w3.org/2000/svg"><path d="m269.72 269.72h-269.72v-269.72h269.72z" fill="#ce2027" stroke-width="5.9392"/><path d="m269.72 539.43h269.72v-269.72h-269.72z" fill="#2d2d2d" stroke-width="5.9392"/><path d="m589.34 471.71h33.269v-403.98h-33.269z" fill="#ddd" stroke-width="5.9196"/><g transform="matrix(2.2848 0 0 2.2848 593.89 1219.5)" fill="#ddd" style="shape-inside:url(#rect841);white-space:pre" aria-label="RTSH"><path d="m-134.34-303.36v-28.633h12.168q4.5898 0 6.6602 0.78125 2.0898 0.76172 3.3398 2.7344 1.25 1.9727 1.25 4.5117 0 3.2227-1.8945 5.332-1.8945 2.0898-5.6641 2.6367 1.875 1.0938 3.0859 2.4024 1.2305 1.3086 3.3008 4.6484l3.4961 5.5859h-6.9141l-4.1797-6.2305q-2.2266-3.3398-3.0469-4.1992-0.82031-0.8789-1.7383-1.1914-0.91797-0.33203-2.9102-0.33203h-1.1719v11.953zm5.7812-16.523h4.2773q4.1602 0 5.1953-0.35156 1.0352-0.35156 1.6211-1.2109 0.58594-0.85937 0.58594-2.1484 0-1.4453-0.78125-2.3242-0.76172-0.89844-2.168-1.1328-0.70313-0.0977-4.2188-0.0977h-4.5117z"/><path d="m-99.012-303.36v-23.789h-8.4961v-4.8438h22.754v4.8438h-8.4766v23.789z"/><path d="m-82.469-312.68 5.625-0.54688q0.50781 2.832 2.0508 4.1602 1.5625 1.3281 4.1992 1.3281 2.793 0 4.1992-1.1719 1.4258-1.1914 1.4258-2.7734 0-1.0156-0.60547-1.7188-0.58594-0.72266-2.0703-1.25-1.0156-0.35156-4.6289-1.25-4.6484-1.1523-6.5234-2.832-2.6367-2.3633-2.6367-5.7617 0-2.1875 1.2305-4.082 1.25-1.9141 3.5742-2.9102 2.3438-0.99609 5.6445-0.99609 5.3906 0 8.1055 2.3633 2.7344 2.3633 2.8711 6.3086l-5.7812 0.25391q-0.37109-2.207-1.6016-3.1641-1.2109-0.97657-3.6523-0.97657-2.5195 0-3.9453 1.0352-0.91797 0.66406-0.91797 1.7773 0 1.0156 0.85938 1.7383 1.0938 0.91796 5.3125 1.9141 4.2188 0.99609 6.2305 2.0703 2.0312 1.0547 3.1641 2.9102 1.1523 1.8359 1.1523 4.5508 0 2.4609-1.3672 4.6094-1.3672 2.1484-3.8672 3.2031-2.5 1.0352-6.2305 1.0352-5.4297 0-8.3398-2.5-2.9102-2.5195-3.4766-7.3242z"/><path d="m-54.266-303.36v-28.633h5.7812v11.27h11.328v-11.27h5.7812v28.633h-5.7812v-12.52h-11.328v12.52z"/></g><path d="m757.29 156.84c0 29.158-20.026 46.069-61.015 46.069v36.865l54.913-0.1307v142.95h48.812v-225.75z" fill="#ddd" stop-color="#000000" stroke-miterlimit="10" stroke-width="18.643" style="paint-order:stroke fill markers"/></svg>
