<svg version="1.1" viewBox="0 0 499.09 79.383" xml:space="preserve" xmlns="http://www.w3.org/2000/svg"><g transform="matrix(1.3333 0 0 -1.3333 -115.96 1049.8)"><g transform="translate(191.62 739.22)"><path d="m0 0h-5.068v-6.326h-87.787v6.326h-5.068v-6.813c0-2.53 2.05-4.581 4.58-4.581h88.762c2.53 0 4.581 2.051 4.581 4.581z" fill="#52c4b9"/></g><g transform="translate(191.62 775.96)"><path d="m0 0h-5.068v6.326h-87.787v-6.326h-5.068v6.813c0 2.53 2.05 4.581 4.58 4.581h88.762c2.53 0 4.581-2.051 4.581-4.581z" fill="#52c4b9"/></g><g transform="translate(162.86 764.17)"><path d="m0 0v-19.889h6.724v19.889h5.802v6.724h-18.328v-6.724z" fill="#52c4b9"/></g><g transform="translate(191.62 770.9)"><path d="m0 0v-20.414h-5.068v20.414h-6.724v-21.408c0-3.47 2.128-5.205 6.384-5.205h5.748c4.256 0 6.384 1.735 6.384 5.205v21.408z" fill="#52c4b9"/></g><g transform="translate(146.24 770.9)"><path d="m0 0v-20.414h-5.068v20.414h-6.724v-21.408c0-3.47 2.128-5.205 6.384-5.205h5.748c4.256 0 6.384 1.735 6.384 5.205v21.408z" fill="#52c4b9"/></g><g transform="translate(122.43 770.9)"><path d="m0 0v-20.414h-5.068v20.414h-6.724v-21.408c0-3.47 2.128-5.205 6.384-5.205h5.748c4.256 0 6.384 1.735 6.384 5.205v21.408z" fill="#52c4b9"/></g><g transform="translate(105.58 758.58)"><path d="m0 0v6.756c0 3.683-2.081 5.536-6.242 5.559h-12.366v-26.614h6.724v8.644h0.423l4.893-8.638h7.269l-4.894 8.991c2.864 0.433 4.193 2.2 4.193 5.302m-6.436 1.693c0.025-1.311-0.45-1.967-1.426-1.967h-4.022v6.585h4.022c0.976 0 1.451-0.422 1.426-1.265z" fill="#52c4b9"/></g><g transform="translate(214.81 781.03)"><path d="m0 0h-6.33v6.33h-5.068v-6.33h-6.331v-5.068h6.331v-6.33h5.068v6.33h6.33z" fill="#52c4b9"/></g><g transform="translate(214.4 753)"><path d="m0 0v17.896h5.205v-17.478c0-2.584 1.368-4.522 4.94-4.522 3.571 0 4.939 1.938 4.939 4.522v17.478h5.243v-17.896c0-5.737-4.332-9.232-10.182-9.232-5.814 0-10.145 3.495-10.145 9.232" fill="#231f20"/></g><g transform="translate(245.79 758.13)"><path d="m0 0h5.396c1.975 0 3.609 1.748 3.609 3.951 0 2.204-1.634 3.914-3.609 3.914h-5.396zm3.989-4.598h-3.989v-9.232h-5.243v26.597h10.639c4.901 0 8.852-3.953 8.852-8.816 0-3.343-2.09-6.345-5.129-7.751l5.889-10.03h-5.661z" fill="#231f20"/></g><g transform="translate(285.17 770.89)"><path d="m0 0v-26.597h-5.206v11.019h-9.878v-11.019h-5.243v26.597h5.243v-10.563h9.878v10.563z" fill="#231f20"/></g><g transform="translate(307.6 749.31)"><path d="m0 0v-5.016h-16.451v26.597h16.262v-5.016h-11.019v-5.661h10.068v-4.939h-10.068v-5.965z" fill="#231f20"/></g><path d="m317.89 744.3h-5.243v26.597h5.243z" fill="#231f20"/><g transform="translate(339.19 749.31)"><path d="m0 0v-5.016h-15.388v26.597h5.243v-21.581z" fill="#231f20"/></g><g transform="translate(342.19 753)"><path d="m0 0v17.896h5.205v-17.478c0-2.584 1.368-4.522 4.94-4.522 3.571 0 4.939 1.938 4.939 4.522v17.478h5.243v-17.896c0-5.737-4.332-9.232-10.182-9.232-5.814 0-10.145 3.495-10.145 9.232" fill="#231f20"/></g><g transform="translate(383.53 763.37)"><path d="m0 0c0-1.937 1.444-3.153 3.42-3.153s3.419 1.216 3.419 3.153c0 1.976-1.443 3.115-3.419 3.115s-3.42-1.139-3.42-3.115m7.751-10.98c0 2.355-1.823 3.647-4.331 3.647s-4.331-1.292-4.331-3.647c0-2.394 1.823-3.686 4.331-3.686s4.331 1.292 4.331 3.686m5.205-0.684c0-4.901-3.647-7.94-9.536-7.94-5.928 0-9.537 3.039-9.537 7.94 0 2.697 1.33 5.016 3.647 6.421-1.672 1.216-2.773 3.04-2.773 5.51 0 5.129 3.989 7.788 8.663 7.788 4.673 0 8.625-2.659 8.625-7.788 0-2.47-1.065-4.294-2.774-5.51 2.356-1.405 3.685-3.724 3.685-6.421" fill="#231f20"/></g><g transform="translate(431.94 770.89)"><path d="m0 0v-26.597h-5.205v11.019h-9.879v-11.019h-5.243v26.597h5.243v-10.563h9.879v10.563z" fill="#52c4b9"/></g><g transform="translate(456.27 757.59)"><path d="m0 0c0 4.901-3.192 8.283-7.789 8.283h-5.319v-16.565h5.319c4.597 0 7.789 3.382 7.789 8.282m5.015 0c0-7.484-5.471-13.298-12.804-13.298h-10.563v26.597h10.563c7.333 0 12.804-5.814 12.804-13.299" fill="#52c4b9"/></g></g></svg>
