<svg version="1.1" viewBox="0 0 399.68 112.32" xmlns="http://www.w3.org/2000/svg">
 <link href="" rel="stylesheet" type="text/css"/>
 <style type="text/css"/>
 <path d="m287.35 15.778c0-8.669 7.104-15.778 15.768-15.778h80.771c8.684 0 15.791 7.109 15.791 15.778v80.776c0 8.672-7.107 15.766-15.791 15.766h-80.771c-8.664 0-15.768-7.094-15.768-15.766v-80.776" fill="#77ac2c" fill-rule="evenodd"/>
 <path d="m383.89 0h-80.771c-8.664 0-15.768 7.109-15.768 15.778v80.776l112.33-50.545v-30.231c0-8.669-7.107-15.778-15.791-15.778" fill="#9dbe59" fill-rule="evenodd"/>
 <path d="m340.85 61.958a2.22 2.22 0 0 1-3.109 0l-29.101-29.094a2.188 2.188 0 0 1 0-3.097l15.806-15.807a2.207 2.207 0 0 1 3.108 0l29.082 29.093c0.849 0.853 0.849 2.252 0 3.082l-15.786 15.823m-8.946 9.923c-0.854 0.84-2.252 0.84-3.108 0l-9.158-9.163a2.205 2.205 0 0 1 0-3.106l3.672-3.65c0.858-0.856 2.252-0.856 3.084 0l9.184 9.158a2.226 2.226 0 0 1 0 3.094l-3.674 3.667m3.002 26.836a2.21 2.21 0 0 1-3.108 0l-9.16-9.172a2.178 2.178 0 0 1 0-3.084l15.5-15.504a2.214 2.214 0 0 1 3.109 0l9.135 9.162c0.875 0.865 0.875 2.24 0 3.094l-15.476 15.504m27.996-14.299c-0.85 0.84-2.25 0.84-3.084 0l-16.183-16.184a2.196 2.196 0 0 1 0-3.094l20.166-20.182c0.873-0.85 2.252-0.85 3.103 0l16.18 16.186a2.179 2.179 0 0 1 0 3.092l-20.183 20.182" fill="#fff" fill-rule="evenodd"/>
 <g transform="translate(.00016606 -.68)" fill="#77ac2c">
  <path d="m178.08 68.962v-22.349c0-5.097 0.525-5.228 4.853-6.516 2.408-0.657 4.331-0.875 6.475-0.875 3.61 0 5.86 0.788 7.391 2.777 1.552 1.966 2.469 5.641 2.469 11.634v5.389c0 6.998-1.204 10.924-3.084 12.954-1.836 2.035-4.612 2.702-8.663 2.702-1.459 0-3.01-0.088-4.676-0.25-4.392-0.504-4.765-1.137-4.765-5.466m-11.896-42.587c-3.325-0.045-4.155 1.683-4.155 4.265v73.11c0 3.521 1.27 4.769 4.808 4.769h6.608c3.629 0 4.74-1.281 4.74-4.759v-16.049c3.082 0.592 7.129 0.929 10.301 0.949 7.766 0.016 14.565-1.715 19.42-6.428 4.853-4.722 7.521-12.224 7.521-23.21v-5.389c0-10.192-2.012-17.352-5.902-22.067-3.937-4.711-9.668-6.656-16.398-6.647-5.5408 0.01012-10.983 1.465-15.79 4.221 0-1.826-0.963-2.765-3.173-2.765h-7.98" fill-rule="evenodd"/>
  <path transform="translate(0,24)" d="m121.54 44.962v-22.349c0-5.097 0.52-5.228 4.852-6.516 2.406-0.657 4.333-0.875 6.472-0.875 3.59 0 5.84 0.788 7.367 2.777 1.576 1.966 2.494 5.641 2.494 11.634v5.389c0 6.998-1.205 10.924-3.084 12.954-1.834 2.035-4.592 2.702-8.654 2.702-1.47 0-3.043-0.088-4.724-0.25-4.352-0.504-4.723-1.137-4.723-5.466m-11.896-42.587c-3.325-0.045-4.159 1.683-4.159 4.265v73.11c0 3.521 1.27 4.769 4.791 4.769h6.625c3.631 0 4.748-1.281 4.748-4.759v-16.049c3.079 0.592 7.106 0.929 10.297 0.949 7.742 0.016 14.563-1.715 19.416-6.428 4.834-4.722 7.526-12.224 7.526-23.21v-5.389c0-10.192-2.014-17.352-5.928-22.067-3.895-4.711-9.645-6.656-16.375-6.647-5.541 0.010775-10.984 1.4656-15.791 4.221 0-1.826-0.986-2.765-3.195-2.765h-7.955" fill="#77ac2c" fill-rule="evenodd"/>
  <path transform="translate(0,24)" d="m29.105 25.947-4.66-1.859c-3.545-1.391-5.816-2.364-6.973-3.256-1.117-0.92-1.336-1.445-1.425-3.083 0.023-0.898 0.177-1.468 0.396-1.829 0.35-0.533 0.94-0.973 2.362-1.244 1.353-0.319 3.386-0.406 5.99-0.406 4.986 0 11.371 0.425 17.89 1.04 0.35 0.043 0.695-0.088 0.983-0.328 0.26445-0.25496 0.41358-0.60667 0.413-0.974v-9.512c0-0.558-0.37-1.063-0.919-1.246-3.146-0.986-11.764-2.318-18.586-2.331-7.846 0.013-13.885 1.028-18.148 3.74-4.286 2.724-6.45 7.271-6.428 13.384 0 4.744 1.397 8.636 4.262 11.775 2.843 3.137 7.064 5.532 12.617 7.751l4.418 1.76c4.287 1.695 6.824 2.809 8.092 3.816 0.613 0.504 0.917 0.92 1.134 1.412 0.223 0.483 0.332 1.125 0.332 2.054 0 0.906-0.158 1.606-0.374 2.145-0.37 0.797-0.96 1.377-2.36 1.879-1.443 0.501-3.629 0.765-6.736 0.765-7.346 0-16.072-1.127-19.155-1.343-0.35-0.014-0.72 0.097-0.984 0.371-0.26776 0.23382-0.41916 0.57355-0.414 0.929v9.733c0 0.558 0.35 1.056 0.916 1.222 1.487 0.469 4.416 1.026 8.094 1.508 3.694 0.483 8.048 0.84 12.158 0.84 8.285-0.02 14.475-1.672 18.67-4.961 4.241-3.279 6.232-8.168 6.214-13.929-0.044-4.998-1.271-8.843-4.199-11.919-2.888-3.06-7.259-5.347-13.58-7.904" fill="#77ac2c" fill-rule="evenodd"/>
  <path d="m248.71 75.049c-2.234 0.744-4.896 1.183-7.416 1.17-2.316 0.013-4.086-0.37-5.156-1.135-1.029-0.766-1.683-1.926-1.728-4.387v-2.479c0-1.805 0.265-3.106 0.722-4.047 0.655-1.387 1.682-2.153 3.696-2.721 1.966-0.559 4.857-0.723 8.572-0.723h1.18c4.72 0 4.765 0.329 4.765 4.768v2.975c0 4.831-0.24 5.114-4.635 6.579m20.553 7.88v-35.497c0-7.555-1.199-13.284-5.137-17.133-3.937-3.826-10.189-5.38-19.609-5.38-4.818 0-9.408 0.558-13.144 1.247-3.743 0.668-6.541 1.477-7.963 2.056a1.305 1.305 0 0 0-0.786 1.204v9.214c0 0.363 0.151 0.713 0.442 0.963 0.26 0.243 0.631 0.363 0.998 0.317 6.367-0.723 12.443-1.125 18.172-1.125 5.119-0.022 7.896 0.48 9.097 1.563 0.614 0.513 1.006 1.193 1.295 2.326 0.284 1.14 0.413 2.715 0.413 4.748 0 2.352 0.046 2.33-2.36 2.33h-3.281c-8.221 8e-3 -15.244 0.457-20.467 3.101-2.623 1.301-4.764 3.219-6.191 5.852-1.422 2.614-2.147 5.893-2.147 9.917v2.165c-0.017 5.869 1.645 10.451 4.879 13.504 3.219 3.07 7.826 4.459 13.471 4.459 7.238 0 13.162-2.129 17.103-4.352-0.049 1.182 0.326 2.701 2.602 2.799h8.767c3.194 0 3.846-1.727 3.846-4.278" fill="#77ac2c" fill-rule="evenodd"/>
  <path transform="translate(0,24)" d="m80.645 51.049c-2.235 0.744-4.899 1.183-7.389 1.17-2.32 0.013-4.094-0.37-5.161-1.135-1.033-0.766-1.706-1.926-1.729-4.387v-2.479c0-1.805 0.259-3.106 0.724-4.047 0.652-1.387 1.66-2.153 3.672-2.721 2.01-0.559 4.853-0.723 8.592-0.723h1.159c4.725 0 4.767 0.315 4.767 4.768v2.975c0 4.831-0.22 5.114-4.635 6.579m20.594 7.88v-35.497c0-7.555-1.222-13.284-5.159-17.133-3.957-3.826-10.189-5.38-19.633-5.38-4.812 0-9.385 0.569-13.121 1.247-3.736 0.668-6.558 1.477-7.937 2.056-0.49028 0.19874-0.81106 0.67497-0.811 1.204v9.214c0 0.363 0.156 0.713 0.438 0.963 0.27168 0.25042 0.64087 0.36664 1.007 0.317 6.361-0.723 12.418-1.125 18.151-1.125 5.111-0.022 7.914 0.48 9.094 1.551 0.61 0.525 1.003 1.205 1.313 2.352 0.302 1.126 0.392 2.701 0.392 4.734 0 2.352 0.045 2.33-2.362 2.33h-3.257c-8.243 8e-3 -15.243 0.457-20.489 3.101-2.604 1.301-4.746 3.219-6.168 5.852-1.441 2.614-2.164 5.893-2.164 9.917v2.176c-0.023 5.858 1.644 10.44 4.876 13.493 3.237 3.07 7.851 4.459 13.515 4.459 7.216 0 13.12-2.129 17.099-4.352-0.066 1.182 0.307 2.701 2.581 2.799h8.748c3.235 0 3.887-1.727 3.887-4.278" fill="#77ac2c" fill-rule="evenodd"/>
 </g>
</svg>
