<svg width="576.54pt" height="600pt" version="1.1" viewBox="0 0 576.54 600" xmlns="http://www.w3.org/2000/svg">
 <g transform="matrix(1.3848 0 0 1.3848 934.11 -315.86)" stroke-width=".75">
  <path d="m-299.55 415.59a187.5 187.5 0 0 1-187.5 187.5 187.5 187.5 0 0 1-187.5-187.5 187.5 187.5 0 0 1 187.5-187.5 187.5 187.5 0 0 1 187.5 187.5z" fill="#613fc4"/>
  <path class="cls-2" d="m-547.96 548.7c-1.275 2.865-1.9125 4.14-1.9125 5.4075 0 1.9125 1.275 3.8175 4.77 3.8175h43.898a7.395 7.395 0 0 0 7.3125-4.77l113.55-255.75c1.59-3.18-0.315-5.7225-3.18-5.7225h-193.06a3.675 3.675 0 0 0-3.8175 3.8175v42.615a3.6075 3.6075 0 0 0 3.8175 3.5025h118.96z" fill="#fff"/>
 </g>
 <g transform="matrix(3.0225 0 0 3.0225 -128.94 -109.07)" fill="#5a5959">
  <path transform="scale(.75)" d="m232.64 273.05v39.748h9.1719v-17.055h16.088v17.055l9.1738-4.5e-4v-39.748h-9.1738v15.254h-16.088v-15.254z" stroke-width="1.3333"/>
  <path d="m206.34 204.79h10.785c4.2394 0 8.3498 0.45853 11.765 3.28 6.25 6.27 6.08 18.26-0.88 23.95-3.1464 2.276-6.7732 2.5802-10.51 2.5802h-11.16v-29.81m6.435 5.8402v18h5.1458c2.6475 0 4.9532 0.052 6.6961-2.0533 1.5485-1.8966 2.1146-4.4545 2.0123-7.0002-0.0736-1.8284-0.492-3.6505-1.1391-5.2167-1.5264-2.9649-4.2568-3.7298-7.4271-3.7298z"/>
 </g>
</svg>
