<svg width="600pt" height="414.08pt" version="1.1" viewBox="0 0 600 414.08" xmlns="http://www.w3.org/2000/svg">
 <path d="m0-4.1669e-6h143.66v414.08h-143.66z" fill="#080808" stop-color="#000000" style="paint-order:stroke fill markers"/>
 <path d="m8.4507 8.4507h126.76v253.52h-126.76z" fill="#fd0200" stop-color="#000000" style="paint-order:stroke fill markers"/>
 <path d="m8.4507 278.87h126.76v126.76h-126.76z" fill="#fd0200" stop-color="#000000" style="paint-order:stroke fill markers"/>
 <path d="m152.11-4.1669e-6h143.66v414.08h-143.66z" fill="#080808" stop-color="#000000" style="paint-order:stroke fill markers"/>
 <path d="m160.56 8.4507h126.76v253.52h-126.76z" fill="#999" stop-color="#000000" style="paint-order:stroke fill markers"/>
 <path d="m160.56 278.87h126.76v126.76h-126.76z" fill="#999" stop-color="#000000" style="paint-order:stroke fill markers"/>
 <path d="m304.23-4.1669e-6h143.66v414.08h-143.66z" fill="#080808" stop-color="#000000" style="paint-order:stroke fill markers"/>
 <path d="m312.68 8.4507h126.76v253.52h-126.76z" fill="#ccc" stop-color="#000000" style="paint-order:stroke fill markers"/>
 <path d="m312.68 278.87h126.76v126.76h-126.76z" fill="#ccc" stop-color="#000000" style="paint-order:stroke fill markers"/>
 <path d="m456.34-4.1669e-6h143.66v414.08h-143.66z" fill="#080808" stop-color="#000000" style="paint-order:stroke fill markers"/>
 <path d="m464.79 8.4507h126.76v253.52h-126.76z" fill="#fff" stop-color="#000000" style="paint-order:stroke fill markers"/>
 <path d="m464.79 278.87h126.76v126.76h-126.76z" fill="#fff" stop-color="#000000" style="paint-order:stroke fill markers"/>
 <g transform="matrix(1.1268 0 0 1.1268 110.07 177.04)" shape-rendering="auto">
  <path d="m-34.697-97.121c-8.1665 0-15.843 1.3935-22.826 4.2793-7.1378 2.9495-13.078 7.6031-17.068 13.74-3.838 5.8544-5.8965 12.556-5.8965 19.461 0 6.2591 1.6636 12.312 4.916 17.541l0.02734 0.04492 0.0293 0.04492c3.3928 5.2849 8.3908 9.4896 14.469 12.676 5.2442 2.7799 12.481 4.9951 22.727 7.4805l0.03516 0.0078c9.891 2.3504 16.512 4.2338 18.377 4.9609l0.0293 0.0098 0.0293 0.01172c3.7354 1.4211 5.7372 3.005 6.5176 4.0195l0.02148 0.02734 0.02149 0.02734c0.96526 1.2307 1.3691 2.313 1.3691 4.2773 0 1.82-0.43021 3.2095-1.6914 4.9512l-0.0059 0.00977-0.0078 0.00977c-0.99436 1.3824-2.7503 2.8138-5.9766 4.0664-3.1783 1.2339-7.0819 1.9414-11.83 1.9414-5.3109 0-9.8044-0.90093-13.703-2.5723-3.963-1.749-6.337-3.7356-7.752-5.7793-1.5014-2.2893-2.6908-5.5618-3.2285-10.111l-0.85352-7.2246-27.865 2.4355 0.19336 7.0605c0.23157 8.5094 2.6358 16.531 7.1445 23.473l0.01953 0.03125 0.02148 0.03125c4.5995 6.9291 11.104 12.261 18.926 15.646l0.0196 0.0078c7.9068 3.397 17.172 4.9141 27.746 4.9141 8.6748 0 16.776-1.5945 24.039-4.9062l0.023438-0.0118c7.3066-3.3633 13.337-8.3122 17.473-14.67l0.0196-0.02734c4.0081-6.2215 6.166-13.243 6.166-20.463 0-7.124-1.9452-13.917-5.8105-19.627-3.9513-5.8862-9.8562-10.41-17.102-13.75l-0.017578-0.0098-0.019531-0.0078c-5.5266-2.512-13.66-4.726-25.584-7.3926l0.03711 0.0078c-11.301-2.5858-18.426-6.1465-18.293-6.0254l-0.02344-0.02344-0.02539-0.02148c-1.3858-1.2399-1.7305-1.9522-1.7305-4.0566 0-2.3042 0.51732-3.5635 3.1211-5.6465l0.0059-0.0039 0.0039-0.0039c1.9392-1.5561 6.5931-3.1719 14.377-3.1719 7.3105 0 11.754 1.5758 14.148 3.5527l0.01758 0.01367 0.01563 0.01172c2.6102 2.1302 4.2628 5.1039 4.8535 10.578l0.7793 7.2207 28.256-2.127-0.28125-7.2266c-0.29461-7.601-2.5042-14.783-6.5684-20.971-4.1636-6.3387-10.27-11.164-17.609-14.223-7.2167-3.077-15.345-4.5195-24.205-4.5195z" color="#000000" color-rendering="auto" dominant-baseline="auto" fill="#080808" image-rendering="auto" solid-color="#000000" stop-color="#000000" style="font-feature-settings:normal;font-variant-alternates:normal;font-variant-caps:normal;font-variant-east-asian:normal;font-variant-ligatures:normal;font-variant-numeric:normal;font-variant-position:normal;font-variation-settings:normal;inline-size:0;isolation:auto;mix-blend-mode:normal;paint-order:stroke markers fill;shape-margin:0;shape-padding:0;text-decoration-color:#000000;text-decoration-line:none;text-decoration-style:solid;text-indent:0;text-orientation:mixed;text-transform:none;white-space:pre"/>
  <path d="m-77.144-13.929 13.58-1.1873c0.64314 5.442 2.1273 9.9192 4.4525 13.432 2.3747 3.4631 6.0356 6.283 10.983 8.4597 4.9472 2.1273 10.513 3.191 16.697 3.191 5.4914 0 10.34-0.81629 14.545-2.4489 4.2052-1.6326 7.3219-3.8588 9.3503-6.6788 2.0778-2.8694 3.1167-5.9861 3.1167-9.3502 0-3.4136-0.98945-6.3819-2.9684-8.905-1.9789-2.5726-5.244-4.7246-9.7955-6.4562-2.9189-1.1379-9.375-2.8941-19.368-5.2688-9.9934-2.4241-16.994-4.6998-21.001-6.8271-5.1946-2.721-9.0782-6.0851-11.651-10.092-2.5231-4.0567-3.7846-8.5834-3.7846-13.58 0-5.4914 1.5584-10.612 4.6751-15.361 3.1167-4.7988 7.6682-8.435 13.654-10.909 5.9861-2.4736 12.64-3.7104 19.962-3.7104 8.064 0 15.163 1.311 21.298 3.933 6.1841 2.5726 10.933 6.3819 14.248 11.428 3.3147 5.0462 5.0957 10.76 5.343 17.142l-13.803 1.0389c-0.74209-6.8766-3.2652-12.071-7.5693-15.584-4.2546-3.5125-10.562-5.2688-18.923-5.2688-8.7071 0-15.064 1.6078-19.072 4.8236-3.9578 3.1662-5.9367 7.0003-5.9367 11.502 0 3.9083 1.41 7.124 4.2299 9.6471 2.7705 2.5231 9.9934 5.1204 21.669 7.7919 11.725 2.622 19.764 4.9225 24.118 6.9014 6.3325 2.9189 11.008 6.6293 14.025 11.131 3.0178 4.4525 4.5267 9.5976 4.5267 15.435 0 5.7883-1.6573 11.255-4.972 16.4-3.3146 5.0957-8.0887 9.0782-14.322 11.948-6.1841 2.8199-13.16 4.2299-20.927 4.2299-9.845 0-18.107-1.4347-24.786-4.3041-6.6293-2.8694-11.849-7.1735-15.658-12.912-3.7599-5.7883-5.7388-12.319-5.9367-19.591z" color="#000000" color-rendering="auto" dominant-baseline="auto" fill="#fff" image-rendering="auto" solid-color="#000000" stop-color="#000000" style="font-feature-settings:normal;font-variant-alternates:normal;font-variant-caps:normal;font-variant-east-asian:normal;font-variant-ligatures:normal;font-variant-numeric:normal;font-variant-position:normal;font-variation-settings:normal;inline-size:0;isolation:auto;mix-blend-mode:normal;paint-order:stroke markers fill;shape-margin:0;shape-padding:0;text-decoration-color:#000000;text-decoration-line:none;text-decoration-style:solid;text-indent:0;text-orientation:mixed;text-transform:none;white-space:pre"/>
 </g>
 <g transform="matrix(1.1268 0 0 1.1268 110.07 177.04)" shape-rendering="auto">
  <path d="m59.574-95.266v123.79h82.975v-27.838h-53.578v-95.951z" color="#000000" color-rendering="auto" dominant-baseline="auto" fill="#080808" image-rendering="auto" solid-color="#000000" stop-color="#000000" style="font-feature-settings:normal;font-variant-alternates:normal;font-variant-caps:normal;font-variant-east-asian:normal;font-variant-ligatures:normal;font-variant-numeric:normal;font-variant-position:normal;font-variation-settings:normal;inline-size:0;isolation:auto;mix-blend-mode:normal;paint-order:stroke markers fill;shape-margin:0;shape-padding:0;text-decoration-color:#000000;text-decoration-line:none;text-decoration-style:solid;text-indent:0;text-orientation:mixed;text-transform:none;white-space:pre"/>
  <path d="m67.074 21.023v-108.79h14.396v95.952h53.578v12.838z" color="#000000" color-rendering="auto" dominant-baseline="auto" fill="#fff" image-rendering="auto" solid-color="#000000" stop-color="#000000" style="font-feature-settings:normal;font-variant-alternates:normal;font-variant-caps:normal;font-variant-east-asian:normal;font-variant-ligatures:normal;font-variant-numeric:normal;font-variant-position:normal;font-variation-settings:normal;inline-size:0;isolation:auto;mix-blend-mode:normal;paint-order:stroke markers fill;shape-margin:0;shape-padding:0;text-decoration-color:#000000;text-decoration-line:none;text-decoration-style:solid;text-indent:0;text-orientation:mixed;text-transform:none;white-space:pre"/>
 </g>
 <g transform="matrix(1.1268 0 0 1.1268 110.07 177.04)" shape-rendering="auto">
  <path d="m185.45-95.266v27.838h35.842v95.951h29.396v-95.951h35.992v-27.838z" color="#000000" color-rendering="auto" dominant-baseline="auto" fill="#080808" image-rendering="auto" solid-color="#000000" stop-color="#000000" style="font-feature-settings:normal;font-variant-alternates:normal;font-variant-caps:normal;font-variant-east-asian:normal;font-variant-ligatures:normal;font-variant-numeric:normal;font-variant-position:normal;font-variation-settings:normal;inline-size:0;isolation:auto;mix-blend-mode:normal;paint-order:stroke markers fill;shape-margin:0;shape-padding:0;text-decoration-color:#000000;text-decoration-line:none;text-decoration-style:solid;text-indent:0;text-orientation:mixed;text-transform:none;white-space:pre"/>
  <path d="m228.79 21.023v-95.952h-35.843v-12.838h86.23v12.838h-35.991v95.952z" color="#000000" color-rendering="auto" dominant-baseline="auto" fill="#fff" image-rendering="auto" solid-color="#000000" stop-color="#000000" style="font-feature-settings:normal;font-variant-alternates:normal;font-variant-caps:normal;font-variant-east-asian:normal;font-variant-ligatures:normal;font-variant-numeric:normal;font-variant-position:normal;font-variation-settings:normal;inline-size:0;isolation:auto;mix-blend-mode:normal;paint-order:stroke markers fill;shape-margin:0;shape-padding:0;text-decoration-color:#000000;text-decoration-line:none;text-decoration-style:solid;text-indent:0;text-orientation:mixed;text-transform:none;white-space:pre"/>
 </g>
 <g transform="matrix(1.1268 0 0 1.1268 0 -162.82)" shape-rendering="auto">
  <path d="m416.96 206.36 39.977 123.79h23.209l40.398-123.79h-28.111l-23.744 76.617-22.846-76.617z" color="#000000" color-rendering="auto" dominant-baseline="auto" fill="#080808" image-rendering="auto" solid-color="#000000" stop-color="#000000" style="font-feature-settings:normal;font-variant-alternates:normal;font-variant-caps:normal;font-variant-east-asian:normal;font-variant-ligatures:normal;font-variant-numeric:normal;font-variant-position:normal;font-variation-settings:normal;inline-size:0;isolation:auto;mix-blend-mode:normal;paint-order:stroke markers fill;shape-margin:0;shape-padding:0;text-decoration-color:#000000;text-decoration-line:none;text-decoration-style:solid;text-indent:0;text-orientation:mixed;text-transform:none;white-space:pre"/>
  <path d="m462.39 322.64-35.132-108.79h12.989l23.566 79.032c1.8968 6.3324 3.4844 12.269 4.7626 17.81 1.402-5.9367 3.0307-11.873 4.8863-17.81l24.494-79.032h12.247l-35.503 108.79z" color="#000000" color-rendering="auto" dominant-baseline="auto" fill="#fff" image-rendering="auto" solid-color="#000000" stop-color="#000000" style="font-feature-settings:normal;font-variant-alternates:normal;font-variant-caps:normal;font-variant-east-asian:normal;font-variant-ligatures:normal;font-variant-numeric:normal;font-variant-position:normal;font-variation-settings:normal;inline-size:0;isolation:auto;mix-blend-mode:normal;paint-order:stroke markers fill;shape-margin:0;shape-padding:0;text-decoration-color:#000000;text-decoration-line:none;text-decoration-style:solid;text-indent:0;text-orientation:mixed;text-transform:none;white-space:pre"/>
 </g>
</svg>
