<svg width="600pt" height="67.199pt" version="1.1" viewBox="0 0 600 67.199" xmlns="http://www.w3.org/2000/svg">
 <g transform="translate(-8.61 -62.35)" fill="#dc5f11">
  <path d="m221.79 62.42h31.166c13.43 0 21.734 5.7088 21.735 19.663 0 9.4212-3.6075 15-12.241 18.26l16.669 29.084h-15.632l-16.028-27.668h-25.668v-12.657h32.34c4.9398 0 8.0765-2.3669 8.1949-7.0182 0-4.8268-2.9635-7.0179-8.1949-7.0179h-32.34z" stroke-width=".61013"/>
  <path d="m288.6 62.423h55.366v12.575h-21.05v54.439h-13.6v-54.439h-20.717z" stroke-width=".61013"/>
  <path d="m35.12 62.393c7.205 0 13.313 1.5375 18.536 5.5583 3.9536 3.2337 6.6504 7.8066 8.8103 12.364h-13.093c-2.5809-3.1727-6.4735-5.3722-10.647-5.2685-3.1239-0.0122-6.5894 0.23185-9.091 2.3185-2.2636 1.9524-3.3984 5.9183-0.89689 8.1514 2.9835 2.4771 6.986 3.1483 10.708 3.734 6.3974 1.0739 11.513 2.9347 16.12 6.6138 3.972 3.3618 5.4668 8.5325 5.4668 13.826 0 4.4665-1.5863 8.1819-4.3624 11.214-5.7722 6.0806-12.247 8.6382-19.711 8.6382-5.8807 0-10.997-1.6076-15.988-3.9341-6.0708-2.9896-10.049-8.9079-12.361-15.089h13.24c4.9665 5.9976 14.082 8.0598 21.086 4.6919 3.3069-1.7877 4.3563-6.4613 2.288-9.5669-2.1843-3.3679-6.5162-4.0818-10.183-4.5943-6.0525-0.61013-12.099-2.4344-17.102-5.9671-5.8027-4.4598-6.8039-14.719-3.3635-21.196 4.3769-7.4384 13.11-11.495 20.545-11.495z" stroke-width=".61013"/>
  <path d="m109.53 62.426c15.4 0 19.79 4.4371 19.831 19.501 0 14.297-9.5123 19.927-22.913 19.831h-16.303v27.689h-13.575v-67.022zm-19.384 12.639v14.027h20.012c3.9102 0 6.7998-2.2884 6.8779-7.0135 0-5.1426-1.9264-7.0135-6.8779-7.0135z" stroke-width=".61013"/>
  <path d="m173.87 62.35a32.978 33.599 0 0 0-32.978 33.6 32.978 33.599 0 0 0 32.978 33.6 32.978 33.599 0 0 0 32.977-33.6 32.978 33.599 0 0 0-32.977-33.6zm0 12.665a19.424 20.934 0 0 1 19.424 20.934 19.424 20.934 0 0 1-19.424 20.934 19.424 20.934 0 0 1-19.424-20.934 19.424 20.934 0 0 1 19.424-20.934z" stroke-width=".34742"/>
  <g stroke-width=".61013">
   <path d="m491.46 62.423h13.884v48.817l31.583-48.817h16.736l-44.527 67.014h-17.676z"/>
   <path d="m391.93 62.423h13.423v54.439h33.871v12.575h-47.294z"/>
   <path d="m455.45 62.423h13.585v67.014h-13.585z"/>
   <path d="m559.19 62.423h49.421v12.642h-49.421z"/>
   <path d="m559.19 89.098h40.418v12.66h-40.418z"/>
   <path d="m559.19 116.78h49.265v12.654h-49.265z"/>
  </g>
 </g>
</svg>
