<svg enable-background="new 0 0 311.8 94.5" version="1.1" viewBox="0 0 311.8 94.534" xml:space="preserve" xmlns="http://www.w3.org/2000/svg">
		<path d="m308.8 38.334h-9.9c-1.7 0-3 1.4-3 3v10c0 1.7 1.4 3 3 3h9.9c1.7 0 3-1.4 3-3v-10c0-1.7-1.3-3-3-3zm0 31h-9.9c-1.7 0-3 1.4-3 3v9.9c0 1.7 1.4 3 3 3h9.9c1.7 0 3-1.4 3-3v-9.9c0-1.6-1.3-3-3-3z" fill="#fff"/>
		<path d="m256.5 29.834c-6.1 0-13.9 1.8-20.2 3.8-1.2 0.4-1.8 0.8-1.9 1.8-0.1 1.6-0.2 3.7-0.2 5.3 0 0.9 0.6 1.3 1.5 1.3h17.4c8.9 0 10.7 2.6 10.7 7.4v3.6c-5.2 0.6-13.3 1.7-20.9 3-12.9 2.2-17.4 7.4-17.4 17.2 0 18.2 12.5 20.3 28.3 20.3 20.4 0 27.7-2.3 27.7-12.3v-33.1c0-11.9-6.6-18.3-25-18.3zm7.3 52.8c-17.3 0.7-20.6-0.1-20.6-9.9 0-3.8 1.5-5.7 5.1-7 5.4-1.9 11.3-3.4 15.6-4.3zm-117.2-52.8c-26.2 0-29.4 13-29.4 32 0 18.9 3.2 31.9 29.4 31.9 26.1 0 29.4-13 29.4-31.9 0-19.1-3.4-32-29.4-32zm0 52.6c-10.8 0-11.2-6-11.2-20.7 0-15.1 0.5-20.8 11.2-20.8s11.2 5.7 11.2 20.8c0 14.7-0.6 20.7-11.2 20.7zm-33.2-50.9h-16.2v-22.7c0-2.1-0.9-2.7-2.6-2.4-3 0.4-9.9 1.6-13.5 2.4-1.4 0.3-2.1 1.2-2.1 2.8v78.8c0 1 0.5 1.7 2 1.7h14c1.6 0 2.1-0.7 2.1-1.7v-45.9s10.3-3.1 15.7-4.7c1.5-0.4 1.8-0.8 1.9-1.8 0.1-1.3 0.2-4.1 0.1-5.3 0.1-0.8-0.2-1.2-1.4-1.2zm112.5 1.3c0-0.9-0.3-1.3-1.5-1.3h-16.2v-7c0-5.5 1.2-10 8.8-12.3 3.2-1 4.9-1.5 8-2.4 1.7-0.5 1.9-1.2 2-2.5 0.1-1.8 0.1-3.5 0.1-5.5 0-1.3-0.6-2-2.3-1.8-4 0.6-8.1 1.3-13.3 2.4-14.9 3-21.6 8-21.6 22v65.9c0 1 0.5 1.7 2 1.7h14.1c1.6 0 2.1-0.7 2.1-1.7v-45.8s10.3-3.1 15.7-4.7c1.5-0.4 1.8-0.8 1.9-1.8 0.2-1.2 0.2-3.9 0.2-5.2zm-183.9 9.4c-20.8-9.1-21.9-9.7-21.9-13.7 0-6.7 3.2-8.6 16.1-8.6 9.5 0 19.7 0.4 24.2 0.7 1 0.1 1.5-0.3 1.6-1.3 0.1-1.2 0.4-6 0.4-7.2 0-1.3-0.4-1.9-1.8-2.3-7-1.7-18.6-3.7-27.6-3.7-20-0.1-32 2.5-32 23.1 0 13.2 4 16 29.1 27.3 17.1 7.7 17.8 8.5 17.8 14.7 0 6.6-5.4 8.9-16.7 8.9-10.7 0-19.3-0.2-28.8-0.7-0.9-0.1-1.5 0.3-1.7 1.3-0.3 1.7-0.6 5.7-0.7 7.8 0 1.1 0.4 1.7 1.7 2 8 2.3 19.9 4 30.7 4 20.2 0 35.9-5.2 35.9-24.2-0.1-15-3.8-18.3-26.3-28.1z" fill="#fff"/>
</svg>
