<svg width="1732" height="766.62" space="preserve" version="1.1" viewBox="0 0 1732 766.62" xmlns="http://www.w3.org/2000/svg">
 <link href="" rel="stylesheet" type="text/css"/>
 <style type="text/css"/>
 <g transform="scale(2.2067)">
  <path d="m18.26 190.09c2.5-1.3 5.16-2.36 7.99-3.18 2.82-0.81 5.81-1.22 8.96-1.22 3.69 0 7.23 1.22 10.6 3.67s7.12 5.03 11.25 7.74c0.98 0.65 2.2 1.17 3.67 1.55s2.85 0.57 4.16 0.57c1.3 0 2.61-0.24 3.91-0.73s2.47-1.14 3.5-1.96c1.03-0.81 1.9-1.82 2.61-3.02 0.71-1.19 1.06-2.45 1.06-3.75v-0.82c-0.11-1.08-0.44-2.09-0.98-3.02-0.54-0.92-1.47-1.79-2.77-2.61-1.3-0.81-3.04-1.68-5.22-2.61-2.18-0.92-4.89-1.98-8.15-3.18-6.19-2.17-12.31-4.64-18.34-7.42-6.03-2.77-11.41-6.25-16.14-10.43s-8.56-9.21-11.49-15.08-4.4-12.98-4.4-21.35c0-7.39 1.66-14.26 4.97-20.62s7.71-11.87 13.2-16.54 11.71-8.34 18.66-11 14.07-3.99 21.35-3.99c4.89 0 9.64 0.68 14.26 2.04s8.94 3.07 12.96 5.13c4.02 2.07 7.74 4.35 11.17 6.85 3.42 2.5 6.41 4.86 8.96 7.09s4.62 4.24 6.19 6.03 2.58 2.96 3.02 3.5l-12.06 12.88c-3.15 2.61-6.09 4.62-8.8 6.03-2.72 1.41-5.76 2.12-9.13 2.12-2.39 0-4.29-0.3-5.71-0.9-1.41-0.6-2.88-1.25-4.4-1.96s-3.29-1.36-5.3-1.96-4.81-0.9-8.39-0.9c-2.83 0-5.13 0.87-6.93 2.61-1.79 1.74-2.69 3.75-2.69 6.03 0 1.2 0.16 2.31 0.49 3.34s0.98 1.82 1.96 2.36c1.63 0.98 3.12 1.71 4.48 2.2s2.82 0.92 4.4 1.3c1.57 0.38 3.42 0.84 5.54 1.39 2.12 0.54 4.75 1.3 7.91 2.28 6.19 1.96 11.95 4.08 17.28 6.36 5.32 2.28 9.94 5.19 13.85 8.72s6.98 7.99 9.21 13.37 3.34 12.14 3.34 20.29c0 7.93-1.55 15.48-4.65 22.66-3.1 7.17-7.47 13.45-13.12 18.83s-12.36 9.67-20.13 12.88-16.27 4.81-25.51 4.81c-6.3 0-12.55-1.09-18.75-3.26-6.19-2.17-12.12-5.27-17.77-9.29s-10.9-8.94-15.73-14.75c-4.81-5.79-9.02-12.34-12.61-19.62z"/>
  <path d="m203.35 123.1v60.96c0 2.28 0.33 4.13 0.98 5.54s1.44 2.5 2.36 3.26 1.87 1.25 2.85 1.47 1.85 0.33 2.61 0.33c1.08 0 2.14-0.11 3.18-0.33 1.03-0.22 1.87-0.33 2.53-0.33 2.93 0 5.71 0.44 8.31 1.3 2.61 0.87 5 1.96 7.17 3.26s4.13 2.8 5.87 4.48c1.74 1.69 3.31 3.4 4.73 5.13 3.26 4.13 5.98 8.8 8.15 14.02-3.15 3.15-6.96 6.19-11.41 9.13-4.46 2.93-9.07 5.52-13.85 7.74-4.78 2.23-9.45 4.02-14.02 5.38s-8.53 2.04-11.9 2.04c-7.82 0-14.89-1.28-21.19-3.83s-11.65-6.08-16.06-10.6c-4.4-4.51-7.8-9.89-10.19-16.14s-3.59-13.12-3.59-20.62v-72.19h-24.45v-26.73c0-6.41 2.06-11.54 6.19-15.4s10.21-6.33 18.26-7.42v-30.32c0-4.34 0.68-8.26 2.04-11.74s2.85-6.46 4.48-8.96c1.96-2.82 4.18-5.43 6.68-7.82h40.26v58.35h47.75v50.04z"/>
  <path d="m297.7 73.22c1.3 1.41 2.31 3.04 3.02 4.89s1.22 3.59 1.55 5.22c0.43 1.96 0.6 3.91 0.49 5.87 1.52-3.04 3.69-5.71 6.52-7.99 2.82-2.28 5.92-4.16 9.29-5.62 3.37-1.47 6.85-2.58 10.43-3.34 3.59-0.76 6.9-1.14 9.94-1.14 9.45 0 21.35 2.88 35.7 8.64l-3.75 21.52c-0.76 4.24-2.2 7.77-4.32 10.59-2.12 2.83-4.65 5.08-7.58 6.76-2.93 1.69-6.14 2.88-9.62 3.59s-7.01 1.06-10.6 1.06c-3.7 0-7.23 0.49-10.59 1.47-3.37 0.98-6.36 2.26-8.97 3.83-2.61 1.58-4.81 3.37-6.6 5.38s-2.91 4.05-3.34 6.11v104.32h-53.3v-171.16z"/>
  <path d="m431.16 73.22v171.15h-53.46v-171.15z"/>
  <path d="m434.02 73.22h34.23c3.37 0 6.71 0.49 10.02 1.47s6.38 2.34 9.21 4.08c2.82 1.74 5.32 3.83 7.5 6.28 2.17 2.44 3.86 5.19 5.05 8.23l31.13 77.59c1.3 3.26 2.12 5.98 2.44 8.15 0.33 2.17 0.49 3.7 0.49 4.56v0.82c0.11-1.3 0.27-2.66 0.49-4.08 0.22-1.19 0.49-2.61 0.81-4.24 0.33-1.63 0.87-3.37 1.63-5.22l31.46-77.75c1.3-3.04 3.04-5.81 5.22-8.31 2.17-2.5 4.67-4.62 7.5-6.36 2.82-1.74 5.87-3.07 9.13-3.99s6.57-1.39 9.94-1.39h33.9l-69.6 171.31h-61.12z"/>
  <path d="m784.87 149.67c0 5.11-1.03 9.48-3.1 13.12s-4.67 6.6-7.82 8.88-6.6 3.94-10.35 4.97c-3.75 1.04-7.36 1.55-10.84 1.55h-84.43c1.19 3.91 3.1 7.39 5.71 10.43 2.17 2.61 5.13 5 8.88 7.17 3.75 2.18 8.61 3.26 14.59 3.26 3.15 0 6.17-0.49 9.05-1.47s5.73-2.04 8.56-3.18c2.82-1.14 5.73-2.2 8.72-3.18s6.22-1.47 9.7-1.47c5.11 0 9.56 0.84 13.37 2.53 3.8 1.69 7.33 4.16 10.59 7.42l13.53 13.53c-10.33 11.19-21.74 19.59-34.23 25.18-12.5 5.6-25.26 8.39-38.3 8.39-12.17 0-23.63-2.31-34.39-6.93s-20.13-10.92-28.12-18.91-14.32-17.33-18.99-28.04c-4.67-10.7-7.01-22.09-7.01-34.15s2.33-23.44 7.01-34.15c4.67-10.7 11-20.05 18.99-28.04s17.36-14.29 28.12-18.91 22.22-6.93 34.39-6.93c10.11 0 19.83 1.82 29.18 5.46 9.34 3.64 17.82 8.56 25.43 14.75s14.12 13.45 19.56 21.76c5.43 8.31 9.23 17.09 11.41 26.33 0.43 1.74 0.68 3.67 0.73 5.79 0.04 2.15 0.06 3.75 0.06 4.84zm-54.76-9.62c-1.96-4.02-4.4-7.6-7.33-10.76-2.5-2.71-5.79-5.19-9.86-7.42-4.08-2.23-9.05-3.34-14.92-3.34-6.19 0-11.36 1.28-15.48 3.83-4.13 2.55-7.45 5.35-9.94 8.39-2.83 3.59-5.05 7.61-6.68 12.06 0.65-0.43 1.41-0.87 2.28-1.3 0.76-0.33 1.63-0.65 2.61-0.98s2.06-0.49 3.26-0.49h56.06z"/>
  <circle cx="405.56" cy="32.5" r="32.5"/>
 </g>
 <g font-family="Aquawax" font-size="192px" font-weight="300" letter-spacing="0px" word-spacing="0px">
  <path d="m500 729.22q2.3243-1.1622 3.6318-1.8159 1.3801-0.72635 3.0507-0.72635 1.2348 0 2.5422 0.29054t3.2686 1.598q2.179 1.5253 4.7213 2.3243 2.6149 0.79898 5.375 0.79898 2.978 0 5.9561-0.79898 2.978-0.87163 5.4476-2.5422 2.4696-1.7432 3.9949-4.2855 1.598-2.6149 1.7432-6.174-0.14527-2.2517-0.87162-4.1402-0.65371-1.8885-2.397-3.4865-1.6706-1.6706-4.576-3.196-2.9054-1.5253-7.4088-3.1233l-1.5253-0.50845q-3.777-1.3074-7.4814-2.7601-3.7044-1.5253-6.6824-3.8497-2.978-2.397-4.8666-5.9561-1.8159-3.5591-1.8159-9.0068 0-4.4307 1.8885-7.8446 1.9612-3.4865 5.0118-5.8108 3.1233-2.397 6.973-3.6318t7.6267-1.3801h0.65372q3.777 0.14527 6.973 1.3801 3.196 1.2348 5.6655 2.9054 2.5422 1.6706 4.3581 3.4865 1.8885 1.7432 3.0507 2.978l-1.3801 1.1622q-1.1622 1.0169-2.5422 1.8159-1.3074 0.72635-2.8328 0.72635-0.94426-0.0726-1.8159-0.43581-0.87162-0.36317-1.8159-0.87162-0.87162-0.50845-1.8159-1.0895-0.94425-0.58108-1.9611-1.0895-1.8885-1.0169-3.6318-1.3074t-2.8328-0.29054q-3.3412 0.0726-5.6655 1.1622-2.3243 1.0169-3.8497 2.4696-1.4527 1.4527-2.1064 3.0507-0.65372 1.5253-0.65372 2.6149 0 2.978 1.2348 5.0845 1.3074 2.0338 3.4138 3.4865t4.7213 2.4696q2.6875 1.0169 5.4476 1.9612l0.72635 0.2179q4.1402 1.3801 8.1351 3.2686t7.0456 4.576q3.1233 2.6149 5.0118 6.3193 1.8885 3.6318 1.8885 8.6436 0 4.7213-2.0338 8.9341-2.0338 4.1402-5.6655 7.3362-3.5591 3.1959-8.4257 5.0845-4.7939 1.8159-10.314 1.8159-6.7551 0-12.784-3.0507-5.9561-3.1233-9.8058-8.7888z"/>
  <path d="m652.35 663.7q0.36318 0.72635 0.65372 1.598 0.29054 0.79899 0.29054 1.8885v5.6655q1.7432-2.6875 5.0118-4.6486t6.9003-3.1959q3.6318-1.3074 6.973-1.8885 3.4138-0.58108 5.375-0.58108 8.0625 0 14.963 3.1233 6.973 3.0507 11.985 8.4257 5.0845 5.3024 7.9172 12.493 2.9054 7.1182 2.9054 15.253 0 8.1351-2.9054 15.326-2.8328 7.1182-7.9172 12.493-5.0118 5.3024-11.985 8.4257-6.9003 3.0507-14.963 3.0507-2.397 0-5.3024-0.43581t-6.0287-1.7432q-3.1233-1.3801-6.3919-3.9223t-6.5372-6.6824v38.279h-9.2973v-102.92zm25.204 68.132q6.3192 0 11.549-2.3243 5.2297-2.3243 9.0068-6.3919 3.777-4.0676 5.8108-9.5152 2.1064-5.4476 2.1064-11.767 0-6.3192-2.1064-11.767-2.0338-5.4476-5.8108-9.5152t-9.0068-6.3919q-5.2297-2.3243-11.549-2.3243-6.6098 0-12.929 2.6875t-11.331 7.6993v35.373q1.9612 3.4865 4.7939 6.174 2.8328 2.6149 6.0287 4.4308t6.6824 2.7601q3.4865 0.87162 6.7551 0.87162z"/>
  <path d="m804 701.83q0-5.375 1.3801-10.387 1.4527-5.0845 3.9949-9.4426 2.6149-4.3581 6.174-7.9172 3.6318-3.6318 7.9899-6.174t9.3699-3.9223q5.0118-1.4527 10.387-1.4527 8.1351 0 15.253 3.1233 7.1909 3.0507 12.493 8.4257 5.375 5.3024 8.4257 12.493 3.1233 7.1182 3.1233 15.253 0 8.1351-3.1233 15.326-3.0507 7.1182-8.4257 12.493-5.3024 5.3024-12.493 8.4257-7.1182 3.0507-15.253 3.0507-5.375 0-10.387-1.3801-5.0118-1.4527-9.3699-3.9949t-7.9899-6.1014q-3.5591-3.6318-6.174-7.9899-2.5422-4.3581-3.9949-9.3699-1.3801-5.0845-1.3801-10.459zm9.2973 0q0 6.3193 2.3243 11.767 2.3243 5.4476 6.3919 9.5152t9.5152 6.3919q5.5203 2.3243 11.767 2.3243 6.3192 0 11.767-2.3243 5.4476-2.3243 9.5152-6.3919t6.3919-9.5152 2.3243-11.767q0-6.3192-2.3243-11.767-2.3243-5.4476-6.3919-9.5152t-9.5152-6.3919-11.767-2.3243q-6.2466 0-11.767 2.3243-5.4476 2.3243-9.5152 6.3919t-6.3919 9.5152-2.3243 11.767z"/>
  <path d="m983.35 663.7q0.36318 0.72635 0.65372 1.598 0.29054 0.79899 0.29054 1.8885v8.571q1.3801-2.8328 4.2128-5.2297 2.8328-2.4696 6.4645-4.2128 3.6318-1.8159 7.8446-2.7601 4.2128-1.0169 8.4256-1.0169 4.4308 0 8.4983 1.2348l-0.7263 3.9949q-0.2905 1.598-0.9443 2.4696-0.6537 0.87162-1.5979 1.3074-0.8717 0.36318-2.0338 0.43581-1.0895 0.0726-2.2517 0.0726h-1.0895q-5.3024 0-10.096 1.7432-4.7213 1.7432-8.4257 4.5034-3.6318 2.7601-5.8834 6.2466-2.179 3.4138-2.397 6.8277v48.593h-9.2973v-76.267z"/>
  <path d="m1125.1 722.24q0 1.7432 0.581 3.6318 0.6538 1.8159 1.8159 3.3412 1.1622 1.5253 2.8328 2.4696 1.7432 0.94426 3.9949 0.94426l2.2517-0.29054q3.1233-0.87162 5.1571-0.87162 2.2517 0 3.9949 1.3074 1.8159 1.3074 3.196 3.196l0.2179 0.29054q-1.5253 1.0169-3.4865 1.8885-1.9611 0.87162-4.0676 1.5253-2.0337 0.65371-4.0675 1.0169-1.9612 0.43581-3.5592 0.43581-4.2128 0-7.554-1.3801t-5.7382-3.8497q-2.3243-2.5422-3.6317-6.0287-1.2348-3.4865-1.2348-7.6267v-49.973h-13.801v-5.375q0-3.3412 8.9341-3.3412h4.8666v-17.215q0-3.2686 0.799-5.4476 0.8716-2.179 1.5253-3.2686h6.973v26.003h22.88v8.6436h-22.88z"/>
 </g>
</svg>
