<svg width="800.08" height="473.21" version="1.1" viewBox="0 0 211.69 125.2" xmlns="http://www.w3.org/2000/svg">
 <path d="m0 125.2 6.1031-16.368h3.7138l-6.1031 16.368z" fill="#e02e3d" stroke-width="1.3515"/>
 <g transform="translate(-224.12 495.62)" fill="#211e1e" stroke-width=".51961">
  <path d="m254-371.12q-1.1639 0-2.0368-0.43647-0.87294-0.45725-1.3302-0.93529-0.43647-0.47803-1.06-1.2678l0.95608-0.70667q1.5588 2.3278 3.471 2.3278 2.5772 0 2.5772-3.1176v-10.621h1.247v10.725q0 1.9953-1.0392 3.0137-1.0184 1.0184-2.7851 1.0184z" style="white-space:pre"/>
  <path d="m269.59-375.57h-6.9835l-1.6212 4.24h-1.2471l5.4455-13.925q0.12471-0.33254 0.29098-0.47803t0.45725-0.14549h0.37412q0.29098 0 0.45725 0.16627 0.16628 0.14549 0.29098 0.47804l5.4662 13.905h-1.2886zm-0.37412-0.97686-3.1176-8.1266-3.1176 8.1266zm-4.7596-11.12q-0.3949 0-0.66509-0.27019-0.2702-0.2702-0.2702-0.6651 0-0.37411 0.2702-0.64431 0.27019-0.27019 0.66509-0.27019 0.37412 0 0.64431 0.27019 0.2702 0.2702 0.2702 0.64431 0 0.3949-0.2702 0.6651-0.27019 0.27019-0.64431 0.27019zm3.3463 0q-0.3949 0-0.66509-0.27019-0.2702-0.2702-0.2702-0.6651 0-0.37411 0.2702-0.64431 0.27019-0.27019 0.66509-0.27019 0.37412 0 0.64431 0.27019 0.2702 0.2702 0.2702 0.64431 0 0.3949-0.2702 0.6651-0.27019 0.27019-0.64431 0.27019z" style="white-space:pre"/>
  <path d="m288.28-385.87v14.549h-1.1847v-13.323l-4.531 10.912q-0.14549 0.35333-0.33255 0.51961-0.16627 0.14549-0.5196 0.14549h-0.24942q-0.35333 0-0.5196-0.14549-0.14549-0.14549-0.31176-0.51961l-4.5518-10.953v13.364h-1.1639v-14.549h1.8082l4.8843 11.639 4.822-11.639z" style="white-space:pre"/>
  <path d="m301.37-384.9h-4.718v13.572h-1.247v-13.572h-4.7596v-0.97686h10.725z" style="white-space:pre"/>
  <path d="m312.53-372.3v0.97686h-8.7917v-14.549h1.2471v13.572z" style="white-space:pre"/>
  <path d="m323.71-375.57h-6.9835l-1.6212 4.24h-1.247l5.4455-13.925q0.1247-0.33254 0.29098-0.47803 0.16627-0.14549 0.45725-0.14549h0.37412q0.29097 0 0.45725 0.16627 0.16627 0.14549 0.29098 0.47804l5.4662 13.905h-1.2886zm-0.37411-0.97686-3.1176-8.1266-3.1176 8.1266z" style="white-space:pre"/>
  <path d="m340.36-385.87v13.946q0 0.33255-0.1247 0.47804-0.12471 0.1247-0.3949 0.1247h-0.22863q-0.33255 0-0.5196-0.10392-0.16628-0.10392-0.43647-0.49882l-8.4592-12.18v12.782h-1.1639v-14.549h1.2886l8.8749 12.803v-12.803z" style="white-space:pre"/>
  <path d="m349.59-385.87q1.8498 0 3.2008 0.7898 1.351 0.76901 2.0369 2.12 0.70666 1.351 0.70666 3.0137v2.702q0 1.6627-0.70666 3.0137-0.68588 1.351-2.0369 2.1408-1.351 0.76902-3.2008 0.76902h-5.3208v-14.549zm4.6972 5.9235q0-1.3094-0.49883-2.4318-0.49882-1.1224-1.6212-1.8082-1.1016-0.70666-2.8266-0.70666h-3.8243v12.595h3.8243q1.7251 0 2.8266-0.68588 1.1224-0.70666 1.6212-1.829 0.49883-1.1224 0.49883-2.4318z" style="white-space:pre"/>
 </g>
 <g transform="matrix(1.2003 0 0 1.2003 1e-5 1270.3)" fill="#211e1e" stroke-width="1.287">
  <path d="m88.932-1041-15.794 42.29-15.758-42.29h-13.816l22.683 60.796h13.816l22.647-60.796z"/>
  <path d="m10.078-998.16-10.078 7.2926c3.9211 5.8268 11.763 11.91 22.317 11.91 11.837 0 21.108-7.2559 21.108-18.579 0-7.3659-4.2875-13.009-13.156-17.077-1.21-0.5504-6.2299-2.785-7.1828-3.1881-4.6907-1.9785-6.9261-4.1778-6.9261-6.816 0-2.7487 2.1247-5.4238 6.5229-5.4238 3.0417 0 5.8635 1.4652 8.5386 4.4343l9.6011-6.9628c-3.8478-5.8634-10.92-9.5279-18.543-9.5279-10.078 0-18.909 6.5229-18.909 17.407 0 7.5856 4.2875 13.485 13.118 17.26 2.5662 1.0983 4.3977 1.8695 6.4131 2.7487 2.9315 1.21 7.6223 3.1882 7.6223 7.3292 0 4.1775-4.1044 6.3398-8.5751 6.3398-3.9942 0-8.2453-2.5662-11.873-7.146"/>
  <path d="m128.4-991.27c-2.9683 0-5.4236-1.795-6.7429-4.3242-0.98926-1.9067-1.0265-4.9471-1.0265-7.5125v-25.248h14.035l4.7272-12.606h-18.762v-17.371h-12.863v57.168c0 2.638 0.15956 5.0938 1.1355 8.2821 2.8218 8.0986 10.407 13.925 19.496 13.925 5.2036 0 10.517-2.0157 14.402-5.6435l-8.0255-9.2346c-1.7232 1.5024-4.0677 2.5662-6.3765 2.5662"/>
  <path d="m156.36-1041-4.6907 12.57h12.13v48.225h12.569v-60.796z"/>
 </g>
</svg>
