<svg width="800.08" height="473.21" version="1.1" viewBox="0 0 211.69 125.2" xmlns="http://www.w3.org/2000/svg">
 <path d="m0 125.2 6.1031-16.368h3.7138l-6.1031 16.368z" fill="#e02e3d" stroke-width="1.3515"/>
 <g transform="translate(-1024.5 495.62)" fill="#fff" stroke-width=".51961">
  <path d="m1055.9-371.12q-1.7459 0-3.1385-0.70666-1.3717-0.70666-2.7227-2.12l0.8729-0.85216q1.164 1.2678 2.3071 1.9745 1.1431 0.68588 2.6812 0.68588 1.6003 0 2.5356-0.83137 0.9561-0.85216 0.9561-2.1616 0-1.0808-0.6859-1.7667-0.6858-0.68588-2.307-1.1431l-1.7667-0.49882q-2.12-0.58196-3.0345-1.4757t-0.9145-2.2863q0-1.1847 0.6028-2.0369 0.6027-0.85215 1.6003-1.2886 1.0185-0.45726 2.2032-0.45726 1.6419 0 2.8266 0.56118 1.2055 0.54039 2.3902 1.6627l-0.8314 0.83137q-0.8937-0.97686-2.016-1.4965-1.1016-0.54039-2.3694-0.54039-1.4134 0-2.3071 0.74823-0.8937 0.72745-0.8937 1.9745 0 1.0808 0.7275 1.6835 0.7482 0.58196 2.5564 1.1016l1.6628 0.47804q1.9121 0.54039 2.8266 1.5172 0.9353 0.95608 0.9353 2.411 0 1.2263-0.6443 2.1408-0.6235 0.9145-1.7043 1.4133-1.06 0.47803-2.3486 0.47803z" style="white-space:pre"/>
  <path d="m1072.8-384.9h-4.718v13.572h-1.2471v-13.572h-4.7595v-0.97686h10.725z" style="white-space:pre"/>
  <path d="m1080.2-371.12q-1.8913 0-3.2215-0.81058-1.3302-0.83137-2.0161-2.2239-0.6651-1.3925-0.6651-3.0553v-2.7851q0-1.6627 0.6651-3.0553 0.6859-1.3925 2.0161-2.2031 1.3302-0.83137 3.2215-0.83137 1.8914 0 3.2216 0.83137 1.351 0.81059 2.0161 2.2031 0.6858 1.3926 0.6858 3.0553v2.7851q0 1.6627-0.6858 3.0553-0.6651 1.3926-2.0161 2.2239-1.3302 0.81058-3.2216 0.81058zm0-1.0184q1.4549 0 2.4941-0.62353 1.06-0.64431 1.6212-1.7667 0.5612-1.1431 0.5612-2.598v-2.9514q0-1.4549-0.5612-2.5772-0.5612-1.1431-1.6212-1.7667-1.0392-0.64431-2.4941-0.64431t-2.5149 0.64431q-1.0392 0.62353-1.6003 1.7667-0.5404 1.1224-0.5404 2.5772v2.9514q0 1.4549 0.5404 2.598 0.5611 1.1224 1.6003 1.7667 1.06 0.62353 2.5149 0.62353z" style="white-space:pre"/>
  <path d="m1095-371.12q-1.9122 0-3.2424-0.81058-1.3301-0.83137-1.9952-2.2239-0.6651-1.3925-0.6651-3.0553v-2.7851q0-1.6627 0.6651-3.0553 0.6651-1.3925 1.9952-2.2031 1.3302-0.83137 3.2424-0.83137 1.5796 0 2.6604 0.56118 1.1015 0.56117 1.7043 1.3302 0.6235 0.74823 1.2678 1.8498l-1.06 0.58196q-0.478-0.91451-0.9976-1.6004t-1.4134-1.1847q-0.8729-0.51961-2.1199-0.51961-1.6004 0-2.6604 0.68588-1.0392 0.6651-1.5381 1.8082-0.4988 1.1224-0.4988 2.4941v2.9514q0 1.351 0.4988 2.4941 0.4989 1.1224 1.5589 1.8082t2.6396 0.68588q1.247 0 2.1199-0.47804 0.8938-0.49882 1.3926-1.1224 0.5196-0.64431 1.0808-1.6004l1.0392 0.62353q-0.7067 1.1016-1.3094 1.8082-0.582 0.68588-1.6835 1.247-1.0808 0.54039-2.6812 0.54039z" style="white-space:pre"/>
  <path d="m1107.4-378.6-2.2655 2.5357v4.7388h-1.247v-14.549h1.247v8.2513l7.2537-8.2513h1.4965l-5.6949 6.3808 5.9859 8.1682h-1.4549z" style="white-space:pre"/>
  <path d="m1127.5-385.87v14.549h-1.2471v-6.9004h-8.1474v6.9004h-1.247v-14.549h1.247v6.6717h8.1474v-6.6717z" style="white-space:pre"/>
  <path d="m1136.8-371.12q-1.8914 0-3.2215-0.81058-1.3302-0.83137-2.0161-2.2239-0.6651-1.3925-0.6651-3.0553v-2.7851q0-1.6627 0.6651-3.0553 0.6859-1.3925 2.0161-2.2031 1.3301-0.83137 3.2215-0.83137t3.2216 0.83137q1.3509 0.81059 2.016 2.2031 0.6859 1.3926 0.6859 3.0553v2.7851q0 1.6627-0.6859 3.0553-0.6651 1.3926-2.016 2.2239-1.3302 0.81058-3.2216 0.81058zm0-1.0184q1.4549 0 2.4941-0.62353 1.06-0.64431 1.6212-1.7667 0.5612-1.1431 0.5612-2.598v-2.9514q0-1.4549-0.5612-2.5772-0.5612-1.1431-1.6212-1.7667-1.0392-0.64431-2.4941-0.64431t-2.5149 0.64431q-1.0392 0.62353-1.6004 1.7667-0.5404 1.1224-0.5404 2.5772v2.9514q0 1.4549 0.5404 2.598 0.5612 1.1224 1.6004 1.7667 1.06 0.62353 2.5149 0.62353z" style="white-space:pre"/>
  <path d="m1154.9-372.3v0.97686h-8.7917v-14.549h1.247v13.572z" style="white-space:pre"/>
  <path d="m1171.1-385.87v14.549h-1.1847v-13.323l-4.531 10.912q-0.1455 0.35333-0.3326 0.51961-0.1662 0.14549-0.5196 0.14549h-0.2494q-0.3533 0-0.5196-0.14549-0.1455-0.14549-0.3117-0.51961l-4.5518-10.953v13.364h-1.1639v-14.549h1.8082l4.8843 11.639 4.822-11.639z" style="white-space:pre"/>
 </g>
 <g transform="matrix(1.2003 0 0 1.2003 1e-5 1270.3)" fill="#fff" stroke-width="1.287">
  <path d="m88.932-1041-15.794 42.29-15.758-42.29h-13.816l22.683 60.796h13.816l22.647-60.796z"/>
  <path d="m10.078-998.16-10.078 7.2926c3.9211 5.8268 11.763 11.91 22.317 11.91 11.837 0 21.108-7.2559 21.108-18.579 0-7.3659-4.2875-13.009-13.156-17.077-1.21-0.5504-6.2299-2.785-7.1828-3.1881-4.6907-1.9785-6.9261-4.1778-6.9261-6.816 0-2.7487 2.1247-5.4238 6.5229-5.4238 3.0417 0 5.8635 1.4652 8.5386 4.4343l9.6011-6.9628c-3.8478-5.8634-10.92-9.5279-18.543-9.5279-10.078 0-18.909 6.5229-18.909 17.407 0 7.5856 4.2875 13.485 13.118 17.26 2.5662 1.0983 4.3977 1.8695 6.4131 2.7487 2.9315 1.21 7.6223 3.1882 7.6223 7.3292 0 4.1775-4.1044 6.3398-8.5751 6.3398-3.9942 0-8.2453-2.5662-11.873-7.146"/>
  <path d="m128.4-991.27c-2.9683 0-5.4236-1.795-6.7429-4.3242-0.98926-1.9067-1.0265-4.9471-1.0265-7.5125v-25.248h14.035l4.7272-12.606h-18.762v-17.371h-12.863v57.168c0 2.638 0.15956 5.0938 1.1355 8.2821 2.8218 8.0986 10.407 13.925 19.496 13.925 5.2036 0 10.517-2.0157 14.402-5.6435l-8.0255-9.2346c-1.7232 1.5024-4.0677 2.5662-6.3765 2.5662"/>
  <path d="m156.36-1041-4.6907 12.57h12.13v48.225h12.569v-60.796z"/>
 </g>
</svg>
