<svg width="800.08" height="473.21" version="1.1" viewBox="0 0 211.69 125.2" xmlns="http://www.w3.org/2000/svg">
 <path d="m0 125.2 6.1031-16.368h3.7138l-6.1031 16.368z" fill="#e02e3d" stroke-width="1.3515"/>
 <g transform="translate(-336.75 495.62)" fill="#211e1e" stroke-width=".51961">
  <path d="m366.63-371.12q-1.1639 0-2.0369-0.43647-0.87293-0.45725-1.3302-0.93529-0.43647-0.47803-1.06-1.2678l0.95607-0.70667q1.5588 2.3278 3.471 2.3278 2.5772 0 2.5772-3.1176v-10.621h1.2471v10.725q0 1.9953-1.0392 3.0137-1.0184 1.0184-2.7851 1.0184z" style="white-space:pre"/>
  <path d="m379.75-371.12q-1.8914 0-3.2216-0.81058-1.3302-0.83137-2.0161-2.2239-0.66509-1.3925-0.66509-3.0553v-2.7851q0-1.6627 0.66509-3.0553 0.68588-1.3925 2.0161-2.2031 1.3302-0.83137 3.2216-0.83137t3.2216 0.83137q1.351 0.81059 2.0161 2.2031 0.68588 1.3926 0.68588 3.0553v2.7851q0 1.6627-0.68588 3.0553-0.66509 1.3926-2.0161 2.2239-1.3302 0.81058-3.2216 0.81058zm0-1.0184q1.4549 0 2.4941-0.62353 1.06-0.64431 1.6212-1.7667 0.56117-1.1431 0.56117-2.598v-2.9514q0-1.4549-0.56117-2.5772-0.56118-1.1431-1.6212-1.7667-1.0392-0.64431-2.4941-0.64431t-2.5149 0.64431q-1.0392 0.62353-1.6004 1.7667-0.54039 1.1224-0.54039 2.5772v2.9514q0 1.4549 0.54039 2.598 0.56117 1.1224 1.6004 1.7667 1.06 0.62353 2.5149 0.62353zm-1.6835-15.526q-0.39491 0-0.6651-0.27019-0.2702-0.2702-0.2702-0.6651 0-0.37411 0.2702-0.64431 0.27019-0.27019 0.6651-0.27019 0.37411 0 0.64431 0.27019 0.27019 0.2702 0.27019 0.64431 0 0.3949-0.27019 0.6651-0.2702 0.27019-0.64431 0.27019zm3.3463 0q-0.3949 0-0.6651-0.27019-0.27019-0.2702-0.27019-0.6651 0-0.37411 0.27019-0.64431 0.2702-0.27019 0.6651-0.27019 0.37411 0 0.64431 0.27019 0.27019 0.2702 0.27019 0.64431 0 0.3949-0.27019 0.6651-0.2702 0.27019-0.64431 0.27019z" style="white-space:pre"/>
  <path d="m400.41-385.87v13.946q0 0.33255-0.1247 0.47804-0.12471 0.1247-0.39491 0.1247h-0.22862q-0.33255 0-0.51961-0.10392-0.16627-0.10392-0.43647-0.49882l-8.4592-12.18v12.782h-1.1639v-14.549h1.2886l8.8749 12.803v-12.803z" style="white-space:pre"/>
  <path d="m407.83-378.6-2.2655 2.5357v4.7388h-1.2471v-14.549h1.2471v8.2513l7.2537-8.2513h1.4965l-5.6949 6.3808 5.9859 8.1682h-1.4549z" style="white-space:pre"/>
  <path d="m421.86-371.12q-1.8914 0-3.2216-0.81058-1.3302-0.83137-2.0161-2.2239-0.6651-1.3925-0.6651-3.0553v-2.7851q0-1.6627 0.6651-3.0553 0.68588-1.3925 2.0161-2.2031 1.3302-0.83137 3.2216-0.83137t3.2216 0.83137q1.351 0.81059 2.0161 2.2031 0.68588 1.3926 0.68588 3.0553v2.7851q0 1.6627-0.68588 3.0553-0.66509 1.3926-2.0161 2.2239-1.3302 0.81058-3.2216 0.81058zm0-1.0184q1.4549 0 2.4941-0.62353 1.06-0.64431 1.6212-1.7667 0.56118-1.1431 0.56118-2.598v-2.9514q0-1.4549-0.56118-2.5772-0.56117-1.1431-1.6212-1.7667-1.0392-0.64431-2.4941-0.64431t-2.5149 0.64431q-1.0392 0.62353-1.6004 1.7667-0.54039 1.1224-0.54039 2.5772v2.9514q0 1.4549 0.54039 2.598 0.56117 1.1224 1.6004 1.7667 1.06 0.62353 2.5149 0.62353zm-1.6835-15.526q-0.3949 0-0.66509-0.27019-0.2702-0.2702-0.2702-0.6651 0-0.37411 0.2702-0.64431 0.27019-0.27019 0.66509-0.27019 0.37412 0 0.64431 0.27019 0.2702 0.2702 0.2702 0.64431 0 0.3949-0.2702 0.6651-0.27019 0.27019-0.64431 0.27019zm3.3463 0q-0.3949 0-0.66509-0.27019-0.2702-0.2702-0.2702-0.6651 0-0.37411 0.2702-0.64431 0.27019-0.27019 0.66509-0.27019 0.37412 0 0.64431 0.27019 0.2702 0.2702 0.2702 0.64431 0 0.3949-0.2702 0.6651-0.27019 0.27019-0.64431 0.27019z" style="white-space:pre"/>
  <path d="m437.15-385.87q1.1639 0 2.1616 0.56117 1.0184 0.56118 1.6212 1.6212 0.60275 1.0392 0.60275 2.4318 0 1.3925-0.60275 2.4525-0.60274 1.0392-1.6212 1.6004-0.99764 0.56118-2.1616 0.56118h-4.718v5.3208h-1.247v-14.549zm-0.29098 8.2513q1.4965 0 2.4525-0.93529 0.97686-0.95608 0.97686-2.702 0-1.7459-0.97686-2.6812-0.95607-0.95607-2.4525-0.95607h-4.427v7.2745z" style="white-space:pre"/>
  <path d="m444.64-385.87h1.247v14.549h-1.247z" style="white-space:pre"/>
  <path d="m461.16-385.87v13.946q0 0.33255-0.1247 0.47804-0.12471 0.1247-0.3949 0.1247h-0.22863q-0.33255 0-0.51961-0.10392-0.16627-0.10392-0.43647-0.49882l-8.4592-12.18v12.782h-1.1639v-14.549h1.2886l8.8749 12.803v-12.803z" style="white-space:pre"/>
  <path d="m476.17-376.63q0 1.4549-0.58196 2.702-0.56117 1.2471-1.829 2.0369-1.2678 0.76901-3.2631 0.76901-1.9122 0-3.2423-0.81058-1.3302-0.83137-1.9953-2.2239-0.66509-1.3925-0.66509-3.0553v-2.7851q0-1.6627 0.66509-3.0553 0.6651-1.3925 1.9745-2.2031 1.3302-0.83137 3.2423-0.83137 1.9953 0 3.2839 0.85216 1.3094 0.85215 2.2655 2.2863l-0.97686 0.68588q-0.76901-1.2055-1.8082-1.9953-1.0392-0.81059-2.7435-0.81059-2.2031 0-3.4294 1.3718t-1.2263 3.6165v2.9514q0 2.2447 1.2263 3.6165t3.4294 1.3718q2.3902 0 3.4086-1.2471 1.0184-1.2678 1.0184-3.0345v-1.06h-4.1776v-0.97686h5.4247z" style="white-space:pre"/>
 </g>
 <g transform="matrix(1.2003 0 0 1.2003 1e-5 1270.3)" fill="#211e1e" stroke-width="1.287">
  <path d="m88.932-1041-15.794 42.29-15.758-42.29h-13.816l22.683 60.796h13.816l22.647-60.796z"/>
  <path d="m10.078-998.16-10.078 7.2926c3.9211 5.8268 11.763 11.91 22.317 11.91 11.837 0 21.108-7.2559 21.108-18.579 0-7.3659-4.2875-13.009-13.156-17.077-1.21-0.5504-6.2299-2.785-7.1828-3.1881-4.6907-1.9785-6.9261-4.1778-6.9261-6.816 0-2.7487 2.1247-5.4238 6.5229-5.4238 3.0417 0 5.8635 1.4652 8.5386 4.4343l9.6011-6.9628c-3.8478-5.8634-10.92-9.5279-18.543-9.5279-10.078 0-18.909 6.5229-18.909 17.407 0 7.5856 4.2875 13.485 13.118 17.26 2.5662 1.0983 4.3977 1.8695 6.4131 2.7487 2.9315 1.21 7.6223 3.1882 7.6223 7.3292 0 4.1775-4.1044 6.3398-8.5751 6.3398-3.9942 0-8.2453-2.5662-11.873-7.146"/>
  <path d="m128.4-991.27c-2.9683 0-5.4236-1.795-6.7429-4.3242-0.98926-1.9067-1.0265-4.9471-1.0265-7.5125v-25.248h14.035l4.7272-12.606h-18.762v-17.371h-12.863v57.168c0 2.638 0.15956 5.0938 1.1355 8.2821 2.8218 8.0986 10.407 13.925 19.496 13.925 5.2036 0 10.517-2.0157 14.402-5.6435l-8.0255-9.2346c-1.7232 1.5024-4.0677 2.5662-6.3765 2.5662"/>
  <path d="m156.36-1041-4.6907 12.57h12.13v48.225h12.569v-60.796z"/>
 </g>
</svg>
