<svg width="800.08" height="473.21" version="1.1" viewBox="0 0 211.69 125.2" xmlns="http://www.w3.org/2000/svg">
 <path d="m0 125.2 6.1031-16.368h3.7138l-6.1031 16.368z" fill="#e02e3d" stroke-width="1.3515"/>
 <g transform="translate(-458.81 495.62)" fill="#211e1e" stroke-width=".51961">
  <path d="m495.6-385.87v13.946q0 0.33255-0.12471 0.47804-0.1247 0.1247-0.3949 0.1247h-0.22862q-0.33255 0-0.51961-0.10392-0.16627-0.10392-0.43647-0.49882l-8.4592-12.18v12.782h-1.1639v-14.549h1.2886l8.8749 12.803v-12.803z" style="white-space:pre"/>
  <path d="m504.93-371.12q-1.8914 0-3.2216-0.81058-1.3302-0.83137-2.0161-2.2239-0.66509-1.3925-0.66509-3.0553v-2.7851q0-1.6627 0.66509-3.0553 0.68588-1.3925 2.0161-2.2031 1.3302-0.83137 3.2216-0.83137t3.2216 0.83137q1.351 0.81059 2.0161 2.2031 0.68588 1.3926 0.68588 3.0553v2.7851q0 1.6627-0.68588 3.0553-0.6651 1.3926-2.0161 2.2239-1.3302 0.81058-3.2216 0.81058zm0-1.0184q1.4549 0 2.4941-0.62353 1.06-0.64431 1.6212-1.7667 0.56117-1.1431 0.56117-2.598v-2.9514q0-1.4549-0.56117-2.5772-0.56118-1.1431-1.6212-1.7667-1.0392-0.64431-2.4941-0.64431t-2.5149 0.64431q-1.0392 0.62353-1.6004 1.7667-0.54039 1.1224-0.54039 2.5772v2.9514q0 1.4549 0.54039 2.598 0.56118 1.1224 1.6004 1.7667 1.06 0.62353 2.5149 0.62353z" style="white-space:pre"/>
  <path d="m524.61-381.34q0 1.6212-0.95607 2.8267-0.93529 1.2055-2.3902 1.5796l3.3047 5.6117h-1.4133l-3.2008-5.487h-4.4478v5.487h-1.247v-14.549h5.9443q1.1847 0 2.1823 0.60274 1.0184 0.58196 1.6212 1.6212t0.60274 2.307zm-9.1035 3.5541h4.3855q0.95608 0 1.7459-0.43646 0.7898-0.43647 1.247-1.2263 0.47804-0.81059 0.47804-1.8914t-0.47804-1.8706q-0.45725-0.81059-1.247-1.247-0.7898-0.43647-1.7459-0.43647h-4.3855z" style="white-space:pre"/>
  <path d="m538.25-381.34q0 1.6212-0.95608 2.8267-0.93529 1.2055-2.3902 1.5796l3.3047 5.6117h-1.4133l-3.2008-5.487h-4.4478v5.487h-1.247v-14.549h5.9443q1.1847 0 2.1824 0.60274 1.0184 0.58196 1.6212 1.6212 0.60275 1.0392 0.60275 2.307zm-9.1035 3.5541h4.3855q0.95608 0 1.7459-0.43646 0.7898-0.43647 1.247-1.2263 0.47804-0.81059 0.47804-1.8914t-0.47804-1.8706q-0.45725-0.81059-1.247-1.247-0.78982-0.43647-1.7459-0.43647h-4.3855z" style="white-space:pre"/>
  <path d="m548.64-378.85q1.3925 0.24941 2.2031 1.2263 0.81058 0.95607 0.81058 2.307 0 1.9329-1.2678 2.9721-1.2678 1.0184-3.4918 1.0184h-5.3623v-14.549h4.6765q2.2655 0 3.4918 0.97686 1.247 0.97686 1.247 2.7851 0 1.2471-0.68588 2.0992-0.66509 0.85215-1.6212 1.1639zm-5.8612-0.35333h3.6372q1.5796 0 2.4318-0.7898 0.87294-0.78981 0.87294-2.12 0-1.3094-0.85215-2.0368-0.83137-0.74823-2.4318-0.74823h-3.658zm4.3231 6.9004q1.5796 0 2.4318-0.83137 0.87294-0.83137 0.87294-2.1823 0-1.3094-0.87294-2.12-0.87293-0.83137-2.4525-0.83137h-4.3023v5.9651z" style="white-space:pre"/>
  <path d="m560.3-371.12q-1.8914 0-3.2216-0.81058-1.3302-0.83137-2.0161-2.2239-0.6651-1.3925-0.6651-3.0553v-2.7851q0-1.6627 0.6651-3.0553 0.68588-1.3925 2.0161-2.2031 1.3302-0.83137 3.2216-0.83137t3.2216 0.83137q1.351 0.81059 2.0161 2.2031 0.68588 1.3926 0.68588 3.0553v2.7851q0 1.6627-0.68588 3.0553-0.66509 1.3926-2.0161 2.2239-1.3302 0.81058-3.2216 0.81058zm0-1.0184q1.4549 0 2.4941-0.62353 1.06-0.64431 1.6212-1.7667 0.56118-1.1431 0.56118-2.598v-2.9514q0-1.4549-0.56118-2.5772-0.56117-1.1431-1.6212-1.7667-1.0392-0.64431-2.4941-0.64431t-2.5149 0.64431q-1.0392 0.62353-1.6004 1.7667-0.54039 1.1224-0.54039 2.5772v2.9514q0 1.4549 0.54039 2.598 0.56117 1.1224 1.6004 1.7667 1.06 0.62353 2.5149 0.62353z" style="white-space:pre"/>
  <path d="m578.47-384.9h-4.718v13.572h-1.247v-13.572h-4.7596v-0.97686h10.725z" style="white-space:pre"/>
  <path d="m590.44-384.9h-4.718v13.572h-1.2471v-13.572h-4.7596v-0.97686h10.725z" style="white-space:pre"/>
  <path d="m594.05-384.9v5.591h7.0874v0.97685h-7.0874v6.0274h8.1058v0.97686h-9.3529v-14.549h9.3529v0.97686z" style="white-space:pre"/>
  <path d="m616.71-385.87v13.946q0 0.33255-0.1247 0.47804-0.12471 0.1247-0.3949 0.1247h-0.22863q-0.33255 0-0.51961-0.10392-0.16627-0.10392-0.43647-0.49882l-8.4592-12.18v12.782h-1.1639v-14.549h1.2886l8.8749 12.803v-12.803z" style="white-space:pre"/>
 </g>
 <g transform="matrix(1.2003 0 0 1.2003 1e-5 1270.3)" fill="#211e1e" stroke-width="1.287">
  <path d="m88.932-1041-15.794 42.29-15.758-42.29h-13.816l22.683 60.796h13.816l22.647-60.796z"/>
  <path d="m10.078-998.16-10.078 7.2926c3.9211 5.8268 11.763 11.91 22.317 11.91 11.837 0 21.108-7.2559 21.108-18.579 0-7.3659-4.2875-13.009-13.156-17.077-1.21-0.5504-6.2299-2.785-7.1828-3.1881-4.6907-1.9785-6.9261-4.1778-6.9261-6.816 0-2.7487 2.1247-5.4238 6.5229-5.4238 3.0417 0 5.8635 1.4652 8.5386 4.4343l9.6011-6.9628c-3.8478-5.8634-10.92-9.5279-18.543-9.5279-10.078 0-18.909 6.5229-18.909 17.407 0 7.5856 4.2875 13.485 13.118 17.26 2.5662 1.0983 4.3977 1.8695 6.4131 2.7487 2.9315 1.21 7.6223 3.1882 7.6223 7.3292 0 4.1775-4.1044 6.3398-8.5751 6.3398-3.9942 0-8.2453-2.5662-11.873-7.146"/>
  <path d="m128.4-991.27c-2.9683 0-5.4236-1.795-6.7429-4.3242-0.98926-1.9067-1.0265-4.9471-1.0265-7.5125v-25.248h14.035l4.7272-12.606h-18.762v-17.371h-12.863v57.168c0 2.638 0.15956 5.0938 1.1355 8.2821 2.8218 8.0986 10.407 13.925 19.496 13.925 5.2036 0 10.517-2.0157 14.402-5.6435l-8.0255-9.2346c-1.7232 1.5024-4.0677 2.5662-6.3765 2.5662"/>
  <path d="m156.36-1041-4.6907 12.57h12.13v48.225h12.569v-60.796z"/>
 </g>
</svg>
