<svg width="800.08" height="473.21" version="1.1" viewBox="0 0 211.69 125.2" xmlns="http://www.w3.org/2000/svg">
 <path d="m0 125.2 6.1031-16.368h3.7138l-6.1031 16.368z" fill="#e02e3d" stroke-width="1.3515"/>
 <g transform="translate(-802.21 495.62)" fill="#fff" stroke-width=".51961">
  <path d="m833.53-371.12q-1.7459 0-3.1384-0.70666-1.3718-0.70666-2.7227-2.12l0.87294-0.85216q1.1639 1.2678 2.307 1.9745 1.1431 0.68588 2.6812 0.68588 1.6004 0 2.5357-0.83137 0.95608-0.85216 0.95608-2.1616 0-1.0808-0.68588-1.7667t-2.307-1.1431l-1.7667-0.49882q-2.12-0.58196-3.0345-1.4757t-0.91451-2.2863q0-1.1847 0.60275-2.0369 0.60274-0.85215 1.6004-1.2886 1.0184-0.45726 2.2031-0.45726 1.642 0 2.8267 0.56118 1.2055 0.54039 2.3902 1.6627l-0.83136 0.83137q-0.89373-0.97686-2.0161-1.4965-1.1016-0.54039-2.3694-0.54039-1.4133 0-2.307 0.74823-0.89372 0.72745-0.89372 1.9745 0 1.0808 0.72745 1.6835 0.74823 0.58196 2.5565 1.1016l1.6627 0.47804q1.9122 0.54039 2.8266 1.5172 0.93529 0.95608 0.93529 2.411 0 1.2263-0.64431 2.1408-0.62352 0.9145-1.7043 1.4133-1.06 0.47803-2.3486 0.47803z" style="white-space:pre"/>
  <path d="m854.9-385.87v14.549h-1.1847v-13.323l-4.531 10.912q-0.14549 0.35333-0.33255 0.51961-0.16628 0.14549-0.51961 0.14549h-0.24941q-0.35333 0-0.51961-0.14549-0.14548-0.14549-0.31176-0.51961l-4.5518-10.953v13.364h-1.1639v-14.549h1.8082l4.8843 11.639 4.8219-11.639z" style="white-space:pre"/>
  <path d="m867.16-375.57h-7.0043l-1.6212 4.24h-1.247l5.5702-14.3q-0.5196-0.22863-0.83137-0.68588-0.31176-0.45725-0.31176-1.0392 0-0.7898 0.58196-1.3302 0.58196-0.56118 1.3925-0.56118 0.81059 0 1.3925 0.56118 0.58196 0.54039 0.58196 1.3302 0 0.58196-0.33255 1.0392-0.33254 0.45725-0.85215 0.68588l5.591 14.3h-1.2886zm-3.4918-12.949q-0.47804 0-0.81059 0.33255-0.33255 0.33254-0.33255 0.83137 0 0.49882 0.33255 0.83137 0.33255 0.33254 0.81059 0.33254 0.47803 0 0.81058-0.33254 0.35333-0.33255 0.35333-0.83137 0-0.49883-0.35333-0.83137-0.33255-0.33255-0.81058-0.33255zm3.1176 11.972-3.1384-8.2306-3.1384 8.2306z" style="white-space:pre"/>
  <path d="m881.25-372.3v0.97686h-8.7917v-14.549h1.247v13.572z" style="white-space:pre"/>
  <path d="m892.43-375.57h-6.9835l-1.6212 4.24h-1.247l5.4455-13.925q0.1247-0.33254 0.29098-0.47803 0.16627-0.14549 0.45725-0.14549h0.37411q0.29098 0 0.45726 0.16627 0.16627 0.14549 0.29098 0.47804l5.4662 13.905h-1.2886zm-0.37411-0.97686-3.1176-8.1266-3.1176 8.1266z" style="white-space:pre"/>
  <path d="m909.08-385.87v13.946q0 0.33255-0.1247 0.47804-0.12471 0.1247-0.3949 0.1247h-0.22863q-0.33255 0-0.51961-0.10392-0.16627-0.10392-0.43646-0.49882l-8.4592-12.18v12.782h-1.1639v-14.549h1.2886l8.8749 12.803v-12.803z" style="white-space:pre"/>
  <path d="m918.31-385.87q1.8498 0 3.2008 0.7898 1.351 0.76901 2.0368 2.12 0.70666 1.351 0.70666 3.0137v2.702q0 1.6627-0.70666 3.0137-0.68588 1.351-2.0368 2.1408-1.351 0.76902-3.2008 0.76902h-5.3208v-14.549zm4.6972 5.9235q0-1.3094-0.49882-2.4318t-1.6212-1.8082q-1.1016-0.70666-2.8267-0.70666h-3.8243v12.595h3.8243q1.7251 0 2.8267-0.68588 1.1224-0.70666 1.6212-1.829t0.49882-2.4318z" style="white-space:pre"/>
 </g>
 <g transform="matrix(1.2003 0 0 1.2003 1e-5 1270.3)" fill="#fff" stroke-width="1.287">
  <path d="m88.932-1041-15.794 42.29-15.758-42.29h-13.816l22.683 60.796h13.816l22.647-60.796z"/>
  <path d="m10.078-998.16-10.078 7.2926c3.9211 5.8268 11.763 11.91 22.317 11.91 11.837 0 21.108-7.2559 21.108-18.579 0-7.3659-4.2875-13.009-13.156-17.077-1.21-0.5504-6.2299-2.785-7.1828-3.1881-4.6907-1.9785-6.9261-4.1778-6.9261-6.816 0-2.7487 2.1247-5.4238 6.5229-5.4238 3.0417 0 5.8635 1.4652 8.5386 4.4343l9.6011-6.9628c-3.8478-5.8634-10.92-9.5279-18.543-9.5279-10.078 0-18.909 6.5229-18.909 17.407 0 7.5856 4.2875 13.485 13.118 17.26 2.5662 1.0983 4.3977 1.8695 6.4131 2.7487 2.9315 1.21 7.6223 3.1882 7.6223 7.3292 0 4.1775-4.1044 6.3398-8.5751 6.3398-3.9942 0-8.2453-2.5662-11.873-7.146"/>
  <path d="m128.4-991.27c-2.9683 0-5.4236-1.795-6.7429-4.3242-0.98926-1.9067-1.0265-4.9471-1.0265-7.5125v-25.248h14.035l4.7272-12.606h-18.762v-17.371h-12.863v57.168c0 2.638 0.15956 5.0938 1.1355 8.2821 2.8218 8.0986 10.407 13.925 19.496 13.925 5.2036 0 10.517-2.0157 14.402-5.6435l-8.0255-9.2346c-1.7232 1.5024-4.0677 2.5662-6.3765 2.5662"/>
  <path d="m156.36-1041-4.6907 12.57h12.13v48.225h12.569v-60.796z"/>
 </g>
</svg>
