<svg width="884.39" height="473.21" version="1.1" viewBox="0 0 234 125.2" xmlns="http://www.w3.org/2000/svg">
 <path d="m5.9093e-5 125.2 6.1031-16.368h3.7138l-6.1031 16.368z" fill="#e02e3d" stroke-width="1.3515"/>
 <g transform="translate(-1324 495.62)" fill="#211e1e" stroke-width=".51961">
  <path d="m1361.4-385.87-4.8427 13.884q-0.1247 0.35333-0.3118 0.5196-0.1663 0.14549-0.5196 0.14549h-0.5612q-0.3533 0-0.5404-0.14549-0.1662-0.16627-0.291-0.5196l-4.8427-13.884h1.2679l4.6972 13.634 4.6972-13.634z" style="white-space:pre"/>
  <path d="m1371-375.57h-6.9835l-1.6212 4.24h-1.247l5.4454-13.925q0.1247-0.33254 0.291-0.47803t0.4573-0.14549h0.3741q0.291 0 0.4572 0.16627 0.1663 0.14549 0.291 0.47804l5.4663 13.905h-1.2887zm-0.3741-0.97686-3.1177-8.1266-3.1176 8.1266zm-4.7596-11.12q-0.3949 0-0.6651-0.27019-0.2702-0.2702-0.2702-0.6651 0-0.37411 0.2702-0.64431 0.2702-0.27019 0.6651-0.27019 0.3741 0 0.6443 0.27019 0.2702 0.2702 0.2702 0.64431 0 0.3949-0.2702 0.6651-0.2702 0.27019-0.6443 0.27019zm3.3462 0q-0.3949 0-0.6651-0.27019-0.2701-0.2702-0.2701-0.6651 0-0.37411 0.2701-0.64431 0.2702-0.27019 0.6651-0.27019 0.3742 0 0.6444 0.27019 0.2701 0.2702 0.2701 0.64431 0 0.3949-0.2701 0.6651-0.2702 0.27019-0.6444 0.27019z" style="white-space:pre"/>
  <path d="m1381.1-371.12q-1.7458 0-3.1384-0.70666-1.3717-0.70666-2.7227-2.12l0.8729-0.85216q1.1639 1.2678 2.3071 1.9745 1.1431 0.68588 2.6811 0.68588 1.6004 0 2.5357-0.83137 0.9561-0.85216 0.9561-2.1616 0-1.0808-0.6859-1.7667t-2.307-1.1431l-1.7667-0.49882q-2.12-0.58196-3.0345-1.4757t-0.9145-2.2863q0-1.1847 0.6027-2.0369 0.6028-0.85215 1.6004-1.2886 1.0185-0.45726 2.2032-0.45726 1.6419 0 2.8266 0.56118 1.2055 0.54039 2.3902 1.6627l-0.8314 0.83137q-0.8937-0.97686-2.016-1.4965-1.1016-0.54039-2.3694-0.54039-1.4134 0-2.3071 0.74823-0.8937 0.72745-0.8937 1.9745 0 1.0808 0.7274 1.6835 0.7483 0.58196 2.5565 1.1016l1.6627 0.47804q1.9122 0.54039 2.8267 1.5172 0.9353 0.95608 0.9353 2.411 0 1.2263-0.6443 2.1408-0.6236 0.9145-1.7043 1.4133-1.06 0.47803-2.3487 0.47803z" style="white-space:pre"/>
  <path d="m1398-384.9h-4.718v13.572h-1.2471v-13.572h-4.7596v-0.97686h10.725z" style="white-space:pre"/>
  <path d="m1401.7-384.9v5.591h7.0874v0.97685h-7.0874v6.0274h8.1058v0.97686h-9.3529v-14.549h9.3529v0.97686z" style="white-space:pre"/>
  <path d="m1423.3-381.34q0 1.6212-0.9561 2.8267-0.9352 1.2055-2.3901 1.5796l3.3047 5.6117h-1.4134l-3.2007-5.487h-4.4479v5.487h-1.247v-14.549h5.9443q1.1847 0 2.1823 0.60274 1.0184 0.58196 1.6212 1.6212 0.6027 1.0392 0.6027 2.307zm-9.1035 3.5541h4.3855q0.9561 0 1.7459-0.43646 0.7898-0.43647 1.247-1.2263 0.4781-0.81059 0.4781-1.8914t-0.4781-1.8706q-0.4572-0.81059-1.247-1.247-0.7898-0.43647-1.7459-0.43647h-4.3855z" style="white-space:pre"/>
  <path d="m1433.7-378.85q1.3925 0.24941 2.2031 1.2263 0.8106 0.95607 0.8106 2.307 0 1.9329-1.2678 2.9721-1.2679 1.0184-3.4918 1.0184h-5.3623v-14.549h4.6764q2.2655 0 3.4918 0.97686 1.247 0.97686 1.247 2.7851 0 1.2471-0.6858 2.0992-0.6651 0.85215-1.6212 1.1639zm-5.8612-0.35333h3.6373q1.5796 0 2.4317-0.7898 0.873-0.78981 0.873-2.12 0-1.3094-0.8522-2.0368-0.8314-0.74823-2.4317-0.74823h-3.6581zm4.3231 6.9004q1.5796 0 2.4318-0.83137 0.8729-0.83137 0.8729-2.1823 0-1.3094-0.8729-2.12-0.8729-0.83137-2.4525-0.83137h-4.3024v5.9651z" style="white-space:pre"/>
  <path d="m1445.4-371.12q-1.8913 0-3.2215-0.81058-1.3302-0.83137-2.0161-2.2239-0.6651-1.3925-0.6651-3.0553v-2.7851q0-1.6627 0.6651-3.0553 0.6859-1.3925 2.0161-2.2031 1.3302-0.83137 3.2215-0.83137 1.8914 0 3.2216 0.83137 1.351 0.81059 2.0161 2.2031 0.6858 1.3926 0.6858 3.0553v2.7851q0 1.6627-0.6858 3.0553-0.6651 1.3926-2.0161 2.2239-1.3302 0.81058-3.2216 0.81058zm0-1.0184q1.4549 0 2.4941-0.62353 1.06-0.64431 1.6212-1.7667 0.5612-1.1431 0.5612-2.598v-2.9514q0-1.4549-0.5612-2.5772-0.5612-1.1431-1.6212-1.7667-1.0392-0.64431-2.4941-0.64431t-2.5149 0.64431q-1.0392 0.62353-1.6003 1.7667-0.5404 1.1224-0.5404 2.5772v2.9514q0 1.4549 0.5404 2.598 0.5611 1.1224 1.6003 1.7667 1.06 0.62353 2.5149 0.62353z" style="white-space:pre"/>
  <path d="m1463.6-384.9h-4.718v13.572h-1.2471v-13.572h-4.7596v-0.97686h10.725z" style="white-space:pre"/>
  <path d="m1475.5-384.9h-4.718v13.572h-1.2471v-13.572h-4.7596v-0.97686h10.725z" style="white-space:pre"/>
  <path d="m1479.1-384.9v5.591h7.0875v0.97685h-7.0875v6.0274h8.1059v0.97686h-9.3529v-14.549h9.3529v0.97686z" style="white-space:pre"/>
  <path d="m1501.8-385.87v13.946q0 0.33255-0.1247 0.47804-0.1247 0.1247-0.3949 0.1247h-0.2286q-0.3326 0-0.5196-0.10392-0.1663-0.10392-0.4365-0.49882l-8.4592-12.18v12.782h-1.1639v-14.549h1.2886l8.8749 12.803v-12.803z" style="white-space:pre"/>
 </g>
 <g transform="translate(2.9546e-5)" fill="#211e1e" stroke-width="1.623">
  <path d="m106.72 20.849-18.913 50.759-18.913-50.759h-16.582l27.226 72.97h16.539l27.226-72.97z"/>
  <path d="m12.096 72.223-12.096 8.753c4.7063 6.9935 14.119 14.295 26.786 14.295 14.207 0 25.335-8.709 25.335-22.3 0-8.841-5.1903-15.614-15.79-20.497-1.4523-0.65974-7.4774-3.343-8.6652-3.8268-5.586-2.3753-8.3131-5.0142-8.3131-8.181 0-3.2988 2.5949-6.5098 7.8292-6.5098 3.6948 0 7.0818 1.7594 10.293 5.3222l11.48-8.3571c-4.5745-7.0374-13.108-11.436-22.213-11.436-12.096 0-22.74 7.8292-22.74 20.893 0 9.1047 5.1903 16.186 15.746 20.716 3.1216 1.3195 5.3221 2.2432 7.7412 3.2988 3.4749 1.4516 9.1487 3.8266 9.1487 8.7968 0 5.0142-4.97 7.6092-10.292 7.6092-4.8382 0-9.8966-3.0789-14.251-8.5769"/>
  <path d="m154.08 80.492c-3.5187 0-6.4653-2.1554-8.0491-5.1903-1.1874-2.2873-1.232-5.9378-1.232-9.0167v-30.305h16.845l5.6301-15.131h-22.476v-20.849h-15.439v68.615c0 3.1669 0.19151 6.1139 1.3629 9.9404 3.3869 9.7206 12.491 16.714 23.355 16.714 6.2461 0 12.624-2.4191 17.331-6.7737l-9.6766-11.084c-2.0236 1.8033-4.8382 3.0789-7.6534 3.0789"/>
  <path d="m211.61 79.129 15.966-20.629c3.5627-4.6623 5.63-10.116 5.63-15.658 0-6.3778-2.5949-12.316-7.3017-16.67-4.5302-4.1786-10.556-6.4657-16.889-6.4657-6.6859 0-12.492 2.1992-16.802 6.3337-4.1343 4.0025-6.7294 9.5887-7.4771 16.274l-0.12773 1.2755h14.999l0.032-0.70379c0.35109-5.0142 4.4424-8.9289 9.3686-8.9289 5.1025 0 9.5888 4.3106 9.5888 9.2368 0 3.1669-2.6397 6.5096-5.1022 9.6765l-30.922 40.949h51.418v-14.691z"/>
 </g>
</svg>
