<svg width="1226.9" height="473.21" version="1.1" viewBox="0 0 324.62 125.2" xmlns="http://www.w3.org/2000/svg">
 <path d="m5.9093e-5 125.2 6.1031-16.368h3.7138l-6.1031 16.368z" fill="#e02e3d" stroke-width="1.3515"/>
 <g transform="translate(-1024.5 495.62)" fill="#211e1e" stroke-width=".51961">
  <path d="m1055.9-371.12q-1.7459 0-3.1385-0.70666-1.3717-0.70666-2.7227-2.12l0.8729-0.85216q1.164 1.2678 2.3071 1.9745 1.1431 0.68588 2.6812 0.68588 1.6003 0 2.5356-0.83137 0.9561-0.85216 0.9561-2.1616 0-1.0808-0.6859-1.7667-0.6858-0.68588-2.307-1.1431l-1.7667-0.49882q-2.12-0.58196-3.0345-1.4757t-0.9145-2.2863q0-1.1847 0.6028-2.0369 0.6027-0.85215 1.6003-1.2886 1.0185-0.45726 2.2032-0.45726 1.6419 0 2.8266 0.56118 1.2055 0.54039 2.3902 1.6627l-0.8314 0.83137q-0.8937-0.97686-2.016-1.4965-1.1016-0.54039-2.3694-0.54039-1.4134 0-2.3071 0.74823-0.8937 0.72745-0.8937 1.9745 0 1.0808 0.7275 1.6835 0.7482 0.58196 2.5564 1.1016l1.6628 0.47804q1.9121 0.54039 2.8266 1.5172 0.9353 0.95608 0.9353 2.411 0 1.2263-0.6443 2.1408-0.6235 0.9145-1.7043 1.4133-1.06 0.47803-2.3486 0.47803z" style="white-space:pre"/>
  <path d="m1072.8-384.9h-4.718v13.572h-1.2471v-13.572h-4.7595v-0.97686h10.725z" style="white-space:pre"/>
  <path d="m1080.2-371.12q-1.8913 0-3.2215-0.81058-1.3302-0.83137-2.0161-2.2239-0.6651-1.3925-0.6651-3.0553v-2.7851q0-1.6627 0.6651-3.0553 0.6859-1.3925 2.0161-2.2031 1.3302-0.83137 3.2215-0.83137 1.8914 0 3.2216 0.83137 1.351 0.81059 2.0161 2.2031 0.6858 1.3926 0.6858 3.0553v2.7851q0 1.6627-0.6858 3.0553-0.6651 1.3926-2.0161 2.2239-1.3302 0.81058-3.2216 0.81058zm0-1.0184q1.4549 0 2.4941-0.62353 1.06-0.64431 1.6212-1.7667 0.5612-1.1431 0.5612-2.598v-2.9514q0-1.4549-0.5612-2.5772-0.5612-1.1431-1.6212-1.7667-1.0392-0.64431-2.4941-0.64431t-2.5149 0.64431q-1.0392 0.62353-1.6003 1.7667-0.5404 1.1224-0.5404 2.5772v2.9514q0 1.4549 0.5404 2.598 0.5611 1.1224 1.6003 1.7667 1.06 0.62353 2.5149 0.62353z" style="white-space:pre"/>
  <path d="m1095-371.12q-1.9122 0-3.2424-0.81058-1.3301-0.83137-1.9952-2.2239-0.6651-1.3925-0.6651-3.0553v-2.7851q0-1.6627 0.6651-3.0553 0.6651-1.3925 1.9952-2.2031 1.3302-0.83137 3.2424-0.83137 1.5796 0 2.6604 0.56118 1.1015 0.56117 1.7043 1.3302 0.6235 0.74823 1.2678 1.8498l-1.06 0.58196q-0.478-0.91451-0.9976-1.6004t-1.4134-1.1847q-0.8729-0.51961-2.1199-0.51961-1.6004 0-2.6604 0.68588-1.0392 0.6651-1.5381 1.8082-0.4988 1.1224-0.4988 2.4941v2.9514q0 1.351 0.4988 2.4941 0.4989 1.1224 1.5589 1.8082t2.6396 0.68588q1.247 0 2.1199-0.47804 0.8938-0.49882 1.3926-1.1224 0.5196-0.64431 1.0808-1.6004l1.0392 0.62353q-0.7067 1.1016-1.3094 1.8082-0.582 0.68588-1.6835 1.247-1.0808 0.54039-2.6812 0.54039z" style="white-space:pre"/>
  <path d="m1107.4-378.6-2.2655 2.5357v4.7388h-1.247v-14.549h1.247v8.2513l7.2537-8.2513h1.4965l-5.6949 6.3808 5.9859 8.1682h-1.4549z" style="white-space:pre"/>
  <path d="m1127.5-385.87v14.549h-1.2471v-6.9004h-8.1474v6.9004h-1.247v-14.549h1.247v6.6717h8.1474v-6.6717z" style="white-space:pre"/>
  <path d="m1136.8-371.12q-1.8914 0-3.2215-0.81058-1.3302-0.83137-2.0161-2.2239-0.6651-1.3925-0.6651-3.0553v-2.7851q0-1.6627 0.6651-3.0553 0.6859-1.3925 2.0161-2.2031 1.3301-0.83137 3.2215-0.83137t3.2216 0.83137q1.3509 0.81059 2.016 2.2031 0.6859 1.3926 0.6859 3.0553v2.7851q0 1.6627-0.6859 3.0553-0.6651 1.3926-2.016 2.2239-1.3302 0.81058-3.2216 0.81058zm0-1.0184q1.4549 0 2.4941-0.62353 1.06-0.64431 1.6212-1.7667 0.5612-1.1431 0.5612-2.598v-2.9514q0-1.4549-0.5612-2.5772-0.5612-1.1431-1.6212-1.7667-1.0392-0.64431-2.4941-0.64431t-2.5149 0.64431q-1.0392 0.62353-1.6004 1.7667-0.5404 1.1224-0.5404 2.5772v2.9514q0 1.4549 0.5404 2.598 0.5612 1.1224 1.6004 1.7667 1.06 0.62353 2.5149 0.62353z" style="white-space:pre"/>
  <path d="m1154.9-372.3v0.97686h-8.7917v-14.549h1.247v13.572z" style="white-space:pre"/>
  <path d="m1171.1-385.87v14.549h-1.1847v-13.323l-4.531 10.912q-0.1455 0.35333-0.3326 0.51961-0.1662 0.14549-0.5196 0.14549h-0.2494q-0.3533 0-0.5196-0.14549-0.1455-0.14549-0.3117-0.51961l-4.5518-10.953v13.364h-1.1639v-14.549h1.8082l4.8843 11.639 4.822-11.639z" style="white-space:pre"/>
 </g>
 <g transform="translate(2.9546e-5)" fill="#211e1e" stroke-width="1.623">
  <path d="m106.72 20.849-18.913 50.759-18.913-50.759h-16.582l27.226 72.97h16.539l27.226-72.97z"/>
  <path d="m12.096 72.223-12.096 8.753c4.7063 6.9935 14.119 14.295 26.786 14.295 14.207 0 25.335-8.709 25.335-22.3 0-8.841-5.1903-15.614-15.79-20.497-1.4523-0.65974-7.4774-3.343-8.6652-3.8268-5.586-2.3753-8.3131-5.0142-8.3131-8.181 0-3.2988 2.5949-6.5098 7.8292-6.5098 3.6948 0 7.0818 1.7594 10.293 5.3222l11.48-8.3571c-4.5745-7.0374-13.108-11.436-22.213-11.436-12.096 0-22.74 7.8292-22.74 20.893 0 9.1047 5.1903 16.186 15.746 20.716 3.1216 1.3195 5.3221 2.2432 7.7412 3.2988 3.4749 1.4516 9.1487 3.8266 9.1487 8.7968 0 5.0142-4.97 7.6092-10.292 7.6092-4.8382 0-9.8966-3.0789-14.251-8.5769"/>
  <path d="m154.08 80.492c-3.5187 0-6.4653-2.1554-8.0491-5.1903-1.1874-2.2873-1.232-5.9378-1.232-9.0167v-30.305h16.845l5.6301-15.131h-22.476v-20.849h-15.439v68.615c0 3.1669 0.19151 6.1139 1.3629 9.9404 3.3869 9.7206 12.491 16.714 23.355 16.714 6.2461 0 12.624-2.4191 17.331-6.7737l-9.6766-11.084c-2.0236 1.8033-4.8382 3.0789-7.6534 3.0789"/>
  <path d="m211.61 79.129 15.966-20.629c3.5627-4.6623 5.63-10.116 5.63-15.658 0-6.3778-2.5949-12.316-7.3017-16.67-4.5302-4.1786-10.556-6.4657-16.889-6.4657-6.6859 0-12.492 2.1992-16.802 6.3337-4.1343 4.0025-6.7294 9.5887-7.4771 16.274l-0.12773 1.2755h14.999l0.032-0.70379c0.35109-5.0142 4.4424-8.9289 9.3686-8.9289 5.1025 0 9.5888 4.3106 9.5888 9.2368 0 3.1669-2.6397 6.5096-5.1022 9.6765l-30.922 40.949h51.418v-14.691z"/>
 </g>
 <g transform="translate(2.9546e-5)" fill="#211e1e" stroke-width="1.623">
  <path d="m284.89 20.849v38.091h-4.7941v-17.375h-19.178v17.375h-4.7944v-38.091h4.7944v16.891h19.178v-16.891z"/>
  <path d="m319.82 36.156c0-6.07-3.0354-11.48-11.568-11.48h-8.9729v30.482h8.9729c8.5331 0 11.568-5.4542 11.568-11.48zm4.7944 0.22023v7.0814c0 8.5771-5.7181 15.483-15.746 15.483h-14.427v-38.091h14.427c10.028 0 15.746 6.9055 15.746 15.527"/>
 </g>
</svg>
