<svg width="884.39" height="473.21" version="1.1" viewBox="0 0 234 125.2" xmlns="http://www.w3.org/2000/svg">
 <path d="m5.9093e-5 125.2 6.1031-16.368h3.7138l-6.1031 16.368z" fill="#e02e3d" stroke-width="1.3515"/>
 <g transform="translate(-1153 495.62)" fill="#fff" stroke-width=".51961">
  <path d="m1190.4-385.87-4.8427 13.884q-0.1247 0.35333-0.3117 0.5196-0.1663 0.14549-0.5197 0.14549h-0.5611q-0.3534 0-0.5404-0.14549-0.1663-0.16627-0.291-0.5196l-4.8427-13.884h1.2678l4.6973 13.634 4.6972-13.634z" style="white-space:pre"/>
  <path d="m1200-375.57h-6.9835l-1.6211 4.24h-1.2471l5.4455-13.925q0.1247-0.33254 0.291-0.47803 0.1662-0.14549 0.4572-0.14549h0.3741q0.291 0 0.4573 0.16627 0.1663 0.14549 0.291 0.47804l5.4662 13.905h-1.2886zm-0.3741-0.97686-3.1176-8.1266-3.1176 8.1266zm-4.7596-11.12q-0.3949 0-0.6651-0.27019-0.2702-0.2702-0.2702-0.6651 0-0.37411 0.2702-0.64431 0.2702-0.27019 0.6651-0.27019 0.3742 0 0.6444 0.27019 0.2701 0.2702 0.2701 0.64431 0 0.3949-0.2701 0.6651-0.2702 0.27019-0.6444 0.27019zm3.3463 0q-0.3949 0-0.6651-0.27019-0.2702-0.2702-0.2702-0.6651 0-0.37411 0.2702-0.64431 0.2702-0.27019 0.6651-0.27019 0.3741 0 0.6443 0.27019 0.2702 0.2702 0.2702 0.64431 0 0.3949-0.2702 0.6651-0.2702 0.27019-0.6443 0.27019z" style="white-space:pre"/>
  <path d="m1215.7-381.34q0 1.6212-0.9561 2.8267-0.9353 1.2055-2.3902 1.5796l3.3047 5.6117h-1.4133l-3.2008-5.487h-4.4478v5.487h-1.2471v-14.549h5.9443q1.1847 0 2.1823 0.60274 1.0185 0.58196 1.6212 1.6212 0.6028 1.0392 0.6028 2.307zm-9.1035 3.5541h4.3854q0.9561 0 1.7459-0.43646 0.7898-0.43647 1.2471-1.2263 0.478-0.81059 0.478-1.8914t-0.478-1.8706q-0.4573-0.81059-1.2471-1.247-0.7898-0.43647-1.7459-0.43647h-4.3854z" style="white-space:pre"/>
  <path d="m1232.3-385.87v14.549h-1.1847v-13.323l-4.5309 10.912q-0.1455 0.35333-0.3326 0.51961-0.1663 0.14549-0.5196 0.14549h-0.2494q-0.3533 0-0.5196-0.14549-0.1455-0.14549-0.3118-0.51961l-4.5517-10.953v13.364h-1.1639v-14.549h1.8082l4.8843 11.639 4.8219-11.639z" style="white-space:pre"/>
  <path d="m1245-372.3v0.97686h-8.7917v-14.549h1.247v13.572z" style="white-space:pre"/>
  <path d="m1256.2-375.57h-6.9835l-1.6212 4.24h-1.2471l5.4455-13.925q0.1247-0.33254 0.291-0.47803t0.4572-0.14549h0.3742q0.2909 0 0.4572 0.16627 0.1663 0.14549 0.291 0.47804l5.4662 13.905h-1.2886zm-0.3742-0.97686-3.1176-8.1266-3.1176 8.1266z" style="white-space:pre"/>
  <path d="m1272.9-385.87v13.946q0 0.33255-0.1247 0.47804-0.1247 0.1247-0.3949 0.1247h-0.2286q-0.3326 0-0.5196-0.10392-0.1663-0.10392-0.4365-0.49882l-8.4592-12.18v12.782h-1.1639v-14.549h1.2886l8.8749 12.803v-12.803z" style="white-space:pre"/>
  <path d="m1282.1-385.87q1.8498 0 3.2008 0.7898 1.3509 0.76901 2.0368 2.12 0.7067 1.351 0.7067 3.0137v2.702q0 1.6627-0.7067 3.0137-0.6859 1.351-2.0368 2.1408-1.351 0.76902-3.2008 0.76902h-5.3208v-14.549zm4.6972 5.9235q0-1.3094-0.4988-2.4318t-1.6212-1.8082q-1.1015-0.70666-2.8266-0.70666h-3.8243v12.595h3.8243q1.7251 0 2.8266-0.68588 1.1224-0.70666 1.6212-1.829t0.4988-2.4318z" style="white-space:pre"/>
 </g>
 <g transform="translate(2.9546e-5)" fill="#fff" stroke-width="1.623">
  <path d="m106.72 20.849-18.913 50.759-18.913-50.759h-16.582l27.226 72.97h16.539l27.226-72.97z"/>
  <path d="m12.096 72.223-12.096 8.753c4.7063 6.9935 14.119 14.295 26.786 14.295 14.207 0 25.335-8.709 25.335-22.3 0-8.841-5.1903-15.614-15.79-20.497-1.4523-0.65974-7.4774-3.343-8.6652-3.8268-5.586-2.3753-8.3131-5.0142-8.3131-8.181 0-3.2988 2.5949-6.5098 7.8292-6.5098 3.6948 0 7.0818 1.7594 10.293 5.3222l11.48-8.3571c-4.5745-7.0374-13.108-11.436-22.213-11.436-12.096 0-22.74 7.8292-22.74 20.893 0 9.1047 5.1903 16.186 15.746 20.716 3.1216 1.3195 5.3221 2.2432 7.7412 3.2988 3.4749 1.4516 9.1487 3.8266 9.1487 8.7968 0 5.0142-4.97 7.6092-10.292 7.6092-4.8382 0-9.8966-3.0789-14.251-8.5769"/>
  <path d="m154.08 80.492c-3.5187 0-6.4653-2.1554-8.0491-5.1903-1.1874-2.2873-1.232-5.9378-1.232-9.0167v-30.305h16.845l5.6301-15.131h-22.476v-20.849h-15.439v68.615c0 3.1669 0.19151 6.1139 1.3629 9.9404 3.3869 9.7206 12.491 16.714 23.355 16.714 6.2461 0 12.624-2.4191 17.331-6.7737l-9.6766-11.084c-2.0236 1.8033-4.8382 3.0789-7.6534 3.0789"/>
  <path d="m211.61 79.129 15.966-20.629c3.5627-4.6623 5.63-10.116 5.63-15.658 0-6.3778-2.5949-12.316-7.3017-16.67-4.5302-4.1786-10.556-6.4657-16.889-6.4657-6.6859 0-12.492 2.1992-16.802 6.3337-4.1343 4.0025-6.7294 9.5887-7.4771 16.274l-0.12773 1.2755h14.999l0.032-0.70379c0.35109-5.0142 4.4424-8.9289 9.3686-8.9289 5.1025 0 9.5888 4.3106 9.5888 9.2368 0 3.1669-2.6397 6.5096-5.1022 9.6765l-30.922 40.949h51.418v-14.691z"/>
 </g>
</svg>
