<svg width="884.39" height="473.21" version="1.1" viewBox="0 0 234 125.2" xmlns="http://www.w3.org/2000/svg">
 <path d="m5.9093e-5 125.2 6.1031-16.368h3.7138l-6.1031 16.368z" fill="#e02e3d" stroke-width="1.3515"/>
 <g transform="translate(-730.13 495.62)" fill="#211e1e" stroke-width=".51961">
  <path d="m761.45-371.12q-1.7459 0-3.1384-0.70666-1.3718-0.70666-2.7227-2.12l0.87293-0.85216q1.1639 1.2678 2.307 1.9745 1.1431 0.68588 2.6812 0.68588 1.6004 0 2.5357-0.83137 0.95607-0.85216 0.95607-2.1616 0-1.0808-0.68588-1.7667t-2.307-1.1431l-1.7667-0.49882q-2.12-0.58196-3.0345-1.4757-0.9145-0.89372-0.9145-2.2863 0-1.1847 0.60274-2.0369t1.6004-1.2886q1.0184-0.45726 2.2031-0.45726 1.642 0 2.8266 0.56118 1.2055 0.54039 2.3902 1.6627l-0.83137 0.83137q-0.89372-0.97686-2.0161-1.4965-1.1016-0.54039-2.3694-0.54039-1.4133 0-2.307 0.74823-0.89373 0.72745-0.89373 1.9745 0 1.0808 0.72745 1.6835 0.74823 0.58196 2.5565 1.1016l1.6627 0.47804q1.9122 0.54039 2.8267 1.5172 0.93529 0.95608 0.93529 2.411 0 1.2263-0.64431 2.1408-0.62353 0.9145-1.7043 1.4133-1.06 0.47803-2.3486 0.47803z" style="white-space:pre"/>
  <path d="m772.96-378.6-2.2655 2.5357v4.7388h-1.247v-14.549h1.247v8.2513l7.2537-8.2513h1.4965l-5.6949 6.3808 5.9859 8.1682h-1.4549z" style="white-space:pre"/>
  <path d="m790.76-375.57h-7.0043l-1.6212 4.24h-1.247l5.5702-14.3q-0.5196-0.22863-0.83137-0.68588-0.31176-0.45725-0.31176-1.0392 0-0.7898 0.58196-1.3302 0.58196-0.56118 1.3925-0.56118 0.81059 0 1.3926 0.56118 0.58195 0.54039 0.58195 1.3302 0 0.58196-0.33254 1.0392-0.33255 0.45725-0.85216 0.68588l5.591 14.3h-1.2886zm-3.4918-12.949q-0.47804 0-0.81059 0.33255-0.33255 0.33254-0.33255 0.83137 0 0.49882 0.33255 0.83137 0.33255 0.33254 0.81059 0.33254 0.47803 0 0.81058-0.33254 0.35333-0.33255 0.35333-0.83137 0-0.49883-0.35333-0.83137-0.33255-0.33255-0.81058-0.33255zm3.1176 11.972-3.1384-8.2306-3.1384 8.2306z" style="white-space:pre"/>
  <path d="m807.38-385.87v13.946q0 0.33255-0.12471 0.47804-0.12471 0.1247-0.3949 0.1247h-0.22863q-0.33254 0-0.5196-0.10392-0.16628-0.10392-0.43647-0.49882l-8.4592-12.18v12.782h-1.1639v-14.549h1.2886l8.8749 12.803v-12.803z" style="white-space:pre"/>
  <path d="m812.54-384.9v5.591h7.0874v0.97685h-7.0874v6.0274h8.1058v0.97686h-9.3529v-14.549h9.3529v0.97686z" style="white-space:pre"/>
 </g>
 <g transform="translate(2.9546e-5)" fill="#211e1e" stroke-width="1.623">
  <path d="m106.72 20.849-18.913 50.759-18.913-50.759h-16.582l27.226 72.97h16.539l27.226-72.97z"/>
  <path d="m12.096 72.223-12.096 8.753c4.7063 6.9935 14.119 14.295 26.786 14.295 14.207 0 25.335-8.709 25.335-22.3 0-8.841-5.1903-15.614-15.79-20.497-1.4523-0.65974-7.4774-3.343-8.6652-3.8268-5.586-2.3753-8.3131-5.0142-8.3131-8.181 0-3.2988 2.5949-6.5098 7.8292-6.5098 3.6948 0 7.0818 1.7594 10.293 5.3222l11.48-8.3571c-4.5745-7.0374-13.108-11.436-22.213-11.436-12.096 0-22.74 7.8292-22.74 20.893 0 9.1047 5.1903 16.186 15.746 20.716 3.1216 1.3195 5.3221 2.2432 7.7412 3.2988 3.4749 1.4516 9.1487 3.8266 9.1487 8.7968 0 5.0142-4.97 7.6092-10.292 7.6092-4.8382 0-9.8966-3.0789-14.251-8.5769"/>
  <path d="m154.08 80.492c-3.5187 0-6.4653-2.1554-8.0491-5.1903-1.1874-2.2873-1.232-5.9378-1.232-9.0167v-30.305h16.845l5.6301-15.131h-22.476v-20.849h-15.439v68.615c0 3.1669 0.19151 6.1139 1.3629 9.9404 3.3869 9.7206 12.491 16.714 23.355 16.714 6.2461 0 12.624-2.4191 17.331-6.7737l-9.6766-11.084c-2.0236 1.8033-4.8382 3.0789-7.6534 3.0789"/>
  <path d="m211.61 79.129 15.966-20.629c3.5627-4.6623 5.63-10.116 5.63-15.658 0-6.3778-2.5949-12.316-7.3017-16.67-4.5302-4.1786-10.556-6.4657-16.889-6.4657-6.6859 0-12.492 2.1992-16.802 6.3337-4.1343 4.0025-6.7294 9.5887-7.4771 16.274l-0.12773 1.2755h14.999l0.032-0.70379c0.35109-5.0142 4.4424-8.9289 9.3686-8.9289 5.1025 0 9.5888 4.3106 9.5888 9.2368 0 3.1669-2.6397 6.5096-5.1022 9.6765l-30.922 40.949h51.418v-14.691z"/>
 </g>
</svg>
