<svg width="800.04" height="549.03" version="1.1" viewBox="0 0 800.04 549.03" xml:space="preserve" xmlns="http://www.w3.org/2000/svg"><defs><clipPath id="clipPath256"><path d="m0 0h595.28v841.89h-595.28z"/></clipPath><clipPath id="clipPath386"><path d="m97.661 727.64h405.35v87.853h-405.35z"/></clipPath><clipPath id="clipPath414"><path d="m98.835 743.4h402.71v62.429h-402.71z"/></clipPath></defs><g transform="matrix(2.6799 0 0 -2.6799 -1193 2541.4)" clip-path="url(#clipPath256)"><text transform="matrix(1,0,0,-1,-183.8,254.61)" fill="#ffffff" font-family="Cambria" font-size="15px" font-weight="bold"><tspan x="0 5.4000001 12.435 19.2495 27.4245 35.539501 40.309502 43.759499 48.619499 52.0695 61.1745 69.289497 78.491997 81.942001 90.056999 95.681999 101.1045 109.2195 116.2845 123.3195 128.9445 137.11951 140.5695 146.1945 151.0545 160.1595 168.27451" y="0">Israel i den yttersta tiden</tspan></text>
</g><g transform="matrix(4.6987 0 0 -4.6987 -1556.6 4042)"><g clip-path="url(#clipPath386)"><g transform="translate(393.72,774.62)"><path d="m-31.214-31.215c-17.238 0-31.214 13.977-31.214 31.215 0 17.241 13.976 31.215 31.214 31.215 17.241 0 31.214-13.974 31.214-31.215 0-17.238-13.973-31.215-31.214-31.215z" fill="#1882c5"/></g><g transform="translate(366.54,754.7)"><path d="m0 0s-0.65 8.112 1.404 19.029c1.53 8.134 6.212 14.071 6.212 14.071s-7.112-5.609-11.571-15.272c-4.458-9.665-4.956-21.835-4.956-21.835s1.753 1.803 4.355 2.954c2.709 1.197 4.556 1.053 4.556 1.053" fill="#fff"/></g><g transform="translate(370.85,775.44)"><path d="m 0,0 c 0,0 4.306,6.059 7.812,9.212 3.508,3.157 5.159,3.509 5.159,3.509 0,0 -6.862,0.199 -8.164,-1.253 C 3.504,10.015 2.106,7.462 1.354,5.057 0.601,2.655 0,0 0,0" fill="#fff"/></g><g transform="translate(370.84,786.83)"><path d="m0 0s-4.252-3.806-6.807-7.06-4.606-7.212-4.606-7.212-3.31-1.302-7.164-1.151c-3.855 0.152-6.861 2.304-6.861 2.304s3.455-0.301 5.511 0.3c2.05 0.601 3.103 1.402 3.103 1.402s-6.058-0.201-10.317 1.353c-4.256 1.551-4.557 2.201-5.305 2.804-0.753 0.601-2.406 2.754-2.406 2.754s5.859-2.404 13.721-1.051c7.861 1.351 6.859 1.252 11.214 2.453 4.36 1.2 9.917 3.104 9.917 3.104" fill="#fff"/></g><g transform="translate(369.45,787.96)"><path d="m0 0s-1.857-0.752-3.959-1.052c-2.102-0.301-4.308-0.451-4.308-0.451s-2.31 1.065-3.362 1.816c-1.049 0.752-2.566 2.259-2.643 3.341-0.081 1.148 0.225 1.751 0.725 2.352 0.499 0.6 1.129 1.104 1.129 1.104s0.451-1.803 2.599-3.655c1.106-0.949 3.183-1.986 5.459-2.554 2.203-0.551 4.36-0.901 4.36-0.901" fill="#fff"/></g></g></g><g transform="matrix(4.6987 0 0 -4.6987 -1556.6 4042)"><g clip-path="url(#clipPath414)"><g transform="translate(405.3,796.32)"><path d="m0 0h38.608l12.973-31.248 12.866 31.248h6.009l-18.875-45.619-16.877 40.26h-13.873v-37.857h-6.007v37.809h-14.824z" fill="#322e2e"/></g><g transform="translate(478.27,796.37)"><path d="m0 0h23.281l-19.378-43.266h-6.86l16.674 37.157h-15.974z" fill="#1882c5"/></g></g></g><g transform="matrix(6.083 0 0 6.083 4660.8 4167.5)" fill="#322e2e" aria-label="TAIVAS"><path d="m-754.56-680.15v25.88h-4.12v-25.84h-7.52v-3.36h19.12v3.32z"/><path d="m-722.86-654.27-3.52-7.64h-12.64l-3.48 7.64h-4.56l14.36-30.84 14.36 30.84zm-9.88-21.48-4.72 10.32h9.44z"/><path d="m-716.31-654.27v-29.2h4.12v29.2z"/><path d="m-696.62-652.63-14.36-30.84h4.52l9.88 21.48 9.76-21.48h4.56z"/><path d="m-658.87-654.27-3.52-7.64h-12.64l-3.48 7.64h-4.56l14.36-30.84 14.36 30.84zm-9.88-21.48-4.72 10.32h9.44z"/><path d="m-634.68-663.07q0 2-0.8 3.72-0.76 1.68-2.08 2.92-1.32 1.2-3.08 1.92-1.76 0.68-3.72 0.68-1.84 0-3.48-0.64t-2.92-1.76q-1.28-1.16-2.12-2.68-0.8-1.56-1.04-3.32l3.88-1.16q0.16 0.8 0.48 1.76 0.36 0.96 0.96 1.8 0.64 0.84 1.64 1.44 1 0.56 2.44 0.56 1.12 0 2.12-0.36 1-0.4 1.72-1.08 0.76-0.68 1.2-1.64t0.44-2.12-0.48-1.96q-0.44-0.8-1.24-1.4t-1.84-1.04q-1.04-0.48-2.16-0.92-1.16-0.44-2.56-1.04-1.36-0.6-2.56-1.48-1.2-0.92-2-2.16t-0.8-3q0-1.84 0.72-3.28 0.76-1.48 2-2.48 1.28-1 2.92-1.52 1.68-0.52 3.52-0.52 1.24 0 2.4 0.36 1.2 0.32 2.16 0.92 1 0.6 1.76 1.44t1.24 1.84l-3.28 1.88q-0.56-1.24-1.72-2.12t-2.56-0.88q-2.16 0-3.48 1.2-1.28 1.16-1.28 2.96 0 1 0.48 1.68 0.52 0.68 1.2 1.16 0.72 0.48 1.52 0.8 0.8 0.28 1.4 0.52 1.92 0.72 3.56 1.48 1.64 0.72 2.84 1.76 1.2 1 1.88 2.4 0.72 1.4 0.72 3.36z"/></g></svg>
