<?xml version="1.0" encoding="UTF-8" standalone="no"?>
<svg
   xmlns:dc="http://purl.org/dc/elements/1.1/"
   xmlns:cc="http://creativecommons.org/ns#"
   xmlns:rdf="http://www.w3.org/1999/02/22-rdf-syntax-ns#"
   xmlns:svg="http://www.w3.org/2000/svg"
   xmlns="http://www.w3.org/2000/svg"
   xmlns:xlink="http://www.w3.org/1999/xlink"
   xmlns:sodipodi="http://sodipodi.sourceforge.net/DTD/sodipodi-0.dtd"
   xmlns:inkscape="http://www.inkscape.org/namespaces/inkscape"
   width="1500pt"
   height="741.51pt"
   version="1.1"
   viewBox="0 0 1500 741.51"
   id="svg48"
   sodipodi:docname="TBN Nordic.svg"
   inkscape:version="1.0.1 (3bc2e813f5, 2020-09-07)">
  <metadata
     id="metadata52">
    <rdf:RDF>
      <cc:Work
         rdf:about="">
        <dc:format>image/svg+xml</dc:format>
        <dc:type
           rdf:resource="http://purl.org/dc/dcmitype/StillImage" />
      </cc:Work>
    </rdf:RDF>
  </metadata>
  <sodipodi:namedview
     pagecolor="#ffffff"
     bordercolor="#666666"
     borderopacity="1"
     objecttolerance="10"
     gridtolerance="10"
     guidetolerance="10"
     inkscape:pageopacity="0"
     inkscape:pageshadow="2"
     inkscape:window-width="1920"
     inkscape:window-height="1017"
     id="namedview50"
     showgrid="false"
     inkscape:zoom="0.36840263"
     inkscape:cx="779.29217"
     inkscape:cy="921.69488"
     inkscape:window-x="-8"
     inkscape:window-y="-8"
     inkscape:window-maximized="1"
     inkscape:current-layer="svg48" />
  <defs
     id="defs14">
    <radialGradient
       id="c"
       cx="549.3"
       cy="467.1"
       r="107"
       gradientTransform="matrix(.75 0 0 .76335 898.97 -900.73)"
       gradientUnits="userSpaceOnUse"
       xlink:href="#a" />
    <linearGradient
       id="a">
      <stop
         stop-color="#1d64b1"
         offset="0"
         id="stop3" />
      <stop
         stop-color="#224699"
         offset="1"
         id="stop5" />
    </linearGradient>
    <radialGradient
       id="b"
       cx="328.1"
       cy="467.1"
       r="107"
       gradientTransform="matrix(.75 0 0 .76335 898.97 -900.73)"
       gradientUnits="userSpaceOnUse">
      <stop
         stop-color="#ed2239"
         offset="0"
         id="stop8" />
      <stop
         stop-color="#c0202e"
         offset="1"
         id="stop10" />
    </radialGradient>
    <radialGradient
       id="d"
       cx="107"
       cy="467.1"
       r="107"
       gradientTransform="matrix(.75 0 0 .76335 898.97 -900.73)"
       gradientUnits="userSpaceOnUse"
       xlink:href="#a" />
  </defs>
  <path
     id="path40"
     style="fill:#9d9c9d;fill-opacity:1;stroke-width:2.28555"
     d="M 0.02050638,-0.07616393 V 497.71583 l 1499.86959362,0 V -0.07616393 Z"
     sodipodi:nodetypes="ccccc" />
  <g
     transform="matrix(.75866 0 0 .75866 -37.944 519.25)"
     fill="#a8a8a8"
     id="g28">
    <path
       transform="scale(.75)"
       d="m756.79 31.086a181.48 179.76 0 0 0-181.48 179.76 181.48 179.76 0 0 0 181.48 179.76 181.48 179.76 0 0 0 181.48-179.76 181.48 179.76 0 0 0-181.48-179.76zm0 78.174a102.56 101.59 0 0 1 102.56 101.59 102.56 101.59 0 0 1-102.56 101.59 102.56 101.59 0 0 1-102.56-101.59 102.56 101.59 0 0 1 102.56-101.59z"
       style="paint-order:stroke fill markers;fill:#9d9c9d;fill-opacity:1"
       id="path16" />
    <path
       d="m1878.6 37.54c34.13-18.71 77.52-19.27 112.09-1.36 13.64 6.82 25.68 16.49 36.25 27.42l-41.71 43.13c-11-13.73-27.41-23.55-45.18-24.62-17.64-1.46-35.2 5.97-47.65 18.28-15 14.38-24.15 34.77-24.51 55.58-0.6 18.57 5.86 37.12 17.36 51.66 11.51 14.59 28.64 25.82 47.65 26.39 20.43 1.37 40.45-9.27 52.53-25.47l41.71 43.29c-10.82 11.27-23.21 21.16-37.25 28.12-35.28 17.9-79.52 16.72-113.75-3.15-32.64-18.25-56.24-51.24-64.06-87.7-4.43-20.66-4.38-42.26 0.14-62.89 8.16-37.19 32.72-70.66 66.38-88.68z"
       id="path18"
       style="fill:#9d9c9d;fill-opacity:1" />
    <path
       d="m50.015 25.52 164.02 122.36v-118.52h63.445v257.92l-163.87-131.48v130.8h-63.59z"
       id="path20"
       style="fill:#9d9c9d;fill-opacity:1" />
    <path
       d="m857.69 29.2h73.28c19.61 0.18 39.5 2.76 57.81 10.06 14.25 5.8 26.98 15.91 34.5 29.47 7.04 12.49 9.27 27.11 9.17 41.28-0.15 15.67-5.77 30.99-14.73 43.74-6.56 9.19-15.82 16.3-26.3 20.49l64 112.52h-74.15l-60.27-115.82v115.82h-63.31v-257.56m63.31 54.78v72.04c13.19-0.25 27.98-1.42 38.13-10.83 9.17-8.26 11.1-21.59 9.76-33.28-0.9-8.14-4.42-16.76-11.92-20.87-10.88-6.08-23.76-6.98-35.97-7.06z"
       id="path22"
       style="fill:#9d9c9d;fill-opacity:1" />
    <path
       d="m1209.1 29.035h90.915c18.16-0.07 36.45 2.825 53.39 9.515 28.82 11 54.31 31.72 68.88 59.15 20.61 37.1 20.44 84.93-0.78 121.74-22.67 41.13-69.02 66.425-115.45 67.415h-96.955v-257.82m65.915 54.965v148.42l25.279-0.44c3.3268-0.32799 10.379-0.89808 13.611-1.6921 28.404-6.9768 52.319-31.241 56.88-60.438 3.32-19.47-2-40.13-13.95-55.8-10.14-13.76-25.45-23.25-41.85-27.62-4.8319-1.3127-9.7347-2.4302-14.691-2.4302z"
       id="path24"
       style="fill:#9d9c9d;fill-opacity:1" />
    <path
       d="m1591.5 29.315h63.475v257.66h-63.475z"
       id="path26"
       style="fill:#9d9c9d;fill-opacity:1" />
  </g>
  <path
     class="st1"
     d="M 1107.8425,8.182216"
     fill="#ffffff"
     id="path30"
     style="stroke-width:2.28555" />
  <path
     class="st6"
     d="M 36.132868,38.107684 H 452.7734 V 159.24183 H 316.09751 V 466.17596 H 173.02208 V 159.24183 H 36.117631 Z"
     fill="#ffffff"
     id="path32"
     style="stroke-width:2.28555" />
  <path
     class="st7"
     d="m 801.88354,177.06912 v -1.14277 c 0,-19.65573 -15.31319,-29.25504 -45.93956,-29.25504 h -61.70985 v 59.88141 h 62.39552 c 30.16926,-0.22856 45.25389,-10.05642 45.25389,-29.4836 m 10.97064,149.70353 v -1.14278 c 0,-9.37075 -3.88544,-16.91307 -11.65631,-22.62694 -7.77087,-5.71388 -19.42717,-8.45654 -34.96891,-8.45654 h -72.22338 v 63.53829 h 71.53771 c 15.54174,0 27.19805,-2.74266 35.19747,-8.45653 8.22798,-5.94243 12.11342,-13.48475 12.11342,-22.8555 m 144.44676,20.7985 c 0,17.14163 -3.42833,32.91192 -10.51353,47.31089 -6.85665,14.39896 -17.37018,26.96949 -31.31204,37.71157 -13.94185,10.51353 -31.08348,18.97007 -51.88198,24.68394 -20.56995,5.94243 -44.33967,8.91365 -71.30916,8.91365 H 554.58703 V 38.092447 h 239.75419 c 29.71215,0 54.39609,3.19977 73.59471,9.827865 19.42718,6.628095 35.42603,15.99885 47.99655,28.79793 7.77087,7.77087 14.17041,17.141625 18.97007,28.112268 4.79965,10.97064 7.31376,23.76972 7.31376,38.62579 v 1.14278 c 0,25.59816 -6.85665,46.39666 -20.79851,62.16696 -13.94185,15.77029 -32.45481,27.65515 -55.76742,35.88313 27.88371,8.22798 50.05355,20.11284 66.50951,36.11169 16.45596,15.99885 24.68394,38.6258 24.68394,67.88084 v 0.91422 z"
     fill="#ffffff"
     id="path34"
     style="stroke-width:2.28555" />
  <path
     class="st6"
     d="m 1327.56,38.107684 h 141.9327 V 466.20644 H 1342.1876 L 1183.1133,268.73492 V 466.20644 H 1041.1806 V 38.107684 h 133.9333 L 1327.3315,227.12267 V 38.107684 Z"
     fill="#ffffff"
     id="path36"
     style="stroke-width:2.28555" />
  <path
     class="st1"
     d="M 1107.8425,8.182216"
     id="path38"
     style="stroke-width:2.28555" />
</svg>
