<svg width="800" height="764.21" version="1.1" viewBox="0 0 800 764.21" xml:space="preserve" xmlns="http://www.w3.org/2000/svg"><defs><linearGradient id="linearGradient53832" x2="1" gradientTransform="matrix(0 -629.17 -629.17 0 1258.6 488.95)" gradientUnits="userSpaceOnUse"><stop stop-color="#8b359f" offset="0"/><stop stop-color="#6f2895" offset="1"/></linearGradient></defs><g transform="matrix(1.3333 0 0 -1.3333 -783.64 614.69)"><path d="m875.36 460.08-26.689-8.1178-237.46-80.453c-15.536-5.5418-24.132-9.5719-23.449-24.856 0-14.324 0.30318-25.575 1.8175-42.373 2.5815-21.487 24.627-17.492 24.627-17.492l54.054 17.476 9.8734-187.98c0-20.495 15.49-32.465 36.353-28.364l11.017 2.416v-143.48c0-20.745 11.597-33.486 22.678-41.7 11.081-8.2144 26.979-12.064 39.993-12.918 72.242-4.7823 141.12-5.4403 204.51-3.0119 66.755 3.6396 103.4 26.928 108.54 68.405l7.57 205.36 11.291 2.1744c9.9494 2.2502 41.375 6.1043 44.744 36.933l22.549 184.36s6.2976 38.769-34.79 23.451l-46.419-15.543c-1.1436 13.642-8.456 38.527-47.692 27.897l-49.302-14.85c-19.225-6.2265-23.535-25.028-25.304-39.075 0 0-4.0238 30.09-33.193 21.425l-49.08-15.014 3.4468 60.786s3.3663 25.481-20.906 25.481c-3.54 0-5.8708-0.12499-8.7781-0.93419z" fill="url(#linearGradient53832)"/><path d="m1086.6 270.47c-3.2697-22.211-5.8789-53.893-7.8922-76.184l50.043 11.339 2.6092 25.126 2.3355 21.293 7.409 65.715-50.623-11.726c-1.1759-9.7284-2.4644-25.819-3.8817-35.563m6.6198 60.287 52.733 12.869 5.6696 39.928-53.506-17.492z" fill="#fff"/><path d="m703 349.35-76.023-26.592-3.7206 23.854c39.816 12.805 86.09 31.601 126.24 43.794 40.138 12.193 80.131 27.494 119.93 39.606l-1.5946-27.784-81.355-26.721-1.5624-61.076-3.7206-88.361v-82.643l-70.257-18.184v33.84l-2.1261 69.307z" fill="#fff"/><path d="m873.19 321.12 0.69258 40.025-1.7073-0.45098-55.713-18.684 1.0147-36.465zm-53.828-75.073c0.33823-22.324 1.2885-76.152 2.8992-98.428l47.515 11.146 1.3368 43.214 1.063 77.135 0.32213 13.675-54.07-14.995c0.46709-10.582 0.75701-21.164 0.93419-31.746" fill="#fff"/><path d="m1022.9 380.47 56.212 16.622-75.894-214.6-52.379-13.256c-12.096 33.147-22.34 64.137-29.169 85.575-9.3902 29.491-16.864 57.646-24.514 87.507l55.906 15.382c4.6387-20.294 9.1164-37.673 13.497-56.583 4.5582-19.586 11.049-48.384 11.049-48.384z" fill="#fff"/><path d="m761.21 112.39 172.1 38.592-0.7248-51.654-98.428-20.278v-21.647l189.8 36.482s45.276 6.346 42.763-33.373l-4.1877-102.2c-0.5279-8.894-4.4057-36.579-70.048-38.817-75.46-3.1086-174.89-0.90197-202.56 2.7059 0 0-27.703-0.90197-27.703 23.467v38.785l69.21 11.742v-44.197s-1.514-11.726 14.866-11.726c16.348 0 46.806 0 55.6 1.7878 8.8103 1.8362 13.836 5.4279 13.836 13.562v82.917s0.17718 7.2319-13.836 5.4602l-139.98-28.267z" fill="#fcce1b"/><path d="m941.69 100.91-0.17717 2.5126-0.17717 10.888-0.11274 13.272-0.2255 13.272-0.27382 8.617c0.9664 0.43487 1.9811 0.82143 2.9958 1.1275 0.99861 0.32214 1.9972 0.57984 3.0442 0.78922 1.8684-4.6226 3.3502-9.4224 4.5099-14.432 1.0952-5.0253 2.2227-10.018 3.3824-14.947 1.2885 5.6695 2.6254 11.404 3.9783 17.202 1.3691 5.7823 3.3341 11.404 5.9112 16.848 1.208 0.4832 2.4482 0.88587 3.769 1.1758 1.2724 0.28992 2.5287 0.61205 3.7528 0.95029v-0.53152c-0.9664-8.5687-1.7073-17.121-2.1422-25.722-0.43489-8.5848-1.0792-17.202-1.8684-25.883l-7.393-1.3691c0.4671 4.1394 0.85366 8.311 1.1114 12.483 0.2416 4.1716 0.45099 8.3271 0.59595 12.418-0.99862-3.6401-1.965-7.3285-2.9153-11.017-0.9664-3.7367-2.1261-7.409-3.479-11.081l-2.8187-0.53153c-1.1114 3.1891-2.0939 6.4749-2.8831 9.8412-0.78922 3.3985-1.6429 6.7326-2.5448 10.018l0.16107-24.579z" fill="#fcce1b"/><path d="m983.45 108.85c-1.2241-0.12885-2.3838-0.2416-3.5112-0.33824-1.1275-0.0805-2.1261 0.28992-3.1086 1.0952-0.41877 0.53152-0.61205 1.1275-0.61205 1.8039v2.3194l-0.62816 39.107c0.0805 0.4832 0.20939 0.98251 0.45098 1.5462 0.19328 0.49931 0.56374 0.98251 1.0147 1.4335 2.1583 1.3852 4.381 2.416 6.6681 3.0442 2.2871 0.64426 4.5421 1.2885 6.7648 1.9006l2.0133 0.38656c0.91807 0.0483 1.7717 0.11274 2.6093 0.14496 0.85365 0.0322 1.5946-0.20938 2.271-0.69258 0.40267-0.53153 0.62817-1.2402 0.62817-2.0778v-2.6093c-0.41877-7.248-0.75702-14.448-0.9503-21.647-0.20938-7.1675-0.83754-14.351-1.8845-21.567-1.7556-1.3368-3.6723-2.2066-5.6856-2.6254-2.0133-0.45098-4.0267-0.85365-6.04-1.2241m5.0897 4.7514c0.41877 1.9489 0.61205 3.9139 0.61205 5.8628s0.28992 14.158 0.85365 36.578l-0.14495 0.53151-2.3838-0.28992c-0.75702-0.2577-1.5301-0.56372-2.3194-0.86975-0.80533-0.35435-1.4657-0.86976-2.0455-1.5946l-0.33825-1.5301v-38.688l-0.12885-1.0952c0.54762-0.43487 1.2402-0.4993 2.0939-0.2577 0.85365 0.22549 1.659 0.41877 2.4482 0.57984z" fill="#fcce1b"/><path d="m1001.9 112.44-0.161 2.4965 0.081 10.856 0.1288 13.304-0.032 21.889 5.734 1.8362c2.126-3.6401 3.7851-7.6345 4.9286-11.935 1.1597-4.3166 2.4-8.4882 3.769-12.547l0.5799 27.011 8.4398 2.2871v-0.54762c-0.8698-8.4721-1.5623-16.944-2.0617-25.4-0.5153-8.4399-1.1113-16.928-1.8522-25.416l-6.9098-1.3208 0.032 1.8684 0.4833 6.3299c-1.2725 3.6079-2.4644 7.2802-3.4952 10.985-1.063 3.7045-2.1583 7.3446-3.3018 10.936l-0.2095-3.6723 0.064-27.655z" fill="#fcce1b"/><path d="m1028.1 117.43-0.2416 2.2549 0.4832 11.146 0.4188 13.272 0.467 21.873c2.4966 0.98251 5.0092 1.804 7.5702 2.4643 2.5609 0.66036 5.0575 1.353 7.5378 2.0616l2.1745 0.40266c0.9664 0.0966 1.8684 0.14496 2.7704 0.17718 0.8857 0.0644 1.6428-0.25771 2.271-0.91809 0.4026-0.53151 0.5959-1.1919 0.5475-1.965-0.048-0.78922-0.064-1.5462-0.08-2.3032-1.7877-18.2-2.7541-29.379-2.8831-33.582-0.1449-4.1877-0.8859-7.4896-2.2066-9.8734-2.9636-1.6429-6.0721-2.6737-9.2773-3.0925-3.2053-0.41877-6.3944-1.063-9.5513-1.9167m12.305 6.2977c0.4833 0.45098 0.6926 1.0308 0.596 1.7073-0.064 0.66038 0 1.2724 0.2577 1.8362l-0.1933 0.27382 0.6121 6.1688-0.1288 0.37045 2.1743 31.939-3.189-0.46709-3.7851-1.4013-0.7893-12.112-1.0952-24.756-0.4349-5.0575c0.451-0.27382 1.0147-0.30604 1.6912-0.0966 0.6604 0.19327 1.2885 0.35434 1.9167 0.46708z" fill="#fcce1b"/><path d="m1054.2 122.48 0.2255 12.966 0.1771 0.43488 0.3543 12.676 0.2417 0.59594 0.7247 21.873c2.8348 1.0469 5.6857 1.965 8.601 2.7542 2.8992 0.80533 5.8145 1.5784 8.762 2.3355l-0.1127-2.2388-0.4832-2.0939-9.358-2.8026-0.7892-11.887-0.2899-4.9447 0.9825-0.20938 7.3768 2.4643 0.1128-0.51541-0.757-7.103-8.005-2.4321-1.0631-12.273-0.2416-4.5582c0.6282-0.2416 1.4013-0.25771 2.2872-0.0483 0.8536 0.22549 1.6911 0.41877 2.4482 0.54763l4.0749 0.91807 0.1289-1.2885-0.3382-2.2066z" fill="#fcce1b"/></g></svg>
