<svg width="164.36" height="118.84" version="1.1" viewBox="0 0 154.09 111.42" xmlns="http://www.w3.org/2000/svg" xmlns:xlink="http://www.w3.org/1999/xlink">
 <defs>
  <clipPath id="h">
   <path d="m418.84 269.02v-82.153c34.886-4.656 88.384-4.656 123.27 0v82.153c-17.444 2.325-39.539 3.488-61.636 3.488-22.095 0-44.192-1.163-61.635-3.488"/>
  </clipPath>
  <clipPath id="g">
   <path d="m418.84 182.21h123.27v90.297h-123.27z"/>
  </clipPath>
  <radialGradient id="a" cx="0" cy="0" r="1" gradientTransform="matrix(77.191 0 0 48.699 480.59 227.74)" gradientUnits="userSpaceOnUse">
   <stop stop-color="#1d71b8" offset="0"/>
   <stop stop-color="#023f86" offset="1"/>
  </radialGradient>
  <clipPath id="f">
   <path d="m452.34 261.15h56.315v-36.352h-56.315z"/>
  </clipPath>
  <clipPath id="l">
   <path d="m452.34 224.8h56.313v36.35h-56.313z"/>
  </clipPath>
  <clipPath id="e">
   <path d="m452.34 261.15h56.315v-36.352h-56.315z"/>
  </clipPath>
  <clipPath id="k">
   <path d="m452.34 224.8h56.313v36.35h-56.313z"/>
  </clipPath>
  <filter id="d" x="-.019595" y="-.030961" width="1.0392" height="1.0619" color-interpolation-filters="sRGB">
   <feGaussianBlur stdDeviation="0.44349595"/>
  </filter>
  <filter id="c" x="-.014779" y="-.063815" width="1.0296" height="1.1276" color-interpolation-filters="sRGB">
   <feGaussianBlur stdDeviation="2.5570908"/>
  </filter>
  <filter id="b" x="-.0096357" y="-.015902" width="1.0193" height="1.0318" color-interpolation-filters="sRGB">
   <feGaussianBlur stdDeviation="0.42838704"/>
  </filter>
 </defs>
 <g transform="translate(5e-6 -940.95)">
  <g transform="matrix(1.25 0 0 -1.25 -247.65 1296.6)">
   <g transform="translate(-220.72 12.019)">
    <g clip-path="url(#h)">
     <g clip-path="url(#g)">
      <path d="m418.84 269.02v-82.153c34.886-4.656 88.384-4.656 123.27 0v82.153c-17.444 2.325-39.539 3.488-61.636 3.488-22.095 0-44.192-1.163-61.635-3.488" fill="url(#a)"/>
     </g>
    </g>
   </g>
   <g filter="url(#b)">
    <g transform="translate(0 -1.5002)" filter="url(#d)">
     <g transform="translate(-220.72 12.019)">
      <g clip-path="url(#e)" opacity=".3">
       <g clip-path="url(#k)"></g>
      </g>
     </g>
     <path d="m243.32 258.32h7.866l2.667 2.431h-7.893z"/>
     <path d="m237.95 253.47h7.874l2.647 2.425h-7.865z"/>
     <g transform="translate(232.6 248.61)">
      <path d="m0 0h6.536c1.86 0 4.009 2.431 4.009 2.431h-7.896z"/>
     </g>
     <g transform="translate(286.92 251.83)">
      <path d="m0 0-0.022 0.57-16.896 13.369 1.421 7.501s-1.5 0.055-2.486-0.18c-2.014-0.483-7.233-4.988-7.233-4.988s-4.877-1.908-5.932-2.495h-3.382c-1.606 0-3.661-2.434-3.661-2.434h7.785l0.192 0.108c1.123 0.643 6.422 2.791 6.422 2.791s4.06 3.527 5.593 4.566l-1.135-6.221 4.82-3.627h-2.982l0.185-1.056 6.237-1.684 8.597-6.863c-0.025-1.09-0.38-2.849-0.75-3.311-0.342-0.429-1.794-0.589-3.256-0.88l-2.403 2.15-0.451 0.017c-0.05 4e-3 -5.217 0.193-9.907 0.487-3.607 0.229-4.26 1.662-4.265 1.662v-2e-3l-1.419 5.198-2.109-11.842 3.449-4.604s0.475-0.598 0.952-0.851c0.585-0.314 1.408-0.314 1.408-0.314h1.596l-4.788 6.644 0.491 2.855c0.972-0.584 2.409-1.084 4.531-1.221 3.911-0.246 8.162-0.418 9.523-0.47l2.631-2.355 0.58 0.095c1.004 0.156 4.206 0.417 5.379 1.884 1.186 1.486 1.305 4.907 1.285 5.501"/>
     </g>
    </g>
    <g transform="matrix(.25695 0 0 .25695 162.58 118.57)" filter="url(#c)">
     <g transform="matrix(3.8917 0 0 3.8917 -710.55 -467.29)">
      <g transform="translate(232.15 227.93)">
       <path d="m0 0-5.339 0.321s0.065 1.215 0.288 2.461c0.224 1.214 0.543 2.333 0.543 2.333h16.752s-0.064-1.024-0.256-2.174c-0.223-1.245-0.575-2.62-0.575-2.62l-5.531-0.321-3.324-19.053s-1.439-0.128-2.814-0.128c-1.694 0-3.068 0.128-3.068 0.128z"/>
      </g>
      <g transform="translate(255.2 225.18)">
       <path d="m0 0c0 2.397-0.927 3.389-3.421 3.389-3.996 0-5.978-5.435-5.978-11.414 0-2.461 0.863-3.773 3.325-3.773 4.827 0 6.074 7.386 6.074 11.798m-14.77-8.312c0 10.132 3.965 16.463 12.181 16.463 5.53 0 8.022-2.366 8.022-7.671 0-7.929-3.068-17.04-12.338-17.04-5.531 0-7.865 3.005-7.865 8.248"/>
      </g>
      <g transform="translate(265.04 227.93)">
       <path d="m0 0-5.338 0.321s0.064 1.215 0.288 2.461c0.224 1.214 0.542 2.333 0.542 2.333h16.752s-0.065-1.024-0.256-2.174c-0.224-1.245-0.576-2.62-0.576-2.62l-5.531-0.321-3.323-19.053s-1.44-0.128-2.814-0.128c-1.695 0-3.069 0.128-3.069 0.128z"/>
      </g>
      <g transform="translate(288.09 225.18)">
       <path d="m0 0c0 2.397-0.928 3.389-3.421 3.389-3.996 0-5.979-5.435-5.979-11.414 0-2.461 0.864-3.773 3.325-3.773 4.828 0 6.075 7.386 6.075 11.798m-14.77-8.312c0 10.132 3.965 16.463 12.181 16.463 5.53 0 8.023-2.366 8.023-7.671 0-7.929-3.069-17.04-12.339-17.04-5.531 0-7.865 3.005-7.865 8.248"/>
      </g>
     </g>
     <path d="m456.28 419.76-20.774 1.2492s0.24907 4.7285 1.1208 9.5776c0.87175 4.7246 2.1093 9.0794 2.1093 9.0794h65.194s-0.25296-3.9851-0.9963-8.4606c-0.87174-4.8452-2.2416-10.196-2.2416-10.196l-21.525-1.2492-12.932-74.149s-5.6041-0.49814-10.951-0.49814c-6.5965 0-11.944 0.49814-11.944 0.49814z"/>
     <g transform="matrix(1.0002 0 0 -1.0002 501.49 447.06)">
      <path d="m6.35 8.43c7.44-1.03 14.94-1.65 22.45-1.77 0.39 23.88 1.51 47.84 5.05 71.49 11.04-23.33 21.62-46.95 29.72-71.47 7.46 0.08 14.94 0.5 22.33 1.51-11.27 32.31-25.64 63.52-42.59 93.24-8.94 0.46-17.91 0.62-26.85-0.03-7.55-30.35-10.2-61.75-10.11-92.97z"/>
     </g>
    </g>
   </g>
   <g transform="translate(-220.72 12.019)">
    <g clip-path="url(#f)" opacity=".3">
     <g clip-path="url(#l)"></g>
    </g>
   </g>
   <path d="m243.32 258.32h7.866l2.667 2.431h-7.893z" fill="#fff"/>
   <path d="m237.95 253.47h7.874l2.647 2.425h-7.865z" fill="#fff"/>
   <g transform="translate(232.6 248.61)">
    <path d="m0 0h6.536c1.86 0 4.009 2.431 4.009 2.431h-7.896z" fill="#fff"/>
   </g>
   <g transform="translate(286.92 251.83)">
    <path d="m0 0-0.022 0.57-16.896 13.369 1.421 7.501s-1.5 0.055-2.486-0.18c-2.014-0.483-7.233-4.988-7.233-4.988s-4.877-1.908-5.932-2.495h-3.382c-1.606 0-3.661-2.434-3.661-2.434h7.785l0.192 0.108c1.123 0.643 6.422 2.791 6.422 2.791s4.06 3.527 5.593 4.566l-1.135-6.221 4.82-3.627h-2.982l0.185-1.056 6.237-1.684 8.597-6.863c-0.025-1.09-0.38-2.849-0.75-3.311-0.342-0.429-1.794-0.589-3.256-0.88l-2.403 2.15-0.451 0.017c-0.05 4e-3 -5.217 0.193-9.907 0.487-3.607 0.229-4.26 1.662-4.265 1.662v-2e-3l-1.419 5.198-2.109-11.842 3.449-4.604s0.475-0.598 0.952-0.851c0.585-0.314 1.408-0.314 1.408-0.314h1.596l-4.788 6.644 0.491 2.855c0.972-0.584 2.409-1.084 4.531-1.221 3.911-0.246 8.162-0.418 9.523-0.47l2.631-2.355 0.58 0.095c1.004 0.156 4.206 0.417 5.379 1.884 1.186 1.486 1.305 4.907 1.285 5.501" fill="#fff"/>
   </g>
   <g transform="matrix(.25695 0 0 .25695 162.58 120.07)">
    <g transform="matrix(3.8917 0 0 3.8917 -710.55 -467.29)">
     <g transform="translate(232.15 227.93)">
      <path d="m0 0-5.339 0.321s0.065 1.215 0.288 2.461c0.224 1.214 0.543 2.333 0.543 2.333h16.752s-0.064-1.024-0.256-2.174c-0.223-1.245-0.575-2.62-0.575-2.62l-5.531-0.321-3.324-19.053s-1.439-0.128-2.814-0.128c-1.694 0-3.068 0.128-3.068 0.128z" fill="#ffd600"/>
     </g>
     <g transform="translate(255.2 225.18)">
      <path d="m0 0c0 2.397-0.927 3.389-3.421 3.389-3.996 0-5.978-5.435-5.978-11.414 0-2.461 0.863-3.773 3.325-3.773 4.827 0 6.074 7.386 6.074 11.798m-14.77-8.312c0 10.132 3.965 16.463 12.181 16.463 5.53 0 8.022-2.366 8.022-7.671 0-7.929-3.068-17.04-12.338-17.04-5.531 0-7.865 3.005-7.865 8.248" fill="#ffd600"/>
     </g>
     <g transform="translate(265.04 227.93)">
      <path d="m0 0-5.338 0.321s0.064 1.215 0.288 2.461c0.224 1.214 0.542 2.333 0.542 2.333h16.752s-0.065-1.024-0.256-2.174c-0.224-1.245-0.576-2.62-0.576-2.62l-5.531-0.321-3.323-19.053s-1.44-0.128-2.814-0.128c-1.695 0-3.069 0.128-3.069 0.128z" fill="#ffd600"/>
     </g>
     <g transform="translate(288.09 225.18)">
      <path d="m0 0c0 2.397-0.928 3.389-3.421 3.389-3.996 0-5.979-5.435-5.979-11.414 0-2.461 0.864-3.773 3.325-3.773 4.828 0 6.075 7.386 6.075 11.798m-14.77-8.312c0 10.132 3.965 16.463 12.181 16.463 5.53 0 8.023-2.366 8.023-7.671 0-7.929-3.069-17.04-12.339-17.04-5.531 0-7.865 3.005-7.865 8.248" fill="#ffd600"/>
     </g>
    </g>
    <g fill="#fff">
     <path d="m456.28 419.76-20.774 1.2492s0.24907 4.7285 1.1208 9.5776c0.87175 4.7246 2.1093 9.0794 2.1093 9.0794h65.194s-0.25296-3.9851-0.9963-8.4606c-0.87174-4.8452-2.2416-10.196-2.2416-10.196l-21.525-1.2492-12.932-74.149s-5.6041-0.49814-10.951-0.49814c-6.5965 0-11.944 0.49814-11.944 0.49814z"/>
     <g transform="matrix(1.0002 0 0 -1.0002 501.49 447.06)">
      <path d="m6.35 8.43c7.44-1.03 14.94-1.65 22.45-1.77 0.39 23.88 1.51 47.84 5.05 71.49 11.04-23.33 21.62-46.95 29.72-71.47 7.46 0.08 14.94 0.5 22.33 1.51-11.27 32.31-25.64 63.52-42.59 93.24-8.94 0.46-17.91 0.62-26.85-0.03-7.55-30.35-10.2-61.75-10.11-92.97z" fill="#fff"/>
     </g>
    </g>
   </g>
  </g>
 </g>
</svg>
