<svg enable-background="new 0 0 1452.7 176.3" version="1.1" viewBox="0 0 1452.7 176.3" xml:space="preserve" xmlns="http://www.w3.org/2000/svg">
<g fill="#0069FA">
	<path d="m332.2 3.3h-110.8c-3.4 0-7.7 2.3-9.6 5.1l-23.8 35.4h135.2c5.4 0.1 10.6 2.8 11.2 9.2 0.8 7.9-7.7 15.1-15.5 15.1h-60.4c-3.4 0-7.7 2.3-9.6 5.1l-23.9 35.2h87c33.9 0 69-29.5 67.8-62-1.2-25.6-23.8-43.2-47.6-43.1"/>
	<path d="m151.5 43.7h-151.5l23.9-35.3c1.9-2.8 6.2-5.1 9.5-5.1h151.5l-23.9 35.3c-1.8 2.8-6.1 5.1-9.5 5.1"/>
	<path d="m63.8 160.3 9.7-92.3h45l-9.8 93.2 59.4-88.1c1.9-2.8 6.2-5.1 9.6-5.1h43.4l-67.5 100c-1.9 2.9-6.2 5.1-9.6 5.1h-68.6c-7.2 0.1-12.4-5.7-11.6-12.8"/>
	<path d="m323.5 173.2h-142.2l23.9-35.4c1.9-2.8 6.2-5.1 9.6-5.1h142.2l-23.9 35.3c-1.9 2.9-6.2 5.2-9.6 5.2"/>
</g>
<g fill="#0069FA">
	<path d="m1027.1 84.8c21.1 0 35-9 35-23.5 0-4.6-1.5-8.3-4.4-11.4-3.9-3.9-10.9-5.8-20.9-5.8h-25.5l-11.2 40.8h27zm-96.2 81.8 44-163.5h64.1c28.4 0 47.1 6.3 58.6 17.7 9 9 13.1 21.1 13.1 34.7 0 28.4-16.3 50.8-51 60.2 0 0 6.7 16.6 13.7 22.1 7.7 6 16.1 7.1 20.2 7.1l-7.4 27.5s-8.6 2.7-23.1 2.7c-14.3 0-31.9-8.6-40-26.6-3.3-7.3-11.7-26.9-11.7-26.9h-20.9l-13.8 51.5h-40.6c-3.9 0-6.1-2.9-5.2-6.5"/>
	<path d="m659.4 87.7c23.3 0 36.7-10.4 36.7-26.5 0-4.6-1.7-8.8-4.9-11.9-4.6-4.6-11.4-6.5-20.2-6.5h-17.5l-11.9 44.9h17.8zm13.3-84.5c27.7 0 45.9 5.6 58.3 18 9 9 13.4 20.6 13.4 34.7 0 42.3-34.3 68.5-84.5 68.5h-27.9l-13.1 48.8h-40.6c-3.7 0-6-2.9-5-6.5l43.8-163.6 55.6 0.1z"/>
	<path d="m886.6 79.9c0-21.6-13.1-37.6-37.2-37.6-29.6 0-49.1 28.9-49.1 54.2 0 21.6 13.1 37.6 37.2 37.6 29.9 0 49.1-28.9 49.1-54.2m-134.3 20.2c0-51.8 42.3-100.1 101.3-100.1 48.3 0 81.1 33 81.1 76.3 0 51.7-42.3 100-101.3 100-48.3 0-81.1-33-81.1-76.2"/>
	<path d="m1126.6 44.4c-3.7 0-6-2.9-5-6.5l9.4-34.8h142.2c3.7 0 6 2.9 5 6.5l-9.2 34.8h-51l-34.5 128.7h-40.6c-3.7 0-6-2.9-5-6.5l33-122.2h-44.3z"/>
	<path d="m436.5 124c5.5-5.7 14.7-5.8 21.2-1.2 13.1 9.3 26.8 14 41.3 14 11.2 0 19.2-4.9 19.2-12.6 0-6.6-4.6-10-28.4-19.2-27-10.2-44.2-21.8-44.2-46.9 0-33.8 30.6-57.8 72.1-57.8 29.9 0 53.4 9.7 69.7 25.3l-19.5 21.8c-5.3 5.9-14.4 6.3-21.1 2.1-10-6.3-21.1-10.1-33.4-10.1-11.4 0-18.5 5.3-18.5 12.2 0 6.8 5.1 9.2 28.4 18.5 26.2 10 44.2 21.8 44.2 47.3 0 35-30.1 58.8-72.4 58.8-33.3 0-60.7-11.4-78.9-31.1l20.3-21.1z"/>
</g>
<g transform="matrix(9.3926 0 0 9.3926 -38.36 -144.55)" fill="#0069FA">
	<path d="m144.6 15.7h2.2l-0.8 3h2.3l0.8-3h2.2l-2.1 7.9h-2.2l0.8-3.1h-2.3l-0.8 3.1h-2.2l2.1-7.9z"/>
	<path d="m153.9 21.9c1.5 0 2.5-1.3 2.6-2.7 0.1-1.2-0.4-1.7-1.4-1.7h-0.8l-1.2 4.4h0.8zm-1.4-6.2h2.7c2.3 0 3.7 1.1 3.5 3.4-0.2 2.5-2 4.5-5.5 4.5h-2.8l2.1-7.9z"/>
</g>
</svg>
