<svg width="800" height="224.58" version="1.1" viewBox="0 0 800 224.58" xml:space="preserve" xmlns="http://www.w3.org/2000/svg"><path class="__2mP6Ef___st0 " d="m303.7 4.1943e-6 -151.85 224.58h17.582l151.85-224.58z" fill="#ff7bac" stroke-width="7.992"/><g fill="#fff"><g transform="matrix(7.992 0 0 7.992 0 4.1943e-6)"><path class="__2mP6Ef___lorry " d="m22 5.6h-7.3c-0.3 0-0.5 0.1-0.6 0.3l-1.6 2.3h9c0.4 0 0.7 0.2 0.7 0.6 0 0.5-0.5 1-1 1h-4c-0.2 0-0.5 0.1-0.6 0.3l-1.6 2.3h5.8c2.2 0 4.6-2 4.5-4.1-0.2-1.5-1.7-2.7-3.3-2.7m-12 2.7h-10l1.6-2.3c0.1-0.2 0.4-0.4 0.6-0.4h10l-1.5 2.4c-0.2 0.2-0.4 0.3-0.7 0.3"/><path class="__2mP6Ef___lorry " d="m4.2 16 0.6-6.1h3l-0.7 6.2 3.9-5.8c0.2-0.2 0.4-0.3 0.6-0.3h2.9l-4.5 6.6c-0.2 0.2-0.4 0.3-0.6 0.3h-4.4c-0.4 0-0.8-0.3-0.8-0.7v-0.2m17.2 0.9h-9.4l1.6-2.3c0.2-0.2 0.4-0.3 0.6-0.3h9.4l-1.6 2.3c-0.1 0.2-0.3 0.3-0.6 0.3"/></g><path class="__2mP6Ef___lorry " d="m366.03 148.65c0-31.169 25.574-60.739 61.538-60.739 29.57 0 49.55 19.98 49.55 46.354 0 31.169-25.574 60.739-61.538 60.739-29.57 0.79921-49.55-19.98-49.55-46.354m81.518-11.988c0-12.787-7.992-23.177-22.378-23.177-18.382 0-29.57 17.582-29.57 32.767 0 12.787 7.992 23.177 22.378 23.177 18.382 0 29.57-17.582 29.57-32.767m-114.29-42.358-19.98 73.526h49.55l-5.5944 20.779c-0.7992 2.3976-2.3976 3.996-4.7952 3.996h-69.53c-2.3976 0-3.996-1.5984-3.1968-3.996l26.374-99.101h24.775c1.5984 0.79921 2.3976 2.3976 2.3976 4.7952m382.02-3.996c4.7952 0 9.5904 3.996 11.189 8.7912l7.992 30.37 25.574-31.968c3.1968-3.996 9.5904-7.1928 14.386-7.1928h25.574l-57.542 66.334-9.5904 36.763h-24.775c-2.3976 0-3.996-1.5984-3.1968-3.996l9.5904-35.964-20.779-63.137zm-213.39 0h39.161c17.582 0 28.771 3.996 35.165 10.39 5.5944 5.5944 7.992 12.787 7.992 20.779 0 17.582-9.5904 31.169-31.169 36.763l15.984 35.165h-31.169l-13.586-31.169h-12.787l-7.992 31.169h-24.775c-1.5984 0-3.1968-1.5984-3.1968-3.1968v-0.7992zm31.968 49.55c12.787 0 21.578-5.5944 21.578-14.386 0-3.1968-0.79921-4.7952-2.3976-7.1928-2.3976-2.3976-6.3936-3.1968-12.787-3.1968h-15.185l-6.3936 24.775zm73.526-49.55h39.161c17.582 0 28.771 3.996 35.165 10.39 5.5944 5.5944 7.992 12.787 7.992 20.779 0 17.582-9.5904 31.169-31.169 36.763l15.984 35.165h-31.169l-13.586-31.169h-12.787l-8.7912 31.169h-24.775c-1.5984 0-3.1968-1.5984-3.1968-3.1968v-0.7992zm31.968 49.55c12.787 0 21.578-5.5944 21.578-14.386 0-3.1968-0.7992-4.7952-2.3976-7.1928-2.3976-2.3976-6.3936-3.1968-12.787-3.1968h-15.185l-6.3936 24.775z" stroke-width="7.992"/></g></svg>
