<svg class="page-1bp09s7" width="800" height="112.81" fill="none" preserveAspectRatio="xMinYMid" version="1.1" viewBox="0 0 800 112.81" xmlns="http://www.w3.org/2000/svg">
 <path d="m43.649-3.6401e-6c25.54 0 43.65 18.438 43.65 45.277v11.126h-22.114v-11.126c0-14.351-8.7657-23.297-21.536-23.297-12.77 0-21.535 8.9466-21.535 23.297h-22.114c0-26.839 18.065-45.277 43.649-45.277zm-43.649 112.81h87.254v-21.662h-60.29l31.013-34.696h-26.964l-31.013 34.651zm129.74-44.201h14.167c1.2547 6.3125 7.4395 10.445 16.049 10.445 8.1558 0 12.997-2.8383 12.997-7.5022 0-12.997-40.077-3.5696-40.077-31.39 0-11.163 9.4153-19.673 24.472-19.673 14.883 0 25.362 8.6013 28.156 22.421h-14.238c-1.1658-5.8584-6.2782-9.6094-13.9-9.6094-6.6341 0-10.679 2.9245-10.679 6.8619 0 13.27 40.081 3.4785 40.081 31.39 0 12.443-10.403 20.313-26.808 20.313-15.876-0.01362-27.351-8.9828-30.221-23.256zm64.193-29.101h12.552v10.709h0.9879c3.2259-8.3286 9.5041-11.626 17.037-11.626 12.369 0 21.068 10.25 21.068 26.63 0 16.29-8.699 26.63-21.068 26.63-7.5331 0-13.793-3.3834-17.037-11.621h-0.9879v31.39h-12.552zm25.104 41.181c7.622 0 12.552-6.0401 12.552-15.468s-4.9301-15.463-12.552-15.463-12.552 5.9493-12.552 15.463c0 9.4278 4.9526 15.468 12.552 15.468zm32.099-15.468c0-15.463 10.759-26.63 26.697-26.63 15.867 0 26.626 11.167 26.626 26.63 0 15.377-10.759 26.63-26.626 26.63-15.938 0-26.697-11.24-26.697-26.63zm26.697 15.559c7.7108 0 13.35-5.7676 13.35-15.559 0-9.8818-5.6476-15.554-13.35-15.554-7.7999 0-13.451 5.6723-13.451 15.554 5e-3 9.791 5.6731 15.559 13.473 15.559zm33.82-41.272h12.552v10.709h0.98762c3.2268-8.147 9.3455-10.709 15.867-10.709h3.6752c4.6628 0 5.9172-1.2805 5.9172-6.0398v-7.5024h12.374v13.542h12.107v10.799h-12.107v28.824h12.107v11.807h-10.94c-9.8591 0-13.54-3.8463-13.54-13.819v-26.794h-14.63c-7.444 0-11.834 5.3045-11.834 14.274v26.34h-12.535zm93.687-18.12h28.425c14.522 0 24.026 8.7874 24.026 22.33s-9.5044 22.602-24.026 22.602h-15.061v24.619h-13.35zm28.246 32.121c6.5444 0 10.759-3.8421 10.759-9.7913 0-5.7673-4.2144-9.5367-10.759-9.5367h-14.882v19.31zm30.84-14.001h12.552v10.709h0.98194c3.2268-8.147 9.4164-10.709 15.961-10.709h3.048v11.808h-8.1592c-7.444 0-11.837 5.3087-11.837 14.369v25.259h-12.552zm34.158 25.713c0-15.463 10.132-26.63 26.092-26.63 14.973 0 26.359 10.899 25.363 31.026h-37.93c1.3367 7.1344 6.008 11.163 12.731 11.163 5.202 0 8.7864-2.198 10.94-6.0401h13.986c-3.3148 10.25-12.013 17.112-24.917 17.112-16.134 0-26.265-11.24-26.265-26.63zm38.554-4.3915c-1.2544-7.1389-5.8292-11.163-12.459-11.163-6.5444 0-11.207 4.0237-12.55 11.163zm20.082-21.322h12.552v10.709h0.88829c2.5116-8.147 7.8016-11.626 14.973-11.626 7.7108 0 13.628 5.586 14.794 11.626h0.89113c2.5144-8.147 7.7988-11.626 15.067-11.626 11.295 0 18.018 8.4197 18.018 23.247v29.101h-12.552v-29.01c0-7.5976-3.4964-12.171-9.6804-12.171-6.4564 0-10.132 5.2134-10.132 12.262v28.919h-12.459v-28.919c0-7.6886-3.3204-12.262-9.686-12.262-6.4564 0-10.132 5.2134-10.132 12.534v28.647h-12.552zm92.257-20.59c1.3906-0.0098 2.7557 0.40197 3.9192 1.1834 1.1607 0.78141 2.0717 1.8973 2.6138 3.2065 0.54206 1.3092 0.68963 2.753 0.42854 4.1486-0.26394 1.3957-0.92518 2.6805-1.9043 3.6919-0.97626 1.0115-2.2278 1.7045-3.59 1.9908-1.3651 0.28635-2.7812 0.15354-4.0725-0.38199-1.2884-0.53524-2.3952-1.4488-3.1757-2.6254-0.78045-1.1766-1.2005-2.563-1.2118-3.9841-0.0113-1.9047 0.71801-3.7361 2.0292-5.0919 1.3112-1.3557 3.0962-2.1247 4.9636-2.1379zm-6.1868 20.59h12.459v51.431h-12.459zm21.43 29.01v-29.01h12.459v27.248c0 8.9691 4.3904 13.91 11.741 13.91 7.6228 0 12.107-5.3998 12.107-14.46v-26.699h12.552v51.431h-12.552v-10.708h-0.98762c-3.2239 8.1424-9.5016 11.621-16.225 11.621-10.938 0-19.094-8.6922-19.094-23.334zm58.096-29.01h12.552v10.709h0.89113c2.5116-8.147 7.7988-11.626 14.97-11.626 7.7108 0 13.631 5.586 14.794 11.626h0.89113c2.5088-8.147 7.7988-11.626 15.061-11.626 11.298 0 18.021 8.4197 18.021 23.247v29.101h-12.552v-29.01c0-7.5976-3.4936-12.171-9.6832-12.171-6.4564 0-10.132 5.2134-10.132 12.262v28.919h-12.459v-28.919c0-7.6886-3.3148-12.262-9.6803-12.262-6.4564 0-10.132 5.2134-10.132 12.534v28.647h-12.544z" fill="#100118" stroke-width="2.838"/>
</svg>
