<svg enable-background="new 0 0 969.1 358" version="1.1" viewBox="0 0 969.1 358" xml:space="preserve" xmlns="http://www.w3.org/2000/svg">
<g transform="matrix(2.1068 0 0 2.1068 0 .00016)" fill="#D21E1E">
	<path d="M332.2,0H221.4c-3.4,0-7.7,2.3-9.6,5.1l-23.8,35.4h135.2c5.4,0.1,10.6,2.8,11.2,9.1   c0.8,7.9-7.7,15.1-15.5,15.1h-60.4c-3.4,0-7.7,2.3-9.6,5.1L225,105.2h87c33.9,0,69-29.5,67.8-62C378.6,17.6,356,0,332.2,0"/>
	<path d="M151.5,40.5H0L23.9,5.1C25.7,2.3,30,0,33.4,0h151.5l-23.9,35.3C159.2,38.2,154.9,40.5,151.5,40.5"/>
	<path d="m63.8 157.1 9.7-92.3h45l-9.8 93.2 59.4-88.1c1.9-2.8 6.2-5.1 9.6-5.1h43.4l-67.5 100.1c-1.9 2.9-6.2 5.1-9.6 5.1h-68.6c-7.2-0.1-12.4-5.8-11.6-12.9"/>
	<path d="m323.5 169.9h-142.2l23.9-35.4c1.9-2.8 6.2-5.1 9.6-5.1h142.2l-23.9 35.3c-1.9 3-6.2 5.2-9.6 5.2"/>
</g>
<g transform="translate(0 188.09)" fill="#D21E1E">
	<path d="m840.4-188.1h20.1l-7.1 27h20.8l7.3-27h20l-18.9 71.6h-20.1l7.4-28h-20.9l-7.4 28h-20.1l18.9-71.6z"/>
	<path d="m912.6-188.1-19 71.6h25.4c31.5 0 47.9-17.4 49.9-40.6 1.8-21-10.9-31-31.9-31h-24.4zm15.9 15.6h6.9c9.5 0 13.9 5 13 15.7-1.2 13.2-10.2 24.6-23.7 24.6h-7l10.8-40.3z"/>
</g>
</svg>
