<svg enable-background="new 0 0 800 358" version="1.1" viewBox="0 0 800 358" xml:space="preserve" xmlns="http://www.w3.org/2000/svg">
<g transform="scale(2.1068)" fill="#D21E1E">
	<path d="M332.2,0H221.4c-3.4,0-7.7,2.3-9.6,5.1l-23.8,35.4h135.2c5.4,0.1,10.6,2.8,11.2,9.1   c0.8,7.9-7.7,15.1-15.5,15.1h-60.4c-3.4,0-7.7,2.3-9.6,5.1L225,105.2h87c33.9,0,69-29.5,67.8-62C378.6,17.6,356,0,332.2,0"/>
	<path d="M151.5,40.5H0L23.9,5.1C25.7,2.3,30,0,33.4,0h151.5l-23.9,35.3C159.2,38.2,154.9,40.5,151.5,40.5"/>
	<path d="m63.8 157.1 9.7-92.3h45l-9.8 93.2 59.4-88.1c1.9-2.8 6.2-5.1 9.6-5.1h43.4l-67.5 100.1c-1.9 2.9-6.2 5.1-9.6 5.1h-68.6c-7.2-0.1-12.4-5.8-11.6-12.9"/>
	<path d="m323.5 169.9h-142.2l23.9-35.4c1.9-2.8 6.2-5.1 9.6-5.1h142.2l-23.9 35.3c-1.9 3-6.2 5.2-9.6 5.2"/>
</g>
</svg>
