<svg width="800" height="146.05" version="1.1" viewBox="0 0 800 146.05" xml:space="preserve" xmlns="http://www.w3.org/2000/svg">
<g transform="translate(0 -63.347)" fill="#d21e1e"><path class="st0" d="m738.92 143.84-24.272-68.772c-2.232-6.4169-9.5555-11.648-16.391-11.648h-28.527l-37.664 140.33c-0.83698 3.0689 1.116 5.5799 4.2547 5.5799h34.247l22.32-83.349 29.922 79.653s0.0697 0.279 0.279 0.69749c1.0462 2.5807 3.7664 2.9992 4.8824 2.9992h34.177l37.664-140.33c0.83698-3.0689-1.116-5.5799-4.2547-5.5799h-35.293z" stroke-width=".69748"/><path class="st0" d="m545.92 63.347c6.8354 0 13.74 5.3706 15.484 11.927l11.23 42.686 36.269-44.988c4.2546-5.3009 13.252-9.6253 20.088-9.6253h35.99l-81.466 93.812-13.95 52.102h-34.874c-3.2084 0-5.0916-2.5109-4.2547-5.5799l13.74-50.916-29.504-89.418z" stroke-width=".69748"/><g transform="matrix(.69748 0 0 .69748 0 63.347)">
	<path class="st0" d="m733 0-11.6 42.8c-1.2 4.4-5.9 8-10.5 8h-100.7l-9.6 35.6h98.6l-10.7 40.1c-1.2 4.4-5.9 8-10.4 8h-90.3l-20 74.7h-50c-4.6 0-7.3-3.6-6.1-8l53.9-201.2z" fill="#d21e1e"/>
</g><g transform="matrix(.69748 0 0 .69748 0 63.347)">
	<path class="st0" d="m411.7 61.2c0.9 9.7-9.4 18.6-19 18.6h-74.4c-4.2 0-9.5 2.8-11.8 6.3l-29.5 43.5h107.1c41.7 0 85-36.3 83.4-76.3-1.2-31.6-29.1-53.2-58.5-53.2h-136.4c-4.2 0-9.5 2.8-11.8 6.3l-29.4 43.5h166.5c6.7 0.1 13 3.4 13.8 11.3z"/>
	<path class="st0" d="m198.4 43.6 29.4-43.5h-186.6c-4.2 0-9.5 2.8-11.8 6.3l-29.4 43.5h186.5c4.2 0 9.5-2.8 11.9-6.3z"/>
	<path class="st0" d="m218.8 79.8c-4.2 0-9.4 2.8-11.8 6.3l-73.2 108.5 12.1-114.7h-55.4l-11.9 113.6c-0.9 8.8 5.5 15.9 14.3 15.9h84.6c4.2 0 9.4-2.8 11.8-6.3l83.1-123.2h-53.6z"/>
	<path class="st0" d="m410.2 203 29.4-43.5h-175.2c-4.1 0-9.4 2.8-11.8 6.2l-29.4 43.6h175.1c4.3 0 9.6-2.8 11.9-6.3z"/>
</g></g>
</svg>
