<svg class="page-1bp09s7" width="800" height="203.89" fill="none" preserveAspectRatio="xMinYMid" version="1.1" viewBox="0 0 800 203.89" xmlns="http://www.w3.org/2000/svg">
 <path d="m79.055-3.3252e-6c46.256 0 79.055 33.326 79.055 81.837v20.11h-40.051v-20.11c0-25.938-15.875-42.109-39.003-42.109s-39.003 16.171-39.003 42.109h-40.051c0-48.511 32.718-81.837 79.055-81.837zm-79.055 203.89h158.03v-39.153h-109.19l56.168-62.712h-48.835l-56.168 62.63zm234.98-79.538h25.707c2.2729 11.434 13.498 18.879 29.116 18.879 14.804 0 23.588-5.1383 23.588-13.585 0-23.533-72.721-6.4683-72.721-56.842 0-20.217 17.084-35.624 44.419-35.624 27.004 0 46.039 15.596 51.084 40.598h-25.868c-2.1195-10.605-11.387-17.401-25.215-17.401-12.04 0-19.34 5.3024-19.34 12.427 0 24.026 72.72 6.2955 72.72 56.842 0 22.531-18.865 36.781-48.642 36.781-28.817-0.0246-49.641-16.261-54.847-42.076zm116.49-52.73h22.773v19.388h1.7892c5.8585-15.078 17.246-21.046 30.913-21.046 22.451 0 38.23 18.559 38.23 48.224 0 29.492-15.778 48.216-38.23 48.216-13.699 0-25.054-6.1318-30.913-21.046h-1.7892v56.842h-22.773zm45.555 74.564c13.829 0 22.774-10.934 22.774-27.999s-8.9449-28.007-22.774-28.007c-13.829 0-22.782 10.769-22.782 28.007 0 17.065 8.9531 27.999 22.782 27.999zm58.239-27.999c0-28.007 19.526-48.224 48.481-48.224 28.799 0 48.353 20.217 48.353 48.224 0 27.834-19.518 48.216-48.353 48.216-28.931 0-48.481-20.381-48.481-48.216zm48.481 28.171c13.99 0 24.239-10.441 24.239-28.171 0-17.902-10.249-28.171-24.239-28.171-14.151 0-24.402 10.269-24.402 28.171 0 17.73 10.251 28.171 24.402 28.171zm61.325-74.736h22.78v19.388h1.7902c5.8579-14.775 16.922-19.388 28.792-19.388h6.6735c8.4637 0 10.736-2.3232 10.736-10.942v-13.585h22.452v24.527h22.016v19.552h-22.011v52.197h22.011v21.342h-19.892c-17.897 0-24.57-6.9608-24.57-25.019v-48.519h-26.509c-13.506 0-21.477 9.6122-21.477 25.848v47.723h-22.79zm166.12 71.42h24.401v-67.776h-1.7902c-4.5499 9.4481-9.4332 12.263-18.872 12.263h-3.7394v-22.868h3.7394c13.988 0 20.662-6.7966 20.662-20.882v-4.9743h23.268v104.25h21.144v21.703h-68.813z" fill="#fff" stroke-width="5.1295"/>
</svg>
