<svg class="page-1bp09s7" width="800" height="198.29" fill="none" preserveAspectRatio="xMinYMid" version="1.1" viewBox="0 0 800 198.29" xmlns="http://www.w3.org/2000/svg">
 <path d="m76.55-1.1035e-6c44.79 0 76.549 32.41 76.549 79.588v19.558h-38.782v-19.558c0-25.225-15.373-40.951-37.767-40.951-22.395 0-37.768 15.726-37.768 40.951h-38.782c0-47.178 31.681-79.588 76.55-79.588zm-76.55 198.29h153.02v-38.077h-105.73l54.388-60.988h-47.287l-54.388 60.908zm227.53-77.352h24.892c2.2005 11.12 13.071 18.36 28.193 18.36 14.335 0 22.84-4.997 22.84-13.219 0-22.879-70.416-6.2826-70.416-55.272 0-19.661 16.543-34.645 43.011-34.645 26.149 0 44.58 15.167 49.465 39.483h-25.048c-2.0523-10.314-11.026-16.923-24.417-16.923-11.658 0-18.728 5.1567-18.728 12.086 0 23.365 70.416 6.1225 70.416 55.272 0 21.92-18.275 35.778-47.1 35.778-27.904-0.0239-48.068-15.814-53.108-40.919zm112.79-51.281h22.052v18.855h1.732c5.673-14.664 16.699-20.468 29.933-20.468 21.74 0 37.018 18.049 37.018 46.899 0 28.682-15.278 46.891-37.018 46.891-13.266 0-24.26-5.9633-29.933-20.468h-1.732v55.28h-22.052zm44.104 72.515c13.39 0 22.051-10.633 22.051-27.229s-8.6612-27.237-22.051-27.237-22.052 10.473-22.052 27.237c0 16.596 8.6616 27.229 22.052 27.229zm56.393-27.229c0-27.237 18.907-46.899 46.944-46.899 27.88 0 46.821 19.661 46.821 46.899 0 27.069-18.912 46.891-46.821 46.891-27.998 0-46.944-19.821-46.944-46.891zm46.944 27.389c13.547 0 23.47-10.146 23.47-27.389 0-17.41-9.9223-27.397-23.47-27.397-13.703 0-23.628 9.9866-23.628 27.397 0 17.242 9.9258 27.389 23.628 27.389zm59.397-72.674h22.054v18.855h1.731c5.672-14.369 16.387-18.855 27.881-18.855h6.4602c8.1912 0 10.401-2.2593 10.401-10.641v-13.211h21.73v23.853h21.271v19.014h-21.286v50.762h21.271v20.755h-19.216c-17.335 0-23.785-6.7695-23.785-24.332v-47.186h-25.681c-13.08 0-20.797 9.3481-20.797 25.138v46.412h-22.034zm229.81 6.1225c0-10.154-8.0366-18.209-21.74-18.209-14.048 0-23.785 9.827-23.785 23.046h-23.002c0-25.624 18.727-44.48 46.818-44.48 27.412 0 44.737 16.277 44.737 39.642 0 44.958-67.74 42.548-67.74 61.395v1.5963h67.725v21.434h-91.231v-15.774c0-52.535 68.219-39.459 68.219-68.652z" fill="#100118" stroke-width="4.9886"/>
</svg>
