<svg class="page-1bp09s7" width="800" height="234.95" fill="none" preserveAspectRatio="xMinYMid" version="1.1" viewBox="0 0 800 234.95" xmlns="http://www.w3.org/2000/svg">
 <path d="m91.094 3.9648e-6c53.301 0 91.095 38.402 91.095 94.303v23.174h-46.151v-23.174c0-29.889-18.293-48.523-44.944-48.523s-44.944 18.634-44.944 48.523h-46.151c0-55.901 37.701-94.303 91.094-94.303zm-91.094 234.95h182.1v-45.117h-125.82l64.722-72.264h-56.273l-64.722 72.17zm305.64-70.845h75.735v25.775h-110.6v-25.775l75.54-91.664v-1.8915h-75.54v-25.832h110.6v25.586l-75.735 91.853zm82.477-27.922c0-32.273 21.19-55.56 54.554-55.56 31.312 0 55.112 22.701 53.05 64.726h-79.293c2.7858 14.897 12.555 23.297 26.623 23.297 10.865 0 18.368-4.578 22.862-12.599h29.213c-6.9365 21.386-25.072 35.707-52.112 35.707-33.708 0-54.898-23.486-54.898-55.57zm80.611-9.1655c-2.6191-14.888-12.184-23.297-26.056-23.297-13.687 0-23.428 8.4089-26.242 23.297zm70.303 40.483h-2.0617v22.341h-26.251v-145.12h26.251v59.958h2.0617c6.7414-17.025 19.872-24.053 35.611-24.053 25.868 0 44.245 21.575 44.245 55.56 0 34.183-18.377 55.57-44.245 55.57-15.74 0-28.87-6.8389-35.611-24.252zm24.143 0.94575c15.935 0 26.242-12.609 26.242-32.273s-10.307-32.273-26.242-32.273-26.242 12.609-26.242 32.273 10.344 32.282 26.279 32.282zm70.709-85.922h26.244v22.341h2.0629c6.7503-17.025 19.683-22.341 33.361-22.341h6.3838v24.64h-17.059c-15.563 0-24.749 11.066-24.749 29.974v52.704h-26.244zm69.731 76.766c0-20.62 15.374-32.084 41.784-32.084 23.218 0 28.686-4.1997 28.686-11.076 0-8.0116-7.3059-12.41-19.122-12.41-11.243 0-18.572 4.5875-20.428 12.798h-25.831c2.4412-21.963 19.311-35.896 46.306-35.896 30.181 0 44.994 16.033 44.994 44.106v65.113h-23.655v-22.152h-1.856c-6.7384 16.808-20.245 24.063-36.364 24.063-21.197 0-34.514-11.653-34.514-32.462zm40.312 11.643c11.993 0 23.992-6.1101 29.241-25.964l0.92802-4.3983c-6.1887 3.4431-16.125 5.5427-28.118 5.5427-11.059 0-17.644 4.0106-17.644 12.41s5.84 12.409 15.593 12.409z" fill="#100118" stroke-width="5.9109"/>
</svg>
