<svg enable-background="new 0 0 1344.1 175.8" version="1.1" viewBox="0 0 1344.1 175.8" xml:space="preserve" xmlns="http://www.w3.org/2000/svg">
<g fill="#D21E1E">
	<path d="m612.2 2.9h-40.1l-25.5 94.5-37.9-81.4c-3.4-7.2-12.5-13.1-20.5-13.1h-29.6l-43.9 163.5c-1 3.6 1.3 6.5 5 6.5h40.1l26.2-97.8 39.8 84.8c3.4 7.2 12.6 13 20.5 13h26.9l44-163.5c1-3.6-1.2-6.5-5-6.5"/>
	<path d="m1095.2 39.1c12.3 0 23.4 3.8 33.4 10.1 6.8 4.2 15.8 3.8 21.1-2.1l19.6-21.8c-16.3-15.6-39.8-25.3-69.7-25.3-41.5 0-72.1 24-72.1 57.8 0 25 17.2 36.7 44.2 46.9 23.8 9.2 28.4 12.6 28.4 19.2 0 7.8-8 12.6-19.2 12.6-14.6 0-28.2-4.7-41.3-14-6.5-4.6-15.6-4.5-21.2 1.2l-20.3 21c18.2 19.7 45.6 31.1 78.9 31.1 42.3 0 72.4-23.8 72.4-58.8 0-25.5-18-37.4-44.2-47.3-23.3-9.2-28.4-11.7-28.4-18.5-0.1-6.8 7-12.1 18.4-12.1"/>
	<path d="m1001.3 2.9c-8 0-17.6 5.6-21.5 12.5l-48.7 85.8-5.6-84c-0.5-7.9-7.4-14.4-15.3-14.4h-26.8l-58.5 98.4-2.7-84c-0.3-7.9-6.9-14.4-14.9-14.4h-165.3l-43.9 163.5c-1 3.6 1.3 6.5 5 6.5h124c3.7 0 7.5-2.9 8.5-6.5l8.9-33.5h-90.8l7.3-26.9h74.4c3.8 0 7.5-2.9 8.5-6.5l8.2-30.6h-81.1l7-25.8h97.5l7.9 123.2c0.2 3.7 3.5 6.7 7.2 6.7h36.1l58.8-95.4 7.1 88.7c0.3 3.7 3.6 6.7 7.3 6.7h36.3l102-170h-36.9z"/>
</g>
<g fill="#fff">
	<path d="M332.2,3H221.4c-3.4,0-7.7,2.3-9.6,5.1l-23.8,35.4h135.2c5.4,0.1,10.6,2.8,11.2,9.2   c0.8,7.9-7.7,15.1-15.5,15.1h-60.4c-3.4,0-7.7,2.3-9.6,5.1L225,108.2h87c33.9,0,69-29.5,67.8-62C378.6,20.5,356,3,332.2,3"/>
	<path d="M151.5,43.5H0L23.9,8.1C25.7,5.3,30,3,33.4,3h151.5l-23.9,35.3C159.2,41.2,154.9,43.5,151.5,43.5"/>
	<path d="m63.8 160 9.7-92.3h45l-9.8 93.2 59.4-88.1c1.9-2.8 6.2-5.1 9.6-5.1h43.4l-67.5 100.1c-1.9 2.9-6.2 5.1-9.6 5.1h-68.6c-7.2 0-12.4-5.7-11.6-12.9"/>
	<path d="m323.5 172.9h-142.2l23.9-35.4c1.9-2.8 6.2-5.1 9.6-5.1h142.2l-23.9 35.3c-1.9 3-6.2 5.2-9.6 5.2"/>
</g>
<g transform="matrix(5.727 0 0 5.727 -42.828 -144.68)" fill="#fff">
	<path d="m219 25.8h3.6l-1.3 4.9h3.8l1.3-4.9h3.6l-3.4 12.9h-3.6l1.4-5h-3.8l-1.3 5h-3.7l3.4-12.9z"/>
	<path d="m234.2 35.9c2.4 0 4.1-2.1 4.3-4.4 0.2-1.9-0.6-2.8-2.3-2.8h-1.3l-1.9 7.3 1.2-0.1zm-2.2-10.1h4.4c3.8 0 6.1 1.8 5.7 5.6-0.4 4.2-3.3 7.3-9 7.3h-4.6l3.5-12.9z"/>
</g>
</svg>
