<svg enable-background="new 0 0 136.1 136.6" version="1.1" viewBox="0 0 135.2 135.4" xml:space="preserve" xmlns="http://www.w3.org/2000/svg">
		<polygon transform="translate(-.2 -.8)" points="0.8 1.8 0.8 12.7 14.8 12.7 14.8 46.3 27.6 46.3 27.6 12.7 41.6 12.7 41.6 1.8" fill="#e1052d"/>
		<polygon transform="translate(-.2 -.8)" points="71.2 28.4 60.4 1.8 46.1 1.8 64.8 46.3 77.4 46.3 96.1 1.8 81.9 1.8" fill="#e1052d"/>
		<path d="m135.1 34.6h-15.8l6-5c5.6-4.9 9.2-8.4 9.2-14.7 0-9.4-7.2-14.9-17.4-14.9-10.3 0-17.3 5.5-17.8 14.6l12.5 2.3c0.3-4.5 2.5-6.3 5.6-6.3 2.7 0 4.5 1.8 4.5 4.4 0 3.2-2.6 5.4-5.7 8.1l-16.5 14v8.5h35.4z" fill="#e1052d"/>
		<path d="m43.7 71 5.7-5.6-5-5-5.8 5.8c-3.9-2.7-8.7-4.3-14-4.3-13.5 0-24 10.3-24 23.3 0 5.4 1.8 10.3 4.8 14.2l-5.4 5.4 5 5 5.6-5.6c3.9 2.7 8.8 4.3 14.1 4.3 13.5 0 24-10.3 24-23.3-0.1-5.4-1.9-10.3-5-14.2zm-30.3 14.2c0-6.7 4.7-11.8 11.1-11.8 2 0 3.8 0.5 5.4 1.4l-15.4 15.5c-0.7-1.5-1.1-3.2-1.1-5.1zm11.2 11.8c-2 0-3.9-0.5-5.4-1.4l15.5-15.5c0.7 1.5 1 3.3 1 5.1 0 6.7-4.7 11.8-11.1 11.8z" fill="#e1052d"/>
			<path d="m71.3 61.9c-10.5 0-18.4 5.2-18.4 14.6 0 7.4 4.8 11.2 12.3 12.9l9.3 2.2c2.5 0.6 3.1 1.7 3.1 3 0 2.3-2.2 3.6-5.3 3.6-3.8 0-6.5-1.7-7.6-5.9l-13 2.5c1.3 8.5 9.5 13.8 20.4 13.8 9.3 0 19-4.4 19-14.8 0-7.2-4.5-11.2-12.7-13.2l-9.1-2.1c-2.1-0.5-2.6-1.6-2.6-2.9 0-2.2 1.9-3.6 4.7-3.6 2.6 0 5.9 1.3 6.7 5.6l12.5-2.5c-1.7-8.5-8.9-13.2-19.3-13.2z" fill="#e1052d"/>
			<polygon transform="translate(-.2 -.8)" points="94.5 63.7 94.5 74.7 108.5 74.7 108.5 108.3 121.3 108.3 121.3 74.7 135.3 74.7 135.3 63.7" fill="#e1052d"/>
	<rect x=".6" y="122.5" width="134.6" height="12.9" fill="#e1052d"/>
</svg>
