<svg enable-background="new 0 0 1277 194.9" version="1.1" viewBox="0 0 1277 194.9" xml:space="preserve" xmlns="http://www.w3.org/2000/svg">
<path d="m1058.6 97.5c0 53.8-43.6 97.4-97.4 97.4-53.9 0-97.5-43.6-97.5-97.4 0-48.5 35.4-88.7 81.8-96.2v145.9h31.4v-145.9c46.3 7.5 81.7 47.7 81.7 96.2zm-436.7 0c0 53.8-43.6 97.4-97.4 97.4-53.9 0-97.5-43.6-97.5-97.4s43.6-97.5 97.5-97.5c53.8 0 97.4 43.7 97.4 97.5zm-54-49.7h-86.9v29h41.7l-41.7 47.1v23.2h86.9v-29.1h-41.4l41.4-47v-23.2zm272.4 49.7c0 53.8-43.6 97.4-97.4 97.4-53.9 0-97.5-43.6-97.5-97.4s43.6-97.5 97.5-97.5c53.8 0 97.4 43.7 97.4 97.5zm-52.8 7.1v-56.8h-31.4v57c0 7.3-6 13.3-13.3 13.3s-13.3-6-13.3-13.3v-57h-31.4v56.8c0 24.7 20 44.7 44.7 44.7s44.7-20 44.7-44.7zm489.5-7.1c0 53.8-43.6 97.4-97.4 97.4-53.9 0-97.5-43.6-97.5-97.4s43.6-97.5 97.5-97.5c53.8 0 97.4 43.7 97.4 97.5zm-52.8 7.1v-56.8h-31.4v57c0 7.3-6 13.3-13.3 13.3s-13.3-6-13.3-13.3v-57h-31.4v56.8c0 24.7 20 44.7 44.7 44.7s44.7-20 44.7-44.7z" fill="#f0f"/>
<path d="m332.2 12.1h-110.8c-3.4 0-7.7 2.3-9.6 5.1l-23.8 35.4h135.2c5.4 0.1 10.6 2.8 11.2 9.2 0.8 7.9-7.7 15.1-15.5 15.1h-60.4c-3.4 0-7.7 2.3-9.6 5.1l-23.9 35.2h87c33.9 0 69-29.5 67.8-62-1.2-25.6-23.8-43.2-47.6-43.1" fill="#fff"/>
<path d="m151.5 52.5h-151.5l23.9-35.3c1.9-2.8 6.2-5.1 9.5-5.1h151.5l-23.9 35.3c-1.8 2.8-6.1 5.1-9.5 5.1" fill="#fff"/>
<path d="m63.8 169.1 9.7-92.3h45l-9.8 93.2 59.4-88.1c1.9-2.8 6.2-5.1 9.6-5.1h43.4l-67.5 100.1c-1.9 2.9-6.2 5.1-9.6 5.1h-68.6c-7.2 0-12.4-5.8-11.6-12.9" fill="#fff"/>
<path d="m323.5 182h-142.2l23.9-35.4c1.9-2.8 6.2-5.1 9.6-5.1h142.2l-23.9 35.3c-1.9 2.9-6.2 5.2-9.6 5.2" fill="#fff"/>
</svg>
