<svg enable-background="new 0 0 1530.4 176.8" version="1.1" viewBox="0 0 1530.4 176.8" xml:space="preserve" xmlns="http://www.w3.org/2000/svg">
<path d="M332.2,3.5H221.4c-3.4,0-7.7,2.3-9.6,5.1L187.9,44h135.2c5.4,0.1,10.6,2.8,11.2,9.2  c0.8,7.9-7.7,15.1-15.5,15.1h-60.4c-3.4,0-7.7,2.3-9.6,5.1L225,108.7h87c33.9,0,69-29.5,67.8-62C378.6,21,356,3.5,332.2,3.5" fill="#fff"/>
<path d="M151.5,44H0L23.9,8.6c1.9-2.8,6.2-5.1,9.5-5.1h151.5l-23.9,35.3C159.2,41.7,154.9,44,151.5,44" fill="#fff"/>
<path d="m63.8 160.5 9.7-92.3h45l-9.8 93.2 59.4-88.1c1.9-2.8 6.2-5.1 9.6-5.1h43.4l-67.5 100.1c-1.9 2.9-6.2 5.1-9.6 5.1h-68.6c-7.2 0-12.4-5.8-11.6-12.9" fill="#fff"/>
<path d="m323.5 173.4h-142.2l23.9-35.4c1.9-2.8 6.2-5.1 9.6-5.1h142.2l-23.9 35.3c-1.9 3-6.2 5.2-9.6 5.2" fill="#fff"/>
<path d="m534.8 0c34.7 0 58.8 16.8 69 43l-28.1 15.1c-7 3.7-15.2 0.7-20.8-5-6.4-6.5-14.9-10.1-26.1-10.1-28.2 0-50.8 26.5-50.8 56.1 0 21.6 14.3 35 34 35 9.9 0 18-2.8 25.5-8 6.6-4.5 15.8-5 21.7 0.3l21 18.6c-16.5 18.7-38.9 31.8-71.2 31.8-47.1 0-80.4-28.9-80.4-74.3 0-50.3 40.8-102.5 106.2-102.5" fill="#FF5A19"/>
<path d="m675.9 3.4c3.7 0 6 2.9 5 6.5l-15.5 57.1h60l17-63.6h40.6c3.7 0 6 2.9 5 6.5l-43.9 163.5h-40.6c-3.7 0-6-2.9-5-6.5l15.8-58.1h-60l-17.3 64.6h-40.6c-3.7 0-6-2.9-5-6.5l43.9-163.5h40.6z" fill="#FF5A19"/>
<path d="m1222.7 9.9-32.7 122.2h81.1l-9.4 34.8c-1 3.6-4.8 6.5-8.5 6.5h-115c-3.7 0-6-2.9-5-6.5l43.9-163.5h40.6c3.7 0 6 2.9 5 6.5" fill="#FF5A19"/>
<path d="m1359.1 3.4c3.7 0 5.9 2.9 5 6.5l-43.9 163.5h-40.4c-3.7 0-6-2.9-5-6.5l43.9-163.5h40.4z" fill="#FF5A19"/>
<path d="m1530.4 3.4-9.2 33.6c-1 3.6-4.8 6.5-8.5 6.5h-82.6l-7.1 25.8h81.1l-8.2 30.6c-1 3.6-4.8 6.5-8.5 6.5h-74.4l-7.3 27h90.8l-9 33.6c-0.9 3.6-4.8 6.5-8.5 6.5h-124c-3.7 0-5.9-2.9-5-6.5l43.9-163.5c0.2-0.1 136.5-0.1 136.5-0.1z" fill="#FF5A19"/>
<path d="m958.6 166.9 44-163.5h64.1c28.4 0 47.1 6.3 58.5 17.7 9 9 13.1 21.1 13.1 34.7 0 28.4-16.3 50.8-51 60.2 0 0 6.7 16.6 13.7 22.1 7.7 6 16.1 7.1 20.2 7.1l-7.4 27.5s-8.6 2.7-23.2 2.7c-14.3 0-31.9-8.6-40-26.6-3.3-7.3-11.7-26.9-11.7-26.9h-20.9l-13.9 51.5h-40.6c-3.6 0-5.9-2.9-4.9-6.5m96.2-81.9c21.1 0 35-9 35-23.5 0-4.6-1.5-8.3-4.4-11.4-3.9-3.9-10.9-5.8-20.9-5.8h-25.5l-11.2 40.7h27z" fill="#FF5A19"/>
<path d="m873.5 3.4-117.5 170h44.5c3.7 0 8.4-2.5 10.5-5.6l16.7-24.8h65.6l3.2 23.7c0.5 3.7 3.9 6.7 7.7 6.7h42.8l-24.1-155.8c-1.2-7.9-8.6-14.2-16.6-14.2h-32.8zm-21.9 103 31.8-48.8 6.1 48.8h-37.9z" fill="#FF5A19"/>
</svg>
