<svg enable-background="new 0 0 1011.4 172" version="1.1" viewBox="0 0 1011.4 172" xml:space="preserve" xmlns="http://www.w3.org/2000/svg">
<g fill="#fff">
	<path d="m332.2 0.1h-110.8c-3.4 0-7.7 2.3-9.6 5.1l-23.8 35.4h135.2c5.4 0.1 10.6 2.8 11.2 9.2 0.8 7.9-7.7 15.1-15.5 15.1h-60.4c-3.4 0-7.7 2.3-9.6 5.1l-23.9 35.3h87c33.9 0 69-29.5 67.8-62-1.2-25.7-23.8-43.2-47.6-43.2"/>
	<path d="m151.5 40.6h-151.5l23.9-35.4c1.9-2.8 6.2-5.1 9.5-5.1h151.5l-23.9 35.3c-1.8 2.9-6.1 5.2-9.5 5.2"/>
	<path d="m63.8 157.1 9.7-92.3h45l-9.8 93.2 59.4-88.1c1.9-2.8 6.2-5.1 9.6-5.1h43.4l-67.5 100.1c-1.9 2.9-6.2 5.1-9.6 5.1h-68.6c-7.2 0-12.4-5.7-11.6-12.9"/>
	<path d="m323.5 170h-142.2l23.9-35.4c1.9-2.8 6.2-5.1 9.6-5.1h142.2l-23.9 35.3c-1.9 3-6.2 5.2-9.6 5.2"/>
</g>
<g fill="#009678">
	<path d="M831.7,0c3.7,0,6,2.9,5,6.5L792.8,170h-40.4c-3.7,0-6-2.9-5-6.5L791.3,0H831.7z"/>
	<path d="m571.4 163.5 43.9-163.5h64.1c28.4 0 47.1 6.3 58.5 17.7 9 9 13.1 21.1 13.1 34.7 0 28.4-16.3 50.8-51 60.2 0 0 6.7 16.6 13.7 22.1 7.7 6 16.1 7.1 20.2 7.1l-7.5 27.5s-8.6 2.7-23.1 2.7c-14.3 0-31.9-8.6-40-26.6-3.3-7.3-11.7-26.9-11.7-26.9h-20.9l-13.7 51.5h-40.6c-3.7 0-6-2.9-5-6.5zm96.1-81.9c21.1 0 35-9 35-23.6 0-4.6-1.5-8.3-4.4-11.4-3.9-3.9-10.9-5.8-20.9-5.8h-25.5l-11.2 40.8h27z"/>
	<path d="m594.6 0-9.4 34.8c-1 3.6-4.8 6.5-8.5 6.5h-81.9l-7.8 28.9h80.1l-8.7 32.6c-1 3.6-4.8 6.5-8.5 6.5h-73.4l-16.2 60.7h-40.6c-3.7 0-6-2.9-5-6.5l43.9-163.5h136z"/>
</g>
<g transform="matrix(6.6421 0 0 6.6421 -43.026 -147.85)" fill="#fff">
	<path d="m138.8 22.3h3.1l-1.1 4.2h3.2l1.1-4.2h3.1l-2.9 11.1h-3.1l1.2-4.3h-3.2l-1.2 4.3h-3.1l2.9-11.1z"/>
	<path d="m151.9 31c2.1 0 3.5-1.8 3.7-3.8 0.1-1.7-0.5-2.4-2-2.4h-1.1l-1.7 6.3h1.1zm-1.9-8.7h3.8c3.3 0 5.2 1.6 5 4.8-0.3 3.6-2.9 6.3-7.8 6.3h-4l3-11.1z"/>
</g>
</svg>
