<svg class="page-1bp09s7" width="800" height="110.24" fill="none" preserveAspectRatio="xMinYMid" version="1.1" viewBox="0 0 800 110.24" xmlns="http://www.w3.org/2000/svg">
 <g transform="translate(0 -1.1785e-5)" fill="#fff" stroke-width="2.6888">
  <path d="m43.518 9.4741e-6c25.463 0 43.518 17.981 43.518 44.155v10.85h-22.048v-10.85c0-13.995-8.7391-22.72-21.471-22.72-12.731 0-21.471 8.7247-21.471 22.72h-22.047c0-26.174 18.011-44.155 43.518-44.155zm-43.518 110.01h86.992v-21.125h-60.109l30.92-33.836h-26.883l-30.92 33.791z"/>
  <path d="m129.35 21.161h15.655l29.864 48.335h0.88703v-48.335h13.122v68.646h-15.66l-29.846-48.318h-0.8873v48.335h-13.135z"/>
  <path d="m198.13 98.584h18.188l1.9031-6.2445-22.181-53.305h13.938l13.934 37.853h0.8873l12.035-37.853h13.898l-22.376 60.276c-2.9856 8.1269-6.5166 10.93-15.384 10.93h-14.843z"/>
  <path d="m256.5 21.161h12.669v28.459h1.0002c3.2561-8.0427 9.5909-11.475 16.377-11.475 11.04 0 19.273 8.4944 19.273 23.03v28.641h-12.576v-26.927c0-8.9416-4.4365-13.729-11.858-13.729-7.6926 0-12.218 5.3144-12.218 14.274v26.382h-12.669z"/>
  <path d="m312.52 64.438c0-15.266 10.225-26.289 26.331-26.289 15.114 0 26.616 10.753 25.611 30.625h-38.28c1.3578 7.0506 6.0659 11.023 12.866 11.023 5.2485 0 8.873-2.1656 11.04-5.9611h14.116c-3.3476 10.12-12.126 16.896-25.156 16.896-16.302-0.0046-26.528-11.121-26.528-26.294zm38.912-4.3403c-1.2691-7.046-5.8804-11.023-12.581-11.023-6.6037 0-11.312 3.9859-12.67 11.023z"/>
  <path d="m375.86 76.179v-26.471h-9.685v-10.66h3.7078c4.7081 0 5.9772-1.2667 5.9772-5.9611v-7.4094h12.487v13.37h12.218v10.66h-12.218v28.459h12.218v11.656h-11.043c-9.9539 0-13.662-3.7955-13.662-13.645z"/>
  <path d="m404.66 73.296h12.489c1.175 3.8885 5.6115 6.5058 11.583 6.5058 5.9691 0 8.7789-1.9884 8.7789-4.6989 0-8.4146-30.609-2.1656-30.609-22.144 0-8.7601 8.0556-14.814 19.545-14.814 12.035 0 20.908 7.1393 22.083 16.896h-12.487c-1.089-3.7068-4.6194-5.9656-9.5963-5.9656-4.7027 0-7.0581 1.5369-7.0581 3.8842 0 7.6795 30.609 2.1699 30.609 22.144 0 8.9462-8.6848 15.634-21.266 15.634-13.234-0.0089-22.825-7.2544-24.073-17.441z"/>
  <path d="m457.22 21.161h12.656v35.235h0.88731l16.56-17.348h17.378l-19.728 19.783 20.091 31.001h-15.025l-13.933-22.144-6.2299 6.3243v15.811h-12.67z"/>
  <path d="m505.72 75.369c0-9.7434 7.4238-15.177 20.182-15.177 11.218 0 13.845-1.9886 13.845-5.2437 0-3.7909-3.5492-5.8726-9.2333-5.8726-5.4287 0-8.9564 2.1701-9.8598 6.0541h-12.489c1.1777-10.39 9.3167-16.984 22.349-16.984 14.573 0 21.739 7.591 21.739 20.869v30.811h-11.406v-10.483h-0.88731c-3.2615 7.9717-9.7603 11.387-17.558 11.387-10.258 0-16.681-5.5139-16.681-15.359zm19.459 5.5093c5.7675 0 11.581-2.8921 14.116-12.285l0.44096-2.0817c-2.9846 1.6299-7.7787 2.6218-13.573 2.6218-5.3238 0-8.5074 1.8956-8.5074 5.8726s2.8152 5.8726 7.5232 5.8726z"/>
  <path d="m560.48 39.049h12.664v10.571h0.98141c3.2561-8.0425 9.5909-11.475 16.377-11.475 11.043 0 19.276 8.4944 19.276 23.03v28.641h-12.578v-26.927c0-8.9416-4.4338-13.729-11.858-13.729-7.6926 0-12.215 5.3147-12.215 14.274v26.382h-12.667z"/>
  <path d="m616.86 75.369c0-9.7434 7.4211-15.177 20.179-15.177 11.218 0 13.845-1.9886 13.845-5.2437 0-3.7909-3.5492-5.8726-9.2306-5.8726-5.4314 0-8.9564 2.1701-9.8625 6.0541h-12.487c1.175-10.39 9.3167-16.984 22.349-16.984 14.573 0 21.736 7.591 21.736 20.869v30.811h-11.4v-10.483h-0.8873c-3.2615 7.9717-9.7603 11.387-17.558 11.387-10.26 0-16.684-5.5139-16.684-15.359zm19.456 5.5093c5.7675 0 11.583-2.8921 14.116-12.285l0.44365-2.0817c-2.9846 1.6299-7.7814 2.6218-13.576 2.6218-5.3211 0-8.502 1.8956-8.502 5.8726s2.8125 5.8726 7.5179 5.8726z"/>
  <path d="m671.6 21.161h12.67v68.646h-12.67z"/>
  <path d="m691.51 64.438c0-15.266 10.231-26.289 26.337-26.289 15.111 0 26.616 10.753 25.611 30.625h-38.28c1.3578 7.0506 6.0659 11.023 12.866 11.023 5.2485 0 8.873-2.1656 11.038-5.9611h14.119c-3.3476 10.12-12.126 16.896-25.156 16.896-16.302-0.0046-26.533-11.121-26.533-26.294zm38.915-4.3357c-1.2637-7.0463-5.8831-11.023-12.578-11.023-6.6037 0-11.312 3.9859-12.67 11.023z"/>
  <path d="m750.68 39.049h12.67v10.571h0.99216c3.2615-8.0425 9.5963-11.475 16.383-11.475 11.038 0 19.276 8.4944 19.276 23.03v28.641h-12.581v-26.927c0-8.9416-4.4365-13.729-11.852-13.729-7.6926 0-12.218 5.3147-12.218 14.274v26.382h-12.67z"/>
 </g>
</svg>
