<svg class="page-1bp09s7" width="800" height="102.21" fill="none" preserveAspectRatio="xMinYMid" version="1.1" viewBox="0 0 800 102.21" xmlns="http://www.w3.org/2000/svg">
 <path d="m39.592-3.8066e-6c23.166 0 39.592 16.706 39.592 41.024v10.081h-20.058v-10.081c0-13.003-7.9508-21.109-19.534-21.109-11.583 0-19.534 8.1062-19.534 21.109h-20.059c0-24.318 16.386-41.024 39.592-41.024zm-39.592 102.21h79.145v-19.627h-54.687l28.13-31.437h-24.458l-28.13 31.396zm117.68-40.049h12.85c1.1381 5.7196 6.7482 9.4641 14.558 9.4641 7.398 0 11.789-2.5717 11.789-6.7975 0-11.777-36.352-3.2343-36.352-28.441 0-10.114 8.5402-17.825 22.198-17.825 13.5 0 23.005 7.7934 25.539 20.315h-12.915c-1.0574-5.3082-5.6947-8.7068-12.608-8.7068-6.0174 0-9.686 2.6498-9.686 6.2174 0 12.023 36.355 3.1518 36.355 28.441 0 11.274-9.4361 18.405-24.316 18.405-14.4-0.01234-24.809-8.139-27.412-21.072zm58.226-26.368h11.385v9.7027h0.89588c2.926-7.5463 8.6209-10.534 15.454-10.534 11.22 0 19.11 9.2872 19.11 24.129 0 14.76-7.8901 24.129-19.11 24.129-6.8328 0-12.511-3.0656-15.454-10.53h-0.89588v28.441h-11.385zm22.771 37.313c6.9138 0 11.385-5.4727 11.385-14.015s-4.4717-14.011-11.385-14.011c-6.9135 0-11.385 5.3905-11.385 14.011 0 8.5422 4.492 14.015 11.385 14.015zm29.115-14.015c0-14.011 9.759-24.129 24.216-24.129 14.392 0 24.15 10.118 24.15 24.129 0 13.933-9.7585 24.129-24.15 24.129-14.456 0-24.216-10.184-24.216-24.129zm24.216 14.097c6.994 0 12.109-5.2259 12.109-14.097 0-8.9537-5.1223-14.093-12.109-14.093-7.0747 0-12.2 5.1395-12.2 14.093 4e-3 8.8714 5.1457 14.097 12.221 14.097zm30.677-37.395h11.386v9.7027h0.89228c2.9288-7.3818 8.4754-9.7027 14.395-9.7027h3.3351c4.2274 0 5.3665-1.1602 5.3665-5.4725v-6.7977h11.224v12.27h10.977v9.785h-10.977v26.117h10.977v10.698h-9.9205c-8.946 0-12.281-3.485-12.281-12.521v-24.277h-13.271c-6.75 0-10.733 4.8062-10.733 12.933v23.866h-11.371zm84.98-16.418h25.781c13.173 0 21.795 7.962 21.795 20.232s-8.622 20.479-21.795 20.479h-13.659v22.306h-12.109zm25.622 29.104c5.9348 0 9.7585-3.4812 9.7585-8.8716 0-5.2256-3.8237-8.641-9.7585-8.641h-13.5v17.496zm27.972-12.686h11.386v9.7027h0.89228c2.9237-7.3818 8.5397-9.7027 14.474-9.7027h2.7668v10.699h-7.4031c-6.7525 0-10.736 4.8101-10.736 13.019v22.886h-11.386zm30.983 23.298c0-14.011 9.1902-24.129 23.667-24.129 13.582 0 23.909 9.8755 23.004 28.112h-34.4c1.2111 6.4643 5.4488 10.114 11.546 10.114 4.7186 0 7.9714-1.9916 9.9257-5.4727h12.685c-3.0086 9.2872-10.898 15.505-22.603 15.505-14.634 0-23.824-10.184-23.824-24.129zm34.971-3.979c-1.1366-6.4684-5.2868-10.114-11.299-10.114-5.9374 0-10.167 3.6458-11.386 10.114zm18.216-19.319h11.384v9.7027h0.80743c2.2757-7.3818 7.0765-10.534 13.582-10.534 6.9942 0 12.361 5.0613 13.418 10.534h0.80743c2.2808-7.3818 7.0765-10.534 13.667-10.534 10.247 0 16.344 7.6289 16.344 21.064v26.368h-11.384v-26.285c0-6.8839-3.1731-11.028-8.784-11.028-5.8551 0-9.1902 4.7237-9.1902 11.11v26.203h-11.299v-26.203c0-6.9665-3.0111-11.11-8.7865-11.11-5.8551 0-9.1902 4.7237-9.1902 11.357v25.956h-11.386zm83.679-18.656c1.2626-0.0089 2.502 0.36422 3.5563 1.0722 1.0543 0.70801 1.8797 1.7191 2.3708 2.9053s0.62743 2.4944 0.38829 3.759-0.83828 2.4287-1.7254 3.3452-2.0211 1.5444-3.258 1.8038-2.5226 0.13911-3.6926-0.34611c-1.17-0.48497-2.1728-1.3127-2.88-2.3788-0.70971-1.0661-1.0903-2.3222-1.098-3.6099-0.0129-1.7258 0.65057-3.3852 1.8386-4.6136 1.1906-1.2284 2.808-1.9252 4.5-1.9371zm-5.6083 18.656h11.299v46.6h-11.299zm19.435 26.285v-26.285h11.301v24.689c0 8.1267 3.9831 12.604 10.651 12.604 6.9145 0 10.983-4.8926 10.983-13.102v-24.191h11.386v46.6h-11.386v-9.7025h-0.89743c-2.9237 7.3777-8.6194 10.53-14.719 10.53-9.9205 0-17.318-7.8757-17.318-21.142zm52.699-26.285h11.386v9.7027h0.80485c2.2783-7.3818 7.0765-10.534 13.582-10.534 6.9943 0 12.361 5.0613 13.42 10.534h0.80742c2.2757-7.3818 7.074-10.534 13.659-10.534 10.247 0 16.346 7.6289 16.346 21.064v26.368h-11.386v-26.285c0-6.8839-3.1706-11.028-8.7814-11.028-5.8551 0-9.1902 4.7237-9.1902 11.11v26.203h-11.299v-26.203c0-6.9665-3.0111-11.11-8.784-11.11-5.8551 0-9.1902 4.7237-9.1902 11.357v25.956h-11.376zm132.47 3.152c0-5.2259-4.1477-9.3695-11.224-9.3695-7.236 0-12.281 5.0572-12.281 11.855h-11.872c0-13.167 9.6865-22.882 24.153-22.882 14.15 0 23.099 8.3736 23.099 20.397 0 23.133-34.971 21.887-34.971 31.589v0.82285h34.987v11.028h-47.103v-8.1144c0-27.034 35.213-20.319 35.213-35.325z" fill="#fff" stroke-width="2.5714"/>
</svg>
