<svg width="600pt" height="379.83pt" version="1.1" viewBox="0 0 600 379.83" xmlns="http://www.w3.org/2000/svg">
 <defs>
  <clipPath id="f">
   <path d="m37.566 584.18h22.948v14.328h-22.948z"/>
  </clipPath>
  <clipPath id="e">
   <path d="m37.449 598.62h23.182v-14.561h-23.182z"/>
  </clipPath>
  <radialGradient id="c" cx="0" cy="0" r="1" gradientTransform="matrix(8.2e-6 20.258 14.029 4.53e-5 46.151 592.22)" gradientUnits="userSpaceOnUse">
   <stop stop-color="#fff" offset="0"/>
   <stop stop-color="#fff" offset=".12197"/>
   <stop stop-color="#fff" offset=".25525"/>
   <stop stop-color="#f0f0f1" offset=".32512"/>
   <stop stop-color="#f0f0f1" offset=".44546"/>
   <stop stop-color="#dddbdd" offset=".47572"/>
   <stop stop-color="#dddbdd" offset=".51921"/>
   <stop stop-color="#9c9b9b" offset=".73564"/>
   <stop stop-color="#9c9b9b" offset=".81301"/>
   <stop stop-color="#a49fa3" offset=".85695"/>
   <stop stop-color="#a49fa3" offset=".93815"/>
   <stop stop-color="#a49fa3" offset="1"/>
  </radialGradient>
  <clipPath id="d">
   <path d="m37.566 584.18h22.948v14.328h-22.948z"/>
  </clipPath>
  <radialGradient id="a" cx="0" cy="0" r="1" gradientTransform="matrix(-.087723 -6.4327 -6.4327 .087723 49.126 587.25)" gradientUnits="userSpaceOnUse">
   <stop stop-color="#dddbdd" offset="0"/>
   <stop stop-color="#dddbdd" offset=".016465"/>
   <stop stop-color="#dddbdd" offset=".02555"/>
   <stop stop-color="#ececec" offset=".42092"/>
   <stop stop-color="#b1b1b1" offset=".85637"/>
   <stop stop-color="#b1b1b1" offset="1"/>
  </radialGradient>
  <radialGradient id="b" cx="0" cy="0" r="1" gradientTransform="matrix(-.087722 -6.4327 -6.4327 .087722 49.126 587.25)" gradientUnits="userSpaceOnUse">
   <stop stop-color="#dddbdd" offset="0"/>
   <stop stop-color="#dddbdd" offset=".016465"/>
   <stop stop-color="#dddbdd" offset=".02555"/>
   <stop stop-color="#ececec" offset=".42092"/>
   <stop stop-color="#b1b1b1" offset=".85637"/>
   <stop stop-color="#b1b1b1" offset="1"/>
  </radialGradient>
 </defs>
 <g transform="matrix(26.797 0 0 -26.797 -1015.3 16038)">
  <g clip-path="url(#f)">
   <g clip-path="url(#e)">
    <path d="m42.04 598.47c-0.842-0.122-1.552-0.497-1.889-1.003-0.094-0.139-0.843-1.046-1.714-5.411s-0.45-5.051-0.426-5.18c0.11-0.623 0.775-1.152 1.711-1.359 0.185-0.04 2.594-0.639 7.717-0.988 5.123-0.35 8.289-0.128 8.494-0.111 0.93 0.076 1.734 0.462 2.113 1.002 0.104 0.146 1.017 1.428 1.743 5.066 0.725 3.637 0.439 5.452 0.409 5.592-0.131 0.607-0.79 1.118-1.707 1.32-0.184 0.04-2.93 0.433-8.546 0.815-3.466 0.237-5.557 0.294-6.716 0.294-0.721 0-1.082-0.022-1.189-0.037" fill="url(#c)"/>
    <g clip-path="url(#d)">
     <g transform="translate(58.966 591.16)">
      <path d="m0 0c0.022-3.314-0.56-4.523-0.626-4.662-0.239-0.509-0.893-0.906-1.714-1.034-0.182-0.029-2.986-0.429-7.657-0.441-4.67-0.013-6.948 0.372-7.122 0.397-0.879 0.125-1.575 0.558-1.791 1.111-0.045 0.114-0.551 0.704-0.578 4.681s0.479 4.839 0.536 4.97c0.21 0.476 0.779 0.858 1.512 1.02 0.245 0.054 2.033 0.259 7.154 0.274 5.122 0.013 7.409-0.104 7.836-0.189 0.948-0.188 1.513-0.557 1.78-1.077 0.131-0.253 0.648-1.736 0.67-5.05" fill="#ed1c24"/>
     </g>
     <g transform="translate(48.206 595.83)">
      <path d="m0 0c0-0.075-5e-3 -0.14-0.015-0.193-9e-3 -0.053-0.024-0.096-0.043-0.128-0.019-0.033-0.043-0.057-0.072-0.072-0.029-0.016-0.061-0.024-0.095-0.024h-1.872v-4.063c0-0.026-0.013-0.049-0.038-0.07s-0.066-0.037-0.124-0.05c-0.058-0.014-0.136-0.024-0.234-0.032-0.098-7e-3 -0.22-0.011-0.367-0.011-0.146 0-0.268 4e-3 -0.367 0.011-0.098 8e-3 -0.176 0.018-0.234 0.032-0.057 0.013-0.099 0.029-0.124 0.05s-0.037 0.044-0.037 0.07v4.063h-1.872c-0.039 0-0.071 8e-3 -0.098 0.024-0.027 0.015-0.051 0.039-0.07 0.072-0.019 0.032-0.034 0.075-0.043 0.128-0.01 0.053-0.014 0.118-0.014 0.193 0 0.078 4e-3 0.144 0.014 0.199 9e-3 0.054 0.024 0.098 0.043 0.13 0.019 0.033 0.043 0.056 0.07 0.07s0.059 0.022 0.098 0.022h5.269c0.034 0 0.066-8e-3 0.095-0.022s0.053-0.037 0.072-0.07c0.019-0.032 0.034-0.076 0.043-0.13 0.01-0.055 0.015-0.121 0.015-0.199" fill="#fff"/>
     </g>
     <g transform="translate(53.201 591.39)">
      <path d="m0 0c-0.019-0.044-0.044-0.08-0.075-0.107s-0.081-0.048-0.15-0.062c-0.07-0.015-0.164-0.024-0.284-0.028-0.119-4e-3 -0.275-6e-3 -0.468-6e-3 -0.154 0-0.285 1e-3 -0.395 2e-3 -0.11 2e-3 -0.204 5e-3 -0.28 0.01-0.077 5e-3 -0.14 0.013-0.188 0.023-0.048 0.011-0.089 0.024-0.122 0.039-0.032 0.016-0.057 0.035-0.074 0.057-0.018 0.022-0.034 0.05-0.05 0.084l-2.224 4.468c-0.046 0.093-0.074 0.167-0.084 0.222-9e-3 0.054 0.01 0.095 0.058 0.122 0.048 0.028 0.13 0.044 0.246 0.051 0.115 6e-3 0.277 0.01 0.485 0.01 0.177 0 0.316-3e-3 0.416-8e-3s0.177-0.014 0.231-0.027 0.091-0.033 0.113-0.059c0.021-0.026 0.041-0.058 0.06-0.097l1.82-3.888h6e-3l1.785 3.868c0.015 0.045 0.035 0.08 0.058 0.107 0.023 0.028 0.062 0.049 0.118 0.065 0.056 0.015 0.136 0.026 0.24 0.031s0.247 8e-3 0.428 8e-3c0.177 0 0.314-4e-3 0.413-0.012 0.098-8e-3 0.165-0.027 0.202-0.056 0.036-0.03 0.048-0.072 0.035-0.127-0.014-0.055-0.044-0.127-0.09-0.218z" fill="#fff"/>
     </g>
    </g>
    <path d="m43.512 590.33c-0.059-3e-3 -0.105-9e-3 -0.139-0.02-0.033-0.011-0.058-0.026-0.073-0.046-0.016-0.021-0.029-0.047-0.041-0.079l-1.15-3.309c-0.022-0.066-0.037-0.12-0.043-0.161-5e-3 -0.04 1e-3 -0.071 0.021-0.093 0.019-0.023 0.053-0.036 0.103-0.042s0.119-9e-3 0.207-9e-3c0.083 0 0.15 2e-3 0.201 6e-3s0.09 0.011 0.118 0.021c0.028 0.011 0.048 0.026 0.06 0.043 0.013 0.019 0.023 0.042 0.031 0.069l0.236 0.729h1.401l0.25-0.75c8e-3 -0.025 0.017-0.045 0.029-0.06 0.011-0.015 0.031-0.027 0.06-0.036s0.071-0.015 0.126-0.017c0.055-3e-3 0.131-5e-3 0.229-5e-3 0.094 0 0.168 3e-3 0.222 7e-3 0.054 5e-3 0.091 0.018 0.113 0.038 0.02 0.02 0.028 0.051 0.022 0.09-5e-3 0.041-0.02 0.096-0.043 0.165l-1.152 3.305c-0.012 0.037-0.026 0.065-0.042 0.086-0.017 0.021-0.044 0.037-0.081 0.048s-0.09 0.017-0.157 0.02c-0.068 3e-3 -0.158 4e-3 -0.271 4e-3 -0.098 0-0.176-1e-3 -0.237-4e-3m0.225-0.725h4e-3l0.526-1.585h-1.057z" fill="url(#a)"/>
    <path d="m46.499 589.34c-0.131-0.043-0.243-0.105-0.337-0.187-0.095-0.081-0.167-0.181-0.221-0.299-0.053-0.119-0.079-0.253-0.079-0.402 0-0.141 0.02-0.258 0.061-0.352 0.04-0.094 0.094-0.175 0.162-0.242-0.083-0.075-0.151-0.159-0.203-0.252-0.051-0.093-0.077-0.196-0.077-0.31 0-0.09 0.022-0.173 0.067-0.249 0.045-0.077 0.109-0.136 0.192-0.18-0.06-0.044-0.113-0.09-0.159-0.139-0.046-0.047-0.084-0.098-0.116-0.151-0.032-0.052-0.055-0.108-0.073-0.165-0.016-0.058-0.024-0.118-0.024-0.182 0-0.102 0.023-0.196 0.068-0.281 0.045-0.086 0.118-0.158 0.217-0.221 0.098-0.061 0.225-0.108 0.379-0.144 0.155-0.034 0.342-0.051 0.561-0.051 0.225 0 0.421 0.024 0.589 0.072s0.308 0.114 0.419 0.195c0.112 0.083 0.195 0.18 0.251 0.293s0.084 0.232 0.084 0.359c0 0.115-0.021 0.218-0.062 0.308-0.042 0.091-0.101 0.168-0.179 0.232-0.078 0.065-0.174 0.114-0.288 0.15-0.115 0.035-0.244 0.056-0.391 0.062l-0.625 0.023c-0.088 4e-3 -0.157 0.023-0.206 0.059-0.049 0.035-0.073 0.081-0.073 0.137 0 0.042 9e-3 0.08 0.027 0.115s0.039 0.064 0.062 0.09c0.04-0.028 0.098-0.051 0.173-0.071s0.153-0.03 0.236-0.03c0.161 0 0.308 0.02 0.439 0.062 0.132 0.041 0.244 0.101 0.338 0.182 0.092 0.079 0.165 0.177 0.214 0.293 0.05 0.116 0.076 0.249 0.076 0.4 0 0.063-0.01 0.124-0.028 0.182-0.018 0.059-0.049 0.111-0.091 0.157h0.302c0.032 0 0.058 0.022 0.078 0.067 0.021 0.044 0.032 0.112 0.032 0.204 0 0.1-0.01 0.171-0.03 0.213s-0.047 0.064-0.08 0.064h-0.815c-0.063 0.017-0.132 0.031-0.205 0.04-0.075 9e-3 -0.152 0.015-0.233 0.015-0.157 0-0.301-0.023-0.432-0.066m0.112-1.195c-0.076 0.076-0.115 0.179-0.115 0.31 0 0.059 9e-3 0.117 0.026 0.171s0.044 0.103 0.079 0.144c0.036 0.041 0.08 0.074 0.134 0.098s0.116 0.036 0.187 0.036c0.141 0 0.25-0.038 0.326-0.116 0.077-0.076 0.115-0.183 0.115-0.322 0-0.057-9e-3 -0.113-0.027-0.165-0.018-0.053-0.045-0.1-0.081-0.141-0.036-0.039-0.08-0.072-0.134-0.094-0.054-0.024-0.117-0.035-0.19-0.035-0.136 0-0.243 0.037-0.32 0.114m-0.073-2.041c-0.097 0.049-0.146 0.122-0.146 0.218 0 0.031 3e-3 0.061 9e-3 0.09 6e-3 0.028 0.017 0.058 0.036 0.089 0.018 0.031 0.043 0.063 0.072 0.097 0.03 0.033 0.07 0.068 0.12 0.104l0.516-0.014c0.12-4e-3 0.216-0.029 0.285-0.075s0.104-0.112 0.104-0.199c0-0.049-0.01-0.097-0.029-0.142s-0.053-0.086-0.098-0.122c-0.046-0.037-0.107-0.066-0.182-0.089-0.075-0.021-0.167-0.033-0.276-0.033-0.177 0-0.314 0.025-0.411 0.076" fill="url(#a)"/>
    <path d="m50.611 590.58c-0.046-7e-3 -0.083-0.015-0.111-0.026-0.028-0.01-0.047-0.023-0.058-0.038-0.01-0.016-0.016-0.033-0.016-0.052v-1.392c-0.115 0.114-0.231 0.2-0.348 0.258-0.117 0.059-0.248 0.088-0.392 0.088-0.182 0-0.344-0.034-0.484-0.104-0.14-0.069-0.257-0.168-0.352-0.297-0.093-0.129-0.165-0.284-0.214-0.466-0.049-0.183-0.074-0.389-0.074-0.617 0-0.19 0.019-0.371 0.058-0.543s0.101-0.322 0.186-0.451 0.195-0.231 0.331-0.307c0.135-0.076 0.301-0.113 0.497-0.113 0.177 0 0.338 0.038 0.483 0.118 0.144 0.078 0.283 0.189 0.416 0.331v-0.286c0-0.02 6e-3 -0.038 0.016-0.053 0.01-0.014 0.027-0.027 0.052-0.036 0.024-9e-3 0.055-0.016 0.093-0.02 0.039-4e-3 0.089-6e-3 0.151-6e-3 0.057 0 0.106 2e-3 0.145 6e-3s0.071 0.011 0.093 0.02c0.024 9e-3 0.04 0.022 0.05 0.036 9e-3 0.015 0.014 0.033 0.014 0.053v3.781c0 0.019-6e-3 0.036-0.017 0.052-0.012 0.015-0.032 0.028-0.058 0.038-0.027 0.011-0.064 0.019-0.11 0.026-0.045 5e-3 -0.105 8e-3 -0.175 8e-3 -0.071 0-0.13-3e-3 -0.176-8e-3m-1.043-3.375c-0.065 0.048-0.118 0.112-0.157 0.191-0.04 0.08-0.068 0.171-0.086 0.273-0.017 0.102-0.026 0.206-0.026 0.314 0 0.102 0.011 0.201 0.031 0.298 0.021 0.097 0.051 0.185 0.093 0.264 0.041 0.079 0.095 0.142 0.163 0.189 0.069 0.046 0.15 0.07 0.244 0.07 0.104 0 0.203-0.034 0.298-0.104 0.096-0.069 0.195-0.169 0.298-0.299v-0.853c-0.061-0.077-0.118-0.142-0.17-0.195-0.051-0.052-0.102-0.095-0.151-0.128-0.049-0.032-0.097-0.056-0.144-0.071-0.047-0.013-0.096-0.021-0.145-0.021-0.1 0-0.183 0.024-0.248 0.072" fill="url(#a)"/>
    <path d="m52.488 589.32c-0.162-0.068-0.3-0.165-0.413-0.293-0.113-0.127-0.2-0.283-0.259-0.466-0.061-0.183-0.09-0.39-0.09-0.618 0-0.24 0.029-0.45 0.085-0.628 0.057-0.179 0.142-0.327 0.258-0.444 0.115-0.117 0.259-0.204 0.431-0.262s0.372-0.086 0.601-0.086c0.126 0 0.246 8e-3 0.357 0.024s0.21 0.035 0.296 0.058c0.087 0.021 0.158 0.044 0.214 0.067 0.055 0.023 0.09 0.041 0.102 0.055 0.013 0.013 0.023 0.027 0.031 0.041 7e-3 0.015 0.012 0.033 0.017 0.054 4e-3 0.021 6e-3 0.046 8e-3 0.076s3e-3 0.066 3e-3 0.108c0 0.049-1e-3 0.088-4e-3 0.12-3e-3 0.031-8e-3 0.056-0.016 0.074-7e-3 0.017-0.017 0.028-0.029 0.036-0.012 6e-3 -0.026 9e-3 -0.043 9e-3 -0.029 0-0.067-9e-3 -0.113-0.027s-0.104-0.038-0.174-0.061c-0.07-0.021-0.153-0.042-0.249-0.06s-0.207-0.027-0.334-0.027c-0.125 0-0.232 0.016-0.322 0.049-0.089 0.033-0.162 0.08-0.218 0.143-0.057 0.062-0.098 0.137-0.125 0.227-0.026 0.089-0.038 0.188-0.038 0.298h1.564c0.069 0 0.124 0.022 0.163 0.063 0.039 0.042 0.059 0.108 0.059 0.196v0.116c0 0.181-0.023 0.347-0.069 0.501s-0.118 0.287-0.216 0.399c-0.098 0.113-0.223 0.2-0.376 0.264-0.152 0.063-0.337 0.095-0.552 0.095-0.203 0-0.386-0.034-0.549-0.101m0.017-0.811c0.024 0.079 0.059 0.149 0.104 0.208 0.045 0.058 0.102 0.104 0.171 0.139 0.067 0.035 0.147 0.052 0.24 0.052 0.183 0 0.318-0.058 0.405-0.174s0.128-0.276 0.122-0.48h-1.083c3e-3 0.09 0.018 0.175 0.041 0.255" fill="url(#a)"/>
    <path d="m55.987 589.4c-0.053-0.014-0.107-0.04-0.161-0.076s-0.111-0.086-0.17-0.148c-0.059-0.063-0.122-0.142-0.19-0.239v0.321c0 0.019-4e-3 0.036-0.014 0.05-0.01 0.015-0.026 0.026-0.048 0.036s-0.053 0.017-0.094 0.022c-0.04 4e-3 -0.091 7e-3 -0.153 7e-3 -0.059 0-0.108-3e-3 -0.147-7e-3 -0.04-5e-3 -0.072-0.012-0.097-0.022-0.026-0.01-0.043-0.021-0.052-0.036-0.01-0.014-0.014-0.031-0.014-0.05v-2.571c0-0.018 5e-3 -0.036 0.017-0.05s0.031-0.026 0.059-0.036c0.027-0.01 0.064-0.017 0.111-0.022 0.046-4e-3 0.105-7e-3 0.176-7e-3s0.129 3e-3 0.175 7e-3c0.047 5e-3 0.084 0.012 0.112 0.022 0.027 0.01 0.047 0.022 0.058 0.036 0.012 0.014 0.017 0.032 0.017 0.05v1.602c0.054 0.085 0.105 0.156 0.152 0.214 0.047 0.057 0.092 0.103 0.135 0.138 0.044 0.035 0.086 0.06 0.125 0.077 0.041 0.016 0.082 0.024 0.122 0.024 0.034 0 0.066-3e-3 0.095-0.01 0.028-7e-3 0.055-0.014 0.079-0.021 0.024-8e-3 0.046-0.016 0.064-0.022 0.02-7e-3 0.037-0.011 0.053-0.011 0.019 0 0.035 6e-3 0.047 0.015 0.013 0.01 0.023 0.027 0.03 0.052 8e-3 0.025 0.014 0.059 0.018 0.103s5e-3 0.101 5e-3 0.17c0 0.07 0 0.125-2e-3 0.165s-6e-3 0.07-9e-3 0.091c-4e-3 0.02-8e-3 0.035-0.013 0.047-4e-3 0.012-0.012 0.022-0.023 0.032-0.011 9e-3 -0.027 0.019-0.051 0.027-0.022 8e-3 -0.049 0.016-0.08 0.023s-0.061 0.011-0.09 0.015c-0.028 3e-3 -0.055 4e-3 -0.08 4e-3 -0.054 0-0.108-8e-3 -0.162-0.022" fill="url(#b)"/>
   </g>
  </g>
 </g>
</svg>
