<svg width="800" height="255.2" version="1.1" viewBox="0 0 800 255.2" xml:space="preserve" xmlns="http://www.w3.org/2000/svg">
<path class="st1" d="m782.8 59.6c-7.6 0-13.6 4.4-16 12l-56.8 135.2-55.6-134c-3.2-8.4-8.7999-12.8-17.2-12.8-9.6 0-17.2 7.6-17.2 16.8 0 2.4 0.79999 4.8 1.2 6.8001 0 0.40004 0.40004 1.1999 0.40004 1.6l68.8 154.8c5.2 11.2 12.8 13.6 19.2 13.6h1.1999c8.0001 0 14.4-4.8001 18.8-13.6l68.8-155.2c0.79999-2 1.6-4.8001 1.6-8 0-9.6-7.6-17.2-17.2-17.2zm-260.4-1.1999c-24.8 0-45.6 9.6-60.4 28-12-18.4-32-28-57.2-28-19.2 0-35.6 6-48.4 16.8-0.39999-3.2-1.2-5.6-2.8-8.4001-2.8-4.8001-8.4-7.6-14.4-7.6s-11.6 2.8-14.4 7.6c-2.8 4.4-2.8 8-2.8 14.4v150.8c0 6.4 0.4 10 2.8 14.4 2.8 4.8 8.4 7.6 14.4 7.6s11.6-2.8001 14.4-7.6c2.8-4.4 2.8-8 2.8-14.4v-96.4c0-28.4 15.2-44.8 42-44.8s41.2 15.6 41.2 44.8v96.8c0 7.1999 0.39999 10.4 2.8 14.4 2.7999 4.8001 8.3999 7.6 14.4 7.6 6 0 11.6-2.8 14.4-7.6 2.8-4.4 2.8-8 2.8-14.4v-100c0-26 16-41.6 42-41.6 26.8 0 41.6 15.6 41.6 44.8v96.8c0 6.4 0.40004 10 2.8 14.4 2.8 4.8 8.4 7.6 14.4 7.6s11.6-2.8001 14.4-7.6c2.4-4 2.8-7.6 2.8-14.4v-101.2c0-22.4-7.2-40.4-21.6-54.4-10-12-27.6-18.4-48-18.4z" fill="#462d82" stroke-width="12.956"/>
<path class="st1" d="m271.6 60.4c-4.8 0-7.2 2.8-8.8 6.8001l-70.4 164-69.2-163.6c-2-4-4-10-11.6-9.6h-93.2v-48.8c0-5.2-4-9.2-9.2-9.2-5.6 0-9.2 4-9.2 9.2v194c0 36 24 52 53.6 52 10.8 0 19.6-2.4001 26.8-4.8001 3.6-1.6 6-4 6-7.6 0-4.4-4-8-8-8-2.4 0-8.4 3.6-21.6 3.6-22 0-38-9.6-38-36.8v-126.4h86v0.40003l76.4 171.2c2.4 4.8001 5.2 7.6 10.4 7.6h0.8c5.2 0 8-2.8 10.4-7.6l76.8-172c0.80003-2 1.2-2.8 1.2-4.8001 0-5.6-4-9.6-9.2-9.6z" fill="#462d82" stroke-width="12.956"/>
</svg>
