<svg width="800" height="669.57" version="1.1" viewBox="0 0 800 669.57" xml:space="preserve" xmlns="http://www.w3.org/2000/svg">
<path class="st0" d="m0 0h800v669.57h-800z" fill="#462d82" stroke-width="8.6956"/>
<path class="st1" d="m663.06 428.41c-5.1008 0-9.1276 2.9531-10.738 8.0538l-38.121 90.739-37.316-89.934c-2.1476-5.6377-5.9061-8.5908-11.544-8.5908-6.4431 0-11.544 5.1007-11.544 11.275 0 1.6108 0.53691 3.2216 0.80537 4.5639 0 0.26849 0.26849 0.80533 0.26849 1.0738l46.175 103.89c3.49 7.5168 8.5907 9.1276 12.886 9.1276h0.80533c5.3692 0 9.6646-3.2216 12.618-9.1276l46.175-104.16c0.53691-1.3423 1.0738-3.2216 1.0738-5.3692 0-6.443-5.1008-11.544-11.544-11.544zm-174.77-0.80533c-16.645 0-30.604 6.443-40.537 18.792-8.0538-12.349-21.477-18.792-38.39-18.792-12.886 0-23.893 4.0269-32.484 11.275-0.26845-2.1476-0.80539-3.7584-1.8792-5.6377-1.8792-3.2216-5.6376-5.1007-9.6646-5.1007-4.0269 0-7.7853 1.8792-9.6646 5.1007-1.8792 2.9531-1.8792 5.3692-1.8792 9.6646v101.21c0 4.2954 0.26846 6.7115 1.8792 9.6646 1.8792 3.2215 5.6377 5.1008 9.6646 5.1008s7.7853-1.8793 9.6646-5.1008c1.8792-2.9531 1.8792-5.3692 1.8792-9.6646v-64.699c0-19.061 10.202-30.068 28.188-30.068 17.987 0 27.651 10.47 27.651 30.068v64.967c0 4.8322 0.26845 6.98 1.8792 9.6646 1.8792 3.2216 5.6376 5.1007 9.6646 5.1007 4.0269 0 7.7853-1.8792 9.6646-5.1007 1.8792-2.9531 1.8792-5.3692 1.8792-9.6646v-67.115c0-17.45 10.738-27.92 28.188-27.92 17.987 0 27.92 10.47 27.92 30.068v64.967c0 4.2954 0.26849 6.7115 1.8792 9.6646 1.8792 3.2215 5.6376 5.1007 9.6646 5.1007 4.0269 0 7.7854-1.8793 9.6646-5.1007 1.6107-2.6846 1.8792-5.1007 1.8792-9.6646v-67.92c0-15.034-4.8323-27.114-14.497-36.511-6.7115-8.0538-18.524-12.349-32.215-12.349z" fill="#fff" stroke-width="8.6956"/>
<path class="st1" d="m319.97 428.94c-3.2215 0-4.8323 1.8792-5.9061 4.5639l-47.249 110.07-46.444-109.8c-1.3423-2.6846-2.6846-6.7115-7.7854-6.443h-62.551v-32.752c0-3.49-2.6846-6.1746-6.1746-6.1746-3.7584 0-6.1746 2.6846-6.1746 6.1746v130.2c0 24.161 16.108 34.9 35.974 34.9 7.2484 0 13.155-1.6108 17.987-3.2216 2.4161-1.0738 4.0269-2.6846 4.0269-5.1007 0-2.9531-2.6846-5.3692-5.3692-5.3692-1.6108 0-5.6377 2.4161-14.497 2.4161-14.765 0-25.504-6.443-25.504-24.698v-84.833h57.719v0.26848l51.276 114.9c1.6108 3.2216 3.49 5.1007 6.98 5.1007h0.53692c3.49 0 5.3692-1.8792 6.98-5.1007l51.544-115.44c0.53694-1.3423 0.8054-1.8792 0.8054-3.2216 0-3.7584-2.6846-6.443-6.1746-6.443z" fill="#fff" stroke-width="8.6956"/>
</svg>
