<svg width="1400pt" height="456.87pt" version="1.1" viewBox="0 0 1400 456.87" xmlns="http://www.w3.org/2000/svg">
 <circle cx="715.96" cy="228.44" r="228.44" fill="#00529b" style="paint-order:stroke fill markers"/>
 <g transform="translate(-49.999 -21.049)" fill="#fff">
  <path d="m758.24 78.38c12.29-0.34 24.65-0.15 36.79 1.98 6.49 1.13 13.36 1.89 18.96 5.68 6.97 4.32 11.32 12.14 12.34 20.17 0.8 6.99-1.76 13.84-5.28 19.75-4.96 8.11-14.51 13.09-23.98 12.64-4.1-0.14-8.03-1.42-12.08-1.92-18.98-2.72-38.75-1.57-56.94 4.74-19.9 6.79-37.4 19.75-50.64 35.98-12.65 14.92-21.16 33.33-24.2 52.66-4.14 26.71 0.21 55.23 14.56 78.4 9.09 14.73 21.53 27.32 35.84 37.01 17.99 12.15 39.76 18.55 61.45 18.2 17.92 0.35 36.05-3.43 52.05-11.62 15.17-7.52 28.25-18.86 38.85-32 11.58-14.47 19.77-31.8 22.63-50.16 2.37-13.86 2.16-28.1-0.22-41.94-0.6-4.02-2.03-7.95-1.73-12.06 0.44-8.64 4.93-17.23 12.35-21.86 5.07-3.18 10.89-5.57 16.96-5.55 9.44-0.12 18.78 4.97 23.69 13.07 3.83 5.95 4.21 13.23 5.55 19.99 3.67 24.05 2.84 48.88-3.28 72.48-9.17 36.16-31.91 68.01-60.9 91.09-27.87 22.43-63.32 34.93-99.04 35.6-22.78 0.84-45.81-2.37-67.14-10.54-33.11-12.71-61.6-36.35-81.68-65.44-17.04-24.56-26.46-54.05-28.13-83.82-1.91-28.57 2.82-57.84 15.13-83.82 6.86-14.65 15.99-28.21 26.79-40.25 23.97-27.77 56.9-48.18 93.1-55.16 9.29-1.85 18.72-3.08 28.2-3.3z"/>
  <path d="m891.87 90.42c5.98-0.65 12.31-0.2 17.62 2.86 7.39 4.21 13.49 11.29 15.31 19.73 2.34 9.21-0.98 19.44-7.82 25.94-34.01 34.02-68.03 68.05-102.06 102.06-5.6 5.65-13.79 8.68-21.69 7.93-15.14-1.18-27.99-15.86-26.71-31.08 0.49-6.46 3.47-12.68 8.01-17.28 34.02-34 68.02-68.02 102.04-102.03 4.05-4.23 9.5-7.23 15.3-8.13z"/>
 </g>
 <path d="m1067.2 58.111c24.57-3.22 50.66 2.86 70.12 18.51 10.74 8.44 19.25 19.51 25.24 31.75 2.75 5.83 5.66 11.97 5.26 18.59 0.19 10.28-6.8 19.99-16.35 23.58-5.16 2.13-10.87 2.13-16.35 1.73-9.63-0.85-18.37-7.51-21.88-16.49-3.81-9.21-10.92-17.11-20.01-21.3-8.13-3.93-17.65-3.9-26.27-1.81-12.28 3.37-22.43 13.31-26.39 25.38-2.32 7.74-2.91 16.17-0.45 23.96 2.78 9.86 10.64 17.47 19.47 22.21 13.61 7.28 28.98 9.85 43.56 14.46 16.13 5.24 32.59 11.23 45.6 22.5 17.51 14.5 26.94 36.69 30.05 58.8 2.7 20.36 0.01 41.54-8.46 60.3-6.66 14.85-16.99 28.09-29.93 37.99-37.66 28.98-95.1 28.54-131.83-1.84-12.94-10.75-22.98-24.91-28.87-40.66-1.95-5.44-4.32-10.93-4.21-16.82-0.38-11.98 8.93-23.16 20.6-25.47 9.41-1.74 20.09-0.79 27.66 5.61 3.63 3.21 6.41 7.37 7.87 12.01 4.9 14.56 16.3 27.29 31.12 32.06 10.62 3.21 22.51 2.76 32.62-1.96 12.23-5.44 21.58-16.49 25.72-29.12 3.39-11.68 3.55-24.94-2.23-35.91-5.4-10.41-15.61-17.29-26.15-21.73-11.65-5.08-24.35-6.83-36.17-11.38-11.72-4.31-23.36-9.05-34.14-15.39-12.03-6.96-21.68-17.6-28.42-29.67-8.49-15.52-11.46-33.57-10.43-51.1 1.2-27.41 14.89-54.1 37.02-70.45 13.56-10.11 29.86-16.34 46.63-18.34z" fill="#00529b"/>
 <path d="m6.9313 72.871c5.02-5.64 12.59-8.85 20.13-8.66h150.99c6.98-0.06 13.89 2.96 18.78 7.9 9.87 9.93 10.04 27.82 0.25 37.86-4.67 4.94-11.33 8.075-18.1 8.385h-48.37v248.64c0 9.85-6.19 19.4-15.24 23.32-5.37 2.75-11.58 2.54-17.44 2.22-10.49-0.93-19.93-8.92-22.5-19.14-1.36-4.71-0.91-9.64-1.01-14.46v-240.58h-49.49c-8.5-0.26-16.54-5.185-20.93-12.395-6.21-10.14-5.16-24.26 2.93-33.09z" fill="#00529b"/>
 <path d="m251.42 67.621c4.08-1.47 8.21-3.1 12.6-3.38 11.67-0.7 23.34 7.27 26.65 18.54l62.39 188.28 61.93-187.34c2.61-10.08 11.77-17.93 22.06-19.25 6.24-1.09 12.35 1.15 18.07 3.4 9.39 3.96 16.07 13.84 15.77 24.1 0.15 3.68-0.77 7.27-2.04 10.7l-88.87 270.1c-3.84 13.19-18.33 22.21-31.85 19.48-8.17-1.39-15.23-6.91-19.43-13.93-2.7-4.45-4.03-9.52-5.64-14.42l-83.24-253.02c-1.9-6.55-5.12-12.93-4.75-19.92 0.2-10.11 6.91-19.69 16.35-23.34z" fill="#00529b"/>
 <path d="m1202.6 72.871c5.02-5.64 12.59-8.85 20.13-8.66h150.99c6.98-0.06 13.89 2.96 18.78 7.9 9.87 9.93 10.04 27.82 0.25 37.86-4.67 4.94-11.33 8.075-18.1 8.385h-48.37v248.65c0 9.85-6.19 19.4-15.24 23.32-5.37 2.75-11.58 2.54-17.44 2.22-10.49-0.92999-19.93-8.92-22.5-19.14-1.36-4.71-0.91-9.64-1.01-14.46v-240.59h-49.49c-8.5-0.26-16.54-5.185-20.93-12.395-6.21-10.14-5.16-24.26 2.93-33.09z" fill="#00529b"/>
</svg>
