<svg version="1.1" viewBox="0 0 400.6 216.6" xml:space="preserve" xmlns="http://www.w3.org/2000/svg">
<rect class="st0" x="-220.6" y="-181.9" width="841.9" height="595.3" display="none" fill="none"/>
<path class="st1" d="m94.5 72.4h-61.4c-1 0-1.9 0.8-1.9 1.9v87.6c0 11.8 9.5 21.3 21.3 21.3h37.9c1 0 1.9 0.8 1.9 1.9v26.1c0 1-0.8 1.9-1.9 1.9h-40c-31.9-0.1-50.4-21.4-50.4-55.1v-156.1c0-1.1 0.8-1.9 1.9-1.9h27.5c1 0 1.9 0.8 1.9 1.9v38.9c0 1 0.8 1.9 1.9 1.9h51.4c0.8 0 1.5 0.5 1.7 1.2l10 26.1c0.5 1.1-0.4 2.4-1.8 2.4z" fill="#404041"/>
<path class="st1" d="m262 42.6c1.3 0 2.2 1.3 1.7 2.5l-58.7 154.1c-5.7 15.3-13.1 17.4-24.1 17.4s-18.5-2.1-24.1-17.4l-58.3-154.1c-0.5-1.2 0.4-2.5 1.7-2.5h30.1c0.8 0 1.5 0.5 1.7 1.2l47.5 126.2c0.6 1.6 2.9 1.6 3.5 0l47.2-126.2c0.3-0.7 1-1.2 1.7-1.2z" fill="#404041"/>
<path class="st2" d="m260.4 185.1c0-1 0.8-1.9 1.9-1.9h85.5c14.6 0 20.2-5.7 20.2-16.3 0-31.2-107.6-19.2-107.6-78.1 0-30.2 20.9-46.2 58.2-46.2h71.6c1 0 1.9 0.8 1.9 1.9v26.1c0 1-0.8 1.9-1.9 1.9h-77c-15.3 0-19.5 4.3-20.2 14.9 0 29.5 107.6 17 107.6 78.1 0 32.3-22.7 47.6-52.9 47.6h-85.5c-1 0-1.9-0.8-1.9-1.9v-26.1z" fill="#a61e22"/>
</svg>
