<svg width="921.83" height="1160" version="1.1" viewBox="0 0 243.9 306.92" xmlns="http://www.w3.org/2000/svg">
 <g transform="matrix(1.013,0,0,1.013,-111.16,-8.0406)">
  <path d="m331.99 109.8a101.86 101.86 0 0 1-101.86 101.86 101.86 101.86 0 0 1-101.86-101.86 101.86 101.86 0 0 1 101.86-101.86 101.86 101.86 0 0 1 101.86 101.86z" fill="#ff6800" style="paint-order:stroke markers fill"/>
  <g transform="matrix(.99495 0 0 .99495 162.4 31.759)" fill="#fff">
   <g transform="matrix(11.569,0,0,-11.569,105.41,117.52)">
    <path transform="matrix(.022986 0 0 -.022986 -23.22 5.9337)" d="m696.34-183.82c0.56557 0.82659 1.3053 1.5221 2.0449 2.2617l1.3496 1.3926 128.99 135.21h-83.006c-42.287 0-76.525 34.237-76.525 76.48v248.11c0 42.113 34.021 76.265 76.09 76.482h248.93c41.678-0.21752 75.438-33.759 76.047-75.35v-250.33c-0.6091-41.765-34.585-75.393-76.48-75.393h-83.355l127.6-133.73c2.0883-1.5227 3.7418-3.2621 5.0469-5.1328h-70.043l-103.59 106.98-103.15-106.98zm70.77 198.91h205.17c20.926 0 37.893 17.01 37.893 37.936v205.12c0 20.969-16.967 37.938-37.893 37.938h-205.17c-20.926 0-37.893-16.968-37.893-37.938v-205.12c0-20.926 16.967-37.936 37.893-37.936zm102.58 55.164c-44.505 0-80.57 36.11-80.57 80.615 0 44.549 36.065 80.613 80.57 80.613 44.505-1e-5 80.613-36.064 80.613-80.613 0-44.505-36.108-80.615-80.613-80.615z" fill="#fff" stroke-width="43.505"/>
   </g>
   <g transform="matrix(11.569,0,0,-11.569,35.07,143.59)">
    <path d="m0 0h5.712-5.721 9e-3" fill="#fff"/>
   </g>
   <g transform="matrix(11.569,0,0,-11.569,121.4,57.26)">
    <path d="m0 0c0 9e-3 -1e-3 0.017-1e-3 0.026v-5.755c0 9e-3 1e-3 0.017 1e-3 0.026z" fill="#fff"/>
   </g>
  </g>
 </g>
 <g transform="translate(40.601,89.958)" fill="#fff">
  <g transform="translate(-28.302)">
   <g transform="matrix(14.759,0,0,-14.759,38.854,149.04)">
    <path d="m0 0c0-0.14 0.028-0.234 0.083-0.284 0.055-0.049 0.126-0.074 0.213-0.074 0.069 0 0.167 0.012 0.292 0.034l0.05-0.254c-0.154-0.042-0.31-0.063-0.469-0.063-0.181 0-0.319 0.047-0.415 0.141-0.095 0.094-0.143 0.251-0.143 0.472v1.129h-0.326v0.259h0.329l0.152 0.492h0.234v-0.488h0.592v-0.263h-0.592z" fill="#fff"/>
   </g>
   <g transform="matrix(14.759,0,0,-14.759,79.04,132.06)">
    <path d="m0 0-0.241-0.122-0.589-1.641h-0.461l-0.578 1.655-0.215 0.108v0.213h0.847v-0.197l-0.227-0.109 0.421-1.336h0.044l0.39 1.339-0.228 0.102v0.201h0.837z" fill="#fff"/>
   </g>
  </g>
  <g transform="translate(-38.587)">
   <g transform="matrix(14.759,0,0,-14.759,125.38,132.06)">
    <path d="m0 0-0.241-0.122-0.589-1.641h-0.461l-0.578 1.655-0.215 0.108v0.213h0.847v-0.197l-0.227-0.109 0.421-1.336h0.044l0.39 1.339-0.228 0.102v0.201h0.837z" fill="#fff"/>
   </g>
   <g transform="matrix(14.759,0,0,-14.759,145.56,139.3)">
    <path d="m0 0c8e-3 0.102-9e-3 0.199-0.051 0.291-0.065 0.141-0.179 0.211-0.342 0.211-0.135 0-0.242-0.046-0.321-0.138-0.078-0.092-0.123-0.214-0.133-0.364zm-0.869-0.268c-0.01-0.236 0.043-0.417 0.16-0.542 0.117-0.126 0.293-0.189 0.529-0.189 0.141 0 0.3 0.025 0.476 0.076l0.072-0.282c-0.192-0.075-0.404-0.113-0.634-0.113-0.317 0-0.565 0.09-0.743 0.269-0.179 0.179-0.268 0.428-0.268 0.746 0 0.348 0.081 0.611 0.245 0.789 0.163 0.179 0.383 0.268 0.66 0.268 0.173 0 0.315-0.029 0.426-0.087s0.194-0.134 0.25-0.227c0.056-0.094 0.091-0.186 0.106-0.278 0.016-0.092 0.023-0.203 0.023-0.335v-0.095z" fill="#fff"/>
   </g>
   <g transform="matrix(14.759,0,0,-14.759,163.69,154.9)">
    <path d="m0 0c0.078-5e-3 0.143-7e-3 0.197-7e-3 0.12 0 0.215 0.025 0.285 0.076 0.07 0.05 0.105 0.125 0.105 0.223 0 0.06-0.028 0.117-0.083 0.172s-0.178 0.121-0.368 0.2c-0.121 0.051-0.219 0.097-0.295 0.14-0.075 0.043-0.139 0.102-0.192 0.178-0.052 0.076-0.079 0.171-0.079 0.285 0 0.172 0.057 0.306 0.169 0.4 0.113 0.093 0.317 0.14 0.613 0.14 0.126 0 0.3-0.013 0.523-0.04v-0.537h-0.258l-0.159 0.333c-0.054 2e-3 -0.101 3e-3 -0.141 3e-3 -0.25 0-0.375-0.078-0.375-0.234 0-0.057 0.031-0.112 0.092-0.166 0.062-0.054 0.193-0.121 0.394-0.202 0.21-0.086 0.35-0.178 0.419-0.275 0.07-0.098 0.104-0.21 0.104-0.338 0-0.201-0.067-0.353-0.202-0.457-0.135-0.103-0.32-0.155-0.555-0.155-0.174 0-0.371 0.013-0.592 0.037v0.566h0.246z" fill="#fff"/>
   </g>
   <g transform="matrix(14.759,0,0,-14.759,191.87,149.04)">
    <path d="m0 0c0-0.14 0.028-0.234 0.083-0.284 0.055-0.049 0.126-0.074 0.213-0.074 0.069 0 0.167 0.012 0.292 0.034l0.05-0.254c-0.154-0.042-0.31-0.063-0.469-0.063-0.181 0-0.319 0.047-0.415 0.141s-0.143 0.251-0.143 0.472v1.129h-0.326v0.259h0.329l0.152 0.492h0.234v-0.488h0.592v-0.263h-0.592z" fill="#fff"/>
   </g>
  </g>
 </g>
 <g transform="matrix(5.1429,0,0,5.1429,777.8,-977.21)" fill="#fff">
  <path d="m-147.58 249.53h1.5663l3.6618-8.7312h-2.2437l-2.2013 5.7362-2.2013-5.7362h-2.2437z"/>
  <path d="m-137.27 247.08c0.0106-0.0635 0.0106-0.17991 0.0106-0.254 0-1.905-1.2594-2.8787-2.9104-2.8787-1.6404 0-2.9845 1.2912-2.9845 2.8787 0 1.5769 1.3441 2.8681 2.9845 2.8681 1.2065 0 2.2013-0.39159 2.8152-1.4182l-1.3547-0.67733c-0.45509 0.48683-0.71967 0.60325-1.3229 0.60325-0.47625 0-1.1748-0.28575-1.1748-1.1218zm-3.8841-1.0372c0.0317-0.49742 0.39158-0.87842 1.0372-0.87842 0.55034 0 0.94192 0.30692 1.0266 0.87842z"/>
  <path d="m-134.06 243.95c-1.4288 0-2.3707 0.635-2.3707 1.7462 0 0.81491 0.55034 1.1959 1.1007 1.4817 0.61383 0.3175 1.2065 0.34925 1.2065 0.74084 0 0.35983-0.3175 0.39158-0.58208 0.39158-0.60325 0-1.3441-0.62442-1.3441-0.62442l-0.762 1.2806s0.78317 0.73025 2.0955 0.73025c1.1112 0 2.5718-0.254 2.5718-1.8521 0-1.1112-0.93133-1.5134-1.651-1.7357-0.46566-0.14817-0.84666-0.23284-0.84666-0.51859 0-0.254 0.16933-0.32808 0.58208-0.32808 0.5715 0 1.2065 0.33867 1.2065 0.33867l0.61383-1.2277s-0.77258-0.42333-1.8203-0.42333z"/>
  <path d="m-130.99 244.1h-0.78317v1.4288h0.78317v2.0849c0 0.96309 0.35983 2.0743 1.8521 2.0743 0.77258 0 1.3758-0.33867 1.3758-0.33867l-0.46566-1.5134s-0.22225 0.16934-0.46567 0.16934c-0.29633 0-0.42333-0.24342-0.42333-0.75142v-1.7251h1.143v-1.4288h-1.143v-2.0214h-1.8732z"/>
  <path d="m-127.13 249.53h1.8732v-9.1017h-1.8732z"/>
  <path d="m-124.38 246.82c0 1.5875 1.1112 2.8681 2.6988 2.8681 0.74083 0 1.3758-0.32809 1.778-0.77259h0.0212v0.61384h1.8521v-5.4292h-1.8732v0.51858c-0.4445-0.43392-1.0478-0.67733-1.778-0.67733-1.5875 0-2.6988 1.2912-2.6988 2.8787zm1.9897 0c0-0.75141 0.56092-1.2806 1.27-1.2806 0.6985 0 1.2594 0.52917 1.2594 1.2806 0 0.74084-0.52917 1.27-1.2594 1.27-0.762 0-1.27-0.52916-1.27-1.27z"/>
  <path d="m-116.76 249.53h1.8732v-3.0692c0-0.53975 0.55033-1.0583 1.1112-1.0583 0.60325 0 0.97367 0.51858 0.97367 1.0583v3.0692h1.8732v-3.5772c0-1.5134-1.3864-2.0108-2.3812-2.0108-0.59267 0-1.1324 0.30691-1.5558 0.73025h-0.0212v-0.5715h-1.8732z"/>
  <path d="m-110.16 246.82c0 1.5875 1.1112 2.8681 2.6988 2.8681 0.74083 0 1.3758-0.32809 1.778-0.77259h0.0212v0.61384h1.8521v-9.1017h-1.8732v4.191c-0.4445-0.43392-1.0478-0.67733-1.778-0.67733-1.5875 0-2.6988 1.2912-2.6988 2.8787zm1.9897 0c0-0.75141 0.56091-1.2806 1.27-1.2806 0.6985 0 1.2594 0.52917 1.2594 1.2806 0 0.74084-0.52916 1.27-1.2594 1.27-0.762 0-1.27-0.52916-1.27-1.27z"/>
 </g>
</svg>
