<svg width="135.59mm" height="211.67mm" version="1.1" viewBox="0 0 135.59 211.67" xmlns="http://www.w3.org/2000/svg">
 <g transform="translate(-.26966 .009471)" fill="#fff">
  <g transform="matrix(11.569,0,0,-11.569,105.41,117.52)">
   <path d="m-0.377 6.967h-1.916l2.933 3.074c0.048 0.035 0.086 0.075 0.116 0.118h-1.61l-2.381-2.459-2.371 2.459h-1.608c0.013-0.019 0.03-0.035 0.047-0.052l0.031-0.032 2.965-3.108h-1.908c-0.972 0-1.759-0.787-1.759-1.758v-5.703c0-0.968 0.782-1.753 1.749-1.758h5.722c0.958 5e-3 1.734 0.776 1.748 1.732v5.754c-0.014 0.96-0.795 1.733-1.758 1.733" fill="#fff"/>
  </g>
  <g transform="matrix(11.569,0,0,-11.569,68.05,110.43)">
   <path d="m0 0c-1.023 0-1.852 0.829-1.852 1.853 0 1.023 0.829 1.853 1.852 1.853s1.853-0.83 1.853-1.853c0-1.024-0.83-1.853-1.853-1.853m2.358 4.974h-4.716c-0.481 0-0.871-0.391-0.871-0.872v-4.715c0-0.482 0.39-0.872 0.871-0.872h4.716c0.481 0 0.871 0.39 0.871 0.872v4.715c0 0.481-0.39 0.872-0.871 0.872" fill="#ff6800"/>
  </g>
  <g transform="matrix(11.569,0,0,-11.569,35.07,143.59)">
   <path d="m0 0h5.712-5.721 9e-3" fill="#fff"/>
  </g>
  <g transform="matrix(11.569,0,0,-11.569,121.4,57.26)">
   <path d="m0 0c0 9e-3 -1e-3 0.017-1e-3 0.026v-5.755c0 9e-3 1e-3 0.017 1e-3 0.026z" fill="#fff"/>
  </g>
 </g>
 <g transform="translate(-.008165 .009471)" fill="#fff">
  <g transform="matrix(11.569,0,0,-11.569,8.28,175.21)">
   <path d="m0 0c0-0.14 0.028-0.234 0.083-0.284 0.055-0.049 0.126-0.074 0.213-0.074 0.069 0 0.167 0.012 0.292 0.034l0.05-0.254c-0.154-0.042-0.31-0.063-0.469-0.063-0.181 0-0.319 0.047-0.415 0.141-0.095 0.094-0.143 0.251-0.143 0.472v1.129h-0.326v0.259h0.329l0.152 0.492h0.234v-0.488h0.592v-0.263h-0.592z" fill="#fff"/>
  </g>
  <g transform="matrix(11.569,0,0,-11.569,39.78,161.9)">
   <path d="m0 0-0.241-0.122-0.589-1.641h-0.461l-0.578 1.655-0.215 0.108v0.213h0.847v-0.197l-0.227-0.109 0.421-1.336h0.044l0.39 1.339-0.228 0.102v0.201h0.837z" fill="#fff"/>
  </g>
  <g transform="matrix(11.569,0,0,-11.569,76.1,161.9)">
   <path d="m0 0-0.241-0.122-0.589-1.641h-0.461l-0.578 1.655-0.215 0.108v0.213h0.847v-0.197l-0.227-0.109 0.421-1.336h0.044l0.39 1.339-0.228 0.102v0.201h0.837z" fill="#fff"/>
  </g>
  <g transform="matrix(11.569,0,0,-11.569,91.92,167.57)">
   <path d="m0 0c8e-3 0.102-9e-3 0.199-0.051 0.291-0.065 0.141-0.179 0.211-0.342 0.211-0.135 0-0.242-0.046-0.321-0.138-0.078-0.092-0.123-0.214-0.133-0.364zm-0.869-0.268c-0.01-0.236 0.043-0.417 0.16-0.542 0.117-0.126 0.293-0.189 0.529-0.189 0.141 0 0.3 0.025 0.476 0.076l0.072-0.282c-0.192-0.075-0.404-0.113-0.634-0.113-0.317 0-0.565 0.09-0.743 0.269-0.179 0.179-0.268 0.428-0.268 0.746 0 0.348 0.081 0.611 0.245 0.789 0.163 0.179 0.383 0.268 0.66 0.268 0.173 0 0.315-0.029 0.426-0.087s0.194-0.134 0.25-0.227c0.056-0.094 0.091-0.186 0.106-0.278 0.016-0.092 0.023-0.203 0.023-0.335v-0.095z" fill="#fff"/>
  </g>
  <g transform="matrix(11.569,0,0,-11.569,106.13,179.8)">
   <path d="m0 0c0.078-5e-3 0.143-7e-3 0.197-7e-3 0.12 0 0.215 0.025 0.285 0.076 0.07 0.05 0.105 0.125 0.105 0.223 0 0.06-0.028 0.117-0.083 0.172s-0.178 0.121-0.368 0.2c-0.121 0.051-0.219 0.097-0.295 0.14-0.075 0.043-0.139 0.102-0.192 0.178-0.052 0.076-0.079 0.171-0.079 0.285 0 0.172 0.057 0.306 0.169 0.4 0.113 0.093 0.317 0.14 0.613 0.14 0.126 0 0.3-0.013 0.523-0.04v-0.537h-0.258l-0.159 0.333c-0.054 2e-3 -0.101 3e-3 -0.141 3e-3 -0.25 0-0.375-0.078-0.375-0.234 0-0.057 0.031-0.112 0.092-0.166 0.062-0.054 0.193-0.121 0.394-0.202 0.21-0.086 0.35-0.178 0.419-0.275 0.07-0.098 0.104-0.21 0.104-0.338 0-0.201-0.067-0.353-0.202-0.457-0.135-0.103-0.32-0.155-0.555-0.155-0.174 0-0.371 0.013-0.592 0.037v0.566h0.246z" fill="#fff"/>
  </g>
  <g transform="matrix(11.569,0,0,-11.569,128.22,175.21)">
   <path d="m0 0c0-0.14 0.028-0.234 0.083-0.284 0.055-0.049 0.126-0.074 0.213-0.074 0.069 0 0.167 0.012 0.292 0.034l0.05-0.254c-0.154-0.042-0.31-0.063-0.469-0.063-0.181 0-0.319 0.047-0.415 0.141s-0.143 0.251-0.143 0.472v1.129h-0.326v0.259h0.329l0.152 0.492h0.234v-0.488h0.592v-0.263h-0.592z" fill="#fff"/>
  </g>
 </g>
 <g transform="translate(.055778 .009471)" fill="#fff" stroke="#fff" stroke-width=".34708">
  <path d="m15.74 209.86-1.6082-0.64789v-12.634l1.6082-0.64789v-1.3536h-5.5649v1.3536l1.6197 0.64789v4.8939h-6.9648v-4.8939l1.5966-0.64789v-1.3536h-5.5533v1.3536l1.5966 0.64789v12.611l-1.5966 0.64789v1.2842h5.5533v-1.3074l-1.5966-0.62475v-5.9814h6.9417v6.0046l-1.5966 0.64789v1.2611h5.5649z"/>
  <path d="m19.34 196.55c-1.1685 1.4693-1.747 3.5981-1.747 6.3748 0 2.7651 0.57847 4.8823 1.747 6.3516s2.8345 2.2098 5.0096 2.2098 3.8411-0.72888 5.0096-2.1982c1.1569-1.4578 1.7354-3.5865 1.7354-6.3632s-0.57848-4.9054-1.7354-6.3748c-1.157-1.4693-2.8345-2.2098-5.0096-2.2098-2.175 0-3.841 0.74045-5.0096 2.2098zm0.70574 6.3863c0-4.5815 1.4346-6.8723 4.3038-6.8723 2.8924 0 4.327 2.2676 4.327 6.826 0 4.5815-1.4346 6.8723-4.327 6.8723-2.8692 0-4.3038-2.2676-4.3038-6.826z"/>
  <path d="m45.52 209.8-0.99497-0.71731c-0.0231-0.0116-0.31238-0.48591-0.87928-1.4115l-2.6494-4.327c1.0412-0.25452 1.8396-0.77515 2.3949-1.5503 0.5669-0.77516 0.85614-1.7123 0.85614-2.823 0-1.3189-0.38179-2.3833-1.1222-3.1932-0.75201-0.79829-2.0362-1.1916-3.8642-1.1916h-6.2822v1.3536l1.6891 0.64789v12.611l-1.5966 0.64789v1.2842h5.5533v-1.3074l-1.5966-0.62475v-5.4261h1.7354l3.9915 7.3582h2.7651zm-8.492-13.64h1.4693c0.59004 0 1.0412 0.0347 1.3768 0.0926 0.33551 0.0578 0.65945 0.21982 0.9834 0.48591 0.32394 0.25453 0.55533 0.59005 0.70574 0.99498 0.13883 0.4165 0.20825 0.89085 0.20825 1.4346 0 0.49749-0.081 0.9487-0.24296 1.3536-0.15041 0.40493-0.40493 0.75201-0.74045 1.0181-0.33551 0.27767-0.67103 0.43964-0.99497 0.50905-0.33551 0.0579-0.82143 0.0926-1.4462 0.0926h-1.3189z"/>
  <path d="m46.91 195.93 1.6891 0.64789v12.611l-1.585 0.64789v1.2842h6.2359c2.4296 0 4.3038-0.72888 5.6228-2.1751 1.3074-1.4578 1.9552-3.5634 1.9552-6.3169 0-2.6031-0.60162-4.5931-1.8164-5.9814-1.2032-1.3768-2.9039-2.0709-5.1021-2.0709h-6.9995zm4.0493 0.21982h2.0594c1.1454 0 2.1056 0.24296 2.8808 0.71731 0.77515 0.48591 1.3883 1.2148 1.828 2.1866 0.43964 0.98341 0.65946 2.1635 0.65946 3.575 0 2.0362-0.42807 3.7022-1.2726 4.9749-0.84457 1.2842-2.2445 1.9205-4.1997 1.9205h-1.9552z"/>
  <path d="m76.52 209.82-1.4346-0.5669-4.5237-14.67h-3.1585l-4.7203 14.693-1.2842 0.5669v1.2842h4.7666v-1.3074l-1.3536-0.5669 1.0991-3.6907h5.6112l1.0644 3.656-1.3768 0.62475v1.2842h5.3104zm-10.123-6.0046 2.1056-7.3003h0.42807l2.1056 7.3003z"/>
  <path d="m83.06 195.93v-1.3536h-5.669v1.3536l1.6197 0.64789v12.611l-1.5966 0.64789v1.2842h9.7183l0.46278-3.7369h-1.666l-1.1338 2.1288h-3.4246v-12.935z"/>
  <path d="m103.02 209.82-1.4346-0.5669-4.5237-14.67h-3.1585l-4.7203 14.693-1.2842 0.5669v1.2842h4.7666v-1.3074l-1.3536-0.5669 1.0991-3.6907h5.6112l1.0644 3.656-1.3768 0.62475v1.2842h5.3104zm-10.123-6.0046 2.1056-7.3003h0.42807l2.1056 7.3003z"/>
  <path d="m118.94 194.58h-5.16v1.3305l1.6197 0.64789v11.5l-6.0855-13.478h-5.4145v1.3536l1.7007 0.64789v12.611l-1.5966 0.64789v1.2842h5.1021v-1.3074l-1.585-0.62475v-12.472h0.28923l6.6062 14.404h2.9155v-14.543l1.6082-0.64789z"/>
  <path d="m120.69 195.93 1.6891 0.64789v12.611l-1.585 0.64789v1.2842h6.2359c2.4296 0 4.3038-0.72888 5.6228-2.1751 1.3074-1.4578 1.9552-3.5634 1.9552-6.3169 0-2.6031-0.60162-4.5931-1.8164-5.9814-1.2032-1.3768-2.9039-2.0709-5.1021-2.0709h-6.9995zm4.0493 0.21982h2.0594c1.1454 0 2.1056 0.24296 2.8808 0.71731 0.77515 0.48591 1.3883 1.2148 1.828 2.1866 0.43964 0.98341 0.65946 2.1635 0.65946 3.575 0 2.0362-0.42807 3.7022-1.2726 4.9749-0.84457 1.2842-2.2445 1.9205-4.1997 1.9205h-1.9552z"/>
 </g>
</svg>
