<svg width="138.43mm" height="211.68mm" version="1.1" viewBox="0 0 138.43 211.68" xmlns="http://www.w3.org/2000/svg">
 <g transform="translate(1.742 .0088)">
  <path d="m100.18 36.6h-21.99l33.639-35.252c0.56227-0.40337 0.99009-0.86786 1.3324-1.3568h-18.457l-27.307 28.199-27.197-28.199h-18.445c0.15891 0.22002 0.35448 0.40337 0.53783 0.59894l0.35448 0.3667 34.006 35.643h-21.88c-11.136 0-20.169 9.0209-20.169 20.169v65.407c0 11.099 8.972 20.095 20.059 20.156h65.627c10.977-0.0611 19.887-8.8986 20.034-19.863v-65.994c-0.1589-11.001-9.1064-19.875-20.144-19.875" fill="#fff"/>
  <path d="m67.46 109.47c-11.734 0-21.244-9.5098-21.244-21.244 0-11.734 9.5098-21.257 21.244-21.257s21.244 9.522 21.244 21.257c0 11.734-9.5098 21.244-21.244 21.244m27.038-57.047h-54.076c-5.525 0-9.9988 4.4738-9.9988 9.9988v54.089c0 5.5128 4.4738 9.9988 9.9988 9.9988h54.076c5.525 0 9.9988-4.486 9.9988-9.9988v-54.089c0-5.525-4.4738-9.9988-9.9988-9.9988" fill="#ff6800"/>
  <path d="m120.34 56.77c0-0.0978-0.0122-0.19557-0.0122-0.29336v65.994c0-0.0978 0.0122-0.19557 0.0122-0.29336z" fill="#fff"/>
 </g>
 <g transform="translate(2.0105 .0088)" fill="#fff">
  <path d="m34.77 142.34h65.517-65.627 0.11001"/>
  <path d="m8.2 173.69c0 1.6013 0.31781 2.6892 0.95343 3.2514 0.63561 0.56227 1.4424 0.85564 2.4447 0.85564 0.79452 0 1.9068-0.13446 3.3492-0.39115l0.56228 2.9092c-1.7602 0.48893-3.557 0.7334-5.3661 0.7334-2.078 0-3.667-0.53783-4.7671-1.6257-1.0879-1.0757-1.6379-2.8725-1.6379-5.415v-12.945h-3.7404v-2.9703h3.777l1.7357-5.635h2.6892v5.5983h6.784v3.007h-6.784z"/>
  <path d="m39.43 160.5-2.7625 1.3935-6.7473 18.836h-5.305l-6.6251-18.995-2.4569-1.2346v-2.4447h9.7176v2.2613l-2.6158 1.259 4.8282 15.316h0.51339l4.4615-15.365-2.6036-1.1734v-2.298h9.5954z"/>
  <path d="m75.44 160.5-2.7625 1.3935-6.7473 18.836h-5.305l-6.6251-18.995-2.4569-1.2346v-2.4447h9.7176v2.2613l-2.6036 1.259 4.8282 15.316h0.50116l4.4615-15.365-2.6036-1.1734v-2.298h9.5954z"/>
  <path d="m91.12 166.12c0.0978-1.1734-0.0978-2.2858-0.58672-3.337-0.74563-1.6135-2.0413-2.4202-3.9237-2.4202-1.5402 0-2.7747 0.52561-3.667 1.589-0.90453 1.0512-1.4179 2.4447-1.5402 4.1682zm-9.9621 3.0681c-0.12223 2.7136 0.48894 4.7794 1.8335 6.2217 1.3324 1.4424 3.3614 2.1635 6.0628 2.1635 1.6257 0 3.4348-0.28113 5.4639-0.86786l0.83119 3.2392c-2.2124 0.85563-4.6449 1.2834-7.2852 1.2834-3.6304 0-6.4784-1.0268-8.5197-3.0803-2.0535-2.0535-3.0681-4.9016-3.0681-8.5564 0-3.9848 0.92898-7.004 2.7992-9.0453 1.8824-2.0535 4.4004-3.0803 7.5785-3.0803 1.9802 0 3.6059 0.34225 4.8771 1.0023 1.2712 0.67228 2.2369 1.5402 2.8725 2.6158 0.63562 1.0634 1.0512 2.1269 1.2223 3.1781 0.17113 1.0512 0.26892 2.3347 0.26892 3.8382v1.0879z"/>
  <path d="m105.2 178.24c0.89231 0.0489 1.6379 0.0856 2.2613 0.0856 1.3812 0 2.4569-0.29336 3.2636-0.86786 0.80675-0.58672 1.1979-1.4424 1.1979-2.5669 0-0.69674-0.3178-1.3446-0.9412-1.9802-0.63561-0.62339-2.0413-1.3812-4.2293-2.2858-1.3812-0.5745-2.5058-1.1123-3.3737-1.6135-0.85564-0.48894-1.589-1.1612-2.2002-2.0413-0.59895-0.85564-0.90453-1.9558-0.90453-3.2514 0-1.9802 0.64784-3.5081 1.9313-4.596 1.2957-1.0757 3.6426-1.6135 7.0407-1.6135 1.4424 0 3.4348 0.1589 5.9895 0.46449v6.1606h-2.9581l-1.8213-3.8137c-0.6234-0.0244-1.1612-0.0367-1.6135-0.0367-2.8725 0-4.3149 0.89231-4.3149 2.6769 0 0.64784 0.35448 1.2835 1.0634 1.9068 0.70896 0.61117 2.2124 1.3935 4.5227 2.3224 2.408 0.97787 4.0093 2.0291 4.8038 3.1536 0.79452 1.1123 1.1979 2.408 1.1979 3.8748 0 2.298-0.78229 4.046-2.3224 5.2316-1.5524 1.1857-3.6792 1.7846-6.3684 1.7846-1.9924 0-4.2538-0.14669-6.7962-0.42782v-6.4906h2.8358z"/>
  <path d="m127.1 173.69c0 1.6013 0.31781 2.6892 0.95343 3.2514 0.62339 0.56227 1.4424 0.85564 2.4447 0.85564 0.79452 0 1.9068-0.13446 3.3492-0.39115l0.56228 2.9092c-1.7602 0.48893-3.557 0.7334-5.3661 0.7334-2.078 0-3.667-0.53783-4.7671-1.6257-1.0879-1.0757-1.6379-2.8725-1.6379-5.415v-12.945h-3.7404v-2.9703h3.777l1.7357-5.635h2.6892v5.5983h6.784v3.007h-6.784z"/>
 </g>
 <g transform="translate(-.86349 .0088)" fill="#fff" stroke="#fff">
  <g transform="matrix(12.223,0,0,-12.223,15.8,209.5)">
   <path d="m0 0-0.095 0.069c-3e-3 1e-3 -0.031 0.047-0.085 0.136l-0.255 0.416c0.099 0.025 0.176 0.075 0.231 0.15 0.054 0.075 0.081 0.165 0.081 0.271 0 0.128-0.036 0.231-0.108 0.308s-0.196 0.115-0.372 0.115h-0.605v-0.13l0.163-0.063v-1.214l-0.153-0.062v-0.124h0.534v0.126l-0.154 0.06v0.522h0.167l0.385-0.708h0.266zm-0.818 1.314h0.142c0.056 0 0.1-3e-3 0.132-9e-3 0.033-6e-3 0.064-0.022 0.095-0.047s0.054-0.057 0.068-0.097c0.013-0.039 0.02-0.085 0.02-0.137 0-0.048-7e-3 -0.092-0.023-0.131-0.015-0.039-0.039-0.072-0.072-0.098-0.032-0.026-0.064-0.042-0.096-0.048s-0.078-9e-3 -0.139-9e-3h-0.127z" fill="#fff" stroke="#fff" stroke-width=".028"/>
  </g>
  <g transform="matrix(12.223,0,0,-12.223,19.24,193.92)">
   <path d="m0 0c-0.112-0.142-0.168-0.346-0.168-0.613s0.056-0.471 0.168-0.613c0.112-0.141 0.273-0.212 0.483-0.212 0.209 0 0.369 0.07 0.481 0.211s0.168 0.346 0.168 0.614c0 0.267-0.056 0.471-0.167 0.613-0.112 0.142-0.273 0.213-0.482 0.213-0.21 0-0.371-0.071-0.483-0.213zm0.068-0.615c0 0.441 0.138 0.662 0.415 0.662s0.416-0.219 0.416-0.657c0-0.442-0.139-0.663-0.416-0.663s-0.415 0.219-0.415 0.658z" fill="#fff" stroke="#fff" stroke-width=".028"/>
  </g>
  <g transform="matrix(12.223,0,0,-12.223,49.95,204.11)">
   <path d="m0 0 0.167 0.062v0.148h-0.395v-0.64c-0.082-9e-3 -0.143-0.013-0.185-0.013-0.361 0-0.541 0.22-0.541 0.659 0 0.445 0.18 0.667 0.541 0.667 0.042 0 0.093-4e-3 0.154-0.013l0.096-0.223h0.171v0.352c-0.159 0.026-0.302 0.039-0.429 0.039-0.246 0-0.436-0.071-0.569-0.213-0.134-0.142-0.2-0.345-0.2-0.609 0-0.262 0.066-0.464 0.2-0.607 0.133-0.142 0.323-0.213 0.569-0.213 0.127 0 0.268 0.016 0.421 0.047z" fill="#fff" stroke="#fff" stroke-width=".028"/>
  </g>
  <path d="m70.74 209.53-1.6868-0.66006-5.3294-17.272h-3.7159l-5.5616 17.296-1.5035 0.66007v1.5157h5.6105v-1.5402l-1.589-0.66006 1.2957-4.3515h6.5884l1.2712 4.3026-1.6257 0.73341v1.5157h6.2462zm-11.918-7.0651 2.4814-8.5931h0.50116l2.4814 8.5931z" stroke-width=".34226"/>
  <path d="m78.44 193.19v-1.589h-6.6618v1.589l1.8946 0.77007v14.839l-1.8824 0.75785v1.5157h11.441l0.53783-4.4004h-1.9558l-1.3324 2.4936h-4.0337v-15.206z" stroke-width=".34226"/>
  <path d="m101.94 209.53-1.6868-0.66006-5.3294-17.272h-3.7159l-5.5616 17.296-1.5035 0.66007v1.5157h5.6105v-1.5402l-1.589-0.66006 1.2957-4.3515h6.5884l1.2712 4.3026-1.6257 0.73341v1.5157h6.2462zm-11.918-7.0651 2.4814-8.5931h0.50116l2.4814 8.5931z" stroke-width=".34226"/>
  <path d="m120.67 191.59h-6.075v1.5646l1.9068 0.77007v13.531l-7.1629-15.866h-6.3684v1.589l1.9924 0.77008v14.839l-1.8702 0.75785v1.5157h6.0017v-1.5402l-1.8702-0.7334v-14.68h0.35448l7.7741 16.954h3.4226v-17.113l1.8946-0.77008z" stroke-width=".34226"/>
  <g transform="matrix(12.223,0,0,-12.223,122.73,193.19)">
   <path d="m0 0 0.163-0.063v-1.214l-0.153-0.062v-0.124h0.6c0.235 0 0.415 0.07 0.541 0.21 0.127 0.14 0.19 0.343 0.19 0.608 0 0.251-0.059 0.442-0.175 0.576-0.117 0.133-0.281 0.199-0.492 0.199h-0.674zm0.39-0.021h0.198c0.11 0 0.203-0.023 0.278-0.07 0.075-0.046 0.133-0.116 0.175-0.21 0.043-0.094 0.064-0.209 0.064-0.344 0-0.196-0.041-0.356-0.123-0.479-0.081-0.124-0.216-0.185-0.404-0.185h-0.188z" fill="#fff" stroke="#fff" stroke-width=".028"/>
  </g>
 </g>
</svg>
