<svg width="600pt" height="599.95pt" version="1.1" viewBox="0 0 600 599.95" xmlns="http://www.w3.org/2000/svg">
 <g transform="matrix(53.744 0 0 -53.744 0 300.21)">
  <path d="m0 0c0 3.087 2.499 5.586 5.577 5.586 3.087 0 5.587-2.499 5.587-5.586 0-3.077-2.5-5.577-5.587-5.577-3.078 0-5.577 2.5-5.577 5.577" fill="#f14d1c"/>
 </g>
 <g transform="matrix(53.744 0 0 -53.744 139.94 504.8)">
  <path d="m0 0c0-0.057 0.047-0.113 0.114-0.113h1.259c0.057 0 0.113 0.056 0.113 0.113v7.386c0 0.057-0.056 0.113-0.113 0.113h-1.865c-0.057 0-0.114-0.056-0.114-0.113v-1.165c0-0.066 0.057-0.114 0.114-0.114h0.492z" fill="#fff"/>
 </g>
 <g transform="matrix(53.744 0 0 -53.744 248.86 496.14)">
  <path d="m0 0c-0.047-0.086-0.066-0.123-0.066-0.161 0-0.057 0.037-0.114 0.142-0.114h4.09c0.057 0 0.114 0.057 0.114 0.114v1.165c0 0.056-0.057 0.113-0.114 0.113h-1.893l0.956 1.506c0.596 0.946 1.335 1.799 1.335 2.831 0 1.118-0.88 2.083-2.206 2.083-1.629 0-2.339-1.439-2.339-2.367 0-0.104 0.01-0.17 0.133-0.17h1.098c0.076 0 0.104 0.057 0.113 0.123 0.057 0.293 0.275 0.975 0.947 0.975 0.474 0 0.787-0.332 0.767-0.748-0.019-0.416-0.283-0.786-1.41-2.623z" fill="#fff"/>
 </g>
</svg>
