<svg enable-background="new 0 0 477.8 120" version="1.1" viewBox="0 0 477.8 120" xml:space="preserve" xmlns="http://www.w3.org/2000/svg">
	<circle cx="60" cy="60" r="60" fill="#FF3334"/>
	<path d="m62.9 79.7h-15.6l15.6-23.1v23.1zm24.2 0h-8.1v-69.3c0-0.6-0.4-1-0.9-1.2s-1.1 0-1.4 0.5l-56.4 83.3c-0.4 0.6-0.2 1.4 0.4 1.7 0.2 0.1 0.4 0.2 0.6 0.2h41.6v9.4c0 0.7 0.6 1.2 1.2 1.2h13.5c0.7 0 1.3-0.5 1.3-1.2v-9.3h8.1c0.7 0 1.2-0.5 1.2-1.2v-12.9c0.2-0.7-0.4-1.2-1.1-1.2 0.1-0.1 0.1-0.1 0 0" fill="#fff"/>
	<path d="m172.9 60.3c0 15 11.6 27.1 26.3 27.1 11.4 0 21.4-7.4 24.6-17.1h-17.1c-4.2 0-5.6-1.3-5.6-5.8v-3.6c0-4.6 1.4-6 5.6-6h29.7c4.2 0 5.6 1.4 5.6 6v1.4c0 22.1-18.9 40.8-42.8 40.8-23.6 0.4-43.1-18.4-43.5-42s18.4-43.1 42-43.5h1.3c14.4 0 24.8 6.8 31.4 13.4 2.6 2.6 3.7 4.5 0.5 8.2l-2.7 3c-3 3.4-4.8 3.7-8 0.9-5.4-4.8-11-9.9-21.3-9.9-14.4 0.1-26 12.3-26 27.1z" fill="#FF3334"/>
	<path d="M258,71V24.6c0-4.2,1.3-5.6,5.9-5.6h4.6c4.6,0,6,1.4,6,5.6v47c0,9.5,5.3,16.3,14.9,16.3   s14.9-6.8,14.9-16.3v-47c0-4.2,1.4-5.6,6-5.6h4.6c4.6,0,5.9,1.4,5.9,5.6V71c0,19.9-13.5,32.2-31.2,32.2S258,90.9,258,71z" fill="#FF3334"/>
	<path d="m344.5 101.9c-4.6 0-5.9-1.4-5.9-5.6v-71.7c0-4.2 1.3-5.6 5.9-5.6h4.6c4.6 0 6 1.4 6 5.6v61.9h31.7c4.2 0 5.6 1.4 5.6 6v3.5c0 4.6-1.4 5.8-5.6 5.8l-42.3 0.1z" fill="#FF3334"/>
	<path d="m410.3 101.9c-4.6 0-5.8-1.4-5.8-5.6v-71.7c0-4.2 1.3-5.6 5.8-5.6h27.4c21.3 0 39.8 14.4 39.8 41.5s-18.7 41.4-40 41.4h-27.2zm26.9-15.5c12.7 0 23.5-8.8 23.5-26s-10.5-26-23.4-26h-16.5v52h16.4z" fill="#FF3334"/>
</svg>
