<svg width="761.2" height="190.93" version="1.1" viewBox="0 0 201.4 50.516" xmlns="http://www.w3.org/2000/svg">
 <g transform="matrix(1.3078,0,0,1.3078,-1.3078,-1.4386)" fill="#00a8ec">
  <path d="m28.5 20.6h-6.4l-5.4-13.2h-4v13.2h-7.2v-13.1h-4.5v-6.1h21.1l3.2 10.9 3.2-10.9h8.1z"/>
  <path d="m51.6 6.8v-5.4h-14l-1.9 11.5s2.3-0.6 4.6-0.8c2.5-0.1 5 0.4 4.9 2.1-0.1 1.4-3.1 2.1-5.5 1.6-2.3-0.5-4.3-1.4-4.3-1.4l-0.9 5.1s4.6 1.6 7.9 1.5 9.9-0.9 10.3-6.8c0.2-4-4-6-6.4-6-3 0-4.1 0.7-4.1 0.7l0.5-2.1z"/>
  <path d="m63.3 1.4 2.7 10.1 2.8-10.1h7.1l3.2 19.2h-6.8l-0.9-10.5-3.3 10.5h-4.1l-3.3-10.5-1 10.5h-6.7l3.1-19.2z"/>
  <path d="m89.6 21c-5.9 0-10.6-3.7-10.6-9.9 0-6 4.8-10 10.6-10s10.6 3.9 10.6 10c0 6.2-4.8 9.9-10.6 9.9zm-3.6-9.8c0 2.2 1.5 3.7 3.6 3.7s3.6-1.5 3.6-3.7c0-2-1.4-3.8-3.6-3.8s-3.6 1.7-3.6 3.8z"/>
  <path d="m108.2 1.4 5.9 10.6v-10.6h6.6v19.2h-6.6l-6-10.1v10.1h-6.7v-19.2z"/>
  <path d="m129.3 1.4c6.5 0 11.4 2.8 11.4 9.9 0 5.7-4 9.4-9.7 9.4h-8.9v-19.3m7.1 13.5h0.4c2.3 0 4.1-1.1 4.1-3.6 0-2.7-1.6-3.9-4.1-3.9h-0.4z"/>
  <path d="m154.8 1.4v5.2h-5.9v1.9h5.4v5h-5.4v1.9h6.1v5.2h-13.1v-19.2z"/>
 </g>
 <g transform="matrix(.4 0 0 .4 -850.49 -2.0541)" fill="#fff">
  <path d="m2131.6 112.24h3.1201c8.2624 0 15.254-3.5245 15.254-12.711 0-7.9735-4.16-12.596-17.565-12.596h-6.2401v43.566h5.4312zm0-20.454h1.4445c5.3735 0 11.845 0.80891 11.845 7.6269 0 6.9335-6.009 7.9735-11.556 7.9735h-1.7334z" style="white-space:pre"/>
  <path d="m2179.3 119.58 4.969 10.92h5.8357l-20.8-45.414-20.8 45.414h5.8357l4.969-10.92zm-2.2534-4.969h-15.485l7.7424-17.623z" style="white-space:pre"/>
  <path d="m2228.5 88.957c-3.2934-2.0223-7.1646-2.9467-10.978-2.9467-12.827 0-23.169 10.054-23.169 22.938 0 12.596 10.285 22.476 22.707 22.476 3.8134 0 8.089-1.0978 11.44-3.0623v-6.4135c-3.2356 2.889-7.3379 4.5068-11.614 4.5068-9.7069 0-17.103-8.1469-17.103-17.68 0-9.6491 7.4535-17.796 17.218-17.796 4.1023 0 8.378 1.5023 11.498 4.2757z" style="white-space:pre"/>
  <path d="m2243.1 86.935h-5.4312v43.566h5.4312z" style="white-space:pre"/>
  <path d="m2275.3 91.904v-4.969h-21.089v43.566h5.4312v-21.378h15.138v-4.969h-15.138v-12.249z" style="white-space:pre"/>
  <path d="m2289.9 86.935h-5.4312v43.566h5.4312z" style="white-space:pre"/>
  <path d="m2343.5 131.42-6.7601-6.6446c4.2756-4.0446 6.8179-9.8802 6.8179-16.063 0-12.48-10.342-22.707-22.823-22.707-12.48 0-22.823 10.227-22.823 22.707 0 12.943 10.227 22.707 22.823 22.707 4.1601 0 8.8402-1.3867 12.422-3.8712l3.7557 3.8712zm-17.334-17.334h-6.7601l9.9958 9.7647c-2.6578 1.6756-6.0091 2.4845-8.6669 2.4845-9.418 0-17.391-7.6846-17.391-17.623 0-9.5914 7.1646-17.623 17.391-17.623 10.227 0 17.392 8.0313 17.392 17.623 0 4.1601-1.7334 9.1869-5.0845 12.191z" style="white-space:pre"/>
  <path d="m2351 86.935v27.561c0 9.5914 5.9512 16.929 15.947 16.929s15.947-7.338 15.947-16.929v-27.561h-5.4312v25.712c0 7.1068-2.1378 13.694-10.516 13.694-8.3779 0-10.516-6.5868-10.516-13.694v-25.712z" style="white-space:pre"/>
  <path d="m2393.4 130.5h23.4v-4.969h-17.969v-16.467h17.449v-4.969h-17.449v-12.191h17.969v-4.969h-23.4z" style="white-space:pre"/>
 </g>
</svg>
