<svg width="800" height="484.98" version="1.1" viewBox="0 0 800 484.98" xml:space="preserve" xmlns="http://www.w3.org/2000/svg"><defs><clipPath id="clipPath274"><path d="m0 0h1190.6v595.28h-1190.6z"/></clipPath><clipPath id="clipPath298"><path d="m0 0h1190.6v595.28h-1190.6z"/></clipPath><clipPath id="clipPath314"><path d="m0 0h1190.6v595.28h-1190.6z"/></clipPath></defs><g transform="matrix(1.3333 0 0 -1.3333 -4.0873e-5 484.98)"><g transform="matrix(4.1328 0 0 4.1328 -1013.7 -282.11)"><g transform="translate(364.61 87.132)"><path d="m0 0-2.055 3.886h-2.84v-7.106h2.763v3.716l2.202-3.716h2.693v7.106h-2.763z" fill="#00adef"/></g><g clip-path="url(#clipPath274)"><g transform="translate(370.32 91.017)"><path d="m0 0h-2.468v-7.105h3.074s3.369 0.116 3.369 3.453c0 3.76-3.975 3.652-3.975 3.652m1.443-3.534c0-1.361-1.346-1.361-1.346-1.361h-0.277l9e-3 2.685h0.268s1.346 0.036 1.346-1.324" fill="#00adef"/></g><g transform="translate(355.37 83.934)"><path d="m0 0c2.402 0 3.842 1.596 3.842 3.561 0 1.967-1.604 3.552-3.842 3.552-2.235 0-3.856-1.585-3.856-3.552 0-1.965 1.455-3.561 3.856-3.561m0 4.833c0.717 0 1.291-0.597 1.291-1.335 0-0.736-0.574-1.334-1.291-1.334-0.723 0-1.307 0.598-1.307 1.334 0 0.738 0.584 1.335 1.307 1.335" fill="#00adef"/></g></g><g transform="translate(379.38 89.044)"><path d="m0 0v1.895h-4.737v-6.868h4.816v1.895h-2.211v0.63h1.895v1.816h-1.895v0.632z" fill="#00adef"/></g><g transform="translate(347.87 90.938)"><path d="m0 0-0.967-3.555-0.984 3.555h-2.608l-1.11-6.868h2.444l0.353 3.726 1.166-3.726h1.468l1.177 3.739 0.329-3.739h2.452l-1.133 6.868z" fill="#00adef"/></g><g clip-path="url(#clipPath298)"><g transform="translate(339.82 84.075)"><path d="m0 0c2.399 0.432 2.594 2.437 2.172 3.191-1.023 1.822-3.224 1.196-3.608 1.042 0.099 0.591 0.139 0.735 0.139 0.735h3.115v1.895h-4.98s-0.646-3.886-0.678-4.101c0.569 0.184 1.539 0.322 2.303 0.249 0.678-0.071 1.197-0.301 1.124-0.705-0.088-0.477-0.736-0.668-1.519-0.618-0.658 0.048-1.406 0.261-1.991 0.56-0.055-0.302-0.307-1.846-0.307-1.846s1.825-0.832 4.23-0.402" fill="#00adef"/></g></g><g transform="translate(327.75 84.07)"><path d="m0 0v4.658h1.402l1.955-4.658h2.309l2.887 6.868h-2.881l-1.138-3.867-1.159 3.867h-7.638v-2.21h1.644l-2e-3 -4.658z" fill="#00adef"/></g></g><g transform="matrix(4.1328 0 0 4.1328 -1013.7 -282.11)"><g clip-path="url(#clipPath314)"><g transform="translate(262.45 145.09)"><path d="m0 0c0 6.023 4.907 8.981 8.998 8.981 6.414 0 12.099-6.433 12.099-13.707h0.893v15.909h-0.76c0-2.027-2.157-2.486-4.052-2.486-2.789 0-3.997 1.874-7.995 1.874-9.575 0-15.245-7.174-15.245-14.993 0-12.944 15.245-18.688 23.519-29.565-7e-3 4e-3 -0.013 0.011-0.02 0.014 1.062-1.405 2.151-3.125 3.06-5.146 0.046-0.103 0.093-0.207 0.138-0.312 0.133-0.303 0.26-0.613 0.383-0.929 0.034-0.089 0.068-0.177 0.102-0.266 1e-3 -4e-3 3e-3 -8e-3 5e-3 -0.012 0.906-2.436 1.444-5.135 1.444-8.171 0-11.686-7.529-19.61-18.406-19.61-12.271 0-20.293 9.342-20.293 18.69 0 9.528 8.208 18.418 20.758 18.418 3.862 0 7.366-1.181 10.664-2.694-0.552 0.66-1.077 1.224-1.538 1.687-2.897 1.082-5.874 1.906-9.126 1.906-13.293 0-21.79-9.789-21.79-19.406 0-9.438 7.939-19.771 22.069-19.771 15.02 0 22.147 12.521 23.885 22.104 0 0 0.378 1.764 0.378 3.979l-0.093 1.529c-0.837 19.685-29.077 27.145-29.077 41.977" fill="#00adef"/></g><g transform="translate(337.92 96.416)"><path d="m0 0v0.681h0.555c0.917 0 2.824 0 2.824 2.992v50.262c0 2.872-1.821 2.872-2.91 2.872h-0.68v0.54h9.972v-53.674c0-2.474 1.441-2.992 2.65-2.992h0.377v-0.681z" fill="#00adef"/></g><g transform="translate(329.19 135.11)"><path d="m0 0v-0.685c1.375-0.017 3.268-0.2 3.268-2.202 0-0.271-0.758-3.026-3.365-12.359-1.709-6.117-3.477-12.442-3.774-13.761l-0.778-7e-3 -6.356 26.08v0.047c0 2.011 2.005 2.187 3.449 2.202v0.685h-20.888v8.729h-0.926c-1.199-3.317-3.109-5.72-5.989-7.545-0.984-0.654-2.173-0.936-3.339-1.119v-0.745h3.802v-30.044c0-2.848 0.807-5.029 2.397-6.482 1.411-1.287 3.44-1.968 5.868-1.968 2.83 0 4.784 1.109 6.668 3.809l-0.456 0.35c-1.374-2.259-3.274-2.379-3.659-2.379-2.775 0-4.366 1.961-4.366 5.381v31.333h7.642l0.033-6e-3c1.367-0.231 2.326-0.682 2.881-2.209l4e-3 -0.012 10.57-36.487c-1.888-5.55-5.49-11.957-8.303-15.793-0.011-0.016-1.718-2.381-3.595-3.955-2.481-2.08-5.136-3.352-7.894-3.352-2.53 0-5.049 0.706-6.804 2.041-1.739 1.322-2.95 3.371-2.95 5.324h-0.718c0-2.333 1.111-4.635 3.13-6.21 1.941-1.516 4.549-2.351 7.342-2.351 3.015 0 6.021 1.206 8.691 3.486 0.78 0.666 1.423 1.348 1.921 1.936 1.219 1.362 2.645 3.254 4.289 5.801 3.057 4.735 5.333 9.973 6.191 12.671l5e-3 0.014c2.501 6.968 6.18 19.015 11.247 36.833l6e-3 0.019 7e-3 0.019c0.736 1.841 2.179 2.113 4.44 2.213v0.698z" fill="#00adef"/></g><g transform="translate(365.14 95.953)"><path d="m0 0c-1.997 0-3.874 0.539-5.574 1.602-1.608 1.006-3.031 2.457-4.229 4.312-2.341 3.626-3.631 8.461-3.631 13.613 0 5.319 1.242 10.298 3.497 14.02 1.163 1.919 2.548 3.417 4.118 4.454 1.662 1.099 3.504 1.655 5.476 1.655 1.883 0 3.591-0.559 5.077-1.662 1.339-0.996 2.5-2.43 3.45-4.262 1.644-3.171 2.586-7.409 2.586-11.627 0-0.834-0.096-0.876-0.373-0.876h-17.234v-3.604c0-6.28 0.609-10.646 1.86-13.348 1.087-2.346 2.687-3.486 4.891-3.486h0.344c2.384 0 4.354 1.295 5.854 3.848 1.226 2.089 2.074 4.682 2.571 6.781h1.811c-0.551-2.263-1.555-5.265-3.316-7.608-1.903-2.529-4.318-3.812-7.178-3.812m-0.429 38.97c-1.774 0-3.222-1.394-4.302-4.143-1.093-2.779-1.775-6.866-2.026-12.148l-0.019-0.418h9.869c1.213 0 1.344 1.066 1.344 1.524 0 2.678-0.143 6.529-0.825 9.669-0.796 3.66-2.155 5.516-4.041 5.516" fill="#00adef"/></g><g transform="translate(292.77 97.813)"><path d="m0 0c-0.06-0.369-0.339-1.024-0.419-1.405 3.994-2.731 17.345-11.442 21.312-14.278l0.777 1.264c-4.1 2.771-17.217 11.459-21.67 14.419" fill="#00adef"/></g><g transform="translate(387.5 97.495)"><path d="m0 0c0-14.82-18.404-27.478-34.801-27.478-12.667 0-24.097 4.821-35.115 11.288l-0.878-1.238c10.696-6.577 23.38-11.805 35.993-11.805 17.593 0 35.347 13.99 35.347 29.233z" fill="#00adef"/></g></g></g><g transform="matrix(4.1328 0 0 4.1328 -1013.7 -282.11)"><g transform="translate(382.29 138.38)"><path d="m0 0 1.622 9.177c0.403 0.085 0.997 0.12 1.478 0.12 2.699 0 3.647-1.527 3.647-3.585 0-1.63-0.514-3.19-1.478-4.254-0.899-0.994-2.152-1.544-3.871-1.544-0.402 0-0.916 0.017-1.398 0.086m0.482 10.223-2.024-11.338c0.706-0.086 1.686-0.138 2.635-0.138 2.072 0 3.646 0.481 4.899 1.596 1.398 1.269 2.185 3.345 2.185 5.437-0.016 1.458-0.45 2.487-1.028 3.139-0.803 0.995-2.169 1.544-3.984 1.544-0.948 0-1.863-0.086-2.683-0.24" fill="#00adef"/></g><g transform="translate(379.03 148.76)"><path d="m0 0-0.868-4.871h-4.979l0.883 4.871h-1.333l-2.073-11.561h1.333l0.964 5.437h4.981l-0.965-5.437h1.334l2.073 11.561z" fill="#00adef"/></g></g></g></svg>
