<svg width="526.67" height="800" version="1.1" viewBox="0 0 139.35 211.67" xmlns="http://www.w3.org/2000/svg">
 <g transform="translate(19.248 59.433)">
  <g transform="matrix(10.979 0 0 -10.979 45.185 151.9)" fill="#fff">
   <path d="m0 0c-0.032-8e-3 -0.081-0.015-0.146-0.022-0.064-6e-3 -0.129-8e-3 -0.194-8e-3s-0.131 2e-3 -0.197 8e-3c-0.067 7e-3 -0.117 0.014-0.149 0.022-0.057 0.016-0.085 0.048-0.085 0.097v1.575h-1.518v-1.575c0-0.049-0.029-0.081-0.085-0.097-0.033-8e-3 -0.083-0.015-0.152-0.022-0.069-6e-3 -0.136-8e-3 -0.201-8e-3 -0.064 0-0.128 2e-3 -0.191 8e-3 -0.063 7e-3 -0.11 0.014-0.143 0.022-0.056 0.016-0.085 0.048-0.085 0.097v3.865c0 0.049 0.029 0.082 0.085 0.098 0.033 7e-3 0.08 0.014 0.143 0.021 0.063 6e-3 0.127 8e-3 0.191 8e-3 0.065 0 0.132-2e-3 0.201-8e-3 0.069-7e-3 0.119-0.014 0.152-0.021 0.056-0.016 0.085-0.049 0.085-0.098v-1.52h1.518v1.52c0 0.049 0.028 0.082 0.085 0.098 0.032 7e-3 0.082 0.014 0.149 0.021 0.066 6e-3 0.132 8e-3 0.197 8e-3s0.13-2e-3 0.194-8e-3c0.065-7e-3 0.114-0.014 0.146-0.021 0.057-0.016 0.085-0.049 0.085-0.098v-3.865c0-0.049-0.028-0.081-0.085-0.097m4.039 1.191c-0.085-0.249-0.213-0.464-0.383-0.646-0.174-0.182-0.389-0.323-0.644-0.424s-0.575-0.151-0.959-0.151h-0.741c-0.101 0-0.181 2e-3 -0.24 8e-3 -0.059 7e-3 -0.103 0.016-0.134 0.031-0.03 0.014-0.05 0.031-0.061 0.052-0.01 0.02-0.015 0.042-0.015 0.066v3.805c0 0.028 4e-3 0.053 0.013 0.073 8e-3 0.02 0.027 0.036 0.057 0.048 0.031 0.013 0.075 0.021 0.134 0.028 0.058 6e-3 0.136 8e-3 0.234 8e-3h0.753c0.384 0 0.704-0.05 0.959-0.151s0.47-0.242 0.644-0.424c0.17-0.182 0.298-0.397 0.383-0.645 0.085-0.249 0.127-0.528 0.127-0.839 0-0.312-0.042-0.591-0.127-0.839m-1.057 1.808c-0.101 0.113-0.229 0.198-0.383 0.255-0.153 0.056-0.352 0.084-0.595 0.084h-0.285v-2.617h0.285c0.243 0 0.442 0.028 0.595 0.084 0.154 0.057 0.282 0.142 0.383 0.255 0.19 0.215 0.285 0.537 0.285 0.97 0 0.432-0.095 0.755-0.285 0.969" fill="#fff"/>
  </g>
  <path d="m120.1 80.015h-139.35v-139.45h139.35z" fill="#e22526"/>
  <g transform="matrix(10.979 0 0 -10.979 71.346 -30.192)">
   <path d="m0 0v-4.711l-3.624 4.711h-1.904v-7.311h1.782v4.7l3.637-4.7h1.891v7.311z" fill="#fff"/>
  </g>
 </g>
</svg>
