<svg width="800" height="334.49" version="1.1" viewBox="0 0 211.67 88.501" xmlns="http://www.w3.org/2000/svg">
 <defs>
  <linearGradient id="paint0_linear" x1="58.828" x2="192.1" y1="386.87" y2="153.49" gradientUnits="userSpaceOnUse">
   <stop stop-color="#16217C" offset="0"/>
   <stop stop-color="#16217C" offset=".0042341"/>
   <stop stop-color="#0009FF" offset=".5689"/>
   <stop stop-color="#00FF5B" offset="1"/>
  </linearGradient>
  <linearGradient id="paint1_linear" x1="91.127" x2="224.4" y1="405.32" y2="171.93" gradientUnits="userSpaceOnUse">
   <stop stop-color="#16217C" offset="0"/>
   <stop stop-color="#16217C" offset=".0042341"/>
   <stop stop-color="#0009FF" offset=".5689"/>
   <stop stop-color="#00FF5B" offset="1"/>
  </linearGradient>
  <linearGradient id="paint2_linear" x1="178.09" x2="178.09" y1="162.69" y2="290.89" gradientUnits="userSpaceOnUse">
   <stop stop-color="#EBF5F7" offset="0"/>
   <stop stop-color="#fff" offset=".9973"/>
   <stop stop-color="#fff" offset="1"/>
  </linearGradient>
 </defs>
 <g transform="translate(-84.673 -99.759)">
  <g transform="matrix(.37305 0 0 .37305 53.704 40.819)">
   <path d="m178 243.92-28.44-81.386c9.077-2.723 18.758-4.538 28.743-4.538 9.984 0 19.665 1.513 28.742 4.538z" fill="url(#paint0_linear)"/>
   <path d="m273 253c0 52.643-42.659 95-95 95s-95-42.357-95-95c0-27.835 11.799-52.644 30.86-70.191l49.013 109.52h30.254l49.013-109.52c19.061 17.547 30.86 42.356 30.86 70.191z" fill="url(#paint1_linear)"/>
   <path d="m242.14 182.81-49.013 109.52h-30.255l-49.013-109.52c9.984-9.076 22.086-16.337 35.398-20.573l28.743 81.386 28.742-81.688c13.312 4.538 25.414 11.799 35.398 20.875z" fill="url(#paint2_linear)"/>
  </g>
  <g transform="matrix(7.8547 0 0 -7.8547 -3172.5 5397.9)" fill="#424a4c">
   <g transform="translate(426.43 664.46)">
    <path d="m0 0h-0.779l0.39 1.051zm-0.102 1.663h-0.559l-1.066-2.764-0.017-0.041h0.541l0.246 0.66h1.138l0.243-0.66h0.56l-1.078 2.785z" fill="#424a4c"/>
   </g>
   <g transform="translate(429.29 665.67)">
    <path d="m0 0c0.257 0 0.476-0.083 0.672-0.256l0.023-0.02 0.324 0.402-0.021 0.02c-0.273 0.243-0.601 0.363-1.006 0.363-0.842 0-1.429-0.601-1.429-1.46 0-0.861 0.587-1.461 1.429-1.461 0.405 0 0.733 0.119 1.006 0.364l0.021 0.019-0.324 0.403-0.023-0.022c-0.196-0.172-0.415-0.256-0.672-0.256-0.426 0-0.886 0.299-0.886 0.953s0.46 0.951 0.886 0.951" fill="#424a4c"/>
   </g>
   <g transform="translate(431.03 665.63)">
    <path d="m0 0h0.846v-2.311h0.548v2.311h0.839v0.493h-2.233z" fill="#424a4c"/>
   </g>
   <path d="m434.08 663.32h0.544v2.805h-0.544z"/>
   <g transform="translate(437.8 664.72)">
    <path d="m0 0c0-0.654-0.458-0.952-0.882-0.952-0.427 0-0.886 0.298-0.886 0.952s0.459 0.951 0.886 0.951c0.424 0 0.882-0.297 0.882-0.951m-0.886 1.461c-0.83 0-1.433-0.615-1.433-1.461s0.603-1.461 1.433-1.461c0.833 0 1.437 0.615 1.437 1.461s-0.604 1.461-1.437 1.461" fill="#424a4c"/>
   </g>
   <g transform="translate(441.1 666.12)">
    <path d="m0 0v-1.927l-1.313 1.913-8e-3 0.014h-0.58v-2.805h0.524v2.001l1.367-1.988 9e-3 -0.013h0.525v2.805z" fill="#424a4c"/>
   </g>
  </g>
  <g transform="matrix(7.8547 0 0 -7.8547 -3172.5 5397.9)">
   <path d="m430.5 667.33h1.388v6.076h-1.388z" fill="#212a2f"/>
   <g transform="translate(439.82 670.7)">
    <path d="m0 0v-3.376h-1.389v3.009c0 0.492-0.288 0.811-0.762 0.811-0.453 0-0.81-0.271-0.81-0.859v-2.961h-1.397v3.009c0 0.492-0.28 0.811-0.763 0.811-0.482 0-0.799-0.309-0.799-0.927v-2.893h-1.389v4.986h1.312v-0.579c0.278 0.445 0.741 0.714 1.368 0.714 0.666 0 1.147-0.269 1.418-0.733 0.308 0.443 0.8 0.733 1.495 0.733 1.05 0 1.716-0.685 1.716-1.745" fill="#212a2f"/>
   </g>
   <g transform="translate(426.93 672.32)">
    <path d="m0 0c0.057 0.389 0.292 0.532 0.747 0.607v1.216c-1.324-8e-3 -2.051-0.666-2.14-1.823h-0.85v-1.187h0.839v-3.799h1.389v3.799h0.975v1.187z" fill="#212a2f"/>
   </g>
   <g transform="translate(429.89 673.15)">
    <path d="m0 0c0-0.365-0.301-0.673-0.697-0.673-0.389 0-0.69 0.308-0.69 0.673 0 0.38 0.301 0.666 0.69 0.666 0.396 0 0.697-0.286 0.697-0.666" fill="#212a2f"/>
   </g>
   <path d="m428.5 672.32h1.393v-4.986h-1.393z" fill="#212a2f"/>
  </g>
 </g>
</svg>
