<svg width="533.41" height="188" version="1.1" viewBox="0 0 141.13 49.742" xmlns="http://www.w3.org/2000/svg">
 <defs>
  <linearGradient id="paint0_linear" x1="58.828" x2="192.1" y1="386.87" y2="153.49" gradientUnits="userSpaceOnUse">
   <stop stop-color="#16217C" offset="0"/>
   <stop stop-color="#16217C" offset=".0042341"/>
   <stop stop-color="#0009FF" offset=".5689"/>
   <stop stop-color="#00FF5B" offset="1"/>
  </linearGradient>
  <linearGradient id="paint1_linear" x1="91.127" x2="224.4" y1="405.32" y2="171.93" gradientUnits="userSpaceOnUse">
   <stop stop-color="#16217C" offset="0"/>
   <stop stop-color="#16217C" offset=".0042341"/>
   <stop stop-color="#0009FF" offset=".5689"/>
   <stop stop-color="#00FF5B" offset="1"/>
  </linearGradient>
  <linearGradient id="paint2_linear" x1="178.09" x2="178.09" y1="162.69" y2="290.89" gradientUnits="userSpaceOnUse">
   <stop stop-color="#EBF5F7" offset="0"/>
   <stop stop-color="#fff" offset=".9973"/>
   <stop stop-color="#fff" offset="1"/>
  </linearGradient>
  <linearGradient id="SVGID_4_-8" x1="148.99" x2="169.56" y1="94.827" y2="59.204" gradientTransform="matrix(.87028 0 0 .8709 62.208 153.03)" gradientUnits="userSpaceOnUse">
   <stop stop-color="#16217C" offset=".0051"/>
   <stop stop-color="#0009FF" offset=".5468"/>
   <stop stop-color="#00FF5B" offset="1"/>
  </linearGradient>
 </defs>
 <g transform="translate(-84.667 -143.07)">
  <g transform="matrix(.20078 0 0 .20078 68.002 111.35)">
   <path d="m178 243.92-28.44-81.386c9.077-2.723 18.758-4.538 28.743-4.538 9.984 0 19.665 1.513 28.742 4.538z" fill="url(#paint0_linear)"/>
   <path d="m273 253c0 52.643-42.659 95-95 95s-95-42.357-95-95c0-27.835 11.799-52.644 30.86-70.191l49.013 109.52h30.254l49.013-109.52c19.061 17.547 30.86 42.356 30.86 70.191z" fill="url(#paint1_linear)"/>
   <path d="m242.14 182.81-49.013 109.52h-30.255l-49.013-109.52c9.984-9.076 22.086-16.337 35.398-20.573l28.743 81.386 28.742-81.688c13.312 4.538 25.414 11.799 35.398 20.875z" fill="url(#paint2_linear)"/>
  </g>
  <g transform="matrix(4.1233 0 0 -4.1233 -120.07 2814.4)" fill="#d8d8d8">
   <g transform="translate(60.205 636.38)">
    <path d="m0 0h0.562v1.134h1.193v0.505h-1.193v0.732h1.304v0.505h-1.866z" fill="#d8d8d8"/>
   </g>
   <g transform="translate(64.183 637.55)">
    <path d="m0 0h-0.799l0.4 1.078zm-0.105 1.705h-0.573l-1.094-2.835-0.017-0.042h0.555l0.253 0.678h1.166l0.25-0.678h0.574l-1.106 2.857z" fill="#d8d8d8"/>
   </g>
   <g transform="translate(67.481 637.13)">
    <path d="m0 0-0.804 2.105-7e-3 0.019h-0.762v-2.876h0.537v2.055l0.78-2.036 9e-3 -0.019h0.491l0.787 2.06v-2.06h0.538v2.876h-0.762z" fill="#d8d8d8"/>
   </g>
   <path d="m70.088 636.38h0.558v2.876h-0.558z"/>
   <g transform="translate(72.243 639.25)">
    <path d="m0 0h-0.557v-2.876h1.794v0.505h-1.237z" fill="#d8d8d8"/>
   </g>
   <g transform="translate(75.635 639.25)">
    <path d="m0 0-0.724-1.177-0.715 1.162-0.01 0.015h-0.624l1.068-1.716-4e-3 -1.13v-0.03h0.562v1.17l1.03 1.659 0.029 0.047z" fill="#d8d8d8"/>
   </g>
  </g>
  <g transform="matrix(.51802 0 0 .51802 40.808 92.93)" fill="#f2f2f2">
   <path d="m213.79 155.51h11.327v-49.573h-11.327z"/>
   <g transform="matrix(7.9598 0 0 -7.9598 289.79 127.96)">
    <path d="m0 0v-3.46h-1.424v3.084c0 0.504-0.297 0.831-0.781 0.831-0.465 0-0.831-0.277-0.831-0.88v-3.035h-1.433v3.084c0 0.504-0.286 0.831-0.782 0.831-0.494 0-0.819-0.317-0.819-0.949v-2.966h-1.424v5.111h1.345v-0.594c0.286 0.456 0.76 0.732 1.402 0.732 0.683 0 1.177-0.276 1.455-0.751 0.316 0.455 0.819 0.751 1.532 0.751 1.077 0 1.76-0.702 1.76-1.789" fill="#f2f2f2"/>
   </g>
   <g transform="matrix(7.9598 0 0 -7.9598 184.61 114.82)">
    <path d="m0 0c0.058 0.399 0.3 0.545 0.766 0.622v1.247c-1.358-9e-3 -2.103-0.683-2.194-1.869h-0.87v-1.217h0.86v-3.894h1.423v3.894h0.998v1.217z" fill="#f2f2f2"/>
   </g>
   <g transform="matrix(7.9598 0 0 -7.9598 208.76 108.02)">
    <path d="m0 0c0-0.373-0.308-0.69-0.714-0.69-0.399 0-0.707 0.317-0.707 0.69 0 0.389 0.308 0.682 0.707 0.682 0.406 1e-3 0.714-0.293 0.714-0.682" fill="#f2f2f2"/>
   </g>
   <path d="m197.46 114.82h11.367v40.682h-11.367z"/>
  </g>
  <g transform="matrix(.8147 0 0 .8147 45.071 9.1908)">
   <g transform="matrix(1.0271 0 0 1.0271 51.227 153.2)" fill="#d8d8d8" stroke-width=".84759">
    <path d="m137.5 61.399h6.2529v6.0598h2.7334v-14.171h-2.7334v5.6301h-6.2529v-5.6301h-2.7334v14.171h2.7334z"/>
    <path d="m155.62 53.289h-4.9125v14.171h4.9125c4.3127 0 7.1001-2.781 7.1001-7.085s-2.7876-7.0858-7.1001-7.0858zm-2.1792 2.4818h2.0234c2.7665 0 4.4839 1.7636 4.4839 4.604s-1.7175 4.604-4.4839 4.604h-2.0234z"/>
   </g>
   <path d="m185.47 205.03v20.352h36.368v-20.352zm34.943 18.927h-33.52v-17.502h33.52z" fill="url(#SVGID_4_-8)" stroke-width=".8706"/>
  </g>
 </g>
</svg>
