<svg width="800.05" height="277.1" version="1.1" viewBox="0 0 211.68 73.315" xmlns="http://www.w3.org/2000/svg">
 <defs>
  <linearGradient id="paint0_linear" x1="58.828" x2="192.1" y1="386.87" y2="153.49" gradientUnits="userSpaceOnUse">
   <stop stop-color="#16217C" offset="0"/>
   <stop stop-color="#16217C" offset=".0042341"/>
   <stop stop-color="#0009FF" offset=".5689"/>
   <stop stop-color="#00FF5B" offset="1"/>
  </linearGradient>
  <linearGradient id="paint1_linear" x1="91.127" x2="224.4" y1="405.32" y2="171.93" gradientUnits="userSpaceOnUse">
   <stop stop-color="#16217C" offset="0"/>
   <stop stop-color="#16217C" offset=".0042341"/>
   <stop stop-color="#0009FF" offset=".5689"/>
   <stop stop-color="#00FF5B" offset="1"/>
  </linearGradient>
  <linearGradient id="paint2_linear" x1="178.09" x2="178.09" y1="162.69" y2="290.89" gradientUnits="userSpaceOnUse">
   <stop stop-color="#EBF5F7" offset="0"/>
   <stop stop-color="#fff" offset=".9973"/>
   <stop stop-color="#fff" offset="1"/>
  </linearGradient>
 </defs>
 <g transform="translate(-84.659 -114.94)">
  <g fill="#f2f2f2">
   <path d="m188.19 162.02h9.0863v-39.753h-9.0863z"/>
   <g transform="matrix(6.5416 0 0 -6.5416 249.13 139.94)">
    <path d="m0 0v-3.376h-1.389v3.009c0 0.492-0.289 0.811-0.762 0.811-0.453 0-0.811-0.271-0.811-0.859v-2.961h-1.397v3.009c0 0.492-0.281 0.811-0.763 0.811s-0.8-0.309-0.8-0.927v-2.893h-1.389v4.986h1.313v-0.579c0.278 0.445 0.741 0.714 1.368 0.714 0.666 0 1.148-0.269 1.418-0.733 0.309 0.444 0.8 0.733 1.496 0.733 1.05 0 1.716-0.685 1.716-1.745" fill="#f2f2f2"/>
   </g>
   <g transform="matrix(6.5416 0 0 -6.5416 164.8 129.41)">
    <path d="m0 0c0.057 0.389 0.292 0.532 0.747 0.607v1.217c-1.325-9e-3 -2.051-0.666-2.141-1.824h-0.849v-1.187h0.839v-3.799h1.389v3.799h0.974v1.187z" fill="#f2f2f2"/>
   </g>
   <g transform="matrix(6.5416 0 0 -6.5416 184.17 123.95)">
    <path d="m0 0c0-0.365-0.301-0.673-0.697-0.673-0.389 0-0.69 0.308-0.69 0.673 0 0.38 0.301 0.666 0.69 0.666 0.396 0 0.697-0.286 0.697-0.666" fill="#f2f2f2"/>
   </g>
   <path d="m175.1 129.4h9.1124v32.616h-9.1124z"/>
  </g>
  <g transform="matrix(.31082 0 0 .31082 58.861 65.836)">
   <path d="m178 243.92-28.44-81.386c9.077-2.723 18.758-4.538 28.743-4.538 9.984 0 19.665 1.513 28.742 4.538z" fill="url(#paint0_linear)"/>
   <path d="m273 253c0 52.643-42.659 95-95 95s-95-42.357-95-95c0-27.835 11.799-52.644 30.86-70.191l49.013 109.52h30.254l49.013-109.52c19.061 17.547 30.86 42.356 30.86 70.191z" fill="url(#paint1_linear)"/>
   <path d="m242.14 182.81-49.013 109.52h-30.255l-49.013-109.52c9.984-9.076 22.086-16.337 35.398-20.573l28.743 81.386 28.742-81.688c13.312 4.538 25.414 11.799 35.398 20.875z" fill="url(#paint2_linear)"/>
  </g>
  <g transform="matrix(6.5416 0 0 -6.5416 -2348.2 4526.5)" fill="#d8d8d8">
   <g transform="translate(383.04 664.6)">
    <path d="m0 0c0.327 0 0.532 0.178 0.532 0.473 0 0.304-0.205 0.478-0.532 0.478h-0.636v-0.951zm0.066 1.385c0.568 0 0.959-0.372 0.959-0.912 0-0.536-0.391-0.907-0.959-0.907h-0.702v-0.983h-0.493v2.802z" fill="#d8d8d8"/>
   </g>
   <g transform="translate(386 664.66)">
    <path d="m0 0c0.303 0 0.524 0.154 0.524 0.446 0 0.296-0.221 0.445-0.524 0.445h-0.549v-0.891zm-0.04-0.41h-0.513v-1.066h-0.493v2.802h1.089c0.564 0 0.966-0.332 0.966-0.868 0-0.395-0.216-0.679-0.56-0.802l0.749-1.132h-0.547z" fill="#d8d8d8"/>
   </g>
   <g transform="translate(389.87 663.18)">
    <path d="m0 0h-1.826v2.801h1.795v-0.442h-1.302v-0.71h1.144v-0.442h-1.144v-0.765h1.333z" fill="#d8d8d8"/>
   </g>
   <g transform="translate(393.89 663.18)">
    <path d="m0 0h-0.472v2.185l-0.838-2.185h-0.445l-0.837 2.182v-2.182h-0.472v2.801h0.706l0.828-2.17 0.825 2.17h0.705z" fill="#d8d8d8"/>
   </g>
   <path d="m394.98 665.98h0.492v-2.801h-0.492z"/>
   <g transform="translate(398.4 663.18)">
    <path d="m0 0h-1.826v2.801h1.795v-0.442h-1.302v-0.71h1.144v-0.442h-1.144v-0.765h1.333z" fill="#d8d8d8"/>
   </g>
   <g transform="translate(400.4 664.66)">
    <path d="m0 0c0.303 0 0.524 0.154 0.524 0.446 0 0.296-0.221 0.445-0.524 0.445h-0.549v-0.891zm-0.04-0.41h-0.513v-1.066h-0.493v2.802h1.089c0.564 0 0.966-0.332 0.966-0.868 0-0.395-0.216-0.679-0.56-0.802l0.749-1.132h-0.547z" fill="#d8d8d8"/>
   </g>
   <g transform="translate(404.27 663.18)">
    <path d="m0 0h-1.826v2.801h1.795v-0.442h-1.302v-0.71h1.144v-0.442h-1.144v-0.765h1.333z" fill="#d8d8d8"/>
   </g>
  </g>
 </g>
</svg>
