<svg width="860.43" height="374.28" version="1.1" viewBox="0 0 227.66 99.029" xmlns="http://www.w3.org/2000/svg">
 <defs>
  <linearGradient id="paint0_linear" x1="58.828" x2="192.1" y1="386.87" y2="153.49" gradientUnits="userSpaceOnUse">
   <stop stop-color="#16217C" offset="0"/>
   <stop stop-color="#16217C" offset=".0042341"/>
   <stop stop-color="#0009FF" offset=".5689"/>
   <stop stop-color="#00FF5B" offset="1"/>
  </linearGradient>
  <linearGradient id="paint1_linear" x1="91.127" x2="224.4" y1="405.32" y2="171.93" gradientUnits="userSpaceOnUse">
   <stop stop-color="#16217C" offset="0"/>
   <stop stop-color="#16217C" offset=".0042341"/>
   <stop stop-color="#0009FF" offset=".5689"/>
   <stop stop-color="#00FF5B" offset="1"/>
  </linearGradient>
  <linearGradient id="paint2_linear" x1="178.09" x2="178.09" y1="162.69" y2="290.89" gradientUnits="userSpaceOnUse">
   <stop stop-color="#EBF5F7" offset="0"/>
   <stop stop-color="#fff" offset=".9973"/>
   <stop stop-color="#fff" offset="1"/>
  </linearGradient>
  <linearGradient id="SVGID_4_-8" x1="148.99" x2="169.56" y1="94.827" y2="59.204" gradientTransform="matrix(.87028 0 0 .8709 62.208 153.03)" gradientUnits="userSpaceOnUse">
   <stop stop-color="#16217C" offset=".0051"/>
   <stop stop-color="#0009FF" offset=".5468"/>
   <stop stop-color="#00FF5B" offset="1"/>
  </linearGradient>
 </defs>
 <g transform="translate(-84.675 -93.435)">
  <g transform="matrix(8.2127 0 0 -8.2127 -657.89 5413.4)" fill="#d8d8d8">
   <path d="m102.79 638.01h-1.264v1.14h-0.556v-2.871h0.556v1.226h1.264v-1.226h0.556v2.871h-0.556z"/>
   <path d="m104.38 636.28h0.556v2.871h-0.556z"/>
   <path d="m105.77 638.65h0.867v-2.366h0.559v2.366h0.86v0.505h-2.286z"/>
   <g transform="translate(109.93 637.95)">
    <path d="m0 0-0.277 0.123c-0.237 0.103-0.374 0.192-0.374 0.343 0 0.176 0.169 0.294 0.421 0.294 0.224 0 0.398-0.066 0.586-0.219l0.024-0.02 0.314 0.409-0.022 0.019c-0.241 0.208-0.538 0.313-0.887 0.313-0.676 0-0.984-0.419-0.984-0.807 0-0.36 0.177-0.578 0.632-0.78l0.273-0.123c0.303-0.131 0.488-0.221 0.488-0.43 0-0.217-0.172-0.346-0.46-0.346-0.273 0-0.531 0.106-0.787 0.322l-0.026 0.021-0.296-0.413 0.019-0.019c0.167-0.155 0.531-0.415 1.094-0.415 0.6 0 1.005 0.349 1.005 0.869 0 0.451-0.262 0.649-0.743 0.859" fill="#d8d8d8"/>
   </g>
  </g>
  <g transform="matrix(8.2127 0 0 -8.2127 -657.89 5413.4)" fill="#f2f2f2">
   <path d="m106.64 640.39h1.424v6.23h-1.424z"/>
   <g transform="translate(116.19 643.85)">
    <path d="m0 0v-3.46h-1.424v3.084c0 0.504-0.297 0.831-0.781 0.831-0.465 0-0.831-0.277-0.831-0.88v-3.035h-1.433v3.084c0 0.504-0.287 0.831-0.782 0.831-0.494 0-0.82-0.317-0.82-0.949v-2.966h-1.424v5.111h1.345v-0.593c0.286 0.455 0.76 0.731 1.403 0.731 0.683 0 1.177-0.276 1.454-0.751 0.316 0.455 0.82 0.751 1.532 0.751 1.078 0 1.761-0.702 1.761-1.789" fill="#f2f2f2"/>
   </g>
   <g transform="translate(102.97 645.5)">
    <path d="m0 0c0.058 0.399 0.3 0.545 0.766 0.623v1.247c-1.359-9e-3 -2.103-0.684-2.194-1.87h-0.87v-1.217h0.859v-3.894h1.424v3.894h0.998v1.217z" fill="#f2f2f2"/>
   </g>
   <g transform="translate(106.01 646.36)">
    <path d="m0 0c0-0.375-0.309-0.691-0.715-0.691-0.398 0-0.706 0.316-0.706 0.691 0 0.39 0.308 0.682 0.706 0.682 0.406 0 0.715-0.292 0.715-0.682" fill="#f2f2f2"/>
   </g>
   <path d="m104.59 645.5h1.427v-5.111h-1.427z"/>
  </g>
  <g transform="matrix(.39991 0 0 .39991 51.482 30.252)">
   <path d="m178 243.92-28.44-81.386c9.077-2.723 18.758-4.538 28.743-4.538 9.984 0 19.665 1.513 28.742 4.538z" fill="url(#paint0_linear)"/>
   <path d="m273 253c0 52.643-42.659 95-95 95s-95-42.357-95-95c0-27.835 11.799-52.644 30.86-70.191l49.013 109.52h30.254l49.013-109.52c19.061 17.547 30.86 42.356 30.86 70.191z" fill="url(#paint1_linear)"/>
   <path d="m242.14 182.81-49.013 109.52h-30.255l-49.013-109.52c9.984-9.076 22.086-16.337 35.398-20.573l28.743 81.386 28.742-81.688c13.312 4.538 25.414 11.799 35.398 20.875z" fill="url(#paint2_linear)"/>
  </g>
  <g transform="matrix(1.6199 0 0 1.6199 -47.012 -172.63)">
   <g transform="matrix(1.0271 0 0 1.0271 51.227 153.2)" fill="#d8d8d8" stroke-width=".84759">
    <path d="m137.5 61.399h6.2529v6.0598h2.7334v-14.171h-2.7334v5.6301h-6.2529v-5.6301h-2.7334v14.171h2.7334z"/>
    <path d="m155.62 53.289h-4.9125v14.171h4.9125c4.3127 0 7.1001-2.781 7.1001-7.085s-2.7876-7.0858-7.1001-7.0858zm-2.1792 2.4818h2.0234c2.7665 0 4.4839 1.7636 4.4839 4.604s-1.7175 4.604-4.4839 4.604h-2.0234z"/>
   </g>
   <path d="m185.47 205.03v20.352h36.368v-20.352zm34.943 18.927h-33.52v-17.502h33.52z" fill="url(#SVGID_4_-8)" stroke-width=".8706"/>
  </g>
 </g>
</svg>
