<svg width="800" height="215.68" version="1.1" viewBox="0 0 211.67 57.067" xmlns="http://www.w3.org/2000/svg">
 <defs>
  <clipPath id="clipPath38442">
   <path d="m43.414 370.39h410.13v164.93h-410.13z"/>
  </clipPath>
  <linearGradient id="paint0_linear" x1="58.828" x2="192.1" y1="386.87" y2="153.49" gradientUnits="userSpaceOnUse">
   <stop stop-color="#16217C" offset="0"/>
   <stop stop-color="#16217C" offset=".0042341"/>
   <stop stop-color="#0009FF" offset=".5689"/>
   <stop stop-color="#00FF5B" offset="1"/>
  </linearGradient>
  <linearGradient id="paint1_linear" x1="91.127" x2="224.4" y1="405.32" y2="171.93" gradientUnits="userSpaceOnUse">
   <stop stop-color="#16217C" offset="0"/>
   <stop stop-color="#16217C" offset=".0042341"/>
   <stop stop-color="#0009FF" offset=".5689"/>
   <stop stop-color="#00FF5B" offset="1"/>
  </linearGradient>
  <linearGradient id="paint2_linear" x1="178.09" x2="178.09" y1="162.69" y2="290.89" gradientUnits="userSpaceOnUse">
   <stop stop-color="#EBF5F7" offset="0"/>
   <stop stop-color="#fff" offset=".9973"/>
   <stop stop-color="#fff" offset="1"/>
  </linearGradient>
 </defs>
 <g transform="translate(-84.673 -131.19)">
  <g transform="matrix(.30034 0 0 .30034 59.746 83.74)">
   <path d="m178 243.92-28.44-81.386c9.077-2.723 18.758-4.538 28.743-4.538 9.984 0 19.665 1.513 28.742 4.538z" fill="url(#paint0_linear)"/>
   <path d="m273 253c0 52.643-42.659 95-95 95s-95-42.357-95-95c0-27.835 11.799-52.644 30.86-70.191l49.013 109.52h30.254l49.013-109.52c19.061 17.547 30.86 42.356 30.86 70.191z" fill="url(#paint1_linear)"/>
   <path d="m242.14 182.81-49.013 109.52h-30.255l-49.013-109.52c9.984-9.076 22.086-16.337 35.398-20.573l28.743 81.386 28.742-81.688c13.312 4.538 25.414 11.799 35.398 20.875z" fill="url(#paint2_linear)"/>
  </g>
  <g transform="matrix(6.18 0 0 -6.18 -2215.2 2695)">
   <g clip-path="url(#clipPath38442)">
    <g transform="translate(386.41 412.53)">
     <path d="m0 0-0.682-1.015c-0.373 0.265-0.768 0.374-1.113 0.374-0.413 0-0.601-0.148-0.601-0.355 0-0.217 0.236-0.297 0.581-0.424l0.405-0.158c0.937-0.364 1.478-0.759 1.478-1.617 0-1.015-0.857-1.626-1.981-1.626-0.819 0-1.578 0.265-2.121 0.72l0.701 1.034c0.404-0.306 0.906-0.512 1.4-0.512 0.375 0 0.621 0.119 0.621 0.404 0 0.286-0.374 0.384-0.896 0.591l-0.415 0.158c-0.877 0.346-1.144 0.819-1.144 1.439 0 0.76 0.651 1.558 2.011 1.558 0.829 0 1.43-0.305 1.756-0.571" fill="#212a2f"/>
    </g>
    <g transform="translate(388.01 410.97)">
     <path d="m0 0h2.278c-0.1 0.592-0.542 0.927-1.134 0.927-0.513 0-0.977-0.286-1.144-0.927m3.609-1.015h-3.609c0.157-0.662 0.681-0.968 1.32-0.968 0.474 0 0.869 0.119 1.303 0.494l0.769-0.937c-0.621-0.621-1.282-0.837-2.15-0.837-1.567 0-2.651 1.113-2.651 2.681 0 1.588 1.064 2.711 2.553 2.711 1.528 0 2.484-1.074 2.484-2.573 0-0.217-9e-3 -0.473-0.019-0.571" fill="#212a2f"/>
    </g>
    <g transform="translate(398.72 410.97)">
     <path d="m0 0h2.277c-0.099 0.592-0.543 0.927-1.134 0.927-0.513 0-0.976-0.286-1.143-0.927m3.608-1.015h-3.608c0.156-0.662 0.681-0.968 1.32-0.968 0.474 0 0.868 0.119 1.303 0.494l0.769-0.937c-0.622-0.621-1.282-0.837-2.151-0.837-1.567 0-2.651 1.113-2.651 2.681 0 1.588 1.064 2.711 2.553 2.711 1.529 0 2.485-1.074 2.485-2.573 0-0.217-9e-3 -0.473-0.02-0.571" fill="#212a2f"/>
    </g>
    <g transform="translate(406.33 412.52)">
     <path d="m0 0-0.681-1.015c-0.374 0.266-0.768 0.374-1.113 0.374-0.413 0-0.602-0.148-0.602-0.355 0-0.216 0.237-0.295 0.582-0.424l0.405-0.157c0.936-0.365 1.477-0.76 1.477-1.617 0-1.016-0.857-1.627-1.98-1.627-0.82 0-1.578 0.266-2.121 0.72l0.701 1.034c0.404-0.305 0.906-0.512 1.4-0.512 0.374 0 0.62 0.119 0.62 0.404 0 0.286-0.374 0.386-0.895 0.592l-0.416 0.157c-0.877 0.346-1.144 0.819-1.144 1.441 0 0.758 0.651 1.557 2.011 1.557 0.829 0 1.431-0.306 1.756-0.572" fill="#212a2f"/>
    </g>
    <g transform="translate(395.04 411.72)">
     <path d="m0 0c-1.05-0.071-1.55-0.684-1.55-1.825v-2.042h-1.414v5.074h1.335v-0.814c0.245 0.472 0.737 0.805 1.629 0.814z" fill="#212a2f"/>
    </g>
    <g transform="translate(396.86 413.78)">
     <path d="m0 0c0-0.371-0.307-0.687-0.71-0.687-0.396 0-0.702 0.316-0.702 0.687 0 0.387 0.306 0.678 0.702 0.678 0.403 0 0.71-0.291 0.71-0.678" fill="#212a2f"/>
    </g>
    <path d="m395.45 412.92h1.42v-5.074h-1.42z" fill="#212a2f"/>
   </g>
  </g>
 </g>
</svg>
