<svg width="617.12" height="160" version="1.1" viewBox="0 0 163.28 42.334" xmlns="http://www.w3.org/2000/svg">
 <defs>
  <linearGradient id="paint0_linear" x1="58.828" x2="192.1" y1="386.87" y2="153.49" gradientUnits="userSpaceOnUse">
   <stop stop-color="#16217C" offset="0"/>
   <stop stop-color="#16217C" offset=".0042341"/>
   <stop stop-color="#0009FF" offset=".5689"/>
   <stop stop-color="#00FF5B" offset="1"/>
  </linearGradient>
  <linearGradient id="paint1_linear" x1="91.127" x2="224.4" y1="405.32" y2="171.93" gradientUnits="userSpaceOnUse">
   <stop stop-color="#16217C" offset="0"/>
   <stop stop-color="#16217C" offset=".0042341"/>
   <stop stop-color="#0009FF" offset=".5689"/>
   <stop stop-color="#00FF5B" offset="1"/>
  </linearGradient>
  <linearGradient id="paint2_linear" x1="178.09" x2="178.09" y1="162.69" y2="290.89" gradientUnits="userSpaceOnUse">
   <stop stop-color="#EBF5F7" offset="0"/>
   <stop stop-color="#fff" offset=".9973"/>
   <stop stop-color="#fff" offset="1"/>
  </linearGradient>
 </defs>
 <g transform="matrix(.22281 0 0 .22281 -18.493 -35.203)">
  <path d="m178 243.92-28.44-81.386c9.077-2.723 18.758-4.538 28.743-4.538 9.984 0 19.665 1.513 28.742 4.538z" fill="url(#paint0_linear)"/>
  <path d="m273 253c0 52.643-42.659 95-95 95s-95-42.357-95-95c0-27.835 11.799-52.644 30.86-70.191l49.013 109.52h30.254l49.013-109.52c19.061 17.547 30.86 42.356 30.86 70.191z" fill="url(#paint1_linear)"/>
  <path d="m242.14 182.81-49.013 109.52h-30.255l-49.013-109.52c9.984-9.076 22.086-16.337 35.398-20.573l28.743 81.386 28.742-81.688c13.312 4.538 25.414 11.799 35.398 20.875z" fill="url(#paint2_linear)"/>
 </g>
 <g transform="matrix(.77109 0 0 .77109 .064685 .039368)">
  <g transform="matrix(5.9929,0,0,-5.9929,84.805,13.8)">
   <path d="m0 0-0.672-1.003c-0.37 0.263-0.76 0.37-1.101 0.37-0.409 0-0.594-0.146-0.594-0.351 0-0.214 0.234-0.292 0.575-0.419l0.399-0.156c0.926-0.36 1.461-0.749 1.461-1.597 0-1.003-0.847-1.607-1.957-1.607-0.809 0-1.559 0.263-2.095 0.711l0.692 1.023c0.399-0.302 0.896-0.507 1.383-0.507 0.37 0 0.614 0.117 0.614 0.399 0 0.283-0.37 0.38-0.887 0.585l-0.409 0.156c-0.867 0.341-1.13 0.808-1.13 1.422 0 0.75 0.643 1.539 1.987 1.539 0.818 0 1.413-0.302 1.734-0.565" fill="#212a2f"/>
  </g>
  <g transform="matrix(5.9929,0,0,-5.9929,109.86,26.385)">
   <path d="m0 0c0 0.848-0.536 1.334-1.188 1.334-0.663 0-1.208-0.486-1.208-1.334 0-0.838 0.545-1.334 1.208-1.334 0.652 0 1.188 0.496 1.188 1.334m1.403 0c0-1.578-1.023-2.62-2.348-2.62-0.584 0-1.042 0.166-1.373 0.497v-2.017h-1.403v6.663h1.325v-0.468c0.341 0.37 0.838 0.575 1.451 0.575 1.325 0 2.348-1.042 2.348-2.63" fill="#212a2f"/>
  </g>
  <g transform="matrix(5.9929,0,0,-5.9929,127.41,26.385)">
   <path d="m0 0c0-0.838 0.575-1.334 1.237-1.334 0.672 0 1.247 0.496 1.247 1.334 0 0.847-0.575 1.334-1.247 1.334-0.662 0-1.237-0.487-1.237-1.334m3.896 0c0-1.578-1.169-2.659-2.649-2.659-1.491 0-2.65 1.081-2.65 2.659 0 1.588 1.159 2.669 2.65 2.669 1.48 0 2.649-1.081 2.649-2.669" fill="#212a2f"/>
  </g>
  <g transform="matrix(5.9929,0,0,-5.9929,170.92,18.474)">
   <path d="m0 0c-1.043-0.07-1.539-0.678-1.539-1.812v-2.026h-1.402v5.036h1.324v-0.808c0.244 0.467 0.731 0.799 1.617 0.808z" fill="#212a2f"/>
  </g>
  <g transform="matrix(5.9929,0,0,-5.9929,186.14,30.4)">
   <path d="m0 0c0-0.526 0.234-0.701 0.74-0.701 0.078 0 0.185 9e-3 0.234 0.019v-1.169c-0.185-0.058-0.438-0.097-0.721-0.097-1.051 0-1.656 0.448-1.656 1.597v2.338h-0.847v1.198h0.847v1.113h1.403v-1.113h1.023v-1.198h-1.023z" fill="#212a2f"/>
  </g>
 </g>
 <g transform="matrix(4.6211 0 0 -4.6211 163.28 32.03)">
  <path d="m0 0h-1.501v4.771l-1.289-0.923v1.188l1.477 1.112h1.313z" fill="#424a4c"/>
 </g>
</svg>
