<svg width="800" height="304.22" version="1.1" viewBox="0 0 800 304.22" xml:space="preserve" xmlns="http://www.w3.org/2000/svg">
<g transform="matrix(3.6263 0 0 3.6263 .065273 -.86667)" fill="#202e34">
	<path d="m97.216 15.981-4.622 6.901c-2.545-1.808-5.226-2.545-7.57-2.545-2.814 0-4.087 1.006-4.087 2.412 0 1.474 1.607 2.009 3.951 2.882l2.748 1.071c6.365 2.48 10.049 5.158 10.049 10.987 0 6.901-5.829 11.055-13.467 11.055-5.56 0-10.72-1.81-14.405-4.891l4.758-7.034c2.746 2.075 6.164 3.483 9.514 3.483 2.545 0 4.22-0.805 4.22-2.746 0-1.944-2.545-2.613-6.096-4.021l-2.814-1.071c-5.963-2.344-7.771-5.56-7.771-9.783 0-5.158 4.421-10.585 13.666-10.585 5.629 0 9.716 2.077 11.926 3.885z"/>
	<path d="m135.61 30.454c0 10.854-7.034 18.021-16.145 18.021-4.021 0-7.17-1.139-9.446-3.418v13.869h-9.649l-1e-3 -45.825h9.111v3.216c2.346-2.547 5.763-3.953 9.983-3.953 9.113 1e-3 16.147 7.169 16.147 18.09zm-9.647 0c0-5.829-3.684-9.179-8.173-9.179-4.557 0-8.309 3.35-8.309 9.179 0 5.761 3.752 9.177 8.309 9.177 4.489 0 8.173-3.415 8.173-9.177z"/>
	<path d="m172.93 30.455c0 10.854-8.04 18.29-18.222 18.29-10.25 0-18.223-7.437-18.223-18.29 0-10.922 7.972-18.358 18.222-18.358 10.183 0 18.223 7.436 18.223 18.358zm-26.798-1e-3c0 5.761 3.953 9.177 8.508 9.177 4.624 0 8.575-3.415 8.575-9.177 0-5.829-3.951-9.179-8.576-9.179-4.553 1e-3 -8.507 3.35-8.507 9.179z"/>
	<path d="m196.06 21.344c-7.172 0.485-10.585 4.666-10.585 12.461v13.935h-9.647v-34.637h9.111v5.56c1.675-3.216 5.025-5.494 11.121-5.56z"/>
	<path d="m213.56 35.01c0 3.619 1.609 4.824 5.092 4.824 0.536 0 1.273-0.066 1.607-0.133v8.04c-1.273 0.402-3.013 0.669-4.957 0.669-7.235 0-11.39-3.081-11.39-10.987v-16.078h-5.829v-8.241h5.829v-7.654h9.647v7.654h7.036v8.241h-7.036z"/>
</g>
<g transform="matrix(3.6263 0 0 3.6263 .065273 -.86667)" fill="#424a4c">
	<polygon points="85.03 83.758 85.03 80.12 76.138 80.12 76.138 63.077 72.13 63.077 72.13 83.758"/>
	<rect x="90.906" y="63.077" width="4.008" height="20.681"/>
	<polygon points="100.06 63.077 107.93 83.616 107.99 83.758 112.08 83.758 119.89 63.379 120.01 63.077 115.88 63.077 110.08 78.458 104.33 63.221 104.28 63.077"/>
	<polygon points="129.19 71.399 129.19 66.713 138.6 66.713 138.6 63.077 125.18 63.077 125.18 83.758 138.82 83.758 138.82 80.12 129.19 80.12 129.19 75.036 137.45 75.036 137.45 71.399"/>
	<path d="m161.66 70.111c-1.22 0-2.282 0.221-3.164 0.655l0.69-4.078h8.462v-3.609h-11.584l-1.788 10.795 3.408 0.753 0.087-0.069c0.563-0.451 1.582-0.988 3.236-0.988 2.275 0 3.745 1.319 3.745 3.359 0 2.047-1.576 3.477-3.834 3.477-2.025 0-3.727-0.791-5.198-2.416l-0.172-0.19-2.534 2.804 0.134 0.156c1.33 1.538 3.748 3.372 7.71 3.372 5.196 0 7.915-3.578 7.915-7.113 1e-3 -3.439-2.198-6.908-7.113-6.908z"/>
</g>
<g transform="matrix(3.6263 0 0 3.6263 .065273 -.86667)">
		<linearGradient id="SVGID_1_" x1="-293.12" x2="-279.21" y1="46.321" y2="27.981" gradientTransform="matrix(4.0718 8.5939e-6 -5.6405e-6 4.0718 1176.5 -115.87)" gradientUnits="userSpaceOnUse">
		<stop stop-color="#16217C" offset=".0051"/>
		<stop stop-color="#0009FF" offset=".5468"/>
		<stop stop-color="#00FF5B" offset="1"/>
	</linearGradient>
	<path d="m40.871 1.692c-2.988-0.943-6.168-1.453-9.467-1.453s-6.479 0.51-9.467 1.453l9.467 26.952z" fill="url(#SVGID_1_)"/>
		<linearGradient id="SVGID_2_" x1="-288.48" x2="-277.56" y1="48.784" y2="29.872" gradientTransform="matrix(4.0718 8.5939e-6 -5.6405e-6 4.0718 1176.5 -115.87)" gradientUnits="userSpaceOnUse">
		<stop stop-color="#16217C" offset=".0051"/>
		<stop stop-color="#0009FF" offset=".5468"/>
		<stop stop-color="#00FF5B" offset="1"/>
	</linearGradient>
	<path d="m52.552 8.42-16.17 36.137h-9.944l-16.17-36.137c-6.319 5.748-10.285 14.037-10.286 23.252 0 17.357 14.07 31.427 31.427 31.427s31.427-14.07 31.428-31.427c0-9.215-3.966-17.504-10.285-23.252z" fill="url(#SVGID_2_)"/>
	<linearGradient id="SVGID_3_" x1="31.409" x2="31.409" y1="1.7048" y2="44.554" gradientUnits="userSpaceOnUse">
		<stop stop-color="#EBF5F7" offset="0"/>
		<stop stop-color="#F1F8FA" offset=".1519"/>
		<stop stop-color="#FCFDFE" offset=".5366"/>
		<stop stop-color="#fff" offset=".9973"/>
	</linearGradient>
	<path d="m26.428 44.554h9.944l16.161-36.141c-3.318-3.014-7.285-5.328-11.665-6.708l-9.468 26.954-9.465-26.947c-4.374 1.383-8.335 3.695-11.649 6.708z" fill="url(#SVGID_3_)"/>
</g>
</svg>
