<svg width="701.62" height="253.92" version="1.1" viewBox="0 0 701.62 253.92" xml:space="preserve" xmlns="http://www.w3.org/2000/svg"><defs>
				<linearGradient id="Vector_7_1_" x1="-15.58" x2="70.403" y1="21.087" y2="-129.49" gradientTransform="matrix(1.6313,0,0,1.6313,0,206.49)" gradientUnits="userSpaceOnUse">
				<stop stop-color="#16217C" offset="0"/>
				<stop stop-color="#16217C" offset=".0042341"/>
				<stop stop-color="#0009FF" offset=".5689"/>
				<stop stop-color="#00FF5B" offset="1"/>
			</linearGradient>
				<linearGradient id="Vector_8_1_" x1="5.1894" x2="91.173" y1="32.948" y2="-117.63" gradientTransform="matrix(1.6313,0,0,1.6313,0,206.49)" gradientUnits="userSpaceOnUse">
				<stop stop-color="#16217C" offset="0"/>
				<stop stop-color="#16217C" offset=".0042341"/>
				<stop stop-color="#0009FF" offset=".5689"/>
				<stop stop-color="#00FF5B" offset="1"/>
			</linearGradient>
			<linearGradient id="Vector_9_1_" x1="61.3" x2="61.3" y1="-123.56" y2="-40.845" gradientTransform="matrix(1.6313,0,0,1.6313,0,206.49)" gradientUnits="userSpaceOnUse">
			<stop stop-color="#EBF5F7" offset="0"/>
			<stop stop-color="#fff" offset=".9973"/>
			<stop stop-color="#fff" offset="1"/>
		</linearGradient>
</defs>
<path class="st0" d="m309.46 50.244-14.682 22.023c-7.9934-5.7096-16.476-7.9934-24.143-7.9934-8.9722 0-13.05 3.2626-13.05 7.6671 0 4.7308 5.057 6.3621 12.724 9.2984l8.6459 3.4257c20.391 7.9934 31.81 16.476 31.81 35.073 0 22.023-18.434 35.399-43.066 35.399-17.781 0-34.094-5.7096-45.84-15.66l15.334-22.349c8.6459 6.6883 19.739 11.093 30.179 11.093 7.9934 0 13.377-2.6101 13.377-8.6459s-7.9934-8.3196-19.412-12.724l-8.9722-3.4257c-19.086-7.3408-24.796-17.781-24.796-31.158 0-16.476 14.029-33.768 43.556-33.768 18.271-0.65252 31.321 6.0358 38.336 11.745z" fill="#202e34" stroke-width="1.6313"/><path class="st0" d="m431.81 96.41c0 34.747-22.349 57.259-51.223 57.259-12.724 0-23.001-3.4257-29.853-10.767v44.208h-30.505v-145.68h29.037v10.114c7.3408-7.9934 18.434-12.724 31.81-12.724 28.385 0 50.733 22.675 50.733 57.585zm-30.668 0c0-18.434-11.745-29.363-26.101-29.363-14.682 0-26.427 10.44-26.427 29.363 0 18.434 12.072 29.363 26.427 29.363 14.355-0.32626 26.101-11.093 26.101-29.363z" fill="#202e34" stroke-width="1.6313" Googl="true"/><path class="st0" d="m550.56 96.41c0 34.747-25.448 58.237-57.911 58.237s-57.911-23.491-57.911-58.237 25.448-58.564 57.911-58.564 57.911 23.654 57.911 58.564zm-85.317 0c0 18.434 12.724 29.363 27.08 29.363 14.682 0 27.406-10.767 27.406-29.363 0-18.434-12.724-29.363-27.406-29.363-14.355 0.16313-27.08 10.603-27.08 29.363z" fill="#202e34" stroke-width="1.631"/><path class="st0" d="m624.14 67.536c-23.001 1.6313-33.768 15.008-33.768 39.804v44.208h-30.505v-110.11h29.037v17.781c5.3833-10.114 15.987-17.455 35.399-17.781z" fill="#202e34" stroke-width="1.6313"/><path class="st0" d="m679.76 110.77c0 11.419 5.057 15.334 16.313 15.334 1.6313 0 4.0782-0.32626 5.057-0.32626v25.448c-4.0782 1.305-9.6247 2.2838-15.987 2.2838-23.001 0-36.378-9.9509-36.378-35.073v-51.223h-18.434v-26.101h18.434v-24.47h30.505v24.47h22.349v26.101h-22.349z" fill="#202e34" stroke-width="1.6313"/><g transform="translate(-.002 -.0002002)" stroke-width="1.6313"><path class="st2" d="m99.999 90.374-30.016-85.643c9.6247-2.7732 19.739-4.7308 30.342-4.7308 10.44 0 20.718 1.6313 30.179 4.7308z" fill="url(#Vector_7_1_)"/><path class="st3" d="m200 99.999c0 55.464-44.861 99.999-99.999 99.999s-99.999-44.534-99.999-99.999c0-29.363 12.398-55.464 32.463-73.898l51.549 115.33h31.81l51.712-115.33c20.065 18.434 32.463 44.534 32.463 73.898z" fill="url(#Vector_8_1_)"/><path class="st4" d="m167.53 26.101-51.712 115.33h-31.81l-51.549-115.33c10.44-9.6247 23.164-17.129 37.194-21.696l30.179 85.643 30.342-85.97c14.029 4.8939 26.753 12.398 37.357 22.023z" fill="url(#Vector_9_1_)"/></g><g transform="matrix(1.0299 0 0 .97098 -14.302 -.0002002)" fill="#424b4c" aria-label="PREMIUM HD"><path d="m513.08 259.86-13.521-20.49h-9.0544v20.49h-9.0447v-53.963h21.585c5.1509 0 9.1264 1.3915 11.927 4.1746 2.8003 2.7575 4.2004 6.7278 4.2004 11.911 0 3.7788-0.85848 7.047-2.5754 9.8045-1.717 2.732-4.4248 4.9443-7.3478 5.8124l14.011 22.261zm-3.0147-37.418c0-5.1831-2.6572-7.7747-7.9716-7.7747h-11.589v15.932h11.835c2.5346 0 4.4559-0.71491 5.7641-2.1447s1.9622-3.4341 1.9622-6.0129z" stroke-width="1.0045"/><path d="m275.52 259.86v-40.346l-14.722 40.345h-8.7414c-5.5205-14.621-14.336-40.345-14.336-40.345v40.345h-8.8372v-53.963h13.237l14.635 40.638 14.365-40.638 13.237 4.3e-4v53.963z" stroke-width="1.1311"/></g><path d="m438.21 199.92c-14.855 0-26.998 12.145-26.998 27s12.143 27 26.998 27 27-12.145 27-27-12.145-27-27-27zm0 9.5527c9.6929 0 17.449 7.7544 17.449 17.447 0 9.6929-7.7563 17.447-17.449 17.447-9.6929 0-17.447-7.7544-17.447-17.447 0-9.6929 7.7544-17.447 17.447-17.447z" color="#000000" color-rendering="auto" dominant-baseline="auto" fill="#424b4c" image-rendering="auto" opacity=".998" shape-rendering="auto" solid-color="#000000" stop-color="#000000" style="font-feature-settings:normal;font-variant-alternates:normal;font-variant-caps:normal;font-variant-east-asian:normal;font-variant-ligatures:normal;font-variant-numeric:normal;font-variant-position:normal;font-variation-settings:normal;inline-size:0;isolation:auto;mix-blend-mode:normal;shape-margin:0;shape-padding:0;text-decoration-color:#000000;text-decoration-line:none;text-decoration-style:solid;text-indent:0;text-orientation:mixed;text-transform:none;white-space:normal"/><path d="m322.21 199.92c-14.855 0-26.998 12.145-26.998 27s12.143 27 26.998 27 27-12.145 27-27-12.145-27-27-27zm0 9.5527c9.6929 0 17.449 7.7544 17.449 17.447 0 9.6929-7.7563 17.447-17.449 17.447-9.6929 0-17.447-7.7544-17.447-17.447 0-9.6929 7.7544-17.447 17.447-17.447z" color="#000000" color-rendering="auto" dominant-baseline="auto" fill="#424b4c" image-rendering="auto" opacity=".998" shape-rendering="auto" solid-color="#000000" stop-color="#000000" style="font-feature-settings:normal;font-variant-alternates:normal;font-variant-caps:normal;font-variant-east-asian:normal;font-variant-ligatures:normal;font-variant-numeric:normal;font-variant-position:normal;font-variation-settings:normal;inline-size:0;isolation:auto;mix-blend-mode:normal;shape-margin:0;shape-padding:0;text-decoration-color:#000000;text-decoration-line:none;text-decoration-style:solid;text-indent:0;text-orientation:mixed;text-transform:none;white-space:normal"/><path d="m386.14 208.96h14.734v-9.376l-39.799-0.179v9.555h14.734l5e-4 44.003h10.331z" fill="#424a4c" stroke-width="3.2035"/></svg>
