<svg width="800" height="304.18" enable-background="new 0 0 180 80" version="1.1" viewBox="0 0 800 304.18" xml:space="preserve" xmlns="http://www.w3.org/2000/svg" xmlns:i="&amp;ns_ai;">
<g transform="matrix(4.7087 0 0 4.7087 -23.543 -36.257)" fill="#202e34">
			<path d="m79.8 19.8-3.6 5.3c-2-1.4-4-2-5.8-2-2.2 0-3.2 0.8-3.2 1.9s1.2 1.6 3 2.2l2.1 0.8c4.9 1.9 7.8 4 7.8 8.5 0 5.3-4.5 8.5-10.4 8.5-4.3 0-8.3-1.4-11.1-3.8l3.7-5.4c2.1 1.6 4.8 2.7 7.3 2.7 2 0 3.3-0.6 3.3-2.1s-2-2-4.7-3.1l-2.2-0.8c-4.6-1.8-6-4.3-6-7.5 0-4 3.4-8.2 10.5-8.2 4.5 0 7.6 1.6 9.3 3z"/>
			<path d="m109.4 31c0 8.4-5.4 13.9-12.5 13.9-3.1 0-5.5-0.9-7.3-2.6v10.7h-7.4v-35.4h7v2.5c1.8-2 4.4-3.1 7.7-3.1 7.1 0 12.5 5.5 12.5 14zm-7.4 0c0-4.5-2.8-7.1-6.3-7.1s-6.4 2.6-6.4 7.1c0 4.4 2.9 7.1 6.4 7.1 3.4 0 6.3-2.7 6.3-7.1z"/>
			<path d="m138.2 31c0 8.4-6.2 14.1-14.1 14.1s-14.1-5.7-14.1-14.1 6.2-14.2 14.1-14.2 14.1 5.7 14.1 14.2zm-20.6 0c0 4.4 3.1 7.1 6.6 7.1 3.6 0 6.6-2.6 6.6-7.1s-3-7.1-6.6-7.1-6.6 2.6-6.6 7.1z"/>
			<path d="m156.1 23.9c-5.5 0.4-8.2 3.6-8.2 9.6v10.8h-7.4v-26.7h7v4.3c1.3-2.5 3.9-4.2 8.6-4.3z"/>
			<path d="m169.6 34.5c0 2.8 1.2 3.7 3.9 3.7 0.4 0 1-0.1 1.2-0.1v6.2c-1 0.3-2.3 0.5-3.8 0.5-5.6 0-8.8-2.4-8.8-8.5v-12.4h-4.5v-6.4h4.5v-5.9h7.4v5.9h5.4v6.4h-5.4z"/>
		</g><g transform="matrix(4.7087 0 0 4.7087 -23.543 -36.257)" fill="#424a4c">
			<path d="m68.2 56.2v9.6c0 2.4-1.2 3.6-3.3 3.6s-3.3-1.3-3.3-3.7v-9.6h-3.1v9.7c0 4 2.4 6.5 6.4 6.5s6.4-2.5 6.4-6.5v-9.7h-3.1z"/>
			<polygon points="76.9 56.2 76.9 72 86.8 72 86.8 69.2 80 69.2 80 56.2"/>
			<polygon points="87.9 56.2 87.9 59 92.7 59 92.7 72 95.8 72 95.8 59 100.5 59 100.5 56.2"/>
			<path d="m116.8 61.2c0-3-2.2-5-5.5-5h-6.2v15.8h3.1v-5.9h2.6l3.8 5.8v0.1h3.4l-4.2-6.4c1.9-0.7 3-2.3 3-4.4zm-3 0c0 1.4-1 2.3-2.7 2.3h-2.9v-4.6h2.9c1.7 0 2.7 0.9 2.7 2.3z"/>
			<path d="m129.7 56.2h-3.2l-6 15.6-0.1 0.2h3.1l1.4-3.7h6.4l1.4 3.7h3.2l-6.1-15.7zm0.5 9.4h-4.4l2.2-5.9z"/>
			<polygon points="142.8 65.3 149.8 65.3 149.8 72 152.9 72 152.9 56.2 149.8 56.2 149.8 62.5 142.8 62.5 142.8 56.2 139.7 56.2 139.7 72 142.8 72"/>
			<path d="m164.1 56.2h-5.5v15.8h5.5c2.3 0 4.3-0.7 5.7-2.1 1.5-1.4 2.2-3.4 2.2-5.8 0-4.8-3.1-7.9-7.9-7.9zm4.8 7.9c0 3.2-1.9 5.1-5 5.1h-2.3v-10.3h2.3c3.1 0.1 5 2 5 5.2z"/>
		</g><g transform="matrix(4.7087 0 0 4.7087 -23.543 -36.257)">
				<linearGradient id="SVGID_1_" x1="-307.11" x2="-296.41" y1="41.812" y2="27.701" gradientTransform="matrix(4.0718 8.5939e-6 -5.6405e-6 4.0718 1242.4 -106.82)" gradientUnits="userSpaceOnUse">
				<stop stop-color="#16217C" offset=".0050608"/>
				<stop stop-color="#0009FF" offset=".5468"/>
				<stop stop-color="#00FF5B" offset="1"/>
			</linearGradient>
			<path d="m36.5 8.8c-2.3-0.7-4.7-1.1-7.3-1.1s-5 0.4-7.3 1.1l7.3 20.7z" fill="url(#SVGID_1_)"/>
				<linearGradient id="SVGID_2_" x1="-303.54" x2="-295.14" y1="43.707" y2="29.156" gradientTransform="matrix(4.0718 8.5939e-6 -5.6405e-6 4.0718 1242.4 -106.82)" gradientUnits="userSpaceOnUse">
				<stop stop-color="#16217C" offset=".0050608"/>
				<stop stop-color="#0009FF" offset=".5468"/>
				<stop stop-color="#00FF5B" offset="1"/>
			</linearGradient>
			<path d="m45.4 13.9-12.4 27.8h-7.7l-12.4-27.8c-4.9 4.5-7.9 10.8-7.9 17.9 0 13.4 10.8 24.2 24.2 24.2s24.2-10.8 24.2-24.2c0-7.1-3.1-13.4-8-17.9z" fill="url(#SVGID_2_)"/>
			<linearGradient id="SVGID_3_" x1="29.173" x2="29.173" y1="8.7751" y2="41.743" gradientUnits="userSpaceOnUse">
				<stop stop-color="#EBF5F7" offset="0"/>
				<stop stop-color="#F1F8FA" offset=".1519"/>
				<stop stop-color="#FCFDFE" offset=".5366"/>
				<stop stop-color="#fff" offset=".9973"/>
			</linearGradient>
			<path d="m25.3 41.7h7.7l12.4-27.8c-2.6-2.3-5.6-4.1-9-5.2l-7.3 20.7-7.2-20.6c-3.4 1.1-6.4 2.8-9 5.2z" fill="url(#SVGID_3_)"/>
		</g>
</svg>
