<svg width="800" height="278.56" version="1.1" viewBox="0 0 800 278.56" xml:space="preserve" xmlns="http://www.w3.org/2000/svg">
<g transform="matrix(3.2838 0 0 3.2838 .059109 -1.7831)" fill="#202e34">
	<path d="m97.223 16.178-4.635 6.92c-2.552-1.813-5.241-2.552-7.591-2.553-2.822 0-4.098 1.008-4.098 2.418 0 1.478 1.612 2.015 3.962 2.89l2.756 1.075c6.383 2.487 10.078 5.173 10.078 11.019 0 6.92-5.846 11.086-13.505 11.086-5.576 0-10.751-1.816-14.446-4.905l4.771-7.054c2.754 2.081 6.181 3.493 9.541 3.493 2.552 0 4.232-0.807 4.232-2.754 0-1.949-2.552-2.62-6.113-4.032l-2.822-1.075c-5.98-2.351-7.793-5.576-7.793-9.81 0-5.173 4.434-10.615 13.704-10.615 5.644 0 9.742 2.084 11.959 3.897z"/>
	<path d="m135.73 30.692c0 10.885-7.054 18.072-16.191 18.072-4.032 0-7.19-1.143-9.473-3.427v13.909h-9.676l-1e-3 -45.955h9.137v3.225c2.353-2.554 5.78-3.964 10.012-3.964 9.137 0 16.192 7.188 16.192 18.14zm-9.675 0c0-5.846-3.695-9.205-8.196-9.205-4.57 0-8.332 3.359-8.332 9.205 0 5.778 3.763 9.203 8.332 9.203 4.502 0 8.196-3.425 8.196-9.203z"/>
	<path d="m173.16 30.693c0 10.885-8.062 18.342-18.274 18.342-10.279 0-18.274-7.458-18.274-18.342 0-10.952 7.994-18.41 18.274-18.41 10.211 0 18.273 7.457 18.274 18.41zm-26.874-1e-3c0 5.778 3.965 9.203 8.532 9.203 4.637 0 8.6-3.425 8.6-9.203 0-5.846-3.962-9.205-8.6-9.205-4.568 0-8.532 3.36-8.532 9.205z"/>
	<path d="m196.34 21.556c-7.193 0.486-10.615 4.679-10.615 12.496v13.974h-9.674v-34.735h9.137v5.576c1.68-3.225 5.039-5.51 11.152-5.576z"/>
	<path d="m213.9 35.261c0 3.629 1.614 4.837 5.107 4.837 0.537 0 1.276-0.066 1.612-0.134v8.063c-1.276 0.403-3.022 0.671-4.971 0.671-7.256 0-11.422-3.09-11.422-11.019v-16.123h-5.846v-8.264h5.846v-7.676h9.674v7.676h7.056v8.264h-7.056z"/>
</g>
<g transform="matrix(3.2838 0 0 3.2838 .059109 -1.7831)" fill="#424a4c">
	<path d="m76.018 78.386c0 4.975-2.5 6.592-5.44 6.984l-0.833-2.5c2.229-0.516 3.186-1.766 3.186-4.582v-14.974h3.088v15.072z"/>
	<path d="m85.353 76.523-1.568 4.191h-3.015l6.715-17.4h3.283l6.739 17.4h-3.137l-1.544-4.191zm3.725-10.073-2.745 7.402h5.489z"/>
	<path d="m113.11 80.714h-10.709v-17.4h3.063v14.654h7.646z"/>
	<path d="m121.61 74.931v5.783h-3.063v-17.4h3.063v7.793l7.376-7.793h3.726l-6.69 6.984 7.303 10.416h-3.529l-5.832-8.26z"/>
	<path d="m140.84 76.523-1.568 4.191h-3.015l6.715-17.4h3.283l6.739 17.4h-3.137l-1.544-4.191zm3.725-10.073-2.745 7.402h5.489z"/>
	<path d="m165.32 63.314c3.528 0 5.955 2.305 5.955 5.662 0 3.332-2.427 5.637-5.955 5.637h-4.362v6.102h-3.063v-17.4h7.425zm-0.417 8.601c2.034 0 3.309-1.102 3.309-2.939 0-1.887-1.274-2.965-3.309-2.965h-3.945v5.904z"/>
	<path d="m178.16 76.523-1.568 4.191h-3.015l6.715-17.4h3.283l6.739 17.4h-3.137l-1.544-4.191zm3.724-10.073-2.745 7.402h5.489z"/>
	<path d="m205.92 80.714h-10.709v-17.4h3.063v14.654h7.646z"/>
	<path d="m222.06 80.714h-10.709v-17.4h3.063v14.654h7.646z"/>
	<path d="m243.6 72.015c0 5.439-3.872 9.066-8.92 9.066-5.049 0-8.896-3.627-8.896-9.066 0-5.416 3.847-9.068 8.896-9.068 5.048-1e-3 8.92 3.652 8.92 9.068zm-14.703 0c0 3.994 2.744 6.225 5.808 6.225 3.062 0 5.783-2.23 5.783-6.225 0-3.996-2.721-6.225-5.783-6.225-3.064 0-5.808 2.229-5.808 6.225z"/>
</g>
<g transform="matrix(3.2838 0 0 3.2838 .059109 -1.7831)">
		<linearGradient id="SVGID_1_" x1="-293.12" x2="-279.21" y1="46.513" y2="28.173" gradientTransform="matrix(4.0718 8.5939e-6 -5.6405e-6 4.0718 1176.5 -116.35)" gradientUnits="userSpaceOnUse">
		<stop stop-color="#16217C" offset=".0051"/>
		<stop stop-color="#0009FF" offset=".5468"/>
		<stop stop-color="#00FF5B" offset="1"/>
	</linearGradient>
	<path d="m40.871 1.996c-2.988-0.943-6.168-1.453-9.467-1.453s-6.479 0.51-9.467 1.453l9.467 26.952z" fill="url(#SVGID_1_)"/>
		<linearGradient id="SVGID_2_" x1="-288.48" x2="-277.56" y1="48.976" y2="30.064" gradientTransform="matrix(4.0718 8.5939e-6 -5.6405e-6 4.0718 1176.5 -116.35)" gradientUnits="userSpaceOnUse">
		<stop stop-color="#16217C" offset=".0051"/>
		<stop stop-color="#0009FF" offset=".5468"/>
		<stop stop-color="#00FF5B" offset="1"/>
	</linearGradient>
	<path d="m52.552 8.724-16.17 36.137h-9.944l-16.17-36.138c-6.319 5.749-10.285 14.037-10.286 23.253 0 17.357 14.07 31.427 31.427 31.427s31.427-14.07 31.428-31.427c0-9.215-3.966-17.504-10.285-23.252z" fill="url(#SVGID_2_)"/>
	<linearGradient id="SVGID_3_" x1="31.409" x2="31.409" y1="2.0085" y2="44.858" gradientUnits="userSpaceOnUse">
		<stop stop-color="#EBF5F7" offset="0"/>
		<stop stop-color="#F1F8FA" offset=".1519"/>
		<stop stop-color="#FCFDFE" offset=".5366"/>
		<stop stop-color="#fff" offset=".9973"/>
	</linearGradient>
	<path d="m26.428 44.858h9.944l16.161-36.141c-3.318-3.014-7.285-5.328-11.665-6.708l-9.468 26.954-9.465-26.947c-4.374 1.382-8.335 3.695-11.649 6.707z" fill="url(#SVGID_3_)"/>
</g>
</svg>
