<svg width="709.35" height="230" version="1.1" viewBox="0 0 709.35 230" xml:space="preserve" xmlns="http://www.w3.org/2000/svg"><defs><linearGradient id="SVGID_4_-8" x1="148.99" x2="169.56" y1="94.827" y2="59.204" gradientTransform="matrix(.87028 0 0 .8709 62.208 153.03)" gradientUnits="userSpaceOnUse"><stop stop-color="#16217C" offset=".0051"/><stop stop-color="#0009FF" offset=".5468"/><stop stop-color="#00FF5B" offset="1"/></linearGradient></defs>
<g transform="matrix(2.5701 0 0 2.5701 .046261 -.55513)" fill="#202e34">
	<path d="m97.223 16.022-4.635 6.92c-2.552-1.813-5.241-2.552-7.591-2.553-2.822 0-4.098 1.008-4.098 2.418 0 1.478 1.612 2.015 3.962 2.89l2.756 1.075c6.383 2.487 10.078 5.174 10.078 11.019 0 6.92-5.846 11.086-13.505 11.086-5.576 0-10.751-1.816-14.446-4.905l4.771-7.054c2.754 2.081 6.181 3.493 9.541 3.493 2.552 0 4.232-0.807 4.232-2.754 0-1.949-2.552-2.62-6.113-4.032l-2.822-1.075c-5.98-2.351-7.793-5.576-7.793-9.81 0-5.173 4.434-10.615 13.704-10.615 5.644 1e-3 9.742 2.084 11.959 3.897z"/>
	<path d="m135.73 30.536c0 10.885-7.054 18.072-16.191 18.072-4.032 0-7.19-1.143-9.473-3.427v13.909h-9.676l-1e-3 -45.955h9.137v3.225c2.353-2.554 5.78-3.964 10.012-3.964 9.137 0 16.192 7.188 16.192 18.14zm-9.675 0c0-5.846-3.695-9.205-8.196-9.205-4.57 0-8.332 3.359-8.332 9.205 0 5.778 3.763 9.203 8.332 9.203 4.502 0 8.196-3.425 8.196-9.203z"/>
	<path d="m173.16 30.537c0 10.885-8.062 18.342-18.274 18.342-10.279 0-18.274-7.458-18.274-18.342 0-10.952 7.994-18.41 18.274-18.41 10.211 0 18.273 7.457 18.274 18.41zm-26.874-1e-3c0 5.778 3.965 9.203 8.532 9.203 4.637 0 8.6-3.425 8.6-9.203 0-5.846-3.962-9.205-8.6-9.205-4.568 1e-3 -8.532 3.36-8.532 9.205z"/>
	<path d="m196.34 21.4c-7.193 0.486-10.615 4.679-10.615 12.496v13.974h-9.674v-34.735h9.137v5.576c1.68-3.225 5.039-5.51 11.152-5.576z"/>
	<path d="m213.9 35.105c0 3.629 1.614 4.837 5.107 4.837 0.537 0 1.276-0.066 1.612-0.134v8.063c-1.276 0.403-3.022 0.671-4.971 0.671-7.256 0-11.422-3.09-11.422-11.019v-16.123h-5.846v-8.264h5.846v-7.676h9.674v7.676h7.056v8.264h-7.056z"/>
</g>
<g transform="matrix(2.5701 0 0 2.5701 .046261 -.55513)" fill="#424a4c">
	<path d="m73.001 82.466c0 2.882-0.978 4.159-3.257 4.686l0.852 2.556c3.007-0.401 5.562-2.055 5.562-7.141v-15.409h-3.157z"/>
	<path d="m92.369 65.529c1.002 0 1.753-0.802 1.753-1.729 0-0.977-0.751-1.729-1.753-1.729-1.003 0-1.779 0.752-1.779 1.729-1e-3 0.927 0.776 1.729 1.779 1.729z"/>
	<path d="m86.781 65.529c1.002 0 1.779-0.802 1.779-1.729 0-0.977-0.777-1.729-1.779-1.729-1.027 0-1.778 0.752-1.778 1.729-1e-3 0.927 0.75 1.729 1.778 1.729z"/>
	<path d="m87.883 67.158-6.865 17.789h3.082l1.604-4.284h7.642l1.578 4.284h3.207l-6.89-17.789zm-1.178 10.773 2.807-7.566 2.806 7.566z"/>
	<path d="m106.95 65.529c1.002 0 1.779-0.802 1.779-1.729 0-0.977-0.777-1.729-1.779-1.729-1.027 0-1.778 0.752-1.778 1.729-1e-3 0.927 0.75 1.729 1.778 1.729z"/>
	<path d="m108.05 67.158-6.865 17.789h3.082l1.604-4.284h7.642l1.578 4.284h3.207l-6.89-17.789zm-1.178 10.773 2.807-7.566 2.806 7.566z"/>
	<path d="m112.54 65.529c1.002 0 1.753-0.802 1.753-1.729 0-0.977-0.751-1.729-1.753-1.729-1.003 0-1.779 0.752-1.779 1.729-1e-3 0.927 0.776 1.729 1.779 1.729z"/>
	<polygon points="128.84 76.503 134.8 84.947 138.41 84.947 130.95 74.298 137.79 67.158 133.98 67.158 126.44 75.126 126.44 67.158 123.3 67.158 123.3 84.947 126.44 84.947 126.44 79.034"/>
	<rect x="143.37" y="67.158" width="3.132" height="17.789"/>
	<polygon points="153.47 84.947 165.07 84.947 165.07 82.141 156.6 82.141 156.6 77.28 163.86 77.28 163.86 74.474 156.6 74.474 156.6 69.964 164.87 69.964 164.87 67.158 153.47 67.158"/>
	<polygon points="176.66 76.503 182.63 84.947 186.24 84.947 178.77 74.298 185.61 67.158 181.8 67.158 174.26 75.126 174.26 67.158 171.13 67.158 171.13 84.947 174.26 84.947 174.26 79.034"/>
	<polygon points="196.73 76.503 202.7 84.947 206.3 84.947 198.84 74.298 205.68 67.158 201.87 67.158 194.33 75.126 194.33 67.158 191.19 67.158 191.19 84.947 194.33 84.947 194.33 79.034"/>
	<path d="m218.53 66.782c-5.161 0-9.095 3.733-9.095 9.271 0 5.562 3.934 9.271 9.095 9.271 5.162 0 9.12-3.708 9.12-9.271 0-5.538-3.958-9.271-9.12-9.271zm0.025 15.635c-3.132 0-5.938-2.28-5.938-6.364s2.806-6.364 5.938-6.364 5.913 2.28 5.913 6.364-2.781 6.364-5.913 6.364z"/>
</g>
<g transform="matrix(2.5701 0 0 2.5701 .046261 -.55513)">
		<linearGradient id="SVGID_1_" x1="-293.12" x2="-279.21" y1="46.315" y2="27.976" gradientTransform="matrix(4.0718,8.5939e-6,-5.6405e-6,4.0718,1176.5,-115.87)" gradientUnits="userSpaceOnUse">
		<stop stop-color="#16217C" offset=".0051"/>
		<stop stop-color="#0009FF" offset=".5468"/>
		<stop stop-color="#00FF5B" offset="1"/>
	</linearGradient>
	<path d="m40.871 1.669c-2.988-0.943-6.168-1.453-9.467-1.453s-6.479 0.51-9.467 1.453l9.467 26.952z" fill="url(#SVGID_1_)"/>
		<linearGradient id="SVGID_2_" x1="-288.48" x2="-277.56" y1="48.778" y2="29.866" gradientTransform="matrix(4.0718,8.5939e-6,-5.6405e-6,4.0718,1176.5,-115.87)" gradientUnits="userSpaceOnUse">
		<stop stop-color="#16217C" offset=".0051"/>
		<stop stop-color="#0009FF" offset=".5468"/>
		<stop stop-color="#00FF5B" offset="1"/>
	</linearGradient>
	<path d="m52.552 8.397-16.17 36.137h-9.944l-16.17-36.137c-6.319 5.748-10.285 14.037-10.286 23.252 0 17.357 14.07 31.427 31.427 31.427s31.427-14.07 31.428-31.427c0-9.214-3.966-17.503-10.285-23.252z" fill="url(#SVGID_2_)"/>
	<linearGradient id="SVGID_3_" x1="31.409" x2="31.409" y1="1.6821" y2="44.532" gradientUnits="userSpaceOnUse">
		<stop stop-color="#EBF5F7" offset="0"/>
		<stop stop-color="#F1F8FA" offset=".1519"/>
		<stop stop-color="#FCFDFE" offset=".5366"/>
		<stop stop-color="#fff" offset=".9973"/>
	</linearGradient>
	<path d="m26.428 44.532h9.944l16.161-36.142c-3.318-3.014-7.285-5.328-11.665-6.708l-9.468 26.954-9.465-26.946c-4.374 1.382-8.335 3.694-11.649 6.707z" fill="url(#SVGID_3_)"/>
</g>
<g transform="matrix(3.141 0 0 3.141 12.585 -481.05)"><g transform="matrix(1.0271 0 0 1.0271 51.227 153.2)" fill="#424a4c" stroke-width=".84759"><path d="m137.5 61.399h6.2529v6.0598h2.7334v-14.171h-2.7334v5.6301h-6.2529v-5.6301h-2.7334v14.171h2.7334z"/><path d="m155.62 53.289h-4.9125v14.171h4.9125c4.3127 0 7.1001-2.781 7.1001-7.085s-2.7876-7.0858-7.1001-7.0858zm-2.1792 2.4818h2.0234c2.7665 0 4.4839 1.7636 4.4839 4.604s-1.7175 4.604-4.4839 4.604h-2.0234z"/></g><path d="m185.47 205.03v20.352h36.368v-20.352zm34.943 18.927h-33.52v-17.502h33.52z" fill="url(#SVGID_4_-8)" stroke-width=".8706"/></g></svg>
