<svg width="185.64mm" height="66.888mm" version="1.1" viewBox="0 0 185.64 66.888" xmlns="http://www.w3.org/2000/svg">
 <defs>
  <linearGradient id="Vector_7_1_" x1="-15.58" x2="70.403" y1="21.087" y2="-129.49" gradientTransform="matrix(.43161 0 0 .43161 0 54.633)" gradientUnits="userSpaceOnUse">
   <stop stop-color="#16217C" offset="0"/>
   <stop stop-color="#16217C" offset=".0042341"/>
   <stop stop-color="#0009FF" offset=".5689"/>
   <stop stop-color="#00FF5B" offset="1"/>
  </linearGradient>
  <linearGradient id="Vector_8_1_" x1="5.1894" x2="91.173" y1="32.948" y2="-117.63" gradientTransform="matrix(.43161 0 0 .43161 0 54.633)" gradientUnits="userSpaceOnUse">
   <stop stop-color="#16217C" offset="0"/>
   <stop stop-color="#16217C" offset=".0042341"/>
   <stop stop-color="#0009FF" offset=".5689"/>
   <stop stop-color="#00FF5B" offset="1"/>
  </linearGradient>
  <linearGradient id="Vector_9_1_" x1="61.3" x2="61.3" y1="-123.56" y2="-40.845" gradientTransform="matrix(.43161 0 0 .43161 0 54.633)" gradientUnits="userSpaceOnUse">
   <stop stop-color="#EBF5F7" offset="0"/>
   <stop stop-color="#fff" offset=".9973"/>
   <stop stop-color="#fff" offset="1"/>
  </linearGradient>
 </defs>
 <g fill="#212a2f">
  <path class="st0" d="m81.876 13.294-3.8845 5.8267c-2.1149-1.5106-4.3593-2.1149-6.3878-2.1149-2.3739 0-3.4529 0.86322-3.4529 2.0286 0 1.2517 1.338 1.6833 3.3666 2.4602l2.2875 0.90638c5.3951 2.1149 8.4164 4.3593 8.4164 9.2796 0 5.8267-4.8772 9.3659-11.395 9.3659-4.7045 0-9.0206-1.5106-12.128-4.1435l4.0571-5.9131c2.2875 1.7696 5.2225 2.9349 7.9848 2.9349 2.1149 0 3.5392-0.69058 3.5392-2.2875s-2.1149-2.2012-5.1362-3.3666l-2.3739-0.90638c-5.0498-1.9422-6.5605-4.7045-6.5605-8.2438 0-4.3593 3.7118-8.9343 11.524-8.9343 4.834-0.17264 8.2869 1.597 10.143 3.1076z" stroke-width=".43161"/>
  <path class="st0" d="m114.25 25.508c0 9.1933-5.9131 15.15-13.553 15.15-3.3666 0-6.0857-0.90638-7.8985-2.8486v11.697h-8.0711v-38.543h7.6827v2.676c1.9422-2.1149 4.8772-3.3666 8.4164-3.3666 7.51 0 13.423 5.9994 13.423 15.236zm-8.1143 0c0-4.8772-3.1076-7.769-6.9058-7.769-3.8845 0-6.9921 2.7623-6.9921 7.769 0 4.8772 3.1939 7.769 6.9921 7.769 3.7982-0.08632 6.9058-2.9349 6.9058-7.769z" stroke-width=".43161" Googl="true"/>
  <path class="st0" d="m145.67 25.508c0 9.1933-6.7331 15.408-15.322 15.408s-15.322-6.2152-15.322-15.408 6.7331-15.495 15.322-15.495 15.322 6.2583 15.322 15.495zm-22.573 0c0 4.8772 3.3666 7.769 7.1647 7.769 3.8845 0 7.251-2.8486 7.251-7.769 0-4.8772-3.3666-7.769-7.251-7.769-3.7982 0.04316-7.1647 2.8055-7.1647 7.769z" stroke-width=".43152"/>
  <path class="st0" d="m165.13 17.869c-6.0857 0.43161-8.9343 3.9708-8.9343 10.531v11.697h-8.0711v-29.134h7.6827v4.7045c1.4243-2.676 4.2298-4.6182 9.3659-4.7045z" stroke-width=".43161"/>
  <path class="st0" d="m179.85 29.306c0 3.0213 1.338 4.0571 4.3161 4.0571 0.43161 0 1.079-0.08632 1.338-0.08632v6.7331c-1.079 0.34529-2.5465 0.60425-4.2298 0.60425-6.0857 0-9.6249-2.6328-9.6249-9.2796v-13.553h-4.8772v-6.9058h4.8772v-6.4742h8.0711v6.4742h5.9131v6.9058h-5.9131z" stroke-width=".43161"/>
 </g>
 <g stroke-width=".43161">
  <path class="st2" d="m26.458 23.911-7.9416-22.66c2.5465-0.73374 5.2225-1.2517 8.0279-1.2517 2.7623 0 5.4814 0.43161 7.9848 1.2517z" fill="url(#Vector_7_1_)"/>
  <path class="st3" d="m52.915 26.458c0 14.675-11.869 26.458-26.458 26.458s-26.458-11.783-26.458-26.458c0-7.769 3.2802-14.675 8.589-19.552l13.639 30.515h8.4164l13.682-30.515c5.3088 4.8772 8.589 11.783 8.589 19.552z" fill="url(#Vector_8_1_)"/>
  <path class="st4" d="m44.326 6.9058-13.682 30.515h-8.4164l-13.639-30.515c2.7623-2.5465 6.1289-4.5319 9.8407-5.7404l7.9848 22.66 8.0279-22.746c3.7118 1.2948 7.0784 3.2802 9.8839 5.8267z" fill="url(#Vector_9_1_)"/>
 </g>
 <g transform="translate(-166.67 -30.694)" fill="#424a4c">
  <path d="m237.23 83.718 4.9501 6.9314-4.9501 6.9319h2.9404l3.4799-4.8731 3.4799 4.8731h2.9399l-4.9501-6.9319 4.9501-6.9314h-2.9399l-3.4799 4.8731-3.4799-4.8731z" fill-rule="evenodd" opacity=".998" stroke-width="2.3265"/>
  <g transform="matrix(.25467 0 0 .25467 169.89 32.296)">
   <path d="m474.48 244h-24.067l-4.7002 12.357h-10.697l21.393-54.436h12.479l21.393 54.436h-11.102zm-3.3224-8.7598-8.6708-23.151-8.7518 23.151z" stroke-width="1.1395"/>
   <path d="m351.53 211.48h14.734v-9.376l-39.799-0.179v9.555h14.734l5e-4 44.003h10.331z" stroke-width="3.2035"/>
  </g>
  <path d="m276.48 97.581-3.6843-5.2638h-2.4672v5.2638h-2.4645v-13.863h5.8816c1.4035 0 2.4868 0.35747 3.2499 1.0724 0.76304 0.70839 1.1445 1.7283 1.1445 3.0599 0 0.97076-0.23392 1.8103-0.70176 2.5187-0.46785 0.70184-1.2057 1.2702-2.0022 1.4932l3.8178 5.7188zm-0.82146-9.6125c0-1.3315-0.72405-1.9973-2.1722-1.9973h-3.1578v4.0929h3.2248c0.69064 0 1.2142-0.18365 1.5706-0.55096 0.35646-0.36731 0.53467-0.88221 0.53467-1.5447z" stroke-width=".26577"/>
  <path d="m225.03 97.582v-13.863h9.0978l1.1e-4 2.2101h-6.411v3.4156h5.5395v2.2101h-5.5395v3.6165h6.411v2.4106z" stroke-width=".2641"/>
 </g>
</svg>
