<svg width="239.43" height="91.033" version="1.1" viewBox="0 0 239.43 91.033" xml:space="preserve" xmlns="http://www.w3.org/2000/svg"><defs><clipPath id="clipPath1736"><path d="m527.1 151.72h40.174v15.276h-40.174z"/></clipPath><clipPath id="clipPath1764"><path d="m531.08 166.73 1.72-4.901 1.722 4.901c-0.544 0.172-1.121 0.264-1.721 0.264s-1.179-0.092-1.721-0.264"/></clipPath><linearGradient id="linearGradient1778" x2="1" gradientTransform="matrix(10.294,13.578,13.578,-10.294,524.01,153.81)" gradientUnits="userSpaceOnUse"><stop stop-color="#16217c" offset="0"/><stop stop-color="#16217c" offset=".0050608"/><stop stop-color="#0009ff" offset=".54679"/><stop stop-color="#01ff5b" offset="1"/></linearGradient><clipPath id="clipPath1788"><path d="m533.71 158.93h-1.808l-2.94 6.571c-1.106-1.006-1.815-2.439-1.867-4.038v-0.38c0.101-3.069 2.619-5.525 5.711-5.525 3.156 0 5.714 2.559 5.714 5.714 0 1.676-0.721 3.184-1.87 4.229z"/></clipPath><linearGradient id="linearGradient1802" x2="1" gradientTransform="matrix(8.0838,14.002,14.002,-8.0839,527.44,151.99)" gradientUnits="userSpaceOnUse"><stop stop-color="#16217c" offset="0"/><stop stop-color="#16217c" offset=".0050608"/><stop stop-color="#0009ff" offset=".54679"/><stop stop-color="#01ff5b" offset="1"/></linearGradient><clipPath id="clipPath1812"><path d="m532.8 161.82-1.72 4.9c-0.796-0.251-1.516-0.671-2.119-1.219l2.935-6.57h1.808l2.938 6.571c-0.603 0.548-1.324 0.969-2.12 1.22z"/></clipPath><linearGradient id="linearGradient1826" x2="1" gradientTransform="matrix(0,-7.7911,-7.7911,0,532.81,166.73)" gradientUnits="userSpaceOnUse"><stop stop-color="#ebf5f7" offset="0"/><stop stop-color="#fff" offset=".42849"/><stop stop-color="#fff" offset=".99726"/><stop stop-color="#fff" offset="1"/></linearGradient></defs><g transform="matrix(5.9592 0 0 -5.9592 -3141.1 995.16)" fill="#f2f2f2"><g clip-path="url(#clipPath1736)" fill="#f2f2f2"><g transform="translate(544.77,164.12)"><path d="m0 0-0.843-1.258c-0.464 0.329-0.953 0.464-1.38 0.464-0.513 0-0.745-0.183-0.745-0.44 0-0.269 0.293-0.366 0.72-0.525l0.501-0.196c1.161-0.452 1.833-0.94 1.833-2.003 0-1.258-1.063-2.016-2.456-2.016-1.014 0-1.955 0.33-2.626 0.892l0.867 1.283c0.501-0.379 1.124-0.636 1.735-0.636 0.464 0 0.769 0.147 0.769 0.501 0 0.355-0.464 0.477-1.111 0.733l-0.513 0.196c-1.088 0.427-1.417 1.014-1.417 1.784 0 0.94 0.806 1.929 2.492 1.929 1.026 0 1.771-0.378 2.174-0.708" fill="#f2f2f2"/></g><g transform="translate(550.02,161.48)"><path d="m0 0c0 1.063-0.672 1.674-1.49 1.674-0.831 0-1.515-0.611-1.515-1.674 0-1.05 0.684-1.673 1.515-1.673 0.818 0 1.49 0.622 1.49 1.673m1.759 0c0-1.979-1.283-3.286-2.944-3.286-0.733 0-1.307 0.208-1.722 0.623v-2.529h-1.76v8.356h1.662v-0.586c0.427 0.464 1.051 0.72 1.82 0.72 1.661 0 2.944-1.307 2.944-3.298" fill="#f2f2f2"/></g><g transform="translate(553.69,161.48)"><path d="m0 0c0-1.051 0.721-1.673 1.551-1.673 0.843 0 1.564 0.622 1.564 1.673 0 1.063-0.721 1.674-1.564 1.674-0.83 0-1.551-0.611-1.551-1.674m4.886 0c0-1.979-1.466-3.335-3.322-3.335-1.869 0-3.323 1.356-3.323 3.335 0 1.992 1.453 3.347 3.323 3.347 1.856 0 3.322-1.356 3.322-3.347" fill="#f2f2f2"/></g><g transform="translate(562.8,163.14)"><path d="m0 0c-1.308-0.088-1.93-0.851-1.93-2.272v-2.541h-1.759v6.316h1.661v-1.014c0.306 0.586 0.917 1.002 2.028 1.014z" fill="#f2f2f2"/></g><g transform="translate(565.99,160.65)"><path d="m0 0c0-0.66 0.293-0.879 0.928-0.879 0.098 0 0.233 0.012 0.294 0.024v-1.466c-0.232-0.074-0.55-0.122-0.904-0.122-1.319 0-2.077 0.561-2.077 2.003v2.932h-1.063v1.503h1.063v1.395h1.759v-1.395h1.283v-1.503h-1.283z" fill="#f2f2f2"/></g></g></g><g transform="matrix(.29927 0 0 .29927 -.00022874 .0032836)"><g transform="matrix(19.913 0 0 -19.913 -10496 3325.3)"><g clip-path="url(#clipPath1764)"><path d="m531.08 166.73 1.72-4.901 1.722 4.901c-0.544 0.172-1.121 0.264-1.721 0.264s-1.179-0.092-1.721-0.264" fill="url(#linearGradient1778)"/></g></g><g transform="matrix(19.913 0 0 -19.913 -10496 3325.3)"><g clip-path="url(#clipPath1788)"><path d="m533.71 158.93h-1.808l-2.94 6.571c-1.106-1.006-1.815-2.439-1.867-4.038v-0.38c0.101-3.069 2.619-5.525 5.711-5.525 3.156 0 5.714 2.559 5.714 5.714 0 1.676-0.721 3.184-1.87 4.229z" fill="url(#linearGradient1802)"/></g></g><g transform="matrix(19.913 0 0 -19.913 -10496 3325.3)"><g clip-path="url(#clipPath1812)"><path d="m532.8 161.82-1.72 4.9c-0.796-0.251-1.516-0.671-2.119-1.219l2.935-6.57h1.808l2.938 6.571c-0.603 0.548-1.324 0.969-2.12 1.22z" fill="url(#linearGradient1826)"/></g></g></g><g transform="matrix(.39901 0 0 -.39901 -49.822 -85.566)" fill="#d8d8d8"><path d="m348.96-385.69v-22.104h-24.493v22.104h-10.828v-55.752h10.828v23.806h24.493v-23.806h10.813v55.752z"/><path d="m405.38-432.45c-8.4682 0-17.579 5.9143-17.579 18.893 0 12.979 9.1104 18.878 17.579 18.878 8.4234 0 17.504-5.8993 17.504-18.878 0-12.979-9.0805-18.893-17.504-18.893m-0.0747 47.912c-16.503 0-28.481-12.202-28.481-29.019s11.978-29.034 28.481-29.034c16.548 0 28.571 12.217 28.571 29.034s-12.023 29.019-28.571 29.019"/><path d="m476.33-394.68c5.1078 0 9.4688-1.6578 13.337-5.063l0.49286-0.43311 6.4519 8.0201-0.43311 0.38831c-5.4214 4.8688-11.963 7.2286-19.998 7.2286-16.727 0-28.406-11.933-28.406-29.019 0-17.101 11.679-29.034 28.406-29.034 8.035 0 14.577 2.3597 19.983 7.2286l0.44805 0.38831-6.4519 8.0201-0.49286-0.43311c-3.8682-3.4201-8.2292-5.063-13.337-5.063-8.4682 0-17.579 5.9143-17.579 18.893 0 12.964 9.1104 18.878 17.579 18.878"/><path d="m558.71-385.69h-13.382l-22.223-23.493v23.493h-10.843l0.0149-55.738h10.828v18.49l6.676 7.0195 17.847-25.255 0.17922-0.25389h12.56l-23.269 33.186z"/><path d="m584.6-417.95h22.268v9.8272h-22.268v12.59h25.33v9.8273h-36.158v-55.738h36.785v9.8272h-25.957z"/><path d="m661.33-385.69-14.009-22.791-13.83 22.492-0.17922 0.2987h-12.127l20.685-33.26-0.0747-21.865v-0.61233h10.903v22.686l19.953 32.11 0.58246 0.94091z"/></g></svg>
