<svg width="647.35" height="219" version="1.1" viewBox="0 0 171.28 57.945" xmlns="http://www.w3.org/2000/svg">
 <defs>
  <linearGradient id="SVGID_4_-8" x1="148.99" x2="169.56" y1="94.827" y2="59.204" gradientTransform="matrix(.87028 0 0 .8709 62.208 153.03)" gradientUnits="userSpaceOnUse">
   <stop stop-color="#16217C" offset=".0051"/>
   <stop stop-color="#0009FF" offset=".5468"/>
   <stop stop-color="#00FF5B" offset="1"/>
  </linearGradient>
  <linearGradient id="paint0_linear-2" x1="58.828" x2="192.1" y1="386.87" y2="153.49" gradientUnits="userSpaceOnUse">
   <stop stop-color="#16217C" offset="0"/>
   <stop stop-color="#16217C" offset=".0042341"/>
   <stop stop-color="#0009FF" offset=".5689"/>
   <stop stop-color="#00FF5B" offset="1"/>
  </linearGradient>
  <linearGradient id="paint1_linear-9" x1="91.127" x2="224.4" y1="405.32" y2="171.93" gradientUnits="userSpaceOnUse">
   <stop stop-color="#16217C" offset="0"/>
   <stop stop-color="#16217C" offset=".0042341"/>
   <stop stop-color="#0009FF" offset=".5689"/>
   <stop stop-color="#00FF5B" offset="1"/>
  </linearGradient>
  <linearGradient id="paint2_linear-3" x1="178.09" x2="178.09" y1="162.69" y2="290.89" gradientUnits="userSpaceOnUse">
   <stop stop-color="#EBF5F7" offset="0"/>
   <stop stop-color="#fff" offset=".9973"/>
   <stop stop-color="#fff" offset="1"/>
  </linearGradient>
 </defs>
 <g transform="matrix(.78004 0 0 .78004 -97.624 -117.86)">
  <g transform="matrix(1.0271 0 0 1.0271 51.227 153.2)" fill="#424a4c" stroke-width=".84759">
   <path d="m137.5 61.399h6.2529v6.0598h2.7334v-14.171h-2.7334v5.6301h-6.2529v-5.6301h-2.7334v14.171h2.7334z"/>
   <path d="m155.62 53.289h-4.9125v14.171h4.9125c4.3127 0 7.1001-2.781 7.1001-7.085s-2.7876-7.0858-7.1001-7.0858zm-2.1792 2.4818h2.0234c2.7665 0 4.4839 1.7636 4.4839 4.604s-1.7175 4.604-4.4839 4.604h-2.0234z"/>
  </g>
  <path d="m185.47 205.03v20.352h36.368v-20.352zm34.943 18.927h-33.52v-17.502h33.52z" fill="url(#SVGID_4_-8)" stroke-width=".8706"/>
 </g>
 <g transform="matrix(4.671 0 0 -4.671 171.28 32.044)">
  <path d="m0 0h-4.476v0.964l1.495 1.351c0.801 0.729 1.54 1.287 1.54 1.945 0 0.45-0.297 0.739-0.784 0.739-0.576 0-0.9-0.388-1.134-0.964l-1.198 0.459c0.36 1.144 1.216 1.765 2.332 1.765 1.388 0 2.153-0.864 2.153-1.927 0-1.054-0.757-1.774-1.81-2.666l-0.541-0.459h2.423z" fill="#424a4c"/>
 </g>
 <g transform="matrix(.80916 0 0 .80916 -3.6135 -49.554)">
  <g transform="matrix(5.7726 0 0 -5.7726 85.276 74.462)">
   <path d="m0 0-0.665-0.993c-0.366 0.26-0.752 0.366-1.089 0.366-0.405 0-0.588-0.144-0.588-0.346 0-0.212 0.231-0.29 0.569-0.415l0.395-0.154c0.916-0.357 1.446-0.742 1.446-1.581 0-0.993-0.839-1.59-1.938-1.59-0.799 0-1.542 0.26-2.072 0.703l0.685 1.012c0.395-0.298 0.886-0.501 1.368-0.501 0.366 0 0.607 0.116 0.607 0.395 0 0.28-0.366 0.376-0.877 0.579l-0.404 0.154c-0.858 0.337-1.119 0.8-1.119 1.407 0 0.742 0.637 1.523 1.966 1.523 0.81 0 1.398-0.299 1.716-0.559" fill="#212a2f"/>
  </g>
  <g transform="matrix(5.7726 0 0 -5.7726 109.17 86.468)">
   <path d="m0 0c0 0.839-0.53 1.32-1.176 1.32-0.655 0-1.195-0.481-1.195-1.32 0-0.829 0.54-1.32 1.195-1.32 0.646 0 1.176 0.491 1.176 1.32m1.388 0c0-1.561-1.012-2.592-2.323-2.592-0.578 0-1.031 0.163-1.359 0.491v-1.995h-1.388v6.592h1.311v-0.462c0.337 0.366 0.829 0.568 1.436 0.568 1.311 0 2.323-1.031 2.323-2.602" fill="#212a2f"/>
  </g>
  <g transform="matrix(5.7726 0 0 -5.7726 125.91 86.468)">
   <path d="m0 0c0-0.829 0.569-1.32 1.224-1.32 0.665 0 1.234 0.491 1.234 1.32 0 0.838-0.569 1.32-1.234 1.32-0.655 0-1.224-0.481-1.224-1.32m3.855 0c0-1.561-1.157-2.631-2.621-2.631-1.475 0-2.622 1.07-2.622 2.631 0 1.571 1.147 2.641 2.622 2.641 1.464 0 2.621-1.07 2.621-2.641" fill="#212a2f"/>
  </g>
  <g transform="matrix(5.7726 0 0 -5.7726 167.36 78.907)">
   <path d="m0 0c-1.032-0.07-1.523-0.671-1.523-1.793v-2.004h-1.388v4.982h1.311v-0.799c0.241 0.462 0.723 0.79 1.6 0.799z" fill="#212a2f"/>
  </g>
  <g transform="matrix(5.7726 0 0 -5.7726 181.91 90.278)">
   <path d="m0 0c0-0.521 0.232-0.694 0.733-0.694 0.077 0 0.183 0.01 0.231 0.019v-1.156c-0.183-0.058-0.433-0.097-0.713-0.097-1.041 0-1.639 0.444-1.639 1.581v2.313h-0.838v1.185h0.838v1.102h1.388v-1.102h1.012v-1.185h-1.012z" fill="#212a2f"/>
  </g>
 </g>
 <g transform="matrix(.22281 0 0 .22281 -18.493 -35.203)">
  <path d="m178 243.92-28.44-81.386c9.077-2.723 18.758-4.538 28.743-4.538 9.984 0 19.665 1.513 28.742 4.538z" fill="url(#paint0_linear-2)"/>
  <path d="m273 253c0 52.643-42.659 95-95 95s-95-42.357-95-95c0-27.835 11.799-52.644 30.86-70.191l49.013 109.52h30.254l49.013-109.52c19.061 17.547 30.86 42.356 30.86 70.191z" fill="url(#paint1_linear-9)"/>
  <path d="m242.14 182.81-49.013 109.52h-30.255l-49.013-109.52c9.984-9.076 22.086-16.337 35.398-20.573l28.743 81.386 28.742-81.688c13.312 4.538 25.414 11.799 35.398 20.875z" fill="url(#paint2_linear-3)"/>
 </g>
</svg>
