<svg width="617.12" height="219" version="1.1" viewBox="0 0 163.28 57.945" xmlns="http://www.w3.org/2000/svg">
 <defs>
  <linearGradient id="paint0_linear" x1="58.828" x2="192.1" y1="386.87" y2="153.49" gradientUnits="userSpaceOnUse">
   <stop stop-color="#16217C" offset="0"/>
   <stop stop-color="#16217C" offset=".0042341"/>
   <stop stop-color="#0009FF" offset=".5689"/>
   <stop stop-color="#00FF5B" offset="1"/>
  </linearGradient>
  <linearGradient id="paint1_linear" x1="91.127" x2="224.4" y1="405.32" y2="171.93" gradientUnits="userSpaceOnUse">
   <stop stop-color="#16217C" offset="0"/>
   <stop stop-color="#16217C" offset=".0042341"/>
   <stop stop-color="#0009FF" offset=".5689"/>
   <stop stop-color="#00FF5B" offset="1"/>
  </linearGradient>
  <linearGradient id="paint2_linear" x1="178.09" x2="178.09" y1="162.69" y2="290.89" gradientUnits="userSpaceOnUse">
   <stop stop-color="#EBF5F7" offset="0"/>
   <stop stop-color="#fff" offset=".9973"/>
   <stop stop-color="#fff" offset="1"/>
  </linearGradient>
  <linearGradient id="linearGradient993" x1="148.99" x2="169.56" y1="94.827" y2="59.204" gradientTransform="matrix(.87028 0 0 .8709 62.208 153.03)" gradientUnits="userSpaceOnUse">
   <stop stop-color="#16217C" offset=".0051"/>
   <stop stop-color="#0009FF" offset=".5468"/>
   <stop stop-color="#00FF5B" offset="1"/>
  </linearGradient>
 </defs>
 <g transform="matrix(.22281 0 0 .22281 -18.493 -35.203)">
  <path d="m178 243.92-28.44-81.386c9.077-2.723 18.758-4.538 28.743-4.538 9.984 0 19.665 1.513 28.742 4.538z" fill="url(#paint0_linear)"/>
  <path d="m273 253c0 52.643-42.659 95-95 95s-95-42.357-95-95c0-27.835 11.799-52.644 30.86-70.191l49.013 109.52h30.254l49.013-109.52c19.061 17.547 30.86 42.356 30.86 70.191z" fill="url(#paint1_linear)"/>
  <path d="m242.14 182.81-49.013 109.52h-30.255l-49.013-109.52c9.984-9.076 22.086-16.337 35.398-20.573l28.743 81.386 28.742-81.688c13.312 4.538 25.414 11.799 35.398 20.875z" fill="url(#paint2_linear)"/>
 </g>
 <g transform="matrix(.77109 0 0 .77109 .064625 .039367)">
  <g transform="matrix(5.9929,0,0,-5.9929,84.805,13.8)">
   <path d="m0 0-0.672-1.003c-0.37 0.263-0.76 0.37-1.101 0.37-0.409 0-0.594-0.146-0.594-0.351 0-0.214 0.234-0.292 0.575-0.419l0.399-0.156c0.926-0.36 1.461-0.749 1.461-1.597 0-1.003-0.847-1.607-1.957-1.607-0.809 0-1.559 0.263-2.095 0.711l0.692 1.023c0.399-0.302 0.896-0.507 1.383-0.507 0.37 0 0.614 0.117 0.614 0.399 0 0.283-0.37 0.38-0.887 0.585l-0.409 0.156c-0.867 0.341-1.13 0.808-1.13 1.422 0 0.75 0.643 1.539 1.987 1.539 0.818 0 1.413-0.302 1.734-0.565" fill="#212a2f"/>
  </g>
  <g transform="matrix(5.9929,0,0,-5.9929,109.86,26.385)">
   <path d="m0 0c0 0.848-0.536 1.334-1.188 1.334-0.663 0-1.208-0.486-1.208-1.334 0-0.838 0.545-1.334 1.208-1.334 0.652 0 1.188 0.496 1.188 1.334m1.403 0c0-1.578-1.023-2.62-2.348-2.62-0.584 0-1.042 0.166-1.373 0.497v-2.017h-1.403v6.663h1.325v-0.468c0.341 0.37 0.838 0.575 1.451 0.575 1.325 0 2.348-1.042 2.348-2.63" fill="#212a2f"/>
  </g>
  <g transform="matrix(5.9929,0,0,-5.9929,127.41,26.385)">
   <path d="m0 0c0-0.838 0.575-1.334 1.237-1.334 0.672 0 1.247 0.496 1.247 1.334 0 0.847-0.575 1.334-1.247 1.334-0.662 0-1.237-0.487-1.237-1.334m3.896 0c0-1.578-1.169-2.659-2.649-2.659-1.491 0-2.65 1.081-2.65 2.659 0 1.588 1.159 2.669 2.65 2.669 1.48 0 2.649-1.081 2.649-2.669" fill="#212a2f"/>
  </g>
  <g transform="matrix(5.9929,0,0,-5.9929,170.92,18.474)">
   <path d="m0 0c-1.043-0.07-1.539-0.678-1.539-1.812v-2.026h-1.402v5.036h1.324v-0.808c0.244 0.467 0.731 0.799 1.617 0.808z" fill="#212a2f"/>
  </g>
  <g transform="matrix(5.9929,0,0,-5.9929,186.14,30.4)">
   <path d="m0 0c0-0.526 0.234-0.701 0.74-0.701 0.078 0 0.185 9e-3 0.234 0.019v-1.169c-0.185-0.058-0.438-0.097-0.721-0.097-1.051 0-1.656 0.448-1.656 1.597v2.338h-0.847v1.198h0.847v1.113h1.403v-1.113h1.023v-1.198h-1.023z" fill="#212a2f"/>
  </g>
 </g>
 <g transform="matrix(4.6211 0 0 -4.6211 163.28 32.03)">
  <path d="m0 0h-1.501v4.771l-1.289-0.923v1.188l1.477 1.112h1.313z" fill="#424a4c"/>
 </g>
 <g transform="matrix(.21021 0 0 .21021 7.1544 8.6076)" fill="#424a4c">
  <path d="m349.87 196.92c0 12.595-8.82 18.333-16.985 18.333-8.223 0-17.062-5.7388-17.062-18.333s8.8393-18.314 17.062-18.314c8.1653 0 16.985 5.7195 16.985 18.314m-17.062-28.136c-15.984 0-27.596 11.844-27.596 28.136s11.612 28.136 27.596 28.136c16.042 0 27.673-11.844 27.673-28.136s-11.632-28.136-27.673-28.136" stroke-width="19.258"/>
  <path d="m406.67 209.86-15.101-39.537-0.13148-0.35687h-14.312v54.018h10.086v-38.598l14.65 38.241 0.16903 0.35687h9.2222l14.782-38.692v38.692h10.105v-54.018h-14.312z" stroke-width="18.782"/>
  <path d="m455.64 223.89h10.481v-54.018h-10.481z" stroke-width="18.782"/>
  <path d="m215.56 192.63-5.1949-2.3068c-4.4447-1.9317-7.0141-3.6008-7.0141-6.4327 0-3.3007 3.1694-5.5137 7.8955-5.5137 4.2009 0 7.4642 1.2378 10.99 4.1072l0.4501 0.37508 5.8888-7.6704-0.41259-0.35633c-4.5198-3.9009-10.09-5.8701-16.635-5.8701-12.678 0-18.454 7.858-18.454 15.135 0 6.7515 3.3195 10.84 11.853 14.628l5.1199 2.3068c5.6825 2.4568 9.152 4.1447 9.152 8.0643 0 4.0697-3.2257 6.489-8.6269 6.489-5.1199 0-9.9585-1.988-14.76-6.0388l-0.48761-0.39383-5.5512 7.7455 0.35633 0.35633c3.132 2.9069 9.9585 7.783 20.517 7.783 11.252 0 18.848-6.5452 18.848-16.297 0-8.4581-4.9136-12.171-13.934-16.11" stroke-width="18.754"/>
  <path d="m278.39 170.34v32.665c0 8.1664-4.0832 12.25-11.229 12.25-7.1456 0-11.229-4.4235-11.229-12.59v-32.665h-10.548v33.006c0 13.611 8.1664 22.117 21.777 22.117 13.611 0 21.777-8.5066 21.777-22.117v-33.006h-10.548z" stroke-width="3.4026"/>
 </g>
 <g transform="matrix(.78004 0 0 .78004 -37.624 -117.86)">
  <g transform="matrix(1.0271,0,0,1.0271,51.227,153.2)" fill="#424a4c" stroke-width=".84759">
   <path d="m137.5 61.399h6.2529v6.0598h2.7334v-14.171h-2.7334v5.6301h-6.2529v-5.6301h-2.7334v14.171h2.7334z"/>
   <path d="m155.62 53.289h-4.9125v14.171h4.9125c4.3127 0 7.1001-2.781 7.1001-7.085s-2.7876-7.0858-7.1001-7.0858zm-2.1792 2.4818h2.0234c2.7665 0 4.4839 1.7636 4.4839 4.604s-1.7175 4.604-4.4839 4.604h-2.0234z"/>
  </g>
  <path d="m185.47 205.03v20.352h36.368v-20.352zm34.943 18.927h-33.52v-17.502h33.52z" fill="url(#linearGradient993)" stroke-width=".8706"/>
 </g>
</svg>
