<svg width="631.69" height="230.8" version="1.1" viewBox="0 0 631.69 230.8" xml:space="preserve" xmlns="http://www.w3.org/2000/svg"><defs><clipPath id="clipPath1736"><path d="m527.1 151.72h40.174v15.276h-40.174z"/></clipPath><clipPath id="clipPath1764"><path d="m531.08 166.73 1.72-4.901 1.722 4.901c-0.544 0.172-1.121 0.264-1.721 0.264s-1.179-0.092-1.721-0.264"/></clipPath><linearGradient id="linearGradient1778" x2="1" gradientTransform="matrix(10.294,13.578,13.578,-10.294,524.01,153.81)" gradientUnits="userSpaceOnUse"><stop stop-color="#16217c" offset="0"/><stop stop-color="#16217c" offset=".0050608"/><stop stop-color="#0009ff" offset=".54679"/><stop stop-color="#01ff5b" offset="1"/></linearGradient><clipPath id="clipPath1788"><path d="m533.71 158.93h-1.808l-2.94 6.571c-1.106-1.006-1.815-2.439-1.867-4.038v-0.38c0.101-3.069 2.619-5.525 5.711-5.525 3.156 0 5.714 2.559 5.714 5.714 0 1.676-0.721 3.184-1.87 4.229z"/></clipPath><linearGradient id="linearGradient1802" x2="1" gradientTransform="matrix(8.0838,14.002,14.002,-8.0839,527.44,151.99)" gradientUnits="userSpaceOnUse"><stop stop-color="#16217c" offset="0"/><stop stop-color="#16217c" offset=".0050608"/><stop stop-color="#0009ff" offset=".54679"/><stop stop-color="#01ff5b" offset="1"/></linearGradient><clipPath id="clipPath1812"><path d="m532.8 161.82-1.72 4.9c-0.796-0.251-1.516-0.671-2.119-1.219l2.935-6.57h1.808l2.938 6.571c-0.603 0.548-1.324 0.969-2.12 1.22z"/></clipPath><linearGradient id="linearGradient1826" x2="1" gradientTransform="matrix(0,-7.7911,-7.7911,0,532.81,166.73)" gradientUnits="userSpaceOnUse"><stop stop-color="#ebf5f7" offset="0"/><stop stop-color="#fff" offset=".42849"/><stop stop-color="#fff" offset=".99726"/><stop stop-color="#fff" offset="1"/></linearGradient><linearGradient id="linearGradient3122" x1="148.99" x2="169.56" y1="94.827" y2="59.204" gradientTransform="matrix(.87028 0 0 .8709 62.208 153.03)" gradientUnits="userSpaceOnUse"><stop stop-color="#16217C" offset=".0051"/><stop stop-color="#0009FF" offset=".5468"/><stop stop-color="#00FF5B" offset="1"/></linearGradient></defs><g transform="matrix(14.476 0 0 -14.476 -7630.4 2417.5)"><g clip-path="url(#clipPath1736)"><g transform="translate(544.77,164.12)"><path d="m0 0-0.843-1.258c-0.464 0.329-0.953 0.464-1.38 0.464-0.513 0-0.745-0.183-0.745-0.44 0-0.269 0.293-0.366 0.72-0.525l0.501-0.196c1.161-0.452 1.833-0.94 1.833-2.003 0-1.258-1.063-2.016-2.456-2.016-1.014 0-1.955 0.33-2.626 0.892l0.867 1.283c0.501-0.379 1.124-0.636 1.735-0.636 0.464 0 0.769 0.147 0.769 0.501 0 0.355-0.464 0.477-1.111 0.733l-0.513 0.196c-1.088 0.427-1.417 1.014-1.417 1.784 0 0.94 0.806 1.929 2.492 1.929 1.026 0 1.771-0.378 2.174-0.708" fill="#202e34"/></g><g transform="translate(550.02,161.48)"><path d="m0 0c0 1.063-0.672 1.674-1.49 1.674-0.831 0-1.515-0.611-1.515-1.674 0-1.05 0.684-1.673 1.515-1.673 0.818 0 1.49 0.622 1.49 1.673m1.759 0c0-1.979-1.283-3.286-2.944-3.286-0.733 0-1.307 0.208-1.722 0.623v-2.529h-1.76v8.356h1.662v-0.586c0.427 0.464 1.051 0.72 1.82 0.72 1.661 0 2.944-1.307 2.944-3.298" fill="#202e34"/></g><g transform="translate(553.69,161.48)"><path d="m0 0c0-1.051 0.721-1.673 1.551-1.673 0.843 0 1.564 0.622 1.564 1.673 0 1.063-0.721 1.674-1.564 1.674-0.83 0-1.551-0.611-1.551-1.674m4.886 0c0-1.979-1.466-3.335-3.322-3.335-1.869 0-3.323 1.356-3.323 3.335 0 1.992 1.453 3.347 3.323 3.347 1.856 0 3.322-1.356 3.322-3.347" fill="#202e34"/></g><g transform="translate(562.8,163.14)"><path d="m0 0c-1.308-0.088-1.93-0.851-1.93-2.272v-2.541h-1.759v6.316h1.661v-1.014c0.306 0.586 0.917 1.002 2.028 1.014z" fill="#202e34"/></g><g transform="translate(565.99,160.65)"><path d="m0 0c0-0.66 0.293-0.879 0.928-0.879 0.098 0 0.233 0.012 0.294 0.024v-1.466c-0.232-0.074-0.55-0.122-0.904-0.122-1.319 0-2.077 0.561-2.077 2.003v2.932h-1.063v1.503h1.063v1.395h1.759v-1.395h1.283v-1.503h-1.283z" fill="#202e34"/></g></g></g><g transform="matrix(.72699 0 0 .72699 -.031068 .037452)"><g transform="matrix(19.913,0,0,-19.913,-10496,3325.3)"><g clip-path="url(#clipPath1764)"><path d="m531.08 166.73 1.72-4.901 1.722 4.901c-0.544 0.172-1.121 0.264-1.721 0.264s-1.179-0.092-1.721-0.264" fill="url(#linearGradient1778)"/></g><g clip-path="url(#clipPath1788)"><path d="m533.71 158.93h-1.808l-2.94 6.571c-1.106-1.006-1.815-2.439-1.867-4.038v-0.38c0.101-3.069 2.619-5.525 5.711-5.525 3.156 0 5.714 2.559 5.714 5.714 0 1.676-0.721 3.184-1.87 4.229z" fill="url(#linearGradient1802)"/></g><g clip-path="url(#clipPath1812)"><path d="m532.8 161.82-1.72 4.9c-0.796-0.251-1.516-0.671-2.119-1.219l2.935-6.57h1.808l2.938 6.571c-0.603 0.548-1.324 0.969-2.12 1.22z" fill="url(#linearGradient1826)"/></g></g></g><g transform="matrix(3.7126 0 0 3.7126 -191.9 -605.94)"><g transform="matrix(1.0271,0,0,1.0271,51.227,153.2)" fill="#424a4c" stroke-width=".84759"><path d="m137.5 61.399h6.2529v6.0598h2.7334v-14.171h-2.7334v5.6301h-6.2529v-5.6301h-2.7334v14.171h2.7334z"/><path d="m155.62 53.289h-4.9125v14.171h4.9125c4.3127 0 7.1001-2.781 7.1001-7.085s-2.7876-7.0858-7.1001-7.0858zm-2.1792 2.4818h2.0234c2.7665 0 4.4839 1.7636 4.4839 4.604s-1.7175 4.604-4.4839 4.604h-2.0234z"/></g><path d="m185.47 205.03v20.352h36.368v-20.352zm34.943 18.927h-33.52v-17.502h33.52z" fill="url(#linearGradient3122)" stroke-width=".8706"/></g><g transform="matrix(2.4292 0 0 2.4292 -545.33 .029472)" fill="#424a4c"><path d="m321.87 68.312-8.473 22.24h-4.9209l-8.473-22.24h4.5694l6.4599 16.805 6.4278-16.805z" stroke-width=".45737"/><path d="m390.41 72.019v5.5599h9.6824v3.483h-9.6824v5.7838h10.392v3.7069h-14.172v-22.24h14.172v3.7069z" stroke-width=".45965"/><path d="m424.94 90.552-5.0903-9.341c2.1263-1.3026 3.8337-3.0501 3.8337-6.4814 0-4.8293-3.415-6.4178-7.7641-6.4178h-8.2476v22.24h4.1238v-8.2608h4.1883l4.6714 8.2608zm-9.955-18.841c3.5439 0 4.3816 1.2391 4.3816 3.3043 0 2.0016-0.80542 3.463-4.5426 3.463h-3.0284v-6.7676z" stroke-width=".45795"/><path d="m363.12 72.236h6.7068v18.321h4.3443v-18.321h6.6513v-3.9083h-17.702z" stroke-width="7.9276"/><path d="m353.44 68.352v15.277l-10.409-15.166-0.0634-0.11098h-4.598v22.237h4.1541v-15.863l10.837 15.76 0.0713 0.10306h4.162v-22.237z" stroke-width="7.9276"/><path d="m325.99 90.549h4.3126v-22.237h-4.3126z" stroke-width="7.9276"/></g></svg>
