<svg width="800" height="302.94" version="1.1" viewBox="0 0 800 302.94" xml:space="preserve" xmlns="http://www.w3.org/2000/svg">
<g transform="matrix(3.6263 0 0 3.6263 .065273 -3.9639e-6)" fill="#202e34">
	<path d="m97.216 15.765-4.622 6.901c-2.545-1.808-5.226-2.545-7.57-2.545-2.814 0-4.087 1.006-4.087 2.412 0 1.474 1.607 2.009 3.951 2.882l2.748 1.071c6.365 2.48 10.049 5.158 10.049 10.987 0 6.901-5.829 11.055-13.467 11.055-5.56 0-10.72-1.81-14.405-4.891l4.758-7.034c2.746 2.075 6.164 3.483 9.514 3.483 2.545 0 4.22-0.805 4.22-2.746 0-1.944-2.545-2.613-6.096-4.021l-2.814-1.071c-5.963-2.344-7.771-5.56-7.771-9.783 0-5.158 4.421-10.585 13.666-10.585 5.629-1e-3 9.716 2.077 11.926 3.885z"/>
	<path d="m135.61 30.238c0 10.854-7.034 18.021-16.145 18.021-4.021 0-7.17-1.139-9.446-3.418v13.869h-9.649l-1e-3 -45.825h9.111v3.216c2.346-2.547 5.763-3.953 9.983-3.953 9.113 1e-3 16.147 7.168 16.147 18.09zm-9.647 0c0-5.829-3.684-9.179-8.173-9.179-4.557 0-8.309 3.35-8.309 9.179 0 5.761 3.752 9.177 8.309 9.177 4.489 0 8.173-3.416 8.173-9.177z"/>
	<path d="m172.93 30.239c0 10.854-8.04 18.29-18.222 18.29-10.25 0-18.223-7.437-18.223-18.29 0-10.922 7.972-18.358 18.222-18.358 10.183 0 18.223 7.436 18.223 18.358zm-26.798-1e-3c0 5.761 3.953 9.177 8.508 9.177 4.624 0 8.575-3.415 8.575-9.177 0-5.829-3.951-9.179-8.576-9.179-4.553 0-8.507 3.35-8.507 9.179z"/>
	<path d="m196.06 21.128c-7.172 0.485-10.585 4.666-10.585 12.461v13.935h-9.647v-34.637h9.111v5.56c1.675-3.216 5.025-5.494 11.121-5.56z"/>
	<path d="m213.56 34.794c0 3.619 1.609 4.824 5.092 4.824 0.536 0 1.273-0.066 1.607-0.133v8.04c-1.273 0.402-3.013 0.669-4.957 0.669-7.235 0-11.39-3.081-11.39-10.987v-16.078h-5.829v-8.241h5.829v-7.654h9.647v7.654h7.036v8.241h-7.036z"/>
</g>
<g fill="#424a4c"><polygon transform="matrix(3.6263 0 0 3.6263 .065273 -3.9639e-6)" points="76.138 79.904 76.138 62.861 72.13 62.861 72.13 83.542 85.03 83.542 85.03 79.904"/><rect x="329.71" y="227.95" width="14.534" height="74.995" stroke-width="3.6263"/><polygon transform="matrix(3.6263 0 0 3.6263 .065273 -3.9639e-6)" points="107.99 83.542 112.08 83.542 119.89 63.163 120.01 62.861 115.88 62.861 110.08 78.242 104.33 63.005 104.28 62.861 100.06 62.861 107.93 83.399"/><polygon transform="matrix(3.6263 0 0 3.6263 .065273 -3.9639e-6)" points="138.6 66.497 138.6 62.861 125.18 62.861 125.18 83.542 138.82 83.542 138.82 79.904 129.19 79.904 129.19 74.819 137.45 74.819 137.45 71.183 129.19 71.183 129.19 66.497"/><polygon transform="matrix(3.6263 0 0 3.6263 .065273 -3.9639e-6)" points="165.05 64.104 161.67 62.314 153.25 76.056 154.04 78.752 163.75 78.752 163.75 83.5 167.65 83.5 167.65 78.752 170.02 78.752 170.02 75.294 167.65 75.294 167.65 70.28 163.75 70.28 163.75 75.294 158.19 75.294"/></g>
<g transform="matrix(3.6263 0 0 3.6263 .065273 -3.9639e-6)">
		<linearGradient id="SVGID_1_" x1="-293.12" x2="-279.21" y1="46.099" y2="27.759" gradientTransform="matrix(4.0718 8.5939e-6 -5.6405e-6 4.0718 1176.5 -115.2)" gradientUnits="userSpaceOnUse">
		<stop stop-color="#16217C" offset=".0051"/>
		<stop stop-color="#0009FF" offset=".5468"/>
		<stop stop-color="#00FF5B" offset="1"/>
	</linearGradient>
	<path d="m40.871 1.453c-2.988-0.943-6.168-1.453-9.467-1.453s-6.479 0.51-9.467 1.453l9.467 26.952z" fill="url(#SVGID_1_)"/>
		<linearGradient id="SVGID_2_" x1="-288.48" x2="-277.56" y1="48.562" y2="29.65" gradientTransform="matrix(4.0718 8.5939e-6 -5.6405e-6 4.0718 1176.5 -115.2)" gradientUnits="userSpaceOnUse">
		<stop stop-color="#16217C" offset=".0051"/>
		<stop stop-color="#0009FF" offset=".5468"/>
		<stop stop-color="#00FF5B" offset="1"/>
	</linearGradient>
	<path d="m52.552 8.181-16.17 36.137h-9.944l-16.17-36.137c-6.319 5.748-10.285 14.037-10.286 23.252 0 17.357 14.07 31.427 31.427 31.427s31.427-14.07 31.428-31.427c0-9.215-3.966-17.503-10.285-23.252z" fill="url(#SVGID_2_)"/>
	<linearGradient id="SVGID_3_" x1="31.409" x2="31.409" y1="1.4658" y2="44.315" gradientUnits="userSpaceOnUse">
		<stop stop-color="#EBF5F7" offset="0"/>
		<stop stop-color="#F1F8FA" offset=".1519"/>
		<stop stop-color="#FCFDFE" offset=".5366"/>
		<stop stop-color="#fff" offset=".9973"/>
	</linearGradient>
	<path d="m26.428 44.315h9.944l16.161-36.141c-3.318-3.014-7.285-5.328-11.665-6.708l-9.468 26.954-9.465-26.947c-4.374 1.383-8.335 3.695-11.649 6.708z" fill="url(#SVGID_3_)"/>
</g>
</svg>
