<svg width="185.64mm" height="66.888mm" version="1.1" viewBox="0 0 185.64 66.888" xmlns="http://www.w3.org/2000/svg">
 <defs>
  <linearGradient id="Vector_7_1_" x1="-15.58" x2="70.403" y1="21.087" y2="-129.49" gradientTransform="matrix(.43161 0 0 .43161 0 54.633)" gradientUnits="userSpaceOnUse">
   <stop stop-color="#16217C" offset="0"/>
   <stop stop-color="#16217C" offset=".0042341"/>
   <stop stop-color="#0009FF" offset=".5689"/>
   <stop stop-color="#00FF5B" offset="1"/>
  </linearGradient>
  <linearGradient id="Vector_8_1_" x1="5.1894" x2="91.173" y1="32.948" y2="-117.63" gradientTransform="matrix(.43161 0 0 .43161 0 54.633)" gradientUnits="userSpaceOnUse">
   <stop stop-color="#16217C" offset="0"/>
   <stop stop-color="#16217C" offset=".0042341"/>
   <stop stop-color="#0009FF" offset=".5689"/>
   <stop stop-color="#00FF5B" offset="1"/>
  </linearGradient>
  <linearGradient id="Vector_9_1_" x1="61.3" x2="61.3" y1="-123.56" y2="-40.845" gradientTransform="matrix(.43161 0 0 .43161 0 54.633)" gradientUnits="userSpaceOnUse">
   <stop stop-color="#EBF5F7" offset="0"/>
   <stop stop-color="#fff" offset=".9973"/>
   <stop stop-color="#fff" offset="1"/>
  </linearGradient>
 </defs>
 <g transform="matrix(.43161 0 0 .43161 0 -1.098e-6)" fill="#f2f2f2">
  <path class="st0" d="m189.7 30.8-9 13.5c-4.9-3.5-10.1-4.9-14.8-4.9-5.5 0-8 2-8 4.7 0 2.9 3.1 3.9 7.8 5.7l5.3 2.1c12.5 4.9 19.5 10.1 19.5 21.5 0 13.5-11.3 21.7-26.4 21.7-10.9 0-20.9-3.5-28.1-9.6l9.4-13.7c5.3 4.1 12.1 6.8 18.5 6.8 4.9 0 8.2-1.6 8.2-5.3s-4.9-5.1-11.9-7.8l-5.5-2.1c-11.7-4.5-15.2-10.9-15.2-19.1 0-10.1 8.6-20.7 26.7-20.7 11.2-0.4 19.2 3.7 23.5 7.2z"/>
  <path class="st0" d="m264.7 59.1c0 21.3-13.7 35.1-31.4 35.1-7.8 0-14.1-2.1-18.3-6.6v27.1h-18.7v-89.3h17.8v6.2c4.5-4.9 11.3-7.8 19.5-7.8 17.4 0 31.1 13.9 31.1 35.3zm-18.8 0c0-11.3-7.2-18-16-18-9 0-16.2 6.4-16.2 18 0 11.3 7.4 18 16.2 18 8.8-0.2 16-6.8 16-18z" Googl="true"/>
  <path class="st0" d="m337.5 59.1c0 21.3-15.6 35.7-35.5 35.7s-35.5-14.4-35.5-35.7 15.6-35.9 35.5-35.9 35.5 14.5 35.5 35.9zm-52.3 0c0 11.3 7.8 18 16.6 18 9 0 16.8-6.6 16.8-18 0-11.3-7.8-18-16.8-18-8.8 0.1-16.6 6.5-16.6 18z" stroke-width=".9998"/>
  <path class="st0" d="m382.6 41.4c-14.1 1-20.7 9.2-20.7 24.4v27.1h-18.7v-67.5h17.8v10.9c3.3-6.2 9.8-10.7 21.7-10.9z"/>
  <path class="st0" d="m416.7 67.9c0 7 3.1 9.4 10 9.4 1 0 2.5-0.2 3.1-0.2v15.6c-2.5 0.8-5.9 1.4-9.8 1.4-14.1 0-22.3-6.1-22.3-21.5v-31.4h-11.3v-16h11.3v-15h18.7v15h13.7v16h-13.7z"/>
 </g>
 <g stroke-width=".43161">
  <path class="st2" d="m26.458 23.911-7.9416-22.66c2.5465-0.73374 5.2225-1.2517 8.0279-1.2517 2.7623 0 5.4814 0.43161 7.9848 1.2517z" fill="url(#Vector_7_1_)"/>
  <path class="st3" d="m52.915 26.458c0 14.675-11.869 26.458-26.458 26.458s-26.458-11.783-26.458-26.458c0-7.769 3.2802-14.675 8.589-19.552l13.639 30.515h8.4164l13.682-30.515c5.3088 4.8772 8.589 11.783 8.589 19.552z" fill="url(#Vector_8_1_)"/>
  <path class="st4" d="m44.326 6.9058-13.682 30.515h-8.4164l-13.639-30.515c2.7623-2.5465 6.1289-4.5319 9.8407-5.7404l7.9848 22.66 8.0279-22.746c3.7118 1.2948 7.0784 3.2802 9.8839 5.8267z" fill="url(#Vector_9_1_)"/>
 </g>
 <g transform="translate(-166.67 -30.694)" fill="#d8d8d8">
  <path d="m237.23 83.718 4.9501 6.9314-4.9501 6.9319h2.9404l3.4799-4.8731 3.4799 4.8731h2.9399l-4.9501-6.9319 4.9501-6.9314h-2.9399l-3.4799 4.8731-3.4799-4.8731z" fill-rule="evenodd" opacity=".998" stroke-width="2.3265"/>
  <g transform="matrix(.25467 0 0 .25467 169.89 32.296)">
   <path d="m474.48 244h-24.067l-4.7002 12.357h-10.697l21.393-54.436h12.479l21.393 54.436h-11.102zm-3.3224-8.7598-8.6708-23.151-8.7518 23.151z" stroke-width="1.1395"/>
   <path d="m351.53 211.48h14.734v-9.376l-39.799-0.179v9.555h14.734l5e-4 44.003h10.331z" stroke-width="3.2035"/>
  </g>
  <path d="m276.48 97.581-3.6843-5.2638h-2.4672v5.2638h-2.4645v-13.863h5.8816c1.4035 0 2.4868 0.35747 3.2499 1.0724 0.76304 0.70839 1.1445 1.7283 1.1445 3.0599 0 0.97076-0.23392 1.8103-0.70176 2.5187-0.46785 0.70184-1.2057 1.2702-2.0022 1.4932l3.8178 5.7188zm-0.82146-9.6125c0-1.3315-0.72405-1.9973-2.1722-1.9973h-3.1578v4.0929h3.2248c0.69064 0 1.2142-0.18365 1.5706-0.55096 0.35646-0.36731 0.53467-0.88221 0.53467-1.5447z" stroke-width=".26577"/>
  <path d="m225.03 97.582v-13.863h9.0978l1.1e-4 2.2101h-6.411v3.4156h5.5395v2.2101h-5.5395v3.6165h6.411v2.4106z" stroke-width=".2641"/>
 </g>
</svg>
