<svg width="800" height="303.56" version="1.1" viewBox="0 0 800 303.56" xml:space="preserve" xmlns="http://www.w3.org/2000/svg"><defs><clipPath id="clipPath1664"><path d="m482.34 166.7 1.725-4.917 1.723 4.917c-0.543 0.173-1.123 0.266-1.723 0.266-0.601 0-1.18-0.093-1.725-0.266"/></clipPath><linearGradient id="linearGradient1678" x2="1" gradientTransform="matrix(10.311,13.626,13.6,-10.331,475.25,153.73)" gradientUnits="userSpaceOnUse"><stop stop-color="#16217c" offset="0"/><stop stop-color="#16217c" offset=".0050608"/><stop stop-color="#0009ff" offset=".54679"/><stop stop-color="#01ff5b" offset="1"/></linearGradient><clipPath id="clipPath1688"><path d="m484.97 158.87h-1.811l-2.944 6.595c-1.107-1.009-1.818-2.447-1.871-4.052v-0.382c0.101-3.079 2.623-5.544 5.721-5.544 3.161 0 5.723 2.568 5.723 5.735 0 1.681-0.722 3.194-1.873 4.243z"/></clipPath><linearGradient id="linearGradient1702" x2="1" gradientTransform="matrix(8.0969,14.052,14.024,-8.1128,478.69,151.9)" gradientUnits="userSpaceOnUse"><stop stop-color="#16217c" offset="0"/><stop stop-color="#16217c" offset=".0050608"/><stop stop-color="#0009ff" offset=".54679"/><stop stop-color="#01ff5b" offset="1"/></linearGradient><clipPath id="clipPath1712"><path d="m484.06 161.78-1.724 4.917c-0.796-0.252-1.518-0.674-2.122-1.224l2.941-6.594h1.81l2.943 6.595c-0.603 0.55-1.326 0.972-2.124 1.224z"/></clipPath><linearGradient id="linearGradient1726" x2="1" gradientTransform="matrix(0,-7.819,-7.8037,0,484.07,166.69)" gradientUnits="userSpaceOnUse"><stop stop-color="#ebf5f7" offset="0"/><stop stop-color="#fff" offset=".42849"/><stop stop-color="#fff" offset=".99726"/><stop stop-color="#fff" offset="1"/></linearGradient></defs><g transform="matrix(1.3333,0,0,-1.3333,6.1093e-6,303.56)" fill="#f2f2f2"><g transform="matrix(2.7199,0,0,-2.7253,1647.3,-378.01)"><g transform="translate(-508.42,-206.48)" fill="#f2f2f2"><path d="m0 0-4.623 6.901c-2.544-1.809-5.225-2.546-7.569-2.546-2.814 0-4.087 1.006-4.087 2.412 0 1.474 1.608 2.009 3.951 2.882l2.749 1.071c6.365 2.48 10.049 5.158 10.049 10.988 0 6.9-5.829 11.055-13.467 11.055-5.56 0-10.72-1.811-14.404-4.892l4.757-7.034c2.747 2.075 6.165 3.483 9.514 3.483 2.545 0 4.22-0.804 4.22-2.746 0-1.944-2.545-2.613-6.096-4.021l-2.814-1.071c-5.963-2.344-7.771-5.561-7.771-9.783 0-5.158 4.421-10.585 13.666-10.585 5.628 1e-3 9.714 2.078 11.925 3.886" fill="#f2f2f2"/></g></g><g transform="matrix(2.7199,0,0,-2.7253,1647.3,-378.01)"><g transform="translate(-479.67,-192.01)" fill="#f2f2f2"><path d="m0 0c0-5.829-3.685-9.179-8.174-9.179-4.556 0-8.308 3.349-8.308 9.179 0 5.761 3.752 9.177 8.308 9.177 4.489 0 8.174-3.416 8.174-9.177m9.646 0c0 10.854-7.034 18.021-16.144 18.021-4.022 0-7.17-1.139-9.446-3.418v13.87l-9.649-1e-3 -1e-3 -45.825h9.112v3.217c2.346-2.547 5.763-3.953 9.983-3.953 9.111 0 16.145 7.168 16.145 18.089" fill="#f2f2f2"/></g></g><g transform="matrix(2.7199,0,0,-2.7253,1647.3,-378.01)"><g transform="translate(-459.5,-192.01)" fill="#f2f2f2"><path d="m0 0c0 5.761 3.953 9.177 8.508 9.177 4.624 0 8.575-3.415 8.575-9.177 0-5.829-3.951-9.179-8.575-9.179-4.555 0-8.508 3.349-8.508 9.179m26.798 0c0 10.854-8.039 18.29-18.223 18.29-10.25 0-18.221-7.436-18.222-18.29 0-10.922 7.972-18.358 18.222-18.358 10.183 0 18.223 7.437 18.223 18.358" fill="#f2f2f2"/></g></g><g transform="matrix(2.7199,0,0,-2.7253,1647.3,-378.01)"><g transform="translate(-409.58,-201.12)" fill="#f2f2f2"><path d="m0 0c-7.172 0.484-10.585 4.666-10.584 12.46v13.936h-9.647v-34.638l9.111 1e-3v5.56c1.675-3.216 5.024-5.494 11.12-5.56z" fill="#f2f2f2"/></g></g><g transform="matrix(2.7199,0,0,-2.7253,1647.3,-378.01)"><g transform="translate(-392.08,-187.45)" fill="#f2f2f2"><path d="m0 0c1e-3 3.619 1.609 4.823 5.093 4.824 0.536 0 1.272-0.066 1.607-0.134v8.039c-1.272 0.403-3.013 0.67-4.957 0.67-7.235-1e-3 -11.389-3.082-11.389-10.987v-16.078h-5.83v-8.241h5.83v-7.654h9.646v7.654h7.036v8.241h-7.036z" fill="#f2f2f2"/></g></g></g><g transform="matrix(1.3333,0,0,-1.3333,6.1093e-6,303.56)" fill="#d8d8d8"><g transform="matrix(2.7199,0,0,-2.7253,1647.3,-378.01)"><g transform="translate(-529.5,-159.39)" fill="#d8d8d8"><path d="m0 0h-4.008v20.682h12.899v-3.638h-8.891z" fill="#d8d8d8"/></g></g><g transform="matrix(2.7199,0,0,-2.7253,1647.3,-378.01)"><path d="m-514.73-138.7h4.008v-20.682h-4.008z" fill="#d8d8d8"/></g><g transform="matrix(2.7199,0,0,-2.7253,1647.3,-378.01)"><g transform="translate(-495.56,-144)" fill="#d8d8d8"><path d="m0 0-5.749-15.236-0.054-0.145h-4.212l7.869 20.539 0.056 0.143h4.095l7.81-20.379 0.114-0.303h-4.126z" fill="#d8d8d8"/></g></g><g transform="matrix(2.7199,0,0,-2.7253,1647.3,-378.01)"><g transform="translate(-476.45,-147.43)" fill="#d8d8d8"><path d="m0 0h8.266v-3.637h-8.266v-4.685h9.406v-3.637h-13.414v20.682h13.642v-3.638h-9.634z" fill="#d8d8d8"/></g></g><g transform="matrix(2.7199,0,0,-2.7253,1647.3,-378.01)"><g transform="translate(-445.01,-159.38)" fill="#d8d8d8"><path d="m0 0-7.196 5.413 2.055 2.806 4.273-3.077v15.521h4.089v-20.663z" fill="#d8d8d8"/></g></g></g><g transform="matrix(19.913 0 0 -19.913 -9525.2 3324.7)"><g clip-path="url(#clipPath1664)"><path d="m482.34 166.7 1.725-4.917 1.723 4.917c-0.543 0.173-1.123 0.266-1.723 0.266-0.601 0-1.18-0.093-1.725-0.266" fill="url(#linearGradient1678)"/></g></g><g transform="matrix(19.913 0 0 -19.913 -9525.2 3324.7)"><g clip-path="url(#clipPath1688)"><path d="m484.97 158.87h-1.811l-2.944 6.595c-1.107-1.009-1.818-2.447-1.871-4.052v-0.382c0.101-3.079 2.623-5.544 5.721-5.544 3.161 0 5.723 2.568 5.723 5.735 0 1.681-0.722 3.194-1.873 4.243z" fill="url(#linearGradient1702)"/></g></g><g transform="matrix(19.913 0 0 -19.913 -9525.2 3324.7)"><g clip-path="url(#clipPath1712)"><path d="m484.06 161.78-1.724 4.917c-0.796-0.252-1.518-0.674-2.122-1.224l2.941-6.594h1.81l2.943 6.595c-0.603 0.55-1.326 0.972-2.124 1.224z" fill="url(#linearGradient1726)"/></g></g></svg>
