<svg width="800.32" height="305.63" version="1.1" viewBox="0 0 211.76 80.865" xmlns="http://www.w3.org/2000/svg">
 <defs>
  <linearGradient id="paint0_linear" x1="58.828" x2="192.1" y1="386.87" y2="153.49" gradientUnits="userSpaceOnUse">
   <stop stop-color="#16217C" offset="0"/>
   <stop stop-color="#16217C" offset=".0042341"/>
   <stop stop-color="#0009FF" offset=".5689"/>
   <stop stop-color="#00FF5B" offset="1"/>
  </linearGradient>
  <linearGradient id="paint1_linear" x1="91.127" x2="224.4" y1="405.32" y2="171.93" gradientUnits="userSpaceOnUse">
   <stop stop-color="#16217C" offset="0"/>
   <stop stop-color="#16217C" offset=".0042341"/>
   <stop stop-color="#0009FF" offset=".5689"/>
   <stop stop-color="#00FF5B" offset="1"/>
  </linearGradient>
  <linearGradient id="paint2_linear" x1="178.09" x2="178.09" y1="162.69" y2="290.89" gradientUnits="userSpaceOnUse">
   <stop stop-color="#EBF5F7" offset="0"/>
   <stop stop-color="#fff" offset=".9973"/>
   <stop stop-color="#fff" offset="1"/>
  </linearGradient>
 </defs>
 <g transform="matrix(.31737 0 0 .31737 -26.342 -50.145)">
  <path d="m178 243.92-28.44-81.386c9.077-2.723 18.758-4.538 28.743-4.538 9.984 0 19.665 1.513 28.742 4.538z" fill="url(#paint0_linear)"/>
  <path d="m273 253c0 52.643-42.659 95-95 95s-95-42.357-95-95c0-27.835 11.799-52.644 30.86-70.191l49.013 109.52h30.254l49.013-109.52c19.061 17.547 30.86 42.356 30.86 70.191z" fill="url(#paint1_linear)"/>
  <path d="m242.14 182.81-49.013 109.52h-30.255l-49.013-109.52c9.984-9.076 22.086-16.337 35.398-20.573l28.743 81.386 28.742-81.688c13.312 4.538 25.414 11.799 35.398 20.875z" fill="url(#paint2_linear)"/>
 </g>
 <g transform="translate(.069883 .05061)">
  <g transform="matrix(6.003 0 0 -6.003 75.682 72.417)">
   <path d="m0 0h1.157c-0.066-0.495-0.416-0.79-0.945-0.79-0.62 0-1.053 0.473-1.053 1.151 0 0.688 0.423 1.15 1.053 1.15 0.36 0 0.647-0.132 0.876-0.404l0.026-0.032 0.473 0.415-0.023 0.029c-0.301 0.388-0.783 0.602-1.357 0.602-1.011 0-1.718-0.724-1.718-1.76 0-1.037 0.709-1.76 1.723-1.76 0.997 0 1.616 0.645 1.616 1.685v0.286h-1.828z" fill="#3d4447"/>
  </g>
  <g transform="matrix(6.003 0 0 -6.003 101.98 77.099)">
   <path d="m0 0c-0.511 0-1.062 0.357-1.062 1.141s0.551 1.141 1.062 1.141c0.509 0 1.057-0.357 1.057-1.141s-0.548-1.141-1.057-1.141m-5e-3 2.901c-1.001 0-1.727-0.74-1.727-1.76s0.726-1.76 1.727-1.76c1.004 0 1.732 0.74 1.732 1.76s-0.728 1.76-1.732 1.76" fill="#3d4447"/>
  </g>
  <g transform="matrix(6.003 0 0 -6.003 122.45 60.11)">
   <path d="m0 0h-0.661v-3.381h2.111v0.601h-1.45z" fill="#3d4447"/>
  </g>
  <g transform="matrix(6.003 0 0 -6.003 149.7 63.712)">
   <path d="m0 0v0.6h-2.195v-3.38h0.666v1.33h1.399v0.6h-1.399v0.85z" fill="#3d4447"/>
  </g>
 </g>
 <g transform="translate(.069883 .05061)">
  <g transform="matrix(6.003 0 0 -6.003 93.151 15.148)">
   <path d="m0 0-0.74-1.104c-0.407 0.289-0.836 0.407-1.211 0.407-0.45 0-0.654-0.161-0.654-0.386 0-0.236 0.257-0.321 0.632-0.461l0.44-0.172c1.019-0.396 1.608-0.825 1.608-1.758 0-1.104-0.933-1.769-2.155-1.769-0.89 0-1.716 0.29-2.305 0.783l0.761 1.125c0.44-0.332 0.987-0.557 1.523-0.557 0.407 0 0.675 0.129 0.675 0.439 0 0.311-0.407 0.419-0.975 0.644l-0.451 0.171c-0.954 0.375-1.243 0.89-1.243 1.566-1e-3 0.825 0.707 1.694 2.187 1.694 0.9 0 1.554-0.333 1.908-0.622" fill="#212a2f"/>
  </g>
  <g transform="matrix(6.003 0 0 -6.003 120.76 29.075)">
   <path d="m0 0c0 0.933-0.59 1.469-1.308 1.469-0.729 0-1.33-0.536-1.33-1.469 0-0.922 0.601-1.469 1.33-1.469 0.718 0 1.308 0.547 1.308 1.469m1.544 0c0-1.737-1.126-2.884-2.584-2.884-0.643 0-1.147 0.182-1.512 0.547v-2.22h-1.544v7.334h1.458v-0.515c0.376 0.408 0.923 0.633 1.598 0.633 1.458 0 2.584-1.147 2.584-2.895" fill="#212a2f"/>
  </g>
  <g transform="matrix(6.003 0 0 -6.003 140.15 29.075)">
   <path d="m0 0c0-0.922 0.633-1.469 1.361-1.469 0.741 0 1.373 0.547 1.373 1.469 0 0.933-0.632 1.469-1.373 1.469-0.728 0-1.361-0.536-1.361-1.469m4.289 0c0-1.737-1.287-2.927-2.917-2.927-1.64 0-2.916 1.19-2.916 2.927 0 1.748 1.276 2.938 2.916 2.938 1.63 0 2.916-1.19 2.917-2.938" fill="#212a2f"/>
  </g>
  <g transform="matrix(6.003 0 0 -6.003 188.12 20.311)">
   <path d="m0 0c-1.148-0.078-1.694-0.747-1.694-1.994v-2.23h-1.544v5.543h1.458v-0.89c0.268 0.515 0.804 0.879 1.78 0.89z" fill="#212a2f"/>
  </g>
  <g transform="matrix(6.003 0 0 -6.003 204.93 33.457)">
   <path d="m0 0c0-0.579 0.257-0.772 0.815-0.772 0.086 0 0.204 0.011 0.257 0.021v-1.286c-0.204-0.065-0.482-0.107-0.793-0.107-1.158 0-1.823 0.493-1.823 1.758v2.573h-0.933v1.319h0.933v1.225h1.544v-1.225h1.126v-1.319h-1.126z" fill="#212a2f"/>
  </g>
 </g>
</svg>
