<svg width="650.74" height="219" version="1.1" viewBox="0 0 172.18 57.945" xmlns="http://www.w3.org/2000/svg">
 <defs>
  <linearGradient id="SVGID_4_-8" x1="148.99" x2="169.56" y1="94.827" y2="59.204" gradientTransform="matrix(.87028 0 0 .8709 62.208 153.03)" gradientUnits="userSpaceOnUse">
   <stop stop-color="#16217C" offset=".0051"/>
   <stop stop-color="#0009FF" offset=".5468"/>
   <stop stop-color="#00FF5B" offset="1"/>
  </linearGradient>
  <linearGradient id="paint0_linear-5" x1="58.828" x2="192.1" y1="386.87" y2="153.49" gradientUnits="userSpaceOnUse">
   <stop stop-color="#16217C" offset="0"/>
   <stop stop-color="#16217C" offset=".0042341"/>
   <stop stop-color="#0009FF" offset=".5689"/>
   <stop stop-color="#00FF5B" offset="1"/>
  </linearGradient>
  <linearGradient id="paint1_linear-6" x1="91.127" x2="224.4" y1="405.32" y2="171.93" gradientUnits="userSpaceOnUse">
   <stop stop-color="#16217C" offset="0"/>
   <stop stop-color="#16217C" offset=".0042341"/>
   <stop stop-color="#0009FF" offset=".5689"/>
   <stop stop-color="#00FF5B" offset="1"/>
  </linearGradient>
  <linearGradient id="paint2_linear-9" x1="178.09" x2="178.09" y1="162.69" y2="290.89" gradientUnits="userSpaceOnUse">
   <stop stop-color="#EBF5F7" offset="0"/>
   <stop stop-color="#fff" offset=".9973"/>
   <stop stop-color="#fff" offset="1"/>
  </linearGradient>
 </defs>
 <g transform="matrix(.78004 0 0 .78004 -97.624 -117.86)">
  <g transform="matrix(1.0271 0 0 1.0271 51.227 153.2)" fill="#424a4c" stroke-width=".84759">
   <path d="m137.5 61.399h6.2529v6.0598h2.7334v-14.171h-2.7334v5.6301h-6.2529v-5.6301h-2.7334v14.171h2.7334z"/>
   <path d="m155.62 53.289h-4.9125v14.171h4.9125c4.3127 0 7.1001-2.781 7.1001-7.085s-2.7876-7.0858-7.1001-7.0858zm-2.1792 2.4818h2.0234c2.7665 0 4.4839 1.7636 4.4839 4.604s-1.7175 4.604-4.4839 4.604h-2.0234z"/>
  </g>
  <path d="m185.47 205.03v20.352h36.368v-20.352zm34.943 18.927h-33.52v-17.502h33.52z" fill="url(#SVGID_4_-8)" stroke-width=".8706"/>
 </g>
 <g transform="matrix(4.7797 0 0 -4.7797 163.89 14.603)">
  <path d="m0 0c1.166-0.096 1.735-0.885 1.735-1.779 0-1.069-0.753-1.981-2.261-1.981-0.85 0-1.718 0.28-2.252 0.903l0.823 0.902c0.307-0.333 0.754-0.639 1.341-0.639 0.64 0 1.017 0.324 1.017 0.832 0 0.482-0.394 0.789-0.99 0.789-0.272 0-0.456-0.052-0.596-0.114l-0.666 0.815 1.516 1.42h-2.182v1.175h4.031v-0.894z" fill="#424a4c"/>
 </g>
 <g transform="matrix(.81338 0 0 .81338 28.754 -57.358)">
  <g transform="matrix(5.8763 0 0 -5.8763 45.082 83.594)">
   <path d="m0 0-0.651-0.972c-0.358 0.255-0.736 0.359-1.066 0.359-0.396 0-0.575-0.142-0.575-0.34 0-0.207 0.226-0.283 0.556-0.406l0.387-0.15c0.896-0.35 1.415-0.727 1.415-1.547 0-0.972-0.82-1.557-1.896-1.557-0.783 0-1.509 0.255-2.028 0.689l0.67 0.99c0.387-0.292 0.868-0.49 1.339-0.49 0.359 0 0.595 0.113 0.595 0.387 0 0.273-0.359 0.367-0.859 0.566l-0.396 0.15c-0.839 0.33-1.094 0.783-1.094 1.378 0 0.726 0.622 1.49 1.924 1.49 0.792 0 1.368-0.292 1.679-0.547" fill="#212a2f"/>
  </g>
  <g transform="matrix(5.8763 0 0 -5.8763 68.886 95.581)">
   <path d="m0 0c0 0.821-0.519 1.292-1.151 1.292-0.641 0-1.17-0.471-1.17-1.292 0-0.811 0.529-1.292 1.17-1.292 0.632 0 1.151 0.481 1.151 1.292m1.358 0c0-1.528-0.99-2.537-2.273-2.537-0.566 0-1.009 0.16-1.33 0.481v-1.953h-1.358v6.452h1.282v-0.453c0.331 0.359 0.812 0.557 1.406 0.557 1.283 0 2.273-1.009 2.273-2.547" fill="#212a2f"/>
  </g>
  <g transform="matrix(5.8763 0 0 -5.8763 85.566 95.581)">
   <path d="m0 0c0-0.811 0.557-1.292 1.198-1.292 0.651 0 1.207 0.481 1.207 1.292 0 0.821-0.556 1.292-1.207 1.292-0.641 0-1.198-0.471-1.198-1.292m3.773 0c0-1.528-1.132-2.575-2.566-2.575-1.443 0-2.565 1.047-2.565 2.575 0 1.538 1.122 2.585 2.565 2.585 1.434 0 2.566-1.047 2.566-2.585" fill="#212a2f"/>
  </g>
  <g transform="matrix(5.8763 0 0 -5.8763 126.89 88.002)">
   <path d="m0 0c-1.01-0.068-1.49-0.657-1.49-1.754v-1.962h-1.358v4.876h1.282v-0.783c0.236 0.453 0.708 0.774 1.566 0.783z" fill="#212a2f"/>
  </g>
  <g transform="matrix(5.8763 0 0 -5.8763 141.33 99.342)">
   <path d="m0 0c0-0.51 0.227-0.679 0.717-0.679 0.075 0 0.179 9e-3 0.226 0.019v-1.132c-0.179-0.057-0.424-0.094-0.698-0.094-1.018 0-1.603 0.433-1.603 1.546v2.264h-0.821v1.16h0.821v1.078h1.358v-1.078h0.991v-1.16h-0.991z" fill="#212a2f"/>
  </g>
 </g>
 <g transform="matrix(.22281 0 0 .22281 -18.493 -35.203)">
  <path d="m178 243.92-28.44-81.386c9.077-2.723 18.758-4.538 28.743-4.538 9.984 0 19.665 1.513 28.742 4.538z" fill="url(#paint0_linear-5)"/>
  <path d="m273 253c0 52.643-42.659 95-95 95s-95-42.357-95-95c0-27.835 11.799-52.644 30.86-70.191l49.013 109.52h30.254l49.013-109.52c19.061 17.547 30.86 42.356 30.86 70.191z" fill="url(#paint1_linear-6)"/>
  <path d="m242.14 182.81-49.013 109.52h-30.255l-49.013-109.52c9.984-9.076 22.086-16.337 35.398-20.573l28.743 81.386 28.742-81.688c13.312 4.538 25.414 11.799 35.398 20.875z" fill="url(#paint2_linear-9)"/>
 </g>
</svg>
