<svg width="756.02" height="262.74" version="1.1" viewBox="0 0 756.02 262.74" xml:space="preserve" xmlns="http://www.w3.org/2000/svg"><defs>
				<linearGradient id="Vector_7_1_" x1="-15.58" x2="70.403" y1="21.087" y2="-129.49" gradientTransform="matrix(1.6313 0 0 1.6313 0 206.49)" gradientUnits="userSpaceOnUse">
				<stop stop-color="#16217C" offset="0"/>
				<stop stop-color="#16217C" offset=".0042341"/>
				<stop stop-color="#0009FF" offset=".5689"/>
				<stop stop-color="#00FF5B" offset="1"/>
			</linearGradient>
				<linearGradient id="Vector_8_1_" x1="5.1894" x2="91.173" y1="32.948" y2="-117.63" gradientTransform="matrix(1.6313 0 0 1.6313 0 206.49)" gradientUnits="userSpaceOnUse">
				<stop stop-color="#16217C" offset="0"/>
				<stop stop-color="#16217C" offset=".0042341"/>
				<stop stop-color="#0009FF" offset=".5689"/>
				<stop stop-color="#00FF5B" offset="1"/>
			</linearGradient>
			<linearGradient id="Vector_9_1_" x1="61.3" x2="61.3" y1="-123.56" y2="-40.845" gradientTransform="matrix(1.6313 0 0 1.6313 0 206.49)" gradientUnits="userSpaceOnUse">
			<stop stop-color="#EBF5F7" offset="0"/>
			<stop stop-color="#fff" offset=".9973"/>
			<stop stop-color="#fff" offset="1"/>
		</linearGradient>
<linearGradient id="SVGID_4_-8" x1="148.99" x2="169.56" y1="94.827" y2="59.204" gradientTransform="matrix(.87028 0 0 .8709 62.208 153.03)" gradientUnits="userSpaceOnUse"><stop stop-color="#16217C" offset=".0051"/><stop stop-color="#0009FF" offset=".5468"/><stop stop-color="#00FF5B" offset="1"/></linearGradient></defs>
<g transform="matrix(1.0299 0 0 .97098 -14.3 -1.0228e-5)" fill="#d8d8d8" aria-label="PREMIUM HD"><path d="m269.86 222.98q0 5.2086-2.1484 9.3066t-6.168 6.3576q-3.985 2.2213-9.4946 2.2213h-12.128v18.996h-10.222v-53.963h21.935q8.7669 0 13.48 4.481 4.7473 4.4427 4.7473 12.6zm-10.292 0.1915q0-8.5024-9.0787-8.5024h-10.569v17.503h10.846q4.2275 0 6.5145-2.2979 2.287-2.3362 2.287-6.7023z" stroke-width="1.0679"/><path d="m316.65 259.86-13.521-20.49h-9.0544v20.49h-9.0447v-53.963h21.585c5.1509 0 9.1264 1.3915 11.927 4.1746 2.8003 2.7575 4.2004 6.7278 4.2004 11.911 0 3.7788-0.85848 7.047-2.5754 9.8045-1.717 2.732-4.4248 4.9443-7.3478 5.8124l14.011 22.261zm-3.0147-37.418c0-5.1831-2.6572-7.7747-7.9716-7.7747h-11.589v15.932h11.835c2.5346 0 4.4559-0.71491 5.7641-2.1447s1.9622-3.4341 1.9622-6.0129z" stroke-width="1.0045"/><path d="m340.47 259.86v-53.963h33.387l4.4e-4 8.7322h-23.527v13.043h20.329v8.7321h-20.329v14.106l23.527-3.2e-4v9.3498z" stroke-width=".99587"/><path d="m437.87 259.86v-40.346l-14.722 40.345h-8.7414c-5.5205-14.621-14.336-40.345-14.336-40.345v40.345h-8.8372v-53.963h13.237l14.635 40.638 14.365-40.638 13.237 4.3e-4v53.963z" stroke-width="1.1311"/><path d="m466.33 259.86v-53.963h9.4002v53.963z" stroke-width="1.0241"/><path d="m514.25 260.62q-10.09 0-15.465-5.4384-5.3399-5.4384-5.3399-15.549v-33.741h10.229v32.86q0 6.3959 2.7393 9.7279 2.774 3.2937 8.1139 3.2937 5.4786 0 8.426-3.4469 2.9474-3.4852 2.9474-9.9577v-32.477h10.229v33.167q0 10.264-5.756 15.932-5.7213 5.6299-16.124 5.6299z" stroke-width="1.0683"/><path d="m601.87 259.86v-40.346l-14.722 40.345h-8.7414c-5.5205-14.621-14.336-40.345-14.336-40.345v40.345h-8.8372v-53.963h13.237l14.635 40.638 14.365-40.638 13.237 4.3e-4v53.963z" stroke-width="1.1311"/></g><g fill="#f2f2f2"><path class="st0" d="m309.46 50.244-14.682 22.023c-7.9934-5.7096-16.476-7.9934-24.143-7.9934-8.9722 0-13.05 3.2626-13.05 7.6671 0 4.7308 5.057 6.3621 12.724 9.2984l8.6459 3.4257c20.391 7.9934 31.81 16.476 31.81 35.073 0 22.023-18.434 35.399-43.066 35.399-17.781 0-34.094-5.7096-45.84-15.66l15.334-22.349c8.6459 6.6883 19.739 11.093 30.179 11.093 7.9934 0 13.377-2.6101 13.377-8.6459s-7.9934-8.3196-19.412-12.724l-8.9722-3.4257c-19.086-7.3408-24.796-17.781-24.796-31.158 0-16.476 14.029-33.768 43.556-33.768 18.271-0.65252 31.321 6.0358 38.336 11.745z" stroke-width="1.6313"/><path class="st0" d="m431.81 96.41c0 34.747-22.349 57.259-51.223 57.259-12.724 0-23.001-3.4257-29.853-10.767v44.208h-30.505v-145.68h29.037v10.114c7.3408-7.9934 18.434-12.724 31.81-12.724 28.385 0 50.733 22.675 50.733 57.585zm-30.668 0c0-18.434-11.745-29.363-26.101-29.363-14.682 0-26.427 10.44-26.427 29.363 0 18.434 12.072 29.363 26.427 29.363 14.355-0.32626 26.101-11.093 26.101-29.363z" stroke-width="1.6313" Googl="true"/><path class="st0" d="m550.56 96.41c0 34.747-25.448 58.237-57.911 58.237s-57.911-23.491-57.911-58.237 25.448-58.564 57.911-58.564 57.911 23.654 57.911 58.564zm-85.317 0c0 18.434 12.724 29.363 27.08 29.363 14.682 0 27.406-10.767 27.406-29.363 0-18.434-12.724-29.363-27.406-29.363-14.355 0.16313-27.08 10.603-27.08 29.363z" stroke-width="1.631"/><path class="st0" d="m624.14 67.536c-23.001 1.6313-33.768 15.008-33.768 39.804v44.208h-30.505v-110.11h29.037v17.781c5.3833-10.114 15.987-17.455 35.399-17.781z" stroke-width="1.6313"/><path class="st0" d="m679.76 110.77c0 11.419 5.057 15.334 16.313 15.334 1.6313 0 4.0782-0.32626 5.057-0.32626v25.448c-4.0782 1.305-9.6247 2.2838-15.987 2.2838-23.001 0-36.378-9.9509-36.378-35.073v-51.223h-18.434v-26.101h18.434v-24.47h30.505v24.47h22.349v26.101h-22.349z" stroke-width="1.6313"/></g><path class="st2" d="m99.999 90.374-30.016-85.643c9.6247-2.7732 19.739-4.7308 30.342-4.7308 10.44 0 20.718 1.6313 30.179 4.7308z" fill="url(#Vector_7_1_)" stroke-width="1.6313"/><path class="st3" d="m200 99.999c0 55.464-44.861 99.999-99.999 99.999s-99.999-44.534-99.999-99.999c0-29.363 12.398-55.464 32.463-73.898l51.549 115.33h31.81l51.712-115.33c20.065 18.434 32.463 44.534 32.463 73.898z" fill="url(#Vector_8_1_)" stroke-width="1.6313"/><path class="st4" d="m167.53 26.101-51.712 115.33h-31.81l-51.549-115.33c10.44-9.6247 23.164-17.129 37.194-21.696l30.179 85.643 30.342-85.97c14.029 4.8939 26.753 12.398 37.357 22.023z" fill="url(#Vector_9_1_)" stroke-width="1.6313"/><g transform="matrix(3.5998 0 0 3.5998 -42.538 -548.59)"><g transform="matrix(1.0271 0 0 1.0271 51.227 153.2)" fill="#d8d8d8" stroke-width=".84759"><path d="m137.5 61.399h6.2529v6.0598h2.7334v-14.171h-2.7334v5.6301h-6.2529v-5.6301h-2.7334v14.171h2.7334z"/><path d="m155.62 53.289h-4.9125v14.171h4.9125c4.3127 0 7.1001-2.781 7.1001-7.085s-2.7876-7.0858-7.1001-7.0858zm-2.1792 2.4818h2.0234c2.7665 0 4.4839 1.7636 4.4839 4.604s-1.7175 4.604-4.4839 4.604h-2.0234z"/></g><path d="m185.47 205.03v20.352h36.368v-20.352zm34.943 18.927h-33.52v-17.502h33.52z" fill="url(#SVGID_4_-8)" stroke-width=".8706"/></g></svg>
