<svg width="800.4" height="192.07" version="1.1" viewBox="0 0 211.77 50.818" xmlns="http://www.w3.org/2000/svg">
 <defs>
  <linearGradient id="paint0_linear" x1="58.828" x2="192.1" y1="386.87" y2="153.49" gradientUnits="userSpaceOnUse">
   <stop stop-color="#16217C" offset="0"/>
   <stop stop-color="#16217C" offset=".0042341"/>
   <stop stop-color="#0009FF" offset=".5689"/>
   <stop stop-color="#00FF5B" offset="1"/>
  </linearGradient>
  <linearGradient id="paint1_linear" x1="91.127" x2="224.4" y1="405.32" y2="171.93" gradientUnits="userSpaceOnUse">
   <stop stop-color="#16217C" offset="0"/>
   <stop stop-color="#16217C" offset=".0042341"/>
   <stop stop-color="#0009FF" offset=".5689"/>
   <stop stop-color="#00FF5B" offset="1"/>
  </linearGradient>
  <linearGradient id="paint2_linear" x1="178.09" x2="178.09" y1="162.69" y2="290.89" gradientUnits="userSpaceOnUse">
   <stop stop-color="#EBF5F7" offset="0"/>
   <stop stop-color="#fff" offset=".9973"/>
   <stop stop-color="#fff" offset="1"/>
  </linearGradient>
 </defs>
 <g fill="#fff">
  <g transform="matrix(6.3596 0 0 -6.3596 78.547 12.814)">
   <path d="m0 0-0.587-0.876c-0.322 0.23-0.663 0.323-0.96 0.323-0.357 0-0.518-0.127-0.518-0.306 0-0.187 0.203-0.255 0.501-0.365l0.349-0.136c0.807-0.315 1.275-0.655 1.275-1.394 0-0.876-0.74-1.403-1.709-1.403-0.706 0-1.36 0.23-1.828 0.621l0.604 0.892c0.348-0.263 0.782-0.442 1.207-0.442 0.323 0 0.535 0.102 0.535 0.349 0 0.246-0.322 0.331-0.773 0.51l-0.357 0.136c-0.757 0.297-0.986 0.705-0.986 1.241 0 0.654 0.561 1.343 1.734 1.343 0.714 0 1.233-0.264 1.513-0.493" fill="#fff"/>
  </g>
  <g transform="matrix(6.3596 0 0 -6.3596 101.7 24.515)">
   <path d="m0 0c0 0.74-0.468 1.165-1.037 1.165-0.578 0-1.054-0.425-1.054-1.165 0-0.731 0.476-1.164 1.054-1.164 0.57 0 1.037 0.433 1.037 1.164m1.224 0c0-1.377-0.893-2.287-2.049-2.287-0.51 0-0.909 0.145-1.198 0.434v-1.76h-1.224v5.815h1.156v-0.408c0.297 0.323 0.731 0.501 1.266 0.501 1.156 0 2.049-0.909 2.049-2.295" fill="#fff"/>
  </g>
  <g transform="matrix(6.3596 0 0 -6.3596 117.98 24.515)">
   <path d="m0 0c0-0.731 0.502-1.164 1.079-1.164 0.587 0 1.089 0.433 1.089 1.164 0 0.74-0.502 1.165-1.089 1.165-0.578 0-1.079-0.425-1.079-1.165m3.4 0c0-1.377-1.02-2.321-2.312-2.321-1.301 0-2.312 0.944-2.312 2.321 0 1.386 1.011 2.329 2.312 2.329 1.292 0 2.312-0.943 2.312-2.329" fill="#fff"/>
  </g>
  <g transform="matrix(6.3596 0 0 -6.3596 158.3 17.138)">
   <path d="m0 0c-0.91-0.061-1.343-0.592-1.343-1.581v-1.768h-1.224v4.395h1.156v-0.706c0.212 0.408 0.637 0.697 1.411 0.706z" fill="#fff"/>
  </g>
  <g transform="matrix(6.3596 0 0 -6.3596 172.42 28.204)">
   <path d="m0 0c0-0.459 0.204-0.612 0.646-0.612 0.068 0 0.162 8e-3 0.204 0.017v-1.02c-0.161-0.051-0.382-0.085-0.629-0.085-0.918 0-1.445 0.391-1.445 1.394v2.04h-0.74v1.046h0.74v0.971h1.224v-0.971h0.893v-1.046h-0.893z" fill="#fff"/>
  </g>
 </g>
 <g transform="matrix(6.3596 0 0 -6.3596 202.24 20.127)" fill="#fff">
  <path d="m0 0v1.515h-1.374v-1.515h-1.515v-1.367h1.515v-1.506h1.374v1.506h1.499v1.367z" fill="#fff"/>
 </g>
 <g transform="matrix(.26747 0 0 .26747 -22.2 -42.261)">
  <path d="m178 243.92-28.44-81.386c9.077-2.723 18.758-4.538 28.743-4.538 9.984 0 19.665 1.513 28.742 4.538z" fill="url(#paint0_linear)"/>
  <path d="m273 253c0 52.643-42.659 95-95 95s-95-42.357-95-95c0-27.835 11.799-52.644 30.86-70.191l49.013 109.52h30.254l49.013-109.52c19.061 17.547 30.86 42.356 30.86 70.191z" fill="url(#paint1_linear)"/>
  <path d="m242.14 182.81-49.013 109.52h-30.255l-49.013-109.52c9.984-9.076 22.086-16.337 35.398-20.573l28.743 81.386 28.742-81.688c13.312 4.538 25.414 11.799 35.398 20.875z" fill="url(#paint2_linear)"/>
 </g>
</svg>
