<svg width="796.92" height="266.32" version="1.1" viewBox="0 0 796.92 266.32" xml:space="preserve" xmlns="http://www.w3.org/2000/svg"><defs><linearGradient id="SVGID_4_-8-3" x1="148.99" x2="169.56" y1="94.827" y2="59.204" gradientTransform="matrix(.87028 0 0 .8709 62.208 153.03)" gradientUnits="userSpaceOnUse"><stop stop-color="#16217C" offset=".0051"/><stop stop-color="#0009FF" offset=".5468"/><stop stop-color="#00FF5B" offset="1"/></linearGradient>
				<linearGradient id="Vector_7_1_" x1="-15.58" x2="70.403" y1="21.087" y2="-129.49" gradientTransform="matrix(1.6313 0 0 1.6313 0 206.49)" gradientUnits="userSpaceOnUse">
				<stop stop-color="#16217C" offset="0"/>
				<stop stop-color="#16217C" offset=".0042341"/>
				<stop stop-color="#0009FF" offset=".5689"/>
				<stop stop-color="#00FF5B" offset="1"/>
			</linearGradient>
				<linearGradient id="Vector_8_1_" x1="5.1894" x2="91.173" y1="32.948" y2="-117.63" gradientTransform="matrix(1.6313 0 0 1.6313 0 206.49)" gradientUnits="userSpaceOnUse">
				<stop stop-color="#16217C" offset="0"/>
				<stop stop-color="#16217C" offset=".0042341"/>
				<stop stop-color="#0009FF" offset=".5689"/>
				<stop stop-color="#00FF5B" offset="1"/>
			</linearGradient>
			<linearGradient id="Vector_9_1_" x1="61.3" x2="61.3" y1="-123.56" y2="-40.845" gradientTransform="matrix(1.6313 0 0 1.6313 0 206.49)" gradientUnits="userSpaceOnUse">
			<stop stop-color="#EBF5F7" offset="0"/>
			<stop stop-color="#fff" offset=".9973"/>
			<stop stop-color="#fff" offset="1"/>
		</linearGradient>
</defs>
<g fill="#d8d8d8"><g opacity=".998"><path d="m361.41 201.92c-14.855 0-27 12.145-27 27s12.145 27 27 27 27-12.145 27-27-12.145-27-27-27zm0 9.5527c9.6929 0 17.447 7.7544 17.447 17.447 0 9.6929-7.7544 17.447-17.447 17.447s-17.449-7.7544-17.449-17.447c0-9.6929 7.7563-17.447 17.449-17.447z" color="#000000" color-rendering="auto" dominant-baseline="auto" fill="#d8d8d8" image-rendering="auto" shape-rendering="auto" solid-color="#000000" stop-color="#000000" style="font-feature-settings:normal;font-variant-alternates:normal;font-variant-caps:normal;font-variant-east-asian:normal;font-variant-ligatures:normal;font-variant-numeric:normal;font-variant-position:normal;font-variation-settings:normal;inline-size:0;isolation:auto;mix-blend-mode:normal;shape-margin:0;shape-padding:0;text-decoration-color:#000000;text-decoration-line:none;text-decoration-style:solid;text-indent:0;text-orientation:mixed;text-transform:none;white-space:normal"/></g><g opacity=".998"><path d="m294.21 201.92c-14.855 0-26.998 12.145-26.998 27s12.143 27 26.998 27 27-12.145 27-27-12.145-27-27-27zm0 9.5527c9.6929 0 17.449 7.7544 17.449 17.447 0 9.6929-7.7563 17.447-17.449 17.447-9.6929 0-17.447-7.7544-17.447-17.447 0-9.6929 7.7544-17.447 17.447-17.447z" color="#000000" color-rendering="auto" dominant-baseline="auto" fill="#d8d8d8" image-rendering="auto" shape-rendering="auto" solid-color="#000000" stop-color="#000000" style="font-feature-settings:normal;font-variant-alternates:normal;font-variant-caps:normal;font-variant-east-asian:normal;font-variant-ligatures:normal;font-variant-numeric:normal;font-variant-position:normal;font-variation-settings:normal;inline-size:0;isolation:auto;mix-blend-mode:normal;shape-margin:0;shape-padding:0;text-decoration-color:#000000;text-decoration-line:none;text-decoration-style:solid;text-indent:0;text-orientation:mixed;text-transform:none;white-space:normal"/></g><g transform="translate(0 -1.4362e-5)"><path d="m570.13 255.92h33.684v-9.4961h-23.218v-44.504h-10.467z" stroke-width="3.2355"/><path d="m618.62 255.92h33.684v-9.4961h-23.218v-44.504h-10.467z" stroke-width="3.2355"/><path d="m544.7 244h-24.067l-4.7002 12.357h-10.697l21.393-54.436h12.479l21.393 54.436h-11.102zm-3.3224-8.7598-8.6708-23.151-8.7518 23.151z" stroke-width="1.1395"/><path d="m230.93 255.92v-21.283h22.399v-9.4993h-22.399v-13.718h24.483v-9.4993h-35.024v54z" stroke-width="3.2355"/><path d="m425.84 211.48h14.734v-9.376l-39.799-0.179v9.555h14.734l5e-4 44.003h10.331z" stroke-width="3.2035"/><g transform="scale(.95222 1.0502)" stroke-width="1.0236" aria-label="B"><path d="m501.88 243.69q4.434 0 7.8667-0.85819 3.4328-0.85819 5.8643-2.6461 2.36-1.7164 3.7903-4.5055 1.2158-2.2885 1.5018-3.7188 0.28606-1.3588 0.28606-2.9322 0-4.577-1.9309-8.0813-2.0024-3.5758-6.0073-4.9346 6.2219-2.2885 6.2219-11.3-0.28606-3.5758-2.0024-6.3649-1.7879-2.8606-5.2206-4.5055-3.2182-1.5734-8.2243-1.5734h-25.317v51.42zm-12.801-42.48h12.444q4.3625 0 6.0073 1.4303 1.6449 1.4303 1.6449 4.1479 0 2.5746-1.8594 4.0764-1.7879 1.5018-5.1491 1.5018h-13.087zm0 33.684v-13.803h13.803q3.0752 0 5.2922 1.5018 2.2885 1.5018 2.2885 5.2922 0 3.5758-2.217 5.2922t-5.5067 1.7164z" fill="#d8d8d8" stroke-width="1.0236"/></g></g></g><g fill="#f2f2f2"><path class="st0" d="m309.46 50.244-14.682 22.023c-7.9934-5.7096-16.476-7.9934-24.143-7.9934-8.9722 0-13.05 3.2626-13.05 7.6671 0 4.7308 5.057 6.3621 12.724 9.2984l8.6459 3.4257c20.391 7.9934 31.81 16.476 31.81 35.073 0 22.023-18.434 35.399-43.066 35.399-17.781 0-34.094-5.7096-45.84-15.66l15.334-22.349c8.6459 6.6883 19.739 11.093 30.179 11.093 7.9934 0 13.377-2.6101 13.377-8.6459s-7.9934-8.3196-19.412-12.724l-8.9722-3.4257c-19.086-7.3409-24.796-17.781-24.796-31.158 0-16.476 14.029-33.768 43.556-33.768 18.271-0.65252 31.321 6.0358 38.336 11.745z" stroke-width="1.6313"/><path class="st0" d="m431.81 96.41c0 34.747-22.349 57.259-51.223 57.259-12.724 0-23.001-3.4257-29.853-10.767v44.208h-30.505v-145.68h29.037v10.114c7.3408-7.9934 18.434-12.724 31.81-12.724 28.385 0 50.733 22.675 50.733 57.585zm-30.668 0c0-18.434-11.745-29.363-26.101-29.363-14.682 0-26.427 10.44-26.427 29.363 0 18.434 12.072 29.363 26.427 29.363 14.355-0.32626 26.101-11.093 26.101-29.363z" stroke-width="1.6313" Googl="true"/><path class="st0" d="m550.56 96.41c0 34.747-25.448 58.237-57.911 58.237s-57.911-23.491-57.911-58.237c0-34.747 25.448-58.564 57.911-58.564s57.911 23.654 57.911 58.564zm-85.317 0c0 18.434 12.724 29.363 27.08 29.363 14.682 0 27.406-10.767 27.406-29.363 0-18.434-12.724-29.363-27.406-29.363-14.355 0.16313-27.08 10.603-27.08 29.363z" stroke-width="1.631"/><path class="st0" d="m624.14 67.536c-23.001 1.6313-33.768 15.008-33.768 39.804v44.208h-30.505v-110.11h29.037v17.781c5.3833-10.114 15.987-17.455 35.399-17.781z" stroke-width="1.6313"/><path class="st0" d="m679.76 110.77c0 11.419 5.057 15.334 16.313 15.334 1.6313 0 4.0782-0.32626 5.057-0.32626v25.448c-4.0782 1.305-9.6247 2.2838-15.987 2.2838-23.001 0-36.378-9.9509-36.378-35.073v-51.223h-18.434v-26.101h18.434v-24.47h30.505v24.47h22.349v26.101h-22.349z" stroke-width="1.6313"/></g><g stroke-width="1.6313"><path class="st2" d="m99.999 90.374-30.016-85.643c9.6247-2.7732 19.739-4.7308 30.342-4.7308 10.44 0 20.718 1.6313 30.179 4.7308z" fill="url(#Vector_7_1_)"/><path class="st3" d="m200 99.999c0 55.464-44.861 99.999-99.999 99.999s-99.999-44.534-99.999-99.999c0-29.363 12.398-55.464 32.463-73.898l51.549 115.33h31.81l51.712-115.33c20.065 18.434 32.463 44.534 32.463 73.898z" fill="url(#Vector_8_1_)"/><path class="st4" d="m167.53 26.101-51.712 115.33h-31.81l-51.549-115.33c10.44-9.6247 23.164-17.129 37.194-21.696l30.179 85.643 30.342-85.97c14.029 4.8939 26.753 12.398 37.357 22.023z" fill="url(#Vector_9_1_)"/></g><g transform="matrix(3.6795 0 0 3.6795 -19.318 -562.97)"><g transform="matrix(1.0271 0 0 1.0271 51.227 153.2)" fill="#d8d8d8" stroke-width=".84759"><path d="m137.5 61.399h6.2529v6.0598h2.7334v-14.171h-2.7334v5.6301h-6.2529v-5.6301h-2.7334v14.171h2.7334z"/><path d="m155.62 53.289h-4.9125v14.171h4.9125c4.3127 0 7.1001-2.781 7.1001-7.085s-2.7876-7.0858-7.1001-7.0858zm-2.1792 2.4818h2.0234c2.7665 0 4.4839 1.7636 4.4839 4.604s-1.7175 4.604-4.4839 4.604h-2.0234z"/></g><path d="m185.47 205.03v20.352h36.368v-20.352zm34.943 18.927h-33.52v-17.502h33.52z" fill="url(#SVGID_4_-8-3)" stroke-width=".8706"/></g></svg>
