<svg class="Logo_logo__3IG6m" width="800" height="111.62" fill="none" version="1.1" viewBox="0 0 800 111.62" xmlns="http://www.w3.org/2000/svg">
 <path d="m562.93-1.2891e-6h7.4412v111.62h-7.4412zm131.91 39.284h-23.713v69.352h-39.669v-69.352h-23.542v-36.725h86.888zm84.949 69.352h-56.59l-22.919-106.08h39.996c1.3915 8.4945 2.6714 15.958 3.8396 22.769 2.85 16.624 5.0377 29.368 6.5408 43.755 1.451-13.798 2.9244-23.038 4.4275-32.44 0.72923-4.5618 1.4659-9.1616 2.21-14.339l2.6937-19.745h40.011zm-690.41 0.4606h100.2l90.473-106.41-91.083-0.12456-50.195 71.905-46.585-71.905-92.182 0.13699zm433.9-79.231v-3.8992s0.40256-23.408-22.823-23.408h-189.92s-22.823-1.4825-22.774 23.283v63.671c0 20.779 22.774 19.459 22.774 19.459h187.92c24.787 0 24.787-22.536 24.787-22.536v-35.006h-116.09v12.358h42.206v20.032s-1.2687 13.205-14.406 13.205h-57.965c-15.931 0-14.187-15.26-14.187-15.26v-53.693s-0.42712-13.267 15.211-13.267h57.502c12.674 0 13.553 10.801 13.553 10.801v4.2605z" clip-rule="evenodd" fill="#fff" fill-rule="evenodd" stroke-width="7.4412"/>
</svg>
