<svg width="811.69" height="270" version="1.1" viewBox="0 0 811.69 270" xml:space="preserve" xmlns="http://www.w3.org/2000/svg"><defs>
		<linearGradient id="SVGID_6_" x1="276.75" x2="334.25" y1="249.36" y2="361.76" gradientTransform="matrix(2.1127 -.0014789 .0014789 2.1127 -499.01 -491.98)" gradientUnits="userSpaceOnUse">
		<stop stop-color="#00A9D7" offset="0"/>
		<stop stop-color="#00ABD1" offset=".8242"/>
		<stop stop-color="#1B70A3" offset="1"/>
	</linearGradient>
		<radialGradient id="SVGID_7_" cx="267.58" cy="438.37" r="149.21" gradientTransform="matrix(1.3561 -.00084507 .00084507 1.3589 -369.32 -375.08)" gradientUnits="userSpaceOnUse">
		<stop stop-color="#fff" offset="0"/>
		<stop stop-color="#D4E9F6" offset=".1753"/>
		<stop stop-color="#35AFDA" offset=".5745"/>
		<stop stop-color="#00A9D7" offset=".6154"/>
		<stop stop-color="#00A7C9" offset=".7394"/>
		<stop stop-color="#00A1A4" offset=".9958"/>
		<stop stop-color="#00A0A4" offset="1"/>
	</radialGradient>
		<linearGradient id="SVGID_8_" x1="285.23" x2="315.33" y1="263.5" y2="223.71" gradientTransform="matrix(2.1127 -.0014789 .0014789 2.1127 -499.01 -491.98)" gradientUnits="userSpaceOnUse">
		<stop stop-color="#fff" offset=".0050505"/>
		<stop stop-color="#E4E9F1" offset=".1759"/>
		<stop stop-color="#9CB3CA" offset=".5512"/>
		<stop stop-color="#3D7FA3" offset=".9286"/>
	</linearGradient>
		<linearGradient id="SVGID_9_" x1="310.14" x2="373.8" y1="330.28" y2="246.51" gradientTransform="matrix(2.1127 -.0014789 .0014789 2.1127 -499.01 -491.98)" gradientUnits="userSpaceOnUse">
		<stop stop-color="#fff" offset=".0050505"/>
		<stop stop-color="#ECEFF6" offset=".028777"/>
		<stop stop-color="#C4CEE2" offset=".082842"/>
		<stop stop-color="#9EB2D1" offset=".1405"/>
		<stop stop-color="#7D9CC2" offset=".2008"/>
		<stop stop-color="#5E8BB6" offset=".2647"/>
		<stop stop-color="#457EAE" offset=".3333"/>
		<stop stop-color="#3076A7" offset=".4088"/>
		<stop stop-color="#2171A4" offset=".4968"/>
		<stop stop-color="#1B70A3" offset=".6264"/>
	</linearGradient>
	<linearGradient id="SVGID_10_" x1="263.05" x2="281.97" y1="306.69" y2="199.92" gradientTransform="matrix(2.1127 0 0 2.1127 -499.01 -491.83)" gradientUnits="userSpaceOnUse">
		<stop stop-color="#fff" offset="0"/>
		<stop stop-color="#EBF5FB" offset=".093702"/>
		<stop stop-color="#B3D9EF" offset=".2922"/>
		<stop stop-color="#1BACD9" offset=".5776"/>
		<stop stop-color="#00A9D7" offset=".5934"/>
	</linearGradient>
			<radialGradient id="SVGID_5_" cx="287.42" cy="299.37" r="65.781" gradientTransform="matrix(2.1004 -.0014789 .0014789 2.1046 -497.09 -490.93)" gradientUnits="userSpaceOnUse">
			<stop stop-color="#40B9C1" offset="0"/>
			<stop stop-color="#37B7BE" offset=".4866"/>
			<stop stop-color="#07B2B6" offset=".9471"/>
			<stop stop-color="#00B1B5" offset="1"/>
		</radialGradient>
		<radialGradient id="XMLID_8_-1" cx="391.74" cy="414.65" r="233.83" gradientTransform="matrix(.5386 0 0 .5386 -76.029 -88.33)" gradientUnits="userSpaceOnUse"><stop stop-color="#fff" offset=".3427"/><stop stop-color="#FDFDFC" offset=".4887"/><stop stop-color="#F8F8F2" offset=".6032"/><stop stop-color="#F5F5ED" offset=".6404"/><stop stop-color="#E8E9E1" offset=".7054"/><stop stop-color="#C6C8C3" offset=".8251"/><stop stop-color="#9DA09D" offset=".9494"/></radialGradient><clipPath id="clipPath1658"><path d="m184.78-534.18c-129.1 0-233.8 104.7-233.8 233.8s104.7 233.8 233.8 233.8c129.2 0 233.8-104.7 233.8-233.8 0.1-129.1-104.6-233.8-233.8-233.8z"/></clipPath><filter id="filter1583" x="-.048012" y="-.047988" width="1.096" height="1.096" color-interpolation-filters="sRGB"><feGaussianBlur stdDeviation="10.023391"/></filter><filter id="filter1952" x="-.037964" y="-.065248" width="1.0759" height="1.1305" color-interpolation-filters="sRGB"><feGaussianBlur stdDeviation="3.363"/></filter></defs>
<linearGradient id="SVGID_1_" x1="679.6" x2="920.18" y1="10.765" y2="10.765" gradientTransform="rotate(180 649.89 169.77)" gradientUnits="userSpaceOnUse">
	<stop stop-color="#85CBDD" offset=".098901"/>
	<stop stop-color="#60C0D4" offset=".2532"/>
	<stop stop-color="#36B9CD" offset=".4011"/>
	<stop stop-color="#2DB0C6" offset=".4997"/>
	<stop stop-color="#0E9BB5" offset=".6808"/>
	<stop stop-color="#0094AF" offset=".7363"/>
</linearGradient>
<g transform="translate(.37687 .018386)"><path d="m134.94 9.0485c-69.533 0-125.92 56.391-125.92 125.92s56.391 125.92 125.92 125.92c69.587 0 125.92-56.391 125.92-125.92 0.0539-69.533-56.338-125.92-125.92-125.92z" fill="url(#XMLID_8_-1)" stroke-width=".5386"/><g transform="matrix(.5386 0 0 .5386 35.417 296.76)" clip-path="url(#clipPath1658)" fill="#757576" filter="url(#filter1583)"><path d="m3.3998-127.63c11.8 1.5 23.5 2.2 34.9 2.2 16.4 0 32.3-1.2 47.1-2.7 48.2-4.9 95.9-15.7 141.3-31.4 16.1-5.6 45.1-16.4 72.3-32.1 13.7-8 27-17 38.5-29 5.7-6 11.1-12.9 15.3-21.2s7.2-18.3 7.2-29.2c0.2-20.3-10.8-38.9-25.3-51.7-19.3-17.4-41.8-28-63.8-36s-43.9-13.3-62.3-18.1c-33.8-8.8-58.2-14.4-83.6-19.6 15.3-9.2 32.7-17.8 51.6-25 45.7-17.6 100.1-28.4 154.7-28.4 10.2 0 20.5 0.4 30.7 1.1l25.9 2c29.7 41.2 47.2 91.7 47.2 146.3 0 138.4-112.2 250.6-250.6 250.6-71.1 0-135.5-29.9-181.1-77.8zm-26.8-77.8c26.8 10.2 47.6 10.4 61.6 10.9 13.1 0.5 26.9 0 40.4-1.4 42.6-4.3 85.3-14 125.9-28 9-3.1 23.5-8.5 38.2-15.3 14.7-6.7 29.7-15.1 39.2-22.8 4.3-3.3 7.3-6.5 8.9-8.6-0.5-0.5-1-1.1-1.8-1.7-9.1-8.3-23.7-16.1-41.1-22.4s-37.2-11.3-56.2-16.2c-60.3-15.6-86.7-20.4-149.2-31.7 0 0-41.5-6.4-41.3-7.2 27.8-80.3 153-158.8 308.6-167.7-36.8-21.3-79.3-33.5-124.9-33.5-138.4 0-250.6 112.2-250.6 250.6 0 18.5 3.1 36.5 8.3 53.6 6.8 20 16.4 34.8 34 41.4z"/><path d="m260-442.63c48.5 36.1 70.9 99.7 77.7 122.7-19.2-18.5-44.7-30.9-66.7-38.8-22-8-43.9-13.3-62.3-18.1-33.8-8.8-58.2-14.4-83.6-19.6 15.3-9.2 32.7-17.8 51.7-25 25.1-9.7 52.9-17.3 81.9-22.2 0 0 0.8 0.6 1.3 1z" opacity=".17"/><path d="m51.6-125.63c-4.1 0.1-9.4 0.3-13.5 0.3-11.4 0-23.1-0.7-34.9-2.2 45.6 47.9 110 77.8 181.4 77.8 40 0 77.8-9.4 111.4-26.1 40.1-55.9 46.1-115.3 47.9-152.1-2.1 2.6-4.2 5.1-6.5 7.4-11.5 12-24.9 21.1-38.5 29-23.4 13.5-48.2 23.4-64.9 29.5-14.4 27.6-45.1 48.8-77.4 55.6-21 4.4-56.6 5.5-104.4-18.8z" opacity=".31"/><path d="m-57.5-246.73c4.8 14 11.9 28.1 24.6 36.5 7.2 4.8 15.7 7.3 23.9 9.6 8 2.2 16.2 3.8 24.5 4.7-10.6-24.7-17.8-50.7-20.3-77.5-1.2-13.3-1.4-26.7-0.3-39.9 1-12.1 2.6-24.8 6.2-36.4 3.4-10.9 9.2-21.3 15.5-30.8 7.2-11 15.7-21 24.9-30.3 18.6-18.8 40.3-34.7 63.2-47.9 29.1-16.7 60.1-29.5 92.2-39.2-19.6-15.1-44.1-24.1-68.1-29.1-11.2-2.3-22.6-3.7-34.1-3.6-2.5 0-4.9 0.1-7.4 0.3-0.9 0.1-2.3 0-3.1 0.3-1.6 0.7-3.1 1.4-4.7 2.1-5.9 2.7-11.7 5.7-17.4 8.9-45.3 25.5-82.2 65.1-104.3 112.2-10.6 22.6-17.8 46.8-21.2 71.6-3.7 26.4-3.3 53.2 3.3 79.1 0.8 3.2 1.6 6.3 2.6 9.4" opacity=".31"/><path d="m388.2-446.63-25.9-2c-10.2-0.7-20.4-1.1-30.7-1.1-24.5 0-49 2.2-72.7 6.2 29.4 20.8 61.7 65 79 123.7h-0.1v0.1c-0.1-0.1-0.2-0.1-0.2-0.2 13.1 12.7 22.6 30.2 22.5 49.1 0 10.9-3 20.9-7.2 29.2-2.6 5.1-5.6 9.7-8.9 13.8-1.8 36.8-7.7 96.3-47.9 152.1 82.5-41 139.2-126.1 139.2-224.5 0.1-54.7-17.4-105.2-47.1-146.4z" opacity=".15"/></g></g><polygon transform="matrix(2.1127 0 0 2.1127 -499.01 -491.83)" points="379.6 343 379.6 314.5 620.2 314.5 620.2 343.1" fill="url(#SVGID_1_)"/>
<g transform="matrix(2.1127 0 0 2.1127 -499.01 -491.83)" fill="#fff">
	<path d="m404 265.4c-0.3 0.8-10.3 27.4-10.3 27.4s-10-26.6-10.3-27.4h-12.4c0.7 1.6 18.1 42.1 18.4 42.8h8.5c0.3-0.7 17.7-41.2 18.4-42.8h-12.3z"/>
	<path d="m424.1 265.4v42.6h12v-42.6h-12z"/>
	<path d="m462 265.4c-0.3 0.7-17.7 41.2-18.4 42.8h12.4c0.2-0.7 1.8-4.8 1.8-4.8h17s1.6 4.1 1.8 4.8h12.3c-0.7-1.6-18.1-42.1-18.4-42.8h-8.5zm4.2 15.4 5.5 14.7h-11z"/>
	<path d="m554.2 265.4c-0.3 0.7-17.7 41.2-18.4 42.8h12.4c0.2-0.7 1.8-4.8 1.8-4.8h17s1.5 4.1 1.8 4.8h12.3c-0.7-1.6-18.1-42.1-18.4-42.8h-8.5zm4.3 15.4 5.5 14.7h-11z"/>
	<path d="m509.2 265.1c-10.8 0-16 3.6-16 11v5.1c0 3.9 1.6 6.8 4.4 8.2 2.1 1.1 4.6 1.4 11 1.4h8.4c2.7 0 3.8 1 3.8 3.6v0.6c0 2.6-1.1 3.7-3.8 3.7h-9.2c-1.4 0-2.3-0.3-2.9-0.9-0.5-0.5-0.7-1.2-0.8-2.1-1 0-9.8 0.4-10.9 0.4 1.3 8.8 5.7 12.1 15.9 12.1h6.7c10.8 0 16-3.6 16-11v-5.1c0-3.9-1.6-6.8-4.4-8.2-2.2-1.1-4.6-1.4-11.1-1.4h-8.4c-2.7 0-3.8-1-3.8-3.6v-0.6c0-2.6 1.1-3.7 3.8-3.7h9.2c1.4 0 2.3 0.3 2.9 0.9 0.5 0.5 0.7 1.2 0.8 2 1.1-0.1 9.8-0.8 10.9-0.9-1.7-8.5-5.9-11.6-15.9-11.6h-6.6z"/>
	<path d="m577.8 265.4v10.2h15.3v32.4h12v-32.4h15.3v-10.2h-42.6z"/>
</g>
<g transform="matrix(2.1127 0 0 2.1127 -499.01 -491.83)" fill="#fff">
	<path d="m400.9 338.5v-7.1h-8.1v7.1h-7.1v-19.6h7.1v7.1h8.1v-7.1h7v19.6z"/>
	<path d="m423.4 338.9c-8.8 0-12.3-4.5-12.3-10.2s3.6-10.1 12.3-10.1c8.8 0 12.3 4.4 12.3 10.1s-3.5 10.2-12.3 10.2zm0-15c-3.7 0-4.9 1.4-4.9 4.8s1.2 4.9 4.9 4.9 4.9-1.5 4.9-4.9-1.1-4.8-4.9-4.8z"/>
	<path d="m456.5 324.6c-1.5-0.4-3.3-0.7-5.5-0.7-4.6 0-5.6 1.3-5.6 4.8 0 3.6 1.1 4.9 5.6 4.9 2 0 3.9-0.4 5.4-0.9l0.8 4.8c-2.1 0.9-4.7 1.5-7.1 1.5-7.9 0-12.2-3.9-12.2-10.2 0-5.8 4-10.2 13-10.2 2.3 0 4.6 0.4 6.3 0.9z"/>
	<path d="m475.4 338.5-5.7-7.4h-2.5v7.4h-7.1v-19.6h7.1v7.1h2.6l5.6-7.1h8.2l-8 9.2 8.5 10.4z"/>
	<path d="m505.6 333.3-0.1 5.2h-19.2v-19.6h18.8l0.1 5.3h-11.9v2.2h9.8v4.5h-9.8v2.5h12.3z"/>
	<path d="m514.6 318.9 5.2 7.7 5.2-7.7h7.8l-9.5 13.1v6.5h-7.2v-6.5l-9.6-13.1z"/>
</g>
<path d="m37.606 228.17c6.338 0.84508 12.676 1.2676 18.803 1.2676 8.8732 0 17.324-0.6338 25.352-1.4789 25.986-2.7465 51.549-8.4507 75.845-16.901 8.662-2.9578 24.296-8.8732 38.873-17.324 7.3944-4.2254 14.577-9.0845 20.704-15.634 3.169-3.169 5.9155-6.9718 8.2394-11.408 2.324-4.4366 3.8028-9.9296 3.8028-15.634 0-10.986-5.7042-20.916-13.521-27.887-10.352-9.2958-22.394-15-34.225-19.437-11.831-4.2254-23.662-7.1831-33.38-9.7183-18.169-4.6479-31.268-7.8169-45-10.563 8.2394-5.0704 17.535-9.507 27.676-13.521 24.507-9.507 53.873-15.423 83.028-15.423 5.493 0 10.986 0.21127 16.479 0.6338l13.944 1.0563c15.845 22.183 25.352 49.225 25.352 78.803 0 74.577-60.211 135-134.58 135-38.239 0-72.887-16.056-97.394-41.831zm-14.366-41.831c14.366 5.493 25.563 5.493 33.169 5.9155 6.9718 0.21127 14.366 0 21.761-0.84507 22.817-2.3239 45.845-7.6056 67.606-15 4.8592-1.6901 12.676-4.6479 20.493-8.2394 7.8169-3.5916 16.056-8.2394 21.127-12.254 2.324-1.6901 3.8028-3.5916 4.8592-4.6479-0.21127-0.21126-0.6338-0.6338-0.84507-0.84507-4.8592-4.4366-12.676-8.662-22.183-12.042-9.2958-3.3803-20.07-6.1268-30.211-8.662-32.324-8.4507-46.479-10.986-80.07-17.113 0 0-22.394-3.3803-22.183-3.8028 15-43.31 82.183-85.563 165.63-90.423-19.859-11.408-42.676-17.958-67.183-17.958-74.366 0-134.58 60.423-134.58 135 0 9.9296 1.6901 19.648 4.4366 28.944 3.5915 10.352 8.662 18.38 18.169 21.972z" fill="url(#SVGID_5_)" stroke-width="2.1127"/><path d="m37.606 228.17c6.338 0.84508 12.676 1.2676 18.803 1.2676 8.8732 0 17.324-0.6338 25.352-1.4789 25.986-2.7465 51.549-8.4507 75.845-16.901 8.662-2.9578 24.296-8.8732 38.873-17.324 7.3944-4.2254 14.577-9.0845 20.704-15.634 3.169-3.169 5.9155-6.9718 8.2394-11.408 2.324-4.4366 3.8028-9.9296 3.8028-15.634 0-10.986-5.7042-20.916-13.521-27.887-10.352-9.2958-22.394-15-34.225-19.437-11.831-4.2254-23.662-7.1831-33.38-9.7183-18.169-4.6479-31.268-7.8169-45-10.563 8.2394-5.0704 17.535-9.507 27.676-13.521 24.507-9.507 53.873-15.423 83.028-15.423 5.493 0 10.986 0.21127 16.479 0.6338l13.944 1.0563c15.845 22.183 25.352 49.225 25.352 78.803 0 74.577-60.211 135-134.58 135-38.239 0-72.887-16.056-97.394-41.831zm-14.366-41.831c14.366 5.493 25.563 5.493 33.169 5.9155 6.9718 0.21127 14.366 0 21.761-0.84507 22.817-2.3239 45.845-7.6056 67.606-15 4.8592-1.6901 12.676-4.6479 20.493-8.2394 7.8169-3.5916 16.056-8.2394 21.127-12.254 2.324-1.6901 3.8028-3.5916 4.8592-4.6479-0.21127-0.21126-0.6338-0.6338-0.84507-0.84507-4.8592-4.4366-12.676-8.662-22.183-12.042-9.2958-3.3803-20.07-6.1268-30.211-8.662-32.324-8.4507-46.479-10.986-80.07-17.113 0 0-22.394-3.3803-22.183-3.8028 15-43.31 82.183-85.563 165.63-90.423-19.859-11.408-42.676-17.958-67.183-17.958-74.366 0-134.58 60.423-134.58 135 0 9.9296 1.6901 19.648 4.4366 28.944 3.5915 10.352 8.662 18.38 18.169 21.972z" fill="url(#SVGID_6_)" opacity=".48" stroke-width="2.1127"/><path d="m63.592 229.23c-2.1127 0-5.0704 0.21127-7.1831 0.21127-6.1268 0-12.465-0.42253-18.803-1.2676 24.507 25.775 59.155 41.831 97.394 41.831 21.549 0 41.831-5.0704 59.789-14.155 21.549-30 24.718-62.113 25.563-81.972-1.0563 1.4789-2.3239 2.7465-3.3803 4.0141-6.1268 6.5493-13.31 11.408-20.704 15.634-12.676 7.3944-25.775 12.676-34.859 15.845-7.8169 14.789-24.296 26.197-41.62 30-11.197 2.3239-30.423 2.9577-55.986-10.141z" fill="url(#SVGID_7_)" opacity=".31" stroke-width="2.1127"/><path d="m82.394 11.408c1.2676 0 2.7465-0.21127 4.0141-0.21127 6.1268 0 12.254 0.6338 18.38 1.9014 11.831 2.3239 23.662 6.7606 33.592 13.521 0.6338 0.42254 1.0563 0.84507 1.6901 1.0563 0.42254 0.42254 0.84507 0.6338 1.2676 0.84507l1.2676-0.42254c1.4789-0.42254 2.9578-0.84507 4.4366-1.2676 0.84507-0.21127 1.6901-0.42254 2.5352-0.6338 1.4789-0.42254 2.9578-0.84507 4.4366-1.0563 0.84507-0.21127 1.6901-0.42254 2.5352-0.6338 1.6901-0.42254 3.169-0.6338 4.8592-1.0563 0.84507-0.21127 1.4789-0.42254 2.3239-0.42254 1.9014-0.42254 3.5916-0.6338 5.493-1.0563 0.6338-0.21127 1.2676-0.21127 1.9014-0.42254 4.8592-0.84507 9.7183-1.4789 14.577-2.1127 5.493-0.6338 10.986-1.0563 16.479-1.4789-19.859-11.408-42.676-17.958-67.183-17.958-19.225 0-37.394 4.0141-53.873 11.408h1.2676z" fill="url(#SVGID_8_)" opacity=".57" stroke-width="2.1127"/><path d="m244.23 56.408-13.944-1.0563c-5.493-0.42254-10.986-0.6338-16.479-0.6338-13.099 0-26.408 1.2676-39.085 3.3803 15.845 11.197 33.169 35.07 42.465 66.549l-0.21127-0.21127c6.9718 6.7606 12.254 16.268 12.042 26.408 0 5.9155-1.6901 11.197-3.8028 15.634-1.4789 2.7465-2.9578 5.2817-4.8592 7.3944-0.84507 19.859-4.2254 51.761-25.563 81.972 44.366-22.183 74.789-68.028 74.789-120.85 0-29.366-9.507-56.62-25.352-78.592z" fill="url(#SVGID_9_)" opacity=".25" stroke-width="2.1127"/><path d="m104.79 13.099h-0.21127c-5.9155-1.2676-12.042-1.9014-17.958-1.9014-1.2676 0-2.7465 0-4.0141 0.21127-0.42254 0-0.84507 0-1.2676 0.21127-0.84507 0.42254-1.6901 0.84507-2.7465 1.2676-1.2676 0.6338-2.7465 1.2676-4.0141 1.9014-0.84507 0.42254-1.6901 0.84507-2.5352 1.2676-0.84507 0.42254-1.9014 1.0563-2.7465 1.4789-0.84507 0.42254-1.4789 0.84507-2.3239 1.2676-0.84507 0.6338-1.9014 1.0563-2.7465 1.6901-0.6338 0.42254-1.4789 0.84507-2.1127 1.4789-1.4789 1.0563-2.9577 2.1127-4.6479 3.169-0.6338 0.42254-1.2676 0.84507-1.9014 1.4789-0.84507 0.6338-1.6901 1.2676-2.5352 1.9014-0.6338 0.42254-1.2676 1.0563-1.9014 1.4789-0.84507 0.6338-1.6901 1.2676-2.5352 2.1127-0.6338 0.42254-1.0563 0.84507-1.4789 1.2676-1.4789 1.2676-2.9577 2.7465-4.4366 4.0141l-5.7042 5.7042c-0.84507 0.84507-1.4789 1.4789-2.1127 2.3239-0.42254 0.6338-1.0563 1.2676-1.4789 1.6901-1.2676 1.4789-2.3239 2.9577-3.5915 4.2254-0.6338 0.6338-1.0563 1.2676-1.4789 2.1127-0.6338 0.84507-1.2676 1.6901-1.9014 2.5352-0.6338 0.84507-1.0563 1.4789-1.6901 2.3239-0.6338 0.84507-1.0563 1.4789-1.6901 2.3239-0.84507 1.4789-1.9014 2.7465-2.7465 4.2254-0.42254 0.6338-0.84507 1.4789-1.2676 2.1127-0.6338 0.84507-1.0563 1.9014-1.6901 2.7465-0.42254 0.84507-0.84507 1.4789-1.2676 2.3239-0.6338 1.0563-1.0563 2.1127-1.6901 3.169-0.21127 0.6338-0.6338 1.2676-0.84507 1.9014-0.84507 1.6901-1.4789 3.3803-2.3239 5.0704-0.21127 0.6338-0.6338 1.2676-0.84507 1.9014-0.42254 1.2676-1.0563 2.3239-1.4789 3.5915-0.21127 0.6338-0.42254 1.4789-0.84507 2.1127-0.42254 1.4789-1.0563 2.7465-1.4789 4.2254-0.21127 0.42254-0.21127 0.84507-0.42254 1.2676-0.6338 1.9014-1.0563 3.5916-1.4789 5.493-0.21127 0.6338-0.21127 1.2676-0.42254 1.9014-0.42254 1.4789-0.6338 2.7465-1.0563 4.2254-0.21127 0.6338-0.21127 1.2676-0.42254 1.9014-0.42254 1.6901-0.6338 3.5915-0.84507 5.2817 0 0.21126 0 0.42253-0.21127 0.6338-0.21127 1.9014-0.6338 4.0141-0.84507 5.9155 0 0.6338-0.21127 1.2676-0.21127 1.6901-0.21127 1.4789-0.21127 2.9578-0.42254 4.6479v1.9014c0 2.1127-0.21127 4.2254-0.21127 6.338 0 9.9296 1.6901 19.648 4.4366 28.944 0.42254 1.2676 0.84507 2.3239 1.2676 3.3803 0.21127 0.42254 0.21127 0.6338 0.42254 1.0563 0.42254 0.84507 0.6338 1.6901 1.0563 2.3239 0.21127 0.42254 0.21127 0.63381 0.42254 1.0563 0.42254 1.0563 1.0563 1.9014 1.6901 2.9578 0 0.21126 0.21127 0.21126 0.21127 0.42253 0.42254 0.84507 1.0563 1.6901 1.6901 2.324 0.21127 0.21126 0.42254 0.6338 0.6338 0.84507 0.42254 0.6338 0.84507 1.0563 1.4789 1.6901 0.21127 0.21127 0.42254 0.6338 0.84507 0.84507 0.6338 0.6338 1.4789 1.2676 2.1127 1.9014h0.21127c0.84507 0.6338 1.9014 1.2676 2.9577 1.9014 1.0563 0.63381 2.1127 1.0563 3.3803 1.4789 0.84507 0.42253 1.9014 0.6338 2.7465 1.0563 0.21127 0.21126 0.6338 0.21126 0.84507 0.21126l1.9014 0.63381c0.42254 0.21126 0.6338 0.21126 1.0563 0.21126 0.6338 0.21127 1.0563 0.42254 1.6901 0.42254 0.42254 0 0.6338 0.21127 1.0563 0.21127 0.6338 0.21126 1.0563 0.21126 1.6901 0.42253 0.21127 0 0.6338 0.21127 0.84507 0.21127 0.6338 0.21127 1.0563 0.21127 1.6901 0.42254 0.21127 0 0.42254 0.21126 0.84507 0.21126 0.6338 0.21127 1.0563 0.21127 1.6901 0.21127 0.21127 0 0.42254 0 0.6338 0.21127 0.6338 0 1.2676 0.21127 1.9014 0.21127h0.42254c0.6338 0 1.4789 0.21126 2.1127 0.21126-5.7042-13.31-9.507-27.254-10.986-41.62-0.6338-7.1831-0.84507-14.366-0.21127-21.549 0.42254-6.5493 1.2676-13.31 3.3803-19.648 1.4789-4.0141 3.169-8.0282 5.493-11.831 0-0.21127 0.21127-0.21127 0.21127-0.42254 0.6338-1.2676 1.4789-2.5352 2.3239-3.5916l0.21127-0.21127c0-0.21127 0.21127-0.21127 0.21127-0.42254 0.6338-0.84507 1.2676-1.6901 1.6901-2.5352 1.0563-1.6901 2.3239-3.169 3.5916-4.8592l0.21127-0.21127c0.6338-0.84507 1.2676-1.4789 1.9014-2.3239 18.803-21.972 50.282-41.62 89.155-53.239-10.141-8.0282-23.451-12.887-36.338-15.634z" fill="url(#SVGID_10_)" opacity=".34" stroke-width="2.1127"/><path transform="matrix(.5386 0 0 .5386 -76.244 -88.009)" d="m466.9 272.4c48.5 36.1 70.9 99.7 77.7 122.7-19.2-18.5-44.7-30.9-66.7-38.8-22-8-43.9-13.3-62.3-18.1-33.8-8.8-58.2-14.4-83.6-19.6 15.3-9.2 32.7-17.8 51.7-25 25.1-9.7 52.9-17.3 81.9-22.2 0 0 0.8 0.6 1.3 1z" fill="#757576" filter="url(#filter1952)" opacity=".17"/><g transform="matrix(2.1127 0 0 2.1127 -499.01 -491.83)" opacity=".17">
				<linearGradient id="SVGID_13_" x1="284.92" x2="338.95" y1="275.98" y2="275.98" gradientUnits="userSpaceOnUse">
					<stop stop-color="#76C7D1" offset="0"/>
					<stop stop-color="#74C5D0" offset=".3084"/>
					<stop stop-color="#6EBFCE" offset=".4788"/>
					<stop stop-color="#63B5C9" offset=".6156"/>
					<stop stop-color="#54A7C2" offset=".7344"/>
					<stop stop-color="#4295B9" offset=".8417"/>
					<stop stop-color="#2B7FAC" offset=".9392"/>
					<stop stop-color="#1B70A3" offset="1"/>
				</linearGradient>
				<path d="m284.9 272.3c6.4 1.3 12.6 2.7 21.2 5 4.7 1.2 10.2 2.6 15.8 4.6s11.3 4.7 16.2 9.2c0.2 0.1 0.6 0.5 0.7 0.7-1.7-6.1-7.8-22.5-20.1-31.4-7.3 1.3-14.5 3.2-20.8 5.7-4.7 1.7-9.1 3.9-13 6.2z" fill="url(#SVGID_13_)"/>
			</g>
</svg>
