<svg width="808.69" height="270" version="1.1" viewBox="0 0 808.69 270" xml:space="preserve" xmlns="http://www.w3.org/2000/svg"><defs>
			<radialGradient id="XMLID_8_-1" cx="391.74" cy="414.65" r="233.83" gradientTransform="matrix(.5386 0 0 .5386 -76.029 -88.33)" gradientUnits="userSpaceOnUse"><stop stop-color="#fff" offset=".3427"/><stop stop-color="#FDFDFC" offset=".4887"/><stop stop-color="#F8F8F2" offset=".6032"/><stop stop-color="#F5F5ED" offset=".6404"/><stop stop-color="#E8E9E1" offset=".7054"/><stop stop-color="#C6C8C3" offset=".8251"/><stop stop-color="#9DA09D" offset=".9494"/></radialGradient><clipPath id="clipPath1658"><path d="m184.78-534.18c-129.1 0-233.8 104.7-233.8 233.8s104.7 233.8 233.8 233.8c129.2 0 233.8-104.7 233.8-233.8 0.1-129.1-104.6-233.8-233.8-233.8z"/></clipPath><filter id="filter1583" x="-.048012" y="-.047988" width="1.096" height="1.096" color-interpolation-filters="sRGB"><feGaussianBlur stdDeviation="10.023391"/></filter><radialGradient id="SVGID_5_-2" cx="-1167.3" cy="895.27" r="99.072" gradientTransform="matrix(.6442 0 0 .6442 1051.5 -379.22)" gradientUnits="userSpaceOnUse"><stop stop-color="#86BC25" offset="0"/><stop stop-color="#82B926" offset=".2452"/><stop stop-color="#75AD2A" offset=".4776"/><stop stop-color="#5F9A2E" offset=".7048"/><stop stop-color="#428331" offset=".9275"/><stop stop-color="#377B32" offset="1"/></radialGradient><linearGradient id="SVGID_6_-9" x1="276.5" x2="334" y1="149.85" y2="262.26" gradientTransform="matrix(2.116 0 0 2.116 -498.38 -282.91)" gradientUnits="userSpaceOnUse"><stop stop-color="#86BC25" offset="0"/><stop stop-color="#377B32" offset=".8736"/><stop stop-color="#2B3614" offset="1"/></linearGradient><radialGradient id="SVGID_7_-2" cx="-1271.3" cy="957.83" r="148.94" gradientTransform="matrix(1.3631 0 0 1.3631 1726.7 -1085.3)" gradientUnits="userSpaceOnUse"><stop stop-color="#fff" offset="0"/><stop stop-color="#F1F6E6" offset=".055021"/><stop stop-color="#D5E5B2" offset=".1697"/><stop stop-color="#BCD682" offset=".2788"/><stop stop-color="#A7CA59" offset=".3793"/><stop stop-color="#96C23D" offset=".4693"/><stop stop-color="#8BBE2C" offset=".5455"/><stop stop-color="#86BC25" offset=".5989"/><stop stop-color="#7EB528" offset=".6824"/><stop stop-color="#67A12D" offset=".8054"/><stop stop-color="#448531" offset=".9519"/><stop stop-color="#377B32" offset="1"/></radialGradient><linearGradient id="SVGID_8_-0" x1="235.75" x2="302.63" y1="181.51" y2="181.51" gradientTransform="matrix(2.116 0 0 2.116 -498.38 -282.91)" gradientUnits="userSpaceOnUse"><stop stop-color="#fff" offset="0"/><stop stop-color="#F5F9EE" offset=".030205"/><stop stop-color="#DBE8BD" offset=".094226"/><stop stop-color="#ADCD66" offset=".186"/><stop stop-color="#86BC25" offset=".2473"/></linearGradient><linearGradient id="SVGID_9_-0" x1="284.96" x2="315.12" y1="164.04" y2="124.16" gradientTransform="matrix(2.116 0 0 2.116 -498.38 -282.91)" gradientUnits="userSpaceOnUse"><stop stop-color="#fff" offset=".0050505"/><stop stop-color="#F7F8F5" offset=".085881"/><stop stop-color="#E0E5D7" offset=".2315"/><stop stop-color="#BAC7A8" offset=".4253"/><stop stop-color="#85A16C" offset=".66"/><stop stop-color="#377B32" offset=".9286"/></linearGradient><linearGradient id="SVGID_10_-9" x1="309.97" x2="373.63" y1="230.76" y2="147" gradientTransform="matrix(2.116 0 0 2.116 -498.38 -282.91)" gradientUnits="userSpaceOnUse"><stop stop-color="#fff" offset=".0050505"/><stop stop-color="#FCFCFB" offset=".0087849"/><stop stop-color="#D6DDCB" offset=".057218"/><stop stop-color="#B3C2A0" offset=".1089"/><stop stop-color="#95AC7D" offset=".1626"/><stop stop-color="#7A9B61" offset=".2189"/><stop stop-color="#638E4C" offset=".2784"/><stop stop-color="#50853F" offset=".3423"/><stop stop-color="#437F37" offset=".4127"/><stop stop-color="#3A7B33" offset=".4946"/><stop stop-color="#377B32" offset=".6154"/></linearGradient>
				</defs>
<g transform="matrix(9.4077 0 0 9.4077 -323.06 -143.94)">
			<polygon points="120.3 40 120.3 33.6 107.1 33.6 105.8 40"/>
			<linearGradient id="SVGID_1_" x1="102.32" x2="66.612" y1="37.964" y2="35.435" gradientUnits="userSpaceOnUse">
				<stop stop-color="#8DBF2C" offset="0"/>
				<stop stop-color="#3A7A32" offset=".4231"/>
				<stop stop-color="#2D3516" offset="1"/>
			</linearGradient>
			<polygon points="66.4 40 104.7 40 106 33.6 66.4 33.6" fill="url(#SVGID_1_)"/>
	</g><g transform="translate(5.2244e-7 1.25e-6)"><g transform="translate(.62757 .23854)"><path d="m134.94 9.0485c-69.533 0-125.92 56.391-125.92 125.92s56.391 125.92 125.92 125.92c69.587 0 125.92-56.391 125.92-125.92 0.0539-69.533-56.338-125.92-125.92-125.92z" fill="url(#XMLID_8_-1)" stroke-width=".5386"/><g transform="matrix(.5386 0 0 .5386 35.417 296.76)" clip-path="url(#clipPath1658)" fill="#757576" filter="url(#filter1583)"><path d="m3.3998-127.63c11.8 1.5 23.5 2.2 34.9 2.2 16.4 0 32.3-1.2 47.1-2.7 48.2-4.9 95.9-15.7 141.3-31.4 16.1-5.6 45.1-16.4 72.3-32.1 13.7-8 27-17 38.5-29 5.7-6 11.1-12.9 15.3-21.2s7.2-18.3 7.2-29.2c0.2-20.3-10.8-38.9-25.3-51.7-19.3-17.4-41.8-28-63.8-36s-43.9-13.3-62.3-18.1c-33.8-8.8-58.2-14.4-83.6-19.6 15.3-9.2 32.7-17.8 51.6-25 45.7-17.6 100.1-28.4 154.7-28.4 10.2 0 20.5 0.4 30.7 1.1l25.9 2c29.7 41.2 47.2 91.7 47.2 146.3 0 138.4-112.2 250.6-250.6 250.6-71.1 0-135.5-29.9-181.1-77.8zm-26.8-77.8c26.8 10.2 47.6 10.4 61.6 10.9 13.1 0.5 26.9 0 40.4-1.4 42.6-4.3 85.3-14 125.9-28 9-3.1 23.5-8.5 38.2-15.3 14.7-6.7 29.7-15.1 39.2-22.8 4.3-3.3 7.3-6.5 8.9-8.6-0.5-0.5-1-1.1-1.8-1.7-9.1-8.3-23.7-16.1-41.1-22.4s-37.2-11.3-56.2-16.2c-60.3-15.6-86.7-20.4-149.2-31.7 0 0-41.5-6.4-41.3-7.2 27.8-80.3 153-158.8 308.6-167.7-36.8-21.3-79.3-33.5-124.9-33.5-138.4 0-250.6 112.2-250.6 250.6 0 18.5 3.1 36.5 8.3 53.6 6.8 20 16.4 34.8 34 41.4z"/><path d="m260-442.63c48.5 36.1 70.9 99.7 77.7 122.7-19.2-18.5-44.7-30.9-66.7-38.8-22-8-43.9-13.3-62.3-18.1-33.8-8.8-58.2-14.4-83.6-19.6 15.3-9.2 32.7-17.8 51.7-25 25.1-9.7 52.9-17.3 81.9-22.2 0 0 0.8 0.6 1.3 1z" opacity=".17"/><path d="m51.6-125.63c-4.1 0.1-9.4 0.3-13.5 0.3-11.4 0-23.1-0.7-34.9-2.2 45.6 47.9 110 77.8 181.4 77.8 40 0 77.8-9.4 111.4-26.1 40.1-55.9 46.1-115.3 47.9-152.1-2.1 2.6-4.2 5.1-6.5 7.4-11.5 12-24.9 21.1-38.5 29-23.4 13.5-48.2 23.4-64.9 29.5-14.4 27.6-45.1 48.8-77.4 55.6-21 4.4-56.6 5.5-104.4-18.8z" opacity=".31"/><path d="m-57.5-246.73c4.8 14 11.9 28.1 24.6 36.5 7.2 4.8 15.7 7.3 23.9 9.6 8 2.2 16.2 3.8 24.5 4.7-10.6-24.7-17.8-50.7-20.3-77.5-1.2-13.3-1.4-26.7-0.3-39.9 1-12.1 2.6-24.8 6.2-36.4 3.4-10.9 9.2-21.3 15.5-30.8 7.2-11 15.7-21 24.9-30.3 18.6-18.8 40.3-34.7 63.2-47.9 29.1-16.7 60.1-29.5 92.2-39.2-19.6-15.1-44.1-24.1-68.1-29.1-11.2-2.3-22.6-3.7-34.1-3.6-2.5 0-4.9 0.1-7.4 0.3-0.9 0.1-2.3 0-3.1 0.3-1.6 0.7-3.1 1.4-4.7 2.1-5.9 2.7-11.7 5.7-17.4 8.9-45.3 25.5-82.2 65.1-104.3 112.2-10.6 22.6-17.8 46.8-21.2 71.6-3.7 26.4-3.3 53.2 3.3 79.1 0.8 3.2 1.6 6.3 2.6 9.4" opacity=".31"/><path d="m388.2-446.63-25.9-2c-10.2-0.7-20.4-1.1-30.7-1.1-24.5 0-49 2.2-72.7 6.2 29.4 20.8 61.7 65 79 123.7h-0.1v0.1c-0.1-0.1-0.2-0.1-0.2-0.2 13.1 12.7 22.6 30.2 22.5 49.1 0 10.9-3 20.9-7.2 29.2-2.6 5.1-5.6 9.7-8.9 13.8-1.8 36.8-7.7 96.3-47.9 152.1 82.5-41 139.2-126.1 139.2-224.5 0.1-54.7-17.4-105.2-47.1-146.4z" opacity=".15"/></g></g><g transform="matrix(2.116 0 0 2.116 -498.38 -282.91)"><path d="m253.4 241.5c3 0.4 6 0.6 8.9 0.6 4.2 0 8.2-0.3 12-0.7 12.3-1.2 24.4-4 36-8 4.1-1.4 11.5-4.2 18.4-8.2 3.5-2 6.9-4.3 9.8-7.4 1.5-1.5 2.8-3.3 3.9-5.4s1.8-4.7 1.8-7.4c0-5.2-2.7-9.9-6.4-13.2-4.9-4.4-10.7-7.1-16.2-9.2-5.6-2-11.2-3.4-15.9-4.6-8.6-2.2-14.8-3.7-21.3-5 3.9-2.4 8.3-4.5 13.2-6.4 11.6-4.5 25.5-7.2 39.4-7.2 2.6 0 5.2 0.1 7.8 0.3l6.6 0.5c7.6 10.5 12 23.3 12 37.3 0 35.3-28.6 63.8-63.8 63.8-18.2 0-34.6-7.6-46.2-19.8zm-6.9-19.8c6.8 2.6 12.1 2.6 15.7 2.8 3.3 0.1 6.9 0 10.3-0.4 10.8-1.1 21.7-3.6 32.1-7.1 2.3-0.8 6-2.2 9.7-3.9s7.6-3.8 10-5.8c1.1-0.8 1.8-1.7 2.3-2.2l-0.4-0.4c-2.3-2.1-6-4.1-10.5-5.7-4.4-1.6-9.5-2.9-14.3-4.1-15.3-4-22.1-5.2-38-8.1 0 0-10.6-1.6-10.5-1.8 7.1-20.4 39-40.4 78.6-42.7-9.4-5.4-20.2-8.5-31.8-8.5-35.2 0-63.8 28.6-63.8 63.8 0 4.7 0.8 9.3 2.1 13.7 1.6 4.9 4.1 8.7 8.5 10.4z" fill="url(#SVGID_5_-2)"/></g><path d="m37.809 228.1c6.348 0.8464 12.696 1.2696 18.832 1.2696 8.8871 0 17.351-0.63479 25.392-1.4812 26.027-2.5392 51.63-8.464 76.176-16.928 8.6756-2.9624 24.334-8.8871 38.934-17.351 7.406-4.232 14.6-9.0988 20.737-15.658 3.174-3.174 5.9248-6.9828 8.2524-11.426 2.3276-4.4436 3.8088-9.9452 3.8088-15.658 0-11.003-5.7132-20.948-13.542-27.931-10.368-9.3103-22.641-15.024-34.279-19.467-11.85-4.232-23.699-7.1944-33.644-9.7335-18.197-4.6552-31.317-7.8292-45.071-10.58 8.2524-5.0784 17.563-9.5219 27.931-13.542 24.545-9.5219 53.958-15.235 83.37-15.235 5.5016 0 11.003 0.2116 16.505 0.6348l13.966 1.058c16.082 22.218 25.392 49.303 25.392 78.926 0 74.694-60.517 135-135 135-38.511 0-73.213-16.082-97.759-41.897z" fill="none" stroke-width="2.116"/><path d="m37.809 228.1c6.348 0.8464 12.696 1.2696 18.832 1.2696 8.8871 0 17.351-0.63479 25.392-1.4812 26.027-2.5392 51.63-8.464 76.176-16.928 8.6756-2.9624 24.334-8.8871 38.934-17.351 7.406-4.232 14.6-9.0988 20.737-15.658 3.174-3.174 5.9248-6.9828 8.2524-11.426 2.3276-4.4436 3.8088-9.9452 3.8088-15.658 0-11.003-5.7132-20.948-13.542-27.931-10.368-9.3103-22.641-15.024-34.279-19.467-11.85-4.232-23.699-7.1944-33.644-9.7335-18.197-4.6552-31.317-7.8292-45.071-10.58 8.2524-5.0784 17.563-9.5219 27.931-13.542 24.545-9.5219 53.958-15.235 83.37-15.235 5.5016 0 11.003 0.2116 16.505 0.6348l13.966 1.058c16.082 22.218 25.392 49.303 25.392 78.926 0 74.483-60.517 135-135 135-38.511 0-73.213-16.082-97.759-41.897zm-14.6-41.897c14.389 5.5016 25.603 5.5016 33.221 5.9248 6.9828 0.2116 14.6 0 21.795-0.84639 22.853-2.3276 45.917-7.6176 67.923-15.024 4.8668-1.6928 12.696-4.6552 20.525-8.2524 7.8292-3.5972 16.082-8.0408 21.16-12.273 2.3276-1.6928 3.8088-3.5972 4.8668-4.6552-0.2116-0.2116-0.6348-0.6348-1.058-0.8464-4.8668-4.4436-12.696-8.6756-22.218-12.061-9.3104-3.3856-20.102-6.1364-30.259-8.6756-32.375-8.464-46.763-11.003-80.408-17.139 0 0-22.429-3.3856-22.218-3.8088 15.024-43.166 82.524-85.486 166.32-90.353-19.89-11.426-42.743-17.986-67.288-17.986-74.483 0-135 60.517-135 135 0 9.9451 1.6928 19.679 4.4436 28.989 3.5972 10.368 8.6755 18.409 18.197 22.006z" fill="url(#SVGID_6_-9)" opacity=".48" stroke-width="2.116"/><path d="m63.624 229.16c-2.116 0-5.0784 0.21159-7.1944 0.21159-6.1364 0-12.484-0.42319-18.832-1.2696 24.545 25.815 59.248 41.897 97.759 41.897 21.583 0 41.897-5.0784 60.094-13.966 21.583-30.047 24.757-62.21 25.815-81.889-1.058 1.4812-2.3276 2.7508-3.3856 4.0204-6.1364 6.5596-13.331 11.426-20.737 15.658-12.696 7.1944-26.027 12.696-34.914 15.87-7.8292 14.812-24.334 26.238-41.685 29.835-11.215 2.3276-30.47 2.9624-56.285-10.157z" fill="url(#SVGID_7_-2)" opacity=".31" stroke-width="2.116"/><path d="m4.7996 163.99c2.5392 7.6176 6.348 15.235 13.331 19.679 3.8088 2.5392 8.464 4.0204 12.908 5.0784 4.232 1.2696 8.6755 2.116 13.119 2.5392-5.7132-13.331-9.5219-27.296-11.003-41.685-0.6348-7.1944-0.8464-14.389-0.2116-21.583 0.6348-6.5596 1.4812-13.331 3.3856-19.679 1.9044-5.9248 4.8668-11.426 8.2524-16.505 3.8088-5.9248 8.464-11.426 13.331-16.293 9.9451-10.157 21.795-18.621 34.067-25.815 15.658-9.0987 32.375-15.87 49.726-21.16-10.58-8.0408-23.699-12.908-36.818-15.658-5.9248-1.2696-12.273-1.9044-18.409-1.9044-1.2696 0-2.7508 0-4.0204 0.2116-0.4232 0-1.2696 0-1.6928 0.2116-0.8464 0.4232-1.6928 0.8464-2.5392 1.058-3.174 1.4812-6.348 3.174-9.3103 4.8668-24.334 13.754-44.224 35.125-56.285 60.517-5.7132 12.273-9.5219 25.18-11.426 38.511-1.9044 14.177-1.6928 28.566 1.6928 42.531 1.058 1.6928 1.4812 3.3856 1.9044 5.0784" fill="url(#SVGID_8_-0)" opacity=".34" stroke-width="2.116"/><path d="m130.28 21.371c4.232 2.116 8.2524 4.6552 11.85 7.1944h-0.2116c18.832-5.7132 39.357-9.3103 60.94-10.58-19.89-11.426-42.743-17.986-67.288-17.986-19.255 0-37.665 4.0204-54.169 11.215 13.966-1.4812 33.433 2.5392 48.879 10.157z" fill="url(#SVGID_9_-0)" opacity=".57" stroke-width="2.116"/><path d="m245.18 56.285-13.966-1.058c-5.5016-0.4232-11.003-0.6348-16.505-0.6348-13.119 0-26.45 1.2696-39.146 3.3856 15.87 11.215 33.221 35.125 42.531 66.654l-0.2116-0.2116c6.9828 6.7712 12.273 16.293 12.061 26.45 0 5.9248-1.6928 11.215-3.8088 15.658-1.4812 2.7508-2.9624 5.29-4.8668 7.406-1.058 19.89-4.232 51.842-25.815 81.889 44.436-22.006 75.118-67.923 75.118-121.03 0-29.201-9.522-56.285-25.392-78.503z" fill="url(#SVGID_10_-9)" opacity=".25" stroke-width="2.116"/></g><path d="m353.36 69.617c-0.94077 1.8815-21.638 57.387-21.638 57.387s-20.697-56.446-21.638-57.387h-26.341c0.94077 3.7631 37.631 88.432 38.571 90.314h17.875c0.94076-0.94077 37.631-86.551 38.571-90.314h-25.401z" stroke-width="9.4077"/><path d="m395.69 69.617v89.373h25.401v-89.373h-25.401z" stroke-width="9.4077"/><path d="m475.65 69.617c-0.94077 1.8815-37.631 86.551-38.571 90.314h26.341c0.94076-0.94077 3.7631-10.348 3.7631-10.348h35.749s2.8223 8.4669 3.7631 10.348h26.341c-0.94077-3.7631-37.631-88.432-38.571-90.314h-18.815zm8.4669 31.986 11.289 31.045h-23.519z" stroke-width="9.4077"/><path d="m669.45 69.617c-0.94077 1.8815-37.631 86.551-38.571 90.314h26.341c0-0.94077 3.7631-10.348 3.7631-10.348h35.749s2.8223 8.4669 3.7631 10.348h26.341c-1.8815-3.7631-37.631-88.432-38.571-90.314h-18.815zm9.4077 31.986 11.289 31.045h-23.519z" stroke-width="9.4077"/><path d="m575.38 68.676c-22.578 0-33.868 7.5261-33.868 23.519v10.348c0 8.4669 3.7631 14.111 9.4077 16.934 4.7038 1.8815 9.4077 2.8223 23.519 2.8223h17.875c5.6446 0 7.5261 1.8815 7.5261 7.5261v0.94077c0 5.6446-2.8223 7.5261-7.5261 7.5261h-18.815c-2.8223 0-4.7038-0.94077-6.5854-1.8815-0.94077-0.94077-1.8815-2.8223-1.8815-4.7038-1.8815 0-20.697 0.94077-22.578 0.94077 2.8223 18.815 12.23 25.401 33.868 25.401h13.171c22.578 0 33.868-7.5261 33.868-23.519v-10.348c0-8.4669-2.8223-14.112-9.4077-16.934-4.7038-1.8815-9.4077-2.8223-23.519-2.8223h-17.875c-5.6446 0-7.5261-1.8815-7.5261-7.5261v-0.94077c0-5.6446 2.8223-7.5261 7.5261-7.5261h19.756c2.8223 0 4.7038 0.94076 5.6446 1.8815 0.94077 0.94077 1.8815 2.8223 1.8815 4.7038 1.8815 0 20.697-1.8815 22.578-1.8815-3.7631-17.875-12.23-24.46-33.868-24.46z" stroke-width="9.4077"/><path d="m719.31 69.617v21.638h31.986v67.735h25.401v-67.735h31.986v-21.638h-89.373z" stroke-width="9.4077"/><g transform="matrix(9.4077 0 0 9.4077 -323.06 -143.94)" fill="#fff">
				<path d="m69.4 35.8v0.6h2.2v1.1h-2.2v1.5h-1.6v-4.4h4.2v1.2z"/>
				<path d="m75.3 39.1c-2 0-2.8-1-2.8-2.3s0.8-2.3 2.8-2.3 2.8 1 2.8 2.3-0.8 2.3-2.8 2.3zm0-3.4c-0.8 0-1.1 0.3-1.1 1.1s0.3 1.1 1.1 1.1 1.1-0.3 1.1-1.1-0.2-1.1-1.1-1.1z"/>
				<path d="m81.5 35.8v3.2h-1.5v-3.2h-1.5v-1.2h4.6v1.2z"/>
				<path d="m86.4 39h-2.7v-4.4h2.6c1.3 0 1.9 0.5 1.9 1.2 0 0.5-0.3 0.8-0.7 0.9 0.6 0.2 0.9 0.5 0.9 1 0.1 0.8-0.5 1.3-2 1.3zm0-1.7h-1.1v0.7h1.2c0.4 0 0.6-0.1 0.6-0.3-0.1-0.3-0.3-0.4-0.7-0.4zm-0.1-1.6h-1.1v0.6h1.1c0.3 0 0.5-0.1 0.5-0.3s-0.1-0.3-0.5-0.3z"/>
				<path d="m91.9 39.1c-2 0-2.8-1-2.8-2.3s0.8-2.3 2.8-2.3 2.8 1 2.8 2.3-0.8 2.3-2.8 2.3zm0-3.4c-0.8 0-1.1 0.3-1.1 1.1s0.3 1.1 1.1 1.1 1.1-0.3 1.1-1.1-0.2-1.1-1.1-1.1z"/>
				<path d="m99.5 37.8v1.2h-4v-4.4h1.6v3.2z"/>
				<path d="m104.2 37.8v1.2h-4v-4.4h1.6v3.2z"/>
			</g><g transform="matrix(9.4077 0 0 9.4077 -323.06 -143.94)" fill="#fff">
		<path d="m111.2 37.3h-2l-0.4 1.8h-1.7l0.9-4.4h1.7l-0.3 1.5h1.9l0.3-1.5h1.7l-0.9 4.4h-1.7z"/>
		<path d="m114.3 34.6h3.4c1.5 0 2.2 0.6 1.8 2.2-0.3 1.5-1.3 2.2-2.7 2.2h-3.4zm1.1 3.3h1c0.8 0 1.2-0.4 1.3-1.1s-0.1-1.1-0.9-1.1h-1z"/>
	</g>
</svg>
