<svg width="813.53" height="270" version="1.1" viewBox="0 0 813.53 270" xml:space="preserve" xmlns="http://www.w3.org/2000/svg"><defs>
	<linearGradient id="SVGID_7_" x1="395.49" x2="452.99" y1="149.89" y2="262.3" gradientTransform="matrix(2.1143 0 0 2.1143 -749.81 -282.69)" gradientUnits="userSpaceOnUse">
		<stop stop-color="#5AA7DC" offset="0"/>
		<stop stop-color="#1E1C40" offset="1"/>
	</linearGradient>
		<radialGradient id="SVGID_8_" cx="-1086.6" cy="957.88" r="148.94" gradientTransform="matrix(1.3621 0 0 1.3621 1473.5 -1084.5)" gradientUnits="userSpaceOnUse">
		<stop stop-color="#fff" offset="0"/>
		<stop stop-color="#F9FBFE" offset=".1182"/>
		<stop stop-color="#E8F0FB" offset=".2923"/>
		<stop stop-color="#CCDEF4" offset=".501"/>
		<stop stop-color="#A0C6EA" offset=".7364"/>
		<stop stop-color="#5DA8DD" offset=".9913"/>
		<stop stop-color="#5AA7DC" offset="1"/>
	</radialGradient>
	<linearGradient id="SVGID_9_" x1="359.82" x2="469.99" y1="199.75" y2="111.49" gradientTransform="matrix(2.1143 0 0 2.1143 -749.81 -282.69)" gradientUnits="userSpaceOnUse">
		<stop stop-color="#fff" offset="0"/>
		<stop stop-color="#5AA7DC" offset=".6099"/>
	</linearGradient>
	<linearGradient id="SVGID_10_" x1="403.95" x2="434.11" y1="164.08" y2="124.2" gradientTransform="matrix(2.1143 0 0 2.1143 -749.81 -282.69)" gradientUnits="userSpaceOnUse">
		<stop stop-color="#fff" offset=".0050505"/>
		<stop stop-color="#E0E0EF" offset=".040256"/>
		<stop stop-color="#B9BCD9" offset=".090736"/>
		<stop stop-color="#959CC4" offset=".1464"/>
		<stop stop-color="#7581B3" offset=".2061"/>
		<stop stop-color="#5B6DA5" offset=".271"/>
		<stop stop-color="#455E9B" offset=".3427"/>
		<stop stop-color="#345393" offset=".4242"/>
		<stop stop-color="#284D8E" offset=".5213"/>
		<stop stop-color="#20498B" offset=".6492"/>
		<stop stop-color="#1D488A" offset=".9286"/>
	</linearGradient>
	<linearGradient id="SVGID_11_" x1="428.96" x2="492.61" y1="230.8" y2="147.04" gradientTransform="matrix(2.1143 0 0 2.1143 -749.81 -282.69)" gradientUnits="userSpaceOnUse">
		<stop stop-color="#fff" offset=".0050505"/>
		<stop stop-color="#D2D4E7" offset=".052971"/>
		<stop stop-color="#AAAED0" offset=".1038"/>
		<stop stop-color="#868EBC" offset=".1581"/>
		<stop stop-color="#6675AB" offset=".2149"/>
		<stop stop-color="#4C639E" offset=".275"/>
		<stop stop-color="#385695" offset=".3396"/>
		<stop stop-color="#2A4E8F" offset=".4107"/>
		<stop stop-color="#20498B" offset=".4934"/>
		<stop stop-color="#1D488A" offset=".6154"/>
	</linearGradient>
	<filter id="filter1952" x="-.037964" y="-.065248" width="1.0759" height="1.1305" color-interpolation-filters="sRGB"><feGaussianBlur stdDeviation="3.363"/></filter><radialGradient id="XMLID_8_-1" cx="391.74" cy="414.65" r="233.83" gradientTransform="matrix(.5386 0 0 .5386 -76.029 -88.33)" gradientUnits="userSpaceOnUse"><stop stop-color="#fff" offset=".3427"/><stop stop-color="#FDFDFC" offset=".4887"/><stop stop-color="#F8F8F2" offset=".6032"/><stop stop-color="#F5F5ED" offset=".6404"/><stop stop-color="#E8E9E1" offset=".7054"/><stop stop-color="#C6C8C3" offset=".8251"/><stop stop-color="#9DA09D" offset=".9494"/></radialGradient><clipPath id="clipPath1658"><path d="m184.78-534.18c-129.1 0-233.8 104.7-233.8 233.8s104.7 233.8 233.8 233.8c129.2 0 233.8-104.7 233.8-233.8 0.1-129.1-104.6-233.8-233.8-233.8z"/></clipPath><filter id="filter1583" x="-.048012" y="-.047988" width="1.096" height="1.096" color-interpolation-filters="sRGB"><feGaussianBlur stdDeviation="10.023391"/></filter></defs>
<linearGradient id="SVGID_1_" x1="717.27" x2="500.08" y1="236.44" y2="221.05" gradientTransform="matrix(2.1143 0 0 2.1143 -749.81 -282.69)" gradientUnits="userSpaceOnUse">
	<stop stop-color="#5AA7DC" offset="0"/>
	<stop stop-color="#1D488A" offset=".4176"/>
	<stop stop-color="#1E1C40" offset="1"/>
</linearGradient>
<g transform="translate(.30997 .13265)"><path d="m134.94 9.0485c-69.533 0-125.92 56.391-125.92 125.92s56.391 125.92 125.92 125.92c69.587 0 125.92-56.391 125.92-125.92 0.0539-69.533-56.338-125.92-125.92-125.92z" fill="url(#XMLID_8_-1)" stroke-width=".5386"/><g transform="matrix(.5386 0 0 .5386 35.417 296.76)" clip-path="url(#clipPath1658)" fill="#757576" filter="url(#filter1583)"><path d="m3.3998-127.63c11.8 1.5 23.5 2.2 34.9 2.2 16.4 0 32.3-1.2 47.1-2.7 48.2-4.9 95.9-15.7 141.3-31.4 16.1-5.6 45.1-16.4 72.3-32.1 13.7-8 27-17 38.5-29 5.7-6 11.1-12.9 15.3-21.2s7.2-18.3 7.2-29.2c0.2-20.3-10.8-38.9-25.3-51.7-19.3-17.4-41.8-28-63.8-36s-43.9-13.3-62.3-18.1c-33.8-8.8-58.2-14.4-83.6-19.6 15.3-9.2 32.7-17.8 51.6-25 45.7-17.6 100.1-28.4 154.7-28.4 10.2 0 20.5 0.4 30.7 1.1l25.9 2c29.7 41.2 47.2 91.7 47.2 146.3 0 138.4-112.2 250.6-250.6 250.6-71.1 0-135.5-29.9-181.1-77.8zm-26.8-77.8c26.8 10.2 47.6 10.4 61.6 10.9 13.1 0.5 26.9 0 40.4-1.4 42.6-4.3 85.3-14 125.9-28 9-3.1 23.5-8.5 38.2-15.3 14.7-6.7 29.7-15.1 39.2-22.8 4.3-3.3 7.3-6.5 8.9-8.6-0.5-0.5-1-1.1-1.8-1.7-9.1-8.3-23.7-16.1-41.1-22.4s-37.2-11.3-56.2-16.2c-60.3-15.6-86.7-20.4-149.2-31.7 0 0-41.5-6.4-41.3-7.2 27.8-80.3 153-158.8 308.6-167.7-36.8-21.3-79.3-33.5-124.9-33.5-138.4 0-250.6 112.2-250.6 250.6 0 18.5 3.1 36.5 8.3 53.6 6.8 20 16.4 34.8 34 41.4z"/><path d="m260-442.63c48.5 36.1 70.9 99.7 77.7 122.7-19.2-18.5-44.7-30.9-66.7-38.8-22-8-43.9-13.3-62.3-18.1-33.8-8.8-58.2-14.4-83.6-19.6 15.3-9.2 32.7-17.8 51.7-25 25.1-9.7 52.9-17.3 81.9-22.2 0 0 0.8 0.6 1.3 1z" opacity=".17"/><path d="m51.6-125.63c-4.1 0.1-9.4 0.3-13.5 0.3-11.4 0-23.1-0.7-34.9-2.2 45.6 47.9 110 77.8 181.4 77.8 40 0 77.8-9.4 111.4-26.1 40.1-55.9 46.1-115.3 47.9-152.1-2.1 2.6-4.2 5.1-6.5 7.4-11.5 12-24.9 21.1-38.5 29-23.4 13.5-48.2 23.4-64.9 29.5-14.4 27.6-45.1 48.8-77.4 55.6-21 4.4-56.6 5.5-104.4-18.8z" opacity=".31"/><path d="m-57.5-246.73c4.8 14 11.9 28.1 24.6 36.5 7.2 4.8 15.7 7.3 23.9 9.6 8 2.2 16.2 3.8 24.5 4.7-10.6-24.7-17.8-50.7-20.3-77.5-1.2-13.3-1.4-26.7-0.3-39.9 1-12.1 2.6-24.8 6.2-36.4 3.4-10.9 9.2-21.3 15.5-30.8 7.2-11 15.7-21 24.9-30.3 18.6-18.8 40.3-34.7 63.2-47.9 29.1-16.7 60.1-29.5 92.2-39.2-19.6-15.1-44.1-24.1-68.1-29.1-11.2-2.3-22.6-3.7-34.1-3.6-2.5 0-4.9 0.1-7.4 0.3-0.9 0.1-2.3 0-3.1 0.3-1.6 0.7-3.1 1.4-4.7 2.1-5.9 2.7-11.7 5.7-17.4 8.9-45.3 25.5-82.2 65.1-104.3 112.2-10.6 22.6-17.8 46.8-21.2 71.6-3.7 26.4-3.3 53.2 3.3 79.1 0.8 3.2 1.6 6.3 2.6 9.4" opacity=".31"/><path d="m388.2-446.63-25.9-2c-10.2-0.7-20.4-1.1-30.7-1.1-24.5 0-49 2.2-72.7 6.2 29.4 20.8 61.7 65 79 123.7h-0.1v0.1c-0.1-0.1-0.2-0.1-0.2-0.2 13.1 12.7 22.6 30.2 22.5 49.1 0 10.9-3 20.9-7.2 29.2-2.6 5.1-5.6 9.7-8.9 13.8-1.8 36.8-7.7 96.3-47.9 152.1 82.5-41 139.2-126.1 139.2-224.5 0.1-54.7-17.4-105.2-47.1-146.4z" opacity=".15"/></g></g><rect x="304.61" y="172.32" width="508.71" height="60.47" fill="url(#SVGID_1_)" stroke-width="2.1143"/>
<linearGradient id="SVGID_2_" x1="717.27" x2="500.08" y1="236.45" y2="221.06" gradientTransform="matrix(2.1143 0 0 2.1143 -749.81 -282.69)" gradientUnits="userSpaceOnUse">
	<stop stop-color="#1D488A" offset="0"/>
	<stop stop-color="#1E1C40" offset="1"/>
</linearGradient>
<rect x="304.61" y="172.32" width="508.71" height="60.47" fill="url(#SVGID_2_)" opacity=".31" stroke-width="2.1143"/>
<path d="m356.2 68.716c-0.6343 1.6915-21.778 57.933-21.778 57.933s-21.143-56.241-21.778-57.933h-26.218c1.48 3.3829 38.269 89.013 38.904 90.493h17.972c0.6343-1.48 37.424-87.11 38.904-90.493h-26.006z" fill="#fff" stroke-width="2.1143"/>
<path d="m398.48 68.716v90.07h25.372v-90.07h-25.372z" fill="#fff" stroke-width="2.1143"/>
<path d="m478.62 68.716c-0.6343 1.48-37.424 87.11-38.904 90.493h26.218c0.42287-1.48 3.8058-10.149 3.8058-10.149h35.944s3.3829 8.6688 3.8058 10.149h26.006c-1.48-3.3829-38.269-89.013-38.904-90.493h-17.972zm9.0916 32.561 11.629 31.081h-23.258z" fill="#fff" stroke-width="2.1143"/>
<path d="m673.56 68.716c-0.6343 1.48-37.424 87.11-38.904 90.493h26.218c0.4229-1.48 3.8058-10.149 3.8058-10.149h35.944s3.1715 8.6688 3.8058 10.149h26.006c-1.48-3.3829-38.269-89.013-38.904-90.493h-17.972zm9.0916 32.561 11.629 31.081h-23.258z" fill="#fff" stroke-width="2.1143"/>
<path d="m578.63 67.87c-22.835 0-33.829 7.6116-33.829 23.258v10.783c0 8.2459 3.3829 14.377 9.303 17.338 4.4401 2.3258 9.7259 2.9601 23.258 2.9601h17.76c5.7087 0 8.0345 2.1143 8.0345 7.6116v1.2686c0 5.4973-2.3258 7.823-8.0345 7.823h-19.452c-2.9601 0-4.863-0.6343-6.1316-1.9029-1.0572-1.0572-1.48-2.5372-1.6915-4.4401-2.1143 0-20.72 0.84573-23.046 0.84573 2.7486 18.606 12.052 25.583 33.618 25.583h14.166c22.835 0 33.829-7.6116 33.829-23.258v-10.783c0-8.2459-3.3829-14.377-9.3031-17.338-4.6515-2.3258-9.7259-2.9601-23.469-2.9601h-17.76c-5.7087 0-8.0345-2.1143-8.0345-7.6116v-1.2686c0-5.4973 2.3258-7.823 8.0345-7.823h19.452c2.9601 0 4.863 0.6343 6.1316 1.9029 1.0572 1.0572 1.48 2.5372 1.6915 4.2287 2.3258-0.21143 20.72-1.6915 23.046-1.9029-3.5944-17.972-12.475-24.526-33.618-24.526h-13.955z" fill="#fff" stroke-width="2.1143"/>
<path d="m723.46 68.716v21.566h32.349v68.716h25.372v-68.504h32.349v-21.566c-2.5372-0.21143-87.745-0.21143-90.07-0.21143z" fill="#fff" stroke-width="2.1143"/>
<g transform="matrix(2.1143 0 0 2.1143 -749.81 -282.69)" fill="#fff">
	<path d="m513.4 239.2c-3.2 0-6.2-0.6-8.7-1.7l0.8-5.4c2.7 1.2 5.4 1.9 8.2 1.9 2.3 0 3.2-0.4 3.2-1.2 0-1.7-12.1 0.1-12.1-7.3 0-3.5 2.7-6.7 9.9-6.7 2.5 0 5.7 0.4 8 1.1l-0.8 5.1c-2.6-0.7-5.1-1-7.1-1-2.9 0-3.3 0.5-3.3 1 0 1.9 12.1-0.3 12.1 7.3 0 4.2-4.1 6.9-10.2 6.9z"/>
	<path d="m536.9 233.8h-2.9v5h-7.1v-19.6h10c7.5 0 10.7 3 10.7 7.5 0 3.9-3.2 7.1-10.7 7.1zm0-9.7h-2.9v5h2.9c2.5 0 3.4-0.5 3.4-2.5 0.1-1.9-0.8-2.5-3.4-2.5z"/>
	<path d="m562.3 239.2c-8.7 0-12.3-4.5-12.3-10.2s3.6-10.1 12.3-10.1c8.8 0 12.3 4.4 12.3 10.1 0 5.6-3.5 10.2-12.3 10.2zm0-15.1c-3.7 0-4.9 1.4-4.9 4.8s1.2 4.9 4.9 4.9 4.9-1.5 4.9-4.9c0-3.3-1.1-4.8-4.9-4.8z"/>
	<path d="m594.9 231.5 6.1 7.3h-8.4l-3.9-5.9h-3.3v5.9h-7v-19.6h10.6c6.5 0 10.1 2.4 10.1 6.6 0 2.5-1.6 4.9-4.2 5.7zm-6.2-7.5h-3.4v4.4h3.3c2.1 0 3-0.6 3-2.4 0.1-1.4-0.7-2-2.9-2z"/>
	<path d="m615.6 224.6v14.1h-7.1v-14.1h-6.8l0.2-5.5h20.5l0.2 5.5z"/>
</g>
<g transform="matrix(2.1143 0 0 2.1143 -749.81 -282.69)">
				<radialGradient id="SVGID_6_" cx="-962.81" cy="966.67" r="164.99" gradientTransform="matrix(.6442 0 0 .6442 1051.5 -379.22)" gradientUnits="userSpaceOnUse">
				<stop stop-color="#1D488A" offset=".522"/>
				<stop stop-color="#1E1C40" offset="1"/>
			</radialGradient>
			<path d="m372.3 241.6c3 0.4 6 0.6 8.9 0.6 4.2 0 8.2-0.3 12-0.7 12.3-1.2 24.4-4 36-8 4.1-1.4 11.5-4.2 18.4-8.2 3.5-2 6.9-4.3 9.8-7.4 1.5-1.5 2.8-3.3 3.9-5.4s1.8-4.7 1.8-7.4c0-5.2-2.7-9.9-6.4-13.2-4.9-4.4-10.6-7.1-16.2-9.2-5.6-2-11.2-3.4-15.9-4.6-8.6-2.2-14.8-3.7-21.3-5 3.9-2.4 8.3-4.5 13.2-6.4 11.6-4.5 25.5-7.2 39.4-7.2 2.6 0 5.2 0.1 7.8 0.3l6.6 0.5c7.6 10.5 12 23.3 12 37.3 0 35.2-28.6 63.8-63.8 63.8-18.1 0-34.5-7.6-46.2-19.8zm-6.8-19.8c6.8 2.6 12.1 2.6 15.7 2.8 3.3 0.1 6.9 0 10.3-0.4 10.9-1.1 21.7-3.6 32.1-7.1 2.3-0.8 6-2.2 9.7-3.9s7.6-3.8 10-5.8c1.1-0.8 1.8-1.7 2.3-2.2l-0.4-0.4c-2.3-2.1-6-4.1-10.5-5.7-4.4-1.6-9.5-2.9-14.3-4.1-15.3-4-22.1-5.2-38-8.1 0 0-10.6-1.6-10.5-1.8 7.1-20.4 39-40.4 78.6-42.7-9.4-5.4-20.2-8.5-31.8-8.5-35.2 0-63.8 28.6-63.8 63.8 0 4.7 0.8 9.3 2.1 13.7 1.6 4.9 4 8.6 8.5 10.4z" fill="url(#SVGID_6_)"/>
	</g><path d="m37.357 228.14c6.343 0.84573 12.686 1.2686 18.818 1.2686 8.8802 0 17.338-0.6343 25.372-1.48 26.006-2.5372 51.59-8.4573 76.116-16.915 8.6688-2.9601 24.315-8.8802 38.904-17.338 7.4002-4.2287 14.589-9.0916 20.72-15.646 3.1715-3.1715 5.9201-6.9773 8.2459-11.417 2.3258-4.4401 3.8058-9.9374 3.8058-15.646 0-10.995-5.7087-20.932-13.532-27.909-10.36-9.303-22.412-15.012-34.252-19.452-11.84-4.2287-23.681-7.1887-33.618-9.7259-18.183-4.6515-31.292-7.823-45.035-10.572 8.2459-5.0744 17.549-9.5145 27.909-13.532 24.526-9.5145 53.915-15.223 83.305-15.223 5.4973 0 10.995 0.21143 16.492 0.6343l13.955 1.0572c16.069 22.2 25.372 49.264 25.372 78.865 0 74.424-60.47 134.89-134.89 134.89-38.269 0-72.944-16.069-97.682-41.864z" fill="none" stroke-width="2.1143"/><path d="m37.357 228.14c6.343 0.84573 12.686 1.2686 18.818 1.2686 8.8802 0 17.338-0.6343 25.372-1.48 26.006-2.5372 51.59-8.4573 76.116-16.915 8.6688-2.9601 24.315-8.8802 38.904-17.338 7.4002-4.2287 14.589-9.0916 20.72-15.646 3.1715-3.1715 5.9201-6.9773 8.2459-11.417 2.3258-4.4401 3.8058-9.9374 3.8058-15.646 0-10.995-5.7087-20.932-13.532-27.909-10.36-9.303-22.623-15.012-34.252-19.452-11.84-4.2287-23.681-7.1887-33.618-9.7259-18.183-4.6515-31.292-7.823-45.035-10.572 8.2459-5.0744 17.549-9.5145 27.909-13.532 24.526-9.5145 53.915-15.223 83.305-15.223 5.4973 0 10.995 0.21143 16.492 0.6343l13.955 1.0572c16.069 22.2 25.372 49.264 25.372 78.865 0 74.424-60.47 134.89-134.89 134.89-38.269 0-72.944-16.069-97.682-41.864zm-14.377-41.864c14.377 5.4973 25.583 5.4973 33.195 5.9201 6.9773 0.21143 14.589 0 21.778-0.84573 23.046-2.3258 45.881-7.6116 67.87-15.012 4.863-1.6915 12.686-4.6515 20.509-8.2459s16.069-8.0344 21.143-12.263c2.3258-1.6915 3.8058-3.5944 4.863-4.6515-0.21143-0.21143-0.6343-0.6343-1.0572-0.84573-4.863-4.4401-12.686-8.6688-22.2-12.052-9.3031-3.3829-20.086-6.1316-30.235-8.6688-32.349-8.4573-46.727-10.995-80.345-17.126 0 0-22.412-3.3829-22.2-3.8058 15.012-43.132 82.459-85.419 166.19-90.282-19.875-11.417-42.709-17.972-67.236-17.972-74.424 0-134.89 60.47-134.89 134.89 0 9.9374 1.6915 19.663 4.4401 28.966 3.5944 10.36 8.6688 18.395 18.183 21.989z" fill="url(#SVGID_7_)" opacity=".32" stroke-width="2.1143"/><path d="m63.363 229.19c-2.1143 0-5.0744 0.21144-7.1887 0.21144-6.1316 0-12.475-0.42287-18.818-1.2686 24.526 25.795 59.201 41.864 97.682 41.864 21.566 0 41.864-5.0744 60.047-13.955 21.566-30.023 24.738-62.161 25.795-81.825-1.0572 1.48-2.3258 2.7486-3.3829 4.0172-6.1316 6.5544-13.32 11.417-20.72 15.646-12.686 7.1887-26.006 12.686-34.886 15.857-7.823 14.8-24.315 26.218-41.652 29.812-11.206 2.3258-30.446 2.9601-56.241-10.149z" fill="url(#SVGID_8_)" opacity=".31" stroke-width="2.1143"/><path d="m4.5844 163.86c2.5372 7.6116 6.343 15.223 13.32 19.663 3.8058 2.5372 8.4573 4.0172 12.897 5.0744 4.2287 1.2686 8.6688 2.1143 13.109 2.5372-5.7087-13.32-9.5145-27.275-10.995-41.652-0.6343-7.1887-0.84573-14.377-0.21143-21.566 0.42287-6.5544 1.48-13.32 3.3829-19.663 1.9029-5.9201 4.863-11.417 8.2459-16.492 3.8058-5.9201 8.4573-11.417 13.32-16.28 9.9374-10.149 21.778-18.606 34.041-25.795 15.646-9.0916 32.349-15.857 49.687-21.143-10.572-8.0345-23.681-12.897-36.578-15.646-6.1316-1.2686-12.263-1.9029-18.395-1.9029-1.2686 0-2.7486 0-4.0172 0.21143-0.42287 0-1.2686 0-1.6915 0.21143-0.84573 0.42287-1.6915 0.84573-2.5372 1.0572-3.1715 1.48-6.343 3.1715-9.3031 4.863-24.315 13.743-44.19 35.098-56.241 60.47-5.7087 12.263-9.5145 25.161-11.417 38.481-1.9029 14.166-1.6915 28.543 1.6915 42.498 0.84573 1.6915 1.2686 3.3829 1.6915 5.0744" fill="url(#SVGID_9_)" opacity=".31" stroke-width="2.1143"/><path d="m129.75 21.355c4.2287 2.1143 8.2459 4.6515 11.84 7.1887h-0.21143c18.818-5.7087 39.327-9.3031 60.893-10.572-19.875-11.417-42.709-17.972-67.236-17.972-19.24 0-37.635 4.0172-54.127 11.206 14.166-1.2686 33.618 2.5372 48.841 10.149z" fill="url(#SVGID_10_)" opacity=".35" stroke-width="2.1143"/><path d="m244.77 56.241-13.955-1.0572c-5.4973-0.42287-10.995-0.6343-16.492-0.6343-13.32 0-26.429 1.2686-39.115 3.3829 15.857 11.206 33.195 35.098 42.498 66.601l-0.21144-0.21143c6.9773 6.7659 12.263 16.28 12.052 26.429 0 5.9201-1.6915 11.206-3.8058 15.646-1.48 2.7486-2.9601 5.2858-4.863 7.4002-1.0572 19.875-4.2287 51.801-25.795 81.825 44.401-21.989 75.059-67.87 75.059-120.94 0-28.966-9.5145-56.241-25.372-78.442z" fill="url(#SVGID_11_)" opacity=".15" stroke-width="2.1143"/><path transform="matrix(.5386 0 0 .5386 -75.869 -88.361)" d="m466.9 272.4c48.5 36.1 70.9 99.7 77.7 122.7-19.2-18.5-44.7-30.9-66.7-38.8-22-8-43.9-13.3-62.3-18.1-33.8-8.8-58.2-14.4-83.6-19.6 15.3-9.2 32.7-17.8 51.7-25 25.1-9.7 52.9-17.3 81.9-22.2 0 0 0.8 0.6 1.3 1z" fill="#757576" filter="url(#filter1952)" opacity=".17"/><g transform="matrix(2.1143 0 0 2.1143 -749.81 -282.69)">
			<linearGradient id="SVGID_12_" x1="411.49" x2="451.86" y1="151.28" y2="212.27" gradientUnits="userSpaceOnUse">
				<stop stop-color="#5AA7DC" offset="0"/>
				<stop stop-color="#66ABDE" offset=".01087"/>
				<stop stop-color="#92BEE7" offset=".06244"/>
				<stop stop-color="#B3CFEE" offset=".1205"/>
				<stop stop-color="#CCDEF4" offset=".1846"/>
				<stop stop-color="#E0EBF9" offset=".257"/>
				<stop stop-color="#EEF4FC" offset=".3416"/>
				<stop stop-color="#F8FAFE" offset=".4462"/>
				<stop stop-color="#FEFEFF" offset=".5928"/>
				<stop stop-color="#fff" offset="1"/>
			</linearGradient>
			<path d="m437.7 161.3c12.4 9.2 18.1 25.4 19.8 31.3-4.9-4.7-11.4-7.9-17-9.9s-11.2-3.4-15.9-4.6c-8.6-2.2-14.8-3.7-21.3-5 3.9-2.4 8.3-4.5 13.2-6.4 6.4-2.5 13.5-4.4 20.9-5.7 0 0.1 0.2 0.2 0.3 0.3z" fill="url(#SVGID_12_)" opacity=".17"/>
		</g>
</svg>
