<svg width="799.79" height="270" version="1.1" viewBox="0 0 799.79 270" xmlns="http://www.w3.org/2000/svg" xmlns:xlink="http://www.w3.org/1999/xlink">
 <linearGradient id="a" x1="408.38" x2="543" y1="821.33" y2="644.2" gradientUnits="userSpaceOnUse">
  <stop stop-color="#fff" offset=".0050505"/>
  <stop stop-color="#e8e2e9" offset=".033281"/>
  <stop stop-color="#c3b4c5" offset=".084545"/>
  <stop stop-color="#a28ca5" offset=".1392"/>
  <stop stop-color="#87698a" offset=".1965"/>
  <stop stop-color="#704e74" offset=".257"/>
  <stop stop-color="#5f3863" offset=".322"/>
  <stop stop-color="#522957" offset=".3937"/>
  <stop stop-color="#4b2050" offset=".4771"/>
  <stop stop-color="#491d4e" offset=".6"/>
 </linearGradient>
 <linearGradient id="b" x1="262.18" x2="495.15" y1="755.67" y2="569.03" gradientUnits="userSpaceOnUse">
  <stop stop-color="#fff" offset="0"/>
  <stop stop-color="#fbf6c8" offset=".6"/>
 </linearGradient>
 <radialGradient id="c" cx="244.69" cy="836.26" r="202.91" gradientUnits="userSpaceOnUse">
  <stop stop-color="#fff" offset="0"/>
  <stop stop-color="#fef9f8" offset=".1601"/>
  <stop stop-color="#fceae4" offset=".3959"/>
  <stop stop-color="#f9d1c4" offset=".6783"/>
  <stop stop-color="#f5ae97" offset=".9946"/>
  <stop stop-color="#f5ad96" offset="1"/>
 </radialGradient>
 <linearGradient id="d" x1="371.45" x2="456.82" y1="653.17" y2="782.14" gradientUnits="userSpaceOnUse">
  <stop stop-color="#e5640c" offset="0"/>
  <stop stop-color="#ea8139" offset=".040393"/>
  <stop stop-color="#ee9b62" offset=".084233"/>
  <stop stop-color="#f2b388" offset=".1335"/>
  <stop stop-color="#f6c8a8" offset=".1872"/>
  <stop stop-color="#f9d9c4" offset=".2464"/>
  <stop stop-color="#fbe7da" offset=".3134"/>
  <stop stop-color="#fdf2eb" offset=".3916"/>
  <stop stop-color="#fef9f6" offset=".4882"/>
  <stop stop-color="#fffefd" offset=".6237"/>
  <stop stop-color="#fff" offset="1"/>
 </linearGradient>
 <linearGradient id="e" x1="481.2" x2="290.33" y1="847.1" y2="656.22" gradientUnits="userSpaceOnUse">
  <stop stop-color="#6a1416" offset="0"/>
  <stop stop-color="#cd1417" offset=".5"/>
  <stop stop-color="#e95559" offset="1"/>
 </linearGradient>
 <filter id="f" x="-.037964" y="-.065248" width="1.0759" height="1.1305" color-interpolation-filters="sRGB">
  <feGaussianBlur stdDeviation="3.363"/>
 </filter>
 <clipPath id="g">
  <path d="m184.78-534.18c-129.1 0-233.8 104.7-233.8 233.8s104.7 233.8 233.8 233.8c129.2 0 233.8-104.7 233.8-233.8 0.1-129.1-104.6-233.8-233.8-233.8z"/>
 </clipPath>
 <filter id="h" x="-.048012" y="-.047988" width="1.096" height="1.096" color-interpolation-filters="sRGB">
  <feGaussianBlur stdDeviation="10.023391"/>
 </filter>
 <radialGradient id="i" cx="386.39" cy="751.04" r="125.94" gradientUnits="userSpaceOnUse">
  <stop stop-color="#fff" offset=".3427"/>
  <stop stop-color="#fdfdfc" offset=".4887"/>
  <stop stop-color="#f8f8f2" offset=".6032"/>
  <stop stop-color="#f5f5ed" offset=".6404"/>
  <stop stop-color="#e8e9e1" offset=".7054"/>
  <stop stop-color="#c6c8c3" offset=".8251"/>
  <stop stop-color="#9da09d" offset=".9494"/>
 </radialGradient>
 <linearGradient id="j">
  <stop stop-color="#821716" offset="0"/>
  <stop stop-color="#ce1417" offset=".5"/>
  <stop stop-color="#e83c42" offset="1"/>
 </linearGradient>
 <linearGradient id="k" x1="689.59" x2="1370.7" y1="474.75" y2="474.75" gradientTransform="matrix(.5386 0 0 .5386 -76.029 -88.33)" gradientUnits="userSpaceOnUse" xlink:href="#j"/>
 <clipPath id="l">
  <path width="100%" height="100%" d="m768.7 587c0 4.3-0.8 8.2-2.4 11.6s-4 6.3-7.4 8.7c-3.3 2.4-7.7 4.1-13 5.3-5.4 1.2-11.7 1.8-19.2 1.8h-14.3v26.9h-24.2v-82.7h38.5c14.9 0 25.6 2.3 32.2 6.9 6.6 4.7 9.8 11.9 9.8 21.5zm-24.9-0.1c0-2.5-0.3-4.6-0.9-6.2s-1.6-2.9-2.9-3.9-3.1-1.6-5.2-2-4.8-0.6-8-0.6h-14.3v25.3h14.3c3 0 5.5-0.2 7.7-0.5 2.1-0.3 3.9-1 5.3-1.9 1.4-1 2.4-2.3 3.1-3.9 0.6-1.6 0.9-3.7 0.9-6.3z"/>
 </clipPath>
 <linearGradient id="m" x1="668.32" x2="1604.5" y1="323.29" y2="323.29" gradientTransform="matrix(1 5.32e-6 0 .1781 -.06356 542.4)" gradientUnits="userSpaceOnUse" xlink:href="#j"/>
 <clipPath id="n">
  <path width="100%" height="100%" d="m905.7 584.3c0 5.8-1.6 10.7-4.7 14.5-3.1 3.9-7.6 6.5-13.4 7.9l25.1 34.5h-28.2l-18.8-30.9h-15.2v30.9h-24.2v-82.7h39.4c13.4 0 23.4 2.1 30 6.2 6.7 4.3 10 10.8 10 19.6zm-25.2 0.8c0-4.2-1.1-7.1-3.3-8.7s-6-2.4-11.3-2.4h-15.3v22.5h14.9c5.3 0 9.2-0.8 11.5-2.4 2.3-1.5 3.5-4.5 3.5-9z"/>
 </clipPath>
 <clipPath id="o">
  <path width="100%" height="100%" d="m1040.4 625.1-0.6 16.2h-73.1v-82.7h70.9l0.4 16.4h-47v16.4h39.7v14.8h-39.7v18.8h49.4z"/>
 </clipPath>
 <clipPath id="p">
  <path width="100%" height="100%" d="m1125.1 558.7 25 48.3 4 8.3h0.4l4-8.3 25.1-48.3h26.7v82.7h-22.2v-42.1l0.3-8.9-0.3-0.1-4 8.4-22.1 42.8h-16.1l-22-42.7-4-8.4-0.3 0.1 0.1 8.9v42h-21.3v-82.7z"/>
 </clipPath>
 <clipPath id="q">
  <path width="100%" height="100%" d="m1275.1 558.7h24.6v82.7h-24.6z"/>
 </clipPath>
 <clipPath id="r">
  <path width="100%" height="100%" d="m1449.7 611.8c0 20.7-14.4 31.1-43.1 31.1-14.2 0-25-2.6-32.4-7.7s-11-12.9-11-23.4v-53.1h24.1v52.9c0 5.1 1.5 8.7 4.6 11s8 3.4 14.8 3.4 11.7-1.1 14.7-3.4 4.5-6 4.5-11v-52.9h23.9v53.1z"/>
 </clipPath>
 <clipPath id="s">
  <path width="100%" height="100%" d="m1538.3 558.7 25 48.3 4 8.3h0.4l4-8.3 25.1-48.3h26.7v82.7h-22.2v-42.1l0.3-8.9-0.3-0.1-4 8.4-22.1 42.8h-16.1l-22-42.7-4-8.4-0.3 0.1 0.1 8.9v42h-21.3v-82.7z"/>
 </clipPath>
 <linearGradient id="t" x1="668.32" x2="1640.3" y1="323.29" y2="323.29" gradientTransform="matrix(1 5.32e-6 0 .1781 -.06356 542.4)" gradientUnits="userSpaceOnUse" xlink:href="#j"/>
 <path transform="matrix(.5386 0 0 .5386 -76.029 -88.33)" d="m1626.1 529.6v-111.1l-235.4 0.1-23.5 111z"/>
 <g transform="translate(-251.43 -616.04)">
  <path d="m386.37 625.09c-69.533 0-125.92 56.391-125.92 125.92s56.391 125.92 125.92 125.92c69.587 0 125.92-56.391 125.92-125.92 0.0539-69.533-56.338-125.92-125.92-125.92z" fill="url(#i)" stroke-width=".5386"/>
  <g transform="matrix(.5386 0 0 .5386 286.85 912.79)" clip-path="url(#g)" fill="#757576" filter="url(#h)">
   <path d="m3.3998-127.63c11.8 1.5 23.5 2.2 34.9 2.2 16.4 0 32.3-1.2 47.1-2.7 48.2-4.9 95.9-15.7 141.3-31.4 16.1-5.6 45.1-16.4 72.3-32.1 13.7-8 27-17 38.5-29 5.7-6 11.1-12.9 15.3-21.2s7.2-18.3 7.2-29.2c0.2-20.3-10.8-38.9-25.3-51.7-19.3-17.4-41.8-28-63.8-36s-43.9-13.3-62.3-18.1c-33.8-8.8-58.2-14.4-83.6-19.6 15.3-9.2 32.7-17.8 51.6-25 45.7-17.6 100.1-28.4 154.7-28.4 10.2 0 20.5 0.4 30.7 1.1l25.9 2c29.7 41.2 47.2 91.7 47.2 146.3 0 138.4-112.2 250.6-250.6 250.6-71.1 0-135.5-29.9-181.1-77.8zm-26.8-77.8c26.8 10.2 47.6 10.4 61.6 10.9 13.1 0.5 26.9 0 40.4-1.4 42.6-4.3 85.3-14 125.9-28 9-3.1 23.5-8.5 38.2-15.3 14.7-6.7 29.7-15.1 39.2-22.8 4.3-3.3 7.3-6.5 8.9-8.6-0.5-0.5-1-1.1-1.8-1.7-9.1-8.3-23.7-16.1-41.1-22.4s-37.2-11.3-56.2-16.2c-60.3-15.6-86.7-20.4-149.2-31.7 0 0-41.5-6.4-41.3-7.2 27.8-80.3 153-158.8 308.6-167.7-36.8-21.3-79.3-33.5-124.9-33.5-138.4 0-250.6 112.2-250.6 250.6 0 18.5 3.1 36.5 8.3 53.6 6.8 20 16.4 34.8 34 41.4z"/>
   <path d="m260-442.63c48.5 36.1 70.9 99.7 77.7 122.7-19.2-18.5-44.7-30.9-66.7-38.8-22-8-43.9-13.3-62.3-18.1-33.8-8.8-58.2-14.4-83.6-19.6 15.3-9.2 32.7-17.8 51.7-25 25.1-9.7 52.9-17.3 81.9-22.2 0 0 0.8 0.6 1.3 1z" opacity=".17"/>
   <path d="m51.6-125.63c-4.1 0.1-9.4 0.3-13.5 0.3-11.4 0-23.1-0.7-34.9-2.2 45.6 47.9 110 77.8 181.4 77.8 40 0 77.8-9.4 111.4-26.1 40.1-55.9 46.1-115.3 47.9-152.1-2.1 2.6-4.2 5.1-6.5 7.4-11.5 12-24.9 21.1-38.5 29-23.4 13.5-48.2 23.4-64.9 29.5-14.4 27.6-45.1 48.8-77.4 55.6-21 4.4-56.6 5.5-104.4-18.8z" opacity=".31"/>
   <path d="m-57.5-246.73c4.8 14 11.9 28.1 24.6 36.5 7.2 4.8 15.7 7.3 23.9 9.6 8 2.2 16.2 3.8 24.5 4.7-10.6-24.7-17.8-50.7-20.3-77.5-1.2-13.3-1.4-26.7-0.3-39.9 1-12.1 2.6-24.8 6.2-36.4 3.4-10.9 9.2-21.3 15.5-30.8 7.2-11 15.7-21 24.9-30.3 18.6-18.8 40.3-34.7 63.2-47.9 29.1-16.7 60.1-29.5 92.2-39.2-19.6-15.1-44.1-24.1-68.1-29.1-11.2-2.3-22.6-3.7-34.1-3.6-2.5 0-4.9 0.1-7.4 0.3-0.9 0.1-2.3 0-3.1 0.3-1.6 0.7-3.1 1.4-4.7 2.1-5.9 2.7-11.7 5.7-17.4 8.9-45.3 25.5-82.2 65.1-104.3 112.2-10.6 22.6-17.8 46.8-21.2 71.6-3.7 26.4-3.3 53.2 3.3 79.1 0.8 3.2 1.6 6.3 2.6 9.4" opacity=".31"/>
   <path d="m388.2-446.63-25.9-2c-10.2-0.7-20.4-1.1-30.7-1.1-24.5 0-49 2.2-72.7 6.2 29.4 20.8 61.7 65 79 123.7h-0.1v0.1c-0.1-0.1-0.2-0.1-0.2-0.2 13.1 12.7 22.6 30.2 22.5 49.1 0 10.9-3 20.9-7.2 29.2-2.6 5.1-5.6 9.7-8.9 13.8-1.8 36.8-7.7 96.3-47.9 152.1 82.5-41 139.2-126.1 139.2-224.5 0.1-54.7-17.4-105.2-47.1-146.4z" opacity=".15"/>
  </g>
  <path transform="matrix(.5386 0 0 .5386 175.4 527.71)" d="m466.9 272.4c48.5 36.1 70.9 99.7 77.7 122.7-19.2-18.5-44.7-30.9-66.7-38.8-22-8-43.9-13.3-62.3-18.1-33.8-8.8-58.2-14.4-83.6-19.6 15.3-9.2 32.7-17.8 51.7-25 25.1-9.7 52.9-17.3 81.9-22.2 0 0 0.8 0.6 1.3 1z" fill="#757576" filter="url(#f)" opacity=".17"/>
  <g stroke-width=".5386">
   <path d="m288.67 844.08c6.3555 0.8079 12.657 1.1849 18.797 1.1849 8.833 0 17.397-0.64632 25.368-1.4542 25.961-2.6391 51.652-8.456 76.104-16.912 8.6715-3.0162 24.291-8.833 38.941-17.289 7.3788-4.3088 14.542-9.1562 20.736-15.619 3.07-3.2316 5.9785-6.9479 8.2406-11.418s3.8779-9.8564 3.8779-15.727c0.10772-10.934-5.8169-20.952-13.627-27.846-10.395-9.3716-22.513-15.081-34.363-19.39-11.849-4.3088-23.645-7.1634-33.555-9.7486-18.205-4.7397-31.346-7.7558-45.027-10.557 8.2406-4.9551 17.612-9.5871 27.792-13.465 24.614-9.4794 53.914-15.296 83.321-15.296 5.4937 0 11.041 0.21544 16.535 0.59246l13.95 1.0772c15.996 22.19 25.422 49.39 25.422 78.797 0 74.542-60.431 134.97-134.97 134.97-38.294 0-72.98-16.104-97.54-41.903zm-14.434-41.903c14.434 5.4937 25.637 5.6014 33.178 5.8707 7.0557 0.2693 14.488 0 21.759-0.75404 22.944-2.316 45.943-7.5404 67.81-15.081 4.8474-1.6697 12.657-4.5781 20.575-8.2406 7.9174-3.6086 15.996-8.1329 21.113-12.28 2.316-1.7774 3.9318-3.5009 4.7935-4.632-0.2693-0.2693-0.5386-0.59246-0.96948-0.91562-4.9013-4.4704-12.765-8.6714-22.136-12.065-9.3716-3.3932-20.036-6.0862-30.269-8.7253-32.478-8.4022-46.697-10.987-80.359-17.074 0 0-22.352-3.447-22.244-3.8779 14.973-43.25 82.406-85.53 166.21-90.323-19.82-11.472-42.711-18.043-67.271-18.043-74.542 0-134.97 60.431-134.97 134.97 0 9.9641 1.6697 19.659 4.4704 28.869 3.6625 10.772 8.833 18.743 18.312 22.298z" fill="url(#e)"/>
   <path d="m426.87 674.42c26.122 19.443 38.187 53.698 41.849 66.086-10.341-9.9641-24.075-16.643-35.925-20.898-11.849-4.3088-23.645-7.1634-33.555-9.7486-18.205-4.7397-31.346-7.7558-45.027-10.557 8.2406-4.9551 17.612-9.5871 27.846-13.465 13.519-5.2244 28.492-9.3178 44.111-11.957 0 0 0.43088 0.32316 0.70018 0.5386z" fill="url(#d)" opacity=".17"/>
   <path d="m314.63 845.16c-2.2083 0.0539-5.0628 0.16158-7.2711 0.16158-6.14 0-12.442-0.37702-18.797-1.1849 24.56 25.799 59.246 41.903 97.702 41.903 21.544 0 41.903-5.0628 60-14.057 21.598-30.108 24.829-62.101 25.799-81.921-1.1311 1.4004-2.2621 2.7469-3.5009 3.9856-6.1939 6.4632-13.411 11.364-20.736 15.619-12.603 7.2711-25.961 12.603-34.955 15.889-7.7558 14.865-24.291 26.284-41.688 29.946-11.311 2.3698-30.485 2.9623-56.23-10.126z" fill="url(#c)" opacity=".31"/>
   <path d="m255.87 779.93c2.5853 7.5404 6.4093 15.135 13.25 19.659 3.8779 2.5853 8.456 3.9318 12.873 5.1706 4.3088 1.1849 8.7253 2.0467 13.196 2.5314-5.7092-13.303-9.5871-27.307-10.934-41.741-0.64632-7.1634-0.75404-14.381-0.16158-21.49 0.5386-6.517 1.4004-13.357 3.3393-19.605 1.8312-5.8707 4.9551-11.472 8.3483-16.589 3.8779-5.9246 8.456-11.311 13.411-16.32 10.018-10.126 21.706-18.689 34.04-25.799 15.673-8.9946 32.37-15.889 49.659-21.113-10.557-8.1328-23.752-12.98-36.679-15.673-6.0323-1.2388-12.172-1.9928-18.366-1.939-1.3465 0-2.6391 0.0539-3.9856 0.16158-0.48474 0.0539-1.2388 0-1.6697 0.16158-0.86176 0.37702-1.6697 0.75404-2.5314 1.1311-3.1777 1.4542-6.3016 3.07-9.3716 4.7935-24.399 13.734-44.273 35.063-56.176 60.431-5.7092 12.172-9.5871 25.206-11.418 38.564-1.9928 14.219-1.7774 28.654 1.7774 42.603 0.43088 1.7235 0.86176 3.3932 1.4004 5.0628" fill="url(#b)" opacity=".31"/>
   <path d="m495.92 672.27-13.95-1.0772c-5.4937-0.37702-10.987-0.59246-16.535-0.59246-13.196 0-26.391 1.1849-39.156 3.3393 15.835 11.203 33.232 35.009 42.549 66.625h-0.0539v0.0539c-0.0539-0.0539-0.10772-0.0539-0.10772-0.10772 7.0557 6.8402 12.172 16.266 12.118 26.445 0 5.8707-1.6158 11.257-3.8779 15.727-1.4004 2.7469-3.0162 5.2244-4.7935 7.4327-0.96948 19.82-4.1472 51.867-25.799 81.921 44.434-22.083 74.973-67.917 74.973-120.92 0.0539-29.461-9.3716-56.661-25.368-78.851z" fill="url(#a)" opacity=".15"/>
  </g>
 </g>
 <path d="m662.23 137.13-13.734 60.485h-353.11v-60.485z" fill="url(#k)" stroke-width=".5386"/>
 <g transform="matrix(.5386 0 0 .5386 -76.029 -88.33)" fill="#fff">
  <path d="m1461 482h-33.8l-6.5 30.4h-30.1l16.2-76.2h30.1l-5.6 26.6h33.8l5.6-26.6h30.1l-16.2 76.2h-30.1z"/>
  <path d="m1515.6 436.2h58.6c25.8 0 37.4 10 31.4 38.1-5.7 26.8-21.6 38.1-46.9 38.1h-59.2zm18 57h17.3c13.8 0 20.8-6.8 23.3-18.9 2.6-12.1-1.5-18.9-15.3-18.9h-17.3z"/>
 </g>
 <path d="m348.28 34.848c-0.59246 1.5619-21.382 57.092-21.382 57.092s-20.844-55.53-21.436-57.092h-25.853c1.4004 3.2855 37.702 87.684 38.294 89.084h17.72c0.59246-1.4542 36.894-85.799 38.294-89.084z" stroke-width=".5386"/>
 <path d="m390.08 34.848v88.761h24.883v-88.761z" stroke-width=".5386"/>
 <path d="m468.98 34.848c-0.64632 1.4542-36.894 85.799-38.294 89.084h25.853c0.48474-1.3465 3.7163-10.018 3.7163-10.018h35.332s3.2316 8.6176 3.7702 10.018h25.691c-1.4542-3.2855-37.702-87.63-38.294-89.084zm8.8869 32.047 11.418 30.539h-22.89z" stroke-width=".5386"/>
 <path d="m661.1 34.848c-0.59246 1.4542-36.894 85.799-38.294 89.084h25.853c0.48474-1.3465 3.7702-10.018 3.7702-10.018h35.332s3.2316 8.6176 3.7163 10.018h25.637c-1.4004-3.2855-37.648-87.63-38.294-89.084zm8.9408 32.047 11.472 30.539h-22.89z" stroke-width=".5386"/>
 <path d="m567.49 34.04c-22.46 0-33.393 7.4865-33.393 22.837v10.557c0 8.1329 3.2855 14.219 9.2101 17.074 4.4704 2.316 9.6409 3.0162 22.998 3.0162h17.504c5.6014 0 7.8636 2.1544 7.8636 7.4865v1.2388c0 5.386-2.316 7.6481-7.8636 7.6481h-19.066c-2.8546 0-4.7935-0.59246-6.0323-1.8851-0.96948-1.0233-1.4542-2.4237-1.5619-4.2549-2.1544 0.10772-20.413 0.86176-22.783 0.91562 2.7469 18.366 11.903 25.26 33.178 25.26h13.896c22.46 0 33.393-7.5404 33.393-22.998v-10.557c0-8.1329-3.2316-14.219-9.1562-17.074-4.4704-2.316-9.6409-2.9623-23.052-2.9623h-17.504c-5.5476 0-7.8636-2.1544-7.8636-7.4865v-1.1849c0-5.386 2.3698-7.702 7.8636-7.702h19.066c2.8546 0 4.7935 0.59246 6.0323 1.939 0.96948 1.0233 1.4542 2.4237 1.5619 4.2011 2.2621-0.16158 20.359-1.6697 22.783-1.8851-3.5548-17.774-12.334-24.129-33.124-24.129h-13.95z" stroke-width=".5386"/>
 <path d="m710.22 34.848v21.329h31.939v67.433h24.937v-67.433h31.939v-21.329z" stroke-width=".5386"/>
 <path d="m327.22 186.68c-6.6248 0-12.657-1.2388-17.828-3.447l1.5619-11.041c5.4937 2.5314 11.041 3.9318 16.804 3.9318 4.7935 0 6.6786-0.91562 6.6786-2.3698 0-3.6086-24.883 0.21544-24.883-15.081 0-7.2172 5.5476-13.842 20.413-13.842 5.2244 0 11.795 0.86176 16.427 2.3698l-1.6697 10.449c-5.3321-1.3465-10.395-2.1005-14.542-2.1005-5.9246 0-6.8941 1.0233-6.8941 2.1544 0 3.9856 24.829-0.59245 24.829 14.973 0 8.5637-8.4022 14.004-20.898 14.004z" fill="#fff" stroke-width=".5386"/>
 <path d="m375.59 175.64h-6.0862v10.18h-14.488v-40.287h20.575c15.512 0 21.921 6.14 21.921 15.458 0 8.1867-6.6248 14.65-21.921 14.65zm0-19.928h-6.0862v10.341h6.0862c5.1167 0 7.1095-1.0233 7.1095-5.1167 0-3.9856-1.7235-5.2244-7.1095-5.2244z" fill="#fff" stroke-width=".5386"/>
 <path d="m427.83 186.68c-17.989 0-25.314-9.2101-25.314-20.952 0-11.688 7.325-20.844 25.314-20.844 18.043 0 25.314 9.1023 25.314 20.844 0 11.634-7.2711 20.952-25.314 20.952zm0-30.862c-7.4865 0-9.9641 2.9084-9.9641 9.8564 0 7.0018 2.4776 10.126 9.9641 10.126 7.5943 0 10.018-3.1239 10.018-10.126 0.0539-7.0018-2.2083-9.8564-10.018-9.8564z" fill="#fff" stroke-width=".5386"/>
 <path d="m494.83 170.9 12.549 14.973h-17.343l-8.0251-12.172h-6.8402v12.172h-14.488v-40.287h21.975c13.303 0 20.736 4.8474 20.736 13.627 0 5.0628-3.2316 10.018-8.5637 11.688zm-12.711-15.296h-6.9479v9.1562h6.7864c4.4165 0 6.2478-1.1849 6.2478-4.8474 0-3.1239-1.5619-4.3088-6.0862-4.3088z" fill="#fff" stroke-width=".5386"/>
 <path d="m537.44 156.84v29.031h-14.542v-29.031h-14.057l0.32316-11.203h42.172l0.32316 11.203z" fill="#fff" stroke-width=".5386"/>
 <path transform="matrix(.5386 0 0 .5386 -76.029 -88.33)" d="m1604.4 659.5-936.1-0.2v-118.8l936.1 0.1z" clip-path="url(#l)" fill="url(#m)"/>
 <path transform="matrix(.5386 0 0 .5386 -76.029 -88.33)" d="m1604.4 659.5-936.1-0.2v-118.8l936.1 0.1z" clip-path="url(#n)" fill="url(#m)"/>
 <path transform="matrix(.5386 0 0 .5386 -76.029 -88.33)" d="m1604.4 659.5-936.1-0.2v-118.8l936.1 0.1z" clip-path="url(#o)" fill="url(#m)"/>
 <path transform="matrix(.5386 0 0 .5386 -76.029 -88.33)" d="m1604.4 659.5-936.1-0.2v-118.8l936.1 0.1z" clip-path="url(#p)" fill="url(#m)"/>
 <path transform="matrix(.5386 0 0 .5386 -76.029 -88.33)" d="m1604.4 659.5-936.1-0.2v-118.8l936.1 0.1z" clip-path="url(#q)" fill="url(#m)"/>
 <path transform="matrix(.5386 0 0 .5386 -76.029 -88.33)" d="m1604.4 659.5-936.1-0.2v-118.8l936.1 0.1z" clip-path="url(#r)" fill="url(#m)"/>
 <path transform="matrix(.5386 0 0 .5386 -76.029 -88.33)" d="m1640.2 659.5-971.9-0.2v-118.8l971.9 0.1z" clip-path="url(#s)" fill="url(#t)"/>
</svg>
