<svg version="1.1" viewBox="0 0 800 156.65" xmlns="http://www.w3.org/2000/svg">
 <defs>
  <linearGradient id="a" x2="1" gradientTransform="matrix(0 7.0004 7.0004 0 465.67 231.25)" gradientUnits="userSpaceOnUse">
   <stop stop-color="#2d2e83" offset="0"/>
   <stop stop-color="#36a9e1" offset="1"/>
  </linearGradient>
  <linearGradient id="b" x2="1" gradientTransform="matrix(0 7.0004 7.0004 0 463.97 231.25)" gradientUnits="userSpaceOnUse">
   <stop stop-color="#2d2e83" offset="0"/>
   <stop stop-color="#36a9e1" offset="1"/>
  </linearGradient>
  <clipPath id="c">
   <path d="m461.34 231.17h35.32v6.916h-35.32z"/>
  </clipPath>
 </defs>
 <g transform="matrix(22.65 0 0 -22.65 -10450 5392.8)">
  <g clip-path="url(#c)">
   <g transform="translate(466.49 232.92)">
    <path d="m0 0c0.571 0.489 0.614 0.96 0.549 1.269-0.201 0.965-1.457 1.14-2.467 1.281-0.131 0.018-0.286 0.04-0.437 0.064-0.197 0.032-0.239 0.299-0.06 0.388 0.244 0.121 0.605 0.263 1.138 0.416 0.783 0.224 1.655 0.39 2.241 0.494-0.247 0.296-0.543 0.55-0.875 0.75-2.694-0.537-3.844-1.128-3.904-1.971-0.037-0.517 0.432-0.745 0.715-0.834 0.291-0.092 0.664-0.144 1.058-0.199 0.613-0.085 1.638-0.228 1.71-0.573 0.029-0.141-0.168-0.328-0.254-0.401-0.676-0.58-2.294-1.065-3.761-1.17 0.264-0.321 0.586-0.594 0.949-0.802 1.384 0.218 2.719 0.706 3.398 1.288" fill="#fff"/>
   </g>
  </g>
 </g>
 <g transform="matrix(22.65 0 0 -22.65 -10450 5392.8)">
  <path d="m461.34 234.63c0-0.831 0.294-1.595 0.784-2.191 1.47 0.103 3.095 0.589 3.772 1.171 0.087 0.073 0.284 0.26 0.254 0.401-0.072 0.344-1.097 0.487-1.71 0.572-0.394 0.055-0.766 0.107-1.057 0.199-0.284 0.09-0.753 0.317-0.716 0.834 0.061 0.845 1.215 1.436 3.92 1.974-0.522 0.316-1.134 0.498-1.789 0.498-1.909 0-3.458-1.548-3.458-3.458" fill="url(#b)"/>
 </g>
 <g transform="matrix(22.65 0 0 -22.65 -10450 5392.8)">
  <path d="m465.21 236.34c-0.534-0.153-0.895-0.295-1.138-0.416-0.179-0.089-0.137-0.357 0.06-0.388 0.15-0.025 0.306-0.047 0.437-0.065 1.009-0.14 2.266-0.316 2.467-1.281 0.064-0.308 0.022-0.779-0.55-1.269-0.68-0.584-2.023-1.073-3.412-1.29 0.509-0.294 1.098-0.463 1.728-0.463 1.91 0 3.458 1.548 3.458 3.458 0 0.84-0.299 1.61-0.797 2.209-0.586-0.103-1.465-0.269-2.253-0.495" fill="url(#a)"/>
 </g>
 <path d="m228.3 119.21h-19.434l-30.397-81.428h19.275l21.155 59.638 21.155-59.638h18.8z" fill="#162931"/>
 <path d="m269.52 37.803h17.871v81.428h-17.871zm20.363-24.825c0 6.2062-4.8472 11.303-11.28 11.303-6.5913 0-11.597-5.0963-11.597-11.303 0-6.3421 5.0057-11.28 11.597-11.28 6.4327 0 11.28 4.9378 11.28 11.28" fill="#162931"/>
 <g transform="matrix(22.65 0 0 -22.65 349.74 87.569)">
  <path d="m0 0v0.379l-0.692-0.168c-0.609-0.148-0.851-0.302-0.851-0.611 0-0.26 0.229-0.428 0.623-0.428 0.546 0 0.92 0.28 0.92 0.828m0.069-1.397c-0.021 0.091-0.034 0.225-0.048 0.407-0.201-0.337-0.588-0.498-1.093-0.498-0.72 0-1.252 0.344-1.252 1.025 0 0.744 0.574 1.053 1.48 1.242l0.844 0.19c0 0.428-0.263 0.632-0.761 0.632-0.463 0-0.782-0.232-0.989-0.45l-0.457 0.541c0.298 0.33 0.768 0.611 1.474 0.611 1.024 0 1.487-0.534 1.487-1.32v-1.524c0-0.456 0.021-0.723 0.042-0.856z" fill="#162931"/>
 </g>
 <g transform="matrix(22.65 0 0 -22.65 435.29 44.313)">
  <path d="m0 0-0.387-0.576c-0.243 0.183-0.519 0.274-0.803 0.274-0.36 0-0.539-0.147-0.539-0.351s0.193-0.288 0.463-0.4l0.311-0.126c0.637-0.26 1.017-0.513 1.017-1.117 0-0.688-0.553-1.116-1.321-1.116-0.574 0-1.086 0.211-1.432 0.512l0.408 0.59c0.263-0.225 0.63-0.393 1.024-0.393 0.318 0 0.553 0.119 0.553 0.407 0 0.26-0.283 0.372-0.671 0.527l-0.318 0.133c-0.595 0.246-0.802 0.548-0.802 0.983 0 0.527 0.449 1.046 1.328 1.046 0.533 0 0.941-0.196 1.169-0.393" fill="#162931"/>
 </g>
 <g transform="matrix(22.65 0 0 -22.65 507.69 78.504)">
  <path d="m0 0c0 0.751-0.464 1.144-0.989 1.144-0.526 0-0.997-0.393-0.997-1.144s0.471-1.144 0.997-1.144c0.525 0 0.989 0.393 0.989 1.144m0.796 0c0-1.13-0.72-1.889-1.654-1.889-0.463 0-0.83 0.162-1.086 0.443v-1.685h-0.789v4.928h0.747v-0.407c0.257 0.309 0.644 0.492 1.128 0.492 0.934 0 1.654-0.759 1.654-1.882" fill="#162931"/>
 </g>
 <g transform="matrix(22.65 0 0 -22.65 550.31 78.504)">
  <path d="m0 0c0-0.751 0.498-1.144 1.038-1.144 0.532 0 1.03 0.393 1.03 1.144s-0.498 1.144-1.03 1.144c-0.54 0-1.038-0.393-1.038-1.144m2.864 0c0-1.13-0.796-1.903-1.826-1.903-1.031 0-1.834 0.773-1.834 1.903s0.803 1.903 1.834 1.903c1.03 0 1.826-0.773 1.826-1.903" fill="#162931"/>
 </g>
 <g transform="matrix(22.65 0 0 -22.65 668.46 54.173)">
  <path d="m0 0c-0.775-0.021-1.218-0.414-1.218-1.306v-1.565h-0.788v3.594h0.754v-0.618c0.173 0.351 0.539 0.66 1.169 0.667z" fill="#162931"/>
 </g>
 <g transform="matrix(22.65 0 0 -22.65 706.07 90.907)">
  <path d="m0 0c0-0.435 0.166-0.59 0.588-0.59 0.069 0 0.138 7e-3 0.18 0.014v-0.674c-0.104-0.028-0.263-0.056-0.443-0.056-0.726 0-1.114 0.33-1.114 1.109v1.861h-0.657v0.681h0.657v1.137h0.789v-1.137h0.803v-0.681h-0.803z" fill="#162931"/>
 </g>
 <g transform="matrix(22.65 0 0 -22.65 800 120.07)">
  <path d="m0 0h-1.078v3.458l-0.927-0.673-0.525 0.722 1.652 1.263h0.878z" fill="#162931"/>
 </g>
</svg>
