<svg width="796.29" height="270" version="1.1" viewBox="0 0 796.29 270" xml:space="preserve" xmlns="http://www.w3.org/2000/svg"><defs><radialGradient id="XMLID_8_-1" cx="391.74" cy="414.65" r="233.83" gradientTransform="matrix(.5386 0 0 .5386 -76.029 -88.33)" gradientUnits="userSpaceOnUse"><stop stop-color="#fff" offset=".3427"/><stop stop-color="#FDFDFC" offset=".4887"/><stop stop-color="#F8F8F2" offset=".6032"/><stop stop-color="#F5F5ED" offset=".6404"/><stop stop-color="#E8E9E1" offset=".7054"/><stop stop-color="#C6C8C3" offset=".8251"/><stop stop-color="#9DA09D" offset=".9494"/></radialGradient><clipPath id="clipPath1658"><path d="m184.78-534.18c-129.1 0-233.8 104.7-233.8 233.8s104.7 233.8 233.8 233.8c129.2 0 233.8-104.7 233.8-233.8 0.1-129.1-104.6-233.8-233.8-233.8z"/></clipPath><filter id="filter1583" x="-.048012" y="-.047988" width="1.096" height="1.096" color-interpolation-filters="sRGB"><feGaussianBlur stdDeviation="10.023391"/></filter><radialGradient id="SVGID_6_-0" cx="-962.81" cy="966.67" r="164.99" gradientTransform="matrix(.6442 0 0 .6442 1051.5 -379.22)" gradientUnits="userSpaceOnUse"><stop stop-color="#1D488A" offset=".522"/><stop stop-color="#1E1C40" offset="1"/></radialGradient><linearGradient id="SVGID_7_-9" x1="395.49" x2="452.99" y1="149.89" y2="262.3" gradientTransform="matrix(2.1143 0 0 2.1143 -749.81 -282.69)" gradientUnits="userSpaceOnUse"><stop stop-color="#5AA7DC" offset="0"/><stop stop-color="#1E1C40" offset="1"/></linearGradient><radialGradient id="SVGID_8_-0" cx="-1086.6" cy="957.88" r="148.94" gradientTransform="matrix(1.3621 0 0 1.3621 1473.5 -1084.5)" gradientUnits="userSpaceOnUse"><stop stop-color="#fff" offset="0"/><stop stop-color="#F9FBFE" offset=".1182"/><stop stop-color="#E8F0FB" offset=".2923"/><stop stop-color="#CCDEF4" offset=".501"/><stop stop-color="#A0C6EA" offset=".7364"/><stop stop-color="#5DA8DD" offset=".9913"/><stop stop-color="#5AA7DC" offset="1"/></radialGradient><linearGradient id="SVGID_9_-6" x1="359.82" x2="469.99" y1="199.75" y2="111.49" gradientTransform="matrix(2.1143 0 0 2.1143 -749.81 -282.69)" gradientUnits="userSpaceOnUse"><stop stop-color="#fff" offset="0"/><stop stop-color="#5AA7DC" offset=".6099"/></linearGradient><linearGradient id="SVGID_10_-7" x1="403.95" x2="434.11" y1="164.08" y2="124.2" gradientTransform="matrix(2.1143 0 0 2.1143 -749.81 -282.69)" gradientUnits="userSpaceOnUse"><stop stop-color="#fff" offset=".0050505"/><stop stop-color="#E0E0EF" offset=".040256"/><stop stop-color="#B9BCD9" offset=".090736"/><stop stop-color="#959CC4" offset=".1464"/><stop stop-color="#7581B3" offset=".2061"/><stop stop-color="#5B6DA5" offset=".271"/><stop stop-color="#455E9B" offset=".3427"/><stop stop-color="#345393" offset=".4242"/><stop stop-color="#284D8E" offset=".5213"/><stop stop-color="#20498B" offset=".6492"/><stop stop-color="#1D488A" offset=".9286"/></linearGradient><linearGradient id="SVGID_11_-7" x1="428.96" x2="492.61" y1="230.8" y2="147.04" gradientTransform="matrix(2.1143 0 0 2.1143 -749.81 -282.69)" gradientUnits="userSpaceOnUse"><stop stop-color="#fff" offset=".0050505"/><stop stop-color="#D2D4E7" offset=".052971"/><stop stop-color="#AAAED0" offset=".1038"/><stop stop-color="#868EBC" offset=".1581"/><stop stop-color="#6675AB" offset=".2149"/><stop stop-color="#4C639E" offset=".275"/><stop stop-color="#385695" offset=".3396"/><stop stop-color="#2A4E8F" offset=".4107"/><stop stop-color="#20498B" offset=".4934"/><stop stop-color="#1D488A" offset=".6154"/></linearGradient><filter id="filter1952" x="-.037964" y="-.065248" width="1.0759" height="1.1305" color-interpolation-filters="sRGB"><feGaussianBlur stdDeviation="3.363"/></filter><linearGradient id="SVGID_12_-7" x1="411.49" x2="451.86" y1="151.28" y2="212.27" gradientUnits="userSpaceOnUse"><stop stop-color="#5AA7DC" offset="0"/><stop stop-color="#66ABDE" offset=".01087"/><stop stop-color="#92BEE7" offset=".06244"/><stop stop-color="#B3CFEE" offset=".1205"/><stop stop-color="#CCDEF4" offset=".1846"/><stop stop-color="#E0EBF9" offset=".257"/><stop stop-color="#EEF4FC" offset=".3416"/><stop stop-color="#F8FAFE" offset=".4462"/><stop stop-color="#FEFEFF" offset=".5928"/><stop stop-color="#fff" offset="1"/></linearGradient>
	<linearGradient id="SVGID_13_" x1="348.49" x2="512.04" y1="319.35" y2="319.35" gradientUnits="userSpaceOnUse">
		<stop stop-color="#231A3C" offset="0"/>
		<stop stop-color="#235095" offset=".511"/>
		<stop stop-color="#388BCA" offset="1"/>
	</linearGradient>
</defs>
<g transform="translate(4.0964e-6 2.15e-6)"><g transform="translate(.30997 .13265)"><path d="m134.94 9.0485c-69.533 0-125.92 56.391-125.92 125.92s56.391 125.92 125.92 125.92c69.587 0 125.92-56.391 125.92-125.92 0.0539-69.533-56.338-125.92-125.92-125.92z" fill="url(#XMLID_8_-1)" stroke-width=".5386"/><g transform="matrix(.5386 0 0 .5386 35.417 296.76)" clip-path="url(#clipPath1658)" fill="#757576" filter="url(#filter1583)"><path d="m3.3998-127.63c11.8 1.5 23.5 2.2 34.9 2.2 16.4 0 32.3-1.2 47.1-2.7 48.2-4.9 95.9-15.7 141.3-31.4 16.1-5.6 45.1-16.4 72.3-32.1 13.7-8 27-17 38.5-29 5.7-6 11.1-12.9 15.3-21.2s7.2-18.3 7.2-29.2c0.2-20.3-10.8-38.9-25.3-51.7-19.3-17.4-41.8-28-63.8-36s-43.9-13.3-62.3-18.1c-33.8-8.8-58.2-14.4-83.6-19.6 15.3-9.2 32.7-17.8 51.6-25 45.7-17.6 100.1-28.4 154.7-28.4 10.2 0 20.5 0.4 30.7 1.1l25.9 2c29.7 41.2 47.2 91.7 47.2 146.3 0 138.4-112.2 250.6-250.6 250.6-71.1 0-135.5-29.9-181.1-77.8zm-26.8-77.8c26.8 10.2 47.6 10.4 61.6 10.9 13.1 0.5 26.9 0 40.4-1.4 42.6-4.3 85.3-14 125.9-28 9-3.1 23.5-8.5 38.2-15.3 14.7-6.7 29.7-15.1 39.2-22.8 4.3-3.3 7.3-6.5 8.9-8.6-0.5-0.5-1-1.1-1.8-1.7-9.1-8.3-23.7-16.1-41.1-22.4s-37.2-11.3-56.2-16.2c-60.3-15.6-86.7-20.4-149.2-31.7 0 0-41.5-6.4-41.3-7.2 27.8-80.3 153-158.8 308.6-167.7-36.8-21.3-79.3-33.5-124.9-33.5-138.4 0-250.6 112.2-250.6 250.6 0 18.5 3.1 36.5 8.3 53.6 6.8 20 16.4 34.8 34 41.4z"/><path d="m260-442.63c48.5 36.1 70.9 99.7 77.7 122.7-19.2-18.5-44.7-30.9-66.7-38.8-22-8-43.9-13.3-62.3-18.1-33.8-8.8-58.2-14.4-83.6-19.6 15.3-9.2 32.7-17.8 51.7-25 25.1-9.7 52.9-17.3 81.9-22.2 0 0 0.8 0.6 1.3 1z" opacity=".17"/><path d="m51.6-125.63c-4.1 0.1-9.4 0.3-13.5 0.3-11.4 0-23.1-0.7-34.9-2.2 45.6 47.9 110 77.8 181.4 77.8 40 0 77.8-9.4 111.4-26.1 40.1-55.9 46.1-115.3 47.9-152.1-2.1 2.6-4.2 5.1-6.5 7.4-11.5 12-24.9 21.1-38.5 29-23.4 13.5-48.2 23.4-64.9 29.5-14.4 27.6-45.1 48.8-77.4 55.6-21 4.4-56.6 5.5-104.4-18.8z" opacity=".31"/><path d="m-57.5-246.73c4.8 14 11.9 28.1 24.6 36.5 7.2 4.8 15.7 7.3 23.9 9.6 8 2.2 16.2 3.8 24.5 4.7-10.6-24.7-17.8-50.7-20.3-77.5-1.2-13.3-1.4-26.7-0.3-39.9 1-12.1 2.6-24.8 6.2-36.4 3.4-10.9 9.2-21.3 15.5-30.8 7.2-11 15.7-21 24.9-30.3 18.6-18.8 40.3-34.7 63.2-47.9 29.1-16.7 60.1-29.5 92.2-39.2-19.6-15.1-44.1-24.1-68.1-29.1-11.2-2.3-22.6-3.7-34.1-3.6-2.5 0-4.9 0.1-7.4 0.3-0.9 0.1-2.3 0-3.1 0.3-1.6 0.7-3.1 1.4-4.7 2.1-5.9 2.7-11.7 5.7-17.4 8.9-45.3 25.5-82.2 65.1-104.3 112.2-10.6 22.6-17.8 46.8-21.2 71.6-3.7 26.4-3.3 53.2 3.3 79.1 0.8 3.2 1.6 6.3 2.6 9.4" opacity=".31"/><path d="m388.2-446.63-25.9-2c-10.2-0.7-20.4-1.1-30.7-1.1-24.5 0-49 2.2-72.7 6.2 29.4 20.8 61.7 65 79 123.7h-0.1v0.1c-0.1-0.1-0.2-0.1-0.2-0.2 13.1 12.7 22.6 30.2 22.5 49.1 0 10.9-3 20.9-7.2 29.2-2.6 5.1-5.6 9.7-8.9 13.8-1.8 36.8-7.7 96.3-47.9 152.1 82.5-41 139.2-126.1 139.2-224.5 0.1-54.7-17.4-105.2-47.1-146.4z" opacity=".15"/></g></g><g transform="matrix(2.1143 0 0 2.1143 -749.81 -282.69)"><path d="m372.3 241.6c3 0.4 6 0.6 8.9 0.6 4.2 0 8.2-0.3 12-0.7 12.3-1.2 24.4-4 36-8 4.1-1.4 11.5-4.2 18.4-8.2 3.5-2 6.9-4.3 9.8-7.4 1.5-1.5 2.8-3.3 3.9-5.4s1.8-4.7 1.8-7.4c0-5.2-2.7-9.9-6.4-13.2-4.9-4.4-10.6-7.1-16.2-9.2-5.6-2-11.2-3.4-15.9-4.6-8.6-2.2-14.8-3.7-21.3-5 3.9-2.4 8.3-4.5 13.2-6.4 11.6-4.5 25.5-7.2 39.4-7.2 2.6 0 5.2 0.1 7.8 0.3l6.6 0.5c7.6 10.5 12 23.3 12 37.3 0 35.2-28.6 63.8-63.8 63.8-18.1 0-34.5-7.6-46.2-19.8zm-6.8-19.8c6.8 2.6 12.1 2.6 15.7 2.8 3.3 0.1 6.9 0 10.3-0.4 10.9-1.1 21.7-3.6 32.1-7.1 2.3-0.8 6-2.2 9.7-3.9s7.6-3.8 10-5.8c1.1-0.8 1.8-1.7 2.3-2.2l-0.4-0.4c-2.3-2.1-6-4.1-10.5-5.7-4.4-1.6-9.5-2.9-14.3-4.1-15.3-4-22.1-5.2-38-8.1 0 0-10.6-1.6-10.5-1.8 7.1-20.4 39-40.4 78.6-42.7-9.4-5.4-20.2-8.5-31.8-8.5-35.2 0-63.8 28.6-63.8 63.8 0 4.7 0.8 9.3 2.1 13.7 1.6 4.9 4 8.6 8.5 10.4z" fill="url(#SVGID_6_-0)"/></g><path d="m37.357 228.14c6.343 0.84573 12.686 1.2686 18.818 1.2686 8.8802 0 17.338-0.6343 25.372-1.48 26.006-2.5372 51.59-8.4573 76.116-16.915 8.6688-2.9601 24.315-8.8802 38.904-17.338 7.4002-4.2287 14.589-9.0916 20.72-15.646 3.1715-3.1715 5.9201-6.9773 8.2459-11.417 2.3258-4.4401 3.8058-9.9374 3.8058-15.646 0-10.995-5.7087-20.932-13.532-27.909-10.36-9.303-22.412-15.012-34.252-19.452-11.84-4.2287-23.681-7.1887-33.618-9.7259-18.183-4.6515-31.292-7.823-45.035-10.572 8.2459-5.0744 17.549-9.5145 27.909-13.532 24.526-9.5145 53.915-15.223 83.305-15.223 5.4973 0 10.995 0.21143 16.492 0.6343l13.955 1.0572c16.069 22.2 25.372 49.264 25.372 78.865 0 74.424-60.47 134.89-134.89 134.89-38.269 0-72.944-16.069-97.682-41.864z" fill="none" stroke-width="2.1143"/><path d="m37.357 228.14c6.343 0.84573 12.686 1.2686 18.818 1.2686 8.8802 0 17.338-0.6343 25.372-1.48 26.006-2.5372 51.59-8.4573 76.116-16.915 8.6688-2.9601 24.315-8.8802 38.904-17.338 7.4002-4.2287 14.589-9.0916 20.72-15.646 3.1715-3.1715 5.9201-6.9773 8.2459-11.417 2.3258-4.4401 3.8058-9.9374 3.8058-15.646 0-10.995-5.7087-20.932-13.532-27.909-10.36-9.303-22.623-15.012-34.252-19.452-11.84-4.2287-23.681-7.1887-33.618-9.7259-18.183-4.6515-31.292-7.823-45.035-10.572 8.2459-5.0744 17.549-9.5145 27.909-13.532 24.526-9.5145 53.915-15.223 83.305-15.223 5.4973 0 10.995 0.21143 16.492 0.6343l13.955 1.0572c16.069 22.2 25.372 49.264 25.372 78.865 0 74.424-60.47 134.89-134.89 134.89-38.269 0-72.944-16.069-97.682-41.864zm-14.377-41.864c14.377 5.4973 25.583 5.4973 33.195 5.9201 6.9773 0.21143 14.589 0 21.778-0.84573 23.046-2.3258 45.881-7.6116 67.87-15.012 4.863-1.6915 12.686-4.6515 20.509-8.2459s16.069-8.0344 21.143-12.263c2.3258-1.6915 3.8058-3.5944 4.863-4.6515-0.21143-0.21143-0.6343-0.6343-1.0572-0.84573-4.863-4.4401-12.686-8.6688-22.2-12.052-9.3031-3.3829-20.086-6.1316-30.235-8.6688-32.349-8.4573-46.727-10.995-80.345-17.126 0 0-22.412-3.3829-22.2-3.8058 15.012-43.132 82.459-85.419 166.19-90.282-19.875-11.417-42.709-17.972-67.236-17.972-74.424 0-134.89 60.47-134.89 134.89 0 9.9374 1.6915 19.663 4.4401 28.966 3.5944 10.36 8.6688 18.395 18.183 21.989z" fill="url(#SVGID_7_-9)" opacity=".32" stroke-width="2.1143"/><path d="m63.363 229.19c-2.1143 0-5.0744 0.21144-7.1887 0.21144-6.1316 0-12.475-0.42287-18.818-1.2686 24.526 25.795 59.201 41.864 97.682 41.864 21.566 0 41.864-5.0744 60.047-13.955 21.566-30.023 24.738-62.161 25.795-81.825-1.0572 1.48-2.3258 2.7486-3.3829 4.0172-6.1316 6.5544-13.32 11.417-20.72 15.646-12.686 7.1887-26.006 12.686-34.886 15.857-7.823 14.8-24.315 26.218-41.652 29.812-11.206 2.3258-30.446 2.9601-56.241-10.149z" fill="url(#SVGID_8_-0)" opacity=".31" stroke-width="2.1143"/><path d="m4.5844 163.86c2.5372 7.6116 6.343 15.223 13.32 19.663 3.8058 2.5372 8.4573 4.0172 12.897 5.0744 4.2287 1.2686 8.6688 2.1143 13.109 2.5372-5.7087-13.32-9.5145-27.275-10.995-41.652-0.6343-7.1887-0.84573-14.377-0.21143-21.566 0.42287-6.5544 1.48-13.32 3.3829-19.663 1.9029-5.9201 4.863-11.417 8.2459-16.492 3.8058-5.9201 8.4573-11.417 13.32-16.28 9.9374-10.149 21.778-18.606 34.041-25.795 15.646-9.0916 32.349-15.857 49.687-21.143-10.572-8.0345-23.681-12.897-36.578-15.646-6.1316-1.2686-12.263-1.9029-18.395-1.9029-1.2686 0-2.7486 0-4.0172 0.21143-0.42287 0-1.2686 0-1.6915 0.21143-0.84573 0.42287-1.6915 0.84573-2.5372 1.0572-3.1715 1.48-6.343 3.1715-9.3031 4.863-24.315 13.743-44.19 35.098-56.241 60.47-5.7087 12.263-9.5145 25.161-11.417 38.481-1.9029 14.166-1.6915 28.543 1.6915 42.498 0.84573 1.6915 1.2686 3.3829 1.6915 5.0744" fill="url(#SVGID_9_-6)" opacity=".31" stroke-width="2.1143"/><path d="m129.75 21.355c4.2287 2.1143 8.2459 4.6515 11.84 7.1887h-0.21143c18.818-5.7087 39.327-9.3031 60.893-10.572-19.875-11.417-42.709-17.972-67.236-17.972-19.24 0-37.635 4.0172-54.127 11.206 14.166-1.2686 33.618 2.5372 48.841 10.149z" fill="url(#SVGID_10_-7)" opacity=".35" stroke-width="2.1143"/><path d="m244.77 56.241-13.955-1.0572c-5.4973-0.42287-10.995-0.6343-16.492-0.6343-13.32 0-26.429 1.2686-39.115 3.3829 15.857 11.206 33.195 35.098 42.498 66.601l-0.21144-0.21143c6.9773 6.7659 12.263 16.28 12.052 26.429 0 5.9201-1.6915 11.206-3.8058 15.646-1.48 2.7486-2.9601 5.2858-4.863 7.4002-1.0572 19.875-4.2287 51.801-25.795 81.825 44.401-21.989 75.059-67.87 75.059-120.94 0-28.966-9.5145-56.241-25.372-78.442z" fill="url(#SVGID_11_-7)" opacity=".15" stroke-width="2.1143"/><path transform="matrix(.5386 0 0 .5386 -75.869 -88.361)" d="m466.9 272.4c48.5 36.1 70.9 99.7 77.7 122.7-19.2-18.5-44.7-30.9-66.7-38.8-22-8-43.9-13.3-62.3-18.1-33.8-8.8-58.2-14.4-83.6-19.6 15.3-9.2 32.7-17.8 51.7-25 25.1-9.7 52.9-17.3 81.9-22.2 0 0 0.8 0.6 1.3 1z" fill="#757576" filter="url(#filter1952)" opacity=".17"/><g transform="matrix(2.1143 0 0 2.1143 -749.81 -282.69)"><path d="m437.7 161.3c12.4 9.2 18.1 25.4 19.8 31.3-4.9-4.7-11.4-7.9-17-9.9s-11.2-3.4-15.9-4.6c-8.6-2.2-14.8-3.7-21.3-5 3.9-2.4 8.3-4.5 13.2-6.4 6.4-2.5 13.5-4.4 20.9-5.7 0 0.1 0.2 0.2 0.3 0.3z" fill="url(#SVGID_12_-7)" opacity=".17"/></g></g><polygon transform="matrix(2.1987 0 0 2.1987 -464 -499.54)" points="512 305.6 506.6 333.1 348.5 333.1 348.5 305.6" fill="url(#SVGID_13_)"/><g transform="matrix(2.1987 0 0 2.1987 -464 -499.54)">
		<path d="m371.3 258.6c-0.3 0.7-9.6 26.3-9.6 26.3s-9.3-25.5-9.6-26.3h-11.6c0.6 1.5 16.9 40.4 17.1 41h7.9c0.3-0.7 16.5-39.5 17.1-41h-11.3z"/>
		<path d="m390 258.6v40.9h11.2v-40.9h-11.2z"/>
		<path d="m425.3 258.6c-0.3 0.7-16.5 39.5-17.2 41h11.6c0.2-0.6 1.7-4.6 1.7-4.6h15.8s1.4 4 1.7 4.6h11.5c-0.6-1.5-16.9-40.4-17.2-41h-7.9zm4 14.8 5.1 14.1h-10.2z"/>
		<path d="m511.4 258.6c-0.3 0.7-16.5 39.5-17.2 41h11.6c0.2-0.6 1.7-4.6 1.7-4.6h15.8s1.4 4 1.7 4.6h11.5c-0.6-1.5-16.9-40.4-17.1-41h-8zm4 14.8 5.1 14.1h-10.3z"/>
		<path d="m469.5 258.2c-10.1 0-15 3.4-15 10.5v4.9c0 3.7 1.5 6.5 4.1 7.8 2 1.1 4.3 1.4 10.3 1.4h7.8c2.5 0 3.5 1 3.5 3.5v0.6c0 2.5-1 3.5-3.5 3.5h-8.5c-1.3 0-2.1-0.3-2.7-0.9-0.4-0.5-0.7-1.1-0.7-2-1 0.1-9.1 0.4-10.2 0.4 1.2 8.4 5.3 11.6 14.9 11.6h6.2c10.1 0 15-3.5 15-10.6v-4.9c0-3.7-1.4-6.5-4.1-7.9-2-1.1-4.3-1.4-10.3-1.4h-7.8c-2.5 0-3.5-1-3.5-3.4v-0.6c0-2.5 1.1-3.5 3.5-3.5h8.5c1.3 0 2.1 0.3 2.7 0.9 0.4 0.5 0.7 1.1 0.7 1.9 1-0.1 9.1-0.8 10.2-0.9-1.6-8.2-5.5-11.1-14.9-11.1h-6.2z"/>
		<path d="m533.4 258.6v9.8h14.3v31.1h11.2v-31.1h14.3v-9.8h-39.8z"/>
	</g><g transform="matrix(2.1987 0 0 2.1987 -464 -499.54)" fill="#fff">
		<path d="m361.6 329.1c-3 0-5.8-0.6-8.1-1.6l0.7-5.1c2.5 1.2 5 1.8 7.6 1.8 2.2 0 3-0.4 3-1.1 0-1.7-11.3 0.1-11.3-7 0-3.3 2.5-6.5 9.3-6.5 2.4 0 5.4 0.4 7.4 1.1l-0.8 4.9c-2.4-0.6-4.7-1-6.6-1-2.7 0-3.1 0.5-3.1 1 0 1.8 11.3-0.3 11.3 7 0 4-3.8 6.5-9.4 6.5z"/>
		<path d="m383.5 324h-2.7v4.8h-6.6v-18.8h9.3c7 0 10 2.9 10 7.2 0 3.7-3 6.8-10 6.8zm0-9.4h-2.7v4.8h2.7c2.3 0 3.2-0.5 3.2-2.4 0-1.8-0.7-2.4-3.2-2.4z"/>
		<path d="m407.2 329.1c-8.2 0-11.5-4.3-11.5-9.7 0-5.5 3.3-9.7 11.5-9.7s11.5 4.2 11.5 9.7c0 5.4-3.3 9.7-11.5 9.7zm0-14.4c-3.4 0-4.5 1.3-4.5 4.6s1.1 4.7 4.5 4.7 4.6-1.5 4.6-4.7c0-3.3-1-4.6-4.6-4.6z"/>
		<path d="m437.6 321.7 5.7 7h-7.9l-3.6-5.7h-3.1v5.7h-6.6v-18.8h10c6 0 9.4 2.3 9.4 6.4 0 2.3-1.5 4.6-3.9 5.4zm-5.7-7.1h-3.1v4.3h3.1c2 0 2.8-0.5 2.8-2.3-0.1-1.5-0.8-2-2.8-2z"/>
		<path d="m457 315.2v13.5h-6.6v-13.5h-6.4l0.1-5.2h19.1l0.1 5.2z"/>
	</g><polygon transform="matrix(2.1987 0 0 2.1987 -464 -499.54)" points="573.2 333.2 573.2 305.6 515.5 305.5 510.2 333.2"/><path d="m709.22 206.68h-18.689l-3.5179 16.71h-16.49l8.7948-41.995h16.49l-3.0782 14.731h18.689l3.0782-14.731h16.49l-9.0146 41.995h-16.27z" fill="#fff" stroke-width="2.1987"/><path d="m739.13 181.61h32.101c14.292 0 20.448 5.4967 17.37 20.888-3.0782 14.731-11.873 20.888-25.725 20.888h-32.541zm9.8941 31.222h9.4544c7.4756 0 11.433-3.7378 12.752-10.334 1.5391-6.5961-0.87948-10.334-8.355-10.334h-9.4544z" fill="#fff" stroke-width="2.1987"/>
</svg>
