<svg width="1300" height="860.6" version="1.1" viewBox="0 0 343.96 227.7" xmlns="http://www.w3.org/2000/svg">
 <defs>
  <linearGradient id="c" x2="1" gradientTransform="matrix(143.78,-171.34,171.34,143.78,4.47,182.65)" gradientUnits="userSpaceOnUse">
   <stop stop-color="#526123" offset="0"/>
   <stop stop-color="#becd0b" offset="1"/>
  </linearGradient>
  <clipPath id="b">
   <path d="m-30515 16025h40609v-28714h-40609z"/>
  </clipPath>
 </defs>
 <g transform="matrix(.99999 0 0 .99999 3.0238 -17.597)" stroke-width=".26459">
  <path d="m103.11 17.595v52.664l12.88 33.151-12.88-15.983v0.249l-56.477-70.082h-49.651v158.75h52.621v-73.26l58.967 73.26h47.15v-158.75h-52.61z" fill="url(#c)"/>
  <path d="m-3.0208 182.54h158.75v30.92h-158.75l0.0012-30.92z" fill="#9d9d9c"/>
  <path d="m90.227 196.78c-0.93-0.48-2.01-0.63-4.82-0.63h-3.661c-1.17 0-1.65-0.47-1.65-1.58v-0.23c0-0.06 0-0.11 0.01-0.16 0.05-1 0.55-1.44 1.64-1.44h3.991c0.53 0 0.94 0.11 1.2 0.32 0.03 0.02 0.05 0.05 0.06 0.06 0.21 0.21 0.32 0.5 0.34 0.88 0.47-0.03 4.25-0.34 4.76-0.38-0.1-0.47-0.21-0.91-0.33-1.29-0.92-2.72-2.81-3.74-6.61-3.74h-2.911c-4.69 0-6.99 1.56-6.99 4.78v2.2c0 1.69 0.69 2.96 1.93 3.56 0.94 0.5 2.02 0.63 4.81 0.63h3.671c1.17 0 1.65 0.46 1.65 1.57v0.26c0 1.11-0.49 1.61-1.65 1.61h-3.991c-0.6 0-1.01-0.13-1.27-0.41-0.19-0.22-0.31-0.51-0.32-0.91-0.46 0.03-4.29 0.19-4.79 0.21 0.57 3.84 2.49 5.29 6.95 5.29h2.911c4.71 0 6.99-1.58 6.99-4.83v-2.2c0-1.7-0.67-2.97-1.92-3.57m40.513-8.03h-18.6v4.45h6.68v14.11h5.22v-14.11h6.7zm-69.646 13.09 2.4-6.39 2.401 6.39zm4.231-13.09h-3.701l-8.031 18.64h5.411l0.79-2.1h7.401l0.78 2.1h5.36zm36.025 13.09 2.38-6.41 2.4 6.41zm4.22-13.09h-3.7l-8.032 18.64h5.41l0.782-2.1h7.4l0.79 2.1h5.37zm-73.703 11.95-4.49-11.95h-5.41l8.014 18.64h3.714l8.027-18.64h-5.381l-4.473 11.95zm13.235 6.61h5.221v-18.56h-5.221z" fill="#fff"/>
  <g fill="#526023">
   <path d="m-3.0238 219.62h5.1335l11.846 15.57v-15.57h5.484v25.28h-4.724l-12.255-16.07v16.07h-5.4838v-25.28z"/>
   <path d="m41.852 234.36-3.37-8.2-3.361 8.2zm-5.871-14.93h5.151l10.841 25.48h-5.821l-2.31-5.68h-10.695l-2.325 5.68h-5.66z"/>
   <path d="m60.304 224.75h-7.691v-5.13h20.942v5.13h-7.69v20.15h-5.561z"/>
   <path d="m90.187 245.3c-3.39 0-6.07-0.93-8.031-2.83-1.94-1.89-2.92-4.68-2.92-8.4v-14.44h5.571v14.3c0 2.07 0.48 3.64 1.45 4.66 0.95 1.06 2.29 1.58 4 1.58s3.051-0.5 4.011-1.5c0.97-1.03 1.45-2.53 1.45-4.57v-14.47h5.572v14.25c0 1.92-0.26 3.59-0.78 5.02-0.522 1.43-1.272 2.62-2.222 3.57-0.98 0.95-2.13 1.66-3.49 2.13s-2.901 0.7-4.611 0.7"/>
   <path d="m119.96 231.94c1.37 0 2.42-0.33 3.16-0.98 0.74-0.66 1.11-1.53 1.11-2.62v-0.07c0-1.2-0.4-2.12-1.17-2.72-0.76-0.6-1.83-0.91-3.21-0.91h-5.52v7.3zm-11.2-12.33h11.56c3.2 0 5.66 0.87 7.37 2.58 1.43 1.45 2.17 3.38 2.17 5.77v0.08c0 2.04-0.5 3.71-1.5 5.01-1 1.27-2.31 2.23-3.91 2.82l6.17 9.04h-6.51l-5.41-8.1h-4.37v8.1h-5.57z"/>
   <path d="m136.51 219.62h19.04v4.94h-13.56v5.15h11.93v4.94h-11.93v5.31h13.73v4.94h-19.21z"/>
  </g>
 </g>
 <g transform="matrix(.89596 0 0 .89596 -140.16 275.52)">
  <path d="m363.16-283.67v177.69h175.11v-177.69z" fill="#231f20"/>
  <path d="m363.26-77.756v-19.621h8.9535c5.334 0 7.9163 2.5823 7.9163 6.604 0 4.2333-2.3707 6.9215-7.7046 6.9215h-3.0692v6.096zm8.6148-10.689c1.4182 0 2.4553-0.59266 2.4553-2.286 0-1.8203-1.9685-2.0743-3.2597-2.0743h-1.7145v4.3603z" fill="#231f20"/>
  <path d="m381.85-77.756v-19.621h6.096v15.049h8.3396v4.572z" fill="#231f20"/>
  <path d="m396.85-77.756 6.6675-19.621h6.1806l6.6463 19.621h-6.0536l-0.71966-2.5823h-6.0536l-0.71967 2.5823zm9.6943-13.716-1.8838 7.0485h3.8523z" fill="#231f20"/>
  <path d="m427.31-77.756h-6.096v-7.1543l-6.9003-12.467h6.8156l3.1962 6.6463 3.1962-6.6463h6.7098l-6.9215 12.382z" fill="#231f20"/>
  <path d="m444.69-77.756c4.826 0 7.9798-1.524 7.9798-5.9266 0-2.1167-1.0583-3.937-3.0903-4.5085 1.1853-0.762 2.4342-2.2437 2.4342-4.2545 0-3.8946-3.3232-4.9318-7.5141-4.9318h-8.8688v19.621zm-0.8255-15.049c1.2912 0 2.4765 0.0212 2.4765 1.5663 0 1.1218-0.86783 1.7145-2.0955 1.7145h-2.5188v-3.2808zm-0.21167 6.8368c1.9473 0 3.3655 0.12699 3.3655 1.8415 0 1.4605-1.143 1.7992-2.6458 1.7992h-2.6458v-3.6406z" fill="#231f20"/>
  <path d="m464.06-97.907c-5.7785 0-9.7155 4.0005-9.7155 10.181 0 6.6675 3.8947 10.499 9.7155 10.499 5.4822 0 9.7366-3.7677 9.7366-10.435 0-5.207-3.1115-10.245-9.7366-10.245zm-0.0635 4.8048c2.6882-0.0847 3.7253 2.7517 3.7253 5.4398 0 3.2385-1.0372 5.6303-3.6618 5.6303-2.921 0-3.6407-3.1327-3.6407-5.6303s0.8255-5.4398 3.5772-5.4398z" fill="#231f20"/>
  <path d="m487.36-77.756h-6.096v-7.1543l-6.9003-12.467h6.7945l3.1962 6.6463 3.2173-6.6463h6.6886l-6.9003 12.382z" fill="#231f20"/>
  <path d="m503.6-97.378h17.018v5.1435h-5.461v14.478h-6.096v-14.478h-5.461z" fill="#231f20"/>
  <path d="m521.46-97.378h6.1383l3.2385 13.06 3.3867-13.06h6.1172l-6.4346 19.621h-6.096z" fill="#231f20"/>
  <path transform="matrix(.26458 0 0 .26458 363.16 -283.67)" d="m122.64 2.8c29.28 71.759 82.719 134.4 144.24 192.96 68.4 59.44 153.28 82.159 232.16 116.08-89.279 7.12-172.64 25.52-236.64 89.279-44.64 39.6-69.919 102.56-55.04 151.52 18.72 54.56 103.12 96.479 170.24 116.24h281.44v-666.08h-4.4c-19.12 27.92-34.4 57.44-44 88.159-28.24 66.56-25.28 144.4-29.76 219.52-70.479-108.64-162.96-220-270.96-307.68zm241.36 387.36c18.48-0.16 37.28 9.1199 44.24 27.92 4.48 15.6 0 34-11.92 45.36-13.36 11.28-32.72 15.52-49.12 8.4799-16.32-7.0399-25.28-22.64-26.72-38.24 0-18.4 10.4-35.44 28.24-41.12 4.88-1.52 10.08-2.32 15.28-2.4z" clip-path="url(#b)" fill="#fff"/>
 </g>
</svg>
