<svg width="797.15" height="270" version="1.1" viewBox="0 0 797.15 270" xmlns="http://www.w3.org/2000/svg">
 <clipPath id="a">
  <path d="m184.78-534.18c-129.1 0-233.8 104.7-233.8 233.8s104.7 233.8 233.8 233.8c129.2 0 233.8-104.7 233.8-233.8 0.1-129.1-104.6-233.8-233.8-233.8z"/>
 </clipPath>
 <filter id="b" x="-.048012" y="-.047988" width="1.096" height="1.096" color-interpolation-filters="sRGB">
  <feGaussianBlur stdDeviation="10.023391"/>
 </filter>
 <radialGradient id="c" cx="9.5812" cy="-170.57" r="125.94" gradientUnits="userSpaceOnUse">
  <stop stop-color="#fff" offset=".3427"/>
  <stop stop-color="#fdfdfc" offset=".4887"/>
  <stop stop-color="#f8f8f2" offset=".6032"/>
  <stop stop-color="#f5f5ed" offset=".6404"/>
  <stop stop-color="#e8e9e1" offset=".7054"/>
  <stop stop-color="#c6c8c3" offset=".8251"/>
  <stop stop-color="#9da09d" offset=".9494"/>
 </radialGradient>
 <linearGradient id="d" x1="747.08" x2="1428.2" y1="624.49" y2="624.49" gradientUnits="userSpaceOnUse">
  <stop stop-color="#16217c" offset="0"/>
  <stop stop-color="#2943ad" offset=".4669"/>
  <stop stop-color="#406be6" offset="1"/>
 </linearGradient>
 <linearGradient id="e" x1="104.39" x2="-86.474" y1="-74.513" y2="-265.38" gradientUnits="userSpaceOnUse">
  <stop stop-color="#16217c" offset="0"/>
  <stop stop-color="#406be6" offset="1"/>
 </linearGradient>
 <radialGradient id="f" cx="-132.14" cy="-85.338" r="202.91" gradientUnits="userSpaceOnUse">
  <stop stop-color="#fff" offset="0"/>
  <stop stop-color="#f8f8fd" offset=".1066"/>
  <stop stop-color="#e4e5f6" offset=".2636"/>
  <stop stop-color="#c3c5ec" offset=".4517"/>
  <stop stop-color="#969ade" offset=".664"/>
  <stop stop-color="#5d62cb" offset=".8936"/>
  <stop stop-color="#4046c2" offset="1"/>
 </radialGradient>
 <linearGradient id="g" x1="-114.64" x2="118.33" y1="-165.93" y2="-352.58" gradientUnits="userSpaceOnUse">
  <stop stop-color="#fff" offset="0"/>
  <stop stop-color="#c1c9ff" offset=".6"/>
 </linearGradient>
 <linearGradient id="h" x1="-44.586" x2="76.82" y1="-291.21" y2="-291.21" gradientUnits="userSpaceOnUse">
  <stop stop-color="#fff" offset="0"/>
  <stop stop-color="#e7e8f7" offset=".030067"/>
  <stop stop-color="#c0c2eb" offset=".086589"/>
  <stop stop-color="#9da0e0" offset=".149"/>
  <stop stop-color="#8084d6" offset=".2168"/>
  <stop stop-color="#686dcf" offset=".2918"/>
  <stop stop-color="#565cc9" offset=".377"/>
  <stop stop-color="#4a4fc5" offset=".4784"/>
  <stop stop-color="#4248c3" offset=".6121"/>
  <stop stop-color="#4046c2" offset=".9042"/>
 </linearGradient>
 <linearGradient id="i" x1="31.567" x2="166.19" y1="-100.27" y2="-277.41" gradientUnits="userSpaceOnUse">
  <stop stop-color="#fff" offset=".0050505"/>
  <stop stop-color="#fcfbfc" offset=".0086908"/>
  <stop stop-color="#d8c7d8" offset=".055903"/>
  <stop stop-color="#b897b8" offset=".1063"/>
  <stop stop-color="#9c6f9c" offset=".1586"/>
  <stop stop-color="#844c84" offset=".2135"/>
  <stop stop-color="#713171" offset=".2715"/>
  <stop stop-color="#631b63" offset=".3338"/>
  <stop stop-color="#580c58" offset=".4025"/>
  <stop stop-color="#520352" offset=".4823"/>
  <stop stop-color="#500050" offset=".6"/>
 </linearGradient>
 <filter id="j" x="-.037964" y="-.065248" width="1.0759" height="1.1305" color-interpolation-filters="sRGB">
  <feGaussianBlur stdDeviation="3.363"/>
 </filter>
 <linearGradient id="k" x1="-5.3707" x2="80.008" y1="-268.43" y2="-139.46" gradientUnits="userSpaceOnUse">
  <stop stop-color="#e66400" offset="0"/>
  <stop stop-color="#e76a09" offset=".0073802"/>
  <stop stop-color="#eb8537" offset=".047676"/>
  <stop stop-color="#f0a062" offset=".09309"/>
  <stop stop-color="#f3b788" offset=".1419"/>
  <stop stop-color="#f7caa8" offset=".195"/>
  <stop stop-color="#f9dbc4" offset=".2537"/>
  <stop stop-color="#fbe8da" offset=".32"/>
  <stop stop-color="#fdf3eb" offset=".3974"/>
  <stop stop-color="#fefaf6" offset=".4931"/>
  <stop stop-color="#fffefd" offset=".6274"/>
  <stop stop-color="#fff" offset="1"/>
 </linearGradient>
 <g transform="translate(125.38 305.57)">
  <path d="m9.5633-296.52c-69.533 0-125.92 56.391-125.92 125.92s56.391 125.92 125.92 125.92c69.587 0 125.92-56.391 125.92-125.92 0.0539-69.533-56.338-125.92-125.92-125.92z" fill="url(#c)" stroke-width=".5386"/>
  <g transform="matrix(.5386 0 0 .5386 -89.959 -8.8136)" clip-path="url(#a)" fill="#757576" filter="url(#b)">
   <path d="m3.3998-127.63c11.8 1.5 23.5 2.2 34.9 2.2 16.4 0 32.3-1.2 47.1-2.7 48.2-4.9 95.9-15.7 141.3-31.4 16.1-5.6 45.1-16.4 72.3-32.1 13.7-8 27-17 38.5-29 5.7-6 11.1-12.9 15.3-21.2s7.2-18.3 7.2-29.2c0.2-20.3-10.8-38.9-25.3-51.7-19.3-17.4-41.8-28-63.8-36s-43.9-13.3-62.3-18.1c-33.8-8.8-58.2-14.4-83.6-19.6 15.3-9.2 32.7-17.8 51.6-25 45.7-17.6 100.1-28.4 154.7-28.4 10.2 0 20.5 0.4 30.7 1.1l25.9 2c29.7 41.2 47.2 91.7 47.2 146.3 0 138.4-112.2 250.6-250.6 250.6-71.1 0-135.5-29.9-181.1-77.8zm-26.8-77.8c26.8 10.2 47.6 10.4 61.6 10.9 13.1 0.5 26.9 0 40.4-1.4 42.6-4.3 85.3-14 125.9-28 9-3.1 23.5-8.5 38.2-15.3 14.7-6.7 29.7-15.1 39.2-22.8 4.3-3.3 7.3-6.5 8.9-8.6-0.5-0.5-1-1.1-1.8-1.7-9.1-8.3-23.7-16.1-41.1-22.4s-37.2-11.3-56.2-16.2c-60.3-15.6-86.7-20.4-149.2-31.7 0 0-41.5-6.4-41.3-7.2 27.8-80.3 153-158.8 308.6-167.7-36.8-21.3-79.3-33.5-124.9-33.5-138.4 0-250.6 112.2-250.6 250.6 0 18.5 3.1 36.5 8.3 53.6 6.8 20 16.4 34.8 34 41.4z"/>
   <path d="m260-442.63c48.5 36.1 70.9 99.7 77.7 122.7-19.2-18.5-44.7-30.9-66.7-38.8-22-8-43.9-13.3-62.3-18.1-33.8-8.8-58.2-14.4-83.6-19.6 15.3-9.2 32.7-17.8 51.7-25 25.1-9.7 52.9-17.3 81.9-22.2 0 0 0.8 0.6 1.3 1z" opacity=".17"/>
   <path d="m51.6-125.63c-4.1 0.1-9.4 0.3-13.5 0.3-11.4 0-23.1-0.7-34.9-2.2 45.6 47.9 110 77.8 181.4 77.8 40 0 77.8-9.4 111.4-26.1 40.1-55.9 46.1-115.3 47.9-152.1-2.1 2.6-4.2 5.1-6.5 7.4-11.5 12-24.9 21.1-38.5 29-23.4 13.5-48.2 23.4-64.9 29.5-14.4 27.6-45.1 48.8-77.4 55.6-21 4.4-56.6 5.5-104.4-18.8z" opacity=".31"/>
   <path d="m-57.5-246.73c4.8 14 11.9 28.1 24.6 36.5 7.2 4.8 15.7 7.3 23.9 9.6 8 2.2 16.2 3.8 24.5 4.7-10.6-24.7-17.8-50.7-20.3-77.5-1.2-13.3-1.4-26.7-0.3-39.9 1-12.1 2.6-24.8 6.2-36.4 3.4-10.9 9.2-21.3 15.5-30.8 7.2-11 15.7-21 24.9-30.3 18.6-18.8 40.3-34.7 63.2-47.9 29.1-16.7 60.1-29.5 92.2-39.2-19.6-15.1-44.1-24.1-68.1-29.1-11.2-2.3-22.6-3.7-34.1-3.6-2.5 0-4.9 0.1-7.4 0.3-0.9 0.1-2.3 0-3.1 0.3-1.6 0.7-3.1 1.4-4.7 2.1-5.9 2.7-11.7 5.7-17.4 8.9-45.3 25.5-82.2 65.1-104.3 112.2-10.6 22.6-17.8 46.8-21.2 71.6-3.7 26.4-3.3 53.2 3.3 79.1 0.8 3.2 1.6 6.3 2.6 9.4" opacity=".31"/>
   <path d="m388.2-446.63-25.9-2c-10.2-0.7-20.4-1.1-30.7-1.1-24.5 0-49 2.2-72.7 6.2 29.4 20.8 61.7 65 79 123.7h-0.1v0.1c-0.1-0.1-0.2-0.1-0.2-0.2 13.1 12.7 22.6 30.2 22.5 49.1 0 10.9-3 20.9-7.2 29.2-2.6 5.1-5.6 9.7-8.9 13.8-1.8 36.8-7.7 96.3-47.9 152.1 82.5-41 139.2-126.1 139.2-224.5 0.1-54.7-17.4-105.2-47.1-146.4z" opacity=".15"/>
  </g>
  <g stroke-width=".5386">
   <path d="m-88.139-77.528c6.3555 0.8079 12.657 1.1849 18.797 1.1849 8.833 0 17.397-0.6463 25.368-1.4542 25.961-2.6391 51.652-8.456 76.104-16.912 8.6715-3.0162 24.291-8.8331 38.941-17.289 7.3788-4.3088 14.542-9.1562 20.736-15.619 3.07-3.2316 5.9785-6.9479 8.2406-11.418 2.2621-4.4704 3.8779-9.8564 3.8779-15.727 0.10772-10.934-5.8169-20.952-13.627-27.846-10.395-9.3716-22.513-15.081-34.363-19.39-11.849-4.3088-23.645-7.1634-33.555-9.7486-18.205-4.7397-31.346-7.7559-45.027-10.557 8.2406-4.9551 17.612-9.5871 27.792-13.465 24.614-9.4793 53.914-15.296 83.321-15.296 5.4937 0 11.041 0.2154 16.535 0.5924l13.95 1.0772c15.996 22.19 25.422 49.39 25.422 78.797 0 74.542-60.431 134.97-134.97 134.97-38.294 0-72.98-16.104-97.54-41.903zm-14.434-41.903c14.434 5.4938 25.637 5.6015 33.178 5.8708 7.0557 0.2693 14.488 0 21.759-0.7541 22.944-2.3159 45.943-7.5404 67.81-15.081 4.8474-1.6696 12.657-4.578 20.575-8.2405 7.9174-3.6086 15.996-8.1329 21.113-12.28 2.316-1.7774 3.9318-3.5009 4.7935-4.632-0.2693-0.2693-0.5386-0.5924-0.96948-0.9156-4.9013-4.4704-12.765-8.6714-22.136-12.065-9.3716-3.3932-20.036-6.0862-30.269-8.7253-32.478-8.4022-46.697-10.988-80.359-17.074 0 0-22.352-3.4471-22.244-3.8779 14.973-43.25 82.406-85.53 166.21-90.323-19.82-11.472-42.711-18.043-67.271-18.043-74.542 0-134.97 60.431-134.97 134.97 0 9.9641 1.6697 19.659 4.4704 28.869 3.6625 10.772 8.833 18.743 18.312 22.298z" fill="url(#e)"/>
   <path d="m-62.178-76.451c-2.2083 0.054-5.0628 0.1616-7.2711 0.1616-6.14 0-12.442-0.377-18.797-1.1849 24.56 25.799 59.246 41.903 97.702 41.903 21.544 0 41.903-5.0628 60-14.057 21.598-30.108 24.829-62.101 25.799-81.921-1.1311 1.4004-2.2621 2.7469-3.5009 3.9857-6.1939 6.4632-13.411 11.364-20.736 15.619-12.603 7.2711-25.961 12.603-34.955 15.889-7.7558 14.865-24.291 26.284-41.688 29.946-11.311 2.3698-30.485 2.9623-56.23-10.126z" fill="url(#f)" opacity=".31"/>
   <path d="m-120.94-141.68c2.5853 7.5404 6.4093 15.135 13.25 19.659 3.8779 2.5852 8.456 3.9317 12.873 5.1705 4.3088 1.1849 8.7253 2.0467 13.196 2.5314-5.7092-13.303-9.5871-27.307-10.934-41.741-0.64632-7.1634-0.75404-14.381-0.16158-21.49 0.5386-6.517 1.4004-13.357 3.3393-19.605 1.8312-5.8707 4.9551-11.472 8.3483-16.589 3.8779-5.9246 8.456-11.31 13.411-16.32 10.018-10.126 21.706-18.689 34.04-25.799 15.673-8.9947 32.37-15.889 49.659-21.113-10.557-8.1328-23.752-12.98-36.679-15.673-6.0323-1.2388-12.172-1.9928-18.366-1.939-1.3465 0-2.6391 0.054-3.9856 0.1616-0.48474 0.054-1.2388 0-1.6697 0.1616-0.86176 0.377-1.6697 0.754-2.5314 1.1311-3.1777 1.4542-6.3016 3.07-9.3716 4.7935-24.452 13.788-44.273 35.171-56.176 60.485-5.7092 12.172-9.5871 25.206-11.418 38.564-1.9928 14.219-1.7774 28.654 1.7774 42.603 0.37702 1.6697 0.86176 3.3393 1.4004 5.009" fill="url(#g)" opacity=".31"/>
   <path d="m4.2851-284.19c4.3088 2.1544 8.3483 4.5781 11.795 7.2172-0.0539 0-0.16158 0.054-0.21544 0.054 18.851-5.6014 39.372-9.3716 60.969-10.61-19.82-11.472-42.711-18.043-67.271-18.043-19.228 0-37.54 4.0395-54.129 11.311 14.057-1.4542 33.447 2.4776 48.851 10.072z" fill="url(#h)" opacity=".35"/>
   <path d="m119.11-249.34-13.95-1.0772c-5.4937-0.377-10.987-0.5925-16.535-0.5925-13.196 0-26.391 1.185-39.156 3.3394 15.835 11.203 33.232 35.009 42.549 66.625h-0.0539v0.054c-0.0539-0.054-0.10772-0.054-0.10772-0.1077 7.0557 6.8402 12.172 16.266 12.118 26.445 0 5.8707-1.6158 11.257-3.8779 15.727-1.4004 2.7468-3.0162 5.2244-4.7935 7.4326-0.96948 19.82-4.1472 51.867-25.799 81.921 44.434-22.083 74.973-67.918 74.973-120.92 0.0539-29.461-9.3716-56.661-25.368-78.851z" fill="url(#i)" opacity=".15"/>
  </g>
  <path transform="matrix(.5386 0 0 .5386 -201.41 -393.9)" d="m466.9 272.4c48.5 36.1 70.9 99.7 77.7 122.7-19.2-18.5-44.7-30.9-66.7-38.8-22-8-43.9-13.3-62.3-18.1-33.8-8.8-58.2-14.4-83.6-19.6 15.3-9.2 32.7-17.8 51.7-25 25.1-9.7 52.9-17.3 81.9-22.2 0 0 0.8 0.6 1.3 1z" fill="#757576" filter="url(#j)" opacity=".17"/>
  <path d="m50.066-247.19c26.122 19.444 38.187 53.698 41.849 66.086-10.341-9.9641-24.075-16.643-35.925-20.898-11.849-4.3088-23.645-7.1634-33.555-9.7486-18.205-4.7397-31.346-7.7559-45.027-10.557 8.2406-4.9551 17.612-9.5871 27.846-13.465 13.519-5.2244 28.492-9.3178 44.111-11.957 0 0 0.43088 0.3232 0.70018 0.5386z" fill="url(#k)" opacity=".17" stroke-width=".5386"/>
 </g>
 <path transform="matrix(.5386 0 0 .5386 -110.77 -149.57)" d="m1428.2 568.3-25.5 112.3h-655.6v-112.3z" fill="url(#d)"/>
 <path transform="matrix(.5386 0 0 .5386 -110.77 -149.57)" d="m1682.7 679.9v-111.1l-235.4 0.1-23.4 111z"/>
 <g transform="matrix(.5386 0 0 .5386 -110.77 -149.57)" fill="#fff">
  <path d="m1512.4 631.8h-33.8l-6.5 30.4h-30.1l16.2-76.2h30.1l-5.6 26.6h33.8l5.6-26.6h30.1l-16.2 76.2h-30z"/>
  <path d="m1567.1 586h58.6c25.8 0 37.4 10 31.4 38.1-5.7 26.8-21.6 38.1-46.9 38.1h-59.2zm18 57h17.3c13.8 0 20.8-6.8 23.3-18.9 2.6-12.1-1.5-18.9-15.3-18.9h-17.3z"/>
 </g>
 <g stroke-width=".5386">
  <path d="m345.69 58.061c-0.59246 1.562-21.436 57.199-21.436 57.199s-20.898-55.584-21.436-57.199h-25.853c1.4004 3.3394 37.756 87.792 38.348 89.246h17.774c0.59246-1.4542 36.948-85.907 38.348-89.246h-25.745z"/>
  <path d="m387.54 58.061v88.923h24.937v-88.923h-24.937z"/>
  <path d="m466.56 58.061c-0.64632 1.4543-36.948 85.907-38.348 89.246h25.853c0.48474-1.3465 3.7702-10.018 3.7702-10.018h35.386s3.2316 8.6714 3.7702 10.018h25.691c-1.4542-3.2855-37.756-87.792-38.348-89.246h-17.774zm8.9408 32.047 11.472 30.592h-22.944z"/>
  <path d="m659 58.061c-0.59246 1.4543-36.948 85.907-38.348 89.246h25.853c0.48474-1.3465 3.7702-10.018 3.7702-10.018h35.386s3.2316 8.6714 3.7702 10.018h25.691c-1.4004-3.2855-37.702-87.792-38.348-89.246h-17.774zm8.9408 32.047 11.472 30.592h-22.944z"/>
  <path d="m565.23 57.253c-22.513 0-33.447 7.4866-33.447 22.89v10.61c0 8.1329 3.2855 14.219 9.2101 17.074 4.4704 2.3159 9.6409 3.0161 23.052 3.0161h17.558c5.6014 0 7.8636 2.1544 7.8636 7.4865v1.2388c0 5.386-2.316 7.702-7.8636 7.702h-19.12c-2.8546 0-4.7935-0.5925-6.0323-1.8851-0.96948-1.0233-1.4542-2.4237-1.6158-4.2549-2.1544 0.1077-20.467 0.8617-22.837 0.9156 2.7469 18.42 11.903 25.314 33.232 25.314h13.896c22.513 0 33.447-7.5404 33.447-23.052v-10.557c0-8.1328-3.2316-14.219-9.21-17.127-4.5242-2.316-9.6409-2.9623-23.052-2.9623h-17.558c-5.6014 0-7.8636-2.2083-7.8636-7.5404v-1.1849c0-5.386 2.3698-7.702 7.8636-7.702h19.12c2.8546 0 4.7935 0.5925 6.0323 1.939 0.96948 1.0233 1.4542 2.4237 1.5619 4.201 2.2621-0.1616 20.413-1.6696 22.783-1.8851-3.5548-17.774-12.388-24.183-33.178-24.183h-13.842z"/>
  <path d="m708.23 58.061v21.329h31.993v67.541h24.937v-67.54h31.993v-21.329h-88.923z"/>
 </g>
 <g transform="matrix(.5386 0 0 .5386 -110.77 -149.57)" fill="#fff">
  <path d="m859.3 635.8c0 9.4-3.6 16.5-10.7 21.3-7.2 4.8-18.1 7.2-32.8 7.2-14.6 0-25.6-2.4-32.9-7.2s-11-11.9-11-21.3v-48.6h29.1v48.4c0 3.6 1.1 6.2 3.4 7.8s6.1 2.5 11.4 2.5 9-0.8 11.1-2.4 3.2-4.2 3.2-7.9v-48.4h29.1v48.6z"/>
  <path d="m945.2 644.7-0.6 18.1h-68.3v-75.6h29.4v57.5z"/>
  <path d="m991.1 605.5v57.3h-29.4v-57.3h-26.1l0.6-18.2h80.5l0.6 18.2z"/>
  <path d="m1114.1 611.7c0 5-1.4 9.4-4.1 13s-6.6 6.2-11.6 7.7l22.7 30.4h-34l-15.3-26.3h-10.6v26.3h-29.1v-75.6h39.8c14.1 0 24.7 2 31.7 5.8 7 4 10.5 10.2 10.5 18.7zm-30.3 0.8c0-3.4-0.8-5.6-2.5-6.8-1.7-1.1-4.7-1.7-9.1-1.7h-11v17.3h10.7c2.1 0 4-0.1 5.5-0.4 1.5-0.2 2.8-0.7 3.7-1.3s1.6-1.5 2-2.7c0.4-1 0.7-2.5 0.7-4.4z"/>
  <path d="m1196.3 649.8h-32.3l-4.6 13h-30.8l34.7-75.6h34.8l35.2 75.6h-32.5zm-18.8-38-7.5 21.2h20.5l-7.4-21.1-2.5-8.1h-0.4z"/>
 </g>
</svg>
