<svg width="789.89" height="270" version="1.1" viewBox="0 0 789.89 270" xml:space="preserve" xmlns="http://www.w3.org/2000/svg"><defs><clipPath id="clipPath2288-9"><path d="m602.59 186.25h12.115v-12.477h-12.115z"/></clipPath><clipPath id="clipPath2322-9"><path d="m604.26 178.21h8.233v-4.439h-8.233z"/></clipPath><radialGradient id="radialGradient2334-4" cx="0" cy="0" r="1" gradientTransform="matrix(9.1066 .005832 .005832 -9.3778 602.29 176.06)" gradientUnits="userSpaceOnUse"><stop stop-color="#fff" offset="0"/><stop stop-color="#8ed5e9" offset=".62353"/><stop stop-color="#36a9db" offset="1"/></radialGradient><clipPath id="clipPath2354-7"><path d="m606.21 186.25h5.449v-1.321h-5.449z"/></clipPath><clipPath id="clipPath2396-8"><path d="m610.43 183.73h4.269v-9.309h-4.269z"/></clipPath><clipPath id="clipPath2438-8"><path d="m602.59 185.74h6.345v-8.334h-6.345z"/></clipPath><radialGradient id="radialGradient2270-0" cx="0" cy="0" r="1" gradientTransform="matrix(11.003 .0079618 .0079618 -11.331 612.72 177.48)" gradientUnits="userSpaceOnUse"><stop stop-color="#185196" offset="0"/><stop stop-color="#185196" offset=".51099"/><stop stop-color="#14153b" offset="1"/></radialGradient><linearGradient id="linearGradient4156" x2="1" gradientTransform="matrix(5.5946,-10.919,-10.919,-5.5946,606.4,184.64)" gradientUnits="userSpaceOnUse"><stop stop-color="#2190d0" offset="0"/><stop stop-color="#104c7f" offset=".5"/><stop stop-color="#0e2d52" offset=".75"/><stop stop-color="#0d142d" offset="1"/></linearGradient><linearGradient id="linearGradient4158" x2="1" gradientTransform="matrix(2.8526,3.7772,3.7772,-2.8526,607.26,183.35)" gradientUnits="userSpaceOnUse"><stop stop-color="#fff" offset="0"/><stop stop-color="#fff" offset=".0050505"/><stop stop-color="#b4d0e0" offset=".028623"/><stop stop-color="#72a3c6" offset=".1526"/><stop stop-color="#3878ae" offset=".54058"/><stop stop-color="#1d63a3" offset=".73458"/><stop stop-color="#175194" offset=".92857"/><stop stop-color="#175194" offset="1"/></linearGradient><linearGradient id="linearGradient4160" x2="1" gradientTransform="matrix(6.1883,8.1544,8.1544,-6.1883,609.57,176.77)" gradientUnits="userSpaceOnUse"><stop stop-color="#fff" offset="0"/><stop stop-color="#fff" offset=".0050505"/><stop stop-color="#b4d0e0" offset=".034532"/><stop stop-color="#72a3c6" offset=".13919"/><stop stop-color="#3878ae" offset=".37729"/><stop stop-color="#1d63a3" offset=".49634"/><stop stop-color="#175194" offset=".61538"/><stop stop-color="#175194" offset="1"/></linearGradient><linearGradient id="linearGradient4162" x2="1" gradientTransform="matrix(1.8459,10.416,10.416,-1.8459,605.1,179.04)" gradientUnits="userSpaceOnUse"><stop stop-color="#fff" offset="0"/><stop stop-color="#7fc9e3" offset=".30494"/><stop stop-color="#4badd9" offset=".45742"/><stop stop-color="#2190d0" offset=".60989"/><stop stop-color="#2190d0" offset="1"/></linearGradient><linearGradient id="linearGradient4164" x2="1" gradientTransform="matrix(8.4079,-5.0616,-5.0616,-8.4079,603.2,186.37)" gradientUnits="userSpaceOnUse"><stop stop-color="#2190d0" offset="0"/><stop stop-color="#4badd9" offset=".0169"/><stop stop-color="#7fc9e3" offset=".13"/><stop stop-color="#fff" offset="1"/></linearGradient><radialGradient id="XMLID_8_-1" cx="391.74" cy="414.65" r="233.83" gradientTransform="matrix(.5386 0 0 .5386 166.78 -312.82)" gradientUnits="userSpaceOnUse"><stop stop-color="#fff" offset=".3427"/><stop stop-color="#FDFDFC" offset=".4887"/><stop stop-color="#F8F8F2" offset=".6032"/><stop stop-color="#F5F5ED" offset=".6404"/><stop stop-color="#E8E9E1" offset=".7054"/><stop stop-color="#C6C8C3" offset=".8251"/><stop stop-color="#9DA09D" offset=".9494"/></radialGradient><clipPath id="clipPath1658-0"><path d="m184.78-534.18c-129.1 0-233.8 104.7-233.8 233.8s104.7 233.8 233.8 233.8c129.2 0 233.8-104.7 233.8-233.8 0.1-129.1-104.6-233.8-233.8-233.8z"/></clipPath><filter id="filter1583" x="-.048012" y="-.047988" width="1.096" height="1.096" color-interpolation-filters="sRGB"><feGaussianBlur stdDeviation="10.023391"/></filter><filter id="filter1952" x="-.037964" y="-.065248" width="1.0759" height="1.1305" color-interpolation-filters="sRGB"><feGaussianBlur stdDeviation="3.363"/></filter><linearGradient id="linearGradient1040" x1="-299.6" x2="-3.3811" y1="529.53" y2="529.53" gradientTransform="matrix(1.4343 0 0 -1.4343 724.28 952.2)" gradientUnits="userSpaceOnUse"><stop stop-color="#14153b" offset="0"/><stop stop-color="#175296" offset=".51099"/><stop stop-color="#116fb5" offset=".7555"/><stop stop-color="#2190d0" offset="1"/></linearGradient></defs><path d="m789.89 222.93v-60.464l-70.453 5e-5 -12.735 60.41z" fill="#fff" stroke-width=".54423"/><g transform="translate(-246.25 224.48)"><path d="m377.75-215.44c-69.533 0-125.92 56.391-125.92 125.92s56.391 125.92 125.92 125.92c69.587 0 125.92-56.391 125.92-125.92 0.0539-69.533-56.338-125.92-125.92-125.92z" fill="url(#XMLID_8_-1)" stroke-width=".5386"/><g transform="matrix(.5386 0 0 .5386 278.23 72.272)" clip-path="url(#clipPath1658-0)" fill="#757576" filter="url(#filter1583)"><path d="m3.3998-127.63c11.8 1.5 23.5 2.2 34.9 2.2 16.4 0 32.3-1.2 47.1-2.7 48.2-4.9 95.9-15.7 141.3-31.4 16.1-5.6 45.1-16.4 72.3-32.1 13.7-8 27-17 38.5-29 5.7-6 11.1-12.9 15.3-21.2s7.2-18.3 7.2-29.2c0.2-20.3-10.8-38.9-25.3-51.7-19.3-17.4-41.8-28-63.8-36s-43.9-13.3-62.3-18.1c-33.8-8.8-58.2-14.4-83.6-19.6 15.3-9.2 32.7-17.8 51.6-25 45.7-17.6 100.1-28.4 154.7-28.4 10.2 0 20.5 0.4 30.7 1.1l25.9 2c29.7 41.2 47.2 91.7 47.2 146.3 0 138.4-112.2 250.6-250.6 250.6-71.1 0-135.5-29.9-181.1-77.8zm-26.8-77.8c26.8 10.2 47.6 10.4 61.6 10.9 13.1 0.5 26.9 0 40.4-1.4 42.6-4.3 85.3-14 125.9-28 9-3.1 23.5-8.5 38.2-15.3 14.7-6.7 29.7-15.1 39.2-22.8 4.3-3.3 7.3-6.5 8.9-8.6-0.5-0.5-1-1.1-1.8-1.7-9.1-8.3-23.7-16.1-41.1-22.4s-37.2-11.3-56.2-16.2c-60.3-15.6-86.7-20.4-149.2-31.7 0 0-41.5-6.4-41.3-7.2 27.8-80.3 153-158.8 308.6-167.7-36.8-21.3-79.3-33.5-124.9-33.5-138.4 0-250.6 112.2-250.6 250.6 0 18.5 3.1 36.5 8.3 53.6 6.8 20 16.4 34.8 34 41.4z"/><path d="m260-442.63c48.5 36.1 70.9 99.7 77.7 122.7-19.2-18.5-44.7-30.9-66.7-38.8-22-8-43.9-13.3-62.3-18.1-33.8-8.8-58.2-14.4-83.6-19.6 15.3-9.2 32.7-17.8 51.7-25 25.1-9.7 52.9-17.3 81.9-22.2 0 0 0.8 0.6 1.3 1z" opacity=".17"/><path d="m51.6-125.63c-4.1 0.1-9.4 0.3-13.5 0.3-11.4 0-23.1-0.7-34.9-2.2 45.6 47.9 110 77.8 181.4 77.8 40 0 77.8-9.4 111.4-26.1 40.1-55.9 46.1-115.3 47.9-152.1-2.1 2.6-4.2 5.1-6.5 7.4-11.5 12-24.9 21.1-38.5 29-23.4 13.5-48.2 23.4-64.9 29.5-14.4 27.6-45.1 48.8-77.4 55.6-21 4.4-56.6 5.5-104.4-18.8z" opacity=".31"/><path d="m-57.5-246.73c4.8 14 11.9 28.1 24.6 36.5 7.2 4.8 15.7 7.3 23.9 9.6 8 2.2 16.2 3.8 24.5 4.7-10.6-24.7-17.8-50.7-20.3-77.5-1.2-13.3-1.4-26.7-0.3-39.9 1-12.1 2.6-24.8 6.2-36.4 3.4-10.9 9.2-21.3 15.5-30.8 7.2-11 15.7-21 24.9-30.3 18.6-18.8 40.3-34.7 63.2-47.9 29.1-16.7 60.1-29.5 92.2-39.2-19.6-15.1-44.1-24.1-68.1-29.1-11.2-2.3-22.6-3.7-34.1-3.6-2.5 0-4.9 0.1-7.4 0.3-0.9 0.1-2.3 0-3.1 0.3-1.6 0.7-3.1 1.4-4.7 2.1-5.9 2.7-11.7 5.7-17.4 8.9-45.3 25.5-82.2 65.1-104.3 112.2-10.6 22.6-17.8 46.8-21.2 71.6-3.7 26.4-3.3 53.2 3.3 79.1 0.8 3.2 1.6 6.3 2.6 9.4" opacity=".31"/><path d="m388.2-446.63-25.9-2c-10.2-0.7-20.4-1.1-30.7-1.1-24.5 0-49 2.2-72.7 6.2 29.4 20.8 61.7 65 79 123.7h-0.1v0.1c-0.1-0.1-0.2-0.1-0.2-0.2 13.1 12.7 22.6 30.2 22.5 49.1 0 10.9-3 20.9-7.2 29.2-2.6 5.1-5.6 9.7-8.9 13.8-1.8 36.8-7.7 96.3-47.9 152.1 82.5-41 139.2-126.1 139.2-224.5 0.1-54.7-17.4-105.2-47.1-146.4z" opacity=".15"/></g></g><g transform="matrix(21.636 0 0 -21.636 -13038 4029.8)"><path d="m608.64 186.25c-3.345-3e-3 -6.055-2.798-6.053-6.243 0-0.46 0.075-0.908 0.202-1.335 0.166-0.495 0.398-0.863 0.822-1.029 0.648-0.254 1.15-0.258 1.491-0.27 0.316-0.011 0.65 1e-3 0.976 0.035 1.03 0.108 2.063 0.35 3.042 0.699 0.219 0.077 0.568 0.211 0.923 0.38 0.354 0.168 0.718 0.378 0.948 0.568 0.104 0.083 0.176 0.163 0.214 0.215-0.011 0.012-0.026 0.027-0.043 0.043-0.218 0.207-0.572 0.4-0.994 0.556-0.421 0.157-0.9 0.28-1.358 0.401-1.457 0.389-2.096 0.506-3.608 0.788 0 0-1.004 0.159-0.998 0.179 0.672 1.998 3.696 3.955 7.457 4.18-0.889 0.529-1.916 0.833-3.017 0.833zm3.552-2.517c-1.32 0-2.637-0.269-3.741-0.709-0.459-0.181-0.879-0.394-1.248-0.624 0.613-0.128 1.203-0.268 2.021-0.486 0.444-0.119 0.973-0.251 1.505-0.449 0.531-0.2 1.076-0.462 1.542-0.896 0.351-0.318 0.615-0.783 0.611-1.288 1e-3 -0.27-0.072-0.519-0.174-0.725-0.1-0.208-0.231-0.379-0.369-0.529-0.279-0.298-0.601-0.524-0.931-0.723-0.659-0.392-1.36-0.661-1.749-0.802-1.095-0.389-2.249-0.66-3.414-0.782-0.358-0.038-0.742-0.068-1.14-0.068-0.274 0-0.558 0.017-0.843 0.055 1.103-1.192 2.66-1.935 4.387-1.935 3.345 3e-3 6.055 2.798 6.053 6.243-1e-3 1.361-0.426 2.617-1.143 3.641l-0.626 0.049c-0.245 0.018-0.492 0.028-0.738 0.028z" fill="url(#radialGradient2270-0)"/></g><g transform="matrix(21.636 0 0 -21.636 -13038 4029.8)"><g clip-path="url(#clipPath2288-9)" opacity=".32001"><path d="m608.64 186.25c-3.345-3e-3 -6.055-2.797-6.053-6.243 0-0.46 0.075-0.908 0.202-1.334 0.166-0.496 0.398-0.864 0.822-1.03 0.648-0.254 1.15-0.257 1.49-0.27 0.317-0.011 0.65 1e-3 0.977 0.035 1.03 0.108 2.063 0.35 3.043 0.699 0.218 0.078 0.566 0.211 0.922 0.381 0.355 0.167 0.718 0.376 0.948 0.567 0.104 0.083 0.176 0.163 0.214 0.214-0.011 0.013-0.025 0.028-0.043 0.044-0.218 0.208-0.572 0.4-0.994 0.556-0.422 0.157-0.9 0.281-1.357 0.402-1.458 0.389-2.097 0.506-3.609 0.787 0 0-1.004 0.16-0.998 0.179 0.672 1.999 3.696 3.954 7.457 4.18-0.889 0.53-1.915 0.833-3.016 0.833zm3.551-2.517c-1.32 0-2.636-0.269-3.74-0.709-0.459-0.181-0.879-0.394-1.248-0.623 0.613-0.128 1.202-0.269 2.021-0.487 0.444-0.119 0.972-0.251 1.505-0.449 0.53-0.199 1.076-0.462 1.542-0.896 0.351-0.319 0.615-0.782 0.611-1.287 1e-3 -0.27-0.071-0.52-0.173-0.726-0.101-0.208-0.232-0.379-0.37-0.529-0.28-0.298-0.601-0.524-0.932-0.723-0.658-0.392-1.359-0.662-1.748-0.801-1.095-0.39-2.249-0.661-3.413-0.783-0.359-0.037-0.743-0.068-1.141-0.068-0.275 0-0.558 0.018-0.843 0.055 1.103-1.192 2.66-1.936 4.386-1.934 3.346 2e-3 6.057 2.796 6.054 6.243-1e-3 1.359-0.426 2.617-1.143 3.641l-0.626 0.048c-0.237 0.018-0.474 0.028-0.712 0.028h-0.03" fill="url(#linearGradient4156)"/></g></g><g transform="matrix(21.636 0 0 -21.636 -13038 4029.8)"><g clip-path="url(#clipPath2322-9)" opacity=".31"><path d="m612.34 178.02c-0.279-0.298-0.6-0.524-0.931-0.723-0.566-0.337-1.164-0.584-1.568-0.735-0.348-0.687-1.089-1.214-1.869-1.384-0.507-0.11-1.367-0.138-2.524 0.468l-0.014 6e-3c-0.098-4e-3 -0.226-6e-3 -0.327-6e-3 -0.275 0-0.558 0.016-0.844 0.054 1.104-1.192 2.661-1.935 4.387-1.934 0.968 0 1.881 0.234 2.692 0.65 0.969 1.393 1.112 2.873 1.154 3.788-0.05-0.065-0.102-0.126-0.156-0.184" fill="url(#radialGradient2334-4)"/></g></g><g transform="matrix(21.636 0 0 -21.636 -13038 4029.8)"><g clip-path="url(#clipPath2354-7)" opacity=".35001"><path d="m608.64 186.24c-0.864 0-1.685-0.187-2.429-0.524 1e-3 0 2e-3 0 3e-3 1e-3 3e-3 1e-3 5e-3 2e-3 7e-3 3e-3 0.019 4e-3 0.043 4e-3 0.06 5e-3 0.06 6e-3 0.119 8e-3 0.179 8e-3 0.277 3e-3 0.553-0.031 0.823-0.089 0.53-0.111 1.066-0.308 1.516-0.626 0.025-0.017 0.049-0.035 0.073-0.053 0.02-0.015 0.04-0.028 0.059-0.043h-1e-3c1e-3 -1e-3 2e-3 -2e-3 3e-3 -2e-3 2e-3 1e-3 0.034 0.01 0.053 0.015l0.195 0.057c0.038 0.011 0.076 0.021 0.114 0.031 0.067 0.018 0.136 0.036 0.204 0.053 0.037 9e-3 0.074 0.019 0.112 0.028 0.072 0.017 0.144 0.034 0.217 0.05 0.035 7e-3 0.069 0.015 0.104 0.022 0.081 0.017 0.163 0.034 0.245 0.049 0.027 5e-3 0.054 0.011 0.081 0.015 0.215 0.04 0.434 0.073 0.656 0.1h1e-3c0.245 0.031 0.493 0.053 0.745 0.068-0.888 0.529-1.915 0.832-3.016 0.832z" fill="url(#linearGradient4158)"/></g></g><g transform="matrix(21.636 0 0 -21.636 -13038 4029.8)"><g clip-path="url(#clipPath2396-8)" opacity=".14999"><path d="m610.43 183.58c0.711-0.518 1.492-1.618 1.912-3.078h-1e-3v-1e-3c-2e-3 2e-3 -4e-3 3e-3 -5e-3 5e-3 0.316-0.315 0.547-0.751 0.543-1.223 1e-3 -0.271-0.071-0.52-0.173-0.726-0.063-0.128-0.135-0.24-0.214-0.344-0.042-0.916-0.185-2.397-1.154-3.788 1.993 1.022 3.363 3.142 3.361 5.591-1e-3 1.361-0.426 2.617-1.143 3.642l-0.626 0.048c-0.247 0.018-0.495 0.028-0.741 0.028-0.594 0-1.186-0.055-1.759-0.154" fill="url(#linearGradient4160)"/></g></g><g transform="matrix(21.636 0 0 -21.636 -13038 4029.8)"><g clip-path="url(#clipPath2438-8)" opacity=".31"><path d="m606.46 185.74c-0.06 0-0.119-2e-3 -0.179-8e-3 -0.017-1e-3 -0.039-1e-3 -0.058-4e-3l-0.12-0.057c-0.062-0.03-0.122-0.059-0.182-0.091-0.039-0.02-0.078-0.04-0.116-0.061-0.041-0.023-0.081-0.046-0.122-0.069-0.034-0.019-0.067-0.039-0.101-0.06-0.04-0.024-0.081-0.048-0.121-0.074-0.033-0.021-0.065-0.044-0.098-0.065-0.07-0.046-0.137-0.094-0.205-0.142-0.029-0.022-0.059-0.043-0.088-0.065-0.039-0.03-0.078-0.061-0.117-0.091-0.028-0.022-0.056-0.044-0.083-0.067-0.038-0.032-0.077-0.064-0.115-0.096-0.024-0.021-0.046-0.042-0.071-0.063-0.067-0.061-0.134-0.122-0.199-0.186-0.025-0.025-0.051-0.05-0.075-0.074-0.035-0.036-0.07-0.071-0.104-0.108-0.025-0.026-0.049-0.052-0.074-0.078-0.033-0.037-0.066-0.074-0.1-0.111-0.022-0.027-0.045-0.055-0.068-0.082-0.055-0.066-0.108-0.132-0.161-0.2-0.023-0.03-0.047-0.062-0.07-0.092-0.028-0.038-0.056-0.076-0.083-0.114-0.024-0.035-0.049-0.071-0.073-0.106-0.024-0.036-0.049-0.071-0.072-0.108-0.043-0.066-0.084-0.131-0.124-0.199-0.02-0.034-0.039-0.068-0.059-0.103-0.025-0.043-0.049-0.087-0.073-0.131-0.018-0.034-0.037-0.069-0.055-0.105-0.026-0.05-0.051-0.099-0.075-0.15-0.014-0.029-0.029-0.058-0.042-0.088-0.035-0.076-0.07-0.153-0.101-0.23-0.013-0.031-0.024-0.062-0.037-0.091-0.022-0.055-0.043-0.111-0.063-0.167-0.012-0.031-0.023-0.064-0.035-0.096-0.023-0.065-0.044-0.131-0.064-0.196-6e-3 -0.021-0.014-0.042-0.02-0.062-0.025-0.085-0.048-0.171-0.071-0.258-6e-3 -0.028-0.013-0.055-0.02-0.083-0.015-0.064-0.029-0.129-0.043-0.194-6e-3 -0.03-0.013-0.058-0.018-0.089-0.015-0.08-0.03-0.161-0.042-0.243-2e-3 -0.011-4e-3 -0.022-6e-3 -0.032-0.013-0.092-0.024-0.185-0.033-0.278-4e-3 -0.028-5e-3 -0.054-8e-3 -0.082-6e-3 -0.071-0.012-0.141-0.015-0.212-2e-3 -0.028-4e-3 -0.057-5e-3 -0.085-4e-3 -0.096-7e-3 -0.191-7e-3 -0.288 0-0.46 0.075-0.908 0.202-1.334 0.018-0.056 0.038-0.109 0.058-0.161 6e-3 -0.016 0.013-0.031 0.019-0.046 0.015-0.038 0.031-0.074 0.049-0.11 7e-3 -0.015 0.013-0.031 0.021-0.045 0.023-0.047 0.047-0.092 0.072-0.134 3e-3 -5e-3 6e-3 -0.011 0.01-0.015 0.023-0.039 0.048-0.075 0.074-0.11 0.01-0.015 0.021-0.027 0.03-0.041 0.021-0.026 0.043-0.05 0.064-0.074 0.012-0.013 0.024-0.026 0.035-0.037 0.032-0.033 0.065-0.062 0.1-0.09l3e-3 -3e-3c3e-3 -2e-3 5e-3 -4e-3 6e-3 -5e-3 0.041-0.031 0.084-0.06 0.13-0.086 0.048-0.028 0.098-0.052 0.151-0.073 0.043-0.017 0.085-0.032 0.126-0.047 0.015-5e-3 0.028-0.01 0.043-0.014 0.026-9e-3 0.053-0.018 0.08-0.027 0.016-4e-3 0.031-9e-3 0.046-0.014 0.025-7e-3 0.05-0.015 0.074-0.021 0.015-5e-3 0.03-8e-3 0.045-0.013 0.024-6e-3 0.048-0.012 0.071-0.018 0.014-3e-3 0.028-6e-3 0.042-0.01 0.024-5e-3 0.048-0.01 0.073-0.016 0.011-2e-3 0.023-4e-3 0.035-7e-3 0.026-5e-3 0.051-0.01 0.076-0.014 9e-3 -2e-3 0.019-4e-3 0.028-6e-3 0.028-4e-3 0.056-9e-3 0.082-0.012 6e-3 -1e-3 0.013-2e-3 0.019-3e-3 0.032-5e-3 0.063-9e-3 0.093-0.013h5e-3c-0.257 0.615-0.431 1.262-0.492 1.929-0.03 0.33-0.035 0.663-8e-3 0.994 0.023 0.301 0.058 0.619 0.154 0.906 0.063 0.188 0.147 0.371 0.243 0.545 3e-3 5e-3 5e-3 0.01 8e-3 0.016 0.033 0.057 0.066 0.114 0.101 0.17 3e-3 5e-3 6e-3 0.01 8e-3 0.014 5e-3 6e-3 9e-3 0.014 0.013 0.021 0.026 0.04 0.053 0.079 0.08 0.118 0.051 0.074 0.104 0.149 0.162 0.223 4e-3 4e-3 6e-3 8e-3 0.01 0.012 0.029 0.036 0.058 0.072 0.088 0.109 0.845 1.019 2.265 1.925 4.015 2.463-0.472 0.372-1.07 0.603-1.65 0.724-4e-3 1e-3 -9e-3 2e-3 -0.013 3e-3 -0.25 0.052-0.505 0.085-0.761 0.086z" fill="url(#linearGradient4162)"/></g></g><path transform="matrix(.53861 0 0 .53861 -80.471 -88.423)" d="m466.9 272.4c48.5 36.1 70.9 99.7 77.7 122.7-19.2-18.5-44.7-30.9-66.7-38.8-22-8-43.9-13.3-62.3-18.1-33.8-8.8-58.2-14.4-83.6-19.6 15.3-9.2 32.7-17.8 51.7-25 25.1-9.7 52.9-17.3 81.9-22.2 0 0 0.8 0.6 1.3 1z" fill="#757576" filter="url(#filter1952)" opacity=".17"/><g transform="matrix(21.636 0 0 -21.636 -13038 4029.8)" opacity=".17"><path d="m608.45 183.02c-0.458-0.181-0.878-0.393-1.247-0.623 0.612-0.127 1.203-0.268 2.02-0.485 0.445-0.12 0.973-0.252 1.506-0.45 0.53-0.199 1.075-0.462 1.541-0.896 0.017-0.014 0.055-0.05 0.071-0.065-0.162 0.593-0.738 2.198-1.909 3.073-0.696-0.123-1.38-0.313-1.982-0.554" fill="url(#linearGradient4164)"/></g><path d="m294.57 162.46v60.464l412.13-0.0543 12.735-60.41z" fill="url(#linearGradient1040)" stroke-width="1.4343"/><g transform="matrix(1.3334 0 0 -1.3334 673.33 904.19)"><path d="m-246.37 634.04c-0.43814-1.2008-15.822-43.44-15.822-43.44s-15.448 42.24-15.87 43.44h-19.132c1.0385-2.5152 27.895-66.71 28.349-67.814h13.128c0.45436 1.1035 27.31 65.298 28.349 67.814z"/><path d="m-215.43 566.5h18.45v67.554h-18.45z"/><path d="m-150.38 609.67 8.4706-23.237h-16.941zm-6.6045 24.357c-0.47059-1.0872-27.327-65.282-28.365-67.798h19.116c0.38945 1.0385 2.7749 7.6106 2.7749 7.6106h26.158s2.4016-6.572 2.7749-7.6106h19.018c-1.071 2.5152-27.911 66.71-28.365 67.798z"/><path d="m-8.0968 609.67 8.4869-23.237h-16.941zm-6.6045 24.357c-0.45436-1.0872-27.31-65.282-28.365-67.798h19.132c0.37323 1.0385 2.7749 7.6106 2.7749 7.6106h26.158s2.3854-6.572 2.7749-7.6106h18.986c-1.0548 2.5152-27.878 66.71-28.349 67.798z"/><path d="m-84.045 634.64c-16.649 0-24.73-5.6958-24.73-17.379v-8.0487c0-6.1826 2.4179-10.807 6.7992-12.998 3.3104-1.7525 7.14-2.2718 17.039-2.2718h12.966c4.138 0 5.8094-1.6552 5.8094-5.6958v-0.92496c0-4.1055-1.7363-5.8418-5.8094-5.8418h-14.134c-2.0933 0-3.5375 0.45436-4.4625 1.4604-0.714 0.74646-1.0872 1.8499-1.1846 3.2455-1.5903-0.0811-15.108-0.64909-16.86-0.714 2.0284-13.972 8.7952-19.229 24.568-19.229h10.272c16.649 0 24.747 5.7282 24.747 17.509v8.0325c0 6.1988-2.4179 10.807-6.7992 12.998-3.3266 1.7688-7.14 2.2718-17.055 2.2718h-12.966c-4.1217 0-5.8094 1.6552-5.8094 5.712v0.92495c0 4.0893 1.7525 5.8418 5.8094 5.8418h14.134c2.1095 0 3.5375-0.47059 4.4625-1.4767 0.714-0.76268 1.0872-1.8337 1.1846-3.1968 1.6714 0.14604 15.059 1.2657 16.844 1.4118-2.6126 13.517-9.1359 18.369-24.552 18.369z"/><path d="m21.661 634.04v-16.211h23.643v-51.343h18.45v51.343h23.659v16.211z"/></g><g transform="matrix(21.636 0 0 -21.636 344.42 203.79)"><path d="m0 0-0.014-0.465h-1.752v1.939h0.755v-1.474z" fill="#fff"/><g transform="translate(-618.5,-176.83)"><path d="m618.78 178.3h0.765v-1.939h-0.765z" fill="#fff"/><g transform="translate(622.37,178.3)"><path d="m0 0-0.886-1.939h-0.833l-0.883 1.939h0.822l0.425-1.192 0.068-0.202h0.011l0.064 0.202 0.436 1.192z" fill="#fff"/><g transform="translate(2.0908,-1.4868)"><path d="m0 0-0.014-0.452h-1.891v1.939h1.844l0.011-0.458h-1.108v-0.284h0.915v-0.414h-0.915v-0.331z" fill="#fff"/></g></g></g></g><path d="m738.82 179.96 18.23-5.9179h7.8853l-9.1033 31.91h7.4354v5.7406h-28.461v-5.7406h6.467l5.8752-19.75-9.2109 2.7762z" fill="#2190d0" stroke-width="1.076"/></svg>
