<svg width="810.84" height="270" version="1.1" viewBox="0 0 810.84 270" xml:space="preserve" xmlns="http://www.w3.org/2000/svg"><defs>
	<radialGradient id="XMLID_8_-1" cx="391.74" cy="414.65" r="233.83" gradientTransform="matrix(.5386 0 0 .5386 -76.029 -88.33)" gradientUnits="userSpaceOnUse"><stop stop-color="#fff" offset=".3427"/><stop stop-color="#FDFDFC" offset=".4887"/><stop stop-color="#F8F8F2" offset=".6032"/><stop stop-color="#F5F5ED" offset=".6404"/><stop stop-color="#E8E9E1" offset=".7054"/><stop stop-color="#C6C8C3" offset=".8251"/><stop stop-color="#9DA09D" offset=".9494"/></radialGradient><clipPath id="clipPath1658"><path d="m184.78-534.18c-129.1 0-233.8 104.7-233.8 233.8s104.7 233.8 233.8 233.8c129.2 0 233.8-104.7 233.8-233.8 0.1-129.1-104.6-233.8-233.8-233.8z"/></clipPath><filter id="filter1583" x="-.048012" y="-.047988" width="1.096" height="1.096" color-interpolation-filters="sRGB"><feGaussianBlur stdDeviation="10.023391"/></filter><radialGradient id="SVGID_6_-9" cx="-1167.3" cy="1050.5" r="99.071" gradientTransform="matrix(.6442 0 0 .6442 1051.5 -379.22)" gradientUnits="userSpaceOnUse"><stop stop-color="#E01214" offset="0"/><stop stop-color="#481B19" offset="1"/></radialGradient><linearGradient id="SVGID_7_-6" x1="276.47" x2="333.97" y1="249.82" y2="362.23" gradientTransform="matrix(2.116 0 0 2.116 -498.38 -494.51)" gradientUnits="userSpaceOnUse"><stop stop-color="#7D1711" offset="0"/><stop stop-color="#481B19" offset="1"/></linearGradient><radialGradient id="SVGID_8_-7" cx="-1271.3" cy="1113" r="148.94" gradientTransform="matrix(1.3631 0 0 1.3631 1726.7 -1296.9)" gradientUnits="userSpaceOnUse"><stop stop-color="#fff" offset="0"/><stop stop-color="#FBF7F6" offset=".087568"/><stop stop-color="#EFE2DC" offset=".2166"/><stop stop-color="#DDC0B4" offset=".3714"/><stop stop-color="#C49381" offset=".546"/><stop stop-color="#A75E4A" offset=".7372"/><stop stop-color="#86271A" offset=".9394"/><stop stop-color="#7D1711" offset="1"/></radialGradient><linearGradient id="SVGID_9_-3" x1="246.43" x2="299.26" y1="295.22" y2="252.7" gradientTransform="matrix(2.116 0 0 2.116 -498.38 -494.51)" gradientUnits="userSpaceOnUse"><stop stop-color="#fff" offset="0"/><stop stop-color="#B87C68" offset=".5"/><stop stop-color="#7D1711" offset="1"/></linearGradient><linearGradient id="SVGID_10_-1" x1="284.94" x2="315.09" y1="264.01" y2="224.14" gradientTransform="matrix(2.116 0 0 2.116 -498.38 -494.51)" gradientUnits="userSpaceOnUse"><stop stop-color="#fff" offset=".0050505"/><stop stop-color="#F9F2F0" offset=".092133"/><stop stop-color="#E6D1C8" offset=".249"/><stop stop-color="#CA9D8C" offset=".4578"/><stop stop-color="#A55C48" offset=".7107"/><stop stop-color="#7D1711" offset="1"/></linearGradient><linearGradient id="SVGID_11_-9" x1="309.94" x2="373.6" y1="330.73" y2="246.97" gradientTransform="matrix(2.116 0 0 2.116 -498.38 -494.51)" gradientUnits="userSpaceOnUse"><stop stop-color="#fff" offset=".0050505"/><stop stop-color="#FDFAFA" offset=".0087849"/><stop stop-color="#DEC3B8" offset=".057218"/><stop stop-color="#C59483" offset=".1089"/><stop stop-color="#B06E5A" offset=".1626"/><stop stop-color="#9F503E" offset=".2189"/><stop stop-color="#923A29" offset=".2784"/><stop stop-color="#882A1D" offset=".3423"/><stop stop-color="#822016" offset=".4127"/><stop stop-color="#7E1912" offset=".4946"/><stop stop-color="#7D1711" offset=".6154"/></linearGradient><filter id="filter1952" x="-.037964" y="-.065248" width="1.0759" height="1.1305" color-interpolation-filters="sRGB"><feGaussianBlur stdDeviation="3.363"/></filter><linearGradient id="SVGID_12_-4" x1="292.51" x2="332.88" y1="251.21" y2="312.2" gradientTransform="matrix(2.116 0 0 2.116 -498.38 -494.51)" gradientUnits="userSpaceOnUse"><stop stop-color="#7D1711" offset="0"/><stop stop-color="#801E15" offset=".0073802"/><stop stop-color="#953F2E" offset=".047676"/><stop stop-color="#AA634F" offset=".09309"/><stop stop-color="#BD8573" offset=".1419"/><stop stop-color="#CEA595" offset=".195"/><stop stop-color="#DDC0B4" offset=".2537"/><stop stop-color="#E9D7CF" offset=".32"/><stop stop-color="#F3E9E5" offset=".3974"/><stop stop-color="#FAF6F4" offset=".4931"/><stop stop-color="#FEFDFD" offset=".6274"/><stop stop-color="#fff" offset="1"/></linearGradient>
			<linearGradient id="SVGID_1_" x1="689.87" x2="530.32" y1="174.86" y2="163.56" gradientUnits="userSpaceOnUse">
				<stop stop-color="#E30613" offset="0"/>
				<stop stop-color="#77160D" offset=".5604"/>
				<stop stop-color="#4A0E02" offset="1"/>
			</linearGradient>
		</defs>
<g transform="translate(-.99279 -1.261e-5)"><g transform="translate(.41597 .026931)"><path d="m134.94 9.0485c-69.533 0-125.92 56.391-125.92 125.92s56.391 125.92 125.92 125.92c69.587 0 125.92-56.391 125.92-125.92 0.0539-69.533-56.338-125.92-125.92-125.92z" fill="url(#XMLID_8_-1)" stroke-width=".5386"/><g transform="matrix(.5386 0 0 .5386 35.417 296.76)" clip-path="url(#clipPath1658)" fill="#757576" filter="url(#filter1583)"><path d="m3.3998-127.63c11.8 1.5 23.5 2.2 34.9 2.2 16.4 0 32.3-1.2 47.1-2.7 48.2-4.9 95.9-15.7 141.3-31.4 16.1-5.6 45.1-16.4 72.3-32.1 13.7-8 27-17 38.5-29 5.7-6 11.1-12.9 15.3-21.2s7.2-18.3 7.2-29.2c0.2-20.3-10.8-38.9-25.3-51.7-19.3-17.4-41.8-28-63.8-36s-43.9-13.3-62.3-18.1c-33.8-8.8-58.2-14.4-83.6-19.6 15.3-9.2 32.7-17.8 51.6-25 45.7-17.6 100.1-28.4 154.7-28.4 10.2 0 20.5 0.4 30.7 1.1l25.9 2c29.7 41.2 47.2 91.7 47.2 146.3 0 138.4-112.2 250.6-250.6 250.6-71.1 0-135.5-29.9-181.1-77.8zm-26.8-77.8c26.8 10.2 47.6 10.4 61.6 10.9 13.1 0.5 26.9 0 40.4-1.4 42.6-4.3 85.3-14 125.9-28 9-3.1 23.5-8.5 38.2-15.3 14.7-6.7 29.7-15.1 39.2-22.8 4.3-3.3 7.3-6.5 8.9-8.6-0.5-0.5-1-1.1-1.8-1.7-9.1-8.3-23.7-16.1-41.1-22.4s-37.2-11.3-56.2-16.2c-60.3-15.6-86.7-20.4-149.2-31.7 0 0-41.5-6.4-41.3-7.2 27.8-80.3 153-158.8 308.6-167.7-36.8-21.3-79.3-33.5-124.9-33.5-138.4 0-250.6 112.2-250.6 250.6 0 18.5 3.1 36.5 8.3 53.6 6.8 20 16.4 34.8 34 41.4z"/><path d="m260-442.63c48.5 36.1 70.9 99.7 77.7 122.7-19.2-18.5-44.7-30.9-66.7-38.8-22-8-43.9-13.3-62.3-18.1-33.8-8.8-58.2-14.4-83.6-19.6 15.3-9.2 32.7-17.8 51.7-25 25.1-9.7 52.9-17.3 81.9-22.2 0 0 0.8 0.6 1.3 1z" opacity=".17"/><path d="m51.6-125.63c-4.1 0.1-9.4 0.3-13.5 0.3-11.4 0-23.1-0.7-34.9-2.2 45.6 47.9 110 77.8 181.4 77.8 40 0 77.8-9.4 111.4-26.1 40.1-55.9 46.1-115.3 47.9-152.1-2.1 2.6-4.2 5.1-6.5 7.4-11.5 12-24.9 21.1-38.5 29-23.4 13.5-48.2 23.4-64.9 29.5-14.4 27.6-45.1 48.8-77.4 55.6-21 4.4-56.6 5.5-104.4-18.8z" opacity=".31"/><path d="m-57.5-246.73c4.8 14 11.9 28.1 24.6 36.5 7.2 4.8 15.7 7.3 23.9 9.6 8 2.2 16.2 3.8 24.5 4.7-10.6-24.7-17.8-50.7-20.3-77.5-1.2-13.3-1.4-26.7-0.3-39.9 1-12.1 2.6-24.8 6.2-36.4 3.4-10.9 9.2-21.3 15.5-30.8 7.2-11 15.7-21 24.9-30.3 18.6-18.8 40.3-34.7 63.2-47.9 29.1-16.7 60.1-29.5 92.2-39.2-19.6-15.1-44.1-24.1-68.1-29.1-11.2-2.3-22.6-3.7-34.1-3.6-2.5 0-4.9 0.1-7.4 0.3-0.9 0.1-2.3 0-3.1 0.3-1.6 0.7-3.1 1.4-4.7 2.1-5.9 2.7-11.7 5.7-17.4 8.9-45.3 25.5-82.2 65.1-104.3 112.2-10.6 22.6-17.8 46.8-21.2 71.6-3.7 26.4-3.3 53.2 3.3 79.1 0.8 3.2 1.6 6.3 2.6 9.4" opacity=".31"/><path d="m388.2-446.63-25.9-2c-10.2-0.7-20.4-1.1-30.7-1.1-24.5 0-49 2.2-72.7 6.2 29.4 20.8 61.7 65 79 123.7h-0.1v0.1c-0.1-0.1-0.2-0.1-0.2-0.2 13.1 12.7 22.6 30.2 22.5 49.1 0 10.9-3 20.9-7.2 29.2-2.6 5.1-5.6 9.7-8.9 13.8-1.8 36.8-7.7 96.3-47.9 152.1 82.5-41 139.2-126.1 139.2-224.5 0.1-54.7-17.4-105.2-47.1-146.4z" opacity=".15"/></g></g><g transform="matrix(2.116 0 0 2.116 -498.38 -494.51)"><path d="m253.3 341.5c3 0.4 6 0.6 8.9 0.6 4.2 0 8.2-0.3 12-0.7 12.3-1.2 24.4-4 36-8 4.1-1.4 11.5-4.2 18.4-8.2 3.5-2 6.9-4.3 9.8-7.4 1.5-1.5 2.8-3.3 3.9-5.4s1.8-4.7 1.8-7.4c0-5.2-2.7-9.9-6.4-13.2-4.9-4.4-10.7-7.1-16.2-9.2-5.6-2-11.2-3.4-15.9-4.6-8.6-2.2-14.8-3.7-21.3-5 3.9-2.4 8.3-4.5 13.2-6.4 11.6-4.5 25.5-7.2 39.4-7.2 2.6 0 5.2 0.1 7.8 0.3l6.6 0.5c7.6 10.5 12 23.3 12 37.3 0 35.2-28.6 63.8-63.8 63.8-18.1 0-34.5-7.6-46.2-19.8zm-6.8-19.8c6.8 2.6 12.1 2.6 15.7 2.8 3.3 0.1 6.9 0 10.3-0.4 10.9-1.1 21.7-3.6 32.1-7.1 2.3-0.8 6-2.2 9.7-3.9s7.6-3.8 10-5.8c1.1-0.8 1.8-1.7 2.3-2.2l-0.4-0.4c-2.3-2.1-6-4.1-10.5-5.7-4.4-1.6-9.5-2.9-14.3-4.1-15.4-4-22.1-5.2-38-8.1 0 0-10.6-1.6-10.5-1.8 7.1-20.4 39-40.4 78.6-42.7-9.4-5.4-20.2-8.5-31.8-8.5-35.3 0-63.8 28.6-63.8 63.8 0 4.7 0.8 9.3 2.1 13.7 1.6 4.9 4 8.7 8.5 10.4z" fill="url(#SVGID_6_-9)"/></g><path d="m37.597 228.1c6.348 0.8464 12.696 1.2696 18.832 1.2696 8.8871 0 17.351-0.63479 25.392-1.4812 26.027-2.5392 51.63-8.464 76.176-16.928 8.6756-2.9624 24.334-8.8871 38.934-17.351 7.406-4.232 14.6-9.0988 20.737-15.658 3.174-3.174 5.9248-6.9828 8.2524-11.426 2.3276-4.4436 3.8088-9.9452 3.8088-15.658 0-11.003-5.7132-20.948-13.542-27.931-10.368-9.3103-22.641-15.024-34.279-19.467-11.85-4.232-23.699-7.1944-33.644-9.7335-18.197-4.6552-31.317-7.8292-45.071-10.58 8.2524-5.0784 17.563-9.5219 27.931-13.542 24.545-9.5219 53.958-15.235 83.37-15.235 5.5016 0 11.003 0.2116 16.505 0.6348l13.966 1.058c16.082 22.218 25.392 49.303 25.392 78.926 0 74.483-60.517 135-135 135-38.299 0-73.002-16.082-97.759-41.897z" fill="none" stroke-width="2.116"/><path d="m37.597 228.1c6.348 0.8464 12.696 1.2696 18.832 1.2696 8.8871 0 17.351-0.63479 25.392-1.4812 26.027-2.5392 51.63-8.464 76.176-16.928 8.6756-2.9624 24.334-8.8871 38.934-17.351 7.406-4.232 14.6-9.0988 20.737-15.658 3.174-3.174 5.9248-6.9828 8.2524-11.426 2.3276-4.4436 3.8088-9.9452 3.8088-15.658 0-11.003-5.7132-20.948-13.542-27.931-10.368-9.3103-22.641-15.024-34.279-19.467-11.85-4.232-23.699-7.1944-33.644-9.7335-18.197-4.6552-31.317-7.8292-45.071-10.58 8.2524-5.0784 17.563-9.5219 27.931-13.542 24.545-9.5219 53.958-15.235 83.37-15.235 5.5016 0 11.003 0.2116 16.505 0.6348l13.966 1.058c16.082 22.218 25.392 49.303 25.392 78.926 0 74.694-60.517 135-135 135-38.511 0-73.002-16.082-97.759-41.897zm-14.389-41.897c14.389 5.5016 25.603 5.5016 33.221 5.9248 6.9828 0.2116 14.6 0 21.795-0.84639 22.853-2.3276 45.917-7.6176 67.923-15.024 4.8668-1.6928 12.696-4.6552 20.525-8.2524 7.8292-3.5972 16.082-8.0408 21.16-12.273 2.3276-1.6928 3.8088-3.5972 4.8668-4.6552l-0.8464-0.8464c-4.8668-4.4436-12.696-8.6756-22.218-12.061-9.3103-3.3856-20.102-6.1364-30.259-8.6756-32.375-8.464-46.763-11.003-80.408-17.139 0 0-22.429-3.3856-22.218-3.8088 15.024-43.166 82.524-85.486 166.32-90.353-19.89-11.426-42.743-17.986-67.288-17.986-74.483 0-135 60.517-135 135 0 9.9451 1.6928 19.679 4.4436 28.989 3.3856 10.368 8.464 18.409 17.986 22.006z" fill="url(#SVGID_7_-6)" opacity=".59" stroke-width="2.116"/><path d="m63.624 229.16c-2.116 0-5.0784 0.21159-7.1944 0.21159-6.1364 0-12.484-0.42319-18.832-1.2696 24.545 25.815 59.248 41.897 97.759 41.897 21.583 0 41.897-5.0784 60.094-13.966 21.583-30.047 24.757-62.21 25.815-81.889-1.058 1.4812-2.3276 2.7508-3.3856 4.0204-6.1364 6.5596-13.331 11.426-20.737 15.658-12.696 7.1944-26.027 12.696-34.914 15.87-7.8292 14.812-24.334 26.238-41.685 29.835-11.215 2.3276-30.47 2.9624-56.285-10.157z" fill="url(#SVGID_8_-7)" opacity=".3" stroke-width="2.116"/><path d="m4.7996 163.78c2.5392 7.6176 6.348 15.235 13.331 19.679 3.8088 2.5392 8.464 4.0204 12.908 5.0784 4.232 1.2696 8.6755 2.116 13.119 2.5392-5.7132-13.331-9.5219-27.296-11.003-41.685-0.6348-7.1944-0.8464-14.389-0.2116-21.583 0.6348-6.5596 1.4812-13.331 3.3856-19.679 1.9044-5.9248 4.8668-11.426 8.2524-16.505 3.8088-5.9248 8.464-11.426 13.331-16.293 9.9451-10.157 21.795-18.621 34.067-25.815 15.658-9.0987 32.375-15.87 49.726-21.16-10.58-8.0408-23.699-12.908-36.818-15.658-5.9248-1.2696-12.273-1.9044-18.409-1.9044-1.2696 0-2.7508 0-4.0204 0.2116-0.4232 0-1.2696 0-1.6928 0.2116-0.8464 0.4232-1.6928 0.8464-2.5392 1.058-3.174 1.4812-6.348 3.174-9.3103 4.8668-24.334 13.754-44.224 35.125-56.285 60.517-5.7132 12.273-9.5219 25.18-11.426 38.511-1.9044 14.177-1.6928 28.566 1.6928 42.531 1.058 1.9044 1.4812 3.5972 1.9044 5.0784" fill="url(#SVGID_9_-3)" opacity=".29" stroke-width="2.116"/><path d="m130.07 21.371c4.232 2.116 8.2524 4.6552 11.85 7.1944h-0.2116c18.832-5.7132 39.357-9.3103 60.94-10.58-19.89-11.426-42.743-17.986-67.288-17.986-19.255 0-37.665 4.0204-54.169 11.215 14.177-1.4812 33.644 2.5392 48.879 10.157z" fill="url(#SVGID_10_-1)" opacity=".39" stroke-width="2.116"/><path d="m244.96 56.074-13.966-1.058c-5.5016-0.4232-11.003-0.6348-16.505-0.6348-13.119 0-26.45 1.2696-39.146 3.3856 15.87 11.215 33.221 35.125 42.531 66.654l-0.2116-0.2116c6.9828 6.7712 12.273 16.293 12.061 26.45 0 5.9248-1.6928 11.215-3.8088 15.658-1.4812 2.7508-2.9624 5.29-4.8668 7.406-1.058 19.89-4.232 51.842-25.815 81.889 44.436-22.006 75.118-67.923 75.118-121.03 0.2116-28.989-9.3104-56.285-25.392-78.503z" fill="url(#SVGID_11_-9)" opacity=".39" stroke-width="2.116"/><path transform="matrix(.5386 0 0 .5386 -75.532 -88.289)" d="m466.9 272.4c48.5 36.1 70.9 99.7 77.7 122.7-19.2-18.5-44.7-30.9-66.7-38.8-22-8-43.9-13.3-62.3-18.1-33.8-8.8-58.2-14.4-83.6-19.6 15.3-9.2 32.7-17.8 51.7-25 25.1-9.7 52.9-17.3 81.9-22.2 0 0 0.8 0.6 1.3 1z" fill="#757576" filter="url(#filter1952)" opacity=".17"/><path d="m175.98 58.401c26.238 19.467 38.299 53.746 41.897 66.23-10.368-9.9451-24.122-16.716-35.972-20.948s-23.699-7.1944-33.644-9.7335c-18.197-4.6552-31.317-7.8292-45.071-10.58 8.2524-5.0784 17.563-9.5219 27.931-13.542 13.542-5.29 28.566-9.3103 44.224-12.061l0.6348 0.6348z" fill="url(#SVGID_12_-4)" opacity=".17" stroke-width="2.116"/></g><polygon transform="matrix(2.111 0 0 2.111 -815.49 -155.79)" points="711.4 155.5 705.3 184.1 770.2 184.1 770.2 155.5" fill="#fff"/><polygon transform="matrix(2.111 0 0 2.111 -815.49 -155.79)" points="529.6 184.1 700.3 184.1 706.4 155.5 529.6 155.5" fill="url(#SVGID_1_)"/><g stroke-width="2.111"><path d="m724.29 206.67h-18.366l-3.5887 16.466h-16.466l8.8663-41.376h16.466l-3.1665 14.355h18.366l3.1665-14.355h16.466l-8.8663 41.376h-16.466z"/><path d="m754.06 181.76h31.876c14.144 0 20.266 5.4887 17.099 20.688-3.1665 14.566-11.822 20.688-25.543 20.688h-32.299zm9.7107 31.032h9.4996c7.3886 0 11.4-3.7998 12.666-10.344 1.4777-6.5442-0.84441-10.344-8.233-10.344h-9.4996z"/></g>
<g transform="matrix(2.111 0 0 2.111 -815.49 -155.79)" fill="#fff">
			<path d="m554 106.5c-0.3 0.8-10.3 27.4-10.3 27.4s-10-26.6-10.3-27.4h-12.4c0.7 1.6 18.1 42.1 18.4 42.8h8.5c0.3-0.7 17.7-41.2 18.4-42.8h-12.3z"/>
			<path d="m574.1 106.5v42.6h12v-42.6h-12z"/>
			<path d="m612 106.5c-0.3 0.7-17.7 41.2-18.4 42.8h12.4c0.2-0.6 1.8-4.8 1.8-4.8h17s1.6 4.1 1.8 4.8h12.3c-0.7-1.6-18.1-42.1-18.4-42.8h-8.5zm4.3 15.3 5.5 14.7h-11z"/>
			<path d="m704.2 106.5c-0.3 0.7-17.7 41.2-18.4 42.8h12.4c0.2-0.6 1.8-4.8 1.8-4.8h17s1.5 4.1 1.8 4.8h12.3c-0.7-1.6-18.1-42.1-18.4-42.8h-8.5zm4.3 15.3 5.5 14.7h-11z"/>
			<path d="m659.2 106.1c-10.8 0-16 3.6-16 11v5.1c0 3.9 1.6 6.8 4.4 8.2 2.1 1.1 4.6 1.4 11 1.4h8.4c2.7 0 3.8 1 3.8 3.6v0.6c0 2.6-1.1 3.7-3.8 3.7h-9.2c-1.4 0-2.3-0.3-2.9-0.9-0.5-0.5-0.7-1.2-0.8-2.1-1 0-9.8 0.4-10.9 0.4 1.3 8.8 5.7 12.1 15.9 12.1h6.7c10.8 0 16-3.6 16-11v-5.1c0-3.9-1.6-6.8-4.4-8.2-2.2-1.1-4.6-1.4-11.1-1.4h-8.4c-2.7 0-3.8-1-3.8-3.6v-0.6c0-2.6 1.1-3.7 3.8-3.7h9.2c1.4 0 2.3 0.3 2.9 0.9 0.5 0.5 0.7 1.2 0.8 2 1.1-0.1 9.8-0.8 10.9-0.9-1.7-8.5-5.9-11.6-15.9-11.6h-6.6z"/>
			<path d="m727.8 106.5v10.2h15.3v32.4h12v-32.4h15.3v-10.2h-42.6z"/>
		</g><g transform="matrix(2.111 0 0 2.111 -815.49 -155.79)">
			<g fill="#fff">
				<path d="m543.3 159.4 5.8 10.6 1 1.9h0.1l1-1.9 5.9-10.6h7.4v19.6h-6.4v-11l-1 1.9-4.8 9.1h-4.6l-4.7-9.1-0.9-1.9h-0.1v11h-6.4v-19.6z"/>
				<path d="m580.5 179.5c-8.8 0-12.3-4.5-12.3-10.2s3.6-10.1 12.3-10.1c8.8 0 12.3 4.5 12.3 10.2 0.1 5.5-3.5 10.1-12.3 10.1zm0-15.1c-3.7 0-4.9 1.4-4.9 4.8s1.2 4.9 4.9 4.9 4.9-1.5 4.9-4.9-1.1-4.8-4.9-4.8z"/>
				<path d="m630 179.5c-8.8 0-12.3-4.5-12.3-10.2s3.6-10.1 12.3-10.1c8.8 0 12.3 4.5 12.3 10.2 0 5.6-3.5 10.1-12.3 10.1zm0-15c-3.7 0-4.9 1.4-4.9 4.8s1.2 4.9 4.9 4.9 4.9-1.5 4.9-4.9-1.1-4.8-4.9-4.8z"/>
				<path d="m662.6 171.8 6.1 7.3h-8.4l-3.9-5.9h-3.3v5.9h-7.1v-19.6h10.7c6.5 0 10.1 2.4 10.1 6.7 0 2.4-1.6 4.8-4.2 5.6zm-6.2-7.4h-3.4v4.4h3.3c2.1 0 3-0.6 3-2.3 0.1-1.6-0.7-2.1-2.9-2.1z"/>
				<path d="m608.8 164.9v14.1h-7.1v-14.1h-6.8l0.2-5.5h20.5l0.2 5.5z"/>
			</g>
		</g>
</svg>
