<svg width="813.53" height="270" version="1.1" viewBox="0 0 813.53 270" xml:space="preserve" xmlns="http://www.w3.org/2000/svg"><defs>
	<linearGradient id="SVGID_1_" x1="620.76" x2="379.31" y1="338.06" y2="320.96" gradientTransform="matrix(2.116 0 0 2.116 -499.02 -494.51)" gradientUnits="userSpaceOnUse">
		<stop stop-color="#FFCF00" offset=".032967"/>
		<stop stop-color="#F6C600" offset=".1968"/>
		<stop stop-color="#DEAE00" offset=".4305"/>
		<stop stop-color="#BA8B0F" offset=".7061"/>
		<stop stop-color="#90631A" offset="1"/>
	</linearGradient>
	<linearGradient id="SVGID_10_" x1="276.53" x2="334" y1="249.83" y2="362.19" gradientTransform="matrix(2.116 0 0 2.116 -499.02 -494.51)" gradientUnits="userSpaceOnUse">
		<stop stop-color="#FFCF00" offset="0"/>
		<stop stop-color="#FAC900" offset=".2003"/>
		<stop stop-color="#E9BA00" offset=".4047"/>
		<stop stop-color="#D0A100" offset=".6108"/>
		<stop stop-color="#B18213" offset=".8169"/>
		<stop stop-color="#90631A" offset="1"/>
	</linearGradient>
		<radialGradient id="SVGID_11_" cx="-1555.8" cy="901.54" r="148.93" gradientTransform="matrix(1.3627 0 0 1.3627 2113.3 -1008.3)" gradientUnits="userSpaceOnUse">
		<stop stop-color="#fff" offset=".4011"/>
		<stop stop-color="#FEFDFA" offset=".4535"/>
		<stop stop-color="#FAF6EA" offset=".5308"/>
		<stop stop-color="#F3EBCF" offset=".6235"/>
		<stop stop-color="#E9DCA8" offset=".7281"/>
		<stop stop-color="#DDC973" offset=".8426"/>
		<stop stop-color="#CDB32C" offset=".9637"/>
		<stop stop-color="#C8AD0A" offset="1"/>
	</radialGradient>
	<linearGradient id="SVGID_12_" x1="235.79" x2="302.65" y1="281.48" y2="281.48" gradientTransform="matrix(2.116 0 0 2.116 -499.02 -494.51)" gradientUnits="userSpaceOnUse">
		<stop stop-color="#fff" offset="0"/>
		<stop stop-color="#FFFAED" offset=".087128"/>
		<stop stop-color="#feb" offset=".2718"/>
		<stop stop-color="#FFDA5B" offset=".5365"/>
		<stop stop-color="#FFCF00" offset=".7033"/>
	</linearGradient>
	<linearGradient id="SVGID_15_" x1="292.55" x2="332.9" y1="251.22" y2="312.19" gradientTransform="matrix(2.116 0 0 2.116 -499.02 -494.51)" gradientUnits="userSpaceOnUse">
		<stop stop-color="#FFCF00" offset=".2198"/>
		<stop stop-color="#FFD63A" offset=".3147"/>
		<stop stop-color="#FFE48D" offset=".5052"/>
		<stop stop-color="#FFF0C2" offset=".6758"/>
		<stop stop-color="#FFF8E4" offset=".8202"/>
		<stop stop-color="#FFFDF8" offset=".9329"/>
		<stop stop-color="#fff" offset="1"/>
	</linearGradient>
<radialGradient id="XMLID_8_-1" cx="391.74" cy="414.65" r="233.83" gradientTransform="matrix(.5386 0 0 .5386 -76.029 -88.33)" gradientUnits="userSpaceOnUse"><stop stop-color="#fff" offset=".3427"/><stop stop-color="#FDFDFC" offset=".4887"/><stop stop-color="#F8F8F2" offset=".6032"/><stop stop-color="#F5F5ED" offset=".6404"/><stop stop-color="#E8E9E1" offset=".7054"/><stop stop-color="#C6C8C3" offset=".8251"/><stop stop-color="#9DA09D" offset=".9494"/></radialGradient><clipPath id="clipPath1658"><path d="m184.78-534.18c-129.1 0-233.8 104.7-233.8 233.8s104.7 233.8 233.8 233.8c129.2 0 233.8-104.7 233.8-233.8 0.1-129.1-104.6-233.8-233.8-233.8z"/></clipPath><filter id="filter1583" x="-.048012" y="-.047988" width="1.096" height="1.096" color-interpolation-filters="sRGB"><feGaussianBlur stdDeviation="10.023391"/></filter></defs>
<g transform="translate(-.0072295 .026932)"><path d="m134.94 9.0485c-69.533 0-125.92 56.391-125.92 125.92s56.391 125.92 125.92 125.92c69.587 0 125.92-56.391 125.92-125.92 0.0539-69.533-56.338-125.92-125.92-125.92z" fill="url(#XMLID_8_-1)" stroke-width=".5386"/><g transform="matrix(.5386 0 0 .5386 35.417 296.76)" clip-path="url(#clipPath1658)" fill="#757576" filter="url(#filter1583)"><path d="m3.3998-127.63c11.8 1.5 23.5 2.2 34.9 2.2 16.4 0 32.3-1.2 47.1-2.7 48.2-4.9 95.9-15.7 141.3-31.4 16.1-5.6 45.1-16.4 72.3-32.1 13.7-8 27-17 38.5-29 5.7-6 11.1-12.9 15.3-21.2s7.2-18.3 7.2-29.2c0.2-20.3-10.8-38.9-25.3-51.7-19.3-17.4-41.8-28-63.8-36s-43.9-13.3-62.3-18.1c-33.8-8.8-58.2-14.4-83.6-19.6 15.3-9.2 32.7-17.8 51.6-25 45.7-17.6 100.1-28.4 154.7-28.4 10.2 0 20.5 0.4 30.7 1.1l25.9 2c29.7 41.2 47.2 91.7 47.2 146.3 0 138.4-112.2 250.6-250.6 250.6-71.1 0-135.5-29.9-181.1-77.8zm-26.8-77.8c26.8 10.2 47.6 10.4 61.6 10.9 13.1 0.5 26.9 0 40.4-1.4 42.6-4.3 85.3-14 125.9-28 9-3.1 23.5-8.5 38.2-15.3 14.7-6.7 29.7-15.1 39.2-22.8 4.3-3.3 7.3-6.5 8.9-8.6-0.5-0.5-1-1.1-1.8-1.7-9.1-8.3-23.7-16.1-41.1-22.4s-37.2-11.3-56.2-16.2c-60.3-15.6-86.7-20.4-149.2-31.7 0 0-41.5-6.4-41.3-7.2 27.8-80.3 153-158.8 308.6-167.7-36.8-21.3-79.3-33.5-124.9-33.5-138.4 0-250.6 112.2-250.6 250.6 0 18.5 3.1 36.5 8.3 53.6 6.8 20 16.4 34.8 34 41.4z"/><path d="m260-442.63c48.5 36.1 70.9 99.7 77.7 122.7-19.2-18.5-44.7-30.9-66.7-38.8-22-8-43.9-13.3-62.3-18.1-33.8-8.8-58.2-14.4-83.6-19.6 15.3-9.2 32.7-17.8 51.7-25 25.1-9.7 52.9-17.3 81.9-22.2 0 0 0.8 0.6 1.3 1z" opacity=".17"/><path d="m51.6-125.63c-4.1 0.1-9.4 0.3-13.5 0.3-11.4 0-23.1-0.7-34.9-2.2 45.6 47.9 110 77.8 181.4 77.8 40 0 77.8-9.4 111.4-26.1 40.1-55.9 46.1-115.3 47.9-152.1-2.1 2.6-4.2 5.1-6.5 7.4-11.5 12-24.9 21.1-38.5 29-23.4 13.5-48.2 23.4-64.9 29.5-14.4 27.6-45.1 48.8-77.4 55.6-21 4.4-56.6 5.5-104.4-18.8z" opacity=".31"/><path d="m-57.5-246.73c4.8 14 11.9 28.1 24.6 36.5 7.2 4.8 15.7 7.3 23.9 9.6 8 2.2 16.2 3.8 24.5 4.7-10.6-24.7-17.8-50.7-20.3-77.5-1.2-13.3-1.4-26.7-0.3-39.9 1-12.1 2.6-24.8 6.2-36.4 3.4-10.9 9.2-21.3 15.5-30.8 7.2-11 15.7-21 24.9-30.3 18.6-18.8 40.3-34.7 63.2-47.9 29.1-16.7 60.1-29.5 92.2-39.2-19.6-15.1-44.1-24.1-68.1-29.1-11.2-2.3-22.6-3.7-34.1-3.6-2.5 0-4.9 0.1-7.4 0.3-0.9 0.1-2.3 0-3.1 0.3-1.6 0.7-3.1 1.4-4.7 2.1-5.9 2.7-11.7 5.7-17.4 8.9-45.3 25.5-82.2 65.1-104.3 112.2-10.6 22.6-17.8 46.8-21.2 71.6-3.7 26.4-3.3 53.2 3.3 79.1 0.8 3.2 1.6 6.3 2.6 9.4" opacity=".31"/><path d="m388.2-446.63-25.9-2c-10.2-0.7-20.4-1.1-30.7-1.1-24.5 0-49 2.2-72.7 6.2 29.4 20.8 61.7 65 79 123.7h-0.1v0.1c-0.1-0.1-0.2-0.1-0.2-0.2 13.1 12.7 22.6 30.2 22.5 49.1 0 10.9-3 20.9-7.2 29.2-2.6 5.1-5.6 9.7-8.9 13.8-1.8 36.8-7.7 96.3-47.9 152.1 82.5-41 139.2-126.1 139.2-224.5 0.1-54.7-17.4-105.2-47.1-146.4z" opacity=".15"/></g></g><path d="m355.84 68.77c-0.6348 1.6928-21.795 57.978-21.795 57.978s-21.16-56.285-21.795-57.978h-26.238c1.4812 3.3856 38.299 89.083 38.934 90.564h17.986c0.63479-1.4812 37.453-87.179 38.934-90.564h-26.027z" fill="#fff" stroke-width="2.116"/><path d="m398.37 68.77v90.141h25.392v-90.141h-25.392z" fill="#fff" stroke-width="2.116"/><path d="m478.36 68.77c-0.6348 1.4812-37.453 87.179-38.934 90.564h26.238c0.4232-1.4812 3.8088-10.157 3.8088-10.157h35.972s3.3856 8.6756 3.8088 10.157h26.027c-1.4812-3.3856-38.299-89.083-38.934-90.564h-17.986zm9.0987 32.586 11.638 31.105h-23.276z" fill="#fff" stroke-width="2.116"/><path d="m673.66 68.77c-0.63479 1.4812-37.453 87.179-38.934 90.564h26.238c0.4232-1.4812 3.8088-10.157 3.8088-10.157h35.972s3.174 8.6756 3.8088 10.157h26.027c-1.4812-3.3856-38.299-89.083-38.934-90.564h-17.986zm8.8872 32.586 11.638 31.105h-23.276z" fill="#fff" stroke-width="2.116"/><path d="m578.44 67.923c-22.853 0-33.856 7.6176-33.856 23.276v10.792c0 8.2524 3.3856 14.389 9.3103 17.351 4.4436 2.3276 9.7335 2.9624 23.276 2.9624h17.774c5.7132 0 8.0408 2.116 8.0408 7.6176v1.2696c0 5.5016-2.3276 7.8292-8.0408 7.8292h-19.467c-2.9624 0-4.8668-0.6348-6.1364-1.9044-1.058-1.058-1.4812-2.5392-1.6928-4.4436-2.116 0-20.737 0.84639-23.064 0.84639 2.7508 18.621 12.061 25.603 33.644 25.603h14.177c22.853 0 33.856-7.6176 33.856-23.276v-10.792c0-8.2524-3.3856-14.389-9.3103-17.351-4.6552-2.3276-9.7335-2.9624-23.487-2.9624h-17.774c-5.7132 0-8.0408-2.116-8.0408-7.6175v-1.2696c0-5.5016 2.3276-7.8292 8.0408-7.8292h19.467c2.9624 0 4.8668 0.6348 6.1364 1.9044 1.058 1.058 1.4812 2.5392 1.6928 4.232 2.3276-0.2116 20.737-1.6928 23.064-1.9044-3.5972-17.986-12.484-24.545-33.644-24.545h-13.966z" fill="#fff" stroke-width="2.116"/><path d="m723.39 68.77v21.583h32.375v68.769h25.392v-68.558h32.375v-21.583c-2.3276-0.2116-87.602-0.2116-90.141-0.2116z" fill="#fff" stroke-width="2.116"/><rect x="304.42" y="172.45" width="509.11" height="60.517" fill="url(#SVGID_1_)" stroke-width="2.116"/><g transform="matrix(2.116 0 0 2.116 -499.02 -494.51)" fill="#fff">
			<path d="m406.7 338.2c-2 0.6-5.1 1-7.7 1-9.4 0-13.2-4.1-13.2-10.1s3.8-10.3 13.1-10.3c2.6 0 5.4 0.3 7.6 0.9l-0.7 5.3c-2-0.6-4.4-0.9-6.6-0.9-5 0-6 1.4-6 4.8 0 3.5 1.2 4.9 5.5 4.9 0.7 0 1.3 0 1.9-0.1v-5.3h6.1z"/>
			<path d="m422.2 324.2c-3.6 0-4.8 1.4-4.8 4.8s1.2 4.9 4.8 4.9c3.7 0 4.9-1.5 4.9-4.9s-1.1-4.8-4.9-4.8m0 15c-8.7 0-12.3-4.5-12.3-10.2s3.5-10.1 12.3-10.1 12.3 4.4 12.3 10.1-3.5 10.2-12.3 10.2"/>
		<polygon points="445.2 333.3 456 333.3 455.9 338.8 438.2 338.8 438.2 319.2 445.2 319.2"/>
		<polygon points="466.1 338.8 459.1 338.8 459.1 319.2 477.8 319.2 477.8 324.7 466.1 324.7 466.1 327.3 475.9 327.3 475.8 332.2 466.1 332.2"/>
	</g>
<g transform="matrix(2.116 0 0 2.116 -499.02 -494.51)">
				<radialGradient id="SVGID_9_" cx="301.24" cy="320.69" r="70.209" gradientTransform="matrix(1.0013 0 0 1.0013 -.1334 .0119)" gradientUnits="userSpaceOnUse">
				<stop stop-color="#FFCF00" offset="0"/>
				<stop stop-color="#C19A02" offset=".3416"/>
				<stop stop-color="#5A4616" offset="1"/>
			</radialGradient>
			<path d="m253.4 341.5c3 0.4 6 0.6 8.9 0.6 4.2 0 8.2-0.3 12-0.7 12.3-1.2 24.4-4 36-8 4.1-1.4 11.5-4.2 18.4-8.2 3.5-2 6.9-4.3 9.8-7.4 1.5-1.5 2.8-3.3 3.9-5.4s1.8-4.7 1.8-7.4c0-5.2-2.7-9.9-6.4-13.2-4.9-4.4-10.6-7.1-16.2-9.2-5.6-2-11.2-3.4-15.8-4.6-8.6-2.2-14.8-3.7-21.3-5 3.9-2.4 8.3-4.5 13.2-6.4 11.6-4.5 25.5-7.2 39.4-7.2 2.6 0 5.2 0.1 7.8 0.3l6.6 0.5c7.6 10.5 12 23.3 12 37.2 0 35.2-28.6 63.8-63.8 63.8-18.3 0.1-34.7-7.5-46.3-19.7zm-6.8-19.8c6.8 2.6 12.1 2.6 15.7 2.8 3.3 0.1 6.9 0 10.3-0.4 10.8-1.1 21.7-3.6 32-7.1 2.3-0.8 6-2.2 9.7-3.9s7.6-3.8 10-5.8c1.1-0.8 1.8-1.7 2.3-2.2l-0.4-0.4c-2.3-2.1-6-4.1-10.5-5.7-4.4-1.6-9.5-2.9-14.3-4.1-15.3-4-22.1-5.2-38-8.1 0 0-10.6-1.6-10.5-1.8 7.1-20.4 38.9-40.4 78.6-42.7-9.4-5.4-20.2-8.5-31.8-8.5-35.2 0-63.8 28.6-63.8 63.8 0 4.7 0.8 9.3 2.1 13.6 1.7 5 4.1 8.8 8.6 10.5z" fill="url(#SVGID_9_)"/>
	</g><path d="m37.174 228.1c6.348 0.8464 12.696 1.2696 18.832 1.2696 8.8871 0 17.351-0.63479 25.392-1.4812 26.027-2.5392 51.63-8.464 76.176-16.928 8.6756-2.9624 24.334-8.8871 38.934-17.351 7.406-4.232 14.6-9.0988 20.737-15.658 3.174-3.174 5.9248-6.9828 8.2524-11.426 2.3276-4.4436 3.8088-9.9452 3.8088-15.658 0-11.003-5.7132-20.948-13.542-27.931-10.368-9.3103-22.429-15.024-34.279-19.467-11.85-4.232-23.699-7.1944-33.433-9.7335-18.198-4.6552-31.317-7.8292-45.071-10.58 8.2524-5.0784 17.563-9.5219 27.931-13.542 24.545-9.5219 53.958-15.235 83.37-15.235 5.5016 0 11.003 0.2116 16.505 0.6348l13.966 1.058c16.082 22.218 25.392 49.303 25.392 78.715 0 74.483-60.517 135-135 135-38.723 0.21159-73.425-15.87-97.97-41.685z" fill="none" stroke-width="2.116"/><path d="m37.174 228.1c6.348 0.8464 12.696 1.2696 18.832 1.2696 8.8871 0 17.351-0.63479 25.392-1.4812 26.027-2.5392 51.63-8.464 76.176-16.928 8.6756-2.9624 24.334-8.8871 38.934-17.351 7.406-4.232 14.6-9.0988 20.737-15.658 3.174-3.174 5.9248-6.9828 8.2524-11.426 2.3276-4.4436 3.8088-9.9452 3.8088-15.658 0-11.003-5.7132-20.948-13.542-27.931-10.368-9.3103-22.641-15.024-34.279-19.467-11.85-4.232-23.699-7.1944-33.644-9.7335-18.197-4.6552-31.317-7.8292-45.071-10.58 8.2524-5.0784 17.563-9.5219 27.931-13.542 24.545-9.5219 53.958-15.235 83.37-15.235 5.5016 0 11.003 0.2116 16.505 0.6348l13.966 1.058c16.082 22.218 25.392 49.303 25.392 78.715 0 74.483-60.517 135-135 135-38.511 0.21159-73.213-15.87-97.759-41.685zm-14.389-41.897c14.389 5.5016 25.603 5.5016 33.221 5.9248 6.9828 0.2116 14.6 0 21.795-0.84639 22.853-2.3276 45.917-7.6176 67.712-15.024 4.8668-1.6928 12.696-4.6552 20.525-8.2524 7.8292-3.5972 16.082-8.0408 21.16-12.273 2.3276-1.6928 3.8088-3.5972 4.8668-4.6552l-0.8464-0.8464c-4.8668-4.4436-12.696-8.6756-22.218-12.061-9.3103-3.3856-20.102-6.1364-30.259-8.6756-32.375-8.464-46.763-11.003-80.408-17.139 0 0-22.429-3.3856-22.218-3.8088 15.024-43.166 82.312-85.486 166.32-90.353-19.89-11.426-42.743-17.986-67.288-17.986-74.483 0-135 60.517-135 135 0 9.9451 1.6928 19.679 4.4436 28.777 3.3856 10.58 8.6755 18.621 18.197 22.218z" fill="url(#SVGID_10_)" opacity=".6" stroke-width="2.116"/><path d="m63.201 229.16c-2.116 0-5.0784 0.21159-7.1944 0.21159-6.1364 0-12.484-0.42319-18.832-1.2696 24.545 25.815 59.248 41.897 97.759 41.897 21.583 0 41.897-5.0784 60.094-13.966 21.583-30.047 24.757-62.21 25.815-81.889-1.058 1.4812-2.3276 2.7508-3.3856 4.0204-6.1364 6.5596-13.331 11.426-20.737 15.658-12.696 7.1944-26.027 12.696-34.914 15.87-7.8292 14.812-24.334 26.238-41.685 29.835-11.215 2.3276-30.47 2.9624-56.285-10.157z" fill="url(#SVGID_11_)" opacity=".31" stroke-width="2.116"/><path d="m4.3764 163.78c2.5392 7.6176 6.348 15.235 13.331 19.679 3.8088 2.5392 8.464 4.0204 12.908 5.0784 4.232 1.2696 8.6755 2.116 13.119 2.5392-5.7132-13.331-9.5219-27.296-11.003-41.685-0.6348-7.1944-0.8464-14.389-0.2116-21.583 0.6348-6.5596 1.4812-13.331 3.3856-19.679 1.9044-5.9248 4.8668-11.426 8.2524-16.505 3.8088-5.9248 8.464-11.426 13.331-16.293 9.9451-10.157 21.795-18.621 34.067-25.815 15.658-9.0987 32.375-15.87 49.726-21.16-10.58-8.0408-23.699-12.908-36.607-15.658-5.9248-1.2696-12.273-1.9044-18.409-1.9044-1.2696 0-2.7508 0-4.0204 0.2116-0.4232 0-1.2696 0-1.6928 0.2116-0.8464 0.4232-1.6928 0.8464-2.5392 1.058-3.174 1.4812-6.348 3.174-9.3103 4.8668-24.334 13.754-44.224 35.125-56.074 60.517-5.7132 12.273-9.5219 25.18-11.426 38.511-1.9044 14.177-1.6928 28.566 1.6928 42.531 0.4232 1.9044 0.8464 3.3856 1.4812 5.0784" fill="url(#SVGID_12_)" opacity=".59" stroke-width="2.116"/><path d="m129.64 21.371c4.232 2.116 8.2524 4.6552 11.85 7.1944h-0.2116c18.832-5.7132 39.357-9.3103 60.94-10.58-19.89-11.426-42.743-17.986-67.288-17.986-19.255 0-37.453 4.0204-54.169 11.215 13.966-1.4812 33.433 2.5392 48.879 10.157z" opacity="0" stroke-width="2.116"/><path d="m244.54 56.285-13.966-1.058c-5.5016-0.4232-11.003-0.6348-16.505-0.6348-13.119 0-26.45 1.2696-39.146 3.3856 15.87 11.215 33.221 35.125 42.531 66.654l-0.2116-0.2116c6.9828 6.7712 12.273 16.293 12.061 26.45 0 5.9248-1.6928 11.215-3.8088 15.658-1.4812 2.7508-2.9624 5.29-4.8668 7.406-1.058 19.89-4.232 51.842-25.815 81.889 44.436-22.006 74.906-67.923 74.906-121.03 0.2116-29.201-9.3104-56.497-25.18-78.503z" opacity="0" stroke-width="2.116"/><path d="m175.35 58.401c26.027 19.467 38.299 53.746 41.897 66.019-10.368-9.9451-24.122-16.716-35.972-20.948s-23.699-7.1944-33.433-9.7335c-18.197-4.6552-31.317-7.8292-45.071-10.58 8.2524-5.0784 17.563-9.5219 27.931-13.542 13.542-5.29 28.566-9.3103 44.013-12.061 0 0.2116 0.4232 0.6348 0.6348 0.8464z" fill="url(#SVGID_15_)" opacity=".33" stroke-width="2.116"/>
</svg>
