<svg width="767.47" height="654.91" version="1.1" viewBox="0 0 203.06 173.28" xmlns="http://www.w3.org/2000/svg">
 <defs>
  <clipPath id="a">
   <path d="m571.75 412.62h18.495v10.43h-18.495z"/>
  </clipPath>
 </defs>
 <g transform="translate(-47.67 82.787)">
  <path d="m47.67 31.731h203.06v-114.52h-203.06z" fill="#515253"/>
  <g transform="matrix(10.98 0 0 -10.98 91.098 3.0392)">
   <path d="m0 0-2.18 5.204h1.266l1.389-3.513 1.418 3.513h1.262l-2.227-5.204z" fill="#fff"/>
  </g>
  <g transform="matrix(10.98 0 0 -10.98 -6230 4562.1)">
   <g clip-path="url(#a)">
    <g transform="translate(581.18 419.37)">
     <path d="m0 0c-0.33 0-0.633-0.094-0.901-0.28-0.268-0.185-0.462-0.435-0.576-0.744-0.064-0.176-0.097-0.357-0.097-0.539 0-0.374 0.126-0.713 0.375-1.007 0.309-0.366 0.712-0.552 1.199-0.552 0.486 0 0.891 0.184 1.203 0.547 0.249 0.29 0.375 0.631 0.375 1.012 0 0.391-0.127 0.733-0.376 1.017-0.319 0.362-0.724 0.546-1.202 0.546m0-4.246c-0.881 0-1.59 0.297-2.107 0.882-0.453 0.514-0.683 1.12-0.683 1.801 0 0.312 0.063 0.635 0.185 0.962 0.123 0.327 0.289 0.611 0.494 0.844 0.517 0.584 1.227 0.881 2.111 0.881s1.594-0.297 2.11-0.881c0.454-0.515 0.683-1.122 0.683-1.806 0-0.681-0.229-1.287-0.683-1.801-0.516-0.585-1.226-0.882-2.11-0.882" fill="#fff"/>
    </g>
    <g transform="translate(587.07 415.23)">
     <path d="m0 0-1.22 1.852-1.251-1.852h-1.401l1.999 2.764-1.69 2.44h1.433l0.914-1.545 0.932 1.545h1.429l-1.7-2.438 1.955-2.766z" fill="#fff"/>
    </g>
   </g>
  </g>
  <g transform="matrix(10.98 0 0 -10.98 148.66 90.228)" fill="#fff">
   <path d="m0 0c-0.026-7e-3 -0.064-0.013-0.115-0.017-0.052-5e-3 -0.103-7e-3 -0.154-7e-3 -0.052 0-0.104 2e-3 -0.157 7e-3 -0.053 4e-3 -0.092 0.01-0.117 0.017-0.045 0.013-0.068 0.038-0.068 0.077v1.253h-1.202v-1.253c0-0.039-0.022-0.064-0.067-0.077-0.026-7e-3 -0.066-0.013-0.12-0.017-0.055-5e-3 -0.108-7e-3 -0.159-7e-3s-0.102 2e-3 -0.151 7e-3c-0.05 4e-3 -0.088 0.01-0.113 0.017-0.045 0.013-0.067 0.038-0.067 0.077v3.074c0 0.038 0.022 0.064 0.067 0.077 0.025 6e-3 0.063 0.012 0.113 0.016 0.049 5e-3 0.1 8e-3 0.151 8e-3s0.104-3e-3 0.159-8e-3c0.054-4e-3 0.094-0.01 0.12-0.016 0.045-0.013 0.067-0.039 0.067-0.077v-1.21h1.202v1.21c0 0.038 0.023 0.064 0.068 0.077 0.025 6e-3 0.064 0.012 0.117 0.016 0.053 5e-3 0.105 8e-3 0.157 8e-3 0.051 0 0.102-3e-3 0.154-8e-3 0.051-4e-3 0.089-0.01 0.115-0.016 0.045-0.013 0.067-0.039 0.067-0.077v-3.074c0-0.039-0.022-0.064-0.067-0.077m3.252 0.947c-0.067-0.198-0.168-0.369-0.303-0.514-0.138-0.144-0.308-0.257-0.51-0.337s-0.455-0.12-0.759-0.12h-0.587c-0.08 0-0.143 2e-3 -0.19 7e-3 -0.046 4e-3 -0.082 0.012-0.105 0.024-0.025 0.011-0.041 0.025-0.049 0.041s-0.012 0.034-0.012 0.053v3.025c0 0.023 3e-3 0.042 0.01 0.058 6e-3 0.016 0.021 0.029 0.046 0.038 0.024 0.01 0.059 0.018 0.105 0.022 0.047 5e-3 0.108 8e-3 0.186 8e-3h0.596c0.304 0 0.557-0.041 0.759-0.121s0.372-0.192 0.51-0.337c0.135-0.144 0.236-0.315 0.303-0.513s0.101-0.42 0.101-0.667c0-0.248-0.034-0.47-0.101-0.667m-0.837 1.437c-0.08 0.091-0.181 0.158-0.303 0.203-0.121 0.045-0.278 0.068-0.471 0.068h-0.226v-2.082h0.226c0.193 0 0.35 0.022 0.471 0.067 0.122 0.045 0.223 0.113 0.303 0.203 0.151 0.17 0.226 0.427 0.226 0.771 0 0.343-0.075 0.6-0.226 0.77" fill="#fff"/>
  </g>
 </g>
</svg>
