<svg width="211.67mm" height="97.952mm" version="1.1" viewBox="0 0 211.67 97.952" xmlns="http://www.w3.org/2000/svg">
 <defs>
  <linearGradient id="linearGradient1188" x1="538.73" x2="538.73" y1="255.75" y2="133.03" gradientTransform="matrix(.99999 0 0 .99999 12.911 282.35)" gradientUnits="userSpaceOnUse">
   <stop stop-color="#604724" offset="0"/>
   <stop stop-color="#6d5127" offset=".18737"/>
   <stop stop-color="#9d7025" offset=".32302"/>
   <stop stop-color="#b58b3d" offset=".38383"/>
   <stop stop-color="#e3be6e" offset=".51895"/>
   <stop stop-color="#f1ba5a" offset=".68123"/>
   <stop stop-color="#e0a361" offset=".80459"/>
   <stop stop-color="#dd9d5b" offset="1"/>
  </linearGradient>
  <clipPath id="clipPath96-5">
   <path d="m0 1080h1920v-1080h-1920z"/>
  </clipPath>
 </defs>
 <g transform="matrix(.3513 0 0 .3513 52.899 -142.65)">
  <g transform="matrix(3.7795,0,0,3.7795,-1417.3,-429.09)">
   <path transform="matrix(.26458 0 0 .26458 332.38 111.05)" d="m551.51 415.45a61.327 61.327 0 0 0-61.139 61.326 61.327 61.327 0 0 0 61.326 61.328 61.327 61.327 0 0 0 61.328-61.328 61.327 61.327 0 0 0-61.328-61.326 61.327 61.327 0 0 0-0.1875 0zm-20.395 29.121h17.52v37.393h4.043l10.18 12.934h-14.223v10.527h-14.852v-10.527h-33.412l-2.4863-11.021zm47.197 0.19726h19.438l-25.592 29.426 25.592 29.422h-19.438l-25.635-29.422zm-44.529 18.5-15.939 18.779h15.939zm-1.5059 47.512h3.8633v7.209c4e-5 0.89346 0.22292 1.5309 0.60157 1.9453 0.37865 0.41442 0.92026 0.61914 1.5996 0.61914 0.68056 0 1.2217-0.19683 1.5996-0.59571 0.37788-0.39884 0.60156-1.0134 0.60156-1.8789v-7.2988h3.8613v7.1914c0 2.0798-0.59673 3.6018-1.668 4.5957-1.0712 0.99389-2.6006 1.4492-4.4316 1.4492-1.8315 0-3.3437-0.46602-4.3965-1.4531-1.0528-0.98711-1.6309-2.4858-1.6309-4.502zm13.879 0.11914h3.8066v4.7578h4.2402v-4.7578h3.8086v13h-3.8086v-4.832h-4.2402v4.832h-3.8066zm13.488 0h5.0469c2.298 0 4.128 0.66238 5.3848 1.8027 1.2567 1.1404 1.9316 2.7543 1.9316 4.623v0.0371c0 1.8692-0.68331 3.5103-1.9531 4.6777s-3.1204 1.8594-5.4375 1.8594h-4.9727zm3.8066 3.4082v6.1816h1.2949c1.0275-1e-5 1.8657-0.28166 2.4473-0.80079s0.91602-1.2773 0.91602-2.2715v-0.0371c-4e-5 -0.98477-0.33417-1.7422-0.91602-2.2637s-1.4202-0.8086-2.4473-0.8086z" fill="url(#linearGradient1188)" stroke-width="3.7795"/>
  </g>
 </g>
 <g transform="matrix(.80561 0 0 -.80561 -141.98 628.1)">
  <path transform="matrix(.43606 0 0 -.43606 30.068 956.31)" d="m585.83 428.11c-63.017 5e-3 -202.77 43.725-198.83 118.84 1.1994 22.949 15.64 48.08 42.535 69.191 5.3686 4.2105-12.827 27.808-36.469 39.045-25.944 12.338-57.842 12.199-57.842 12.199s24.832 18.284 98.65 16.408c54.144-1.3783 88.965-26.729 88.965-26.729 22.281 4.7333 47.196 7.41 74.662 7.3848 118.57-0.11696 219.02-45.995 219.14-121.32 0.0665-43.591-59.785-114.87-230.69-115.02zm0.39856 100.52c6.8629-0.24949 12.439 3.1117 17.118 8.3296 3.7018 4.14 5.3078 8.905 5.3028 14.215 0.17532 10.822-8.5153 20.604-19.415 22.31-10.444 1.638-21.635-6.5617-24.087-17.359-2.7951-12.309 5.4602-24.871 18.06-27.162 1.034-0.18816 2.04-0.29712 3.0204-0.33275z" fill="#ec1c24"/>
 </g>
 <g transform="matrix(.80561 0 0 -.80561 -141.98 628.1)">
  <g clip-path="url(#clipPath96-5)">
   <g transform="translate(225.56,733.63)">
    <path d="m0 0c0.805-2.889 1.6-5.782 2.422-8.667 0.719-2.524 1.467-5.041 2.205-7.56 0.057-0.192 0.126-0.378 0.247-0.737 0.489 1.516 0.928 2.871 1.363 4.227 1.318 4.106 2.668 8.202 3.939 12.323 0.51 1.654 1.583 2.625 3.221 2.825 1.161 0.141 2.388 0.117 3.533-0.102 1.702-0.328 2.56-1.615 2.959-3.236 0.058-0.237 0.143-0.469 0.217-0.702 1.084-3.373 2.169-6.746 3.253-10.118 0.362-1.129 0.727-2.259 1.143-3.555 0.237 0.785 0.434 1.422 0.619 2.06 1.207 4.142 2.527 8.254 3.574 12.436 0.684 2.743 2.717 4.307 5.44 4.311 1.845 3e-3 3.64-0.231 5.174-1.366 1.903-1.41 2.334-2.85 1.606-5.099-3.251-10.053-6.497-20.107-9.745-30.162-0.096-0.297-0.182-0.6-0.264-0.902-0.776-2.846-2.281-4.088-5.236-4.187-0.99-0.034-1.988 0.144-2.984 0.224h-0.01c-0.084 0.033-0.168 0.064-0.252 0.097-1.848 0.787-2.746 2.259-3.27 4.152-1.453 5.262-3.011 10.497-4.572 15.893-0.463-1.426-0.904-2.713-1.299-4.012-1.232-4.046-2.4-8.112-3.687-12.14-0.596-1.857-1.589-3.504-3.719-3.94-0.809-0.165-1.661-0.116-2.492-0.166-0.389 0.075-0.785 0.117-1.161 0.231-1.579 0.478-2.548 1.492-2.999 3.126-0.537 1.944-1.25 3.837-1.87 5.759-0.918 2.851-1.822 5.707-2.73 8.562-0.676 2.124-1.346 4.25-2.02 6.375-0.871 2.756-1.736 5.513-2.625 8.262-0.287 0.893-0.66 1.759-0.953 2.65-0.977 2.953 0.528 5.721 3.584 6.321 1.2 0.234 2.508 0.193 3.722-4e-3 1.8-0.293 2.976-1.503 3.667-3.179" fill="#fffdfd" fill-rule="evenodd"/>
   </g>
   <g transform="translate(294.68,715.97)">
    <path d="m0 0c2e-3 2.12-0.639 4.023-2.117 5.676-2.135 2.381-4.738 3.794-8.041 3.193-5.031-0.915-8.327-5.93-7.211-10.845 0.979-4.311 5.447-7.585 9.617-6.931 4.352 0.681 7.822 4.586 7.752 8.907m-8.574 19.437c2.967-0.039 5.878-0.445 8.597-1.675 5.598-2.532 9.682-6.546 11.432-12.534 2.402-8.216-0.916-16.543-8.33-21.356-3.176-2.061-6.676-3.107-10.453-3.216-1.335-0.037-2.672-9e-3 -4.008-0.011-2.912 0.296-5.728 0.952-8.289 2.412-5.154 2.935-8.85 7.086-9.998 13.032-1.508 7.804 1.059 14.176 7.277 19.083 3.083 2.432 6.635 3.707 10.513 4.14 0.226 0.029 0.453 0.06 0.681 0.088 0.858 0.013 1.718 0.025 2.578 0.037" fill="#fffdfd" fill-rule="evenodd"/>
   </g>
   <g transform="translate(352.35,714.19)">
    <path d="m0 0c-0.684-2.101-1.375-4.197-2.045-6.302-0.934-2.934-1.857-5.872-2.767-8.812-0.651-2.091-2.018-3.309-4.209-3.574-0.184-0.022-0.366-0.074-0.548-0.112-0.166-8e-3 -0.333-0.015-0.497-0.023-0.375 0-0.752 1e-3 -1.127 2e-3 -0.729 0.169-1.493 0.251-2.176 0.528-1.561 0.632-2.426 1.875-2.881 3.478-1.521 5.346-3.08 10.683-4.625 16.024-0.021 0.076-0.066 0.146-0.158 0.348-0.629-2.016-1.221-3.918-1.815-5.821-0.537-1.715-1.088-3.427-1.609-5.148-0.447-1.476-0.818-2.977-1.311-4.44-0.308-0.919-0.707-1.823-1.187-2.666-0.717-1.255-1.849-1.97-3.314-2.06-0.725-0.046-1.461-0.06-2.186 2e-3 -1.883 0.16-3.129 1.18-3.717 2.965-0.918 2.792-1.807 5.594-2.711 8.392-0.038 0.117-0.096 0.227-0.144 0.341-0.801 2.54-1.592 5.085-2.403 7.622-1.364 4.269-2.734 8.535-4.116 12.796-0.327 1.011-0.735 1.994-1.069 3.002-0.852 2.556 0.261 4.411 2.422 5.646 0.427 0.246 0.927 0.362 1.398 0.538 0.209 0.034 0.422 0.067 0.633 0.102 0.121 6e-3 0.242 0.012 0.363 0.019 0.73-0.043 1.47-0.015 2.184-0.14 2.127-0.374 3.521-1.594 4.127-3.703 1.521-5.314 3.06-10.621 4.592-15.93 0.05-0.175 0.113-0.345 0.202-0.609 1.121 3.489 2.217 6.881 3.303 10.275 0.746 2.326 1.468 4.66 2.221 6.984 0.238 0.731 0.727 1.278 1.43 1.616 1.96 0.853 3.941 0.914 5.917 0.092 1.022-0.426 1.6-1.264 1.932-2.309 1.382-4.337 2.783-8.668 4.178-13.001 0.095-0.294 0.215-0.582 0.322-0.872 0.09-0.313 0.18-0.626 0.268-0.938 0.043 0 0.084 1e-3 0.125 2e-3 0.477 1.622 0.959 3.243 1.428 4.868 0.974 3.379 1.929 6.764 2.911 10.14 0.585 2.008 2.001 3.102 4.002 3.51 0.245 0.051 0.491 0.086 0.739 0.129 1.177-0.128 2.364-0.196 3.53-0.399 1.326-0.232 2.37-1.015 3.236-2.014 1.115-1.285 0.917-2.745 0.445-4.201-1.753-5.411-3.523-10.816-5.287-16.224-0.013-0.038-5e-3 -0.082-6e-3 -0.123" fill="#fffdfd" fill-rule="evenodd"/>
   </g>
   <g transform="translate(367.48,709.94)">
    <path d="m0 0c-1.833-1.042-3.655-1.088-5.403 0.153-1.285 0.914-1.971 2.201-1.974 3.794-9e-3 5.95-0.013 11.902 2e-3 17.853 7e-3 2.557 2.132 4.643 4.687 4.651 0.312 0 0.625-1e-3 0.937-2e-3 0.519-0.214 1.076-0.363 1.547-0.654 1.535-0.947 2.34-2.337 2.336-4.162-0.012-5.261-0.026-10.521-0.037-15.781 0-0.334-8e-3 -0.67 0.025-1.002 0.196-2.015-0.474-3.644-2.12-4.85" fill="#fffbfc" fill-rule="evenodd"/>
   </g>
   <g transform="translate(368.22,696.8)">
    <path d="m0 0c-1.006-0.74-2.079-1.284-3.376-1.284-2.69 1e-3 -4.865 1.805-5.317 4.441-0.429 2.506 1.064 5.013 3.552 5.845 1.444 0.482 2.87 0.375 4.21-0.411 0.142-0.083 0.292-0.152 0.439-0.227 1.816-1.427 2.588-3.261 2.14-5.554-0.218-1.123-0.855-2.017-1.648-2.81" fill="#fffbfc" fill-rule="evenodd"/>
   </g>
  </g>
 </g>
</svg>
