<svg id="a" width="481.96pt" height="135.35pt" version="1.1" viewBox="0 0 481.96 135.35" xmlns="http://www.w3.org/2000/svg">
 <g id="b" transform="translate(-25.365 -27.495)" fill="#fff">
  <path id="c" transform="scale(.75)" d="m264.59 37.113v86.043c-0.14038 12.764 3.4652 26.268 12.786 35.418 11.8 11.693 29.053 16.213 45.293 15.84h1.0996c16.24 0.37334 33.493-4.1465 45.293-15.84 9.321-9.1498 12.926-22.654 12.786-35.418v-86.043h-29.319l0.0137 86.859c0.0726 6.4627-1.0466 13.45-4.8125 18.762-4.6556 5.8536-12.232 9.2801-19.713 8.9726h-9.5957c-7.4807 0.30743-15.057-3.1191-19.713-8.9726-3.7659-5.3115-4.8851-12.299-4.8125-18.762l0.0137-86.859z" stroke-width="1.3333"/>
  <path id="d" d="m299.39 27.58h31.54l37.515 77.8v-77.8h20.155l0.03 101.03h-29.77l-39.055-82.36v82.36h-20.415z"/>
  <path id="e" transform="scale(.75)" d="m531.67 36.66v22.379h39.547v112.54h30.379v-112.54h39.547v-22.379z" stroke-width="1.3333"/>
  <path id="f" d="m484.46 110.77h18.775v18.78h-18.775z"/>
 </g>
 <path id="g" d="m19.535 9.4149c12.51-10.74 32.3-10.75 45.62-1.45 12.22 8.98 15.52 27.71 7.37 40.43-5.94 10.08-16.83 15.39-26 22.01-5.43 4.02-11.79 7.75-15.03 13.95h45.83v16.905h-71.67c-0.55-9.13 2.67-18.275 8.4-25.335 6.08-7.71 14.72-12.68 22.47-18.5 6.25-4.64 13.78-8.2 17.91-15.12 4.31-7 3.17-17.91-4.52-22.09-5.78-3.84-14.18-2.34-18.32 3.2-4.03 4.79-4.7 11.15-5.04 17.15h-19.12c0-11.359 3.2-23.52 12.1-31.15z" fill="#b6b8b7"/>
 <path id="h" d="m125.8 3.4999h17.46v58.595h12.76v16.89h-12.76v22.275h-19.01v-22.275h-40.965v-19.127zm-26.37 58.595h24.82v-33.78z" fill="#b6b8b7"/>
 <g id="i" transform="translate(-21.3 -104.62)">
  <path id="j" d="m382.77 221.45h60.245v18.525h-60.245z" fill="#029fe8"/>
  <path id="k" d="m322.52 221.45h60.245v18.525h-60.245z" fill="#e5220f"/>
  <path id="l" d="m262.28 221.45h60.245v18.525h-60.245z" fill="#e60d86"/>
  <path id="m" d="m202.04 221.45h60.245v18.525h-60.245z" fill="#32a429"/>
  <path id="n" d="m141.79 221.45h60.245v18.525h-60.245z" fill="#a6d099"/>
  <path id="o" d="m81.545 221.45h60.245v18.525h-60.245z" fill="#fdea02"/>
  <path id="p" d="m21.3 221.45h60.245v18.525h-60.245z" fill="#b6b8b7"/>
  <path id="q" d="m443.02 221.45h60.245v18.525h-60.245z" fill="#fff"/>
 </g>
</svg>
