<svg id="a" enable-background="new 0 0 595.276 841.89" version="1.1" viewBox="0 0 834 150" xml:space="preserve" xmlns="http://www.w3.org/2000/svg">
<path id="b" d="m300.21 149.36c-42.899 0-70.763-28.522-70.763-73.893 0-45.581 30.488-73.893 66.638-73.893 13.679 0 24.728 4.3696 36.522 13.737l3.3747-11.241h15.174v56.828h-16.117c-2.2517-26.439-14.051-40.798-33.531-40.798-20.603 0-34.468 19.358-34.468 55.368s13.301 55.577 35.219 55.577c18.357 0 30.529-14.366 31.652-39.763h17.798c-0.92512 37.261-19.468 58.079-51.498 58.079" clip-path="url(#SVGID_12_)" fill="#004e89" stroke-width="5.8184"/><path id="c" d="m457.91 96.306c0 31.437-19.678 52.674-50.777 52.674-30.541 0-50.585-21.022-50.585-52.674 0-31.64 19.858-52.872 50.777-52.872 30.535 0 50.585 21.237 50.585 52.872m-71.758-1.0415c0 25.397 6.7435 37.686 21.173 37.686 14.238 0 20.795-12.283 20.795-36.848 0-24.356-6.5573-36.435-20.795-36.435-13.865 0-21.173 12.079-21.173 35.597" clip-path="url(#SVGID_12_)" fill="#004e89" stroke-width="5.8184"/><path id="d" d="m715.51 111.71c-1.8735 23.111-17.985 37.47-42.905 37.47-28.481 0-46.838-19.771-46.838-52.883 0-31.221 18.927-53.081 46.838-53.081 27.917 0 44.772 19.567 44.772 54.128v2.2924h-61.634c0 21.441 6.3653 31.437 21.353 31.437 10.869 0 17.99-6.6678 20.05-19.364zm-26.602-27.893v-1.4604c0-14.779-5.9988-22.692-16.489-22.692-10.677 0-16.297 8.1224-16.297 23.32v0.83785h32.787z" clip-path="url(#SVGID_12_)" fill="#004e89" stroke-width="5.8184"/><path id="e" d="m779.28 130.03h3.3747c8.8032 0 9.5538-3.3281 9.5538-12.486v-36.848c0-12.702-2.6241-19.364-12.736-19.364-11.241 0-19.672 10.624-19.672 27.067v29.144c0 9.1581 0.75057 12.486 9.5596 12.486h3.3688v15.407h-55.269v-15.407h5.4344c8.6228 0 9.932-3.1245 9.932-12.486v-42.468c0-9.3676-1.3091-12.492-9.932-12.492h-5.4344v-15.395h41.782v15.553c10.118-14.162 18.921-18.677 31.85-18.677 21.173 0 28.103 12.067 28.103 36.225v37.261c0 9.3618 0.93676 12.486 10.671 12.486h4.131v15.407h-54.704v-15.413z" clip-path="url(#SVGID_12_)" fill="#004e89" stroke-width="5.8184"/><path id="f" d="m519.67 44.266c-7.4592 0-16.565 3.4852-21.813 13.685v-10.764h-41.025v15.395h4.6838c8.617 0 9.9262 3.1245 9.9262 12.492v42.468c0 9.3618-1.3091 12.486-9.9262 12.486h-4.6838v15.407h60.837v-15.407h-9.6934c-8.8148 0-9.5596-3.3281-9.5596-12.486v-24.978c0-24.152 6.2606-35.812 17.874-35.812 1.9782 0 3.7878 0.58766 5.5915 1.7397-5.9696 1.5186-10.386 6.9297-10.386 13.371 0 5.2656 2.9499 9.8389 7.2846 12.166 1.8968 1.0706 4.102 1.6641 6.505 1.6641 9.3676 0 16.117-7.4941 16.117-19.154 0-13.115-8.0584-22.273-21.732-22.273" clip-path="url(#SVGID_12_)" fill="#004e89" stroke-width="5.8184"/><path id="g" d="m604.62 44.266c-7.465 0-16.571 3.4852-21.813 13.685v-10.764h-38.884v15.395h2.5426c8.6112 0 9.9262 3.1245 9.9262 12.492v42.468c0 9.3618-1.315 12.486-9.9262 12.486h-4.6896v15.407h60.837v-15.407h-9.6876c-8.809 0-9.5596-3.3281-9.5596-12.486v-24.978c0-24.152 6.2606-35.812 17.874-35.812 1.9899 0 3.7878 0.58766 5.5915 1.7397-5.9638 1.5186-10.386 6.9297-10.386 13.371 0 5.2656 2.9499 9.8389 7.2846 12.166 1.891 1.0706 4.1078 1.6641 6.5108 1.6641 9.3559 0 16.111-7.4941 16.111-19.154 0-13.115-8.0584-22.273-21.732-22.273" clip-path="url(#SVGID_12_)" fill="#004e89" stroke-width="5.8184"/><path id="h" d="m71.38 150c-19.899 0-35.475-16.286-47.152-16.286-4.9689 0-8.2214 4.195-9.7341 12.323h-14.494v-4.8816c0-22.558 6.7028-36.97 22.279-50.928 11.677-10.467 23.361-15.116 31.152-20.929 8.6461-6.5108 12.754-13.726 12.754-24.652 0-14.883-9.9494-25.118-24.222-25.118-12.539 0-20.329 6.0453-22.924 16.978 2.595-0.69239 4.5442-1.1579 5.4111-1.1579 8.0003 0 13.196 6.278 13.196 15.582 0 10.467-7.3602 18.834-16.867 18.834-11.677 0-19.468-9.5363-19.468-24.879 0-22.325 19.253-44.883 50.393-44.883 28.76 0 48.234 19.759 48.234 46.972 0 28.143-15.366 37.447-42.608 46.047-18.171 5.8184-30.064 10.235-36.551 25.578 7.1391-4.6489 13.406-7.209 20.329-7.209 11.247 0 23.14 6.9762 34.171 6.9762 9.2978 0 13.411-6.9762 13.411-22.325h13.842v8.3726c-6e-3 30.465-10.171 45.587-31.152 45.587" clip-path="url(#SVGID_12_)" fill="#d1002d" stroke-width="5.8184"/><path id="i" d="m147.72 146.04v-17.903h10.386c8.6403 0 10.374-3.0256 10.374-13.947v-9.769h-58.178v-19.532l62.937-81.166h24.437v80.235h20.539v20.469h-20.539v9.769c0 9.769 0 13.947 9.7341 13.947h11.893v17.903h-71.583zm-16.867-62.088h37.633l0.43056-47.21z" clip-path="url(#SVGID_12_)" fill="#d1002d" stroke-width="5.8184"/>
</svg>
