<?xml version="1.0" encoding="UTF-8"?>
<!-- Generator: Adobe Illustrator 14.0.0, SVG Export Plug-In . SVG Version: 6.00 Build 43363)  -->
<svg id="Layer_1" width="424" height="376.93" enable-background="new 0 0 595.276 841.89" xmlns:cc="http://creativecommons.org/ns#" xmlns:dc="http://purl.org/dc/elements/1.1/" xmlns:rdf="http://www.w3.org/1999/02/22-rdf-syntax-ns#" space="preserve" version="1.1" viewBox="0 0 424 376.93" xmlns="http://www.w3.org/2000/svg">
 <metadata id="metadata25">
  <rdf:RDF>
   <cc:Work rdf:about="">
    <dc:format>image/svg+xml</dc:format>
    <dc:type rdf:resource="http://purl.org/dc/dcmitype/StillImage"/>
    <dc:title/>
   </cc:Work>
  </rdf:RDF>
 </metadata>
 <link id="dark-mode" href="" rel="stylesheet" type="text/css"/>
 <style id="dark-mode-custom-style" type="text/css"/>
 <g id="g842" transform="translate(-7.959e-6 -.067504)" fill="#fff">
  <polygon id="polygon65" transform="matrix(5.6465 0 0 5.6465 -2697.1 -4052.6)" points="485.51 781.93 485.54 781.93 485.54 776.68 486.92 776.68 486.92 784.38 485.5 784.38 482.35 778.9 482.33 778.9 482.33 784.38 480.94 784.38 480.94 776.68 482.48 776.68"/>
  <path id="path67" d="m77.221 377c-11.88 0-18.261-8.1253-18.261-22.36 0-14.224 6.3862-22.36 18.261-22.36 11.875 0 18.255 8.1366 18.255 22.36 0.0056 14.229-6.3806 22.36-18.255 22.36m0-37.73c-6.8097 0-9.9492 5.1835-9.9492 15.37-0.11858 10.192 3.0717 15.375 9.9492 15.375 6.8097 0 9.9435-5.1835 9.9435-15.375 0-10.186-3.1338-15.37-9.9435-15.37"/>
  <path id="path69" d="m102.05 376.4v-43.518h17.352c9.887 0 13.862 5.7256 13.93 12.891 0.0565 5.3642-2.6539 9.712-7.9559 11.214l9.5821 19.413h-9.2208l-8.1987-17.724h-7.1767v17.724zm8.3117-24.472h6.1547c6.4991 0 8.498-2.0497 8.498-6.1547 0-4.0994-2.4732-6.1434-7.0581-6.1434h-7.5946z"/>
  <path id="path71" d="m142.25 376.4v-43.518h17.363c9.887 0 13.862 5.7256 13.924 12.891 0.0565 5.3642-2.6539 9.712-7.9616 11.214l9.5878 19.413h-9.2208l-8.1931-17.724h-7.1767v17.724zm8.323-24.472h6.1547c6.5048 0 8.4924-2.0497 8.4924-6.1547 0-4.0994-2.4732-6.1434-7.0468-6.1434h-7.6002z"/>
  <path id="path73" d="m182.46 332.88h16.149c8.673 0 14.28 2.891 14.766 10.666 0 4.5172-1.8746 8.0124-6.6346 9.887 5.6691 2.2868 7.6002 4.8842 7.6002 11.513 0 6.7476-4.7656 11.451-15.855 11.451h-16.03v-43.518zm8.3173 17.363h8.323c3.9751 0 5.9684-2.2868 5.9684-5.3021 0-3.0209-1.9932-5.3021-5.9684-5.3021h-8.323zm0 19.401h8.323c4.8221 0 6.9283-2.1683 6.9283-6.3297 0-4.1502-2.1062-6.3241-6.9283-6.3241h-8.323z"/>
  <path id="path75" d="m238.03 377c-11.88 0-18.272-8.1253-18.272-22.36 0-14.224 6.3975-22.36 18.272-22.36 11.875 0 18.261 8.1366 18.261 22.36 0 14.229-6.3918 22.36-18.261 22.36m0-37.73c-6.8153 0-9.9492 5.1835-9.9492 15.37-0.12422 10.192 3.0717 15.375 9.9492 15.375 6.804 0 9.9379-5.1835 9.9379-15.375 0-10.186-3.1338-15.37-9.9379-15.37"/>
  <polygon id="polygon77" transform="matrix(5.6465 0 0 5.6465 -2697.1 -4052.6)" points="527.09 784.38 525.62 784.38 525.62 777.9 523.6 777.9 523.6 776.66 529.1 776.66 529.1 777.9 527.09 777.9"/>
  <polygon id="polygon79" transform="matrix(5.6465 0 0 5.6465 -2697.1 -4052.6)" points="533.02 784.38 531.55 784.38 531.55 777.9 529.53 777.9 529.53 776.66 535.04 776.66 535.04 777.9 533.02 777.9"/>
  <polygon id="polygon81" transform="matrix(5.6465 0 0 5.6465 -2697.1 -4052.6)" points="541.25 777.91 537.62 777.91 537.62 779.75 540.26 779.75 540.26 780.99 537.62 780.99 537.62 783.14 541.37 783.14 541.37 784.38 536.15 784.38 536.15 776.68 541.25 776.68"/>
  <polygon id="polygon91" transform="matrix(5.6465 0 0 5.6465 -2697.1 -4052.6)" points="547.23 776.68 548.62 776.68 548.62 784.38 547.2 784.38 544.05 778.9 544.03 778.9 544.03 784.38 542.64 784.38 542.64 776.68 544.18 776.68 547.21 781.93 547.23 781.93"/>
 </g>
 <g id="g852" transform="translate(-7.959e-6 -.067504)">
  <path id="path93" d="m207.74 90.688c-4.7036 25.415-19.068 50.514-63.489 84.302l-58.515 44.816h97.171l6.7758-36.437 142.88-174.51c-45.308-12.964-102.71-12.061-161.06 5.8611-0.27104 0.0847-0.53642 0.17504-0.80746 0.26539 29.887 12.484 42.891 44.19 37.041 75.703" fill="#00aaad"/>
  <path id="path95" d="m127.12 137.51c28.645-22.738 34.387-37.459 36.476-48.82 4.8278-26.093-12.501-37.131-29.243-37.131-17.408 0-30.158 11.039-36.86 20.062-5.8893 8.3738-8.0463 18.063-9.8419 27.775h-44.161c0.29362-3.3484 0.64935-5.3529 1.1462-8.035 0.16375-0.85827 0.35573-1.7222 0.54207-2.5861-36.567 37.713-53.467 81.97-41.231 121.83 3.3427 10.903 8.7126 20.824 15.737 29.757l3.8057-20.565z" fill="#00aaad"/>
  <path id="path97" d="m183.8 219.82-7.8035 42.129h-133.42c47.25 33.642 127.65 42.162 209.97 16.906 9.7628-2.9926 19.209-6.4031 28.357-10.113l8.769-48.921z" fill="#00aaad"/>
  <path id="path99" d="m420.04 82.93c-7.5099-24.579-25.166-44.331-49.644-58.391l-28.408 153.13h26.109l-7.8035 42.151h-26.109l-4.3196 24.094c68.825-42.981 107.01-106.15 90.175-160.98" fill="#00aaad"/>
  <polygon id="polygon101" transform="matrix(5.6465 0 0 5.6465 -2697.1 -4052.6)" points="533.29 732.72 519.92 749.19 530.35 749.19 533.41 732.72" fill="#00aaad"/>
  <path id="path103" d="m183.8 219.82h-0.90909l6e-3 -0.0169h-97.171l58.515-44.816c44.421-33.783 58.786-58.887 63.489-84.302 5.8498-31.513-7.1541-63.213-37.047-75.708-51.762 16.014-95.336 42.676-125.52 73.8-0.18069 0.86392-0.37267 1.7278-0.54206 2.5861-0.49689 2.6821-0.85262 4.6866-1.1462 8.035h44.161c1.7956-9.712 3.9526-19.401 9.8419-27.775 6.7081-9.0231 19.452-20.062 36.86-20.062 16.742 0 34.071 11.039 29.243 37.131-2.0892 11.361-7.8317 26.076-36.476 48.82l-103.64 82.287-3.8057 20.565c6.3297 8.0463 14.02 15.263 22.902 21.581h133.42l7.8091-42.123z" fill="#fff"/>
  <path id="path105" d="m360.3 219.82 7.8035-42.151h-26.109l28.408-153.13c-11.265-6.4709-23.986-11.728-37.837-15.686l-142.88 174.51-6.7758 36.437h0.90344v0.0169h105.87l-8.769 48.921c17.595-7.1372 34.015-15.5 48.967-24.828l4.3196-24.094h26.109zm-62.8-42.151h-58.916l75.483-92.97h0.67193z" fill="#fff"/>
  <rect id="rect107" x="183.35" y="219.35" width=".01694" height=".90344" fill="#fff"/>
 </g>
</svg>
