<svg id="a" width="210.75pt" height="180.09pt" version="1.1" viewBox="0 0 210.75 180.09" xmlns="http://www.w3.org/2000/svg">
 <g id="b" transform="matrix(1.3302 0 0 1.3302 -23.957 -39.623)" fill="#fff">
  <path id="c" d="m18.01 45.99c11.19-10.55 26.56-16.78 42-16.16 8.74 0.02 17.87 1.88 25.09 7.05 7.58 5.39 11.82 14.93 11.03 24.14-0.91 8.87-6.52 16.3-12.58 22.45-8.01 7.99-15.84 16.145-23.93 24.055h39.59v21.23h-73.56l-2.5e-4 -17.935c13.766-14.066 29.405-28.971 41.8-41.32 3.04-3 5.99-7.14 4.92-11.65-1.8337-5.3028-7.111-8.5556-12.599-9.2436-4.4515-0.33463-8.2634 0.41284-12.012 1.4665-6.564 1.87-12.409 6.0001-17.489 10.487z"/>
  <path id="d" d="m147.7 32.515h28.44l-44.14 53.52h23.15l12.04-14.41h9.2552v57.13h-21.67v-21.23h-55.565v-19.395z"/>
 </g>
 <g id="e" transform="translate(-1.64e-7 35.091)" fill="#fff">
  <g id="f" transform="matrix(.40457 0 0 .40457 10.163 105.55)">
   <g id="g" fill="#fff">
    <polygon id="h" points="493.2 47.2 493.2 31.7 472.7 31.7 472.7 17 495.4 17 495.4 1.4 453.1 1.4 453.1 79.3 495.8 79.3 495.8 63.6 472.7 63.6 472.7 47.2"/>
    <polygon id="i" points="493.2 47.2 493.2 31.7 472.7 31.7 472.7 17 495.4 17 495.4 1.4 453.1 1.4 453.1 79.3 495.8 79.3 495.8 63.6 472.7 63.6 472.7 47.2"/>
   </g>
  </g>
  <g id="j" transform="matrix(.40457 0 0 .40457 10.163 105.55)">
   <g id="k" fill="#fff">
    <polygon id="l" points="412.2 1.4 392.9 1.4 392.9 79.3 412.2 79.3 412.2 47.3 427.6 79.3 450.6 79.3 429.5 37.3 447.6 1.4 426.1 1.4 412.2 31.6"/>
    <polygon id="m" points="412.2 1.4 392.9 1.4 392.9 79.3 412.2 79.3 412.2 47.3 427.6 79.3 450.6 79.3 429.5 37.3 447.6 1.4 426.1 1.4 412.2 31.6"/>
   </g>
  </g>
  <g id="n" transform="matrix(.40457 0 0 .40457 10.163 105.55)">
   <g id="o" fill="#fff">
    <path id="p" d="m388.7 56.2c0-24.3-30.6-23.6-30.6-34.6 0-3.6 2.2-6.1 7.3-6.1 4.3 0 9.2 1.7 14.7 4.4l6.4-13.3c-7.1-4.4-14.5-6.6-22.4-6.6-15 0-25.4 8.3-25.4 22.9 0 24.3 30.1 23 30.1 34.8 0 4.4-2.7 6.9-7.7 6.9-4.7 0-10.4-2-16.5-5.3l-6.4 14.2c8.4 5.1 15.8 7.2 24.3 7.2 14.3 0 26.2-7.9 26.2-24.5"/>
    <path id="q" d="m388.7 56.2c0-24.3-30.6-23.6-30.6-34.6 0-3.6 2.2-6.1 7.3-6.1 4.3 0 9.2 1.7 14.7 4.4l6.4-13.3c-7.1-4.4-14.5-6.6-22.4-6.6-15 0-25.4 8.3-25.4 22.9 0 24.3 30.1 23 30.1 34.8 0 4.4-2.7 6.9-7.7 6.9-4.7 0-10.4-2-16.5-5.3l-6.4 14.2c8.4 5.1 15.8 7.2 24.3 7.2 14.3 0 26.2-7.9 26.2-24.5"/>
   </g>
  </g>
  <g id="r" transform="matrix(.40457 0 0 .40457 10.163 105.55)">
   <g id="s" fill="#fff">
    <polygon id="t" points="302.3 1.4 280.8 1.4 302.3 51.1 302.3 79.3 320.7 79.3 320.7 51.1 341.6 1.4 321.3 1.4 315.4 18.6 311.9 29 308.2 18.4"/>
    <polygon id="u" points="302.3 1.4 280.8 1.4 302.3 51.1 302.3 79.3 320.7 79.3 320.7 51.1 341.6 1.4 321.3 1.4 315.4 18.6 311.9 29 308.2 18.4"/>
   </g>
  </g>
  <g id="v" transform="matrix(.40457 0 0 .40457 10.163 105.55)">
   <g id="w" fill="#fff">
    <path id="x" d="m278.8 71.8v-70.4h-19.7v69.6c0 6.8-1.6 10.6-7.5 10.6-2.2 0-4.6-0.3-6.8-0.7l-0.2 15.4c3.1 0.8 6.5 1.2 11.1 1.2 13.5 0 23.1-9.1 23.1-25.7"/>
    <path id="y" d="m278.8 71.8v-70.4h-19.7v69.6c0 6.8-1.6 10.6-7.5 10.6-2.2 0-4.6-0.3-6.8-0.7l-0.2 15.4c3.1 0.8 6.5 1.2 11.1 1.2 13.5 0 23.1-9.1 23.1-25.7"/>
   </g>
  </g>
 </g>
 <g id="z" transform="translate(-1.64e-7 35.091)">
  <g id="aa" transform="matrix(.40457 0 0 .40457 10.163 105.55)">
   <g id="ab" fill="#c21100">
    <path id="ac" d="m232.9 40c0 16.5-4.2 24.3-15.4 24.3-0.5 0-3.4-0.1-5-0.2v-47.6c1.6-0.1 4.3-0.1 4.9-0.1 12.1 0 15.5 7.6 15.5 23.6m20.3-0.2c0-29.7-10.9-38.6-36-38.6-8 0-16.2 0.1-24 0.2v77.9c6.2 0.1 12.8 0.2 22.7 0.2 25.8 0 37.3-13.3 37.3-39.7m-85.3-15.2c0 4.5-1.9 8.7-10.2 8.7h-5.1v-16.9c1.7-0.1 3.5-0.2 5.1-0.2 8.6 0 10.2 3.5 10.2 8.4m22.5 54.7-13.8-35.8c7.3-3.2 11.2-10.6 11.2-19.9 0-14.1-8.8-22.3-28.6-22.3-8.3 0-19 0-25.9 0.2v77.8h19.2v-31.3h5.1l10.5 31.3zm-81.5-39.1c0 17.5-3.5 24.5-12.8 24.5-9.9 0-12.7-7.9-12.7-24.4 0-17.6 3.4-24.5 12.8-24.5 9.9 0 12.7 7.8 12.7 24.4m20.5-0.1c0-25.3-6.4-40.1-32.6-40.1h-0.9c-20.2 0-33 11.2-33 40.7 0 25.3 6.2 40 32.6 40h0.8c20.2 0 33.1-11.1 33.1-40.6m-70.6 39.2v-77.9h-17.5v41.2l-19.6-41.2h-21.7v77.9h17.6v-43.6l20.3 43.6zm174.1-39.3c0 16.5-4.2 24.3-15.4 24.3-0.5 0-3.4-0.1-5-0.2v-47.6c1.6-0.1 4.3-0.1 4.9-0.1 12.1 0 15.5 7.6 15.5 23.6zm20.3-0.2c0-29.7-10.9-38.6-36-38.6-8 0-16.2 0.1-24 0.2v77.9c6.2 0.1 12.8 0.2 22.7 0.2 25.8 0 37.3-13.3 37.3-39.7zm-85.3-15.2c0 4.5-1.9 8.7-10.2 8.7h-5.1v-16.9c1.7-0.1 3.5-0.2 5.1-0.2 8.6 0 10.2 3.5 10.2 8.4zm22.5 54.7-13.8-35.8c7.3-3.2 11.2-10.6 11.2-19.9 0-14.1-8.8-22.3-28.6-22.3-8.3 0-19 0-25.9 0.2v77.8h19.2v-31.3h5.1l10.5 31.3zm-81.5-39.1c0 17.5-3.5 24.5-12.8 24.5-9.9 0-12.7-7.9-12.7-24.4 0-17.6 3.4-24.5 12.8-24.5 9.9 0 12.7 7.8 12.7 24.4zm20.5-0.1c0-25.3-6.4-40.1-32.6-40.1h-0.9c-20.2 0-33 11.2-33 40.7 0 25.3 6.2 40 32.6 40h0.8c20.2 0 33.1-11.1 33.1-40.6zm-70.6 39.2v-77.9h-17.5v41.2l-19.6-41.2h-21.7v77.9h17.6v-43.6l20.3 43.6z"/>
    <path id="ad" d="m232.9 40c0 16.5-4.2 24.3-15.4 24.3-0.5 0-3.4-0.1-5-0.2v-47.6c1.6-0.1 4.3-0.1 4.9-0.1 12.1 0 15.5 7.6 15.5 23.6m20.3-0.2c0-29.7-10.9-38.6-36-38.6-8 0-16.2 0.1-24 0.2v77.9c6.2 0.1 12.8 0.2 22.7 0.2 25.8 0 37.3-13.3 37.3-39.7m-85.3-15.2c0 4.5-1.9 8.7-10.2 8.7h-5.1v-16.9c1.7-0.1 3.5-0.2 5.1-0.2 8.6 0 10.2 3.5 10.2 8.4m22.5 54.7-13.8-35.8c7.3-3.2 11.2-10.6 11.2-19.9 0-14.1-8.8-22.3-28.6-22.3-8.3 0-19 0-25.9 0.2v77.8h19.2v-31.3h5.1l10.5 31.3zm-81.5-39.1c0 17.5-3.5 24.5-12.8 24.5-9.9 0-12.7-7.9-12.7-24.4 0-17.6 3.4-24.5 12.8-24.5 9.9 0 12.7 7.8 12.7 24.4m20.5-0.1c0-25.3-6.4-40.1-32.6-40.1h-0.9c-20.2 0-33 11.2-33 40.7 0 25.3 6.2 40 32.6 40h0.8c20.2 0 33.1-11.1 33.1-40.6m-70.6 39.2v-77.9h-17.5v41.2l-19.6-41.2h-21.7v77.9h17.6v-43.6l20.3 43.6zm174.1-39.3c0 16.5-4.2 24.3-15.4 24.3-0.5 0-3.4-0.1-5-0.2v-47.6c1.6-0.1 4.3-0.1 4.9-0.1 12.1 0 15.5 7.6 15.5 23.6zm20.3-0.2c0-29.7-10.9-38.6-36-38.6-8 0-16.2 0.1-24 0.2v77.9c6.2 0.1 12.8 0.2 22.7 0.2 25.8 0 37.3-13.3 37.3-39.7zm-85.3-15.2c0 4.5-1.9 8.7-10.2 8.7h-5.1v-16.9c1.7-0.1 3.5-0.2 5.1-0.2 8.6 0 10.2 3.5 10.2 8.4zm22.5 54.7-13.8-35.8c7.3-3.2 11.2-10.6 11.2-19.9 0-14.1-8.8-22.3-28.6-22.3-8.3 0-19 0-25.9 0.2v77.8h19.2v-31.3h5.1l10.5 31.3zm-81.5-39.1c0 17.5-3.5 24.5-12.8 24.5-9.9 0-12.7-7.9-12.7-24.4 0-17.6 3.4-24.5 12.8-24.5 9.9 0 12.7 7.8 12.7 24.4zm20.5-0.1c0-25.3-6.4-40.1-32.6-40.1h-0.9c-20.2 0-33 11.2-33 40.7 0 25.3 6.2 40 32.6 40h0.8c20.2 0 33.1-11.1 33.1-40.6zm-70.6 39.2v-77.9h-17.5v41.2l-19.6-41.2h-21.7v77.9h17.6v-43.6l20.3 43.6z"/>
   </g>
  </g>
 </g>
</svg>
