<?xml version="1.0" encoding="UTF-8"?>
<svg width="594" height="361" enable-background="new 0 0 595.276 841.89" viewBox="0 0 594 361" xmlns="http://www.w3.org/2000/svg">
 <path d="m371.76 226.45c8.314-11.77 17.237-22.087 28.431-33.014-9.0152-2.5293-18.498-10.71-18.631-18.464-0.60936-30.852-0.68449-62.322 0.0334-96.922 0-0.4925 0.025-2.0368 0-2.5293 3.3306-3.8481 6.8949-7.5293 10.209-7.5293 8.6562 0 19.658 4.9083 24.374 11.511 1.1352 28.248 1.0601 68.699 1.0601 102.86 0 23.247 12.371 38.448 36.303 44.116h0.74292c9.0569-12.546 18.398-22.563 30.134-34.425l-3.8899-3.8648c-1.5025 1.9366-3.0051 4.0819-7.137 4.0819-7.2288 0-12.822-6.561-13.139-15.309-1.0852-31.019-1.0852-64.842-0.0751-100.14 0.39233-12.955 0.55928-19.316 8.1888-20.376l0.39232-2.6712c-18.498-6.1604-36.102-13.256-55.218-22.738-11.119 13.456-23.54 24.758-33.932 34.642-3.7563-18.448-16.177-29.041-29.216-34.642l-1.4691 0.03339c-10.593 9.875-19.191 17.388-31.186 27.48l3.1052 3.6228c1.4858-1.5192 4.0652-1.7947 5.3507-1.7947 5.1921 0 11.903 3.965 12.938 17.997 2.0368 27.622 0.8097 70.577 0 94.359-0.24207 7.0869 0.26712 12.588-1.8448 16.828-1.7363 3.4809-4.0234 5.7263-7.5293 6.3524l-0.1586 2.571c14.817 8.9067 29.975 18.648 41.42 28.039l0.74292-0.0668z" fill="#00609c"/>
 <path d="m511.94 182.12c0 8.9568-3.9483 13.072-8.8816 14.107v2.6795c19.867 8.7314 38.715 17.212 60.084 27.655h0.93491c9.0569-16.06 20.493-34.041 29.917-47.129l-4.8248-3.0218c-3.2972 5.6178-7.0619 7.8132-15.526 7.8132-12.58 0-18.882-8.4392-18.882-21.219l-0.16694-97.856h38.139v-13.047h-38.139v-52.104h-15.317c-5.8849 26.077-23.423 49.008-45.694 55.385v9.7748h18.423c8e-3 -0.01669-0.0668 111.45-0.0668 116.96" fill="#00609c"/>
 <path d="m-1.587e-5 191.82h132.07v34.75h-132.07v-34.75zm1.1185-87.856c0-3.0635 0-8.9067 1.1102-16.962 0.55927-6.6612 2.788-13.347 5.5594-19.466 14.458-30.86 40.593-34.475 55.326-35.869v36.161c-5.0001 0.53423-11.386 1.3773-17.513 9.1738-4.4492 5.8348-6.3941 15.009-6.3941 23.348 0 1.6611 0 3.0551 0.26712 5.2756l-38.356-1.6611zm10.009 80.644c47.822-39.208 50.877-41.979 61.161-53.674 8.0552-9.4492 17.521-23.356 17.521-38.089 0-19.449-13.347-23.081-19.466-24.742v-36.428c23.907 0.83474 58.115 13.907 58.115 58.949 0 38.932-26.954 63.398-64.216 93.992h-53.114z" fill="#00609c"/>
 <path d="m140.51 145.39 71.737-100.09v54.492l-37.814 53.089h37.814v32.546h-71.737v-40.034zm78.966 81.178v-191.56h37.814v117.87h25.86v32.546h-25.86v41.136h-37.814z" fill="#00609c"/>
 <g fill="#aaadb1">
  <path d="m-1.587e-5 256.48h72.939v17.187h-72.939v-17.187zm24.483 21.361h23.765v81.228h-23.765v-81.228z"/>
  <path d="m89.542 316.08h6.9617v10.434h-6.9617v9.7998c0.05843 5.4258 2.3707 8.4809 6.9617 9.1487v15.326c-19.116-0.56762-28.69-9.1738-28.723-25.827v-23.69c0.09182-15.66 9.6579-23.732 28.723-24.199v15.468c-4.3907 0.51754-6.728 3.2388-6.9617 8.1638v5.3757zm10.518 10.434v-10.434h7.3707v-5.3924c0.0918-4.783-2.3706-7.4793-7.3707-8.0886v-15.468c19.324 0.4758 28.99 8.6479 28.94 24.541l-0.0751 14.825h-28.865zm28.865 8.723c0.10017 16.269-9.5411 24.783-28.865 25.543v-15.401c4.95-0.75127 7.4208-3.7814 7.3707-9.0736v-1.995h21.495v0.92655z"/>
  <path d="m142.26 256.48h21.353v102.6h-21.353z"/>
  <path d="m197.47 316.08h6.9617v10.434h-6.9617v9.7998c0.0417 5.4258 2.3623 8.4809 6.9617 9.1487v15.326c-19.116-0.56762-28.69-9.1738-28.74-25.827v-23.69c0.0918-15.66 9.6663-23.732 28.74-24.199v15.468c-4.4074 0.51754-6.728 3.2388-6.9617 8.1638v5.3757zm10.501 10.434v-10.434h7.3874v-5.3924c0.0835-4.783-2.3707-7.4793-7.3874-8.0886v-15.468c19.349 0.4758 28.999 8.6479 28.949 24.541l-0.0668 14.825h-28.882zm28.882 8.723c0.0918 16.269-9.5327 24.783-28.882 25.543v-15.401c4.975-0.75127 7.4375-3.7814 7.3874-9.0736v-1.995h21.495v0.92655z"/>
  <path d="m240.58 289.05h19.858l23.823 70.026h-18.932l-24.75-70.026zm45.752 63.423-10.276-29.65 9.7831-33.774h21.219l-20.727 63.423z"/>
  <path d="m317 262.79h21.369v16.536h-21.369v-16.536zm0 26.194h21.144v70.093h-21.144v-70.093z"/>
  <path d="m370.16 333.68c0.0918 7.0452 3.7313 10.96 10.935 11.703v15.534c-21.019-0.55092-31.603-9.6496-31.804-27.246h20.868zm44.901 6.1019c0 13.756-10.259 20.827-30.785 21.219v-15.476h0.0668c6.5777 0.10017 9.8416-1.5944 9.7915-5.1002-0.0417-3.5059-4.6745-6.6445-13.907-9.4409-9.2155-2.7463-16.152-5.7847-20.785-9.1571-4.6412-3.3556-7.0285-7.8382-7.1621-13.481 0-13.756 9.7664-20.86 29.308-21.277v15.534c-5.5343 0.22538-8.2973 1.9366-8.2973 5.1003 0.14191 3.1219 3.3724 5.5844 9.7164 7.3874 6.4358 1.753 13.364 4.6161 20.785 8.5728 7.5126 3.94 11.269 9.3073 11.269 16.119m-21.069-27.964c-0.15025-5.6178-3.2304-8.6729-9.2239-9.1404v-15.534c19.341 0.4758 29.191 8.723 29.516 24.767l-20.292-0.0918z"/>
  <path d="m426.52 262.79h21.361v16.536h-21.361v-16.536zm0 26.194h21.152v70.093h-21.152v-70.093z"/>
  <path d="m481.65 336.31c0.0501 5.718 2.6211 8.7982 7.738 9.2155v15.259c-19.633-0.3339-29.466-8.94-29.516-25.827v-23.69c0.0501-15.902 9.8917-23.965 29.516-24.199v15.393c-4.9166 0.28381-7.496 3.0301-7.738 8.2305v25.618zm39.383-1.0685c0.0501 16.269-9.6078 24.783-28.949 25.543v-15.401c5.0168-0.75127 7.496-3.7814 7.4542-9.0736v-25.618c0.0501-4.733-2.4374-7.4208-7.4542-8.0886v-15.534c19.441 0.4758 29.107 8.6813 29.016 24.616l-0.0668 23.556z"/>
  <path d="m533.19 288.99h21.361v70.093h-21.361v-70.093zm60.802 70.093h-21.979v-47.472c0.30885-6.4358-2.596-9.6913-8.7481-9.7831-1.7947 0-3.4976 0.65109-5.1002 1.97v-12.488c4.0568-2.6795 9.107-4.0067 15.117-3.9734 13.423-0.0918 20.292 8.0051 20.568 24.266h0.15026v47.48z"/>
 </g>
</svg>
