<svg id="c" width="600pt" height="200.48pt" version="1.1" viewBox="0 0 600 200.48" xmlns="http://www.w3.org/2000/svg">
 <defs id="d">
  <linearGradient id="a" x1="499.53" x2="828" y1="190.88" y2="451.14" gradientTransform="matrix(.75 0 0 .75 -45.059 -44.329)" gradientUnits="userSpaceOnUse">
   <stop id="e" stop-color="#d81e2a" offset="0"/>
   <stop id="f" stop-color="#d81e2a" offset=".065073"/>
   <stop id="g" stop-color="#dd1f2b" offset=".21107"/>
   <stop id="h" stop-color="#e3202c" offset=".34967"/>
   <stop id="i" stop-color="#e8212d" offset=".54477"/>
   <stop id="j" stop-color="#ea242e" offset=".81974"/>
   <stop id="k" stop-color="#ea242e" offset="1"/>
  </linearGradient>
  <linearGradient id="b" x1="499.53" x2="499.53" y1="693.86" y2="190.88" gradientTransform="matrix(.75 0 0 .75 -45.059 -44.329)" gradientUnits="userSpaceOnUse">
   <stop id="l" stop-color="#dedfe1" offset="0"/>
   <stop id="m" stop-color="#fff" offset=".15448"/>
   <stop id="n" stop-color="#fff" offset=".80434"/>
   <stop id="o" stop-color="#dedfe1" offset="1"/>
  </linearGradient>
 </defs>
 <g id="p" transform="scale(.348)">
  <g id="q" transform="translate(-45.059 -44.329)">
   <path id="r" d="m305.4 44.61c70.51-1.22 141.4 1.33 211.29 11.72 24.7 5.03 51.76 7.69 72.12 23.86 13.57 18.83 16.45 42.96 20.67 65.22 9.64 64.05 11.97 128.92 11.52 193.59 0.43 53.91-2.11 107.85-8.4 161.41-3.92 27.22-6.91 55.4-18.59 80.6-3 8.57-10.79 14.04-19 17.03-31.44 11.66-65.32 14.01-98.41 17.4-98.14 7.14-196.97 6.7-295.01-1.9-32.14-3.5-65.02-6.22-95.49-17.63-10.36-2.82-14.33-13.17-17.77-22.21-16.58-62.44-18.42-127.59-22.16-191.7-2.2-74.01-1.74-148.26 7.03-221.89 3.67-24.43 6.83-49.69 17.8-72.13 4.41-9.86 14.33-15.34 24.02-18.94 30.83-11.54 63.93-14.59 96.38-18.45 37.91-3.58 75.96-5.57 114-5.98" fill="#ea242e"/>
  </g>
  <path id="s" d="m247.29 98.831-134.42 378.73 123.17 97.592c65.183 2.0908 130.49 0.69091 195.5-4.0386 33.09-3.39 66.97-5.7394 98.41-17.399 8.21-2.99 16-8.4603 19-17.03 11.68-25.2 14.67-53.38 18.59-80.6 6.29-53.56 8.8294-107.5 8.3994-161.41 2e-3 -0.21432 2e-3 -0.42874 3e-3 -0.64306l-246.35-195.2z" fill="url(#a)"/>
  <path id="t" d="m247.29 98.831-134.42 378.73h88.799l19.431-57.341h88.456l-30.841-91.5h-27.252l36.976-108.59 86.77 257.43h88.8l-134.42-378.73z" fill="url(#b)"/>
 </g>
 <g id="u" transform="matrix(1.9479 0 0 1.9479 -30.661 -25.375)">
  <path id="v" d="m202.44 40.43c3.63-4.28 9.7-3.73 14.74-3.63v8.5c-2.4 0.27-5.77-0.86-7.23 1.74-0.42 1.99-0.22 4.07-0.23 6.09h7.465v7.485h-7.465v30.79h-9.96v-30.79h-4.115v-7.485h4.115c0.04-4.31-0.61-9.3 2.68-12.7z"/>
  <path id="w" d="m173.38 80.04v-42.575h10.09v40.585c0.1 1.49-0.29 3.35 1.11 4.38 1.91 0.89 4.085 0.6 6.135 0.7v8.26c-3.93-0.16-8.185 0.73-11.795-1.27-3.66-1.87-5.63-6.08-5.54-10.08z"/>
  <path id="x" d="m265.16 41.33h10.11v11.81h6.96v7.47h-6.96c0.09 6.76-0.18 13.55 0.08 20.3 0.88 2.88 4.6 2 6.88 2.22v8.26c-3.62-0.13-7.45 0.58-10.87-0.93-3.7-1.59-6.15-5.52-6.15-9.52-0.11-6.76 0-13.57-0.05-20.33h-4.26v-7.47h4.26z"/>
  <path id="y" d="m132.01 57.08c5.95-5.99 15.29-6.26 22.98-4.19 5.01 1.22 8.905 5.93 8.875 11.12v27.365h-10.005l0.11-2.935c-5.48 4.34-14.09 4.66-19.63 0.3-5.32-4.64-5.26-14.68 1.08-18.41 3.54-2.31 7.935-2.14 11.985-2.08v6.44c-2.25 0.48-5.185 0.12-6.545 2.41-1.51 2.58 0.18 6.23 3.24 6.44 3.36 0.47 8.35 0.06 9.41-3.88 0.47-4.54 0.12-9.12 0.21-13.66 0.16-2.27-1.12-4.65-3.39-5.29-4.07-1.15-8.73-0.44-11.8 2.64z"/>
  <path id="z" d="m222.29 57.101c5.95-5.99 15.29-6.26 22.98-4.19 5.01 1.22 8.905 5.93 8.875 11.12v27.365h-10.005l0.11-2.935c-5.48 4.34-14.09 4.66-19.63 0.3-5.32-4.64-5.26-14.68 1.08-18.41 3.54-2.31 7.935-2.14 11.985-2.08v6.44c-2.25 0.48-5.185 0.12-6.545 2.41-1.51 2.58 0.18 6.23 3.24 6.44 3.36 0.47 8.35 0.06 9.41-3.88 0.47-4.54 0.12-9.12 0.21-13.66 0.16-2.27-1.12-4.65-3.39-5.29-4.07-1.15-8.73-0.44-11.8 2.64z"/>
  <path id="aa" d="m286.67 53.165h10.7l7.855 23.265 7.855-23.265h10.69l-14.56 38.225h-7.97z"/>
 </g>
</svg>
