<svg width="4249pt" height="1421pt" version="1.1" viewBox="0 0 4249 1421" xmlns="http://www.w3.org/2000/svg">
 <path d="m0 0h4249v1421h-4249v-1421" fill="#fe0000"/>
 <path d="m2845.6 44.065h1334v1333.9h-1334v-1333.9" fill="#fff"/>
 <path d="m3010.9 441.98h447.12v128.96l-149.56 0.01v405.02h-148.08v-405.02l-149.48-0.01z" fill="#fe0000"/>
 <path d="m3512.2 441.98h166.46l92.88 368.96 93.39-368.96h164.58l-183.8 533.99h-149.64z" fill="#fe0000"/>
 <g transform="translate(-2)" fill="#fff">
  <path d="m1339.8 105.37h163.86l0.01 118.96h58.37l-0.01 101.92h-58.32v85.715c0.33 14.03 0.75 28.14 3.31 41.97 1.23 5.93 2.77 12.38 7.55 16.53 6.39 5.67 15.22 7.35 23.49 7.85 9.47 0.36 18.94 0.09 28.42 0.18v100.02c-27.57 4.49-55.49 7.17-83.44 6.97-22.11-0.21-44.31-1.71-65.95-6.43-17.21-3.94-34.72-9.28-48.83-20.3-10.38-7.95-18.18-19.19-21.84-31.75-5.89-19.75-6.53-40.58-6.57-61.04v-139.72h-58.12l-0.03-101.92h58.15z"/>
  <path d="m1821.6 203.78c44.76-2.55 90.15-0.79 133.93 9.48 37.32 8.82 73.73 24.93 102.09 51.22 22.61 20.65 38.89 47.97 46.62 77.58 5.91 22.09 7.6 45.16 6.49 67.96-1.5 31.41-9.92 62.96-27.33 89.4-19.49 29.94-49.17 52.18-81.68 66.33-39.54 17.22-82.85 23.77-125.68 25.41-43.57 1.42-87.68-1.21-129.92-12.6-36.66-9.91-72.07-27.38-98.95-54.63-21.26-21.28-35.92-48.79-42.51-78.08-5.46-23.86-6.4-48.64-4-72.95 3.04-30.53 13.37-60.68 31.89-85.33 20.79-28 50.54-48.37 82.63-61.39 33.79-13.74 70.15-20.05 106.42-22.4m15.91 112.94c-16.72 2.41-32.97 9.73-44.8 21.96-11.81 11.81-18.67 27.91-20.64 44.37-2.04 17.06-0.79 34.91 6.01 50.86 7.51 17.65 22.42 31.9 40.29 38.85 16.36 6.4 34.42 7.48 51.75 5.4 16.98-2.07 33.61-9.08 45.84-21.24 12.53-12.03 19.88-28.74 21.87-45.87 2.04-17.74 0.57-36.36-7.02-52.71-7.85-16.97-22.71-30.38-40.18-36.89-16.87-6.31-35.4-7.19-53.12-4.73z"/>
  <path d="m334.91 212.49c37.75-5.69 75.99-7.19 114.12-7.21 44.87 0.31 90.18 2.53 133.87 13.48 18.82 4.89 37.51 11.51 53.7 22.48 14.62 10.23 27.29 23.44 36.2 38.95 6.23 10.77 10.43 22.62 13.05 34.76 5.09 23.33 5.945 47.32 5.975 71.12v138.95c0.24 10.62 0.695 21.58 4.665 31.58 2.35 5.84 6.44 10.87 11.5 14.6 0.01 2.64 0.01 5.29 0.01 7.93h-169.19c-6.47-15.62-9.63-32.46-10.49-49.3-5.97 5.2-11.41 11.04-17.73 15.87-16.3 13.13-34.97 23.23-54.73 30.1-38.76 13.19-80.23 15.53-120.87 14.98-25.4-0.6-50.91-2.97-75.55-9.37-18.53-4.89-36.71-12.14-52.19-23.61-13.14-9.67-23.93-22.62-30.55-37.57-8.76-19.53-10.74-41.49-8.91-62.63 2.11-20.95 9.24-42.31 24.17-57.66 13.34-14.08 30.71-23.94 49.12-29.75 13.7-4.17 27.87-6.51 42.01-8.56 52.35-7.19 105.22-8.71 157.94-11.02 16.93-1.08 33.91-2.53 50.5-6.19 7.33-1.74 14.77-3.72 21.28-7.64 3.6-2.21 7.15-5.45 7.76-9.86 0.57-5.77-1.75-11.6-5.65-15.81-5.36-5.85-12.68-9.42-20.04-12.08-20.5-7-42.53-6.84-63.92-6.01-12.85 0.71-25.84 1.8-38.18 5.69-8.34 2.61-16.3 7.39-21.26 14.74-3.19 4.63-5.02 10.08-5.97 15.59h-167.94c1.2-15.55 4.66-31.04 11.44-45.15 5.95-12.51 14.53-23.75 24.98-32.85 11.79-10.33 25.74-17.95 40.33-23.52 19.49-7.45 39.99-11.8 60.55-15.03m126.65 212.28c-26.87 2.82-54.16 2.44-80.63 8.43-8.2 2.01-16.94 4.49-22.83 10.93-6.92 7.46-7.57 18.94-4.32 28.19 3.55 9.85 12.82 16.27 22.31 19.73 14.97 5.41 31.19 5.52 46.91 4.87 23.52-1.17 47.46-5.87 68.02-17.83 14.04-8.15 26.62-19.94 32.8-35.23 4.26-10.73 5.96-22.74 3.99-34.15-20.75 9.6-43.77 12.5-66.25 15.06z"/>
  <path d="m774.88 215.13h162.56v150.88c0.13 18.67-0.915 37.66 3.625 55.95 2.31 9.31 6.39 18.77 14.16 24.81 9.54 7.5 21.96 9.9 33.8 10.59 15.93 0.74 32.33-0.8 47.11-7.16 14.72-6.26 27.35-18.22 32.63-33.51 3.92-10.44 3.97-21.73 3.8-32.71v-168.84h162.56v364h-162.56v-37.56c-14.96 10.27-30.74 19.43-47.52 26.4-24.07 10.2-49.92 15.91-75.96 17.76-28.45 1.78-57.54 0.47-84.94-7.95-15.82-4.94-30.94-12.59-43.49-23.5-12.19-10.51-21.58-24-28.23-38.6-8.89-19.44-13.33-40.62-15.64-61.78-2.39-21.21-1.835-42.59-1.905-63.9z"/>
  <path d="m1612.6 591.19h116.42l0.01 84.52h41.47l-0.01 72.414h-41.434v60.897c0.2344 9.9677 0.5328 19.992 2.3515 29.818 0.8739 4.213 1.968 8.7955 5.364 11.744 4.5399 4.0283 10.813 5.2219 16.689 5.5771 6.7281 0.25576 13.456 0.0639 20.191 0.12788v71.06c-19.587 3.19-39.424 5.094-59.281 4.9519-15.708-0.1492-31.481-1.2149-46.855-4.5682-12.227-2.7992-24.667-6.5931-34.692-14.422-7.3746-5.6482-12.916-13.634-15.516-22.557-4.1846-14.032-4.6393-28.83-4.6677-43.366v-99.262h-41.292l-0.021-72.414h41.313z" stroke-width=".71046"/>
  <path d="m1344.9 661.15c31.794-1.8113 64.035-0.56115 95.133 6.7338 26.509 6.265 52.372 17.708 72.517 36.383 16.06 14.668 27.624 34.074 33.115 55.107 4.198 15.691 5.3984 32.078 4.61 48.273-1.0655 22.311-7.0464 44.722-19.413 63.503-13.844 21.267-34.926 37.065-58.019 47.116-28.086 12.232-58.85 16.884-89.273 18.049-30.949 1.0086-62.281-0.85948-92.285-8.95-26.04-7.0393-51.193-19.449-70.286-38.805-15.101-15.116-25.515-34.657-30.196-55.462-3.8783-16.948-4.546-34.55-2.8413-51.818 2.1594-21.686 9.497-43.102 22.652-60.612 14.768-19.889 35.9-34.358 58.694-43.607 24.002-9.7598 49.829-14.242 75.592-15.911m11.301 80.224c-11.876 1.7119-23.419 6.9114-31.822 15.599-8.3889 8.3889-13.262 19.825-14.661 31.517-1.4491 12.118-0.5612 24.797 4.269 36.127 5.3345 12.537 15.925 22.659 28.619 27.596 11.621 4.546 24.449 5.3132 36.759 3.8357 12.061-1.4704 23.874-6.4497 32.561-15.087 8.9003-8.5452 14.121-20.415 15.535-32.582 1.449-12.601 0.4048-25.827-4.9865-37.441-5.576-12.054-16.131-21.58-28.541-26.204-11.983-4.4821-25.145-5.1072-37.732-3.3598z" stroke-width=".71032"/>
  <path d="m1961.3 661.15c31.794-1.8113 64.035-0.56115 95.133 6.7338 26.509 6.265 52.372 17.708 72.517 36.383 16.06 14.668 27.624 34.074 33.115 55.107 4.198 15.691 5.3984 32.078 4.61 48.273-1.0655 22.311-7.0464 44.722-19.413 63.503-13.844 21.267-34.926 37.065-58.019 47.116-28.086 12.232-58.85 16.884-89.273 18.049-30.949 1.0086-62.281-0.85948-92.285-8.95-26.04-7.0393-51.193-19.449-70.286-38.805-15.101-15.116-25.515-34.657-30.196-55.462-3.8783-16.948-4.546-34.55-2.8413-51.818 2.1594-21.686 9.497-43.102 22.652-60.612 14.768-19.889 35.9-34.358 58.694-43.607 24.002-9.7598 49.829-14.242 75.592-15.911m11.301 80.224c-11.876 1.7119-23.419 6.9114-31.822 15.599-8.3889 8.3889-13.262 19.825-14.661 31.517-1.4491 12.118-0.5612 24.797 4.269 36.127 5.3345 12.537 15.925 22.659 28.619 27.596 11.621 4.546 24.449 5.3132 36.759 3.8357 12.061-1.4704 23.874-6.4497 32.561-15.087 8.9003-8.5452 14.121-20.415 15.535-32.582 1.449-12.601 0.4048-25.827-4.9865-37.441-5.576-12.054-16.131-21.58-28.541-26.204-11.983-4.4821-25.145-5.1072-37.732-3.3598z" stroke-width=".71032"/>
  <path d="m2367.7 668.73c17.39-5.92 36.11-7.03 54.31-5.39 16.48 1.58 33.28 6.54 46 17.55 12.29 10.47 19.34 25.76 22.99 41.22 5.16 20.89 4.22 42.535 4.28 63.875h-103.96c-0.02-9.56-0.63-19.565-5.16-28.185-3.15-6.17-9.26-10.64-16.09-11.75-7.7-1.36-16.43-0.68-22.68 4.44-5.28 4.29-7.65 11.02-9.02 17.46-2.84 13.5-2.19 27.37-2.29 41.08v118.78h-119.54v-258.64h116.58l1.36 19.76c9.37-9.13 20.83-16.03 33.22-20.21z"/>
  <path d="m766.56 673.53c18.41-6.46 37.98-9.28 57.46-9.3 16.16-0.01 32.59 1.96 47.61 8.21 18.2 7.43 32.82 21.72 43.22 38.15 13.23-12.12 27.92-22.78 44.11-30.6 17.78-8.69 37.3-13.56 56.99-15.1 20.39-1.5 41.29-0.7 60.96 5.34 15.58 4.75 30.2 13.62 40.24 26.62 11.65 15 17.39 33.67 20.26 52.22 3.64 23.14 2.155 46.62 2.465 69.93v108.82h-116.13v-122.84c-0.22-10.91-0.905-22.21-5.475-32.29-2.64-5.97-7.61-10.77-13.6-13.34-9.3-4.02-19.73-4.19-29.67-3.39-12.51 1.07-25.29 5.67-33.81 15.23-7.38 8-10.54 19.09-10.49 29.81v126.82h-114.08v-124.17c-0.36-11.58-1.175-23.82-7.135-34.06-5.44-9.18-16.45-12.95-26.57-13.72-15.71-1.22-32.94 1.15-45.25 11.79-9.43 7.87-14.07 20.27-14.08 32.36v127.8h-116.58v-258.64h116.56l0.01 26.765c13.27-9.29 27.66-17.09 42.99-22.42z"/>
  <path d="m2543.9 966h95.817l0.01 69.565h34.132l-0.01 59.601h-34.103v50.122c0.1929 8.2041 0.4385 16.455 1.9354 24.542 0.7193 3.4676 1.6198 7.2392 4.4149 9.666 3.7366 3.3155 8.8999 4.2979 13.736 4.5902 5.5376 0.2106 11.075 0.053 16.619 0.1053v58.487c-16.122 2.6255-32.448 4.1926-48.792 4.0757-12.929-0.1228-25.91-1-38.564-3.76-10.064-2.3039-20.302-5.4265-28.553-11.87-6.0697-4.6488-10.631-11.221-12.771-18.566-3.4442-11.549-3.8184-23.729-3.8418-35.693v-81.698h-33.986l-0.017-59.601h34.003z" stroke-width=".58475"/>
  <path d="m1358.9 1029.2c26.97-5.46 54.62-6.41 82.07-6.18 24.15 0.43 48.49 2.14 71.93 8.3 16.23 4.34 32.45 11.23 44.26 23.55 10.25 10.53 15.68 25.02 16.44 39.57h-109.31c-0.55-5.97-3.51-11.92-8.87-14.91-7.97-4.56-17.46-5.07-26.42-5.43-9.49-0.05-19.39-0.11-28.29 3.61-4.86 1.94-8.61 7.01-7.7 12.39 0.78 4.26 4.85 6.76 8.52 8.37 8.2 3.38 17.11 4.44 25.86 5.33 27.88 2.54 55.81 4.77 83.59 8.26 9.34 1.36 18.85 2.19 27.9 4.99 14.4 5.35 29.72 12.61 37.53 26.6 6.02 11.05 7.01 24.09 6.17 36.43-1 14.06-6.42 28.02-16.38 38.16-11.8 12.21-28.09 18.74-44.24 22.96-23.48 5.98-47.78 7.92-71.92 8.77-27.39 0.74-54.95 0.4-82.07-3.91-17.96-2.99-36.15-7.56-51.66-17.46-10.51-6.64-19.21-16.29-24.07-27.79-3.53-8.12-5.13-17.04-5.56-25.83h115.99c0.65 6.09 3.44 12.21 8.9 15.41 7.91 4.71 17.46 5.13 26.42 5.45 9.32 0 19.1-0.11 27.73-4.07 4.46-1.97 8.09-6.7 7.08-11.76-1.07-4.47-5.58-6.8-9.44-8.49-9.65-3.81-20.06-5.09-30.3-6.23-22.77-2.21-45.58-4.34-68.14-8.24-12.85-2.19-25.72-4.76-38.02-9.15-8.21-2.89-16-7.45-21.67-14.15-11.81-13.8-14.87-33.17-12.32-50.72 1.87-13.15 8.69-25.53 19.01-33.93 13.33-11.05 30.3-16.37 46.98-19.9z"/>
  <path d="m2066.8 1023.6c26.165-1.4906 52.698-0.4618 78.291 5.5417 21.816 5.1558 43.1 14.573 59.678 29.941 13.217 12.071 22.734 28.042 27.252 45.35 3.4548 12.913 4.4427 26.399 3.7938 39.727-0.8768 18.361-5.7988 36.804-15.976 52.26-11.393 17.502-28.743 30.502-47.747 38.774-23.114 10.066-48.431 13.895-73.468 14.854-25.469 0.8301-51.254-0.7073-75.946-7.3655-21.43-5.793-42.129-16.005-57.842-31.935-12.428-12.44-20.998-28.521-24.85-45.643-3.1917-13.948-3.7412-28.433-2.3382-42.644 1.7771-17.847 7.8156-35.471 18.642-49.881 12.153-16.368 29.544-28.275 48.302-35.886 19.752-8.0319 41.007-11.72 62.209-13.094m9.3004 66.02c-9.7739 1.4088-19.273 5.6878-26.188 12.837-6.9037 6.9036-10.914 16.315-12.065 25.937-1.1925 9.9727-0.4618 20.407 3.5132 29.731 4.3901 10.318 13.106 18.648 23.552 22.71 9.5634 3.7412 20.121 4.3725 30.251 3.1566 9.9259-1.21 19.647-5.3078 26.796-12.416 7.3246-7.0323 11.621-16.8 12.784-26.814 1.1925-10.37 0.3332-21.255-4.1036-30.812-4.5889-9.9201-13.276-17.759-23.488-21.565-9.8616-3.6886-20.694-4.203-31.052-2.765z" stroke-width=".58456"/>
  <path d="m1764.1 1027.9c17.73-3.47 36.04-3.96 53.97-1.79 19.08 2.39 37.88 8.9 53.43 20.37 15 10.91 26.94 26.04 33.84 43.27 6.94 17.15 9.06 35.92 8.24 54.31-0.74 15.92-4.1 31.88-11.19 46.22-8.21 16.79-21.46 30.96-37.37 40.71-16.49 10.16-35.66 15.31-54.86 16.83-20.47 1.59-41.41 0.11-61.01-6.3-11.54-3.73-22.48-9.19-32.6-15.84v86.185h-95.07v-281.68h90.6l0.75 20.54c14.98-11.52 32.75-19.2 51.27-22.82m-11.51 62.91c-15.83 2.85-29.88 14.84-34.03 30.55-4.28 16.09-2.2 35.11 9.54 47.68 7.17 7.94 17.37 12.77 27.92 14.14 9.89 1.26 20.19 0.68 29.6-2.81 9.71-3.59 18.05-10.81 22.89-19.98 3.8-7.16 5.33-15.34 5.37-23.4 0.04-8.62-1.59-17.42-5.86-24.99-5.46-9.8-15.03-17.08-25.79-20.11-9.61-2.71-19.86-2.94-29.64-1.08z"/>
  <path d="m2396 1029.8c14.314-4.8729 29.723-5.7866 44.704-4.4367 13.565 1.3006 27.394 5.3833 37.864 14.446 10.116 8.6182 15.919 21.204 18.924 33.929 4.2474 17.195 3.4736 35.012 3.523 52.577h-85.572c-0.016-7.8692-0.5185-16.105-4.2473-23.2-2.5929-5.0787-7.6222-8.7581-13.244-9.6718-6.3381-1.1195-13.524-0.5597-18.669 3.6547-4.3461 3.5312-6.2969 9.0709-7.4246 14.372-2.3377 11.112-1.8027 22.529-1.885 33.814v97.775h-98.397v-212.89h95.96l1.1194 16.265c7.7127-7.5151 17.146-13.195 27.344-16.635z" stroke-width=".82313"/>
  <path d="m1121.4 1063.6c9.63-2.81 20.85-1.21 28.54 5.51 5.97 4.79 8.95 12.37 9.69 19.83 1.08 10.63-0.5 22.07-6.87 30.92-3.79 5.48-10.05 8.9-16.57 9.87-7.77 1.24-16.3 0.57-22.91-4.04-7.07-4.88-11.02-13.24-12.01-21.6-1-8.57-0.35-17.59 3.33-25.49 3.22-7.01 9.3-12.85 16.8-15m2.99 9.02c-8.08 2.6-11.17 11.7-12.15 19.34-0.98 9.07 0.15 19.94 7.72 26.07 7.48 4.98 20.09 4.08 24.51-4.58 3.95-7.6 4.86-16.48 3.78-24.89-0.73-5.17-2.77-10.55-7.11-13.74-4.8-3.39-11.24-3.81-16.75-2.2z"/>
  <path d="m1179.3 1069.3c6.4-6.1 16.23-7.88 24.51-5.02 4.52 1.41 8.03 4.76 10.96 8.35l-0.03-7.94h9.945v53.31c0.1 8.8 0.115 18.29-4.705 26.02-3.8 6.2-10.83 9.73-17.89 10.57-8.42 1.06-17.73 0.2-24.65-5.13-4.23-3.21-6.16-8.465-6.67-13.575h10.94c0.79 2.95 1.91 6.165 4.71 7.815 4.6 2.8 10.37 2.68 15.51 1.75 4.75-0.87 9.05-4.2 10.62-8.84 1.84-5.51 1.74-11.42 1.75-17.15-3.51 5.02-9.01 8.71-15.23 9.06-9.71 1.51-20.24-2.65-25.62-11-4.19-7.04-4.79-15.56-4.5-23.56 0.35-9.07 3.31-18.56 10.35-24.66m12.01 4.21c-6.83 2.33-10.06 9.7-10.82 16.38-0.92 8.08-1.23 17.16 3.62 24.15 5.81 8.36 19.74 7.56 25.58-0.37 4.41-5.89 5.31-13.6 4.97-20.74-0.31-5.85-1.76-12.16-6.26-16.25-4.46-4.32-11.39-5.12-17.09-3.17z"/>
 </g>
</svg>
