<svg width="200mm" height="136.25mm" version="1.1" viewBox="0 0 200 136.25" xmlns="http://www.w3.org/2000/svg">
 <g fill="#2dc7fc" stroke-width="1.7856">
  <path d="m108.34 36.855s0.23213-5.357-7.7141-5.357h-7.7677v11.196h7.7141s7.7676 0.37499 7.7676-5.8391z"/>
  <path d="m104.66 19.263s0.23213-4.5534-5.875-4.8749h-5.9286v10.607h5.0034s6.8034-0.08929 6.8034-5.732z"/>
  <path d="m69.732 57.03h60.534v-57.031h-60.534zm15.893-48.999h14.373c12.946 1.1964 12.143 10.964 12.143 10.964a9.1069 9.1069 0 0 1-5.2338 8.2176c9.2676 2.3392 8.9285 10.232 8.9285 10.232 0 11.625-13.767 11.571-13.767 11.571h-16.446v-41.072z"/>
  <path d="m38.57 36.855s0.23214-5.357-7.7141-5.357h-7.6428v11.196h7.7141s7.6428 0.37499 7.6428-5.8391z"/>
  <path d="m34.895 19.263s0.23214-4.5534-5.875-4.8749h-5.8032v10.607h4.9981s6.6786-0.08929 6.6786-5.732z"/>
  <path d="m-1.19e-4 57.03h60.534v-57.031h-60.534zm15.91-48.999h14.374c12.964 1.1964 12.16 10.964 12.16 10.964a9.1069 9.1069 0 0 1-5.2284 8.2176c9.2676 2.3392 8.9285 10.232 8.9285 10.232 0 11.625-13.767 11.571-13.767 11.571h-16.537v-41.072z"/>
  <path d="m139.53-9.61e-4v57.031h60.464v-57.031zm48.55 45.765a32.678 32.678 0 0 1-26.785 1.7856 20.5 20.5 0 0 1 2.9821-38.928 29.017 29.017 0 0 1 12.071-0.91069 43.803 43.803 0 0 1 11.357 3.2142v7.5694a34.535 34.535 0 0 0-15.551-4.6231s-15.25-0.30356-15.928 14.607c0 0-0.55354 13.714 15.75 14.5 0 0 6.8393 0.82139 16.071-5.0892v7.8571z"/>
 </g>
 <g fill="#fff" stroke-width="1.7856">
  <path d="m-1.19e-4 71.638h32.822c12.767 0 19.303 6.5179 19.303 16.392a14.803 14.803 0 0 1-9.6962 14.5v0.17678a15 15 0 0 1 11.053 15.035c0 10.714-7.8748 18.482-19.75 18.482h-33.728zm28.376 25.644c5.1606 0 7.7853-2.9821 7.7853-6.9818 0-3.9999-2.9821-6.1606-7.9643-6.1606h-12.124v13.232h12.321zm0.55354 26.142c5.2499 0 8.1603-2.9821 8.1603-7.2496 0-4.2678-2.8928-6.8034-8.2498-6.8034h-12.767v14.053z"/>
  <path d="m60.464 71.638h29.374c14.678 0 23.106 8.4282 23.106 20.392a19.785 19.785 0 0 1-12.139 18.889l14.768 25.178h-17.678l-12.771-22.783h-8.4464v22.821h-16.21zm27.285 29.714c5.8927 0 9.4283-3.3571 9.4283-8.6071 0-5.5177-3.5714-8.5176-9.4283-8.5176h-11.071v17.125z"/>
  <path d="m123.32 71.638h16.216v64.589h-16.214z"/>
  <path d="m165.55 84.511h-18.305v-12.873h52.749v12.964h-18.231v51.641h-16.214z"/>
 </g>
</svg>
