<svg version="1.1" viewBox="0 0 142.66 23.91" xmlns="http://www.w3.org/2000/svg">
 <path d="m16.32 19.865c0.423 0 0.676-5e-3 1.52-5e-3 0.842 0 3.679-0.171 3.679-3.038 0-2.171-1.292-3.26-3.868-3.26h-13.322c-0.423 0-0.77 0.367-0.77 0.81v4.683c0 0.448 0.347 0.81 0.77 0.81h11.99zm0.29-9.693c0.42 0 1.107-0.055 1.525-0.122 0 0 1.051-0.175 1.713-0.77 0.663-0.595 0.994-1.32 0.994-2.174 0-0.915-0.3-1.644-0.888-2.19-0.593-0.542-1.404-0.812-2.431-0.812h-13.194c-0.423 0-0.77 0.364-0.77 0.81v4.45c0 0.443 0.347 0.808 0.77 0.808h12.28zm4.875 1.468c2.432 0.873 3.648 2.774 3.648 5.7 0 3.946-2.697 5.916-8.09 5.916h-16.277c-0.418 0-0.766-0.366-0.766-0.807v-20.926c0-0.444 0.348-0.809 0.766-0.809h15.77c1.767 0 4.417 0.314 5.89 1.682 1.22 1.144 1.858 2.614 1.858 4.485 0 2.051-0.932 3.637-2.8 4.758zm32.455 0.316c0-2.647-1.067-4.79-3.201-6.442-1.839-1.413-4.122-2.125-6.848-2.125-2.983 0-5.415 0.81-7.295 2.426-1.878 1.613-2.818 3.662-2.818 6.141 0 2.562 0.92 4.632 2.76 6.206 1.838 1.573 4.288 2.359 7.353 2.359 3.043 0 5.479-0.79 7.309-2.372 1.828-1.586 2.74-3.65 2.74-6.193m3.672 0c0 3.695-1.438 6.683-4.315 8.966-2.526 1.991-5.66 2.988-9.406 2.988-3.789 0-6.943-1.004-9.463-3.019-2.879-2.282-4.32-5.258-4.32-8.935 0-3.613 1.46-6.58 4.382-8.905 2.555-2.034 5.696-3.051 9.4-3.051 3.727 0 6.854 1.017 9.376 3.05 2.9 2.326 4.346 5.293 4.346 8.906m55.17 10.493c0 0.442-0.349 0.807-0.768 0.807h-20.866c-0.424 0-0.769-0.365-0.769-0.807v-20.924c0-0.445 0.345-0.81 0.769-0.81h20.036c0.422 0 0.772 0.365 0.772 0.81v1.77c0 0.445-0.35 0.81-0.772 0.81h-16.48c-0.416 0-0.766 0.363-0.766 0.809v4.15c0 0.444 0.35 0.808 0.766 0.808h13.789c0.417 0 0.762 0.366 0.762 0.814v1.768c0 0.448-0.345 0.812-0.762 0.812h-13.789c-0.416 0-0.766 0.365-0.766 0.807v4.983c0 0.447 0.35 0.809 0.766 0.809h17.31c0.419 0 0.768 0.365 0.768 0.812v1.772m21.384-11.149a6.76 6.76 0 0 0 1.513-0.208s3.363-0.947 3.363-3.264c0-2.483-1.477-3.723-4.428-3.723h-11.688c-0.427 0-0.773 0.363-0.773 0.809v5.578c0 0.444 0.346 0.808 0.773 0.808zm8.258 11.295c0.238 0.363 0.091 0.661-0.333 0.661h-2.577c-0.425 0-0.969-0.298-1.214-0.66l-4.908-7.244c-0.245-0.36-0.791-0.663-1.217-0.663h-9.249c-0.427 0-0.773 0.366-0.773 0.813v6.947c0 0.442-0.344 0.807-0.769 0.807h-2.02c-0.424 0-0.767-0.365-0.767-0.807v-20.924c0-0.445 0.343-0.81 0.768-0.81h15.32c0.423 0 1.109 0.053 1.525 0.122 0 0 3.244 0.516 4.527 1.793 1.278 1.278 1.918 3.007 1.918 5.187 0 1.907-0.52 3.444-1.56 4.603-0.958 1.08-2.283 1.767-3.967 2.058zm-57.313-0.244c0.135 0.14 0.226 0.287 0.228 0.47-9e-3 0.323-0.313 0.443-0.592 0.443h-2.97c-0.494-8e-3 -1.097-0.261-1.448-0.62l-7.627-7.909a0.55 0.55 0 0 0-0.807 4e-3l-7.59 7.904c-0.357 0.357-0.956 0.613-1.446 0.621h-3.023c-0.286 0-0.586-0.12-0.596-0.443 3e-3 -0.183 0.097-0.33 0.235-0.47l9.877-10.12a0.596 0.596 0 0 0 0-0.828l-9.415-9.777c-0.134-0.143-0.226-0.289-0.232-0.473 8e-3 -0.324 0.315-0.447 0.596-0.447h2.99c0.494 7e-3 1.096 0.268 1.445 0.626l7.175 7.508a0.56 0.56 0 0 0 0.403 0.171 0.57 0.57 0 0 0 0.398-0.171l7.133-7.508c0.35-0.358 0.95-0.62 1.446-0.626h3.021c0.28 0 0.584 0.123 0.593 0.447-3e-3 0.184-0.091 0.328-0.228 0.473l-9.404 9.775a0.597 0.597 0 0 0 2e-3 0.83l9.836 10.117" fill="#252626" fill-rule="evenodd"/>
</svg>
