<svg id="a" version="1.1" viewBox="0 0 421.28 91.8" xmlns="http://www.w3.org/2000/svg">
 <path id="b" class="cls-1" d="m346.36 28.71h-7.91v17.17h-0.15q-2.3-5.34-8.6-5.6h-0.8a10 10 0 0 0-7.47 3.54q-3.63 3.92-3.84 16.47-0.4 20.87 12.81 21.23 4-0.11 5.82-1.9a10.79 10.79 0 0 0 2.52-3.85h0.15v4.61h7.47v-51.67m74.91 0h-4.91l-11.56 46.6h-0.1l-11.5-46.56h-4.87l13.56 51.57h5.78l13.61-51.57m-37.77 0.14h-31.33v3.82h13.27v47.7h4.72v-47.7h13.33v-3.82m-108.16 1.5h-7.83v11.09h-5.38v5.9h5.38v24.16q0 5.81 1.94 7.65a8.24 8.24 0 0 0 5.74 1.8h0.3a27 27 0 0 0 6.26-0.62v-5.83a17.23 17.23 0 0 1-2.82 0.18h-0.41q-3.35 0-3.18-4.15v-23.19h6.41v-5.9h-6.41v-11.09m-57.45 9.89h-0.13q-6.77 0.25-10 5.6h-0.22v-4.4h-7.43v38.92h7.89v-26.29a8.08 8.08 0 0 1 1.9-5.64 5.6 5.6 0 0 1 4.28-2h0.32q5.31 0 5.1 7.07v26.86h7.91v-29.51q-0.07-5.86-2.67-8.24a9.92 9.92 0 0 0-7-2.38m81 0q-7.61 0.07-10.73 3.37t-3 9.63h7.58a11.21 11.21 0 0 1 1-5.24q1.13-2.23 4.83-2.38 5.67 0.29 5.27 5.89a4.51 4.51 0 0 1-1.21 3.52 7.12 7.12 0 0 1-3.26 1.53l-5.93 1.69a14.31 14.31 0 0 0-6.51 3.44q-2.49 2.49-2.64 8.75 0.43 11 9.92 11h0.25a9.84 9.84 0 0 0 9.48-5.82h0.18q0.93 5.35 6.34 5.35h0.44a9.58 9.58 0 0 0 3.81-1v-5.21a3.06 3.06 0 0 1-1.28 0.22q-1.9-0.29-2-2.71v-22.3q-0.18-5.16-3.66-7.47a16.34 16.34 0 0 0-8.79-2.23m-52.13 0q-6.08 0-9.66 2.63t-3.71 8.07q-0.07 4.65 2 7.25a12.87 12.87 0 0 0 6.44 4l6.22 2.34a5.61 5.61 0 0 1 4.21 5.78q0 5.53-6.22 5.68-6.26 0-5.93-7v-1.13h-7.05v1.43q-0.11 5.79 2.71 8.9t10.06 3.26h0.13a16.13 16.13 0 0 0 9.76-2.82q4-2.82 4.1-9.08 0.08-8.82-8.64-11.31l-4.9-1.72q-5.71-1.72-5.38-5.78 0.43-5.13 5.22-5.13h0.27q2.89 0 4 1.87a7.7 7.7 0 0 1 1 4.17v1.06h7.57v-1.77a10.61 10.61 0 0 0-2.38-7.14q-2.56-3.33-9.84-3.59m-87 0q-6.55 0.33-9 7.17h-0.15v-6h-7.91v38.96h7.91v-23.4q0.15-5.31 2.6-7.1a7.61 7.61 0 0 1 4.8-1.73h0.4a14.29 14.29 0 0 1 3.26 0.44v-8a6.72 6.72 0 0 0-1.87-0.33m33 1.21h-7.87v27.31a6.86 6.86 0 0 1-1.95 4.9 6.57 6.57 0 0 1-4.43 1.61h-0.5q-4.6 0-4.73-5.87v-28h-7.91v27.36q0.07 7.35 2.71 10.07a8.52 8.52 0 0 0 6.53 2.64h0.54q6.74-0.14 9.92-5.53h0.26v4.39h7.43v-38.89m104.13 34.12q-4.8-0.48-4.76-5.82-0.07-4.5 3.11-6.3a38 38 0 0 1 4.36-1.65 14.63 14.63 0 0 0 4.14-2v6.59q0 8.86-6.84 9.19m-183.96-1.43v-17.79h7.58q7.54 0.21 8 8.75-0.07 8.93-7.5 9h-8.08m219.42 1.13a5.29 5.29 0 0 1-5.23-3.92 32.93 32.93 0 0 1-1.19-10.57q0-7.8 1.39-11.13a4.57 4.57 0 0 1 4.47-3.15h0.14a5.57 5.57 0 0 1 5.64 3.91q1.36 3.81 1.28 10.91a30.08 30.08 0 0 1-1.28 10.18 5.28 5.28 0 0 1-5.16 3.81m-219.48-24.86v-15.45h6.2a9.57 9.57 0 0 1 5.29 1.36q2.31 1.54 2.41 6-0.07 7.72-7.54 8.13h-6.36m8.45-21.75h-16.83v51.66h16.38q7.35 0 11.6-3.84t4.4-10.26q0-6.41-2.53-9.45a10.45 10.45 0 0 0-6.88-3.7v-0.15q7.8-2.38 7.76-11.75-0.14-6.73-4.17-9.66a15.88 15.88 0 0 0-9.7-2.86" fill="#539dcc"/>
 <polygon id="c" class="cls-1" points="43.08 87.26 80.05 80.37 43.22 68.24 6.39 80.37" fill="#539dcc"/>
 <polygon id="d" class="cls-1" points="44.64 42.9 44.64 5.87 81.47 28.64" fill="#539dcc"/>
 <polygon id="e" class="cls-1" points="4.98 28.64 41.8 5.87 41.81 42.9" fill="#69a8d3"/>
 <path id="f" class="cls-1" d="m43.22 3 40.78 25.28v53.55l-41 7.63-40.6-7.63v-53.55zm43.22 26.14v-2.43l-2.06-1.27-38.88-24.03-2.28-1.41-2.28 1.41-38.87 24-2.07 1.3v57l3.54 0.67 38.73 7.27 0.8 0.15 0.8-0.15 39-7.27 3.55-0.66v-3.58" fill="#7ab2d5"/>
 <polygon id="g" class="cls-1" points="44.64 66.51 81.47 78.64 81.47 30.32 44.64 44.58" fill="#69a8d3"/>
 <polygon id="h" class="cls-1" points="41.8 66.51 41.8 44.58 4.97 30.32 4.97 78.64" fill="#7bb3d6"/>
</svg>
