<svg version="1.1" viewBox="0 0 234.54 104.46" xml:space="preserve" xmlns="http://www.w3.org/2000/svg">
<g transform="translate(-149.7 -269.19)">
	<path d="m222.73 283.87c0-7.376 6.054-13.393 13.467-13.393 7.412 0 13.467 6.018 13.467 13.393s-6.055 13.357-13.467 13.357c-7.413 0-13.467-5.982-13.467-13.357zm-16.036 2.972c-0.66 0.954-1.138 1.688-2.495 1.688h-0.697c-1.358 0-1.835-0.734-2.495-1.688l-4.44-6.568v14.458c0 1.321-0.771 2.128-2.202 2.128h-0.734c-1.468 0-2.202-0.807-2.202-2.128v-21.76c0-1.358 0.734-2.128 2.202-2.128h0.917c1.248 0 1.798 0.367 2.459 1.321l6.825 10.018 6.862-10.018c0.624-0.954 1.174-1.321 2.459-1.321h0.917c1.468 0 2.202 0.771 2.202 2.128v21.76c0 1.321-0.734 2.128-2.202 2.128h-0.734c-1.468 0-2.202-0.807-2.202-2.128v-14.458zm54.565 7.889c0 1.321-0.734 2.128-2.165 2.128h-0.771c-1.431 0-2.202-0.807-2.202-2.128v-21.76c0-1.358 0.771-2.128 2.202-2.128h8.256c4.587 0 8.293 3.78 8.293 8.256 0 2.679-1.578 5.1-3.816 6.532 1.284 1.101 2.091 2.422 2.605 4.11l1.211 4.183c0.184 0.587 0.257 1.027 0.257 1.284 0 0.954-0.881 1.651-2.018 1.651h-1.101c-1.138 0-1.798-0.551-2.092-1.578l-1.211-4.293c-0.514-1.798-2.091-3.669-4.697-3.669h-2.752v7.412zm23.154 2.129c-1.431 0-2.202-0.807-2.202-2.128v-21.76c0-1.431 0.844-2.128 2.202-2.128h12.036c1.358 0 2.202 0.697 2.202 2.128v0.587c0 1.431-0.844 2.128-2.202 2.128h-9.1v5.798h7.559c1.358 0 2.202 0.697 2.202 2.128v0.624c0 1.394-0.844 2.092-2.202 2.092h-7.559v5.688h9.247c1.394 0 2.202 0.734 2.202 2.128v0.624c0 1.394-0.807 2.092-2.202 2.092h-12.183zm-56.436-12.99c0 4.66 3.669 8.44 8.219 8.44 4.514 0 8.22-3.779 8.22-8.44 0-4.624-3.706-8.44-8.22-8.44-4.55 0-8.219 3.816-8.219 8.44zm33.282-8.183v6.788h5.064c1.871 0 3.302-1.468 3.302-3.376 0-1.871-1.468-3.412-3.302-3.412zm-103.26 8.183c0 3.523 2.899 6.495 6.568 6.495 1.725 0 2.972-0.66 4.44-1.725 0.771-0.551 1.505-1.174 2.825-1.174 1.101 0 1.982 0.404 2.605 0.881 0.954 0.734 1.468 1.761 1.468 3.046 0 1.358-0.587 2.275-1.211 2.972-1.945 2.202-5.944 4.183-10.421 4.183-8.256 0-14.568-6.825-14.568-14.678s6.348-14.678 14.568-14.678c4.44 0 8.33 1.982 10.274 4.183 0.624 0.697 1.211 1.615 1.211 2.972 0 1.248-0.514 2.312-1.468 3.046-0.771 0.587-1.651 0.881-2.605 0.881-1.321 0-2.055-0.624-2.825-1.174-1.321-0.954-2.532-1.725-4.367-1.725-3.595 0-6.494 2.972-6.494 6.495z" fill="#370505"/>
</g>
<g transform="translate(-149.7 -269.19)" fill="#370505">
	<path d="m217.17 322.21c0 7.204-6.212 12.645-13.343 12.645-7.462 0-13.454-5.991-13.454-13.417 0-7.425 5.992-13.453 13.417-13.453 4.007 0 7.572 1.728 9.998 4.411 0.625 0.661 0.515 1.249-0.184 1.911l-0.625 0.588c-0.845 0.809-1.544 0.294-2.059-0.184-1.213-1.14-3.418-3.198-7.058-3.198-5.146 0-9.814 4.154-9.814 9.889s4.705 9.925 9.741 9.925c4.778 0 8.491-2.904 9.521-7.426h-6.506c-0.883 0-1.397-0.515-1.397-1.396v-0.662c0-0.882 0.552-1.396 1.397-1.396h8.969c0.956 0 1.396 0.515 1.396 1.396v0.367z"/>
	<path d="m235.74 334.86c-7.426 0-13.417-5.991-13.417-13.417 0-7.425 5.991-13.453 13.417-13.453 7.425 0 13.453 6.028 13.453 13.453 0 7.426-6.028 13.417-13.453 13.417zm9.777-13.417c0-5.44-4.411-9.925-9.777-9.925-5.367 0-9.741 4.484-9.741 9.925s4.374 9.889 9.741 9.889c5.366 0 9.777-4.449 9.777-9.889z"/>
	<path d="m256.76 334.45c-0.919 0-1.396-0.515-1.396-1.396v-23.269c0-0.882 0.478-1.396 1.396-1.396h0.809c0.919 0 1.396 0.515 1.396 1.396v21.21h11.102c0.882 0 1.396 0.478 1.396 1.396v0.662c0 0.919-0.515 1.396-1.396 1.396h-13.307z"/>
	<path d="m279.08 334.45c-0.919 0-1.396-0.515-1.396-1.396v-23.269c0-0.919 0.515-1.396 1.396-1.396h12.682c0.882 0 1.396 0.478 1.396 1.396v0.662c0 0.919-0.515 1.396-1.396 1.396h-10.477v8.234h9.006c0.883 0 1.397 0.478 1.397 1.396v0.661c0 0.919-0.515 1.397-1.397 1.397h-9.006v9.521c0 0.882-0.478 1.396-1.396 1.396h-0.809z"/>
</g>
<g transform="translate(-149.35 -192.84)" fill="#370505"><path d="m156.37 285.24c-3.565-0.956-6.396-3.309-6.396-7.131 0-4.08 3.235-7.683 8.271-7.683 4.301 0 6.58 2.499 7.315 4.301 0.147 0.367 0.221 0.625 0.221 0.845 0 0.515-0.368 0.81-0.919 0.993l-1.029 0.33c-0.662 0.221-1.066 0.11-1.434-0.551-0.809-1.471-2.095-2.39-4.117-2.39-2.72 0-4.632 1.765-4.632 3.934 0 1.874 1.434 3.234 3.345 3.712l2.72 0.699c4.264 1.103 6.763 3.712 6.763 7.204 0 3.896-3.051 7.793-8.675 7.793-5.44 0-7.719-3.676-8.307-5.734-0.331-1.103-0.11-1.507 0.809-1.801l0.956-0.294c1.066-0.331 1.36 0.294 1.654 0.955 0.588 1.25 1.617 3.346 4.962 3.346 3.161 0 4.925-1.912 4.925-4.081 0-1.617-0.956-2.977-3.823-3.749z"/><path d="m174.79 296.9c-0.919 0-1.397-0.515-1.397-1.396v-23.269c0-0.919 0.515-1.396 1.397-1.396h12.682c0.882 0 1.396 0.478 1.396 1.396v0.662c0 0.919-0.515 1.396-1.396 1.396h-10.477v8.234h9.006c0.882 0 1.397 0.478 1.397 1.396v0.661c0 0.919-0.515 1.397-1.397 1.397h-9.006v9.521c0 0.882-0.478 1.396-1.396 1.396h-0.809z"/><path d="m194.75 287.85c-0.882 0-1.397-0.44-1.397-1.249v-0.515c0-0.809 0.515-1.25 1.397-1.25h7.168c0.882 0 1.396 0.441 1.396 1.25v0.515c0 0.809-0.515 1.249-1.396 1.249z"/><path d="m226.07 296.9c-0.662 0-0.992-0.331-1.617-1.103l-8.602-10.66-2.573 2.72v7.646c0 0.882-0.478 1.396-1.396 1.396h-0.809c-0.919 0-1.397-0.515-1.397-1.396v-23.269c0-0.882 0.478-1.396 1.397-1.396h0.809c0.919 0 1.396 0.515 1.396 1.396v10.771l10.439-11.064c0.699-0.735 1.14-1.103 1.801-1.103h1.434c0.551 0 1.103 0.331 1.103 1.103 0 0.257-0.074 0.515-0.294 0.735l-9.41 9.852 9.888 12.534c0.257 0.331 0.294 0.588 0.294 0.771 0 0.589-0.441 1.066-1.103 1.066h-1.36z"/><path d="m253.27 296.9c-0.846 0-1.066-0.515-1.471-1.507l-2.168-5.403h-11.138l-2.169 5.403c-0.404 0.992-0.625 1.507-1.47 1.507h-1.471c-0.698 0-0.992-0.515-0.992-0.882 0-0.331 0.22-0.846 0.478-1.471l9.006-22.313c0.331-0.846 0.882-1.396 1.875-1.396h0.698c0.993 0 1.544 0.551 1.875 1.396l8.933 22.313c0.257 0.625 0.478 1.14 0.478 1.471 0 0.367-0.294 0.882-0.992 0.882zm-9.19-20.806-4.264 10.55h8.491z"/><path d="m280.37 296.9c-0.845 0-1.25-0.11-1.911-1.029l-13.601-18.894v18.526c0 0.882-0.478 1.396-1.396 1.396h-0.809c-0.919 0-1.397-0.515-1.397-1.396v-23.269c0-0.882 0.478-1.396 1.397-1.396h0.919c0.845 0 1.25 0.11 1.911 1.029l13.601 18.894v-18.526c0-0.882 0.478-1.396 1.397-1.396h0.809c0.919 0 1.397 0.515 1.397 1.396v23.268c0 0.882-0.478 1.396-1.397 1.396h-0.92z"/><path d="m309.08 296.9c-0.846 0-1.066-0.515-1.471-1.507l-2.168-5.403h-11.138l-2.168 5.403c-0.404 0.992-0.625 1.507-1.47 1.507h-1.471c-0.698 0-0.992-0.515-0.992-0.882 0-0.331 0.221-0.846 0.478-1.471l9.006-22.313c0.331-0.846 0.882-1.396 1.875-1.396h0.698c0.993 0 1.544 0.551 1.875 1.396l8.933 22.313c0.257 0.625 0.478 1.14 0.478 1.471 0 0.367-0.294 0.882-0.992 0.882zm-9.19-20.806-4.264 10.55h8.491z"/><path d="m318.82 296.9c-0.919 0-1.397-0.515-1.397-1.396v-23.269c0-0.882 0.478-1.396 1.397-1.396h0.809c0.919 0 1.396 0.515 1.396 1.396v21.21h11.102c0.882 0 1.396 0.478 1.396 1.396v0.662c0 0.919-0.515 1.396-1.396 1.396h-13.307z"/><path d="m340.96 296.9c-0.919 0-1.397-0.515-1.397-1.396v-23.269c0-0.919 0.515-1.396 1.397-1.396h12.865c0.882 0 1.396 0.478 1.396 1.396v0.662c0 0.919-0.515 1.396-1.396 1.396h-10.66v7.866h9.006c0.883 0 1.397 0.478 1.397 1.396v0.662c0 0.919-0.515 1.396-1.397 1.396h-9.006v7.83h10.844c0.883 0 1.397 0.478 1.397 1.396v0.662c0 0.919-0.515 1.396-1.397 1.396h-13.049z"/><path d="m381.58 296.9c-0.846 0-1.25-0.11-1.912-1.029l-13.601-18.894v18.526c0 0.882-0.478 1.396-1.396 1.396h-0.809c-0.919 0-1.397-0.515-1.397-1.396v-23.269c0-0.882 0.479-1.396 1.397-1.396h0.919c0.846 0 1.25 0.11 1.911 1.029l13.601 18.894v-18.526c0-0.882 0.478-1.396 1.396-1.396h0.81c0.919 0 1.396 0.515 1.396 1.396v23.268c0 0.882-0.478 1.396-1.396 1.396h-0.919z"/></g></svg>
