<svg id="a" version="1.1" viewBox="0 0 261.19 65.667" xml:space="preserve" xmlns="http://www.w3.org/2000/svg">
<g id="b" transform="translate(-149.71 -269.19)" fill="#370505">
	<path id="c" d="m378.73 334.45c-0.919 0-1.396-0.515-1.396-1.396v-10.146h-12.719v10.146c0 0.882-0.478 1.396-1.396 1.396h-0.809c-0.919 0-1.397-0.515-1.397-1.396v-23.269c0-0.882 0.479-1.396 1.397-1.396h0.809c0.919 0 1.396 0.515 1.396 1.396v9.704h12.719v-9.704c0-0.882 0.478-1.396 1.396-1.396h0.809c0.919 0 1.396 0.515 1.396 1.396v23.269c0 0.882-0.478 1.396-1.396 1.396z"/>
	<path id="d" d="m389.68 334.45c-0.919 0-1.397-0.515-1.397-1.396v-23.269c0-0.882 0.479-1.396 1.397-1.396h8.821c6.617 0 12.388 4.521 12.388 13.049 0 8.564-5.845 13.013-12.461 13.013h-8.748zm8.638-3.455c4.815 0 8.858-3.198 8.858-9.558 0-6.322-3.97-9.594-8.785-9.594h-6.506v19.151h6.433z"/>
</g>
<g id="e" transform="translate(-149.71 -269.19)">
	<path id="f" d="m222.73 283.87c0-7.376 6.054-13.393 13.467-13.393 7.412 0 13.467 6.018 13.467 13.393s-6.055 13.357-13.467 13.357c-7.413 0-13.467-5.982-13.467-13.357zm-16.036 2.972c-0.66 0.954-1.138 1.688-2.495 1.688h-0.697c-1.358 0-1.835-0.734-2.495-1.688l-4.44-6.568v14.458c0 1.321-0.771 2.128-2.202 2.128h-0.734c-1.468 0-2.202-0.807-2.202-2.128v-21.76c0-1.358 0.734-2.128 2.202-2.128h0.917c1.248 0 1.798 0.367 2.459 1.321l6.825 10.018 6.862-10.018c0.624-0.954 1.174-1.321 2.459-1.321h0.917c1.468 0 2.202 0.771 2.202 2.128v21.76c0 1.321-0.734 2.128-2.202 2.128h-0.734c-1.468 0-2.202-0.807-2.202-2.128v-14.458zm54.565 7.889c0 1.321-0.734 2.128-2.165 2.128h-0.771c-1.431 0-2.202-0.807-2.202-2.128v-21.76c0-1.358 0.771-2.128 2.202-2.128h8.256c4.587 0 8.293 3.78 8.293 8.256 0 2.679-1.578 5.1-3.816 6.532 1.284 1.101 2.091 2.422 2.605 4.11l1.211 4.183c0.184 0.587 0.257 1.027 0.257 1.284 0 0.954-0.881 1.651-2.018 1.651h-1.101c-1.138 0-1.798-0.551-2.092-1.578l-1.211-4.293c-0.514-1.798-2.091-3.669-4.697-3.669h-2.752v7.412zm23.154 2.129c-1.431 0-2.202-0.807-2.202-2.128v-21.76c0-1.431 0.844-2.128 2.202-2.128h12.036c1.358 0 2.202 0.697 2.202 2.128v0.587c0 1.431-0.844 2.128-2.202 2.128h-9.1v5.798h7.559c1.358 0 2.202 0.697 2.202 2.128v0.624c0 1.394-0.844 2.092-2.202 2.092h-7.559v5.688h9.247c1.394 0 2.202 0.734 2.202 2.128v0.624c0 1.394-0.807 2.092-2.202 2.092h-12.183zm-56.436-12.99c0 4.66 3.669 8.44 8.219 8.44 4.514 0 8.22-3.779 8.22-8.44 0-4.624-3.706-8.44-8.22-8.44-4.55 0-8.219 3.816-8.219 8.44zm33.282-8.183v6.788h5.064c1.871 0 3.302-1.468 3.302-3.376 0-1.871-1.468-3.412-3.302-3.412zm-103.26 8.183c0 3.523 2.899 6.495 6.568 6.495 1.725 0 2.972-0.66 4.44-1.725 0.771-0.551 1.505-1.174 2.825-1.174 1.101 0 1.982 0.404 2.605 0.881 0.954 0.734 1.468 1.761 1.468 3.046 0 1.358-0.587 2.275-1.211 2.972-1.945 2.202-5.944 4.183-10.421 4.183-8.256 0-14.568-6.825-14.568-14.678s6.348-14.678 14.568-14.678c4.44 0 8.33 1.982 10.274 4.183 0.624 0.697 1.211 1.615 1.211 2.972 0 1.248-0.514 2.312-1.468 3.046-0.771 0.587-1.651 0.881-2.605 0.881-1.321 0-2.055-0.624-2.825-1.174-1.321-0.954-2.532-1.725-4.367-1.725-3.595 0-6.494 2.972-6.494 6.495z" fill="#370505"/>
</g>
<g id="g" transform="translate(-149.71 -269.19)" fill="#370505">
	<path id="h" d="m209.15 334.45c-0.919 0-1.396-0.515-1.396-1.396v-10.146h-12.719v10.146c0 0.882-0.478 1.396-1.396 1.396h-0.809c-0.919 0-1.397-0.515-1.397-1.396v-23.269c0-0.882 0.478-1.396 1.397-1.396h0.809c0.919 0 1.396 0.515 1.396 1.396v9.704h12.719v-9.704c0-0.882 0.478-1.396 1.396-1.396h0.809c0.919 0 1.396 0.515 1.396 1.396v23.269c0 0.882-0.478 1.396-1.396 1.396z"/>
	<path id="i" d="m230.4 334.86c-7.425 0-13.417-5.991-13.417-13.417 0-7.425 5.992-13.453 13.417-13.453s13.454 6.028 13.454 13.453c-1e-3 7.426-6.029 13.417-13.454 13.417zm9.778-13.417c0-5.44-4.411-9.925-9.778-9.925s-9.741 4.484-9.741 9.925 4.375 9.889 9.741 9.889 9.778-4.449 9.778-9.889z"/>
	<path id="j" d="m253.26 321.4c0 5.477 4.375 9.925 9.741 9.925 2.683 0 4.999-1.066 7.131-3.198 0.772-0.772 1.434-0.772 2.059-0.184l0.625 0.588c0.698 0.661 0.809 1.25 0.184 1.911-2.426 2.684-5.992 4.411-9.998 4.411-7.425 0-13.417-5.991-13.417-13.417 0-7.425 5.992-13.453 13.417-13.453 4.006 0 7.572 1.728 9.998 4.411 0.625 0.661 0.515 1.249-0.184 1.911l-0.625 0.588c-0.845 0.809-1.544 0.294-2.059-0.184-1.434-1.323-3.492-3.198-7.131-3.198-5.367 0-9.741 4.484-9.741 9.889z"/>
	<path id="k" d="m297.12 334.45c-0.662 0-0.992-0.331-1.617-1.103l-8.602-10.66-2.573 2.72v7.646c0 0.882-0.478 1.396-1.396 1.396h-0.809c-0.919 0-1.397-0.515-1.397-1.396v-23.269c0-0.882 0.478-1.396 1.397-1.396h0.809c0.919 0 1.396 0.515 1.396 1.396v10.771l10.439-11.064c0.699-0.735 1.14-1.103 1.801-1.103h1.434c0.551 0 1.103 0.331 1.103 1.103 0 0.257-0.074 0.515-0.294 0.735l-9.41 9.852 9.888 12.534c0.257 0.331 0.294 0.588 0.294 0.771 0 0.589-0.441 1.066-1.103 1.066h-1.36z"/>
	<path id="l" d="m307.6 334.45c-0.919 0-1.397-0.515-1.397-1.396v-23.269c0-0.919 0.515-1.396 1.397-1.396h12.865c0.882 0 1.397 0.478 1.397 1.396v0.662c0 0.919-0.515 1.396-1.397 1.396h-10.66v7.866h9.006c0.882 0 1.397 0.478 1.397 1.396v0.662c0 0.919-0.515 1.396-1.397 1.396h-9.006v7.83h10.844c0.882 0 1.397 0.478 1.397 1.396v0.662c0 0.919-0.515 1.396-1.397 1.396h-13.049z"/>
	<path id="m" d="m337.38 334.45c-0.919 0-1.396-0.515-1.396-1.396v-9.631l-8.05-13.196c-0.257-0.404-0.294-0.625-0.294-0.772 0-0.515 0.441-1.065 1.103-1.065h1.36c0.625 0 1.213 0.331 1.654 1.103l6.139 10.55 6.102-10.55c0.441-0.735 1.029-1.103 1.654-1.103h1.176c0.662 0 1.103 0.551 1.103 1.065 0 0.147-0.037 0.368-0.294 0.772l-8.05 13.196v9.631c0 0.882-0.478 1.396-1.396 1.396z"/>
</g>
</svg>
