<svg id="a" version="1.1" viewBox="0 0 181.87 65.58" xmlns="http://www.w3.org/2000/svg">
 <g id="b" fill="#370505" data-name="Layer 2">
  <g id="c" fill="#370505" data-name="Lager 1">
   <g id="d" data-name="&lt;Group&gt;">
    <path id="e" class="cls-1" d="M73,14.68A13.47,13.47,0,1,1,86.49,28,13.46,13.46,0,0,1,73,14.68Zm-16,3c-.66,1-1.14,1.69-2.5,1.69h-.7c-1.36,0-1.83-.73-2.5-1.69l-4.44-6.57V25.54a2,2,0,0,1-2.2,2.13h-.73a2,2,0,0,1-2.2-2.13V3.78a1.94,1.94,0,0,1,2.2-2.13h.92A2.53,2.53,0,0,1,47.3,3l6.83,10L61,3a2.47,2.47,0,0,1,2.46-1.32h.92a1.94,1.94,0,0,1,2.2,2.13V25.54a2,2,0,0,1-2.2,2.13h-.73a2,2,0,0,1-2.2-2.13V11.08Zm54.56,7.89a1.94,1.94,0,0,1-2.17,2.13h-.77a2,2,0,0,1-2.2-2.13V3.78a2,2,0,0,1,2.2-2.13h8.26a8.32,8.32,0,0,1,8.29,8.26,7.93,7.93,0,0,1-3.82,6.53A8.36,8.36,0,0,1,124,20.55l1.21,4.18a4.77,4.77,0,0,1,.26,1.28,1.82,1.82,0,0,1-2,1.65h-1.1a2,2,0,0,1-2.09-1.58L119,21.8a4.87,4.87,0,0,0-4.7-3.67h-2.75Zm23.15,2.13a2,2,0,0,1-2.2-2.13V3.78a2,2,0,0,1,2.2-2.13h12a2,2,0,0,1,2.2,2.13v.59a2,2,0,0,1-2.2,2.13h-9.1v5.8h7.56a2,2,0,0,1,2.2,2.13V15a1.94,1.94,0,0,1-2.2,2.09h-7.56v5.69h9.25a2,2,0,0,1,2.2,2.13v.62a1.93,1.93,0,0,1-2.2,2.09Zm-56.44-13a8.22,8.22,0,1,0,16.44,0,8.22,8.22,0,1,0-16.44,0Zm33.28-8.18v6.79h5.06a3.28,3.28,0,0,0,3.3-3.38,3.36,3.36,0,0,0-3.3-3.41ZM8.29,14.68a6.55,6.55,0,0,0,6.57,6.49,7.17,7.17,0,0,0,4.44-1.72,4.45,4.45,0,0,1,2.83-1.17,4.26,4.26,0,0,1,2.61.88,3.67,3.67,0,0,1,1.47,3,4.28,4.28,0,0,1-1.21,3C23,27.37,19,29.36,14.57,29.36A14.68,14.68,0,0,1,14.57,0,14.2,14.2,0,0,1,24.84,4.18a4.28,4.28,0,0,1,1.21,3,3.72,3.72,0,0,1-1.47,3,4.22,4.22,0,0,1-2.61.88,4.45,4.45,0,0,1-2.83-1.17,7,7,0,0,0-4.37-1.72A6.53,6.53,0,0,0,8.29,14.68Z" fill="#370505" data-name="&lt;Compound Path&gt;"/>
   </g>
   <path id="f" class="cls-1" d="M64.18,65.58a1.26,1.26,0,0,1-1.39-1.39V45.69l-6.5,9.61c-.59.84-.88,1.39-1.87,1.39h-.73c-1,0-1.32-.55-1.87-1.39l-6.5-9.61v18.5a1.26,1.26,0,0,1-1.39,1.39h-.81a1.26,1.26,0,0,1-1.39-1.39V41a1.26,1.26,0,0,1,1.39-1.39h1a1.86,1.86,0,0,1,1.83,1l8.11,11.93,8.11-11.93a1.86,1.86,0,0,1,1.83-1h1A1.26,1.26,0,0,1,66.38,41V64.19A1.26,1.26,0,0,1,65,65.58Z"/>
   <path id="g" class="cls-1" d="M92,65.58c-.84,0-1.06-.51-1.47-1.5l-2.17-5.39H77.25l-2.17,5.39c-.4,1-.62,1.5-1.47,1.5H72.15a.92.92,0,0,1-1-.88,5,5,0,0,1,.48-1.47l9-22.28a1.9,1.9,0,0,1,1.87-1.39h.7A1.9,1.9,0,0,1,85.06,41L94,63.23a5,5,0,0,1,.48,1.47.92.92,0,0,1-1,.88ZM82.82,44.81,78.57,55.35H87Z"/>
   <path id="h" class="cls-1" d="M114.64,65.58c-.62,0-1.1-.26-1.65-1.1l-5.91-8.88-5.87,8.88a1.9,1.9,0,0,1-1.65,1.1H98.31a1.09,1.09,0,0,1-1.1-1,1.59,1.59,0,0,1,.29-.84l7.56-11.16L97.54,41.4a1.59,1.59,0,0,1-.29-.84,1.09,1.09,0,0,1,1.1-1h1.36c.66,0,1.1.29,1.65,1.1l5.87,8.81,5.83-8.81c.55-.81,1-1.1,1.65-1.1H116a1.09,1.09,0,0,1,1.1,1,1.59,1.59,0,0,1-.29.84l-7.52,11.12,7.56,11.23a1.59,1.59,0,0,1,.29.84,1.09,1.09,0,0,1-1.1,1Z"/>
   <path id="i" class="cls-1" d="M149.76,65.58a1.26,1.26,0,0,1-1.39-1.39V54.06h-12.7V64.19a1.26,1.26,0,0,1-1.39,1.39h-.81a1.26,1.26,0,0,1-1.39-1.39V41a1.26,1.26,0,0,1,1.39-1.39h.81A1.26,1.26,0,0,1,135.66,41v9.69h12.7V41a1.26,1.26,0,0,1,1.39-1.39h.81A1.26,1.26,0,0,1,152,41V64.19a1.26,1.26,0,0,1-1.39,1.39Z"/>
   <path id="j" class="cls-1" d="M160.69,65.58a1.26,1.26,0,0,1-1.39-1.39V41a1.26,1.26,0,0,1,1.39-1.39h8.81c6.61,0,12.37,4.51,12.37,13s-5.83,13-12.44,13Zm8.62-3.45c4.81,0,8.84-3.19,8.84-9.54s-4-9.58-8.77-9.58h-6.5V62.13Z"/>
  </g>
 </g>
</svg>
