<?xml version="1.0" encoding="UTF-8"?>
<svg id="svg28" version="1.1" viewBox="0 0 455.91 164.13" xmlns="http://www.w3.org/2000/svg" xmlns:cc="http://creativecommons.org/ns#" xmlns:dc="http://purl.org/dc/elements/1.1/" xmlns:rdf="http://www.w3.org/1999/02/22-rdf-syntax-ns#">
 <metadata id="metadata34">
  <rdf:RDF>
   <cc:Work rdf:about="">
    <dc:format>image/svg+xml</dc:format>
    <dc:type rdf:resource="http://purl.org/dc/dcmitype/StillImage"/>
    <dc:title/>
   </cc:Work>
  </rdf:RDF>
 </metadata>
 <g id="Layer_2" fill="#370505" data-name="Layer 2">
  <g id="Color" fill="#370505">
   <path id="path2" class="cls-1" d="M182.51,36.69a33.66,33.66,0,1,1,33.66,33.38,33.64,33.64,0,0,1-33.66-33.38m-40.08,7.43c-1.65,2.38-2.84,4.22-6.24,4.22h-1.74c-3.39,0-4.59-1.83-6.24-4.22L117.12,27.7V63.83c0,3.3-1.93,5.32-5.5,5.32h-1.84c-3.67,0-5.5-2-5.5-5.32V9.45c0-3.39,1.83-5.32,5.5-5.32h2.29c3.12,0,4.49.92,6.15,3.3l17.06,25,17.15-25c1.56-2.39,2.94-3.3,6.15-3.3h2.29c3.67,0,5.5,1.93,5.5,5.32V63.83c0,3.3-1.83,5.32-5.5,5.32H159c-3.67,0-5.5-2-5.5-5.32V27.7ZM278.81,63.83c0,3.3-1.83,5.32-5.41,5.32h-1.93c-3.58,0-5.5-2-5.5-5.32V9.45c0-3.39,1.93-5.32,5.5-5.32h20.64a20.8,20.8,0,0,1,20.73,20.64c0,6.69-3.94,12.75-9.54,16.32a20.88,20.88,0,0,1,6.51,10.27l3,10.45a11.92,11.92,0,0,1,.64,3.21c0,2.38-2.2,4.13-5,4.13h-2.75a4.93,4.93,0,0,1-5.23-3.95l-3-10.73c-1.28-4.49-5.23-9.17-11.74-9.17h-6.88Zm57.87,5.32c-3.58,0-5.5-2-5.5-5.32V9.45c0-3.58,2.11-5.32,5.5-5.32h30.08c3.39,0,5.5,1.74,5.5,5.32v1.47c0,3.58-2.11,5.32-5.5,5.32H344V30.73h18.89c3.39,0,5.5,1.74,5.5,5.32V37.6c0,3.48-2.11,5.23-5.5,5.23H344V57h23.11c3.48,0,5.5,1.83,5.5,5.32v1.56c0,3.49-2,5.23-5.5,5.23ZM195.63,36.69c0,11.65,9.17,21.09,20.54,21.09s20.54-9.45,20.54-21.09-9.26-21.09-20.54-21.09-20.54,9.54-20.54,21.09m83.19-20.45v17h12.66a8.21,8.21,0,0,0,8.25-8.44,8.4,8.4,0,0,0-8.25-8.53ZM20.73,36.69A16.36,16.36,0,0,0,37.15,52.92c4.31,0,7.43-1.65,11.1-4.31,1.92-1.38,3.76-2.93,7.06-2.93a10.65,10.65,0,0,1,6.51,2.2,9.18,9.18,0,0,1,3.67,7.61,10.69,10.69,0,0,1-3,7.43c-4.86,5.5-14.86,10.46-26,10.46C15.78,73.37,0,56.31,0,36.69S15.87,0,36.41,0c11.1,0,20.82,5,25.68,10.46a10.69,10.69,0,0,1,3,7.43,9.31,9.31,0,0,1-3.67,7.61,10.54,10.54,0,0,1-6.51,2.2c-3.3,0-5.14-1.56-7.06-2.93-3.3-2.39-6.33-4.31-10.91-4.31A16.32,16.32,0,0,0,20.73,36.69"/>
   <path id="path4" class="cls-1" d="M119.19,134c-8.91-2.39-16-8.27-16-17.82,0-10.2,8.09-19.2,20.67-19.2,10.75,0,16.45,6.25,18.28,10.75a5.93,5.93,0,0,1,.55,2.11c0,1.29-.92,2-2.3,2.48l-2.57.83c-1.65.55-2.66.27-3.58-1.38a10.9,10.9,0,0,0-10.29-6c-6.8,0-11.58,4.41-11.58,9.83,0,4.68,3.58,8.08,8.36,9.28l6.8,1.75c10.66,2.76,16.9,9.28,16.9,18,0,9.74-7.62,19.48-21.68,19.48-13.6,0-19.29-9.19-20.76-14.33-.83-2.76-.28-3.77,2-4.5l2.39-.74c2.67-.83,3.4.74,4.14,2.39,1.47,3.12,4,8.36,12.4,8.36,7.9,0,12.31-4.78,12.31-10.2,0-4-2.39-7.44-9.56-9.37Z"/>
   <path id="path6" class="cls-1" d="m163.38 163.12a3.15 3.15 0 0 1-3.49-3.49v-58.16a3.15 3.15 0 0 1 3.49-3.47h22a19.8 19.8 0 0 1 0 39.6h-16.49v22.05a3.15 3.15 0 0 1-3.49 3.49zm21.41-34.18a11.16 11.16 0 1 0 0-22.33h-15.9v22.33z"/>
   <path id="path8" class="cls-1" d="m249.47 164.13a33.58 33.58 0 1 1 33.63-33.53 33.49 33.49 0 0 1-33.63 33.53m24.44-33.53a24.75 24.75 0 0 0-24.44-24.81c-13.41 0-24.35 11.21-24.35 24.81a24.4 24.4 0 1 0 48.79 0"/>
   <path id="path10" class="cls-1" d="M338.22,163.12a3.19,3.19,0,0,1-3.31-2.57L331.61,149c-1.65-5.7-6.34-11.39-14.79-11.39h-9.74v22.05a3.15,3.15,0,0,1-3.49,3.49h-2a3.15,3.15,0,0,1-3.49-3.49V101.47A3.15,3.15,0,0,1,301.56,98h22a19.86,19.86,0,0,1,19.75,19.84A18.92,18.92,0,0,1,332,134.91a20.65,20.65,0,0,1,8.36,11.95L343.55,158a11.7,11.7,0,0,1,.55,2.57,2.73,2.73,0,0,1-2.94,2.57ZM323,128.94a11.06,11.06,0,0,0,11.21-11.12A11.19,11.19,0,0,0,323,106.62h-15.9v22.33Z"/>
   <path id="path12" class="cls-1" d="m380.21 163.12a3.15 3.15 0 0 1-3.49-3.49v-53h-16a3.15 3.15 0 0 1-3.49-3.49v-1.65a3.15 3.15 0 0 1 3.5-3.49h41a3.15 3.15 0 0 1 3.49 3.49v1.65a3.15 3.15 0 0 1-3.49 3.49h-16v53a3.15 3.15 0 0 1-3.49 3.49z"/>
   <path id="path14" class="cls-1" d="M119.16,134c-8.9-2.38-16-8.25-16-17.79,0-10.18,8.07-19.17,20.64-19.17,10.73,0,16.42,6.24,18.25,10.73a6,6,0,0,1,.55,2.11c0,1.28-.92,2-2.29,2.48l-2.57.82c-1.65.55-2.66.28-3.58-1.37a10.88,10.88,0,0,0-10.27-6c-6.79,0-11.56,4.4-11.56,9.81,0,4.68,3.58,8.07,8.35,9.26l6.79,1.74c10.64,2.75,16.88,9.27,16.88,18,0,9.72-7.61,19.44-21.65,19.44-13.57,0-19.26-9.17-20.73-14.31-.82-2.75-.27-3.76,2-4.49l2.39-.73c2.66-.83,3.4.73,4.13,2.38,1.47,3.12,4,8.35,12.38,8.35,7.89,0,12.29-4.77,12.29-10.18,0-4-2.39-7.43-9.54-9.36Z"/>
   <path id="path16" class="cls-1" d="M163.65,163.12a3.14,3.14,0,0,1-3.49-3.49V101.58a3.14,3.14,0,0,1,3.49-3.49h22a19.77,19.77,0,0,1,0,39.53H169.15v22a3.14,3.14,0,0,1-3.49,3.49ZM185,129a11.15,11.15,0,1,0,0-22.29H169.15V129Z"/>
   <path id="path18" class="cls-1" d="M250,164.13a33.52,33.52,0,1,1,33.57-33.48A33.43,33.43,0,0,1,250,164.13m24.4-33.48A24.7,24.7,0,0,0,250,105.89c-13.39,0-24.31,11.19-24.31,24.76a24.35,24.35,0,1,0,48.71,0"/>
   <path id="path20" class="cls-1" d="M337.56,163.12a3.18,3.18,0,0,1-3.3-2.57L331,149c-1.65-5.69-6.33-11.37-14.77-11.37h-9.72v22a3.14,3.14,0,0,1-3.49,3.49h-2a3.14,3.14,0,0,1-3.49-3.49V101.58A3.14,3.14,0,0,1,301,98.09h22A19.83,19.83,0,0,1,342.7,117.9,18.89,18.89,0,0,1,331.33,135a20.6,20.6,0,0,1,8.34,11.92l3.21,11.1a11.69,11.69,0,0,1,.55,2.57,2.72,2.72,0,0,1-2.93,2.57ZM322.34,129a11,11,0,0,0,11.19-11.1,11.18,11.18,0,0,0-11.19-11.19H306.47V129Z"/>
   <path id="path22" class="cls-1" d="m379.39 163.12a3.14 3.14 0 0 1-3.49-3.48v-52.93h-16a3.14 3.14 0 0 1-3.49-3.49v-1.65a3.14 3.14 0 0 1 3.49-3.49h40.91a3.14 3.14 0 0 1 3.48 3.49v1.65a3.14 3.14 0 0 1-3.48 3.49h-16v52.93a3.14 3.14 0 0 1-3.48 3.48z"/>
   <path id="path24" class="cls-1" d="M450.54,163.12c-2.2,0-3.49-1.3-3.49-3.59l0-5V113.59A17.17,17.17,0,0,1,437,117.08a2.86,2.86,0,0,1-3.21-2.57l-.37-2.11c-.46-2.66,1.28-3.3,3-3.85,5-1.65,7.61-3.39,10.64-8.16.73-1.2,1.47-2.29,3.3-2.29h2a3.14,3.14,0,0,1,3.49,3.49V154.5s0,1.19,0,3.49v1.65a3.14,3.14,0,0,1-3.48,3.48Z"/>
  </g>
 </g>
</svg>
