<?xml version="1.0" encoding="UTF-8"?>
<!-- Generator: Adobe Illustrator 22.1.0, SVG Export Plug-In . SVG Version: 6.00 Build 0)  -->
<svg id="Lager_1" width="153.66" height="65.861" version="1.1" viewBox="0 0 153.66 65.861" xml:space="preserve" xmlns="http://www.w3.org/2000/svg" xmlns:cc="http://creativecommons.org/ns#" xmlns:dc="http://purl.org/dc/elements/1.1/" xmlns:rdf="http://www.w3.org/1999/02/22-rdf-syntax-ns#"><metadata id="metadata21"><rdf:RDF><cc:Work rdf:about=""><dc:format>image/svg+xml</dc:format><dc:type rdf:resource="http://purl.org/dc/dcmitype/StillImage"/><dc:title/></cc:Work></rdf:RDF></metadata>
<g id="XMLID_28_" transform="translate(-149.71 -269.19)">
	<path id="XMLID_37_" d="m222.73 283.87c0-7.376 6.054-13.393 13.467-13.393 7.412 0 13.467 6.018 13.467 13.393s-6.055 13.357-13.467 13.357c-7.413 0-13.467-5.982-13.467-13.357zm-16.036 2.972c-0.66 0.954-1.138 1.688-2.495 1.688h-0.697c-1.358 0-1.835-0.734-2.495-1.688l-4.44-6.568v14.458c0 1.321-0.771 2.128-2.202 2.128h-0.734c-1.468 0-2.202-0.807-2.202-2.128v-21.76c0-1.358 0.734-2.128 2.202-2.128h0.917c1.248 0 1.798 0.367 2.459 1.321l6.825 10.018 6.862-10.018c0.624-0.954 1.174-1.321 2.459-1.321h0.917c1.468 0 2.202 0.771 2.202 2.128v21.76c0 1.321-0.734 2.128-2.202 2.128h-0.734c-1.468 0-2.202-0.807-2.202-2.128v-14.458zm54.565 7.889c0 1.321-0.734 2.128-2.165 2.128h-0.771c-1.431 0-2.202-0.807-2.202-2.128v-21.76c0-1.358 0.771-2.128 2.202-2.128h8.256c4.587 0 8.293 3.78 8.293 8.256 0 2.679-1.578 5.1-3.816 6.532 1.284 1.101 2.091 2.422 2.605 4.11l1.211 4.183c0.184 0.587 0.257 1.027 0.257 1.284 0 0.954-0.881 1.651-2.018 1.651h-1.101c-1.138 0-1.798-0.551-2.092-1.578l-1.211-4.293c-0.514-1.798-2.091-3.669-4.697-3.669h-2.752v7.412zm23.154 2.129c-1.431 0-2.202-0.807-2.202-2.128v-21.76c0-1.431 0.844-2.128 2.202-2.128h12.036c1.358 0 2.202 0.697 2.202 2.128v0.587c0 1.431-0.844 2.128-2.202 2.128h-9.1v5.798h7.559c1.358 0 2.202 0.697 2.202 2.128v0.624c0 1.394-0.844 2.092-2.202 2.092h-7.559v5.688h9.247c1.394 0 2.202 0.734 2.202 2.128v0.624c0 1.394-0.807 2.092-2.202 2.092h-12.183zm-56.436-12.99c0 4.66 3.669 8.44 8.219 8.44 4.514 0 8.22-3.779 8.22-8.44 0-4.624-3.706-8.44-8.22-8.44-4.55 0-8.219 3.816-8.219 8.44zm33.282-8.183v6.788h5.064c1.871 0 3.302-1.468 3.302-3.376 0-1.871-1.468-3.412-3.302-3.412zm-103.26 8.183c0 3.523 2.899 6.495 6.568 6.495 1.725 0 2.972-0.66 4.44-1.725 0.771-0.551 1.505-1.174 2.825-1.174 1.101 0 1.982 0.404 2.605 0.881 0.954 0.734 1.468 1.761 1.468 3.046 0 1.358-0.587 2.275-1.211 2.972-1.945 2.202-5.944 4.183-10.421 4.183-8.256 0-14.568-6.825-14.568-14.678s6.348-14.678 14.568-14.678c4.44 0 8.33 1.982 10.274 4.183 0.624 0.697 1.211 1.615 1.211 2.972 0 1.248-0.514 2.312-1.468 3.046-0.771 0.587-1.651 0.881-2.605 0.881-1.321 0-2.055-0.624-2.825-1.174-1.321-0.954-2.532-1.725-4.367-1.725-3.595 0-6.494 2.972-6.494 6.495z" fill="#fff"/>
</g>
<g id="g14" transform="translate(-149.71 -269.19)" fill="#fff">
	<path id="path4" d="m198.39 322.91c-3.589-0.962-6.438-3.33-6.438-7.179 0-4.107 3.256-7.732 8.326-7.732 4.292 0 6.697 2.553 7.363 4.328 0.407 1.074 0.148 1.592-0.703 1.851l-1.036 0.333c-0.667 0.223-1.073 0.111-1.443-0.555-0.814-1.48-2.109-2.406-4.144-2.406-2.738 0-4.663 1.777-4.663 3.96 0 1.888 1.443 3.257 3.367 3.737l2.738 0.703c4.292 1.109 6.809 3.737 6.809 7.252 0 3.923-3.071 7.846-8.733 7.846-5.476 0-7.771-3.701-8.362-5.773-0.333-1.109-0.074-1.554 0.814-1.813l0.962-0.297c1.073-0.332 1.369 0.297 1.665 0.963 0.592 1.258 1.628 3.367 4.996 3.367 3.182 0 4.958-1.924 4.958-4.107 0-1.629-0.962-2.997-3.849-3.774z"/>
	<path id="path6" d="m221.52 334.64c-0.925 0-1.406-0.518-1.406-1.406v-21.35h-6.438c-0.888 0-1.406-0.481-1.406-1.406v-0.666c0-0.926 0.518-1.406 1.406-1.406h16.503c0.888 0 1.406 0.48 1.406 1.406v0.666c0 0.925-0.518 1.406-1.406 1.406h-6.438v21.35c0 0.889-0.481 1.406-1.406 1.406z"/>
	<path id="path8" d="m253.71 334.64c-0.851 0-1.073-0.518-1.48-1.517l-2.183-5.439h-11.211l-2.184 5.439c-0.407 0.999-0.629 1.517-1.48 1.517h-1.48c-0.703 0-0.999-0.518-0.999-0.888 0-0.333 0.222-0.851 0.481-1.479l9.065-22.461c0.333-0.852 0.888-1.406 1.887-1.406h0.703c0.999 0 1.554 0.555 1.887 1.406l8.992 22.461c0.259 0.629 0.481 1.146 0.481 1.479 0 0.37-0.296 0.888-0.999 0.888zm-9.251-20.944-4.292 10.62h8.547z"/>
	<path id="path10" d="m277.91 334.64c-0.703 0-1.147-0.369-1.332-1.035l-1.333-4.662c-0.666-2.295-2.553-4.589-5.957-4.589h-3.922v8.88c0 0.889-0.481 1.406-1.406 1.406h-0.814c-0.925 0-1.406-0.518-1.406-1.406v-23.422c0-0.889 0.481-1.406 1.406-1.406h8.88c4.403 0 7.956 3.627 7.956 7.992 0 3.035-1.887 5.662-4.588 6.883 1.739 1.258 2.775 2.701 3.367 4.811l1.295 4.477c0.148 0.519 0.222 0.852 0.222 1.037 0 0.592-0.518 1.035-1.184 1.035h-1.184zm-6.142-13.765c2.516 0 4.514-1.961 4.514-4.478 0-2.516-2.035-4.514-4.514-4.514h-6.401v8.991h6.401z"/>
	<path id="path12" d="m293.19 322.91c-3.589-0.962-6.438-3.33-6.438-7.179 0-4.107 3.256-7.732 8.326-7.732 4.292 0 6.697 2.553 7.363 4.328 0.408 1.074 0.148 1.592-0.703 1.851l-1.035 0.333c-0.666 0.223-1.073 0.111-1.443-0.555-0.814-1.48-2.109-2.406-4.144-2.406-2.738 0-4.663 1.777-4.663 3.96 0 1.888 1.443 3.257 3.367 3.737l2.738 0.703c4.293 1.109 6.809 3.737 6.809 7.252 0 3.923-3.071 7.846-8.733 7.846-5.476 0-7.771-3.701-8.362-5.773-0.333-1.109-0.074-1.554 0.814-1.813l0.962-0.297c1.073-0.332 1.369 0.297 1.665 0.963 0.592 1.258 1.628 3.367 4.996 3.367 3.182 0 4.958-1.924 4.958-4.107 0-1.629-0.962-2.997-3.849-3.774z"/>
</g>
</svg>
