<svg id="a" version="1.1" viewBox="0 0 482.59 164.13" xmlns="http://www.w3.org/2000/svg">
 <g id="b" fill="#370505" data-name="Layer 2">
  <g id="c" fill="#370505">
   <path id="d" class="cls-1" d="M182.37,36.66A33.63,33.63,0,1,1,216,70a33.62,33.62,0,0,1-33.63-33.36m-40,7.42c-1.65,2.38-2.84,4.22-6.23,4.22h-1.74c-3.39,0-4.58-1.83-6.23-4.22L117,27.68V63.78c0,3.3-1.92,5.32-5.5,5.32H109.7c-3.67,0-5.5-2-5.5-5.32V9.44c0-3.39,1.83-5.32,5.5-5.32H112c3.12,0,4.49.92,6.14,3.3l17,25,17.14-25c1.56-2.38,2.93-3.3,6.14-3.3h2.29c3.67,0,5.5,1.93,5.5,5.32V63.78c0,3.3-1.83,5.32-5.5,5.32h-1.83c-3.67,0-5.5-2-5.5-5.32V27.68Zm136.27,19.7c0,3.3-1.83,5.32-5.41,5.32h-1.92c-3.57,0-5.5-2-5.5-5.32V9.44c0-3.39,1.92-5.32,5.5-5.32h20.62a20.79,20.79,0,0,1,20.71,20.62c0,6.69-3.94,12.74-9.53,16.31a20.87,20.87,0,0,1,6.51,10.27l3,10.45a11.91,11.91,0,0,1,.64,3.21c0,2.38-2.2,4.12-5,4.12h-2.75a4.92,4.92,0,0,1-5.22-3.94l-3-10.72c-1.28-4.49-5.22-9.16-11.73-9.16h-6.87Zm57.83,5.32c-3.58,0-5.5-2-5.5-5.32V9.44c0-3.58,2.11-5.32,5.5-5.32h30.06c3.39,0,5.5,1.74,5.5,5.32v1.47c0,3.57-2.11,5.32-5.5,5.32H343.75V30.7h18.88c3.39,0,5.5,1.74,5.5,5.31v1.56c0,3.48-2.11,5.22-5.5,5.22H343.75V57h23.09c3.48,0,5.5,1.83,5.5,5.32v1.56c0,3.48-2,5.22-5.5,5.22ZM195.47,36.66c0,11.64,9.16,21.08,20.53,21.08s20.53-9.44,20.53-21.08S227.27,15.58,216,15.58s-20.53,9.53-20.53,21.08m83.12-20.44v17h12.65a8.2,8.2,0,0,0,8.25-8.43,8.39,8.39,0,0,0-8.25-8.52ZM20.71,36.66a16.35,16.35,0,0,0,16.4,16.22c4.31,0,7.42-1.65,11.09-4.31,1.93-1.37,3.76-2.93,7.06-2.93a10.62,10.62,0,0,1,6.51,2.2,9.17,9.17,0,0,1,3.67,7.61,10.68,10.68,0,0,1-3,7.42c-4.86,5.5-14.85,10.45-26,10.45C15.76,73.31,0,56.27,0,36.66S15.85,0,36.38,0C47.47,0,57.18,4.95,62,10.45a10.68,10.68,0,0,1,3,7.42,9.29,9.29,0,0,1-3.66,7.61,10.53,10.53,0,0,1-6.51,2.2c-3.3,0-5.13-1.56-7.06-2.93-3.3-2.38-6.32-4.31-10.91-4.31A16.31,16.31,0,0,0,20.71,36.66"/>
   <path id="e" class="cls-1" d="M132.65,101.63a3.18,3.18,0,0,1,3.48-3.48h2a3.18,3.18,0,0,1,3.48,3.48v42.62c0,12.92-8.8,19.89-19.8,19.89s-20-7.06-20-19.7v-.18a3.18,3.18,0,0,1,3.48-3.48h2a3.14,3.14,0,0,1,3.48,3.48v.18c0,7,4,11.09,11,11.09s10.82-4.12,10.82-11.73Z"/>
   <path id="f" class="cls-1" d="M199,101.63a3.18,3.18,0,0,1,3.48-3.48h2a3.18,3.18,0,0,1,3.48,3.48v39c0,15.3-10.36,23.55-23.74,23.55s-23.74-8.25-23.74-23.55v-39A3.18,3.18,0,0,1,164,98.14h2a3.18,3.18,0,0,1,3.48,3.48V140c0,9.9,5.32,15.49,14.76,15.49S199,149.93,199,140Z"/>
   <path id="g" class="cls-1" d="M275.45,163.12c-2.11,0-3.12-.27-4.77-2.56l-33.91-47.11v46.19a3.14,3.14,0,0,1-3.48,3.48h-2a3.14,3.14,0,0,1-3.48-3.48v-58a3.14,3.14,0,0,1,3.48-3.48h2.29c2.11,0,3.11.27,4.77,2.57l33.91,47.11V101.63a3.14,3.14,0,0,1,3.48-3.48h2a3.14,3.14,0,0,1,3.48,3.48v58a3.14,3.14,0,0,1-3.48,3.48Z"/>
   <path id="h" class="cls-1" d="m306.71 163.12a3.14 3.14 0 0 1-3.48-3.48v-58a3.14 3.14 0 0 1 3.48-3.48h2a3.14 3.14 0 0 1 3.48 3.48v58a3.14 3.14 0 0 1-3.48 3.48z"/>
   <path id="i" class="cls-1" d="M362.43,164.13A33.5,33.5,0,1,1,396,130.68a33.4,33.4,0,0,1-33.54,33.45m24.38-33.45a24.69,24.69,0,0,0-24.38-24.74c-13.38,0-24.29,11.18-24.29,24.74a24.34,24.34,0,1,0,48.67,0"/>
   <path id="j" class="cls-1" d="M450.51,163.12a3.18,3.18,0,0,1-3.3-2.57L443.91,149c-1.65-5.68-6.32-11.36-14.76-11.36h-9.71v22a3.14,3.14,0,0,1-3.48,3.48h-2a3.14,3.14,0,0,1-3.48-3.48v-58a3.14,3.14,0,0,1,3.48-3.48h22a19.81,19.81,0,0,1,19.7,19.8,18.88,18.88,0,0,1-11.37,17,20.58,20.58,0,0,1,8.34,11.91L455.82,158a11.56,11.56,0,0,1,.55,2.57,2.72,2.72,0,0,1-2.93,2.57ZM435.3,129a11,11,0,0,0,11.18-11.09,11.17,11.17,0,0,0-11.18-11.18H419.44V129Z"/>
   <path id="k" class="cls-1" d="m477.09 163.12a3.14 3.14 0 0 1-3.48-3.48v-58a3.14 3.14 0 0 1 3.48-3.48h2a3.14 3.14 0 0 1 3.48 3.48v58a3.14 3.14 0 0 1-3.48 3.48z"/>
  </g>
 </g>
</svg>
