<?xml version="1.0" encoding="UTF-8"?>
<!-- Generator: Adobe Illustrator 22.1.0, SVG Export Plug-In . SVG Version: 6.00 Build 0)  -->
<svg id="Lager_1" width="224.89" height="65.667" version="1.1" viewBox="0 0 224.89 65.667" xml:space="preserve" xmlns="http://www.w3.org/2000/svg" xmlns:cc="http://creativecommons.org/ns#" xmlns:dc="http://purl.org/dc/elements/1.1/" xmlns:rdf="http://www.w3.org/1999/02/22-rdf-syntax-ns#"><metadata id="metadata27"><rdf:RDF><cc:Work rdf:about=""><dc:format>image/svg+xml</dc:format><dc:type rdf:resource="http://purl.org/dc/dcmitype/StillImage"/><dc:title/></cc:Work></rdf:RDF></metadata>
<g id="XMLID_1_" transform="translate(-149.71 -269.19)">
	<path id="XMLID_2_" d="m222.73 283.87c0-7.376 6.054-13.393 13.467-13.393 7.412 0 13.467 6.018 13.467 13.393s-6.055 13.357-13.467 13.357c-7.413 0-13.467-5.982-13.467-13.357zm-16.036 2.972c-0.66 0.954-1.138 1.688-2.495 1.688h-0.697c-1.358 0-1.835-0.734-2.495-1.688l-4.44-6.568v14.458c0 1.321-0.771 2.128-2.202 2.128h-0.734c-1.468 0-2.202-0.807-2.202-2.128v-21.76c0-1.358 0.734-2.128 2.202-2.128h0.917c1.248 0 1.798 0.367 2.459 1.321l6.825 10.018 6.862-10.018c0.624-0.954 1.174-1.321 2.459-1.321h0.917c1.468 0 2.202 0.771 2.202 2.128v21.76c0 1.321-0.734 2.128-2.202 2.128h-0.734c-1.468 0-2.202-0.807-2.202-2.128v-14.458zm54.565 7.889c0 1.321-0.734 2.128-2.165 2.128h-0.771c-1.431 0-2.202-0.807-2.202-2.128v-21.76c0-1.358 0.771-2.128 2.202-2.128h8.256c4.587 0 8.293 3.78 8.293 8.256 0 2.679-1.578 5.1-3.816 6.532 1.284 1.101 2.091 2.422 2.605 4.11l1.211 4.183c0.184 0.587 0.257 1.027 0.257 1.284 0 0.954-0.881 1.651-2.018 1.651h-1.101c-1.138 0-1.798-0.551-2.092-1.578l-1.211-4.293c-0.514-1.798-2.091-3.669-4.697-3.669h-2.752v7.412zm23.154 2.129c-1.431 0-2.202-0.807-2.202-2.128v-21.76c0-1.431 0.844-2.128 2.202-2.128h12.036c1.358 0 2.202 0.697 2.202 2.128v0.587c0 1.431-0.844 2.128-2.202 2.128h-9.1v5.798h7.559c1.358 0 2.202 0.697 2.202 2.128v0.624c0 1.394-0.844 2.092-2.202 2.092h-7.559v5.688h9.247c1.394 0 2.202 0.734 2.202 2.128v0.624c0 1.394-0.807 2.092-2.202 2.092h-12.183zm-56.436-12.99c0 4.66 3.669 8.44 8.219 8.44 4.514 0 8.22-3.779 8.22-8.44 0-4.624-3.706-8.44-8.22-8.44-4.55 0-8.219 3.816-8.219 8.44zm33.282-8.183v6.788h5.064c1.871 0 3.302-1.468 3.302-3.376 0-1.871-1.468-3.412-3.302-3.412zm-103.26 8.183c0 3.523 2.899 6.495 6.568 6.495 1.725 0 2.972-0.66 4.44-1.725 0.771-0.551 1.505-1.174 2.825-1.174 1.101 0 1.982 0.404 2.605 0.881 0.954 0.734 1.468 1.761 1.468 3.046 0 1.358-0.587 2.275-1.211 2.972-1.945 2.202-5.944 4.183-10.421 4.183-8.256 0-14.568-6.825-14.568-14.678s6.348-14.678 14.568-14.678c4.44 0 8.33 1.982 10.274 4.183 0.624 0.697 1.211 1.615 1.211 2.972 0 1.248-0.514 2.312-1.468 3.046-0.771 0.587-1.651 0.881-2.605 0.881-1.321 0-2.055-0.624-2.825-1.174-1.321-0.954-2.532-1.725-4.367-1.725-3.595 0-6.494 2.972-6.494 6.495z" fill="#fff"/>
</g>
<g id="g14" transform="translate(-149.71 -269.19)" fill="#fff">
	<path id="path4" d="m197.39 322.8c-3.565-0.956-6.396-3.309-6.396-7.131 0-4.08 3.235-7.683 8.271-7.683 4.301 0 6.58 2.499 7.315 4.301 0.147 0.367 0.221 0.625 0.221 0.845 0 0.515-0.368 0.81-0.919 0.993l-1.029 0.33c-0.662 0.221-1.066 0.11-1.434-0.551-0.809-1.471-2.095-2.39-4.117-2.39-2.72 0-4.632 1.765-4.632 3.934 0 1.874 1.434 3.234 3.345 3.712l2.72 0.699c4.264 1.103 6.763 3.712 6.763 7.204 0 3.896-3.051 7.793-8.675 7.793-5.44 0-7.719-3.676-8.307-5.734-0.331-1.103-0.11-1.507 0.809-1.801l0.956-0.294c1.066-0.331 1.36 0.294 1.654 0.955 0.588 1.25 1.617 3.346 4.962 3.346 3.161 0 4.925-1.912 4.925-4.081 0-1.617-0.956-2.977-3.823-3.749z"/>
	<path id="path6" d="m215.08 334.45c-0.919 0-1.397-0.515-1.397-1.396v-23.269c0-0.882 0.478-1.396 1.397-1.396h8.822c4.375 0 7.903 3.565 7.903 7.939s-3.529 7.903-7.903 7.903h-6.617v8.822c0 0.882-0.478 1.396-1.396 1.396h-0.809zm8.565-13.674c2.463 0 4.484-1.985 4.484-4.448s-2.021-4.484-4.484-4.484h-6.359v8.933h6.359z"/>
	<path id="path8" d="m249.52 334.86c-7.425 0-13.417-5.991-13.417-13.417 0-7.425 5.992-13.453 13.417-13.453s13.454 6.028 13.454 13.453c0 7.426-6.028 13.417-13.454 13.417zm9.778-13.417c0-5.44-4.411-9.925-9.778-9.925s-9.741 4.484-9.741 9.925 4.375 9.889 9.741 9.889 9.778-4.449 9.778-9.889z"/>
	<path id="path10" d="m285.03 334.45c-0.699 0-1.14-0.367-1.323-1.029l-1.323-4.632c-0.662-2.278-2.537-4.558-5.918-4.558h-3.896v8.822c0 0.882-0.478 1.396-1.396 1.396h-0.809c-0.919 0-1.397-0.515-1.397-1.396v-23.269c0-0.882 0.478-1.396 1.397-1.396h8.822c4.375 0 7.903 3.603 7.903 7.939 0 3.015-1.875 5.624-4.558 6.837 1.728 1.25 2.757 2.684 3.345 4.779l1.287 4.447c0.147 0.515 0.221 0.846 0.221 1.029 0 0.588-0.515 1.029-1.176 1.029h-1.179zm-6.102-13.674c2.5 0 4.484-1.948 4.484-4.448 0-2.499-2.021-4.484-4.484-4.484h-6.359v8.933h6.359z"/>
	<path id="path12" d="m301.83 334.45c-0.919 0-1.396-0.515-1.396-1.396v-21.21h-6.396c-0.882 0-1.397-0.478-1.397-1.396v-0.662c0-0.919 0.515-1.396 1.397-1.396h16.394c0.883 0 1.397 0.478 1.397 1.396v0.662c0 0.919-0.515 1.396-1.397 1.396h-6.396v21.21c0 0.882-0.479 1.396-1.397 1.396z"/>
</g>
<g id="g20" transform="translate(-149.71 -269.19)" fill="#fff">
	<path id="path16" d="m342.43 334.45c-0.919 0-1.396-0.515-1.396-1.396v-10.146h-12.719v10.146c0 0.882-0.478 1.396-1.396 1.396h-0.809c-0.919 0-1.397-0.515-1.397-1.396v-23.269c0-0.882 0.479-1.396 1.397-1.396h0.809c0.919 0 1.396 0.515 1.396 1.396v9.704h12.719v-9.704c0-0.882 0.478-1.396 1.396-1.396h0.809c0.919 0 1.396 0.515 1.396 1.396v23.269c0 0.882-0.478 1.396-1.396 1.396z"/>
	<path id="path18" d="m353.38 334.45c-0.919 0-1.397-0.515-1.397-1.396v-23.269c0-0.882 0.479-1.396 1.397-1.396h8.821c6.617 0 12.388 4.521 12.388 13.049 0 8.564-5.845 13.013-12.461 13.013h-8.748zm8.638-3.455c4.815 0 8.858-3.198 8.858-9.558 0-6.322-3.97-9.594-8.785-9.594h-6.506v19.151h6.433z"/>
</g>
</svg>
