<?xml version="1.0" encoding="UTF-8"?>
<!-- Generator: Adobe Illustrator 22.1.0, SVG Export Plug-In . SVG Version: 6.00 Build 0)  -->
<svg id="Lager_1" width="149.65" height="65.263" version="1.1" viewBox="0 0 149.65 65.263" xml:space="preserve" xmlns="http://www.w3.org/2000/svg" xmlns:cc="http://creativecommons.org/ns#" xmlns:dc="http://purl.org/dc/elements/1.1/" xmlns:rdf="http://www.w3.org/1999/02/22-rdf-syntax-ns#"><metadata id="metadata21"><rdf:RDF><cc:Work rdf:about=""><dc:format>image/svg+xml</dc:format><dc:type rdf:resource="http://purl.org/dc/dcmitype/StillImage"/><dc:title/></cc:Work></rdf:RDF></metadata>
<g id="XMLID_28_" transform="translate(-149.71 -269.19)">
	<path id="XMLID_37_" d="m222.73 283.87c0-7.376 6.054-13.393 13.467-13.393 7.412 0 13.467 6.018 13.467 13.393s-6.055 13.357-13.467 13.357c-7.413 0-13.467-5.982-13.467-13.357zm-16.036 2.972c-0.66 0.954-1.138 1.688-2.495 1.688h-0.697c-1.358 0-1.835-0.734-2.495-1.688l-4.44-6.568v14.458c0 1.321-0.771 2.128-2.202 2.128h-0.734c-1.468 0-2.202-0.807-2.202-2.128v-21.76c0-1.358 0.734-2.128 2.202-2.128h0.917c1.248 0 1.798 0.367 2.459 1.321l6.825 10.018 6.862-10.018c0.624-0.954 1.174-1.321 2.459-1.321h0.917c1.468 0 2.202 0.771 2.202 2.128v21.76c0 1.321-0.734 2.128-2.202 2.128h-0.734c-1.468 0-2.202-0.807-2.202-2.128v-14.458zm54.565 7.889c0 1.321-0.734 2.128-2.165 2.128h-0.771c-1.431 0-2.202-0.807-2.202-2.128v-21.76c0-1.358 0.771-2.128 2.202-2.128h8.256c4.587 0 8.293 3.78 8.293 8.256 0 2.679-1.578 5.1-3.816 6.532 1.284 1.101 2.091 2.422 2.605 4.11l1.211 4.183c0.184 0.587 0.257 1.027 0.257 1.284 0 0.954-0.881 1.651-2.018 1.651h-1.101c-1.138 0-1.798-0.551-2.092-1.578l-1.211-4.293c-0.514-1.798-2.091-3.669-4.697-3.669h-2.752v7.412zm23.154 2.129c-1.431 0-2.202-0.807-2.202-2.128v-21.76c0-1.431 0.844-2.128 2.202-2.128h12.036c1.358 0 2.202 0.697 2.202 2.128v0.587c0 1.431-0.844 2.128-2.202 2.128h-9.1v5.798h7.559c1.358 0 2.202 0.697 2.202 2.128v0.624c0 1.394-0.844 2.092-2.202 2.092h-7.559v5.688h9.247c1.394 0 2.202 0.734 2.202 2.128v0.624c0 1.394-0.807 2.092-2.202 2.092h-12.183zm-56.436-12.99c0 4.66 3.669 8.44 8.219 8.44 4.514 0 8.22-3.779 8.22-8.44 0-4.624-3.706-8.44-8.22-8.44-4.55 0-8.219 3.816-8.219 8.44zm33.282-8.183v6.788h5.064c1.871 0 3.302-1.468 3.302-3.376 0-1.871-1.468-3.412-3.302-3.412zm-103.26 8.183c0 3.523 2.899 6.495 6.568 6.495 1.725 0 2.972-0.66 4.44-1.725 0.771-0.551 1.505-1.174 2.825-1.174 1.101 0 1.982 0.404 2.605 0.881 0.954 0.734 1.468 1.761 1.468 3.046 0 1.358-0.587 2.275-1.211 2.972-1.945 2.202-5.944 4.183-10.421 4.183-8.256 0-14.568-6.825-14.568-14.678s6.348-14.678 14.568-14.678c4.44 0 8.33 1.982 10.274 4.183 0.624 0.697 1.211 1.615 1.211 2.972 0 1.248-0.514 2.312-1.468 3.046-0.771 0.587-1.651 0.881-2.605 0.881-1.321 0-2.055-0.624-2.825-1.174-1.321-0.954-2.532-1.725-4.367-1.725-3.595 0-6.494 2.972-6.494 6.495z" fill="#fff"/>
</g>
<g id="g12" transform="translate(-149.71 -269.19)" fill="#fff">
	<path id="path4" d="m192.83 334.45c-0.919 0-1.397-0.515-1.397-1.396v-23.269c0-0.882 0.478-1.396 1.397-1.396h0.809c0.919 0 1.396 0.515 1.396 1.396v21.21h11.101c0.882 0 1.397 0.478 1.397 1.396v0.662c0 0.919-0.515 1.396-1.397 1.396h-13.306z"/>
	<path id="path6" d="m214.78 334.45c-0.919 0-1.397-0.515-1.397-1.396v-23.269c0-0.882 0.478-1.396 1.397-1.396h0.809c0.919 0 1.396 0.515 1.396 1.396v23.269c0 0.882-0.478 1.396-1.396 1.396z"/>
	<path id="path8" d="m234.04 334.45c-0.993 0-1.544-0.552-1.875-1.396l-9.006-22.313c-0.257-0.625-0.478-1.14-0.478-1.471 0-0.367 0.294-0.882 0.992-0.882h1.471c0.845 0 1.066 0.515 1.47 1.507l7.756 19.666 7.719-19.666c0.404-0.992 0.625-1.507 1.471-1.507h1.47c0.698 0 0.992 0.515 0.992 0.882 0 0.331-0.22 0.846-0.478 1.471l-8.933 22.313c-0.331 0.845-0.882 1.396-1.875 1.396z"/>
	<path id="path10" d="m253.3 334.45c-0.919 0-1.397-0.515-1.397-1.396v-23.269c0-0.919 0.515-1.396 1.397-1.396h12.865c0.882 0 1.397 0.478 1.397 1.396v0.662c0 0.919-0.515 1.396-1.397 1.396h-10.66v7.866h9.006c0.882 0 1.397 0.478 1.397 1.396v0.662c0 0.919-0.515 1.396-1.397 1.396h-9.006v7.83h10.844c0.882 0 1.397 0.478 1.397 1.396v0.662c0 0.919-0.515 1.396-1.397 1.396h-13.049z"/>
</g>
<path id="path14" d="m143.37 65.263c-0.919 0-1.397-0.515-1.397-1.396v-4.705h-9.925c-0.919 0-1.396-0.515-1.396-1.397v-0.955c0-0.846 0.22-1.434 0.882-2.353l10.256-14.226c0.515-0.698 0.809-1.029 1.801-1.029h0.588c0.919 0 1.397 0.515 1.397 1.396v15.218h2.683c0.882 0 1.397 0.479 1.397 1.397v0.551c0 0.919-0.515 1.397-1.397 1.397h-2.683v4.705c0 0.882-0.478 1.396-1.397 1.396h-0.809zm-1.397-19.85-7.535 10.402h7.535z" fill="#fff"/>
</svg>
