<svg id="a" version="1.1" viewBox="0 0 276.07 138.48" xml:space="preserve" xmlns="http://www.w3.org/2000/svg">
<g id="b" transform="translate(-149.7 -269.19)" fill="#fff">
	<path id="c" d="m222.73 283.87c0-7.376 6.054-13.393 13.467-13.393 7.412 0 13.467 6.018 13.467 13.393s-6.055 13.357-13.467 13.357c-7.413 0-13.467-5.982-13.467-13.357zm-16.036 2.972c-0.66 0.954-1.138 1.688-2.495 1.688h-0.697c-1.358 0-1.835-0.734-2.495-1.688l-4.44-6.568v14.458c0 1.321-0.771 2.128-2.202 2.128h-0.734c-1.468 0-2.202-0.807-2.202-2.128v-21.76c0-1.358 0.734-2.128 2.202-2.128h0.917c1.248 0 1.798 0.367 2.459 1.321l6.825 10.018 6.862-10.018c0.624-0.954 1.174-1.321 2.459-1.321h0.917c1.468 0 2.202 0.771 2.202 2.128v21.76c0 1.321-0.734 2.128-2.202 2.128h-0.734c-1.468 0-2.202-0.807-2.202-2.128v-14.458zm54.565 7.889c0 1.321-0.734 2.128-2.165 2.128h-0.771c-1.431 0-2.202-0.807-2.202-2.128v-21.76c0-1.358 0.771-2.128 2.202-2.128h8.256c4.587 0 8.293 3.78 8.293 8.256 0 2.679-1.578 5.1-3.816 6.532 1.284 1.101 2.091 2.422 2.605 4.11l1.211 4.183c0.184 0.587 0.257 1.027 0.257 1.284 0 0.954-0.881 1.651-2.018 1.651h-1.101c-1.138 0-1.798-0.551-2.092-1.578l-1.211-4.293c-0.514-1.798-2.091-3.669-4.697-3.669h-2.752v7.412zm23.154 2.129c-1.431 0-2.202-0.807-2.202-2.128v-21.76c0-1.431 0.844-2.128 2.202-2.128h12.036c1.358 0 2.202 0.697 2.202 2.128v0.587c0 1.431-0.844 2.128-2.202 2.128h-9.1v5.798h7.559c1.358 0 2.202 0.697 2.202 2.128v0.624c0 1.394-0.844 2.092-2.202 2.092h-7.559v5.688h9.247c1.394 0 2.202 0.734 2.202 2.128v0.624c0 1.394-0.807 2.092-2.202 2.092h-12.183zm-56.436-12.99c0 4.66 3.669 8.44 8.219 8.44 4.514 0 8.22-3.779 8.22-8.44 0-4.624-3.706-8.44-8.22-8.44-4.55 0-8.219 3.816-8.219 8.44zm33.282-8.183v6.788h5.064c1.871 0 3.302-1.468 3.302-3.376 0-1.871-1.468-3.412-3.302-3.412zm-103.26 8.183c0 3.523 2.899 6.495 6.568 6.495 1.725 0 2.972-0.66 4.44-1.725 0.771-0.551 1.505-1.174 2.825-1.174 1.101 0 1.982 0.404 2.605 0.881 0.954 0.734 1.468 1.761 1.468 3.046 0 1.358-0.587 2.275-1.211 2.972-1.945 2.202-5.944 4.183-10.421 4.183-8.256 0-14.568-6.825-14.568-14.678s6.348-14.678 14.568-14.678c4.44 0 8.33 1.982 10.274 4.183 0.624 0.697 1.211 1.615 1.211 2.972 0 1.248-0.514 2.312-1.468 3.046-0.771 0.587-1.651 0.881-2.605 0.881-1.321 0-2.055-0.624-2.825-1.174-1.321-0.954-2.532-1.725-4.367-1.725-3.595 0-6.494 2.972-6.494 6.495z" fill="#fff"/>
</g>
<g id="d" transform="translate(-20.72 106.79)" fill="#fff"><g id="e" transform="translate(-128.98 -375.98)"><path id="f" d="m393.61 334.45c-0.919 0-1.396-0.515-1.396-1.396v-10.146h-12.719v10.146c0 0.882-0.478 1.396-1.396 1.396h-0.809c-0.919 0-1.397-0.515-1.397-1.396v-23.269c0-0.882 0.479-1.396 1.397-1.396h0.809c0.919 0 1.396 0.515 1.396 1.396v9.704h12.719v-9.704c0-0.882 0.478-1.396 1.396-1.396h0.809c0.919 0 1.396 0.515 1.396 1.396v23.269c0 0.882-0.478 1.396-1.396 1.396z"/><path id="g" d="m404.57 334.45c-0.919 0-1.397-0.515-1.397-1.396v-23.269c0-0.882 0.479-1.396 1.397-1.396h8.821c6.617 0 12.388 4.521 12.388 13.049 0 8.564-5.845 13.013-12.461 13.013h-8.748zm8.638-3.455c4.815 0 8.858-3.198 8.858-9.558 0-6.322-3.97-9.594-8.785-9.594h-6.506v19.151h6.433z"/></g><g id="h" transform="translate(-128.98 -375.98)"><path id="i" d="m192.83 334.45c-0.919 0-1.397-0.515-1.397-1.396v-23.269c0-0.919 0.515-1.396 1.397-1.396h12.682c0.882 0 1.396 0.478 1.396 1.396v0.662c0 0.919-0.515 1.396-1.396 1.396h-10.477v8.234h9.006c0.882 0 1.397 0.478 1.397 1.396v0.661c0 0.919-0.515 1.397-1.397 1.397h-9.006v9.521c0 0.882-0.478 1.396-1.396 1.396h-0.809z"/><path id="j" d="m224.52 334.86c-7.425 0-13.417-5.991-13.417-13.417 0-7.425 5.992-13.453 13.417-13.453s13.454 6.028 13.454 13.453c0 7.426-6.028 13.417-13.454 13.417zm9.778-13.417c0-5.44-4.411-9.925-9.778-9.925s-9.741 4.484-9.741 9.925 4.375 9.889 9.741 9.889 9.778-4.449 9.778-9.889z"/><path id="k" d="m250.58 334.45c-0.919 0-1.397-0.515-1.397-1.396v-21.21h-6.396c-0.882 0-1.397-0.478-1.397-1.396v-0.662c0-0.919 0.515-1.396 1.397-1.396h16.394c0.882 0 1.397 0.478 1.397 1.396v0.662c0 0.919-0.515 1.396-1.397 1.396h-6.396v21.21c0 0.882-0.478 1.396-1.397 1.396z"/><path id="l" d="m267.86 334.45c-0.919 0-1.397-0.515-1.397-1.396v-23.269c0-0.882 0.478-1.396 1.397-1.396h8.197c4.962 0 7.866 2.757 7.866 7.058 0 2.793-1.47 4.778-3.528 5.624 2.977 0.919 4.705 3.051 4.705 6.249 0 4.374-3.272 7.131-8.05 7.131h-9.19zm8.528-14.814c2.463 0 3.896-1.691 3.896-3.934 0-2.426-1.801-3.859-4.779-3.859h-5.44v7.793zm0.147 11.359c2.904 0 4.889-1.471 4.889-3.934 0-2.315-1.691-4.043-5.109-4.043h-6.249v7.977z"/><path id="m" d="m303.51 334.86c-7.425 0-13.417-5.991-13.417-13.417 0-7.425 5.992-13.453 13.417-13.453s13.454 6.028 13.454 13.453c0 7.426-6.028 13.417-13.454 13.417zm9.778-13.417c0-5.44-4.411-9.925-9.778-9.925s-9.741 4.484-9.741 9.925 4.375 9.889 9.741 9.889 9.778-4.449 9.778-9.889z"/><path id="n" d="m324.36 334.45c-0.919 0-1.397-0.515-1.397-1.396v-23.269c0-0.882 0.479-1.396 1.397-1.396h0.809c0.919 0 1.396 0.515 1.396 1.396v21.21h11.101c0.883 0 1.397 0.478 1.397 1.396v0.662c0 0.919-0.515 1.396-1.397 1.396h-13.306z"/><path id="o" d="m346.67 334.45c-0.919 0-1.397-0.515-1.397-1.396v-23.269c0-0.882 0.479-1.396 1.397-1.396h0.809c0.919 0 1.396 0.515 1.396 1.396v21.21h11.101c0.883 0 1.397 0.478 1.397 1.396v0.662c0 0.919-0.515 1.396-1.397 1.396h-13.306z"/></g></g><g id="p" transform="translate(126.12 -159.5)" fill="#fff"><g id="q" transform="translate(-275.82 -73.38)"><path id="r" d="m378.73 334.45c-0.919 0-1.396-0.515-1.396-1.396v-10.146h-12.719v10.146c0 0.882-0.478 1.396-1.396 1.396h-0.809c-0.919 0-1.397-0.515-1.397-1.396v-23.269c0-0.882 0.479-1.396 1.397-1.396h0.809c0.919 0 1.396 0.515 1.396 1.396v9.704h12.719v-9.704c0-0.882 0.478-1.396 1.396-1.396h0.809c0.919 0 1.396 0.515 1.396 1.396v23.269c0 0.882-0.478 1.396-1.396 1.396z"/><path id="s" d="m389.68 334.45c-0.919 0-1.397-0.515-1.397-1.396v-23.269c0-0.882 0.479-1.396 1.397-1.396h8.821c6.617 0 12.388 4.521 12.388 13.049 0 8.564-5.845 13.013-12.461 13.013h-8.748zm8.638-3.455c4.815 0 8.858-3.198 8.858-9.558 0-6.322-3.97-9.594-8.785-9.594h-6.506v19.151h6.433z"/></g><g id="t" transform="translate(-275.82 -73.38)"><path id="u" d="m209.15 334.45c-0.919 0-1.396-0.515-1.396-1.396v-10.146h-12.719v10.146c0 0.882-0.478 1.396-1.396 1.396h-0.809c-0.919 0-1.397-0.515-1.397-1.396v-23.269c0-0.882 0.478-1.396 1.397-1.396h0.809c0.919 0 1.396 0.515 1.396 1.396v9.704h12.719v-9.704c0-0.882 0.478-1.396 1.396-1.396h0.809c0.919 0 1.396 0.515 1.396 1.396v23.269c0 0.882-0.478 1.396-1.396 1.396z"/><path id="v" d="m230.4 334.86c-7.425 0-13.417-5.991-13.417-13.417 0-7.425 5.992-13.453 13.417-13.453s13.454 6.028 13.454 13.453c-1e-3 7.426-6.029 13.417-13.454 13.417zm9.778-13.417c0-5.44-4.411-9.925-9.778-9.925s-9.741 4.484-9.741 9.925 4.375 9.889 9.741 9.889 9.778-4.449 9.778-9.889z"/><path id="w" d="m253.26 321.4c0 5.477 4.375 9.925 9.741 9.925 2.683 0 4.999-1.066 7.131-3.198 0.772-0.772 1.434-0.772 2.059-0.184l0.625 0.588c0.698 0.661 0.809 1.25 0.184 1.911-2.426 2.684-5.992 4.411-9.998 4.411-7.425 0-13.417-5.991-13.417-13.417 0-7.425 5.992-13.453 13.417-13.453 4.006 0 7.572 1.728 9.998 4.411 0.625 0.661 0.515 1.249-0.184 1.911l-0.625 0.588c-0.845 0.809-1.544 0.294-2.059-0.184-1.434-1.323-3.492-3.198-7.131-3.198-5.367 0-9.741 4.484-9.741 9.889z"/><path id="x" d="m297.12 334.45c-0.662 0-0.992-0.331-1.617-1.103l-8.602-10.66-2.573 2.72v7.646c0 0.882-0.478 1.396-1.396 1.396h-0.809c-0.919 0-1.397-0.515-1.397-1.396v-23.269c0-0.882 0.478-1.396 1.397-1.396h0.809c0.919 0 1.396 0.515 1.396 1.396v10.771l10.439-11.064c0.699-0.735 1.14-1.103 1.801-1.103h1.434c0.551 0 1.103 0.331 1.103 1.103 0 0.257-0.074 0.515-0.294 0.735l-9.41 9.852 9.888 12.534c0.257 0.331 0.294 0.588 0.294 0.771 0 0.589-0.441 1.066-1.103 1.066h-1.36z"/><path id="y" d="m307.6 334.45c-0.919 0-1.397-0.515-1.397-1.396v-23.269c0-0.919 0.515-1.396 1.397-1.396h12.865c0.882 0 1.397 0.478 1.397 1.396v0.662c0 0.919-0.515 1.396-1.397 1.396h-10.66v7.866h9.006c0.882 0 1.397 0.478 1.397 1.396v0.662c0 0.919-0.515 1.396-1.397 1.396h-9.006v7.83h10.844c0.882 0 1.397 0.478 1.397 1.396v0.662c0 0.919-0.515 1.396-1.397 1.396h-13.049z"/><path id="z" d="m337.38 334.45c-0.919 0-1.396-0.515-1.396-1.396v-9.631l-8.05-13.196c-0.257-0.404-0.294-0.625-0.294-0.772 0-0.515 0.441-1.065 1.103-1.065h1.36c0.625 0 1.213 0.331 1.654 1.103l6.139 10.55 6.102-10.55c0.441-0.735 1.029-1.103 1.654-1.103h1.176c0.662 0 1.103 0.551 1.103 1.065 0 0.147-0.037 0.368-0.294 0.772l-8.05 13.196v9.631c0 0.882-0.478 1.396-1.396 1.396z"/></g></g><g id="aa" transform="translate(7.9985 -102.22)" fill="#fff"><g id="ab" transform="translate(-157.7 -94.351)"><path id="ac" d="m198.39 322.91c-3.589-0.962-6.438-3.33-6.438-7.179 0-4.107 3.256-7.732 8.326-7.732 4.292 0 6.697 2.553 7.363 4.328 0.407 1.074 0.148 1.592-0.703 1.851l-1.036 0.333c-0.667 0.223-1.073 0.111-1.443-0.555-0.814-1.48-2.109-2.406-4.144-2.406-2.738 0-4.663 1.777-4.663 3.96 0 1.888 1.443 3.257 3.367 3.737l2.738 0.703c4.292 1.109 6.809 3.737 6.809 7.252 0 3.923-3.071 7.846-8.733 7.846-5.476 0-7.771-3.701-8.362-5.773-0.333-1.109-0.074-1.554 0.814-1.813l0.962-0.297c1.073-0.332 1.369 0.297 1.665 0.963 0.592 1.258 1.628 3.367 4.996 3.367 3.182 0 4.958-1.924 4.958-4.107 0-1.629-0.962-2.997-3.849-3.774z"/><path id="ad" d="m221.52 334.64c-0.925 0-1.406-0.518-1.406-1.406v-21.35h-6.438c-0.888 0-1.406-0.481-1.406-1.406v-0.666c0-0.926 0.518-1.406 1.406-1.406h16.503c0.888 0 1.406 0.48 1.406 1.406v0.666c0 0.925-0.518 1.406-1.406 1.406h-6.438v21.35c0 0.889-0.481 1.406-1.406 1.406z"/><path id="ae" d="m253.71 334.64c-0.851 0-1.073-0.518-1.48-1.517l-2.183-5.439h-11.211l-2.184 5.439c-0.407 0.999-0.629 1.517-1.48 1.517h-1.48c-0.703 0-0.999-0.518-0.999-0.888 0-0.333 0.222-0.851 0.481-1.479l9.065-22.461c0.333-0.852 0.888-1.406 1.887-1.406h0.703c0.999 0 1.554 0.555 1.887 1.406l8.992 22.461c0.259 0.629 0.481 1.146 0.481 1.479 0 0.37-0.296 0.888-0.999 0.888zm-9.251-20.944-4.292 10.62h8.547z"/><path id="af" d="m277.91 334.64c-0.703 0-1.147-0.369-1.332-1.035l-1.333-4.662c-0.666-2.295-2.553-4.589-5.957-4.589h-3.922v8.88c0 0.889-0.481 1.406-1.406 1.406h-0.814c-0.925 0-1.406-0.518-1.406-1.406v-23.422c0-0.889 0.481-1.406 1.406-1.406h8.88c4.403 0 7.956 3.627 7.956 7.992 0 3.035-1.887 5.662-4.588 6.883 1.739 1.258 2.775 2.701 3.367 4.811l1.295 4.477c0.148 0.519 0.222 0.852 0.222 1.037 0 0.592-0.518 1.035-1.184 1.035h-1.184zm-6.142-13.765c2.516 0 4.514-1.961 4.514-4.478 0-2.516-2.035-4.514-4.514-4.514h-6.401v8.991h6.401z"/><path id="ag" d="m293.19 322.91c-3.589-0.962-6.438-3.33-6.438-7.179 0-4.107 3.256-7.732 8.326-7.732 4.292 0 6.697 2.553 7.363 4.328 0.408 1.074 0.148 1.592-0.703 1.851l-1.035 0.333c-0.666 0.223-1.073 0.111-1.443-0.555-0.814-1.48-2.109-2.406-4.144-2.406-2.738 0-4.663 1.777-4.663 3.96 0 1.888 1.443 3.257 3.367 3.737l2.738 0.703c4.293 1.109 6.809 3.737 6.809 7.252 0 3.923-3.071 7.846-8.733 7.846-5.476 0-7.771-3.701-8.362-5.773-0.333-1.109-0.074-1.554 0.814-1.813l0.962-0.297c1.073-0.332 1.369 0.297 1.665 0.963 0.592 1.258 1.628 3.367 4.996 3.367 3.182 0 4.958-1.924 4.958-4.107 0-1.629-0.962-2.997-3.849-3.774z"/></g><g id="ah" transform="translate(-157.7 -94.351)"><path id="ai" d="m334.89 334.56c-0.919 0-1.396-0.515-1.396-1.396v-10.146h-12.719v10.146c0 0.882-0.478 1.396-1.396 1.396h-0.809c-0.919 0-1.397-0.515-1.397-1.396v-23.269c0-0.882 0.479-1.396 1.397-1.396h0.809c0.919 0 1.396 0.515 1.396 1.396v9.704h12.719v-9.704c0-0.882 0.478-1.396 1.396-1.396h0.809c0.919 0 1.396 0.515 1.396 1.396v23.269c0 0.882-0.478 1.396-1.396 1.396z"/><path id="aj" d="m345.84 334.56c-0.919 0-1.397-0.515-1.397-1.396v-23.269c0-0.882 0.479-1.396 1.397-1.396h8.821c6.617 0 12.388 4.521 12.388 13.049 0 8.564-5.845 13.013-12.461 13.013h-8.748zm8.638-3.455c4.815 0 8.858-3.198 8.858-9.558 0-6.322-3.97-9.594-8.785-9.594h-6.506v19.152z"/></g></g></svg>
