<?xml version="1.0" encoding="UTF-8"?>
<svg id="svg14" version="1.1" viewBox="0 0 373.11 164.13" xmlns="http://www.w3.org/2000/svg" xmlns:cc="http://creativecommons.org/ns#" xmlns:dc="http://purl.org/dc/elements/1.1/" xmlns:rdf="http://www.w3.org/1999/02/22-rdf-syntax-ns#">
 <metadata id="metadata20">
  <rdf:RDF>
   <cc:Work rdf:about="">
    <dc:format>image/svg+xml</dc:format>
    <dc:type rdf:resource="http://purl.org/dc/dcmitype/StillImage"/>
    <dc:title>CMORE_MAX_2row_RGB</dc:title>
   </cc:Work>
  </rdf:RDF>
 </metadata>
 <title id="title2">CMORE_MAX_2row_RGB</title>
 <g id="Layer_2" fill="#370505" data-name="Layer 2">
  <g id="Color" fill="#370505">
   <path id="path4" class="cls-1" d="M182.74,36.73a33.7,33.7,0,1,1,33.7,33.43,33.69,33.69,0,0,1-33.7-33.43m-40.13,7.44c-1.65,2.39-2.85,4.23-6.24,4.23h-1.74c-3.4,0-4.59-1.84-6.25-4.23L117.27,27.73V63.92c0,3.3-1.93,5.33-5.51,5.33h-1.84c-3.67,0-5.51-2-5.51-5.33V9.46c0-3.4,1.84-5.33,5.51-5.33h2.3c3.12,0,4.5.92,6.15,3.31l17.08,25.07L152.62,7.44c1.56-2.39,2.94-3.31,6.15-3.31h2.3c3.67,0,5.51,1.93,5.51,5.33V63.92c0,3.3-1.84,5.33-5.51,5.33h-1.84c-3.67,0-5.51-2-5.51-5.33V27.73ZM279.17,63.92c0,3.3-1.84,5.33-5.42,5.33h-1.93c-3.58,0-5.51-2-5.51-5.33V9.46c0-3.4,1.93-5.33,5.51-5.33h20.66a20.83,20.83,0,0,1,20.75,20.66c0,6.7-3.95,12.76-9.55,16.35a20.91,20.91,0,0,1,6.52,10.29l3,10.47a11.92,11.92,0,0,1,.64,3.21c0,2.39-2.2,4.13-5.05,4.13h-2.75a4.93,4.93,0,0,1-5.23-3.95l-3-10.75c-1.28-4.5-5.23-9.18-11.76-9.18h-6.89Zm57.94,5.33c-3.58,0-5.51-2-5.51-5.33V9.46c0-3.58,2.11-5.33,5.51-5.33h30.12c3.4,0,5.51,1.74,5.51,5.33v1.47c0,3.58-2.11,5.33-5.51,5.33H344.46V30.76h18.92c3.4,0,5.51,1.74,5.51,5.33v1.56c0,3.49-2.11,5.23-5.51,5.23H344.46V57.12H367.6c3.49,0,5.51,1.84,5.51,5.33V64c0,3.49-2,5.23-5.51,5.23ZM195.88,36.73c0,11.66,9.18,21.12,20.57,21.12S237,48.4,237,36.73s-9.27-21.12-20.57-21.12-20.57,9.55-20.57,21.12m83.29-20.48v17h12.67a8.22,8.22,0,0,0,8.26-8.45,8.41,8.41,0,0,0-8.26-8.54ZM20.75,36.73A16.38,16.38,0,0,0,37.19,53c4.32,0,7.44-1.65,11.11-4.32,1.93-1.38,3.77-2.94,7.07-2.94a10.66,10.66,0,0,1,6.52,2.2,9.19,9.19,0,0,1,3.67,7.62,10.7,10.7,0,0,1-3,7.44c-4.87,5.51-14.88,10.47-26.08,10.47C15.8,73.46,0,56.38,0,36.73S15.89,0,36.46,0C47.57,0,57.3,5,62.17,10.47a10.71,10.71,0,0,1,3,7.44,9.32,9.32,0,0,1-3.67,7.62A10.55,10.55,0,0,1,55,27.73c-3.31,0-5.14-1.56-7.07-2.94C44.63,22.41,41.6,20.48,37,20.48A16.34,16.34,0,0,0,20.75,36.73"/>
   <path id="path6" class="cls-1" d="M160.62,164.13a3.15,3.15,0,0,1-3.49-3.49V114.35l-16.26,24.06c-1.47,2.11-2.2,3.49-4.68,3.49h-1.84c-2.48,0-3.3-1.38-4.68-3.49l-16.26-24.06v46.29a3.15,3.15,0,0,1-3.49,3.49h-2a3.15,3.15,0,0,1-3.49-3.49V102.5A3.15,3.15,0,0,1,107.9,99h2.48c2.3,0,3.31.64,4.59,2.57l20.3,29.85,20.3-29.85c1.29-1.93,2.3-2.57,4.59-2.57h2.48a3.15,3.15,0,0,1,3.49,3.49v58.13a3.15,3.15,0,0,1-3.49,3.49Z"/>
   <path id="path8" class="cls-1" d="M230.24,164.13c-2.11,0-2.66-1.29-3.67-3.76l-5.42-13.5H193.32l-5.42,13.5c-1,2.48-1.56,3.76-3.67,3.76h-3.67a2.3,2.3,0,0,1-2.48-2.2,12.6,12.6,0,0,1,1.19-3.67l22.5-55.75c.83-2.11,2.2-3.49,4.68-3.49h1.74c2.48,0,3.86,1.38,4.68,3.49l22.32,55.75a12.63,12.63,0,0,1,1.19,3.67,2.3,2.3,0,0,1-2.48,2.2Zm-23-52-10.65,26.36h21.21Z"/>
   <path id="path10" class="cls-1" d="M286.91,164.13c-1.56,0-2.76-.64-4.13-2.75L268,139.15l-14.7,22.22c-1.29,2-2.57,2.75-4.13,2.75H246a2.72,2.72,0,0,1-2.75-2.48,4,4,0,0,1,.73-2.11l18.92-27.92-18.83-28a4,4,0,0,1-.73-2.11A2.72,2.72,0,0,1,246.13,99h3.4c1.65,0,2.76.74,4.13,2.76l14.7,22,14.6-22c1.38-2,2.48-2.76,4.13-2.76h3.12A2.72,2.72,0,0,1,293,101.5a4,4,0,0,1-.73,2.11l-18.83,27.83,18.92,28.1a4,4,0,0,1,.73,2.11,2.72,2.72,0,0,1-2.75,2.48Z"/>
  </g>
 </g>
</svg>
