<svg id="a" version="1.1" viewBox="0 0 213.25 65.667" xml:space="preserve" xmlns="http://www.w3.org/2000/svg">
<g id="b" transform="translate(-149.71 -269.19)">
	<path id="c" d="m222.73 283.87c0-7.376 6.054-13.393 13.467-13.393 7.412 0 13.467 6.018 13.467 13.393s-6.055 13.357-13.467 13.357c-7.413 0-13.467-5.982-13.467-13.357zm-16.036 2.972c-0.66 0.954-1.138 1.688-2.495 1.688h-0.697c-1.358 0-1.835-0.734-2.495-1.688l-4.44-6.568v14.458c0 1.321-0.771 2.128-2.202 2.128h-0.734c-1.468 0-2.202-0.807-2.202-2.128v-21.76c0-1.358 0.734-2.128 2.202-2.128h0.917c1.248 0 1.798 0.367 2.459 1.321l6.825 10.018 6.862-10.018c0.624-0.954 1.174-1.321 2.459-1.321h0.917c1.468 0 2.202 0.771 2.202 2.128v21.76c0 1.321-0.734 2.128-2.202 2.128h-0.734c-1.468 0-2.202-0.807-2.202-2.128v-14.458zm54.565 7.889c0 1.321-0.734 2.128-2.165 2.128h-0.771c-1.431 0-2.202-0.807-2.202-2.128v-21.76c0-1.358 0.771-2.128 2.202-2.128h8.256c4.587 0 8.293 3.78 8.293 8.256 0 2.679-1.578 5.1-3.816 6.532 1.284 1.101 2.091 2.422 2.605 4.11l1.211 4.183c0.184 0.587 0.257 1.027 0.257 1.284 0 0.954-0.881 1.651-2.018 1.651h-1.101c-1.138 0-1.798-0.551-2.092-1.578l-1.211-4.293c-0.514-1.798-2.091-3.669-4.697-3.669h-2.752v7.412zm23.154 2.129c-1.431 0-2.202-0.807-2.202-2.128v-21.76c0-1.431 0.844-2.128 2.202-2.128h12.036c1.358 0 2.202 0.697 2.202 2.128v0.587c0 1.431-0.844 2.128-2.202 2.128h-9.1v5.798h7.559c1.358 0 2.202 0.697 2.202 2.128v0.624c0 1.394-0.844 2.092-2.202 2.092h-7.559v5.688h9.247c1.394 0 2.202 0.734 2.202 2.128v0.624c0 1.394-0.807 2.092-2.202 2.092h-12.183zm-56.436-12.99c0 4.66 3.669 8.44 8.219 8.44 4.514 0 8.22-3.779 8.22-8.44 0-4.624-3.706-8.44-8.22-8.44-4.55 0-8.219 3.816-8.219 8.44zm33.282-8.183v6.788h5.064c1.871 0 3.302-1.468 3.302-3.376 0-1.871-1.468-3.412-3.302-3.412zm-103.26 8.183c0 3.523 2.899 6.495 6.568 6.495 1.725 0 2.972-0.66 4.44-1.725 0.771-0.551 1.505-1.174 2.825-1.174 1.101 0 1.982 0.404 2.605 0.881 0.954 0.734 1.468 1.761 1.468 3.046 0 1.358-0.587 2.275-1.211 2.972-1.945 2.202-5.944 4.183-10.421 4.183-8.256 0-14.568-6.825-14.568-14.678s6.348-14.678 14.568-14.678c4.44 0 8.33 1.982 10.274 4.183 0.624 0.697 1.211 1.615 1.211 2.972 0 1.248-0.514 2.312-1.468 3.046-0.771 0.587-1.651 0.881-2.605 0.881-1.321 0-2.055-0.624-2.825-1.174-1.321-0.954-2.532-1.725-4.367-1.725-3.595 0-6.494 2.972-6.494 6.495z" fill="#fff"/>
</g>
<g id="d" transform="translate(-149.71 -269.19)" fill="#fff">
	<path id="e" d="m330.79 334.45c-0.919 0-1.396-0.515-1.396-1.396v-10.146h-12.719v10.146c0 0.882-0.478 1.396-1.396 1.396h-0.809c-0.919 0-1.397-0.515-1.397-1.396v-23.269c0-0.882 0.479-1.396 1.397-1.396h0.809c0.919 0 1.396 0.515 1.396 1.396v9.704h12.719v-9.704c0-0.882 0.478-1.396 1.396-1.396h0.809c0.919 0 1.396 0.515 1.396 1.396v23.269c0 0.882-0.478 1.396-1.396 1.396z"/>
	<path id="f" d="m341.74 334.45c-0.919 0-1.397-0.515-1.397-1.396v-23.269c0-0.882 0.479-1.396 1.397-1.396h8.821c6.617 0 12.388 4.521 12.388 13.049 0 8.564-5.845 13.013-12.461 13.013h-8.748zm8.638-3.455c4.815 0 8.858-3.198 8.858-9.558 0-6.322-3.97-9.594-8.785-9.594h-6.506v19.151h6.433z"/>
</g>
<g id="g" transform="translate(-149.71 -269.19)" fill="#fff">
	<path id="h" d="m192.83 334.45c-0.919 0-1.397-0.515-1.397-1.396v-23.269c0-0.882 0.478-1.396 1.397-1.396h0.809c0.919 0 1.396 0.515 1.396 1.396v21.21h11.101c0.882 0 1.397 0.478 1.397 1.396v0.662c0 0.919-0.515 1.396-1.397 1.396h-13.306z"/>
	<path id="i" d="m214.78 334.45c-0.919 0-1.397-0.515-1.397-1.396v-23.269c0-0.882 0.478-1.396 1.397-1.396h0.809c0.919 0 1.396 0.515 1.396 1.396v23.269c0 0.882-0.478 1.396-1.396 1.396z"/>
	<path id="j" d="m234.04 334.45c-0.993 0-1.544-0.552-1.875-1.396l-9.006-22.313c-0.257-0.625-0.478-1.14-0.478-1.471 0-0.367 0.294-0.882 0.992-0.882h1.471c0.845 0 1.066 0.515 1.47 1.507l7.756 19.666 7.719-19.666c0.404-0.992 0.625-1.507 1.471-1.507h1.47c0.698 0 0.992 0.515 0.992 0.882 0 0.331-0.22 0.846-0.478 1.471l-8.933 22.313c-0.331 0.845-0.882 1.396-1.875 1.396z"/>
	<path id="k" d="m253.3 334.45c-0.919 0-1.397-0.515-1.397-1.396v-23.269c0-0.919 0.515-1.396 1.397-1.396h12.865c0.882 0 1.397 0.478 1.397 1.396v0.662c0 0.919-0.515 1.396-1.397 1.396h-10.66v7.866h9.006c0.882 0 1.397 0.478 1.397 1.396v0.662c0 0.919-0.515 1.396-1.397 1.396h-9.006v7.83h10.844c0.882 0 1.397 0.478 1.397 1.396v0.662c0 0.919-0.515 1.396-1.397 1.396h-13.049z"/>
</g>
<path id="l" d="m140.36 53.243c-0.882 0-1.47-0.515-1.47-1.434v-0.441c0-0.919 0.588-1.434 1.47-1.434h0.11c2.573 0 4.484-1.36 4.484-3.896 0-2.096-1.911-3.786-4.484-3.786-2.904 0-4.374 1.69-4.484 3.786-0.037 0.698-0.257 1.396-1.47 1.396h-0.809c-0.845 0-1.323-0.367-1.323-1.396 0-4.007 3.235-7.241 8.087-7.241 4.558 0 8.161 2.978 8.161 6.983 0 2.831-1.36 4.926-3.162 5.809 2.316 0.845 4.154 3.234 4.154 6.359 0 4.337-3.418 7.719-9.189 7.719-5.293 0-8.859-3.234-8.859-7.241 0-1.029 0.478-1.396 1.323-1.396h0.809c1.213 0 1.434 0.698 1.471 1.396 0.11 2.095 1.838 3.786 5.146 3.786 3.639 0 5.624-1.948 5.624-4.521 0-2.757-2.5-4.447-5.256-4.447h-0.333z" fill="#fff"/>
</svg>
