<?xml version="1.0" encoding="UTF-8"?>
<svg id="svg24" version="1.1" viewBox="0 0 261.75 65.72" xmlns="http://www.w3.org/2000/svg" xmlns:cc="http://creativecommons.org/ns#" xmlns:dc="http://purl.org/dc/elements/1.1/" xmlns:rdf="http://www.w3.org/1999/02/22-rdf-syntax-ns#">
 <metadata id="metadata30">
  <rdf:RDF>
   <cc:Work rdf:about="">
    <dc:format>image/svg+xml</dc:format>
    <dc:type rdf:resource="http://purl.org/dc/dcmitype/StillImage"/>
    <dc:title/>
   </cc:Work>
  </rdf:RDF>
 </metadata>
 <g id="Layer_2" fill="#370505" data-name="Layer 2">
  <g id="Lager_1" fill="#370505" data-name="Lager 1">
   <g id="_Group_" data-name="&lt;Group&gt;">
    <path id="_Compound_Path_" class="cls-1" d="M73,14.68A13.47,13.47,0,1,1,86.49,28,13.46,13.46,0,0,1,73,14.68Zm-16,3c-.66,1-1.14,1.69-2.5,1.69h-.7c-1.36,0-1.83-.73-2.5-1.69l-4.44-6.57V25.54a2,2,0,0,1-2.2,2.13h-.73a2,2,0,0,1-2.2-2.13V3.78a1.94,1.94,0,0,1,2.2-2.13h.92A2.53,2.53,0,0,1,47.3,3l6.83,10L61,3a2.47,2.47,0,0,1,2.46-1.32h.92a1.94,1.94,0,0,1,2.2,2.13V25.54a2,2,0,0,1-2.2,2.13h-.73a2,2,0,0,1-2.2-2.13V11.08Zm54.56,7.89a1.94,1.94,0,0,1-2.17,2.13h-.77a2,2,0,0,1-2.2-2.13V3.78a2,2,0,0,1,2.2-2.13h8.26a8.32,8.32,0,0,1,8.29,8.26,7.93,7.93,0,0,1-3.82,6.53A8.36,8.36,0,0,1,124,20.55l1.21,4.18a4.77,4.77,0,0,1,.26,1.28,1.82,1.82,0,0,1-2,1.65h-1.1a2,2,0,0,1-2.09-1.58L119,21.8a4.87,4.87,0,0,0-4.7-3.67h-2.75Zm23.15,2.13a2,2,0,0,1-2.2-2.13V3.78a2,2,0,0,1,2.2-2.13h12a2,2,0,0,1,2.2,2.13v.59a2,2,0,0,1-2.2,2.13h-9.1v5.8h7.56a2,2,0,0,1,2.2,2.13V15a1.94,1.94,0,0,1-2.2,2.09h-7.56v5.69h9.25a2,2,0,0,1,2.2,2.13v.62a1.93,1.93,0,0,1-2.2,2.09Zm-56.44-13a8.22,8.22,0,1,0,16.44,0,8.22,8.22,0,1,0-16.44,0Zm33.28-8.18v6.79h5.06a3.28,3.28,0,0,0,3.3-3.38,3.36,3.36,0,0,0-3.3-3.41ZM8.29,14.68a6.55,6.55,0,0,0,6.57,6.49,7.17,7.17,0,0,0,4.44-1.72,4.45,4.45,0,0,1,2.83-1.17,4.26,4.26,0,0,1,2.61.88,3.67,3.67,0,0,1,1.47,3,4.28,4.28,0,0,1-1.21,3C23,27.37,19,29.36,14.57,29.36A14.68,14.68,0,0,1,14.57,0,14.2,14.2,0,0,1,24.84,4.18a4.28,4.28,0,0,1,1.21,3,3.72,3.72,0,0,1-1.47,3,4.22,4.22,0,0,1-2.61.88,4.45,4.45,0,0,1-2.83-1.17,7,7,0,0,0-4.37-1.72A6.53,6.53,0,0,0,8.29,14.68Z" fill="#370505" data-name="&lt;Compound Path&gt;"/>
   </g>
   <path id="path4" class="cls-1" d="M53.12,40.69a1.27,1.27,0,0,1,1.39-1.39h.81a1.27,1.27,0,0,1,1.39,1.39V57.76c0,5.17-3.52,8-7.93,8s-8-2.83-8-7.89v-.07a1.27,1.27,0,0,1,1.39-1.39H43a1.26,1.26,0,0,1,1.39,1.39v.07c0,2.79,1.61,4.44,4.4,4.44s4.33-1.65,4.33-4.7Z"/>
   <path id="path6" class="cls-1" d="M79.69,40.69a1.27,1.27,0,0,1,1.39-1.39h.81a1.27,1.27,0,0,1,1.39,1.39v15.6c0,6.13-4.15,9.43-9.5,9.43s-9.5-3.3-9.5-9.43V40.69a1.27,1.27,0,0,1,1.39-1.39h.81a1.27,1.27,0,0,1,1.39,1.39V56.07c0,4,2.13,6.2,5.91,6.2s5.91-2.24,5.91-6.2Z"/>
   <path id="path8" class="cls-1" d="M110.29,65.32a1.91,1.91,0,0,1-1.91-1L94.81,45.43v18.5a1.26,1.26,0,0,1-1.39,1.39H92.6a1.26,1.26,0,0,1-1.39-1.39V40.69A1.26,1.26,0,0,1,92.6,39.3h.92a1.91,1.91,0,0,1,1.91,1L109,59.19V40.69a1.26,1.26,0,0,1,1.39-1.39h.81a1.26,1.26,0,0,1,1.39,1.39V63.92a1.26,1.26,0,0,1-1.39,1.39Z"/>
   <path id="path10" class="cls-1" d="M122.81,65.32a1.26,1.26,0,0,1-1.39-1.39V40.69a1.26,1.26,0,0,1,1.39-1.39h.81A1.26,1.26,0,0,1,125,40.69V63.92a1.26,1.26,0,0,1-1.39,1.39Z"/>
   <path id="path12" class="cls-1" d="m145.12 65.72a13.41 13.41 0 1 1 13.43-13.39 13.37 13.37 0 0 1-13.43 13.39zm9.76-13.39a9.74 9.74 0 1 0-9.76 9.87 9.88 9.88 0 0 0 9.76-9.88z"/>
   <path id="path14" class="cls-1" d="M180.39,65.32a1.27,1.27,0,0,1-1.32-1l-1.32-4.62a6,6,0,0,0-5.91-4.55h-3.89v8.81a1.26,1.26,0,0,1-1.39,1.39h-.81a1.26,1.26,0,0,1-1.39-1.39V40.69a1.26,1.26,0,0,1,1.39-1.39h8.81a7.93,7.93,0,0,1,7.89,7.93,7.56,7.56,0,0,1-4.55,6.83,8.24,8.24,0,0,1,3.34,4.77l1.28,4.44a4.62,4.62,0,0,1,.22,1,1.09,1.09,0,0,1-1.17,1ZM174.3,51.66a4.42,4.42,0,0,0,4.48-4.44,4.47,4.47,0,0,0-4.48-4.48h-6.35v8.92Z"/>
   <path id="path16" class="cls-1" d="M191,65.32a1.26,1.26,0,0,1-1.39-1.39V40.69A1.26,1.26,0,0,1,191,39.3h.81a1.26,1.26,0,0,1,1.39,1.39V63.92a1.26,1.26,0,0,1-1.39,1.39Z"/>
   <path id="path18" class="cls-1" d="M229.64,65.32a1.26,1.26,0,0,1-1.39-1.39V53.79h-12.7V63.92a1.26,1.26,0,0,1-1.39,1.39h-.81A1.26,1.26,0,0,1,212,63.92V40.69a1.26,1.26,0,0,1,1.39-1.39h.81a1.26,1.26,0,0,1,1.39,1.39v9.69h12.7V40.69a1.26,1.26,0,0,1,1.39-1.39h.81a1.26,1.26,0,0,1,1.39,1.39V63.92a1.26,1.26,0,0,1-1.39,1.39Z"/>
   <path id="path20" class="cls-1" d="M240.58,65.32a1.26,1.26,0,0,1-1.39-1.39V40.69a1.26,1.26,0,0,1,1.39-1.39h8.81c6.61,0,12.37,4.51,12.37,13s-5.83,13-12.44,13Zm8.62-3.45c4.81,0,8.84-3.19,8.84-9.54s-4-9.58-8.77-9.58h-6.5V61.87Z"/>
  </g>
 </g>
</svg>
