<svg id="a" enable-background="new 0 0 250 37.4" version="1.0" viewBox="0 0 250 37.4" xml:space="preserve" xmlns="http://www.w3.org/2000/svg">
<g id="b">
		<path id="c" d="m128.6 17.7c0-1.4-0.9-3-2.8-3-1.3 0-2.4 0.8-2.7 1.9-0.3-1.1-1.4-1.9-2.7-1.9-1.9 0-2.8 1.6-2.8 3 0 3.2 4.5 5.9 5.6 5.9 0.9 0 5.4-2.6 5.4-5.9" fill="#f0614b"/>
	</g><g id="d" fill="#fff"><g id="e">
		<rect id="f" x="30.7" y=".4" width=".6" height="36.6" fill="#fff"/>
	</g><path id="g" d="m250 3.7v-3.3h-10.2v3.2h3.6v33.4h3.3v-33.3zm-17.8 22.6h-3l1.7-17zm4.3 10.7-3.8-36.5h-3.5l-4.1 36.5h3l0.8-7.4h3.6l0.5 7.4zm-15.6 0-3.9-20.8 3.8-15.8h-3.1l-4.3 19.8v-19.8h-3.4v36.6h3.3v-9.5l1.5-6.7 2.7 16.2zm-16.6-6.6c0-3.8-1.8-8.1-3.8-12.5-2.3-4.7-3.6-7.6-3.6-11.9 0-2 0.9-2.9 2.3-2.9 1.2 0 1.9 1 1.9 3.2v5.2h3.1v-5.2c0-3.7-1.9-6.3-4.9-6.3-3.9 0-5.5 3-5.5 7.2 0 3.8 2.4 9.3 4.2 12.9 2 4.1 3.2 7.5 3.2 11.2 0 2-0.7 3.2-2.4 3.2-1.3 0-2.1-1.4-2.1-3.2v-5.1h-3.2v4.9c0 3.7 2 6.2 5.4 6.2 2.1 0.1 5.4-1.2 5.4-6.9m-16.7 6.6v-36.6h-4.6l-2.4 22.5-0.6 6-0.6-6-2.4-22.5h-4.8v36.6h2.9v-27.3l0.6 6.1 2.7 21.2h3l2.6-21.2 0.5-6.1v27.3zm-21 0v-3.3h-5.4v-33.3h-3.3v36.6zm-15.2-36.6h-3.3v36.6h3.3zm-8.9 3.2v-3.2h-8.6v36.6h3.3v-17.1h4.2v-3.1h-4.2v-13.2zm-27.7 33.4-3.9-20.7 3.8-15.8h-3.1l-4.3 19.8v-19.9h-3.3v36.6h3.3v-9.5l1.5-6.7 2.7 16.2zm-16.6-6.6c0-3.8-1.8-8.1-3.8-12.5-2.3-4.7-3.6-7.6-3.6-11.9 0-2 0.9-2.9 2.3-2.9 1.2 0 1.9 1 1.9 3.2v5.2h3.1v-5.2c0-3.7-1.9-6.3-4.9-6.3-3.9 0-5.5 3-5.5 7.2 0 3.8 2.4 9.3 4.2 12.9 2 4.1 3.2 7.5 3.2 11.2 0 2-0.7 3.2-2.4 3.2-1.3 0-2.1-1.4-2.1-3.2v-5.1h-3.2v4.9c0 3.7 2 6.2 5.4 6.2 2.2 0.1 5.4-1.2 5.4-6.9m-16.5 6.6v-36.6h-3.1v24.7l-1-5.7-4.2-19h-3.2v36.6h3.1v-24.4l1.1 5.5 4.8 18.9zm-21.1-10.7h-3l1.7-17zm4.3 10.7-3.9-36.6h-3.5l-4 36.6h3l0.8-7.4h3.6l0.5 7.4zm-19.8-6.5c0 2.3-0.5 3.2-1.9 3.2h-2.1v-29.9h2.1c1.4 0 1.9 0.9 1.9 3.2zm3.3-0.7v-22.2c0-4.9-1.5-7.2-5.2-7.2h-5.5v36.6h5.5c3.7 0 5.2-2.3 5.2-7.2"/><g id="h">
		<path id="i" d="m6.9 1.8c0 0.1-0.2 0.4-0.1 0.5 0.1 0 0.3-0.3 0.3-0.3v-0.1s0.1-0.2-0.1-0.2c-0.1-0.1-0.1 0.1-0.1 0.1m-3.7-0.2c-0.2 0-0.2 0-0.2 0.1v0.3s0.5-0.1 0.6-0.1 0.2-0.2 0.2-0.3h-0.6m0.1 2.2c-0.4-0.1-1.4-0.2-1.9-0.3-0.3-0.1-0.4-0.3-0.6-0.6 0 0 0-0.1-0.1-0.1l0.3-0.2-0.1-0.4h-0.3c0.6-0.4 2.2-0.7 2.2-0.7s0.1-0.2 0.2-0.3c0.2 0 0.7-0.1 1.4-0.2h1.6c0.1 0 0.3 0.1 0.5 0.2 0.1 0 0.4-0.1 0.7 0 0.4 0.1 0.4 0.3 0.5 0.4 2.1 0.6 3.2 0.8 5.1 1.1 0.6 0.1 0.9 0.2 1.4 0.5 0.4 0.2 0.6 0.4 1 0.5 4.3 0.9 5.3 1.6 6.3 2.8 0.9 1.2 0.9 3.9-0.5 6.1-0.6 0.9-1.8 3.1-2.2 3.2h-0.1c-0.9-0.4-1.8-0.6-2.7-0.8 0.2-0.2 0.7-0.4 0.9-0.6 0.2-0.1 0.4-1.4 0.5-2.2 0.2-1.5 0.1-1.5-0.2-1.8s-0.9-0.6-1.3-0.9c-0.2-0.1-0.3-0.2-0.3 0.1v0.7c0 1.1 0.1 2.4 0.1 3.2 0 0.6-0.1 1.1-0.4 1.4-0.3 0-0.7-0.1-1-0.1-0.8 0-1.6 0.1-2.3 0.2 0.1-0.1 0.6-0.5 0.7-0.8 0.2-0.3 0.1-0.5 0-0.9-0.2-1.6-0.6-2.9-1.9-5.1-0.1-0.2-0.1-0.3-0.3-0.5-0.1 0.3-5.8-3.4-7.2-3.9m19.1 27.6c-0.5-0.1-1.6-0.3-3.2-0.4 0.6-1.5 1-3.4 1-5.6v-0.8c2.2 0.3 3.4 0.8 3.9 1v0.4c-0.1 2-0.7 3.8-1.7 5.4m-6.1 4.2c0.7-0.7 1.8-2.1 2.7-4.1 1.4 0.1 2.5 0.3 3.1 0.4-1.4 1.9-3.5 3.2-5.8 3.7m-10.1-3.7c0.6-0.1 1.6-0.2 2.9-0.3 0.9 1.9 2 3.3 2.9 4.1-2.4-0.6-4.4-2-5.8-3.8m-2-6.3c0.4-0.2 1.5-0.6 3.5-1v0.9c0 2.2 0.4 4 1.1 5.5-1.5 0.1-2.5 0.3-3 0.4-1-1.6-1.6-3.4-1.6-5.4v-0.4m7.8-9.3c-0.4 0.3-1 0.8-1.5 1.3-1 0.1-1.7 0.3-2.3 0.4 1.1-0.8 2.4-1.4 3.8-1.7m7.6 1.4c0.3 0.2 0.5 0.4 0.8 0.6-0.7-0.2-1.7-0.4-2.9-0.6-0.5-0.6-0.9-1-1.3-1.4 1.1 0.2 2.3 0.7 3.4 1.4m-5.3 13v-6.6c2.2 0 3.9 0.1 5.3 0.3v0.8c0 2.2-0.4 4.1-1 5.6-1.2 0-2.7-0.1-4.3-0.1m-6-6.2c1.4-0.2 3.2-0.3 5.4-0.4v6.6c-1.6 0-3.1 0.1-4.4 0.2-0.6-1.5-1.1-3.3-1.1-5.5 0.1-0.3 0.1-0.6 0.1-0.9m5.4-6.5v5.6c-2.2 0-4 0.1-5.4 0.3 0.3-2.8 1.3-4.6 2.4-5.8 0.9-0.1 1.9-0.1 3-0.1m0.6 0c1.1 0 2 0.1 2.8 0.2 1.1 1.4 2.1 3.2 2.4 5.7-1.4-0.2-3.1-0.3-5.2-0.3zm0.8-1.9c0.4 0.4 1 0.9 1.5 1.5-0.7-0.1-1.5-0.1-2.3-0.1v-1.5c0.3 0 0.6 0 0.8 0.1m-2.1 0c0.2 0 0.5 0 0.7-0.1v1.4c-0.9 0-1.7 0-2.4 0.1 0.4-0.4 0.8-0.7 1.1-0.9s0.5-0.4 0.6-0.5m-6 2.9c0.4-0.2 1.4-0.5 2.9-0.8-0.9 1.3-1.9 3.1-2.1 5.8-1.8 0.3-2.9 0.7-3.5 0.9 0.2-2.3 1.2-4.3 2.7-5.9m5.9 16.8c-0.6-0.4-2.2-1.9-3.3-4.3 1.2-0.1 2.6-0.2 4.1-0.2v4.6c-0.2 0-0.5 0-0.8-0.1m2.4 0c-0.3 0-0.6 0.1-1 0.1v-4.6c1.5 0 2.9 0.1 4.1 0.2-1.3 2.9-3.1 4.3-3.1 4.3m8.7-10.9c-0.7-0.3-1.9-0.7-3.9-1-0.3-2.4-1.2-4.3-2.2-5.7 2.2 0.3 3.3 0.8 3.5 0.9 1.4 1.6 2.4 3.6 2.6 5.8m-14.4-15.4c0.5 0.3 1.1 0.9 1.1 0.9 0.1 0.2 0.5 1.2 0.7 1.7 0.2 0.8 0.6 1.7 0.5 2s-0.5 0.6-0.8 1.3c-0.3 0.1-0.6 0.2-0.9 0.3 0.2-0.5 0.5-0.8 0.6-1.2-0.1-0.4-0.2-1.1-1.2-5m9.6 6.7c0.8-0.7 1.2-1.5 1.9-2.4 2.1-3 2.3-5.9 1.2-7.5-0.9-1.3-2-2.4-6.4-3.1-0.3 0-0.5-0.1-0.9-0.4-0.6-0.4-0.9-0.4-1.8-0.6-2.2-0.3-3.1-0.5-5.4-1.2-0.1-0.1-0.2-0.2-0.5-0.3s-0.5-0.1-0.6 0c0 0-0.3-0.1-0.4-0.2-0.2-0.1-1.2-0.1-1.8 0-0.7 0-1.4 0.1-1.7 0.2-0.1 0-0.2 0.1-0.3 0.3-0.2 0-1.4 0.3-2 0.6-0.5 0.3-0.6 0.4-0.5 0.8s0.2 0.8 0.5 1.1c0.1 0.2 0.4 0.3 0.6 0.4 0.9 0.2 1.7 0.3 1.9 0.4 1 0.4 5.3 3.3 5.4 3.8 0.4 1.7 1.4 6.1 1.3 6.5-0.1 0.5-0.5 0.9-0.9 1.8-3.4 1.9-5.7 5.5-5.7 9.6 0 6.1 4.9 11 11 11s11-4.9 11-11c0-4.3-2.4-8-5.9-9.8" fill="#fff"/>
	</g></g>
</svg>
