<?xml version="1.0" encoding="UTF-8"?>
<!-- Created with Inkscape (http://www.inkscape.org/) -->
<svg id="svg2" width="800" height="228.46" version="1.1" viewBox="0 0 800 228.46" xml:space="preserve" xmlns="http://www.w3.org/2000/svg" xmlns:cc="http://creativecommons.org/ns#" xmlns:dc="http://purl.org/dc/elements/1.1/" xmlns:rdf="http://www.w3.org/1999/02/22-rdf-syntax-ns#" xmlns:xlink="http://www.w3.org/1999/xlink"><metadata id="metadata8"><rdf:RDF><cc:Work rdf:about=""><dc:format>image/svg+xml</dc:format><dc:type rdf:resource="http://purl.org/dc/dcmitype/StillImage"/><dc:title/></cc:Work></rdf:RDF></metadata><defs id="defs6"><clipPath id="clipPath11954-5"><path id="path11952-4" d="m447.87 254.76h45.931v13.117h-45.931z"/></clipPath></defs><g id="g10" transform="matrix(1.3333 0 0 -1.3333 -97.17 441.98)">
<g id="g11948" transform="matrix(13.063 0 0 13.063 -5777.9 -3167.8)"><g id="g11950" clip-path="url(#clipPath11954-5)"><g id="g11956" transform="translate(493.8 255.81)"><path id="path11958" d="m0 0c0-0.579-0.394-1.05-0.88-1.05l-44.169-1e-3c-0.486 0-0.881 0.469-0.88 1.049l1e-3 11.016c0 0.58 0.394 1.05 0.881 1.05l44.168 2e-3c0.487 0 0.881-0.47 0.88-1.049z" fill="#dd5417"/></g><g id="g11960" transform="translate(456.79 259.38)"><path id="path11962" d="m0 0-0.146 0.829 0.157 0.316 0.144-0.818zm-0.264 2.744 0.213-0.586 0.041-0.854-0.214 0.58zm4e-3 1.017c0.051 0.078 0.128-0.06 0.171-0.308 0.044-0.247 0.039-0.512-0.012-0.59-0.05-0.078-0.127 0.06-0.171 0.308s-0.038 0.512 0.012 0.59m0.275 0.787 0.041-0.906-0.246 0.615zm-1.243-0.509-0.777-0.015 1.001 0.301zm-0.373-1.678-0.682 0.811 1.043 0.184zm-1.128-0.6c-0.274-0.047-0.534 0.135-0.583 0.409-0.048 0.273 0.135 0.534 0.408 0.583 0.274 0.048 0.535-0.135 0.583-0.409 0.048-0.273-0.135-0.534-0.408-0.583m-0.816-1.402-0.567 0.676 0.299 0.827 0.569-0.676zm-0.698-1.277-0.153 0.869 0.869 0.153 0.153-0.87zm0.33 5.365 0.788 0.139-0.24-0.251-0.801-0.129zm2.138 0.188-0.798-0.246-0.574 3e-3 0.793 0.246zm0.577-0.15c-0.1-0.082-0.383-0.176-0.634-0.212-0.251-0.035-0.373 1e-3 -0.273 0.083 0.099 0.081 0.384 0.176 0.634 0.212 0.251 0.035 0.373-2e-3 0.273-0.083m1.926-2.974-0.607 3.424c-0.049 0.24-0.247 0.318-0.402 0.286l-3.587-0.627c-0.108-0.022-0.176-0.054-0.27-0.135 0 0-0.91-0.862-1.043-0.998-0.134-0.136-0.217-0.316-0.178-0.58l0.692-3.921c0.05-0.244 0.263-0.311 0.412-0.288 0.149 0.022 3.684 0.644 3.869 0.682 0.188 0.039 0.375 0.164 0.509 0.417l0.545 1.175c0.099 0.224 0.104 0.275 0.06 0.565" fill="#fab20b"/></g><g id="g11964" transform="translate(485.12 261.71)"><path id="path11966" d="m0 0 0.117 0.665h-1.191l0.159 0.904h-1.11l-0.536-3.038c-0.213-1.399 0.443-1.405 1.271-1.429h0.779l0.126 0.714h-0.556c-0.16 0-0.38-4e-3 -0.484 0.149-0.094 0.139-0.045 0.435-0.024 0.572 0 0 0.217 1.24 0.257 1.463zm-7.178 0 0.118 0.665h-1.192l0.159 0.904h-1.11l-0.536-3.038c-0.213-1.399 0.444-1.405 1.272-1.429h0.779l0.125 0.714h-0.555c-0.16 0-0.381-4e-3 -0.484 0.149-0.094 0.139-0.046 0.435-0.024 0.572 0 0 0.217 1.24 0.257 1.463zm9.644 0.034h-0.223c-0.477 4e-3 -0.613-0.219-0.747-0.998l-0.039-0.224c-0.14-0.776-0.082-0.998 0.395-0.995h0.219c0.474-2e-3 0.609 0.219 0.743 0.995l0.04 0.224c0.14 0.775 0.084 0.999-0.388 0.998m1.509-0.998-0.039-0.224c-0.22-1.277-0.639-1.634-1.453-1.69-0.196-0.013-0.41-0.024-0.562-0.025h-0.197c-0.152 0-0.34 0.012-0.531 0.025-0.795 0.056-1.088 0.413-0.858 1.69l0.04 0.224c0.22 1.28 0.639 1.637 1.453 1.693 0.197 0.013 0.389 0.025 0.541 0.026h0.225c0.152-1e-3 0.336-0.013 0.525-0.026 0.794-0.056 1.088-0.413 0.856-1.693m-8.703 0.998h-0.224c-0.477 4e-3 -0.613-0.219-0.747-0.998l-0.039-0.224c-0.14-0.776-0.082-0.998 0.395-0.995h0.219c0.474-2e-3 0.61 0.219 0.743 0.995l0.04 0.224c0.14 0.775 0.084 0.999-0.387 0.998m1.509-0.998-0.04-0.224c-0.22-1.277-0.639-1.634-1.453-1.69-0.196-0.013-0.409-0.024-0.561-0.025h-0.198c-0.152 0-0.34 0.012-0.531 0.025-0.794 0.056-1.088 0.413-0.858 1.69l0.04 0.224c0.22 1.28 0.639 1.637 1.453 1.693 0.197 0.013 0.389 0.025 0.541 0.026h0.225c0.152-1e-3 0.336-0.013 0.525-0.026 0.795-0.056 1.088-0.413 0.857-1.693m-10.529 1.637s-0.617-3.51-0.619-3.521h1.122c2e-3 0.012 0.498 2.829 0.498 2.829 1.054 0.061 1.269 0.069 1.085-0.949-2e-3 -0.012-0.329-1.868-0.331-1.88h1.12c5e-3 0.021 0.305 1.726 0.333 1.884 0.339 1.868-0.2 1.811-3.208 1.637m-8.43 0.527-0.558-3.162c1.307 0 1.884-0.097 2.084 0.628 0.179 0.649 0.301 1.44 0.332 1.838 0.059 0.783-0.556 0.696-1.858 0.696m3.063-0.952c-0.016-0.26-0.16-1.039-0.226-1.299-0.158-0.623-0.303-1.62-1.557-1.751-0.62-0.064-0.943-0.049-3.212-0.049 0 0 0.583 3.291 0.718 4.051 0 0-0.422 3e-3 -0.994 0l0.152 0.858c2.56 0.022 3.463 0.062 4.217-0.086 1.149-0.228 0.942-1.091 0.902-1.724m4.125-1.333c-0.229-1.304-0.312-1.766-0.312-1.766l-1.121 3e-3 0.145 0.822 0.095 0.543c-0.102 0-0.554-2e-3 -0.641 0-0.088-2e-3 -0.272 4e-3 -0.359-8e-3 -0.242-0.034-0.415-0.243-0.46-0.382-0.101-0.317-0.121-0.463-0.211-0.975h-1.111c0.096 0.55 0.144 0.764 0.193 0.985 0.125 0.575 0.67 1.1 1.588 1.1h1.12c0.148 0.806 1e-3 0.864-2.232 0.729l0.12 0.711c0.778 0.06 1.746 0.106 2.479 0.047 0.836-0.067 0.923-0.578 0.707-1.809" fill="#fff"/></g></g></g></g></svg>
