<svg version="1.1" viewBox="0 0 714.08 337.2" xml:space="preserve" xmlns="http://www.w3.org/2000/svg"><g transform="matrix(1.3333 0 0 -1.3333 0 337.2)"><g transform="scale(.1)"><path d="m0 0h2666.3v2529h-2666.3v-2529" fill="#950602"/><path d="m2688.7 0h2666.9v2529h-2666.9v-2529" fill="#0e0f10"/><path d="m2228 693.58h67.53v-267.67h-542.98v267.67h67.52v685.73h-67.52v265.18h475.45v-950.91zm25.07 1248.8c0-122.64-95.16-197.74-247.84-197.74-152.59 0-250.08 75.1-250.08 195.21 0 122.63 95.04 197.73 252.65 197.73 150.11 0 245.27-77.57 245.27-195.2zm-1775.9-115.1h-107.63v267.72h670.66c157.62 0 290.32-42.52 372.9-117.57 137.57-122.63 207.68-367.89 207.68-713.24 0-417.9-97.65-678.21-290.26-770.77-85.11-39.961-242.8-67.481-395.41-67.481h-565.57v267.67h107.63v1133.7zm460.39-1133.7c187.74 0 225.26 102.63 225.26 623.14 0 265.28-20.05 405.42-67.57 460.48-30 40.05-80.05 52.51-200.22 50.05v-1133.7h42.527" fill="#f0d8c7"/><path d="m1009.2 1685.8-601.55 372.67c-43.832 28.77-79.711 7.6-79.711-47.02v-723.45c0-54.59 35.879-75.74 79.711-47.01l601.55 372.69s21.38 15.03 21.38 36.05c0 21.03-21.38 36.07-21.38 36.07" fill="#f0d8c7"/><path d="m1009.2 1685.8-601.55 372.67c-43.832 28.77-79.711 7.6-79.711-47.02v-723.45c0-54.59 35.879-75.74 79.711-47.01l601.55 372.69s21.38 15.03 21.38 36.05c0 21.03-21.38 36.07-21.38 36.07z" fill="none" stroke="#950602" stroke-width="20"/><path d="m4169.2 1644.3 194.49-631.04c7.94-30.081 15.41-56.55 22.58-79.48 7.11-22.968 13.03-43.09 17.77-60.5 6.33-18.968 11.06-37.16 14.24-54.57h4.75c1.56 17.41 5.54 35.602 11.85 54.57 4.75 17.41 10.3 37.532 16.6 60.5 6.35 22.93 14.24 49.399 23.73 79.48l199.28 631.04h322.64l-424.66-1217h-308.39l-422.26 1217h327.38m-953.69 0v379.59h315.52v-379.59h208.79v-213.52h-208.79v-645.28c0-45.879 11.07-77.5 33.23-94.898 22.15-17.403 51.38-26.09 87.77-26.09h61.67c11.08 0 22.15 0.801 33.21 2.379v-237.22c-15.8-1.59-33.21-2.41-52.16-2.41-17.39-1.563-38.75-2.36-64.07-2.36h-85.41c-39.55 0-78.67 4.368-117.44 13.059s-73.94 24.121-105.55 46.23c-31.64 22.161-57.34 52.211-77.12 90.161-19.78 37.937-29.65 85.437-29.65 142.36v714.07h-168.47v213.52h168.47" fill="#f0d8c7"/></g></g></svg>
