<svg id="a" width="800" height="364.44" version="1.1" viewBox="0 0 750 341.67" xmlns="http://www.w3.org/2000/svg">
 <g id="b" transform="translate(-.00025606 -710.7)" fill="#fff">
  <path id="c" d="m2.5606e-4 710.7v187.63h102.98c33.429 0 57.153-4.8526 72.25-14.558 25.881-16.715 38.821-43.674 38.821-80.338 0-16.715-3.7743-31.812-10.784-45.83-6.4702-13.48-16.175-24.263-28.037-32.351-15.097-9.7052-39.36-14.558-72.25-14.558h-102.98m161.21 39.899c14.019 10.784 20.489 28.037 20.489 52.84 0 25.881-6.4702 43.674-20.489 54.457-12.401 9.7052-33.429 14.558-62.545 14.558h-67.398v-136.41h67.398c29.116 0 49.605 4.8526 62.545 14.558m132.1 147.74h31.272v-187.63h-31.272zm304.1-134.26 31.272-6.4702v-4.8526c0-16.175-3.2351-26.959-9.7052-32.89-6.4702-5.931-17.793-9.1661-33.968-9.1661h-121.32c-17.254 0-28.577 3.2351-35.047 9.7052-5.931 5.931-9.1661 17.793-9.1661 35.047v98.67c0 17.254 3.2351 28.577 9.1661 35.047 6.4702 5.931 17.793 9.1661 35.047 9.1661h121.32c16.715 0 28.037-3.2351 34.508-9.1661 5.931-5.931 9.1661-17.793 9.1661-35.047v-60.927h-107.3v24.263h76.024v54.996h-146.66v-136.41h146.66v28.037m121.32 134.26h31.272v-187.63h-31.272z"/>
  <path id="d" d="m62.341 1052.1-0.89863 0.2995h-13.36l-0.83872-0.2995-47.029-92.499v0.29954l-0.29954-0.89863 0.35945-0.89864 0.95854-0.41936h10.784l0.71891 0.11982v0.29954l41.517 81.237h0.71891l41.936-81.416 0.59909-0.23964h10.784l1.1383 0.41936 0.35945 0.89864-0.29955 0.89863v-0.29954zm-49.605-94.177 0.17973 0.17972h-0.17973zm160.44 94.476-1.2581-1.318v-91.9l1.2581-1.4977h7.3089l1.0784 1.4977v91.9l-1.0784 1.318zm75.845 0-1.1982-1.318v-91.9l1.1982-1.4977h7.3688l1.0784 1.4977v91.9l-1.0784 1.318zm167.15 0-1.2581-1.318v-41.217h-77.762v41.217l-1.318 1.318h-9.4656l-1.318-1.318v-91.9l1.318-1.4977h9.4656l1.318 1.4977v38.282h77.762v-38.342l1.2581-1.4977h9.5255l1.2581 1.4977v91.96l-1.2581 1.318zm182.18-22.106c-1.1383 5.6914-3.0554 9.9449-5.6314 12.821-2.6959 2.9954-6.8296 5.2719-12.401 6.8895-5.6314 1.5576-12.641 2.3963-21.148 2.3963h-62.844l-1.3779-1.318v-91.9l1.3779-1.4977h60.149c12.88 0 22.526 1.7374 28.936 5.2121 6.59 3.5346 10.844 9.1062 12.701 16.894l1.3779 11.562c0.41936 4.7328 0.59908 10.664 0.59908 17.673 0 8.567-0.59908 15.636-1.7374 21.268m-10.304-29.116c0-13.06-1.7973-21.447-5.5116-25.282-3.8941-3.8941-12.162-5.8112-24.682-5.8112h-50.743v70.034h53.139c9.4057 0 15.816-0.8387 19.291-2.5761l7.0692-8.6868 1.1383-7.6084 0.29955-12.221zm80.697 51.222-1.3779-1.318v-91.9l1.3779-1.4977h79.978l1.1982 1.4977v9.4057l-1.1982 1.4977h-69.195v27.378h66.918l1.1982 1.4378v9.4656l-1.1982 1.4977h-66.918v30.254h69.195l1.1982 1.318v9.6453l-1.1982 1.318h-79.978"/>
 </g>
</svg>
