<svg id="an" version="1.1" viewBox="0 0 800.1 250.17" xml:space="preserve" xmlns="http://www.w3.org/2000/svg"><defs id="ao"><linearGradient id="ab" x2="1" gradientTransform="matrix(-3e-7,-6.7448,-6.7448,3e-7,511.4,266.35)" gradientUnits="userSpaceOnUse"><stop id="ap" stop-color="#fff" offset="0"/><stop id="aq" stop-color="#deddde" offset="1"/></linearGradient><linearGradient id="aa" x2="1" gradientTransform="matrix(-3e-7,-6.7449,-6.7449,3e-7,522.24,266.35)" gradientUnits="userSpaceOnUse"><stop id="ar" stop-color="#fff" offset="0"/><stop id="as" stop-color="#deddde" offset="1"/></linearGradient><linearGradient id="z" x2="1" gradientTransform="matrix(-3e-7,-6.7449,-6.7449,3e-7,532.57,266.35)" gradientUnits="userSpaceOnUse"><stop id="at" stop-color="#fff" offset="0"/><stop id="au" stop-color="#deddde" offset="1"/></linearGradient><linearGradient id="y" x2="1" gradientTransform="matrix(-4e-7,-9.2413,-9.2413,4e-7,516.23,267.55)" gradientUnits="userSpaceOnUse"><stop id="av" stop-color="#671215" offset="0"/><stop id="aw" stop-color="#370708" offset="1"/></linearGradient><linearGradient id="x" x2="1" gradientTransform="matrix(0 .1971 .1971 0 511.59 267.48)" gradientUnits="userSpaceOnUse"><stop id="ax" stop-color="#a61b20" offset="0"/><stop id="ay" stop-color="#dc918b" offset="1"/></linearGradient><linearGradient id="w" x2="1" gradientTransform="matrix(-4e-7,-9.4713,-9.4713,4e-7,506.96,267.66)" gradientUnits="userSpaceOnUse"><stop id="az" stop-color="#dc323f" offset="0"/><stop id="ba" stop-color="#a61b20" offset="1"/></linearGradient><linearGradient id="v" x2="1" gradientTransform="matrix(-4e-7,-9.2413,-9.2413,4e-7,526.65,267.55)" gradientUnits="userSpaceOnUse"><stop id="bb" stop-color="#671215" offset="0"/><stop id="bc" stop-color="#370708" offset="1"/></linearGradient><linearGradient id="u" x2="1" gradientTransform="matrix(0 .1971 .1971 0 522 267.48)" gradientUnits="userSpaceOnUse"><stop id="bd" stop-color="#a61b20" offset="0"/><stop id="be" stop-color="#dc918b" offset="1"/></linearGradient><linearGradient id="t" x2="1" gradientTransform="matrix(-4e-7,-9.4713,-9.4713,4e-7,517.38,267.66)" gradientUnits="userSpaceOnUse"><stop id="bf" stop-color="#dc323f" offset="0"/><stop id="bg" stop-color="#a61b20" offset="1"/></linearGradient><linearGradient id="s" x2="1" gradientTransform="matrix(-4e-7,-9.2413,-9.2413,4e-7,537.07,267.55)" gradientUnits="userSpaceOnUse"><stop id="bh" stop-color="#671215" offset="0"/><stop id="bi" stop-color="#370708" offset="1"/></linearGradient><linearGradient id="r" x2="1" gradientTransform="matrix(0 .1971 .1971 0 532.42 267.48)" gradientUnits="userSpaceOnUse"><stop id="bj" stop-color="#a61b20" offset="0"/><stop id="bk" stop-color="#dc918b" offset="1"/></linearGradient><linearGradient id="q" x2="1" gradientTransform="matrix(-4e-7,-9.4713,-9.4713,4e-7,527.8,267.66)" gradientUnits="userSpaceOnUse"><stop id="bl" stop-color="#dc323f" offset="0"/><stop id="bm" stop-color="#a61b20" offset="1"/></linearGradient><linearGradient id="p" x2="1" gradientTransform="matrix(7.3361,0,0,-7.3361,507.92,259.87)" gradientUnits="userSpaceOnUse"><stop id="bn" stop-color="#671215" offset="0"/><stop id="bo" stop-color="#dc918b" offset="1"/></linearGradient><linearGradient id="o" x2="1" gradientTransform="matrix(-4e-7,-8.9348,-8.9348,4e-7,511.61,267.4)" gradientUnits="userSpaceOnUse"><stop id="bp" stop-color="#a61b20" offset="0"/><stop id="bq" stop-color="#671215" offset="1"/></linearGradient><linearGradient id="n" x2="1" gradientTransform="matrix(-4e-7,-8.9348,-8.9348,4e-7,522.03,267.4)" gradientUnits="userSpaceOnUse"><stop id="br" stop-color="#a61b20" offset="0"/><stop id="bs" stop-color="#671215" offset="1"/></linearGradient><linearGradient id="m" x2="1" gradientTransform="matrix(-4e-7,-8.9348,-8.9348,4e-7,532.44,267.4)" gradientUnits="userSpaceOnUse"><stop id="bt" stop-color="#a61b20" offset="0"/><stop id="bu" stop-color="#671215" offset="1"/></linearGradient><linearGradient id="l" x2="1" gradientTransform="matrix(-3e-7,5.7814,5.7814,3e-7,511.61,261.79)" gradientUnits="userSpaceOnUse"><stop id="bv" stop-color="#e56964" offset="0"/><stop id="bw" stop-color="#b42730" offset="1"/></linearGradient><linearGradient id="k" x2="1" gradientTransform="matrix(-3e-7,5.7814,5.7814,3e-7,511.61,261.79)" gradientUnits="userSpaceOnUse"><stop id="bx" stop-color="#fff" offset="0"/><stop id="by" stop-color="#c69789" offset="1"/></linearGradient><linearGradient id="j" x2="1" gradientTransform="matrix(-3e-7,5.7814,5.7814,3e-7,522.03,261.79)" gradientUnits="userSpaceOnUse"><stop id="bz" stop-color="#fff" offset="0"/><stop id="ca" stop-color="#c69789" offset="1"/></linearGradient><linearGradient id="i" x2="1" gradientTransform="matrix(-3e-7,5.7814,5.7814,3e-7,522.03,261.79)" gradientUnits="userSpaceOnUse"><stop id="cb" stop-color="#e56964" offset="0"/><stop id="cc" stop-color="#b42730" offset="1"/></linearGradient><linearGradient id="h" x2="1" gradientTransform="matrix(-4e-7,-8.9348,-8.9348,4e-7,522.03,267.4)" gradientUnits="userSpaceOnUse"><stop id="cd" stop-color="#bb4d40" offset="0"/><stop id="ce" stop-color="#8a3c33" offset="1"/></linearGradient><linearGradient id="g" x2="1" gradientTransform="matrix(-4e-7,-9.4713,-9.4713,4e-7,527.8,267.66)" gradientUnits="userSpaceOnUse"><stop id="cf" stop-color="#e56964" offset="0"/><stop id="cg" stop-color="#bb4d40" offset="1"/></linearGradient><linearGradient id="f" x2="1" gradientTransform="matrix(-3e-7,5.7814,5.7814,3e-7,532.44,261.79)" gradientUnits="userSpaceOnUse"><stop id="ch" stop-color="#fff" offset="0"/><stop id="ci" stop-color="#c69789" offset="1"/></linearGradient><linearGradient id="e" x2="1" gradientTransform="matrix(-3e-7,5.7814,5.7814,3e-7,532.44,261.79)" gradientUnits="userSpaceOnUse"><stop id="cj" stop-color="#e56964" offset="0"/><stop id="ck" stop-color="#b42730" offset="1"/></linearGradient><linearGradient id="d" x2="1" gradientTransform="matrix(-3e-7,5.7814,5.7814,3e-7,532.44,261.79)" gradientUnits="userSpaceOnUse"><stop id="cl" stop-color="#8a3c33" offset="0"/><stop id="cm" stop-color="#661215" offset="1"/></linearGradient><clipPath id="cn"><path id="co" d="m527.91 267.46v-3.462c0.638 0.265 1.635 0.44 2.812 0.506l1.487 1.734 0.059 0.068v1e-3h3.177v-2.068c0.524-0.087 1.042-0.191 1.541-0.319v3.54z"/></clipPath><clipPath id="cp"><path id="cq" d="m535.44 266.31v-2e-3 1e-3z"/></clipPath><clipPath id="cr"><path id="cs" d="m527.9 264h1e-3v3.461l-1e-3 1e-3z"/></clipPath><clipPath id="ac"><path id="ct" d="m527.9 264v3.462z"/></clipPath><clipPath id="ad"><path id="cu" d="m506.85 256.56h30.307v12.734h-30.307z"/></clipPath><clipPath id="cv"><path id="cw" d="m517.49 267.46v-5.52c0.179-0.027 0.357-0.051 0.536-0.073v4.439h1e-3v1e-3h2.832v-3.628l2.3 2.131 0.057 0.052h3.351v2.598z"/></clipPath><clipPath id="cx"><path id="cy" d="m518.02 266.31h1e-3v1e-3h-1e-3z"/></clipPath><clipPath id="cz"><path id="da" d="m517.49 261.94v5.519z"/></clipPath><clipPath id="db"><path id="dc" d="m507.07 267.46v-4.987c0.117 0.062 0.244 0.123 0.381 0.185v0.485c0 0.503 0.116 0.891 0.344 1.154 0.018 0.021 0.037 0.041 0.057 0.061 0.042 0.042 0.089 0.081 0.14 0.117 0.226 0.163 0.534 0.271 0.914 0.321 0.269 0.044 0.671 0.066 1.193 0.066h2.434v1.444h1e-3v1e-3h2.845v-3.914c0.253-0.073 0.508-0.139 0.768-0.199v5.266z"/></clipPath><clipPath id="dd"><path id="de" d="m507.94 264.44c0.015 0.012 0.03 0.024 0.046 0.035-0.016-0.011-0.031-0.023-0.046-0.035m-6e-3 -4e-3c2e-3 2e-3 4e-3 4e-3 6e-3 4e-3 -2e-3 0-4e-3 -2e-3 -6e-3 -4e-3m-7e-3 -5e-3c3e-3 1e-3 5e-3 3e-3 7e-3 5e-3 -2e-3 -2e-3 -4e-3 -4e-3 -7e-3 -5e-3m-2e-3 -3e-3c0 1e-3 1e-3 2e-3 2e-3 3e-3 -1e-3 -1e-3 -2e-3 -2e-3 -2e-3 -3e-3m-3e-3 -2e-3c-1e-3 -1e-3 -2e-3 -1e-3 -2e-3 -2e-3 2e-3 1e-3 3e-3 3e-3 5e-3 4e-3 -1e-3 0-2e-3 -1e-3 -3e-3 -2e-3m-0.076-0.068c0.024 0.022 0.048 0.045 0.074 0.066-0.026-0.021-0.05-0.043-0.074-0.066"/></clipPath><clipPath id="df"><path id="dg" d="m507.07 262.48h1e-3v4.987h-1e-3z"/></clipPath><clipPath id="af"><path id="dh" d="m506.85 256.56h30.307v12.734h-30.307z"/></clipPath><clipPath id="ae"><path id="di" d="m507.07 267.46z"/></clipPath><clipPath id="ag"><path id="dj" d="m506.85 256.56h30.307v12.734h-30.307z"/></clipPath><clipPath id="ah"><path id="dk" d="m506.85 256.56h30.307v12.734h-30.307z"/></clipPath><clipPath id="ai"><path id="dl" d="m506.85 256.56h30.307v12.734h-30.307z"/></clipPath><clipPath id="aj"><path id="dm" d="m506.85 258.19h30.305v9.474h-30.305z"/></clipPath><clipPath id="ak"><path id="dn" d="m506.85 256.56h30.307v12.734h-30.307z"/></clipPath><clipPath id="al"><path id="do" d="m506.85 256.56h30.307v12.734h-30.307z"/></clipPath><clipPath id="am"><path id="dp" d="m506.85 256.56h30.307v12.734h-30.307z"/></clipPath><linearGradient id="c" x2="1" gradientTransform="matrix(-3e-7,5.7814,5.7814,3e-7,511.61,261.79)" gradientUnits="userSpaceOnUse"><stop id="dq" stop-color="#8a3c33" offset="0"/><stop id="dr" stop-color="#661215" offset="1"/></linearGradient><linearGradient id="b" x2="1" gradientTransform="matrix(-3e-7,5.7814,5.7814,3e-7,522.03,261.79)" gradientUnits="userSpaceOnUse"><stop id="ds" stop-color="#8a3c33" offset="0"/><stop id="dt" stop-color="#661215" offset="1"/></linearGradient>
<linearGradient id="a" x2=".54397" y2="-2.4353e-8" gradientTransform="matrix(-4e-7,-8.9348,-8.9348,4e-7,511.61,267.4)" gradientUnits="userSpaceOnUse"><stop id="du" stop-color="#93191d" offset="0"/><stop id="dv" stop-color="#9c4036" offset="1"/></linearGradient></defs><g id="dw" transform="matrix(26.398 0 0 -26.398 -13380 7065.7)"><g id="dx"><g id="dy"><g id="dz"><path id="ea" d="m516.15 267.46h-9.077v-9.077h9.077z" fill="url(#a)"/></g></g></g></g><g id="eb" transform="matrix(26.398 0 0 -26.398 -13105 7065.8)"><g id="ec"><g id="ed"><g id="ee"><path id="ef" d="m516.15 267.46h-9.077v-9.077h9.077z" fill="url(#a)"/></g></g></g></g><g id="eg" transform="matrix(26.398 0 0 -26.398 -12830 7065.7)"><g id="eh"><g id="ei"><g id="ej"><path id="ek" d="m516.15 267.46h-9.077v-9.077h9.077z" fill="url(#a)"/></g></g></g></g><g id="el" transform="matrix(26.398 0 0 -26.398 -13380 7065.7)"><g id="em"><g id="en"><g id="eo"><path id="ep" d="m515.16 266.11h-2.451v-1.445h-2.631c-0.516 0-0.903-0.021-1.16-0.065-0.466-0.06-0.797-0.204-0.994-0.432-0.198-0.228-0.297-0.569-0.297-1.026v-1.895c0-0.473 0.105-0.822 0.316-1.046l-0.121-0.135c-0.245 0.26-0.369 0.657-0.369 1.181v1.895c0 0.504 0.116 0.892 0.344 1.155 0.018 0.021 0.037 0.042 0.057 0.061-1e-3 -1e-3 -1e-3 -1e-3 -2e-3 -1e-3 -0.02-0.019-0.038-0.039-0.056-0.06-0.228-0.263-0.344-0.652-0.344-1.155v-1.896c0-0.524 0.124-0.921 0.369-1.18 0.242-0.256 0.63-0.424 1.154-0.498 0.248-0.028 0.614-0.042 1.124-0.042h5.28v1e-3l-0.219 0.197v6.385l0.218 0.196zm-2.626 0v-1.248 1.443zm-4.68-1.752c0.023 0.023 0.048 0.045 0.074 0.067-0.026-0.022-0.051-0.044-0.074-0.067" fill="url(#ab)"/></g></g></g></g><g id="eq" transform="matrix(26.398 0 0 -26.398 -13380 7065.7)"><g id="er"><g id="es"><g id="et"><path id="eu" d="m518.02 266.31v-6.778h1e-3v6.778zm0.175-0.196v-6.386l-0.174-0.196h2.831v1.651h2.442c0.032-7e-3 0.053-0.021 0.053-0.113v-1.538h2.82l-0.22 0.196v1.755c0 0.516-0.116 0.884-0.347 1.103-0.233 0.22-0.612 0.35-1.136 0.393l2e-3 1e-3 1.984 1.689h-3.185l-2.632-2.438v3.883zm4.967-1.292 0.046 0.044zm-2.31-2.139 1.934 1.792zm5.315-2.954v-0.197 1.951z" fill="url(#aa)"/></g></g></g></g><g id="ev" transform="matrix(26.398 0 0 -26.398 -13380 7065.7)"><g id="ew"><g id="ex"><g id="ey"><path id="ez" d="m535.22 266.11h-2.889l-3.418-3.985v-1.42l-0.175-0.197h3.87v-0.98h2.831v0.98h1.007v1.994h-1.005l-0.218-0.197v3.805l0.216 0.195v1e-3z" fill="url(#z)"/></g></g></g></g><g id="fa" transform="matrix(26.398 0 0 -26.398 -13380 7065.7)"><g id="fb" clip-path="url(#am)"><g id="fc" transform="translate(510.29,261.58)"><path id="fd" d="m0 0-0.172-0.14c0.034-0.06 0.258-0.09 0.671-0.09h1.922l-0.176 0.197h-1.725c-0.33 0-0.468 0.021-0.52 0.033" fill="#671215"/></g><g id="fe" transform="translate(512.71,261.35)"><path id="ff" d="m0 0v1.69l-0.175-0.197v-1.296z" fill="#671215"/></g><g id="fg" transform="translate(510.28,261.66)"><path id="fh" d="m0 0v1.058c0 0.054 4e-3 0.089 8e-3 0.11 0.065 7e-3 0.209 0.015 0.517 0.015h1.725l0.175 0.197h-1.922c-0.326 0-0.528-8e-3 -0.606-0.026-0.077-0.017-0.116-0.116-0.116-0.296v-1.058s-8e-3 -0.133 0.052-0.219l0.172 0.139s-8e-3 0.05-5e-3 0.08" fill="#dc323f"/></g></g></g><g id="fi" transform="matrix(26.398 0 0 -26.398 -13380 7065.7)"><g id="fj"><g id="fk"><g id="fl"><path id="fm" d="m516.15 267.46v-9.079l0.175-0.196v9.472z" fill="url(#y)"/></g></g></g></g><g id="fn" transform="matrix(26.398 0 0 -26.398 -13380 7065.7)"><g id="fo" clip-path="url(#al)"><g id="fp" transform="translate(516.15,258.39)"><path id="fq" d="m0 0h-9.077l-0.219-0.197h9.471z" fill="#370708"/></g></g></g><g id="fr" transform="matrix(26.398 0 0 -26.398 -13380 7065.7)"><g id="fs"><g id="ft"><g id="fu"><path id="fv" d="m506.85 267.66 0.219-0.197h9.077l0.175 0.197z" fill="url(#x)"/></g></g></g></g><g id="fw" transform="matrix(26.398 0 0 -26.398 -13380 7065.7)"><g id="fx"><g id="fy"><g id="fz"><path id="ga" d="m506.85 258.19 0.22 0.198v1e-3h-1e-3v4.09h-1e-3v4.987h1e-3l-0.219 0.196z" fill="url(#w)"/></g></g></g></g><g id="gb" transform="matrix(26.398 0 0 -26.398 -13380 7065.7)"><g id="gc"><g id="gd"><g id="ge"><path id="gf" d="m526.56 267.46v-2e-3h3e-3v-9.077h-2e-3l0.175-0.196v9.472z" fill="url(#v)"/></g></g></g></g><g id="gg" transform="matrix(26.398 0 0 -26.398 -13380 7065.7)"><g id="gh" clip-path="url(#ak)"><g id="gi" transform="translate(526.56,258.39)"><path id="gj" d="m0 0h-9.077l-0.219-0.197h9.471z" fill="#370708"/></g></g></g><g id="gk" transform="matrix(26.398 0 0 -26.398 -13380 7065.7)"><g id="gl"><g id="gm"><g id="gn"><path id="go" d="m517.27 267.66 0.219-0.197h9.077l0.175 0.197z" fill="url(#u)"/></g></g></g></g><g id="gp" transform="matrix(26.398 0 0 -26.398 -13380 7065.7)"><g id="gq"><g id="gr"><g id="gs"><path id="gt" d="m517.27 258.19 0.219 0.198v9.077l-0.219 0.197z" fill="url(#t)"/></g></g></g></g><g id="gu" transform="matrix(26.398 0 0 -26.398 -13380 7065.7)"><g id="gv"><g id="gw"><g id="gx"><path id="gy" d="m536.98 267.46v-2e-3h2e-3v-9.077h-1e-3l0.173-0.194v9.468z" fill="url(#s)"/></g></g></g></g><g id="gz" transform="matrix(26.398 0 0 -26.398 -13380 7065.7)"><g id="ha" clip-path="url(#aj)"><g id="hb" transform="translate(536.98,258.39)"><path id="hc" d="m0 0h-9.077l-0.219-0.197h9.471z" fill="#370708"/></g></g></g><g id="hd" transform="matrix(26.398 0 0 -26.398 -13380 7065.7)"><g id="he"><g id="hf"><g id="hg"><path id="hh" d="m527.69 267.66 0.219-0.197h9.077l0.173 0.194v3e-3z" fill="url(#r)"/></g></g></g></g><g id="hi" transform="matrix(26.398 0 0 -26.398 -13380 7065.7)"><g id="hj"><g id="hk"><g id="hl"><path id="hm" d="m527.69 258.19 0.219 0.198v5.616h-1e-3v3.462l-0.218 0.196z" fill="url(#q)"/></g></g></g></g><g id="hn" transform="matrix(26.398 0 0 -26.398 -13380 7065.7)"><g id="ho" clip-path="url(#ai)"><g id="hp" transform="translate(515.38,259.53)"><path id="hq" d="m0 0v6.779l-0.219-0.197v-6.385z" fill="#dc323f"/></g></g></g><g id="hr" transform="matrix(26.398 0 0 -26.398 -13380 7065.7)"><g id="hs"><g id="ht"><g id="hu"><path id="hv" d="m507.82 260.07c0.241-0.255 0.629-0.424 1.153-0.498 0.249-0.028 0.614-0.041 1.125-0.041h5.28l-0.22 0.197h-5.082c-0.499 0-0.864 0.013-1.096 0.039-0.482 0.068-0.828 0.214-1.039 0.438z" fill="url(#p)"/></g></g></g></g><g id="hw" transform="matrix(26.398 0 0 -26.398 -13380 7065.7)"><g id="hx" clip-path="url(#ah)"><g id="hy" transform="translate(515.38,266.31)"><path id="hz" d="m0 0h-2.845v-1.444h-2.434c-0.523 0-0.924-0.023-1.194-0.068-0.504-0.065-0.88-0.233-1.109-0.497s-0.345-0.652-0.345-1.155v-1.896c0-0.523 0.124-0.92 0.37-1.18l0.121 0.135c-0.211 0.224-0.316 0.572-0.316 1.045v1.896c0 0.456 0.099 0.798 0.297 1.026 0.197 0.227 0.528 0.372 0.993 0.432 0.258 0.043 0.645 0.064 1.161 0.064h2.631v1.445h2.451l0.219 0.197" fill="#671215"/></g><g id="ia" transform="translate(520.64,259.73)"><path id="ib" d="m0 0h-2.438l-0.175-0.197h2.832z" fill="#dc918b"/></g><g id="ic" transform="translate(520.86,259.53)"><path id="id" d="m0 0v1.651l-0.219 0.197v-1.651z" fill="#dc323f"/></g><g id="ie" transform="translate(520.86,261.18)"><path id="if" d="m0 0h2.442s0.053 0.122 0.076 0.18c-0.15 0.028-0.557 0.017-0.557 0.017h-2.18z" fill="#dc918b"/></g><g id="ig" transform="translate(523.3,261.18)"><path id="ih" d="m0 0c0.032-7e-3 0.053-0.021 0.053-0.113v-1.538l0.176 0.197v1.341c0 0.181-0.069 0.249-0.153 0.293z" fill="#671215"/></g><g id="ii" transform="translate(525.95,259.73)"><path id="ij" d="m0 0h-2.425l-0.175-0.197h2.819z" fill="#dc323f"/></g><g id="ik" transform="translate(526.17,259.53)"><path id="il" d="m0 0v1.951c0 0.57-0.138 0.989-0.41 1.246-0.193 0.183-0.46 0.309-0.809 0.383l-0.483-0.133c0.524-0.043 0.903-0.174 1.135-0.393s0.348-0.587 0.348-1.103v-1.754l0.219-0.197" fill="#671215"/></g><g id="im" transform="translate(526.56,264.48)"><path id="in" d="m0 0v0.38l-0.11-0.197-1.986-1.69 0.484 0.134 1.613 1.373z" fill="#dc323f"/></g><g id="io" transform="translate(526.57,264.87)"><path id="ip" d="m0 0h-3.352l-0.057-0.052-2.3-2.131-0.219-0.452 2.632 2.438h3.185z" fill="#671215"/></g><g id="iq" transform="translate(520.86,262.68)"><path id="ir" d="m0 0v3.628l-0.219-0.197v-3.882z" fill="#dc323f"/></g><g id="is" transform="translate(518.2,259.73)"><path id="it" d="m0 0v6.385h2.438l0.219 0.197h-2.832v-6.779z" fill="#671215"/></g><g id="iu" transform="translate(532.78,262.31)"><path id="iv" d="m0 0v1.213l-0.175-0.536v-0.48z" fill="#671215"/></g><g id="iw" transform="translate(532.61,262.5)"><path id="ix" d="m0 0h-0.409l-0.448-0.197h1.032z" fill="#370708"/></g><g id="iy" transform="translate(532.2,262.5)"><path id="iz" d="m0 0 0.409 0.48 0.175 0.536-1.032-1.213z" fill="#dc323f"/></g><g id="ja" transform="translate(532.79,260.71)"><path id="jb" d="m0 0h-3.87l-0.175-0.197h3.87z" fill="#dc323f"/></g><g id="jc" transform="translate(532.78,259.73)"><path id="jd" d="m0 0v0.98l-0.175-0.197v-0.98z" fill="#671215"/></g><g id="je" transform="translate(532.61,259.53)"><path id="jf" d="m0 0h2.832v0.98h1.006l-0.219 0.197h-1.006v-0.98h-2.438z" fill="#dc323f"/></g><g id="jg" transform="translate(536.45,260.51)"><path id="jh" d="m0 0v1.994l-0.219-0.197v-1.6z" fill="#671215"/></g><g id="ji" transform="translate(536.45,262.5)"><path id="jj" d="m0 0h-1.006l-0.219-0.197h1.006z" fill="#370708"/></g><g id="jk" transform="translate(535.44,262.5)"><path id="jl" d="m0 0v3.805l-0.219-0.197v-3.805z" fill="#dc323f"/></g><g id="jm" transform="translate(535.44,266.31)"><path id="jn" d="m0 0h-3.177l-0.059-0.069-3.418-3.985-0.047-0.056v-1.689l0.175 0.197v1.42l3.418 3.985h2.889z" fill="#671215"/></g><g id="jo" transform="translate(510.28,262.72)"><path id="jp" d="m0 0v-1.058c0-0.038 2e-3 -0.064 5e-3 -0.08 0.052-0.012 0.19-0.032 0.52-0.032h1.725v1.295h-1.725c-0.308 0-0.452-8e-3 -0.517-0.014-4e-3 -0.022-8e-3 -0.057-8e-3 -0.111" fill="#a61b20"/></g></g></g><g id="jq" transform="matrix(26.398 0 0 -26.398 -13380 7065.7)"><g id="jr"><g id="js"><g id="jt"><path id="ju" d="m516.15 267.46v-5.266c-0.26 0.06-0.515 0.126-0.768 0.199v-2.866h-5.28c-0.51 0-0.876 0.014-1.124 0.042-0.524 0.074-0.912 0.242-1.154 0.498-0.245 0.259-0.369 0.656-0.369 1.18v1.896c0 0.503 0.116 0.892 0.344 1.155 4e-3 4e-3 7e-3 8e-3 0.011 0.012-4e-3 -4e-3 -8e-3 -8e-3 -0.012-0.013-0.228-0.263-0.344-0.651-0.344-1.154v-0.485c-0.137-0.062-0.264-0.123-0.381-0.185v-4.09h9.077zm-9.077 0h9.077zm5.463-1.154v-1.444h1e-3v1.444zm-4.726-1.996c0.014 0.016 0.03 0.032 0.045 0.048-0.016-0.016-0.031-0.032-0.045-0.048" fill="url(#o)"/></g></g></g></g><g id="jv" transform="matrix(26.398 0 0 -26.398 -13380 7065.7)"><g id="jw"><g id="jx"><g id="jy"><path id="jz" d="m526.56 264.86h1e-3v2.597h-1e-3zm-9.077 2.598h9.077zm0.536-1.154v-4.439c-0.179 0.022-0.357 0.046-0.536 0.073v-3.557h9.078v6.099l-0.482-0.41 0.481 0.409v-1.594c-0.189-0.115-0.411-0.225-0.663-0.327 0.18-0.257 0.27-0.62 0.27-1.081v-1.951h-2.82v1.538c0 0.092-0.021 0.106-0.053 0.113h-2.442v-1.651h-2.832v6.778z" fill="url(#n)"/></g></g></g></g><g id="ka" transform="matrix(26.398 0 0 -26.398 -13380 7065.7)"><g id="kb" clip-path="url(#ag)"><g id="kc" transform="translate(532.61,262.5)"><path id="kd" d="m0 0v0.48l-0.409-0.48z" fill="#a61b20"/></g></g></g><g id="ke" transform="matrix(26.398 0 0 -26.398 -13380 7065.7)"><g id="kf"><g id="kg"><g id="kh"><path id="ki" d="m536.98 267.46v-3.54c-0.499 0.128-1.017 0.232-1.541 0.319v-1.737h1.007v-1.994h-1.007v-0.98h-2.831v0.98h-3.87v1.689l0.047 0.055 3.419 3.986 0.058 0.068-0.059-0.068-1.487-1.734c-1.177-0.066-2.174-0.241-2.812-0.506v-5.615h9.077v9.077zm-9.076 0h9.076z" fill="url(#m)"/></g></g></g></g><g id="kj" transform="matrix(26.398 0 0 -26.398 -13380 7065.7)"><g id="kk"><g id="kl"><g id="km"><path id="kn" d="m515.38 266.31v-3.913h1e-3v3.914z" fill="url(#l)"/></g></g></g></g><g id="ko" transform="matrix(26.398 0 0 -26.398 -13380 7065.7)"><g id="kp"><g id="kq"><g id="kr"><path id="ks" d="m515.18 266.31h-2.648v-1e-3h2.844l1e-3 1e-3z" fill="url(#c)"/></g></g></g></g><g id="kt" transform="matrix(26.398 0 0 -26.398 -13380 7065.7)"><g id="ku" clip-path="url(#af)"><g id="kv"><g id="kw" clip-path="url(#ae)"><g id="kx"><g id="ky"><g id="kz"><g id="la"><path id="lb" d="m507.07 267.46z" fill="url(#k)"/></g></g></g></g></g></g></g></g><g id="lc" transform="matrix(26.398 0 0 -26.398 -13380 7065.7)"/><g id="ld" transform="matrix(26.398 0 0 -26.398 -13380 7065.7)"/><g id="le" transform="matrix(26.398 0 0 -26.398 -13380 7065.7)"><g id="lf"><g id="lg"><g id="lh"><path id="li" d="m510.1 264.86c-0.522 0-0.924-0.022-1.193-0.066-0.38-0.05-0.688-0.158-0.914-0.321-6e-3 -4e-3 -0.011-8e-3 -0.017-0.012 0.228 0.17 0.541 0.282 0.931 0.332 0.268 0.044 0.67 0.067 1.193 0.067h2.434zm-2.154-0.422c0.01 8e-3 0.021 0.016 0.03 0.023-0.01-7e-3 -0.02-0.015-0.03-0.023m-0.017-0.014c5e-3 5e-3 0.011 9e-3 0.017 0.014-6e-3 -5e-3 -0.012-9e-3 -0.017-0.014" fill="url(#c)"/></g></g></g></g><g id="lj" transform="matrix(26.398 0 0 -26.398 -13380 7065.7)"/><g id="lk" transform="matrix(26.398 0 0 -26.398 -13380 7065.7)"><g id="ll"><g id="lm"><g id="ln"><path id="lo" d="m517.49 261.94h1e-3v5.52h-1e-3z" fill="url(#j)"/></g></g></g></g><g id="lp" transform="matrix(26.398 0 0 -26.398 -13380 7065.7)"/><g id="lq" transform="matrix(26.398 0 0 -26.398 -13380 7065.7)"><g id="lr"><g id="ls"><g id="lt"><path id="lu" d="m526.48 264.86h-3.265 3.352zm-3.321-0.052-0.366-0.339 0.366 0.338 0.01 9e-3z" fill="url(#b)"/></g></g></g></g><g id="lv" transform="matrix(26.398 0 0 -26.398 -13380 7065.7)"/><g id="lw" transform="matrix(26.398 0 0 -26.398 -13380 7065.7)"><g id="lx"><g id="ly"><g id="lz"><path id="ma" d="m520.86 266.31v-3.628l1e-3 1e-3v3.627z" fill="url(#i)"/></g></g></g></g><g id="mb" transform="matrix(26.398 0 0 -26.398 -13380 7065.7)"><g id="mc"><g id="md"><g id="me"><path id="mf" d="m520.66 266.31h-2.634v-1e-3h2.831v1e-3z" fill="url(#b)"/></g></g></g></g><g id="mg" transform="matrix(26.398 0 0 -26.398 -13380 7065.7)"/><g id="mh" transform="matrix(26.398 0 0 -26.398 -13380 7065.7)"><g id="mi" clip-path="url(#ad)"><g id="mj" transform="translate(525.9,262.56)"><path id="mk" d="m0 0c-0.042 0.06-0.087 0.117-0.139 0.166-0.193 0.182-0.46 0.309-0.809 0.383l1e-3 1e-3c0.349-0.075 0.616-0.201 0.809-0.384 0.052-0.049 0.099-0.104 0.141-0.165-1e-3 0-2e-3 -1e-3 -3e-3 -1e-3" fill="#8a3c33"/></g><g id="ml" transform="translate(524.95,263.11)"><path id="mm" d="M 0,0 1.133,0.964 0,0 H 0.001 0" fill="#e56964"/></g></g></g><g id="mn" transform="matrix(26.398 0 0 -26.398 -13380 7065.7)"><g id="mo"><g id="mp"><g id="mq"><path id="mr" d="m526.08 264.08-1.132-0.964h1e-3c0.348-0.073 0.616-0.2 0.809-0.383 0.051-0.049 0.099-0.104 0.14-0.165 0.252 0.102 0.474 0.212 0.663 0.327v1.594z" fill="url(#h)"/></g></g></g></g><g id="ms" transform="matrix(26.398 0 0 -26.398 -13380 7065.7)"><g id="mt" clip-path="url(#ac)"><g id="mu"><g id="mv"><g id="mw"><g id="mx"><path id="my" d="m527.9 264v3.462z" fill="url(#g)"/></g></g></g></g></g></g><g id="mz" transform="matrix(26.398 0 0 -26.398 -13380 7065.7)"><g id="na"><g id="nb"><g id="nc"><path id="nd" d="m527.9 267.46 1e-3 -1e-3v1e-3zm1e-3 -3.462v3.461z" fill="url(#f)"/></g></g></g></g><g id="ne" transform="matrix(26.398 0 0 -26.398 -13380 7065.7)"/><g id="nf" transform="matrix(26.398 0 0 -26.398 -13380 7065.7)"/><g id="ng" transform="matrix(26.398 0 0 -26.398 -13380 7065.7)"><g id="nh"><g id="ni"><g id="nj"><path id="nk" d="m535.44 266.31v-2.066 2.067z" fill="url(#e)"/></g></g></g></g><g id="nl" transform="matrix(26.398 0 0 -26.398 -13380 7065.7)"><g id="nm"><g id="nn"><g id="no"><path id="np" d="m535.24 266.31h-2.98v-1e-3h3.177v1e-3z" fill="url(#d)"/></g></g></g></g><g id="nq" transform="matrix(26.398 0 0 -26.398 -13380 7065.7)"/></svg>
