<svg id="a" version="1.1" viewBox="0 0 1000 1000" xmlns="http://www.w3.org/2000/svg">
 <path id="b" d="m0 694v-694h1e3v694l-166 166h-674z" fill="#522e91" fill-rule="evenodd"/>
 <path id="c" d="m0 1e3h1e3v-306h-1e3z"/>
 <g id="d" transform="matrix(21.649 0 0 -21.649 356.7 889.69)">
  <path id="e" d="m-0.15927 0h-2.7707c-0.083 0-0.099 0.033-0.099 0.1v3.941c0 0.066 0.016 0.1 0.099 0.1h2.7707c1.742 0 2.439-0.498 2.439-2.066 0-1.569-0.697-2.075-2.439-2.075m2.422 5.344h-9.1927c-0.083 0-0.125-0.05-0.125-0.124v-6.299c0-0.075 0.042-0.124 0.125-0.124h9.1927c2.746 0 4.133 0.912 4.133 3.294 0 2.365-1.387 3.253-4.133 3.253" fill="#fff"/>
 </g>
 <g id="f" transform="matrix(21.649 0 0 -21.649 690.9 853.23)">
  <path id="g" d="m-0.34786 0h-3.1418c-0.075 0-0.1 0.025-0.1 0.099v2.258c0 0.074 0.025 0.099 0.1 0.099h3.1418c1.096 0 1.56-0.299 1.56-1.203 0-0.913-0.464-1.253-1.56-1.253m5.7599-2.622-2.705 1.908c-0.067 0.05-0.108 0.075-0.108 0.108s0.025 0.05 0.083 0.05c1.369 0 2.431 0.639 2.431 2.049 0 1.403-0.913 2.166-2.597 2.166h-10.007c-0.083 0-0.125-0.049-0.125-0.124v-6.298c0-0.075 0.042-0.125 0.125-0.125h3.771c0.083 0 0.125 0.05 0.125 0.125v1.493c0 0.075 0.024 0.1 0.099 0.1h2.0567c0.108 0 0.15-8e-3 0.224-0.067l1.8277-1.559c0.092-0.075 0.158-0.092 0.265-0.092h4.6173c0.067 0 0.1 0.025 0.1 0.075 0 0.066-0.117 0.141-0.183 0.191" fill="#fff"/>
 </g>
 <path id="h" d="m558.32 536.17c-7.1953 0-9.2786-1.1361-11.929-5.302l-89.187-129.33-28.783 37.871v91.459c0 4.1659-3.219 5.302-7.5737 5.302h-94.489c-4.3553 0-7.0057-1.5149-7.0057-5.302v-366.59c0-3.7871 2.6503-6.4381 7.0057-6.4381h95.057c4.3555 0 7.0058 1.5149 7.0058 5.302v138.99l102.25-138.99c1.5147-2.0829 4.3546-5.302 7.5736-5.302h116.83c4.7337 0 5.3023 2.0829 3.7868 5.302l-123.27 163.22 143.72 204.5c3.219 4.1659 0 5.302-3.2198 5.302z" fill="#fff" stroke-width="18.936"/>
</svg>
