<?xml version="1.0" encoding="UTF-8"?>
<!-- Created with Inkscape (http://www.inkscape.org/) -->
<svg id="svg2" width="1e3" height="1e3" version="1.1" xmlns="http://www.w3.org/2000/svg" xmlns:cc="http://creativecommons.org/ns#" xmlns:dc="http://purl.org/dc/elements/1.1/" xmlns:rdf="http://www.w3.org/1999/02/22-rdf-syntax-ns#">
 <metadata id="metadata7">
  <rdf:RDF>
   <cc:Work rdf:about="">
    <dc:format>image/svg+xml</dc:format>
    <dc:type rdf:resource="http://purl.org/dc/dcmitype/StillImage"/>
    <dc:title/>
   </cc:Work>
  </rdf:RDF>
 </metadata>
 <g id="layer1" transform="translate(-80 407.64)">
  <path id="path4387" d="m80 286.36v-694h1e3v694l-166 166h-674z" fill="#00feff" fill-rule="evenodd"/>
  <path id="path7145" d="m80 592.36h1e3v-306h-1e3z"/>
  <g id="g7155" transform="matrix(21.649 0 0 -21.649 436.73 482.05)">
   <path id="path7157" d="m-0.15927 0h-2.7707c-0.083 0-0.099 0.033-0.099 0.1v3.941c0 0.066 0.016 0.1 0.099 0.1h2.7707c1.742 0 2.439-0.498 2.439-2.066 0-1.569-0.697-2.075-2.439-2.075m2.422 5.344h-9.1927c-0.083 0-0.125-0.05-0.125-0.124v-6.299c0-0.075 0.042-0.124 0.125-0.124h9.1927c2.746 0 4.133 0.912 4.133 3.294 0 2.365-1.387 3.253-4.133 3.253" fill="#fff"/>
  </g>
  <g id="g7159" transform="matrix(21.649 0 0 -21.649 770.87 445.59)">
   <path id="path7161" d="m-0.34786 0h-3.1418c-0.075 0-0.1 0.025-0.1 0.099v2.258c0 0.074 0.025 0.099 0.1 0.099h3.1418c1.096 0 1.56-0.299 1.56-1.203 0-0.913-0.464-1.253-1.56-1.253m5.7599-2.622-2.705 1.908c-0.067 0.05-0.108 0.075-0.108 0.108s0.025 0.05 0.083 0.05c1.369 0 2.431 0.639 2.431 2.049 0 1.403-0.913 2.166-2.597 2.166h-10.007c-0.083 0-0.125-0.049-0.125-0.124v-6.298c0-0.075 0.042-0.125 0.125-0.125h3.771c0.083 0 0.125 0.05 0.125 0.125v1.493c0 0.075 0.024 0.1 0.099 0.1h2.0567c0.108 0 0.15-8e-3 0.224-0.067l1.8277-1.559c0.092-0.075 0.158-0.092 0.265-0.092h4.6173c0.067 0 0.1 0.025 0.1 0.075 0 0.066-0.117 0.141-0.183 0.191" fill="#fff"/>
  </g>
  <g id="g834" transform="matrix(5.8373 0 0 5.8373 216.63 -308.14)">
   <path id="path2" d="m124.6 57.3c0 11.6-8.5 20.2-20.6 20.2-9 0-14.8-6.7-14.8-6.7-3.6 2.7-7.8 5.2-9.6 5.2-2 0-3.6-2.6-6.8-7-2.9 3.3-5.3 5-6.4 5-0.9 0-1.6-0.2-3-1.5l-4.1-3.8c-0.3 2.6-0.7 4.9-1.2 6.6-0.5 2-1.1 2.6-2.5 2.6-1.2 0-2-0.2-4.7-0.7-1.8 4.8-6.7 7.6-11.9 7.6-7.1 0-10.5-4.7-10.5-4.7s-4.2 2.6-9.6 2.6c-11.9 0-19-9-19-19.2 0-9 5.8-13.1 11-14-1-2.7-1.4-5-1.4-6.7 0-4 2.1-6 4.4-8l-10.2-20.7c-1.3-2.7-0.1-4.3 1.9-5.7 4.3-3.1 13.4-6.7 20.7-6.7 9.4 0 14.9 4.1 15.8 11.3 5.2-8.4 7.6-13 10-13 2.8 0 7.8 3.2 9.4 4.8 1.3 1.4 0.9 1.3 1.7 6.2 6.5-7.4 7.7-9.4 9.8-9.4 2 0 3.2 3.3 6 9 5.6-3.6 7.8-5.3 9.7-5.3 2.6 0 2.7 3.2 4.7 11.7 8.7-4.1 11.1-5.7 12.9-5.7s2.9 2 6.2 8c0.9 1.7 1 2 0.4 4.8-0.5 2.3-1.5 6.4-2.9 12.3 5.7 1.6 6.1 8.2 5.8 10.1 5.5-2.9 6.2-0.6 6.8 0.6 0.7 1.6 2 5.3 2 10.2z"/>
   <path id="path4" d="m119.1 57.9-7.4-6.9c-0.5-0.4-0.8-0.3-1.1 0-1.4 1.4-2.4 2.2-4.1 4.3-0.3 0.3-0.3 0.7 0 1.1l2.2 2.7c-1.1 1.7-3.1 2.8-5.4 2.8-4.1 0-7.1-3.2-7.1-7.6 0-3.4 2.1-5.8 5-5.8 1.3 0 2.3 0.6 3 1.1 0.3 0.2 0.7 0.3 1-0.3l3.7-6.1c0.3-0.4 0.1-0.8-0.3-1-1.4-0.6-3.1-1-4.9-1.1l2.1-16.7c0.1-0.7-0.1-0.9-0.3-1.1-1.7-2.3-3.7-4-4.7-4.7-0.2-0.2-0.4-0.3-0.7-0.3-0.2 0-0.4 0.1-0.7 0.3l-12.6 10.1 1.1-11.2c0.1-0.6-0.1-0.9-0.3-1.2-0.4-0.6-1.3-1.6-2.2-2.4-0.2-0.2-0.6-0.3-0.9 0-1 1-3.9 4.3-7.1 7.7l-2.9-12.5c-0.1-0.4-0.4-0.5-0.7-0.4-1 0.2-3.2 0.6-4.2 0.9-0.4 0.1-0.6 0.2-0.8 0.7-1.1 2.6-4.1 11.4-6.3 17.7l-4.1-17.7c-0.2-0.7-0.4-0.8-0.8-0.9-2.8-1.1-5.3-1.4-6.3-1.5-0.3 0-0.6 0-0.8 0.4l-10.3 20-5.6-3.3s3-3 3-7.2c0-4.5-3.6-8.7-9.4-8.7-4.8 0-11.7 3.2-16 6.4-0.4 0.3-0.4 0.5-0.3 1.1 3.1 7.4 7.2 16.3 10.2 23.1-3.8 1.4-5.8 4.6-5.8 8 0 7.4 8.1 12.7 8.1 17.7 0 1.8-1.2 2.8-3 2.8-2.3 0-3.9-2.1-3.9-5 0-1 0.2-2.1 0.7-3.3 0.1-0.3 0.1-0.6-0.3-0.8-1.5-0.8-5.7-3.3-7.4-4.1-0.4-0.2-0.7-0.2-1 0.4-0.5 1.3-1.5 4-1.5 7.3 0 7.8 5.2 14.4 14.1 14.4 4.1 0 8.7-2.1 10-7.4 1 3.8 3.7 7.2 8.4 7.2 4.8 0 8.2-2.6 8.8-9l6.5 0.9c0.3 0 0.5-0.1 0.5-0.4v-7.5c1.1-0.4 3.5-1.2 3.5-1.2l3.1 7.2c0.1 0.3 0.4 0.3 0.7 0.3 2.7-0.8 5.3-1.9 6.3-2.3 0.3-0.1 0.2-0.5 0.2-0.6-0.4-0.8-0.8-1.5-1.1-2.3l5.4 1.3c0.2 0 0.5-0.1 0.5-0.4l-0.1-12.1c1 3.1 4.3 13.6 5.8 18.5 0.1 0.3 0.4 0.3 0.6 0.3 2.6-0.9 4.2-1.5 5.4-2.1 0.3-0.1 0.6-0.3 0.6-0.8l1.4-9.7c0.4 8.7 6.7 13.9 13.4 13.9 7.9 0 10.2-7.4 10.2-7.4l2.3 3c0.2 0.3 0.6 0.5 0.9 0l4-7.4c0.1-0.6 0-1-0.3-1.2zm-21-34.1-2.3 6.7-2.8-1.6zm-45.6-7.2 1.3 8.2-4.3-0.5zm-30.8 1.1c1-0.6 2.2-1.2 3.7-1.2 2 0 3.3 1.4 3.3 3.1 0 2.7-3.3 4.6-3.3 4.6zm34.4 40.5 0.1-7.9 2.8 6.9zm33.4-8.7 0.6-4c0.1-0.6-0.2-0.7-0.7-0.7l-6.1 0.1c-0.5 0-0.6 0.2-0.6 0.7l-0.3 11.7-4.7-14.9c-0.1-0.3-0.4-0.5-0.7-0.5-2.3 0.2-4.1 0.4-6.1 0.8-0.5 0.1-0.6 0.3-0.6 0.7-0.7 2.5-2.4 9.6-3.5 14.1-2.6-5-5.1-10.1-7.5-15.1-0.3-0.4-0.6-0.4-1-0.3-1.6 0.5-4.7 1.6-6.5 2.3-0.4 0.1-0.4 0.3-0.5 0.7-0.3 2.6-1.5 13.8-2 19.7-0.1-3.7-1-8.3-2.6-14-0.1-0.3-0.4-0.4-0.8-0.2l-6.2 3.3c-0.5 0.3-0.4 0.6-0.3 0.9 1.2 2.7 3 8.3 3 11.7 0 1.7-0.4 2.9-1.7 2.9s-1.9-2-1.8-4.3c0-0.7-0.2-0.9-0.8-0.8-1.6 0.3-4.2 0.8-5.8 1.2-0.6-7.3-7.6-11.2-7.6-16.1 0-1.3 0.9-2.3 2.6-2.3 1.3 0 2.2 1 2.7 2.4 0.8 2 1 4.8 1 5.9 0 0.4 0.2 0.5 0.7 0.4l5.7-1.7c0.5-0.1 0.6-0.4 0.6-0.8 0.1-5.8-2.3-11.2-6.9-13.4l1.9-0.8c0.3-0.1 0.4-0.4 0.2-0.8l-6-10.1 17 14c0.3 0.3 0.6 0.1 0.7-0.1 2.2-3.2 3.5-6.7 3.9-7.9 0.1-0.3 0.1-0.6-0.3-0.8l-2.2-1.3 1.6-4.1 6.2 1.8 1 7.1c0.1 0.6 0.3 0.7 0.8 0.7 1.4 0.2 4.7 0.5 7.9 0.5 0.5 0 0.8-0.1 0.6-0.8l-0.7-2.9c2.3 0.3 4.3 0.6 5.6 0.6 0.4 0 0.7-0.1 0.8-0.6l2.4-13.4 1.8 10.6c0.1 0.4 0.5 0.6 0.8 0.2l5.7-7s-0.3 0.6-2 9.7c-0.1 0.4 0 0.7 0.3 0.9 1.1 0.7 4.4 2.2 6 2.9 0.3 0.1 0.7 0.1 0.8-0.5l0.3-3c0.3 0.2 0.5 0.4 0.7 0.5 0.2 0.2 0.5 0.3 0.8-0.1l2.9-3.3 4 1.9-2.1 5.8c-0.2 0.5 0 0.7 0.3 0.8 1.3 0.5 2.6 1 4.3 1.7-3.2 1.1-6.1 3.5-7.6 7.4z" fill="#fff"/>
  </g>
 </g>
</svg>
