<?xml version="1.0" encoding="UTF-8"?>
<!-- Created with Inkscape (http://www.inkscape.org/) -->
<svg id="svg2" width="1e3" height="1e3" version="1.1" xmlns="http://www.w3.org/2000/svg" xmlns:cc="http://creativecommons.org/ns#" xmlns:dc="http://purl.org/dc/elements/1.1/" xmlns:rdf="http://www.w3.org/1999/02/22-rdf-syntax-ns#">
 <metadata id="metadata7">
  <rdf:RDF>
   <cc:Work rdf:about="">
    <dc:format>image/svg+xml</dc:format>
    <dc:type rdf:resource="http://purl.org/dc/dcmitype/StillImage"/>
    <dc:title/>
   </cc:Work>
  </rdf:RDF>
 </metadata>
 <path id="path4387" d="m0 694v-694h1e3v694l-166 166h-674z" fill="#e4ff17" fill-rule="evenodd"/>
 <path id="path7145" d="m0 1e3h1e3v-306h-1e3z"/>
 <g id="g7155" transform="matrix(21.649 0 0 -21.649 356.7 889.69)">
  <path id="path7157" d="m-0.15927 0h-2.7707c-0.083 0-0.099 0.033-0.099 0.1v3.941c0 0.066 0.016 0.1 0.099 0.1h2.7707c1.742 0 2.439-0.498 2.439-2.066 0-1.569-0.697-2.075-2.439-2.075m2.422 5.344h-9.1927c-0.083 0-0.125-0.05-0.125-0.124v-6.299c0-0.075 0.042-0.124 0.125-0.124h9.1927c2.746 0 4.133 0.912 4.133 3.294 0 2.365-1.387 3.253-4.133 3.253" fill="#fff"/>
 </g>
 <g id="g7159" transform="matrix(21.649 0 0 -21.649 690.9 853.23)">
  <path id="path7161" d="m-0.34786 0h-3.1418c-0.075 0-0.1 0.025-0.1 0.099v2.258c0 0.074 0.025 0.099 0.1 0.099h3.1418c1.096 0 1.56-0.299 1.56-1.203 0-0.913-0.464-1.253-1.56-1.253m5.7599-2.622-2.705 1.908c-0.067 0.05-0.108 0.075-0.108 0.108s0.025 0.05 0.083 0.05c1.369 0 2.431 0.639 2.431 2.049 0 1.403-0.913 2.166-2.597 2.166h-10.007c-0.083 0-0.125-0.049-0.125-0.124v-6.298c0-0.075 0.042-0.125 0.125-0.125h3.771c0.083 0 0.125 0.05 0.125 0.125v1.493c0 0.075 0.024 0.1 0.099 0.1h2.0567c0.108 0 0.15-8e-3 0.224-0.067l1.8277-1.559c0.092-0.075 0.158-0.092 0.265-0.092h4.6173c0.067 0 0.1 0.025 0.1 0.075 0 0.066-0.117 0.141-0.183 0.191" fill="#fff"/>
 </g>
 <g id="g890" transform="matrix(2.4182 0 0 2.4182 2106 -980.71)" stroke-width="3.7795">
  <path id="path8-7" d="m-584.81 461.69c11.452-3.7417 20.523-4.8378 27.137-1.7008-6.5008-3.326-24.076-8.3528-24.076-8.3528-7.6724-2.3433-15.912-3.137-28.649 1.0205l-8.6551 2.8724 17.726 5.7449-70.375 22.942v27.628l21.203-6.9165v68.258l14.665 4.8 14.4-38.098v-44.372l20.107-6.5764v-21.846zm-150.99 105.15c0 3.1748 1.5118 4.3842 3.8173 4.3842 4.0441 0 7.2189-2.9102 7.2189-7.9748v-52.422l35.49-11.528-26.003-8.5039-34.998 11.339v7.4079l-11.074-3.7417-35.868 11.641v55.408c0.7559 17.461 13.342 31.219 47.584 33.827-12.926-1.2094-21.279-9.1842-21.392-27.931v-52.838l35.225-11.528zm137.54 35.263-6.9165-25.398-6.9543 20.939zm6.5008-96.831 6.6142-2.1921c5.2158-1.663 8.6173-5.4047 8.6173-10.772v-0.52913c0-5.4803-3.2504-6.274-8.4662-4.5732l-6.7654 2.2299zm-24.454 124.16 16.932-5.4047-13.757-4.4598zm-60.019-41.272v-56.05l-31.332-10.129v88.101l60.435 19.616v-32.05zm114.29-46.337-32.617-10.658-26.872 8.7307 32.617 10.62 30.992 97.89 26.797-8.7307z" fill="#fff"/>
  <path id="path10-0-7" d="m-621.43 495.52v44.372l26.872-8.7307 32.617 10.658 22.942-7.4457-20.901-25.814c7.3701-8.3528 12.321-17.991 12.321-28.12v-0.60472c0-9.1465-2.7968-15.307-8.4661-18.973-6.3496-4.0441-15.912-3.3638-28.762 0.8315l-16.517 5.4047v21.846zm9.2976 102.12 6.9543-20.939 6.9165 25.398zm20.372-108.21 6.7654-2.2299c5.2158-1.7008 8.4284-0.90709 8.4284 4.5732v0.56693c0 5.3291-3.3638 9.0709-8.5795 10.772l-6.6142 2.1543zm-58.734 15.496-21.203 6.9165v-27.628l70.375-22.942-31.408-10.205-70.45 22.866v20.825l13.909 4.5354-35.452 11.528v52.422c0 5.1024-3.2126 7.9748-7.2567 7.9748-2.3055 0-3.8173-1.2094-3.8173-4.3842v-52.46l-35.225 11.528v52.838c0 18.822 8.8441 28.082 24.567 28.082 16.706 0 30.992-8.4661 38.891-15.231v-69.619l31.332 10.167v56.013l29.102 9.4866v32.05l15.95-5.1402 14.967 4.8756 3.1748-9.8646 15.156 4.9512 3.2882 11.943 36.813 11.943-31.03-97.89-32.617-10.62-14.4 38.098-14.665-4.7622z"/>
 </g>
</svg>
