<svg id="a" version="1.1" viewBox="0 0 1000 1000" xmlns="http://www.w3.org/2000/svg">
 <path id="b" d="m0 694v-694h1e3v694l-166 166h-674z" fill="#50b848" fill-rule="evenodd"/>
 <path id="c" d="m0 1e3h1e3v-306h-1e3z"/>
 <g id="d" transform="matrix(21.649 0 0 -21.649 356.7 889.69)">
  <path id="e" d="m-0.15927 0h-2.7707c-0.083 0-0.099 0.033-0.099 0.1v3.941c0 0.066 0.016 0.1 0.099 0.1h2.7707c1.742 0 2.439-0.498 2.439-2.066 0-1.569-0.697-2.075-2.439-2.075m2.422 5.344h-9.1927c-0.083 0-0.125-0.05-0.125-0.124v-6.299c0-0.075 0.042-0.124 0.125-0.124h9.1927c2.746 0 4.133 0.912 4.133 3.294 0 2.365-1.387 3.253-4.133 3.253" fill="#fff"/>
 </g>
 <g id="f" transform="matrix(21.649 0 0 -21.649 690.9 853.23)">
  <path id="g" d="m-0.34786 0h-3.1418c-0.075 0-0.1 0.025-0.1 0.099v2.258c0 0.074 0.025 0.099 0.1 0.099h3.1418c1.096 0 1.56-0.299 1.56-1.203 0-0.913-0.464-1.253-1.56-1.253m5.7599-2.622-2.705 1.908c-0.067 0.05-0.108 0.075-0.108 0.108s0.025 0.05 0.083 0.05c1.369 0 2.431 0.639 2.431 2.049 0 1.403-0.913 2.166-2.597 2.166h-10.007c-0.083 0-0.125-0.049-0.125-0.124v-6.298c0-0.075 0.042-0.125 0.125-0.125h3.771c0.083 0 0.125 0.05 0.125 0.125v1.493c0 0.075 0.024 0.1 0.099 0.1h2.0567c0.108 0 0.15-8e-3 0.224-0.067l1.8277-1.559c0.092-0.075 0.158-0.092 0.265-0.092h4.6173c0.067 0 0.1 0.025 0.1 0.075 0 0.066-0.117 0.141-0.183 0.191" fill="#fff"/>
 </g>
 <path id="h" d="m353.71 239.72c0 5.6813 3.4087 6.8175 6.8173 6.8175h153.77c1.8935 0 2.2723 1.1363 2.2723 1.515 0 0.3788 0 0.7575-0.7571 1.515l-69.312 67.986c-2.2728 2.4619-2.2728 3.4088-2.2728 5.8707v33.33c0 3.7875 2.2728 4.9237 6.0603 4.9237h22.157c59.275 0 71.963 19.884 71.963 42.988 0 12.688-10.415 40.716-65.145 40.716-48.67 0-110.22-20.831-125.56-26.891-1.894-0.75753-3.4087-1.1363-4.1663-1.1363-1.5152 0-1.894 1.515-1.894 2.6513v87.87c0 2.2725 0.75767 3.7875 2.6517 4.9237 14.96 8.7113 74.235 26.702 133.51 26.702 78.022 0 168.54-34.656 168.54-127.83 0-56.434-27.838-87.491-78.78-102.45-1.1364-0.3788-1.8935-0.7575-1.8935-1.8937 0-0.7575 0.3808-1.515 1.1359-2.2726l64.388-59.653c3.03-2.6512 3.7875-5.3025 3.7875-9.09v-74.614c0-4.545-1.1362-7.1963-6.8175-7.1963h-273.65c-4.5452 0-6.8173 2.6512-6.8173 7.1963z" fill="#fff" stroke-width="18.938"/>
</svg>
