<svg width="589.17pt" height="142.21pt" version="1.1" viewBox="0 0 589.17 142.21" xmlns="http://www.w3.org/2000/svg">
 <path d="m43.712 0c-14.895 0-25.904 4.4693-33.028 13.406-7.1237 8.937-10.685 22.602-10.685 40.994 0 36.266 14.57 54.398 43.712 54.398h9.3413c9.9731 0 14.959-3.7554 14.959-11.268 0-4.2742-1.1014-7.3185-3.3032-9.1318-2.3314-1.6838-6.0867-2.5254-11.268-2.5254l-9.7295 0.0075c-3.8856 0.0023-7.3827-0.84161-10.491-2.5254-3.1085-1.6838-5.3751-3.9503-6.7998-6.7998-2.4609-4.9218-3.6914-9.9808-3.6914-22.156 0-6.8646 0.25975-12.11 0.77783-15.737 0.51808-3.6266 1.4888-6.9307 2.9136-9.9097 3.238-6.3465 9.0017-9.5186 17.291-9.5186 8.1598 0 13.923 3.172 17.291 9.5186 2.4609 4.9218 3.6914 13.471 3.6914 25.646 0 5.1808 0.84162 8.9362 2.5254 11.268 1.8133 2.2019 4.8576 3.3032 9.1318 3.3032 7.4116 0 11.16-4.863 11.259-14.571l-3e-3 -1.5161c-0.40663-35.252-15.036-52.884-43.895-52.884z" fill="#017db7"/>
 <path d="m144.16 0.39011c-3.5042 0-6.2636 0.13016-9.7134 0.19483-10.489 0.19665-19.234 3.1082-26.228 9.3252-6.9941 6.217-10.491 13.989-10.491 23.314v62.752c0 5.1809 0.84162 8.7432 2.5254 10.686 1.3835 1.5963 3.7446 2.5249 7.0518 2.8096 0.56832 0.0696 1.1689 0.0857 1.6904 0.104 0.19937-0.0154 0.4007-8e-5 0.58301 0 2.8171 0 5.1065-0.6011 6.8672-1.8032 2e-3 -1e-3 4e-3 -3e-3 6e-3 -4e-3 0.7202-0.5052 1.3029-1.0484 1.771-1.648 1.7428-2.1342 2.625-5.2502 2.625-9.3677v-53.233c0-5.6989 0.77631-10.103 2.3306-13.211 1.5543-3.1085 4.2097-5.6334 7.9658-7.5762 2.979-1.2952 5.8927-1.9438 8.7422-1.9438 5.8285 0 10.167 1.943 13.017 5.8286 1.4247 1.9428 2.2678 3.6275 2.5268 5.0522 0.25904 1.4247 0.38819 4.3385 0.38819 8.7422v54.398c0 9.8436 3.886 14.766 11.657 14.766 4.2742 0 7.1879-1.0361 8.7422-3.1084 1.6838-2.2019 2.5254-6.0878 2.5254-11.657v-53.232c0-6.8646 1.6847-12.11 5.0522-15.737 3.3676-3.6266 8.159-5.4404 14.376-5.4404 5.8284 0 10.232 1.8777 13.211 5.6338 2.4609 2.979 3.6914 7.6427 3.6914 13.989v54.981c0 5.1809 0.84162 8.9362 2.5254 11.268 1.8133 2.2019 4.8576 3.3032 9.1318 3.3032 7.5122 0 11.268-4.9859 11.268-14.959v-61.393c0-9.3255-3.4971-17.097-10.491-23.314-6.9941-6.217-15.737-9.3252-26.228-9.3252-5.0513 0-9.9733 0.84162-14.766 2.5254-4.7923 1.6838-8.9365 4.0156-12.434 6.9946-0.64761 0.6476-1.2309 1.035-1.749 1.1645-0.38856 0.12952-0.77598 0.26013-1.1645 0.38965h-0.77784c-0.25904-0.12952-0.71176-0.4531-1.3594-0.97119l-3.1084-3.1099c-2.5904-2.2019-5.8292-3.9504-9.7148-5.2456-3.7561-1.2952-7.7712-1.9424-12.045-1.9424z" fill="#017db7"/>
 <path d="m356.91 55.565q0-27.588 10.686-40.993t33.028-13.405q43.908 0 43.908 54.399t-43.908 54.399q-43.713 0-43.713-54.399zm26.422-25.645q-2.1371 4.4685-2.9142 9.9084-0.77713 5.4399-0.77713 15.737 0 18.262 3.6914 25.645 2.1371 4.2742 6.7999 6.7999t10.491 2.5257q12.628 0 17.291-9.3255 2.1371-4.4685 2.9142-9.9084t0.77713-15.737q0-18.262-3.6914-25.645-5.0513-9.5198-17.291-9.5198-12.434 0-17.291 9.5198z" fill="#017db7"/>
 <path d="m297.34 0.39008c-14.895 0-25.904 4.4678-33.028 13.405-7.1237 8.937-10.685 22.602-10.685 40.994v72.661c0 6.3465 0.64718 10.362 1.9424 12.045 1.4247 1.8133 4.5982 2.7202 9.52 2.7202 4.1447 0 7.0584-1.0361 8.7422-3.1084s2.5254-5.6986 2.5254-10.879v-23.276c5.8616 2.8219 12.853 4.2363 20.982 4.2363 29.272 0 43.907-18.133 43.907-54.398 0-36.266-14.635-54.398-43.907-54.398zm0 19.233c8.1598 0 13.923 3.1735 17.291 9.52 2.4609 4.9218 3.6914 13.47 3.6914 25.645 0 6.8646-0.25828 12.11-0.77637 15.737-0.51809 3.6266-1.4903 6.9292-2.915 9.9082-3.1085 6.217-8.8721 9.3252-17.291 9.3252-3.8856 0-7.3827-0.84161-10.491-2.5254-3.1085-1.6838-5.3751-3.9503-6.7998-6.7998-2.4609-4.9218-3.6914-13.47-3.6914-25.645 0-6.8646 0.25975-12.11 0.77783-15.737 0.51809-3.6266 1.4888-6.9292 2.9136-9.9082 3.238-6.3465 9.0017-9.52 17.291-9.52z" fill="#017db7"/>
 <path d="m499.43 5.6801 15.075-4v18.735h10.155v9.37h-10.155v39.885c-0.29 2.68 1.135 5.53 3.695 6.55 2.09 0.95 4.41 0.62 6.63 0.65l-0.08 9c-6.85 1.74-15.12 1.62-20.42-3.68-3.78-3.36-5.06-8.64-4.9-13.52v-38.885h-7.22v-9.37h7.22z" fill="#c9215e"/>
 <path d="m532.24 20.59 21.27 65.341h14.391l21.27-65.341h-15.899c-3.67 14.07-7.6109 28.28-11.401 42.33-0.74 2.77-0.77455 5.6209-1.1646 8.4609-0.39-2.84-0.42455-5.6909-1.1646-8.4609-3.79-14.05-7.7309-28.26-11.401-42.33z" fill="#c9215e"/>
 <path d="m36.578 53.057c0-3.7824 0.68052-6.5925 2.0416-8.4305 1.361-1.8379 3.4645-2.7569 6.3103-2.7569 5.5926 0 8.3889 3.7291 8.3889 11.187 0 7.4582-2.7963 11.187-8.3889 11.187-5.5679 0-8.3518-3.7291-8.3518-11.187z" fill="#c9215e"/>
</svg>
