<svg id="a" enable-background="new 0 0 1000 611.1998291" version="1.1" viewBox="0 0 643.39 220" xml:space="preserve" xmlns="http://www.w3.org/2000/svg">
<path id="b" d="m636.3 220h-407.83c-3.9411 0-7.0662-3.1704-7.0662-7.1678l5.3e-4 -205.66c0.0524-3.8607 3.1455-7.1689 7.095-7.1689h407.83c3.9396 0 7.0651 3.3082 7.0651 7.1678v205.66c0 3.9976-3.125 7.1678-7.0651 7.1678" fill="#d50032" stroke-width="3.4953"/><g id="c" transform="matrix(.36352 0 0 .36352 0 -2.1859)" fill="#fff"><path id="d" d="m277.36 177.64h-133.87v-151.97c0-10.824 8.833-19.657 19.657-19.657h349.15c10.845 0 19.656 8.8759 19.656 19.721l-0.0211 85.187c0 11.711-7.3174 20.133-18.964 20.133h-235.6z"/><path id="e" d="m513.02 611.2h-374.3l138.64-125h235.19c11.301 0 19.462 9.5689 19.462 19.505v85.836c0 10.846-7.8578 19.656-18.682 19.656"/><polygon id="f" points="277.36 373.5 455.03 297.84 277.36 297.84 277.36 177.64 174.42 297.84 0 297.84 111.36 373.5 15.738 486.2 175.46 416.99 277.36 486.2"/></g><path id="g" d="m297.74 59v41.341h-41.341v24.318h41.341v41.341h24.318v-41.341h41.341v-24.318h-41.341v-41.341z" fill="#fff" stroke-width="5.2376"/><g id="h" transform="translate(298.43 148.76)" fill="#fff" fill-rule="evenodd"><path id="i" d="m107.96 38.239v-102.64h-35.998v-19.876c21.493-0.53735 37.071-12.364 39.757-28.483h25.792v151z" stroke-width="2.657"/><path id="j" d="m216.2 2.0448c5.1712 6.7225 11.894 11.377 22.236 11.377 10.86 0 17.582-4.6541 22.241-11.377 6.2003-8.7912 9.3033-22.236 9.3033-39.302 0-17.06-3.1028-30.511-9.3033-39.302-5.1712-6.7225-11.899-11.372-22.241-11.372s-17.065 4.649-22.236 11.372c-6.2056 8.7912-8.7912 22.241-8.7912 39.302 0 17.065 2.5858 30.511 8.7912 39.302m-24.305-91.014c9.8255-14.475 24.827-23.788 46.541-23.788 22.241 0 37.755 9.8255 47.058 23.788 9.8255 14.997 12.929 33.096 12.929 51.712 0 18.617-3.1034 36.717-12.929 51.712-9.3033 14.479-24.817 23.788-47.058 23.788-21.714 0-37.229-9.8203-46.541-23.788-9.8255-14.997-12.928-32.575-12.928-51.712 0-18.617 3.1028-37.234 12.928-51.712" stroke-width="2.5571"/></g></svg>
