<?xml version="1.0" encoding="UTF-8"?>
<!-- Generator: Adobe Illustrator 22.0.1, SVG Export Plug-In . SVG Version: 6.00 Build 0)  -->
<svg id="Layer_1" width="102.99" height="46" enable-background="new 0 0 1000 611.1998291" version="1.1" viewBox="0 0 102.99 46" xml:space="preserve" xmlns="http://www.w3.org/2000/svg" xmlns:cc="http://creativecommons.org/ns#" xmlns:dc="http://purl.org/dc/elements/1.1/" xmlns:rdf="http://www.w3.org/1999/02/22-rdf-syntax-ns#"><metadata id="metadata17"><rdf:RDF><cc:Work rdf:about=""><dc:format>image/svg+xml</dc:format><dc:type rdf:resource="http://purl.org/dc/dcmitype/StillImage"/><dc:title/></cc:Work></rdf:RDF></metadata>
<path id="path36-1-0" d="m101.64 44h-53.854c-0.7524 0-1.349-0.60526-1.349-1.3684l1e-4 -39.263c0.01-0.73704 0.6005-1.3686 1.3545-1.3686h53.854c0.7521 0 1.3488 0.63157 1.3488 1.3684v39.263c0 0.76318-0.5966 1.3684-1.3488 1.3684" fill="#d50032" stroke-width=".66729"/><g id="g863-1-9-8" transform="matrix(.076009 0 0 .076009 0 -.45697)" fill="#fff"><path id="path2-1-9-9" d="m277.36 177.64h-133.87v-151.97c0-10.824 8.833-19.657 19.657-19.657h349.15c10.845 0 19.656 8.8759 19.656 19.721l-0.02109 85.187c0 11.711-7.3174 20.133-18.964 20.133h-235.6z"/><path id="path4-8-1-0" d="m513.02 611.2h-374.3l138.64-125h235.19c11.301 0 19.462 9.5689 19.462 19.505v85.836c0 10.846-7.8578 19.656-18.682 19.656"/><polygon id="polygon6-4-3-0" points="0 297.84 111.36 373.5 15.738 486.2 175.46 416.99 277.36 486.2 277.36 373.5 455.03 297.84 277.36 297.84 277.36 177.64 174.42 297.84"/></g><path id="path9-9-6-2" d="m59.933 12v8.5h-8.5v5h8.5v8.5h5v-8.5h8.5v-5h-8.5v-8.5z" fill="#fff" stroke-width="1.0769"/><path id="Fill-14-7" d="m74.868 19.354c-0.10884-0.43428-0.21659-1.1973-0.21659-1.8492 0-5.3343 3.9172-10.123 10.992-10.123 6.749 0 10.884 4.4636 10.884 9.687 0 4.0282-2.1768 7.2936-5.8776 9.4701l-5.9864 3.6995c-1.305 0.87182-2.5034 1.7426-2.9376 3.1564h14.91v5.2244h-22.203c0-5.3321 1.8503-9.469 7.2925-12.734l5.0056-3.1553c2.6133-1.6326 3.7017-3.3751 3.7017-5.552 0-2.3934-1.6326-4.5702-4.8978-4.5702-3.4829 0-5.1155 2.3934-5.1155 5.4422 0 0.54422 0.10775 1.0884 0.21768 1.6326z" fill="#fff" fill-rule="evenodd" stroke-width=".5382"/></svg>
