<svg id="a" enable-background="new 0 0 1000 611.1998291" version="1.1" viewBox="0 0 635.58 220" xml:space="preserve" xmlns="http://www.w3.org/2000/svg">
<path id="b" d="m628.48 220h-400.02c-3.9411 0-7.0662-3.1704-7.0662-7.1678l5.3e-4 -205.66c0.0524-3.8607 3.1455-7.1689 7.095-7.1689h400.02c3.9396 0 7.0651 3.3082 7.0651 7.1678v205.66c0 3.9976-3.125 7.1678-7.0651 7.1678" fill="#d50032" stroke-width="3.4953"/><g id="c" transform="matrix(.36352 0 0 .36352 0 -2.1859)" fill="#171f50"><path id="d" d="m277.36 177.64h-133.87v-151.97c0-10.824 8.833-19.657 19.657-19.657h349.15c10.845 0 19.656 8.8759 19.656 19.721l-0.0211 85.187c0 11.711-7.3174 20.133-18.964 20.133h-235.6z"/><path id="e" d="m513.02 611.2h-374.3l138.64-125h235.19c11.301 0 19.462 9.5689 19.462 19.505v85.836c0 10.846-7.8578 19.656-18.682 19.656"/><polygon id="f" points="174.42 297.84 0 297.84 111.36 373.5 15.738 486.2 175.46 416.99 277.36 486.2 277.36 373.5 455.03 297.84 277.36 297.84 277.36 177.64"/></g><path id="g" d="m297.74 59v41.341h-41.341v24.318h41.341v41.341h24.318v-41.341h41.341v-24.318h-41.341v-41.341z" fill="#fff" stroke-width="5.2376"/><path id="h" d="m406.37 187v-102.64h-35.966v-19.882c21.472-0.53735 37.039-12.359 39.723-28.48h25.767v151z" fill="#fff" stroke-width="2.6567"/><path id="i" d="m406.37 187v-102.64h-35.966v-19.882c21.472-0.53734 37.039-12.359 39.723-28.48h25.767v151z" fill="#fff" stroke-width="2.6567"/><path id="j" d="m481.72 92.024c-0.53658-2.1463-1.0732-5.9022-1.0732-9.122 0-26.292 19.317-49.902 54.196-49.902 33.268 0 53.658 22 53.658 47.756 0 19.854-10.732 35.951-28.976 46.683l-29.512 18.244c-6.4391 4.2927-12.341 8.5852-14.488 15.561h73.512v25.756h-109.46c0-26.292 9.122-46.683 35.951-62.779l24.683-15.561c12.878-8.0488 18.244-16.634 18.244-27.366 0-11.805-8.0488-22.537-24.146-22.537-17.171 0-25.22 11.805-25.22 26.829 0 2.6829 0.53659 5.3658 1.0732 8.0488z" fill="#fff" stroke-width="2.6564"/></svg>
