<?xml version="1.0" encoding="UTF-8"?>
<!-- Generator: Adobe Illustrator 22.0.1, SVG Export Plug-In . SVG Version: 6.00 Build 0)  -->
<svg id="Layer_1" width="535.99" height="220" enable-background="new 0 0 1000 611.1998291" version="1.1" viewBox="0 0 535.99 220" xml:space="preserve" xmlns="http://www.w3.org/2000/svg" xmlns:cc="http://creativecommons.org/ns#" xmlns:dc="http://purl.org/dc/elements/1.1/" xmlns:rdf="http://www.w3.org/1999/02/22-rdf-syntax-ns#"><metadata id="metadata17"><rdf:RDF><cc:Work rdf:about=""><dc:format>image/svg+xml</dc:format><dc:type rdf:resource="http://purl.org/dc/dcmitype/StillImage"/><dc:title/></cc:Work></rdf:RDF></metadata>
<path id="path36-1-0" d="m528.9 220h-300.43c-3.9411 0-7.0662-3.1704-7.0662-7.1678l5.3e-4 -205.66c0.0524-3.8607 3.1455-7.1689 7.095-7.1689h300.43c3.9396 0 7.0651 3.3082 7.0651 7.1678v205.66c0 3.9976-3.125 7.1678-7.0651 7.1678" fill="#d50032" stroke-width="3.4953"/><g id="g863-1-9-8" transform="matrix(.36352 0 0 .36352 0 -2.1859)" fill="#fff"><path id="path2-1-9-9" d="m277.36 177.64h-133.87v-151.97c0-10.824 8.833-19.657 19.657-19.657h349.15c10.845 0 19.656 8.8759 19.656 19.721l-0.0211 85.187c0 11.711-7.3174 20.133-18.964 20.133h-235.6z"/><path id="path4-8-1-0" d="m513.02 611.2h-374.3l138.64-125h235.19c11.301 0 19.462 9.5689 19.462 19.505v85.836c0 10.846-7.8578 19.656-18.682 19.656"/><polygon id="polygon6-4-3-0" points="111.36 373.5 15.738 486.2 175.46 416.99 277.36 486.2 277.36 373.5 455.03 297.84 277.36 297.84 277.36 177.64 174.42 297.84 0 297.84"/></g><path id="path9-9-6" d="m297.74 59v41.341h-41.341v24.318h41.341v41.341h24.318v-41.341h41.341v-24.318h-41.341v-41.341z" fill="#fff" stroke-width="5.2376"/><path id="Fill-14-1" d="m431.11 57.703c-14.716 0-27.33 9.981-27.33 26.28 0 16.293 12.089 26.28 27.33 26.28 14.191 0 27.33-9.9863 27.33-26.28-0.52558-15.767-13.14-26.28-27.33-26.28zm-43.623 97.757c5.7817 3.1535 16.293 6.3071 26.28 6.3071 28.908 0 46.253-16.819 47.828-44.155-5.7817 9.4657-18.396 16.299-35.215 16.299-26.805 0-50.984-18.396-50.984-49.405 0-29.963 24.177-51.506 55.712-51.506 31.01 0 58.343 22.075 58.343 69.378 0 53.085-26.282 84.622-76.21 84.622-12.089 0-26.805-3.1536-34.163-7.8837z" fill="#fff" fill-rule="evenodd" stroke-width="2.5989"/></svg>
