<svg id="a" version="1.1" viewBox="0 0 800 80.261" xmlns="http://www.w3.org/2000/svg">
 <g id="b" transform="matrix(21.502 0 0 -21.502 -5936.2 5060.7)">
  <path id="c" d="m279.27 231.69-1.208 0.794-1.868-0.792 1.1 1.291-1.221 0.802h1.904l1.293 1.515v-1.515h1.846l-1.846-0.787z" fill="#1d2447"/>
  <g id="d" transform="translate(281.56 234.56)">
   <path id="e" d="m0 0c0.065 0 0.117 0.053 0.117 0.117v0.508c0 0.064-0.052 0.117-0.117 0.117h-1.979v-0.742z" fill="#1d2447"/>
  </g>
  <g id="f" transform="translate(281.56 231.68)">
   <path id="g" d="m0 0c0.065 0 0.117 0.053 0.117 0.117v0.508c0 0.064-0.052 0.117-0.117 0.117h-1.979v-0.742z" fill="#1d2447"/>
  </g>
  <g id="h" transform="translate(308.12 235.3)">
   <path id="i" d="m0 0h-2.472c-0.065 0-0.118-0.053-0.118-0.118v-0.508c0-0.065 0.053-0.118 0.118-0.118h0.864v-2.763c0-0.065 0.053-0.118 0.118-0.118h0.508c0.065 0 0.118 0.053 0.118 0.118v2.763h0.864c0.065 0 0.118 0.053 0.118 0.118v0.508c0 0.065-0.053 0.118-0.118 0.118" fill="#1d2447"/>
  </g>
  <g id="j" transform="translate(297.56 233.75)">
   <path id="k" d="m0 0c-0.027-0.071-0.064-0.133-0.112-0.184-0.047-0.051-0.1-0.083-0.165-0.112-0.063-0.028-0.176-0.046-0.396-0.046h-0.571v1.148h0.749c0.08 0 0.154-0.015 0.219-0.043 0.066-0.029 0.123-0.069 0.17-0.119 0.047-0.049 0.083-0.109 0.108-0.179 0.026-0.072 0.039-0.151 0.039-0.233s-0.014-0.16-0.041-0.232m0.701 0.737c-0.059 0.16-0.146 0.301-0.26 0.421-0.114 0.118-0.254 0.214-0.416 0.285s-0.347 0.106-0.549 0.106h-1.345c-0.065 0-0.118-0.052-0.118-0.117v-3.386c0-0.065 0.053-0.118 0.118-0.118h0.508c0.065 0 0.117 0.053 0.117 0.118v0.867h0.72c0.202 0 0.386 0.035 0.547 0.104 0.16 0.069 0.299 0.165 0.413 0.284 0.114 0.118 0.202 0.257 0.262 0.413 0.06 0.155 0.09 0.351 0.09 0.523 0 0.174-0.029 0.343-0.087 0.5" fill="#1d2447"/>
  </g>
  <g id="l" transform="translate(293.21 234.26)">
   <path id="m" d="m0 0c-3e-3 -0.075 0.016-0.12 0.045-0.161 0.032-0.045 0.077-0.084 0.134-0.114 0.064-0.033 0.139-0.059 0.224-0.077 0.093-0.021 0.187-0.039 0.282-0.056 0.172-0.027 0.341-0.061 0.504-0.102 0.169-0.042 0.32-0.105 0.447-0.187 0.132-0.086 0.238-0.2 0.313-0.339 0.076-0.14 0.11-0.319 0.101-0.532-9e-3 -0.206-0.062-0.382-0.157-0.524-0.094-0.138-0.214-0.251-0.358-0.335-0.142-0.083-0.281-0.144-0.454-0.177-0.17-0.031-0.36-0.041-0.526-0.033-0.411 0.018-1.019 0.254-1.324 0.671-0.024 0.034-0.054 0.091 0.011 0.157 0.066 0.067 0.379 0.386 0.379 0.386 0.063 0.066 0.125 0.019 0.151-0.019 0.178-0.261 0.534-0.456 0.813-0.468 0.147-6e-3 0.164-1e-3 0.256 0.012 0.083 0.01 0.157 0.032 0.226 0.064 0.063 0.028 0.116 0.067 0.158 0.12 0.039 0.05 0.061 0.12 0.067 0.201 5e-3 0.078-0.017 0.141-0.053 0.192-0.039 0.055-0.093 0.097-0.158 0.131-0.074 0.038-0.157 0.062-0.25 0.079-0.1 0.019-0.199 0.036-0.295 0.049-0.158 0.021-0.316 0.053-0.469 0.097-0.157 0.044-0.298 0.108-0.418 0.188-0.125 0.083-0.226 0.192-0.299 0.321-0.076 0.133-0.11 0.284-0.102 0.474 8e-3 0.192 0.056 0.36 0.141 0.501 0.085 0.139 0.196 0.254 0.331 0.341 0.131 0.085 0.282 0.148 0.45 0.186 0.324 0.074 0.649 0.061 0.972-0.041 0.347-0.11 0.625-0.376 0.754-0.565 0.024-0.035 0.047-0.089-3e-3 -0.146-0.05-0.056-0.357-0.356-0.357-0.356-0.066-0.064-0.134-0.049-0.171 6e-3 -0.188 0.277-0.43 0.401-0.711 0.419-0.302 0.02-0.64-0.047-0.654-0.363" fill="#1d2447"/>
  </g>
  <g id="n" transform="translate(291.36 232.99)">
   <path id="o" d="m0 0c-0.057-0.14-0.135-0.258-0.233-0.351-0.098-0.094-0.213-0.166-0.343-0.213-0.131-0.049-0.273-0.073-0.422-0.073-0.152 0-0.296 0.024-0.427 0.073-0.128 0.047-0.241 0.118-0.336 0.211-0.095 0.094-0.172 0.213-0.229 0.353-0.058 0.141-0.087 0.308-0.087 0.497 0 0.188 0.029 0.356 0.087 0.497 0.057 0.14 0.135 0.258 0.231 0.352 0.096 0.093 0.211 0.166 0.341 0.215 0.13 0.05 0.274 0.075 0.426 0.075 0.148 0 0.289-0.025 0.42-0.075 0.129-0.049 0.244-0.122 0.34-0.217 0.097-0.096 0.175-0.215 0.232-0.355 0.058-0.142 0.087-0.307 0.087-0.492 0-0.189-0.029-0.356-0.087-0.497m0.297 1.877c-0.168 0.159-0.365 0.282-0.587 0.365-0.22 0.083-0.456 0.124-0.701 0.124-0.242 0-0.477-0.041-0.699-0.124-0.223-0.083-0.422-0.206-0.591-0.365-0.169-0.16-0.305-0.358-0.405-0.589-0.099-0.231-0.15-0.496-0.15-0.786 0-0.294 0.05-0.559 0.148-0.789 0.097-0.229 0.232-0.427 0.399-0.586 0.167-0.16 0.365-0.283 0.587-0.366 0.22-0.082 0.456-0.124 0.701-0.124 0.269 0 0.519 0.045 0.745 0.135 0.227 0.09 0.424 0.219 0.587 0.384 0.161 0.164 0.29 0.363 0.381 0.591 0.09 0.228 0.136 0.481 0.136 0.755 0 0.29-0.05 0.555-0.15 0.786-0.099 0.231-0.234 0.429-0.401 0.589" fill="#1d2447"/>
  </g>
  <g id="p" transform="translate(301.44 232.99)">
   <path id="q" d="m0 0c-0.057-0.14-0.135-0.258-0.233-0.351-0.098-0.094-0.214-0.166-0.343-0.213-0.131-0.049-0.273-0.073-0.422-0.073-0.152 0-0.296 0.024-0.427 0.073-0.128 0.047-0.241 0.118-0.336 0.211-0.095 0.094-0.172 0.213-0.229 0.353-0.058 0.141-0.087 0.308-0.087 0.497 0 0.188 0.029 0.356 0.087 0.497 0.057 0.14 0.135 0.258 0.231 0.352 0.097 0.093 0.211 0.166 0.34 0.215 0.131 0.05 0.275 0.075 0.426 0.075 0.149 0 0.291-0.025 0.421-0.075 0.129-0.049 0.244-0.122 0.34-0.217 0.097-0.096 0.175-0.215 0.232-0.355 0.058-0.142 0.087-0.307 0.087-0.492 0-0.189-0.029-0.356-0.087-0.497m0.297 1.877c-0.168 0.159-0.365 0.282-0.587 0.365-0.22 0.083-0.456 0.124-0.701 0.124-0.242 0-0.477-0.041-0.699-0.124-0.223-0.083-0.422-0.206-0.591-0.365-0.169-0.16-0.305-0.358-0.405-0.589-0.099-0.231-0.15-0.496-0.15-0.786 0-0.294 0.05-0.559 0.148-0.789 0.097-0.229 0.232-0.427 0.399-0.586 0.167-0.16 0.365-0.283 0.587-0.366 0.22-0.082 0.456-0.124 0.701-0.124 0.268 0 0.519 0.045 0.745 0.135 0.227 0.09 0.424 0.219 0.587 0.384 0.161 0.164 0.29 0.363 0.381 0.591 0.09 0.228 0.136 0.481 0.136 0.755 0 0.29-0.05 0.555-0.15 0.786-0.099 0.231-0.234 0.429-0.401 0.589" fill="#1d2447"/>
  </g>
  <g id="r" transform="translate(284.82 235.3)">
   <path id="s" d="m0 0h-0.51c-0.065 0-0.117-0.053-0.117-0.118v-2.241c0-0.095-0.016-0.179-0.048-0.249-0.031-0.069-0.075-0.128-0.129-0.174-0.056-0.048-0.123-0.085-0.2-0.111-0.08-0.027-0.213-0.04-0.307-0.04-0.093 0-0.235 0.014-0.316 0.04-0.079 0.026-0.148 0.063-0.205 0.112-0.056 0.046-0.1 0.104-0.131 0.173-0.031 0.07-0.047 0.154-0.047 0.249v2.241c0 0.065-0.053 0.118-0.118 0.118h-0.508c-0.065 0-0.118-0.053-0.118-0.118v-2.259c0-0.207 0.039-0.393 0.116-0.553 0.076-0.16 0.182-0.298 0.316-0.41 0.132-0.111 0.287-0.195 0.46-0.251 0.171-0.056 0.356-0.084 0.551-0.084 0.192 0 0.376 0.028 0.547 0.084 0.173 0.056 0.327 0.141 0.456 0.252 0.13 0.112 0.234 0.25 0.31 0.409 0.077 0.16 0.116 0.346 0.116 0.553v2.259c0 0.065-0.053 0.118-0.118 0.118" fill="#1d2447"/>
  </g>
  <g id="t" transform="translate(288.39 231.88)">
   <path id="u" d="m0 0-0.826 1.024s0.667 0.243 0.667 1.088c0 0.174-0.029 0.342-0.087 0.5-0.059 0.16-0.146 0.301-0.26 0.42s-0.253 0.215-0.415 0.286c-0.163 0.07-0.348 0.106-0.55 0.106h-1.344c-0.065 0-0.117-0.052-0.117-0.117v-3.386c0-0.065 0.052-0.118 0.117-0.118h0.507c0.065 0 0.117 0.053 0.117 0.118v2.76h0.753c0.08 0 0.153-0.015 0.219-0.044 0.065-0.029 0.123-0.068 0.169-0.118 0.047-0.049 0.083-0.109 0.108-0.179 0.026-0.072 0.039-0.151 0.039-0.233s-0.013-0.16-0.041-0.232c-0.026-0.071-0.064-0.133-0.111-0.184s-0.101-0.083-0.165-0.112c-0.063-0.029-0.176-0.046-0.396-0.046h-0.315c-0.062 0-0.11-0.056-0.063-0.133l1.177-1.548c0.022-0.03 0.058-0.049 0.096-0.049h0.65c0.095 0 0.159 0.088 0.071 0.197" fill="#1d2447"/>
  </g>
  <g id="v" transform="translate(305.57 231.88)">
   <path id="w" d="m0 0-0.826 1.024s0.667 0.243 0.667 1.088c0 0.174-0.029 0.342-0.087 0.5-0.058 0.16-0.146 0.301-0.26 0.42s-0.253 0.215-0.415 0.286c-0.163 0.07-0.348 0.106-0.55 0.106h-1.344c-0.065 0-0.117-0.052-0.117-0.117v-3.386c0-0.065 0.052-0.118 0.117-0.118h0.507c0.065 0 0.117 0.053 0.117 0.118v2.76h0.753c0.08 0 0.153-0.015 0.218-0.044 0.066-0.029 0.124-0.068 0.17-0.118 0.047-0.049 0.083-0.109 0.108-0.179 0.026-0.072 0.039-0.151 0.039-0.233s-0.014-0.16-0.041-0.232c-0.026-0.071-0.064-0.133-0.112-0.184-0.046-0.051-0.1-0.083-0.164-0.112-0.063-0.029-0.176-0.046-0.396-0.046h-0.315c-0.062 0-0.11-0.056-0.063-0.133l1.177-1.548c0.022-0.03 0.058-0.049 0.096-0.049h0.65c0.095 0 0.159 0.088 0.071 0.197" fill="#1d2447"/>
  </g>
 </g>
 <g id="x" transform="matrix(21.502 0 0 -21.502 -5936.2 5060.7)">
  <path id="y" d="m313.28 231.68h-3.629v3.625h3.629z" fill="#b51d23"/>
  <g id="z" transform="translate(310.43 232.45)">
   <path id="aa" d="m0 0v2.071h0.518l1.038-1.245v1.245h0.518v-2.071h-0.518l-1.038 1.241v-1.241z" fill="#fff"/>
  </g>
 </g>
</svg>
