<?xml version="1.0" encoding="UTF-8"?>
<!-- Generator: Adobe Illustrator 22.0.1, SVG Export Plug-In . SVG Version: 6.00 Build 0)  -->
<svg id="Layer_1" width="104.41" height="46" enable-background="new 0 0 1000 611.1998291" version="1.1" viewBox="0 0 104.41 46" xml:space="preserve" xmlns="http://www.w3.org/2000/svg" xmlns:cc="http://creativecommons.org/ns#" xmlns:dc="http://purl.org/dc/elements/1.1/" xmlns:rdf="http://www.w3.org/1999/02/22-rdf-syntax-ns#"><metadata id="metadata17"><rdf:RDF><cc:Work rdf:about=""><dc:format>image/svg+xml</dc:format><dc:type rdf:resource="http://purl.org/dc/dcmitype/StillImage"/><dc:title/></cc:Work></rdf:RDF></metadata>
<path id="path36-1-0" d="m103.05 44h-55.27c-0.7524 0-1.349-0.60526-1.349-1.3684l1e-4 -39.263c0.01-0.73704 0.6005-1.3686 1.3545-1.3686h55.27c0.7521 0 1.3488 0.63157 1.3488 1.3684v39.263c0 0.76318-0.5966 1.3684-1.3488 1.3684" fill="#d50032" stroke-width=".66729"/><g id="g863-1-9-8" transform="matrix(.076009 0 0 .076009 0 -.45697)" fill="#fff"><path id="path2-1-9-9" d="m277.36 177.64h-133.87v-151.97c0-10.824 8.833-19.657 19.657-19.657h349.15c10.845 0 19.656 8.8759 19.656 19.721l-0.02109 85.187c0 11.711-7.3174 20.133-18.964 20.133h-235.6z"/><path id="path4-8-1-0" d="m513.02 611.2h-374.3l138.64-125h235.19c11.301 0 19.462 9.5689 19.462 19.505v85.836c0 10.846-7.8578 19.656-18.682 19.656"/><polygon id="polygon6-4-3-0" points="15.738 486.2 175.46 416.99 277.36 486.2 277.36 373.5 455.03 297.84 277.36 297.84 277.36 177.64 174.42 297.84 0 297.84 111.36 373.5"/></g><path id="path9-9-6-7" d="m59.933 12v8.5h-8.5v5h8.5v8.5h5v-8.5h8.5v-5h-8.5v-8.5z" fill="#fff" stroke-width="1.0769"/><path id="Fill-14-1" d="m85.97 12.171c-3.0475 0-5.6597 2.0669-5.6597 5.4422 0 3.3741 2.5034 5.4422 5.6597 5.4422 2.9387 0 5.6597-2.068 5.6597-5.4422-0.10884-3.2652-2.721-5.4422-5.6597-5.4422zm-9.0336 20.244c1.1973 0.65305 3.3741 1.3061 5.4422 1.3061 5.9863 0 9.5783-3.4829 9.9044-9.1439-1.1973 1.9602-3.8095 3.3752-7.2925 3.3752-5.5509 0-10.558-3.8095-10.558-10.231 0-6.2049 5.0067-10.666 11.537-10.666 6.4217 0 12.082 4.5713 12.082 14.367 0 10.993-5.4425 17.524-15.782 17.524-2.5034 0-5.5509-0.65305-7.0746-1.6326z" fill="#fff" fill-rule="evenodd" stroke-width=".5382"/></svg>
