<?xml version="1.0" encoding="UTF-8"?>
<!-- Generator: Adobe Illustrator 22.0.1, SVG Export Plug-In . SVG Version: 6.00 Build 0)  -->
<svg id="Layer_1" width="533.4" height="220" enable-background="new 0 0 1000 611.1998291" version="1.1" viewBox="0 0 533.4 220" xml:space="preserve" xmlns="http://www.w3.org/2000/svg" xmlns:cc="http://creativecommons.org/ns#" xmlns:dc="http://purl.org/dc/elements/1.1/" xmlns:rdf="http://www.w3.org/1999/02/22-rdf-syntax-ns#"><metadata id="metadata17"><rdf:RDF><cc:Work rdf:about=""><dc:format>image/svg+xml</dc:format><dc:type rdf:resource="http://purl.org/dc/dcmitype/StillImage"/><dc:title/></cc:Work></rdf:RDF></metadata>
<path id="path36-1-0" d="m526.3 220h-297.84c-3.9411 0-7.0662-3.1704-7.0662-7.1678l5.3e-4 -205.66c0.0524-3.8607 3.1455-7.1689 7.095-7.1689h297.84c3.9396 0 7.0651 3.3082 7.0651 7.1678v205.66c0 3.9976-3.125 7.1678-7.0651 7.1678" fill="#d50032" stroke-width="3.4953"/><g id="g863-1-9-8" transform="matrix(.36352 0 0 .36352 0 -2.1859)" fill="#171f50"><path id="path2-1-9-9" d="m277.36 177.64h-133.87v-151.97c0-10.824 8.833-19.657 19.657-19.657h349.15c10.845 0 19.656 8.8759 19.656 19.721l-0.0211 85.187c0 11.711-7.3174 20.133-18.964 20.133h-235.6z"/><path id="path4-8-1-0" d="m513.02 611.2h-374.3l138.64-125h235.19c11.301 0 19.462 9.5689 19.462 19.505v85.836c0 10.846-7.8578 19.656-18.682 19.656"/><polygon id="polygon6-4-3-0" points="111.36 373.5 15.738 486.2 175.46 416.99 277.36 486.2 277.36 373.5 455.03 297.84 277.36 297.84 277.36 177.64 174.42 297.84 0 297.84"/></g><path id="path9-9-6" d="m297.74 59v41.341h-41.341v24.318h41.341v41.341h24.318v-41.341h41.341v-24.318h-41.341v-41.341z" fill="#fff" stroke-width="5.2376"/><path id="Fill-14-5" d="m405.47 97.51 41.312-36.414h-68.489v-26.096h106.54v24.46l-40.766 35.331c22.829 0.549 45.113 17.943 45.113 46.203 0 26.096-20.654 50.006-57.617 50.006-35.331 0-56.528-22.829-58.161-48.372l28.808-5.9844c1.0871 16.856 13.046 28.265 29.353 28.265 17.938 0 27.722-11.409 27.722-24.46 0-17.394-13.589-24.998-26.634-24.998-4.892 0-9.7839 1.0817-13.589 3.256z" fill="#fff" fill-rule="evenodd" stroke-width="2.6878"/></svg>
