<?xml version="1.0" encoding="UTF-8"?>
<!-- Generator: Adobe Illustrator 22.0.1, SVG Export Plug-In . SVG Version: 6.00 Build 0)  -->
<svg id="Layer_1" width="125.13" height="46" enable-background="new 0 0 1000 611.1998291" version="1.1" viewBox="0 0 125.13 46" xml:space="preserve" xmlns="http://www.w3.org/2000/svg" xmlns:cc="http://creativecommons.org/ns#" xmlns:dc="http://purl.org/dc/elements/1.1/" xmlns:rdf="http://www.w3.org/1999/02/22-rdf-syntax-ns#"><metadata id="metadata17"><rdf:RDF><cc:Work rdf:about=""><dc:format>image/svg+xml</dc:format><dc:type rdf:resource="http://purl.org/dc/dcmitype/StillImage"/><dc:title/></cc:Work></rdf:RDF></metadata>
<path id="path36-1-0" d="m123.78 44h-75.996c-0.7524 0-1.349-0.60526-1.349-1.3684l1e-4 -39.263c0.01-0.73704 0.6005-1.3686 1.3545-1.3686h75.996c0.7521 0 1.3488 0.63157 1.3488 1.3684v39.263c0 0.76318-0.5966 1.3684-1.3488 1.3684" fill="#d50032" stroke-width=".66729"/><g id="g863-1-9-8" transform="matrix(.076009 0 0 .076009 0 -.45704)" fill="#fff"><path id="path2-1-9-9" d="m277.36 177.64h-133.87v-151.97c0-10.824 8.833-19.657 19.657-19.657h349.15c10.845 0 19.656 8.8759 19.656 19.721l-0.0211 85.187c0 11.711-7.3174 20.133-18.964 20.133h-235.6z"/><path id="path4-8-1-0" d="m513.02 611.2h-374.3l138.64-125h235.19c11.301 0 19.462 9.5689 19.462 19.505v85.836c0 10.846-7.8578 19.656-18.682 19.656"/><path id="polygon6-4-3-0" d="m0 297.84 111.36 75.66-95.622 112.7 159.72-69.21 101.9 69.21v-112.7l177.67-75.66h-177.67v-120.2l-102.94 120.2z"/></g><path id="path9-9-6-1" d="m59.933 12v8.5h-8.5v5h8.5v8.5h5v-8.5h8.5v-5h-8.5v-8.5z" fill="#fff" stroke-width="1.0769"/><path id="path17-8" d="m81.725 38.514v-20.788h-7.2923v-4.0271c4.3536-0.10884 7.5099-2.5033 8.0541-5.7685h5.2243v30.584z" fill="#fff" stroke-width=".53881"/><path id="path19-4" d="m97.01 19.354c-0.10884-0.43536-0.21768-1.1972-0.21768-1.8503 0-5.3331 3.9182-10.122 10.993-10.122 6.7481 0 10.884 4.4624 10.884 9.6867 0 4.0271-2.1768 7.2923-5.8774 9.4691l-5.9862 3.7006c-1.3061 0.87072-2.5033 1.7414-2.9387 3.1564h14.911v5.2243h-22.203c0-5.3331 1.8503-9.4691 7.2923-12.734l5.0066-3.1564c2.6122-1.6326 3.7006-3.374 3.7006-5.5508 0-2.3945-1.6326-4.5713-4.8978-4.5713-3.4829 0-5.1155 2.3945-5.1155 5.442 0 0.5442 0.10884 1.0884 0.21768 1.6326z" fill="#fff" stroke-width=".53881"/></svg>
