<svg id="a" enable-background="new 0 0 1000 611.1998291" version="1.1" viewBox="0 0 537.57 220" xml:space="preserve" xmlns="http://www.w3.org/2000/svg">
<path id="b" d="m530.48 220h-302.01c-3.9411 0-7.0662-3.1704-7.0662-7.1678l5.3e-4 -205.66c0.0524-3.8607 3.1455-7.1689 7.095-7.1689h302.01c3.9396 0 7.0651 3.3082 7.0651 7.1678v205.66c0 3.9976-3.125 7.1678-7.0651 7.1678" fill="#d50032" stroke-width="3.4953"/><g id="c" transform="matrix(.36352 0 0 .36352 0 -2.1859)" fill="#171f50"><path id="d" d="m277.36 177.64h-133.87v-151.97c0-10.824 8.833-19.657 19.657-19.657h349.15c10.845 0 19.656 8.8759 19.656 19.721l-0.0211 85.187c0 11.711-7.3174 20.133-18.964 20.133h-235.6z"/><path id="e" d="m513.02 611.2h-374.3l138.64-125h235.19c11.301 0 19.462 9.5689 19.462 19.505v85.836c0 10.846-7.8578 19.656-18.682 19.656"/><polygon id="f" points="111.36 373.5 15.738 486.2 175.46 416.99 277.36 486.2 277.36 373.5 455.03 297.84 277.36 297.84 277.36 177.64 174.42 297.84 0 297.84"/></g><path id="g" d="m297.74 59v41.341h-41.341v24.318h41.341v41.341h24.318v-41.341h41.341v-24.318h-41.341v-41.341z" fill="#fff" stroke-width="5.2376"/><path id="h" d="m434.8 162.82c15.237 0 27.856-9.9866 27.856-26.281 0-16.299-13.14-26.811-27.856-26.811-15.243 0-27.331 9.9914-27.331 26.811 0 16.294 12.609 26.281 27.331 26.281zm44.147-98.813c-6.3073-2.6281-15.237-5.7819-24.703-5.7819-27.856 0-46.774 17.34-49.933 45.202 5.256-8.9353 18.396-17.35 36.791-17.35 29.439 0 49.933 18.927 49.933 49.411 0 31.011-24.699 51.507-56.235 51.507s-59.398-22.081-59.398-67.801c0-53.086 33.119-86.199 80.424-86.199 13.666 0 25.229 3.1484 31.006 7.3586z" fill="#fff" fill-rule="evenodd" stroke-width="2.599"/></svg>
