<?xml version="1.0" encoding="UTF-8"?>
<!-- Generator: Adobe Illustrator 22.0.1, SVG Export Plug-In . SVG Version: 6.00 Build 0)  -->
<svg id="Layer_1" width="104.73" height="46" enable-background="new 0 0 1000 611.1998291" version="1.1" viewBox="0 0 104.73 46" xml:space="preserve" xmlns="http://www.w3.org/2000/svg" xmlns:cc="http://creativecommons.org/ns#" xmlns:dc="http://purl.org/dc/elements/1.1/" xmlns:rdf="http://www.w3.org/1999/02/22-rdf-syntax-ns#"><metadata id="metadata17"><rdf:RDF><cc:Work rdf:about=""><dc:format>image/svg+xml</dc:format><dc:type rdf:resource="http://purl.org/dc/dcmitype/StillImage"/><dc:title/></cc:Work></rdf:RDF></metadata>
<path id="path36-1-0" d="m103.38 44h-55.596c-0.7524 0-1.349-0.60526-1.349-1.3684l1e-4 -39.263c0.01-0.73704 0.6005-1.3686 1.3545-1.3686h55.596c0.7521 0 1.3488 0.63157 1.3488 1.3684v39.263c0 0.76318-0.5966 1.3684-1.3488 1.3684" fill="#d50032" stroke-width=".66729"/><g id="g863-1-9-8" transform="matrix(.076009 0 0 .076009 0 -.45697)" fill="#fff"><path id="path2-1-9-9" d="m277.36 177.64h-133.87v-151.97c0-10.824 8.833-19.657 19.657-19.657h349.15c10.845 0 19.656 8.8759 19.656 19.721l-0.02109 85.187c0 11.711-7.3174 20.133-18.964 20.133h-235.6z"/><path id="path4-8-1-0" d="m513.02 611.2h-374.3l138.64-125h235.19c11.301 0 19.462 9.5689 19.462 19.505v85.836c0 10.846-7.8578 19.656-18.682 19.656"/><polygon id="polygon6-4-3-0" points="15.738 486.2 175.46 416.99 277.36 486.2 277.36 373.5 455.03 297.84 277.36 297.84 277.36 177.64 174.42 297.84 0 297.84 111.36 373.5"/></g><path id="path9-9-6-1" d="m59.933 12v8.5h-8.5v5h8.5v8.5h5v-8.5h8.5v-5h-8.5v-8.5z" fill="#fff" stroke-width="1.0769"/><path id="Fill-14-6" d="m86.733 33.938c3.1553 0 5.7684-2.068 5.7684-5.4422 0-3.3751-2.721-5.552-5.7684-5.552-3.1564 0-5.6597 2.069-5.6597 5.552 0 3.3741 2.6111 5.4422 5.6597 5.4422zm9.1418-20.462c-1.3061-0.54422-3.1553-1.1973-5.1155-1.1973-5.7684 0-9.6859 3.5907-10.34 9.3603 1.0884-1.8503 3.8095-3.5928 7.6187-3.5928 6.0961 0 10.34 3.9194 10.34 10.232 0 6.4217-5.1146 10.666-11.645 10.666-6.5305 0-12.3-4.5724-12.3-14.04 0-10.993 6.8582-17.85 16.654-17.85 2.8299 0 5.2244 0.65197 6.4207 1.5238z" fill="#fff" fill-rule="evenodd" stroke-width=".5382"/></svg>
