<?xml version="1.0" encoding="UTF-8"?>
<!-- Generator: Adobe Illustrator 22.0.1, SVG Export Plug-In . SVG Version: 6.00 Build 0)  -->
<svg id="Layer_1" width="103.97" height="46" enable-background="new 0 0 1000 611.1998291" version="1.1" viewBox="0 0 103.97 46" xml:space="preserve" xmlns="http://www.w3.org/2000/svg" xmlns:cc="http://creativecommons.org/ns#" xmlns:dc="http://purl.org/dc/elements/1.1/" xmlns:rdf="http://www.w3.org/1999/02/22-rdf-syntax-ns#"><metadata id="metadata17"><rdf:RDF><cc:Work rdf:about=""><dc:format>image/svg+xml</dc:format><dc:type rdf:resource="http://purl.org/dc/dcmitype/StillImage"/><dc:title/></cc:Work></rdf:RDF></metadata>
<path id="path36-1-0" d="m102.62 44h-54.834c-0.7524 0-1.349-0.60526-1.349-1.3684l1e-4 -39.263c0.01-0.73704 0.6005-1.3686 1.3545-1.3686h54.834c0.7521 0 1.3488 0.63157 1.3488 1.3684v39.263c0 0.76318-0.5966 1.3684-1.3488 1.3684" fill="#d50032" stroke-width=".66729"/><g id="g863-1-9-8" transform="matrix(.076009 0 0 .076009 0 -.45697)" fill="#171f50"><path id="path2-1-9-9" d="m277.36 177.64h-133.87v-151.97c0-10.824 8.833-19.657 19.657-19.657h349.15c10.845 0 19.656 8.8759 19.656 19.721l-0.02109 85.187c0 11.711-7.3174 20.133-18.964 20.133h-235.6z"/><path id="path4-8-1-0" d="m513.02 611.2h-374.3l138.64-125h235.19c11.301 0 19.462 9.5689 19.462 19.505v85.836c0 10.846-7.8578 19.656-18.682 19.656"/><polygon id="polygon6-4-3-0" points="15.738 486.2 175.46 416.99 277.36 486.2 277.36 373.5 455.03 297.84 277.36 297.84 277.36 177.64 174.42 297.84 0 297.84 111.36 373.5"/></g><path id="path9-9-6-7" d="m59.933 12v8.5h-8.5v5h8.5v8.5h5v-8.5h8.5v-5h-8.5v-8.5z" fill="#fff" stroke-width="1.0769"/><path id="Fill-14-5" d="m80.854 19.898 8.2721-7.2915h-13.714v-5.2254h21.333v4.8978l-8.1628 7.0746c4.5713 0.10993 9.0333 3.5928 9.0333 9.2516 0 5.2254-4.1357 10.013-11.537 10.013-7.0746 0-11.319-4.5713-11.646-9.6859l5.7684-1.1983c0.21768 3.3751 2.6122 5.6597 5.8776 5.6597 3.5918 0 5.5509-2.2846 5.5509-4.8978 0-3.4829-2.721-5.0056-5.3332-5.0056-0.97957 0-1.9591 0.2166-2.721 0.65197z" fill="#fff" fill-rule="evenodd" stroke-width=".5382"/></svg>
