<svg id="a" enable-background="new 0 0 1000 611.1998291" version="1.1" viewBox="0 0 535.3 220" xml:space="preserve" xmlns="http://www.w3.org/2000/svg">
<path id="b" d="m528.21 220h-299.74c-3.9411 0-7.0662-3.1704-7.0662-7.1678l5.3e-4 -205.66c0.0524-3.8607 3.1455-7.1689 7.095-7.1689h299.74c3.9396 0 7.0651 3.3082 7.0651 7.1678v205.66c0 3.9976-3.125 7.1678-7.0651 7.1678" fill="#d50032" stroke-width="3.4953"/><g id="c" transform="matrix(.36352 0 0 .36352 0 -2.1859)" fill="#fff"><path id="d" d="m277.36 177.64h-133.87v-151.97c0-10.824 8.833-19.657 19.657-19.657h349.15c10.845 0 19.656 8.8759 19.656 19.721l-0.0211 85.187c0 11.711-7.3174 20.133-18.964 20.133h-235.6z"/><path id="e" d="m513.02 611.2h-374.3l138.64-125h235.19c11.301 0 19.462 9.5689 19.462 19.505v85.836c0 10.846-7.8578 19.656-18.682 19.656"/><polygon id="f" points="111.36 373.5 15.738 486.2 175.46 416.99 277.36 486.2 277.36 373.5 455.03 297.84 277.36 297.84 277.36 177.64 174.42 297.84 0 297.84"/></g><path id="g" d="m297.74 59v41.341h-41.341v24.318h41.341v41.341h24.318v-41.341h41.341v-24.318h-41.341v-41.341z" fill="#fff" stroke-width="5.2376"/><path id="h" d="m402.68 134.59c1.064 14.977 12.298 26.736 29.408 26.736 14.971 0 27.269-10.154 27.269-26.195 0-17.645-13.367-26.736-27.809-26.736-10.694 0-19.244 4.2721-24.591 10.154-4.2777-1.6041-22.992-8.0204-27.275-9.6243l18.185-75.925h82.876v25.67h-63.093l-8.5607 35.82c6.4164-6.411 18.185-9.6243 28.343-9.6243 29.943 0 51.332 18.185 51.332 50.266 0 27.804-21.39 51.868-56.682 51.868-32.621 0-54.54-21.388-56.682-45.45z" fill="#fff" fill-rule="evenodd" stroke-width="2.644"/></svg>
