<svg id="a" enable-background="new 0 0 1000 611.1998291" version="1.1" viewBox="0 0 532.44 220" xml:space="preserve" xmlns="http://www.w3.org/2000/svg">
<path id="b" d="m525.35 220h-296.88c-3.9411 0-7.0662-3.1704-7.0662-7.1678l5.3e-4 -205.66c0.0524-3.8607 3.1455-7.1689 7.095-7.1689h296.88c3.9396 0 7.0651 3.3082 7.0651 7.1678v205.66c0 3.9976-3.125 7.1678-7.0651 7.1678" fill="#d50032" stroke-width="3.4953"/><g id="c" transform="matrix(.36352 0 0 .36352 0 -2.1859)" fill="#171f50"><path id="d" d="m277.36 177.64h-133.87v-151.97c0-10.824 8.833-19.657 19.657-19.657h349.15c10.845 0 19.656 8.8759 19.656 19.721l-0.0211 85.187c0 11.711-7.3174 20.133-18.964 20.133h-235.6z"/><path id="e" d="m513.02 611.2h-374.3l138.64-125h235.19c11.301 0 19.462 9.5689 19.462 19.505v85.836c0 10.846-7.8578 19.656-18.682 19.656"/><polygon id="f" points="277.36 297.84 277.36 177.64 174.42 297.84 0 297.84 111.36 373.5 15.738 486.2 175.46 416.99 277.36 486.2 277.36 373.5 455.03 297.84"/></g><path id="g" d="m297.74 59v41.341h-41.341v24.318h41.341v41.341h24.318v-41.341h41.341v-24.318h-41.341v-41.341z" fill="#fff" stroke-width="5.2376"/><path id="h" d="m454.28 77.119c0-10.405-8.9488-19.978-23.1-19.978-14.151 0-23.1 8.9488-23.1 19.978 0 11.654 8.9488 20.603 23.1 21.019 13.735-1.0405 23.1-9.365 23.1-21.019zm3.1217 64.722c0-11.654-8.9488-22.059-26.638-22.059-17.481 0-26.43 10.405-26.43 22.059 0 11.446 9.5731 21.435 26.43 21.435 17.273 0 26.638-10.405 26.638-21.435zm-81.996 2.4973c0-16.649 11.03-30.384 26.43-36.211-14.359-5.2025-23.1-19.354-23.1-33.089 0-24.557 22.06-42.038 51.402-42.038 29.968 0 52.025 17.481 52.025 42.038 0 13.735-8.9484 28.303-23.1 33.089 15.192 5.2029 26.844 19.562 26.844 36.211 0 24.765-21.642 42.662-55.148 42.662-33.714 0-55.356-17.897-55.356-42.662" fill="#fff" fill-rule="evenodd" stroke-width="4.8278"/></svg>
