<?xml version="1.0" encoding="UTF-8"?>
<!-- Generator: Adobe Illustrator 22.0.1, SVG Export Plug-In . SVG Version: 6.00 Build 0)  -->
<svg id="Layer_1" width="127.94" height="46" enable-background="new 0 0 1000 611.1998291" version="1.1" viewBox="0 0 127.94 46" xml:space="preserve" xmlns="http://www.w3.org/2000/svg" xmlns:cc="http://creativecommons.org/ns#" xmlns:dc="http://purl.org/dc/elements/1.1/" xmlns:rdf="http://www.w3.org/1999/02/22-rdf-syntax-ns#"><metadata id="metadata17"><rdf:RDF><cc:Work rdf:about=""><dc:format>image/svg+xml</dc:format><dc:type rdf:resource="http://purl.org/dc/dcmitype/StillImage"/><dc:title/></cc:Work></rdf:RDF></metadata>
<path id="path36-1-0" d="m126.58 44h-78.801c-0.7524 0-1.349-0.60526-1.349-1.3684l1e-4 -39.263c0.01-0.73704 0.6005-1.3686 1.3545-1.3686h78.801c0.7521 0 1.3488 0.63157 1.3488 1.3684v39.263c0 0.76318-0.5966 1.3684-1.3488 1.3684" fill="#d50032" stroke-width=".66729"/><g id="g863-1-9-8" transform="matrix(.076009 0 0 .076009 0 -.45704)" fill="#fff"><path id="path2-1-9-9" d="m277.36 177.64h-133.87v-151.97c0-10.824 8.833-19.657 19.657-19.657h349.15c10.845 0 19.656 8.8759 19.656 19.721l-0.0211 85.187c0 11.711-7.3174 20.133-18.964 20.133h-235.6z"/><path id="path4-8-1-0" d="m513.02 611.2h-374.3l138.64-125h235.19c11.301 0 19.462 9.5689 19.462 19.505v85.836c0 10.846-7.8578 19.656-18.682 19.656"/><path id="polygon6-4-3-0" d="m455.03 297.84h-177.67v-120.2l-102.94 120.2h-174.42l111.36 75.66-95.622 112.7 159.72-69.21 101.9 69.21v-112.7z"/></g><path id="path9-9-6-8" d="m59.933 12v8.5h-8.5v5h8.5v8.5h5v-8.5h8.5v-5h-8.5v-8.5z" fill="#fff" stroke-width="1.0769"/><path id="Fill-14-68" d="m81.724 38.242v-20.789h-7.2913v-4.0259c4.3535-0.10884 7.5087-2.5043 8.0528-5.7693h5.2242v30.585z" fill="#fff" fill-rule="evenodd" stroke-width=".53818"/><path id="Fill-16-0" d="m104.27 31.272c1.0884 1.4149 2.5034 2.3945 4.6801 2.3945 2.2857 0 3.7006-0.97957 4.6812-2.3945 1.305-1.8503 1.9581-4.6801 1.9581-8.2721 0-3.5907-0.65305-6.4217-1.9581-8.2721-1.0884-1.4149-2.5044-2.3934-4.6812-2.3934s-3.5918 0.97849-4.6801 2.3934c-1.3061 1.8503-1.8503 4.6812-1.8503 8.2721 0 3.5918 0.54423 6.4217 1.8503 8.2721m-5.1156-19.156c2.068-3.0465 5.2254-5.0067 9.7957-5.0067 4.6812 0 7.9464 2.068 9.9044 5.0067 2.068 3.1564 2.7212 6.9659 2.7212 10.884 0 3.9183-0.65318 7.7279-2.7212 10.884-1.9581 3.0475-5.2233 5.0067-9.9044 5.0067-4.5702 0-7.8356-2.0669-9.7957-5.0067-2.068-3.1564-2.721-6.8561-2.721-10.884 0-3.9183 0.65305-7.8367 2.721-10.884" fill="#fff" fill-rule="evenodd" stroke-width=".5382"/></svg>
