<?xml version="1.0" encoding="UTF-8" standalone="no"?>
<!-- Generator: Adobe Illustrator 15.1.0, SVG Export Plug-In . SVG Version: 6.00 Build 0)  -->

<svg
   xmlns:dc="http://purl.org/dc/elements/1.1/"
   xmlns:cc="http://creativecommons.org/ns#"
   xmlns:rdf="http://www.w3.org/1999/02/22-rdf-syntax-ns#"
   xmlns:svg="http://www.w3.org/2000/svg"
   xmlns="http://www.w3.org/2000/svg"
   xmlns:sodipodi="http://sodipodi.sourceforge.net/DTD/sodipodi-0.dtd"
   xmlns:inkscape="http://www.inkscape.org/namespaces/inkscape"
   version="1.1"
   x="0px"
   y="0px"
   width="427.95001"
   height="261.048"
   viewBox="0 0 427.95002 261.048"
   enable-background="new 0 0 487.465 294"
   xml:space="preserve"
   id="svg37"
   sodipodi:docname="Fashion TV.svg"
   inkscape:version="0.92.0 r15299"><metadata
     id="metadata43"><rdf:RDF><cc:Work
         rdf:about=""><dc:format>image/svg+xml</dc:format><dc:type
           rdf:resource="http://purl.org/dc/dcmitype/StillImage" /><dc:title></dc:title></cc:Work></rdf:RDF></metadata><defs
     id="defs41" /><sodipodi:namedview
     pagecolor="#ffffff"
     bordercolor="#666666"
     borderopacity="1"
     objecttolerance="10"
     gridtolerance="10"
     guidetolerance="10"
     inkscape:pageopacity="0"
     inkscape:pageshadow="2"
     inkscape:window-width="1920"
     inkscape:window-height="1017"
     id="namedview39"
     showgrid="false"
     fit-margin-top="0"
     fit-margin-left="0"
     fit-margin-right="0"
     fit-margin-bottom="0"
     inkscape:zoom="0.58260594"
     inkscape:cx="224.0455"
     inkscape:cy="130.37"
     inkscape:window-x="-8"
     inkscape:window-y="-8"
     inkscape:window-maximized="1"
     inkscape:current-layer="svg37" /><g
     id="Layer_3"
     transform="translate(-19.687,-16.322)"
     style="fill:#ffffff;fill-opacity:1"><g
       id="g14"
       style="fill:#ffffff;fill-opacity:1"><g
         id="g12"
         style="fill:#ffffff;fill-opacity:1"><polygon
           points="43.729,104.998 115.405,33.322 268.656,33.322 340.39,105 309.576,135.814 333.618,135.814 364.437,104.996 275.693,16.322 108.363,16.322 19.687,104.998 192.061,277.37 279.161,190.27 255.119,190.27 192.061,253.329 "
           id="polygon2"
           style="fill:#ffffff;fill-opacity:1" /><g
           id="g10"
           style="fill:#ffffff;fill-opacity:1"><g
             id="g6"
             style="fill:#ffffff;fill-opacity:1"><path
               d="m 220.189,116.465 v 5.418 h -19.078 v 82.441 h 19.078 v 5.418 H 164.6 v -5.418 h 18.138 V 121.883 H 164.6 v -5.418 h 18.138 v -11.543 c 0,-40.278 16.723,-57.238 39.336,-57.238 9.187,0 19.787,4.241 19.787,15.312 0,4.711 -4.712,7.773 -8.715,7.773 -6.361,0 -9.659,-4.476 -9.659,-10.836 0,-2.59 1.884,-2.826 1.884,-5.887 0,-1.179 -4.004,-1.414 -5.654,-1.414 -11.305,0 -18.607,13.661 -18.607,37.216 v 26.618 h 19.079 z"
               id="path4"
               inkscape:connector-curvature="0"
               style="fill:#ffffff;fill-opacity:1" /></g><circle
             cx="250.789"
             cy="118.821"
             r="8.5179996"
             id="circle8"
             style="fill:#ffffff;fill-opacity:1" /></g></g></g><g
       id="FONTS_copy_2"
       style="fill:#ffffff;fill-opacity:1" /></g><g
     id="FONTS"
     transform="translate(-19.687,-16.322)"
     style="fill:#ffffff;fill-opacity:1"><g
       id="g34"
       style="fill:#ffffff;fill-opacity:1"><path
         d="m 245.772,181.454 c -0.214,3.367 -2.793,5.874 -6.088,5.874 -2.65,0 -4.155,-1.72 -4.656,-4.37 -2.437,3.01 -6.018,4.37 -9.671,4.37 -4.513,0 -8.381,-1.72 -8.381,-7.02 0.215,-6.663 7.021,-10.388 17.98,-10.388 v -6.805 c 0,-3.367 -2.65,-4.37 -5.158,-4.37 -1.575,0 -6.661,0.502 -6.661,2.58 0,0.571 2.149,0.931 2.149,3.294 0,1.791 -1.147,3.009 -2.937,3.009 -1.935,0 -3.009,-1.433 -3.009,-3.438 0,-2.578 2.937,-6.876 11.462,-6.876 9.742,0 9.742,4.154 9.742,7.02 v 17.048 c 0,2.149 0,3.295 1.504,3.295 1.433,0 2.149,-2.004 2.507,-3.223 z m -10.816,-10.028 c -4.656,0.07 -12.606,0.858 -12.606,7.448 0,3.511 2.22,5.66 5.516,5.66 2.292,0 3.795,-0.574 5.516,-2.077 0.573,-0.574 1.575,-1.362 1.575,-4.371 v -6.66 z"
         id="path18"
         inkscape:connector-curvature="0"
         style="fill:#ffffff;fill-opacity:1" /><path
         d="m 268.266,158.03 v 8.022 h -1.576 c -1.074,-4.155 -3.51,-7.091 -7.809,-7.307 -5.874,-0.144 -6.732,4.37 -6.732,5.229 0,2.078 0.573,3.153 11.533,5.373 5.516,1.147 7.449,3.654 7.449,8.167 0,6.16 -4.656,9.813 -10.315,9.813 -3.008,0 -6.161,-1.218 -8.238,-3.51 l -1.576,2.578 h -1.575 v -9.456 h 1.647 c 1.36,5.158 4.871,8.955 10.171,8.955 3.224,0 6.948,-2.436 6.948,-6.161 0,-2.794 -3.938,-4.082 -9.885,-5.587 -4.728,-1.146 -8.882,-1.79 -8.882,-8.023 0,-3.008 1.862,-8.81 9.671,-8.81 2.22,0 4.441,0.858 6.662,2.649 l 1.289,-1.934 h 1.218 z"
         id="path20"
         inkscape:connector-curvature="0"
         style="fill:#ffffff;fill-opacity:1" /><path
         d="m 279.871,138.689 h -3.941 v -1.648 h 1.505 c 2.651,0 5.444,-0.144 8.023,-0.645 v 28.51 h 0.143 c 2.007,-4.514 4.8,-7.593 10.03,-7.593 2.578,0 8.522,0.571 8.522,7.162 v 20.272 h 3.869 v 1.647 h -13.181 v -1.647 h 3.725 v -19.342 c 0,-5.229 -1.647,-6.016 -4.514,-6.016 -4.87,0 -8.595,6.661 -8.595,12.035 v 13.322 h 3.866 v 1.647 H 275.93 v -1.647 h 3.941 z"
         id="path22"
         inkscape:connector-curvature="0"
         style="fill:#ffffff;fill-opacity:1" /><path
         d="m 312.321,186.396 v -1.647 h 4.8 v -25.07 h -4.8 v -1.648 h 2.363 c 2.651,0 5.445,-0.072 8.023,-0.716 v 27.435 h 4.227 v 1.647 h -14.613 z m 7.522,-47.278 c 1.72,0 3.652,1.576 3.652,3.438 0,2.221 -1.575,3.796 -3.652,3.796 -2.077,0 -3.438,-1.719 -3.438,-3.796 0,-1.862 1.648,-3.438 3.438,-3.438 z"
         id="path24"
         inkscape:connector-curvature="0"
         style="fill:#ffffff;fill-opacity:1" /><path
         d="m 359.672,172.285 c 0,8.667 -6.304,15.043 -13.825,15.043 -7.521,0 -13.827,-6.376 -13.827,-15.043 0,-8.667 6.306,-14.971 13.827,-14.971 7.521,0 13.825,6.304 13.825,14.971 z m -21.132,0 c 0,6.018 0.07,13.61 7.307,13.61 7.234,0 7.307,-7.593 7.307,-13.61 0,-5.946 -0.072,-13.539 -7.307,-13.539 -7.237,0 -7.307,7.592 -7.307,13.539 z"
         id="path26"
         inkscape:connector-curvature="0"
         style="fill:#ffffff;fill-opacity:1" /><path
         d="m 367.767,159.678 h -3.942 v -1.648 h 1.506 c 1.36,0 2.721,0 4.012,-0.145 1.36,-0.07 2.721,-0.285 4.011,-0.571 v 7.593 h 0.143 c 2.007,-4.514 4.801,-7.593 10.03,-7.593 2.579,0 8.522,0.571 8.522,7.162 v 20.272 h 3.869 v 1.647 h -13.181 v -1.647 h 3.725 v -19.342 c 0,-5.229 -1.647,-6.016 -4.513,-6.016 -4.871,0 -8.596,6.661 -8.596,12.035 v 13.322 h 3.867 v 1.647 h -13.396 v -1.647 h 3.942 v -25.069 z"
         id="path28"
         inkscape:connector-curvature="0"
         style="fill:#ffffff;fill-opacity:1" /><path
         d="m 398.855,158.03 h 4.227 v -8.811 c 1.862,0 3.652,0 5.444,-0.287 v 9.098 h 6.304 v 1.648 h -6.304 v 21.919 c 0,1.289 0,3.224 2.721,3.224 1.862,0 2.866,-1.29 4.012,-2.65 l 1.146,0.787 c -1.36,2.723 -4.871,4.37 -7.736,4.37 -5.157,0 -5.731,-2.793 -5.731,-6.232 v -21.417 h -4.082 v -1.649 z"
         id="path30"
         inkscape:connector-curvature="0"
         style="fill:#ffffff;fill-opacity:1" /><path
         d="m 418.842,159.678 v -1.648 h 12.894 v 1.648 h -3.797 l 6.949,20.558 h 0.143 l 7.234,-20.558 h -4.368 v -1.648 h 9.74 v 1.648 h -3.438 l -9.886,27.649 h -2.434 l -9.601,-27.649 z"
         id="path32"
         inkscape:connector-curvature="0"
         style="fill:#ffffff;fill-opacity:1" /></g></g></svg>