<?xml version="1.0" encoding="UTF-8"?>
<svg id="svg75" width="544.92" height="375.68" version="1.1" viewBox="0 0 544.92 375.68" xmlns="http://www.w3.org/2000/svg" xmlns:cc="http://creativecommons.org/ns#" xmlns:dc="http://purl.org/dc/elements/1.1/" xmlns:rdf="http://www.w3.org/1999/02/22-rdf-syntax-ns#">
 <metadata id="metadata79">
  <rdf:RDF>
   <cc:Work rdf:about="">
    <dc:format>image/svg+xml</dc:format>
    <dc:type rdf:resource="http://purl.org/dc/dcmitype/StillImage"/>
    <dc:title>Fatstone</dc:title>
   </cc:Work>
  </rdf:RDF>
 </metadata>
<!-- Generator: Sketch 47.1 (45422) - http://www.bohemiancoding.com/sketch -->
 <title id="title2">Fatstone</title>
 <desc id="desc4">Created with Sketch.</desc>
 <g id="g1151" transform="translate(-208 -59.142)" fill="#fff" fill-rule="evenodd">
  <path id="Fill-1" d="m395.75 411.83c0 8.0607-1.9694 13.909-5.9323 17.545-3.9388 3.6368-10.285 5.4472-19.066 5.4472-8.7424 0-15.102-1.8104-19.106-5.4472-4.0019-3.6356-5.9965-9.4838-5.9965-17.545v-13.043h19.376v13.043c0 4.3472 1.8134 6.5082 5.4413 6.5082 3.652 0 5.4528-2.161 5.4528-6.5082v-5.7966c0-2.5494-0.3636-4.4766-1.0506-5.6798-0.73752-1.2294-2.1885-2.4325-4.4423-3.6368l-13.911-7.7892c-4.4939-2.4841-7.4474-5.3051-8.872-8.5007-1.3202-2.8462-1.9946-7.3366-1.9946-13.456v-6.0556c0-8.0607 1.9809-13.949 5.9965-17.624 3.9514-3.6872 10.285-5.5239 18.912-5.5239 8.5486 0 14.804 1.8367 18.716 5.5239 3.9629 3.6746 5.9323 9.5629 5.9323 17.624v10.195h-19.286v-10.195c0-4.4377-1.7492-6.6376-5.2464-6.6376-3.4456 0-5.1798 2.1999-5.1798 6.6376v3.9862c0 3.945 1.4762 6.7912 4.4802 8.4996l13.937 7.7112c5.0525 2.8347 8.3937 5.7852 9.9995 8.9292 1.2181 2.3409 1.8398 6.8565 1.8398 13.585v8.2039"/>
  <polyline id="Fill-2" transform="translate(208,59)" points="240.46 296.74 225.32 296.74 225.32 374.45 205.49 374.45 205.49 296.74 190.49 296.74 190.49 280.15 240.46 280.15 240.46 296.74"/>
  <path id="Fill-3" d="m482.15 411.83v-50.915c0-4.4377-1.6207-6.6376-4.8839-6.6376-3.4192 0-5.103 2.1999-5.103 6.6376v50.915c0 4.3472 1.6838 6.5082 5.103 6.5082 3.2632 0 4.8839-2.161 4.8839-6.5082zm20.126 0c0 8.0344-1.9935 13.857-5.9575 17.532-4.0156 3.6356-10.362 5.4598-19.053 5.4598-8.8078 0-15.206-1.8104-19.221-5.4472-3.9892-3.6356-5.9839-9.4838-5.9839-17.545v-50.915c0-8.0607 1.9946-13.949 5.9839-17.624 4.0156-3.6872 10.414-5.5239 19.221-5.5239 8.6529 0 14.986 1.8367 19.001 5.5239 4.0019 3.6746 6.0091 9.5629 6.0091 17.624z"/>
  <polyline id="Fill-4" transform="translate(208,59)" points="354.39 374.45 332.79 374.45 319.37 323.42 319.37 374.45 300.92 374.45 300.92 280.15 322.89 280.15 336.02 330.19 336.02 280.15 354.39 280.15 354.39 374.45"/>
  <polyline id="Fill-5" transform="translate(208,59)" points="400.7 374.45 362.08 374.45 362.08 280.15 400.7 280.15 400.7 296.74 381.9 296.74 381.9 318.32 400.7 318.32 400.7 334.91 381.9 334.91 381.9 357.89 400.7 357.89 400.7 374.45"/>
  <polygon id="Fill-6" transform="translate(208,59)" points="408.51 374.45 427.31 374.45 427.31 359.34 408.51 359.34"/>
  <polyline id="Fill-7" transform="translate(208,59)" points="483.47 296.74 468.36 296.74 468.36 374.45 448.5 374.45 448.5 296.74 433.52 296.74 433.52 280.15 483.47 280.15 483.47 296.74"/>
  <polyline id="Fill-8" transform="translate(208,59)" points="544.92 280.15 528.15 374.45 505.05 374.45 487.22 280.15 507.61 280.15 516.8 338.82 525.03 280.15 544.92 280.15"/>
  <path id="Fill-14" d="m373.52 95.978c0 3.623-2.9547 6.5998-6.5803 6.5998h-17.848c-3.6394 0-6.6055-2.9768-6.6055-6.5998v-6.0166c0-3.6219 2.9661-6.5597 6.6055-6.5597h17.848c3.6257 0 6.5803 2.9378 6.5803 6.5597v6.0166"/>
  <path id="Fill-15" d="m408.49 95.978c0 3.623-2.9409 6.5998-6.5539 6.5998h-17.874c-3.6268 0-6.5803-2.9768-6.5803-6.5998v-6.0166c0-3.6219 2.9535-6.5597 6.5803-6.5597h17.874c3.613 0 6.5539 2.9378 6.5539 6.5597v6.0166"/>
  <path id="Fill-16" d="m583.44 95.978c0 3.623-2.9397 6.5998-6.5792 6.5998h-17.861c-3.6268 0-6.5803-2.9768-6.5803-6.5998v-6.0166c0-3.6219 2.9535-6.5597 6.5803-6.5597h17.861c3.6394 0 6.5792 2.9378 6.5792 6.5597v6.0166"/>
  <path id="Fill-17" d="m618.42 95.978c0 3.623-2.9524 6.5998-6.5929 6.5998h-17.861c-3.6532 0-6.5792-2.9768-6.5792-6.5998v-6.0166c0-3.6219 2.926-6.5597 6.5792-6.5597h17.861c3.6406 0 6.5929 2.9378 6.5929 6.5597v6.0166"/>
  <path id="Fill-18" d="m373.52 120.04c0 3.6104-2.9547 6.5735-6.5803 6.5735h-17.848c-3.6394 0-6.6055-2.963-6.6055-6.5735v-6.0281c0-3.6368 2.9661-6.5471 6.6055-6.5471h17.848c3.6257 0 6.5803 2.9103 6.5803 6.5471v6.0281"/>
  <path id="Fill-19" d="m408.49 120.04c0 3.6104-2.9409 6.5735-6.5539 6.5735h-17.874c-3.6268 0-6.5803-2.963-6.5803-6.5735v-6.0281c0-3.6368 2.9535-6.5471 6.5803-6.5471h17.874c3.613 0 6.5539 2.9103 6.5539 6.5471v6.0281"/>
  <path id="Fill-20" d="m478.46 120.04c0 3.6104-2.9271 6.5735-6.5539 6.5735h-17.875c-3.6257 0-6.5792-2.963-6.5792-6.5735v-6.0281c0-3.6368 2.9535-6.5471 6.5792-6.5471h17.875c3.6268 0 6.5539 2.9103 6.5539 6.5471v6.0281"/>
  <path id="Fill-21" d="m513.47 120.04c0 3.6104-2.9524 6.5735-6.5792 6.5735h-17.875c-3.613 0-6.5918-2.963-6.5918-6.5735v-6.0281c0-3.6368 2.9787-6.5471 6.5918-6.5471h17.875c3.6268 0 6.5792 2.9103 6.5792 6.5471v6.0281"/>
  <path id="Fill-22" d="m583.44 120.04c0 3.6104-2.9397 6.5735-6.5792 6.5735h-17.861c-3.6268 0-6.5803-2.963-6.5803-6.5735v-6.0281c0-3.6368 2.9535-6.5471 6.5803-6.5471h17.861c3.6394 0 6.5792 2.9103 6.5792 6.5471v6.0281"/>
  <path id="Fill-23" d="m618.42 120.04c0 3.6104-2.9524 6.5735-6.5929 6.5735h-17.861c-3.6532 0-6.5792-2.963-6.5792-6.5735v-6.0281c0-3.6368 2.926-6.5471 6.5792-6.5471h17.861c3.6406 0 6.5929 2.9103 6.5929 6.5471v6.0281"/>
  <path id="Fill-24" d="m373.52 144.1c0 3.6356-2.9547 6.5471-6.5803 6.5471h-17.848c-3.6394 0-6.6055-2.9115-6.6055-6.5471v-6.0166c0-3.6356 2.9661-6.5861 6.6055-6.5861h17.848c3.6257 0 6.5803 2.9504 6.5803 6.5861v6.0166"/>
  <path id="Fill-25" d="m408.49 144.1c0 3.6356-2.9409 6.5471-6.5539 6.5471h-17.874c-3.6268 0-6.5803-2.9115-6.5803-6.5471v-6.0166c0-3.6356 2.9535-6.5861 6.5803-6.5861h17.874c3.613 0 6.5539 2.9504 6.5539 6.5861v6.0166"/>
  <path id="Fill-26" d="m443.49 144.1c0 3.6356-2.9547 6.5471-6.5803 6.5471h-17.848c-3.6394 0-6.6056-2.9115-6.6056-6.5471v-6.0166c0-3.6356 2.9661-6.5861 6.6056-6.5861h17.848c3.6256 0 6.5803 2.9504 6.5803 6.5861v6.0166"/>
  <path id="Fill-27" d="m478.46 144.1c0 3.6356-2.9271 6.5471-6.5539 6.5471h-17.875c-3.6257 0-6.5792-2.9115-6.5792-6.5471v-6.0166c0-3.6356 2.9535-6.5861 6.5792-6.5861h17.875c3.6268 0 6.5539 2.9504 6.5539 6.5861v6.0166"/>
  <path id="Fill-28" d="m513.47 144.1c0 3.6356-2.9524 6.5471-6.5792 6.5471h-17.875c-3.613 0-6.5918-2.9115-6.5918-6.5471v-6.0166c0-3.6356 2.9787-6.5861 6.5918-6.5861h17.875c3.6268 0 6.5792 2.9504 6.5792 6.5861v6.0166"/>
  <path id="Fill-29" d="m548.44 144.1c0 3.6356-2.9409 6.5471-6.5677 6.5471h-17.85c-3.6784 0-6.6044-2.9115-6.6044-6.5471v-6.0166c0-3.6356 2.926-6.5861 6.6044-6.5861h17.85c3.6268 0 6.5677 2.9504 6.5677 6.5861v6.0166"/>
  <path id="Fill-30" d="m583.44 144.1c0 3.6356-2.9397 6.5471-6.5792 6.5471h-17.861c-3.6268 0-6.5803-2.9115-6.5803-6.5471v-6.0166c0-3.6356 2.9535-6.5861 6.5803-6.5861h17.861c3.6394 0 6.5792 2.9504 6.5792 6.5861v6.0166"/>
  <path id="Fill-31" d="m618.42 144.1c0 3.6356-2.9524 6.5471-6.5929 6.5471h-17.861c-3.6532 0-6.5792-2.9115-6.5792-6.5471v-6.0166c0-3.6356 2.926-6.5861 6.5792-6.5861h17.861c3.6406 0 6.5929 2.9504 6.5929 6.5861v6.0166"/>
  <path id="Fill-32" d="m408.49 168.14c0 3.6356-2.9409 6.5861-6.5539 6.5861h-17.874c-3.6268 0-6.5803-2.9504-6.5803-6.5861v-6.0304c0-3.6093 2.9535-6.5334 6.5803-6.5334h17.874c3.613 0 6.5539 2.9241 6.5539 6.5334v6.0304"/>
  <path id="Fill-33" d="m443.49 168.14c0 3.6356-2.9547 6.5861-6.5803 6.5861h-17.848c-3.6394 0-6.6056-2.9504-6.6056-6.5861v-6.0304c0-3.6093 2.9661-6.5334 6.6056-6.5334h17.848c3.6256 0 6.5803 2.9241 6.5803 6.5334v6.0304"/>
  <path id="Fill-34" d="m478.46 168.14c0 3.6356-2.9271 6.5861-6.5539 6.5861h-17.875c-3.6257 0-6.5792-2.9504-6.5792-6.5861v-6.0304c0-3.6093 2.9535-6.5334 6.5792-6.5334h17.875c3.6268 0 6.5539 2.9241 6.5539 6.5334v6.0304"/>
  <path id="Fill-35" d="m513.47 168.14c0 3.6356-2.9524 6.5861-6.5792 6.5861h-17.875c-3.613 0-6.5918-2.9504-6.5918-6.5861v-6.0304c0-3.6093 2.9787-6.5334 6.5918-6.5334h17.875c3.6268 0 6.5792 2.9241 6.5792 6.5334v6.0304"/>
  <path id="Fill-36" d="m548.44 168.14c0 3.6356-2.9409 6.5861-6.5677 6.5861h-17.85c-3.6784 0-6.6044-2.9504-6.6044-6.5861v-6.0304c0-3.6093 2.926-6.5334 6.6044-6.5334h17.85c3.6268 0 6.5677 2.9241 6.5677 6.5334v6.0304"/>
  <path id="Fill-37" d="m583.44 168.14c0 3.6356-2.9397 6.5861-6.5792 6.5861h-17.861c-3.6268 0-6.5803-2.9504-6.5803-6.5861v-6.0304c0-3.6093 2.9535-6.5334 6.5803-6.5334h17.861c3.6394 0 6.5792 2.9241 6.5792 6.5334v6.0304"/>
  <path id="Fill-38" d="m408.49 192.19c0 3.6104-2.9409 6.5861-6.5539 6.5861h-17.874c-3.6268 0-6.5803-2.9756-6.5803-6.5861v-6.0166c0-3.6219 2.9535-6.5723 6.5803-6.5723h17.874c3.613 0 6.5539 2.9504 6.5539 6.5723v6.0166"/>
  <path id="Fill-40" d="m478.46 192.19c0 3.6104-2.9271 6.5861-6.5539 6.5861h-17.875c-3.6257 0-6.5792-2.9756-6.5792-6.5861v-6.0166c0-3.6219 2.9535-6.5723 6.5792-6.5723h17.875c3.6268 0 6.5539 2.9504 6.5539 6.5723v6.0166"/>
  <path id="Fill-41" d="m513.47 192.19c0 3.6104-2.9524 6.5861-6.5792 6.5861h-17.875c-3.613 0-6.5918-2.9756-6.5918-6.5861v-6.0166c0-3.6219 2.9787-6.5723 6.5918-6.5723h17.875c3.6268 0 6.5792 2.9504 6.5792 6.5723v6.0166"/>
  <path id="Fill-43" d="m583.44 192.19c0 3.6104-2.9397 6.5861-6.5792 6.5861h-17.861c-3.6268 0-6.5803-2.9756-6.5803-6.5861v-6.0166c0-3.6219 2.9535-6.5723 6.5803-6.5723h17.861c3.6394 0 6.5792 2.9504 6.5792 6.5723v6.0166"/>
  <path id="Fill-44" d="m408.49 216.25c0 3.6356-2.9409 6.5735-6.5539 6.5735h-17.874c-3.6268 0-6.5803-2.9378-6.5803-6.5735v-6.004c0-3.6219 2.9535-6.5723 6.5803-6.5723h17.874c3.613 0 6.5539 2.9504 6.5539 6.5723v6.004"/>
  <path id="Fill-45" d="m443.49 216.25c0 3.6356-2.9547 6.5735-6.5803 6.5735h-17.848c-3.6394 0-6.6056-2.9378-6.6056-6.5735v-6.004c0-3.6219 2.9661-6.5723 6.6056-6.5723h17.848c3.6256 0 6.5803 2.9504 6.5803 6.5723v6.004"/>
  <path id="Fill-46" d="m478.46 216.25c0 3.6356-2.9271 6.5735-6.5539 6.5735h-17.875c-3.6257 0-6.5792-2.9378-6.5792-6.5735v-6.004c0-3.6219 2.9535-6.5723 6.5792-6.5723h17.875c3.6268 0 6.5539 2.9504 6.5539 6.5723v6.004"/>
  <path id="Fill-47" d="m513.47 216.25c0 3.6356-2.9524 6.5735-6.5792 6.5735h-17.875c-3.613 0-6.5918-2.9378-6.5918-6.5735v-6.004c0-3.6219 2.9787-6.5723 6.5918-6.5723h17.875c3.6268 0 6.5792 2.9504 6.5792 6.5723v6.004"/>
  <path id="Fill-48" d="m548.44 216.25c0 3.6356-2.9409 6.5735-6.5677 6.5735h-17.85c-3.6784 0-6.6044-2.9378-6.6044-6.5735v-6.004c0-3.6219 2.926-6.5723 6.6044-6.5723h17.85c3.6268 0 6.5677 2.9504 6.5677 6.5723v6.004"/>
  <path id="Fill-49" d="m583.44 216.25c0 3.6356-2.9397 6.5735-6.5792 6.5735h-17.861c-3.6268 0-6.5803-2.9378-6.5803-6.5735v-6.004c0-3.6219 2.9535-6.5723 6.5803-6.5723h17.861c3.6394 0 6.5792 2.9504 6.5792 6.5723v6.004"/>
  <path id="Fill-50" d="m408.49 240.31c0 3.6219-2.9409 6.5735-6.5539 6.5735h-17.874c-3.6268 0-6.5803-2.9516-6.5803-6.5735v-6.0166c0-3.623 2.9535-6.5723 6.5803-6.5723h17.874c3.613 0 6.5539 2.9493 6.5539 6.5723v6.0166"/>
  <path id="Fill-51" d="m583.44 240.31c0 3.6219-2.9397 6.5735-6.5792 6.5735h-17.861c-3.6268 0-6.5803-2.9516-6.5803-6.5735v-6.0166c0-3.623 2.9535-6.5723 6.5803-6.5723h17.861c3.6394 0 6.5792 2.9493 6.5792 6.5723v6.0166"/>
  <path id="Fill-52" d="m408.49 264.37c0 3.6116-2.9409 6.5609-6.5539 6.5609h-17.874c-3.6268 0-6.5803-2.9493-6.5803-6.5609v-6.0281c0-3.623 2.9535-6.5471 6.5803-6.5471h17.874c3.613 0 6.5539 2.9241 6.5539 6.5471v6.0281"/>
  <path id="Fill-53" d="m443.49 264.37c0 3.6116-2.9547 6.5609-6.5803 6.5609h-17.848c-3.6394 0-6.6056-2.9493-6.6056-6.5609v-6.0281c0-3.623 2.9661-6.5471 6.6056-6.5471h17.848c3.6256 0 6.5803 2.9241 6.5803 6.5471v6.0281"/>
  <path id="Fill-54" d="m478.46 264.37c0 3.6116-2.9271 6.5609-6.5539 6.5609h-17.875c-3.6257 0-6.5792-2.9493-6.5792-6.5609v-6.0281c0-3.623 2.9535-6.5471 6.5792-6.5471h17.875c3.6268 0 6.5539 2.9241 6.5539 6.5471v6.0281"/>
  <path id="Fill-55" d="m513.47 264.37c0 3.6116-2.9524 6.5609-6.5792 6.5609h-17.875c-3.613 0-6.5918-2.9493-6.5918-6.5609v-6.0281c0-3.623 2.9787-6.5471 6.5918-6.5471h17.875c3.6268 0 6.5792 2.9241 6.5792 6.5471v6.0281"/>
  <path id="Fill-56" d="m548.44 264.37c0 3.6116-2.9409 6.5609-6.5677 6.5609h-17.85c-3.6784 0-6.6044-2.9493-6.6044-6.5609v-6.0281c0-3.623 2.926-6.5471 6.6044-6.5471h17.85c3.6268 0 6.5677 2.9241 6.5677 6.5471v6.0281"/>
  <path id="Fill-57" d="m583.44 264.37c0 3.6116-2.9397 6.5609-6.5792 6.5609h-17.861c-3.6268 0-6.5803-2.9493-6.5803-6.5609v-6.0281c0-3.623 2.9535-6.5471 6.5803-6.5471h17.861c3.6394 0 6.5792 2.9241 6.5792 6.5471v6.0281"/>
  <path id="Fill-58" d="m443.49 288.41c0 3.6368-2.9547 6.5723-6.5803 6.5723h-17.848c-3.6394 0-6.6056-2.9356-6.6056-6.5723v-5.9914c0-3.6356 2.9661-6.5861 6.6056-6.5861h17.848c3.6256 0 6.5803 2.9504 6.5803 6.5861v5.9914"/>
  <path id="Fill-59" d="m478.46 288.41c0 3.6368-2.9271 6.5723-6.5539 6.5723h-17.875c-3.6257 0-6.5792-2.9356-6.5792-6.5723v-5.9914c0-3.6356 2.9535-6.5861 6.5792-6.5861h17.875c3.6268 0 6.5539 2.9504 6.5539 6.5861v5.9914"/>
  <path id="Fill-60" d="m513.47 288.41c0 3.6368-2.9524 6.5723-6.5792 6.5723h-17.875c-3.613 0-6.5918-2.9356-6.5918-6.5723v-5.9914c0-3.6356 2.9787-6.5861 6.5918-6.5861h17.875c3.6268 0 6.5792 2.9504 6.5792 6.5861v5.9914"/>
  <path id="Fill-61" d="m548.44 288.41c0 3.6368-2.9409 6.5723-6.5677 6.5723h-17.85c-3.6784 0-6.6044-2.9356-6.6044-6.5723v-5.9914c0-3.6356 2.926-6.5861 6.6044-6.5861h17.85c3.6268 0 6.5677 2.9504 6.5677 6.5861v5.9914"/>
  <path id="Fill-62" d="m408.49 71.731c0 3.623-2.9409 6.5609-6.5539 6.5609h-17.874c-3.6268 0-6.5803-2.9378-6.5803-6.5609v-6.0166c0-3.6356 2.9535-6.5723 6.5803-6.5723h17.874c3.613 0 6.5539 2.9367 6.5539 6.5723v6.0166"/>
  <path id="Fill-63" d="m443.49 71.731c0 3.623-2.9547 6.5609-6.5803 6.5609h-17.848c-3.6394 0-6.6056-2.9378-6.6056-6.5609v-6.0166c0-3.6356 2.9661-6.5723 6.6056-6.5723h17.848c3.6256 0 6.5803 2.9367 6.5803 6.5723v6.0166"/>
  <path id="Fill-64" d="m548.44 71.731c0 3.623-2.9409 6.5609-6.5677 6.5609h-17.85c-3.6784 0-6.6044-2.9378-6.6044-6.5609v-6.0166c0-3.6356 2.926-6.5723 6.6044-6.5723h17.85c3.6268 0 6.5677 2.9367 6.5677 6.5723v6.0166"/>
  <path id="Fill-65" d="m583.44 71.731c0 3.623-2.9397 6.5609-6.5792 6.5609h-17.861c-3.6268 0-6.5803-2.9378-6.5803-6.5609v-6.0166c0-3.6356 2.9535-6.5723 6.5803-6.5723h17.861c3.6394 0 6.5792 2.9367 6.5792 6.5723v6.0166"/>
 </g>
 <g id="g1091" transform="translate(-208 -59.142)" fill="#d8232a" fill-rule="evenodd">
  <polyline id="Fill-10" transform="translate(208,59)" points="36.823 334.91 19.83 334.91 19.83 374.45 0 374.45 0 280.15 36.823 280.15 36.823 296.74 19.83 296.74 19.83 318.32 36.823 318.32 36.823 334.91"/>
  <path id="Fill-12" d="m275.92 398.39-4.9734-34.391-3.6658 34.391zm25.646 35.065h-20.529l-2.8377-19.538h-12.641l-1.943 19.538h-20.219l15.543-94.3h25.776z"/>
  <polyline id="Fill-13" transform="translate(208,59)" points="134.67 296.74 119.55 296.74 119.55 374.45 99.695 374.45 99.695 296.74 84.696 296.74 84.696 280.15 134.67 280.15 134.67 296.74"/>
  <path id="Fill-39" d="m443.49 192.19c0 3.6104-2.9547 6.5861-6.5803 6.5861h-17.848c-3.6394 0-6.6055-2.9756-6.6055-6.5861v-6.0166c0-3.6219 2.9661-6.5723 6.6055-6.5723h17.848c3.6256 0 6.5803 2.9504 6.5803 6.5723v6.0166"/>
  <path id="Fill-42" d="m548.44 192.19c0 3.6104-2.9409 6.5861-6.5677 6.5861h-17.85c-3.6784 0-6.6044-2.9756-6.6044-6.5861v-6.0166c0-3.6219 2.926-6.5723 6.6044-6.5723h17.85c3.6268 0 6.5677 2.9504 6.5677 6.5723v6.0166"/>
 </g>
</svg>
