<svg id="b" width="769.47" height="654.92" version="1.1" viewBox="0 0 203.59 173.28" xmlns="http://www.w3.org/2000/svg">
 <defs id="c">
  <clipPath id="a">
   <path id="d" d="m541.66 412.62h18.542v10.43h-18.542z"/>
  </clipPath>
 </defs>
 <g id="e" transform="translate(-47.407 82.79)">
  <path id="f" d="m47.407 31.73h203.59v-114.52h-203.59z" fill="#219ade"/>
  <g id="g">
   <path id="h" d="m114.54-54.16h-38.045v57.26h12.682v-22.586h22.3v-11.32h-22.3v-12.034h26.187v-11.32z" fill="#fff"/>
   <path id="i" d="m160.01-54.16h-38.045v57.26h38.869v-11.32h-26.187v-11.891h22.3v-11.309h-22.3v-11.419h26.187v-11.32z" fill="#fff"/>
   <g id="j" transform="matrix(10.98 0 0 -10.98 -5900 4562.2)" clip-path="url(#a)">
    <g id="k" transform="translate(557.48 420.44)">
     <path id="l" d="m0 0h-1.037s-1.169-2.393-1.291-2.643c-0.122 0.249-1.296 2.643-1.296 2.643h-1.113v-5.215h1.155v2.718c0.209-0.405 0.869-1.686 0.869-1.686h0.772s0.652 1.276 0.861 1.684v-2.716h1.155v5.215z" fill="#fff"/>
    </g>
   </g>
  </g>
  <path id="m" d="m148.66 90.228c-0.28548 0.07686-0.70271 0.14274-1.2627 0.18666-0.57095 0.0549-1.1309 0.07686-1.6909 0.07686-0.57095 0-1.1419-0.02196-1.7238-0.07686-0.58193-0.04392-1.0101-0.1098-1.2846-0.18666-0.49409-0.14274-0.74663-0.41724-0.74663-0.84545v-13.758h-13.198v13.758c0 0.42822-0.24155 0.70271-0.73565 0.84545-0.28547 0.07686-0.72467 0.14274-1.3176 0.18666-0.60389 0.0549-1.1858 0.07686-1.7458 0.07686s-1.12-0.02196-1.658-0.07686c-0.549-0.04392-0.96623-0.1098-1.2407-0.18666-0.49409-0.14274-0.73565-0.41724-0.73565-0.84545v-33.752c0-0.41724 0.24156-0.70271 0.73565-0.84545 0.2745-0.06588 0.69173-0.13176 1.2407-0.17568 0.53801-0.0549 1.098-0.08784 1.658-0.08784s1.1419 0.03294 1.7458 0.08784c0.59291 0.04392 1.0321 0.1098 1.3176 0.17568 0.4941 0.14274 0.73565 0.42822 0.73565 0.84545v13.286h13.198v-13.286c0-0.41724 0.25254-0.70271 0.74663-0.84545 0.2745-0.06588 0.70271-0.13176 1.2846-0.17568 0.58194-0.0549 1.1529-0.08784 1.7238-0.08784 0.55998 0 1.12 0.03294 1.6909 0.08784 0.55998 0.04392 0.97721 0.1098 1.2627 0.17568 0.49409 0.14274 0.73565 0.42822 0.73565 0.84545v33.752c0 0.42822-0.24156 0.70271-0.73565 0.84545m35.707-10.398c-0.73565 2.174-1.8446 4.0516-3.3269 5.6437-1.5152 1.5811-3.3818 2.8218-5.5997 3.7002-2.2179 0.87839-4.9958 1.3176-8.3337 1.3176h-6.4452c-0.87839 0-1.5701-0.02196-2.0862-0.07686-0.50507-0.04392-0.90035-0.13176-1.1529-0.26352-0.2745-0.12078-0.45018-0.2745-0.53802-0.45018-0.0878-0.17568-0.13176-0.37332-0.13176-0.58193v-33.214c0-0.25254 0.0329-0.46115 0.1098-0.63683 0.0659-0.17568 0.23058-0.31842 0.50508-0.41724 0.26351-0.1098 0.64781-0.19764 1.1529-0.24156 0.51606-0.0549 1.1858-0.08784 2.0423-0.08784h6.544c3.3379 0 6.1158 0.45017 8.3337 1.3286 2.2179 0.87839 4.0845 2.1081 5.5997 3.7002 1.4823 1.5811 2.5912 3.4587 3.3269 5.6327 0.73565 2.174 1.109 4.6115 1.109 7.3236 0 2.723-0.37332 5.1605-1.109 7.3236m-9.1902-15.778c-0.87839-0.99917-1.9874-1.7348-3.3269-2.2289-1.3286-0.49409-3.0524-0.74663-5.1715-0.74663h-2.4814v22.86h2.4814c2.1191 0 3.843-0.24156 5.1715-0.73565 1.3395-0.4941 2.4485-1.2407 3.3269-2.2289 1.658-1.8666 2.4814-4.6884 2.4814-8.4655 0-3.7661-0.82349-6.5879-2.4814-8.4545" fill="#231f20"/>
 </g>
</svg>
