<?xml version="1.0" encoding="UTF-8"?>
<!-- Created with Inkscape (http://www.inkscape.org/) -->
<svg id="svg11475" width="769.47" height="432.83" version="1.1" viewBox="0 0 203.59 114.52" xmlns="http://www.w3.org/2000/svg" xmlns:cc="http://creativecommons.org/ns#" xmlns:dc="http://purl.org/dc/elements/1.1/" xmlns:rdf="http://www.w3.org/1999/02/22-rdf-syntax-ns#">
 <defs id="defs11469">
  <clipPath id="clipPath3800">
   <path id="path3798" d="m541.66 412.62h18.542v10.43h-18.542z"/>
  </clipPath>
 </defs>
 <metadata id="metadata11472">
  <rdf:RDF>
   <cc:Work rdf:about="">
    <dc:format>image/svg+xml</dc:format>
    <dc:type rdf:resource="http://purl.org/dc/dcmitype/StillImage"/>
    <dc:title/>
   </cc:Work>
  </rdf:RDF>
 </metadata>
 <g id="layer1" transform="translate(-47.407 82.79)">
  <path id="path3784" d="m47.407 31.73h203.59v-114.52h-203.59z" fill="#219ade"/>
  <g id="g14146">
   <path id="path3788" d="m114.54-54.16h-38.045v57.26h12.682v-22.586h22.3v-11.32h-22.3v-12.034h26.187v-11.32z" fill="#fff"/>
   <path id="path3792" d="m160.01-54.16h-38.045v57.26h38.869v-11.32h-26.187v-11.891h22.3v-11.309h-22.3v-11.419h26.187v-11.32z" fill="#fff"/>
   <g id="g3796" transform="matrix(10.98 0 0 -10.98 -5900 4562.2)" clip-path="url(#clipPath3800)">
    <g id="g3802" transform="translate(557.48 420.44)">
     <path id="path3804" d="m0 0h-1.037s-1.169-2.393-1.291-2.643c-0.122 0.249-1.296 2.643-1.296 2.643h-1.113v-5.215h1.155v2.718c0.209-0.405 0.869-1.686 0.869-1.686h0.772s0.652 1.276 0.861 1.684v-2.716h1.155v5.215z" fill="#fff"/>
    </g>
   </g>
  </g>
 </g>
</svg>
