<svg id="a" width="599.96pt" height="377.87pt" version="1.1" viewBox="0 0 599.96 377.87" xmlns="http://www.w3.org/2000/svg">
 <g id="b" transform="translate(-50.02,-79.085)" fill="#1d498c">
  <path id="c" d="m50.02 79.085h524.55l67.72 63.22h-592.27z"/>
  <path id="d" d="m50.02 347.42h592.03l-78.07 73.025h-513.96v-73.025"/>
 </g>
 <g id="e" transform="translate(-50.02,-79.085)" fill="#a7a9ac">
  <path id="f" d="m245.79 185.91c9.02-10.07 23.22-13.055 36.18-13.535h39.06c11.03 0.12 22.56 1.555 32.13 7.425 6.38 3.91 11.5 10.07 13.43 17.38 1.99 7.18 1.8 14.735 1.51 22.115h-38.58c0.92-6.72-5.2048-13.755-11.57-13.755h-20.96c-5.51 0.12-11.66-0.26-16.34 3.09-3.52 3.42-3.8 8.73-3.95 13.35v48.94c0.26 3.63 0.22 7.78 2.74 10.69 3.3 3.17 8.09 3.94 12.52 3.83h26.01c3.78-0.39 8.51-1.22 10.34-5.08 2.05-4.47 1.26-9.545 1.44-14.305h-27.04v-30.65h65.735v37.555c0.04 9.12-0.045 18.51-3.065 27.22-2.46 6.89-8.87 11.4-15.46 13.92-9.8825 3.7829-20.44 4.6201-30.958 4.76h-30.738c-9.1854-0.10905-18.335-0.67822-27.264-3.06-6.95-1.94-14.22-5.23-18.01-11.71-4.78-8.15-5.355-17.89-5.515-27.11v-59.9c0.42-10.71 1.185-22.55 8.355-31.17z"/>
  <path id="g" d="m387.9 172.54h42.395v52.295h47.355v-52.295h43.24v145.66h-43.24v-53.065h-47.355v53.065h-42.395z"/>
  <path id="h" d="m50.46 318.2v-145.66h103.08v36.605h-61.225v22.355h56.79v34.69h-56.79v52.01z"/>
  <path id="i" d="m173.45 318.2v-145.66h41.165v145.66z"/>
  <path id="j" d="m535.42 210.17v-37.63h114.56v37.63h-36.145v108.03h-41.065v-108.03z"/>
 </g>
 <g id="k" fill="#fff">
  <path id="l" d="m233.44 281.68c7.73-2.15 16.23-1.89 23.7 1.15 6.67 2.82 12.62 8.18 14.79 15.24 2.17 7.47 0.73 16.22-4.75 21.96-6.04 6.69-15.32 9.61-24.15 9.38-8.73 0-17.75-3.23-23.53-9.97-6.97-7.97-6.99-21.09 0.04-29.04 3.63-4.2 8.58-7.18 13.9-8.72m3.96 7.96c-3.53 0.79-6.89 2.51-9.41 5.13-4.81 4.56-5.46 12.53-1.94 18.03 3.21 4.99 9.17 7.47 14.93 7.79 6.41 0.51 13.55-0.6 18.23-5.41 5.52-5.35 5.55-15.23-0.11-20.5-5.57-5.66-14.26-6.51-21.7-5.04z"/>
  <path id="m" d="m410.14 287.02c3.55-3.78 8.75-5.38 13.76-6.03 10.96-1.4 22.59 0.62 31.81 6.94l-5.77 6.42c-8.7-4.74-19.18-6.65-28.87-4.27-1.9842 0.45526-4.662 2.2312-4.3638 4.4026 0.31521 2.0821 2.4188 2.7906 3.8306 3.2419 2.0278 0.63125 4.3307 0.6821 6.3632 0.92552 8.55 0.87 17.78 0.28 25.49 4.72 6.65 3.75 7.02 13.77 2.07 19.05-4.48 4.72-11.23 6.11-17.46 6.61-11.1 0.73-23.01-1.04-31.96-8.13l5.25-6.84c9.17 6.01 20.79 8.18 31.47 5.68 2.77-0.77 6.19-2.54 6.19-5.85 0.14-2.69-2.54-4.37-4.89-4.78-8.95-1.66-18.24-0.86-27.06-3.25-3.53-0.93-7.08-3.1-8.3-6.71-1.28-4.1-0.62-8.97 2.44-12.13z"/>
  <path id="n" d="m152.52 328.14v-46.46h35.445c3.64-0.04 7.39 0.74 10.39 2.88 6.35 4.4 7.45 14.05 3.51 20.39-3.02 4.52-8.75 6.105-13.92 6.215h-26.19v16.965l-9.235 0.01m9.235-37.83v12.24h26.28c2.44 0.06 5.21-0.9 6.23-3.31 0.76-2.39 0.62-5.48-1.38-7.25-1.89-1.65-4.52-1.65-6.88-1.68z"/>
  <path id="o" d="m284.94 281.72h37.045c5.89 0.08 11.92 3.605 13.77 9.395 1.61 5.21 1.17 11.69-2.96 15.65-1.91 1.98-4.53 2.95-7.05 3.84l12.27 17.555h-10.97l-12.13-17.02h-20.64v17.02h-9.335v-46.44m9.335 8.57v12.255h25.81c2.43 0.07 5.39-0.55 6.52-2.97 1.14-2.55 0.76-6.03-1.56-7.8-1.71-1.3-3.95-1.445-6.01-1.485z"/>
  <path id="p" d="m345.91 281.7h51.45v8.585h-21.065v37.855h-9.33v-37.855h-21.055z"/>
  <path id="q" d="m91.59 287.02c3.55-3.78 8.75-5.38 13.76-6.03 10.96-1.4 22.59 0.62 31.81 6.94l-5.77 6.42c-8.7-4.74-19.18-6.65-28.87-4.27-1.9842 0.45526-4.662 2.2312-4.3638 4.4026 0.31521 2.0821 2.4188 2.7906 3.8306 3.2419 2.0278 0.63125 4.3307 0.6821 6.3632 0.92552 8.55 0.87 17.78 0.28 25.49 4.72 6.65 3.75 7.02 13.77 2.07 19.05-4.48 4.72-11.23 6.11-17.46 6.61-11.1 0.73-23.01-1.04-31.96-8.13l5.25-6.84c9.17 6.01 20.79 8.18 31.47 5.68 2.77-0.77 6.19-2.54 6.19-5.85 0.14-2.69-2.54-4.37-4.89-4.78-8.95-1.66-18.24-0.86-27.06-3.25-3.53-0.93-7.08-3.1-8.3-6.71-1.28-4.1-0.62-8.97 2.44-12.13z"/>
 </g>
 <path id="r" d="m0 341.36h513.96l-39.035 36.512h-474.92v-36.512" fill="#fff"/>
 <g id="s" transform="matrix(1.1378 0 0 .89059 -70.589 -71.676)" fill="#1d498c" stroke-width="1px" aria-label="HD">
  <path id="t" d="m274.8 498.59v-28.633h5.7812v11.27h11.328v-11.27h5.7812v28.633h-5.7812v-12.52h-11.328v12.52z"/>
  <path id="u" d="m303.67 469.96h10.566q3.5742 0 5.4492 0.54687 2.5195 0.74219 4.3164 2.6367 1.7969 1.8945 2.7344 4.6484 0.9375 2.7344 0.9375 6.7578 0 3.5352-0.8789 6.0938-1.0742 3.125-3.0664 5.0586-1.5039 1.4648-4.0625 2.2852-1.9141 0.60547-5.1172 0.60547h-10.879zm5.7812 4.8438v18.965h4.3164q2.4219 0 3.4961-0.27344 1.4062-0.35156 2.3242-1.1914 0.9375-0.83985 1.5234-2.7539 0.58594-1.9336 0.58594-5.2539t-0.58594-5.0977-1.6406-2.7734q-1.0547-0.99609-2.6758-1.3476-1.2109-0.27344-4.7461-0.27344z"/>
 </g>
</svg>
