<?xml version="1.0" encoding="UTF-8"?>
<!-- Created with Inkscape (http://www.inkscape.org/) -->
<svg id="svg47695" width="800mm" height="748.49mm" version="1.1" viewBox="0 0 800 748.49" xmlns="http://www.w3.org/2000/svg" xmlns:cc="http://creativecommons.org/ns#" xmlns:dc="http://purl.org/dc/elements/1.1/" xmlns:rdf="http://www.w3.org/1999/02/22-rdf-syntax-ns#">
 <metadata id="metadata47692">
  <rdf:RDF>
   <cc:Work rdf:about="">
    <dc:format>image/svg+xml</dc:format>
    <dc:type rdf:resource="http://purl.org/dc/dcmitype/StillImage"/>
    <dc:title/>
   </cc:Work>
  </rdf:RDF>
 </metadata>
 <g id="layer1" transform="translate(18.833 597.95)">
  <g id="g40820" transform="matrix(77.36 0 0 -77.36 523.78 51.936)">
   <path id="path40822" d="m0 0 1.47 0.267v7.796l-1.47-0.267z" fill="#522a7c"/>
  </g>
  <g id="g40824" transform="matrix(77.36 0 0 -77.36 667.45 -577.29)">
   <path id="path40826" d="m0 0v-7.796l1.47 0.267v7.796z" fill="#ed1c66"/>
  </g>
  <g id="g47666" transform="matrix(77.36 0 0 -77.36 -12328 7418.9)">
   <g id="g40816" transform="translate(159.11 93.954)">
    <path id="path40818" d="m0 0 1.47 0.267v7.796l-1.47-0.267z" fill="#522a7c"/>
   </g>
   <g id="g40828" transform="translate(162.76 100.12)">
    <path id="path40830" d="m0 0 0.107 0.019v2.283l-1.896-0.336 1e-3 -0.105c1.092 0.016 1.638-0.672 1.788-1.861" fill="#522a7c"/>
   </g>
   <g id="g40832" transform="translate(160.97 98.745)">
    <path id="path40834" d="m0 0v-0.104c0.699 0.064 1.165-0.342 1.292-0.886l0.107 0.02v2.273l-0.107-0.02c-0.118-0.487-0.532-1.065-1.292-1.283" fill="#522a7c"/>
   </g>
  </g>
  <g id="g40836" transform="matrix(77.36 0 0 -77.36 350.72 -256.86)">
   <path id="path40838" d="m0 0c2.319 0.636 2.408 3.356 0.318 3.41-0.141 3e-3 -0.281-9e-3 -0.422-0.034l-0.53-0.096c0.036 2e-3 -3e-3 -1e-3 -3e-3 -1e-3l1e-3 -0.086c0.807 0.04 1.098-0.798 1.098-1.388 0-0.644-0.149-1.697-1.597-1.952v-0.105c1.012 0.112 1.534-0.22 1.514-1.247v-0.855c-0.014-1.092 0.195-1.712 1.191-1.734 0.089-2e-3 0.188 8e-3 0.279 0.024v2.232c0 0.269 1e-3 0.603-0.062 0.809-0.261 0.833-1.015 1.087-1.787 1.023" fill="#ed1c66"/>
  </g>
 </g>
</svg>
