<svg id="a" version="1.1" viewBox="0 0 800 576" xmlns="http://www.w3.org/2000/svg">
 <g id="b" transform="matrix(14.049 0 0 14.049 0 5.5551e-5)" fill-rule="evenodd">
  <g id="c" transform="translate(-738,-405)" fill-rule="nonzero">
   <path id="d" d="m783.29 421.31c2.5366 0 4.5929-2.0607 4.5929-4.603 0-2.542-2.0563-4.6027-4.5929-4.6027-2.537 0-4.5929 2.0607-4.5929 4.6027 0 2.5424 2.0559 4.603 4.5929 4.603zm-5.8424-4.603c0-3.2335 2.6157-5.8551 5.8424-5.8551s5.8431 2.6216 5.8431 5.8551c0 3.2339-2.6164 5.8552-5.8431 5.8552s-5.8424-2.6213-5.8424-5.8552zm-8.1356 0c0.72305-0.092 1.9279-0.92017 2.3527-1.4488-0.14947 0.65513-0.16108 2.5526 0.0134 3.2088-0.48433-0.74784-1.6315-1.668-2.3661-1.76zm-4.2004-6.1987c0.91822 0 1.6413 0.90853 1.6413 1.9432 0 1.035-0.72304 1.9443-1.6413 1.9443h-3.1559v-3.8876zm-0.0116 8.6367c0.91822 0 1.6413 0.9089 1.6413 1.9436 0 1.0354-0.72305 1.944-1.6413 1.944h-3.1556v-3.8876zm18.186 9.3595c6.4305-3e-3 11.663-5.3571 11.662-11.802-1e-3 -6.5812-5.2311-11.693-11.662-11.698-6.4232-5e-3 -9.705 4.7332-10.516 6.6455 8e-3 -2.8707-2.816-6.2591-6.1188-6.2631h-10.641v23.001l9.9209 3e-3c4.0001 0 6.847-3.4731 6.8517-6.4514 0.91278 1.8742 4.0803 6.5666 10.504 6.5644zm-28.574-0.10797h-6.236v-8.9269h-4.0484v8.9269h-6.4014l-0.02287-23.007h6.4243v8.5582h4.0484v-8.5582h6.236zm-16.709 4.1106h56.209v-0.74984h-56.209zm0 3.7492h1.0303l6.1413 7.8122v-7.8122h1.0724v9.748h-0.87727l-6.2947-7.9931v7.9931h-1.072v-9.748h1.0303l6.1413 7.8122v-7.8122h1.0724v9.748h-0.87727l-6.2947-7.9931v7.9931h-1.072zm19.107 4.9008v-0.027c0-2.1406-1.5811-3.8913-3.7621-3.8913s-3.7351 1.7234-3.7351 3.8647v0.0266c0 2.1406 1.5814 3.891 3.7624 3.891 2.1806 0 3.7347-1.7234 3.7347-3.864zm-8.615 0v-0.027c0-2.5986 1.9765-4.8738 4.8803-4.8738 2.903 0 4.8522 2.2483 4.8522 4.8472 0.0138 0.0133 0.0138 0.0133 0 0.0266 0 2.5985-1.9762 4.8742-4.8795 4.8742-2.9034 0-4.8529-2.2486-4.8529-4.8472zm8.615 0v-0.027c0-2.1406-1.5811-3.8913-3.7621-3.8913s-3.7351 1.7234-3.7351 3.8647v0.0266c0 2.1406 1.5814 3.891 3.7624 3.891 2.1806 0 3.7347-1.7234 3.7347-3.864zm-8.615 0v-0.027c0-2.5986 1.9765-4.8738 4.8803-4.8738 2.903 0 4.8522 2.2483 4.8522 4.8472 0.0138 0.0133 0.0138 0.0133 0 0.0266 0 2.5985-1.9762 4.8742-4.8795 4.8742-2.9034 0-4.8529-2.2486-4.8529-4.8472zm16.546 0.0707c1.3594 0 2.3299-0.75214 2.3299-2.0054v-0.0276c0-1.1978-0.85414-1.922-2.3167-1.922h-2.7957v3.955zm-3.8052-4.9715h3.8959c1.1134 0 2.0063 0.36229 2.5759 0.9748 0.43988 0.47362 0.69875 1.1561 0.69875 1.9217v0.0283c0 1.6148-1.0355 2.5617-2.459 2.8402l2.7829 3.983h-1.2556l-2.6278-3.7879h-2.5884v3.7879h-1.0227zm3.8052 4.9715c1.3594 0 2.3299-0.75214 2.3299-2.0054v-0.0276c0-1.1978-0.85414-1.922-2.3167-1.922h-2.7957v3.955zm-3.8052-4.9715h3.8959c1.1134 0 2.0063 0.36229 2.5759 0.9748 0.43988 0.47362 0.69875 1.1561 0.69875 1.9217v0.0283c0 1.6148-1.0355 2.5617-2.459 2.8402l2.7829 3.983h-1.2556l-2.6278-3.7879h-2.5884v3.7879h-1.0227zm13 8.7311c2.3727 0 3.8874-1.6707 3.8874-3.8292v-0.0279c0-2.1585-1.5147-3.8575-3.8874-3.8575h-2.1982v7.7146zm-3.2573-8.7311h3.2573c2.9491 0 4.9867 2.103 4.9867 4.8464v0.0276c0 2.7434-2.0376 4.874-4.9867 4.874h-3.2573zm3.2573 8.7311c2.3727 0 3.8874-1.6707 3.8874-3.8292v-0.0279c0-2.1585-1.5147-3.8575-3.8874-3.8575h-2.1982v7.7146zm-3.2573-8.7311h3.2573c2.9491 0 4.9867 2.103 4.9867 4.8464v0.0276c0 2.7434-2.0376 4.874-4.9867 4.874h-3.2573zm11.242 9.748h0.74945v-9.748h-0.74945zh0.74945v-9.748h-0.74945zm3.7473-4.8472v-0.027c0-2.6659 1.9336-4.8738 4.6248-4.8738 1.6593 0 2.6522 0.60554 3.5667 1.4944l-0.70531 0.78086c-0.77098-0.75422-1.6331-1.2928-2.8743-1.2928-2.0251 0-3.5405 1.6967-3.5405 3.8647v0.0266c0 2.1809 1.5287 3.891 3.5405 3.891 1.2541 0 2.0772-0.49789 2.9526-1.3598l0.67946 0.68654c-0.95369 0.9965-1.9989 1.6564-3.6582 1.6564-2.6392 0-4.5857-2.141-4.5857-4.8472v-0.027c0-2.6659 1.9336-4.8738 4.6248-4.8738 1.6593 0 2.6522 0.60554 3.5667 1.4944l-0.70531 0.78086c-0.77098-0.75422-1.6331-1.2928-2.8743-1.2928-2.0251 0-3.5405 1.6967-3.5405 3.8647v0.0266c0 2.1809 1.5287 3.891 3.5405 3.891 1.2541 0 2.0772-0.49789 2.9526-1.3598l0.67946 0.68654c-0.95369 0.9965-1.9989 1.6564-3.6582 1.6564-2.6392 0-4.5857-2.141-4.5857-4.8472z"/>
  </g>
 </g>
</svg>
