<svg width="600pt" height="206.33pt" version="1.1" viewBox="0 0 600 206.33" xmlns="http://www.w3.org/2000/svg">
 <g transform="matrix(.63762 0 0 .63762 -15.89 -32.137)" fill="#fff200">
  <circle cx="71.858" cy="97.338" r="46.937" style="paint-order:stroke fill markers"/>
  <path d="m319.86 63.805c68.779-0.37417 111.92 52.628 111.92 119.13v191.06h-76.175v-172.05c0-39.724-21.4-67.19-61.298-67.19-39.518 0-61.298 27.806-61.298 67.19v172.05h-76.265v-306.79h76.265v37.155c23.384-28.804 42.849-40.565 86.851-40.565z"/>
  <path d="m610.96 67.225h77.58v68.3h-79.61c-40.766 0-71 25.225-71 57.69h143.86v59.045h-142.56c0 26.446 33.198 53.205 70.79 53.205h78.53v68.535h-77.58c-84.35 0-150.2-50.53-150.2-146.01 0-113.11 63.712-160.77 150.2-160.77z"/>
  <path d="m739.48 67.225 220.78 2.49e-4v58.935l-129.63 179.41h135.28v68.43h-232.34v-55.17l131.68-183.06h-125.78z"/>
  <path d="m33.745 179.21h76.245v194.79h-76.245z"/>
 </g>
</svg>
