<?xml version="1.0" encoding="UTF-8"?>
<!-- Generator: Adobe Illustrator 22.1.0, SVG Export Plug-In . SVG Version: 6.00 Build 0)  -->
<svg id="Layer_1" width="623.74" height="800" version="1.1" viewBox="0 0 623.74 800" xml:space="preserve" xmlns="http://www.w3.org/2000/svg" xmlns:cc="http://creativecommons.org/ns#" xmlns:dc="http://purl.org/dc/elements/1.1/" xmlns:rdf="http://www.w3.org/1999/02/22-rdf-syntax-ns#"><metadata id="metadata15"><rdf:RDF><cc:Work rdf:about=""><dc:format>image/svg+xml</dc:format><dc:type rdf:resource="http://purl.org/dc/dcmitype/StillImage"/><dc:title/></cc:Work></rdf:RDF></metadata>
<path id="path4" d="m265.54 266.1h92.09v93.785h-92.09zm-88.136 358.19v175.71c48.023 0 87.571-39.548 87.571-87.571v-88.136h114.12c42.938 0 65.537-28.814 65.537-65.537v-112.99-266.67h-194.92c-40.113 0-72.881 32.768-72.881 72.881v193.22h178.53v89.831h-177.97v36.158zm2.2599-536.72zm172.32 0h-172.32c0-48.023 42.373-87.571 93.785-87.571h172.32c0.565 48.023-41.808 87.571-93.785 87.571z" clip-rule="evenodd" fill="#2f9b46" fill-rule="evenodd" stroke-width="5.6497"/><path id="path6" d="m87.577 1.1299v30.508h-4.5198c-22.599 0-40.678 14.124-40.678 31.638h45.198v26.554h-87.571v-0.56497c-0.56497-48.588 38.983-88.136 87.571-88.136zm0 120.34v677.97c-48.023 0-87.571-39.548-87.571-87.571v-590.4zm-45.198-58.192zm493.79-62.147v798.31c48.023 0 87.571-39.548 87.571-87.571v-623.16c0.565-48.023-38.983-87.571-87.571-87.571z" clip-rule="evenodd" fill="#a9a3a1" fill-rule="evenodd" stroke-width="5.6497"/>
</svg>
