<svg width="250.01pt" height="351.93pt" version="1.1" viewBox="0 0 250.01 351.93" xmlns="http://www.w3.org/2000/svg">
 <g fill="#fff">
  <path d="m51.704 268.05c-1.3309 0-2.4097 1.0788-2.4097 2.4097v78.896c0 1.3309 1.0788 2.4097 2.4097 2.4097h12.17c1.3309 0 2.4097-1.0788 2.4097-2.4097v-30.961c0-1.3309 1.0788-2.4097 2.4097-2.4097h29.867c1.3309 0 2.4097 1.0788 2.4097 2.4097v30.961c0 1.3309 1.0788 2.4097 2.4097 2.4097h12.17c1.3309 0 2.4097-1.0788 2.4097-2.4097v-78.896c0-1.3309-1.0788-2.4097-2.4097-2.4097h-12.17c-1.3309 0-2.4097 1.0788-2.4097 2.4097v28.586c0 1.3309-1.0788 2.4097-2.4097 2.4097h-29.867c-1.3309 0-2.4097-1.0788-2.4097-2.4097v-28.586c0-1.3309-1.0788-2.4097-2.4097-2.4097z"/>
  <path d="m139.55 267.89c-1.2905 0.0458-2.3247 1.0992-2.3247 2.4009v79.225c0 1.3309 1.0788 2.4097 2.4097 2.4097h21.866c8.4632 0.0185 16.984-0.2903 24.839-3.6943 7.02-2.83 12.53-8.7011 15.46-15.621 3.3325-7.8138 4.2555-16.579 3.9961-25.036-0.17151-5.3795-0.74566-10.48-2.4155-16.097-2.061-6.5558-5.6424-12.592-11.3-16.657-8.96-6.36-20.42-7.0302-31.03-6.9302zm16.995 14.41h9.3618c4.7682 0.10986 9.4742 0.7495 13.724 3.041 8.8867 5.6786 9.227 13.947 9.227 22.233 0 13.619-0.46862 21.531-9.4116 27.012-3.7549 2.0564-8.9449 2.8154-13.626 2.8711h-9.2754c-1.3309 0-2.4097-1.0788-2.4097-2.4097v-50.338c0-1.3309 1.0788-2.4097 2.4097-2.4097z"/>
  <path d="m250.01 125.01c0 69.044-55.973 125.01-125.01 125.01-69.04 0-125.01-55.961-125.01-125.01 0-69.028 55.965-125.01 125.01-125.01 69.032 0 125.01 55.977 125.01 125.01" stroke-width=".41668"/>
 </g>
 <path d="m129.32 41.231c-16.867 0-33.731 6.4169-46.577 19.255-25.659 25.676-25.659 67.449 0 93.125 6.917 6.9128 14.984 11.95 23.58 15.138l-23.13 23.13 27.218 27.218 65.469-65.486c25.676-25.676 25.676-67.449 0-93.125-12.834-12.838-29.697-19.255-46.56-19.255zm0 38.46c7.0086 0 14.021 2.6668 19.359 8.0003 10.663 10.675 10.663 28.039 0 38.714-10.68 10.667-28.039 10.667-38.718 0-10.667-10.675-10.667-28.039 0-38.714 5.3377-5.3336 12.35-8.0003 19.359-8.0003z" stroke-width=".41668"/>
</svg>
