<svg width="1878.4pt" height="1630pt" version="1.1" viewBox="0 0 1878.4 1630" xmlns="http://www.w3.org/2000/svg">
 <g transform="translate(-102.48 -122.53)">
  <path d="m1044 122.53c94.748 0.16192 186.69 15.638 275.23 40.33 125.67 34.438 229.89 103.19 323.05 188.64 76.712 79.259 120.39 171.94 136.85 278.61 8.2221 106.66-18.351 201.75-76.26 287.82-43.346 62.544-100.09 118.07-162.12 158.95-26.13 17.83-53.41 33.96-81.78 47.95-56.115 28.557-116.83 52.088-175.94 66.12-33.948 9.9222-68.357 13.854-101.49 20.38-76.404 10.146-147.81 10.374-216.52 6.75l-144.38 177.76h-213.14l148.87-217.12c-19.01-6.12-38.04-12.19-56.56-19.69-79.576-31.356-154.41-73.219-217.79-128.1-50.011-41.985-90.93-91.335-122.72-146.28-6.94-10.54-11.27-22.47-17.43-33.43-27.769-63.024-41.801-125.4-40.22-192.08 3.2472-36.875 8.0956-79.096 18.97-110.27 18.886-57.967 48.268-115.32 87.15-160.16 25.002-30.394 53.555-59.99 83.35-83.6 52.035-41.079 114.56-80.265 169.31-103.67 43.24-19.95 88.65-34.71 134.48-47.43 83.363-25.866 160.87-31.48 249.09-31.48zm-319.1 117.24c-25.36 8.33-50.31 18.02-74.38 29.57-12.5 5.47-24.82 11.41-36.54 18.39-53.073 28-100.1 64.803-140.08 106.21-22.23 22.956-40.004 48.643-56.89 73.07-19.554 30.023-36.478 64.703-43.76 95.93-5.5 17.96-8.96 36.49-12.09 55-5.598 42.906-3.6676 90.465 3.5 128.94 7.29 34.22 18.66 67.69 34.89 98.71 34.264 62.479 75.424 107.26 122.72 149.14 41.897 33.38 87.196 62.286 134.48 82.67 43.828 18.163 92.653 38.876 137.63 45.6l307.37-451.47h-689.13l142.19-211.59h784.17c60.922 0 105.63 15.546 123.93 66.185 9.1906 23.532 10.443 48.788 1.86 71.57-8.3101 22.17-21.75 40.003-35.62 56.78l-396.78 482.14c55.907-4.9238 109.24-19.418 160.75-35.8 58.289-20.357 115.96-51.111 161.89-84.48 39.779-29.187 80.918-67.521 108.12-106.17 58.848-77.761 86.592-177.46 80.7-270.19-5.7221-54.784-21.075-115.12-50.15-159.53-19.984-34.639-45.998-70.531-73.77-97.29-49.459-47.61-98.248-83.361-157.25-110.81-91.708-47.593-185.72-66.875-293.8-68.72-81.116-2.2843-174.86 14.643-243.96 36.15z" fill="#c51015"/>
 </g>
 <g transform="translate(-102.48 -122.53)">
  <path d="m102.48 1491h80.085v107.88l97.44-107.88h98.76l-122.31 123.7 132.71 137.76h-102.1l-104.5-113.68v113.68h-80.085z"/>
  <path d="m525.74 1491h86.95l115.46 261.44h-84.94l-20.03-45.365h-109.42l-20.87 45.365h-85.02m128.01-97.445h65.78l-32.89-83.715z"/>
  <path d="m761.5 1491h79.245l147.22 160.03v-160.03h79.54v261.51h-79.235l-147.28-160.98v160.98h-79.49z"/>
  <path d="m1453 1491h79.52v203.46h95.985v57.975h-175.5z"/>
  <path d="m1729.1 1491.1h251.86l-176.25 261.42h-87.334l139.98-203.97h-128.26z"/>
  <path d="m1217.7 1491h86.95l115.46 261.44h-84.94l-20.03-45.365h-109.42l-20.87 45.365h-85.02m128.01-97.445h65.78l-32.89-83.715z"/>
 </g>
</svg>
