<svg id="a" width="169.33mm" height="169.33mm" version="1.1" viewBox="0 0 600 600" xmlns="http://www.w3.org/2000/svg">
 <g id="b" transform="translate(-384.89 -279.91)">
  <path id="c" transform="translate(384.89,279.91)" d="M 300,0 C 134.3,0 0,134.33 0,300 0,465.7 134.3,600 300,600 465.67,600 600,465.7 600,300 600,134.33 465.67,0 300,0 Z" fill="#fff"/>
 </g>
 <g id="d" transform="translate(-384.89,-279.91)">
  <path id="e" transform="translate(384.89,279.91)" d="m310.34 98.947c40.47 0 80.94 15.403 111.75 46.213 61.62 61.61 61.62 161.87 0 223.49l-157.12 157.15-65.32-65.31 55.51-55.51c-20.63-7.65-40-19.74-56.59-36.33-61.58-61.62-61.58-161.88 0-223.49 30.82-30.81 71.3-46.213 111.77-46.213zm0.01 92.303c-16.83 0-33.65 6.4-46.46 19.2-25.6 25.62-25.6 67.28 0 92.91 25.62 25.6 67.29 25.6 92.91 0 25.6-25.63 25.6-67.29 0-92.91-12.81-12.8-29.63-19.2-46.45-19.2z"/>
 </g>
</svg>
