<svg id="a" version="1.1" viewBox="0 0 197.51 302.91" xmlns="http://www.w3.org/2000/svg">
 <g id="b" transform="matrix(20.211 0 0 -20.211 189.4 99.022)">
  <path id="c" d="m0 0c0-2.516-2.009-4.556-4.485-4.556-2.477 0-4.484 2.04-4.484 4.556 0 2.517 2.007 4.557 4.484 4.557 2.476 0 4.485-2.04 4.485-4.557" fill="#fff"/>
 </g>
 <g id="d" transform="matrix(20.211 0 0 -20.211 37.512 159.99)">
  <path id="e" d="m0 0c-0.81 0.809-1.255 1.886-1.255 3.03 0 1.146 0.445 2.221 1.255 3.03 0.809 0.81 1.886 1.255 3.028 1.255 1.146 0 2.223-0.445 3.032-1.255 0.809-0.809 1.255-1.884 1.255-3.03 0-1.144-0.446-2.221-1.255-3.03s-1.886-1.254-3.032-1.254c-1.142 0-2.219 0.445-3.028 1.254m-0.426 6.484c-0.923-0.922-1.43-2.149-1.43-3.454s0.507-2.532 1.43-3.455c0.923-0.922 2.151-1.43 3.454-1.43 1.307 0 2.533 0.508 3.455 1.43 0.924 0.923 1.433 2.15 1.433 3.455s-0.509 2.532-1.433 3.454c-0.922 0.923-2.148 1.432-3.455 1.432-1.303 0-2.531-0.509-3.454-1.432" fill="#ee2836"/>
 </g>
 <g id="f" transform="matrix(20.211 0 0 -20.211 138.06 38)">
  <path id="g" d="m0 0-0.164-1.711h-1.882s-0.053-0.298-0.082-0.475c0.899 0.135 1.906-0.055 2.354-0.884 0.341-0.736 0.177-1.591-0.312-2.204-0.913-1.06-2.395-1.102-3.618-0.666-0.392 0.145-0.591 0.345-0.591 0.345s0.116 0.905 0.197 1.286c0.53-0.367 1.359-0.639 1.958-0.217 0.196 0.146 0.298 0.353 0.245 0.612-0.154 0.43-0.681 0.571-1.142 0.571-0.344-0.023-0.681-0.073-0.966-0.313 0.109 1.225 0.312 2.436 0.461 3.66z" fill="#141d34"/>
 </g>
 <g id="h" transform="translate(-231.78 21.048)">
  <g id="i" transform="matrix(20.211 0 0 -20.211 282.57 206.44)">
   <path id="j" d="m0 0c0-0.349-0.013-0.484-0.04-0.659 0.207 0.15 0.504 0.233 0.852 0.233 0.335 0 0.729-0.083 0.969-0.31 0.174-0.169 0.258-0.38 0.258-0.756v-2.117c0-0.064-0.058-0.084-0.297-0.084s-0.297 0.02-0.297 0.084v2.016c0 0.224-0.038 0.354-0.117 0.438-0.11 0.122-0.315 0.154-0.593 0.154h-0.026c-0.278 0-0.483-0.032-0.593-0.154-0.078-0.084-0.116-0.214-0.116-0.438v-2.016c0-0.064-0.06-0.084-0.298-0.084-0.239 0-0.298 0.02-0.298 0.084v4.221c0 0.065 0.059 0.085 0.298 0.085 0.238 0 0.298-0.02 0.298-0.085z"/>
  </g>
  <g id="k" transform="matrix(20.211 0 0 -20.211 378.19 238.65)">
   <path id="l" d="m0 0c0 0.25-0.04 0.366-0.117 0.451-0.109 0.116-0.316 0.18-0.574 0.18-0.6 0-0.839-0.431-0.839-1.116 0-0.665 0.193-1.117 0.851-1.117 0.246 0 0.453 0.064 0.562 0.181 0.077 0.085 0.117 0.2 0.117 0.452zm0.593-0.995c0-0.401-0.096-0.659-0.29-0.847-0.24-0.224-0.626-0.296-0.982-0.296-0.941 0-1.47 0.607-1.47 1.633 0 1.104 0.58 1.672 1.374 1.672 0.335 0 0.606-0.097 0.812-0.239-0.025 0.174-0.037 0.317-0.037 0.665v0.613c0 0.065 0.057 0.084 0.297 0.084 0.239 0 0.296-0.019 0.296-0.084z"/>
  </g>
 </g>
</svg>
