<svg id="a" width="169.33mm" height="265.55mm" version="1.1" viewBox="0 0 600.01 940.95" xmlns="http://www.w3.org/2000/svg">
 <g id="b" transform="translate(-474.89,-590.28)">
  <path id="c" d="m1074.9 890.28c0 165.62-134.3 300.02-299.96 300.02-165.71 0-300.05-134.4-300.05-300.02 0-165.66 134.34-300 300.05-300 165.66 0 299.96 134.34 299.96 300" fill="#54c6d3"/>
  <path id="d" d="m617.03 1101.9h108.96v-423.28h-108.96z" fill="#ed0579"/>
  <path id="e" d="m932.81 678.62h-108.97v423.28h108.97z" fill="#ed0579"/>
  <path id="f" d="m725.98 866.28v235.72l97.85-187.72v-235.69z"/>
  <path id="g" d="m523.65 857.65h93.38v-179.04z"/>
  <path id="h" d="m1026.2 922.92h-93.41v179.08z"/>
 </g>
 <g id="i" transform="matrix(64.289 0 0 -64.289 -14894 30120)" fill="#fff">
  <g id="j" transform="translate(235.89 458.14)">
   <path id="k" d="m0 0h-0.556c-0.045 0-0.068-0.022-0.068-0.068v-1.545h-0.674v1.545c0 0.046-0.024 0.068-0.073 0.068h-0.557c-0.049 0-0.073-0.022-0.073-0.068v-4.136c0-0.046 0.024-0.068 0.073-0.068h0.557c0.049 0 0.073 0.022 0.073 0.068v1.972h0.674v-1.972c0-0.046 0.023-0.068 0.068-0.068h0.556c0.049 0 0.073 0.022 0.073 0.068v4.136c0 0.046-0.024 0.068-0.073 0.068" fill="#000"/>
  </g>
  <g id="l" transform="translate(237.91 454.77)">
   <path id="m" d="m0 0c-0.097-0.169-0.279-0.259-0.545-0.27v3.035c0.269-3e-3 0.453-0.11 0.55-0.32 0.109-0.236 0.164-0.663 0.164-1.281 0-0.585-0.057-0.973-0.169-1.164m0.793 2.344c-0.068 0.281-0.184 0.513-0.349 0.697-0.116 0.127-0.243 0.214-0.383 0.258-0.146 0.049-0.329 0.073-0.55 0.073h-0.685c-0.049 0-0.073-0.022-0.073-0.067v-4.137c0-0.044 0.024-0.068 0.073-0.068h0.449c0.547 0 0.924 0.097 1.13 0.287 0.175 0.154 0.301 0.375 0.376 0.664 0.075 0.299 0.112 0.676 0.112 1.13 0 0.505-0.033 0.893-0.1 1.163" fill="#000"/>
  </g>
 </g>
</svg>
