<svg width="231.82pt" height="122.87pt" version="1.1" viewBox="0 0 231.82 122.87" xmlns="http://www.w3.org/2000/svg" xmlns:xlink="http://www.w3.org/1999/xlink">
 <defs>
  <linearGradient id="a">
   <stop stop-color="#fed6a6" offset="0"/>
   <stop stop-color="#f8981d" offset=".70078"/>
   <stop stop-color="#ba7411" offset="1"/>
  </linearGradient>
  <radialGradient id="c" cx="381.66" cy="250.57" r="35.829" gradientTransform="matrix(-1.1225 .78575 -1.2756 -1.8223 857.87 203.37)" gradientUnits="userSpaceOnUse" xlink:href="#a"/>
  <radialGradient id="b" cx="381.66" cy="250.57" r="35.829" gradientTransform="matrix(-.75674 .5297 -.85991 -1.2285 645.14 159.27)" gradientUnits="userSpaceOnUse" xlink:href="#a"/>
 </defs>
 <path d="m77.709 2.4251e-8a62.745 23.649 77.318 0 0-12.378 61.434 62.745 23.649 77.318 0 0 35.931 61.434 62.745 23.649 77.318 0 0 12.376-61.434 62.745 23.649 77.318 0 0-35.93-61.434zm2.6235 6.5039a56.246 20.674 77.148 0 1 31.915 55.03 56.246 20.674 77.148 0 1-10.348 55.03 56.246 20.674 77.148 0 1-31.915-55.03 56.246 20.674 77.148 0 1 10.348-55.03z" fill="url(#c)" style="paint-order:stroke fill markers"/>
 <path d="m119.21 22.167a42.299 15.943 77.318 0 0-8.3444 41.415 42.299 15.943 77.318 0 0 24.223 41.415 42.299 15.943 77.318 0 0 8.3434-41.415 42.299 15.943 77.318 0 0-24.222-41.415zm1.7686 4.3845a37.918 13.937 77.148 0 1 21.515 37.098 37.918 13.937 77.148 0 1-6.9757 37.098 37.918 13.937 77.148 0 1-21.515-37.098 37.918 13.937 77.148 0 1 6.9757-37.098z" fill="url(#b)" style="paint-order:stroke fill markers"/>
 <g transform="translate(-34.265 -38.104)" fill="#fff">
  <path d="m152.54 85.25h62.57l-1.7213 3.3192-31.526 27.171h-22.323l29.55-25.945-38.21-0.04z"/>
  <path d="m217.78 85.25h48.295l-2.09 4.5248h-30.97l-3.23 7.2152c7.45 0.06 14.9-0.07 22.34 0.05 3.4235 0 7.29 2.26 6.64 6-1.06 7.39-8.42 12.89-15.74 12.7h-38.73l1.99-4.6095h27.86c2.9353-0.1916 6.1115-3.1029 6.3503-6.1002 0.14128-2.1799-1.4657-3.4751-2.5303-3.4751h-27.06z"/>
 </g>
 <g transform="translate(-34.265 -38.104)" fill="#fff">
  <path d="m34.265 93.245h2.505v4.795l4.1008-4.795h3.2392l-4.99 6.015 5.65 6.495h-3.6955l-4.3045-4.825v4.825h-2.505z"/>
  <path d="m81.265 93.245h2.495l6.015 8.135v-8.135h2.545v12.51h-2.78l-5.765-7.805v7.805h-2.51z"/>
  <path d="m114.55 93.245h2.32l5 12.51h-2.64l-1.26-3.2498h-4.21l-1.35 3.2498h-2.57zm1.16 3.565-1.26 3.73h2.54z"/>
  <path d="m133.06 93.245h2.45v10.26h5.775v2.25h-8.225z"/>
  <path d="m60.62 93.245h2.32l5 12.51h-2.64l-1.26-3.2498h-4.21l-1.35 3.2498h-2.57zm1.16 3.565-1.26 3.73h2.54z"/>
 </g>
</svg>
