<?xml version="1.0" encoding="UTF-8"?>
<svg id="svg2" width="197.51" height="197.49" version="1.1" viewBox="0 0 197.51 197.49" xmlns="http://www.w3.org/2000/svg" xmlns:cc="http://creativecommons.org/ns#" xmlns:dc="http://purl.org/dc/elements/1.1/" xmlns:rdf="http://www.w3.org/1999/02/22-rdf-syntax-ns#">
 <metadata id="metadata12">
  <rdf:RDF>
   <cc:Work rdf:about="">
    <dc:format>image/svg+xml</dc:format>
    <dc:type rdf:resource="http://purl.org/dc/dcmitype/StillImage"/>
    <dc:title/>
   </cc:Work>
  </rdf:RDF>
 </metadata>
 <g id="g156" transform="matrix(20.211 0 0 -20.211 189.4 99.022)">
  <path id="path158" d="m0 0c0-2.516-2.009-4.556-4.485-4.556-2.477 0-4.484 2.04-4.484 4.556 0 2.517 2.007 4.557 4.484 4.557 2.476 0 4.485-2.04 4.485-4.557" fill="#fff"/>
 </g>
 <g id="g160" transform="matrix(20.211 0 0 -20.211 37.512 159.99)">
  <path id="path162" d="m0 0c-0.81 0.809-1.255 1.886-1.255 3.03 0 1.146 0.445 2.221 1.255 3.03 0.809 0.81 1.886 1.255 3.028 1.255 1.146 0 2.223-0.445 3.032-1.255 0.809-0.809 1.255-1.884 1.255-3.03 0-1.144-0.446-2.221-1.255-3.03s-1.886-1.254-3.032-1.254c-1.142 0-2.219 0.445-3.028 1.254m-0.426 6.484c-0.923-0.922-1.43-2.149-1.43-3.454s0.507-2.532 1.43-3.455c0.923-0.922 2.151-1.43 3.454-1.43 1.307 0 2.533 0.508 3.455 1.43 0.924 0.923 1.433 2.15 1.433 3.455s-0.509 2.532-1.433 3.454c-0.922 0.923-2.148 1.432-3.455 1.432-1.303 0-2.531-0.509-3.454-1.432" fill="#ee2836"/>
 </g>
 <g id="g164" transform="matrix(20.211 0 0 -20.211 138.06 38)">
  <path id="path166" d="m0 0-0.164-1.711h-1.882s-0.053-0.298-0.082-0.475c0.899 0.135 1.906-0.055 2.354-0.884 0.341-0.736 0.177-1.591-0.312-2.204-0.913-1.06-2.395-1.102-3.618-0.666-0.392 0.145-0.591 0.345-0.591 0.345s0.116 0.905 0.197 1.286c0.53-0.367 1.359-0.639 1.958-0.217 0.196 0.146 0.298 0.353 0.245 0.612-0.154 0.43-0.681 0.571-1.142 0.571-0.344-0.023-0.681-0.073-0.966-0.313 0.109 1.225 0.312 2.436 0.461 3.66z" fill="#141d34"/>
 </g>
</svg>
