<?xml version="1.0" encoding="UTF-8"?>
<svg width="215.9" height="104" enable-background="new 0 0 215.9 104" version="1.1" viewBox="0 0 215.9 104" xml:space="preserve" xmlns="http://www.w3.org/2000/svg"><g fill="#ff46b4"><path class="st0" d="m138.7 56.5c-2 0-3.3 0.9-4 2.1v-1.8h-2.8v13.5h2.8v-8.8c0.6-1.6 1.8-2.5 3.3-2.5 1.8 0 2.9 1.1 2.9 3.4v8h2.8v-8.4c-0.1-3.7-2.1-5.5-5-5.5"/><path class="st0" d="m151.9 56.5c-2.5 0-4.8 1.1-5.8 3.3l2.4 1c0.6-1.2 1.7-1.9 3.2-1.9 1.6 0 2.8 0.8 2.9 2.2l-3.7 1c-3.3 0.9-4.9 2.1-4.9 4.4 0 2.6 2.3 4.2 4.6 4.2 1.4 0 2.6-0.4 3.8-1.5l0.2-0.2v1.4h2.7v-9c0-3.4-2.3-4.9-5.4-4.9zm2.7 10.2-0.6 0.4c-1.2 0.8-1.9 1.2-2.9 1.2-1.1 0-2.3-0.7-2.3-2 0-1.2 1-1.8 3.1-2.3l2.7-0.7z"/><path class="st0" d="m178.2 62.8c-0.2-3.9-2.6-6.3-6.2-6.3s-6.5 2.7-6.5 7c0 4.5 3 7.1 6.7 7.1 2.7 0 4.8-1.2 5.8-3l-2-1.4c-0.8 1.3-2.2 2.1-3.7 2.1-2.2 0-3.9-1.6-4-4.2h9.9zm-9.8-0.8c0.2-2.1 1.8-3.2 3.6-3.2 1.7 0 3.2 1 3.4 3.2z"/><path class="st0" d="m187.7 56.5c-2 0-3.3 0.9-4 2.1v-1.8h-2.8v13.5h2.8v-8.8c0.6-1.6 1.8-2.5 3.3-2.5 1.8 0 2.9 1.1 2.9 3.4v8h2.8v-8.4c0-3.7-2.1-5.5-5-5.5"/><path class="st0" d="m123.5 56.5c-2.5 0-4.8 1.1-5.8 3.3l2.4 1c0.6-1.2 1.7-1.9 3.2-1.9 1.6 0 2.8 0.8 2.9 2.2l-3.7 1c-3.3 0.9-4.9 2.1-4.9 4.4 0 2.6 2.3 4.2 4.6 4.2 1.4 0 2.6-0.4 3.8-1.5l0.2-0.2v1.4h2.7v-9c0-3.4-2.3-4.9-5.4-4.9zm2.6 10.2-0.6 0.4c-1.2 0.8-1.9 1.2-2.9 1.2-1.1 0-2.3-0.7-2.3-2 0-1.2 1-1.8 3.1-2.3l2.7-0.7z"/><path d="m160.3 52h2.8v18.4h-2.8z"/><path d="m104.3 52v18.4h2.8v-5.9l1.7-1.5 4.3 7.4h3.2l-5.4-9.1 5.3-4.5h-3.7l-5.4 4.7v-9.5z"/><path d="m109.5 36.9 5.9 10.4h3.3l-7-12.3 6.6-6.1h-3.7l-7.5 7v-7h-2.8v18.4h2.8v-8.1z"/><path class="st0" d="m128.6 42.6c-0.6 1.5-1.8 2.4-3.2 2.4-1.6 0-2.8-1-2.8-3.2v-8.1h-2.8v8.5c0 3.6 2.1 5.3 4.8 5.3 1.8 0 3.1-0.9 4-2v1.8h2.8v-13.6h-2.8z"/><path class="st0" d="m137.2 38.4c0.6-1.6 1.8-2.5 3.3-2.5 1.8 0 2.9 1.1 2.9 3.4v8h2.8v-8.4c0-3.7-2-5.5-4.9-5.5-2 0-3.3 0.9-4 2.1v-1.8h-2.8v13.5h2.8v-8.8z"/><path class="st0" d="m154.8 39.2c-1.7-0.3-3-0.5-3-1.7 0-1.1 1-1.9 2.5-1.9 1.4 0 2.5 0.7 2.9 2l2.4-0.8c-0.6-2-2.3-3.4-5.3-3.4-2.9 0-5.2 1.6-5.2 4.2s2 3.5 4.8 4c1.7 0.3 3.1 0.6 3.1 1.9 0 1.2-1.2 1.8-2.6 1.8-1.6 0-2.9-0.9-3.4-2.4l-2.4 0.8c0.8 2.7 3.1 3.8 5.8 3.8 3 0 5.3-1.6 5.3-4.2 0-2.7-2.2-3.7-4.9-4.1"/><path class="st0" d="m211 39.2c-1.7-0.3-3-0.5-3-1.7 0-1.1 1-1.9 2.5-1.9 1.4 0 2.5 0.7 2.9 2l2.4-0.8c-0.6-2-2.3-3.4-5.3-3.4-2.9 0-5.2 1.6-5.2 4.2s2 3.5 4.8 4c1.7 0.3 3.1 0.6 3.1 1.9 0 1.2-1.2 1.8-2.6 1.8-1.6 0-2.9-0.9-3.4-2.4l-2.4 0.8c0.8 2.7 3.1 3.8 5.8 3.8 3 0 5.3-1.6 5.3-4.2 0-2.7-2.1-3.7-4.9-4.1"/><path class="st0" d="m196.6 33.4c-1.8 0-3.3 0.8-4.1 1.9v-1.6h-2.6v18.3h2.8v-6.1c0.9 1 2.3 1.6 4 1.6 3.4 0 6.1-2.8 6.1-7.1-0.1-4.3-2.7-7-6.2-7m-0.3 11.6c-2 0-3.6-1.3-3.6-3.8v-1.4c0-2.6 1.7-3.8 3.6-3.8 2 0 3.6 1.6 3.6 4.5-0.1 2.9-1.6 4.5-3.6 4.5"/><path class="st0" d="m184.2 45.9v1.4h2.7v-9c0-3.4-2.3-4.9-5.4-4.9-2.5 0-4.8 1.1-5.8 3.3l2.4 1c0.6-1.2 1.7-1.9 3.2-1.9 1.6 0 2.8 0.8 2.9 2.2l-3.7 1c-3.3 0.9-4.9 2.1-4.9 4.4 0 2.6 2.3 4.2 4.6 4.2 1.4 0 2.6-0.4 3.8-1.5zm-3.6-0.7c-1.1 0-2.3-0.7-2.3-2 0-1.2 1-1.8 3.1-2.3l2.7-0.7v3.4l-0.6 0.4c-1.2 0.9-1.9 1.2-2.9 1.2z"/><path d="m170.5 33.7-5.4 4.7v-9.5h-2.8v18.4h2.8v-5.9l1.7-1.5 4.3 7.4h3.2l-5.4-9.1 5.3-4.5z"/><path class="st0" d="m104.3 0h-104.3v104h104.3l-25.8-52zm-32.7 95h-62.6v-86h62.6l-21.3 43z"/></g><g transform="matrix(.059359 0 0 .059359 103.36 74.033)" fill="#ff46b4"><path d="m15.75 18h48.255v107.5h156.14v-107.5h48.11v315h-48.11v-164.75h-156.14v164.75h-48.255z"/><path d="m345.63 18h80.35c19.21 0.1 38.71-0.9 57.55 3.65 34.04 7.52 65.43 27.63 85.35 56.39 11.35 16.23 19.64 34.64 24.06 53.95 5.77 26.65 5.42 54.5 0.08 81.19-3.29 15.01-8.33 29.7-15.67 43.24-11.93 23.67-30.7 43.89-53.6 57.27-16.44 9.53-34.79 15.84-53.67 18.11-10.3 1.3-20.73 1.2-31.09 1.2h-93.36v-315m48.12 42.78v229.44h59.11c24.95-0.25 49.08-12.34 65.28-31.13 21.96-25.8 30.38-60.83 28.84-94.16-0.93-32.5-15.11-65.59-41.44-85.46-15.61-11.73-34.95-18.51-54.5-18.69z"/></g></svg>
