<?xml version="1.0" encoding="UTF-8"?>
<svg id="svg23959" width="427.58" height="427.58" version="1.1" viewBox="0 0 427.58 427.58" xml:space="preserve" xmlns="http://www.w3.org/2000/svg" xmlns:cc="http://creativecommons.org/ns#" xmlns:dc="http://purl.org/dc/elements/1.1/" xmlns:rdf="http://www.w3.org/1999/02/22-rdf-syntax-ns#">
  <metadata id="metadata23965">
    <rdf:RDF>
      <cc:Work rdf:about="">
        <dc:format>image/svg+xml</dc:format>
        <dc:type rdf:resource="http://purl.org/dc/dcmitype/StillImage"/>
        <dc:title/>
      </cc:Work>
    </rdf:RDF>
  </metadata>
  <defs id="defs23963">
    <clipPath id="clipPath23979">
      <path id="path23977" d="m1939.3 2001.5c170.7 0 309.1-137.78 309.1-307.7 0-170.07-138.4-307.85-309.1-307.85-170.54 0-308.95 137.78-308.95 307.85 0 169.92 138.41 307.7 308.95 307.7zm-488.42 267.91c-154.08-143.36-264.28-346.71-264.28-576.23 0-413.64 336.72-749.11 752.23-749.11 415.36 0 752.23 335.47 752.23 749.11 0 321.27-203 595.26-488.22 701.68l264.94 264.63-313.62 309.72z"/>
    </clipPath>
    <linearGradient id="linearGradient23991" x2="1" gradientTransform="matrix(1424.4 997.34 997.34 -1424.4 1274.2 1332.5)" gradientUnits="userSpaceOnUse">
      <stop id="stop23981" stop-color="#00c4ff" offset="0"/>
      <stop id="stop23983" stop-color="#00c4ff" offset=".039199"/>
      <stop id="stop23985" stop-color="#00fff3" offset=".79932"/>
      <stop id="stop23987" stop-color="#00fff3" offset=".94789"/>
      <stop id="stop23989" stop-color="#00fff3" offset="1"/>
    </linearGradient>
  </defs>
  <g id="g23967" transform="matrix(1.3333 0 0 -1.3333 -51.938 457.51)">
    <g id="g23969" transform="scale(.1)">
      <path id="path23971" d="m1993.5 224.51-1604 1602.9 1602.9 1604 1604-1602.9-1602.9-1603.9"/>
      <g id="g23973">
        <g id="g23975" clip-path="url(#clipPath23979)">
          <path id="path23993" d="m1939.3 2001.5c170.7 0 309.1-137.78 309.1-307.7 0-170.07-138.4-307.85-309.1-307.85-170.54 0-308.95 137.78-308.95 307.85 0 169.92 138.41 307.7 308.95 307.7zm-488.42 267.91c-154.08-143.36-264.28-346.71-264.28-576.23 0-413.64 336.72-749.11 752.23-749.11 415.36 0 752.23 335.47 752.23 749.11 0 321.27-203 595.26-488.22 701.68l264.94 264.63-313.62 309.72-703.28-699.8" fill="url(#linearGradient23991)"/>
        </g>
      </g>
    </g>
  </g>
</svg>
