<svg id="c" version="1.1" viewBox="0 0 427.58 427.58" xml:space="preserve" xmlns="http://www.w3.org/2000/svg">
  <defs id="d">
    <clipPath id="b">
      <path id="e" d="m1939.3 2001.5c170.7 0 309.1-137.78 309.1-307.7 0-170.07-138.4-307.85-309.1-307.85-170.54 0-308.95 137.78-308.95 307.85 0 169.92 138.41 307.7 308.95 307.7zm-488.42 267.91c-154.08-143.36-264.28-346.71-264.28-576.23 0-413.64 336.72-749.11 752.23-749.11 415.36 0 752.23 335.47 752.23 749.11 0 321.27-203 595.26-488.22 701.68l264.94 264.63-313.62 309.72z"/>
    </clipPath>
    <linearGradient id="a" x2="1" gradientTransform="matrix(1424.4 997.34 997.34 -1424.4 1274.2 1332.5)" gradientUnits="userSpaceOnUse">
      <stop id="f" stop-color="#00c4ff" offset="0"/>
      <stop id="g" stop-color="#00c4ff" offset=".039199"/>
      <stop id="h" stop-color="#00fff3" offset=".79932"/>
      <stop id="i" stop-color="#00fff3" offset=".94789"/>
      <stop id="j" stop-color="#00fff3" offset="1"/>
    </linearGradient>
  </defs>
  <g id="k" transform="matrix(1.3333 0 0 -1.3333 -51.938 457.51)">
    <g id="l" transform="scale(.1)">
      <path id="m" d="m1993.5 224.51-1604 1602.9 1602.9 1604 1604-1602.9-1602.9-1603.9"/>
      <g id="n">
        <g id="o" clip-path="url(#b)">
          <path id="p" d="m1939.3 2001.5c170.7 0 309.1-137.78 309.1-307.7 0-170.07-138.4-307.85-309.1-307.85-170.54 0-308.95 137.78-308.95 307.85 0 169.92 138.41 307.7 308.95 307.7zm-488.42 267.91c-154.08-143.36-264.28-346.71-264.28-576.23 0-413.64 336.72-749.11 752.23-749.11 415.36 0 752.23 335.47 752.23 749.11 0 321.27-203 595.26-488.22 701.68l264.94 264.63-313.62 309.72-703.28-699.8" fill="url(#a)"/>
        </g>
      </g>
    </g>
  </g>
</svg>
