<svg width="600pt" height="220.9pt" version="1.1" viewBox="0 0 600 220.9" xmlns="http://www.w3.org/2000/svg">
 <g transform="matrix(.93413 0 0 .93413 178.55 165.32)">
  <path d="m-128.98-172.86h-22.138l-20.979 29.088v-29.088h-19.049v88.679h19.049v-30.117l26.642 30.117h24.454l-41.572-44.79z"/>
  <path d="m-77.67-112.49c0 8.3659-4.6334 12.227-10.811 12.227-5.277 0-10.683-3.3464-10.683-11.97v-32.048h-17.89v35.909c0 16.474 9.7817 25.484 23.811 25.484 6.0492 0 12.485-3.7325 15.573-9.5243v8.2372h17.89v-60.106h-17.89z"/>
  <path d="m-4.5189-112.49c0 8.3659-4.6334 12.227-10.811 12.227-5.277 0-10.683-3.3464-10.683-11.97v-32.048h-17.89v35.909c0 16.474 9.7817 25.484 23.811 25.484 6.0492 0 12.485-3.7325 15.573-9.5243v8.2372h17.89v-60.106h-17.89z"/>
  <path d="m67.732-84.178h22.009l-29.989-33.592 24.969-26.514h-22.781l-14.286 16.474v-49.166h-17.762v92.797h17.762v-23.811z"/>
  <path d="m156.04-84.178v-60.106h-17.762v6.6927c-4.1186-5.7918-11.841-7.9798-17.504-7.9798-8.1085 0-15.187 2.9602-21.365 8.752-6.1779 5.7918-9.2669 13.257-9.2669 22.524s3.089 16.861 9.2669 22.652c6.1779 5.7918 13.257 8.6233 21.365 8.6233 2.8315 0 6.0492-0.64353 9.5243-2.0593 3.6038-1.4158 6.3066-3.3464 7.9798-5.9205v6.8214zm-32.305-15.831c-3.9899 0-7.465-1.2871-10.554-3.9899-2.9602-2.7028-4.5047-6.1779-4.5047-10.297s1.5445-7.465 4.5047-10.168c3.089-2.7028 6.564-4.1186 10.554-4.1186 7.7224 0 14.544 5.6631 14.544 14.286s-6.8214 14.286-14.544 14.286z"/>
  <path d="m211.17-112.49c0 8.3659-4.6334 12.227-10.811 12.227-5.277 0-10.683-3.3464-10.683-11.97v-32.048h-17.89v35.909c0 16.474 9.7817 25.484 23.811 25.484 6.0492 0 12.485-3.7325 15.573-9.5243v8.2372h17.89v-60.106h-17.89z"/>
  <path d="m288.44-114.42c0 8.3659-6.1779 14.544-13.9 14.544-7.7224 0-13.9-5.7918-13.9-14.544 0-8.3659 6.1779-14.286 13.9-14.286 7.7224 0 13.9 5.5344 13.9 14.286zm18.148-62.551h-17.762v40.028c-2.9603-5.277-9.9104-8.6233-17.633-8.6233-7.9798 0-14.801 2.9602-20.593 8.752-5.6631 5.7918-8.4946 13.385-8.4946 22.781 0 9.1382 2.8316 16.732 8.4946 22.524 5.7918 5.7918 12.613 8.6233 20.593 8.6233 7.7224 0 14.673-3.2177 17.633-8.752v7.465h17.762z"/>
  <path d="m365.22-104c-2.9602 3.7325-7.3363 5.6631-13.128 5.6631-7.0789 0-13.9-3.4751-14.801-10.039h44.018c0.1287-2.0593 0.25741-3.8612 0.25741-5.5344 0-9.3956-2.9602-16.989-8.8808-22.781-5.7918-5.9205-13.128-8.8808-21.88-8.8808-8.8808 0-16.346 2.8315-22.395 8.6233-6.0492 5.7918-9.0095 13.257-9.0095 22.524 0 9.2669 2.9602 16.861 9.0095 22.781 6.0492 5.7918 13.514 8.752 22.395 8.752 12.742 0 21.88-4.1186 27.414-12.227zm-27.672-15.574c2.8315-13.772 24.197-13.643 25.999 0z"/>
  <path d="m411.78-115.97c0-8.1085 3.7325-12.227 11.069-12.227 6.3066 0 10.425 4.2473 10.425 11.97v32.048h17.89v-35.909c0-16.861-8.1085-25.484-22.009-25.484-7.0789 0-14.158 3.9899-17.375 10.039v-8.752h-17.89v60.106h17.89z"/>
 </g>
 <g transform="matrix(.93413 0 0 .93413 -364.15 298.45)">
  <path d="m536.3-84.178h22.009l-29.989-33.592 24.969-26.514h-22.781l-14.286 16.474v-49.166h-17.762v92.797h17.762v-23.811z"/>
  <path d="m624.61-84.178v-60.106h-17.762v6.6927c-4.1186-5.7918-11.841-7.9798-17.504-7.9798-8.1085 0-15.187 2.9602-21.365 8.752-6.1779 5.7918-9.2669 13.257-9.2669 22.524s3.089 16.861 9.2669 22.652c6.1779 5.7918 13.257 8.6233 21.365 8.6233 2.8315 0 6.0492-0.64353 9.5243-2.0593 3.6038-1.4158 6.3066-3.3464 7.9798-5.9205v6.8214zm-32.305-15.831c-3.9899 0-7.465-1.2871-10.554-3.9899-2.9602-2.7028-4.5047-6.1779-4.5047-10.297s1.5445-7.465 4.5047-10.168c3.089-2.7028 6.564-4.1186 10.554-4.1186 7.7224 0 14.544 5.6631 14.544 14.286s-6.8214 14.286-14.544 14.286z"/>
  <path d="m658.89-115.97c0-8.1085 3.7325-12.227 11.069-12.227 6.3066 0 10.425 4.2473 10.425 11.97v32.048h17.89v-35.909c0-16.861-8.1085-25.484-22.009-25.484-7.0789 0-14.158 3.9899-17.375 10.039v-8.752h-17.89v60.106h17.89z"/>
  <path d="m776.44-84.178v-60.106h-17.762v6.6927c-4.1186-5.7918-11.841-7.9798-17.504-7.9798-8.1085 0-15.187 2.9602-21.365 8.752-6.1779 5.7918-9.2669 13.257-9.2669 22.524s3.089 16.861 9.2669 22.652c6.1779 5.7918 13.257 8.6233 21.365 8.6233 2.8315 0 6.0492-0.64353 9.5243-2.0593 3.6038-1.4158 6.3066-3.3464 7.9798-5.9205v6.8214zm-32.305-15.831c-3.9899 0-7.465-1.2871-10.554-3.9899-2.9602-2.7028-4.5047-6.1779-4.5047-10.297s1.5445-7.465 4.5047-10.168c3.089-2.7028 6.564-4.1186 10.554-4.1186 7.7224 0 14.544 5.6631 14.544 14.286s-6.8214 14.286-14.544 14.286z"/>
  <path d="m825.65-84.178 25.484-60.106h-19.177l-13.9 37.325-14.029-37.325h-19.049l25.355 60.106z"/>
  <path d="m920.73-84.178v-60.106h-17.762v6.6927c-4.1186-5.7918-11.841-7.9798-17.504-7.9798-8.1085 0-15.187 2.9602-21.365 8.752-6.1779 5.7918-9.2669 13.257-9.2669 22.524s3.089 16.861 9.2669 22.652c6.1779 5.7918 13.257 8.6233 21.365 8.6233 2.8315 0 6.0492-0.64353 9.5243-2.0593 3.6038-1.4158 6.3066-3.3464 7.9798-5.9205v6.8214zm-32.305-15.831c-3.9899 0-7.465-1.2871-10.554-3.9899-2.9602-2.7028-4.5047-6.1779-4.5047-10.297s1.5445-7.465 4.5047-10.168c3.089-2.7028 6.564-4.1186 10.554-4.1186 7.7224 0 14.544 5.6631 14.544 14.286s-6.8214 14.286-14.544 14.286z"/>
 </g>
</svg>
