<svg id="a" width="562.66pt" height="194.75pt" version="1.1" viewBox="0 0 562.66 194.75" xmlns="http://www.w3.org/2000/svg">
 <g id="b" transform="matrix(.94688 0 0 .94688 -185.56 543.22)" fill="#ee0578">
  <g id="c" transform="matrix(29.307 0 0 -29.307 -6678 4017.8)">
   <g id="d" fill="#ee0578">
    <g id="e" fill="#ee0578">
     <g id="f" fill="#ee0578">
      <path id="g" d="m251.76 156.48-0.251-0.772-0.773-0.253-0.19-0.71 0.521-0.52 0.71 0.192 0.252 0.771 0.772 0.253 0.19 0.71-0.52 0.52z" fill="#ee0578"/>
     </g>
    </g>
   </g>
  </g>
  <g id="h" transform="matrix(29.307 0 0 -29.307 -6678 4017.8)">
   <g id="i" fill="#ee0578">
    <g id="j" fill="#ee0578">
     <g id="k" fill="#ee0578">
      <path id="l" d="m251.11 154.02-0.19-0.711 0.521-0.519 0.81 0.159 0.619-0.551 0.711 0.192 0.189 0.71-0.52 0.52-0.81-0.16-0.619 0.551z" fill="#ee0578"/>
     </g>
    </g>
   </g>
  </g>
  <g id="m" transform="matrix(29.307 0 0 -29.307 -6678 4017.8)">
   <g id="n" fill="#ee0578">
    <g id="o" fill="#ee0578">
     <g id="p" fill="#ee0578">
      <path id="q" d="m253.19 156.08-0.257-0.772-0.778-0.252-0.19-0.711 0.52-0.519 0.811 0.163 0.621-0.548 0.71 0.19 0.19 0.711-0.553 0.61 0.157 0.8-0.521 0.519z" fill="#ee0578"/>
     </g>
    </g>
   </g>
  </g>
 </g>
 <path id="r" d="m0.02 99.18h17.755c-0.09 24.73 0.04 49.445 0 74.175h-17.755c0.01-24.75-0.05-49.425 0-74.175z" fill="#ee0578"/>
 <path id="s" d="m27.505 99.18h18.005v13.71c-6 0.01-12.005 0.02-18.005 0z" fill="#ee0578"/>
 <path id="t" d="m65.16 101.76c6.89-3.73 15.085-2.58 22.605-2.3v12.58c-3.04-0.16-6.195-0.65-9.165 0.28-2.55 1.39-2.15 4.645-2.44 7.085h10.84l0.01 11.49h-10.75v42.46h-17.79v-42.46h-8.46v-11.49h8.44c0.01-6.31 0.7-14.035 6.71-17.645z" fill="#ee0578"/>
 <path id="u" d="m281.26 99.14h9.22v74.25h-9.22z" fill="#ee0578"/>
 <path id="v" d="m357.75 102.92h20.76v16.485h28.42l8.39 32.43 8.48-32.43h21.32l-18 54.005h-24.52l-13.57-41.255h-10.505v18.73c0.18 2.04 0.165 4.54 1.995 5.89 1.4428 0.94027 3.0862 1.2211 4.7557 1.1078l4.2393-0.28779c-0.02 5.25 0.01 10.51 0 15.77l-13.117 0.60088c-3.9022 0.17876-7.7637-0.30328-11.438-1.8409-5.02-2.27-7.2-8.03-7.19-13.23v-26.74h-9l-0.01-12.75h8.99z" fill="#ee0578"/>
 <path id="w" d="m203.26 103.41h9.295v15.99h10.45v8.02h-10.45v35.37c1.69 3.85 7.055 2.12 10.415 2.63v8.03c-4.76-0.17-9.695 0.34-14.325-1.03-5.94-2.06-5.365-9.43-5.385-14.5v-30.5h-8.925l-0.05-8.02h8.975z" fill="#ee0578"/>
 <path id="x" d="m92.34 129.88c9.28-13.73 31.08-16.41 43.4-5.38 7.25 6.53 9.43 16.765 9.28 26.145h-39.9c0 3.1309 1.24 6.495 3.57 8.825 5.19 5.13 15.13 4.105 18.61-2.535h16.75c-1.83 7.02-7.09 12.975-13.88 15.535-9.77 3.74-21.39 3.33-30.51-1.98-13.45-8.08-16.05-28.18-7.32-40.61m16.36 3.42c-1.94 2.01-2.78 4.715-3.52 7.325h21.91c-0.67-3.32-1.85-6.885-4.8-8.865-4.07-3.03-10.27-2.24-13.59 1.54z" fill="#ee0578"/>
 <path id="y" d="m153.45 123.16c5.22-4.27 12.34-5.36 18.88-4.82 5.06 0.41 10.5 1.54 14.24 5.24 3.13 3.06 4.4 7.53 4.54 11.81h-8.87c-0.59-3.54-2.71-6.98-6.31-8.07-4.89-1.53-10.7-1.59-15.18 1.14-3.37 2.08-2.96 7.62 0.58 9.33 8.41 4.57 18.93 3.51 26.95 9.04 6.15 4.07 6.64 13.17 3.05 19.09-3.59 5.7-10.61 7.88-16.99 8.48-7.3 0.6-15.51-0.17-21.23-5.24-3.75-3.22-5.36-8.195-5.51-13.005h8.95c0.3 4.2 2.99 8.045 7.11 9.255 5.52 1.64 11.97 1.77 17.13-1.06 4.06-2.28 4.14-8.71 0.09-11.05-8.53-4.86-19.47-3.53-27.52-9.54-6.37-4.89-6.02-15.64 0.09-20.6z" fill="#ee0578"/>
 <path id="z" d="m307.84 122.58c9.36-6.62 23.99-5.88 31.59 3.14 5.48 6.41 7.23 15.19 7.11 23.43h-40.36c-0.18 6.32 2.76 13.26 8.9 15.82 5.75 2.39 13.39 2.39 18.08-2.21 1.9-1.75 2.76-4.245 3.59-6.625h8.85c-1.08 7.17-5.81 13.835-12.65 16.525-7.71 3.02-16.84 2.57-24.13-1.4-8.44-4.84-11.99-15.1-12.1-24.37-0.45-9.2 3.37-18.98 11.12-24.31m4.19 6.96c-3.58 2.79-5.26 7.23-5.88 11.59h30.77c-0.44-3.6-1.59-7.2-4.15-9.86-5.03-5.88-14.8-6.66-20.74-1.73z" fill="#ee0578"/>
 <path id="aa" d="m27.505 119.42c6-0.04 12.005-0.02 18.005 0 0 17.99 0.01 35.95 0 53.94h-18.005c0.02-17.99 0.02-35.95 0-53.94z" fill="#ee0578"/>
 <path id="ab" d="m226.08 119.4h10.24l15.66 43.78 15.18-43.78h9.67l-23.96 62.15c-1.67 3.97-3.46 8.22-6.99 10.91-4.23 2.99-9.84 2.57-14.63 1.44v-8.49c3.22 1.16 7.34 2.27 10.18-0.32 3.24-3.3 4.09-8.1 5.96-12.2z" fill="#ee0578"/>
</svg>
