<svg id="a" width="800" height="654.87" version="1.1" viewBox="0 0 211.67 173.27" xmlns="http://www.w3.org/2000/svg">
 <g id="b" transform="translate(-43.366 82.776)">
  <g id="c" transform="matrix(10.98 0 0 -10.98 148.66 90.228)" fill="#fff">
   <path id="d" d="m0 0c-0.026-7e-3 -0.064-0.013-0.115-0.017-0.052-5e-3 -0.103-7e-3 -0.154-7e-3 -0.052 0-0.104 2e-3 -0.157 7e-3 -0.053 4e-3 -0.092 0.01-0.117 0.017-0.045 0.013-0.068 0.038-0.068 0.077v1.253h-1.202v-1.253c0-0.039-0.022-0.064-0.067-0.077-0.026-7e-3 -0.066-0.013-0.12-0.017-0.055-5e-3 -0.108-7e-3 -0.159-7e-3s-0.102 2e-3 -0.151 7e-3c-0.05 4e-3 -0.088 0.01-0.113 0.017-0.045 0.013-0.067 0.038-0.067 0.077v3.074c0 0.038 0.022 0.064 0.067 0.077 0.025 6e-3 0.063 0.012 0.113 0.016 0.049 5e-3 0.1 8e-3 0.151 8e-3s0.104-3e-3 0.159-8e-3c0.054-4e-3 0.094-0.01 0.12-0.016 0.045-0.013 0.067-0.039 0.067-0.077v-1.21h1.202v1.21c0 0.038 0.023 0.064 0.068 0.077 0.025 6e-3 0.064 0.012 0.117 0.016 0.053 5e-3 0.105 8e-3 0.157 8e-3 0.051 0 0.102-3e-3 0.154-8e-3 0.051-4e-3 0.089-0.01 0.115-0.016 0.045-0.013 0.067-0.039 0.067-0.077v-3.074c0-0.039-0.022-0.064-0.067-0.077m3.252 0.947c-0.067-0.198-0.168-0.369-0.303-0.514-0.138-0.144-0.308-0.257-0.51-0.337s-0.455-0.12-0.759-0.12h-0.587c-0.08 0-0.143 2e-3 -0.19 7e-3 -0.046 4e-3 -0.082 0.012-0.105 0.024-0.025 0.011-0.041 0.025-0.049 0.041s-0.012 0.034-0.012 0.053v3.025c0 0.023 3e-3 0.042 0.01 0.058 6e-3 0.016 0.021 0.029 0.046 0.038 0.024 0.01 0.059 0.018 0.105 0.022 0.047 5e-3 0.108 8e-3 0.186 8e-3h0.596c0.304 0 0.557-0.041 0.759-0.121s0.372-0.192 0.51-0.337c0.135-0.144 0.236-0.315 0.303-0.513s0.101-0.42 0.101-0.667c0-0.248-0.034-0.47-0.101-0.667m-0.837 1.437c-0.08 0.091-0.181 0.158-0.303 0.203-0.121 0.045-0.278 0.068-0.471 0.068h-0.226v-2.082h0.226c0.193 0 0.35 0.022 0.471 0.067 0.122 0.045 0.223 0.113 0.303 0.203 0.151 0.17 0.226 0.427 0.226 0.771 0 0.343-0.075 0.6-0.226 0.77" fill="#fff"/>
  </g>
  <g id="e" transform="matrix(10.98 0 0 -10.98 43.366 31.74)">
   <path id="f" d="m0 0v10.43l19.278 1e-3v-10.43z" fill="#0fab4b"/>
  </g>
  <g id="g" transform="matrix(10.98 0 0 -10.98 229.94 3.1095)">
   <path id="h" d="m0 0h-1.367l-1.204 1.761-1.25-1.761h-1.731c-0.132 0.375-0.263 0.71-0.395 1.086h-1.969c-0.131-0.376-0.263-0.711-0.395-1.086h-1.195c0.656 1.739 1.312 3.477 1.968 5.216h1.265c0.553-1.465 1.106-2.931 1.658-4.396l1.364 1.87-1.761 2.524h1.351l1.111-1.612 1.147 1.612h1.367l-1.843-2.537zm-6.889 4.006s-0.45-1.321-0.695-2.022h1.391c-0.246 0.701-0.696 2.022-0.696 2.022m-3.857-4.006v2.717c-0.208-0.408-0.858-1.684-0.858-1.684h-0.769s-0.658 1.28-0.866 1.685v-2.718h-1.151v5.216h1.109s1.17-2.394 1.292-2.643c0.122 0.249 1.286 2.643 1.286 2.643h1.108v-5.216zm10.746 0h-1.367l-1.204 1.761-1.25-1.761h-1.731c-0.132 0.375-0.263 0.71-0.395 1.086h-1.969c-0.131-0.376-0.263-0.711-0.395-1.086h-1.195c0.656 1.739 1.312 3.477 1.968 5.216h1.265c0.553-1.465 1.106-2.931 1.658-4.396l1.364 1.87-1.761 2.524h1.351l1.111-1.612 1.147 1.612h1.367l-1.843-2.537zm-6.889 4.006s-0.45-1.321-0.695-2.022h1.391c-0.246 0.701-0.696 2.022-0.696 2.022m-3.857-4.006v2.717c-0.208-0.408-0.858-1.684-0.858-1.684h-0.769s-0.658 1.28-0.866 1.685v-2.718h-1.151v5.216h1.109s1.17-2.394 1.292-2.643c0.122 0.249 1.286 2.643 1.286 2.643h1.108v-5.216z" fill="#fff"/>
  </g>
 </g>
</svg>
