<svg id="a" width="800" height="432.87" version="1.1" viewBox="0 0 211.67 114.53" xmlns="http://www.w3.org/2000/svg">
 <g id="b" transform="translate(-43.366 82.789)">
  <g id="c" transform="matrix(10.98 0 0 -10.98 43.366 31.74)">
   <path id="d" d="m0 0v10.43l19.278 1e-3v-10.43z" fill="#0fab4b"/>
  </g>
  <g id="e" transform="matrix(10.98 0 0 -10.98 229.94 3.1095)">
   <path id="f" d="m0 0h-1.367l-1.204 1.761-1.25-1.761h-1.731c-0.132 0.375-0.263 0.71-0.395 1.086h-1.969c-0.131-0.376-0.263-0.711-0.395-1.086h-1.195c0.656 1.739 1.312 3.477 1.968 5.216h1.265c0.553-1.465 1.106-2.931 1.658-4.396l1.364 1.87-1.761 2.524h1.351l1.111-1.612 1.147 1.612h1.367l-1.843-2.537zm-6.889 4.006s-0.45-1.321-0.695-2.022h1.391c-0.246 0.701-0.696 2.022-0.696 2.022m-3.857-4.006v2.717c-0.208-0.408-0.858-1.684-0.858-1.684h-0.769s-0.658 1.28-0.866 1.685v-2.718h-1.151v5.216h1.109s1.17-2.394 1.292-2.643c0.122 0.249 1.286 2.643 1.286 2.643h1.108v-5.216zm10.746 0h-1.367l-1.204 1.761-1.25-1.761h-1.731c-0.132 0.375-0.263 0.71-0.395 1.086h-1.969c-0.131-0.376-0.263-0.711-0.395-1.086h-1.195c0.656 1.739 1.312 3.477 1.968 5.216h1.265c0.553-1.465 1.106-2.931 1.658-4.396l1.364 1.87-1.761 2.524h1.351l1.111-1.612 1.147 1.612h1.367l-1.843-2.537zm-6.889 4.006s-0.45-1.321-0.695-2.022h1.391c-0.246 0.701-0.696 2.022-0.696 2.022m-3.857-4.006v2.717c-0.208-0.408-0.858-1.684-0.858-1.684h-0.769s-0.658 1.28-0.866 1.685v-2.718h-1.151v5.216h1.109s1.17-2.394 1.292-2.643c0.122 0.249 1.286 2.643 1.286 2.643h1.108v-5.216z" fill="#fff"/>
  </g>
 </g>
</svg>
