<?xml version="1.0" encoding="UTF-8"?>
<!-- Created with Inkscape (http://www.inkscape.org/) -->
<svg id="svg13461" width="800" height="449.63" version="1.1" viewBox="0 0 211.67 118.96" xmlns="http://www.w3.org/2000/svg" xmlns:cc="http://creativecommons.org/ns#" xmlns:dc="http://purl.org/dc/elements/1.1/" xmlns:rdf="http://www.w3.org/1999/02/22-rdf-syntax-ns#" xmlns:xlink="http://www.w3.org/1999/xlink">
 <defs id="defs13455">
  <clipPath id="clipPath9458">
   <path id="path9456" d="m148.08 316.29h11.566v15.186h-11.566z"/>
  </clipPath>
  <linearGradient id="linear-gradient" x1="116.35" x2="309.69" y1="404.94" y2="190.22" gradientTransform="translate(-.11569 -.42013)" gradientUnits="userSpaceOnUse">
   <stop id="stop4" stop-color="blue" offset="0"/>
   <stop id="stop6" stop-color="#0009fc" offset=".08"/>
   <stop id="stop8" stop-color="#0021f5" offset=".22"/>
   <stop id="stop10" stop-color="#0049e8" offset=".4"/>
   <stop id="stop12" stop-color="#0080d7" offset=".6"/>
   <stop id="stop14" stop-color="#00c6c1" offset=".83"/>
   <stop id="stop16" stop-color="#00ffaf" offset="1"/>
  </linearGradient>
  <linearGradient id="linear-gradient-2" x1="154.61" x2="387.43" y1="368.03" y2="109.45" gradientTransform="translate(-.015687 -.42013)" gradientUnits="userSpaceOnUse">
   <stop id="stop19" stop-color="#00ffaf" offset="0"/>
   <stop id="stop21" stop-color="blue" offset="1"/>
  </linearGradient>
  <linearGradient id="linear-gradient-3" x2="323.16" y1="173.48" y2="173.48" gradientTransform="translate(-.015687 -.42013)" gradientUnits="userSpaceOnUse">
   <stop id="stop24" stop-color="blue" offset="0"/>
   <stop id="stop26" stop-color="#0039ed" offset=".17"/>
   <stop id="stop28" stop-color="#007fd7" offset=".4"/>
   <stop id="stop30" stop-color="#00b6c6" offset=".6"/>
   <stop id="stop32" stop-color="#00deb9" offset=".78"/>
   <stop id="stop34" stop-color="#00f6b2" offset=".92"/>
   <stop id="stop36" stop-color="#00ffaf" offset="1"/>
  </linearGradient>
 </defs>
 <metadata id="metadata13458">
  <rdf:RDF>
   <cc:Work rdf:about="">
    <dc:format>image/svg+xml</dc:format>
    <dc:type rdf:resource="http://purl.org/dc/dcmitype/StillImage"/>
    <dc:title/>
   </cc:Work>
  </rdf:RDF>
 </metadata>
 <g id="layer1" transform="translate(2.5308 -12.653)">
  <g id="g14096" transform="matrix(1.0967 0 0 1.0967 .24462 -12.722)">
   <g id="g9448" transform="matrix(8.1048 0 0 -8.1048 134.67 59.401)">
    <path id="path9450" d="m0 0v-2.19h-2.893v2.19h-1.115v-5.784h1.115v2.603h2.893v-2.603h1.115v5.784z" fill="#2350a9"/>
   </g>
   <g id="g9452" transform="matrix(8.1048 0 0 -8.1048 -1103.4 2699)">
    <g id="g9454" clip-path="url(#clipPath9458)">
     <g id="g9460" transform="translate(158.11 324.05)">
      <path id="path9462" d="m0 0c-0.322 0.405-0.793 0.645-1.479 0.645h-0.826v-3.801h0.826c0.686 0 1.157 0.239 1.479 0.644 0.264 0.331 0.421 0.777 0.421 1.256s-0.157 0.925-0.421 1.256m-1.603 1.636c0.917 0 1.52-0.198 1.991-0.545 0.711-0.529 1.149-1.388 1.149-2.347 0-0.958-0.438-1.818-1.149-2.347-0.471-0.347-1.074-0.545-1.991-0.545h-1.818v5.784z" fill="#2350a9"/>
     </g>
    </g>
   </g>
  </g>
  <g id="g841" transform="matrix(.27323 0 0 .27323 -2.5307 12.653)">
   <path id="path43" class="cls-1" d="m51.884 346.58h311q21-0.16 21-18.79v-61.81q0-18.64-21.06-18.75h-310.94z" fill="url(#linear-gradient)"/>
   <path id="path45" class="cls-2" d="m219.41 51.16v363.18q0.12 21.06 18.76 21.06h66.22q18.63 0 18.75-21.06v-363.18z" fill="url(#linear-gradient-2)"/>
   <path id="path47" class="cls-3" d="m51.884 346.58a52.28 52.28 0 0 1-38.33-87.4l218.2-242.38a52.42 52.42 0 0 1 77.82 70.24l-218.2 242.34a52.49 52.49 0 0 1-39.49 17.2z" fill="url(#linear-gradient-3)"/>
  </g>
 </g>
</svg>
