<svg id="d" width="406.43" height="261" version="1.1" viewBox="0 0 107.54 69.054" xmlns="http://www.w3.org/2000/svg">
 <defs id="e">
  <linearGradient id="c" x1="116.35" x2="309.69" y1="404.94" y2="190.22" gradientTransform="translate(-.11569 -.42013)" gradientUnits="userSpaceOnUse">
   <stop id="f" stop-color="blue" offset="0"/>
   <stop id="g" stop-color="#0009fc" offset=".08"/>
   <stop id="h" stop-color="#0021f5" offset=".22"/>
   <stop id="i" stop-color="#0049e8" offset=".4"/>
   <stop id="j" stop-color="#0080d7" offset=".6"/>
   <stop id="k" stop-color="#00c6c1" offset=".83"/>
   <stop id="l" stop-color="#00ffaf" offset="1"/>
  </linearGradient>
  <linearGradient id="b" x1="154.61" x2="387.43" y1="368.03" y2="109.45" gradientTransform="translate(-.015687 -.42013)" gradientUnits="userSpaceOnUse">
   <stop id="m" stop-color="#00ffaf" offset="0"/>
   <stop id="n" stop-color="blue" offset="1"/>
  </linearGradient>
  <linearGradient id="a" x2="323.16" y1="173.48" y2="173.48" gradientTransform="translate(-.015687 -.42013)" gradientUnits="userSpaceOnUse">
   <stop id="o" stop-color="blue" offset="0"/>
   <stop id="p" stop-color="#0039ed" offset=".17"/>
   <stop id="q" stop-color="#007fd7" offset=".4"/>
   <stop id="r" stop-color="#00b6c6" offset=".6"/>
   <stop id="s" stop-color="#00deb9" offset=".78"/>
   <stop id="t" stop-color="#00f6b2" offset=".92"/>
   <stop id="u" stop-color="#00ffaf" offset="1"/>
  </linearGradient>
 </defs>
 <g id="v" transform="matrix(.15861 0 0 .15861 4.9674e-5 -.0032596)">
  <path id="w" class="cls-1" d="m51.884 346.58h311q21-0.16 21-18.79v-61.81q0-18.64-21.06-18.75h-310.94z" fill="url(#c)"/>
  <path id="x" class="cls-2" d="m219.41 51.16v363.18q0.12 21.06 18.76 21.06h66.22q18.63 0 18.75-21.06v-363.18z" fill="url(#b)"/>
  <path id="y" class="cls-3" d="m51.884 346.58a52.28 52.28 0 0 1-38.33-87.4l218.2-242.38a52.42 52.42 0 0 1 77.82 70.24l-218.2 242.34a52.49 52.49 0 0 1-39.49 17.2z" fill="url(#a)"/>
 </g>
 <g id="z" transform="translate(-1.4427e-5 -22.849)" fill="#00125a" stroke-width=".12492">
  <path id="aa" transform="matrix(.26459 0 0 .26459 0 -.0032395)" d="m254.3 198.12c-1.5524 0-2.3338 0.87696-2.3438 2.6309v90.738c0.01 1.7539 0.79139 2.6308 2.3438 2.6308h16.314c1.5515 0 2.3318-0.87695 2.3418-2.6308v-30.369h30v30.369c0.01 1.7539 0.79139 2.6309 2.3438 2.6308l16.316-2.3e-4c1.5515-2e-5 2.3318-0.87672 2.3418-2.6306l2e-5 -90.738c-0.01-1.7539-0.79028-2.6311-2.3418-2.6311l-16.316 2.3e-4c-1.5524 2e-5 -2.3338 0.87696-2.3438 2.6309v41.369h-30v-41.369c-0.01-1.7539-0.79026-2.6309-2.3418-2.6309z"/>
  <path id="ab" transform="matrix(.26459 0 0 .26459 0 -.0032395)" d="m343.3 198.12c-1.5524-1e-5 -2.3338 0.87696-2.3438 2.6309v90.738c0.01 1.7539 0.79139 2.6308 2.3438 2.6308h31.518c20.084 0 31.783-10.819 31.605-32.678v-30.306c0-22.854-10.152-33.016-31.605-33.016zm18.656 18.098h10.208c9.5689 0 13.217 3.0955 13.263 14.918v30.306c0 10.647-3.993 14.504-13.263 14.566h-10.208z"/>
 </g>
</svg>
