<?xml version="1.0" encoding="UTF-8"?>
<svg id="svg81" width="566.65" height="435.4" version="1.1" viewBox="0 0 566.65 435.4" xmlns="http://www.w3.org/2000/svg" xmlns:cc="http://creativecommons.org/ns#" xmlns:dc="http://purl.org/dc/elements/1.1/" xmlns:rdf="http://www.w3.org/1999/02/22-rdf-syntax-ns#">
 <metadata id="metadata85">
  <rdf:RDF>
   <cc:Work rdf:about="">
    <dc:format>image/svg+xml</dc:format>
    <dc:type rdf:resource="http://purl.org/dc/dcmitype/StillImage"/>
    <dc:title>Asset 1</dc:title>
   </cc:Work>
  </rdf:RDF>
 </metadata>
 <defs id="defs39">
  <linearGradient id="linear-gradient" x1="116.35" x2="309.69" y1="404.94" y2="190.22" gradientTransform="translate(-.11569 -.42013)" gradientUnits="userSpaceOnUse">
   <stop id="stop4" stop-color="blue" offset="0"/>
   <stop id="stop6" stop-color="#0009fc" offset=".08"/>
   <stop id="stop8" stop-color="#0021f5" offset=".22"/>
   <stop id="stop10" stop-color="#0049e8" offset=".4"/>
   <stop id="stop12" stop-color="#0080d7" offset=".6"/>
   <stop id="stop14" stop-color="#00c6c1" offset=".83"/>
   <stop id="stop16" stop-color="#00ffaf" offset="1"/>
  </linearGradient>
  <linearGradient id="linear-gradient-2" x1="154.61" x2="387.43" y1="368.03" y2="109.45" gradientTransform="translate(-.015687 -.42013)" gradientUnits="userSpaceOnUse">
   <stop id="stop19" stop-color="#00ffaf" offset="0"/>
   <stop id="stop21" stop-color="blue" offset="1"/>
  </linearGradient>
  <linearGradient id="linear-gradient-3" x2="323.16" y1="173.48" y2="173.48" gradientTransform="translate(-.015687 -.42013)" gradientUnits="userSpaceOnUse">
   <stop id="stop24" stop-color="blue" offset="0"/>
   <stop id="stop26" stop-color="#0039ed" offset=".17"/>
   <stop id="stop28" stop-color="#007fd7" offset=".4"/>
   <stop id="stop30" stop-color="#00b6c6" offset=".6"/>
   <stop id="stop32" stop-color="#00deb9" offset=".78"/>
   <stop id="stop34" stop-color="#00f6b2" offset=".92"/>
   <stop id="stop36" stop-color="#00ffaf" offset="1"/>
  </linearGradient>
 </defs>
 <title id="title41">Asset 1</title>
 <path id="path43" class="cls-1" d="m51.884 346.58h311q21-0.16 21-18.79v-61.81q0-18.64-21.06-18.75h-310.94z" fill="url(#linear-gradient)"/>
 <path id="path45" class="cls-2" d="m219.41 51.16v363.18q0.12 21.06 18.76 21.06h66.22q18.63 0 18.75-21.06v-363.18z" fill="url(#linear-gradient-2)"/>
 <path id="path47" class="cls-3" d="m51.884 346.58a52.28 52.28 0 0 1-38.33-87.4l218.2-242.38a52.42 52.42 0 0 1 77.82 70.24l-218.2 242.34a52.49 52.49 0 0 1-39.49 17.2z" fill="url(#linear-gradient-3)"/>
 <g id="g934" transform="matrix(1.8316 0 0 1.8316 -627.46 -253.54)" fill="#fff" stroke-width=".54596">
  <path id="path55" class="cls-4" d="m584.79 288.79a9.62 9.62 0 0 1 2.77-2.33 13 13 0 0 1 2.93-1.19 11.91 11.91 0 0 1 2.68-0.43h2a14.14 14.14 0 0 1 10.2 3.74q3.92 3.73 3.91 11.56v25.33a1.35 1.35 0 0 1-0.51 1.15 1.72 1.72 0 0 1-1 0.38h-7.91a1.72 1.72 0 0 1-1-0.38 1.35 1.35 0 0 1-0.51-1.15v-24.95a6.72 6.72 0 0 0-0.3-1.74 5.87 5.87 0 0 0-1.06-2 6.27 6.27 0 0 0-2-1.65 6.75 6.75 0 0 0-3.23-0.68 11.81 11.81 0 0 0-3.1 0.51 9.37 9.37 0 0 0-3.79 2.37v28.14a1.35 1.35 0 0 1-0.51 1.15 1.72 1.72 0 0 1-1 0.38h-7.9a1.72 1.72 0 0 1-1-0.38 1.35 1.35 0 0 1-0.51-1.15v-50.53a1.35 1.35 0 0 1 0.51-1.15 1.72 1.72 0 0 1 1-0.38h7.9a1.72 1.72 0 0 1 1 0.38 1.35 1.35 0 0 1 0.51 1.15z"/>
  <path id="path57" class="cls-4" d="m651.94 324.07c0 0.51-0.68 1-2 1.4a35 35 0 0 1-4.93 1.11c-1.92 0.31-3.91 0.56-6 0.76s-3.74 0.3-5.1 0.3a21.91 21.91 0 0 1-7.14-1.11 12.57 12.57 0 0 1-5.52-3.74 18.29 18.29 0 0 1-3.57-7.09 41.09 41.09 0 0 1-1.28-11.1 26.73 26.73 0 0 1 1.49-9.6 17.08 17.08 0 0 1 3.78-6.08 13.26 13.26 0 0 1 5-3.18 15.54 15.54 0 0 1 5.1-0.94c0.9 0 2.18 0.08 3.82 0.25a14.11 14.11 0 0 1 5.36 1.88v-12a1.35 1.35 0 0 1 0.51-1.15 1.72 1.72 0 0 1 1-0.38h7.9a1.72 1.72 0 0 1 1 0.38 1.35 1.35 0 0 1 0.51 1.15zm-11-28.64-2-0.51-2-0.34a10.51 10.51 0 0 0-1.91-0.17 11.66 11.66 0 0 0-2.55 0.29 7 7 0 0 0-2.34 1 5.93 5.93 0 0 0-1.78 2 6.65 6.65 0 0 0-0.81 3.18 13.88 13.88 0 0 0-0.09 1.62v7.22a17 17 0 0 0 0.09 1.79 6.74 6.74 0 0 0 0.81 3.14 6.16 6.16 0 0 0 1.78 2.05 6.71 6.71 0 0 0 2.34 1.06 11.09 11.09 0 0 0 2.52 0.24 16.71 16.71 0 0 0 2-0.12 14.78 14.78 0 0 0 2-0.39q1-0.16 2-0.42z"/>
 </g>
</svg>
