<svg id="a" version="1.1" viewBox="0 0 800 221.43" xmlns="http://www.w3.org/2000/svg">
 <defs id="b">
  <style id="c" type="text/css">text {
          font-family: "Open Sans", sans-serif !important;
        }</style>
 </defs>
 <path id="d" d="m0 221.43h800v-221.43h-800" fill="#fff" fill-rule="evenodd" stroke-width="7.1429"/>
 <path id="e" d="m564.29 207.14h221.43v-192.86h-221.43" fill="#6f6f6e" fill-rule="evenodd" stroke-width="7.1429"/>
 <path id="f" d="m14.286 207.14h535.71v-192.86h-535.71" fill="#d20000" fill-rule="evenodd" stroke-width="7.1429"/>
 <g id="g" transform="scale(7.1429)" fill="#fff" fill-rule="evenodd">
  <path id="h" d="m15.564 4.007c0.066 0.731-0.1 1.461-0.365 2.092 2.856-0.598 4.251-3.188 6.775-2.192 0.664 0.499 0.431 1.262 0.265 2.026-1.926 5.878-3.919 11.391-4.716 17.568h-3.952l2.259-7.937 2.524-8.17c0.099-0.332-0.299-0.431-0.465-0.531-1.096-0.1-2.093 0.266-3.022 0.731l-0.333 0.498-1.893 6.044-2.59 9.399h-4.085l1.229-3.255 3.089-8.967 1.295-4.051c-0.797 0.199-1.727 0.465-2.624 0.597v-2.025c2.557-0.366 4.284-2.392 5.447-2.425 0 0.033 1.062-0.066 1.162 0.598m35.867 2.1919c-2.889 5.314-4.616 11.125-5.347 17.336h-2.889c0.133-0.864 0.398-1.694 0.398-2.557-1.527 1.494-3.088 3.055-5.28 2.557-0.93-0.266-1.395-1.163-1.561-2.026-0.232-3.819 2.292-6.908 5.413-8.834 1.03-0.565 2.159-0.996 3.321-1.196l-0.73 2.624c-1.893 0.399-3.952 2.126-4.251 4.118-0.1 0.532-0.067 1.129 0.332 1.495 0.232 0.299 0.664 0.365 0.963 0.265 1.328-0.498 2.358-2.324 2.956-3.52l3.586-10.262h3.089m5.3801-0.0332c-3.786 4.948-5.779 10.76-5.712 17.303h-2.923c0.332-6.377 2.259-12.189 5.546-17.303h3.089m14.081 7.4391c-1.262 0.033-3.055-0.199-3.421 0.93-0.265 1.428 1.794 1.793 2.624 2.79 0.565 0.73 1.029 1.461 0.897 2.457-0.233 1.827-1.893 3.487-3.62 3.919-1.661 0.465-3.554 0.166-4.982-0.631 0.465-0.83 1.03-1.694 1.627-2.458 0.532 0.332 1.03 0.731 1.694 0.731 0.631 0 1.096-0.232 1.528-0.731 0.232-0.398 0.365-0.896 0.232-1.361-0.83-1.262-2.69-1.926-2.789-3.587-0.2-1.594 0.73-2.889 2.092-3.72 1.395-0.763 3.155-0.83 4.915-0.763l-0.797 2.424m-11.723-2.2251c-1.528 2.69-4.118 6.542-2.69 9.066 0.199 0.299 0.631 0.366 0.93 0.166 1.063-1.062 1.162-2.191 1.826-3.786 0.665-1.726 1.296-3.686 2.059-5.413h3.388c-2.823 4.949-4.284 10.528-4.982 16.34h-3.719c0.398-1.495 0.93-3.687 1.395-5.181-0.764 0.764-1.96 1.162-2.89 0.83-1.793-1.162-1.494-3.487-0.93-5.579 0.565-2.259 1.528-4.517 2.823-6.443h2.79m-29.192-0.1992c-0.033 0.133-0.365 1.262-0.365 1.262-1.561-0.066-3.188 0.565-4.085 1.727-1.461 1.627-2.79 4.483-1.461 6.144 0.431 0.498 1.062 0.631 1.693 0.498 1.063-0.232 1.96-1.328 2.126-2.391 0.365-1.694-0.133-3.288-0.664-4.749l2.623-0.631c0.93 2.623 0.797 6.177-1.162 8.302-1.661 1.794-3.819 2.724-6.244 2.358-1.062-0.299-2.291-1.195-2.491-2.358-0.797-2.756 1.063-6.841 4.152-8.767 1.66-1.129 3.653-1.561 5.878-1.395m6.1771 0.2324c-0.066 0.498-0.133 0.764-0.199 1.096 0.564-0.199 0.896-0.83 1.361-0.963 0.266-0.166 0.963-0.166 1.229 0 0.432 0.398 0.498 0.897 0.532 1.428l-1.827 1.826-0.897-0.963c-1.395 1.229-1.926 3.986-2.258 5.613l-0.731 4.018h-3.088l0.498-2.291 1.793-6.775c0.432-1.362 0.565-1.959 0.997-2.989h2.59m57.001-0.8302h-3.52v13.749h-4.152v-13.749h-3.52v-3.62h11.192m13.882 1e-4 -4.317 17.336h-4.152l-4.35-17.336h4.417l0.93 5.081c0.564 3.222 0.963 5.646 1.129 7.306 0.133-1.594 0.498-4.051 1.063-7.306l0.896-5.081z"/>
 </g>
</svg>
