<?xml version="1.0" encoding="UTF-8"?>
<svg id="svg32" width="781" height="252" xmlns:cc="http://creativecommons.org/ns#" xmlns:dc="http://purl.org/dc/elements/1.1/" xmlns:rdf="http://www.w3.org/1999/02/22-rdf-syntax-ns#" version="1.1" viewBox="0 0 781 252" xmlns:xlink="http://www.w3.org/1999/xlink" xmlns="http://www.w3.org/2000/svg">
 <metadata id="metadata36">
  <rdf:RDF>
   <cc:Work rdf:about="">
    <dc:format>image/svg+xml</dc:format>
    <dc:type rdf:resource="http://purl.org/dc/dcmitype/StillImage"/>
    <dc:title/>
   </cc:Work>
  </rdf:RDF>
 </metadata>
 <link id="dark-mode" href="" rel="stylesheet" type="text/css"/>
 <defs id="defs7">
  <polygon id="path-1" points="781.58 0.41623 781.58 252 0 252 0 0.41623"/>
 </defs>
 <g id="Group-3" fill="none" fill-rule="evenodd">
  <mask id="mask-2" fill="white">
   <use id="use9" width="100%" height="100%" xlink:href="#path-1"/>
  </mask>
 </g>
 <path id="Fill-10" d="m536.22 211.89c0 7.0033 0.0192 14.007-6e-3 21.011-0.0258 7.3378-0.53218 6.8102 6.8435 6.7814 3.6404-0.0141 3.7816-0.14948 3.7829-3.8609 4e-3 -14.796 0.0179-29.592-5e-3 -44.389-0.0119-7.9457 0.92718-6.9664-7.0337-7.1126-2.6178-0.0476-3.6643 0.87005-3.6239 3.6008 0.11731 7.9886 0.0418 15.979 0.0418 23.969m-45.251-0.1354c0 8.0878 0.0968 16.179-0.0517 24.264-0.0537 2.893 0.97158 3.7637 3.7558 3.7155 8.287-0.14479 16.578-0.0436 24.868-0.0543 7.6249-0.01 6.6699 0.80369 6.8157-7.0475 0.0464-2.4848-0.91989-3.2758-3.2905-3.2369-6.4352 0.10658-12.874-0.0476-19.308 0.0845-2.089 0.0436-2.6125-0.63009-2.5973-2.6732 0.0881-11.835 0.057-23.673 0.0384-35.51-0.0119-7.744 0.86554-6.8297-6.8826-6.9832-2.5754-0.0503-3.4204 0.92903-3.3866 3.4722 0.10538 7.988 0.0391 15.979 0.0391 23.969m85.32 7.9136c-0.23064 0.0194-0.46061 0.0389-0.69124 0.0576-2.7822-9.6034-5.5743-19.203-8.344-28.811-1.8954-6.5783-1.8815-6.583-8.497-6.5596-3.8704 0.0127-4.3284 0.63411-3.1381 4.3543 4.84 15.128 9.6999 30.25 14.529 45.381 1.8431 5.7733 1.8146 5.7418 7.8906 5.6238 1.3321-0.0261 2.0969-0.32375 2.5363-1.7153 5.3179-16.828 10.67-33.645 16.064-50.448 0.74094-2.3085-0.23925-3.1156-2.2898-3.1826-1.851-0.0597-3.714 0.0958-5.5564-0.0463-1.6542-0.12736-2.4117 0.4605-2.8398 2.1047-1.063 4.0808-2.3163 8.11-3.4986 12.159-2.0532 7.0281-4.1097 14.055-6.1655 21.082m29.558-7.7353c0 7.7963-6.7e-4 15.593 6.6e-4 23.389 6.6e-4 4.3549 3e-3 4.3583 4.176 4.3596 8.0987 3e-3 16.197 0.0154 24.296-3e-3 7.6182-0.0174 6.7944 0.90089 6.9124-6.9611 0.0358-2.403-0.7827-3.3636-3.2276-3.3227-6.5353 0.1106-13.075-0.0194-19.611 0.0757-1.7742 0.0255-2.4329-0.492-2.3508-2.3246 0.1246-2.7576 0.11598-5.5286 3e-3 -8.2869-0.0722-1.7649 0.45-2.4339 2.2964-2.3789 4.2899 0.12669 8.5852 0.0228 12.879 0.0436 7.1079 0.0349 6.2662 0.55702 6.3332-6.9349 0.0172-1.8681-0.81319-2.6953-2.651-2.6718-3.1215 0.0402-6.2484 0.11127-9.3652-0.0194-3.0685-0.1287-7.1775 1.4344-8.9311-0.65019-1.8159-2.1584-0.33668-6.2458-0.54743-9.48-0.10802-1.6617 0.48381-2.2267 2.1652-2.1966 5.3649 0.0958 10.733 0.0503 16.099 0.0315 7.5957-0.0275 6.7931 0.9411 6.9091-6.9577 0.0358-2.4084-0.79728-3.3468-3.2309-3.3247-9.6588 0.0878-19.32 0.0878-28.978 6.7e-4 -2.4442-0.0221-3.2395 0.93641-3.2116 3.3374 0.0941 8.0905 0.0365 16.184 0.0358 24.276m-40.342 40.066c-26.539 0-53.077 6.7e-4 -79.616-6.7e-4 -4.113-6.7e-4 -5.8891-1.7877-5.8891-5.9281-2e-3 -21.71-1e-3 -43.419 0-65.13 0-4.1538 1.7669-5.9402 5.8759-5.9409 53.077-6.7e-4 106.15-6.7e-4 159.23 0 4.113 6.7e-4 5.8885 1.7877 5.8885 5.9281 2e-3 21.71 2e-3 43.419 6.7e-4 65.13-6.7e-4 4.1545-1.7675 5.9402-5.8766 5.9409-26.539 1e-3 -53.078 6.7e-4 -79.616 6.7e-4" fill="#d81624" fill-rule="evenodd"/>
 <g id="g921" fill-rule="evenodd">
  <path id="Fill-4" d="m0 69.338c1.2068-0.56573 0.95127-1.9711 1.2434-2.8426 2.2776-6.7867 7.5478-9.2039 13.888-9.2245 18.664-0.05983 37.343-0.79574 55.993 0.4454 6.9636 0.46335 13.724 2.0941 20.096 5.0344 14.905 6.8778 22.244 19.07 24.205 34.939 0.90281 7.3112 0.46734 14.669 0.49124 22.006 0.0498 14.881-0.0199 29.761 0.0577 44.641 0.01 1.9717-0.39365 2.703-2.5352 2.6578-6.8401-0.14226-13.687-0.14758-20.527 3e-3 -2.1933 0.0485-2.7489-0.53116-2.7376-2.7389 0.09493-18.894 0.06107-37.789 0.05244-56.682-8e-3 -16.596-6.6901-24.116-23.31-25.362-13.066-0.97922-26.188-0.16221-39.283-0.3869-2.5365-0.04388-1.9085 1.6467-1.9092 2.9822-0.01792 25.845-0.01328 51.69-0.01328 77.534 0 4.5976 0 4.6096-4.601 4.595-7.0366-0.02161-14.073-0.06083-21.11-0.09274z"/>
  <path id="Fill-6" d="m221.84 0c0.99752 1.2662 2.6124 1.9801 3.026 3.7852 0.67749 2.9578-1.2033 5.9042-4.3589 6.0191-1.661 0.060104-2.4253 0.82409-3.2571 1.9407-5.9764 8.0185-12.058 15.961-17.908 24.071-1.5247 2.113-2.9932 2.7628-5.3384 1.6415 0.4256-1.4538 1.5547-2.4529 2.414-3.6089 5.9651-8.0259 11.952-16.036 17.969-24.024 0.89997-1.1954 1.6656-2.1918 1.0095-3.8941-0.97413-2.5304 1.4305-3.9842 2.3111-5.9302z"/>
  <path id="Fill-8" d="m360.6 57.954c3.7047 0 7.4115 0.07903 11.113-0.03415 1.7822-0.05492 2.4548 0.37571 2.6693 2.3688 1.9219 17.841 3.996 35.664 6.0166 53.494 1.0652 9.4022 2.0649 18.813 3.1844 28.209 0.60377 5.0684 2.8898 6.635 7.518 5.544 2.8328-0.66839 3.4247-2.9823 3.9676-5.2942 2.5475-10.837 5.044-21.687 7.5564-32.532 2.3767-10.261 4.7031-20.534 7.1394-30.78 3.4512-14.514 12.64-22.136 27.386-22.834 4.3939-0.20761 8.7766-0.13194 13.098 0.79563 9.7637 2.0949 16.106 8.1773 19.111 17.622 3.1652 9.9487 4.7461 20.308 7.052 30.48 2.8487 12.573 5.5266 25.186 8.3006 37.776 0.91493 4.1543 4.0708 5.9237 8.1106 4.7008 2.1913-0.66435 2.6382-2.4512 2.8918-4.3438 1.5981-11.913 3.1711-23.829 4.7395-35.747 2.0576-15.63 4.1304-31.258 6.1205-46.897 0.24297-1.9107 0.85402-2.6186 2.8798-2.5825 7.4068 0.13528 14.818 0.0951 22.226 0.02344 1.7915-0.01674 2.572 0.15203 2.2509 2.4003-4.0318 28.29-7.8616 56.61-11.935 84.895-2.2966 15.942-12.119 24.769-28.001 25.677-4.1033 0.23507-8.1907 0.0737-12.233-0.70187-11.552-2.2168-18.389-9.5469-20.992-20.8-4.3469-18.792-8.333-37.669-12.468-56.511-0.65475-2.9836-1.2797-5.9733-1.9457-8.9535-0.80702-3.6085-2.1893-4.6867-5.9417-4.6941-3.7001-0.0074-5.1274 1.1017-5.9576 4.7075-3.0056 13.042-5.9834 26.091-9.0003 39.131-2 8.6394-3.9258 17.299-6.1066 25.892-3.2354 12.746-11.283 20.108-24.344 21.615-6.3542 0.73334-12.655 0.62552-18.812-1.3415-7.767-2.48-13.034-7.5906-15.77-15.391-1.3122-3.7418-2.0742-7.5906-2.5866-11.507-3.5101-26.877-7.0493-53.75-10.507-80.634-0.58391-4.536-0.85534-3.6694 3.3254-3.7424 3.3141-0.05827 6.6296-0.01206 9.9437-0.01206"/>
  <path id="Fill-12" d="m601.02 121.18c-6.9632 0-13.926-0.0466-20.889 0.0273-2.2451 0.0233-4.5176 0.19496-6.722 0.59752-3.7048 0.67671-6.1044 2.8486-6.9572 6.6473-1.7954 7.9994 2.2038 13.424 10.817 13.58 15.295 0.27614 30.597 0.10047 45.896 0.11644 2.5256 3e-3 3.7647-1.1518 3.7288-3.7728-0.0699-4.9944-0.10126-9.9936 0.0287-14.985 0.0493-1.8877-0.61957-2.269-2.365-2.2497-7.8446 0.0878-15.692 0.0386-23.538 0.0393m-15.343-64.065c10.117 0.35798 22.596-0.75655 35.01 0.52367 18.952 1.9549 30.764 14.469 31.128 33.526 0.35776 18.7 0.0886 37.413 0.0307 56.12-7e-3 2.0421-0.30379 4.1075-0.69152 6.119-1.4104 7.32-6.3416 11.751-14.442 12.935-2.6109 0.38127-5.2664 0.62414-7.9032 0.63212-17.357 0.0526-34.715 0.0313-52.073 0.0186-4.0352-3e-3 -8.0338-0.46844-11.952-1.3953-13.872-3.2811-22.319-13.191-23.533-27.591-0.42904-5.0916-0.38907-10.185 0.71617-15.206 2.6075-11.84 10.986-19.288 24.231-21.626 4.7494-0.83839 9.5381-1.1072 14.349-1.1066 14.515 3e-3 29.029-0.0606 43.542 0.0619 2.3977 0.0206 3.0945-0.72328 2.8074-2.9444-0.1499-1.1578-5e-3 -2.3495-0.0746-3.5213-0.41838-7.127-4.0072-10.896-11.142-11.655-1.4577-0.15504-2.9366-0.14306-4.4063-0.14306-20.3-0.0087-40.601-0.04658-60.9 0.04724-2.395 0.01131-3.1638-0.56159-3.0925-3.0402 0.18187-6.3612 0.17588-12.735 6.7e-4 -19.097-0.0633-2.3063 0.70151-2.7268 2.8227-2.7068 11.081 0.1038 22.163 0.04857 35.572 0.04857"/>
  <path id="Fill-14" d="m670.05 251.94c4.5129-10.626 8.8286-20.797 13.152-30.966 7.7855-18.315 15.54-36.643 23.406-54.923 0.96177-2.2358 0.80581-2.8893-1.7929-3.122-7.8681-0.70616-12.368-5.7033-15.146-12.631-3.8331-9.5554-7.6548-19.116-11.463-28.68-8.1587-20.491-16.306-40.986-24.458-61.48-1.2224-3.0713-1.2217-3.0733 2.2068-3.0733 7.0643-6.67e-4 14.131 0.06868 21.193-0.04668 1.8722-0.03067 2.696 0.5808 3.3925 2.3138 10.343 25.747 20.764 51.462 31.188 77.176 0.50254 1.2383 0.7125 2.7339 2.0888 3.4168 2.0968 1.0389 3.9984 0.19871 5.0155-2.1618 11.212-26.016 22.443-52.023 33.586-78.067 0.86246-2.0151 1.8902-2.7326 4.111-2.6906 8.0401 0.15203 16.085 0.05935 24.476 0.05935-0.64185 1.4837-1.2024 2.7666-1.7536 4.0549-26.851 62.729-53.711 125.45-80.504 188.21-0.86246 2.0204-1.8602 2.7173-4.075 2.6746-8.0388-0.1547-16.083-0.0607-24.622-0.0607"/>
  <path id="Fill-16" d="m186.05 79.718c-4.6896 0.06673-9.3878-0.21155-14.058 0.56191-9.1278 1.5129-15.373 4.5166-18.151 15.24-2.7508 10.618-2.7608 21.249-0.31335 31.899 1.2927 5.6224 3.7602 10.533 9.1505 13.323 4.7249 2.4452 9.9546 2.9203 15.111 3.0458 7.4277 0.18085 14.865 0.25092 22.301-0.44579 8.9985-0.84286 15.405-5.924 17.86-14.521 2.2728-7.9581 2.1201-16.1 1.7401-24.216-0.18134-3.8786-1.042-7.7553-2.3088-11.47-1.9108-5.6051-5.4803-9.5284-11.291-11.397-6.5644-2.1108-13.284-2.1075-20.04-2.0201m1.6268-23.688c5.787-0.07274 13.059-0.14882 20.208 1.4648 17.56 3.964 28.713 14.716 33.209 32.106 3.8576 14.92 3.9029 29.99-0.0447 44.893-4.7829 18.054-16.676 28.839-35.013 31.866-13.225 2.1829-26.661 2.1782-39.886 0.0314-18.728-3.0398-30.696-14.096-35.384-32.561-3.7422-14.741-3.6875-29.615 0.15534-44.328 4.9216-18.845 18.316-30.316 37.635-32.804 5.8677-0.75544 11.753-0.66134 19.121-0.66868"/>
  <path id="Fill-18" d="m256.05 125.81c6.6e-4 -11.462 0.0139-22.923-7e-3 -34.385-7e-3 -4.3225 0.29528-8.6045 1.2056-12.84 2.4933-11.599 9.2741-18.095 20.946-19.881 2.498-0.38189 5.0429-0.61076 7.568-0.6214 14.525-0.06254 29.051-4e-3 43.576-0.08316 1.9511-0.01064 2.7105 0.36792 2.6608 2.5415-0.15161 6.56-0.13638 13.127-7e-3 19.689 0.041 2.0685-0.56473 2.6127-2.6012 2.5961-11.893-0.09448-23.786-0.06188-35.679-0.02728-1.6472 0.0047-3.3229 0.10845-4.9343 0.4258-3.8393 0.7558-6.2234 3.1376-6.9291 7.0184-0.31382 1.7212-0.44954 3.4989-0.45153 5.2513-0.0285 23.217-0.0576 46.435 0.0391 69.652 9e-3 2.3499-0.64088 2.8928-2.8839 2.8416-6.6259-0.15169-13.26-0.16699-19.884 8e-3 -2.2967 0.0606-2.682-0.69924-2.6668-2.8043 0.096-13.127 0.049-26.254 0.049-39.381"/>
  <path id="Fill-20" d="m211 55c-16.107-2.6278-32.058-2.6634-48-0.05405 0.54545-4.2848 3.4982-8.1771 8.3028-10.648 7.1246-3.6633 14.686-3.7109 22.313-2.8163 3.5015 0.41035 6.882 1.3968 9.9802 3.2913 3.7091 2.2701 6.2922 5.4853 7.4043 10.227"/>
  <path id="Fill-22" d="m179 37.353c-2.2493 1.2977-3.6511 0.56747-5.126-1.5106-4.6882-6.6059-9.6116-13.042-14.428-19.556-0.75478-1.0203-1.3978-1.7327-2.9629-1.7439-2.891-0.02043-4.7685-2.517-4.4477-5.2706 0.32152-2.7536 2.846-4.6663 5.5495-4.2029 2.6656 0.45608 4.5307 3.0456 3.7563 5.817-0.41889 1.4974 0.0484 2.347 0.8136 3.3738 5.1299 6.8808 10.246 13.772 15.344 20.678 0.55939 0.75794 1.3462 1.3959 1.5011 2.4149"/>
  <path id="Fill-24" d="m159.01 169c3.7563 0.9596 7.2605 1.8649 10.854 2.2134 1.3305 0.12933 1.2767 0.73712 0.91057 1.7497-0.69929 1.9346-1.2975 3.9081-1.987 5.8461-1.197 3.3626-3.5956 4.7243-6.9663 4.0032-1.7297-0.3699-2.5722-1.5627-2.7822-3.2909-0.07-0.58233-0.0279-1.1807-0.0279-1.7704-2e-3 -2.8426-1e-3 -5.6839-1e-3 -8.751"/>
  <path id="Fill-26" d="m210.98 175.61c0 0.83096-0.0273 1.6638 6e-3 2.4942 0.0811 2.0411-0.0725 3.9769-2.6222 4.6413-2.9658 0.77292-5.8306-0.27383-6.9352-2.7289-1.0289-2.286-2.8834-4.9744-2.3244-6.9682 0.62148-2.2153 4.3051-0.84801 6.5185-1.5982 0.0904-0.0309 0.19143-0.0328 0.28714-0.048 5.0702-0.82403 5.0702-0.82403 5.0702 4.2078"/>
 </g>
 <g id="g899" fill="#fdfdfd" fill-rule="evenodd">
  <path id="Fill-28" d="m606.04 211.92c0-8.1819 0.0593-16.365-0.0371-24.546-0.0283-2.4277 0.78063-3.3969 3.2639-3.3739 9.816 0.0881 19.634 0.0881 29.451-6.7e-4 2.4725-0.0224 3.3192 0.92649 3.2835 3.3617-0.11787 7.9867 0.69777 7.0074-7.0216 7.0351-5.4536 0.019-10.908 0.0644-16.361-0.0319-1.7088-0.0305-2.3109 0.54085-2.2011 2.221 0.21485 3.2695-1.2891 7.4032 0.55633 9.5855 1.7828 2.1078 5.9581 0.52729 9.0765 0.65675 3.1676 0.13284 6.346 0.0603 9.5183 0.0203 1.867-0.0244 2.711 0.81263 2.6941 2.7016-0.0687 7.5753 0.78736 7.0466-6.4369 7.0121-4.3631-0.0217-8.729 0.084-13.088-0.0447-1.8771-0.0556-2.4079 0.62082-2.3338 2.4054 0.11517 2.789 0.12325 5.5908-3e-3 8.3791-0.0835 1.8537 0.5853 2.3762 2.389 2.3505 6.6424-0.0956 13.288 0.0359 19.93-0.0759 2.4846-0.042 3.3165 0.92989 3.2808 3.3596-0.11989 7.9488 0.71663 7.0202-7.0256 7.0385-8.2306 0.019-16.461 5e-3 -24.691 3e-3 -4.2419-6.8e-4 -4.2439-4e-3 -4.2446-4.4075-1e-3 -7.883-6.8e-4 -15.766 0-23.649"/>
  <path id="Fill-30" d="m576.33 219.72c2.0634-7.098 4.1275-14.197 6.1882-21.295 1.1867-4.0897 2.4446-8.1604 3.5115-12.283 0.42971-1.6609 1.19-2.2547 2.8503-2.1254 1.8492 0.14287 3.719-0.0142 5.5769 0.0467 2.0581 0.067 3.0419 0.88294 2.2982 3.2149-5.4139 16.973-10.786 33.961-16.123 50.96-0.44102 1.4057-1.2086 1.7056-2.5457 1.732-6.0984 0.11917-6.0698 0.15167-7.9197-5.6802-4.8472-15.286-9.725-30.56-14.583-45.842-1.1947-3.7572-0.73502-4.3849 3.1496-4.3984 6.6399-0.0237 6.6259-0.019 8.5283 6.6261 2.7798 9.7056 5.5822 19.403 8.3747 29.104 0.23149-0.019 0.46231-0.0393 0.69379-0.0589"/>
  <path id="Fill-32" d="m491.05 211.73c0-8.073 0.068-16.147-0.0397-24.218-0.0337-2.5695 0.82395-3.559 3.4405-3.5082 7.8692 0.1551 6.9779-0.76869 6.9907 7.0558 0.0182 11.96 0.0505 23.92-0.0397 35.879-0.0155 2.0643 0.51698 2.745 2.6381 2.7009 6.535-0.13342 13.076 0.023 19.612-0.0853 2.4072-0.0393 3.3887 0.75989 3.3416 3.2705-0.14743 7.9328 0.82192 7.1106-6.9227 7.1208-8.4198 0.0108-16.841-0.0914-25.259 0.0549-2.8273 0.0488-3.8693-0.83033-3.8148-3.7541 0.15079-8.1692 0.0525-16.344 0.0525-24.516"/>
  <path id="Fill-34" d="m537.04 211.88c0-8.0791 0.0778-16.159-0.043-24.237-0.0416-2.7613 1.0355-3.6891 3.7299-3.641 8.1938 0.14775 7.2272-0.84248 7.2394 7.1919 0.0232 14.962 9e-3 29.922 5e-3 44.884-1e-3 3.7528-0.14666 3.8898-3.8936 3.904-7.5914 0.0291-7.0703 0.56256-7.0437-6.857 0.0259-7.0821 6e-3 -14.163 6e-3 -21.245"/>
 </g>
</svg>
