<svg width="314.25pt" height="331.14pt" version="1.1" viewBox="0 0 314.25 331.14" xmlns="http://www.w3.org/2000/svg">
 <g transform="matrix(.67706 0 0 .67706 -250.74 0)">
  <path d="m788.51 186.1a186.1 186.1 0 0 1-186.1 186.1 186.1 186.1 0 0 1-186.1-186.1 186.1 186.1 0 0 1 186.1-186.1 186.1 186.1 0 0 1 186.1 186.1z" fill="#23baeb" style="paint-order:stroke fill markers"/>
  <g transform="translate(302.18,-32.416)" fill="#fff">
   <path d="m334.45 106.47c3-1.54 6.03-3.79 9.6-3.4 3.18 0.22 6.24 2.3 7.29 5.37 1.44 3.97-0.49 8.72-4.21 10.68l-51.21 27.75c-3.94 2.06-0.32 8.76 3.58 6.59l60.63-32.55c3.94-2.12 9.54-0.89 11.74 3.14 2.42 4.16 0.42 9.91-3.81 12.02l-59.73 32.24c-2.66 1-3.08 4.65-0.97 6.42 1.45 1.61 3.72 0.9 5.31-0.06l41.67-22.44c4.05-2.32 9.94-0.99 12.11 3.29 2.22 4.23 0.11 9.81-4.11 11.86l-42.2 22.82c-2.45 1.09-3.11 4.81-0.83 6.43 1.76 1.49 4.05 0.52 5.8-0.44l28.58-15.46c3.66-2.46 9.01-3.02 12.37 0.28 4.22 3.82 2.69 11.33-2.26 13.78l-32.67 17.64c-4.1-6.8-12.69-9.88-20.24-7.55l-51.62 10.34c-13.28-12.45-18-33.03-11.02-49.91l23.29-51.91c1.65-4.39 6.91-7.09 11.37-5.33 4.48 1.64 6.45 7.31 4.63 11.57l-7.1 15.94z"/>
   <path d="m261.52 221.68 53.46-10.7c4-1.05 8.73 0.6 10.6 4.42 2.39 4.5-0.49 10.54-5.3 11.9l-17.67 3.85 58.46 28.68c3.26 1.38 5.85 4.46 5.99 8.09 0.39 4.2-3.03 8.13-7.18 8.57-3.1201 0.44337-6.99-1.59-10.19-3.09l-47.03-23.01c-2.85-1.88-6.42 1.52-5.45 4.51 0.35 1.49 1.86 2.14 3.07 2.82l59.74 29.26c3.46 1.51 5.93 5.15 5.6 8.98-0.15 3.67-3.16 6.81-6.73 7.42-3.2918 0.71742-7.53-1.58-10.95-3.18l-56.41-27.59c-2.72-1.62-5.94 1.44-5.33 4.27 0.23 1.52 1.61 2.35 2.86 2.98l42.99 21.11c4.77 2.2 6.64 9.08 3.13 13.16-2.63 3.22-7.53 3.88-11.14 2l-42.34-20.74c-1.8-1.07-4.38-1.09-5.68 0.77-1.61 2.02-0.29 5.02 1.96 5.89l28.73 14.1c2.57 1.3 5.53 2.4 7.11 4.98 2.17 3.21 1.92 7.98-0.99 10.67-2.84 2.78-7.43 3.04-10.85 1.19l-50.96-24.97c-9.63-4.94-17.83-12.96-22.17-22.96-5.7-12.61-5.22-27.81 1.34-40.01 6.22-11.99 18.08-20.78 31.33-23.37z"/>
  </g>
 </g>
 <path d="m74.074 317.68c-0.59984-1.0161-0.63414-1.6408-0.0572-2.6216l7.9469-13.007h-11.024s-6.6236 10.823-7.5293 12.327c-0.89688 1.5018-0.85812 2.437 0.0381 3.9803 0.90544 1.5413 7.4925 12.287 7.4925 12.287h11.024s-7.8042-12.804-7.8908-12.964m-22.621 12.964h10.026v-28.593h-10.026m-6.3229-0.54778c-3.1363 0-5.6752 2.5624-5.6752 5.7261 0 3.1616 2.5388 5.7321 5.6752 5.7321 3.1418 0 5.6914-2.5704 5.6914-5.7321 0-3.1637-2.5496-5.7261-5.6914-5.7261m-16.386 29.14h10.02v-28.593h-10.02m-28.744 28.593h10.002v-28.593h-10.002m22.657 4.5938c-0.5134-2.6201-2.8053-4.5938-5.5527-4.5938h-6.4418l6.4729 28.593h10.889zm270.72-4.591h3.0614v12.51h5.5646l7.3947-12.51h3.4182l-8.1488 13.701 9.5815 14.893h-3.4991l-8.7463-13.462h-5.5647v13.462h-3.0614v-28.593m-16.101-1.1974c1.1542 0 1.83-0.7548 1.83-1.9054 0-1.0722-0.67574-1.7081-1.83-1.7081-1.1136 0-1.7896 0.71312-1.7896 1.8257 0 1.153 0.71644 1.7878 1.7896 1.7878zm4.8914 18.826-4.8914-14.02-4.8901 14.02zm-4.8914-24.188c2.1464 0 3.7372 1.3908 3.7372 3.4566 0 1.5868-0.83397 2.7385-2.1058 3.2557l10.413 28.434h-3.2578l-3.0233-8.179h-11.527l-2.9422 8.179h-3.298l10.295-28.434c-1.234-0.47665-1.9882-1.588-1.9882-3.0977 0-2.1051 1.5908-3.6147 3.6968-3.6147zm-31.952 9.2589v11.877h5.2884c4.7702 0 7.2731-2.1468 7.2731-6.1168 0-3.8121-2.0667-5.7603-6.7162-5.7603zm5.9238-2.6994c6.7202 0 9.7398 3.1772 9.7398 8.2207 0 3.5742-1.4707 6.3558-4.8095 7.9427l6.4392 12.43h-3.3397l-6.0798-11.714c-0.9172 0.19856-1.8691 0.27703-3.0614 0.27703h-4.8127v11.437h-3.0591v-28.593zm-30.925 2.6994v11.915h5.4063c4.7702 0 7.0772-2.1444 7.0772-6.036 0-3.893-2.0263-5.8792-6.7178-5.8792zm-3.0588-2.6994h9.0223c6.4823 0 9.5815 3.2166 9.5815 8.499 0 5.2811-3.1817 8.7367-10.059 8.7367h-5.4861v11.358h-3.0588zm-21.662 22.801c2.5845 2.3028 5.2863 3.6522 8.3073 3.6522 3.5763 0 6.2809-1.8665 6.2809-5.2796 0-3.021-1.3909-4.3713-6.6377-5.9611-6.2407-1.9045-8.7075-3.8113-8.7075-8.0616 0-4.9266 3.9386-7.668 9.1438-7.668 3.6574 0 6.7603 1.3518 9.1436 4.092l-1.7868 1.8665c-2.0679-2.3432-4.8106-3.3358-7.3164-3.3358-3.3778 0-5.9622 1.5883-5.9622 4.8064 0 3.298 2.4641 4.1314 7.3542 5.8004 5.8419 1.9841 7.9503 3.9303 7.9503 8.1806 0 5.043-3.8155 8.1842-9.5411 8.1842-4.0562 0-7.5921-1.7476-9.978-4.2918l1.749-1.9842m-27.669-22.801h2.8629l15.346 23.075v-23.075h3.0614v28.593h-2.7852l-15.463-23.111v23.111h-3.022v-28.593m-15.265 13.983h9.341v10.603c-3.2198 3.7746-7.5126 4.4903-10.494 4.4903-9.341 0-12.96-6.4366-12.96-14.937 0-8.6571 4.5724-14.657 12.919-14.657 7.7531 0 10.297 4.1718 10.417 8.5027h-3.1412c-0.0794-3.0601-2.1477-5.6805-7.3934-5.6805-6.4014 0-9.5427 5.2404-9.5427 11.794 0 7.787 3.4198 12.275 9.7412 12.275 3.1793 0 5.7634-1.1128 7.7505-3.1764v-6.5947h-6.6377v-2.6201m-35.581-13.983h17.889v2.7398h-14.827v9.8504h13.517v2.7398h-13.517v10.566h15.146v2.697h-18.208v-28.593m-15.865 2.7398h-9.0233v-2.7398h21.109v2.7398h-8.9852v25.853h-3.1008v-25.853" stroke-width="2.3828"/>
</svg>
