<?xml version="1.0" encoding="UTF-8"?>
<svg id="svg82" width="595.9pt" height="412.66pt" version="1.1" viewBox="0 0 595.9 412.66" xmlns="http://www.w3.org/2000/svg" xmlns:cc="http://creativecommons.org/ns#" xmlns:dc="http://purl.org/dc/elements/1.1/" xmlns:rdf="http://www.w3.org/1999/02/22-rdf-syntax-ns#">
 <metadata id="metadata88">
  <rdf:RDF>
   <cc:Work rdf:about="">
    <dc:format>image/svg+xml</dc:format>
    <dc:type rdf:resource="http://purl.org/dc/dcmitype/StillImage"/>
    <dc:title/>
   </cc:Work>
  </rdf:RDF>
 </metadata>
 <g id="g1185" transform="translate(-91.034 -77.87)">
  <path id="path31" transform="scale(.75)" d="m316.64 103.83v280.46h404.01v-280.46zm55.586 55.4h292.83v169.66h-292.83z" stroke-width="1.3333"/>
  <g id="g1140" transform="translate(455.63 655.28)">
   <g id="g1073" transform="matrix(1.084 0 0 1.084 30.62 21.634)">
    <path id="path922" d="m-336.81-325.06q11.664 0 19.656 7.992 8.064 7.92 8.064 19.512t-7.92 19.584-19.512 7.992q-11.808 0-19.944-7.992t-8.136-19.584q0-11.52 8.064-19.512t19.728-7.992zm0 9.504q-7.56 0-12.744 5.256-5.112 5.184-5.112 12.744 0 7.632 5.184 12.888 5.256 5.184 12.888 5.184 7.56 0 12.528-5.112 5.04-5.184 5.04-12.888t-5.112-12.888-12.672-5.184zm-12.384-13.32v-9.576h9.576v9.576zm15.12 0v-9.576h9.576v9.576z"/>
    <path id="path924" d="m-302.4-257.59v-53.208h8.784v4.68q4.752-5.616 13.104-5.616 8.64 0 14.256 5.832t5.616 14.904q0 9.144-5.616 15.12-5.616 5.904-14.328 5.904-3.672 0-6.552-1.08-2.808-1.08-5.688-3.6v17.064zm20.592-45.36q-4.968 0-8.28 3.456t-3.312 8.712q0 5.112 3.384 8.568t8.352 3.456q4.752 0 8.064-3.456t3.312-8.568-3.312-8.64-8.208-3.528z"/>
    <path id="path926" d="m-254.87-257.59v-53.208h8.784v4.68q4.752-5.616 13.104-5.616 8.64 0 14.256 5.832t5.616 14.904q0 9.144-5.616 15.12-5.616 5.904-14.328 5.904-3.672 0-6.552-1.08-2.808-1.08-5.688-3.6v17.064zm20.592-45.36q-4.968 0-8.28 3.456t-3.312 8.712q0 5.112 3.384 8.568t8.352 3.456q4.752 0 8.064-3.456t3.312-8.568-3.312-8.64-8.208-3.528z"/>
    <path id="path928" d="m-207.34-270.91v-39.888h8.856v3.816q2.664-2.592 5.184-3.672t6.048-1.08q7.992 0 11.664 4.608t3.672 14.832v21.384h-9.576v-19.512q0-6.984-1.728-9.72-1.656-2.808-5.904-2.808-4.68 0-6.696 3.096-1.944 3.024-1.944 10.152v18.792z"/>
    <path id="path930" d="m-123.78-310.8v39.888h-8.784v-5.184q-2.808 3.24-5.904 4.68-3.096 1.44-7.344 1.44-8.784 0-14.472-5.832-5.616-5.904-5.616-14.904 0-9.144 5.688-15.048 5.76-5.976 14.544-5.976 4.464 0 7.488 1.44 3.096 1.44 5.616 4.824v-5.328zm-20.808 7.848q-5.184 0-8.424 3.456t-3.24 9q0 5.256 3.24 8.496t8.568 3.24q5.256 0 8.424-3.312 3.168-3.312 3.168-8.64t-3.312-8.784q-3.312-3.456-8.424-3.456z"/>
   </g>
   <g id="g1082" transform="matrix(1.084 0 0 1.084 30.62 21.634)">
    <path id="path932" d="m-95.521-270.91v-53.208h9.864v22.968l16.488-22.968h11.88l-20.016 26.136 20.016 27.072h-11.88l-16.488-23.4v23.4z"/>
    <path id="path934" d="m-11.559-310.8v39.888h-8.784v-5.184q-2.808 3.24-5.904 4.68-3.096 1.44-7.344 1.44-8.784 0-14.472-5.832-5.616-5.904-5.616-14.904 0-9.144 5.688-15.048 5.76-5.976 14.544-5.976 4.464 0 7.488 1.44 3.096 1.44 5.616 4.824v-5.328zm-20.808 7.848q-5.184 0-8.424 3.456-3.24 3.456-3.24 9 0 5.256 3.24 8.496 3.24 3.24 8.568 3.24 5.256 0 8.424-3.312 3.168-3.312 3.168-8.64t-3.312-8.784q-3.312-3.456-8.424-3.456z"/>
    <path id="path936" d="m-4.4199-270.91v-39.888h8.856v3.816q2.664-2.592 5.184-3.672 2.52-1.08 6.048-1.08 7.992 0 11.664 4.608 3.672 4.608 3.672 14.832v21.384h-9.576v-19.512q0-6.984-1.728-9.72-1.656-2.808-5.904-2.808-4.68 0-6.696 3.096-1.944 3.024-1.944 10.152v18.792z"/>
    <path id="path938" d="m79.144-310.8v39.888h-8.784v-5.184q-2.808 3.24-5.904 4.68-3.096 1.44-7.344 1.44-8.784 0-14.472-5.832-5.616-5.904-5.616-14.904 0-9.144 5.688-15.048 5.76-5.976 14.544-5.976 4.464 0 7.488 1.44 3.096 1.44 5.616 4.824v-5.328zm-20.808 7.848q-5.184 0-8.424 3.456-3.24 3.456-3.24 9 0 5.256 3.24 8.496 3.24 3.24 8.568 3.24 5.256 0 8.424-3.312 3.168-3.312 3.168-8.64t-3.312-8.784q-3.312-3.456-8.424-3.456z"/>
    <path id="path940" d="m86.283-270.91v-53.208h9.576v53.208z"/>
    <path id="path942" d="m143.11-286.61h-30.888q0.86401 3.6 3.744 5.76 2.952 2.088 7.272 2.088 3.024 0 4.968-0.864t3.816-3.096h10.44q-1.8 5.616-7.128 9.216-5.328 3.528-11.88 3.528-9.072 0-15.336-5.976-6.264-5.976-6.264-14.76t6.12-14.904q6.12-6.12 14.904-6.12 8.928 0 14.76 6.048 5.832 6.048 5.832 15.408 0 1.944-0.35999 3.672zm-31.176-8.424h22.104q-1.872-7.92-10.944-7.92-8.856 0-11.16 7.92z"/>
    <path id="path944" d="m149.71-270.91v-39.888h8.856v3.816q2.664-2.592 5.184-3.672 2.52-1.08 6.048-1.08 7.992 0 11.664 4.608 3.672 4.608 3.672 14.832v21.384h-9.576v-19.512q0-6.984-1.728-9.72-1.656-2.808-5.904-2.808-4.68 0-6.696 3.096-1.944 3.024-1.944 10.152v18.792z"/>
   </g>
  </g>
  <g id="g1092" transform="matrix(1.1411 0 0 1.1411 -41.7 781.5)">
   <path id="path946" d="m233.22-288.84v-9.216h34.776v1.08q0 11.376-8.064 19.224-7.992 7.776-19.728 7.776-12.312 0-20.664-7.92-8.28-7.992-8.28-19.728 0-11.448 8.136-19.44t19.872-7.992q8.784 0 16.056 4.608 7.344 4.608 10.008 11.952h-11.664q-5.04-7.056-14.616-7.056-7.704 0-12.816 5.184-5.04 5.112-5.04 12.888 0 7.704 5.256 12.888 5.328 5.112 13.176 5.112 5.256 0 9.36-2.448t6.264-6.912z"/>
   <path id="path948" d="m292.9-311.74q8.928 0 15.048 6.12 6.192 6.048 6.192 14.832 0 8.568-6.192 14.688-6.192 6.12-14.976 6.12-8.784 0-15.048-6.048-6.192-6.12-6.192-14.832 0-8.64 6.192-14.76t14.976-6.12zm0 8.784q-4.752 0-8.136 3.528-3.384 3.528-3.384 8.568t3.384 8.568q3.384 3.528 8.136 3.528 4.824 0 8.208-3.528t3.384-8.568-3.384-8.568-8.208-3.528zm-12.312-12.6v-9.576h9.576v9.576zm15.12 0v-9.576h9.576v9.576z"/>
   <path id="path950" d="m321.02-270.91v-31.176h-4.68v-8.712h4.68v-13.32h9.576v13.32h5.76v8.712h-5.76v31.176z"/>
   <path id="path952" d="m380.76-286.61h-30.888q0.864 3.6 3.744 5.76 2.952 2.088 7.272 2.088 3.024 0 4.968-0.864 1.944-0.864 3.816-3.096h10.44q-1.8 5.616-7.128 9.216-5.328 3.528-11.88 3.528-9.072 0-15.336-5.976t-6.264-14.76 6.12-14.904 14.904-6.12q8.928 0 14.76 6.048 5.832 6.048 5.832 15.408 0 1.944-0.36001 3.672zm-31.176-8.424h22.104q-1.872-7.92-10.944-7.92-8.856 0-11.16 7.92z"/>
   <path id="path954" d="m387.36-270.91v-53.208h9.576v16.992q2.664-2.664 5.472-3.6 2.808-1.008 6.912-1.008 8.64 0 14.328 5.832 5.76 5.76 5.76 14.76 0 9.216-5.472 15.192t-13.968 5.976q-4.392 0-7.56-1.368-3.168-1.368-6.264-4.68v5.112zm20.592-32.328q-5.04 0-8.352 3.384-3.24 3.312-3.24 8.64 0 5.544 3.24 9 3.24 3.456 8.496 3.456 5.184 0 8.424-3.384t3.24-8.928q0-5.4-3.312-8.784t-8.496-3.384z"/>
   <path id="path956" d="m454.33-311.74q8.928 0 15.048 6.12 6.192 6.048 6.192 14.832 0 8.568-6.192 14.688t-14.976 6.12-15.048-6.048q-6.192-6.12-6.192-14.832 0-8.64 6.192-14.76t14.976-6.12zm0 8.784q-4.752 0-8.136 3.528t-3.384 8.568 3.384 8.568 8.136 3.528q4.824 0 8.208-3.528t3.384-8.568-3.384-8.568-8.208-3.528z"/>
   <path id="path958" d="m481.02-270.91v-39.888h8.784v3.888q1.872-2.736 3.744-3.744 1.872-1.08 4.824-1.08h0.792v9.216q-8.568 0-8.568 9.432v22.176z"/>
   <path id="path960" d="m534.48-310.8h9.144v32.328q0 23.472-20.664 23.472-7.416 0-12.744-3.312t-7.776-9.36h10.872q3.744 4.248 9.864 4.248 5.544 0 8.424-3.168t2.88-9.576q-2.808 3.312-5.832 4.752t-7.272 1.44q-8.496 0-14.04-5.976t-5.544-15.192q0-8.856 5.544-14.688 5.616-5.904 14.112-5.904 8.568 0 13.032 5.976zm-11.952 7.848q-5.04 0-8.064 3.312t-3.024 8.928q0 5.472 3.024 8.712t8.208 3.24q5.256 0 8.28-3.24 3.096-3.312 3.096-9 0-5.256-3.24-8.568-3.168-3.384-8.28-3.384z"/>
  </g>
 </g>
</svg>
