<?xml version="1.0" encoding="UTF-8"?>
<!-- Created with Inkscape (http://www.inkscape.org/) -->
<svg id="svg22088" width="800" height="167.05" version="1.1" viewBox="0 0 211.67 44.199" xmlns="http://www.w3.org/2000/svg" xmlns:cc="http://creativecommons.org/ns#" xmlns:dc="http://purl.org/dc/elements/1.1/" xmlns:rdf="http://www.w3.org/1999/02/22-rdf-syntax-ns#">
 <metadata id="metadata22085">
  <rdf:RDF>
   <cc:Work rdf:about="">
    <dc:format>image/svg+xml</dc:format>
    <dc:type rdf:resource="http://purl.org/dc/dcmitype/StillImage"/>
    <dc:title/>
   </cc:Work>
  </rdf:RDF>
 </metadata>
 <g id="layer1" transform="translate(21.826 -106.08)">
  <g id="g21078" transform="matrix(7.1798 0 0 -7.1798 22.378 128.18)">
   <path id="path21080" d="m0 0c0-1.7-1.378-3.078-3.078-3.078s-3.079 1.378-3.079 3.078 1.379 3.078 3.079 3.078 3.078-1.378 3.078-3.078" fill="#3c3c3c"/>
  </g>
  <g id="g918">
   <g id="g21082" transform="matrix(7.1798 0 0 -7.1798 -2.0502 128.18)">
    <path id="path21084" d="m0 0 0.887 0.887 0.889-0.888-0.888-0.887z" fill="#427f3c"/>
   </g>
   <g id="g21086" transform="matrix(7.1798 0 0 -7.1798 -8.3964 134.52)">
    <path id="path21088" d="m0 0 0.887 0.887 0.889-0.888-0.888-0.887z" fill="#60b346"/>
   </g>
   <g id="g21090" transform="matrix(7.1798 0 0 -7.1798 -8.4136 121.81)">
    <path id="path21092" d="m0 0 0.887 0.887 0.889-0.888-0.887-0.885z" fill="#88c540"/>
   </g>
  </g>
  <text id="text21096" x="27.88027" y="150.16765" fill="#ffffff" font-family="'Bebas Neue Cyrillic'" font-size="62.848px" stroke-width="7.1798">
   <tspan id="tspan21094" x="27.88027 51.5741 63.515285 90.540077 113.66827 134.97386 142.89276 165.26677" y="150.16765" fill="#ffffff" stroke-width="7.1798">pixel.tv</tspan>
  </text>
 </g>
</svg>
