<svg clip-rule="evenodd" fill-rule="evenodd" image-rendering="optimizeQuality" shape-rendering="geometricPrecision" text-rendering="geometricPrecision" viewBox="0 0 500 585" xmlns="http://www.w3.org/2000/svg">
 <path d="m1.6098 1.6033h496.92v318.17c0 154.35-119 263.4-248.46 263.4s-248.46-109.04-248.46-263.4v-318.17z" fill="#ccc" stroke="#000" stroke-width="2.8346"/>
 <path d="m323.01 62.349c2.8347e-4 27.15-22.143 49.294-49.293 49.294s-49.293-22.144-49.293-49.294 22.143-49.293 49.293-49.293 49.293 22.143 49.293 49.293h-2.8347e-4z" fill="#ccc" stroke="#bf9f4f" stroke-linecap="round" stroke-linejoin="round" stroke-width="5.6693"/>
 <g stroke="#000">
  <path d="m264.51 504.25-33.139 16.597c-1.6316-5.7059-1.247-13.293 0.77443-17.842 1.9619-4.4141 7.4047-7.6813 9.2115-12.199 2.5084-6.2705 0.66189-14.693 5.2282-19.668 7.1524-7.7916 17.157-9.2815 29.894-20.37 12.737-11.089 29.451-29.537 29.358-35.147-0.28261-17.042-30.766-28.156-36.348-73.94l72.944-5.9749c0.33704 25.34-7.325 36.879-9.7095 48.796-0.61568 3.0776 1.425 6.2887 1.4939 9.4601 0.097228 4.4634-2.3644 9.4034-0.99581 13.444 2.1169 6.2496 9.7121 10.733 9.7092 16.68-0.0022677 5.3444-3.0776 9.7639-9.2115 14.689-4.4067 3.5379-11.968 5.1384-16.929 8.4645-9.6446 6.4661-18.311 14.426-26.14 23.402-5.7801 6.626-7.6499 17.266-13.444 22.157-3.6862 3.1119-8.6023-3.7253-11.701-1.2447-1.5307 1.2257-5.6721 6.3794-0.99553 12.697z" fill="#f00000" stroke-width="1.4173"/>
  <path d="m230.1 511.6c5.6616 8.0286 25.773-1.0403 32.812-12.829 4.892 4.7798 5.5627 14.658 3.9835 16.68-8.2389 10.543-24.854 21.764-34.356 23.153-1.8731 0.27383-1.201-3.3673-1.5605-8.8101-0.35943-5.4425-3.9413-10.364-0.87902-18.194z" fill="#bf9f4f" stroke-width="1.4173"/>
  <path d="m112.15 307.57 38.838 39.086c-23.32 11.77-41.123 14.757-62.488 14.689-13.665-0.043654-36.694-6.9993-39.75-5.2285-4.0187 2.3284 0.41698 15.61 1.1614 22.738 0.41754 3.992 3.615 8.0342 3.4858 11.618-0.1355 3.7517 5.5998 4.6043 8.7962 7.8004 2.4469 2.4469 4.9467 3.1995 5.1454 6.4729 0.13323 2.2036-5.9837 6.6555-1.9919 10.29 3.2272 2.939 6.2005 1.3 9.2942 0.82998l-0.16583 26.224c-11.917 4.1477-19.753-2.4871-21.244-7.4687-1.5982-5.3371-6.4432-8.227-11.452-12.116-3.299-2.5614-7.4869-7.9571-7.4687-12.116 0.12104-27.579-17.608-56.814-17.427-63.401 0.15222-5.6701 8.6306-19.007 13.942-19.087 3.2718-0.047339 5.1307 3.0642 8.962 2.9877 4.4668-0.089575 5.4876-2.3238 9.9587-2.3238 4.3254 0 10.441 1.2144 14.771 1.1619 6.476-0.076252 39.596-12.793 47.634-22.157z" fill="#f00000" stroke-width="1.4173"/>
  <path d="m67.235 443.55c7.2615-6.9293 6.9874-16.266 3.4189-27.054 6.9214-3.1201 11.58-1.7184 13.079 0.69704 5.334 8.5989 5.2602 17.925 2.7221 30.605-0.46687 2.3301-4.388-0.41556-7.1039-1.3609-2.9704-1.0341-5.4026-1.6016-12.116-2.8876z" fill="#bf9f4f" stroke-width="1.4173"/>
  <path d="m309.82 118.86 27.634-0.99581c19.999 60.615 63.152 20.256 76.43-17.925 23.718 75.641-45.917 138.51-103.82 124.98l-0.24888-106.06z" fill="#f00000" stroke-width="1.4173"/>
  <path d="m100.94 173.63c-7.344 13.942-29.019 22.749-28.879 27.136 0.39175 12.318 3.5756 11.579 3.7344 16.929 0.24916 8.5136-2.6138 7.3446-4.8546 8.714-3.9314 2.4024-5.6194 6.5993-7.5932 4.2318-2.1691-2.6014 4.7302-7.0951-6.7218-31.244-9.4606 5.9749-14.141 26.31-16.058 28.381-1.8099 1.9556-6.7255 0.37729-7.9668-0.74721-2.0211-1.8306-1.679-4.9901-3.6096-7.4687-1.7252-2.2141-7.5232-4.8319-7.469-8.3398 0.071717-4.61 3.4858-10.746 4.9791-16.431 7.397-28.148 5.137-69.834 26.888-93.608 26.763-29.252 115.61 30.597 133.11 72.032 24.435 57.852 8.6111 48.281 92.944 48.214 55.278-0.043937 72.944-7.5929 115.02 17.427 65.227-13.568 79.383 35.759 79.666 64.729 0.35943 36.844-8.5479 71.45-2.8216 94.354-12.743-15.483-8.0728-44.13-10.622-69.21 0.16583 18.382 0.082772 35.31 1.1619 56.762-16.016-27.842-4.9377-84.853-15.768-106.55 10.83 21.618 0 67.177 13.61 129.46-13.776-24.108-16.971-37.551-17.925-58.754-0.62249 18.298 1.8672 31.742 4.7305 57.011-36.97-60.372 16.804-147.88-43.817-152.86 12.821 22.157 17.829 32.327 18.174 51.534 0.48756 27.174-9.4184 37.562-13.692 55.268-1.7425 7.2198 1.6186 8.3398 1.4939 15.186-0.13068 7.1822-2.4979 4.6191-2.7386 12.697-0.21515 7.2198 13.559 19.013 13.61 24.232 0.053575 5.5244-1.3691 5.311-3.9835 12.282-2.6138 6.9707-1.9086 3.8171-5.6429 15.767-3.7344 11.95-5.1321 20.995-6.8048 31.866-0.99553 6.4729 2.4066 4.1077 0.66387 11.452-1.7425 7.3443-7.7944 16.815-10.29 16.929-3.6629 0.16696-4.9215-3.0325-7.4687-2.9874-4.2384 0.076819-7.9126 6.6728-7.867 10.755 0.033449 2.9897 0.69704 4.5558 1.5934 11.253l-34.655-0.19956c-0.82176-9.5598 7.8168-13.717 9.8087-18.074 1.9919-4.3566-0.12472-3.236 4.7302-8.7134 4.8546-5.4771 11.701-2.8627 15.933-12.448 5.8473-13.243 9.0156-24.528 10.207-39.336 0.87137-10.83-2.6144-12.074-3.9835-18.921-1.5613-7.806 0.89206-5.0618-3.236-12.448-9.8076-17.546-14.44-16.431-23.153-31.368-8.7137-14.938-5.3958-19.229-11.452-26.888-3.244-4.1017-10.496-9.004-22.655-8.9623-31.009 0.10545-44.563 19.792-116.76 21.162-58.468 1.1242-111.84-19.176-112.78-75.932-0.49124-29.55 12.661-39.098 12.697-48.796 0.09978-26.315-0.62249-49.792-3.4858-65.476z" fill="#f00000" stroke-width="1.4173"/>
  <path d="m95.218 283.17c0.34214 42.074 5.527 73.897 28.896 74.438 4.4776 0.10403 12.021-3.4832 14.324-7.3276l0.099496 7.5186c-3.1742 3.1595-7.4038 5.6469-16.381 5.6347-24.555-0.034016-34.002-34.736-34.033-80.015l7.0954-0.24888z" fill="#bf9f4f" stroke-width="1.4173"/>
  <path d="m172.14 329.73c0.87137 11.577 11.238 14.246 10.954 30.124-0.24916 13.942-4.3807 15.43-4.2324 24.647 0.12869 8.2264 2.0109 7.8432 1.4939 14.439-0.49805 6.3485-3.9835 4.3571-3.4858 11.95 0.43228 6.588 2.6144 6.8462 2.2408 15.934-0.37361 9.0867-2.6728 11.285-5.4771 21.659-3.4923 12.92-1.8907 25.652 1.245 27.634 3.0379 1.9202 2.4894 9.8084 2.4894 17.427 0 7.4687-0.6721 11.328-4.2324 11.328-4.8543 0-11.701-2.7383-11.701 3.9832 0 4.3155 0 5.6016 1.4936 12.074l-32.862 1.4939c-1.2447-7.2198-1.2237-12.966 0.62249-15.684 7.611-11.208 22.174-13.87 22.78-32.365 0.55417-16.803 0.24916-24.149-1.2447-28.63-3.8772-11.631-8.8481-11.944-8.7137-23.153 0.12274-10.257 2.5744-14.317 2.7386-21.659 0.49805-22.31-12.448-47.426-19.17-79.169m45.061 7.9668z" fill="#f00000" stroke-width="1.4173"/>
  <path d="m346.09 513.21c6.5478 6.3232 15.958 8.564 33.36 3.983 2.863 6.1741 0.33165 9.896-3.3112 11.602-10.228 4.788-20.474 7.0197-35.551 4.8793-2.518-0.36 0.14939-2.0911 2.0917-7.6677 1.9417-5.5766-0.34894-6.0746 3.4104-12.796z" fill="#bf9f4f" stroke-width="1.4173"/>
  <path d="m249.07 309.56 19.544 0.12416c0.7835 21.55 1.6024 37.394-10.456 49.667-8.2327 1.662-11.986 1.8709-22.655 3.1122 18.921-22.534 14.6-30.684 13.568-52.903z" fill="#bf9f4f" stroke-width="1.4173"/>
  <path d="m60.862 235.79c52.561 0.73276 102.29-8.0357 144.4-30.041v7.1371c-44.892 23.986-92.872 31.194-144.56 29.875l0.16611-6.9707z" fill="#bf9f4f" stroke-width="1.4173"/>
  <path d="m97.831 271.47c35.29-19.92 81.34-18.496 110.41-48.173l0.37332 11.203c-29.558 28.511-73.667 24.904-111.28 47.8l0.49776-10.83z" fill="#bf9f4f" stroke-width="1.4173"/>
  <path d="m203.51 206.74c8.8413 23.474 71.638 13.231 119.25 13.319 14.604 44.784-1.9293 61.223 13.692 102.2-42.748-17.231-94.058 3.6541-149.87 6.4729 16.431-35.058 18.949-75.236 16.929-121.99z" fill="#bf9f4f" stroke-width="1.4173"/>
  <path d="m251.31 213.96 53.028 15.435c-3.4231 18.921-45.485 40.488-65.227 50.788-4.9467 2.5804-8.0484 9.5698-5.7263 13.443 8.9504 14.929 1.1826 43.07-6.4729 61.741l-21.908 0.99581c0.18652-18.796-0.54765-43.432-6.2238-68.712-1.201-5.3484-2.3182-12.44 2.4891-19.17 13.378-18.728 25.705-35.601 50.04-54.522z" fill="#0000bf" stroke-width="1.4173"/>
  <path d="m199.9 350.27c16.04 1.2025 26.157-0.72992 34.73-3.4855 0.83991 8.2157-1.9621 18.361-1.9919 19.418-0.071433 2.5512 3.2366 1.6498 3.1119 5.353-0.12444 3.7032-4.2267 7.9067-3.6099 9.4601 0.90255 2.272 4.6432 1.3717 5.1038 5.9752 0.28828 2.8803-2.0149 7.7009-12.323 8.0912-12.476 0.4663-21.97 9.4601-35.974 9.2115-14.004-0.24916-20.399-4.5402-20.415-8.0915-0.015307-3.0064 4.9445-5.6157 8.2159-5.6016 1.6844 0.0076536 5.2002 1.0083 8.7134 0.87137 3.3931-0.1321 16.29-7.5671 17.053-21.037 0.33846-5.9666-1.2132-12.385-2.6138-20.165z" fill="#f00000" stroke-width="1.4173"/>
  <path d="m55.26 94.962c-6.2816-12.034-6.0063-23.473-5.1038-34.854 3.7735 13.054 17.405 18.862 15.933 32.613l-10.83 2.2411z" fill="#f00000" stroke-width="1.4173"/>
  <path d="m27.501 185.83c11.799-0.011622 22.287 2.6742 30.497 8.589l-4.2321 5.9749c-10.554-4.807-18.717-5.7983-26.887-5.6016-4.2293 0.10205-1.633-8.96 0.6222-8.9623z" fill="#bf9f4f" stroke-width="1.4173"/>
  <path d="m47.418 141.27c9.3447-8.7834 14.992-4.1213 20.788 0-6.7864 4.9986-13.671 6.5738-20.788 0z" fill="#f00000" stroke-width="1.4173"/>
  <path d="m44.057 115.63c11.311-0.91871 30.995 3.1428 38.838 14.813 6.4729-15.715 5.197-21.13 5.1038-29.377l4.8543-6.3482c5.2452 33.655-18.14 82.75-30.124 103.44l-6.971-2.863c7.7488-13.941 19.108-39.055 24.273-57.758-11.763-14.969-28.184-14.047-39.335-13.319-4.2199 0.27496-0.32088-8.2902 3.3605-8.589z" fill="#bf9f4f" stroke-width="1.4173"/>
  <path d="m22.522 99.817c23.595 4.9496 16.529-20.3 61.866-9.4604l0.12444 12.199c-37.717-13.773-26.016 28.871-63.11 10.954 15.6 0.70271 16.687-2.1124 27.012-8.589-13.558 7.6294-17.451 4.602-25.892-5.1035z" fill="#f00000" stroke-width="1.4173"/>
  <path d="m180.61 161.43c3.1031 0.017291 9.078 5.5565 9.2112 19.917 0.075685 8.1232-4.2704 9.9488-1.12 20.788-11.053-12.665 0.36879-20.042-8.3401-27.385l0.24888-13.319z" fill="#f00000" stroke-width="1.4173"/>
  <path d="m168.91 146.25c7.7088 0.14173 13.345 6.6764 13.443 21.037 0.075685 10.862-9.3736 12.563-3.9832 35.85-21.634-19.76-2.3692-28.88-9.4601-45.808v-11.079z" fill="#f00000" stroke-width="1.4173"/>
  <path d="m155.84 130.81c12.19-0.10715 16.955 12.148 17.178 26.638 0.26391 16.955-11.117 7.3346-7.9668 44.065-20.015-28.847 7.7134-39.959-8.9626-59.003l-0.24888-11.701z" fill="#f00000" stroke-width="1.4173"/>
  <path d="m141.52 117c12.19-0.10715 20.06 11.775 19.917 25.145-0.24888 22.683-12.237 26.878-11.079 49.542-16.406-30.092 11.697-44.316-8.589-62.986l-0.24916-11.701z" fill="#f00000" stroke-width="1.4173"/>
  <path d="m126.59 107.16c12.19-0.10687 19.97 3.9416 20.041 20.041 0.13975 31.546-9.1247 24.264-7.9665 46.928-18.148-27.228 9.3317-41.577-11.95-54.77l-0.12416-12.199z" fill="#f00000" stroke-width="1.4173"/>
  <path d="m107.42 97.203c12.191-0.10715 25.582 2.6969 25.518 16.68-0.11991 26.442-11.739 26.878-9.0867 50.04-20.14-31.834 13.19-48.299-16.058-59.998l-0.37389-6.7218z" fill="#f00000" stroke-width="1.4173"/>
  <path d="m90.736 90.605c7.0863 0.14173 24.846 0.083906 24.646 13.07-0.25625 16.483-8.5022 18.413-6.3482 40.953-14.663-21.129 7.4642-41.328-17.925-47.302l-0.37332-6.7215z" fill="#f00000" stroke-width="1.4173"/>
  <path d="m77.666 103.18c1.6398-15.093 2.1577-29.315 8.3401-43.568 0.99439 16.519 15.587 28.104 1.3694 46.928m-9.7095-3.3605v0z" fill="#f00000" stroke-linecap="round" stroke-width="1.4173"/>
  <path d="m30.406 208.49c-0.12416-1.8051 0.50513-2.056 1.6597-2.075 1.2654-0.020693 0.4405 1.4562 2.6558 1.4939 2.4273 0.041386 0.97484-7.3236 3.4852-7.3857 1.5982-0.039685 1.5466 0.71462 1.5766 4.2321 0.020693 2.5934-2.3329 6.639-5.0618 6.639-2.863 0-4.1746-0.86372-4.3155-2.9044z" stroke-width="1.4173"/>
  <path d="m412.8 139.36c-8.9442 10.103-17.884 13.54-29.045 17.51" fill="none" stroke-linecap="round" stroke-width="1.4173"/>
  <path d="m415.46 118.03c-9.7744 15.445-19.377 29.28-41.078 34.356" fill="none" stroke-linecap="round" stroke-width="1.4173"/>
  <path d="m366.66 153.63c-22.388-0.81978-31.244-12.046-35.103-22.157" fill="none" stroke-linecap="round" stroke-width="1.4173"/>
  <path d="m360.27 158.61c-13.88-0.94847-31.973-1.1778-39.999-21.078" fill="none" stroke-linecap="round" stroke-width="1.4173"/>
  <path d="m384.84 187.49c-19.484 15.943-49.169 24.301-67.218 24.149" fill="none" stroke-linecap="round" stroke-width="1.4173"/>
  <path d="m434.05 99.941s7.6847 89.457 8.2157 95.35c0.22025 2.4463-1.4939 2.4897-4.2324 5.726-2.7386 3.2366-2.95 5.0392-6.3235 5.029-8.5941-0.025228-3.3486-5.0638-7.3193-5.029-2.1858 0.019276-1.8272 3.9339-3.784 3.9832-1.2781 0.033165-3.5087-0.075968-3.4852 2.7386 0.074551 9.1494-0.88413 13.228-7.4191 13.394-2.4078 0.060945-3.2153-1.8811-4.4813-1.9916-1.1183-0.097795-3.145-0.93033-2.9877-2.3902 1.4879-13.795 12.15-118.06 12.15-118.06l19.667 1.245z" fill="#f00000" stroke-width="1.4173"/>
  <path d="m403.92 84.356c9.0867 0.42321 26.972 2.0307 29.078 2.7884 2.6742 0.96208 11.6 10.6 12.149 11.452 0.76706 1.1897 1.1032 4.4325-0.48898 4.4368-0.9428 0.0025512-1.1293-0.64035-2.2995-1.6486 2.3153 2.029 2.4914 10.997 0.14939 11.048-1.1985 0.026646-1.2696-0.85238-3.585-4.8232 2.3403 4.0079 2.0475 4.4821 1.8422 8.8126-0.19899 4.2078-0.32372 8.365-3.1867 8.365-2.1509 0-2.5849-4.2375-3.0869-9.2611-0.31436-3.1465-4.3815-5.1534-8.4645-7.17-4.0827-2.0166-7.5467-3.9226-8.9626-2.3899-2.344 2.5379 1.6186 7.2697 1.5936 11.751-0.028913 5.2044-0.74976 8.6284-3.585 8.564-4.0337-0.088158-2.7235-5.6429-4.9796-10.855-2.1657-5.004-0.62192-8.9623-6.5225-7.17l0.34866-23.9z" fill="#ffcfaf" stroke-width="1.4173"/>
  <path d="m315.05 185.08-91.118-0.49776 20.414-108.3 94.355 20.415c9.9584 1.825 18.052 6.2564 20.913 6.2238 2.336-0.025228 6.016-2.8448 12.697-6.0996 4.1828-2.0378 11.154-3.1657 19.17-8.0909 7.0928-4.3583 16.96-7.8894 16.805-4.9791-3.5011 6.0775-4.7444 15.806-1.8672 24.646-8.1689 6.6611-27.258 16.08-38.802 22.051-8.132 4.2058-40.349 0.83594-44.244 5.4414-1.6676 1.9721-2.8998 28.174-8.322 49.187z" fill="#0000bf" stroke-width="1.4173"/>
  <path d="m239.12 188.82 79.169 0.39855c4.9289 22.73 3.8089 35.426 0.19899 48.497-0.22422 2.514-4.5383 4.6888-8.564 5.0783-1.3827 0.13408-1.1455 4.83-6.971 5.2781-4.7228 0.3634-5.4522-4.4813-10.556-4.4813s-5.2282 5.0539-9.9584 4.6806c-4.7168-0.37247-3.4004-4.0357-8.5643-5.5766-4.7548-1.419-7.3939 4.7551-12.248 3.585-5.0564-1.2189-3.4855-9.4856-7.9665-10.855-4.4813-1.3694-7.3692 5.4026-11.552 4.3818-4.3951-1.0726-1.1951-5.8008-5.6761-7.17-4.4813-1.3694-6.1991 4.2571-9.5601 2.3899s-0.42832-5.7713-3.1867-7.9668c-1.2198-0.97058-6.0276 0.51817-4.282-0.89603 8.9578-7.2578 21.803-15.201 19.718-37.344z" fill="#0000bf" stroke-width="1.4173"/>
  <path d="m295.38 181.68c59.361-15.186 101.24-25.905 165.64-31.701-59.259 24.606-98.746 34.481-162.65 48.796l-2.9877-17.095z" fill="#ccc" stroke-width="1.4173"/>
  <path d="m253.85 181.55c23.698 0.62589 18.996-5.1367 26.688-5.1786 5.7175-0.030898 8.625 1.7028 11.75 5.0788l3.0869 22.705c1.9454 8.3789-4.0476 9.57-9.4601-0.79682 5.4456 10.4-1.73 11.473-7.0705 1.5936 5.4737 9.7708-3.3174 11.173-6.8715 1.8921 4.1267 9.2472-2.018 10.692-7.2692 0.89603-2.6385-4.9218-6.2019-5.2101-10.855-6.6719v-19.518z" fill="#ffcfaf" stroke-width="1.4173"/>
  <path d="m284.09 171.06c4.6519-3.9033 11.321-4.7381 18.257-3.3191-3.9818 19.058 0.95216 33.658 7.4687 47.468-6.1869 2.9701-11.858 4.0195-18.589 2.8213 2.1336-15.675 0.45269-30.852-7.1368-46.97z" fill="#bf9f4f" stroke-width="1.4173"/>
  <path d="m53.791 203.86h6.0749c4.6823 13.449-5.1304 23.891 0.49776 32.365l-4.6806 3.784c-8.1782-9.4309 3.564-21.473-1.8921-36.149z" fill="#bf9f4f" stroke-width="1.4173"/>
  <path d="m63.75 239.06 2.8347e-4 0.0011339c0 2.7697-2.2589 5.029-5.0287 5.029s-5.029-2.2592-5.029-5.029v-0.07852 0.075968c0-2.7697 2.2592-5.0287 5.029-5.0287 2.7697 0 5.0287 2.2589 5.0287 5.0287v0.078803l-2.8347e-4 -0.077386z" fill="#bf9f4f" stroke-linecap="round" stroke-linejoin="round" stroke-width="1.4173"/>
  <path d="m61.692 197.78c48.206 13.543 112.23 12.042 139.25 4.3152 4.3608-1.247 6.91 7.1872 3.6516 7.9668-26.735 6.3938-91.199 11.594-143.73-5.9752l0.82998-6.3068z" fill="#bf9f4f" stroke-width="1.4173"/>
  <path d="m64.222 200.02c2.8347e-4 3.7029-3.0192 6.7226-6.7215 6.7226s-6.7215-3.0198-6.7215-6.7221c0-3.702 3.0192-6.7218 6.7215-6.7218s6.7218 3.0198 6.7218 6.7218l-2.8347e-4 -5.6693e-4z" fill="#bf9f4f" stroke-linecap="round" stroke-linejoin="round" stroke-width="1.4173"/>
  <path d="m239.45 122.6c-0.53433 15.686-3.8347 31.079-8.2987 45.31 10.069 2.7386 23.673 6.7723 34.074 12.348-5.0752 5.2132-10.065 11.292-8.1493 22.622-19.528-2.5622-53.045-12.528-55.468-16.547-3.2442-5.3838 2.9106-56.676 15.269-83.65l23.9 1.6594m-1.328 18.257v0z" fill="#0000bf" stroke-linecap="round" stroke-width="1.4173"/>
  <path d="m274.22 108.4c10.245-4.847 15.742-18.41 19.668-22.904 4.7237-5.4085 17.265-3.2902 10.19 5.8586 7.0435-9.1315 21.146-6.0435 12.232 3.3364 8.9459-9.3776 15.484-4.8487 19.054-3.2034 5.2013 2.3975 8.282 4.1825 12.763 7.3358-4.8957 0.9961-9.9298 0.33874-14.157 2.8551-20.383 12.132-33.41 25.974-59.716 15.435l-0.033449-8.7134z" fill="#f00000" stroke-width="1.4173"/>
  <path d="m281.77 37.619c21.474 0.14315 19.474 31.826 7.4696 46.795-3.7474 4.6729-2.4803 9.9488-9.523 11.438-3.0064 0.63581-6.3859 0.10403-10.892-3.1303 2.3907 1.722 6.1441 5.3864 10.084 4.4076-0.77386 1.237-3.9694 3.2508-7.897 3.3851-9.5871 0.065764-17.142-16.246-17.26-32.493-0.11197-15.402 17.365-30.374 28.019-30.402z" fill="#ffcfaf" stroke-width="1.4173"/>
  <path d="m272.16 81.468c1.561 2.2941 2.4239 2.9503 9.0482 1.0933-4.3656-0.10998-4.6837-1.4471-9.0482-1.0933z" stroke-linejoin="round" stroke-width=".99213"/>
  <path d="m271.68 120.6c-32.172 0.33874-31.344-8.7636-48.497-8.6638-16.703 0.097228-12.448 9.1369-16.082 21.062-4.3319-5.0536-8.2145-11.776-8.0167-21.261 0.17433-8.4399 6.6138-10.708 10.855-12.249 8.8166-3.2032 20.839-18.773 31.169-18.821 10.634-0.050457 9.6846 23.875 30.672 28.281l-0.099496 11.652z" fill="#f00000" stroke-width="1.4173"/>
  <path d="m284.92 33.47c12.68-4.9462 18.538 11.193 18.124 20.016-0.23301 4.9759-3.2085 13.333 6.4398 12.182-1.1784 4.0031-4.7849 4.1618-9.1281 3.1533 2.5021 1.5721 5.2002 1.7705 7.9662 1.4939-1.9879 3.6641-4.7548 4.9927-8.8628 5.2118 3.2074 0.51052 3.0742 0.6891 5.4768 0.79625-1.7147 5.942-13.795 8.3254-14.858 6.0951-1.7583-3.6893 6.6611-12.926 5.7963-19.7-2.1977-5.4936-0.97115-20.373-8.4056-22.936-3.594 1.0193-10.687 3.8265-15.554 1.8547-6.1217 2.431-10.87 12.195-13.251 21.608-3.3642 13.251 1.0006 19.646-15.718 19.772-5.8601 0.04422-10.837-3.0971-11.966-13.863 7.524 4.57 8.7744 4.6585 15.104 2.6558-6.4123 2.069-11.155 0.35915-12.913-10.788 17.217 21.687 12.923-44.358 51.75-27.551z" fill="#bf9f4f" stroke-width="1.4173"/>
 </g>
 <path d="m265.67 60.672c3.7789-1.7252 7.2952-2.3961 9.9831-0.82262 0.8382 0.5845 0.35065 1.8315 0.52611 2.7468-3.1371 1.0346-5.0253-3.3282-10.509-1.9242z"/>
 <path d="m282.38 63.419c-1.6208 3.193-0.33307 4.1528 0.216 9.5349 0.36057 3.5391-0.79257 3.4605-3.0455 3.2366-2.4931-0.24803-4.1579-1.0125-4.9544-2.3071" fill="none" stroke="#000" stroke-linecap="round" stroke-width="1.4173"/>
 <path d="m264.34 111.81c-4.3804-0.81978-7.8426-2.8344-11.12-5.9749" fill="none" stroke="#000" stroke-linecap="round" stroke-width="1.4173"/>
 <path d="m263.18 116.62c-4.3804-0.81978-9.6678-1.8386-12.946-4.9791" fill="none" stroke="#000" stroke-linecap="round" stroke-width="1.4173"/>
 <path d="m295.71 112.8c-2.5543 2.0018-6.3482 3.1402-14.937 2.9874" fill="none" stroke="#000" stroke-linecap="round" stroke-width="1.4173"/>
 <path d="m292.06 105.83c-2.3888 2.8318-5.5191 4.6344-12.78 5.1452" fill="none" stroke="#000" stroke-linecap="round" stroke-width="1.4173"/>
 <path d="m281.94 116.21c-2.8347e-4 5.5304-4.5108 10.041-10.041 10.041-5.5304 0-10.042-4.5105-10.042-10.041 0-5.5304 4.5111-10.041 10.042-10.041 5.5304 0 10.041 4.5105 10.041 10.041h2.8347e-4z" fill="#bf9f4f" stroke="#000" stroke-linecap="round" stroke-linejoin="round" stroke-width="1.4173"/>
 <path d="m432.5 94.066c3.3117 2.0115 7.0481 4.494 9.8337 7.2947" fill="none" stroke="#000" stroke-linecap="round" stroke-width="1.4173"/>
 <path d="m428.45 98.92c4.1085 2.2354 9.3135 6.5852 10.531 8.788" fill="none" stroke="#000" stroke-linecap="round" stroke-width="1.4173"/>
 <path d="m129 514.6c7.7187 4.4742 15.735 7.2717 33.286 2.3151 4.1885 6.025-0.17433 13.562-3.5603 14.788-10.923 3.9558-21.114 2.9869-34.804 0.074551-2.8911-0.61739-0.2435-2.022 2.0415-6.622 1.4128-2.8446 1.095-5.0604 3.0373-10.556z" fill="#bf9f4f" stroke="#000" stroke-width="1.4173"/>
 <path d="m418.53 120.77-0.664 28.216" fill="none" stroke="#000" stroke-linecap="round" stroke-width="1.4173"/>
 <path d="m417.87 183.51-0.664 22.904" fill="none" stroke="#000" stroke-linecap="round" stroke-width="1.4173"/>
 <path d="m425 187.49v13.112" fill="none" stroke="#000" stroke-linecap="round" stroke-width="1.4173"/>
 <path d="m423.01 107.33-0.664 28.215" fill="none" stroke="#000" stroke-linecap="round" stroke-width="1.4173"/>
 <path d="m88.296 294.75c-2.8942-19.761 1.0162-28.754 10.282-28.879 4.6559-0.063213 6.3961 1.8663 6.3485 5.2279-0.15194 10.877-9.504 9.9272-16.631 23.651z" fill="#bf9f4f" stroke="#000" stroke-width="1.4173"/>
 <path d="m271.21 109.58c-4.3192 1.1007-5.419 2.759-5.3019 5.6333h5.3019v-5.6333z" stroke="#000" stroke-width=".216"/>
 <path d="m273.75 109.92c4.3192 1.1007 5.0876 2.4276 4.9706 5.3019h-4.9706v-5.3019z" stroke="#000" stroke-width=".216"/>
 <path d="m271.21 123.08c-4.3192-1.1007-5.419-2.4276-5.3019-5.3019h5.3019v5.3019z" stroke="#000" stroke-width=".216"/>
 <path d="m273.42 122.75c3.8775-1.101 4.6463-2.0968 4.9706-4.9706h-4.9706v4.9706z" stroke="#000" stroke-width=".216"/>
 <path d="m284.71 61.998c4.0144-1.2535 4.6874-0.98136 6.6694-0.82262 1.1693 0.58422 1.3448 1.8315 0.52611 2.7468-4.0212-0.18113-2.9279-1.8924-7.1955-1.9242z"/>
 <path d="m268.56 54.908c2.4299-0.99836 5.5225-1.6631 7.9529 0" fill="none" stroke="#000" stroke-width=".99213"/>
 <path d="m291.24 55.902c-1.9585-0.7628-2.12-0.95584-4.9706-0.99411" fill="none" stroke="#000" stroke-width=".99213"/>
 <path d="m61.782 137.09c2.5617 0 4.3078 2.0032 5.9647 3.4792-2.9823 2.1387-2.7402 4.1423-5.3019 4.1423s-3.9764-1.0094-3.9764-3.4795 0.75203-4.142 3.3137-4.142z" stroke="#000" stroke-width=".216"/>
</svg>
