<svg id="b" width="800" height="641.11" version="1.1" viewBox="0 0 211.67 169.63" xmlns="http://www.w3.org/2000/svg">
 <defs id="c">
  <clipPath id="a">
   <path id="d" d="m298.08 221.2h24.723v24.723h-24.723z"/>
  </clipPath>
 </defs>
 <g id="e" transform="translate(-197.09 221.95)">
  <path id="f" d="m408.76-70.725h-211.67v-131.82h211.67z" fill="#fbc707"/>
  <g id="g">
   <g id="h">
    <g id="i" transform="matrix(11.072 0 0 -11.072 307.55 -194.78)">
     <path id="j" d="m0 0c1.171 0.028 1.258-0.58 2.016-0.776l-0.639-0.887-1.008 0.508h-1.786l-0.408 0.413h2.47z" fill="#1b6e44"/>
    </g>
    <g id="k" transform="matrix(11.072 0 0 -11.072 359.36 -170.85)">
     <path id="l" d="m0 0-0.386-0.538c-0.19 0.044-0.417-3e-3 -0.56-0.161l-2.173 1.108 0.67 0.899z" fill="#1b6e44"/>
    </g>
    <g id="m" transform="matrix(11.072 0 0 -11.072 281.34 -180.34)">
     <path id="n" d="m0 0 2.627 0.01 3.424-1.736c-0.012-0.125 0.021-0.244 0.068-0.342h-7.339l-0.408 0.416h2.646l0.103 0.152h-1.779l-0.441 0.407h2.64l0.11 0.132h-1.754l-0.453 0.42h2.627l0.11 0.132h-1.754z" fill="#1b6e44"/>
    </g>
    <g id="o" transform="matrix(11.072 0 0 -11.072 370.71 -160.19)">
     <path id="p" d="m0 0c0.116-0.432-0.085-0.705-0.085-0.705l-1.1 0.571c0.064 0.144 0.01 0.319-0.082 0.436l0.399 0.551c0.341-0.193 0.87-0.364 0.868-0.853" fill="#1b6e44"/>
    </g>
    <g id="q" transform="matrix(11.072 0 0 -11.072 369.21 -150.65)">
     <path id="r" d="m0 0c-0.233-0.191-0.571-0.305-0.904-0.21-0.415 0.453-1.156 0.251-1.624 0.064-0.397-0.075-0.827-0.04-1.148 0.172l-5.893 1e-3 0.401 0.419h7.821l0.188 0.124z" fill="#1b6e44"/>
    </g>
    <g id="s" transform="matrix(11.072 0 0 -11.072 321.85 -144.83)">
     <path id="t" d="m0 0-4.738-9e-3c0.05 0.144 0.251 0.296 0.354 0.414l4.804 9e-3z" fill="#1b6e44"/>
    </g>
    <g id="u" transform="matrix(11.072 0 0 -11.072 316.49 -138.72)">
     <path id="v" d="m0 0h-3.767l0.4 0.414h3.741z" fill="#1b6e44"/>
    </g>
    <g id="w" transform="matrix(11.072 0 0 -11.072 310.69 -132.82)">
     <path id="x" d="m0 0-2.724-0.011 0.387 0.39h2.692z" fill="#1b6e44"/>
    </g>
    <g id="y" transform="matrix(11.072 0 0 -11.072 304.47 -126.71)">
     <path id="z" d="m0 0-1.656-1e-3 0.388 0.385h1.656z" fill="#1b6e44"/>
    </g>
   </g>
   <g id="aa">
    <g id="ab" transform="matrix(11.072 0 0 -11.072 221.62 -90.129)">
     <path id="ac" d="m0 0h1.046c0.372 0 0.721 0.086 1.042 0.364 0.296 0.254 0.493 0.621 0.561 0.973 0.075 0.383 0.017 0.751-0.213 1.017-0.236 0.278-0.535 0.328-0.923 0.328h-0.991zm0.947 0.618 0.283 1.454h0.094c0.188 0 0.315 8e-3 0.413-0.152 0.084-0.149 0.09-0.383 0.055-0.563s-0.102-0.36-0.226-0.516c-0.058-0.075-0.128-0.133-0.211-0.176-0.112-0.055-0.181-0.047-0.291-0.047z" fill="#1b6e44"/>
    </g>
    <g id="ad" transform="matrix(11.072 0 0 -11.072 260.48 -90.129)">
     <path id="ae" d="m0 0h-0.83l0.522 2.682h0.83z" fill="#1b6e44"/>
    </g>
    <g id="af" transform="matrix(11.072 0 0 -11.072 291.48 -90.129)">
     <path id="ag" d="m0 0-0.258 1.169c0.345 0.145 0.543 0.356 0.612 0.708 0.051 0.262-9e-3 0.5-0.204 0.641-0.174 0.133-0.427 0.164-0.662 0.164h-1.367l-0.522-2.682h0.834l0.2 1.024h0.258l0.193-1.024zm-1.255 1.599 0.1 0.512h0.332c0.079 0 0.165 0 0.229-0.035 0.073-0.043 0.104-0.129 0.086-0.219-0.045-0.23-0.265-0.258-0.446-0.258z" fill="#1b6e44"/>
    </g>
    <g id="ah" transform="matrix(11.072 0 0 -11.072 316.76 -90.129)">
     <path id="ai" d="m0 0h-2.017l0.522 2.682h2.017l-0.12-0.617h-1.21l-0.076-0.391h0.979l-0.117-0.599h-0.979l-0.084-0.434h1.21z" fill="#1b6e44"/>
    </g>
    <g id="aj" transform="matrix(11.072 0 0 -11.072 337.22 -90.129)">
     <path id="ak" d="m0 0-0.265 1.013-0.358-0.391-0.121-0.622h-0.776l0.523 2.682h0.775l-0.215-1.106 0.959 1.106h0.741l-0.869-0.981 0.511-1.701z" fill="#1b6e44"/>
    </g>
    <g id="al" transform="matrix(11.072 0 0 -11.072 361.98 -90.129)">
     <path id="am" d="m0 0h-0.783l0.396 2.037h-0.564l0.126 0.645h1.899l-0.125-0.645h-0.552z" fill="#1b6e44"/>
    </g>
    <g id="an" transform="matrix(11.072 0 0 -11.072 393.07 -90.129)">
     <path id="ao" d="m0 0h-2.017l0.522 2.682h2.017l-0.12-0.617h-1.21l-0.076-0.391h0.979l-0.117-0.599h-0.979l-0.084-0.434h1.21z" fill="#1b6e44"/>
    </g>
   </g>
   <g id="ap" transform="matrix(11.072 0 0 -11.072 368.88 -86.6)">
    <path id="aq" d="m0 0s-0.126-1.238-0.441-2.279c-0.112-0.37-0.262-0.528-0.466-0.673-0.762-0.539-7.094 0.569-9.83 1.084-2.736 0.514-3.973 0.393-4.244 0.876-0.272 0.482 0.076 1.347 0.334 3.556 0.367 3.152 0.373 6.911 1.651 7.473 0.746 0.329 2.5 0.55 4.953 0.956 4.687 0.776 9.621 1.678 10.284 0.984 0.726-0.759-1.158-6.678-1.158-6.678l-6e-3 0.054s0.372 3.602 0.398 4.673-0.272 1.211-0.716 1.293c0 0-3.584-0.051-6.859-0.441-3.275-0.391-5.558-0.902-5.558-0.902-0.601-0.12-0.855-0.268-1.104-1.035-0.248-0.767-0.579-1.759-0.969-3.802-0.391-2.043-0.521-3.669-0.561-4.569-0.04-0.899 0.086-1.003 0.609-1.222 0.523-0.218 2.265-0.759 5.54-1.15 3.275-0.39 5.048-0.36 5.949-0.3 0.902 0.06 1.115 0.013 1.553 0.715 0.439 0.703 0.641 1.387 0.641 1.387" fill="#1b6e44"/>
   </g>
   <g id="ar" transform="matrix(11.072 0 0 -11.072 -3134.2 2448.8)">
    <g id="as" clip-path="url(#a)">
     <g id="at" transform="translate(312.41 233.05)">
      <path id="au" d="m0 0h0.183l0.082-0.424h0.278l-0.106 0.474c0.124 0.042 0.216 0.155 0.24 0.277 0.02 0.105-8e-3 0.21-0.084 0.268-0.073 0.053-0.17 0.054-0.265 0.054h-0.452l-0.209-1.073h0.251zm0.089 0.458h0.132c0.046 0 0.12 7e-3 0.157-0.02 0.031-0.022 0.048-0.067 0.039-0.109-9e-3 -0.047-0.04-0.097-0.086-0.122-0.05-0.027-0.106-0.022-0.157-0.022h-0.138z" fill="#1b6e44"/>
     </g>
     <g id="av" transform="translate(313.36 232.62)">
      <path id="aw" d="m0 0h-0.25l0.208 1.073h0.251z" fill="#1b6e44"/>
     </g>
     <g id="ax" transform="translate(313.93 233.19)">
      <path id="ay" d="m0 0 0.435 0.505h0.24l-0.332-0.383 0.188-0.69h-0.277l-0.122 0.465-0.194-0.218-0.048-0.247h-0.244l0.208 1.073h0.244z" fill="#1b6e44"/>
     </g>
     <g id="az" transform="translate(315.26 233.39)">
      <path id="ba" d="m0 0c-0.014 0.091-0.065 0.127-0.16 0.127-0.067 0-0.152-0.018-0.168-0.101-0.015-0.078 0.075-0.096 0.134-0.107 0.084-0.019 0.197-0.041 0.262-0.091 0.077-0.058 0.112-0.147 0.092-0.254-0.021-0.104-0.09-0.204-0.185-0.269-0.1-0.067-0.221-0.087-0.329-0.087-0.202 0-0.368 0.087-0.375 0.297l0.241 0.053c0.01-0.112 0.084-0.152 0.195-0.152 0.072 0 0.172 0.027 0.19 0.116 0.017 0.089-0.102 0.107-0.165 0.121-0.183 0.039-0.36 0.095-0.314 0.33 0.019 0.1 0.075 0.187 0.165 0.252 0.091 0.065 0.187 0.087 0.286 0.087 0.187 0 0.328-0.066 0.357-0.252z" fill="#1b6e44"/>
     </g>
     <g id="bb" transform="translate(316.39 233.48)">
      <path id="bc" d="m0 0h-0.269l-0.167-0.86h-0.251l0.168 0.86h-0.273l0.042 0.213h0.791z" fill="#1b6e44"/>
     </g>
     <g id="bd" transform="translate(316.77 232.61)">
      <path id="be" d="m0 0c0.145 0 0.284 0.059 0.39 0.181 0.089 0.102 0.151 0.251 0.174 0.373 0.026 0.13 0.016 0.281-0.04 0.386-0.064 0.117-0.167 0.164-0.309 0.164-0.318 0-0.512-0.266-0.567-0.55-0.027-0.135-0.019-0.274 0.037-0.385 0.062-0.119 0.169-0.169 0.315-0.169m0.175 0.899c0.078 0 0.117-0.033 0.134-0.105 0.017-0.071 7e-3 -0.164-8e-3 -0.242-0.014-0.07-0.039-0.159-0.076-0.225-0.044-0.08-0.099-0.122-0.185-0.122-0.177 0-0.156 0.214-0.13 0.349 0.014 0.067 0.041 0.159 0.078 0.223 0.045 0.079 0.101 0.122 0.187 0.122" fill="#1b6e44"/>
     </g>
     <g id="bf" transform="translate(318.27 233.48)">
      <path id="bg" d="m0 0h-0.269l-0.167-0.86h-0.251l0.168 0.86h-0.273l0.042 0.213h0.791z" fill="#1b6e44"/>
     </g>
     <g id="bh" transform="translate(318.64 232.61)">
      <path id="bi" d="m0 0c0.145 0 0.284 0.059 0.39 0.181 0.089 0.102 0.151 0.251 0.174 0.373 0.026 0.13 0.016 0.281-0.04 0.386-0.063 0.117-0.167 0.164-0.309 0.164-0.318 0-0.512-0.266-0.567-0.55-0.026-0.135-0.019-0.274 0.038-0.385 0.061-0.119 0.169-0.169 0.314-0.169m0.175 0.899c0.078 0 0.117-0.033 0.134-0.105 0.018-0.071 7e-3 -0.164-8e-3 -0.242-0.013-0.07-0.039-0.159-0.076-0.225-0.044-0.08-0.099-0.122-0.185-0.122-0.177 0-0.156 0.214-0.129 0.349 0.013 0.067 0.04 0.159 0.077 0.223 0.045 0.079 0.101 0.122 0.187 0.122" fill="#1b6e44"/>
     </g>
    </g>
   </g>
  </g>
 </g>
</svg>
