<?xml version="1.0" encoding="UTF-8"?>
<!-- Created with Inkscape (http://www.inkscape.org/) -->
<svg id="svg2985" width="300" height="140.44" xmlns:cc="http://creativecommons.org/ns#" xmlns:dc="http://purl.org/dc/elements/1.1/" xmlns:rdf="http://www.w3.org/1999/02/22-rdf-syntax-ns#" space="preserve" version="1.1" xmlns="http://www.w3.org/2000/svg">
 <link id="dark-mode" href="" rel="stylesheet" type="text/css"/>
 <style id="dark-mode-custom-style" type="text/css"/>
 <metadata id="metadata2991">
  <rdf:RDF>
   <cc:Work rdf:about="">
    <dc:format>image/svg+xml</dc:format>
    <dc:type rdf:resource="http://purl.org/dc/dcmitype/StillImage"/>
    <dc:title/>
   </cc:Work>
  </rdf:RDF>
 </metadata>
 <g id="g2993" transform="matrix(1.25 0 0 -1.25 -27.124 220.57)">
  <g id="g1115" fill="#fff">
   <path id="path2997" d="m149.45 140.47v-52.517h-9.2231v52.517h-16.738v8.283h42.697v-8.283z"/>
   <g id="g3007" transform="matrix(.99904 0 0 .99904 189.62 87.435)">
    <path id="path3009" d="m0 0c-6.324 0-11.795 2.309-15.984 6.496-5.983 5.984-5.899 12.736-5.899 24.447s-0.084 18.463 5.899 24.447c4.189 4.188 9.66 6.496 15.984 6.496 11.197 0 19.576-6.582 21.711-18.718h-9.402c-1.454 6.152-5.555 10.427-12.309 10.427-3.59 0-6.838-1.368-8.975-3.675-2.992-3.248-3.675-6.752-3.675-18.977 0-12.224 0.683-15.728 3.675-18.976 2.137-2.309 5.385-3.676 8.975-3.676 6.754 0 10.941 4.275 12.395 10.428h9.316c-2.051-12.137-10.684-18.719-21.711-18.719" fill="#fff"/>
   </g>
   <g id="g3011" transform="matrix(.99904 0 0 .99904 110.25 114.85)">
    <path id="path3013" d="m0 0c6.838 1.879 12.137 7.436 12.137 16.154 0 10.342-7.352 17.779-18.891 17.779h-23.593v-60.859h9.234v52.568h13.675c6.155 0 10.344-3.589 10.344-9.574 0-5.984-4.189-9.488-10.344-9.488h-6.995v-7.863h4.859l12.822-25.643h10.77z" fill="#fff"/>
   </g>
   <g id="g3015" transform="matrix(.99904 0 0 .99904 244.44 121.82)">
    <path id="path3017" d="m0 0v-7.863h5.8v-3.42c0-3.932-0.856-7.01-3.078-9.572-2.393-2.737-5.897-4.276-9.914-4.276-3.59 0-6.838 1.367-8.977 3.676-2.99 3.248-3.674 6.752-3.674 18.976 0 12.225 0.684 15.643 3.674 18.891 2.139 2.306 5.387 3.761 8.977 3.761 6.838 0 11.283-3.931 12.822-10.601h9.314c-1.709 10.429-9.23 18.892-22.136 18.892-6.498 0-11.797-2.308-15.985-6.496-5.984-5.984-5.898-12.736-5.898-24.447 0-11.71-0.086-18.462 5.898-24.447 4.188-4.187 9.658-6.496 15.985-6.496 6.41 0 12.136 2.053 16.752 6.924 4.017 4.273 5.47 9.316 5.47 17.182v9.316z" fill="#fff"/>
   </g>
  </g>
  <g id="g1096" fill="#bdbcbc">
   <g id="g3019" transform="matrix(.99904 0 0 .99904 43.107 80.102)">
    <path id="path3021" d="m0 0h-3.041v-4.236h3.041c1.367 0 2.297 0.778 2.297 2.108 0 1.329-0.93 2.128-2.297 2.128m2.373-11.684-2.85 5.7h-2.564v-5.7h-2.051v13.526h5.242c2.565 0 4.2-1.653 4.2-3.951 0-1.938-1.178-3.172-2.698-3.59l3.116-5.985z" fill="#bdbcbc"/>
   </g>
   <g id="g3023" transform="matrix(.99904 0 0 .99904 55.179 72.682)">
    <path id="path3025" d="m0 0h-2.262c-1.14 0-1.728-0.514-1.728-1.387 0-0.875 0.551-1.368 1.765-1.368 0.743 0 1.293 0.057 1.807 0.551 0.283 0.284 0.418 0.741 0.418 1.425zm0.037-4.256v0.874c-0.703-0.703-1.367-0.987-2.564-0.987-1.198 0-1.994 0.284-2.584 0.873-0.494 0.514-0.76 1.254-0.76 2.07 0 1.615 1.121 2.774 3.324 2.774h2.547v0.684c0 1.216-0.609 1.805-2.109 1.805-1.065 0-1.577-0.247-2.11-0.931l-1.271 1.198c0.91 1.063 1.861 1.386 3.457 1.386 2.64 0 3.971-1.121 3.971-3.306v-6.44z" fill="#bdbcbc"/>
   </g>
   <g id="g3027" transform="matrix(.99904 0 0 .99904 63.398 76.439)">
    <path id="path3029" d="m0 0c-1.748 0-2.014-1.481-2.014-3.191s0.266-3.21 2.014-3.21 1.996 1.5 1.996 3.21-0.248 3.191-1.996 3.191m2.033-8.017v1.026c-0.722-0.873-1.5-1.139-2.545-1.139-0.968 0-1.824 0.322-2.355 0.854-0.969 0.969-1.084 2.622-1.084 4.085 0 1.462 0.115 3.096 1.084 4.065 0.531 0.532 1.367 0.855 2.336 0.855 1.025 0 1.824-0.248 2.527-1.083v4.863h1.938v-13.526z" fill="#bdbcbc"/>
   </g>
   <path id="path3031" d="m70.214 78.051h1.9361v-9.6217h-1.9361zm-0.05894 3.9492h2.051v-2.05h-2.051z"/>
   <g id="g3033" transform="matrix(.99904 0 0 .99904 80.007 75.888)">
    <path id="path3035" d="m0 0c-0.361 0.36-0.855 0.551-1.426 0.551-0.568 0-1.043-0.191-1.404-0.551-0.59-0.589-0.666-1.596-0.666-2.641s0.076-2.051 0.666-2.64c0.361-0.361 0.836-0.57 1.404-0.57 0.571 0 1.065 0.209 1.426 0.57 0.588 0.589 0.664 1.595 0.664 2.64s-0.076 2.052-0.664 2.641m1.463-6.44c-0.627-0.646-1.576-1.139-2.889-1.139-1.31 0-2.24 0.493-2.867 1.139-0.912 0.95-1.141 2.166-1.141 3.799 0 1.615 0.229 2.831 1.141 3.781 0.627 0.646 1.557 1.14 2.867 1.14 1.313 0 2.262-0.494 2.889-1.14 0.912-0.95 1.141-2.166 1.141-3.781 0-1.633-0.229-2.849-1.141-3.799" fill="#bdbcbc"/>
   </g>
   <path id="path3037" d="m89.404 78.051h1.9361v-9.6217h-1.9361zm-0.05894 3.9492h2.051v-2.05h-2.051z"/>
   <g id="g3039" transform="matrix(.99904 0 0 .99904 103.39 80.102)">
    <path id="path3041" d="m0 0v-11.684h-2.051v11.684h-3.722v1.842h9.498v-1.842z" fill="#bdbcbc"/>
   </g>
   <g id="g3043" transform="matrix(.99904 0 0 .99904 113.26 75.338)">
    <path id="path3045" d="m0 0c-0.305 0.722-0.988 1.216-1.9 1.216-0.913 0-1.616-0.494-1.918-1.216-0.192-0.437-0.229-0.722-0.248-1.312h4.332c-0.02 0.59-0.077 0.875-0.266 1.312m-4.066-2.659c0-1.654 0.875-2.698 2.451-2.698 1.082 0 1.652 0.303 2.336 0.987l1.234-1.158c-0.986-0.989-1.918-1.5-3.609-1.5-2.412 0-4.33 1.271-4.33 4.938 0 3.116 1.613 4.921 4.084 4.921 2.584 0 4.084-1.9 4.084-4.636v-0.854z" fill="#bdbcbc"/>
   </g>
   <g id="g3047" transform="matrix(.99904 0 0 .99904 120.4 68.43)">
    <path id="path3049" d="m0 0c-1.842 0-2.641 1.234-2.641 2.66v10.865h1.94v-10.752c0-0.74 0.265-1.121 1.043-1.121h0.855v-1.652z" fill="#bdbcbc"/>
   </g>
   <g id="g3051" transform="matrix(.99904 0 0 .99904 128.54 75.338)">
    <path id="path3053" d="m0 0c-0.305 0.722-0.988 1.216-1.9 1.216-0.911 0-1.614-0.494-1.918-1.216-0.19-0.437-0.229-0.722-0.246-1.312h4.33c-0.018 0.59-0.077 0.875-0.266 1.312m-4.064-2.659c0-1.654 0.873-2.698 2.449-2.698 1.084 0 1.654 0.303 2.338 0.987l1.234-1.158c-0.988-0.989-1.918-1.5-3.609-1.5-2.412 0-4.332 1.271-4.332 4.938 0 3.116 1.615 4.921 4.084 4.921 2.584 0 4.086-1.9 4.086-4.636v-0.854z" fill="#bdbcbc"/>
   </g>
   <g id="g3055" transform="matrix(.99904 0 0 .99904 136.63 68.43)">
    <path id="path3057" d="m0 0h-1.576l-3.533 9.631h2.05l2.28-6.781 2.261 6.781h2.051z" fill="#bdbcbc"/>
   </g>
   <path id="path3059" d="m141.66 78.051h1.9361v-9.6217h-1.9361zm-0.058 3.9492h2.051v-2.05h-2.051z"/>
   <g id="g3061" transform="matrix(.99904 0 0 .99904 145.76 68.43)">
    <path id="path3063" d="m0 0v1.539l4.789 6.363h-4.521v1.729h6.914v-1.538l-4.825-6.364h4.825v-1.729z" fill="#bdbcbc"/>
   </g>
   <path id="path3065" d="m155.19 78.051h1.9361v-9.6217h-1.9361zm-0.0579 3.9492h2.051v-2.05h-2.051z"/>
   <path id="path3067" d="m159.96 82h2.049v-2.05h-2.049zm-0.64638-17.499h-1.1958v1.6514h0.85517c0.77825 0 1.043 0.37864 1.043 1.1199v10.779h1.9361v-10.893c0-1.4226-0.79623-2.6564-2.6385-2.6564"/>
   <g id="g3069" transform="matrix(.99904 0 0 .99904 169.98 72.682)">
    <path id="path3071" d="m0 0h-2.262c-1.14 0-1.728-0.514-1.728-1.387 0-0.875 0.551-1.368 1.765-1.368 0.743 0 1.293 0.057 1.807 0.551 0.283 0.284 0.418 0.741 0.418 1.425zm0.037-4.256v0.874c-0.703-0.703-1.367-0.987-2.564-0.987-1.198 0-1.994 0.284-2.584 0.873-0.494 0.514-0.76 1.254-0.76 2.07 0 1.615 1.121 2.774 3.324 2.774h2.547v0.684c0 1.216-0.609 1.805-2.109 1.805-1.065 0-1.577-0.247-2.11-0.931l-1.271 1.198c0.91 1.063 1.861 1.386 3.457 1.386 2.64 0 3.971-1.121 3.971-3.306v-6.44z" fill="#bdbcbc"/>
   </g>
   <g id="g3073" transform="matrix(.99904 0 0 .99904 183.66 68.317)">
    <path id="path3075" d="m0 0c-1.404 0-2.621 0.512-3.551 1.443-1.33 1.33-1.312 2.83-1.312 5.434 0 2.602-0.018 4.102 1.312 5.433 0.93 0.93 2.147 1.444 3.551 1.444 2.49 0 4.352-1.463 4.826-4.161h-2.09c-0.322 1.368-1.234 2.317-2.736 2.317-0.797 0-1.52-0.304-1.994-0.816-0.664-0.723-0.817-1.501-0.817-4.217 0-2.717 0.153-3.496 0.817-4.219 0.474-0.512 1.197-0.816 1.994-0.816 1.502 0 2.432 0.95 2.756 2.318h2.07c-0.455-2.698-2.375-4.16-4.826-4.16" fill="#bdbcbc"/>
   </g>
   <g id="g3077" transform="matrix(.99904 0 0 .99904 196.1 75.794)">
    <path id="path3079" d="m0 0c-0.436 0.437-0.777 0.646-1.443 0.646-1.045 0-1.918-0.835-1.918-2.166v-5.851h-1.938v9.631h1.899v-1.044c0.494 0.683 1.482 1.159 2.564 1.159 0.932 0 1.635-0.248 2.299-0.912z" fill="#bdbcbc"/>
   </g>
   <g id="g3081" transform="matrix(.99904 0 0 .99904 204.81 68.43)">
    <path id="path3083" d="m0 0v5.87c0 1.501-0.855 2.147-1.938 2.147-1.082 0-1.994-0.665-1.994-2.147v-5.87h-1.937v9.631h1.898v-0.969c0.666 0.723 1.596 1.084 2.565 1.084 0.988 0 1.804-0.323 2.375-0.875 0.742-0.721 0.969-1.633 0.969-2.716v-6.155z" fill="#bdbcbc"/>
   </g>
   <g id="g3085" transform="matrix(.99904 0 0 .99904 215.02 75.338)">
    <path id="path3087" d="m0 0c-0.305 0.722-0.988 1.216-1.9 1.216-0.911 0-1.614-0.494-1.918-1.216-0.19-0.437-0.229-0.722-0.246-1.312h4.33c-0.018 0.59-0.077 0.875-0.266 1.312m-4.064-2.659c0-1.654 0.873-2.698 2.449-2.698 1.084 0 1.654 0.303 2.338 0.987l1.234-1.158c-0.988-0.989-1.918-1.5-3.609-1.5-2.412 0-4.332 1.271-4.332 4.938 0 3.116 1.615 4.921 4.084 4.921 2.584 0 4.086-1.9 4.086-4.636v-0.854z" fill="#bdbcbc"/>
   </g>
   <g id="g3089" transform="matrix(.99904 0 0 .99904 232.26 69.853)">
    <path id="path3091" d="m0 0c-1.025-1.083-2.299-1.538-3.725-1.538-1.404 0-2.621 0.512-3.55 1.443-1.33 1.33-1.313 2.83-1.313 5.434 0 2.601-0.017 4.102 1.313 5.432 0.929 0.931 2.107 1.445 3.55 1.445 2.87 0 4.541-1.881 4.922-4.199h-2.072c-0.342 1.482-1.328 2.355-2.85 2.355-0.796 0-1.519-0.322-1.994-0.836-0.664-0.722-0.816-1.481-0.816-4.197 0-2.717 0.152-3.496 0.816-4.219 0.475-0.512 1.198-0.816 1.994-0.816 0.895 0 1.672 0.342 2.205 0.95 0.495 0.569 0.684 1.254 0.684 2.128v0.76h-2.889v1.748h4.94v-2.072c0-1.747-0.322-2.868-1.215-3.818" fill="#bdbcbc"/>
   </g>
   <g id="g3093" transform="matrix(.99904 0 0 .99904 241.04 75.888)">
    <path id="path3095" d="m0 0c-0.361 0.36-0.855 0.551-1.426 0.551-0.568 0-1.043-0.191-1.404-0.551-0.59-0.589-0.666-1.596-0.666-2.641s0.076-2.051 0.666-2.64c0.361-0.361 0.836-0.57 1.404-0.57 0.571 0 1.065 0.209 1.426 0.57 0.588 0.589 0.664 1.595 0.664 2.64s-0.076 2.052-0.664 2.641m1.463-6.44c-0.627-0.646-1.576-1.139-2.889-1.139-1.31 0-2.24 0.493-2.867 1.139-0.912 0.95-1.141 2.166-1.141 3.799 0 1.615 0.229 2.831 1.141 3.781 0.627 0.646 1.557 1.14 2.867 1.14 1.313 0 2.262-0.494 2.889-1.14 0.912-0.95 1.141-2.166 1.141-3.781 0-1.633-0.229-2.849-1.141-3.799" fill="#bdbcbc"/>
   </g>
   <g id="g3097" transform="matrix(.99904 0 0 .99904 251.37 75.794)">
    <path id="path3099" d="m0 0c-0.438 0.437-0.779 0.646-1.443 0.646-1.045 0-1.92-0.835-1.92-2.166v-5.851h-1.938v9.631h1.901v-1.044c0.494 0.683 1.48 1.159 2.564 1.159 0.93 0 1.633-0.248 2.299-0.912z" fill="#bdbcbc"/>
   </g>
   <g id="g3101" transform="matrix(.99904 0 0 .99904 259.12 75.338)">
    <path id="path3103" d="m0 0c-0.305 0.722-0.988 1.216-1.9 1.216-0.911 0-1.614-0.494-1.918-1.216-0.19-0.437-0.229-0.722-0.246-1.312h4.33c-0.018 0.59-0.077 0.875-0.266 1.312m-4.064-2.659c0-1.654 0.873-2.698 2.449-2.698 1.084 0 1.654 0.303 2.338 0.987l1.234-1.158c-0.988-0.989-1.918-1.5-3.609-1.5-2.412 0-4.332 1.271-4.332 4.938 0 3.116 1.615 4.921 4.084 4.921 2.584 0 4.086-1.9 4.086-4.636v-0.854z" fill="#bdbcbc"/>
   </g>
  </g>
  <g id="g1106">
   <g id="g3105" transform="matrix(.99904 0 0 .99904 51.526 101.54)">
    <path id="path3107" d="m0 0-20.981 8.648c-2.153 0.869-3.265 3.626-0.03 5.207l8.508 5.273 20.899-13.991c-2.644-1.798-5.436-3.514-8.396-5.137" fill="#bdbcbc"/>
   </g>
   <g id="g3109" transform="matrix(.99904 0 0 .99904 64.281 103.84)">
    <path id="path3111" d="m0 0c2.916-2.268 5.264-4.869 6.374-9.413 0 0 0.086-0.575 0.103-0.639l9e-3 -2.21c0.057-2.85-2.492-4.672-5.667-4.346l-22.129 0.976c-8.343 0.382-8.637 8.491-2.115 11.831 2.606 1.18 5.082 2.428 7.456 3.732 2.96 1.624 5.752 3.34 8.397 5.138z" fill="#656263"/>
   </g>
   <g id="g3113" transform="matrix(.99904 0 0 .99904 34.055 131.7)">
    <path id="path3115" d="m0 0 30.392-20.124c2.91-2.237 5.256-4.808 6.4-9.235l-0.048-8.569c-1.111 4.544-3.459 7.146-6.375 9.413l-7.572 5.07-20.899 13.988-1.57 1.052c-7.417 4.762-10.134 9.178-10.927 15.235l-0.212 6.948c1.067-5.452 4.067-10.247 10.811-13.778" fill="#e3b644"/>
   </g>
   <g id="g3117" transform="matrix(.99904 0 0 .99904 22.099 173.7)">
    <path id="path3119" d="m0 0c0.689 3.134 3.827 2.722 6.128 1.202l32.434-19.753c6.792-3.168 9.09-8.658 9.737-13.344l0.451-22.544 0.064-3.255-0.062-12.207-8e-3 -1.662c-0.015 0.063-0.039 0.118-0.055 0.181-1.143 4.428-3.488 6.998-6.398 9.235l-30.393 20.126c-6.744 3.53-9.744 8.325-10.81 13.777-0.095 0.483-0.18 0.969-0.247 1.463z" fill="#bf1b2c"/>
   </g>
  </g>
 </g>
</svg>
