<svg version="1.1" viewBox="0 0 743.24 181.65" xml:space="preserve" xmlns="http://www.w3.org/2000/svg"><defs><clipPath id="a"><path d="M 0,79.125 H 348.47 V 0 H 0 Z"/></clipPath></defs><g transform="matrix(1.3333 0 0 -1.3333 167.68 143.57)"><path d="m55.886 16.856h-45.413v45.413h45.413z" fill="#e32225"/><path d="m55.886-28.557h45.413v45.413h-45.413z" fill="#fff"/><g transform="matrix(1.7218,0,0,1.7218,-34.94,107.68)"><path d="m0 0v-26.375h-52.75v-52.75h26.375v26.375h26.375v-26.375h26.375v79.125z" fill="#6d6f71"/></g><g transform="matrix(1.7218,0,0,1.7218,192.12,107.68)"><path d="m0 0v-26.375h-52.75v-52.75h26.375v26.375h26.375v-26.375h26.375v26.375h26.375v-26.375h26.375v52.75h-52.75v26.375z" fill="#6d6f71"/></g><g transform="matrix(1.7218,0,0,1.7218,-125.77,-28.557)"><g clip-path="url(#a)"><g transform="translate(284.07,31.969)"><path d="m0 0v8.614s16.458 2.667 20.791 12.167h-33.854v-52.75h29.813v32z" fill="#6d6f71"/></g><path d="m316.49 0h7.271v52.75h-7.271z" fill="#6d6f71"/></g></g></g></svg>
