<?xml version="1.0" encoding="UTF-8"?>
<!-- Created with Inkscape (http://www.inkscape.org/) -->
<svg id="svg2" width="411.88" height="79.383" version="1.1" viewBox="0 0 411.88 79.383" xml:space="preserve" xmlns="http://www.w3.org/2000/svg" xmlns:cc="http://creativecommons.org/ns#" xmlns:dc="http://purl.org/dc/elements/1.1/" xmlns:rdf="http://www.w3.org/1999/02/22-rdf-syntax-ns#"><metadata id="metadata8"><rdf:RDF><cc:Work rdf:about=""><dc:format>image/svg+xml</dc:format><dc:type rdf:resource="http://purl.org/dc/dcmitype/StillImage"/><dc:title/></cc:Work></rdf:RDF></metadata><g id="g10" transform="matrix(1.3333 0 0 -1.3333 -115.96 1049.8)"><g id="g1900"><g id="g84" transform="translate(191.62 739.22)"><path id="path86" d="m0 0h-5.068v-6.326h-87.787v6.326h-5.068v-6.813c0-2.53 2.05-4.581 4.58-4.581h88.762c2.53 0 4.581 2.051 4.581 4.581z" fill="#52c4b9"/></g><g id="g88" transform="translate(191.62 775.96)"><path id="path90" d="m0 0h-5.068v6.326h-87.787v-6.326h-5.068v6.813c0 2.53 2.05 4.581 4.58 4.581h88.762c2.53 0 4.581-2.051 4.581-4.581z" fill="#52c4b9"/></g><g id="g92" transform="translate(162.86 764.17)"><path id="path94" d="m0 0v-19.889h6.724v19.889h5.802v6.724h-18.328v-6.724z" fill="#52c4b9"/></g><g id="g96" transform="translate(191.62 770.9)"><path id="path98" d="m0 0v-20.414h-5.068v20.414h-6.724v-21.408c0-3.47 2.128-5.205 6.384-5.205h5.748c4.256 0 6.384 1.735 6.384 5.205v21.408z" fill="#52c4b9"/></g><g id="g100" transform="translate(146.24 770.9)"><path id="path102" d="m0 0v-20.414h-5.068v20.414h-6.724v-21.408c0-3.47 2.128-5.205 6.384-5.205h5.748c4.256 0 6.384 1.735 6.384 5.205v21.408z" fill="#52c4b9"/></g><g id="g104" transform="translate(122.43 770.9)"><path id="path106" d="m0 0v-20.414h-5.068v20.414h-6.724v-21.408c0-3.47 2.128-5.205 6.384-5.205h5.748c4.256 0 6.384 1.735 6.384 5.205v21.408z" fill="#52c4b9"/></g><g id="g108" transform="translate(105.58 758.58)"><path id="path110" d="m0 0v6.756c0 3.683-2.081 5.536-6.242 5.559h-12.366v-26.614h6.724v8.643h0.423l4.893-8.637h7.269l-4.894 8.991c2.864 0.433 4.193 2.2 4.193 5.302m-6.436 1.693c0.025-1.311-0.45-1.967-1.426-1.967h-4.022v6.585h4.022c0.976 0 1.451-0.422 1.426-1.265z" fill="#52c4b9"/></g><g id="g112" transform="translate(214.81 781.03)"><path id="path114" d="m0 0h-6.33v6.33h-5.068v-6.33h-6.331v-5.068h6.331v-6.33h5.068v6.33h6.33z" fill="#52c4b9"/></g></g><g id="g1917"><g id="g116" transform="translate(214.4 753)"><path id="path118" d="m0 0v17.896h5.205v-17.478c0-2.583 1.368-4.522 4.94-4.522 3.571 0 4.939 1.939 4.939 4.522v17.478h5.243v-17.896c0-5.737-4.331-9.232-10.182-9.232-5.813 0-10.145 3.495-10.145 9.232" fill="#231f20"/></g><g id="g120" transform="translate(245.79 758.13)"><path id="path122" d="m0 0h5.395c1.976 0 3.609 1.747 3.609 3.951 0 2.203-1.633 3.913-3.609 3.913h-5.395zm3.989-4.598h-3.989v-9.232h-5.243v26.596h10.638c4.901 0 8.853-3.952 8.853-8.815 0-3.344-2.09-6.345-5.129-7.751l5.889-10.03h-5.661z" fill="#231f20"/></g><g id="g124" transform="translate(285.16 770.89)"><path id="path126" d="m0 0v-26.596h-5.206v11.019h-9.878v-11.019h-5.243v26.596h5.243v-10.563h9.878v10.563z" fill="#231f20"/></g><g id="g128" transform="translate(307.6 749.31)"><path id="path130" d="m0 0v-5.015h-16.452v26.596h16.262v-5.015h-11.018v-5.662h10.068v-4.938h-10.068v-5.966z" fill="#231f20"/></g><path id="path132" d="m317.89 744.3h-5.243v26.596h5.243z" fill="#231f20"/><g id="g134" transform="translate(339.19 749.31)"><path id="path136" d="m0 0v-5.015h-15.388v26.596h5.243v-21.581z" fill="#231f20"/></g><g id="g138" transform="translate(342.19 753)"><path id="path140" d="m0 0v17.896h5.205v-17.478c0-2.583 1.368-4.522 4.94-4.522 3.571 0 4.939 1.939 4.939 4.522v17.478h5.243v-17.896c0-5.737-4.331-9.232-10.182-9.232-5.813 0-10.145 3.495-10.145 9.232" fill="#231f20"/></g><g id="g142" transform="translate(395.88 752.5)"><path id="path144" d="m0 0c0-5.699-4.483-8.739-9.499-8.739-4.141 0-7.751 1.824-9.271 5.699l4.484 2.622c0.646-2.052 2.128-3.192 4.787-3.192 2.736 0 4.256 1.444 4.256 3.61 0 2.127-1.52 3.609-4.104 3.609h-8.054l1.063 14.78h15.084v-4.902h-10.221l-0.341-4.787h2.735c4.863 0 9.081-3.002 9.081-8.7" fill="#231f20"/></g></g></g></svg>
