<?xml version="1.0" encoding="UTF-8"?>
<!-- Created with Inkscape (http://www.inkscape.org/) -->
<svg id="svg2" width="418.46" height="79.383" version="1.1" viewBox="0 0 418.46 79.383" xml:space="preserve" xmlns="http://www.w3.org/2000/svg" xmlns:cc="http://creativecommons.org/ns#" xmlns:dc="http://purl.org/dc/elements/1.1/" xmlns:rdf="http://www.w3.org/1999/02/22-rdf-syntax-ns#"><metadata id="metadata8"><rdf:RDF><cc:Work rdf:about=""><dc:format>image/svg+xml</dc:format><dc:type rdf:resource="http://purl.org/dc/dcmitype/StillImage"/><dc:title/></cc:Work></rdf:RDF></metadata><g id="g10" transform="matrix(1.3333 0 0 -1.3333 -115.96 1049.8)"><g id="g1900"><g id="g84" transform="translate(191.62 739.22)"><path id="path86" d="m0 0h-5.068v-6.326h-87.787v6.326h-5.068v-6.813c0-2.53 2.05-4.581 4.58-4.581h88.762c2.53 0 4.581 2.051 4.581 4.581z" fill="#52c4b9"/></g><g id="g88" transform="translate(191.62 775.96)"><path id="path90" d="m0 0h-5.068v6.326h-87.787v-6.326h-5.068v6.813c0 2.53 2.05 4.581 4.58 4.581h88.762c2.53 0 4.581-2.051 4.581-4.581z" fill="#52c4b9"/></g><g id="g92" transform="translate(162.86 764.17)"><path id="path94" d="m0 0v-19.889h6.724v19.889h5.802v6.724h-18.328v-6.724z" fill="#52c4b9"/></g><g id="g96" transform="translate(191.62 770.9)"><path id="path98" d="m0 0v-20.414h-5.068v20.414h-6.724v-21.408c0-3.47 2.128-5.205 6.384-5.205h5.748c4.256 0 6.384 1.735 6.384 5.205v21.408z" fill="#52c4b9"/></g><g id="g100" transform="translate(146.24 770.9)"><path id="path102" d="m0 0v-20.414h-5.068v20.414h-6.724v-21.408c0-3.47 2.128-5.205 6.384-5.205h5.748c4.256 0 6.384 1.735 6.384 5.205v21.408z" fill="#52c4b9"/></g><g id="g104" transform="translate(122.43 770.9)"><path id="path106" d="m0 0v-20.414h-5.068v20.414h-6.724v-21.408c0-3.47 2.128-5.205 6.384-5.205h5.748c4.256 0 6.384 1.735 6.384 5.205v21.408z" fill="#52c4b9"/></g><g id="g108" transform="translate(105.58 758.58)"><path id="path110" d="m0 0v6.756c0 3.683-2.081 5.536-6.242 5.559h-12.366v-26.614h6.724v8.644h0.423l4.893-8.638h7.269l-4.894 8.991c2.864 0.433 4.193 2.2 4.193 5.302m-6.436 1.693c0.025-1.311-0.45-1.967-1.426-1.967h-4.022v6.585h4.022c0.976 0 1.451-0.422 1.426-1.265z" fill="#52c4b9"/></g><g id="g112" transform="translate(214.81 781.03)"><path id="path114" d="m0 0h-6.33v6.33h-5.068v-6.33h-6.331v-5.068h6.331v-6.33h5.068v6.33h6.33z" fill="#52c4b9"/></g></g><g id="g1923"><g id="g116" transform="translate(232.98 757.59)"><path id="path118" d="m0 0c0 4.901-3.191 8.283-7.788 8.283h-5.319v-16.565h5.319c4.597 0 7.788 3.382 7.788 8.282m5.016 0c0-7.484-5.472-13.298-12.804-13.298h-10.563v26.597h10.563c7.332 0 12.804-5.814 12.804-13.299" fill="#fff"/></g><g id="g120" transform="translate(263.52 757.59)"><path id="path122" d="m0 0c0 5.13-3.762 8.739-8.587 8.739s-8.587-3.609-8.587-8.739c0-5.091 3.762-8.7 8.587-8.7s8.587 3.609 8.587 8.7m-22.379 0c0 7.789 6.117 13.83 13.792 13.83s13.83-6.041 13.83-13.83c0-7.75-6.155-13.829-13.83-13.829s-13.792 6.079-13.792 13.829" fill="#fff"/></g><g id="g124" transform="translate(288.03 744.3)"><path id="path126" d="m0 0-9.498 12.462v-12.462h-5.243v26.597h5.243v-11.741l9.118 11.741h6.041l-9.84-12.919 10.22-13.678z" fill="#fff"/></g><g id="g128" transform="translate(312 744.3)"><path id="path130" d="m0 0-9.498 12.462v-12.462h-5.243v26.597h5.243v-11.741l9.118 11.741h6.041l-9.84-12.919 10.22-13.678z" fill="#fff"/></g><g id="g132" transform="translate(336.32 753.98)"><path id="path134" d="m0 0-3.647 10.867-3.648-10.867zm1.634-4.901h-10.601l-1.596-4.787h-5.661l9.309 26.596h6.497l9.347-26.596h-5.7z" fill="#fff"/></g><g id="g136" transform="translate(353.68 758.13)"><path id="path138" d="m0 0h5.396c1.975 0 3.609 1.748 3.609 3.951 0 2.204-1.634 3.914-3.609 3.914h-5.396zm3.989-4.598h-3.989v-9.232h-5.243v26.597h10.639c4.901 0 8.852-3.953 8.852-8.816 0-3.343-2.09-6.345-5.129-7.751l5.889-10.03h-5.661z" fill="#fff"/></g><path id="path140" d="m377.95 744.3h-5.243v26.597h5.243z" fill="#fff"/><g id="g142" transform="translate(400.82 765.88)"><path id="path144" d="m0 0h-7.181v-21.581h-5.243v21.581h-7.142v5.016h19.566z" fill="#fff"/></g></g></g></svg>
