<svg id="a" version="1.1" viewBox="0 0 497.22 79.383" xml:space="preserve" xmlns="http://www.w3.org/2000/svg"><g id="b" transform="matrix(1.3333 0 0 -1.3333 -115.96 1049.8)"><g id="c"><g id="d" transform="translate(191.62 739.22)"><path id="e" d="m0 0h-5.068v-6.326h-87.787v6.326h-5.068v-6.813c0-2.53 2.05-4.581 4.58-4.581h88.762c2.53 0 4.581 2.051 4.581 4.581z" fill="#52c4b9"/></g><g id="f" transform="translate(191.62 775.96)"><path id="g" d="m0 0h-5.068v6.326h-87.787v-6.326h-5.068v6.813c0 2.53 2.05 4.581 4.58 4.581h88.762c2.53 0 4.581-2.051 4.581-4.581z" fill="#52c4b9"/></g><g id="h" transform="translate(162.86 764.17)"><path id="i" d="m0 0v-19.889h6.724v19.889h5.802v6.724h-18.328v-6.724z" fill="#52c4b9"/></g><g id="j" transform="translate(191.62 770.9)"><path id="k" d="m0 0v-20.414h-5.068v20.414h-6.724v-21.408c0-3.47 2.128-5.205 6.384-5.205h5.748c4.256 0 6.384 1.735 6.384 5.205v21.408z" fill="#52c4b9"/></g><g id="l" transform="translate(146.24 770.9)"><path id="m" d="m0 0v-20.414h-5.068v20.414h-6.724v-21.408c0-3.47 2.128-5.205 6.384-5.205h5.748c4.256 0 6.384 1.735 6.384 5.205v21.408z" fill="#52c4b9"/></g><g id="n" transform="translate(122.43 770.9)"><path id="o" d="m0 0v-20.414h-5.068v20.414h-6.724v-21.408c0-3.47 2.128-5.205 6.384-5.205h5.748c4.256 0 6.384 1.735 6.384 5.205v21.408z" fill="#52c4b9"/></g><g id="p" transform="translate(105.58 758.58)"><path id="q" d="m0 0v6.756c0 3.683-2.081 5.536-6.242 5.559h-12.366v-26.614h6.724v8.643h0.423l4.893-8.637h7.269l-4.894 8.991c2.864 0.433 4.193 2.2 4.193 5.302m-6.436 1.693c0.025-1.311-0.45-1.967-1.426-1.967h-4.022v6.585h4.022c0.976 0 1.451-0.422 1.426-1.265z" fill="#52c4b9"/></g><g id="r" transform="translate(214.81 781.03)"><path id="s" d="m0 0h-6.33v6.33h-5.068v-6.33h-6.331v-5.068h6.331v-6.33h5.068v6.33h6.33z" fill="#52c4b9"/></g></g><g id="t"><g id="u" transform="translate(214.4 753)"><path id="v" d="m0 0v17.895h5.205v-17.477c0-2.584 1.368-4.522 4.94-4.522 3.571 0 4.939 1.938 4.939 4.522v17.477h5.243v-17.895c0-5.738-4.332-9.232-10.182-9.232-5.814 0-10.145 3.494-10.145 9.232" fill="#fff"/></g><g id="w" transform="translate(245.79 758.13)"><path id="x" d="m0 0h5.396c1.975 0 3.609 1.748 3.609 3.951s-1.634 3.914-3.609 3.914h-5.396zm3.989-4.598h-3.989v-9.232h-5.243v26.596h10.639c4.901 0 8.852-3.952 8.852-8.815 0-3.344-2.09-6.345-5.129-7.751l5.889-10.03h-5.661z" fill="#fff"/></g><g id="y" transform="translate(285.16 770.89)"><path id="z" d="m0 0v-26.596h-5.206v11.019h-9.878v-11.019h-5.243v26.596h5.243v-10.563h9.878v10.563z" fill="#fff"/></g><g id="aa" transform="translate(307.6 749.31)"><path id="ab" d="m0 0v-5.016h-16.451v26.596h16.262v-5.015h-11.019v-5.661h10.068v-4.939h-10.068v-5.965z" fill="#fff"/></g><path id="ac" d="m317.89 744.3h-5.243v26.596h5.243z" fill="#fff"/><g id="ad" transform="translate(339.19 749.31)"><path id="ae" d="m0 0v-5.016h-15.388v26.596h5.243v-21.58z" fill="#fff"/></g><g id="af" transform="translate(342.19 753)"><path id="ag" d="m0 0v17.895h5.205v-17.477c0-2.584 1.368-4.522 4.94-4.522 3.571 0 4.939 1.938 4.939 4.522v17.477h5.243v-17.895c0-5.738-4.332-9.232-10.182-9.232-5.814 0-10.145 3.494-10.145 9.232" fill="#fff"/></g><g id="ah" transform="translate(377.19 748.21)"><path id="ai" d="m0 0 9.081 9.346c1.709 1.786 3.039 3.533 3.039 5.319 0 2.128-1.443 3.458-3.457 3.458-2.052 0-3.572-1.217-4.446-3.115l-4.407 2.583c1.71 3.8 5.167 5.623 8.777 5.623 4.559 0 8.776-3.04 8.776-8.359 0-3.23-1.861-6.003-4.369-8.511l-5.205-5.205h9.992v-5.053h-17.781z" fill="#fff"/></g></g><g id="aj"><g id="ak" transform="translate(430.54 770.89)"><path id="al" d="m0 0v-26.596h-5.205v11.019h-9.879v-11.019h-5.243v26.596h5.243v-10.563h9.879v10.563z" fill="#52c4b9"/></g><g id="am" transform="translate(454.87 757.59)"><path id="an" d="m0 0c0 4.901-3.192 8.283-7.789 8.283h-5.319v-16.565h5.319c4.597 0 7.789 3.381 7.789 8.282m5.015 0c0-7.485-5.471-13.298-12.804-13.298h-10.563v26.596h10.563c7.333 0 12.804-5.813 12.804-13.298" fill="#52c4b9"/></g></g></g></svg>
