<?xml version="1.0" encoding="UTF-8"?>
<!-- Created with Inkscape (http://www.inkscape.org/) -->
<svg id="svg3751" width="591.14" height="164.93" version="1.1" xmlns="http://www.w3.org/2000/svg" xmlns:cc="http://creativecommons.org/ns#" xmlns:dc="http://purl.org/dc/elements/1.1/" xmlns:rdf="http://www.w3.org/1999/02/22-rdf-syntax-ns#">
 <metadata id="metadata3756">
  <rdf:RDF>
   <cc:Work rdf:about="">
    <dc:format>image/svg+xml</dc:format>
    <dc:type rdf:resource="http://purl.org/dc/dcmitype/StillImage"/>
    <dc:title/>
   </cc:Work>
  </rdf:RDF>
 </metadata>
 <g id="layer1" transform="translate(-263.34 -356.09)" fill="#034ea2">
  <g id="g3693" transform="matrix(7.6837 0 0 -7.6837 478.96 508)">
   <path id="path3695" d="m0 0 1e-3 17.135s7.363 0.012 7.499 0.012c4.807 0 7.045-1.813 7.045-5.805v-0.639c0-2.988-1.171-4.447-3.45-4.807l-0.365-0.058 3.883-5.833h-3.822l-5.053 7.771c0.52 6e-3 1.283 0.023 1.658 0.033 0.151 4e-3 0.252 5e-3 0.272 5e-3 1.972 0 2.973 0.759 2.973 2.844v0.365c0 1.391-0.374 2.963-2.877 2.963-0.262 0-2.587 0-3.506-0.016l-0.466-8e-3 7e-3 -13.962" fill="#034ea2"/>
  </g>
  <g id="g3697" transform="matrix(7.6837 0 0 -7.6837 343.82 451.77)">
   <path id="path3699" d="m0 0c-3.076 0-5.579-2.502-5.579-5.579 0-0.704 0.131-1.394 0.39-2.049l3e-3 -8e-3 7e-3 -4e-3c0.07-0.041 0.147-0.085 0.234-0.133 1.51-0.811 3.221-1.239 4.945-1.239 1.817 0 3.607 0.472 5.177 1.366l8e-3 6e-3 3e-3 7e-3c0.26 0.656 0.392 1.347 0.392 2.054 0 3.077-2.503 5.579-5.58 5.579m0-8.214c-2.104 0-3.817 1.713-3.817 3.817 0 2.106 1.713 3.82 3.817 3.82 2.105 0 3.817-1.714 3.817-3.82 0-2.104-1.712-3.817-3.817-3.817m0 11.146c3.077 0 5.58 2.503 5.58 5.58 0 0.7-0.13 1.386-0.387 2.04l-3e-3 7e-3 -7e-3 4e-3c-1.571 0.898-3.363 1.371-5.183 1.371-1.818 0-3.611-0.473-5.182-1.371l-7e-3 -3e-3 -3e-3 -8e-3c-0.257-0.653-0.387-1.339-0.387-2.04 0-3.077 2.503-5.58 5.579-5.58m0 8.213c2.105 0 3.817-1.712 3.817-3.817s-1.712-3.817-3.817-3.817c-2.104 0-3.817 1.712-3.817 3.817s1.713 3.817 3.817 3.817m2.653-9.703 0.862 0.091c2.316 0.243 4.613 0.736 6.827 1.463l0.019 6e-3 -3e-3 0.019c-0.119 0.802-0.333 1.588-0.635 2.339l-0.012 0.029-0.024-0.019c-1.846-1.479-3.95-2.495-6.254-3.02l-0.831-0.189 0.806 0.277c2.298 0.789 4.265 2.369 5.536 4.451l8e-3 0.011-8e-3 0.013c-0.453 0.743-1.002 1.43-1.628 2.042l-0.033 0.031-6e-3 -0.045c-0.427-3.688-3.552-6.47-7.269-6.47-1.866 0-3.642 0.702-5.003 1.978-1.267 1.187-2.073 2.787-2.268 4.506l-6e-3 0.045-0.033-0.032c-0.628-0.611-1.177-1.297-1.633-2.042l-8e-3 -0.012 8e-3 -0.011c1.306-2.149 3.34-3.757 5.726-4.526l0.811-0.262-0.835 0.174c-2.385 0.497-4.563 1.518-6.473 3.034l-0.025 0.02-0.011-0.03c-0.289-0.732-0.495-1.497-0.613-2.276l-3e-3 -0.019 0.018-6e-3c2.228-0.736 4.541-1.233 6.875-1.479l0.864-0.091h-7.872l1e-3 -0.022c4e-3 -1.113 0.182-2.209 0.53-3.257l8e-3 -0.027 0.025 0.016c1.971 1.21 4.12 2.042 6.387 2.469l0.564 0.107-0.54-0.194c-2.273-0.818-4.209-2.413-5.45-4.495l-7e-3 -0.012 7e-3 -0.011c0.464-0.76 1.025-1.461 1.668-2.083l0.034-0.034 5e-3 0.047c0.366 3.764 3.497 6.603 7.283 6.603 1.866 0 3.643-0.703 5.004-1.978 1.279-1.198 2.086-2.814 2.272-4.55l6e-3 -0.046 0.033 0.032c0.631 0.622 1.18 1.322 1.634 2.08l7e-3 0.011-8e-3 0.013c-1.235 2.032-3.143 3.599-5.37 4.409l-0.539 0.196 0.563-0.109c2.225-0.429 4.336-1.246 6.274-2.43l0.024-0.016 0.01 0.027c0.341 1.041 0.517 2.129 0.521 3.235v0.022" fill="#034ea2"/>
  </g>
  <g id="g3701" transform="matrix(7.6837 0 0 -7.6837 650.13 373.44)">
   <path id="path3703" d="m0 0 1.05 2.258h4.195l-2.041-2.258" fill="#034ea2"/>
  </g>
  <g id="g3705" transform="matrix(7.6837 0 0 -7.6837 824.28 376.28)">
   <path id="path3707" d="m0 0h3.932l-4.627-17.137-6.735-5e-3 -4.618 17.142h3.934l4.054-14.022" fill="#034ea2"/>
  </g>
  <g id="g3709" transform="matrix(7.6837 0 0 -7.6837 657.95 511.81)">
   <path id="path3711" d="m0 0c-3.188 0-6.612 2.253-6.612 7.782 0 0.281 3e-3 8.358 4e-3 9.853h3.876c3e-3 -1.572 0.014-10.455 0.014-10.567 0-2.597 1.872-3.54 3.13-3.54h0.74c1.278 0 3.18 0.943 3.18 3.54 0 0.112-6e-3 8.995-7e-3 10.567h3.888c2e-3 -1.495 0.011-9.572 0.011-9.853 0-5.529-3.415-7.782-6.611-7.782" fill="#034ea2"/>
  </g>
 </g>
</svg>
