<?xml version="1.0" encoding="UTF-8"?>
<svg id="svg26" width="1981.5pt" height="602.01pt" version="1.1" viewBox="0 0 1981.5 602.01" xmlns="http://www.w3.org/2000/svg" xmlns:cc="http://creativecommons.org/ns#" xmlns:dc="http://purl.org/dc/elements/1.1/" xmlns:rdf="http://www.w3.org/1999/02/22-rdf-syntax-ns#">
 <metadata id="metadata32">
  <rdf:RDF>
   <cc:Work rdf:about="">
    <dc:format>image/svg+xml</dc:format>
    <dc:type rdf:resource="http://purl.org/dc/dcmitype/StillImage"/>
    <dc:title/>
   </cc:Work>
  </rdf:RDF>
 </metadata>
 <path id="path21" d="m1648.2 115.58h97.85l70.32 292.56 68.24-292.56h96.9l-108.18 366.89h-115.54z" fill="#0044a4"/>
 <g id="g862" transform="translate(-23.235 2025.9)" fill="#0044a4">
  <path id="path21-6" d="m917.16-1910.4h132.59c19.528-0.24 39.156 0.215 58.464 3.5246 19.908 3.3397 39.626 9.389 56.904 20.028 14.848 9.0991 27.547 21.938 35.706 37.386 9.9389 18.618 13.329 40.146 12.339 61.054-0.8199 20.168-6.6294 40.486-18.698 56.854-13.288 18.458-33.186 31.047-54.084 39.286l95 148.81h-109.45l-76.322-133.71h-39.921v133.71h-92.525zm92.525 73.507v89.95h53.959c10.479-0.18 21.218-1.1999 30.937-5.4195 7.8492-3.2996 14.678-9.259 18.518-16.918 3.8895-7.7092 5.0695-16.498 4.9494-25.047-0.21-8.9991-2.2598-18.308-7.7892-25.597-5.1994-7.1693-13.288-11.679-21.668-14.079-9.379-2.6897-19.208-2.9696-28.897-2.8896z" stroke-width=".99989"/>
  <path id="path15-3" d="m1461.6-2020.4h108.49l-95.873 82.442h-66.392z" stroke-width=".99923"/>
  <path id="path4-3" d="m400.45-1724.4 24.793-2.6057c66.54-6.9966 132.59-21.164 196.2-42.082l0.5361-0.1351-0.068-0.579c-3.4413-23.026-9.5839-45.627-18.254-67.201l-0.34263-0.8395-0.69096 0.5645c-53.044 42.477-113.53 71.688-179.74 86.778l-23.89 5.4284 23.156-7.952c66.053-22.674 122.57-68.099 159.1-127.92l0.25095-0.3425-0.25095-0.333c-13.018-21.366-28.778-41.102-46.771-58.685l-0.93561-0.9216-0.18816 1.2931c-12.275 106-102.09 185.96-208.93 185.96-53.609 0-104.69-20.179-143.78-56.837-36.435-34.139-59.577-80.128-65.185-129.5l-0.16407-1.3317-0.96022 0.9313c-18.028 17.569-33.829 37.309-46.921 58.675l-0.22196 0.3571 0.22196 0.3185c37.527 61.758 95.994 107.96 164.54 130.09l23.331 7.5274-23.991-4.9893c-68.562-14.278-131.13-43.658-186.06-87.207l-0.70016-0.5597-0.33293 0.8204c-8.3042 21.043-14.215 43.055-17.617 65.425l-0.082 0.5738 0.54969 0.1399c64.031 21.159 130.52 35.466 197.55 42.53l24.855 2.6057h-226.22v0.6562c0.11098 31.972 5.2402 63.476 15.233 93.576l0.24135 0.7963 0.68517-0.4634c56.673-34.78 118.44-58.698 183.58-70.96l16.218-3.0737-15.504 5.5829c-65.32 23.489-120.98 69.354-156.67 129.18l-0.18336 0.3281 0.18336 0.3136c13.342 21.854 29.463 42.009 47.93 59.872l1.0041 0.9747 0.13508-1.3462c10.505-108.18 100.52-189.78 209.33-189.78 53.642 0 104.7 20.204 143.81 56.866 36.773 34.409 59.958 80.876 65.309 130.77l0.16887 1.322 0.92591-0.9216c18.142-17.873 33.931-37.989 47.008-59.775l0.15447-0.3233-0.19306-0.386c-35.509-58.385-90.323-103.41-154.35-126.7l-15.488-5.6504 16.174 3.1557c63.964 12.314 124.63 35.822 180.33 69.836l0.68956 0.4391 0.26536-0.7961c9.8194-29.897 14.891-61.17 14.973-92.919v-0.661zm-76.243-278.86c60.499 0 109.7 49.207 109.7 109.69 0 60.523-49.198 109.74-109.7 109.74-60.475 0-109.71-49.213-109.71-109.74 0-60.485 49.236-109.69 109.71-109.69m0 236.04c88.437 0 160.37-71.934 160.37-160.37 0-20.106-3.7396-39.842-11.127-58.607l-0.097-0.2317-0.17847-0.1351c-45.175-25.757-96.671-39.365-148.95-39.365-52.262 0-103.78 13.607-148.98 39.365l-0.16396 0.1351-0.11098 0.2317c-7.3725 18.751-11.122 38.487-11.122 58.607 0 88.437 71.934 160.37 160.36 160.37m0 320.36c-60.475 0-109.7-49.251-109.7-109.73 0-60.528 49.222-109.76 109.7-109.76 60.499 0 109.7 49.236 109.7 109.76 0 60.475-49.198 109.73-109.7 109.73m0-236.08c-88.427 0-160.36 71.921-160.36 160.33 0 20.271 3.7922 40.089 11.252 58.893l0.068 0.2316 0.20267 0.1255c2.0073 1.1821 4.2076 2.4416 6.7264 3.8409 43.393 23.292 92.548 35.591 142.13 35.591 52.214 0 103.68-13.578 148.79-39.283l0.22196-0.1495 0.068-0.1882c7.4694-18.872 11.282-38.722 11.282-59.061 0-88.408-71.941-160.33-160.37-160.33" stroke-width="13.678"/>
  <path id="path19-8" d="m1288.2-1910.4v221.46c-0.2466 21.661 1.9055 43.12 8.3835 62.944 5.95 18.64 15.83 36.2 29.66 50.14 12.64 13.15 28.47 23.059 45.47 29.569 25.825 8.6261 48.616 12.171 72.973 12.171 24.472-0.2545 52.818-4.4776 72.976-12.171 17-6.51 32.829-16.419 45.469-29.569 13.83-13.94 23.71-31.5 29.66-50.14 6.7765-20.514 8.3862-41.589 8.3863-62.26v-222.15h-92.661v214.21c0.1401 18.18 0.3951 37.06-6.665 54.18-6.0726 15.357-20.301 25.634-35.549 29.432-7.6369 1.6239-14.494 2.278-21.615 2.3027-7.2819-0.035-15.181-0.8213-21.615-2.3027-17.698-5.151-28.846-13.413-35.549-29.432-7.0601-17.12-6.8052-36-6.6651-54.18v-214.21h-92.653z"/>
 </g>
</svg>
