<svg id="a" version="1.1" viewBox="0 0 800 603.06" xmlns="http://www.w3.org/2000/svg">
 <g id="b" transform="matrix(6.9688 0 0 6.9688 -.52376 -1.1779)" fill="none" fill-rule="evenodd">
  <g id="c" transform="translate(-46,-47)">
   <g id="d" transform="translate(46,47)">
    <g id="e">
     <path id="f" d="m97.581 10.447c-2.8469-1.7846-10.451-1.5987-20.64 0.3718-10.451 2.0449-15.546 3.7179-16.332 4.2756l3.184 5.2423s1.1612-0.29744 6.7427-1.8218c4.3078-1.1897 14.122-3.4205 17.381-3.7923 3.3713-0.3718 1.5358 1.8218-0.97394 5.8-0.63681 1.041-2.8094 3.9782-5.4316 8.0308h-17.081l-1.1238 4.9077h5.956l-5.0945 22.456-4.0456-27.327h-4.2329l-2.0603 3.4205-12.511 20.783c0.22476-0.48333 0.41205-0.92949 0.59935-1.45 0.8241-2.5654 0.56189-6.1718-0.8241-10.15-1.873-5.2795-2.2476-7.9564-1.4984-10.187 0.63681-1.859 3.4088-4.9077 7.4169-3.8295 1.3485 0.33462 2.5098 0.92949 3.7085 1.8218l2.5472-2.1192c-1.2362-1.3385-2.6596-2.491-5.956-3.3462-6.7801-1.7846-13.036 0.96667-14.834 6.4692-0.86156 2.5654-0.56189 4.4987 0.78664 8.9603l0.48697 1.4872c1.2362 3.8667 2.1726 6.6179 1.2362 9.4436-1.0489 3.1974-4.6824 5.9487-8.728 4.9077-2.3599-0.59487-3.8958-1.859-5.057-3.0115l-2.8844 2.3423c1.6107 1.9705 4.8697 3.8667 8.0163 4.6846 5.7687 1.5244 10.863-0.07436 13.785-3.9782l-1.5733 2.6397h5.8062l3.6336-5.9115h9.702l0.8241 5.9115h5.2818l5.7687 0.03718 5.4691-24.018h5.956l0.48697-2.1192h2.5098l-1.1238 4.9077h-5.956l-5.4691 24.018h-5.8062l0.03746-0.03718h-2.6222c-0.14984 0.33462-0.48697 1.0038-0.48697 1.0038-4.158 8.6256-6.2932 15.169-6.3681 15.578h9.5896c1.1612-2.3051 7.1173-17.288 9.8892-22.494 3.5586-6.6923 10.976-19.445 17.081-29.632 4.5326-7.5103 6.6678-13.124 4.8322-14.277zm-43.79 36.622h-3.3339l3.3339-6.3577 2.0228-3.8667h0.07492l1.2362 10.224z" fill="#fff"/>
     <path id="g" d="m113.24 8.4769c-3.184-5.8-9.5896-8.5513-19.254-8.291-9.6645 0.26026-20.865 2.9-33.638 7.8821-1.2362 0.48333-2.4349 0.96667-3.4837 1.4128-1.6857 0.70641-4.57 2.1936-8.6531 4.4987-5.4691 3.0487-10.077 5.9859-13.822 8.7372-2.2101 1.6359-3.7085 2.7885-4.5326 3.4577-0.37459 0.3718-0.78664 0.70641-1.1987 1.0782-11.35 9.741-19.404 19.408-24.236 29-4.8322 9.5923-5.6564 17.103-2.3599 22.679 3.259 5.5397 9.6645 8.1423 19.217 7.7333 9.5521-0.3718 20.827-3.1974 33.863-8.4026-9.0651 2.0077-17.831 2.6769-26.371 2.0449-9.4772-0.74359-15.471-3.0487-17.943-6.8782-3.2964-5.1679-3.2215-11.972 0.22476-20.374 3.4088-8.291 10.002-16.656 19.853-25.096 5.544-4.9077 11.95-9.3321 19.217-13.347 1.0114-0.70641 3.0717-1.7846 6.2182-3.1974 2.6596-1.2269 4.3827-1.9705 5.2068-2.2679 5.8811-2.0077 10.938-3.4949 15.208-4.3128 4.8322-1.041 9.215-1.4128 13.073-1.1897 8.4658 0.48333 14.235 3.1974 17.381 8.0679 3.9332 6.1346 3.0717 14.314-2.5098 24.538-4.8697 8.8115-12.287 17.512-22.363 26.063 11.8-9.5923 20.64-19.519 26.634-29.706 6.031-10.373 7.4169-18.367 4.2704-24.129" fill="#d22630"/>
    </g>
   </g>
  </g>
 </g>
</svg>
