<svg id="a" version="1.1" viewBox="0 0 234.54 26.87" xml:space="preserve" xmlns="http://www.w3.org/2000/svg">
<g id="b" transform="translate(-149.35 -270.43)" fill="#fff">
	<path id="c" d="m156.37 285.24c-3.565-0.956-6.396-3.309-6.396-7.131 0-4.08 3.235-7.683 8.271-7.683 4.301 0 6.58 2.499 7.315 4.301 0.147 0.367 0.221 0.625 0.221 0.845 0 0.515-0.368 0.81-0.919 0.993l-1.029 0.33c-0.662 0.221-1.066 0.11-1.434-0.551-0.809-1.471-2.095-2.39-4.117-2.39-2.72 0-4.632 1.765-4.632 3.934 0 1.874 1.434 3.234 3.345 3.712l2.72 0.699c4.264 1.103 6.763 3.712 6.763 7.204 0 3.896-3.051 7.793-8.675 7.793-5.44 0-7.719-3.676-8.307-5.734-0.331-1.103-0.11-1.507 0.809-1.801l0.956-0.294c1.066-0.331 1.36 0.294 1.654 0.955 0.588 1.25 1.617 3.346 4.962 3.346 3.161 0 4.925-1.912 4.925-4.081 0-1.617-0.956-2.977-3.823-3.749z"/>
	<path id="d" d="m174.79 296.9c-0.919 0-1.397-0.515-1.397-1.396v-23.269c0-0.919 0.515-1.396 1.397-1.396h12.682c0.882 0 1.396 0.478 1.396 1.396v0.662c0 0.919-0.515 1.396-1.396 1.396h-10.477v8.234h9.006c0.882 0 1.397 0.478 1.397 1.396v0.661c0 0.919-0.515 1.397-1.397 1.397h-9.006v9.521c0 0.882-0.478 1.396-1.396 1.396h-0.809z"/>
	<path id="e" d="m194.75 287.85c-0.882 0-1.397-0.44-1.397-1.249v-0.515c0-0.809 0.515-1.25 1.397-1.25h7.168c0.882 0 1.396 0.441 1.396 1.25v0.515c0 0.809-0.515 1.249-1.396 1.249z"/>
	<path id="f" d="m226.07 296.9c-0.662 0-0.992-0.331-1.617-1.103l-8.602-10.66-2.573 2.72v7.646c0 0.882-0.478 1.396-1.396 1.396h-0.809c-0.919 0-1.397-0.515-1.397-1.396v-23.269c0-0.882 0.478-1.396 1.397-1.396h0.809c0.919 0 1.396 0.515 1.396 1.396v10.771l10.439-11.064c0.699-0.735 1.14-1.103 1.801-1.103h1.434c0.551 0 1.103 0.331 1.103 1.103 0 0.257-0.074 0.515-0.294 0.735l-9.41 9.852 9.888 12.534c0.257 0.331 0.294 0.588 0.294 0.771 0 0.589-0.441 1.066-1.103 1.066h-1.36z"/>
	<path id="g" d="m253.27 296.9c-0.846 0-1.066-0.515-1.471-1.507l-2.168-5.403h-11.138l-2.169 5.403c-0.404 0.992-0.625 1.507-1.47 1.507h-1.471c-0.698 0-0.992-0.515-0.992-0.882 0-0.331 0.22-0.846 0.478-1.471l9.006-22.313c0.331-0.846 0.882-1.396 1.875-1.396h0.698c0.993 0 1.544 0.551 1.875 1.396l8.933 22.313c0.257 0.625 0.478 1.14 0.478 1.471 0 0.367-0.294 0.882-0.992 0.882zm-9.19-20.806-4.264 10.55h8.491z"/>
	<path id="h" d="m280.37 296.9c-0.845 0-1.25-0.11-1.911-1.029l-13.601-18.894v18.526c0 0.882-0.478 1.396-1.396 1.396h-0.809c-0.919 0-1.397-0.515-1.397-1.396v-23.269c0-0.882 0.478-1.396 1.397-1.396h0.919c0.845 0 1.25 0.11 1.911 1.029l13.601 18.894v-18.526c0-0.882 0.478-1.396 1.397-1.396h0.809c0.919 0 1.397 0.515 1.397 1.396v23.268c0 0.882-0.478 1.396-1.397 1.396h-0.92z"/>
	<path id="i" d="m309.08 296.9c-0.846 0-1.066-0.515-1.471-1.507l-2.168-5.403h-11.138l-2.168 5.403c-0.404 0.992-0.625 1.507-1.47 1.507h-1.471c-0.698 0-0.992-0.515-0.992-0.882 0-0.331 0.221-0.846 0.478-1.471l9.006-22.313c0.331-0.846 0.882-1.396 1.875-1.396h0.698c0.993 0 1.544 0.551 1.875 1.396l8.933 22.313c0.257 0.625 0.478 1.14 0.478 1.471 0 0.367-0.294 0.882-0.992 0.882zm-9.19-20.806-4.264 10.55h8.491z"/>
	<path id="j" d="m318.82 296.9c-0.919 0-1.397-0.515-1.397-1.396v-23.269c0-0.882 0.478-1.396 1.397-1.396h0.809c0.919 0 1.396 0.515 1.396 1.396v21.21h11.102c0.882 0 1.396 0.478 1.396 1.396v0.662c0 0.919-0.515 1.396-1.396 1.396h-13.307z"/>
	<path id="k" d="m340.96 296.9c-0.919 0-1.397-0.515-1.397-1.396v-23.269c0-0.919 0.515-1.396 1.397-1.396h12.865c0.882 0 1.396 0.478 1.396 1.396v0.662c0 0.919-0.515 1.396-1.396 1.396h-10.66v7.866h9.006c0.883 0 1.397 0.478 1.397 1.396v0.662c0 0.919-0.515 1.396-1.397 1.396h-9.006v7.83h10.844c0.883 0 1.397 0.478 1.397 1.396v0.662c0 0.919-0.515 1.396-1.397 1.396h-13.049z"/>
	<path id="l" d="m381.58 296.9c-0.846 0-1.25-0.11-1.912-1.029l-13.601-18.894v18.526c0 0.882-0.478 1.396-1.396 1.396h-0.809c-0.919 0-1.397-0.515-1.397-1.396v-23.269c0-0.882 0.479-1.396 1.397-1.396h0.919c0.846 0 1.25 0.11 1.911 1.029l13.601 18.894v-18.526c0-0.882 0.478-1.396 1.396-1.396h0.81c0.919 0 1.396 0.515 1.396 1.396v23.268c0 0.882-0.478 1.396-1.396 1.396h-0.919z"/>
</g>
</svg>
