<?xml version="1.0" encoding="UTF-8"?>
<!-- Generator: Adobe Illustrator 22.1.0, SVG Export Plug-In . SVG Version: 6.00 Build 0)  -->
<svg id="Lager_1" width="117.4" height="47.289" version="1.1" viewBox="0 0 117.4 47.289" xml:space="preserve" xmlns="http://www.w3.org/2000/svg" xmlns:cc="http://creativecommons.org/ns#" xmlns:dc="http://purl.org/dc/elements/1.1/" xmlns:rdf="http://www.w3.org/1999/02/22-rdf-syntax-ns#"><defs id="defs14"><clipPath id="clipPath20928"><path id="path20926" d="m468.54 168.41h30.261v9.598h-30.261z"/></clipPath></defs><metadata id="metadata21"><rdf:RDF><cc:Work rdf:about=""><dc:format>image/svg+xml</dc:format><dc:type rdf:resource="http://purl.org/dc/dcmitype/StillImage"/><dc:title/></cc:Work></rdf:RDF></metadata>
<g id="g20922" transform="matrix(4.927 0 0 -4.927 -2308.5 877.06)" fill="#fff"><g id="g20924" clip-path="url(#clipPath20928)" fill="#fff"><g id="g20938" transform="translate(470.92 168.41)"><path id="path20940" d="m0 0c-0.108 0-0.164 0.06-0.244 0.158l-1.04 1.289-0.266-0.282v-0.937c0-0.143-0.085-0.228-0.228-0.228h-0.101c-0.143 0-0.229 0.085-0.229 0.228v2.916c0 0.143 0.086 0.228 0.229 0.228h0.101c0.143 0 0.228-0.085 0.228-0.228v-1.216l1.217 1.289c0.086 0.091 0.155 0.155 0.264 0.155h0.18c0.092 0 0.191-0.06 0.191-0.191 0-0.052-0.018-0.095-0.053-0.13l-1.146-1.2 1.21-1.535c0.044-0.055 0.049-0.1 0.049-0.129 0-0.107-0.083-0.187-0.192-0.187z" fill="#fff"/></g><g id="g20942" transform="translate(473.88 169.8)"><path id="path20944" d="m0 0-0.452 1.127-0.455-1.127zm0.7-1.391c-0.143 0-0.183 0.098-0.233 0.222l-0.259 0.644h-1.324l-0.258-0.644c-0.051-0.124-0.09-0.222-0.233-0.222h-0.185c-0.111 0-0.177 0.083-0.177 0.163 0 0.05 0.025 0.112 0.058 0.19l1.134 2.81c0.054 0.138 0.15 0.209 0.284 0.209h0.088c0.134 0 0.23-0.07 0.284-0.209l1.124-2.808c0.033-0.079 0.059-0.142 0.059-0.192 0-0.08-0.066-0.163-0.177-0.163z" fill="#fff"/></g><g id="g20946" transform="translate(478.23 168.41)"><path id="path20948" d="m0 0c-0.123 0-0.189 0.021-0.283 0.151l-1.608 2.234v-2.157c0-0.143-0.085-0.228-0.228-0.228h-0.101c-0.143 0-0.228 0.085-0.228 0.228v2.916c0 0.143 0.085 0.228 0.228 0.228h0.115c0.123 0 0.189-0.021 0.283-0.151l1.608-2.234v2.157c0 0.143 0.085 0.228 0.228 0.228h0.101c0.143 0 0.228-0.085 0.228-0.228v-2.916c0-0.143-0.085-0.228-0.228-0.228z" fill="#fff"/></g><g id="g20950" transform="translate(481.36 169.8)"><path id="path20952" d="m0 0-0.452 1.127-0.455-1.127zm0.7-1.391c-0.143 0-0.183 0.098-0.233 0.222l-0.259 0.644h-1.324l-0.258-0.644c-0.051-0.124-0.091-0.222-0.234-0.222h-0.184c-0.111 0-0.177 0.083-0.177 0.163 0 0.05 0.026 0.113 0.058 0.192l1.134 2.809c0.054 0.137 0.15 0.208 0.284 0.208h0.088c0.134 0 0.23-0.07 0.284-0.209l1.124-2.808c0.033-0.079 0.059-0.142 0.059-0.192 0-0.08-0.066-0.163-0.177-0.163z" fill="#fff"/></g><g id="g20954" transform="translate(483.53 168.41)"><path id="path20956" d="m0 0c-0.143 0-0.228 0.085-0.228 0.228v2.916c0 0.143 0.085 0.228 0.228 0.228h0.101c0.143 0 0.229-0.085 0.229-0.228v-2.605h1.338c0.142 0 0.228-0.085 0.228-0.228v-0.083c0-0.143-0.086-0.228-0.228-0.228z" fill="#fff"/></g><g id="g20958" transform="translate(486.47 168.41)"><path id="path20960" d="m0 0c-0.143 0-0.228 0.085-0.228 0.228v2.916c0 0.143 0.085 0.228 0.228 0.228h1.612c0.143 0 0.228-0.085 0.228-0.228v-0.083c0-0.143-0.085-0.228-0.228-0.228h-1.283v-0.88h1.076c0.143 0 0.228-0.085 0.228-0.228v-0.083c0-0.143-0.085-0.228-0.228-0.228h-1.076v-0.875h1.306c0.143 0 0.228-0.085 0.228-0.228v-0.083c0-0.143-0.085-0.228-0.228-0.228z" fill="#fff"/></g><g id="g20962" transform="translate(491.8 168.41)"><path id="path20964" d="m0 0c-0.123 0-0.189 0.021-0.283 0.151l-1.608 2.234v-2.157c0-0.143-0.085-0.228-0.228-0.228h-0.101c-0.143 0-0.228 0.085-0.228 0.228v2.916c0 0.143 0.085 0.228 0.228 0.228h0.115c0.122 0 0.189-0.021 0.282-0.151l1.609-2.234v2.157c0 0.143 0.085 0.228 0.228 0.228h0.101c0.143 0 0.228-0.085 0.228-0.228v-2.916c0-0.143-0.085-0.228-0.228-0.228z" fill="#fff"/></g><g id="g20966" transform="translate(469.99 175)"><path id="path20968" d="m0 0c-0.713 0.193-1.311 0.642-1.311 1.442 0 0.842 0.663 1.57 1.707 1.57 0.9 0 1.354-0.543 1.498-0.885 0.036-0.086 0.072-0.179 0.072-0.264 0-0.136-0.079-0.2-0.31-0.279l-0.187-0.064c-0.288-0.1-0.331-0.064-0.475 0.178-0.087 0.143-0.223 0.357-0.591 0.357-0.403 0-0.684-0.257-0.684-0.563 0-0.265 0.202-0.45 0.483-0.521l0.497-0.129c0.885-0.228 1.382-0.756 1.382-1.463 0-0.792-0.619-1.584-1.779-1.584-1.116 0-1.533 0.735-1.685 1.156-0.043 0.121-0.057 0.193-0.057 0.25 7e-3 0.142 0.086 0.207 0.317 0.278l0.194 0.057c0.266 0.079 0.338 0.079 0.468-0.193 0.159-0.328 0.31-0.592 0.771-0.592 0.475 0 0.741 0.286 0.741 0.585 0 0.229-0.158 0.421-0.576 0.536z" fill="#fff"/></g><g id="g20970" transform="translate(475.15 175.67)"><path id="path20972" d="m0 0c0.461 0 0.684 0.335 0.684 0.657 0 0.328-0.223 0.663-0.734 0.663h-0.908v-1.32zm-1.606-2.798c-0.281 0-0.36 0.086-0.36 0.343v4.375c0 0.257 0.079 0.342 0.36 0.342h1.685c0.9 0 1.628-0.721 1.628-1.605 0-0.878-0.728-1.599-1.628-1.599h-1.037v-1.513c0-0.257-0.086-0.343-0.367-0.343z" fill="#fff"/></g><g id="g20974" transform="translate(481.79 175.4)"><path id="path20976" d="m0 0c0 0.913-0.727 1.656-1.613 1.656-0.893 0-1.613-0.743-1.613-1.656s0.72-1.649 1.613-1.649c0.886 0 1.613 0.736 1.613 1.649m-1.613-2.605c-1.455 0-2.643 1.163-2.643 2.605s1.188 2.612 2.643 2.612 2.643-1.17 2.643-2.612-1.188-2.605-2.643-2.605" fill="#fff"/></g><g id="g20978" transform="translate(485.85 175.67)"><path id="path20980" d="m0 0c0.461 0 0.684 0.335 0.684 0.657 0 0.328-0.223 0.663-0.734 0.663h-0.908v-1.32zm1.08-2.798c-0.18 0-0.273 0.086-0.317 0.236l-0.259 0.906c-0.101 0.343-0.396 0.714-0.886 0.714h-0.576v-1.513c0-0.257-0.086-0.343-0.367-0.343h-0.281c-0.281 0-0.36 0.086-0.36 0.343v4.375c0 0.257 0.079 0.342 0.36 0.342h1.685c0.9 0 1.628-0.721 1.628-1.605 0-0.514-0.332-1.014-0.843-1.271 0.331-0.185 0.511-0.457 0.612-0.799l0.238-0.814c0.036-0.121 0.072-0.242 0.072-0.335 0-0.171-0.13-0.236-0.367-0.236z" fill="#fff"/></g><g id="g20982" transform="translate(490.29 172.87)"><path id="path20984" d="m0 0c-0.281 0-0.36 0.086-0.36 0.343v3.775h-1.08c-0.26 0-0.346 0.085-0.346 0.364v0.221c0 0.278 0.086 0.357 0.346 0.357h3.176c0.259 0 0.345-0.079 0.345-0.357v-0.221c0-0.279-0.086-0.364-0.345-0.364h-1.088v-3.775c0-0.257-0.086-0.343-0.367-0.343z" fill="#fff"/></g></g></g></svg>
