<svg id="a" width="613.16" height="579.47" version="1.1" viewBox="0 0 162.23 153.32" xmlns="http://www.w3.org/2000/svg">
 <g id="b" transform="translate(24.964 -2.0001)">
  <g id="c" transform="matrix(6.4583 0 0 -6.4583 -868.59 3099.3)" fill="#fff">
   <g id="d" transform="translate(139.92 462.32)">
    <path id="e" d="m0 0-1.648-4.419-1.648 4.419h-1.441l2.369-6.351h1.441l2.368 6.351z" fill="#fff"/>
   </g>
   <g id="f" transform="translate(131.68 457.84)">
    <path id="g" d="m0 0-1.052-0.763c0.409-0.606 1.229-1.243 2.331-1.243 1.237 0 2.206 0.759 2.206 1.94 0 0.771-0.45 1.36-1.374 1.784-0.128 0.058-0.652 0.292-0.753 0.335-0.487 0.205-0.723 0.436-0.723 0.712 0 0.287 0.224 0.564 0.681 0.564 0.32 0 0.614-0.15 0.894-0.46l1 0.725c-0.399 0.614-1.14 0.995-1.935 0.995-1.052 0-1.977-0.678-1.977-1.819 0-0.792 0.451-1.406 1.372-1.8 0.27-0.115 0.459-0.195 0.671-0.286 0.304-0.13 0.795-0.334 0.795-0.77 0-0.434-0.429-0.659-0.894-0.659-0.419 0-0.861 0.266-1.242 0.745" fill="#fff"/>
   </g>
   <g id="h" transform="translate(144.04 457.13)">
    <path id="i" d="m0 0c-0.308 0-0.565 0.185-0.703 0.449-0.104 0.199-0.108 0.518-0.108 0.788v2.637h1.469l0.49 1.316h-1.959v1.813h-1.344v-5.971c2e-3 -0.278 0.016-0.531 0.121-0.863 0.293-0.848 1.085-1.457 2.034-1.457 0.542 0 1.099 0.208 1.508 0.592l-0.843 0.963c-0.177-0.156-0.422-0.267-0.665-0.267" fill="#fff"/>
   </g>
   <g id="j" transform="translate(150.43 459.04)">
    <path id="k" d="m0 0c0.311 0.404 0.489 0.88 0.489 1.362 0 0.557-0.225 1.071-0.634 1.449-0.395 0.363-0.917 0.564-1.471 0.564-0.581 0-1.087-0.191-1.461-0.552-0.36-0.347-0.585-0.835-0.649-1.414l-0.014-0.113h1.307l4e-3 0.061c0.029 0.437 0.385 0.779 0.813 0.779 0.445 0 0.836-0.376 0.836-0.805 0-0.276-0.23-0.567-0.445-0.844l-2.691-3.562h4.477v1.277h-1.951z" fill="#fff"/>
   </g>
   <g id="l" transform="translate(154.42 459.76)">
    <path id="m" d="m0 0v-1.252h-1.285l1.425 3.807h-1.423l-1.876-5.02h3.159v-1.334h1.324v3.799z" fill="#fff"/>
   </g>
  </g>
  <g id="n" transform="matrix(9.6209 0 0 -9.6209 -648.78 4278.9)">
   <g id="o" transform="translate(75.058 439.96)">
    <path id="p" d="m0 0h-0.175v0.856h0.175c0.284 0 0.415-0.145 0.415-0.441 0-0.277-0.131-0.415-0.415-0.415m2.257-2.049c-1e-3 4e-3 -3e-3 0.01-5e-3 0.015-4e-3 0.013-0.01 0.027-0.017 0.039l-0.723 1.416c0.313 0.247 0.518 0.603 0.518 1.073 0 0.916-0.518 1.41-1.849 1.41h-1.758c-0.117-1e-3 -0.213-0.096-0.213-0.213v-3.791c0-0.118 0.096-0.214 0.214-0.214h1.236c0.117 0 0.212 0.095 0.213 0.213v1.095h0.181l0.564-1.176 3e-3 -6e-3c0.033-0.074 0.107-0.126 0.194-0.126h1.236c0.118 0 0.213 0.096 0.213 0.214 0 0.013-2e-3 0.024-4e-3 0.036 0 5e-3 -1e-3 0.01-3e-3 0.015" fill="#ee253d"/>
   </g>
   <g id="q" transform="translate(81.33 441.87)">
    <path id="r" d="m0 0h-0.908c-0.117-1e-3 -0.212-0.095-0.212-0.213v-1.612h-0.018l-0.924 1.724c-0.038 0.06-0.103 0.1-0.179 0.101h-1.294c-0.116-1e-3 -0.212-0.096-0.212-0.213v-3.792c0-0.116 0.096-0.213 0.213-0.213h0.905c0.118 0 0.213 0.097 0.213 0.213v1.824h0.019l1.026-1.905 0.02-0.038c0.038-0.056 0.104-0.094 0.177-0.094h1.172c0.118 0 0.213 0.097 0.213 0.213v3.792c0 0.117-0.094 0.212-0.211 0.213" fill="#ee253d"/>
   </g>
   <g id="s" transform="translate(72.243 437.15)">
    <path id="t" d="m0 0h-0.523c-0.066 0-0.121-0.055-0.121-0.122v-0.928h-0.01l-0.532 0.992c-0.021 0.035-0.06 0.058-0.103 0.058h-0.744c-0.068 0-0.122-0.055-0.122-0.123v-2.18c0-0.068 0.055-0.123 0.123-0.123h0.52c0.067 0 0.123 0.055 0.123 0.123v1.048h0.01l0.59-1.095 0.012-0.023c0.022-0.032 0.059-0.053 0.101-0.053h0.675c0.068 0 0.123 0.055 0.123 0.123v2.18c0 0.068-0.054 0.123-0.122 0.123" fill="#ee253d"/>
   </g>
   <g id="u" transform="translate(81.367 437.17)">
    <path id="v" d="m0 0h-0.523c-0.066-1e-3 -0.121-0.055-0.121-0.122v-0.928h-0.01l-0.532 0.992c-0.021 0.035-0.06 0.058-0.103 0.058h-0.744c-0.068-1e-3 -0.122-0.055-0.122-0.123v-2.18c0-0.068 0.055-0.123 0.122-0.123h0.521c0.067 0 0.123 0.055 0.123 0.123v1.048h0.01l0.59-1.095 0.012-0.023c0.022-0.032 0.059-0.053 0.101-0.053h0.675c0.068 0 0.123 0.055 0.123 0.123v2.18c0 0.068-0.055 0.122-0.122 0.123" fill="#ee253d"/>
   </g>
   <g id="w" transform="translate(67.322 434.87)">
    <path id="x" d="m0 0-6e-3 0.021-0.705 1.31 0.594 0.747v1e-3c0.016 0.021 0.027 0.048 0.027 0.076 0 0.068-0.054 0.122-0.121 0.123h-0.671c-0.037-1e-3 -0.07-0.018-0.093-0.044l-1e-3 -1e-3 -6e-3 -8e-3 -1e-3 -1e-3 -0.542-0.737v0.668l-1e-3 1e-3c-1e-3 0.067-0.054 0.121-0.122 0.122h-0.711c-0.068-1e-3 -0.123-0.055-0.123-0.123v-2.181c0-0.068 0.055-0.122 0.123-0.122h0.711c0.068 0 0.122 0.054 0.123 0.122v0.626l0.09 0.108 0.422-0.795h1e-3c0.021-0.037 0.06-0.061 0.105-0.061h0.788c0.066 0 0.122 0.054 0.122 0.122 0 9e-3 -1e-3 0.018-3e-3 0.026" fill="#ee253d"/>
   </g>
   <g id="y" transform="translate(76.911 435.37)">
    <path id="z" d="m0 0c-7e-3 1e-3 -0.014 3e-3 -0.022 3e-3 -7e-3 0-0.015 1e-3 -0.022 0h-0.694v1.663c1e-3 2e-3 1e-3 6e-3 1e-3 9e-3 0 4e-3 0 7e-3 -1e-3 0.01-5e-3 0.063-0.056 0.111-0.119 0.113h-0.716c-0.068-1e-3 -0.121-0.055-0.121-0.122l-1e-3 -1e-3h1e-3v-2.18l-1e-3 -1e-3 1e-3 -1e-3c0-0.067 0.055-0.122 0.122-0.122h1.55c0.068 0 0.123 0.056 0.123 0.123v0.387c0 0.061-0.044 0.108-0.101 0.119" fill="#ee253d"/>
   </g>
   <g id="aa" transform="translate(78.933 435.35)">
    <path id="ab" d="m0 0v1e-3h-0.793v0.308h0.457c4e-3 0 9e-3 -1e-3 0.013-1e-3 5e-3 0 9e-3 1e-3 0.014 1e-3 0.061 7e-3 0.108 0.058 0.109 0.121v0.349c-1e-3 0.067-0.054 0.122-0.12 0.122h-0.473v0.281h0.769l1e-3 1e-3c0.062 2e-3 0.113 0.052 0.118 0.113v0.404c-5e-3 0.062-0.056 0.112-0.119 0.114h-1.605c-0.067-2e-3 -0.12-0.057-0.12-0.123v-2.181c0-0.068 0.055-0.123 0.123-0.123h1.626c0.067 0 0.122 0.055 0.122 0.123v0.368c0 0.067-0.054 0.122-0.122 0.122" fill="#ee253d"/>
   </g>
   <g id="ac" transform="translate(70.379 439.42)">
    <path id="ad" d="m0 0 0.295 1.126h0.019l0.283-1.126zm1.442 2.27-0.011 0.03c-0.027 0.083-0.106 0.145-0.2 0.146h-1.593c-0.093 0-0.172-0.06-0.201-0.143l-1.19-3.756-8e-3 -0.021-2e-3 -5e-3c-0.01-0.025-0.016-0.051-0.016-0.079 0-0.117 0.096-0.214 0.213-0.214h0.943c0.103 0 0.189 0.073 0.209 0.171l0.13 0.51h1.152l0.128-0.501 8e-3 -0.026c0.027-0.089 0.107-0.154 0.203-0.154h1.256l1e-3 1e-3c0.117 0 0.212 0.096 0.212 0.213 0 0.021-4e-3 0.04-9e-3 0.059z" fill="#ee253d"/>
   </g>
   <g id="ae" transform="translate(68.426 435.74)">
    <path id="af" d="m0 0 0.169 0.648h0.011l0.163-0.648zm0.829 1.306-6e-3 0.017c-0.016 0.048-0.061 0.084-0.115 0.084h-0.916c-0.054 0-0.099-0.034-0.116-0.082l-0.684-2.161-5e-3 -0.012-2e-3 -3e-3c-5e-3 -0.014-9e-3 -0.029-9e-3 -0.045 0-0.068 0.056-0.123 0.123-0.123h0.543c0.059 0 0.108 0.043 0.12 0.098l0.075 0.294h0.662l0.074-0.288 5e-3 -0.016c0.015-0.051 0.061-0.088 0.117-0.088h0.722v1e-3c0.068 0 0.123 0.054 0.123 0.122 0 0.011-3e-3 0.023-5e-3 0.034z" fill="#ee253d"/>
   </g>
   <g id="ag" transform="translate(73.523 435.74)">
    <path id="ah" d="m0 0 0.169 0.648h0.011l0.163-0.648zm0.829 1.306-6e-3 0.017c-0.016 0.048-0.061 0.084-0.115 0.084h-0.917c-0.053 0-0.099-0.034-0.115-0.082l-0.684-2.161-5e-3 -0.012-2e-3 -3e-3c-5e-3 -0.014-9e-3 -0.029-9e-3 -0.045 0-0.068 0.056-0.123 0.123-0.123h0.543c0.058 0 0.108 0.043 0.12 0.098l0.075 0.294h0.662l0.073-0.288 6e-3 -0.016c0.015-0.051 0.061-0.088 0.117-0.088h0.722v1e-3c0.068 0 0.122 0.054 0.122 0.122 0 0.011-2e-3 0.023-5e-3 0.034z" fill="#ee253d"/>
   </g>
   <g id="ai" transform="translate(66.617 438.59)">
    <path id="aj" d="m0 0h-0.144v0.759h0.144c0.247 0 0.391-0.096 0.391-0.374 0-0.277-0.144-0.385-0.391-0.385m-0.144 2.308h0.144c0.234 0 0.35-0.114 0.35-0.337s-0.121-0.338-0.356-0.338h-0.138zm1.222-1.055v0.024c0.507 0.139 0.79 0.373 0.79 0.904 0 0.735-0.591 1.097-1.759 1.097h-1.673c-0.118 0-0.213-0.097-0.213-0.214v-3.791c0-0.117 0.095-0.213 0.213-0.213h1.673c1.18 0 1.909 0.398 1.909 1.205 0 0.572-0.337 0.891-0.94 0.988" fill="#ee253d"/>
   </g>
   <g id="ak" transform="translate(79.844 442.23)">
    <path id="al" d="m0 0 0.671 1.799h-0.408l-0.467-1.252-0.467 1.252h-0.408l0.671-1.799z" fill="#ee253d"/>
   </g>
   <g id="am" transform="translate(78.125 442.55)">
    <path id="an" d="m0 0c-0.119 0-0.244 0.075-0.352 0.21l-0.298-0.215c0.116-0.172 0.349-0.353 0.661-0.353 0.35 0 0.624 0.215 0.624 0.55 0 0.219-0.127 0.386-0.389 0.505-0.036 0.017-0.185 0.083-0.213 0.095-0.138 0.059-0.205 0.124-0.205 0.202 0 0.081 0.063 0.16 0.192 0.16 0.091 0 0.174-0.043 0.255-0.13l0.282 0.205c-0.112 0.174-0.323 0.281-0.548 0.281-0.298 0-0.56-0.191-0.56-0.514 0-0.225 0.127-0.399 0.389-0.51 0.076-0.033 0.13-0.055 0.19-0.081 0.086-0.038 0.225-0.096 0.225-0.219s-0.121-0.186-0.253-0.186" fill="#ee253d"/>
   </g>
   <g id="ao" transform="translate(81.275 442.19)">
    <path id="ap" d="m0 0c0.153 0 0.311 0.059 0.427 0.168l-0.239 0.272c-0.05-0.044-0.119-0.075-0.188-0.075-0.087 0-0.161 0.052-0.199 0.127-0.029 0.056-0.031 0.146-0.031 0.223v0.747h0.416l0.139 0.372h-0.555v0.515h-0.381v-1.692c1e-3 -0.078 5e-3 -0.151 0.035-0.244 0.083-0.24 0.308-0.413 0.576-0.413" fill="#ee253d"/>
   </g>
  </g>
 </g>
</svg>
