<svg width="800" height="161.97" version="1.1" viewBox="0 0 800 161.97" xmlns="http://www.w3.org/2000/svg">
 <link href="" rel="stylesheet" type="text/css"/>
 <style type="text/css"/>
 <g transform="matrix(.53569 0 0 .53569 0 -.20356)" fill-rule="evenodd">
  <path d="m338.78 66.516-60.09 161.15-60.088-161.15h-52.547l86.364 231.61h52.545l86.364-231.61zm-300.42 163.07-38.358 27.836c14.9 22.085 44.817 45.32 84.985 45.32 45.152 0 80.45-27.685 80.45-70.744 0-28.147-16.39-49.609-50.103-65.066-4.644-2.13-23.782-10.639-27.454-12.189-17.742-7.496-26.365-15.909-26.365-25.992 0-10.462 8.15-20.57 24.834-20.57 11.675 0 22.372 5.492 32.631 16.768l36.466-26.464c-14.55-22.356-41.588-36.242-70.588-36.242-38.373 0-72.1 24.727-72.1 66.297 0 28.911 16.423 51.295 50.03 65.663 9.837 4.207 16.732 7.132 24.488 10.445 11.087 4.735 29.004 12.204 29.004 28.054 0 15.837-15.678 24.028-32.624 24.028-15.286 0-31.397-9.67-45.296-27.144m450.78 26.19c-11.208 0-20.624-6.77-25.62-16.375-3.794-7.284-3.94-18.869-3.94-28.723v-96.185h53.553l17.89-47.98h-71.443v-66.133h-49.034v217.78c0.055 10.094 0.583 19.327 4.404 31.445 10.666 30.92 39.586 53.14 74.189 53.14 19.789 0 40.075-7.606 54.984-21.576l-30.71-35.105c-6.482 5.67-15.436 9.715-24.274 9.715m317.99-22.519c0-26.065-18.017-45.692-51.483-45.692h-66.609v92.35h66.929c33.788 0 51.162-19.63 51.162-46.658zm-118.09-60.172h56.311c33.465 0 51.163-18.02 51.163-45.05 0-26.705-17.377-43.117-50.84-43.117h-56.634zm137.4 60.172c0 40.222-28.318 61.78-73.687 61.78h-83.02v-225.24h72.4c46.658 0 73.365 20.916 73.365 58.241 0 27.675-17.697 44.729-35.717 50.199 28.64 5.468 46.658 27.35 46.658 55.023zm176.96-18.985-48.266-125.49-48.267 125.49zm5.792 15.122h-108.12l-25.097 65.643h-19.308l84.306-215.59c2.573-6.435 5.149-9.653 11.583-9.653h5.791c6.115 0 9.012 3.541 11.585 9.975l84.628 215.27h-19.95zm111.3-34.428h67.893c29.604 0 53.736-20.916 53.736-55.023 0-34.109-24.132-55.025-53.736-55.025h-67.893zm89.13 13.191 51.164 86.88h-21.881l-49.555-84.949h-68.858v84.949h-19.308v-225.24h92.028c37.004 0 68.217 29.925 68.217 70.149 0 34.107-22.203 60.814-51.807 68.214zm283.78-138.36v215.91c0 6.76-2.576 9.333-8.048 9.333h-3.537c-6.436 0-9.01-0.964-14.804-9.333l-130.96-188.56v197.89h-18.02v-225.24h19.949l137.4 198.21v-198.21h18.02z"/>
 </g>
</svg>
