<svg id="a" width="799.83" height="202.57" version="1.1" viewBox="0 0 211.62 53.597" xmlns="http://www.w3.org/2000/svg">
 <g id="b" transform="matrix(6.4583 0 0 -6.4583 84.939 2810.2)">
  <g id="c" transform="translate(-143.78,-29.009)">
   <g id="d" transform="translate(139.92,462.32)">
    <path id="e" d="m0 0-1.648-4.419-1.648 4.419h-1.441l2.369-6.351h1.441l2.368 6.351z" fill="#231f20"/>
   </g>
   <g id="f" transform="translate(131.68,457.84)">
    <path id="g" d="m0 0-1.052-0.763c0.409-0.606 1.229-1.243 2.331-1.243 1.237 0 2.206 0.759 2.206 1.94 0 0.771-0.45 1.36-1.374 1.784-0.128 0.058-0.652 0.292-0.753 0.335-0.487 0.205-0.723 0.436-0.723 0.712 0 0.287 0.224 0.564 0.681 0.564 0.32 0 0.614-0.15 0.894-0.46l1 0.725c-0.399 0.614-1.14 0.995-1.935 0.995-1.052 0-1.977-0.678-1.977-1.819 0-0.792 0.451-1.406 1.372-1.8 0.27-0.115 0.459-0.195 0.671-0.286 0.304-0.13 0.795-0.334 0.795-0.77 0-0.434-0.429-0.659-0.894-0.659-0.419 0-0.861 0.266-1.242 0.745" fill="#231f20"/>
   </g>
   <g id="h" transform="translate(144.04,457.13)">
    <path id="i" d="m0 0c-0.308 0-0.565 0.185-0.703 0.449-0.104 0.199-0.108 0.518-0.108 0.788v2.637h1.469l0.49 1.316h-1.959v1.813h-1.344v-5.971c2e-3 -0.278 0.016-0.531 0.121-0.863 0.293-0.848 1.085-1.457 2.034-1.457 0.542 0 1.099 0.208 1.508 0.592l-0.843 0.963c-0.177-0.156-0.422-0.267-0.665-0.267" fill="#231f20"/>
   </g>
   <g id="j" transform="translate(150.43,459.04)">
    <path id="k" d="m0 0c0.311 0.404 0.489 0.88 0.489 1.362 0 0.557-0.225 1.071-0.634 1.449-0.395 0.363-0.917 0.564-1.471 0.564-0.581 0-1.087-0.191-1.461-0.552-0.36-0.347-0.585-0.835-0.649-1.414l-0.014-0.113h1.307l4e-3 0.061c0.029 0.437 0.385 0.779 0.813 0.779 0.445 0 0.836-0.376 0.836-0.805 0-0.276-0.23-0.567-0.445-0.844l-2.691-3.562h4.477v1.277h-1.951z" fill="#231f20"/>
   </g>
   <g id="l" transform="translate(154.42,459.76)">
    <path id="m" d="m0 0v-1.252h-1.285l1.425 3.807h-1.423l-1.876-5.02h3.159v-1.334h1.324v3.799z" fill="#231f20"/>
   </g>
  </g>
  <g id="n" transform="translate(-143.78,-29.009)">
   <g id="o" transform="translate(159.94,462.32)">
    <path id="p" d="m0 0v-3.317h-0.417v1.517h-1.668v-1.517h-0.417v3.317h0.417v-1.469h1.668v1.469z" fill="#231f20"/>
   </g>
   <g id="q" transform="translate(162.98,460.98)">
    <path id="r" d="m0 0c0 0.526-0.266 1-1.009 1h-0.782v-2.653h0.782c0.743 0 1.009 0.473 1.009 0.999zm0.416-0.019v-0.616c0-0.749-0.496-1.35-1.368-1.35h-1.256v3.316h1.256c0.872 0 1.368-0.602 1.368-1.35" fill="#231f20"/>
   </g>
  </g>
 </g>
</svg>
