<svg id="e" width="1500pt" height="741.51pt" version="1.1" viewBox="0 0 1500 741.51" xmlns="http://www.w3.org/2000/svg" xmlns:xlink="http://www.w3.org/1999/xlink">
 <defs id="f">
  <radialGradient id="c" cx="549.3" cy="467.1" r="107" gradientTransform="matrix(.75 0 0 .76335 898.97 -900.73)" gradientUnits="userSpaceOnUse" xlink:href="#a"/>
  <linearGradient id="a">
   <stop id="g" stop-color="#1d64b1" offset="0"/>
   <stop id="h" stop-color="#224699" offset="1"/>
  </linearGradient>
  <radialGradient id="b" cx="328.1" cy="467.1" r="107" gradientTransform="matrix(.75 0 0 .76335 898.97 -900.73)" gradientUnits="userSpaceOnUse">
   <stop id="i" stop-color="#ed2239" offset="0"/>
   <stop id="j" stop-color="#c0202e" offset="1"/>
  </radialGradient>
  <radialGradient id="d" cx="107" cy="467.1" r="107" gradientTransform="matrix(.75 0 0 .76335 898.97 -900.73)" gradientUnits="userSpaceOnUse" xlink:href="#a"/>
 </defs>
 <g id="k" transform="matrix(.75866 0 0 .75866 -37.944 519.25)" fill="#a8a8a8">
  <path id="l" transform="scale(.75)" d="m756.79 31.086a181.48 179.76 0 0 0-181.48 179.76 181.48 179.76 0 0 0 181.48 179.76 181.48 179.76 0 0 0 181.48-179.76 181.48 179.76 0 0 0-181.48-179.76zm0 78.174a102.56 101.59 0 0 1 102.56 101.59 102.56 101.59 0 0 1-102.56 101.59 102.56 101.59 0 0 1-102.56-101.59 102.56 101.59 0 0 1 102.56-101.59z" style="paint-order:stroke fill markers"/>
  <path id="m" d="m1878.6 37.54c34.13-18.71 77.52-19.27 112.09-1.36 13.64 6.82 25.68 16.49 36.25 27.42l-41.71 43.13c-11-13.73-27.41-23.55-45.18-24.62-17.64-1.46-35.2 5.97-47.65 18.28-15 14.38-24.15 34.77-24.51 55.58-0.6 18.57 5.86 37.12 17.36 51.66 11.51 14.59 28.64 25.82 47.65 26.39 20.43 1.37 40.45-9.27 52.53-25.47l41.71 43.29c-10.82 11.27-23.21 21.16-37.25 28.12-35.28 17.9-79.52 16.72-113.75-3.15-32.64-18.25-56.24-51.24-64.06-87.7-4.43-20.66-4.38-42.26 0.14-62.89 8.16-37.19 32.72-70.66 66.38-88.68z"/>
  <path id="n" d="m50.015 25.52 164.02 122.36v-118.52h63.445v257.92l-163.87-131.48v130.8h-63.59z"/>
  <path id="o" d="m857.69 29.2h73.28c19.61 0.18 39.5 2.76 57.81 10.06 14.25 5.8 26.98 15.91 34.5 29.47 7.04 12.49 9.27 27.11 9.17 41.28-0.15 15.67-5.77 30.99-14.73 43.74-6.56 9.19-15.82 16.3-26.3 20.49l64 112.52h-74.15l-60.27-115.82v115.82h-63.31v-257.56m63.31 54.78v72.04c13.19-0.25 27.98-1.42 38.13-10.83 9.17-8.26 11.1-21.59 9.76-33.28-0.9-8.14-4.42-16.76-11.92-20.87-10.88-6.08-23.76-6.98-35.97-7.06z"/>
  <path id="p" d="m1209.1 29.035h90.915c18.16-0.07 36.45 2.825 53.39 9.515 28.82 11 54.31 31.72 68.88 59.15 20.61 37.1 20.44 84.93-0.78 121.74-22.67 41.13-69.02 66.425-115.45 67.415h-96.955v-257.82m65.915 54.965v148.42l25.279-0.44c3.3268-0.32799 10.379-0.89808 13.611-1.6921 28.404-6.9768 52.319-31.241 56.88-60.438 3.32-19.47-2-40.13-13.95-55.8-10.14-13.76-25.45-23.25-41.85-27.62-4.8319-1.3127-9.7347-2.4302-14.691-2.4302z"/>
  <path id="q" d="m1591.5 29.315h63.475v257.66h-63.475z"/>
 </g>
 <g id="r" transform="matrix(3.0474 0 0 3.0474 -2739.5 1907.2)" stroke-width=".75">
  <path id="s" class="st1" d="m1262.5-623.16" fill="#fff"/>
  <path id="t" class="st6" d="m910.82-613.34h136.72v39.75h-44.85v100.72h-46.95v-100.72h-44.925z" fill="#fff"/>
  <path id="u" class="st7" d="m1162.1-567.74v-0.375c0-6.45-5.025-9.6-15.075-9.6h-20.25v19.65h20.475c9.9-0.075 14.85-3.3 14.85-9.675m3.6 49.125v-0.375c0-3.075-1.275-5.55-3.825-7.425s-6.375-2.775-11.475-2.775h-23.7v20.85h23.475c5.1 0 8.925-0.9 11.55-2.775 2.7-1.95 3.975-4.425 3.975-7.5m47.4 6.825c0 5.625-1.125 10.8-3.45 15.525-2.25 4.725-5.7 8.85-10.275 12.375-4.575 3.45-10.2 6.225-17.025 8.1-6.75 1.95-14.55 2.925-23.4 2.925h-78v-140.48h78.675c9.75 0 17.85 1.05 24.15 3.225 6.375 2.175 11.625 5.25 15.75 9.45 2.55 2.55 4.65 5.625 6.225 9.225s2.4 7.8 2.4 12.675v0.375c0 8.4-2.25 15.225-6.825 20.4s-10.65 9.075-18.3 11.775c9.15 2.7 16.425 6.6 21.825 11.85s8.1 12.675 8.1 22.275v0.3z" fill="#fff"/>
  <path id="v" class="st6" d="m1334.6-613.34h46.575v140.48h-41.775l-52.2-64.8v64.8h-46.575v-140.48h43.95l49.95 62.025v-62.025z" fill="#fff"/>
  <path id="w" class="st1" d="m1262.5-623.16"/>
  <path id="x" class="st6" d="m910.82-613.34h136.72v39.75h-44.85v100.72h-46.95v-100.72h-44.925zm-11.85 150.82h160.5v-163.35h-160.5z" fill="url(#d)"/>
  <path id="y" class="st7" d="m1162.1-567.74v-0.375c0-6.45-5.025-9.6-15.075-9.6h-20.25v19.65h20.475c9.9-0.075 14.85-3.3 14.85-9.675m3.6 49.125v-0.375c0-3.075-1.275-5.55-3.825-7.425s-6.375-2.775-11.475-2.775h-23.7v20.85h23.475c5.1 0 8.925-0.9 11.55-2.775 2.7-1.95 3.975-4.425 3.975-7.5m47.4 6.825c0 5.625-1.125 10.8-3.45 15.525-2.25 4.725-5.7 8.85-10.275 12.375-4.575 3.45-10.2 6.225-17.025 8.1-6.75 1.95-14.55 2.925-23.4 2.925h-78v-140.48h78.675c9.75 0 17.85 1.05 24.15 3.225 6.375 2.175 11.625 5.25 15.75 9.45 2.55 2.55 4.65 5.625 6.225 9.225s2.4 7.8 2.4 12.675v0.375c0 8.4-2.25 15.225-6.825 20.4s-10.65 9.075-18.3 11.775c9.15 2.7 16.425 6.6 21.825 11.85s8.1 12.675 8.1 22.275v0.3zm12.15-114.08h-160.5v163.35h160.5z" fill="url(#b)"/>
  <path id="z" class="st6" d="m1334.6-613.34h46.575v140.48h-41.775l-52.2-64.8v64.8h-46.575v-140.48h43.95l49.95 62.025v-62.025zm-103.95 150.82h160.5v-163.35h-160.5z" fill="url(#c)"/>
 </g>
</svg>
