<svg version="1.1" viewBox="0 0 847.72 373.86" xmlns="http://www.w3.org/2000/svg">
 <defs>
  <style>.cls-1{fill:#19aaf8}</style>
 </defs>
 <g transform="matrix(.81217 0 0 .81217 .005121 -.021339)" data-name="Layer 2">
  <path class="cls-1" d="m252.71 140.78c7.16 1.1 8.6-0.34 9.55-7.11a162.59 162.59 0 0 1 13.91-45.61c9.36-19.25 24.28-40.41 45.14-54.57 17.57-11.78 46.36-24.82 68.69-29.55a166.92 166.92 0 0 1 50-3.32c30.13 2.71 46.8 11.3 55.16 22.41 3.11 4.15 4.8 9.28 4.87 12.59 0.24 5.53-2.17 12.74-10.11 19.83-7.73 6.82-24.22 15.45-46.71 23-23.34 7.77-55.23 16-87 23.28a496.38 496.38 0 0 0-54.42 15.63c-21 7.13-27.38 28.07-14.27 34.46 18.95 9.23 30.8 18.89 40.9 27.1 15.15 12.42 32.74 27 54.58 53.4 19.79 24.17 52.16 70.3 63.81 115.08 12.89 49.16 4.83 95.78-23 108.8-27.27 12.79-63.62-5.66-89.13-32.12-24.28-25.1-41.22-54.68-57.15-100.29-13.81-39.21-19.41-96.07-19.39-125.81 0-9.91-0.16-12 0.24-21 0.93-7.79-20.1-14.24-42.69 0.3-25.72 16.54-50.91 46.52-65.78 63.93-6.47 7.6-15.24 18.77-24.53 30.49-12.25 15.36-25.78 31.36-38.1 40.31-18.61 13.55-48.41 19.14-69.28 4.25-11.62-8.26-17.8-23.96-18-39.89a60.7 60.7 0 0 1 8.21-31.37c7-12.28 18.51-25.46 36.77-40.56 18.87-15.51 49-33 79.21-45.19 46.06-18.54 95.65-24.37 128.52-18.48z" fill="#19aaf8" data-name="Layer 1"/>
 </g>
 <g transform="translate(-753.07 -44.163)">
  <g transform="matrix(3.7395 0 0 3.7395 753.07 44.163)" fill-rule="evenodd">
   <g transform="translate(17.585 -86.84)">
    <path d="m94.192 125.46h-3.2844c-0.316 0-0.3161-0.5845-0.3161-1.0365 1e-4 -0.4515 0-1.0347 0.3161-1.0347h3.2844v-5.7688c0-0.268 0.7232-0.268 1.2199-0.268 0.5838 0 1.2185 0 1.2185 0.268v5.7688h5.6285c0.2699 0 0.2698 0.4953 0.2698 1.0347 1e-4 0.5419 0 1.0365-0.2699 1.0365h-5.6284v17.737c0 0.7204 0.0441 2.0722 1.8002 2.0722h3.7828c0.2716 0 0.2716 0.5415 0.2716 0.9871 0 0.4533 0 0.992-0.2717 0.992h-4.2804c-2.9246 0-3.7409-1.7568-3.7409-4.3236v-17.464z"/>
    <path d="m119.89 131.58c0-5.0776-3.2449-6.9702-6.7684-6.9702-3.4692 0-6.5345 1.8472-6.5345 6.9702l1e-4 2.4758h13.303zm-13.303 4.6845v2.339c0 5.0927 3.3774 7.0305 6.9355 7.0305 3.483-1e-4 5.6011-0.9928 7.3589-1.9378 0.2718-0.1345 0.585 0.4504 0.8086 0.8551 0.2269 0.4057 0.5394 0.992 0.2269 1.1733-2.2987 1.306-4.1473 2.0719-8.3051 2.0719-5.9426 0-9.4584-3.3345-9.4584-9.011l1e-4 -7.4793c0-5.8402 3.0183-8.9041 8.9679-8.9041 5.9542 0 9.1987 2.9739 9.1987 8.7708v5.0916h-15.733z"/>
    <path d="m126.1 142.93v-28.592c0-0.2702 0.7662-0.2701 1.2191-0.2701 0.4481-1e-4 1.2143 0 1.2143 0.2701v28.864c0 0.7204 0.0458 2.0722 1.8002 2.0722h1.5801c0.2685 0 0.2685 0.5415 0.2685 0.9871 0 0.4533 0 0.992-0.2685 0.992h-2.0747c-2.9269 0-3.7391-1.7568-3.739-4.3236z"/>
    <path d="m149.48 131.58c0-5.0776-3.2487-6.9702-6.8054-6.9702-3.4714 0-6.5328 1.8472-6.5328 6.9702v2.4758h13.338zm-13.338 4.6845v2.339c0 5.0927 3.3782 7.0305 6.9377 7.0305 3.5127-1e-4 5.6314-0.9928 7.3879-1.9378 0.2717-0.1345 0.5867 0.4504 0.8139 0.8551 0.2234 0.4057 0.5376 0.992 0.2233 1.1733-2.2962 1.306-4.1466 2.0719-8.3362 2.0719-5.9442 0-9.46-3.3345-9.46-9.011v-7.4793c0-5.8402 3.0197-8.9041 8.9662-8.9041 5.9916 0 9.2374 2.9739 9.2374 8.7708l1e-4 5.0916h-15.77z"/>
    <path d="m171.61 147.43c-0.4513 0-1.2151 0-1.2151-0.2692l1e-4 -15.993c0-5.0765-1.8948-6.5631-5.4064-6.5631-3.4724 0-6.8933 5.4356-6.8933 5.4356l1e-4 17.12c0 0.2692-0.7691 0.2692-1.2168 0.2692-0.4529 0-1.2192 0-1.2192-0.2692v-24.222c0-0.2713 0.7662-0.2712 1.2192-0.2712 0.4477-1e-4 1.1716 0 1.1716 0.2712v4.3254c0.8972-1.1726 3.0173-4.8669 7.5244-4.8669 4.6849 0 7.251 2.9288 7.251 7.5078v17.256c0 0.2692-0.7641 0.2692-1.2156 0.2692z"/>
    <path d="m185.89 124.61c-3.4681 0-6.9416 1.8472-6.9416 6.9702v7.0235c0 5.0927 3.4268 7.0305 6.9416 7.0305 3.5133-1e-4 7.0263-1.8475 7.0263-7.0305v-7.0235c0-5.0776-3.4665-6.9702-7.0263-6.9702zm-9.3729 14.399v-7.8359c0-5.842 3.4222-8.7708 9.3729-8.7708 5.9916 0 9.4258 2.9739 9.4258 8.7708l2e-4 7.8359c0 5.8145-3.4345 8.7877-9.426 8.7877-5.9507 0-9.373-2.9288-9.3729-8.7877z"/>
    <path d="m203.38 127.99c-1.0799 1.336-2.2074 2.9578-2.2074 2.9578v16.219c0 0.2692-0.7666 0.2692-1.2161 0.2692-0.4518 0-1.1715 0-1.1715-0.2692v-24.222c0-0.2713 0.7627-0.2712 1.2174-0.2712 0.4488-1e-4 1.1702 0 1.1702 0.2712v5.4511s1.2604-1.8012 1.7106-2.4334c1.7551-2.3866 2.8861-3.1972 5.0472-3.1972h0.9028c0.2703 0 0.2702 0.8544 0.2702 1.3056 1e-4 0.4501 0 1.3063-0.2703 1.3063-2.7054 0-3.5168 0.2262-5.4531 2.613z"/>
   </g>
  </g>
 </g>
</svg>
