<?xml version="1.0" encoding="UTF-8"?>
<svg id="Telia_Pebble_Icon_segments_RGB_x50" width="1397.8" height="477" data-name="Telia Pebble Icon segments RGB x50" version="1.1" viewBox="0 0 1397.8 477" xmlns="http://www.w3.org/2000/svg" xmlns:cc="http://creativecommons.org/ns#" xmlns:dc="http://purl.org/dc/elements/1.1/" xmlns:rdf="http://www.w3.org/1999/02/22-rdf-syntax-ns#">
 <metadata id="metadata150">
  <rdf:RDF>
   <cc:Work rdf:about="">
    <dc:format>image/svg+xml</dc:format>
    <dc:type rdf:resource="http://purl.org/dc/dcmitype/StillImage"/>
    <dc:title>26_pebble</dc:title>
   </cc:Work>
  </rdf:RDF>
 </metadata>
 <defs id="defs10">
  <clipPath id="clipPath2292">
   <path id="path2294" d="m270.93 354.95h32.107v26.892h-32.107z"/>
  </clipPath>
  <radialGradient id="radialGradient2316" cx="0" cy="0" r="1" gradientTransform="matrix(14.522,0,0,-14.522,287.39,386.84)" gradientUnits="userSpaceOnUse">
   <stop id="stop2318" stop-color="#535051" offset="0"/>
   <stop id="stop2320" stop-color="#535051" offset=".12035"/>
   <stop id="stop2322" stop-color="#231f20" offset="1"/>
  </radialGradient>
  <clipPath id="clipPath2330">
   <path id="path2332" d="m270.93 354.95h32.11v26.892h-32.11z"/>
  </clipPath>
  <clipPath id="clipPath2346">
   <path id="path2348" d="m272 356.3v-1e-3h1e-3v1e-3c2e-3 0 3e-3 1e-3 6e-3 2e-3 0 1e-3 1e-3 1e-3 2e-3 2e-3 2e-3 0 3e-3 1e-3 5e-3 1e-3 1e-3 0 2e-3 1e-3 3e-3 1e-3 3e-3 2e-3 7e-3 4e-3 0.01 6e-3 0.355 0.161 4.185 1.907 8.368 3.818-4.333-1.98-8.289-3.782-8.395-3.83"/>
  </clipPath>
  <clipPath id="clipPath2358">
   <path id="path2360" d="m280.39 360.13c0.012 5e-3 0.026 0.011 0.038 0.017 0.238 0.109 0.478 0.218 0.717 0.327 0.039 0.018 0.078 0.036 0.117 0.053v1e-3c-0.292-0.133-0.583-0.266-0.872-0.398"/>
  </clipPath>
  <clipPath id="clipPath2370">
   <path id="path2372" d="m295.31 373.03-0.366-1.976-0.05-0.27c-0.124-0.669-0.29-1.568-0.393-2.12-0.447-2.412-1.781-2.826-2.911-3.389-0.472-0.235-5.49-2.532-10.33-4.744v-1e-3c0.443 0.204 0.889 0.407 1.332 0.61 4.391 2.007 8.571 3.922 9 4.135 1.13 0.563 2.464 0.977 2.911 3.389 0.103 0.552 0.269 1.451 0.392 2.12l0.051 0.27 0.366 1.977zm-4.038-2.878c0.04-0.142 0.128-0.215 0.259-0.215h1e-3c-0.13 0-0.219 0.073-0.258 0.216zm-0.548-2.404c-0.177-0.067-0.334-0.098-0.472-0.098h1e-3c0.139 0 0.295 0.031 0.473 0.098 0.838 0.322 1.458 0.933 1.916 1.588 4e-3 5e-3 8e-3 0.011 0.012 0.016 4e-3 7e-3 0.01 0.016 0.015 0.023 7e-3 0.011 0.015 0.022 0.023 0.034 1e-3 1e-3 2e-3 3e-3 3e-3 3e-3 0.106 0.159 0.204 0.318 0.293 0.477 1e-3 1e-3 1e-3 2e-3 1e-3 4e-3 -0.476-0.846-1.192-1.733-2.265-2.145"/>
  </clipPath>
  <clipPath id="clipPath2382">
   <path id="path2384" d="m293.21 371.53c-0.076-0.175-0.164-0.335-0.261-0.482-1e-3 -2e-3 -2e-3 -4e-3 -4e-3 -6e-3 -6e-3 -0.011-0.013-0.02-0.02-0.031-2e-3 -2e-3 -3e-3 -4e-3 -5e-3 -6e-3 -0.016-0.024-0.032-0.048-0.049-0.071-2e-3 -3e-3 -5e-3 -6e-3 -7e-3 -0.01-6e-3 -8e-3 -0.011-0.016-0.018-0.023-2e-3 -4e-3 -6e-3 -8e-3 -9e-3 -0.013-5e-3 -7e-3 -0.01-0.014-0.017-0.021-2e-3 -5e-3 -5e-3 -8e-3 -8e-3 -0.012-8e-3 -0.01-0.016-0.021-0.024-0.031-3e-3 -3e-3 -6e-3 -8e-3 -9e-3 -0.011-5e-3 -6e-3 -0.01-0.013-0.015-0.019s-9e-3 -0.011-0.014-0.016c-4e-3 -5e-3 -7e-3 -0.01-0.012-0.015-4e-3 -5e-3 -9e-3 -0.011-0.013-0.017-4e-3 -3e-3 -7e-3 -8e-3 -0.011-0.012-0.018-0.021-0.036-0.042-0.054-0.062-3e-3 -3e-3 -5e-3 -6e-3 -8e-3 -9e-3 -6e-3 -6e-3 -0.012-0.012-0.018-0.019-2e-3 -2e-3 -5e-3 -5e-3 -7e-3 -8e-3 -7e-3 -7e-3 -0.012-0.013-0.018-0.019-1e-3 -1e-3 -2e-3 -3e-3 -4e-3 -4e-3 -0.021-0.022-0.043-0.045-0.065-0.067-1e-3 -1e-3 -1e-3 -2e-3 -3e-3 -3e-3l-0.024-0.024c-0.03-0.029-0.061-0.058-0.092-0.086 0 0 0-1e-3 -1e-3 -1e-3 -0.15-0.134-0.301-0.244-0.446-0.33-2e-3 -1e-3 -3e-3 -2e-3 -5e-3 -3e-3 -6e-3 -3e-3 -0.013-7e-3 -0.019-0.011-2e-3 -1e-3 -3e-3 -1e-3 -4e-3 -2e-3 -0.02-0.012-0.039-0.023-0.059-0.033-3e-3 -2e-3 -6e-3 -3e-3 -0.01-5e-3 -4e-3 -3e-3 -9e-3 -5e-3 -0.013-7e-3 -5e-3 -3e-3 -9e-3 -5e-3 -0.015-8e-3 -3e-3 -1e-3 -6e-3 -3e-3 -0.01-5e-3 -9e-3 -5e-3 -0.017-9e-3 -0.025-0.013-0.107-0.053-0.201-0.079-0.279-0.079h-2e-3c-0.131 0-0.219 0.073-0.259 0.215l-1.923-1.37c0.039-0.364 0.153-0.713 0.374-0.925l1e-3 -1e-3c5e-3 -4e-3 8e-3 -8e-3 0.013-0.011 1e-3 -2e-3 3e-3 -4e-3 5e-3 -5e-3 3e-3 -2e-3 6e-3 -5e-3 9e-3 -9e-3 3e-3 -2e-3 5e-3 -4e-3 9e-3 -7e-3 2e-3 -1e-3 4e-3 -3e-3 5e-3 -5e-3 4e-3 -3e-3 9e-3 -7e-3 0.013-0.01h1e-3c0.126-0.1 0.282-0.159 0.473-0.159 0.138 0 0.295 0.031 0.472 0.098 1.073 0.412 1.789 1.299 2.265 2.145 0-2e-3 0-3e-3 -1e-3 -4e-3 1e-3 1e-3 1e-3 1e-3 2e-3 3e-3 0 0 1e-3 0 1e-3 1e-3 -0.1-0.539-0.189-1.018-0.2-1.075-0.168-0.909-0.49-1.496-1.276-1.794-4e-3 -1e-3 -7e-3 -3e-3 -0.011-5e-3 -3e-3 0-6e-3 -1e-3 -0.01-3e-3h-1e-3c-1e-3 -1e-3 -2e-3 -2e-3 -4e-3 -2e-3 -4e-3 -2e-3 -6e-3 -3e-3 -0.01-4e-3 -1e-3 0-3e-3 0-4e-3 -1e-3 -3e-3 -1e-3 -7e-3 -3e-3 -0.011-5e-3 -2e-3 -1e-3 -4e-3 -1e-3 -6e-3 -2e-3 -4e-3 -2e-3 -8e-3 -3e-3 -0.012-5e-3 -4e-3 -1e-3 -7e-3 -3e-3 -0.012-5e-3 -2e-3 0-3e-3 -1e-3 -5e-3 -1e-3 -2e-3 -1e-3 -4e-3 -2e-3 -7e-3 -3e-3 -6e-3 -2e-3 -0.012-5e-3 -0.019-7e-3 0 0 0-1e-3 -1e-3 -1e-3 -7e-3 -2e-3 -0.012-5e-3 -0.018-7e-3 -1e-3 0-2e-3 0-3e-3 -1e-3 -0.933-0.365-5.794-2.301-10.339-4.112l-9.025-6.432-7e-3 -0.032-0.017-0.093c0.106 0.048 4.062 1.85 8.395 3.83 0.289 0.132 0.58 0.265 0.872 0.398 4.84 2.212 9.858 4.509 10.33 4.744 1.13 0.563 2.464 0.977 2.911 3.389 0.103 0.552 0.269 1.451 0.393 2.12l0.05 0.27 0.366 1.976z"/>
  </clipPath>
  <clipPath id="clipPath2394">
   <path id="path2396" d="m289.34 368.77c-0.442-0.929-1.294-2.049-2.516-2.518-0.094-0.036-0.184-0.062-0.269-0.078 0.086 0.016 0.176 0.042 0.271 0.078 1.222 0.469 2.074 1.591 2.517 2.52zm-2.795-2.598c3e-3 0 7e-3 1e-3 0.01 2e-3 -3e-3 -1e-3 -7e-3 -2e-3 -0.01-2e-3m-4e-3 -1e-3c1e-3 0 2e-3 1e-3 4e-3 1e-3 -2e-3 0-3e-3 -1e-3 -4e-3 -1e-3m-0.117-0.016c-0.032-2e-3 -0.064-4e-3 -0.094-4e-3 0.066 0 0.137 6e-3 0.211 0.02-0.04-7e-3 -0.079-0.012-0.117-0.016m-0.096-4e-3h2e-3 -2e-3"/>
  </clipPath>
  <clipPath id="clipPath2406">
   <path id="path2408" d="m285.85 366.28c0.066-0.042 0.137-0.075 0.215-0.098 3e-3 -1e-3 5e-3 -2e-3 8e-3 -3e-3 4e-3 -1e-3 0.01-2e-3 0.014-4e-3 5e-3 0 0.01-2e-3 0.016-3e-3 2e-3 -1e-3 4e-3 -1e-3 7e-3 -2e-3 6e-3 -2e-3 0.013-4e-3 0.021-4e-3 1e-3 -1e-3 3e-3 -1e-3 4e-3 -1e-3 0.016-4e-3 0.032-7e-3 0.049-9e-3h2e-3c8e-3 -2e-3 0.017-3e-3 0.027-4e-3 0.018-2e-3 0.035-4e-3 0.053-4e-3h2e-3c9e-3 -1e-3 0.017-1e-3 0.026-1e-3 2e-3 -1e-3 3e-3 -1e-3 5e-3 -1e-3h0.025c0.148 0 0.313 0.031 0.496 0.101 1.222 0.469 2.074 1.589 2.516 2.518z"/>
  </clipPath>
  <clipPath id="clipPath2418">
   <path id="path2420" d="m302.03 377.82-0.61-3.293c-0.084-0.456-2e-3 -0.679 0.227-0.694-0.013 0-0.026 2e-3 -0.039 5e-3h-1e-3c-3e-3 1e-3 -5e-3 1e-3 -9e-3 2e-3 -1e-3 0-1e-3 1e-3 -2e-3 1e-3 -3e-3 0-5e-3 1e-3 -8e-3 1e-3 -1e-3 0-2e-3 1e-3 -3e-3 1e-3 -1e-3 1e-3 -4e-3 1e-3 -6e-3 2e-3s-3e-3 1e-3 -4e-3 2e-3c-2e-3 0-4e-3 1e-3 -6e-3 1e-3 -1e-3 1e-3 -2e-3 2e-3 -4e-3 2e-3 -1e-3 1e-3 -3e-3 1e-3 -5e-3 1e-3 -2e-3 1e-3 -3e-3 2e-3 -5e-3 3e-3 -1e-3 0-2e-3 1e-3 -4e-3 1e-3 -2e-3 2e-3 -3e-3 3e-3 -6e-3 4e-3 -1e-3 0-1e-3 1e-3 -2e-3 1e-3 -3e-3 0-5e-3 2e-3 -8e-3 3e-3v1e-3c-0.14 0.077-0.182 0.294-0.113 0.663l0.611 3.294zm-2.73-2.236c-0.285-0.109-0.527-0.223-0.731-0.363v-1e-3c0.205 0.14 0.448 0.255 0.733 0.364l0.678 0.259v1e-3zm2.765-1.645-0.37-1.991-0.131-0.05c-0.01-5e-3 -0.021-9e-3 -0.032-0.013-0.226-0.086-0.407-0.157-0.681-0.261-0.14-0.054-0.266-0.084-0.381-0.094 0.115 0.01 0.242 0.04 0.383 0.094 0.273 0.104 0.455 0.175 0.681 0.261 0.011 4e-3 0.022 8e-3 0.032 0.013l0.132 0.05 0.369 1.992zm-0.417-0.107c0 1e-3 -1e-3 1e-3 -1e-3 1e-3s1e-3 0 1e-3 -1e-3m5e-3 0h-5e-3 5e-3m6e-3 0h-6e-3 6e-3m3e-3 0h-3e-3 3e-3m0.011 0h-0.011 0.011"/>
  </clipPath>
  <clipPath id="clipPath2430">
   <path id="path2432" d="m297.97 374.53 1e-3 -1e-3c0.03 0.063 0.064 0.123 0.1 0.18 1e-3 3e-3 2e-3 4e-3 3e-3 7e-3 3e-3 4e-3 5e-3 7e-3 8e-3 0.011 0.128 0.199 0.288 0.357 0.485 0.491v1e-3c-0.258-0.176-0.454-0.393-0.597-0.689m0.911-2.903 1e-3 -1e-3c0.05 0.068 0.099 0.136 0.146 0.205 4e-3 5e-3 7e-3 0.011 0.011 0.016 2e-3 3e-3 4e-3 5e-3 5e-3 8e-3 0.184 0.272 0.338 0.548 0.463 0.81v4e-3c-0.16-0.337-0.368-0.697-0.626-1.042"/>
  </clipPath>
  <clipPath id="clipPath2442">
   <path id="path2444" d="m297.76 373.84-0.144-0.774c-0.075-0.409-0.01-0.646 0.169-0.699-0.042 0.012-0.077 0.035-0.105 0.067 0 0-1e-3 2e-3 -2e-3 3e-3 -2e-3 1e-3 -3e-3 3e-3 -4e-3 4e-3 -2e-3 2e-3 -3e-3 4e-3 -4e-3 6e-3 -1e-3 1e-3 -2e-3 1e-3 -2e-3 2e-3 -0.023 0.029-0.041 0.065-0.054 0.11-1e-3 2e-3 -2e-3 5e-3 -3e-3 8e-3 0 1e-3 -1e-3 2e-3 -1e-3 3e-3 -1e-3 3e-3 -1e-3 5e-3 -2e-3 7e-3 0 1e-3 -1e-3 4e-3 -1e-3 6e-3v3e-3c-0.029 0.117-0.026 0.277 0.011 0.48l0.143 0.774c0.051 0.269 0.12 0.494 0.213 0.686l-1e-3 1e-3c-0.093-0.192-0.163-0.418-0.213-0.687m-0.723-3.682c-0.228-0.086-0.422-0.127-0.588-0.127h1e-3c0.166 0 0.361 0.041 0.589 0.127 0.01 5e-3 0.021 8e-3 0.032 0.013 5e-3 2e-3 8e-3 3e-3 0.013 4e-3 6e-3 3e-3 0.013 7e-3 0.02 9e-3 5e-3 2e-3 9e-3 4e-3 0.014 6e-3 6e-3 3e-3 0.012 5e-3 0.019 8e-3 4e-3 2e-3 0.01 4e-3 0.014 5e-3 0.01 5e-3 0.02 9e-3 0.029 0.013 5e-3 3e-3 0.011 4e-3 0.016 7e-3 5e-3 2e-3 0.01 5e-3 0.015 7e-3 7e-3 2e-3 0.012 5e-3 0.018 7e-3 5e-3 3e-3 9e-3 5e-3 0.014 7e-3s0.012 5e-3 0.017 8e-3c6e-3 3e-3 0.01 4e-3 0.015 7e-3 8e-3 4e-3 0.015 7e-3 0.023 0.011 7e-3 3e-3 0.014 7e-3 0.021 0.011l0.015 6e-3c5e-3 3e-3 0.011 5e-3 0.016 8e-3s0.011 6e-3 0.016 8e-3c5e-3 3e-3 0.01 6e-3 0.016 8e-3 4e-3 3e-3 9e-3 6e-3 0.015 8e-3 5e-3 3e-3 0.012 6e-3 0.017 9e-3 8e-3 4e-3 0.016 8e-3 0.024 0.013 6e-3 3e-3 0.011 5e-3 0.016 9e-3 6e-3 3e-3 0.01 4e-3 0.015 7e-3 5e-3 4e-3 0.011 6e-3 0.016 9e-3s0.01 6e-3 0.014 8e-3c7e-3 4e-3 0.013 8e-3 0.018 0.01 4e-3 3e-3 9e-3 5e-3 0.012 7e-3 9e-3 6e-3 0.019 0.011 0.029 0.017 3e-3 1e-3 5e-3 2e-3 8e-3 4e-3 7e-3 5e-3 0.015 9e-3 0.023 0.014 2e-3 1e-3 6e-3 3e-3 9e-3 5e-3 7e-3 4e-3 0.015 9e-3 0.022 0.013 3e-3 2e-3 5e-3 3e-3 7e-3 5e-3 0.021 0.013 0.041 0.025 0.061 0.038l3e-3 3e-3c0.01 5e-3 0.019 0.011 0.028 0.018 1e-3 0 2e-3 0 3e-3 1e-3 0.379 0.247 0.705 0.555 0.983 0.887 1e-3 2e-3 3e-3 3e-3 5e-3 6e-3 4e-3 6e-3 9e-3 0.011 0.013 0.016s8e-3 8e-3 0.01 0.013c3e-3 2e-3 5e-3 4e-3 7e-3 7e-3 0.049 0.06 0.098 0.122 0.145 0.185l-1e-3 1e-3c-0.455-0.607-1.066-1.166-1.847-1.466"/>
  </clipPath>
  <clipPath id="clipPath2454">
   <path id="path2456" d="m296.03 373.54c-1e-3 -6e-3 -3e-3 -0.014-4e-3 -0.021l-0.021-0.111-0.25-1.35c-0.209-1.13-0.081-2.023 0.697-2.023 0.166 0 0.36 0.041 0.588 0.127 0.781 0.3 1.392 0.859 1.847 1.466 0.258 0.345 0.466 0.705 0.626 1.042v-4e-3c1e-3 2e-3 1e-3 3e-3 2e-3 4e-3 0.039-0.43 0.176-0.842 0.473-1.033 0.13-0.083 0.291-0.125 0.486-0.108 0.115 0.01 0.241 0.04 0.381 0.094 0.274 0.104 0.455 0.175 0.681 0.261 0.011 4e-3 0.022 8e-3 0.032 0.013l0.131 0.05 0.37 1.991-0.137-0.052c-0.098-0.037-0.183-0.055-0.255-0.055-0.249 0-0.341 0.223-0.253 0.695l0.61 3.293zm3.956 2.303-0.184-0.992c-0.014-0.053-0.029-0.119-0.045-0.206-0.218-1.174-1.01-1.913-1.606-2.207-0.149-0.073-0.271-0.095-0.363-0.067-0.179 0.053-0.244 0.29-0.169 0.699l0.144 0.774c0.05 0.269 0.12 0.495 0.213 0.687 0.143 0.296 0.339 0.513 0.597 0.689 0.204 0.14 0.446 0.254 0.731 0.363l0.68 0.26v-1e-3z"/>
  </clipPath>
  <clipPath id="clipPath2466">
   <path id="path2468" d="m270.93 354.95h32.11v26.892h-32.11z"/>
  </clipPath>
  <radialGradient id="radialGradient2490" cx="0" cy="0" r="1" gradientTransform="matrix(14.522,0,0,-14.522,287.39,386.84)" gradientUnits="userSpaceOnUse">
   <stop id="stop2492" stop-color="#7e7c7d" offset="0"/>
   <stop id="stop2494" stop-color="#5a5758" offset="1"/>
  </radialGradient>
 </defs>
 <title id="title12">26_pebble</title>
 <g id="g2342" transform="matrix(13.238 0 0 -13.238 -3561.3 5103.9)"></g>
 <g id="g2354" transform="matrix(13.238 0 0 -13.238 -3561.3 5103.9)"></g>
 <g id="g2366" transform="matrix(13.238 0 0 -13.238 -3561.3 5103.9)"></g>
 <g id="g2378" transform="matrix(13.238 0 0 -13.238 -3561.3 5103.9)"></g>
 <g id="g2390" transform="matrix(13.238 0 0 -13.238 -3561.3 5103.9)"></g>
 <g id="g2402" transform="matrix(13.238 0 0 -13.238 -3561.3 5103.9)"></g>
 <g id="g2414" transform="matrix(13.238 0 0 -13.238 -3561.3 5103.9)"></g>
 <g id="g2426" transform="matrix(13.238 0 0 -13.238 -3561.3 5103.9)"></g>
 <g id="g2438" transform="matrix(13.238 0 0 -13.238 -3561.3 5103.9)"></g>
 <g id="g2450" transform="matrix(13.238 0 0 -13.238 -3561.3 5103.9)"></g>
 <g id="g1088" transform="matrix(.7316 0 0 .7316 -9.5546e-8 111.2)">
  <g id="g1177" transform="matrix(3.0467 0 0 3.0467 -50.764 -188.56)">
   <g id="g1066" fill="#ff37d8">
    <path id="path14" d="m175 191.85c-0.025-0.052-0.029-0.108-0.07-0.144a0.464 0.464 0 0 0-0.324-0.133 0.472 0.472 0 0 0-0.336 0.137 125.03 125.03 0 0 1-37.323 24.937c-10.7 4.671-20.2 7.041-28.234 7.041a34.173 34.173 0 0 1-3.933-0.214 0.315 0.315 0 0 0-0.053 0 0.478 0.478 0 0 0-0.469 0.383c-0.014 0.062 0.02 0.111 0.031 0.165a45.133 45.133 0 0 0 12.735 1.98c17.7 0 39.187-12.489 57.975-34.152"/>
    <path id="path16" d="m172.41 194.78a162.9 162.9 0 0 0 15.21-19.53c-0.029-0.055-0.04-0.114-0.091-0.15-0.086-0.063-0.177 0.1-0.273 0.1-0.144 0-0.579 0.516-0.675 0.634-11.083 14.207-33.4 33.136-60.631 41.559a74.16 74.16 0 0 1-21.445 3.728 34.945 34.945 0 0 1-8.569-0.97 0.485 0.485 0 0 0-0.122-0.015 0.477 0.477 0 0 0-0.448 0.317c-0.021 0.056 0 0.111 0 0.162a62.868 62.868 0 0 0 10.719 3.882c0.868 0.062 1.726 0.15 2.619 0.15 8.172 0 17.8-2.4 28.617-7.122a126.59 126.59 0 0 0 35.085-22.744"/>
    <path id="path18" d="m192.06 167.91a0.479 0.479 0 0 0-0.649 0.118c-22.076 30.267-64.026 50.6-89.355 50.6a33.676 33.676 0 0 1-14.026-2.647 0.481 0.481 0 0 0-0.2-0.044 0.474 0.474 0 0 0-0.424 0.255 0.425 0.425 0 0 0-0.018 0.192 84 84 0 0 0 9.415 4.881 36.664 36.664 0 0 0 7.7 0.811 74.959 74.959 0 0 0 21.728-3.775c25.634-7.93 47.188-25.649 59.024-39.62q3.567-5.087 6.905-10.628c-0.034-0.047-0.045-0.106-0.1-0.143"/>
    <path id="path20" d="m201.1 150.84a111.88 111.88 0 0 1-14.686 20.289c-21.9 24.2-61.509 43.889-88.286 43.889-7.874 0-14.12-1.271-18.809-4.53a2 2 0 0 0-0.523-0.262c-0.147 0-0.168-0.133-0.258 0a0.389 0.389 0 0 0-0.044 0.192 105.9 105.9 0 0 0 10.871 7.088 36.16 36.16 0 0 0 12.686 2.079c24.979 0 65.863-19.574 88.49-48.909a187.55 187.55 0 0 0 10.838-20.016z"/>
    <path id="path22" d="m203.57 145.39a0.465 0.465 0 0 0-0.21-0.049 0.486 0.486 0 0 0-0.42 0.243 112.83 112.83 0 0 1-14.793 20.64c-22.806 25.2-64.631 45.7-93.235 45.7-8.278 0-14.991-1.7-19.95-5.075a0.512 0.512 0 0 0-0.268-0.078 0.473 0.473 0 0 0-0.385 0.192c-0.043 0.052-0.033 0.118-0.05 0.181 2.251 1.814 4.519 3.5 6.8 5.094 4.552 2.436 10.233 3.741 17.076 3.741 27.47 0 66.56-19.415 88.994-44.2a103.58 103.58 0 0 0 12.685-17.882q2.006-4.107 3.858-8.4c-0.037-0.037-0.051-0.088-0.1-0.114"/>
    <path id="path24" d="m207.24 136.26a0.462 0.462 0 0 0-0.195-0.041 0.48 0.48 0 0 0-0.425 0.248 116.51 116.51 0 0 1-20.41 27.47c-21.488 21.181-63.588 44.043-94.137 44.043-9.774 0-17.915-2.3-23.936-6.834a0.467 0.467 0 0 0-0.653 0.074c-0.022 0.025 0 0.059-0.011 0.083q4.188 3.822 8.5 7.186c4.963 2.875 11.263 4.4 18.938 4.4 28.838 0 70.984-20.643 93.949-46.015a113.36 113.36 0 0 0 13.633-18.673c1.722-3.829 3.359-7.759 4.87-11.811-0.037-0.044-0.066-0.1-0.122-0.128"/>
    <path id="path26" d="m209.5 129.87a0.469 0.469 0 0 0-0.187-0.037 0.481 0.481 0 0 0-0.425 0.246 113.68 113.68 0 0 1-24.374 31.47c-27.736 24.9-68.047 42.967-95.843 42.967-9.689 0-17.61-2.123-23.552-6.311a0.477 0.477 0 0 0-0.641 0.088c-0.037 0.04-0.029 0.091-0.048 0.143 1.687 1.622 3.39 3.2 5.111 4.715 5.962 3.829 13.508 5.78 22.527 5.78 30.789 0 73.189-23.007 94.809-44.321a116.92 116.92 0 0 0 19.523-25.772c1.128-2.9 2.207-5.846 3.217-8.857-0.037-0.041-0.055-0.088-0.111-0.111"/>
    <path id="path28" d="m212.86 118.76a0.457 0.457 0 0 0-0.155-0.026 0.47 0.47 0 0 0-0.438 0.295c-5.766 13.74-17.064 28.433-30.217 39.3-29.6 24.437-69.178 41.507-96.261 41.507-12.053 0-21.694-2.942-28.379-9.16a0.468 0.468 0 0 0-0.324-0.125 0.507 0.507 0 0 0-0.249 0.1c2.921 3.192 5.922 6.252 8.995 9.135 5.942 3.775 13.3 5.7 22.845 5.7 28.012 0 68.587-18.173 96.481-43.21a114.26 114.26 0 0 0 23.806-30.412q2.19-6.332 4.011-12.995c-0.037-0.031-0.059-0.079-0.115-0.1"/>
    <path id="path30" d="m214.18 113.68a0.423 0.423 0 0 0-0.158-0.028 0.486 0.486 0 0 0-0.435 0.273c-5.969 12.656-14.207 26.468-33.918 41.7-31.822 24.595-69.741 40.487-96.589 40.487-11.706 0-21.189-2.89-28.187-8.586a0.46 0.46 0 0 0-0.3-0.106 0.469 0.469 0 0 0-0.345 0.147c-0.041 0.04-0.041 0.1-0.064 0.155 1.443 1.64 2.906 3.262 4.394 4.839 6.757 5.445 15.869 8.232 27.2 8.232 27.283 0 67.117-17.16 96.866-41.725 12.781-10.55 23.766-24.676 29.763-38.1 0.671-2.362 1.312-4.751 1.906-7.171a0.463 0.463 0 0 0-0.137-0.116"/>
    <path id="path32" d="m216.47 103.12c-0.0421-0.0113-0.0854-0.0174-0.129-0.018-0.19886 1e-3 -0.37684 0.12369-0.449 0.309-6.945 18.407-19.778 34.228-39.211 48.369-33.31 24.222-70.642 39.273-97.438 39.273-12.185 0-21.962-3.057-29.062-9.1-0.0867-0.0729-0.19671-0.11232-0.31-0.111-0.12445-1e-3 -0.24411 0.0479-0.332 0.136-0.039 0.037-0.039 0.088-0.065 0.133 1.9127 2.3593 3.8757 4.6683 5.889 6.927 7.1 5.319 16.382 8.029 27.721 8.029 27.046 0 65.19-15.973 97.176-40.689 19.194-14.831 27.6-28.333 33.57-40.749 1.0393-4.0553 1.6387-6.4453 2.44-10.67-0.044-0.031 0.251-1.825 0.199-1.842"/>
   </g>
   <g id="g1188" fill="#ae3ce8">
    <path id="path34" d="m217.35 98.219a0.477 0.477 0 0 0-0.128-0.02 0.484 0.484 0 0 0-0.446 0.3c-7.2 18.229-21.55 34.966-42.646 49.745-26.423 18.52-66.018 38.3-97.884 38.3-12.437 0-22.422-3.092-29.68-9.2a0.469 0.469 0 0 0-0.31-0.111 0.456 0.456 0 0 0-0.33 0.133c-0.037 0.037-0.041 0.091-0.063 0.136q2.264 2.981 4.635 5.868c7.236 5.725 16.865 8.63 28.748 8.63 26.985 0 64.538-15.121 98-39.462 19.154-13.934 31.908-29.527 39.027-47.581q0.657-3.3 1.219-6.646c-0.047-0.035-0.081-0.087-0.14-0.1"/>
    <path id="path36" d="m218.58 89.678c-0.0361-0.0104-0.0735-0.01545-0.111-0.015-0.19965-3.35e-4 -0.37856 0.12319-0.449 0.31-7.744 20.606-23.743 38.953-47.548 54.531-35.754 23.4-71.187 36.815-97.209 36.815-13.276 0-23.823-3.458-31.347-10.285-0.18207-0.16133-0.45593-0.16133-0.638 0-0.037 0.037-0.041 0.088-0.068 0.13 1.7707 2.5287 3.604 5.024 5.5 7.486 7.426 5.883 17.311 8.859 29.523 8.859 32.092 0 71.888-19.873 98.436-38.474 20.849-14.608 35.12-31.143 42.524-49.146 0.575-3.329 0.895-5.226 1.315-8.646-0.0385-0.04347 0.12461-1.5397 0.071-1.562"/>
    <path id="path38" d="m219.24 83.566a0.417 0.417 0 0 0-0.1-8e-3 0.477 0.477 0 0 0-0.457 0.339c-5.669 18.859-23.81 39.049-51.089 56.854-33.486 21.864-72.186 35.99-98.6 35.99-13.2 0-23.26-3.318-29.909-9.861a0.475 0.475 0 0 0-0.638-0.032c-0.041 0.037-0.048 0.088-0.075 0.128q1.8 2.72 3.691 5.386c7.7 6.579 18.154 9.912 31.2 9.912 26.2 0 61.829-13.473 97.732-36.969 23.614-15.453 39.568-33.647 47.519-54.062 0.329-2.51 0.6-5.043 0.845-7.6-0.044-0.028-0.073-0.069-0.125-0.08"/>
    <path id="path40" d="m220.07 72.793c-0.27654-0.10608-0.58212 0.06172-0.641 0.352-4.347 21.229-25.2 44.8-55.781 63.055-37.887 22.614-72.393 35.066-97.16 35.066-13.679 0-24.32-3.725-31.632-11.076-0.16882-0.16969-0.43752-0.18727-0.627-0.041-0.048 0.034-0.06 0.1-0.09 0.144 1.6 2.661 3.3 5.308 5.065 7.928 6.879 6.289 16.855 9.479 29.795 9.479 26.582 0 65.495-14.185 99.124-36.144 26.876-17.55 44.924-37.439 51.058-56.156 0.427-4.137 0.651-6.392 0.832-10.65-0.0186-0.01342 0.0777-1.9491 0.057-1.959"/>
    <path id="path42" d="m220.26 67.148c-0.049-0.022-0.081-0.064-0.14-0.072h-0.049a0.476 0.476 0 0 0-0.467 0.388c-4.261 21.8-25.2 44.807-58.962 64.8-36.473 21.591-72.127 33.98-97.83 33.98-13.083 0-23.135-3.133-29.877-9.3a0.473 0.473 0 0 0-0.325-0.125 0.461 0.461 0 0 0-0.3 0.108c-0.033 0.025-0.036 0.069-0.064 0.1 0.842 1.482 1.71 2.952 2.606 4.423 7.529 7.159 18.125 10.779 31.635 10.779 24.932 0 59.61-12.5 97.647-35.2 30.147-17.99 50.87-41.16 55.877-62.279q0.188-3.765 0.248-7.592"/>
   </g>
   <g id="g1087">
    <path id="path44" d="m219.87 57.238h-0.012c-0.25102 5.22e-4 -0.45869 0.19551-0.475 0.446-1.467 21.791-25.521 48.487-62.774 69.662-37.5 21.309-71.975 33.047-97.091 33.047-13.789 0-24.015-3.534-30.39-10.506-0.09154-0.0995-0.2208-0.15578-0.356-0.155-0.09631-1.1e-4 -0.19054 0.0281-0.271 0.081-0.046 0.034-0.057 0.086-0.088 0.125 1.386 2.728 2.887 5.46 4.469 8.183 6.911 6 16.96 9.073 29.931 9.073 25.868 0 61.7-12.434 98.319-34.113 33.324-19.735 54.213-42.452 59.091-64.127 0.044-1.762 0.111-3.517 0.111-5.3 0-1.7987-0.0229-2.275-0.20485-4.321" fill="#d83eff"/>
    <g id="g1229" fill="#b245e9">
     <path id="path46" d="m220.13 59.331c-0.14205-2.889-0.25385-4.2328-0.791-7.075-0.0473-0.02887-0.32908-1.5796-0.384-1.587h-0.042c-0.24436 0.01906-0.4341 0.22092-0.438 0.466-0.425 22.09-23.791 47.547-65.811 71.684-35.873 20.606-70.841 32.42-95.941 32.42-13.842 0-23.989-3.571-30.156-10.612-0.15737-0.17616-0.41877-0.21332-0.619-0.088-0.041 0.025-0.053 0.077-0.083 0.114 0.982 2.135 2.02 4.28 3.133 6.433 6.595 6.793 16.835 10.266 30.518 10.266 25.278 0 59.93-11.781 97.563-33.176 36.646-20.83 60.555-47.037 63.049-68.843"/>
     <path id="path48" d="m219.34 52.259a51.338 51.338 0 0 0-3.015-10.69 0.414 0.414 0 0 0-0.133 0.018 0.481 0.481 0 0 0-0.339 0.548c4.084 21.883-22.479 51.582-67.665 75.666-37.435 19.943-71.241 30.925-95.192 30.925-14.4 0-24.374-3.934-29.643-11.7a0.471 0.471 0 0 0-0.4-0.206 0.479 0.479 0 0 0-0.223 0.052c-0.05 0.027-0.073 0.086-0.105 0.125q1.67 4.342 3.736 8.77c6.4 6.9 16.582 10.428 30.357 10.428 25.26 0 60.4-11.865 96.42-32.55 41.629-23.913 65.037-49.208 66.2-71.389"/>
     <path id="path50" d="m216.9 43.014a44.355 44.355 0 0 0-3.086-6.644c-0.022 0-0.03-0.03-0.052-0.03a0.5 0.5 0 0 0-0.147 0.022 0.479 0.479 0 0 0-0.325 0.536c3.775 21.81-21.948 49.943-68.8 75.257-36.1 19.5-70.613 30.69-94.684 30.69-13.046 0-22.419-3.229-27.863-9.587a0.465 0.465 0 0 0-0.361-0.167 0.472 0.472 0 0 0-0.241 0.063c-0.035 0.018-0.043 0.055-0.069 0.081q0.855 2.477 1.853 4.991c5.633 7.611 15.631 11.457 29.877 11.457 24.106 0 58.071-11.022 95.639-31.041 44.859-23.908 71.418-53.442 68.259-75.628"/>
     <path id="path52" d="m214.28 37.215a41.731 41.731 0 0 0-3.782-5.846 0.484 0.484 0 0 0-0.159 0.04 0.479 0.479 0 0 0-0.2 0.6c7.583 18.11-23.344 51.389-70.41 75.762-35.125 18.192-68.632 28.629-91.925 28.629-15.172 0-25.08-4.428-28.65-12.8a0.483 0.483 0 0 0-0.442-0.29 0.5 0.5 0 0 0-0.146 0.022c-0.057 0.022-0.088 0.074-0.133 0.111a97.183 97.183 0 0 0 3.217 10.87c5.684 6.281 15.132 9.493 28.16 9.493 24.226 0 58.9-11.228 95.137-30.8 46.9-25.341 72.737-53.617 69.336-75.783"/>
     <path id="path54" d="m211.32 32.5a40.869 40.869 0 0 0-4.188-4.942 0.39 0.39 0 0 0-0.147 0.05 0.481 0.481 0 0 0-0.148 0.6c8.811 17.187-21.14 48.347-71.218 74.093-34.734 17.87-67.687 28.114-90.414 28.114-13.623 0-22.865-3.841-26.718-11.1-0.105-0.2-0.2-0.4-0.3-0.6a0.536 0.536 0 0 0-0.465-0.3 0.375 0.375 0 0 0-0.125 0.019 0.432 0.432 0 0 0-0.136 0.1c0.334 2.064 0.781 4.183 1.315 6.335 4.1 8.176 14.046 12.492 29.027 12.492 23.437 0 57.1-10.472 92.363-28.733 46.793-24.23 77.655-57.384 71.152-76.117"/>
     <path id="path56" d="m207.99 28.483a42.538 42.538 0 0 0-5.743-5.172 0.5 0.5 0 0 0-0.169 0.061 0.477 0.477 0 0 0-0.111 0.59c1.865 3.461 2.065 7.621 0.6 12.361-5.227 16.882-30.5 38.728-65.98 57.021-36.186 18.661-71.346 29.8-94.06 29.8-12.207 0-20.062-3.137-23.35-9.328a17.285 17.285 0 0 1-1.8-5.742 0.482 0.482 0 0 0-0.478-0.411h-0.029c-0.053 0-0.086 0.046-0.133 0.064-0.018 0.559-0.075 1.114-0.075 1.676a59.427 59.427 0 0 0 1.038 10.451c4.064 7.531 13.566 11.517 27.5 11.517 22.875 0 55.987-10.282 90.853-28.212 49.911-25.665 79.881-56.873 71.936-74.676"/>
     <path id="path58" d="m203.48 36.592c1.5-4.837 1.293-9.105-0.528-12.721-1.8638-1.4267-2.9741-2.263-5.032-3.392-0.039 0.022-0.95-0.428-0.98-0.394-0.15172 0.16741-0.16387 0.41874-0.029 0.6 0.158 0.219 0.3 0.435 0.438 0.658 1.781 2.97 2.047 6.582 0.8 10.73-5.083 16.886-34.713 41.156-72.058 59.03-33.247 15.913-65.126 25.415-85.268 25.415-11.634 0-19.008-3.054-21.915-9.08-0.76892-1.7856-1.1152-3.7246-1.012-5.666 4e-3 -0.25324-0.18952-0.46598-0.442-0.486h-0.037c-0.043 0-0.076 0.032-0.114 0.043-0.39626 2.6198-0.60679 5.2644-0.63 7.914 0.30294 1.7476 0.8623 3.4409 1.66 5.025 3.465 6.526 11.6 9.834 24.192 9.834 22.858 0 58.185-11.182 94.5-29.908 35.705-18.413 61.17-40.484 66.456-57.6"/>
    </g>
   </g>
   <g id="g1077" fill="#a041ff">
    <path id="path60" d="m199.06 32.349c1.331-4.42 1.032-8.287-0.892-11.5-0.074-0.125-0.166-0.251-0.247-0.37-3.5161-1.9998-5.5336-3.0865-9.396-4.288l-1.866-0.419c-0.0932 0.2333 8e-3 0.49913 0.232 0.612 1.415 0.58795 2.6577 1.5252 3.612 2.724 1.541 2.372 1.825 5.323 0.845 8.766-4.516 15.838-35.194 40.178-72.943 57.874-31.251 14.652-59.629 23.052-77.856 23.052-10.816 0-17.815-2.949-20.241-8.523-0.843-1.941-0.962-4.541-0.358-7.728 0.166-0.54 0.343-1.079 0.524-1.615 0.08186-0.24846-0.05212-0.51641-0.3-0.6-0.04771-0.01753-0.09818-0.02633-0.149-0.026-0.027 0-0.039 0.04-0.064 0.044-1.4433 4.1575-2.4197 8.4626-2.911 12.836 0.03392 1.6054 0.3733 3.1896 1 4.668 3.082 6.384 10.744 9.618 22.777 9.618 20.278 0 52.31-9.535 85.68-25.506 37.571-17.983 67.407-42.5 72.561-59.618"/>
    <path id="path62" d="m192.26 28.14c1.062-3.721 0.737-6.938-0.962-9.549-0.73362-0.99807-1.6824-1.8183-2.776-2.4-3.4183-1.1849-5.1245-1.7173-8.685-2.359l-1.999-0.23c-0.0639 0.24168 0.0696 0.49169 0.306 0.573 2.555 0.889 4.247 2.009 5.035 3.335 1.2 2 1.353 4.521 0.457 7.485-4.36 14.519-31.694 36.339-66.465 53.073-30.544 14.7-58.3 23.127-76.148 23.127-9.731 0-16.14-2.586-18.527-7.474-1.03-2.11-1.067-4.711-0.116-7.734 0.07528-0.24276-0.05257-0.50197-0.291-0.59-0.05278-0.02089-0.10927-0.03076-0.166-0.029-0.011 0-0.015 0.015-0.022 0.015-1.2525 2.8245-2.2972 5.7365-3.126 8.713-0.35598 2.2088-0.12988 4.4723 0.656 6.567 2.59 5.953 9.89 9.1 21.117 9.1 18.632 0 46.425-8.222 78.257-23.142 38.592-18.092 68.8-42.141 73.457-58.479"/>
    <path id="path64" d="m184.56 25.268c0.969-3.231 0.784-6.009-0.553-8.251a8.738 8.738 0 0 0-4.162-3.185 90.79 90.79 0 0 0-17.594-1.808 0.438 0.438 0 0 0-0.078 0.169 0.48 0.48 0 0 0 0.418 0.507c5.728 0.675 9.4 2.169 10.638 4.317a7.712 7.712 0 0 1 0.313 6.331c-4.051 12.894-30.179 32.859-63.539 48.552-27.962 13.154-51.923 20.4-67.475 20.4-8.591 0-14.008-2.2-16.1-6.55-1.073-2.215-1-4.888 0.208-7.942a0.478 0.478 0 0 0-0.219-0.6 0.509 0.509 0 0 0-0.212-0.054 71.406 71.406 0 0 0-5.162 10.357 10.266 10.266 0 0 0 0.6 6.624c2.594 5.319 9.116 8.014 19.388 8.014 17.983 0 45.888-8.467 76.558-23.225 35-16.841 62.531-38.9 66.969-53.656"/>
    <path id="path66" d="m174.45 23.634a8.641 8.641 0 0 0-0.4-7.1c-1.219-2.114-4.234-3.6-8.965-4.435-1.261-0.046-2.517-0.1-3.789-0.1a162.02 162.02 0 0 0-17.631 1.008c-0.022 0.065-0.063 0.118-0.056 0.184a0.477 0.477 0 0 0 0.476 0.443h0.018c1.1-0.046 2.172-0.072 3.2-0.072 7.778 0 12.784 1.333 14.1 3.753a6.574 6.574 0 0 1 0.181 5.291c-3.539 10.841-27.194 28.443-57.525 42.805-23.909 11.317-45.6 17.81-59.511 17.81-7.282 0-11.974-1.819-13.571-5.266-1.087-2.348-0.518-5.387 1.7-9.033a0.478 0.478 0 0 0-0.136-0.641 0.4 0.4 0 0 0-0.159-0.05 84.238 84.238 0 0 0-6.938 10.2 10.165 10.165 0 0 0 0.112 7.73c2.269 4.7 7.977 7.085 16.964 7.085 15.691 0 39.8-7.273 67.881-20.485 33.584-15.8 59.923-36 64.047-49.132"/>
    <path id="path68" d="m147.72 12.615a179.89 179.89 0 0 0-20.562 3.012 0.415 0.415 0 0 0-0.036 0.173 0.473 0.473 0 0 0 0.469 0.4 0.5 0.5 0 0 0 0.069 0 62.208 62.208 0 0 1 8.874-0.721c5.913 0 9.754 1.279 10.808 3.6 3.579 7.9-18.07 25.735-48.274 39.747-20.097 9.323-39.768 15.114-51.333 15.114-5.445 0-8.91-1.274-10.027-3.685-1.47-3.163 1.037-8.229 7.055-14.258a0.475 0.475 0 0 0 7e-3 -0.667 0.438 0.438 0 0 0-0.177-0.075 105.06 105.06 0 0 0-13.452 14.586c-1.707 3.332-2.106 6.2-1.032 8.519 1.768 3.808 6.757 5.821 14.439 5.821 14.047 0 35.889-6.527 59.92-17.9 31.036-14.7 54.355-32.126 58.023-43.375a7.452 7.452 0 0 0-0.251-6.04c-1.866-3.436-8.83-4.213-14.521-4.247"/>
    <path id="path70" d="m148.21 18.679c-1.234-2.727-5.271-4.164-11.678-4.164-1.559 0-3.288 0.109-5.095 0.28a196.42 196.42 0 0 0-28.243 7.335c0 0.064-0.033 0.119-0.015 0.18a0.48 0.48 0 0 0 0.457 0.332 0.485 0.485 0 0 0 0.14-0.018c7.644-2.325 14.29-3.552 19.217-3.552 4.395 0 7.169 0.984 8.029 2.842 2.772 5.979-13.941 19.652-37.255 30.478-15.5 7.2-30.782 11.671-39.876 11.671-4.2 0-6.862-0.955-7.7-2.755-1.434-3.1 2.33-8.493 10.321-14.812a0.483 0.483 0 0 0 0.087-0.665c-0.042-0.052-0.111-0.048-0.166-0.083a130.68 130.68 0 0 0-14.99 12.452c-4.405 5.137-6.015 9.406-4.6 12.456 1.3 2.812 4.969 4.239 10.892 4.239 11.875 0 31.217-5.684 51.74-15.206 31.711-14.717 52.664-32.348 48.734-41.011"/>
    <path id="path72" d="m131.88 21.512c-1.04-2.254-4.035-3.4-8.894-3.4a58.426 58.426 0 0 0-12.966 1.822c-21.341 6.409-41.68 16.436-57.908 29.035-5.73 5.262-8.18 9.743-6.79 12.736 1.016 2.2 3.9 3.31 8.565 3.31 9.22 0 24.655-4.507 40.276-11.763 24.6-11.422 40.812-25.067 37.716-31.745m-43.683 24.148c-10.4 4.779-20.4 7.745-26.1 7.745-2.356 0-3.836-0.505-4.276-1.467-1.469-3.2 7.942-11.677 24.29-19.183 10.04-4.61 19.919-7.474 25.784-7.474 2.541 0 4.13 0.535 4.595 1.546 1.4 3.05-7.488 11.118-24.29 18.833"/>
    <path id="path74" d="m113.36 26.424c-0.641-1.4-2.48-2.107-5.462-2.107-5.994 0-16.028 2.9-26.181 7.564-13.864 6.365-26.919 15.755-24.762 20.452 0.616 1.344 2.348 2.024 5.145 2.024 5.824 0 15.984-3 26.5-7.833 13.952-6.4 26.934-15.366 24.763-20.1m-13.391 4.329c-0.49 1.769-5.428 5.651-13.918 9.643-6.609 3.115-12.966 5.122-16.2 5.122-0.9 0-1.531-0.17-1.729-0.459a0.588 0.588 0 0 1-0.033-0.528c0.505-1.819 5.548-5.871 13.9-9.8 6.421-3.022 12.732-4.974 16.081-4.974 0.974 0 1.65 0.177 1.858 0.49a0.555 0.555 0 0 1 0.037 0.51"/>
    <path id="path76" d="m100.73 29.712c-0.411-0.616-1.279-0.918-2.654-0.918-3.476 0-9.95 1.991-16.486 5.07-7.806 3.674-13.733 7.953-14.415 10.41a1.53 1.53 0 0 0 0.162 1.315c0.4 0.6 1.222 0.886 2.525 0.886 3.354 0 9.874-2.046 16.6-5.212 6.631-3.122 13.669-7.5 14.429-10.252a1.523 1.523 0 0 0-0.162-1.3"/>
   </g>
  </g>
  <g id="g1052" transform="matrix(1.304 0 0 1.304 .0011774 -152)">
   <g id="g2288" transform="matrix(13.238,0,0,-13.238,-3561.3,5126.9)">
    <g id="g2290" clip-path="url(#clipPath2292)">
     <g id="g2296" transform="translate(302.23,374.79)">
      <path id="path2298" d="m0 0 0.797 4.3-3.909-1.496c-1.08-0.414-1.827-0.818-2.384-1.298l0.089 0.481-4.155-1.592c-1.363-0.522-2.194-1.029-2.779-1.696-0.678-0.773-0.918-1.671-1.077-2.527l-0.04-0.215c-0.069-0.377-0.219-0.669-0.383-0.888l1.214 6.55-3.835-1.464s-1.058-5.672-1.074-5.759c-0.07-0.377-0.219-0.668-0.383-0.888l1.215 6.554-3.836-1.463-1.061-5.757c-0.163-0.823-0.733-1.293-0.985-1.392-0.092-0.036-0.711-0.272-1.216-0.465 0.018 0.112 1.163 6.396 1.482 8.095 0.194 1.041 0.127 1.732-0.211 2.177-0.164 0.215-0.477 0.472-1.035 0.472-0.502 0-1.024-0.204-1.485-0.385l-2.495-0.948-0.109-0.587-0.442-2.382-0.232-1.251 1.892 0.718-1.379-7.442-1.893-0.722-1.59-8.578s19.961 9.099 20.897 9.565c0.097 0.049 0.197 0.097 0.303 0.147 0.58 0.278 1.238 0.592 1.837 1.199 0.687 0.696 1.129 1.613 1.349 2.803l0.155 0.833c0.222-0.172 0.501-0.262 0.828-0.262 0.265 0 0.559 0.062 0.875 0.183 0.943 0.361 1.65 0.998 2.16 1.638 0.241-0.215 0.546-0.331 0.902-0.331 0.235 0 0.489 0.052 0.753 0.153l1.364 0.523 0.688 3.708-0.812-0.311" fill="#231f20"/>
     </g>
     <g id="g2300" transform="translate(299.77,371.36)">
      <path id="path2302" d="m0 0c0.903-6.626-3.736-12.731-10.362-13.634s-12.73 3.737-13.634 10.362c-0.903 6.627 3.736 12.73 10.362 13.634 6.626 0.903 12.731-3.736 13.634-10.362" fill="#231f20"/>
     </g>
    </g>
   </g>
   <g id="g2304" transform="matrix(13.238,0,0,-13.238,-3561.3,5126.9)">
    <g id="g2306">
     <g id="g2312">
      <g id="g2314">
       <path id="path2324" d="m278.17 375.62c0.118 0.026 0.232 0.042 0.337 0.042 0.524 0 0.855-0.387 0.593-1.791-0.47-2.503-1.253-6.842-1.413-7.709-0.136-0.733-0.274-1.403 0.187-1.403 0.085 0 0.189 0.022 0.318 0.071 0 0 1.454 0.553 1.611 0.614 0.596 0.235 1.414 1.026 1.64 2.184l0.477 2.604 2.087 0.795-0.634-3.417c-0.086-0.467 0.011-0.71 0.251-0.71 0.078 0 0.171 0.026 0.279 0.079 0.595 0.292 1.388 1.032 1.606 2.207 0.015 0.085 0.031 0.153 0.044 0.206l0.445 2.395 2.086 0.796-0.633-3.412c-0.086-0.467 0.012-0.71 0.251-0.71 0.079 0 0.172 0.026 0.279 0.08 0.596 0.292 1.389 1.031 1.607 2.205 0.012 0.063 0.039 0.215 0.039 0.215 0.322 1.735 0.821 2.518 3.192 3.425l1.09 0.418 1.774 0.678 0.097 0.038-0.464-2.498 2e-3 1e-3 -0.366-1.977-0.051-0.27c-0.123-0.669-0.289-1.568-0.392-2.12-0.447-2.412-1.781-2.826-2.911-3.389-0.472-0.235-5.491-2.532-10.332-4.745 1.295-0.917 2.791-1.568 4.41-1.873-1.285 0.243-2.503 0.71-3.608 1.359l0.242 0.111c1.571-0.743 3.344-1.156 5.202-1.156 0.565 0 1.138 0.038 1.715 0.117 3.468 0.473 6.385 2.308 8.202 4.831-0.65-1.079-1.478-2.046-2.45-2.855 2.485 2.067 4.067 5.182 4.067 8.667 0 0.645-0.055 1.279-0.158 1.895-0.456-0.607-1.066-1.166-1.846-1.465-0.228-0.086-0.423-0.127-0.589-0.127h-2e-3c-0.779-1e-3 -0.908 0.893-0.698 2.023l0.25 1.35c0.201 1.081 0.494 1.801 1.26 2.41-2.004 3.118-5.504 5.184-9.487 5.184-4.062 0-7.623-2.15-9.606-5.373m8.304-1.261 2.087 0.796-0.319-1.717-2.086-0.795zm-4.077-1.556 2.086 0.795-0.318-1.717-2.087-0.795zm15.367 1.032-0.143-0.774c-0.086-0.467 0.011-0.71 0.25-0.71 0.078 0 0.171 0.026 0.279 0.078 0.153 0.076 0.32 0.181 0.486 0.316-0.171 0.615-0.392 1.208-0.659 1.775-0.093-0.192-0.162-0.417-0.213-0.685m-4.793-0.682c-0.882-0.338-1.353-0.726-1.541-1.74l-0.144-0.774c-0.038-0.211-0.04-0.377-8e-3 -0.495l2e-3 1e-3c0.039-0.143 0.128-0.216 0.258-0.216 0.078 0 0.171 0.026 0.278 0.079 0.596 0.293 1.389 1.033 1.607 2.207 0.015 0.086 0.03 0.152 0.044 0.206l0.183 0.992zm-2.239-5.413c-0.178-0.067-0.334-0.098-0.473-0.098h-2e-3c-0.589 0-0.844 0.554-0.905 1.144-4e-3 -7e-3 -7e-3 -0.015-0.012-0.023l3e-3 2e-3c-0.443-0.929-1.295-2.051-2.517-2.52-0.184-0.07-0.349-0.101-0.497-0.101h-2e-3c-0.618 0-0.935 0.552-1.028 1.139-0.432-0.944-1.296-2.117-2.553-2.598-0.184-0.07-0.349-0.102-0.498-0.102-0.614-1e-3 -0.931 0.545-1.025 1.128-0.434-0.941-1.295-2.1-2.547-2.579-0.01-4e-3 -0.022-8e-3 -0.033-0.012 0.233-0.322 0.483-0.632 0.748-0.927 5.24 2.089 11.668 4.648 12.128 4.823 0.786 0.298 1.108 0.885 1.276 1.794 0.011 0.057 0.099 0.533 0.199 1.071-0.476-0.846-1.191-1.73-2.262-2.141m4.2-6.724c0.016 0.013 0.032 0.027 0.047 0.04-0.015-0.014-0.031-0.027-0.047-0.04m-0.012-9e-3c4e-3 3e-3 8e-3 7e-3 0.012 9e-3 -4e-3 -2e-3 -8e-3 -6e-3 -0.012-9e-3m-0.018-0.015 0.018 0.015-0.018-0.015m-0.018-0.014c6e-3 4e-3 0.012 9e-3 0.018 0.014-6e-3 -5e-3 -0.012-9e-3 -0.018-0.014m-0.052-0.043c0.017 0.015 0.035 0.028 0.052 0.043-0.017-0.015-0.035-0.028-0.052-0.043m-5.533-2.378c-0.267-0.036-0.533-0.063-0.797-0.08 1.492 0.094 2.905 0.479 4.183 1.099-1.041-0.504-2.178-0.854-3.386-1.019" fill="url(#radialGradient2316)"/>
      </g>
     </g>
    </g>
   </g>
   <g id="g2326" transform="matrix(13.238,0,0,-13.238,-3561.3,5126.9)">
    <g id="g2328" clip-path="url(#clipPath2330)">
     <g id="g2334" transform="translate(286.3,380.5)">
      <path id="path2336" d="m0 0c3.052 0.416 5.976-0.3 8.288-1.802-2.296 1.745-5.258 2.614-8.341 2.193-3.084-0.42-5.706-2.051-7.451-4.347 1.825 2.067 4.451 3.54 7.504 3.956" fill="#fff"/>
     </g>
     <g id="g2338" transform="translate(299.98,375.84)">
      <path id="path2340" d="m0 0-0.679-0.26c-0.883-0.338-1.354-0.726-1.542-1.74l-0.143-0.773c-0.115-0.621 0.095-0.846 0.53-0.632 0.595 0.293 1.388 1.033 1.606 2.207 0.016 0.086 0.03 0.153 0.044 0.206l0.184 0.992m2.085-1.905-0.369-1.992-0.132-0.05c-0.01-4e-3 -0.021-8e-3 -0.032-0.012-0.225-0.087-0.407-0.157-0.681-0.261-0.927-0.355-1.276 0.317-1.342 1.046-0.442-0.93-1.248-2.038-2.473-2.507-1.298-0.497-1.541 0.525-1.287 1.896l0.251 1.35c0.321 1.735 0.885 2.542 3.255 3.45l2.698 1.032 0.098 0.038-0.631-3.402c-0.113-0.609 0.073-0.804 0.507-0.64l0.138 0.052m-8.418-0.516-0.68-0.261c-0.882-0.337-1.353-0.726-1.541-1.739l-0.143-0.774c-0.115-0.62 0.095-0.845 0.53-0.631 0.595 0.293 1.388 1.032 1.606 2.207 0.016 0.086 0.03 0.152 0.044 0.206l0.184 0.992m2.032 2.069 0.097 0.037-0.829-4.473-0.051-0.27c-0.124-0.669-0.29-1.568-0.393-2.121-0.447-2.412-1.781-2.825-2.911-3.388-0.931-0.464-19.599-8.973-19.599-8.973l0.591 3.187s18.146 7.237 18.932 7.534c0.785 0.299 1.107 0.885 1.276 1.795 0.011 0.057 0.1 0.536 0.2 1.075-0.477-0.846-1.193-1.734-2.266-2.144-0.932-0.357-1.302 0.316-1.378 1.045-0.44-0.933-1.296-2.069-2.527-2.541-0.952-0.364-1.411 0.31-1.525 1.038-0.432-0.944-1.297-2.117-2.554-2.599-0.947-0.362-1.406 0.303-1.523 1.027-0.434-0.941-1.295-2.1-2.546-2.579-2.036-0.773-5.823-2.215-5.823-2.215l0.374 2.016s0.665 0.253 1.129 0.429c0.463 0.176 0.785 0.41 0.941 1.256 0.157 0.845 1.444 7.787 1.444 7.787s0.117 0.523-0.319 0.37c-0.04-0.014-1.474-0.559-1.474-0.559l0.441 2.382s0.694 0.263 1.726 0.655c1.031 0.39 2.452 1.122 1.984-1.382-0.469-2.503-1.252-6.842-1.413-7.71-0.16-0.866-0.325-1.647 0.505-1.331 0 0 1.454 0.553 1.611 0.615 0.596 0.234 1.414 1.025 1.64 2.182l0.477 2.604 2.087 0.796-0.634-3.417c-0.115-0.621 0.095-0.845 0.53-0.631 0.596 0.292 1.388 1.032 1.606 2.206 0.016 0.086 0.031 0.153 0.045 0.207l0.444 2.395 2.086 0.796-0.632-3.412c-0.115-0.62 0.095-0.845 0.53-0.631 0.595 0.293 1.388 1.032 1.606 2.206 0.011 0.063 0.04 0.215 0.04 0.215 0.321 1.735 0.821 2.518 3.191 3.425l1.09 0.417 1.774 0.679m-11.199-1.884-2.087-0.796-0.318-1.716 2.086 0.795 0.319 1.717m3.759-0.16-2.087-0.796 0.318 1.716 2.087 0.796-0.318-1.716" fill="#fff"/>
     </g>
    </g>
   </g>
   <path id="path2340-4" d="m437.37 123.82-79.586 57.256c-0.17546 0.85358-0.35493 1.6924-0.51953 2.582l-3.3223 17.871c-3.3626 18.15-0.14633 31.679 17.037 25.1 16.217-6.2088 26.887-20.876 32.738-33.188 0.87374 9.6508 5.4936 18.547 17.766 13.848 3.6273-1.3768 6.037-2.3053 9.0156-3.457 0.14562-0.0529 0.29144-0.1052 0.42383-0.1582l1.748-0.66211 4.8848-26.371-1.8262 0.68945c-5.7455 2.1711-8.2088-0.41047-6.7129-8.4726l8.3535-45.037zm-27.416 27.602-2.4356 13.133c-0.18533 0.70164-0.37216 1.5881-0.58398 2.7266-2.886 15.542-13.383 25.338-21.26 29.217-5.7587 2.833-8.54-0.14418-7.0176-8.3652l1.8945-10.234c2.4888-13.424 8.7226-18.561 20.412-23.035l8.9902-3.4414zm-61.641 36.469-27.742 19.959c-4.4074 10.657-12.412 17.585-18.736 20.699-3.8941 1.9157-6.419 1.1644-7.1797-2.0547l-25.443 18.307c1.0236 9.622 5.928 18.474 18.234 13.76 14.205-5.4277 23.683-17.183 29.998-28.383-1.3238 7.1355-2.5028 13.476-2.6484 14.23-2.2373 12.047-6.5004 19.805-16.893 23.764-5.5224 2.0867-71.956 28.531-136.68 54.318l-121.78 87.609c1e-6 0 247.13-112.64 259.46-118.79 14.959-7.4532 32.62-12.921 38.537-44.852 1.3636-7.3208 3.5616-19.222 5.2031-28.078l0.67578-3.5762 4.9883-26.916zm-79.172 56.961-46.117 33.178c3.1543 1.9402 7.3419 2.394 12.725 0.33594 16.242-6.2278 27.551-21.186 33.393-33.514z" fill="#dddcdc"/>
   <g id="g2462" transform="matrix(13.238,0,0,-13.238,-3561.3,5126.9)">
    <g id="g2464" clip-path="url(#clipPath2466)">
     <g id="g2470" transform="translate(284.48,373.6)">
      <path id="path2472" d="m0 0-2.087-0.796-0.318-1.717 2.087 0.796zm4.077 1.556-2.086-0.796-0.318-1.716 2.086 0.796zm5.091-1.742-0.184-0.991c-0.014-0.054-0.029-0.121-0.045-0.207-0.218-1.174-1.01-1.913-1.606-2.206-0.107-0.053-0.201-0.079-0.279-0.079-0.239 0-0.337 0.243-0.251 0.71l0.144 0.774c0.188 1.013 0.659 1.402 1.541 1.739zm-15.144 2.25c-0.41 0-0.939-0.238-1.392-0.41-1.031-0.391-1.725-0.654-1.725-0.654l-0.442-2.382s1.435 0.544 1.475 0.559c0.055 0.02 0.102 0.028 0.14 0.028 0.268 0 0.179-0.399 0.179-0.399s-1.287-6.941-1.444-7.787-0.478-1.079-0.942-1.255-1.129-0.429-1.129-0.429l-0.373-2.016s3.786 1.441 5.822 2.215c1.252 0.479 2.113 1.637 2.547 2.579 0.094-0.584 0.411-1.129 1.025-1.129 0.149 0 0.314 0.032 0.498 0.102 1.257 0.482 2.122 1.655 2.553 2.598 0.093-0.587 0.409-1.139 1.028-1.139 0.148 0 0.314 0.032 0.497 0.102 1.232 0.472 2.087 1.608 2.528 2.541 0.061-0.591 0.315-1.144 0.905-1.144 0.138 0 0.295 0.03 0.473 0.098 1.072 0.411 1.789 1.298 2.265 2.144-0.1-0.538-0.189-1.017-0.2-1.075-0.168-0.909-0.49-1.495-1.276-1.794-0.785-0.297-18.931-7.534-18.931-7.534l-0.591-3.188s18.668 8.51 19.598 8.973c1.131 0.563 2.465 0.977 2.912 3.389 0.102 0.553 0.269 1.452 0.393 2.12l0.05 0.271 0.829 4.473-0.097-0.037-1.774-0.679-1.09-0.417c-2.37-0.908-2.869-1.691-3.191-3.425 0 0-0.028-0.152-0.04-0.215-0.218-1.174-1.01-1.913-1.606-2.206-0.107-0.053-0.201-0.079-0.279-0.079-0.24 0-0.337 0.243-0.251 0.71l0.633 3.411-2.087-0.796-0.444-2.395c-0.014-0.053-0.029-0.12-0.044-0.206-0.218-1.174-1.011-1.914-1.606-2.207-0.108-0.052-0.201-0.079-0.28-0.079-0.239 0-0.337 0.243-0.25 0.711l0.633 3.417-2.086-0.796-0.477-2.604c-0.226-1.157-1.047-1.933-1.64-2.183-0.156-0.066-1.611-0.615-1.611-0.615-0.129-0.049-0.234-0.071-0.318-0.071-0.462 0-0.323 0.671-0.187 1.403 0.161 0.868 0.944 5.207 1.413 7.71 0.262 1.404-0.069 1.791-0.593 1.791m21.477 0.172-0.184-0.992c-0.014-0.053-0.029-0.12-0.045-0.206-0.218-1.174-1.01-1.914-1.606-2.207-0.107-0.053-0.201-0.079-0.279-0.079-0.24 0-0.337 0.243-0.251 0.71l0.144 0.774c0.188 1.013 0.659 1.402 1.541 1.74zm2.07 2.085-0.097-0.038-1.716-0.657-0.983-0.376c-2.37-0.907-2.933-1.715-3.255-3.449l-0.25-1.351c-0.21-1.13-0.081-2.023 0.698-2.023 0.166 0 0.361 0.041 0.589 0.128 1.224 0.469 2.03 1.577 2.473 2.507 0.053-0.591 0.292-1.144 0.874-1.144 0.137 0 0.292 0.03 0.467 0.097 0.274 0.105 0.456 0.175 0.682 0.261 0.01 5e-3 0.022 8e-3 0.032 0.013l0.131 0.05 0.37 1.992-0.139-0.053c-0.097-0.036-0.182-0.055-0.253-0.055-0.249 0-0.341 0.224-0.253 0.696zm-17.775-4.565-0.251-1.359-1.746-0.665 0.252 1.358 1.745 0.666m4.078 1.556-0.252-1.358-1.746-0.666 0.252 1.358 1.746 0.666m3.18-5.137c0.103 0 0.22 0.032 0.348 0.095 0.671 0.33 1.467 1.112 1.69 2.318 0.015 0.077 0.028 0.141 0.042 0.195l2e-3 6e-3 1e-3 5e-3 0.184 0.992 0.05 0.273-0.259-0.099-0.68-0.261c-0.882-0.337-1.433-0.749-1.638-1.856l-0.144-0.774c-0.065-0.35-0.035-0.604 0.089-0.753 0.077-0.092 0.186-0.141 0.315-0.141m-13.03 5.733c0.171 0 0.289-0.047 0.372-0.146 0.127-0.153 0.242-0.53 0.068-1.461-0.321-1.712-0.792-4.301-1.104-6.015-0.144-0.794-0.258-1.421-0.309-1.695l-0.012-0.063c-0.112-0.599-0.208-1.117 6e-3 -1.374 0.057-0.068 0.163-0.15 0.346-0.15 0.107 0 0.229 0.027 0.373 0.082 0.059 0.022 1.459 0.551 1.616 0.617 0.674 0.283 1.503 1.123 1.733 2.298l0.461 2.518 1.746 0.666-0.583-3.145c-0.065-0.35-0.035-0.604 0.089-0.753 0.077-0.092 0.185-0.141 0.314-0.141 0.103 0 0.221 0.032 0.349 0.095 0.67 0.329 1.466 1.112 1.69 2.318 0.013 0.073 0.027 0.139 0.042 0.196l2e-3 0.01 0.428 2.309 1.746 0.666-0.582-3.138c-0.065-0.351-0.035-0.604 0.089-0.754 0.077-0.092 0.186-0.141 0.315-0.141 0.103 0 0.22 0.032 0.348 0.095 0.671 0.33 1.467 1.112 1.69 2.318l0.04 0.214c0.318 1.715 0.81 2.434 3.094 3.308l1.09 0.418 1.612 0.616-0.779-4.2-0.05-0.27-0.165-0.887-0.228-1.234c-0.392-2.111-1.467-2.625-2.508-3.122-0.105-0.05-0.214-0.103-0.32-0.155-0.856-0.427-17.014-7.795-19.322-8.847l0.521 2.809c1.312 0.523 18.101 7.218 18.85 7.502 0.779 0.296 1.177 0.849 1.373 1.911 0.01 0.049 0.075 0.401 0.156 0.836l0.044 0.239 0.172 0.922-0.46-0.817c-0.59-1.048-1.326-1.746-2.186-2.075-0.153-0.059-0.293-0.088-0.417-0.088-0.563 0-0.712 0.629-0.75 1.004l-0.058 0.555-0.238-0.505c-0.206-0.437-0.992-1.906-2.443-2.461-0.158-0.061-0.307-0.092-0.441-0.092-0.664 0-0.837 0.771-0.874 1.007l-0.08 0.511-0.215-0.47c-0.205-0.447-0.988-1.951-2.468-2.518-0.159-0.06-0.307-0.091-0.442-0.091-0.213 0-0.726 0.097-0.872 0.998l-0.081 0.503-0.214-0.463c-0.204-0.444-0.986-1.934-2.46-2.499-1.716-0.652-4.676-1.778-5.564-2.116l0.308 1.658c0.191 0.072 0.681 0.259 1.047 0.397 0.534 0.203 0.876 0.493 1.039 1.373l1.443 7.784c0.012 0.057 0.057 0.308-0.07 0.466-0.043 0.055-0.124 0.12-0.261 0.12-0.059 0-0.121-0.012-0.195-0.038-0.029-0.011-0.8-0.303-1.216-0.461l0.375 2.023c0.212 0.081 0.82 0.312 1.644 0.624 0.072 0.027 0.147 0.056 0.222 0.086 0.374 0.147 0.798 0.313 1.114 0.313m19.363-3.311c0.103 0 0.22 0.032 0.348 0.095 0.671 0.329 1.467 1.112 1.69 2.318 0.014 0.076 0.028 0.141 0.042 0.195l2e-3 5e-3 1e-3 6e-3 0.184 0.991 0.05 0.273-0.259-0.099-0.679-0.26c-0.883-0.338-1.434-0.75-1.639-1.856l-0.144-0.774c-0.065-0.351-0.035-0.604 0.089-0.753 0.077-0.093 0.186-0.141 0.315-0.141m3.981 5.479-0.58-3.128c-0.065-0.353-0.039-0.594 0.082-0.739 0.053-0.065 0.153-0.142 0.324-0.142 0.058 0 0.121 9e-3 0.189 0.027l-0.304-1.641-0.053-0.02-0.013-5e-3c-6e-3 -2e-3 -0.012-5e-3 -0.016-6e-3l-0.087-0.034-0.594-0.227c-0.152-0.058-0.29-0.088-0.412-0.088-0.547 0-0.686 0.629-0.719 1.003l-0.051 0.567-0.245-0.514c-0.766-1.611-1.825-2.213-2.388-2.428-0.203-0.078-0.383-0.118-0.533-0.118-0.186 0-0.325 0.059-0.426 0.18-0.225 0.271-0.267 0.86-0.119 1.659l0.25 1.35c0.313 1.687 0.837 2.444 3.158 3.333l0.983 0.376 1.554 0.595" fill="#fff"/>
     </g>
     <g id="g2474" transform="translate(287.76,358.46)">
      <path id="path2476" d="m0 0c-0.71 0-1.408 0.067-2.088 0.196 0.68-0.128 1.382-0.195 2.1-0.195 0.243 0 0.485 8e-3 0.725 0.023-0.247-0.016-0.493-0.024-0.737-0.024m4.921 1.124c0.768 0.372 1.488 0.829 2.146 1.359-0.656-0.528-1.375-0.986-2.146-1.359" fill="#5a5758"/>
     </g>
    </g>
   </g>
   <g id="g2478" transform="matrix(13.238,0,0,-13.238,-3561.3,5126.9)">
    <g id="g2480">
     <g id="g2486">
      <g id="g2488">
       <path id="path2496" d="m289.22 359.08c-0.577-0.079-1.15-0.117-1.715-0.117-1.858 0-3.631 0.413-5.202 1.156l-0.242-0.111c1.105-0.649 2.323-1.116 3.608-1.359 0.681-0.128 1.383-0.196 2.1-0.196 0.244 0 0.485 8e-3 0.726 0.024 0.264 0.017 0.53 0.044 0.797 0.08 1.208 0.165 2.345 0.515 3.386 1.019 0.768 0.372 1.488 0.829 2.147 1.359 1.035 0.833 1.914 1.843 2.597 2.976-1.817-2.523-4.734-4.358-8.202-4.831" fill="url(#radialGradient2490)"/>
      </g>
     </g>
    </g>
   </g>
  </g>
 </g>
 <g id="g1020" transform="matrix(.75333 0 0 .75333 122.13 -40.493)" fill="#ae3ce8">
  <path id="path2" d="m1406.2 204.38c6.36-1.3733 12.987-1.6533 19.453-0.81333 6.1333 0.86666 11.667 5.7333 12.413 12.04 1.6533 15.84-3.2533 32.147-12.627 44.933-5.76 7.64-14.827 14.707-24.987 12.84-9.0934-2.2533-15.373-9.9867-20.6-17.253-4.08-6.2933-8.52-12.973-9.2134-20.627-0.6533-6.8533 3.5467-12.96 8.4667-17.267 7.64-6.84 17.12-11.56 27.093-13.853z" stroke-width="1.3333"/>
  <path id="path4" d="m1298.9 218.08c5.7333-5.9333 13.227-10.373 21.387-11.84 5.8134-1.16 12.4 0.49333 16.213 5.24 4.8133 5.96 5.5 13.96 5.7133 21.347v238.64c-0.24 11.227 0.98 22.787-2.66 33.653-3.5467 11.013-9.6133 22.28-20.133 27.987-5.3067 2.9867-12.04 2.48-16.96-1.0267-9.2133-6.44-15.907-16.093-19.893-26.507-3.9734 10.373-10.533 20.773-20.853 25.693-16.053 5.8933-33.76 4.1467-50.133 0.6-26.92-6.5333-50.987-23.6-66.76-46.28-27.067-38.547-27.893-93.533-1.7733-132.76 13.493-21.04 33.627-37.8 57-46.787 25.96-10.067 55.84-10.867 81.467 0.69333 0.6134-19.307 0.6934-38.613 1.3467-57.92 1.08-11.827 7.9067-22.413 16.04-30.733m-76.973 140.59c-19.067 7.0933-34.04 24.64-37.453 44.787-2.72 15.147-0.6133 31.427 7.2134 44.827 8.2266 13.973 21.893 25.12 37.907 28.613 17.653 4.0667 36.787 0.0667 51.92-9.68v-102.92c-17.92-9.7467-40.213-12.533-59.587-5.6267z" stroke-width="1.3333"/>
  <path id="path6" d="m772.11 228.55c11.36-10.427 27.427-16.307 42.827-13.827 6.0933 0.88 10.86 6.4533 10.753 12.613v74.473c10.395 0 19.607-0.11333 29.393 0.12667 5.84 0.10667 11.987 3.5467 13.173 9.6533 1.72 11.32-1.16 23.027-6.4667 33.053-3.9867 7.3867-9.8267 14.547-18.147 17.067-2.6496 0.94535-11.794 0.79333-17.953 0.79333v99.66c-0.28 6.24 2.0467 13.08 7.9667 16.04 4.5333 2.1733 9.8533 4.88 10.4 10.547 1.84 15.96-4.3867 32.693-16.067 43.693-4.3867 4.3733-10.088 5.6495-16.813 4.9333-26-2.3333-46.2-27.573-46.12-53.107v-121.77c-6.9318 0-15.018 0.3794-20.44-0.63333-6.8933-1.96-11.8-7.72-15.947-13.253-3.9467-5.6-7.7733-11.653-8.9333-18.52-0.70667-8.2667 5.6667-14.84 12.093-19.013 9.6667-6.72 19.81-9.2733 33.227-9.2733v-58.247c-0.13333-5.8 2.84-11.2 7.0533-15.013z" stroke-width="1.3333"/>
  <path id="path985" d="m1578.4 300.84a114.99 117.87 0 0 0-114.99 117.87 114.99 117.87 0 0 0 114.99 117.87 114.99 117.87 0 0 0 114.99-117.87 114.99 117.87 0 0 0-114.99-117.87zm0 57.607a58.788 60.258 0 0 1 58.789 60.258 58.788 60.258 0 0 1-58.789 60.258 58.788 60.258 0 0 1-58.787-60.258 58.788 60.258 0 0 1 58.787-60.258z" style="paint-order:stroke fill markers"/>
  <path id="path10" d="m901.53 329.98c2.0133-14.107 15.027-24.28 28.32-27.333 6.4533-1.5867 14.507-1.3467 19.133 4.0933 4.2933 4.9467 4.4328 11.703 4.4233 18.093v90.667c0 17.334-1.3033 31.253 3.1367 46.333 2.3467 8.7333 7.4 17.813 16.333 21.107 13.187 4.7467 28.253 4.08 41.053-1.5867 12.027-5.4 22.093-17.453 21.707-31.12 1.8133-38.72-0.2667-77.533 1.3733-116.25 0.7733-7.5733 3.0267-15.733 9.1733-20.72 6.7334-5.0667 15.293-6.52 23.4-7.88 6.3067-0.86667 13.72-1.2133 18.707 3.5067 4.24 3.6 4.3 9.5467 4.3933 14.653v164.09c0.1867 14.667-4.34 29.667-13.953 40.907-4.8933 5.4133-11.96 10.4-19.653 8.7467-7.8267-1.8933-13.4-8.36-18.133-14.467-2.9866-4.3733-6.6666-8.4-8.4666-13.453-4.0934 10.96-13.32 19.52-24.333 23.28-11.751 4.0602-24.175 4.5033-36.453 3.2645-16.65-1.861-34.877-5.9724-47.413-14.944-5.8267-4.08-9.56-10.373-12.667-16.613-4.955-10.547-7.5409-21.943-8.7477-33.485-2.9432-35.529-1.7389-74.476-2.5056-105.99-0.0133-11.64-0.2-23.307 1.1733-34.893z" stroke-width="1.3333"/>
  <path id="path12" d="m1409 303.02c6.3334-0.65333 13.373-1.52 19.147 1.7467 4.3067 2.32 6.2133 7.4133 6.1867 12.08v168.01c0.5466 15.173-4.48 30.773-14.667 42.133-5.5333 5.9733-14.6 10.693-22.52 6.4667-9.8933-5.4667-16.84-15.24-21.4-25.387-2.3765-4.1296-2.08-11.752-2.08-17.813v-158.83c-0.32-6.3067 3.6133-11.813 8.2-15.72 7.6933-6.5467 17.147-11.093 27.133-12.693z" stroke-width="1.3333"/>
  <path id="path14-6" d="m551.51 347.74c14.293-29.32 48.893-45.173 80.613-42 13.893 1.8133 26.4 8.56 39.24 13.72 5.9333 2.3467 11.6 6.2933 14.427 12.187 3.4267 6.6 2.5867 14.573-0.10667 21.267-2.6 6.4533-6.52 12.947-12.933 16.187-6.48 3.3733-14.16 2.5733-20.933 0.58666-9.9506-3.106-20.217-6.2432-30.596-7.2523-9.644-0.93768-9.6817-2.1529-17.21 4.7831-2.5559 2.8367-1.9961 4.7622-0.96802 6.3266 2.2878 3.3135 3.1887 4.1184 8.2931 7.0493 19.867 10.8 42.56 16.053 60.987 29.547 10.987 7.88 20.053 18.88 24.067 31.92 6.0667 19.347 3.08 41.533-8.64 58.2-11.88 17.427-31.893 28.333-52.6 31.04-21.397 2.8774-44.122-1.0941-62.834-11.963-10.46-6.8199-19.26-14.101-26.923-22.744-2.9581-3.3711-5.357-7.1208-6.2427-11.666-2.0267-9.32 4.16-18 11.373-23.213 7.4667-6.08 18.053-8.4133 27.187-4.92 10.667 3.4933 16.453 14.293 26.693 18.613 11.667 6.2716 26.466 3.2268 36.056-5.4512 2.3887-1.6958 2.0713-3.1904 1.4155-5.6112-1.712-6.278-4.9886-12.313-10.712-15.711-11.987-7.52-25.947-10.893-38.64-16.947-16.213-7.6533-32.093-18.4-40.733-34.587-8.3067-15.093-7.8267-34.067-0.28-49.36z" stroke-width="1.3333"/>
 </g>
</svg>
