<svg id="a" width="343.5pt" height="343.5pt" version="1.1" viewBox="0 0 343.5 343.5" xmlns="http://www.w3.org/2000/svg">
 <g id="b" transform="matrix(.93607 0 0 .93607 1392 2.6116)">
  <path id="c" d="m-1120.1 180.69a183.48 183.48 0 0 1-183.48 183.48 183.48 183.48 0 0 1-183.48-183.48 183.48 183.48 0 0 1 183.48-183.48 183.48 183.48 0 0 1 183.48 183.48z" style="paint-order:stroke fill markers"/>
  <path id="d" d="m-1131.8 180.69a171.75 171.75 0 0 1-171.75 171.75 171.75 171.75 0 0 1-171.75-171.75 171.75 171.75 0 0 1 171.75-171.75 171.75 171.75 0 0 1 171.75 171.75z" fill="#fff" style="paint-order:stroke fill markers"/>
 </g>
 <g id="e" transform="translate(-10.28 -26.371)">
  <path id="f" transform="matrix(.75 0 0 .75 10.28 26.371)" d="m206.89 192.92-78.225 0.85937c-18.356 0.39133-30.052 0.20204-50.398 4.7559v2e-3c10.648 4.1066 20.744 4.2855 32.217 5.0781l28.545 0.87305v154.68h17.033v-154.16l46.828 1.4316c5.0995 0.19667 8.9324 0.2556 13.334 2.8945 11.875 6.2347 19.509 18.748 25.678 30.357l58.385 112.12c3.3097 6.0872 5.7912 8.8613 11.92 8.8613 5.6048 0 8.8386-2.4596 11.447-8.5723l26.9-68.357c8.5971-22.592 20.784-57.829 28.555-84.049-13.73 24.11-30.576 58.198-38.75 78.17l-28.154 63.088-49.133-97.322c-6.2307-11.528-12.471-23.258-21.391-32.98-7.5707-8.2931-17.495-14.841-28.549-17.205-1.8612-0.39535-4.0467-0.53125-6.2422-0.53125z" stroke-width="1.0033"/>
  <g id="g">
   <path id="h" d="m77.393 99.363h52.822v6.2157h-23.226v43.867h-6.4301v-43.867h-23.166z" stroke-width=".7525"/>
   <path id="i" d="m234.14 102.46c0.0151 15.667-0.0527 31.334 0.0376 46.994h-6.4825v-0.21075h-4.6412c-4.5819-6e-3 -9.5388-1.0652-12.595-4.7105-3.2734-3.7475-3.1154-9.0601-3.0251-13.733 0.22575-4.9891 0.71488-10.701 4.658-14.275 2.3817-2.0826 5.4278-3.1531 8.5213-3.1531h7.0819c0-3.6346 8e-3 -7.2615 0-10.896 2.1296-0.0301 4.3081-0.0301 6.4452-0.0151zm-20.07 24.778c-0.26426 2.5295-0.43652 5.8958-0.21661 8.6992 0.69219 4.5324 3.139 6.7488 7.3854 6.8037h6.4559l-3.3e-4 -22.966h-6.611c-4.7946 0.13524-6.4805 3.2235-7.0134 7.4628z" stroke-width=".7525"/>
   <path id="j" d="m121.49 116.82c4.2592-3.4465 10.038-3.3185 15.216-3.1831l-0.3311 6.2533c-3.4916 0.0226-7.2692-0.2107-10.415 1.5803-2.0318 1.3921-2.2462 4.1312-2.4042 6.3737v21.6h-6.4151v-20.916c0.0752-4.2065 0.88795-8.9096 4.3495-11.709z" stroke-width=".7525"/>
   <path id="k" d="m173.48 113.68h6.4417v0.36075h3.529c5.1847 0.0753 10.776 0.7827 14.952 4.1313 5.0602 4.4177 6.0123 10.501 6.0123 16.409v14.868h-6.3585v-14.868c0-4.6839-0.34118-9.5998-4.6805-12.105-4.0861-2.2726-8.932-2.0468-13.455-2.0318l-2.3e-4 29.005h-6.4414z" stroke-width=".7525"/>
   <path id="l" d="m254.28 113.37c11.618 0 17.64 6.6935 17.536 20.118h-27.903c1.6329 5.4481 6.7349 9.8126 12.507 9.8728 3.4766 0.0978 8.3227-0.81273 9.0376-4.8988h6.3887c-0.30852 3.1003-1.5652 6.2156-4.1689 8.0818-6.607 4.7182-16.186 4.1839-22.583-0.65467-6.5392-4.7332-9.6847-13.816-7.0058-21.499 2.2704-6.3792 8.9162-11.02 16.191-11.02zm-10.389 13.793h20.889c-0.89062-5.6448-6.1924-7.7642-10.445-7.7642-3.8517 0-8.5878 1.9234-10.445 7.7642z" stroke-width=".7525"/>
   <path id="m" d="m279.86 116.82c4.2592-3.4465 10.038-3.3185 15.216-3.1831l-0.3311 6.2533c-3.4916 0.0226-7.2692-0.2107-10.415 1.5803-2.0318 1.3921-2.2462 4.1312-2.4042 6.3737v21.6h-6.4151v-20.916c0.0752-4.2065 0.88795-8.9096 4.3495-11.709z" stroke-width=".7525"/>
   <path id="n" transform="scale(.75)" d="m216.08 153.5-1.4941 1.9492a23.584 24.407 37.5 0 0-28.783 7.7949 23.584 24.407 37.5 0 0-0.0801 29.82l-2.4082 3.1367 7.1914 5.5078 0.58789-0.76758 1.5762-2.0547a23.584 24.407 37.5 0 0 30.553-6.9297 23.584 24.407 37.5 0 0-1.207-31.312l1.25-1.6308-7.1856-5.5137zm-11.562 8.8477a14.931 15.452 37.5 0 1 4.3789 0.51367l-17.48 22.781a14.931 15.452 37.5 0 1 1.25-17.131 14.931 15.452 37.5 0 1 11.852-6.1641zm11.945 5.5312a14.931 15.452 37.5 0 1-0.10351 18.812 14.931 15.452 37.5 0 1-18.145 4.9688l18.248-23.781z" style="paint-order:stroke fill markers"/>
  </g>
 </g>
</svg>
