<svg id="c" width="800" height="303.57" version="1.1" viewBox="0 0 211.67 80.319" xmlns="http://www.w3.org/2000/svg">
 <defs id="d">
  <clipPath id="a">
   <path id="e" d="m197.94 482.3h27.781v10.534h-27.781z"/>
  </clipPath>
  <clipPath id="b">
   <path id="f" d="m197.94 482.3h27.781v10.534h-27.781z"/>
  </clipPath>
 </defs>
 <g id="g" transform="translate(21.906 -70.372)">
  <g id="h" transform="matrix(7.6248 0 0 -7.6248 -1531.2 3828.1)">
   <g id="i" clip-path="url(#b)">
    <g id="j" transform="translate(206.18 490.73)">
     <path id="k" d="m0 0h-2.748c-0.084 0-0.191-0.057-0.238-0.127l-0.591-0.876h3.352c0.135-2e-3 0.262-0.07 0.278-0.228 0.019-0.196-0.19-0.375-0.384-0.375h-1.498c-0.085 0-0.191-0.056-0.238-0.126l-0.592-0.877h2.156c0.84 0 1.712 0.731 1.68 1.537-0.025 0.637-0.586 1.072-1.177 1.072" fill="#d21616"/>
    </g>
    <g id="l" transform="translate(201.7 489.72)">
     <path id="m" d="m0 0h-3.757l0.592 0.876c0.047 0.071 0.154 0.127 0.237 0.127h3.757l-0.591-0.877c-0.047-0.07-0.154-0.126-0.238-0.126" fill="#d21616"/>
    </g>
    <g id="n" transform="translate(199.52 486.83)">
     <path id="o" d="m0 0 0.24 2.289h1.117l-0.243-2.31 1.473 2.184c0.047 0.07 0.154 0.126 0.238 0.126h1.077l-1.674-2.482c-0.047-0.07-0.154-0.126-0.238-0.126h-1.702c-0.178 0-0.307 0.142-0.288 0.319" fill="#d21616"/>
    </g>
    <g id="p" transform="translate(205.96 486.51)">
     <path id="q" d="m 0,0 h -3.526 l 0.591,0.877 c 0.047,0.07 0.154,0.126 0.238,0.126 H 0.829 L 0.237,0.127 C 0.191,0.056 0.084,0 0,0" fill="#d21616"/>
    </g>
   </g>
  </g>
  <g id="r" transform="matrix(7.6248 0 0 -7.6248 86.52 70.372)">
   <path id="s" d="m0 0-7.106-10.534h0.823l7.107 10.534z" fill="#a7a9ac"/>
  </g>
  <g id="t" transform="matrix(7.6248 0 0 -7.6248 -1531.2 3828.1)">
   <g id="u" clip-path="url(#a)">
    <g id="v" transform="translate(225.55 488.62)">
     <path id="w" d="m0 0h-1.316l-0.461-2.284-0.103-0.389-0.807 2.285c-0.074 0.214-0.317 0.388-0.543 0.388h-0.947l-1.251-4.659c-0.027-0.102 0.036-0.185 0.143-0.185h1.136l0.741 2.768 0.994-2.644s2e-3 -9e-3 8e-3 -0.024c0.036-0.086 0.126-0.1 0.161-0.1h1.136l1.251 4.658c0.028 0.103-0.036 0.186-0.142 0.186" fill="#d21616"/>
    </g>
    <g id="x" transform="translate(217.27 488.62)">
     <path id="y" d="m0 0c0.227 0 0.457-0.178 0.515-0.397l0.373-1.416 1.203 1.494c0.142 0.176 0.44 0.319 0.667 0.319h1.195l-2.706-3.114-0.463-1.73h-1.157c-0.107 0-0.17 0.083-0.143 0.185l0.456 1.69-0.976 2.969z" fill="#d21616"/>
    </g>
    <g id="z" transform="translate(216.11 488.62)">
     <path id="aa" d="m0 0-0.268-0.991c-0.028-0.102-0.136-0.185-0.243-0.185h-2.333l-0.222-0.824h2.284l-0.248-0.928c-0.027-0.103-0.136-0.186-0.242-0.186h-2.091l-0.464-1.73h-1.157c-0.106 0-0.17 0.083-0.143 0.185l1.252 4.659z" fill="#d21616"/>
    </g>
   </g>
  </g>
 </g>
</svg>
