<?xml version="1.0" encoding="UTF-8"?>
<!-- Generator: Adobe Illustrator 21.0.0, SVG Export Plug-In . SVG Version: 6.00 Build 0)  -->
<svg id="Layer_1" width="719.2" height="72.1" space="preserve" version="1.1" viewBox="0 0 719.2 72.1" xmlns="http://www.w3.org/2000/svg" xmlns:cc="http://creativecommons.org/ns#" xmlns:dc="http://purl.org/dc/elements/1.1/" xmlns:rdf="http://www.w3.org/1999/02/22-rdf-syntax-ns#">
 <metadata id="metadata95">
  <rdf:RDF>
   <cc:Work rdf:about="">
    <dc:format>image/svg+xml</dc:format>
    <dc:type rdf:resource="http://purl.org/dc/dcmitype/StillImage"/>
    <dc:title/>
   </cc:Work>
  </rdf:RDF>
 </metadata>
 <link id="dark-mode" href="" rel="stylesheet" type="text/css"/>
 <g id="g88" fill="#ff6000">
  <g id="g64">
   <g id="g8">
    <path id="path4" class="st0" d="m184.1 71c-5.2 0-10.1-1.2-14.5-3.6l-0.5-0.3-3.2 3.9h-11.1l7.8-9.2-0.4-0.5c-4.2-4.9-6.5-11.5-6.5-18.4 0-16 12.2-28.1 28.5-28.1 5.2 0 10 1.2 14.4 3.6l0.5 0.3 3.1-3.9h11.2l-7.7 9.3 0.4 0.5c4.2 5 6.6 11.5 6.6 18.3-0.2 16.1-12.4 28.1-28.6 28.1zm-9.3-10.5 0.8 0.4c2.6 1.3 5.5 2 8.5 2 10.7 0 19.1-8.7 19.1-19.9 0-3.8-1.1-7.6-3.1-10.9l-0.5-0.9zm9.3-37.5c-10.7 0-19.1 8.8-19.1 19.9 0 3.9 1 7.7 3 10.9l0.5 0.9 24.8-29.3-0.8-0.4c-2.7-1.3-5.6-2-8.4-2z"/>
    <path id="path6" class="st0" d="m211.8 15.6-6.4 7.6-0.8 0.9 0.8 0.9c4.1 4.9 6.4 11.2 6.4 17.9 0 7.4-2.7 14.3-7.7 19.4-5.1 5.2-12.2 8-20.1 8-5.1 0-9.9-1.2-14.1-3.5l-1-0.6-0.8 0.9-2.6 3.2h-9.3l6.4-7.6 0.8-0.9-0.8-0.9c-4.1-4.8-6.4-11.2-6.4-17.9 0-7.4 2.7-14.3 7.7-19.4 5.1-5.2 12.2-8 20.1-8 5.1 0 9.8 1.2 14 3.5l1.1 0.6 0.8-0.9 2.5-3.1h9.4m-43.5 40.3 1.3-1.5 23.6-27.8 1.2-1.4-1.6-0.8c-2.7-1.4-5.7-2.1-8.7-2.1-11.1 0-19.8 9.1-19.8 20.6 0 4.1 1.1 8 3.1 11.3l0.9 1.7m15.8 7.6c11.1 0 19.8-9.1 19.8-20.6 0-4-1.1-7.9-3.2-11.3l-1-1.7-1.3 1.5-23.6 27.8-1.2 1.4 1.6 0.8c2.8 1.4 5.8 2.1 8.9 2.1m30.8-49.4h-13.1l-3 3.7c-4.2-2.3-9.2-3.7-14.7-3.7-17.3 0-29.2 12.9-29.2 28.8 0 7.2 2.4 13.8 6.7 18.9l-8.4 9.9h13l3-3.7c4.2 2.3 9.2 3.7 14.8 3.7 17.3 0 29.2-12.9 29.2-28.8 0-7.2-2.5-13.8-6.7-18.8zm-46.4 39.3c-1.8-3-2.9-6.6-2.9-10.6 0-10.6 7.8-19.2 18.4-19.2 2.9 0 5.7 0.7 8.1 1.9zm15.6 8.7c-3 0-5.8-0.7-8.2-1.9l23.6-27.8c1.8 3 3 6.7 3 10.6 0 10.4-7.9 19.1-18.4 19.1z"/>
   </g>
   <g id="g14">
    <path id="path10" class="st0" d="m239.9 71c-6.8 0-13.5-2.7-19.2-7.7l6-6.3c3.6 3.7 8.5 5.8 13.2 5.8 5.1 0 8.9-3.3 8.9-7.8 0-5.5-5.3-7.6-11-9.8-2.5-1-5-2-7.3-3.3-5.1-3-7.6-6.9-7.6-12.1 0-9.8 9.2-15 17.8-15 5.8 0 10.7 1.5 15.2 4.7l-4.7 6.8c-2.5-2-6.2-3.3-9.5-3.3-4.7 0-9.4 2.1-9.4 6.8 0 4.2 4.6 6 9.9 8.1 7.5 3 16 6.3 16 17-0.1 9.1-8.1 16.1-18.3 16.1z"/>
    <path id="path12" class="st0" d="m240.7 15.6c5.4 0 10 1.3 14.2 4.2l-3.9 5.6c-2.6-1.9-6.1-3-9.4-3-7 0-10.1 3.8-10.1 7.5 0 4.7 5 6.7 10.3 8.8 7.3 2.9 15.5 6.2 15.5 16.3 0 8.6-7.7 15.4-17.5 15.4-6.4 0-12.7-2.4-18.2-7l5-5.2c3.7 3.5 8.5 5.5 13.2 5.5 5.6 0 9.6-3.6 9.6-8.5 0-6-5.8-8.2-11.4-10.5-2.4-1-5-2-7.2-3.3-4.8-2.8-7.2-6.6-7.2-11.5 0.1-9.3 8.8-14.3 17.1-14.3m0-1.4c-9.3 0-18.5 5.8-18.5 15.8 0 6.3 3.5 10.2 7.9 12.7 7.5 4.4 17.9 5.3 17.9 12.5 0 4.1-3.4 7-8.2 7-5.1 0-10-2.6-13.2-6.2l-7 7.4c5.8 5.3 12.7 8.4 20.2 8.4 10.1 0 19-6.9 19-16.8 0-18.9-25.8-16.1-25.8-25.1 0-4.3 4.6-6.1 8.6-6.1 3.7 0 7.4 1.6 9.7 3.7l5.6-8c-5.2-4-10.5-5.3-16.2-5.3z"/>
   </g>
   <g id="g20">
    <polygon id="polygon16" class="st0" points="265.6 23.8 265.6 15.7 304.5 15.7 304.5 23.8 289.7 23.8 289.7 70.2 280.4 70.2 280.4 23.8"/>
    <path id="path18" class="st0" d="m303.8 16.4v6.7h-14.8v46.4h-7.9v-46.4h-14.8v-6.7h37.5m1.5-1.4h-40.4v9.6h14.8v46.4h10.8v-46.4h14.8z"/>
   </g>
   <g id="g26">
    <path id="path22" class="st0" d="m322.6 71c-6.6 0-12.2-3.3-14.8-8.8l8-4c0.9 1.8 2.9 4.6 6.9 4.6 2.2 0 4.2-0.9 5.4-2.5 1-1.3 1.4-3 1.4-5.8v-38.8h9.4v37.7c0 4.5-0.5 7.4-1.7 9.6-2.6 4.9-8.2 8-14.6 8z"/>
    <path id="path24" class="st0" d="m338.2 16.4v37c0 4.4-0.5 7.2-1.6 9.2-2.6 4.8-7.9 7.7-14 7.7s-11.2-2.9-13.8-7.7l6.7-3.4c1.1 1.9 3.3 4.4 7.2 4.4 2.4 0 4.6-1 6-2.8 1.1-1.5 1.6-3.3 1.6-6.2v-38.2h7.9m1.5-1.4h-10.8v39.6c0 3-0.5 4.3-1.3 5.4-1.1 1.4-2.9 2.2-4.9 2.2-3.7 0-5.7-2.6-6.6-4.9l-9.3 4.6c2.6 6 8.5 9.8 15.8 9.8 6.5 0 12.4-3.1 15.3-8.5 1.3-2.4 1.8-5.4 1.8-9.9z"/>
   </g>
   <g id="g32">
    <polygon id="polygon28" class="st0" points="350.6 15.7 361.2 15.7 373.9 36 386.5 15.7 397.2 15.7 378.5 45.4 378.5 70.2 369.2 70.2 369.2 45.4"/>
    <path id="path30" class="st0" d="m395.9 16.4-17.9 28.4-0.2 0.4v24.3h-7.9v-24.3l-0.2-0.4-17.8-28.4h8.9l11.9 19 1.2 2 1.2-2 11.8-19h9m2.6-1.4h-12.3l-12.2 19.7-12.4-19.7h-12.3l19.2 30.6v25.4h10.8v-25.4z"/>
   </g>
   <g id="g38">
    <polygon id="polygon34" class="st0" points="418.5 15.7 418.5 62.1 442.1 62.1 442.1 70.2 409.2 70.2 409.2 15.7"/>
    <path id="path36" class="st0" d="m417.8 16.4v46.4h23.6v6.7h-31.5v-53.1h7.9m1.5-1.4h-10.8v56h34.4v-9.6h-23.6z"/>
   </g>
   <g id="g44">
    <polygon id="polygon40" class="st0" points="464.5 15.7 464.5 62.1 488.1 62.1 488.1 70.2 455.2 70.2 455.2 15.7"/>
    <path id="path42" class="st0" d="m463.8 16.4v46.4h23.6v6.7h-31.5v-53.1h7.9m1.5-1.4h-10.8v56h34.4v-9.6h-23.6z"/>
   </g>
   <g id="g50">
    <path id="path46" class="st0" d="m542.4 70.2-5.3-12.4h-23.4l-5.3 12.4h-9.7l23.4-54.6h6.7l23.4 54.6zm-25.2-20.5h16.4l-8.2-19.1z"/>
    <path id="path48" class="st0" d="m528.3 16.4 22.8 53.1h-8.1l-5-11.5-0.4-0.9h-24.5l-0.4 0.9-4.7 11.5h-8.1l22.8-53.1h5.6m-12.2 34h18.6l-0.9-2-7.1-16.6-1.3-3.1-1.3 3.1-7.1 16.6-0.9 2m13.2-35.4h-7.6l-24 56h11.3l5.3-12.4h22.5l5.2 12.4h11.3zm-11 34 7.1-16.6 7.1 16.6z"/>
   </g>
   <g id="g56">
    <polygon id="polygon52" class="st0" points="572.9 70.2 563.6 70.2 563.6 15.7 570.1 15.7 602.4 53.4 602.4 15.7 611.7 15.7 611.7 70.2 605.2 70.2 572.9 32.5"/>
    <path id="path54" class="st0" d="m611 16.4v53.1h-5.5l-30.8-36-2.5-3v38.9h-7.9v-53h5.5l30.8 36 2.5 3v-38.9h7.9m1.5-1.5h-10.8v36.5l-31.2-36.5h-7.6v56h10.8v-36.5l31.2 36.5h7.6z"/>
   </g>
   <g id="g62">
    <path id="path58" class="st0" d="m629.2 70.2v-54.5h16.9c8.1 0 14.1 1.6 18.9 5.1 6.8 5 10.8 13.3 10.8 22.1s-4 17.1-10.8 22.1c-4.8 3.5-10.7 5.1-18.9 5.1h-16.9zm9.3-8.1h8.7c6.5 0 11.4-2.1 14.9-6.5 2.7-3.4 4.2-7.9 4.2-12.6s-1.5-9.2-4.2-12.6c-3.5-4.4-8.4-6.5-14.9-6.5h-8.7z"/>
    <path id="path60" class="st0" d="m646.1 16.4c7.9 0 13.8 1.6 18.4 5 6.6 4.9 10.5 13 10.5 21.6s-3.9 16.7-10.5 21.6c-4.6 3.4-10.5 5-18.4 5h-16.2v-53.2h16.2m-8.3 46.4h9.4c6.7 0 11.9-2.3 15.4-6.8 2.8-3.5 4.4-8.2 4.4-13.1s-1.6-9.5-4.4-13.1c-3.6-4.5-8.8-6.8-15.4-6.8h-9.4v39.8m8.3-47.8h-17.6v56h17.6c8.9 0 14.7-1.9 19.3-5.3 6.9-5.1 11.1-13.4 11.1-22.7s-4.2-17.6-11.1-22.7c-4.6-3.4-10.5-5.3-19.3-5.3zm-6.8 46.4v-36.8h8c6.6 0 11.2 2.3 14.3 6.2 2.6 3.2 4.1 7.5 4.1 12.2 0 4.6-1.5 9-4.1 12.2-3.1 3.9-7.7 6.2-14.3 6.2z"/>
   </g>
  </g>
  <g id="g72">
   <g id="g70" fill="#ff6000">
    <path id="path66" class="st0" d="m706.2 25.1c-6.7 0-12.2-5.4-12.2-12.1 0-6.8 5.5-12.3 12.2-12.3 6.8 0 12.3 5.5 12.3 12.3 0 6.7-5.5 12.1-12.3 12.1zm-0.1-21.3c-4.9 0-9 4.1-9 9.2 0 4.9 4 9 9 9s9.2-4.1 9.2-9c0.1-4.9-4.2-9.2-9.2-9.2z"/>
    <path id="path68" class="st0" d="m706.2 1.4c6.4 0 11.6 5.2 11.6 11.6 0 6.3-5.2 11.4-11.6 11.4-6.3 0-11.5-5.1-11.5-11.4 0-6.4 5.1-11.6 11.5-11.6m-0.1 21.3c5.4 0 10-4.4 10-9.7 0-5.4-4.6-9.9-10-9.9-5.3 0-9.7 4.5-9.7 9.9s4.4 9.7 9.7 9.7m0.1-22.7c-7.2 0-12.9 5.8-12.9 13 0 7.1 5.7 12.8 12.9 12.8s13-5.7 13-12.8c0-7.2-5.8-13-13-13zm-0.1 21.3c-4.6 0-8.3-3.7-8.3-8.3 0-4.7 3.7-8.5 8.3-8.5s8.5 3.8 8.5 8.5c0.1 4.6-3.9 8.3-8.5 8.3z"/>
   </g>
  </g>
  <g id="g86">
   <g id="g78">
    <polygon id="polygon74" class="st0" points="21.9 20.4 21.9 71.4 16.6 71.4 16.6 20.4 0.7 20.4 0.7 15.3 40.4 15.3 59.5 62.5 78.6 15.3 84.1 15.3 61.2 71.4 57.7 71.4 36.9 20.4"/>
    <path id="path76" class="st0" d="m83 16-22.2 54.7h-2.6l-20.4-50.2-0.4-0.9h-16.2v51h-3.9v-50.9h-15.9v-3.7h38.4l18.3 45.1 1.3 3.3 1.3-3.3 18.4-45.1h3.9m2.2-1.4h-7.1l-18.6 46-18.5-45.7-0.1-0.3h-40.9v6.5h15.9v51h6.8v-51h13.8l20.8 51h4.5z"/>
   </g>
   <g id="g84">
    <path id="path80" class="st0" d="m90.5 71.4v-3.3l21.3-25.6c5-5.9 5.7-9.2 5.7-11.9 0-6.4-4.5-11-10.7-11-5.6 0-9.7 3.5-11.1 9.5l-0.1 0.3-4.8-1.7 0.1-0.2c1.7-7.7 8.1-12.9 15.8-12.9 9.4 0 16.2 6.7 16.2 15.9 0 4.9-1.8 9.1-6.6 14.8l-17.5 21h24.8v5.1z"/>
    <path id="path82" class="st0" d="m106.7 15.2c8.9 0 15.4 6.4 15.4 15.2 0 4.7-1.8 8.8-6.4 14.3l-16.5 20-1.9 2.4h25.7v3.6h-31.7v-2.3l21.2-25.4c5.1-6.1 5.8-9.5 5.8-12.4 0-6.8-4.8-11.7-11.4-11.7-5.8 0-10.1 3.6-11.7 9.6l-3.5-1.2c1.8-7.3 7.8-12.1 15-12.1m0-1.4c-8 0-14.6 5.4-16.5 13.5l-0.2 0.8 6.2 2.2 0.3-1.1c1.3-5.6 5.2-8.9 10.4-8.9 5.8 0 10 4.3 10 10.3 0 2.5-0.7 5.7-5.5 11.4l-21.6 25.8v4.3h34.5v-6.5h-24l16.5-20c4.9-5.9 6.7-10.1 6.7-15.2 0.1-9.6-7-16.6-16.8-16.6z"/>
   </g>
  </g>
 </g>
</svg>
