<svg version="1.1" viewBox="0 0 815.9 124.4" xml:space="preserve" xmlns="http://www.w3.org/2000/svg">
<style type="text/css">
	.st0{fill:#FFFFFF;}
	.st1{fill:#F27722;}
</style>
	<polygon class="st0" points="212.4 0 212.4 124.4 815.9 124.4 815.9 0" fill="#fff"/>
	<polygon class="st1" points="784.7 0.1 784.7 10.6 805.4 10.6 805.4 113.8 784.7 113.8 784.7 124.3 805.4 124.3 805.4 124.3 815.9 124.3 815.9 0 805.4 0 805.4 0.1" fill="#f27722"/>
	<polygon class="st1" points="0 0 0 124.4 212.4 124.4 212.4 0" fill="#f27722"/>
		<path d="m759.5 93.5h-15.2v-43.5c0-1.7-0.9-2.5-2.6-2.5-1.8 0-2.6 0.8-2.6 2.4v43.6h-15.2v-43.5c0-1.7-0.9-2.5-2.6-2.5-1.8 0-2.6 0.8-2.6 2.4v43.7h-15.2v-54.5h15.2v1.9c2.1-1.5 5.2-2.3 9.4-2.3 3.5 0 6.7 1.2 9.6 3.7 2.7-2.5 6.3-3.7 10.9-3.7 2.6 0 5.1 0.7 7.4 2.1s3.5 3.3 3.5 5.8z"/>
		<path d="m697.7 93.5h-15.2v-67.2h15.2z"/>
		<path d="m641.5 82.8v-32.6c0-7.7 6-11.5 18-11.5 4.6 0 8.7 0.9 12.3 2.7 3.5 1.8 5.3 4.6 5.3 8.3v33.5c0 7.3-5.9 11-17.6 11-12 0.1-18-3.7-18-11.4zm20.5 0.4v-33.3c0-1.8-0.9-2.7-2.6-2.7-1.8 0-2.7 0.9-2.7 2.7v33.3c0 1.8 0.9 2.8 2.7 2.8 1.7-0.1 2.6-1 2.6-2.8z"/>
		<path d="m636.1 93.5h-15.1v-43.8c0-1.7-0.9-2.5-2.6-2.5s-2.6 0.8-2.6 2.4v44h-15.2v-67.3h15.2v14.4c1.8-1.3 4.9-2 9.4-2 3 0 5.5 0.7 7.7 2.1s3.2 3.2 3.2 5.5z"/>
		<path d="m595 93.5h-15.2v-43.6c0-1.7-0.9-2.5-2.6-2.5-1.8 0-2.6 0.8-2.6 2.4v43.8h-15.2v-54.5h15.2v1.9c2-1.5 5.2-2.2 9.4-2.2 2.7 0 5.3 0.7 7.6 2s3.5 3.2 3.5 5.8v46.9z"/>
		<path d="m554.4 61.7h-15.2v-11.8c0-1.7-0.9-2.5-2.6-2.5s-2.6 0.8-2.6 2.4v43.8h-15.2v-54.5h15.2v1.9c2-1.5 5.1-2.2 9.4-2.2 3 0 5.6 0.7 7.8 2.1s3.2 3.3 3.2 5.6z"/>
		<path d="m477.5 82.8v-32.6c0-7.7 6-11.5 18-11.5 4.6 0 8.7 0.9 12.3 2.7 3.5 1.8 5.3 4.6 5.3 8.3v33.5c0 7.3-5.9 11-17.6 11-12 0.1-18-3.7-18-11.4zm20.5 0.4v-33.3c0-1.8-0.9-2.7-2.6-2.7-1.8 0-2.7 0.9-2.7 2.7v33.3c0 1.8 0.9 2.8 2.7 2.8 1.7-0.1 2.6-1 2.6-2.8z"/>
		<path d="m434.4 93.5v-67.2h19.7c4.7 0 8.8 0.9 12.3 2.8s5.2 4.9 5.2 9.1v9.3c0 4.7-3.3 8-9.8 10 6.9 1.5 10.3 4.7 10.3 9.7v13c0 4.4-1.6 7.8-4.9 10s-7.2 3.3-11.7 3.3zm21.4-43.6v-11.4c0-2.3-1.6-3.5-4.7-3.5v18.6c3.2-0.1 4.7-1.3 4.7-3.7zm0 31.4v-17c0-2.3-1.6-3.5-4.7-3.5v24.1c3.2 0 4.7-1.2 4.7-3.6z"/>
		<path d="m428.8 26.3-24.4 67.2h-9l24.4-67.2z"/>
		<path d="m390.3 93.5h-38.2v-8.9l18.8-30.5c2.1-3.3 3.1-7.8 3.1-13.6 0-3-1.1-4.5-3.4-4.5s-3.5 0.9-3.5 2.8v11.5h-15v-11.6c0-8.7 6.3-13 18.9-13 7.8 0 13 1.6 15.5 4.8s3.8 8.4 3.8 15.6c0 2.8-0.6 5.2-1.6 7l-18.9 31.8h20.5z"/>
		<path d="m326.4 26.3-10.3 67.2h-23.7l-10.3-67.2h16.3l5.8 46.9 5.8-46.9z"/>
		<path d="m278.2 35.1h-9.4v58.4h-16.8v-58.4h-9.4v-8.8h35.5v8.8z"/>
	<path class="st0" d="m153.9 42.5c0.4 1 0.5 2.1 0.3 3.4-0.3 1.4-0.9 2.5-1.8 3.4-1 1-2.3 1.5-3.8 1.5h-21.2c-1.5 0-2.6 0.2-3.5 0.4-1 0.4-1.7 0.9-2.2 1.7l-26.9 43c0.5-0.7 1.2-1.3 2.2-1.6 0.9-0.3 2.1-0.5 3.5-0.5h51.8c3.7 0 7.5-1.6 11.3-4.7 3.7-3.1 6.4-6.8 7.9-11 1.7-4.6 1.7-8.8-0.2-12.5-2.1-4.3-6.5-7.3-13-9.2 5.2-2 9.2-4.5 12-7.7 2.4-2.8 3.8-5.8 4.1-9.1v-2.5c-0.3-3.4-1.6-6.3-3.9-8.7s-5-3.6-8-3.6h-46.8c-1.4 0-2.6 0.2-3.5 0.5-1 0.4-1.7 0.9-2.2 1.7l-10 16.1c0.5-0.8 1.2-1.3 2.2-1.6 0.9-0.3 2-0.5 3.4-0.5h46.2c0.9 0 1.7 0.5 2.1 1.5zm-30.2 35.3 6.7-10.8h19.3c1.6 0 2.9 0.6 3.7 1.7 0.7 1 1 2.3 0.6 3.7-0.3 1.5-1.1 2.7-2.4 3.7-1.4 1.1-3.3 1.7-5.4 1.7z" fill="#fff"/>
	<path class="st0" d="m113.9 51.4c0.8-0.3 1.7-0.4 2.9-0.4h-17.5c-1.4 0-2.6 0.2-3.5 0.5-1 0.3-1.7 0.9-2.2 1.7l-21.7 34.6 3.7-36.9h-15l-3.8 37.9c-0.1 1.2 0.5 2.4 1.8 3.6 1.3 1.1 2.6 1.7 3.9 1.7h20c1.2 0 2.3-0.3 3.3-0.8 0.9-0.5 1.6-1.1 2.1-2l23.8-38.1c0.4-0.9 1.2-1.5 2.2-1.8z" fill="#fff"/>
	<path class="st0" d="m32.5 41.4c0.9-0.3 2-0.5 3.5-0.5h49.7c1.4 0 2.5-0.1 3.4-0.5 1-0.3 1.7-0.9 2.2-1.6l10-16.1c-0.5 0.8-1.2 1.3-2.2 1.6-0.9 0.3-2 0.4-3.5 0.4h-49.5c-1.4 0-2.6 0.2-3.5 0.5-1 0.4-1.7 0.9-2.2 1.7l-10 16.1c0.4-0.7 1.2-1.2 2.1-1.6z" fill="#fff"/>
</svg>
