<svg id="a" width="915.23" height="243.98" version="1.1" viewBox="0 0 242.16 64.554" xmlns="http://www.w3.org/2000/svg">
 <g id="b" transform="matrix(5.1141 0 0 -5.1141 -2197.4 2638.9)">
  <g id="c">
   <g id="d" transform="translate(439.54,513.49)">
    <path id="e" d="m0 0h-3.293c-0.101 0-0.228-0.068-0.285-0.152l-0.708-1.05h4.017c0.161-2e-3 0.313-0.083 0.332-0.272 0.023-0.235-0.228-0.45-0.459-0.45h-1.796c-0.101 0-0.229-0.068-0.285-0.151l-0.71-1.051h2.585c1.006 0 2.05 0.876 2.013 1.841-0.03 0.763-0.703 1.285-1.411 1.285" fill="#e72122"/>
   </g>
   <g id="f" transform="translate(434.17,512.29)">
    <path id="g" d="m 0,0 h -4.501 l 0.709,1.05 c 0.056,0.084 0.184,0.152 0.284,0.152 H 0.994 L 0.285,0.151 C 0.229,0.067 0.101,0 0,0" fill="#e72122"/>
   </g>
   <g id="h" transform="translate(431.56,508.83)">
    <path id="i" d="m0 0 0.288 2.743h1.338l-0.292-2.768 1.766 2.616c0.057 0.084 0.184 0.152 0.285 0.152h1.29l-2.005-2.974c-0.057-0.084-0.185-0.152-0.285-0.152h-2.04c-0.213 0-0.367 0.171-0.345 0.383" fill="#e72122"/>
   </g>
   <g id="j" transform="translate(439.28,508.44)">
    <path id="k" d="m0 0h-4.225l0.708 1.051c0.057 0.083 0.185 0.151 0.285 0.151h4.225l-0.709-1.05c-0.055-0.085-0.183-0.152-0.284-0.152" fill="#e72122"/>
   </g>
  </g>
  <g id="l" transform="translate(438.19,503.39)">
   <path id="m" d="m0 0h0.987l8.514 12.623h-0.986z" fill="#a7a5a6"/>
  </g>
  <g id="n">
   <g id="o" transform="translate(452.04,510.97)">
    <path id="p" d="m0 0h-1.37l-0.871-3.226-1.293 2.781c-0.115 0.246-0.428 0.445-0.699 0.445h-1.009l-1.5-5.582c-0.033-0.123 0.044-0.222 0.171-0.222h1.37l0.896 3.341 1.358-2.897c0.115-0.245 0.429-0.444 0.7-0.444h0.918l1.5 5.582c0.033 0.122-0.044 0.222-0.171 0.222" fill="#e72122"/>
   </g>
   <g id="q" transform="translate(468.53,509.73)">
    <path id="r" d="m0 0c0.42 0 0.799-0.131 1.141-0.345 0.23-0.144 0.54-0.13 0.721 0.073l0.667 0.745c-0.555 0.53-1.36 0.862-2.38 0.862-1.418 0-2.463-0.821-2.463-1.974 0-0.854 0.589-1.252 1.51-1.6 0.812-0.315 0.97-0.431 0.97-0.655 0-0.265-0.274-0.431-0.655-0.431-0.497 0-0.963 0.16-1.411 0.477-0.221 0.157-0.533 0.153-0.722-0.042l-0.695-0.717c0.622-0.672 1.559-1.061 2.695-1.061 1.443 0 2.471 0.812 2.471 2.006 0 0.871-0.614 1.277-1.509 1.617-0.796 0.315-0.97 0.398-0.97 0.63 0 0.233 0.24 0.415 0.63 0.415" fill="#e72122"/>
   </g>
   <g id="s" transform="translate(465.32,510.97)">
    <path id="t" d="m0 0c-0.271 0-0.6-0.191-0.734-0.427l-1.665-2.931-0.19 2.868c-0.018 0.27-0.252 0.49-0.524 0.49h-0.912l-1.997-3.358-0.092 2.867c-9e-3 0.271-0.236 0.491-0.507 0.491h-5.643l-1.499-5.582c-0.033-0.123 0.043-0.222 0.171-0.222h4.232c0.127 0 0.257 0.099 0.29 0.222l0.306 1.146h-3.102l0.249 0.92h2.539c0.127 0 0.257 0.1 0.29 0.223l0.281 1.046h-2.77l0.24 0.879h3.328l0.268-4.207c8e-3 -0.127 0.118-0.229 0.245-0.229h1.232l2.007 3.258 0.243-3.029c0.01-0.127 0.122-0.229 0.249-0.229h1.241l3.482 5.804z" fill="#e72122"/>
   </g>
  </g>
 </g>
 <g id="u" transform="matrix(1.8915 0 0 1.8915 -58.106 -.00094812)" fill="#a7a9ac">
  <path id="v" d="m146.48 13.65h1.92l-0.68 2.57h1.99l0.69-2.57h1.91l-1.81 6.82h-1.92l0.72-2.66h-1.99l-0.71 2.66h-1.93z"/>
  <path id="w" d="m154.52 18.98c1.29 0 2.15-1.09 2.26-2.35 0.09-1.01-0.33-1.49-1.23-1.49h-0.67l-1.02 3.84zm-1.15-5.33h2.33c2 0 3.21 0.95 3.03 2.95-0.19 2.22-1.76 3.87-4.76 3.87h-2.42z"/>
 </g>
</svg>
