<svg id="a" version="1.1" viewBox="0 0 1280 360.3" xml:space="preserve" xmlns="http://www.w3.org/2000/svg">
<g id="b" fill="#fff"><path id="c" class="st0" d="m281.7 72.1h-94c-2.9 0-6.5 1.9-8.1 4.3l-20.2 30h114.6c4.6 0.1 8.9 2.4 9.5 7.8 0.6 6.7-6.5 12.8-13.1 12.8h-51.2c-2.9 0-6.5 1.9-8.1 4.3l-20.3 30h73.8c28.7 0 58.5-25 57.4-52.6-0.9-21.7-20.1-36.6-40.3-36.6"/><path id="d" class="st0" d="m128.5 106.4h-128.5l20.2-30c1.6-2.4 5.2-4.3 8.1-4.3h128.5l-20.2 30c-1.6 2.3-5.3 4.3-8.1 4.3"/><path id="e" class="st0" d="m54.1 205.2 8.2-78.3h38.2l-8.3 79 50.4-74.7c1.6-2.4 5.3-4.3 8.1-4.3h36.8l-57.2 84.9c-1.6 2.4-5.3 4.3-8.1 4.3h-58.3c-6 0.1-10.4-4.8-9.8-10.9"/><path id="f" class="st0" d="m274.3 216.2h-120.5l20.2-30c1.6-2.4 5.3-4.3 8.1-4.3h120.6l-20.2 30c-1.6 2.4-5.3 4.3-8.2 4.3"/></g>
<g id="g" fill="#fff"><path id="h" class="st0" d="m585.9 238.5c0-50.5 41.2-97.7 98.9-97.7 47.2 0 79.2 32.2 79.2 74.4 0 50.5-41.3 97.7-98.9 97.7-47.2 0.1-79.2-32.2-79.2-74.4m131.1-19.7c0-21.1-12.8-36.7-36.3-36.7-28.9 0-47.9 28.2-47.9 52.9 0 21.1 12.8 36.7 36.3 36.7 29.1 0 47.9-28.2 47.9-52.9"/><path id="i" class="st0" d="m533.3 150.5-31.8 118.8h78.9l-9.2 33.8c-0.9 3.5-4.6 6.3-8.3 6.3h-111.8c-3.6 0-5.8-2.8-4.9-6.3l42.7-159h39.5c3.6 0.1 5.8 2.9 4.9 6.4"/><path id="j" class="st0" d="m1145 144.2c7.7 0 15.6 6.1 17.6 13.5l12.7 48.4 41.1-51c4.9-6 15-10.9 22.8-10.9h40.8l-92.4 106.3-15.8 59.1h-39.5c-3.6 0-5.8-2.8-4.9-6.3l15.5-57.7-33.3-101.3h35.4z"/><path id="k" class="st0" d="m804.4 144.2h62.3c27.6 0 45.8 6.1 56.9 17.2 8.7 8.7 12.8 20.5 12.8 33.8 0 27.6-15.8 49.4-49.6 58.6l25.5 55.7h-50.5l-22-50.1h-20.3l-13.5 50.1h-40c-3.1 0-5.3-2.9-4.5-5.9zm50.7 79.3c20.5 0 34-8.7 34-22.9 0-4.5-1.4-8-4.3-11.1-3.8-3.8-10.6-5.7-20.3-5.7h-24.8l-10.9 39.7z"/><path id="l" class="st0" d="m972.9 144.2h62.3c27.6 0 45.8 6.1 56.9 17.2 8.7 8.7 12.8 20.5 12.8 33.8 0 27.6-15.8 49.4-49.6 58.6l25.5 55.7h-50.5l-22-50.1h-20.3l-13.5 50.1h-40c-3.1 0-5.3-2.9-4.5-5.9zm50.7 79.3c20.5 0 34-8.7 34-22.9 0-4.5-1.4-8-4.3-11.1-3.8-3.8-10.6-5.7-20.3-5.7h-24.8l-10.9 39.7z"/></g>
<polygon id="m" class="st1" points="271.4 360.3 514.4 0 486.3 0 243.3 360.3" fill="#ed1c4f"/>
</svg>
