<?xml version="1.0" encoding="UTF-8"?>
<svg id="svg37" width="600.02pt" height="442.38pt" version="1.1" viewBox="0 0 600.02 442.38" xmlns="http://www.w3.org/2000/svg" xmlns:cc="http://creativecommons.org/ns#" xmlns:dc="http://purl.org/dc/elements/1.1/" xmlns:rdf="http://www.w3.org/1999/02/22-rdf-syntax-ns#">
 <metadata id="metadata43">
  <rdf:RDF>
   <cc:Work rdf:about="">
    <dc:format>image/svg+xml</dc:format>
    <dc:type rdf:resource="http://purl.org/dc/dcmitype/StillImage"/>
    <dc:title/>
   </cc:Work>
  </rdf:RDF>
 </metadata>
 <g id="g1114" transform="translate(401.75 60.465)">
  <g id="g8394" transform="matrix(1.6273 0 0 1.6305 2366.2 -20733)">
   <g id="g8396" transform="translate(-1457 12825)">
    <path id="path8398" d="m0 0s7.232-1.411 10.53-10.212c3.624-9.667 14.831-43.151 12.914-96.559-82.667-16.758-138.47-4.09-138.47-4.09-19.564 4.244-19.349 14.853-18.621 24.282 1.258 16.388 14.859 59.41 26.054 89.739l1.578 4.154s12.062 0.424 24.187 0.438c28.407 0.031 59.444-1.813 81.828-7.752" fill="#dd1634"/>
   </g>
  </g>
  <g id="g8400" transform="matrix(1.6273 0 0 1.6305 2366.2 -20733)">
   <g id="g8402" transform="translate(-1572.1 12714)">
    <path id="path8404" d="m0 0s55.668-12.309 138.47 4.143c-0.012-0.362-0.014-0.713-0.033-1.077-1.753-34.446-8.82-39.682-32.92-38.578-107.68 4.935-172.57 40.869-174.43 42.114 0 0-6.016 2.629-6.601 8.957-0.997 10.779 8.642 63.959 16.658 81.084 4.229 9.043 6.103 12.834 15.714 15.558 8.208 2.324 28.193 4.972 52.151 6.027-11.436-30.415-26.319-76.839-27.636-93.949-0.724-9.425-0.942-20.035 18.621-24.279" fill="#69c52f" fill-rule="evenodd"/>
   </g>
  </g>
  <g id="g8406" transform="matrix(1.6273 0 0 1.6305 2366.2 -20733)">
   <g id="g8408" transform="translate(-1486.7 12733)">
    <path id="path8410" d="m0 0v32.527h-36.771v-32.527h-21.452v78.73h21.452v-26.874h36.771v26.874h21.453v-78.73z" fill="#fff" fill-rule="evenodd"/>
   </g>
  </g>
  <g id="g8412" transform="matrix(1.6273 0 0 1.6305 2366.2 -20733)">
   <g id="g8414" transform="translate(-1396.9 12727)">
    <path id="path8416" d="m0 0c-12.674-3.755-24.962-6.499-36.663-8.824 1.859 54.039-9.291 86.843-12.916 96.51-3.298 8.8-10.528 10.212-10.528 10.212-28.951 7.679-69.609 8.488-106.02 7.363 4.949 13.167 9.386 23.331 11.729 26.974 4.241 6.601 7.306 10.608 23.335 8.013 16.95-2.745 106.23-35.905 117.31-41.092 11.078-5.185 14.225-17.125 14.695-19.252 0.47-2.12 10.266-52.78 10.841-56.806 1.038-7.263 2.15-18.971-11.784-23.098" fill="#1d438c" fill-rule="evenodd"/>
   </g>
  </g>
 </g>
 <g id="g1149" transform="translate(401.75 60.465)">
  <g id="g8418" transform="matrix(1.6273 0 0 1.6305 2366.2 -20733)">
   <g id="g8420" transform="translate(-1682.5 12900)">
    <path id="path8422" d="m0 0v37.279h-6.546v-37.279h-11.881v-5.879h30.308v5.879z" fill="#171316"/>
   </g>
  </g>
  <g id="g8424" transform="matrix(1.6273 0 0 1.6305 2366.2 -20733)">
   <g id="g8426" transform="translate(-1649.2 12937)">
    <path id="path8428" d="m0 0h-5.091l-14.184-43.158h6.788l9.941 31.398 9.942-31.398h6.91z" fill="#171316"/>
   </g>
  </g>
  <g id="g8430" transform="matrix(1.6273 0 0 1.6305 2366.2 -20733)">
   <g id="g8432" transform="translate(-1590.4 12937)">
    <path id="path8434" d="m0 0v-18.852h-17.519v18.852h-6.546v-43.158h6.546v18.428h17.519v-18.428h6.546v43.158z" fill="#171316"/>
   </g>
  </g>
  <g id="g8436" transform="matrix(1.6273 0 0 1.6305 2366.2 -20733)">
   <g id="g8438" transform="translate(-1556.8 12924)">
    <path id="path8440" d="m0 0h-7.213c-3.637 0-5.516 1.638-5.516 4.425 0 2.79 1.758 4.365 5.638 4.365 2.364 0 4.122-0.182 5.758-1.758 0.91-0.909 1.333-2.363 1.333-4.546zm0.122 13.579v-2.788c-2.243 2.242-4.365 3.15-8.183 3.15-3.819 0-6.365-0.908-8.244-2.787-1.576-1.637-2.425-4-2.425-6.606 0-5.152 3.577-8.852 10.608-8.852h8.122v-2.18c0-3.88-1.939-5.759-6.728-5.759-3.395 0-5.031 0.788-6.728 2.969l-4.062-3.818c2.911-3.395 5.941-4.425 11.033-4.425 8.425 0 12.668 3.576 12.668 10.546v20.55z" fill="#171316"/>
   </g>
  </g>
  <g id="g8442" transform="matrix(1.6273 0 0 1.6305 2366.2 -20733)">
   <g id="g8444" transform="translate(-1522.6 12937)">
    <path id="path8446" d="m0 0v-3.092c-2.122 2.304-5.092 3.454-8.183 3.454-3.152 0-5.759-1.029-7.577-2.787-2.365-2.304-3.091-5.213-3.091-8.668v-19.64h6.182v18.731c0 4.789 2.728 6.85 6.183 6.85s6.365-2.122 6.365-6.85v-18.731h6.183v30.733z" fill="#171316"/>
   </g>
  </g>
  <g id="g8448" transform="matrix(1.6273 0 0 1.6305 2366.2 -20733)">
   <g id="g8450" transform="translate(-1495.7 12912)">
    <path id="path8452" d="m0 0c-5.576 0-6.305 4.788-6.305 9.639 0 4.848 0.729 9.637 6.305 9.637s6.243-4.789 6.243-9.637c0-4.851-0.667-9.639-6.243-9.639m-0.728 38.37c-4.668 0-7.637-1.091-10.85-4.061l3.94-3.941c1.941 1.82 3.638 2.729 6.667 2.729 5.213 0 7.214-3.7 7.214-7.821v-3.939c-2.243 2.667-4.789 3.515-7.939 3.515-3.092 0-5.638-1.031-7.336-2.727-2.969-2.97-3.455-7.274-3.455-12.486 0-5.214 0.486-9.518 3.455-12.488 1.698-1.697 4.303-2.667 7.395-2.667 3.274 0 5.758 0.849 8.062 3.637v-3.274h6.001v30.55c0 7.516-4.97 12.973-13.154 12.973" fill="#171316"/>
   </g>
  </g>
  <g id="g8454" transform="matrix(1.6273 0 0 1.6305 2366.2 -20733)">
   <g id="g8456" transform="translate(-1457 12924)">
    <path id="path8458" d="m0 0h-7.214c-3.637 0-5.515 1.638-5.515 4.425 0 2.79 1.757 4.365 5.638 4.365 2.362 0 4.12-0.182 5.757-1.758 0.91-0.909 1.334-2.363 1.334-4.546zm0.121 13.579v-2.788c-2.243 2.242-4.364 3.15-8.184 3.15-3.818 0-6.364-0.908-8.243-2.787-1.575-1.637-2.424-4-2.424-6.606 0-5.152 3.576-8.852 10.608-8.852h8.122v-2.18c0-3.88-1.939-5.759-6.729-5.759-3.393 0-5.031 0.788-6.727 2.969l-4.062-3.818c2.91-3.395 5.941-4.425 11.033-4.425 8.425 0 12.668 3.576 12.668 10.546v20.55z" fill="#171316"/>
   </g>
  </g>
  <g id="g8460" transform="matrix(1.6273 0 0 1.6305 2366.2 -20733)">
   <g id="g8462" transform="translate(-1433.1 12937)">
    <path id="path8464" d="m0 0c-5.88 0-8.426-3.941-8.426-8.487v-34.671h6.185v34.308c0 2.363 0.847 3.576 3.334 3.576h2.726v5.274z" fill="#171316"/>
   </g>
  </g>
  <g id="g8466" transform="matrix(1.6273 0 0 1.6305 2366.2 -20733)">
   <g id="g8468" transform="translate(-1406 12924)">
    <path id="path8470" d="m0 0h-7.215c-3.636 0-5.514 1.638-5.514 4.425 0 2.79 1.756 4.365 5.637 4.365 2.363 0 4.121-0.182 5.758-1.758 0.909-0.909 1.334-2.363 1.334-4.546zm0.121 13.579v-2.788c-2.244 2.242-4.365 3.15-8.184 3.15s-6.365-0.908-8.244-2.787c-1.576-1.637-2.424-4-2.424-6.606 0-5.152 3.577-8.852 10.607-8.852h8.124v-2.18c0-3.88-1.941-5.759-6.729-5.759-3.395 0-5.032 0.788-6.729 2.969l-4.062-3.818c2.912-3.395 5.941-4.425 11.033-4.425 8.425 0 12.67 3.576 12.67 10.546v20.55z" fill="#171316"/>
   </g>
  </g>
  <g id="g8472" transform="matrix(1.6273 0 0 1.6305 2366.2 -20733)">
   <g id="g8474" transform="translate(-1371.6 12937)">
    <path id="path8476" d="m0 0v-18.729c0-4.791-2.729-6.851-6.183-6.851-3.455 0-6.365 2.122-6.365 6.851v18.729h-6.181v-30.733h6.06v3.091c2.121-2.303 5.092-3.454 8.183-3.454 3.153 0 5.758 1.03 7.578 2.787 2.363 2.305 3.092 5.213 3.092 8.669v19.64z" fill="#171316"/>
   </g>
  </g>
  <g id="g8478" transform="matrix(1.6273 0 0 1.6305 2366.2 -20733)">
   <g id="g8480" transform="translate(-1344.7 12912)">
    <path id="path8482" d="m0 0c-5.577 0-6.426 4.729-6.426 10.184s0.849 10.244 6.426 10.244 6.365-4.789 6.365-10.244-0.788-10.184-6.365-10.184m6.485 25.58v-3.274c-2.303 2.789-4.787 3.636-8.121 3.636-3.092 0-5.82-1.029-7.516-2.726-3.092-3.091-3.456-8.365-3.456-13.032s0.364-9.88 3.456-12.972c1.696-1.698 4.363-2.728 7.455-2.728 3.272 0 5.818 0.787 8.062 3.454v-15.516h6.183v43.158z" fill="#171316"/>
   </g>
  </g>
 </g>
</svg>
