<svg width="359.91pt" height="114.59pt" version="1.1" viewBox="0 0 359.91 114.59" xmlns="http://www.w3.org/2000/svg">
 <g transform="translate(-1.5742 -.80795)">
  <path d="m1.68 4.01c0.05-4.4 7.3-4.14 7.63 0.01 0.21 7.57 0.08 15.16 0.03 22.74 14.24 0.46 28.5-0.1 42.74 0.26 3.14 0.03 4.25 3.31 5.27 5.7 9.81 23.48 19.89 46.84 29.72 70.31 0.25 0.39 0.75 1.18 1 1.57 10.68-23.97 20.79-48.23 31.15-72.36 0.78-1.71 1.58-4.04 3.8-4.18 2.08-0.44 4.16 0.99 4.65 3 0.35 2.13-0.9 4.03-1.63 5.93-11.08 24.37-21.77 48.92-32.78 73.32-0.97 1.84-1.72 4.45-4.2 4.62-2.44 0.53-4.93-0.89-5.74-3.24-11.5-25.8-22.96-51.61-34.51-77.38-13.16-0.04-26.31 0-39.47-0.02 0.17 19.24-0.02 38.48 0.08 57.72 0.03 5.03 1.79 10.52 6.33 13.23 6.08 3.67 13.83 3.2 20.36 1.05 3.2-0.39 5.27 4.37 2.38 6.18-5.01 2.79-11 2.91-16.57 2.53-5.64-0.32-11.4-2.54-15.08-6.96-3.77-4.01-5.34-9.6-5.26-15.01 0.07-29.67-0.11-59.36 0.1-89.02z" fill="#9d7bb8"/>
 </g>
 <g transform="translate(-1.5742 -.80795)" fill="#74448e">
  <path d="m148.52 29.51c2.46-2.19 6.28-2.85 9.23-1.26 2.46 0.99 3.44 3.63 4.35 5.89 3.9-2.13 7.52-4.89 11.97-5.85 12.39-3.27 27.59-0.34 35.05 10.89 2.28-1.32 3.78-3.6 5.91-5.12 8.63-6.8 20.51-8.38 31.01-5.9 7.6 1.86 14.41 6.72 18.34 13.51 3.54 5.78 4.65 12.67 4.55 19.36-0.08 15.33 0.15 30.66-0.04 45.98 0.08 3.51-2.04 7.35-5.73 7.98-4.64 1.63-9.82-2.12-9.91-7-0.27-15.99 0.09-32.01-0.16-48-0.03-6.64-3.09-13.79-9.41-16.66-5.99-2.6-13.25-2.52-19.14 0.33-6.07 2.91-9.17 9.83-9.1 16.32-0.04 15.66 0.04 31.32-0.03 46.98 0.26 3.82-2.44 7.64-6.3 8.22-4.49 1.08-9.32-2.5-9.34-7.18-0.3-15.99 0.03-31.99-0.15-47.98 0.01-7.01-3.49-14.62-10.43-17.14-7.36-2.59-16.71-1.9-22.34 4-4.01 4.29-4.95 10.45-4.94 16.11 0.03 14.68-0.02 29.37 0.06 44.06 0.19 4.79-4.21 9.26-9.11 8.19-4-0.39-6.85-4.29-6.63-8.18-0.04-23.37 0.01-46.74-0.03-70.11-0.09-2.64 0.4-5.49 2.32-7.44z"/>
  <path d="m285.19 28.36c2.46-1.22 5.59-0.93 7.84 0.63 2.53 1.79 3.26 4.97 4.44 7.66 7.37 17.81 14.78 35.6 22.08 53.44 0.59 0.86 0.62 3.17 2.13 2.74 8.45-20.26 16.91-40.52 25.43-60.76 1.45-3.99 6.78-5.7 10.36-3.5 3.86 1.95 5.07 7.14 3.05 10.84-10.31 23.34-20.64 46.67-31.03 69.97-1.78 4.94-7.9 7.03-12.49 4.75-2.74-1.34-4.16-4.18-5.31-6.84-9.97-22.74-20.16-45.39-30.08-68.15-2.18-3.83-0.47-9.06 3.58-10.78z"/>
 </g>
</svg>
