<?xml version="1.0" encoding="UTF-8"?>
<svg id="svg47" width="1274pt" height="172.01pt" version="1.1" viewBox="0 0 1274 172.01" xmlns="http://www.w3.org/2000/svg" xmlns:cc="http://creativecommons.org/ns#" xmlns:dc="http://purl.org/dc/elements/1.1/" xmlns:rdf="http://www.w3.org/1999/02/22-rdf-syntax-ns#">
 <metadata id="metadata53">
  <rdf:RDF>
   <cc:Work rdf:about="">
    <dc:format>image/svg+xml</dc:format>
    <dc:type rdf:resource="http://purl.org/dc/dcmitype/StillImage"/>
    <dc:title/>
   </cc:Work>
  </rdf:RDF>
 </metadata>
 <g id="#a738efff" transform="translate(-63.495 -275.84)" fill="#a738ef">
  <path id="path13" d="m168.07 275.84h25.82l36.1 104.92 28.88-87.31h25.93l-42.55 119.07h-25.8z"/>
  <path id="path15" d="m63.495 293.38h94.975v20.055h-35.05v113.48h-24.87v-113.48h-35.055z"/>
 </g>
 <g id="#fefefeff" transform="translate(-63.495 -275.84)">
  <path id="path18" d="m955.3 295.14c11.95-4.8 25.35-4.94 37.82-2.24 7.86 2.06 15.64 5.74 20.89 12.15 5.05 6.02 7.85 13.82 7.92 21.67l-15.22 0.68c-0.92-6-2.98-12.3-7.96-16.16-6.63-5.32-15.56-6.03-23.73-5.76-7.89 0.16-16.8 2.05-21.67 8.87-5.07 6.42-3.34 17.16 4.18 20.92 11.48 5.66 24.44 6.92 36.59 10.59 9.74 2.55 19.71 6.78 25.91 15.1 7.34 9.99 7.24 24.42 0.74 34.81-3.67 6.23-9.48 10.98-16 13.97-11.91 5.49-25.56 5.88-38.29 3.57-8.95-1.46-17.78-5.12-24.22-11.65-7.65-7.39-11.6-18.01-11.88-28.53l15.19-0.86c0.86 7.13 3.11 14.59 8.79 19.39 8.63 7.26 20.56 9.45 31.55 8.35 7.34-0.81 15.19-3.13 20.11-8.99 4.45-5.11 5.43-13.01 2-18.91-2.65-4.52-7.58-6.97-12.29-8.75-13.51-4.67-27.89-6.37-41.14-11.82-5.93-2.63-11.55-6.52-15.14-12.01-5.75-8.56-5.86-20.26-1.12-29.29 3.43-6.99 9.79-12.25 16.97-15.1z"/>
  <path id="path20" d="m333.36 293.18h23.82l33.88 101.68 34.6-101.68h21.68l-0.01 119.36h-15.56l0.11-100.06-34.4 100.06h-14.47l-34.33-100.06 0.05 100.06h-15.38z"/>
  <path id="path22" d="m563.3 293.19 14.95 0.04-0.03 119.3-14.95 0.02z"/>
  <path id="path24" d="m1136.7 293.21 15.02-0.06-0.01 119.4h-15z"/>
  <path id="path26" d="m1058.4 299.16h15.33l0.06 16.23h-15.42z"/>
  <path id="path28" d="m1088.7 299.16h15.63l0.01 16.23h-15.59z"/>
  <path id="path30" d="m481.12 330.14c10.7-6.55 23.85-7.02 36.01-5.83 6.05 0.71 12.15 2.75 16.91 6.65 5.15 4.42 7.02 11.48 7.14 18.05 0.29 11.98-0.13 23.97 0.26 35.95 0.17 9.32-0.52 19.31 4.62 27.59h-15.88c-1.27-3.38-2.27-6.87-2.9-10.42-8.5 7.68-19.69 12.68-31.27 12.45-9.04 0.24-19.01-2.36-24.8-9.76-8.38-10.33-6.2-27.34 4.6-35.14 5.58-4.15 12.43-6.02 19.23-6.92 10.43-1.33 20.97-2.49 31.06-5.62 0.33-4.96 0.34-10.49-2.65-14.72-3.87-4.86-10.46-6.03-16.31-6.44-5.43-0.07-11.22 0.34-15.96 3.25-4.59 2.95-6.59 8.4-7.87 13.46l-14.73-2.06c1.6-7.98 5.38-16.08 12.54-20.49m12.75 45.79c-4.78 0.95-9.53 3.91-11.09 8.75-1.16 4.16-0.91 9.1 1.99 12.54 3.29 4.34 9.06 5.68 14.25 5.79 8.97 0.01 18.64-3.65 23.43-11.63 4.26-6.72 3.64-15.04 3.62-22.65-10.26 4.25-21.48 4.78-32.2 7.2z"/>
  <path id="path32" d="m728.06 324.13c9.37-1.13 19.7 0.41 27.04 6.77 6.42 5.77 8.19 14.83 8.25 23.11l0.07 58.54h-15.07l0.06-51.53c-0.04-4.87-0.02-9.87-1.74-14.49-1.11-3.51-4.03-6.13-7.18-7.84-8.26-3.99-18.81-1.88-25.41 4.32-5.81 6.03-6.22 15.07-6.38 22.98l0.03 46.55-15.08-0.03v-86.67l13.69-0.01-0.03 11.94c4.77-7.45 12.92-12.7 21.75-13.64z"/>
  <path id="path34" d="m790.03 336.02c10.68-13.36 32.32-16.5 46.06-6.17 2.37 1.81 4.41 4.02 6.36 6.27l-0.1-10.27 13.94 0.02-0.04 77.17c-0.59 10.57-0.3 22.27-6.97 31.16-6.89 9.44-18.95 13.36-30.23 13.63-10.24 0.24-21.29-1.7-29.11-8.82-5.54-5.05-7.37-12.82-7.41-20.05l14.72 2.09c0.57 4.37 2.45 8.95 6.44 11.26 6.48 3.93 14.58 3.72 21.8 2.36 7.86-1.65 13.97-8.65 14.86-16.58 0.49-5.25 0.88-10.51 0.72-15.79-12.64 14.12-37.47 13.68-49.77-0.61-7.38-8.36-11.23-19.57-11.37-30.66-0.52-12.3 2.31-25.23 10.1-35.01m26.08 0.08c-11.5 1.2-19.34 12.2-20.43 23.11-0.9 10.98-1.15 23.27 5.63 32.61 7.15 9.8 22.77 11.36 31.68 3.11 7.49-6.28 9.08-16.7 9.35-25.91-0.04-9.36-1.5-19.9-8.77-26.57-4.44-4.65-11.08-7.07-17.46-6.35z"/>
  <path id="path36" d="m1052.5 331.4c11.32-8.17 26.17-8.37 39.51-6.9 7.33 1.42 15.36 4.42 19.11 11.37 4.17 7.35 3.15 16.03 3.27 24.12 0.1 12.65-0.23 25.31 0.49 37.94 0.17 5.14 1.85 10.08 4.22 14.61l-15.62 0.03c-1.65-3.28-2.42-6.86-2.96-10.46-8.64 7.61-19.8 12.79-31.48 12.47-9.09 0.24-19.03-2.45-24.79-9.94-8.45-10.42-5.97-27.54 5.08-35.16 7.67-5.69 17.45-6.6 26.63-7.71 7.9-1.04 15.79-2.33 23.43-4.66 0.26-6.18 0.05-13.9-5.9-17.49-7.56-4.52-17.13-4.42-25.42-2.19-6.9 1.94-10.11 9.01-11.79 15.36l-14.74-2.3c2.04-7.1 4.69-14.6 10.96-19.09m19.37 43.49c-4.95 1.01-10.57 1.88-13.87 6.14-4.57 5.26-3.51 13.89 1.84 18.2 3.35 2.79 7.87 3.64 12.12 3.78 9.05 0.03 18.82-3.61 23.69-11.65 4.19-6.7 3.52-14.93 3.78-22.49-8.92 3.11-18.26 4.65-27.56 6.02z"/>
  <path id="path38" d="m1172.3 350.15c4.18-13.1 15.83-23.7 29.55-25.75 7.67-1.02 15.77-0.97 23.03 1.98 9.53 3.68 17.17 11.67 20.81 21.17 3.16 8.14 3.91 16.99 3.72 25.65l-64.65-0.02c0.72 7.74 2.51 16.04 8.25 21.71 7.6 8.2 21.25 9.85 30.59 3.71 5.09-3.3 7.79-9 9.98-14.44l15.36 2.28c-1.92 6.49-4.93 12.85-9.86 17.61-7.21 7.49-17.94 10.65-28.12 10.52-10.46 0.19-21.44-2.94-29.04-10.4-5.17-4.87-8.79-11.28-10.54-18.14-3.04-11.73-2.72-24.32 0.92-35.88m20.74-7.1c-4.83 4.73-6.75 11.5-7.53 18.03l48.08 0.01c-0.57-4.27-1.21-8.63-3.08-12.55-2.73-5.77-8.12-10.18-14.3-11.73-8.08-2.27-17.35 0.15-23.17 6.24z"/>
  <path id="path40" d="m1280.4 337.63c5-7.57 13.4-12.82 22.49-13.57 9.13-0.97 19.13 0.58 26.23 6.83 6.48 5.71 8.27 14.83 8.32 23.11l0.07 58.54h-15.02l-0.05-54.55c-0.18-5.31-0.44-11.2-3.95-15.5-9.88-10.91-31.32-5.73-34.89 8.65-2.77 9.38-1.59 19.24-1.85 28.87v32.55l-15.04-0.05 0.02-86.65 13.73-0.01z"/>
  <path id="path42" d="m600.03 325.82 14.8-0.02 0.04 39.23c0.08 8.17-0.39 16.4 0.95 24.5 1.13 5.22 5.21 9.57 10.31 11.13 8.29 2.54 17.96-0.16 23.77-6.6 4.29-4.97 4.96-11.8 5.34-18.09l0.01-50.16 14.91 0.03v86.7l-13.47-0.02 0.13-12.32c-3.81 5.66-9.34 10.32-15.84 12.53-10.57 3.68-22.97 1.96-31.95-4.75-6.92-5.37-8.92-14.66-9.01-22.98z"/>
  <path id="path44" d="m872.27 362.33 45.21 0.03v14.26h-45.2z"/>
 </g>
</svg>
