<?xml version="1.0" encoding="UTF-8"?>
<!-- Created with Inkscape (http://www.inkscape.org/) -->
<svg id="svg2" width="1e3" height="842.61" xmlns:cc="http://creativecommons.org/ns#" xmlns:dc="http://purl.org/dc/elements/1.1/" xmlns:rdf="http://www.w3.org/1999/02/22-rdf-syntax-ns#" version="1.1" xmlns="http://www.w3.org/2000/svg">
 <link id="dark-mode" href="" rel="stylesheet" type="text/css"/>
 <style id="dark-mode-custom-style" type="text/css"/>
 <defs id="defs4">
  <clipPath id="clipPath14311">
   <path id="path14313" d="m55.549 407.85h11.289v9.411h-11.289z"/>
  </clipPath>
  <clipPath id="clipPath14319">
   <path id="path14321" d="m61.516 416.08h3.1154v-3.02h-3.1154z"/>
  </clipPath>
  <clipPath id="clipPath14335">
   <path id="path14337" d="m58.581 416.08h2.725v-3.02h-2.725z"/>
  </clipPath>
  <clipPath id="clipPath14351">
   <path id="path14353" d="m59.282 412.18h2.4391v-3.129h-2.4391z"/>
  </clipPath>
  <clipPath id="clipPath14355">
   <path id="path14357" d="m59.282 409.05h2.439v3.13h-2.439z"/>
  </clipPath>
  <clipPath id="clipPath14375">
   <path id="path14377" d="m61.837 412.12h2.7219v-3.02h-2.7219z"/>
  </clipPath>
  <clipPath id="clipPath14391">
   <path id="path14393" d="m65.92 417.26h0.7995v-9.412h-0.7995z"/>
  </clipPath>
  <clipPath id="clipPath14407">
   <path id="path14409" d="m55.549 412.18h3.7852v-3.129h-3.7852z"/>
  </clipPath>
  <clipPath id="clipPath14411">
   <path id="path14413" d="m55.549 409.05h3.785v3.129h-3.785z"/>
  </clipPath>
 </defs>
 <metadata id="metadata7">
  <rdf:RDF>
   <cc:Work rdf:about="">
    <dc:format>image/svg+xml</dc:format>
    <dc:type rdf:resource="http://purl.org/dc/dcmitype/StillImage"/>
    <dc:title/>
   </cc:Work>
  </rdf:RDF>
 </metadata>
 <g id="layer1" transform="translate(-1428 511.7)">
  <g id="g14307" transform="matrix(89.433 0 0 -89.433 -3539.5 36806)">
   <g id="g14309" clip-path="url(#clipPath14311)">
    <g id="g14315">
     <g id="g14323">
      <g id="g14325" clip-path="url(#clipPath14319)">
       <g id="g14327" transform="translate(63.834 416.08)">
        <path id="path14329" d="m0 0-0.638-2.013-0.101-0.306h-0.012l-0.104 0.306-0.621 2.013h-0.842l1.149-3.02h0.817l1.149 3.02z" fill="#ed1639"/>
       </g>
      </g>
     </g>
    </g>
    <g id="g14331">
     <g id="g14339">
      <g id="g14341" clip-path="url(#clipPath14335)">
       <g id="g14343" transform="translate(58.581 416.08)">
        <path id="path14345" d="m0 0v-0.652h0.984v-2.368h0.769v2.368h0.971l-0.247 0.652z" fill="#ed1639"/>
       </g>
      </g>
     </g>
    </g>
    <g id="g14347">
     <g id="g14359">
      <g id="g14361" clip-path="url(#clipPath14351)">
       <g id="g14363">
        <g id="g14365" clip-path="url(#clipPath14355)">
         <g id="g14367" transform="translate(60.094 411.26)">
          <path id="path14369" d="m0 0c-2e-3 0.145 0.107 0.28 0.536 0.285 0.227 3e-3 0.468-0.028 0.74-0.093l0.24 0.626c-0.352 0.077-0.678 0.103-1.012 0.098-0.882-0.012-1.229-0.459-1.222-0.97 0.014-1.058 1.62-0.775 1.626-1.221 3e-3 -0.189-0.159-0.312-0.536-0.317-0.324-5e-3 -0.653 0.101-0.95 0.237l-0.235-0.618c0.313-0.131 0.809-0.245 1.185-0.24 0.792 0.011 1.263 0.4 1.254 1-0.014 1.078-1.62 0.771-1.626 1.213" fill="#ed1639"/>
         </g>
        </g>
       </g>
      </g>
     </g>
    </g>
    <g id="g14371">
     <g id="g14379">
      <g id="g14381" clip-path="url(#clipPath14375)">
       <g id="g14383" transform="translate(62.086 412.12)">
        <path id="path14385" d="m0 0-0.248-0.652h1.014v-2.368h0.769v2.368h0.939v0.652z" fill="#ed1639"/>
       </g>
      </g>
     </g>
    </g>
    <g id="g14387">
     <g id="g14395">
      <g id="g14397" clip-path="url(#clipPath14391)">
       <g id="g14399" transform="translate(66.719 417.26)">
        <path id="path14401" d="m0 0-0.798-0.799v-7.813l0.799-0.799v9.411z" fill="#ed1639"/>
       </g>
      </g>
     </g>
    </g>
    <g id="g14403">
     <g id="g14415">
      <g id="g14417" clip-path="url(#clipPath14407)">
       <g id="g14419">
        <g id="g14421" clip-path="url(#clipPath14411)">
         <g id="g14423" transform="translate(57.401 409.68)">
          <path id="path14425" d="m0 0c-0.19 0-0.342 0.029-0.462 0.094l1.229 1.206c0.019-0.103 0.028-0.221 0.028-0.359 0-0.709-0.244-0.941-0.795-0.941m-0.795 0.941c0 0.705 0.244 0.924 0.795 0.924 0.22 0 0.388-0.034 0.514-0.118l-1.265-1.241c-0.029 0.119-0.044 0.263-0.044 0.435m2.729 1.503h-0.71l-0.215-0.211c-0.24 0.174-0.572 0.264-1.009 0.264-1.087 0-1.522-0.552-1.522-1.56 0-0.397 0.068-0.724 0.217-0.974l-0.547-0.537h0.709l0.18 0.177c0.237-0.155 0.554-0.235 0.963-0.235 1.087 0 1.522 0.548 1.522 1.569 0 0.369-0.059 0.678-0.187 0.92z" fill="#ed1639"/>
         </g>
        </g>
       </g>
      </g>
     </g>
    </g>
   </g>
  </g>
 </g>
</svg>
