<?xml version="1.0" encoding="UTF-8"?>
<svg id="svg37" width="470.61pt" height="600pt" version="1.1" viewBox="0 0 470.61 600" xmlns="http://www.w3.org/2000/svg" xmlns:cc="http://creativecommons.org/ns#" xmlns:dc="http://purl.org/dc/elements/1.1/" xmlns:rdf="http://www.w3.org/1999/02/22-rdf-syntax-ns#">
 <metadata id="metadata43">
  <rdf:RDF>
   <cc:Work rdf:about="">
    <dc:format>image/svg+xml</dc:format>
    <dc:type rdf:resource="http://purl.org/dc/dcmitype/StillImage"/>
    <dc:title/>
   </cc:Work>
  </rdf:RDF>
 </metadata>
 <defs id="defs41">
  <clipPath id="clipPath8858">
   <path id="path8856" d="m71.223 580.22h34.788v21.756h-34.788z"/>
  </clipPath>
 </defs>
 <g id="g8852" transform="matrix(40.403 0 0 -40.403 -3313.7 24171)">
  <g id="g8854" clip-path="url(#clipPath8858)">
   <g id="g8860" transform="translate(87.83 593.17)">
    <path id="path8862" d="m0 0c-0.893 0-1.616-0.724-1.616-1.616 0-0.893 0.723-1.617 1.616-1.617 0.892 0 1.616 0.724 1.616 1.617 0 0.892-0.724 1.616-1.616 1.616" fill="#100f0d"/>
   </g>
   <g id="g8864" transform="translate(87.83 589.93)">
    <path id="path8866" d="m0 0c-0.893 0-1.616 0.723-1.616 1.616s0.723 1.617 1.616 1.617c0.892 0 1.616-0.724 1.616-1.617s-0.724-1.616-1.616-1.616m2.057 4.339h-4.114c-0.42 0-0.76-0.341-0.76-0.761v-4.113c0-0.42 0.34-0.761 0.76-0.761h4.114c0.419 0 0.76 0.341 0.76 0.761v4.113c0 0.42-0.341 0.761-0.76 0.761" fill="#ff6800"/>
   </g>
   <g id="g8868" transform="translate(90.646 589.4)">
    <path id="path8870" d="m0 0c0-0.42-0.341-0.761-0.76-0.761h-4.114c-0.419 0-0.76 0.341-0.76 0.761v4.113c0 0.42 0.341 0.761 0.76 0.761h4.114c0.419 0 0.76-0.341 0.76-0.761zm-0.328 6.078h-1.672l2.558 2.681c0.042 0.03 0.075 0.066 0.102 0.103h-1.405l-2.077-2.145-2.069 2.145h-1.402c0.012-0.016 0.026-0.031 0.041-0.046l0.027-0.028 2.586-2.71h-1.664c-0.848 0-1.534-0.687-1.534-1.534v-4.975c0-0.844 0.682-1.529 1.526-1.534h4.991c0.836 5e-3 1.512 0.678 1.524 1.512v5.019c-0.012 0.837-0.693 1.512-1.532 1.512" fill="#100f0d"/>
   </g>
   <g id="g8872" transform="translate(84.734 583.48)">
    <path id="path8874" d="m0 0h-0.295l-0.704 1.75h0.318l0.543-1.394 0.539 1.394h0.309z" fill="#100f0d"/>
   </g>
   <g id="g8876" transform="translate(84.734 583.48)">
    <path id="path8878" d="m0 0h-0.295l-0.704 1.75h0.318l0.543-1.394 0.539 1.394h0.309z" fill="#100f0d" stroke="#100f0d" stroke-width=".064"/>
   </g>
   <g id="g8880" transform="translate(87.331 583.48)">
    <path id="path8882" d="m0 0h-0.295l-0.704 1.75h0.318l0.543-1.394 0.539 1.394h0.308z" fill="#100f0d"/>
   </g>
   <g id="g8884" transform="translate(87.331 583.48)">
    <path id="path8886" d="m0 0h-0.295l-0.704 1.75h0.318l0.543-1.394 0.539 1.394h0.308z" fill="#100f0d" stroke="#100f0d" stroke-width=".064"/>
   </g>
   <g id="g8888" transform="translate(89.462 584.91)">
    <path id="path8890" d="m0 0c-0.077 0.087-0.193 0.128-0.35 0.128s-0.282-0.048-0.376-0.141c-0.096-0.093-0.147-0.209-0.16-0.347h1.005c-3e-3 0.158-0.042 0.277-0.119 0.36m-0.886-0.585c0-0.105 0.016-0.202 0.048-0.279 0.032-0.08 0.077-0.148 0.135-0.199 0.054-0.048 0.118-0.087 0.192-0.112 0.074-0.026 0.158-0.039 0.247-0.039 0.119 0 0.238 0.026 0.36 0.074 0.122 0.045 0.206 0.093 0.257 0.138h0.016v-0.321c-0.099-0.042-0.199-0.077-0.305-0.106-0.103-0.026-0.212-0.042-0.324-0.042-0.293 0-0.517 0.08-0.681 0.238-0.163 0.157-0.244 0.379-0.244 0.671 0 0.286 0.077 0.514 0.235 0.681 0.154 0.167 0.359 0.253 0.616 0.253 0.234 0 0.417-0.07 0.546-0.208 0.128-0.138 0.193-0.334 0.193-0.588v-0.161z" fill="#100f0d"/>
   </g>
   <g id="g8892" transform="translate(89.462 584.91)">
    <path id="path8894" d="m0 0c-0.077 0.087-0.193 0.128-0.35 0.128s-0.282-0.048-0.376-0.141c-0.096-0.093-0.147-0.209-0.16-0.347h1.005c-3e-3 0.158-0.042 0.277-0.119 0.36zm-0.886-0.585c0-0.105 0.016-0.202 0.048-0.279 0.032-0.08 0.077-0.148 0.135-0.199 0.054-0.048 0.118-0.087 0.192-0.112 0.074-0.026 0.158-0.039 0.247-0.039 0.119 0 0.238 0.026 0.36 0.074 0.122 0.045 0.206 0.093 0.257 0.138h0.016v-0.321c-0.099-0.042-0.199-0.077-0.305-0.106-0.103-0.026-0.212-0.042-0.324-0.042-0.293 0-0.517 0.08-0.681 0.238-0.163 0.157-0.244 0.379-0.244 0.671 0 0.286 0.077 0.514 0.235 0.681 0.154 0.167 0.359 0.253 0.616 0.253 0.234 0 0.417-0.07 0.546-0.208 0.128-0.138 0.193-0.334 0.193-0.588v-0.161z" fill="#100f0d" stroke="#100f0d" stroke-width=".064"/>
   </g>
   <g id="g8896" transform="translate(91.537 583.6)">
    <path id="path8898" d="m0 0c-0.132-0.103-0.312-0.154-0.54-0.154-0.131 0-0.25 0.016-0.359 0.045-0.106 0.032-0.199 0.064-0.27 0.102v0.331h0.016c0.093-0.07 0.196-0.125 0.309-0.167 0.115-0.041 0.224-0.064 0.327-0.064 0.132 0 0.231 0.023 0.305 0.064 0.074 0.042 0.109 0.109 0.109 0.199 0 0.068-0.019 0.119-0.058 0.154-0.041 0.036-0.115 0.068-0.231 0.094-0.042 9e-3 -0.096 0.019-0.163 0.032-0.068 0.012-0.129 0.025-0.184 0.041-0.154 0.039-0.263 0.1-0.327 0.18-0.064 0.077-0.096 0.174-0.096 0.289 0 0.074 0.016 0.142 0.045 0.206 0.028 0.061 0.073 0.119 0.134 0.17 0.061 0.048 0.135 0.087 0.225 0.115 0.09 0.029 0.193 0.045 0.302 0.045 0.106 0 0.212-0.013 0.318-0.038 0.109-0.026 0.196-0.058 0.266-0.093v-0.318h-0.013c-0.077 0.058-0.166 0.103-0.276 0.141-0.105 0.039-0.211 0.058-0.315 0.058-0.109 0-0.199-0.019-0.272-0.061-0.077-0.042-0.113-0.103-0.113-0.186 0-0.071 0.023-0.125 0.068-0.161 0.045-0.038 0.115-0.067 0.212-0.09 0.054-0.012 0.115-0.025 0.183-0.038 0.067-0.013 0.125-0.026 0.17-0.036 0.135-0.032 0.241-0.083 0.314-0.16 0.078-0.077 0.113-0.18 0.113-0.308 0-0.161-0.067-0.289-0.199-0.392" fill="#100f0d"/>
   </g>
   <g id="g8900" transform="translate(91.537 583.6)">
    <path id="path8902" d="m0 0c-0.132-0.103-0.312-0.154-0.54-0.154-0.131 0-0.25 0.016-0.359 0.045-0.106 0.032-0.199 0.064-0.27 0.102v0.331h0.016c0.093-0.07 0.196-0.125 0.309-0.167 0.115-0.041 0.224-0.064 0.327-0.064 0.132 0 0.231 0.023 0.305 0.064 0.074 0.042 0.109 0.109 0.109 0.199 0 0.068-0.019 0.119-0.058 0.154-0.041 0.036-0.115 0.068-0.231 0.094-0.042 9e-3 -0.096 0.019-0.163 0.032-0.068 0.012-0.129 0.025-0.184 0.041-0.154 0.039-0.263 0.1-0.327 0.18-0.064 0.077-0.096 0.174-0.096 0.289 0 0.074 0.016 0.142 0.045 0.206 0.028 0.061 0.073 0.119 0.134 0.17 0.061 0.048 0.135 0.087 0.225 0.115 0.09 0.029 0.193 0.045 0.302 0.045 0.106 0 0.212-0.013 0.318-0.038 0.109-0.026 0.196-0.058 0.266-0.093v-0.318h-0.013c-0.077 0.058-0.166 0.103-0.276 0.141-0.105 0.039-0.211 0.058-0.315 0.058-0.109 0-0.199-0.019-0.272-0.061-0.077-0.042-0.113-0.103-0.113-0.186 0-0.071 0.023-0.125 0.068-0.161 0.045-0.038 0.115-0.067 0.212-0.09 0.054-0.012 0.115-0.025 0.183-0.038 0.067-0.013 0.125-0.026 0.17-0.036 0.135-0.032 0.241-0.083 0.314-0.16 0.078-0.077 0.113-0.18 0.113-0.308 0-0.161-0.067-0.289-0.199-0.392z" fill="#100f0d" stroke="#100f0d" stroke-width=".064"/>
   </g>
   <g id="g8904" transform="translate(93.093 583.46)">
    <path id="path8906" d="m0 0c-0.064-9e-3 -0.122-0.016-0.174-0.016-0.179 0-0.314 0.048-0.407 0.145-0.094 0.096-0.142 0.25-0.142 0.462v0.931h-0.199v0.247h0.199v0.505h0.296v-0.505h0.966v-0.247h-0.966v-0.796c0-0.093 3e-3 -0.164 6e-3 -0.215 4e-3 -0.055 0.02-0.103 0.045-0.148 0.023-0.042 0.055-0.071 0.093-0.09 0.042-0.019 0.103-0.029 0.187-0.029 0.048 0 0.096 7e-3 0.147 0.019 0.055 0.016 0.09 0.026 0.116 0.036h0.016v-0.264c-0.058-0.016-0.119-0.025-0.183-0.035" fill="#100f0d"/>
   </g>
   <g id="g8908" transform="translate(93.093 583.46)">
    <path id="path8910" d="m0 0c-0.064-9e-3 -0.122-0.016-0.174-0.016-0.179 0-0.314 0.048-0.407 0.145-0.094 0.096-0.142 0.25-0.142 0.462v0.931h-0.199v0.247h0.199v0.505h0.296v-0.505h0.966v-0.247h-0.966v-0.796c0-0.093 3e-3 -0.164 6e-3 -0.215 4e-3 -0.055 0.02-0.103 0.045-0.148 0.023-0.042 0.055-0.071 0.093-0.09 0.042-0.019 0.103-0.029 0.187-0.029 0.048 0 0.096 7e-3 0.147 0.019 0.055 0.016 0.09 0.026 0.116 0.036h0.016v-0.264c-0.058-0.016-0.119-0.025-0.183-0.035z" fill="#100f0d" stroke="#100f0d" stroke-width=".064"/>
   </g>
   <g id="g8912" transform="translate(82.97 583.46)">
    <path id="path8914" d="m0 0c-0.064-9e-3 -0.122-0.016-0.174-0.016-0.179 0-0.314 0.048-0.407 0.145-0.094 0.096-0.142 0.25-0.142 0.462v0.931h-0.199v0.247h0.199v0.505h0.296v-0.505h0.966v-0.247h-0.966v-0.796c0-0.093 3e-3 -0.164 7e-3 -0.215 3e-3 -0.055 0.019-0.103 0.044-0.148 0.023-0.042 0.055-0.071 0.093-0.09 0.042-0.019 0.103-0.029 0.187-0.029 0.048 0 0.096 7e-3 0.147 0.019 0.055 0.016 0.09 0.026 0.116 0.036h0.016v-0.264c-0.058-0.016-0.119-0.025-0.183-0.035" fill="#100f0d"/>
   </g>
   <g id="g8916" transform="translate(82.97 583.46)">
    <path id="path8918" d="m0 0c-0.064-9e-3 -0.122-0.016-0.174-0.016-0.179 0-0.314 0.048-0.407 0.145-0.094 0.096-0.142 0.25-0.142 0.462v0.931h-0.199v0.247h0.199v0.505h0.296v-0.505h0.966v-0.247h-0.966v-0.796c0-0.093 3e-3 -0.164 7e-3 -0.215 3e-3 -0.055 0.019-0.103 0.044-0.148 0.023-0.042 0.055-0.071 0.093-0.09 0.042-0.019 0.103-0.029 0.187-0.029 0.048 0 0.096 7e-3 0.147 0.019 0.055 0.016 0.09 0.026 0.116 0.036h0.016v-0.264c-0.058-0.016-0.119-0.025-0.183-0.035z" fill="#100f0d" stroke="#100f0d" stroke-width=".064"/>
   </g>
  </g>
 </g>
</svg>
