<svg width="470.61pt" height="600pt" version="1.1" viewBox="0 0 470.61 600" xmlns="http://www.w3.org/2000/svg">
 <g transform="matrix(40.403 0 0 -40.403 234.88 205.83)">
  <path d="m0 0c-0.893 0-1.616-0.724-1.616-1.616 0-0.893 0.723-1.617 1.616-1.617 0.892 0 1.616 0.724 1.616 1.617 0 0.892-0.724 1.616-1.616 1.616" fill="#fff"/>
 </g>
 <g transform="matrix(40.403 0 0 -40.403 234.88 336.43)">
  <path d="m0 0c-0.893 0-1.616 0.723-1.616 1.616s0.723 1.617 1.616 1.617c0.892 0 1.616-0.724 1.616-1.617s-0.724-1.616-1.616-1.616m2.057 4.339h-4.114c-0.42 0-0.76-0.341-0.76-0.761v-4.113c0-0.42 0.34-0.761 0.76-0.761h4.114c0.419 0 0.76 0.341 0.76 0.761v4.113c0 0.42-0.341 0.761-0.76 0.761" fill="#ff6800"/>
 </g>
 <g transform="matrix(40.403 0 0 -40.403 348.69 358.05)">
  <path d="m0 0c0-0.42-0.341-0.761-0.76-0.761h-4.114c-0.419 0-0.76 0.341-0.76 0.761v4.113c0 0.42 0.341 0.761 0.76 0.761h4.114c0.419 0 0.76-0.341 0.76-0.761zm-0.328 6.078h-1.672l2.558 2.681c0.042 0.03 0.075 0.066 0.102 0.103h-1.405l-2.077-2.145-2.069 2.145h-1.402c0.012-0.016 0.026-0.031 0.041-0.046l0.027-0.028 2.586-2.71h-1.664c-0.848 0-1.534-0.687-1.534-1.534v-4.975c0-0.844 0.682-1.529 1.526-1.534h4.991c0.836 5e-3 1.512 0.678 1.524 1.512v5.019c-0.012 0.837-0.693 1.512-1.532 1.512" fill="#fff"/>
 </g>
 <path d="m109.83 597.01h-11.919l-28.443-70.705h12.848l21.939 56.321 21.777-56.321h12.484z" fill="#fff"/>
 <path d="m109.83 597.01h-11.919l-28.443-70.705h12.848l21.939 56.321 21.777-56.321h12.484z" fill="#fff" stroke="#fff" stroke-width="2.5858"/>
 <path d="m214.75 597.01h-11.919l-28.443-70.705h12.848l21.939 56.321 21.777-56.321h12.444z" fill="#fff"/>
 <path d="m214.75 597.01h-11.919l-28.443-70.705h12.848l21.939 56.321 21.777-56.321h12.444z" fill="#fff" stroke="#fff" stroke-width="2.5858"/>
 <path d="m300.85 539.27c-3.111-3.515-7.7977-5.1715-14.141-5.1715s-11.394 1.9393-15.191 5.6968c-3.8786 3.7574-5.9392 8.4442-6.4644 14.02h40.605c-0.12121-6.3836-1.6969-11.192-4.8079-14.545m-35.797 23.636c0 4.2423 0.64644 8.1613 1.9393 11.272 1.2929 3.2322 3.111 5.9796 5.4544 8.0401 2.1817 1.9393 4.7675 3.515 7.7573 4.5251 2.9898 1.0505 6.3836 1.5757 9.9795 1.5757 4.8079 0 9.6158-1.0505 14.545-2.9898 4.9291-1.8181 8.323-3.7574 10.383-5.5756h0.64644v12.969c-3.9999 1.6969-8.0401 3.111-12.323 4.2827-4.1615 1.0505-8.5654 1.6969-13.09 1.6969-11.838 0-20.888-3.2322-27.514-9.6158-6.5856-6.3432-9.8583-15.313-9.8583-27.11 0-11.555 3.111-20.767 9.4946-27.514 6.222-6.7472 14.505-10.222 24.888-10.222 9.4542 0 16.848 2.8282 22.06 8.4038 5.1715 5.5756 7.7977 13.494 7.7977 23.757v6.5048z" fill="#fff"/>
 <path d="m300.85 539.27c-3.111-3.515-7.7977-5.1715-14.141-5.1715s-11.394 1.9393-15.191 5.6968c-3.8786 3.7574-5.9392 8.4442-6.4644 14.02h40.605c-0.12121-6.3836-1.6969-11.192-4.8079-14.545zm-35.797 23.636c0 4.2423 0.64644 8.1613 1.9393 11.272 1.2929 3.2322 3.111 5.9796 5.4544 8.0401 2.1817 1.9393 4.7675 3.515 7.7573 4.5251 2.9898 1.0505 6.3836 1.5757 9.9795 1.5757 4.8079 0 9.6158-1.0505 14.545-2.9898 4.9291-1.8181 8.323-3.7574 10.383-5.5756h0.64644v12.969c-3.9999 1.6969-8.0401 3.111-12.323 4.2827-4.1615 1.0505-8.5654 1.6969-13.09 1.6969-11.838 0-20.888-3.2322-27.514-9.6158-6.5856-6.3432-9.8583-15.313-9.8583-27.11 0-11.555 3.111-20.767 9.4946-27.514 6.222-6.7472 14.505-10.222 24.888-10.222 9.4542 0 16.848 2.8282 22.06 8.4038 5.1715 5.5756 7.7977 13.494 7.7977 23.757v6.5048z" fill="#fff" stroke="#fff" stroke-width="2.5858"/>
 <path d="m384.66 592.46c-5.3332 4.1615-12.606 6.222-21.817 6.222-5.2928 0-10.101-0.64644-14.505-1.8181-4.2827-1.2929-8.0401-2.5858-10.909-4.1211v-13.373h0.64644c3.7574 2.8282 7.9189 5.0503 12.484 6.7472 4.6463 1.6565 9.0502 2.5858 13.212 2.5858 5.3332 0 9.333-0.92926 12.323-2.5858 2.9898-1.6969 4.4039-4.4039 4.4039-8.0401 0-2.7474-0.76765-4.8079-2.3434-6.222-1.6565-1.4545-4.6463-2.7474-9.333-3.7978-1.6969-0.36362-3.8787-0.76765-6.5856-1.2929-2.7474-0.48484-5.2119-1.0101-7.4341-1.6565-6.222-1.5757-10.626-4.0403-13.212-7.2725-2.5858-3.111-3.8786-7.0301-3.8786-11.676 0-2.9898 0.64644-5.7372 1.8181-8.323 1.1313-2.4646 2.9494-4.8079 5.414-6.8685 2.4646-1.9393 5.4544-3.515 9.0906-4.6463 3.6362-1.1717 7.7977-1.8181 12.202-1.8181 4.2827 0 8.5654 0.52524 12.848 1.5353 4.4039 1.0505 7.9189 2.3434 10.747 3.7574v12.848h-0.52523c-3.111-2.3434-6.7068-4.1615-11.151-5.6968-4.2423-1.5757-8.525-2.3434-12.727-2.3434-4.4039 0-8.0401 0.76765-10.99 2.4646-3.111 1.6969-4.5655 4.1615-4.5655 7.5149 0 2.8686 0.92926 5.0503 2.7474 6.5048 1.8181 1.5353 4.6463 2.707 8.5654 3.6362 2.1818 0.48483 4.6463 1.0101 7.3937 1.5353 2.707 0.52523 5.0503 1.0505 6.8685 1.4545 5.4544 1.2929 9.737 3.3534 12.686 6.4644 3.1514 3.111 4.5655 7.2725 4.5655 12.444 0 6.5048-2.707 11.676-8.0401 15.838" fill="#fff"/>
 <path d="m384.66 592.46c-5.3332 4.1615-12.606 6.222-21.817 6.222-5.2928 0-10.101-0.64644-14.505-1.8181-4.2827-1.2929-8.0401-2.5858-10.909-4.1211v-13.373h0.64644c3.7574 2.8282 7.9189 5.0503 12.484 6.7472 4.6463 1.6565 9.0502 2.5858 13.212 2.5858 5.3332 0 9.333-0.92926 12.323-2.5858 2.9898-1.6969 4.4039-4.4039 4.4039-8.0401 0-2.7474-0.76765-4.8079-2.3434-6.222-1.6565-1.4545-4.6463-2.7474-9.333-3.7978-1.6969-0.36362-3.8787-0.76765-6.5856-1.2929-2.7474-0.48484-5.2119-1.0101-7.4341-1.6565-6.222-1.5757-10.626-4.0403-13.212-7.2725-2.5858-3.111-3.8786-7.0301-3.8786-11.676 0-2.9898 0.64644-5.7372 1.8181-8.323 1.1313-2.4646 2.9494-4.8079 5.414-6.8685 2.4646-1.9393 5.4544-3.515 9.0906-4.6463 3.6362-1.1717 7.7977-1.8181 12.202-1.8181 4.2827 0 8.5654 0.52524 12.848 1.5353 4.4039 1.0505 7.9189 2.3434 10.747 3.7574v12.848h-0.52523c-3.111-2.3434-6.7068-4.1615-11.151-5.6968-4.2423-1.5757-8.525-2.3434-12.727-2.3434-4.4039 0-8.0401 0.76765-10.99 2.4646-3.111 1.6969-4.5655 4.1615-4.5655 7.5149 0 2.8686 0.92926 5.0503 2.7474 6.5048 1.8181 1.5353 4.6463 2.707 8.5654 3.6362 2.1818 0.48483 4.6463 1.0101 7.3937 1.5353 2.707 0.52523 5.0503 1.0505 6.8685 1.4545 5.4544 1.2929 9.737 3.3534 12.686 6.4644 3.1514 3.111 4.5655 7.2725 4.5655 12.444 0 6.5048-2.707 11.676-8.0401 15.838z" fill="#fff" stroke="#fff" stroke-width="2.5858"/>
 <path d="m447.54 597.79c-2.5858 0.36362-4.9291 0.64644-7.0301 0.64644-7.2321 0-12.686-1.9393-16.444-5.8584-3.7978-3.8786-5.7372-10.101-5.7372-18.666v-37.615h-8.0401v-9.9795h8.0401v-20.403h11.959v20.403h39.029v9.9795h-39.029v32.161c0 3.7574 0.1212 6.626 0.24241 8.6866 0.16161 2.2222 0.80806 4.1615 1.8181 5.9796 0.92926 1.6969 2.2222 2.8686 3.7574 3.6362 1.6969 0.76765 4.1615 1.1717 7.5553 1.1717 1.9393 0 3.8787-0.28282 5.9392-0.76765 2.2221-0.64645 3.6362-1.0505 4.6867-1.4545h0.64644v10.666c-2.3434 0.64644-4.8079 1.0101-7.3937 1.4141" fill="#fff"/>
 <path d="m447.54 597.79c-2.5858 0.36362-4.9291 0.64644-7.0301 0.64644-7.2321 0-12.686-1.9393-16.444-5.8584-3.7978-3.8786-5.7372-10.101-5.7372-18.666v-37.615h-8.0401v-9.9795h8.0401v-20.403h11.959v20.403h39.029v9.9795h-39.029v32.161c0 3.7574 0.1212 6.626 0.24241 8.6866 0.16161 2.2222 0.80806 4.1615 1.8181 5.9796 0.92926 1.6969 2.2222 2.8686 3.7574 3.6362 1.6969 0.76765 4.1615 1.1717 7.5553 1.1717 1.9393 0 3.8787-0.28282 5.9392-0.76765 2.2221-0.64645 3.6362-1.0505 4.6867-1.4545h0.64644v10.666c-2.3434 0.64644-4.8079 1.0101-7.3937 1.4141z" fill="#fff" stroke="#fff" stroke-width="2.5858"/>
 <path d="m38.544 597.79c-2.5858 0.36362-4.9291 0.64644-7.0301 0.64644-7.2321 0-12.686-1.9393-16.444-5.8584-3.7979-3.8786-5.7372-10.101-5.7372-18.666v-37.615h-8.0401v-9.9795h8.0401v-20.403h11.959v20.403h39.029v9.9795h-39.029v32.161c0 3.7574 0.12121 6.626 0.28282 8.6866 0.12121 2.2222 0.76765 4.1615 1.7777 5.9796 0.92926 1.6969 2.2221 2.8686 3.7574 3.6362 1.6969 0.76765 4.1615 1.1717 7.5553 1.1717 1.9393 0 3.8787-0.28282 5.9392-0.76765 2.2221-0.64645 3.6362-1.0505 4.6867-1.4545h0.64644v10.666c-2.3434 0.64644-4.8079 1.0101-7.3937 1.4141" fill="#fff"/>
 <path d="m38.544 597.79c-2.5858 0.36362-4.9291 0.64644-7.0301 0.64644-7.2321 0-12.686-1.9393-16.444-5.8584-3.7979-3.8786-5.7372-10.101-5.7372-18.666v-37.615h-8.0401v-9.9795h8.0401v-20.403h11.959v20.403h39.029v9.9795h-39.029v32.161c0 3.7574 0.12121 6.626 0.28282 8.6866 0.12121 2.2222 0.76765 4.1615 1.7777 5.9796 0.92926 1.6969 2.2221 2.8686 3.7574 3.6362 1.6969 0.76765 4.1615 1.1717 7.5553 1.1717 1.9393 0 3.8787-0.28282 5.9392-0.76765 2.2221-0.64645 3.6362-1.0505 4.6867-1.4545h0.64644v10.666c-2.3434 0.64644-4.8079 1.0101-7.3937 1.4141z" fill="#fff" stroke="#fff" stroke-width="2.5858"/>
</svg>
