<?xml version="1.0" encoding="UTF-8"?>
<svg id="svg15" width="576.56pt" height="600pt" version="1.1" viewBox="0 0 576.56 600" xmlns="http://www.w3.org/2000/svg" xmlns:cc="http://creativecommons.org/ns#" xmlns:dc="http://purl.org/dc/elements/1.1/" xmlns:rdf="http://www.w3.org/1999/02/22-rdf-syntax-ns#">
 <metadata id="metadata21">
  <rdf:RDF>
   <cc:Work rdf:about="">
    <dc:format>image/svg+xml</dc:format>
    <dc:type rdf:resource="http://purl.org/dc/dcmitype/StillImage"/>
    <dc:title/>
   </cc:Work>
  </rdf:RDF>
 </metadata>
 <g id="g863" transform="matrix(.86557 0 0 .86557 -75.525 291.1)">
  <g id="g18364" transform="matrix(53.744 0 0 -53.744 87.255 -36.097)">
   <path id="path18366" d="m0 0c0 3.087 2.499 5.586 5.577 5.586 3.087 0 5.587-2.499 5.587-5.586 0-3.077-2.5-5.577-5.587-5.577-3.078 0-5.577 2.5-5.577 5.577" fill="#f14d1c"/>
  </g>
  <g id="g18368" transform="matrix(53.744 0 0 -53.744 227.2 168.49)">
   <path id="path18370" d="m0 0c0-0.057 0.047-0.113 0.114-0.113h1.259c0.057 0 0.113 0.056 0.113 0.113v7.386c0 0.057-0.056 0.113-0.113 0.113h-1.865c-0.057 0-0.114-0.056-0.114-0.113v-1.165c0-0.066 0.057-0.114 0.114-0.114h0.492z" fill="#fff"/>
  </g>
  <g id="g18372" transform="matrix(53.744 0 0 -53.744 336.12 159.83)">
   <path id="path18374" d="m0 0c-0.047-0.086-0.066-0.123-0.066-0.161 0-0.057 0.037-0.114 0.142-0.114h4.09c0.057 0 0.114 0.057 0.114 0.114v1.165c0 0.056-0.057 0.113-0.114 0.113h-1.893l0.956 1.506c0.596 0.946 1.335 1.799 1.335 2.831 0 1.118-0.88 2.083-2.206 2.083-1.629 0-2.339-1.439-2.339-2.367 0-0.104 0.01-0.17 0.133-0.17h1.098c0.076 0 0.104 0.057 0.113 0.123 0.057 0.293 0.275 0.975 0.947 0.975 0.474 0 0.787-0.332 0.767-0.748-0.019-0.416-0.283-0.786-1.41-2.623z" fill="#fff"/>
  </g>
 </g>
 <g id="g840" transform="matrix(3.0225 0 0 3.0225 -128.92 -109.07)" fill="#5a5959">
  <path id="path2-1" transform="scale(.75)" d="m232.64 273.05v39.748h9.1719v-17.055h16.088v17.055l9.1738-4.5e-4v-39.748h-9.1738v15.254h-16.088v-15.254z" stroke-width="1.3333"/>
  <path id="path4" d="m206.34 204.79h10.785c4.2394 0 8.3498 0.45853 11.765 3.28 6.25 6.27 6.08 18.26-0.88 23.95-3.1464 2.276-6.7732 2.5802-10.51 2.5802h-11.16v-29.81m6.435 5.8402v18h5.1458c2.6475 0 4.9532 0.052 6.6961-2.0533 1.5485-1.8966 2.1146-4.4545 2.0123-7.0002-0.0736-1.8284-0.492-3.6505-1.1391-5.2167-1.5264-2.9649-4.2568-3.7298-7.4271-3.7298z"/>
 </g>
</svg>
