<svg version="1.1" viewBox="0 0 306.4 101.4" xml:space="preserve" xmlns="http://www.w3.org/2000/svg">
<style type="text/css">
	.st0{fill:#D21E1E;}
	.st1{fill-rule:evenodd;clip-rule:evenodd;fill:#D21E1E;}
</style>
<g fill="#d21e1e">
	<path class="st0" d="m117.8 0c-9.9 0-93.9 0.2-99.6 0.2-7.8 0-11.3 12.5-18.2 20.9 7.4 0.5 87.3 0.1 97.9 0.1 8.2 0 11.7-12 19.9-21.2z"/>
	<path class="st0" d="m121.8 34.4h-26.6c-7.2 11-33.8 51.6-36.1 51.6-2.3 0.1 6-51.6 6-51.6h-22.7c-5.6 45.5-5.6 45.2-5.9 47.8-0.8 6.2 2.1 9.7 4.8 9.7h35c8.1 0 16.5-15.9 20-21 2.3-3.5 18.1-28.8 25.5-36.5z"/>
</g>
<path class="st1" d="m182.4 0.1c-17.2 0-30.8 7.2-40.5 20.4l-7.2 10.3c-1.5 2-2.9 3.9-4.1 5.6 1.5-1.1 3.2-1.7 5.2-2h32.6c2.9 0 9.1 0.2 8.6 6.6-0.7 9.3-5.5 44.1-4.7 44.7 1.1 0.8 14.3-18.9 16.4-22.1s12.4-18.2 14.9-21.7c2.5-3.6 5.1-7.4 9.4-7.4h21.7c-3.8 2.8-32.5 47.7-33.4 49-1 1.4-5.4 8.5-9.1 8.5-0.5 0-29.8 0.1-36.7 0.1-3.4 0-6-2.8-5.8-5.5 0.5-4.7 4.6-45.4 4.6-45.4s-1.1-1.6-3.4 1.9c-2.4 3.7-14.5 22.3-17.5 26.4-2.9 4.1-13.8 22.6-18.5 22.6h-19.9c-2.1 3.1-4.2 6.2-6.3 9.3h124c17.2 0 30.8-7.2 40.5-20.4 17.8-24.2 34.5-54.1 53.2-80.7h-124z" clip-rule="evenodd" fill="#d21e1e" fill-rule="evenodd"/>
</svg>
