<svg id="a" width="800" height="440.28" version="1.1" viewBox="0 0 211.67 116.49" xmlns="http://www.w3.org/2000/svg">
 <g id="b" transform="translate(20.957 -34.515)">
  <path id="c" d="m-20.957 151.01h116.5v-116.49h-116.5z" fill="#fff"/>
  <path id="d" d="m-20.957 151.01h116.5v-116.49h-116.5zm0.21714-116.29h116.08v116.08h-116.08z" fill="#231f20"/>
  <g id="e">
   <path id="f" d="m11.884 79.639 18.034 0.0095-8.0195-5.9295z" fill="#fbc707"/>
   <g id="g" transform="matrix(9.457 0 0 -9.457 39.739 51.668)">
    <path id="h" d="m0 0c-0.293 3e-3 -0.586-0.04-0.871-0.128-0.444-0.137-0.852-0.38-1.212-0.721-0.865-0.822-0.867-1.949-0.862-2.109l0.4 0.237 0.659 0.39c0.014 0.054 0.151 0.539 0.671 0.952 0.509 0.404 1.125 0.457 1.215 0.463z" fill="#ee2734"/>
   </g>
   <g id="i" transform="matrix(9.457 0 0 -9.457 65.944 118.25)">
    <path id="j" d="m0 0h-3.076l-1.735-0.939h4.04l0.771-0.903z" fill="#0f85d1"/>
   </g>
   <g id="k" transform="matrix(9.457 0 0 -9.457 59.084 79.517)">
    <path id="l" d="m0 0c0 1.12-0.916 2.028-2.046 2.028v-0.934c0.61 0 1.104-0.49 1.104-1.094 0-0.219-0.066-0.422-0.177-0.593-0.055-0.075-0.128-0.158-0.227-0.253l-1.377-1.066c-0.999-0.76-1.597-1.579-1.689-1.715-0.163-0.245-0.384-0.616-0.541-1.029-0.173-0.456-0.275-0.899-0.286-1.251l1.153 0.872c0.015 0.059 0.158 0.596 0.685 1.22 0.554 0.657 0.991 0.98 1.341 1.241 0.079 0.058 0.153 0.113 0.224 0.168 0.054 0.042 0.135 0.101 0.229 0.168 0.242 0.174 0.586 0.422 0.867 0.677 0.452 0.372 0.74 0.933 0.74 1.561" fill="#59c134"/>
   </g>
  </g>
  <g id="m" transform="matrix(9.457 0 0 -9.457 139.42 86.799)">
   <path id="n" d="m0 0h-1.092v2.545h-1.242v-6.278h1.242v2.606h1.092v-2.606h1.242v6.278h-1.242z" fill="#656263"/>
  </g>
  <g id="o" transform="matrix(9.457 0 0 -9.457 178.8 106.37)">
   <path id="p" d="m0 0c0-0.3-0.149-0.599-0.572-0.599h-0.467v4.156h0.449c0.405 0 0.59-0.246 0.59-0.572zm-0.458 4.614h-1.814v-6.278h1.806c0.968 0 1.726 0.501 1.726 1.593v3.17c0 1.022-0.758 1.515-1.718 1.515" fill="#656263"/>
  </g>
 </g>
</svg>
