<svg id="a" width="800" height="134.47" version="1.1" viewBox="0 0 211.67 35.58" xmlns="http://www.w3.org/2000/svg">
 <g id="b" transform="matrix(6.2095 0 0 -6.2095 -2571.2 805.49)">
  <g id="c" transform="matrix(.051648 0 0 -.052158 521.39 832.63)">
   <path id="d" d="m-1967.9 13586h-109.86v-109.86h109.86z" fill="#3058b0"/>
  </g>
  <g id="e" transform="matrix(.051648 0 0 -.052158 521.39 832.63)">
   <g id="f" transform="translate(-2028.7 13494)">
    <path id="g" d="m0 0c-3.97 1.222-7.61 3.389-10.81 6.433-7.71 7.329-7.73 17.38-7.69 18.805h17l-7.56-5.59v-1e-3c0.13-0.479 1.35-4.81 5.99-8.49 4.54-3.606 10.03-4.077 10.84-4.126v-8.173c-2.62-0.028-5.23 0.355-7.77 1.142" fill="#fff"/>
   </g>
  </g>
  <g id="h" transform="matrix(.051648 0 0 -.052158 521.39 832.63)">
   <g id="i" transform="translate(-2023.6 13555)">
    <path id="j" d="m0 0-15.48 8.375h36.03l6.87 8.057v-16.432z" fill="#fff"/>
   </g>
  </g>
  <g id="k" transform="matrix(.051648 0 0 -.052158 521.39 832.63)">
   <g id="l" transform="translate(-2014.7 13526)">
    <path id="m" d="m0 0-12.29 9.508c-8.9 6.774-14.24 14.074-15.06 15.294-1.45 2.177-3.42 5.489-4.83 9.173-1.54 4.065-2.44 8.012-2.54 11.151l10.28-7.773c0.13-0.522 1.41-5.313 6.11-10.879 4.94-5.854 8.83-8.743 11.96-11.065 0.7-0.519 1.36-1.011 1.99-1.504 0.48-0.372 1.21-0.892 2.05-1.495 2.15-1.55 5.22-3.765 7.73-6.034 4.03-3.317 6.6-8.32 6.6-13.921 0-9.99-8.17-18.089-18.24-18.089v8.329c5.43 0 9.84 4.371 9.84 9.76 0 1.95-0.59 3.762-1.58 5.287-0.49 0.673-1.14 1.411-2.02 2.258" fill="#fff"/>
   </g>
  </g>
 </g>
 <g id="n" transform="matrix(6.2095 0 0 -6.2095 -2571.2 805.49)">
  <g id="o" transform="matrix(.051648 0 0 -.052158 521.39 832.63)">
   <g id="p" transform="translate(-1939.6 13545)">
    <path id="q" d="m0 0 8.62-5.453c2.28 4.422 7.29 7.296 12.97 7.296 4.64 0 9.29-1.696 9.29-5.97 0-3.537-2.88-5.011-6.56-6.043l-9-2.284c-7-1.769-12.52-5.454-12.52-14.298 0-9.875 8.54-16.287 19.45-16.287 8.99 0 14.96 2.58 19.02 9.359l-8.26 5.38c-2.36-3.905-6.56-5.453-11.13-5.453-4.05 0-7.81 1.621-7.81 5.748 0 3.391 3.39 4.717 7.37 5.822l8.7 2.211c6.85 1.696 12.31 5.823 12.31 14.592 0 10.539-9.51 16.582-20.71 16.582-9.44 0-17.91-3.242-21.74-11.202" fill="#3058b0"/>
   </g>
  </g>
  <g id="r" transform="matrix(.051648 0 0 -.052158 521.39 832.63)">
   <g id="s" transform="translate(-1866.5 13541)">
    <path id="t" d="m0 0v-9.507c0-4.274-3.17-6.706-7.23-6.706-3.46 0-7.29 2.064-7.29 7.443v8.844c0 4.495 3.46 6.78 7.44 6.78 3.39 0 7.08-1.917 7.08-6.854m-25.13-24.025h10.31v4.496h0.15c2.87-3.612 7.15-5.307 10.76-5.307 8.48 0 14.59 5.38 14.59 14.666v10.465c0 9.58-7.07 14.813-15.47 14.813-3.98 0-7.59-1.99-9.59-4.496h-0.14v17.688h-10.61z" fill="#3058b0"/>
   </g>
  </g>
  <g id="u" transform="matrix(.051648 0 0 -.052158 521.39 832.63)">
   <g id="v" transform="translate(-1826.1 13541)">
    <path id="w" d="m0 0v-9.508c0-4.127-3.1-6.706-7.23-6.706-3.61 0-7 2.064-7 6.928v9.433c0 4.127 2.95 6.633 7.23 6.633 3.61 0 7-2.063 7-6.78m-24.99 0v-8.476c0-10.759 8.99-16.213 17.69-16.213 9.21 0 18.06 5.528 18.06 15.993v7.885c0 10.759-9.22 15.993-17.76 15.993-9.22 0-17.99-4.717-17.99-15.182" fill="#3058b0"/>
   </g>
  </g>
  <g id="x" transform="matrix(.051648 0 0 -.052158 521.39 832.63)">
   <g id="y" transform="translate(-1809.7 13517)">
    <path id="z" d="m0 0h10.31v6.338h0.15c2.14-3.832 7.37-7.001 12.01-7.001 1.03 0 2.36 0 3.39 0.221v9.36c-1.47-0.222-3.09-0.295-4.27-0.295-5.9 0-11.06 3.022-11.06 9.875v19.751h-10.53z" fill="#3058b0"/>
   </g>
  </g>
  <g id="aa" transform="matrix(.051648 0 0 -.052158 521.39 832.63)">
   <g id="ab" transform="translate(-1776 13546)">
    <path id="ac" d="m0 0v-20.561h-5.01v-8.033h5.01v-11.202h10.54v11.202h8.18v8.033h-8.18v17.982c0 2.433 1.25 3.464 3.46 3.464 1.77 0 2.95-0.074 4.65-0.368v8.622c-2.36 0.663-5.68 0.958-7.52 0.958-5.9 0-11.13-2.654-11.13-10.097" fill="#3058b0"/>
   </g>
  </g>
 </g>
 <g id="ad" transform="matrix(6.2095 0 0 -6.2095 -2571.2 805.49)">
  <g id="ae" transform="matrix(.051648 0 0 -.052158 521.39 832.63)">
   <g id="af" transform="translate(-1719.3 13530)">
    <path id="ag" d="m0 0c8.04 0 13.05-3.61 13.05-10.906 0-6.854-4.94-10.76-11.79-10.76h-12.16v21.666zm-16.87-26.678h18.86c10.17 0 16.95 6.191 16.95 15.772 0 8.769-6.19 15.991-17.61 15.991h-12.23v20.783h-5.97z" fill="#a3afb2"/>
   </g>
  </g>
  <g id="ah" transform="matrix(.051648 0 0 -.052158 521.39 832.63)">
   <g id="ai" transform="translate(-1693.7 13519)">
    <path id="aj" d="m0 0h5.37v7.443h0.15c2.95-5.895 8.48-8.033 13.27-8.033 0.96 0 1.91 0.074 2.72 0.222v5.158c-1.25-0.221-2.43-0.221-3.39-0.221-7 0-12.45 4.275-12.6 12.234v20.193h-5.52z" fill="#a3afb2"/>
   </g>
  </g>
  <g id="ak" transform="matrix(.051648 0 0 -.052158 521.39 832.63)">
   <g id="al" transform="translate(-1644 13534)">
    <path id="am" d="m0 0v-2.138c0-5.6-3.31-9.8-9.5-9.8-5.97 0-9.88 4.42-9.88 10.317v1.621zm-25.05 7.148v-7.811c0-10.171 6.92-15.845 15.84-15.845 8.18 0 14.67 4.938 14.67 14.518v5.822h-24.84v3.832c0 6.044 4.13 9.802 10.61 9.802 4.28 0 7.37-2.211 9.36-4.717l4.2 2.506c-3.31 5.159-8.62 6.928-13.93 6.928-9.06 0-15.91-4.865-15.91-15.035" fill="#a3afb2"/>
   </g>
  </g>
  <g id="an" transform="matrix(.051648 0 0 -.052158 521.39 832.63)">
   <g id="ao" transform="translate(-1632 13519)">
    <path id="ap" d="m0 0h5.31v6.412h0.15c2.58-4.791 7.15-7.223 12.23-7.223 5.75 0 9.07 3.317 10.47 7.371h0.07c2.65-4.717 7.3-7.371 12.68-7.371 7.15 0 11.86 4.496 11.86 11.718v26.089h-5.45v-23.51c0-6.263-2.8-9.507-8.04-9.507-5.52 0-9.94 4.57-10.09 10.613v22.404h-5.46v-23.656c-0.14-5.97-2.72-9.361-8.03-9.361-4.64 0-10.17 3.686-10.17 10.687v22.33h-5.53z" fill="#a3afb2"/>
   </g>
  </g>
  <g id="aq" transform="matrix(.051648 0 0 -.052158 521.39 832.63)">
   <path id="ar" d="m-1571 13519h5.45v36.996h-5.45zm0-15.55h5.45v8.033h-5.45z" fill="#a3afb2"/>
  </g>
  <g id="as" transform="matrix(.051648 0 0 -.052158 521.39 832.63)">
   <g id="at" transform="translate(-1557.5 13544)">
    <path id="au" d="m0 0v-25.573h5.53v23.51c0 6.558 3.16 9.432 8.1 9.432 5.53 0 10.39-4.2 10.39-11.201v-21.741h5.46v36.996h-5.31v-6.411h-0.15c-2.58 4.863-7.22 7.296-12.16 7.296-7.88 0-11.86-5.307-11.86-12.308" fill="#a3afb2"/>
   </g>
  </g>
  <g id="av" transform="matrix(.051648 0 0 -.052158 521.39 832.63)">
   <g id="aw" transform="translate(-1519.9 13519)">
    <path id="ax" d="m0 0h5.31v6.412h0.14c2.58-4.791 7.15-7.223 12.24-7.223 5.75 0 9.06 3.317 10.46 7.371h0.08c2.65-4.717 7.29-7.371 12.67-7.371 7.15 0 11.87 4.496 11.87 11.718v26.089h-5.46v-23.51c0-6.263-2.8-9.507-8.03-9.507-5.53 0-9.95 4.57-10.1 10.613v22.404h-5.45v-23.656c-0.15-5.97-2.73-9.361-8.03-9.361-4.65 0-10.17 3.686-10.17 10.687v22.33h-5.53z" fill="#a3afb2"/>
   </g>
  </g>
  <g id="ay" transform="matrix(.051648 0 0 -.052158 521.39 832.63)">
   <g id="az" transform="translate(-1451.4 13549)">
    <path id="ba" d="m0 0 16.39-19.097c3.29-3.877 5.63-7.243 5.63-11.413v-1.317c0-3.22-1.9-5.854-6.44-5.854-4.39 0-6.58 2.707-6.58 6.585v1.464h-10.32v-2.195c0-9.585 7.47-14.487 17.71-14.487 11.05 0 16.9 6.293 16.9 14.926 0 9.366-7.39 16.096-13.24 22.534l-5.86 6.44v0.145h19.47v9.074h-33.66z" fill="#a3afb2"/>
   </g>
  </g>
 </g>
</svg>
