<svg width="903.62pt" height="228.93pt" version="1.1" viewBox="0 0 903.62 228.93" xmlns="http://www.w3.org/2000/svg">
 <g transform="translate(-9.53,-9.45)">
  <path d="m866.22 9.45h46.93v224.78h-46.93v-20.485c-4.5522 5.682-9.3568 10.769-14.575 14.485-9.4154 6.6295-21.14 9.9961-32.655 9.5249-11.33 0.43-22.83-2.31-32.54-8.22-11.84-7.16-20.47-18.81-25.31-31.66-6.01-17.24-6.91-35.96-4.53-53.96 1.2858-8.074 2.98-14.944 5.57-21.79 3.6444-9.2224 9.1443-17.902 16.17-24.992 8.231-7.6693 11.943-11.189 24.46-15.368 13.95-4.03 29.34-4.68 43.1 0.4 8.78 3.2 15.62 10.17 20.31 18.07v-90.78m-42.45 107.32c-10.46 4.65-16.41 15.37-19.01 26.06-1.739 10.635-3.0204 21.851-0.36 32 1.96 9.88 7.41 19.77 16.8 24.26 7.4665 3.1686 16.416 4.0512 23.4 1.35 9.81-3.32 16.64-12.32 19.79-21.89 4.0995-12.883 3.4948-27.9 1.89-38.61-2.25-9.9-8.68-18.99-18.08-23.24-7.83-2.89-16.62-2.94-24.43 0.07z"/>
  <path d="m293.18 24.2c16.67-5.74 34.64-7.07 52.09-5.19 18.93 2.29 38.31 11.69 47.59 29.07 5.71 10.01 7.43 21.73 7.35 33.08 0 6.1708-2.7029 19.73-6.97 28.96-4.73 10.02-11.77 18.78-19.79 26.36-14.77 13.51-32.24 23.57-47.59 36.37-6.88 5.83-13.84 13.715-16.38 22.665h90.235v38.855h-141.2c0.11-7.87-0.27-15.77 0.23-23.63 0.92724-8.9937 3.5118-18.283 7.02-25.8 7.24-15.45 18.79-28.52 32.13-39.02 16.17-13.44 35.51-23.78 47.77-41.37 6.42-9.13 8.21-20.95 5.49-31.71-2.19-6.85-7.45-12.62-14.34-14.9-13.69-4.59-28.77-2.3-41.97 2.85-9.65 3.78-17.94 10.08-26.16 16.21v-40.95c7.65-4.91 15.86-8.97 24.49-11.85z"/>
  <path d="m80.595 36.49v46.18h71.635l32.23 121.29 32.23-121.29h48.99l-56.33 151.84h-53.46l-41.46-117.06h-33.835v61.725c0.45 7.01 1.495 14.99 7.355 19.72 7.9 5.84 18.8 3.8 26.8-0.77v34.99c-10.58 4.71-22.37 5.39-33.78 5.24-11.94-0.38-24.61-3.28-33.45-11.83-9.55-9.11-12.835-22.77-13.325-35.54v-73.535h-24.665l0.05-34.785h24.615v-32.74z"/>
  <path d="m586.4 36.44v46.03h34.12l-0.06 34.62h-34.06v62.61c0.17 7.15 1.83 15.36 8.15 19.66 6.41 4.17 14.58 3.36 21.42 0.74-1-12.27 0.13-25.4 7.08-35.92 5.66-8.96 15.02-14.84 24.78-18.46 11.37-3.98 23.42-5.17 35.31-6.52 8.71-1.43 17.52-2.33 26.25-3.71-0.65-5.82-1.21-12.15-5.36-16.69-4.04-5.25-10.74-7.06-16.97-8-12.66-0.89-25.39 1.56-37.2 6.07-6.74 2.67-13.205 6.07-19.255 10.06v-35.35c9.3034-4.5788 20.362-7.6178 29.465-9.49 8.2399-1.6827 17.406-2.9891 24.938-3.2658 8.7446-0.29179 17.512 0.42976 26.052 2.4358 11.91 2.7 23.34 9.07 30.55 19.13 7.95 10.79 10.73 24.39 11.53 37.52 0.21 32.14 0.24 64.28 0.21 96.42-14.86 0.06-29.795 0.01-44.655 0.03v-22.05c-5.71 9.51-13.975 17.8-24.415 21.95-7.68 3.18-16.11 4.13-24.35 3.87-10.32-0.53-20.9-3.31-28.93-10.09-4.18-3.7-8.235-7.92-10.475-13.1v18.06c-8.619 3.5885-18.067 4.9955-27.404 4.9908-5.8998 0-13.317-0.11361-19.074-1.265-6.6918-1.3715-13.094-4.0685-18.487-8.3059-12.581-11.751-15.795-22.67-15.795-35.28v-76.05h-24.415l-0.1-34.62h24.515v-32.7zm90.49 130.39c-5.8754 0.98049-12.76 4.8293-15.46 9.66-2.57 4.04-2.87 9.06-2.27 13.69 0.83 5.89 5.32 10.74 10.66 13.05 6.7898 2.0777 15.392 1.7333 21.12-0.41 8.42-3.51 14.63-11.26 16.97-19.99 1.67-6.66 1.41-13.58 1.41-20.38-10.81 1.48-21.66 2.69-32.43 4.38z"/>
  <path d="m437.85 84.05c18.34-6.25 38.24-6.43 57.19-3.17 5.52 0.92 11.86 2.38 17.33 3.57v36.56c-10.51-5.79-22.19-9.18-34.11-10.27-5.5665-0.33907-10.731-0.0876-15.72 1.2686-5.31 1.4632-10.287 4.175-11.94 9.8214-0.61 4.98 2.54 9.45 6.59 12.01 4.47 2.9 9.54 4.73 14.6 6.31 5.8 1.78 11.52 3.83 17.14 6.12 10.62 4.32 21.38 10.34 27.38 20.5 2.62 4.32 4.09 9.25 4.65 14.25 1.0857 8.83 0.30003 17.844-2.9903 25.472-4.8635 11.096-14.867 19.845-26.06 24.408-5.5203 2.3787-11.288 3.9828-17.163 5.0888-6.5246 1.2282-10.834 2.2212-19.787 2.2212-11.223 0-18.784-0.61429-26.794-1.8393-8.6168-1.5317-15.953-3.342-23.341-5.9907v-38.01c3.3147 1.7943 5.8095 3.3316 9.015 4.89 6.6063 3.2387 12.659 4.9868 19 6.93 10.95 2.46 22.47 2.91 33.37-0.02 3.11-1.33 6.46-2.72 8.44-5.62 3-4.09 2.46-10.38-1.56-13.62-6.02-5.15-13.86-7.31-21.26-9.65-9.27-2.87-18.35-6.49-26.79-11.32-8.12-4.75-15.03-12.06-17.86-21.17-3.24-10.65-3.18-22.47 0.89-32.9 5.34-12.62 17.09-21.43 29.78-25.84z"/>
 </g>
</svg>
