<svg id="dc" version="1.1" viewBox="0 0 725.32 725.32" xmlns="http://www.w3.org/2000/svg" xmlns:xlink="http://www.w3.org/1999/xlink">
 <defs id="dd">
  <clipPath id="br">
   <path id="de" d="m189.26 1028.3a7.0864 7.0864 0 0 0-7.0864-7.0864 7.0864 7.0864 0 0 0-7.0864 7.0864 7.0864 7.0864 0 0 0 7.0864 7.0863 7.0864 7.0864 0 0 0 7.0864-7.0863z" fill="#f4f3f4" style="paint-order:stroke fill markers"/>
  </clipPath>
  <filter id="bp" x="-.059997" y="-.060003" width="1.12" height="1.12" color-interpolation-filters="sRGB">
   <feGaussianBlur id="df" stdDeviation="0.35434793"/>
  </filter>
  <clipPath id="bs">
   <path id="dg" d="m181.55 1035.3c-0.375-0.032-0.742-0.094-1.099-0.183-1.263-0.316-2.393-0.971-3.286-1.864-0.072-0.072-0.143-0.147-0.213-0.222-0.184-0.202-0.357-0.413-0.518-0.636-0.089-0.12-0.172-0.256-0.252-0.383-0.692-1.094-1.093-2.391-1.093-3.782v-0.051c0.01-1.408 0.43-2.707 1.148-3.805 0.172-0.265 0.362-0.517 0.568-0.756 0.116-0.134 0.235-0.263 0.36-0.387 0.893-0.893 2.023-1.549 3.286-1.865 0.357-0.089 0.724-0.151 1.099-0.184 0.206-0.018 0.415-0.027 0.626-0.027 0.246 0 0.489 0.013 0.73 0.037 0.667 0.069 1.307 0.23 1.908 0.47 0.64 0.257 1.235 0.606 1.768 1.029 0.118 0.094 0.233 0.191 0.345 0.292 0.089 0.08 0.175 0.163 0.259 0.248 0.125 0.124 0.246 0.253 0.361 0.387 0.205 0.239 0.395 0.491 0.568 0.756 0.717 1.098 1.137 2.409 1.147 3.816v0.052c0 1.39-0.4 2.687-1.092 3.782-0.08 0.126-0.164 0.251-0.252 0.371-0.161 0.223-0.334 0.434-0.519 0.636-0.069 0.075-0.14 0.15-0.213 0.222-0.085 0.085-0.171 0.166-0.259 0.247-0.112 0.101-0.227 0.199-0.346 0.293-0.532 0.423-1.127 0.77-1.767 1.028-0.601 0.241-1.241 0.402-1.908 0.47-0.241 0.025-0.484 0.037-0.73 0.037-0.211 0-0.42-0.01-0.626-0.028"/>
  </clipPath>
 </defs>
 <clipPath id="cf">
  <path id="dh" width="100%" height="100%" d="m296 228.4c-0.1-0.1-0.3-0.1-0.4-0.2 0.1 0 0.3 0.1 0.4 0.2m-6.9-1.6s1 0.2 1.7 0.4c1.1-0.1 2.2-0.2 4.8 0.9-1.7-0.8-2.1-1-3-1.3 2.1-0.5 3.4-1.4 3.4-1.4-1.7 0.8-3 1.1-3.8 1.1 0.9-0.4 2.8-1.6 3.9-2.4-2.5 1.8-7 2.7-7 2.7m7-2.6c0.2-0.1 0.4-0.2 0.5-0.4-0.1 0.1-0.3 0.2-0.5 0.4"/>
 </clipPath>
 <linearGradient id="bu" x1="1269.8" x2="1293.1" y1="3471.4" y2="3471.4" gradientTransform="matrix(-.0020091 .049396 .049396 .0020091 123.96 156.6)" gradientUnits="userSpaceOnUse">
  <stop id="di" stop-color="#c6c4c7" offset="0"/>
  <stop id="dj" stop-color="#a5a6a9" offset=".3604"/>
  <stop id="dk" stop-color="#95979a" offset=".5179"/>
  <stop id="dl" stop-color="#c6c4c7" offset="1"/>
 </linearGradient>
 <clipPath id="bt">
  <path id="dm" width="100%" height="100%" d="m247.8 240.4 0.6 1.5s9.1-0.9 15.9-0.1c13.6 1.5 14.4 12.8 14.4 12.8-0.3-7.6-5-13.6-16.6-14.6-1.9-0.1-3.7-0.2-5.3-0.2-5.3 0-9 0.6-9 0.6"/>
 </clipPath>
 <linearGradient id="aw">
  <stop id="dn" stop-color="#3a383c" offset="0"/>
  <stop id="do" stop-color="#3a383c" offset=".1825"/>
  <stop id="dp" stop-color="#504f53" offset="1"/>
 </linearGradient>
 <linearGradient id="bq" x1="50.62" x2="73.943" y1="1124.5" y2="1124.5" gradientTransform="matrix(1.3229,0,0,-1.3229,180.83,1734.8)" gradientUnits="userSpaceOnUse" xlink:href="#aw"/>
 <clipPath id="av">
  <path id="dq" width="100%" height="100%" d="m113.8 137.4h330.5v330.5h-330.5z"/>
 </clipPath>
 <clipPath id="bo">
  <path id="dr" width="100%" height="100%" d="m259.3 192.9c-9.3 0-14.7 3.5-16.7 8.4-1.9 4.6-1.8 8.9-1.8 9.5l0.3 1.1-0.7-1h-0.6l1 1.9h0.6s0.1-4.2 0.9-6.8c1.3-4.9 4.3-8.1 9-9.7 4.2-1.3 12.2-2.1 17.9 0.3 5.8 2.5 7.4 7 7.5 9.1v-1.7c-0.3-5.6-5.4-11-16.7-11.2-0.2 0.1-0.5 0.1-0.7 0.1"/>
 </clipPath>
 <linearGradient id="bn" x1="37.434" x2="60.749" y1="1162.2" y2="1162.2" gradientTransform="matrix(1.5844,0,0,-1.5844,180.49,2044.3)" gradientUnits="userSpaceOnUse">
  <stop id="ds" stop-color="#3a383c" offset="0"/>
  <stop id="dt" stop-color="#3a383c" offset=".6008"/>
  <stop id="du" stop-color="#504f53" offset="1"/>
 </linearGradient>
 <clipPath id="bm">
  <path id="dv" width="100%" height="100%" d="m240.9 208.9-0.4 1.9h-30.2l0.3 2h30.9v-2z"/>
 </clipPath>
 <linearGradient id="bl" x1="23.175" x2="46.497" y1="1151.3" y2="1151.3" gradientTransform="matrix(1.3399,0,0,-1.3399,179.22,1753.5)" gradientUnits="userSpaceOnUse">
  <stop id="dw" stop-color="#504f53" offset="0"/>
  <stop id="dx" stop-color="#3a383c" offset=".7067"/>
  <stop id="dy" stop-color="#3a383c" offset="1"/>
 </linearGradient>
 <clipPath id="bk">
  <path id="dz" width="100%" height="100%" d="m299.6 222.7c-3.7 3.6-7.1 4.1-7.1 4.1s0.9 0.4 2.3 0.9c7.1-3.5 10.6-10.9 12-17.4-1.4 5.4-4.8 10.1-7.2 12.4"/>
 </clipPath>
 <linearGradient id="bj" x1="-43.245" x2="-19.925" y1="968.64" y2="968.64" gradientTransform="matrix(.1921 -.5529 -.5529 -.1921 841.27 387.67)" gradientUnits="userSpaceOnUse" xlink:href="#aw"/>
 <clipPath id="ar">
  <path id="ea" width="100%" height="100%" d="m113.8 137.4h330.5v330.5h-330.5z"/>
 </clipPath>
 <clipPath id="bi">
  <path id="eb" width="100%" height="100%" d="m273.3 342c-1.5-1.6-2.2-3.6-2.2-6.2 0-3.5 1.3-6.6 3.8-9.2 2.1-2.1 4.5-3.1 7.3-3.1 2.7 0 4.7 0.8 6.2 2.4s2.2 3.6 2.2 6.2c0 1.7-0.3 3.3-1 4.9-0.7 1.7-1.6 3.1-2.8 4.2-2.1 2.1-4.5 3.1-7.3 3.1-2.7 0.1-4.7-0.7-6.2-2.3m-6.4-21.3c-2.1 2.1-3.8 4.6-4.9 7.4-1.2 2.8-1.7 5.6-1.7 8.6 0 4.9 1.7 9 5.1 12.3s7.8 4.9 13.2 4.9c6.2 0 11.6-2.2 16.1-6.6 2.1-2.1 3.8-4.6 4.9-7.4 1.2-2.8 1.8-5.7 1.8-8.6 0-5-1.7-9-5.1-12.3-3.4-3.2-7.8-5.2-13.2-5.2-6.4 0-11.7 2.5-16.2 6.9"/>
 </clipPath>
 <linearGradient id="aq">
  <stop id="ec" stop-color="#8b1722" offset="0"/>
  <stop id="ed" stop-color="#9b1b25" offset=".1532"/>
  <stop id="ee" stop-color="#c5262d" offset=".4519"/>
  <stop id="ef" stop-color="#ee3135" offset=".7067"/>
  <stop id="eg" stop-color="#ee3135" offset="1"/>
 </linearGradient>
 <linearGradient id="bh" x1="-95.306" x2="-71.985" y1="1108.3" y2="1108.3" gradientTransform="matrix(.4144 -1.621 -1.621 -.4144 2111.9 657.73)" gradientUnits="userSpaceOnUse" xlink:href="#aq"/>
 <clipPath id="as">
  <path id="eh" width="100%" height="100%" d="m113.8 137.4h330.5v330.5h-330.5z"/>
 </clipPath>
 <clipPath id="bg">
  <path id="ei" width="100%" height="100%" d="m318.8 324h5.8c2.2 0 3.8 0.4 4.7 1.4 0.7 0.7 1 1.5 1 2.5 0 1.3-0.5 2.1-1.4 3-1.4 1.4-3.6 2.1-6.6 2.1h-6.1zm-8.2-9.7-10.6 38.6h11l3.1-11.7h4.7l5.1 11.7h11.8l-6-13c3.4-1 6-2.4 8-4.3 2.4-2.4 3.6-5.5 3.6-9.3 0-3.3-1-5.9-3-7.9-2.6-2.7-6.8-4.2-12.9-4.2h-14.8z"/>
 </clipPath>
 <linearGradient id="bf" x1="-84.427" x2="-61.107" y1="1091.2" y2="1091.2" gradientTransform="matrix(.4553 -1.7088 -1.7088 -.4553 2218.3 706.58)" gradientUnits="userSpaceOnUse" xlink:href="#aq"/>
 <clipPath id="be">
  <path id="ej" width="100%" height="100%" d="m113.8 137.4h330.5v330.5h-330.5z"/>
 </clipPath>
 <clipPath id="bd">
  <path id="ek" width="100%" height="100%" d="m239 323.7h4c2.1 0 3.6 0.5 4.5 1.4 0.7 0.7 1 1.8 1 2.5 0.1 1.5-0.4 2.7-1.4 3.8-1.5 1.4-3.8 2.4-6.7 2.4h-4.1zm-8.5-9.2-10.4 38.4h10.9l3-11.1h6.4c6.5 0 11.5-1.7 14.9-5.2 2.8-2.7 4.1-6.2 4.1-10.3 0-3.2-1-5.8-3-7.8-2.7-2.7-7-4.1-13.2-4.1h-12.7z"/>
 </clipPath>
 <linearGradient id="bc" x1="-100.54" x2="-77.215" y1="1130" y2="1130" gradientTransform="matrix(.4377 -1.6202 -1.6202 -.4377 2109.3 685.63)" gradientUnits="userSpaceOnUse" xlink:href="#aq"/>
 <clipPath id="bb">
  <path id="el" width="100%" height="100%" d="m194.6 318.5c-2.3 2.3-3.8 5.1-3.8 8.4 0 2.6 0.8 4.7 2.4 6.3 1.6 1.5 4.1 3 7.5 4.3 2.7 1 4.4 1.8 5.2 2.4s1.5 1.2 1.5 2c0 0.9-0.4 1.6-1.2 2.1s-1.8 0.8-3.1 0.8c-4.1 0-8.3-1.5-12.1-5l-6.6 6.8c4.4 4.7 10.3 7 17.8 7 5.4 0 9.7-1.5 12.8-4.6 2.4-2.4 3.6-5.3 3.6-8.7 0-2.7-0.8-4.5-2.5-6.2-1.7-1.6-4.2-3-7.5-4.3-2.8-1.1-4.5-1.9-5.3-2.3-0.8-0.5-1.1-1.1-1.1-1.9s0.4-1.5 1.2-2 1.7-0.7 3-0.7c3.5 0 6.9 1.4 10.1 4.2l6.6-7.6c-4-3.8-9.2-6-15.7-6-5.4 0.1-9.7 1.9-12.8 5"/>
 </clipPath>
 <linearGradient id="ba" x1="-94.208" x2="-70.887" y1="1143.6" y2="1143.6" gradientTransform="matrix(.6506 -1.6784 -1.6784 -.6506 2176.9 939.03)" gradientUnits="userSpaceOnUse" xlink:href="#aq"/>
 <clipPath id="az">
  <path id="em" width="100%" height="100%" d="m193.9 318.3c-2.4 2.4-3.7 5.1-3.7 8.4 0 2.7 0.9 5.3 2.6 6.9s3.6 3.1 7.2 4.5c2.8 1 4.1 1.7 5.1 2 1.6 0.6 2.3 2.4 0.8 3.3-0.9 0.5-1.7 0.7-3.1 0.7-4.3 0-7.6-2-11.6-5.5l-7.5 8.1c4.6 4.8 10.7 7.9 18.5 7.7 6.9-0.1 10.8-2.1 14-5.3 2.5-2.4 3.3-5.4 3.3-8.8 0-2.7-1.2-4.9-2.8-6.5s-4.4-3.7-7.9-4.7c-2.8-0.8-4.1-1.4-4.9-1.9s-1.4-1.4-1.2-2.2c0.4-1.4 2.3-1.7 3.6-1.6 4.4 0.2 6.7 1.8 10.1 4.6l7.4-8.3c-4.2-3.9-9.6-6.4-16.4-6.4-5.5 0.1-10.2 1.9-13.5 5"/>
 </clipPath>
 <linearGradient id="ap">
  <stop id="en" stop-color="#721617" offset="0"/>
  <stop id="eo" stop-color="#971b1e" offset=".3226"/>
  <stop id="ep" stop-color="#bf2126" offset=".7067"/>
  <stop id="eq" stop-color="#bf2126" offset="1"/>
 </linearGradient>
 <linearGradient id="db" x1="-99.077" x2="-75.756" y1="1148.3" y2="1148.3" gradientTransform="matrix(.5288 -1.6868 -1.6868 -.5288 2187 793.99)" gradientUnits="userSpaceOnUse" xlink:href="#ap"/>
 <clipPath id="da">
  <path id="er" width="100%" height="100%" d="m113.8 137.4h330.5v330.5h-330.5z"/>
 </clipPath>
 <clipPath id="cz">
  <path id="es" width="100%" height="100%" d="m365.9 324.1h11.5l3-10.1h-33.9l-2.7 10.1h11.4l-7.5 28.8h10.7z"/>
 </clipPath>
 <linearGradient id="cy" x1="-77.822" x2="-54.501" y1="1064.3" y2="1064.3" gradientTransform="matrix(.4846 -1.6513 -1.6513 -.4846 2151.2 741.36)" gradientUnits="userSpaceOnUse" xlink:href="#aq"/>
 <clipPath id="cx">
  <path id="et" width="100%" height="100%" d="m366.7 324.4h11.4l2.8-10.4h-34.8l-3 10.6h11.4l-7.7 29.1h11.9z"/>
 </clipPath>
 <linearGradient id="cw" x1="-75.964" x2="-52.644" y1="1068.8" y2="1068.8" gradientTransform="matrix(.4964 -1.7104 -1.7104 -.4964 2221.7 755.44)" gradientUnits="userSpaceOnUse" xlink:href="#ap"/>
 <clipPath id="cv">
  <path id="eu" width="100%" height="100%" d="m319.2 324.4h5.3c2 0 3.4 0.4 4.2 1.2 0.7 0.6 1 1.4 1 2.3 0 1.2-0.4 1.9-1.3 2.7-1.3 1.3-3.2 1.9-6 1.9h-5.5zm-9-10.4-10.8 39.7h12.1l3.1-11.4h3.8l5 11.4h13.2l-6-13c3.5-1 5.3-2.4 7.4-4.3 2.8-2.5 3.9-6.2 3.9-10.1 0-3.4-1.3-6-3.2-8.1-2.5-2.7-7.7-4.2-13.3-4.2z"/>
 </clipPath>
 <linearGradient id="cu" x1="-81.244" x2="-57.924" y1="1093.6" y2="1093.6" gradientTransform="matrix(.4797 -1.7573 -1.7573 -.4797 2276 735.59)" gradientUnits="userSpaceOnUse" xlink:href="#ap"/>
 <clipPath id="ct">
  <path id="ev" width="100%" height="100%" d="m273.7 341.5c-1.4-1.5-2.1-3.4-2.1-5.8 0-3.4 1.2-6.2 3.6-8.7 1.9-1.9 4.2-2.9 6.8-2.9 2.5 0 4.5 0.7 5.9 2.2s2.1 3.4 2.1 5.8c0 1.6-0.3 3.1-1 4.7-0.6 1.5-1.5 2.9-2.6 4-1.9 2-4.2 3-6.9 3-2.4 0-4.4-0.8-5.8-2.3m-7-21.1c-2.1 2.1-3.8 4.7-5 7.5s-1.8 5.8-1.8 8.8c0 5.1 1.7 9.3 5.2 12.6s8 5 13.5 5c6.4 0 11.8-2.3 16.4-6.8 2.1-2.2 3.8-4.7 5-7.6 1.2-2.8 1.8-5.8 1.8-8.8 0-5.1-1.7-9.2-5.2-12.5s-8-5-13.5-5c-6.4 0-11.9 2.3-16.4 6.8"/>
 </clipPath>
 <linearGradient id="cs" x1="-83.724" x2="-60.404" y1="1108.5" y2="1108.5" gradientTransform="matrix(.5677 -1.705 -1.705 -.5677 2211.9 840.34)" gradientUnits="userSpaceOnUse" xlink:href="#ap"/>
 <clipPath id="cr">
  <path id="ew" width="100%" height="100%" d="m239.4 324.3h3.6c1.9 0 3.1 0.4 3.9 1.3 0.7 0.7 0.9 1.5 0.9 2.2 0.1 1.3-0.4 2.4-1.3 3.4-1.4 1.3-3.2 1.9-5.9 1.9h-3.6zm-9.2-10.2-10.7 39.5h12.1l3.1-11.1h5.5c7.6-0.2 12.1-2.1 15.7-5.6 2.8-2.8 4-6.3 4-10.6 0-3.3-1-5.9-3.1-8-2.8-2.8-7.3-4.2-13.6-4.2z"/>
 </clipPath>
 <linearGradient id="cq" x1="-95.858" x2="-72.538" y1="1132.2" y2="1132.2" gradientTransform="matrix(.4727 -1.6957 -1.6957 -.4727 2199.1 727.3)" gradientUnits="userSpaceOnUse" xlink:href="#ap"/>
 <clipPath id="ay">
  <path id="ex" width="100%" height="100%" d="m113.8 137.4h330.5v330.5h-330.5z"/>
 </clipPath>
 <clipPath id="cp">
  <path id="ey" width="100%" height="100%" d="m113.8 137.4h330.5v330.5h-330.5z"/>
 </clipPath>
 <clipPath id="ax">
  <path id="ez" width="100%" height="100%" d="m113.8 137.4h330.5v330.5h-330.5z"/>
 </clipPath>
 <clipPath id="co">
  <path id="fa" width="100%" height="100%" d="m297.3 181.3c3.8 0 7.8 0.6 11.3 1.5 52.6 13.7 90 61.1 89.8 115.8-0.2 65.2-53.3 119-119.3 119s-119-53-119-119c0-42.3 21.7-79.5 54.9-100.8-1.7-0.7-4.3 0.3-6.2 1.6-30.8 21.5-51 58-51 98.7 0 67 54.4 121.3 121.5 121.3s121.5-54.3 121.5-121.3c0-60.1-43.7-109.9-101.1-119.6z"/>
 </clipPath>
 <linearGradient id="cn" x1="-7.9692" x2="15.351" y1="1174.4" y2="1174.4" gradientTransform="matrix(9.2746,-4.1685,-4.1685,-9.2746,5140.4,11206)" gradientUnits="userSpaceOnUse">
  <stop id="fb" stop-color="#b1b1b3" offset="0"/>
  <stop id="fc" stop-color="#b1b1b3" offset=".072826"/>
  <stop id="fd" stop-color="#979798" offset=".5593"/>
  <stop id="fe" stop-color="#838384" offset="1"/>
 </linearGradient>
 <clipPath id="cm">
  <path id="ff" width="100%" height="100%" d="m180 223.6s0.3 2.5 1.7 0.2c3.4-4.8 6.5-9.8 9.6-13.2-3.5 3.3-9.7 10.8-11.3 13"/>
 </clipPath>
 <linearGradient id="cl" x1="63.982" x2="87.302" y1="1250.3" y2="1250.3" gradientTransform="matrix(-.3335 .5387 .5387 .3335 -463.1 -238.71)" gradientUnits="userSpaceOnUse">
  <stop id="fg" stop-color="#e6e5e6" offset="0"/>
  <stop id="fh" stop-color="#d4d3d4" offset=".1295"/>
  <stop id="fi" stop-color="#a09fa0" offset=".5311"/>
  <stop id="fj" stop-color="#7f7f7f" offset=".8336"/>
  <stop id="fk" stop-color="#737373" offset="1"/>
 </linearGradient>
 <clipPath id="ck">
  <path id="fl" width="100%" height="100%" d="m358.9 355.5c-0.2 0.2-0.3 0.5-0.4 0.8-1.2 2.3-8.9 13.4-12.1 15.4-3.9 2.3-6.8 6.5-10.8 9.9 0 0 6.1-4.6 7.2-5.7 1-1 5.2-4.5 6.7-6.2 1.6-1.7 8.3-8.9 10.7-13.1 2.7-4.3 6.4-11 10.1-21.5-1 2.8-10.4 18.9-11.4 20.4m11.4-20.5"/>
 </clipPath>
 <linearGradient id="cj" x1="-37.723" x2="-14.402" y1="1090.4" y2="1090.4" gradientTransform="matrix(1.3848,-2.0434,-2.0434,-1.3848,2617.5,1814.4)" gradientUnits="userSpaceOnUse">
  <stop id="fm" stop-color="#1f2021" offset="0"/>
  <stop id="fn" stop-color="#1f2021" offset=".072826"/>
  <stop id="fo" stop-color="#171718" offset=".7067"/>
  <stop id="fp" stop-color="#171718" offset="1"/>
 </linearGradient>
 <clipPath id="ci">
  <path id="fq" width="100%" height="100%" d="m113.8 137.4h330.5v330.5h-330.5z"/>
 </clipPath>
 <clipPath id="ao">
  <path id="fr" width="100%" height="100%" d="m113.8 137.4h330.5v330.5h-330.5z"/>
 </clipPath>
 <clipPath id="ch">
  <path id="fs" width="100%" height="100%" d="m275.6 198.3c-50.7 1.5-90.2 39.6-96.8 84.3 8.9-46.7 50.4-82.1 98.7-82.1 8.9 0 17.5 1.1 25.7 3.3v-3c-7.1-1.9-15.9-2.6-23.9-2.6-1.2 0.1-2.5 0.1-3.7 0.1"/>
 </clipPath>
 <linearGradient id="cg" x1="-12.57" x2="10.751" y1="1166.5" y2="1166.5" gradientTransform="matrix(3.3667,-2.5379,-2.5379,-3.3667,3199.9,4168.8)" gradientUnits="userSpaceOnUse">
  <stop id="ft" stop-color="#4b4b4c" offset="0"/>
  <stop id="fu" stop-color="#4b4b4c" offset=".2849"/>
  <stop id="fv" stop-color="#2e2d2e" offset=".5866"/>
  <stop id="fw" stop-color="#2e2d2e" offset="1"/>
 </linearGradient>
 <clipPath id="au">
  <path id="fx" width="100%" height="100%" d="m113.8 137.4h330.5v330.5h-330.5z"/>
 </clipPath>
 <clipPath id="ce">
  <path id="fy" width="100%" height="100%" d="m286.3 303.9c-0.3 0.7-2.1 4.4-1 10.2 0.6 3.1-0.4 5.9-0.4 9.1-0.1 5.9 1.9 16.7 1.9 18.7s-1.2 13.4-1.2 13.4-0.6 0.9-1.6 0.8-1.4 5.6-1.4 5.6-4.6 0.4-5.1 0.2c-0.6-0.2 1.7 2 1.3 3.8-0.1 0.9-1 0.4-2.4 0.4-0.6 0 0.6 1.5 0.6 7.4 0 1.9 0.5 8 0.5 8s-1-0.8-1-0.5c0.9 10.3-0.8 21-0.5 21.2 2 1.6 2.9 1.1 8.9 1.1 5.9 0 14.7-1.9 17.7-2.5 12.6-2.8 27-9.7 33.4-14.6 6.4-5 14.5-11.7 19.1-17.4 5.6-6.8 8.3-9.6 14.9-21.8 5.2-9.6 8.9-24.7 8.9-24.7-1.5-1.8-30.1-17.4-33.3-19.6-1-0.7-6.9-1-14.7-1-17.5 0-44.3 1.4-44.6 2.2"/>
 </clipPath>
 <linearGradient id="cd" x1="-46.918" x2="-23.598" y1="1154.6" y2="1154.6" gradientTransform="matrix(.6802 -4.6458 -4.6458 -.6802 5714.9 976.67)" gradientUnits="userSpaceOnUse">
  <stop id="fz" stop-color="#353437" offset="0"/>
  <stop id="ga" stop-color="#353437" offset=".072826"/>
  <stop id="gb" stop-color="#272628" offset=".4171"/>
  <stop id="gc" stop-color="#171718" offset=".7067"/>
  <stop id="gd" stop-color="#171718" offset="1"/>
 </linearGradient>
 <clipPath id="cc">
  <path id="ge" width="100%" height="100%" d="m113.8 137.4h330.5v330.5h-330.5z"/>
 </clipPath>
 <clipPath id="cb">
  <path id="gf" width="100%" height="100%" d="m113.8 137.4h330.5v330.5h-330.5z"/>
 </clipPath>
 <clipPath id="at">
  <path id="gg" width="100%" height="100%" d="m113.8 137.4h330.5v330.5h-330.5z"/>
 </clipPath>
 <clipPath id="ca">
  <path id="gh" width="100%" height="100%" d="m113.8 137.4h330.5v330.5h-330.5z"/>
 </clipPath>
 <clipPath id="bz">
  <path id="gi" width="100%" height="100%" d="m243.5 218.8c-8.7 6.6-26.7 23.8-35 38.3-20.1 35.2-1 106.9 2.2 113.1 3.3 6.2 23.2 19.5 43.8 26.6 20.6 7 37.4 2.4 44.2 2s4-48.6 3.9-62.8 13.7-82.8 12.1-94.8-9.1-26.5-25.9-32.6c-3.7-1.3-7.6-1.9-11.4-1.9-13.5-0.1-27.1 6.9-33.9 12.1"/>
 </clipPath>
 <linearGradient id="by" x1="-31.427" x2="-8.1065" y1="1180.7" y2="1180.7" gradientTransform="matrix(.2019 -7.5881 -7.5881 -.2019 9215.1 407.16)" gradientUnits="userSpaceOnUse">
  <stop id="gj" stop-color="#858686" offset="0"/>
  <stop id="gk" stop-color="#858686" offset=".072826"/>
  <stop id="gl" stop-color="#676868" offset=".3269"/>
  <stop id="gm" stop-color="#1b1a1b" offset="1"/>
 </linearGradient>
 <clipPath id="bx">
  <path id="gn" width="100%" height="100%" d="m113.8 137.4h330.5v330.5h-330.5z"/>
 </clipPath>
 <clipPath id="bw">
  <path id="go" width="100%" height="100%" d="m199 216.3c23-20.3 53.3-26.7 80-25 11.6 0.7 21.7 2.3 32.1 6.3 3.2 1.2 3.9 1.3 6.8 3 1.4 0.9 5.8 2.5 7.5 3.6 1.6 1.1 3 2.2 4.9 2.9s2 2.1 4.6 3.1c1.6 0.7 2.7 2.7 5.2 3.9 1.7 0.9 2.1 2.1 4.4 3.5 1.4 0.9 2.3 2.1 3.5 3.3l2.7 2.4 3.4 3.4c17.4 19.2 29.1 44.1 29.1 72.5 0 43.7-25.4 81.2-61.8 97.9-7.6 3.5-22.9 11.1-50.7 10.9-29.9-0.2-53.9-15.6-53.9-15.6-12-6.6-20.8-16.3-20.8-16.3s1.7 2.1 6.3 6.8c-8.9-7.4-12.8-12.5-12.8-12.5 11.9 21 49.3 45.1 89.8 45.1 65.6 0 117.5-53.8 117.5-117.1 0-65.8-53-117.3-117.8-117.3-32.2 0.2-70.8 20.8-80 35.2"/>
 </clipPath>
 <radialGradient id="bv" cx="20.871" cy="1164.1" r="23.32" gradientTransform="matrix(5.1175,0,0,-5.3697,182.62,6555.3)" gradientUnits="userSpaceOnUse">
  <stop id="gp" stop-color="#464647" offset="0"/>
  <stop id="gq" stop-color="#464647" offset=".7857"/>
  <stop id="gr" stop-color="#4f4f50" offset=".8113"/>
  <stop id="gs" stop-color="#686869" offset=".8535"/>
  <stop id="gt" stop-color="#909091" offset=".9069"/>
  <stop id="gu" stop-color="#c7c7c8" offset=".9688"/>
  <stop id="gv" stop-color="#e6e5e6" offset="1"/>
 </radialGradient>
 <clipPath id="gw">
  <path id="gx" d="m677.49 407.17a271.83 272 0 0 0-271.83-272 271.83 272 0 0 0-271.83 272 271.83 272 0 0 0 271.83 272 271.83 272 0 0 0 271.83-272z"/>
 </clipPath>
 <filter id="gy" x="-.060019" y="-.059981" width="1.12" height="1.12" color-interpolation-filters="sRGB">
  <feGaussianBlur id="gz" stdDeviation="13.595726"/>
 </filter>
 <clipPath id="ha">
  <path id="hb" d="m381.48 678.12c-14.405-1.26-28.488-3.642-42.163-7.06-48.516-12.126-91.872-37.283-126.13-71.534-2.786-2.786-5.511-5.63-8.174-8.533-7.093-7.73-13.744-15.873-19.913-24.387-3.374-4.653-6.26-9.63-9.338-14.5-26.556-42.003-41.927-91.782-41.927-145.15 0-0.653 2e-3 -1.305 6e-3 -1.955 0.381-54.028 16.171-104.1 43.691-146.28 6.631-10.162 13.923-19.854 21.816-29.014 4.423-5.135 9.036-10.101 13.825-14.891 34.262-34.258 77.621-59.418 126.14-71.547 13.675-3.419 27.759-5.802 42.166-7.061 7.911-0.693 15.921-1.046 24.013-1.046 9.458 0 18.802 0.483 28.012 1.426 25.631 2.621 50.208 8.803 73.229 18.04 24.605 9.873 47.432 23.237 67.868 39.482 4.537 3.606 8.958 7.355 13.255 11.24 3.397 3.071 6.716 6.228 9.955 9.466 4.789 4.79 9.402 9.756 13.825 14.891 7.893 9.16 15.185 18.852 21.816 29.014 27.52 42.174 43.651 92.458 44.032 146.49 5e-3 0.651 7e-3 1.303 7e-3 1.955 0 53.37-15.371 103.15-41.926 145.15-3.079 4.869-6.308 9.634-9.681 14.287-6.17 8.514-12.82 16.657-19.913 24.387-2.663 2.903-5.389 5.747-8.174 8.533-3.238 3.237-6.558 6.392-9.955 9.464-4.295 3.884-8.715 7.632-13.254 11.238-20.435 16.241-43.261 29.603-67.863 39.474-23.019 9.236-47.594 15.416-73.223 18.038-9.209 0.942-18.553 1.426-28.01 1.426-8.091 0-16.099-0.354-24.01-1.046"/>
 </clipPath>
 <g id="hc" transform="matrix(51.177 0 0 -51.177 -5905.7 54393)">
  <path id="hd" transform="scale(1,-1)" d="m129.57-1055.8a7.0864 7.0864 0 0 1-7.0864 7.0864 7.0864 7.0864 0 0 1-7.0864-7.0864 7.0864 7.0864 0 0 1 7.0864-7.0863 7.0864 7.0864 0 0 1 7.0864 7.0863z" fill="#f4f3f4" style="paint-order:stroke fill markers"/>
  <g id="he" transform="translate(-59.689 27.466)" clip-path="url(#br)" filter="url(#bp)">
   <g id="hf" clip-path="url(#bs)">
    <g id="hg">
     <g id="hh" transform="scale(.1148 -.1148)">
      <g id="hi">
       <path id="hj" d="m1543.2-8913.3c-0.5982-0.5978-1.1841-1.2081-1.7573-1.8302 3.0719 2.1032 7.0881 4.1291 11.612 6.0902 1.5726 1.4454 2.0548 5.0203 3.2446 5.7421-4.8082-2.7434-9.212-6.1146-13.1-10.002z" fill="#f6f5f7"/>
       <path id="hk" d="m1556.3-8903.3c-1.1898-0.7218-1.672-4.2967-3.2446-5.7421 2.262 0.9805 4.6511 1.9447 7.1126 2.8943 2.2598 2.0116 2.0374 5.671 3.6339 6.4781-2.5924-1.0439-5.0977-2.2586-7.5019-3.6303z" fill="#d8d6d7"/>
       <path id="hl" d="m1563.8-8899.6c-1.5965-0.8071-1.3741-4.4665-3.6339-6.4781 2.4615 0.9496 4.9955 1.8846 7.5473 2.8064 2.5722 2.2689 2.3302 5.4308 4.1115 6.2766-2.7528-0.6881-5.4325-1.561-8.0249-2.6049z" fill="#c8c5c8"/>
       <path id="hm" d="m1541.4-8915.1c-0.4686-0.5085-0.9287-1.0249-1.3802-1.5488 2.0616 0.6644 5.4174 1.6104 9.3658 2.9516 1.1143 1.1594 2.5067 3.6515 3.6267 4.6874-4.5242-1.9611-8.5404-3.987-11.612-6.0902z" fill="#f6f5f7"/>
       <path id="hn" d="m1553-8909c-1.12-1.0359-2.5124-3.528-3.6267-4.6874 1.9742 0.6707 4.0965 1.4401 6.2793 2.3226 1.5699 1.5962 2.8923 3.8609 4.46 5.2591-2.4615-0.9496-4.8506-1.9138-7.1126-2.8943z" fill="#e3e1e2"/>
       <path id="ho" d="m1560.1-8906.1c-1.5677-1.3982-2.8901-3.6629-4.46-5.2591 2.1827 0.8825 4.4258 1.878 6.6416 3.0008 1.7771 1.7947 3.5945 3.5017 5.3657 5.0647-2.5518-0.9218-5.0858-1.8568-7.5473-2.8064z" fill="#d9d7d9"/>
       <path id="hp" d="m1540-8916.6c2.0616 0.6644 5.4174 1.6104 9.3658 2.9516-2.2143-2.3039-4.584-6.169-6.517-10.003-2.7805 0.1061-4.8003 1.5224-5.4316 3.8441 0.8258 1.0979 1.6873 2.1676 2.5828 3.2071z" fill="#f6f5f7"/>
       <path id="hq" d="m1537.4-8919.9c0.6313-2.3217 2.6511-3.738 5.4316-3.8441-1.933-3.8336-3.429-7.6359-3.8959-9.8142-2.8158 1.374-4.7029 4.9731-3.904 10.281 0.7526 1.1532 1.5425 2.2794 2.3683 3.3775z" fill="#f6f5f7"/>
       <path id="hr" d="m1549.4-8913.7c-2.2143-2.3039-4.584-6.169-6.517-10.003 1.3902-0.053 2.9706 0.2216 4.6627 0.8743 2.15 4.1027 5.0127 8.2779 8.1336 11.451-2.1828-0.8825-4.3051-1.6519-6.2793-2.3226z" fill="#eae8e9"/>
       <path id="hs" d="m1555.7-8911.4c-3.1209-3.1732-5.9836-7.3484-8.1336-11.451 1.6921 0.6526 3.4958 1.6835 5.3327 3.143 2.5358 3.8247 5.9095 7.7407 9.4425 11.309-2.2158-1.1228-4.4589-2.1183-6.6416-3.0008z" fill="#e5e2e4"/>
       <path id="ht" d="m1542.9-8923.7c2.7805-0.106 6.3216 1.0982 9.9954 4.0173-2.5358-3.8247-4.2336-7.5583-4.4149-10.762-2.9161-3.5927-6.6606-4.4437-9.4764-3.0696 0.4669 2.1783 1.9629 5.9806 3.8959 9.8142z" fill="#f3f2f3"/>
       <path id="hu" d="m1571.8-8897c-1.7813-0.8458-1.5393-4.0077-4.1115-6.2766 1.8983 0.7772 3.9418 1.3416 6.1032 1.8409 1.8097 1.9083 1.24 4.7543 2.7306 5.4205-1.5957-0.268-3.1705-0.5971-4.7223-0.9848z" fill="#b8b6b8"/>
       <path id="hv" d="m1576.5-8896c-1.4906-0.6662-0.9209-3.5122-2.7306-5.4205 1.0807 0.2496 2.1908 0.483 3.3269 0.7185 1.2856 1.6604 0.5219 4.515 1.8124 5.0577-0.8079-0.1031-1.6109-0.2218-2.4087-0.3557z" fill="#acabaf"/>
       <path id="hw" d="m1578.9-8895.7c-1.2905-0.5427-0.5268-3.3973-1.8124-5.0577 1.1362 0.2355 2.2983 0.4732 3.4831 0.7316 1.0473 1.5476-0.4321 4.1015 0.7675 4.5881-0.8175-0.072-1.6303-0.159-2.4382-0.262z" fill="#a7a7aa"/>
       <path id="hx" d="m1567.7-8903.3c-0.2447-0.2159-0.4904-0.4348-0.7367-0.6561 1.9206 0.8185 4.0005 1.4068 6.209 1.9294 0.2183 0.1831 0.4494 0.3722 0.6309 0.5676-2.1614-0.4993-4.2049-1.0637-6.1032-1.8409z" fill="#cdcacc"/>
       <path id="hy" d="m1573.8-8901.5c-0.1815-0.1954-0.4126-0.3845-0.6309-0.5676 1.1043 0.2614 2.2407 0.5064 3.4056 0.7555 0.1991 0.1567 0.4142 0.3493 0.5522 0.5306-1.1361-0.2355-2.2462-0.4689-3.3269-0.7185z" fill="#bdbbbf"/>
       <path id="hz" d="m1577.1-8900.8c-0.138-0.1813-0.3531-0.3739-0.5522-0.5306 1.1649 0.2492 2.3582 0.5025 3.5761 0.7805 0.1903 0.1448 0.3408 0.3068 0.4592 0.4817-1.1848-0.2584-2.3469-0.4961-3.4831-0.7316z" fill="#b4b3b7"/>
       <path id="ia" d="m1566.9-8904c0.9603 0.4092 1.9604 0.7609 2.9965 1.0756-2.0594-1.8159-4.2118-3.804-6.2875-5.8815-1.1527-0.4843-2.2224-0.9858-3.1734-1.5044 2.1029 2.2366 4.3086 4.373 6.4644 6.3103z" fill="#ceccce"/>
       <path id="ib" d="m1560.5-8910.3c0.951 0.5186 2.0207 1.0201 3.1734 1.5044-2.0758-2.0775-4.0749-4.2445-5.8276-6.4182-1.1875-0.5877-2.2625-1.2388-3.1929-1.9981 1.7443 2.3383 3.7443 4.6752 5.8471 6.9119z" fill="#dfdddf"/>
       <path id="ic" d="m1569.9-8902.9c-4.1187-3.6318-8.6097-7.9522-12.115-12.3 1.1875 0.5877 2.4874 1.1121 3.8674 1.6182 3.4308 4.2556 7.7657 8.4376 11.46 11.535-1.1043-0.2613-2.1764-0.5391-3.2125-0.8538z" fill="#c8c6c8"/>
       <path id="id" d="m1554.6-8917.2c0.9304 0.7593 2.0054 1.4104 3.1929 1.9981-1.7526-2.1737-3.2589-4.3542-4.3489-6.4587-1.189-0.6721-2.2471-1.46-3.1569-2.46 1.0801 2.2424 2.5687 4.5823 4.3129 6.9206z" fill="#eceaeb"/>
       <path id="ie" d="m1550.3-8924.1c0.9098 1 1.9679 1.7879 3.1569 2.46-1.0901-2.1046-1.764-4.1332-1.852-6.0031-1.2054-0.7845-2.2665-1.684-3.1669-2.7935 0.1103 1.949 0.7819 4.0942 1.862 6.3366z" fill="#f4f2f3"/>
       <path id="if" d="m1557.8-8915.2c1.1875 0.5877 2.4874 1.1121 3.8674 1.6182-1.7153-2.1279-3.2047-4.2741-4.2749-6.3124-1.4328-0.5364-2.7525-1.0925-3.9414-1.7645 1.09 2.1045 2.5963 4.285 4.3489 6.4587z" fill="#e5e3e5"/>
       <path id="ig" d="m1553.5-8921.6c1.1889 0.672 2.5086 1.2281 3.9414 1.7645-1.0703-2.0383-1.7214-3.9688-1.7604-5.665-1.4779-0.649-2.8276-1.3183-4.033-2.1026 0.088 1.8699 0.7619 3.8985 1.852 6.0031z" fill="#edecee"/>
       <path id="ih" d="m1573.2-8902c-3.6945-3.0977-8.0294-7.2797-11.46-11.535 1.3801 0.506 2.8403 0.9937 4.3483 1.5081 3.2123 4.1696 7.2472 8.219 10.518 10.783-1.1649-0.2491-2.3013-0.4941-3.4056-0.7555z" fill="#bebdc1"/>
       <path id="ii" d="m1576.6-8901.3c-3.2703-2.5637-7.3052-6.6131-10.518-10.783 1.5081 0.5143 3.0641 1.0552 4.6357 1.6678 2.7974 3.8579 6.3803 7.5744 9.4579 9.8954-1.2179-0.278-2.4112-0.5313-3.5761-0.7805z" fill="#b6b4b9"/>
       <path id="ij" d="m1561.7-8913.6c-3.4307-4.2556-5.9573-8.5849-6.0353-11.977 1.4779 0.649 3.0838 1.2776 4.8017 1.9809-0.02 3.045 2.3697 7.3349 5.5819 11.505-1.508-0.5144-2.9682-1.0021-4.3483-1.5081z" fill="#d8d6db"/>
       <path id="ik" d="m1566-8912.1c-3.2122-4.1697-5.6019-8.4596-5.5819-11.505 1.7178 0.7032 3.5476 1.4809 5.4729 2.4279-0.064 2.887 1.9474 6.8865 4.7447 10.744-1.5716-0.6126-3.1276-1.1535-4.6357-1.6678z" fill="#ccc9d0"/>
       <path id="il" d="m1581.4-8895.4c1.7956 0.1577 3.6126 0.2371 5.4491 0.2371-0.793-0.4921-0.043-2.8765-1.1652-4.0074-1.6627-0.3851-3.4878-0.9737-5.5106-1.2995 1.875 1.4259-0.1085 4.5283 1.2267 5.0698z" fill="#a4a4a6"/>
       <path id="im" d="m1586.8-8895.2c1.5997 0 3.1843-0.061 4.7532-0.1804-0.6134-0.6183-1.2285-2.5474-1.9882-3.5912-1.1799 0.2793-2.482 0.099-3.9302-0.2358 1.1222 1.1309 0.3722 3.5153 1.1652 4.0074z" fill="#a3a2a4"/>
       <path id="in" d="m1591.6-8895.4c0.5366-0.041 1.0713-0.089 1.6042-0.1432-0.4303-0.7155-1.3906-2.5425-1.9043-3.6104-0.3714 0.1136-0.9231 0.1253-1.6881 0.1624 0.7597 1.0438 1.3748 2.9729 1.9882 3.5912z" fill="#a2a1a3"/>
       <path id="io" d="m1580.1-8900.5c2.0228 0.3258 3.8479 0.9144 5.5106 1.2995-0.1723-0.1759-0.3414-0.3488-0.5047-0.5141-1.752-0.4458-3.6965-1.1158-5.8748-1.4666 0.2933 0.2385 0.5833 0.4658 0.8689 0.6812z" fill="#b1b0b4"/>
       <path id="ip" d="m1585.6-8899.2c1.4482 0.3348 2.7503 0.5151 3.9302 0.2358-0.122-0.1694-0.2341-0.3227-0.3325-0.4524-1.2184 0.308-2.5765 0.09-4.1024-0.2975 0.1633 0.1653 0.3324 0.3382 0.5047 0.5141z" fill="#afaeb0"/>
       <path id="iq" d="m1589.6-8899c0.765-0.037 1.3167-0.049 1.6881-0.1624-0.085-0.1761-0.1573-0.3314-0.2134-0.4579-0.3798 0.1241-0.9694 0.1307-1.8072 0.1679 0.098 0.1297 0.2105 0.283 0.3325 0.4524z" fill="#aeacae"/>
       <path id="ir" d="m1579.3-8901.2c2.1783 0.3508 4.1228 1.0208 5.8748 1.4666-1.7291-1.8143-4.2336-4.0071-6.2077-6.2569-2.1065-1.6822-5.4283-3.7423-8.6403-4.9618 2.5954 3.689 5.9596 7.3021 8.9732 9.7521z" fill="#b3b2b7"/>
       <path id="is" d="m1570.3-8910.9c3.212 1.2195 6.5338 3.2796 8.6403 4.9618-1.9741-2.2497-3.4177-4.5565-3.0252-6.5984-2.461-2.9184-5.7299-6.4819-9.9756-8.57-0.062 2.7531 1.7651 6.5178 4.3605 10.207z" fill="#c6c3ca"/>
       <path id="it" d="m1585.1-8899.7c1.5259 0.3878 2.884 0.6055 4.1024 0.2975-1.107-1.5481-3.3589-2.7922-5.2875-4.0769-1.1236 0.071-3.1894-1.0144-5.0226-2.4775 1.9741 2.2498 4.4786 4.4426 6.2077 6.2569z" fill="#b1afb2"/>
       <path id="iu" d="m1578.9-8906c1.8332 1.4631 3.899 2.5481 5.0226 2.4775-1.9287-1.2847-3.5343-2.6099-3.3492-4.3199-1.0287-0.1667-2.558-2.2173-4.6986-4.756-0.3925 2.0419 1.0511 4.3487 3.0252 6.5984z" fill="#c1bfc3"/>
       <path id="iv" d="m1589.2-8899.4c0.8378-0.037 1.4274-0.044 1.8072-0.1679-1.376-3.0964-7.8358-4.0436-7.1945-7.4192-0.2184-0.023-1.2515-0.4867-3.2494-0.8097-0.3703 3.4201 6.4225 5.3007 8.6367 8.3968z" fill="#afaeaf"/>
       <path id="iw" d="m1593.2-8895.5c-0.5013-0.8334-1.7216-3.1753-2.1177-4.0683 2.9532 0.2577 5.7717-0.2319 8.4073-0.9095 0.4929 1.1864 1.2808 2.9681 2.2419 3.4937-2.7745 0.6871-5.6229 1.1865-8.5315 1.4841z" fill="#a1a0a2"/>
       <path id="ix" d="m1601.7-8897c-0.9611-0.5256-1.749-2.3073-2.2419-3.4937 2.6356-0.6775 5.0886-1.5431 7.3105-2.0371 0.5897 1.4799 1.5976 2.7031 3.0186 2.9209-2.6124 1.048-5.3128 1.9228-8.0872 2.6099z" fill="#9b9a9d"/>
       <path id="iy" d="m1591.1-8899.6c5.9063 0.5154 11.274-1.9586 15.718-2.9466-0.3621-0.9087-0.5664-1.9142-0.6119-2.8431-4.4237 0.9179-10.122 4.6601-16.542 4.0731 0.6289 0.5052 1.1459 1.063 1.4363 1.7166z" fill="#aeacae"/>
       <path id="iz" d="m1589.6-8901.3c6.4204 0.587 12.118-3.1552 16.542-4.0731-0.2137-4.3568-1.2456-7.7771 1.8005-9.3001-5.8406 0.4519-14.267 8.7295-24.101 7.6706-0.5059 2.663 3.4078 3.8147 5.7582 5.7026z" fill="#b5b4b6"/>
       <path id="ja" d="m1609.8-8899.6c3.2968-1.3233 6.4533-2.9227 9.4405-4.7695-0.7801-0.5384-1.1097-2.2327-0.9814-3.8928-3.7177 2.1726-6.4772 2.7438-11.986 3.8817 0.3542 2.1942 1.5344 4.4753 3.5264 4.7806z" fill="#959498"/>
       <path id="jb" d="m1619.2-8904.4c2.0716-1.2809 4.062-2.6808 5.9612-4.1904 0.2542-0.7881 0.7085-2.1638 1.3653-3.5416-2.8396 1.3178-6.0754 2.5523-8.3079 3.8392-0.1283 1.6601 0.2013 3.3544 0.9814 3.8928z" fill="#949396"/>
       <path id="jc" d="m1625.2-8908.6c1.0302-0.8186 2.0327-1.6697 3.0084-2.5506 0.745-0.8886 1.5555-2.0594 2.4316-3.2519-1.0681 0.7943-2.5089 1.5401-4.0747 2.2609-0.6568 1.3778-1.1111 2.7535-1.3653 3.5416z" fill="#939295"/>
       <path id="jd" d="m1628.2-8911.1c0.7706-0.6977 1.524-1.4135 2.2592-2.1488 1.0872-1.0867 2.1337-2.2141 3.1372-3.379-1.0326 0.706-1.7289 1.3563-2.9648 2.2759-0.8761 1.1925-1.6866 2.3633-2.4316 3.2519z" fill="#939295"/>
       <path id="je" d="m1606.3-8904.4c5.5083-1.1379 8.2678-1.7091 11.986-3.8817 0.019-0.2512 0.049-0.5016 0.089-0.7471-3.7644 2.1879-6.3998 2.5696-12.179 3.6454 0.016 0.321 0.05 0.6513 0.1041 0.9834z" fill="#aeadaf"/>
       <path id="jf" d="m1618.2-8908.3c2.2325-1.2869 5.4683-2.5214 8.3079-3.8392 0.099-0.2084 0.2031-0.4168 0.3116-0.6232-2.9376 1.2652-6.3176 2.4511-8.53 3.7153-0.04 0.2455-0.07 0.4959-0.089 0.7471z" fill="#a6a4a7"/>
       <path id="jg" d="m1626.6-8912.1c1.5658-0.7208 3.0066-1.4666 4.0747-2.2609 0.1324-0.1803 0.2662-0.361 0.4017-0.5414-1.0582 0.7685-2.5417 1.4857-4.1648 2.1791-0.1085 0.2064-0.2124 0.4148-0.3116 0.6232z" fill="#9d9b9e"/>
       <path id="jh" d="m1630.6-8914.4c1.2359-0.9196 1.9322-1.5699 2.9648-2.2759 0.1517-0.176 0.3023-0.3528 0.452-0.5305-1.0589 0.6915-1.7275 1.3218-3.0151 2.265-0.1355 0.1804-0.2693 0.3611-0.4017 0.5414z" fill="#98979a"/>
       <path id="ji" d="m1606.2-8905.4c-0.2137-4.3568-1.2456-7.7771 1.8005-9.3001 4.1201-0.3189 6.3866-0.1195 8.0982-0.1636-2.6167 1.5673-2.9551 4.2972-3.0536 8.0581-1.8517 0.5033-3.9554 0.8676-6.8451 1.4056z" fill="#b2b0b2"/>
       <path id="jj" d="m1613-8906.8c1.8519-0.5034 3.4518-1.1458 5.334-2.2398 0.2053-1.5823 0.2805-3.0403 0.5779-4.3041-1.8913 1.1937-3.4087 1.5386-5.3294 1.6923-0.424 1.3484-0.5333 2.9712-0.5825 4.8516z" fill="#afadb0"/>
       <path id="jk" d="m1613.6-8911.6c1.9207-0.1537 3.4381-0.4986 5.3294-1.6923 0.2974-1.2638 0.8167-2.3336 1.9104-3.1394-1.9004 1.2933-3.0571 1.581-4.7687 1.6252-1.3083 0.7837-2.0471 1.858-2.4711 3.2065z" fill="#c0bfc1"/>
       <path id="jl" d="m1618.3-8909c2.2124-1.2642 5.5924-2.4501 8.53-3.7153 0.5807-1.2411 1.0828-2.434 1.6784-3.5439-3.3053 1.0618-7.6885 1.7324-9.6305 2.9551-0.2974 1.2638-0.3726 2.7218-0.5779 4.3041z" fill="#a9a8aa"/>
       <path id="jm" d="m1618.9-8913.3c1.942-1.2227 6.3252-1.8933 9.6305-2.9551 0.5956-1.1097 1.2848-2.1364 2.2393-3.0452-3.673 0.8581-8.288 1.6798-9.9594 2.8609-1.0937 0.8058-1.613 1.8756-1.9104 3.1394z" fill="#b9b7ba"/>
       <path id="jn" d="m1626.9-8912.7c1.6231-0.6934 3.1066-1.4106 4.1648-2.1791 0.7292-1.0303 1.4077-2.0532 2.1106-3.0527-0.918 0.6727-2.7515 1.0998-4.597 1.6879-0.5956 1.1099-1.0977 2.3028-1.6784 3.5439z" fill="#9e9da0"/>
       <path id="jo" d="m1628.5-8916.3c1.8455-0.5881 3.679-1.0152 4.597-1.6879 0.7029-0.9995 1.4303-1.9754 2.2572-2.912-0.7776 0.5769-2.547 1.0716-4.6149 1.5547-0.9545 0.9088-1.6437 1.9355-2.2393 3.0452z" fill="#a9a8ab"/>
       <path id="jp" d="m1631-8914.9c1.2876-0.9432 1.9562-1.5735 3.0151-2.265 1.6184-1.9217 3.1218-3.9431 4.4991-6.0541-1.2045 0.6041-1.4382 1.0875-3.1464 2.3544-1.6539 1.873-2.9094 3.904-4.3678 5.9647z" fill="#99989b"/>
       <path id="jq" d="m1535.1-8923.2c-1.5978-10.615 7.5482-14.396 13.38-7.2112-0.9203-13.087 22.958-10.953 23.048-25.808-16.025-0.062-31.963-0.1215-46.421-0.1253 0.087 12.261 3.7476 23.573 9.993 33.144z" fill="#f6f5f7"/>
       <path id="jr" d="m1548.5-8930.4c-0.4602-6.5436 5.2795-9.282 11.145-12.241 1.0157 0.557 2.1397 1.0229 3.3497 1.438-5.8986 3.6561-11.694 7.0771-11.328 13.597-1.2054-0.7845-2.2665-1.684-3.1669-2.7935z" fill="#f6f5f7"/>
       <path id="js" d="m1551.6-8927.7c-0.366-6.5197 5.4295-9.9407 11.328-13.597 1.2099 0.4151 2.506 0.7797 3.8658 1.134-5.686 4.1826-11.32 8.099-11.161 14.565-1.4779-0.649-2.8276-1.3183-4.033-2.1026z" fill="#f1f0f2"/>
       <path id="jt" d="m1559.6-8942.7c2.0314 1.114 4.4959 1.8633 7.2155 2.572 5.686-4.1826 11.424-8.6313 11.475-16.162-2.2617 0.016-4.5256 0.032-6.7876 0.023-0.045 7.4272-6.0367 10.607-11.902 13.567z" fill="#f6f5f7"/>
       <path id="ju" d="m1555.7-8925.5c1.4779 0.649 3.0838 1.2776 4.8017 1.9809 0.024-3.2066 1.356-5.9053 3.3418-8.3871-1.6732-0.6103-3.268-1.163-4.7549-1.733-2.0993 2.3103-3.468 4.906-3.3886 8.1392z" fill="#e7e4e9"/>
       <path id="jv" d="m1559-8933.7c1.4869 0.57 3.0817 1.1227 4.7549 1.733 1.9858-2.4819 4.6256-4.7469 7.2658-7.0863-1.4651-0.3745-2.8887-0.7186-4.2484-1.0729-2.843 2.0913-5.6729 4.116-7.7723 6.4262z" fill="#edebf0"/>
       <path id="jw" d="m1560.5-8923.6c1.7178 0.7032 3.5476 1.4809 5.4729 2.4279 0.071-3.1944 1.2959-6.035 3.0944-8.7374-1.8005-0.7997-3.5522-1.4674-5.2255-2.0776-1.9858 2.4818-3.3176 5.1805-3.3418 8.3871z" fill="#dbd7e0"/>
       <path id="jx" d="m1563.8-8932c1.6733 0.6102 3.425 1.2779 5.2255 2.0776 1.7985-2.7025 4.1709-5.2669 6.5379-7.9091-1.5259-0.4756-3.0325-0.8804-4.4976-1.2548-2.6402 2.3394-5.28 4.6044-7.2658 7.0863z" fill="#e6e3eb"/>
       <path id="jy" d="m1566.8-8940.1c2.7196 0.7086 5.6943 1.3765 8.746 2.3277 2.367-2.6422 4.7287-5.3622 6.5055-8.3759-2.5025-0.3029-4.9908-0.5337-7.4009-0.7773-2.1516 2.5764-5.0077 4.7342-7.8506 6.8255z" fill="#f2f1f4"/>
       <path id="jz" d="m1574.7-8946.9c2.4101 0.2436 4.8984 0.4744 7.4009 0.7773 1.7769-3.0137 2.969-6.3212 2.997-10.138-2.2528-0.01-4.5122 0.01-6.7739 0.024-0.025 3.7653-1.4723 6.7601-3.624 9.3365z" fill="#f5f4f6"/>
       <path id="ka" d="m1565.9-8921.1c3.9694 1.9522 7.0851 5.1941 9.4848 7.9928 0.3192-3.1527 1.5048-6.4563 3.1068-9.8806-2.5891-2.4136-5.784-5.2012-9.4972-6.8496-1.7985 2.7024-3.0231 5.543-3.0944 8.7374z" fill="#d4d1d9"/>
       <path id="kb" d="m1569-8929.9c3.7132 1.6484 6.9081 4.436 9.4972 6.8496 1.602-3.4242 3.6204-6.969 5.605-10.604-2.5256-1.4763-5.4148-3.1744-8.5643-4.1549-2.367 2.6422-4.7394 5.2066-6.5379 7.9091z" fill="#e1dfe6"/>
       <path id="kc" d="m1575.6-8937.8c3.1495 0.9805 6.0387 2.6786 8.5643 4.1549 1.9847-3.6348 3.9357-7.3596 5.4028-11.144-2.3774-0.5026-4.8758-1.0748-7.4616-1.387-1.7768 3.0137-4.1385 5.7337-6.5055 8.3759z" fill="#eceaef"/>
       <path id="kd" d="m1582.1-8946.2c2.5858 0.3122 5.0842 0.8844 7.4616 1.387 1.467-3.7842 2.4503-7.6279 2.4998-11.5-2.312-0.01-4.6348-0.016-6.9644-0.025-0.028 3.8171-1.2201 7.1246-2.997 10.138z" fill="#f4f3f4"/>
       <path id="ke" d="m1575.4-8913.1c2.3998 2.7986 4.0837 5.154 5.1894 5.3332 0.567-3.1107 1.978-6.7114 3.7801-10.608-1.2902-0.1524-3.2736-2.1919-5.8627-4.6055-1.602 3.4243-2.7876 6.7279-3.1068 9.8806z" fill="#cfced2"/>
       <path id="kf" d="m1578.5-8923c2.5891 2.4136 4.5725 4.4531 5.8627 4.6055 1.8019-3.897 3.995-8.0902 6.126-12.385-1.6957-0.093-3.858-1.3475-6.3837-2.8239-1.9846 3.6348-4.003 7.1796-5.605 10.604z" fill="#dedde2"/>
       <path id="kg" d="m1584.1-8933.6c2.5257 1.4764 4.688 2.7309 6.3837 2.8239 2.131-4.2953 4.1999-8.6928 5.7538-12.998-2.1013-0.034-4.3574-0.4668-6.7347-0.9694-1.4671 3.7842-3.4181 7.509-5.4028 11.144z" fill="#ebebee"/>
       <path id="kh" d="m1589.5-8944.8c2.3773 0.5026 4.6334 0.9355 6.7347 0.9694 1.5539-4.3057 2.5928-8.5195 2.6635-12.447-2.2857-0.01-4.5865-0.014-6.8984-0.022-0.05 3.8725-1.0328 7.7162-2.4998 11.5z" fill="#f4f3f4"/>
       <path id="ki" d="m1580.6-8907.8c1.9979 0.323 3.031 0.7862 3.2494 0.8097 0.5673-2.988 1.9293-6.6007 3.6533-10.579-0.2975-0.02-1.3233-0.5666-3.1226-0.8394-1.8021 3.8969-3.2131 7.4976-3.7801 10.608z" fill="#cdccce"/>
       <path id="kj" d="m1584.4-8918.4c1.7993 0.2728 2.8251 0.8192 3.1226 0.8394 1.724-3.9779 3.8099-8.3211 5.8248-12.77-0.4713-0.013-1.4588-0.292-2.8214-0.4546-2.131 4.2952-4.3241 8.4884-6.126 12.385z" fill="#e2e1e2"/>
       <path id="kk" d="m1590.5-8930.8c1.3626 0.1626 2.3501 0.4417 2.8214 0.4546 2.0148-4.4492 3.9587-9.0045 5.3985-13.406-0.6451-0.01-1.5402 0.01-2.4661-0.046-1.5539 4.3055-3.6228 8.703-5.7538 12.998z" fill="#eeedef"/>
       <path id="kl" d="m1596.3-8943.8c0.9259 0.052 1.821 0.041 2.4661 0.046 1.4398-4.4021 2.3757-8.6509 2.3746-12.487-0.7241 0-1.4499 0-2.1772-0.01-0.071 3.9279-1.1096 8.1417-2.6635 12.447z" fill="#f4f3f5"/>
       <path id="km" d="m1583.9-8907c9.8337 1.0589 18.26-7.2187 24.101-7.6706 2.2856-1.1427 5.0453-3.4419 7.9006-6.4673-6.0669 0.3813-18.822 4.4561-28.348 3.5593-1.724 3.9779-3.086 7.5906-3.6533 10.579z" fill="#cdccce"/>
       <path id="kn" d="m1587.5-8917.6c9.5259 0.8968 22.281-3.178 28.348-3.5593 2.8553-3.0255 5.8064-6.7773 8.475-10.825-6.5646 0.2261-22.15 2.155-30.998 1.6145-2.0149 4.4491-4.1008 8.7923-5.8248 12.77z" fill="#e2e1e3"/>
       <path id="ko" d="m1593.3-8930.4c8.8488 0.5405 24.434-1.3884 30.998-1.6145 2.6687-4.0482 5.0549-8.3926 6.7805-12.603-7.0624 0.071-24.209 0.9956-32.38 0.8114-1.4398 4.402-3.3837 8.9573-5.3985 13.406z" fill="#efeeef"/>
       <path id="kp" d="m1598.7-8943.8c8.1718 0.1842 25.318-0.7404 32.38-0.8114 1.7257-4.2107 2.7907-8.2878 2.817-11.801-7.2887 5e-4 -24.959 0.1473-32.823 0.1251 0 3.8365-0.9348 8.0853-2.3746 12.487z" fill="#f5f4f5"/>
       <path id="kq" d="m1608-8914.7c4.1201-0.3189 6.3866-0.1195 8.0982-0.1636 2.1307-1.4788 4.59-3.9393 7.082-7.0162-1.4414 0.3244-3.4289 0.4433-7.2796 0.7125-2.8553 3.0254-5.615 5.3246-7.9006 6.4673z" fill="#d1cfd1"/>
       <path id="kr" d="m1615.9-8921.1c3.8507-0.2692 5.8382-0.3881 7.2796-0.7125 2.4921-3.077 5.0167-6.7705 7.2781-10.715-1.1489 0.282-2.8246 0.4429-6.0827 0.6024-2.6686 4.0481-5.6197 7.7999-8.475 10.825z" fill="#e2e1e2"/>
       <path id="ks" d="m1624.3-8932c3.2581-0.1595 4.9338-0.3204 6.0827-0.6024 4.5227-7.8895 7.9919-16.785 8.0394-23.764-0.815-0.02-2.1285-0.038-4.5246-0.038-0.053 7.0266-4.2602 16.308-9.5975 24.404z" fill="#edeced"/>
       <path id="kt" d="m1616.1-8914.8c1.7116-0.044 2.8683-0.3319 4.7687-1.6252 1.9756-1.8149 4.1559-4.3449 6.3163-7.3356-1.6663 1.0905-2.5616 1.6202-4.003 1.9446-2.492 3.0769-4.9513 5.5374-7.082 7.0162z" fill="#cecdcf"/>
       <path id="ku" d="m1623.1-8921.9c1.4414-0.3244 2.3367-0.8541 4.003-1.9446 2.1605-2.9908 4.3011-6.4423 6.1974-10.1-1.1512 0.6444-1.7734 1.0476-2.9223 1.3295-2.2614 3.9448-4.786 7.6383-7.2781 10.715z" fill="#deddde"/>
       <path id="kv" d="m1630.4-8932.6c1.1489-0.2819 1.7711-0.6851 2.9223-1.3295 1.8964-3.6579 3.5484-7.5222 4.7317-11.339-0.6361 0.1982-1.0425 0.34-1.9561 0.4448-1.4386 4.0824-3.4366 8.2786-5.6979 12.223z" fill="#e9e8e8"/>
       <path id="kw" d="m1636.1-8944.8c0.9136-0.1048 1.32-0.2466 1.9561-0.4448 1.1833-3.8163 1.8978-7.5846 1.919-11.05-0.4019 0-0.7185-0.026-1.5336-0.045-0.024 3.4897-0.9029 7.4583-2.3415 11.541z" fill="#eeeeef"/>
       <path id="kx" d="m1620.8-8916.5c1.5016-1.0611 5.3791-1.8322 8.815-2.6001 3.308-4.2435 6.7634-10.248 9.3368-16.854-2.6662 0.423-4.6368 1.4906-5.6381 2.0182-3.7927 7.3158-8.5625 13.806-12.514 17.436z" fill="#c5c4c5"/>
       <path id="ky" d="m1633.3-8933.9c1.0013-0.5276 2.9719-1.5952 5.6381-2.0182 1.2868-3.303 2.353-6.7563 3.0699-10.215-2.1372 0.1859-3.319 0.7338-3.9763 0.8946-1.1833 3.8164-2.8353 7.6807-4.7317 11.339z" fill="#dfdfdf"/>
       <path id="kz" d="m1638.1-8945.2c0.6573-0.1608 1.8391-0.7087 3.9763-0.8946 0.7169-3.4587 1.0846-6.9228 0.9744-10.247-1.8968 0.078-2.5306 0.097-3.0317 0.092-0.021 3.4659-0.7357 7.2342-1.919 11.05z" fill="#e6e6e6"/>
       <path id="la" d="m1629.6-8919.1c2.5415-0.5681 4.8414-1.1345 5.7593-1.8155 1.6978-2.3603 3.3084-4.9577 4.7739-7.7279-0.8817 0.5761-3.3028 1.5172-5.5893 2.0024-1.5991 2.8573-3.2899 5.4193-4.9439 7.541z" fill="#b5b3b5"/>
       <path id="lb" d="m1634.6-8926.6c2.2865-0.4852 4.7076-1.4263 5.5893-2.0024 1.4655-2.7702 2.786-5.7134 3.9033-8.7654-0.8016 0.3453-3.3739 1.152-5.0997 1.4549-1.2867 3.303-2.7939 6.4555-4.3929 9.3129z" fill="#bfbebf"/>
       <path id="lc" d="m1639-8935.9c1.7258-0.3029 4.2981-1.1096 5.0997-1.4549 1.1175-3.0521 2.0321-6.213 2.6857-9.4189-0.7217 0.1147-3.5506 0.5383-4.7155 0.6588-0.7169 3.4587-1.7831 6.912-3.0699 10.215z" fill="#cdcccc"/>
       <path id="ld" d="m1642-8946.1c1.1649-0.1205 3.9938-0.5441 4.7155-0.6588 0.6537-3.2058 1.0466-6.4565 1.1207-9.6883-0.6854 0.01-3.9519 0.062-4.8618 0.1 0.1102 3.3246-0.2575 6.7887-0.9744 10.247z" fill="#d6d6d6"/>
       <path id="le" d="m1635.4-8920.9c0.1975-0.1464 0.3753-0.2824 0.5371-0.4093 1.67-2.3529 3.244-4.9286 4.6693-7.6687-0.1398 0.1071-0.2584 0.2264-0.4325 0.3501-1.4655 2.7702-3.0761 5.3676-4.7739 7.7279z" fill="#a3a2a4"/>
       <path id="lf" d="m1640.2-8928.6c0.1741-0.1237 0.2927-0.243 0.4325-0.3501 1.4253-2.7401 2.7019-5.6446 3.7767-8.6552-0.091 0.064-0.1833 0.1663-0.3059 0.2399-1.1173 3.052-2.4378 5.9952-3.9033 8.7654z" fill="#adacae"/>
       <path id="lg" d="m1644.1-8937.4c0.1226-0.074 0.2144-0.1763 0.3059-0.2399 1.0747-3.0105 1.9478-6.1271 2.5662-9.2914-0.043 0.02-0.1154 0.089-0.1864 0.1124-0.6536 3.2059-1.5682 6.3668-2.6857 9.4189z" fill="#bbbabb"/>
       <path id="lh" d="m1646.8-8946.8c0.071-0.023 0.1433-0.092 0.1864-0.1124 0.6184-3.1642 0.9819-6.376 1.038-9.5772-0.021 3e-4 -0.056 7e-4 -0.1037 0-0.074 3.2318-0.467 6.4825-1.1207 9.6883z" fill="#c8c8c8"/>
       <path id="li" d="m1635.9-8921.3c1.2381-0.9709 1.5441-1.4109 2.6093-1.9451 1.5614-2.3928 2.9611-4.9006 4.1839-7.5081-0.96 0.435-0.9063 0.9632-2.1239 1.7845-1.4253 2.7401-2.9993 5.3158-4.6693 7.6687z" fill="#a2a0a3"/>
       <path id="lj" d="m1640.6-8929c1.2176-0.8213 1.1639-1.3495 2.1239-1.7845 1.2227-2.6073 2.2685-5.3142 3.1218-8.1051-0.7285 0.2165-0.2964 0.7424-1.469 1.2344-1.0748 3.0106-2.3514 5.9151-3.7767 8.6552z" fill="#acaaac"/>
       <path id="lk" d="m1644.4-8937.6c1.1726-0.492 0.7405-1.0179 1.469-1.2344 0.8534-2.7911 1.5143-5.6661 1.9673-8.6097-0.497 0 0.2576 0.39-0.8701 0.5527-0.6184 3.1643-1.4915 6.2809-2.5662 9.2914z" fill="#bab9ba"/>
       <path id="ll" d="m1647-8946.9c1.1277-0.1627 0.3731-0.5546 0.8701-0.5527 0.4531-2.9437 0.6984-5.9559 0.7203-9.0211-0.3917-0.1012 0.5549-0.016-0.5524 0-0.056 3.2012-0.4196 6.413-1.038 9.5772z" fill="#c7c7c7"/>
       <path id="lm" d="m1525.1-8956.4c14.458 0 30.396 0.064 46.421 0.1253 0-0.1963 0-0.3924-0.01-0.5881-16.021-0.038-31.939-0.053-46.413 0.019 0 0.1481 5e-4 0.2964 0 0.4435z" fill="#f6f5f7"/>
       <path id="ln" d="m1525.1-8956.8c14.474-0.073 30.392-0.057 46.413-0.019-0.374-15.544-10.449-29.492-10.298-45.102-9.2963 2.1093-17.258 5.8285-26.601 12.18-6.0265 9.5327-9.5147 20.829-9.5147 32.941z" fill="#f6f5f7"/>
       <path id="lo" d="m1571.5-8956.3c4.5239 0.018 9.0558-0.064 13.562-0.048-5e-4 -0.1722 0-0.3609-0.011-0.5342-4.4997-0.01-9.0403 0.1115-13.558 0.1074 0 0.158 0.01 0.3162 0.01 0.4746z" fill="#f6f5f7"/>
       <path id="lp" d="m1571.5-8956.7c4.5173 0 9.0579-0.1129 13.558-0.1074-0.549-15.291-13.01-33.86-13.941-48.88-2.8193 0.3478-7.1377 3.141-9.9166 3.7713-0.1517 15.648 9.9727 29.627 10.3 45.216z" fill="#f6f5f7"/>
       <path id="lq" d="m1585.1-8956.3c5.4005 0.02 10.765 0.039 16.04 0.054 0-0.1841 0-0.3937-0.01-0.5784-5.2499 0-10.668 0-16.042-0.01 0.01 0.1733 0.01 0.362 0.011 0.5342z" fill="#f6f5f7"/>
       <path id="lr" d="m1585.1-8956.8c5.3737 0.01 10.792 0.01 16.042 0.01-0.7386-14.856-9.4719-36.498-11.824-50.698-3.3953 0.2692-14.78 1.3918-18.159 1.8082 0.9311 15.019 13.392 33.589 13.941 48.88z" fill="#f6f5f7"/>
       <path id="ls" d="m1601.1-8956.2c7.8639 0.022 25.534-0.1246 32.823-0.1251-4e-4 -0.16 0-0.3198 0-0.4795-7.3247-0.039-24.932 0.049-32.829 0.026 0.01 0.1847 0.01 0.3943 0.01 0.5784z" fill="#f6f5f7"/>
       <path id="lt" d="m1601.1-8956.8c-0.7386-14.856-9.4719-36.498-11.824-50.698 3.7866-0.3098 7.822 0.6613 11.818 2.0693 10.033 14.95 16.211 33.92 16.635 48.609-6.3046 0.014-12.681 0.031-16.629 0.019z" fill="#f6f5f7"/>
       <path id="lu" d="m1617.7-8956.8c6.3045-0.014 12.538-0.027 16.2-0.01-0.055-7.261-0.9388-14.314-4.0234-21.514-3.6467-0.7284-10.241-1.8166-16.891-2.6855 2.8517 8.4475 4.5022 16.862 4.7143 24.207z" fill="#f6f5f6"/>
       <path id="lv" d="m1613-8981.1c6.6497 0.8689 13.244 1.9571 16.891 2.6855-3.0845-7.2002-8.3695-14.548-17.226-22.398-3.631-1.4374-7.5886-3.2821-11.585-4.6901 5.0164 7.4751 9.0692 15.955 11.921 24.403z" fill="#f7f8f8"/>
       <path id="lw" d="m1633.9-8956.4c-5e-4 -0.1829 0-0.3657 0-0.5483 3.5161 0.011 4.7048 0.071 5.4174 0.1153 0 0.1654 0 0.3328-5e-4 0.4983-0.6977-0.025-1.8753-0.065-5.4139-0.065z" fill="#f4f4f4"/>
       <path id="lx" d="m1639.3-8956.3c0-0.1655 0-0.3329 5e-4 -0.4983 0.7126 0.045 0.9491 0.074 2.5611 0.026-0.01 0.1483-0.018 0.2965-0.027 0.4446-1.6191 0.062-1.8368 0.052-2.5345 0.028z" fill="#edeeed"/>
       <path id="ly" d="m1641.9-8956.3c0.3206-0.012 0.6963-0.027 1.1415-0.046 0.01-0.1463 0.018-0.2928 0.027-0.4394-0.4452 0.018-0.8212 0.032-1.1414 0.041-0.01 0.1483-0.018 0.2965-0.027 0.4446z" fill="#dedfdf"/>
       <path id="lz" d="m1643-8956.4c0.973-0.04 4.6405-0.097 4.9655-0.101 0-0.149 0.01-0.2983 0.013-0.4478-0.3213 0-3.9705 0.07-4.9515 0.1094-0.01 0.1466-0.018 0.2931-0.027 0.4394z" fill="#dadbdb"/>
       <path id="ma" d="m1648-8956.5c1.1073-0.013 0.1607-0.098 0.5524 0v-0.4436c-0.3922-0.1061 0.5586-0.014-0.5406-0.01 0 0.1495-0.01 0.2988-0.013 0.4478z" fill="#ccc"/>
       <path id="mb" d="m1633.9-8956.9c3.5161 0.011 4.7048 0.071 5.4174 0.1153 0.1411-6.6227-0.7912-13.078-3.4681-19.534-1.2228-0.7423-2.7685-1.4738-5.9869-2.06 3.0867 7.1892 3.9776 14.231 4.0376 21.479z" fill="#f4f4f4"/>
       <path id="mc" d="m1629.9-8978.4c3.2184 0.5862 4.7641 1.3177 5.9869 2.06-2.6768-6.4561-7.0981-12.913-13.935-19.537-3.087-1.881-6.3435-3.7254-9.2639-4.8868 8.843 7.838 14.125 15.175 17.212 22.364z" fill="#f4f4f4"/>
       <path id="md" d="m1639.3-8956.8c0.7126 0.045 0.9491 0.074 2.5611 0.026 0.3424-5.997-0.1718-11.789-1.9792-17.435-1.927-0.63-2.8271-1.3833-4.05-2.1257 2.6769 6.4562 3.6092 12.912 3.4681 19.534z" fill="#edeeed"/>
       <path id="me" d="m1635.9-8976.3c1.2229 0.7424 2.123 1.4957 4.05 2.1257-1.8074-5.6458-4.908-11.145-9.7383-16.556-2.2421-1.3082-5.1595-3.2259-8.2465-5.107 6.8367 6.6244 11.258 13.081 13.935 19.537z" fill="#e9e8e8"/>
       <path id="mf" d="m1641.9-8956.8c0.3202-0.01 0.6962-0.022 1.1414-0.041 0.3417-5.9404-0.1757-11.676-1.8969-17.236-0.5644-0.02-0.8019 0-1.2237-0.1579 1.8074 5.6457 2.3216 11.438 1.9792 17.435z" fill="#dedfdf"/>
       <path id="mg" d="m1639.9-8974.2c0.4218 0.1544 0.6593 0.138 1.2237 0.1579-1.7212-5.5603-4.6463-10.945-9.1198-16.183-0.6835-0.058-1.3188-0.2133-1.8422-0.531 4.8303 5.4108 7.9309 10.91 9.7383 16.556z" fill="#d5d5d6"/>
       <path id="mh" d="m1643.1-8956.8c0.981-0.039 4.6302-0.1104 4.9515-0.1094 0.079-3.0455-0.059-6.0401-0.4186-8.975-0.4-0.09-3.5048 0.3219-4.7078 0.3236 0.3019 2.8715 0.3457 5.7906 0.1749 8.7608z" fill="#dadbdb"/>
       <path id="mi" d="m1642.9-8965.6c1.203 0 4.3078-0.4138 4.7078-0.3236-0.3594-2.9348-0.94-5.81-1.7464-8.6167-0.573-0.2864-2.9921 0.5463-4.6834 0.4646 0.8606 2.7801 1.4203 5.6041 1.722 8.4757z" fill="#d7d7d7"/>
       <path id="mj" d="m1641.2-8974.1c1.6913 0.082 4.1104-0.751 4.6834-0.4646-1.6126-5.6135-4.128-10.953-7.5807-15.949-0.8248-0.5717-3.821 0.434-6.2225 0.2312 4.4735 5.2378 7.3986 10.622 9.1198 16.183z" fill="#d1d1d1"/>
       <path id="mk" d="m1648-8956.9c1.0992-0.01 0.1484-0.099 0.5406 0.01 0-3.028-0.2181-6.005-0.6393-8.9163-0.4581-0.1809 0.7385 0.018-0.3199-0.066 0.3594 2.9349 0.4975 5.9295 0.4186 8.975z" fill="#ccc"/>
       <path id="ml" d="m1647.6-8965.9c1.0584 0.085-0.1382-0.1146 0.3199 0.066-0.4211-2.9112-1.0455-5.7568-1.8582-8.5217-0.6033-0.3455 0.7607 0.1243-0.2081-0.1613 0.8064 2.8067 1.387 5.6819 1.7464 8.6167z" fill="#c8c8c9"/>
       <path id="mm" d="m1645.8-8974.5c0.9688 0.2856-0.3952-0.1842 0.2081 0.1613-0.8126-2.7649-1.8136-5.4493-2.9881-8.0382-0.7487-0.51 0.5589 0.1574-0.3203-0.3292 1.262 2.6611 2.294 5.3993 3.1003 8.2061z" fill="#bfbec0"/>
       <path id="mn" d="m1642.7-8982.7c0.8792 0.4866-0.4284-0.1808 0.3203 0.3292-1.1745-2.5889-2.5225-5.0823-4.0291-7.4655-0.8147-0.5849 0.067-0.029-0.7716-0.6069 1.7264 2.498 3.2184 5.082 4.4804 7.7432z" fill="#b4b3b6"/>
       <path id="mo" d="m1534.6-8989.8c9.3424-6.352 17.304-10.071 26.601-12.18 0-1.578-0.234-3.1052-0.2755-4.3809-9.409 2.4378-15.677 6.3003-24.129 13.219-0.7647 1.0559-1.4977 2.2374-2.1964 3.3423z" fill="#f6f5f7"/>
       <path id="mp" d="m1536.8-8993.1c8.4513-6.9188 14.72-10.781 24.129-13.219-0.076-2.3335 0.065-4.0696 3.5421-6.2886-10.758 2.6577-15.146 6.4088-23.151 13.974-1.6091 1.754-3.119 3.602-4.5194 5.5341z" fill="#f6f5f7"/>
       <path id="mq" d="m1561.2-9001.9c2.7789-0.6303 7.0973-3.4235 9.9166-3.7713-0.1028-1.377-0.1733-3.6618 0.093-4.9383-2.8445 0.5689-7.5101 3.4791-10.286 4.3287 0.042 1.2757 0.2717 2.8029 0.2755 4.3809z" fill="#f6f5f7"/>
       <path id="mr" d="m1560.9-9006.3c2.7754-0.8496 7.441-3.7598 10.286-4.3287 0.045-0.2136 0.099-0.399 0.1637-0.5471-2.8871 0.5523-7.6491 3.4285-10.462 4.2611 0 0.2006 0.01 0.4052 0.013 0.6147z" fill="#f8f8f9"/>
       <path id="ms" d="m1560.9-9006.9c-0.011-2.0344 0.3898-3.6541 3.5551-5.6739 1.633-0.4034 3.9022-1.2744 6.1866-2.1106-3.2902 1.8788-4.118 3.5759-4.5383 5.5488-1.9031 0.8921-3.7969 1.8194-5.2034 2.2357z" fill="#f8f8f9"/>
       <path id="mt" d="m1566.1-9009.2c0.4203-1.9729 1.2481-3.67 4.5383-5.5488 2.2844-0.8363 4.5842-1.6379 6.2787-1.9028-3.4152 1.7379-4.7067 3.5146-5.5582 5.4262-1.4436 0.2761-3.3558 1.1332-5.2588 2.0254z" fill="#f7f7f7"/>
       <path id="mu" d="m1571.1-9005.7c3.3784-0.4164 14.764-1.539 18.159-1.8082-0.2725-1.647-0.8377-4.6051-0.7269-4.8769-4.1257 0.2755-13.057 0.4473-17.175 1.1997-0.4531 1.0336-0.3771 3.8779-0.2571 5.4854z" fill="#f6f5f7"/>
       <path id="mv" d="m1571.4-9011.2c0.8515-1.9116 2.143-3.6883 5.5582-5.4262 2.0298-0.3175 4.1023-0.022 6.1739 0.3924-3.3745 1.4228-2.6172 3.0427-3.1476 4.2551-3.2632 0.1714-6.5255 0.4025-8.5845 0.7787z" fill="#f4f3f4"/>
       <path id="mw" d="m1580-9012c3.2632-0.1714 6.5274-0.2833 8.5903-0.421 0.1047-0.2567-0.5471-0.661-0.8082-1.1396-2.045-0.011-4.66-0.2945-7.2748-0.4881-0.2988 0.7344-0.2421 1.4425-0.5073 2.0487z" fill="#f5f5f5"/>
       <path id="mx" d="m1580.5-9014c2.6148 0.1936 5.2298 0.4768 7.2748 0.4881-0.2612-0.4786-0.1318-1.0315 1.5351-1.5854-2.0269-0.1603-4.0979-0.6945-6.1696-1.1091-1.6873 0.7114-2.3416 1.472-2.6403 2.2064z" fill="#f1f0f0"/>
       <path id="my" d="m1589.3-9007.5c-0.2725-1.647-0.8377-4.6051-0.7269-4.8769 2.9449 0.1231 6.5085 1.0418 9.9456 2.4191 0.6484 0.7743 2.0114 3.3026 2.5998 4.5271-3.9965-1.408-8.0319-2.3791-11.818-2.0693z" fill="#f7f8f8"/>
       <path id="mz" d="m1601.1-9005.5c-0.5884-1.2245-1.9514-3.7528-2.5998-4.5271 3.437 1.3772 6.7475 3.2132 9.1864 5.1709 1.4076 1.2768 4.0943 3.2442 4.9984 4.0463-3.631-1.4374-7.5886-3.2821-11.585-4.6901z" fill="#f6f6f6"/>
       <path id="na" d="m1588.6-9012.4c0.047-0.116-0.06-0.262-0.2154-0.4314 2.7958 0.1304 6.3293 0.9001 9.708 2.1354 0.1208 0.1877 0.2499 0.4516 0.453 0.7151-3.4371-1.3773-7.0007-2.296-9.9456-2.4191z" fill="#f6f6f6"/>
       <path id="nb" d="m1598.5-9010c-0.2031-0.2635-0.3322-0.5274-0.453-0.7151 3.3787 1.2354 6.6027 2.9364 8.7797 4.9294 0.086 0.206 0.4064 0.5455 0.8597 0.9566-2.4389-1.9577-5.7494-3.7937-9.1864-5.1709z" fill="#f4f4f4"/>
       <path id="nc" d="m1588.3-9012.8c2.7958 0.1304 6.3293 0.9001 9.708 2.1354-0.2942-0.532-0.356-1.1423-0.015-1.7029-3.635-0.8919-7.4732-1.3061-10.39-1.4754 0.02 0.3936 0.4301 0.7525 0.6968 1.0429z" fill="#f4f4f4"/>
       <path id="nd" d="m1587.6-9013.9c2.9164 0.1693 6.7546 0.5835 10.39 1.4754 0.3409-0.5605 1.0843-1.0713 2.4004-1.404-3.9313-0.8018-8.114-1.1137-11.151-1.3221-1.2905 0.4288-1.6594 0.857-1.6391 1.2507z" fill="#efefee"/>
       <path id="ne" d="m1598-9010.7c3.3787 1.2354 6.6027 2.9364 8.7797 4.9294-0.3218-0.7736-0.1807-1.5991 0.3763-2.2904-2.104-2.0802-5.5361-3.4499-9.1712-4.3419-0.3408 0.5606-0.279 1.1709 0.015 1.7029z" fill="#f2f2f2"/>
       <path id="nf" d="m1598-9012.4c3.6351 0.892 7.0672 2.2617 9.1712 4.3419 0.5569-0.6913 1.5296-1.2484 2.8712-1.4852-2.031-2.1675-5.7108-3.459-9.642-4.2607-1.3161 0.3327-2.0595 0.8435-2.4004 1.404z" fill="#ebebea"/>
       <path id="ng" d="m1612.7-9000.8c-0.7761-0.6886-2.8657-2.2357-4.3323-3.4677 1.7185 0.7677 3.6285 1.8083 5.6715 2.9473 1.4435 1.2267 3.7668 2.6717 4.6467 3.4756-2.0447-1.1555-4.0864-2.1998-5.9859-2.9552z" fill="#f0efef"/>
       <path id="nh" d="m1618.7-8997.8c-0.8799-0.8039-3.2032-2.2489-4.6467-3.4756 2.0431 1.139 4.2193 2.3764 6.4701 3.5378 1.4203 1.2215 3.1971 2.6403 4.1809 3.5595-1.9117-1.1998-3.9595-2.4663-6.0043-3.6217z" fill="#e8e7e7"/>
       <path id="ni" d="m1624.7-8994.2c2.055 1.2897 3.9526 2.5023 5.5202 3.4169-0.8691-1.256-2.2511-2.8186-3.4202-4.2473-2.1098-0.7774-4.4166-1.7464-6.2809-2.7291 1.4203 1.2215 3.1971 2.6403 4.1809 3.5595z" fill="#dbdada"/>
       <path id="nj" d="m1630.2-8990.8c2.1177 1.2853 6.0672-0.083 7.6262 0.1488-0.914-1.1996-2.0206-2.4846-3.0784-3.7083-1.5121-0.3127-5.3425 0.3564-7.968-0.6878 1.1691 1.4287 2.5511 2.9913 3.4202 4.2473z" fill="#c9c8c9"/>
       <path id="nk" d="m1637.8-8990.6c0.1803 0.027 0.3286 0.075 0.4385 0.151-0.8787-1.1779-1.9127-2.4157-2.9169-3.6006-0.176-0.1042-0.3775-0.1891-0.6-0.2587 1.0578 1.2237 2.1644 2.5087 3.0784 3.7083z" fill="#afadb0"/>
       <path id="nl" d="m1638.3-8990.5c0.8383 0.578-0.043 0.022 0.7716 0.6069-0.6988-1.1049-1.4317-2.1863-2.1971-3.2422-0.8415-0.5781-0.6071-0.4122-1.4914-0.9653 1.0042 1.1849 2.0382 2.4227 2.9169 3.6006z" fill="#acabae"/>
       <path id="nm" d="m1608.3-9004.2c-0.7919-0.6653-1.4022-1.2386-1.5258-1.5352 1.5598 0.7555 3.3377 1.7752 5.3189 2.8864 0.2513 0.366 1.0988 0.9334 1.8784 1.5961-2.043-1.139-3.953-2.1796-5.6715-2.9473z" fill="#efeeee"/>
       <path id="nn" d="m1614-9001.3c-0.7796-0.6627-1.6271-1.2301-1.8784-1.5961 1.9813 1.1112 4.1658 2.314 6.5389 3.4358 0.3787 0.4354 1.0423 1.038 1.8096 1.6981-2.2508-1.1614-4.427-2.3988-6.4701-3.5378z" fill="#e6e5e5"/>
       <path id="no" d="m1620.5-8997.7c1.8643 0.9827 4.1711 1.9517 6.2809 2.7291-0.632-0.7722-1.2018-1.5055-1.5953-2.1304-2.337-0.683-4.7993-1.5001-6.4952-2.2968 0.3787 0.4354 1.0423 1.038 1.8096 1.6981z" fill="#d8d7d7"/>
       <path id="np" d="m1626.8-8995c2.6255 1.0442 6.4559 0.3751 7.968 0.6878-0.5721-0.6619-1.13-1.306-1.6359-1.9093-1.4118-0.3332-5.1028-0.018-7.9274-0.9089 0.3935 0.6249 0.9633 1.3582 1.5953 2.1304z" fill="#c7c5c6"/>
       <path id="nq" d="m1634.7-8994.3c0.2225 0.07 0.424 0.1545 0.6 0.2587-0.5431-0.641-1.0778-1.2666-1.5747-1.8592-0.203-0.1167-0.4246-0.2188-0.6612-0.3088 0.5059 0.6033 1.0638 1.2474 1.6359 1.9093z" fill="#adabae"/>
       <path id="nr" d="m1635.3-8994.1c0.8843 0.5531 0.6499 0.3872 1.4914 0.9653-0.4141-0.5714-0.8379-1.1355-1.2709-1.6919-0.8277-0.5658-0.9144-0.6017-1.7952-1.1326 0.4969 0.5926 1.0316 1.2182 1.5747 1.8592z" fill="#a9a8ab"/>
       <path id="ns" d="m1606.8-9005.8c1.5598 0.7555 3.3377 1.7752 5.3189 2.8864-0.4381-0.7707-0.6355-1.5683-0.5045-2.2567-1.7975-1.1261-3.3083-2.1688-4.4381-2.9201-0.557 0.6913-0.6981 1.5168-0.3763 2.2904z" fill="#ebeaea"/>
       <path id="nt" d="m1607.2-9008.1c1.1298 0.7513 2.6406 1.794 4.4381 2.9201 0.1312-0.6884 0.5909-1.2677 1.4672-1.6017-1.3522-1.0658-2.334-2.0565-3.0341-2.8036-1.3416 0.2368-2.3143 0.7939-2.8712 1.4852z" fill="#e2e1e1"/>
       <path id="nu" d="m1612.1-9002.9c1.9813 1.1112 4.1658 2.314 6.5389 3.4358-0.5544-0.7677-0.8398-1.5619-0.8836-2.2718-2.2776-1.0851-4.3621-2.2946-6.1598-3.4207-0.131 0.6884 0.066 1.486 0.5045 2.2567z" fill="#e2e1e1"/>
       <path id="nv" d="m1611.6-9005.1c1.7977 1.1261 3.8822 2.3356 6.1598 3.4207-0.044-0.7101 0.1535-1.3359 0.5645-1.767-2.1821-1.0483-3.9048-2.1894-5.2571-3.2554-0.8763 0.334-1.336 0.9133-1.4672 1.6017z" fill="#dad9d9"/>
       <path id="nw" d="m1618.7-8999.4c1.6959 0.7967 4.1582 1.6138 6.4952 2.2968-1.0678-1.8028-1.4756-3.6564-1.3624-5.0012-2.3604-0.4805-4.6749-0.9585-5.4519-1.3344-0.8221 0.8623-0.7898 2.5033 0.3191 4.0388z" fill="#d5d4d4"/>
       <path id="nx" d="m1625.2-8997.1c2.8246 0.8906 6.5156 0.5757 7.9274 0.9089-1.248-1.5403-2.3132-3.0685-3.2399-4.3975-0.5792-0.4077-3.3447-0.9619-6.0499-1.5126-0.1132 1.3448 0.2946 3.1984 1.3624 5.0012z" fill="#c3c1c3"/>
       <path id="ny" d="m1633.1-8996.2c0.2366 0.09 0.4582 0.1921 0.6612 0.3088-1.2164-1.4906-2.3054-2.9617-3.3001-4.2694-0.1987-0.1494-0.3994-0.2953-0.601-0.4369 0.9267 1.329 1.9919 2.8572 3.2399 4.3975z" fill="#abaaad"/>
       <path id="nz" d="m1633.8-8995.9c0.8808 0.5309 0.9675 0.5668 1.7952 1.1326-1.0311-1.325-2.1148-2.6069-3.2486-3.8422-0.571-0.5459-1.1983-1.0722-1.8467-1.5598 0.9947 1.3077 2.0837 2.7788 3.3001 4.2694z" fill="#a9a7aa"/>
       <path id="oa" d="m1541.3-8998.6c8.0056-7.5648 12.394-11.316 23.151-13.974 1.3068-0.8332 5.3634-3.5191 7.3283-4.1974-11.01 2.7519-20.849 8.4615-28.625 16.234-0.6319 0.6319-1.2504 1.2772-1.8549 1.9365z" fill="#f6f5f7"/>
       <path id="ob" d="m1564.5-9012.6c1.3068-0.8332 5.3634-3.5191 7.3283-4.1974 1.5517-0.3878 3.1266-0.7167 4.7221-0.9845-1.8303 0.5787-4.5705 2.3478-5.8638 3.0713-2.2844 0.8362-4.5536 1.7072-6.1866 2.1106z" fill="#fff"/>
       <path id="oc" d="m1570.7-9014.7c1.2933-0.7235 4.0335-2.4926 5.8638-3.0713 1.5956-0.2677 3.2119-0.4743 4.8465-0.6171-1.6958 0.4789-3.1517 1.172-4.4316 1.7856-1.6945 0.2649-3.9943 1.0665-6.2787 1.9028z" fill="#f7f7f6"/>
       <path id="od" d="m1576.9-9016.6c1.2799-0.6136 2.7358-1.3067 4.4316-1.7856 0.8978-0.079 1.801-0.138 2.7092-0.1777-1.6339 0.419-3.0345 1.3182-4.3084 1.8667-0.9503-0.066-1.8959-0.05-2.8324 0.097z" fill="#f0efef"/>
       <path id="oe" d="m1579.8-9016.7c0.9504 0.066 1.9055 0.2137 2.8613 0.3952 0.6339-0.2416 1.2875-0.7322 1.9791-1.2074-0.9368-0.091-1.8814-0.1557-2.8212-0.1697-0.7137 0.3457-1.3823 0.7076-2.0192 0.9819z" fill="#edecec"/>
       <path id="of" d="m1581.8-9017.7c0.9398 0.014 1.8844 0.079 2.8212 0.1697 0.6917-0.4751 1.4213-0.9348 2.2074-1.1143-0.918 0-1.8312 0.02-2.7394 0.06-0.8169 0.2095-1.5756 0.539-2.2892 0.8848z" fill="#eeedec"/>
       <path id="og" d="m1582.6-9016.3c1.1158 0.2118 2.2324 0.4694 3.3429 0.6956 0.6298-0.2247 1.2659-0.8758 1.932-1.5121-1.0973-0.1413-2.2012-0.285-3.2958-0.3909-0.6916 0.4752-1.3452 0.9658-1.9791 1.2074z" fill="#ebebea"/>
       <path id="oh" d="m1584.6-9017.5c1.0946 0.1059 2.1985 0.2496 3.2958 0.3909 0.333-0.3182 0.6735-0.6327 1.0245-0.8883-1.0826-0.078-2.1719-0.1375-3.252-0.1706-0.3671 0.1967-0.7225 0.4304-1.0683 0.668z" fill="#e6e6e6"/>
       <path id="oi" d="m1585.7-9018.2c1.0801 0.033 2.1694 0.093 3.252 0.1706 0.3508-0.2557 0.7122-0.4525 1.0868-0.5353-1.0596-0.054-2.1263-0.082-3.1997-0.082-0.3931 0.09-0.772 0.2496-1.1391 0.4463z" fill="#e1e0e1"/>
       <path id="oj" d="m1586-9015.6c1.1106 0.2262 2.2151 0.421 3.3069 0.5073 0.3129-0.1038 0.6237-0.3368 0.9361-0.6327-1.0846-0.09-2.1845-0.2718-3.2906-0.4763-0.321 0.2704-0.6375 0.4894-0.9524 0.6017z" fill="#e8e8e7"/>
       <path id="ok" d="m1586.9-9016.2c1.1061 0.2045 2.206 0.3867 3.2906 0.4763 0.3123-0.2959 0.6263-0.6545 0.9458-1.0097-1.0687-0.097-2.1595-0.2357-3.2568-0.377-0.333 0.3182-0.6586 0.64-0.9796 0.9104z" fill="#e4e4e3"/>
       <path id="ol" d="m1587.9-9017.1c0.5487 0.071 1.0957 0.1407 1.6392 0.2052 0.3269-0.3464 0.66-0.6893 1.0017-0.9651-0.5357-0.046-1.0752-0.09-1.6164-0.1284-0.351 0.2556-0.6915 0.5701-1.0245 0.8883z" fill="#dcdcdd"/>
       <path id="om" d="m1588.9-9018c0.5412 0.039 1.0807 0.082 1.6164 0.1284 0.3419-0.2758 0.6925-0.4845 1.0545-0.5625-0.5262-0.04-1.0543-0.074-1.5841-0.1012-0.3746 0.083-0.736 0.2796-1.0868 0.5353z" fill="#d1d1d2"/>
       <path id="on" d="m1589.5-9016.9c0.5434 0.065 1.0833 0.1234 1.6176 0.1718 0.3194-0.3552 0.6443-0.707 0.9784-0.9888-0.5264-0.052-1.0584-0.1016-1.5943-0.1481-0.3417 0.2758-0.6748 0.6187-1.0017 0.9651z" fill="#d8d8d8"/>
       <path id="oo" d="m1590.5-9017.9c0.5359 0.046 1.0679 0.096 1.5943 0.1481 0.3341-0.2819 0.6774-0.494 1.0338-0.5698-0.5228-0.053-1.0473-0.1005-1.5736-0.1408-0.362 0.078-0.7126 0.2867-1.0545 0.5625z" fill="#cbcacc"/>
       <path id="op" d="m1589.3-9015.1c3.0369 0.2084 7.2196 0.5203 11.151 1.3221 0.2822-0.074 0.3934-0.2913 0.4289-0.5778-3.7017-0.7986-7.627-1.1547-10.644-1.377-0.3124 0.2959-0.6232 0.5289-0.9361 0.6327z" fill="#e5e5e5"/>
       <path id="oq" d="m1590.2-9015.8c3.0167 0.2223 6.942 0.5784 10.644 1.377 0.035-0.2865 0-0.6423-0.026-0.9939-3.2684-0.7393-6.6997-1.14-9.6721-1.3928-0.3195 0.3552-0.6335 0.7138-0.9458 1.0097z" fill="#e0e0e0"/>
       <path id="or" d="m1591.2-9016.8c2.9724 0.2528 6.4037 0.6535 9.6721 1.3928-0.021-0.3515-0.022-0.6986 0.091-0.9679-2.8774-0.6826-5.8566-1.1303-8.7848-1.4137-0.3341 0.2818-0.659 0.6336-0.9784 0.9888z" fill="#d5d5d6"/>
       <path id="os" d="m1592.1-9017.8c2.9282 0.2834 5.9074 0.7311 8.7848 1.4137 0.1133-0.2692 0.3413-0.4604 0.7794-0.5-2.7742-0.6869-5.6224-1.1862-8.5304-1.4835-0.3564 0.076-0.6997 0.2879-1.0338 0.5698z" fill="#c7c7c8"/>
       <path id="ot" d="m1600.4-9013.8c3.9312 0.8017 7.611 2.0932 9.642 4.2607 0.2517-0.044 0.23-0.359 0.088-0.8061-2.1218-1.9925-5.5998-3.2337-9.3014-4.0324-0.036 0.2865-0.1467 0.5037-0.4289 0.5778z" fill="#dededd"/>
       <path id="ou" d="m1600.9-9014.4c3.7016 0.7987 7.1796 2.0399 9.3014 4.0324-0.1417-0.447-0.4034-1.0266-0.6315-1.601-2.3215-1.6077-5.4272-2.6858-8.6957-3.4253 0.021 0.3516 0.061 0.7074 0.026 0.9939z" fill="#d7d8d8"/>
       <path id="ov" d="m1600.8-9015.4c3.2685 0.7395 6.3742 1.8176 8.6957 3.4253-0.4563-1.1489-0.7785-2.2771 0.2609-2.2837-2.6118-1.048-5.312-1.9226-8.0861-2.6095-0.8761 0.079-0.9122 0.7649-0.8705 1.4679z" fill="#cecdcd"/>
       <path id="ow" d="m1610.1-9009.5c1.4003 1.4944 3.927 3.9624 8.2912 6.059 0.4147-0.6249 0.1793-1.8892 0.022-3.14-3.6232-1.9258-6.573-3.9435-8.8565-5.3261 0.4563 1.1488 1.0467 2.3183 0.5432 2.4071z" fill="#d3d3d3"/>
       <path id="ox" d="m1609.5-9011.9c2.2835 1.3826 5.2333 3.4003 8.8565 5.3261-0.1573-1.2508-0.2365-2.4879 0.4903-3.0585-2.882-1.7549-5.9192-3.2804-9.0859-4.5513-1.0394 0.01-0.7172 1.1348-0.2609 2.2837z" fill="#c6c5c6"/>
       <path id="oy" d="m1618.4-9003.5c1.1032 0.5338 5.3063 1.2732 8.3388 1.9337-0.091-0.4301-0.4941-1.1628-0.8614-1.8874-2.5199-1.1277-5.8041-2.2498-7.4553-3.1863 0.1572 1.2508 0.3926 2.5151-0.022 3.14z" fill="#c4c3c4"/>
       <path id="oz" d="m1618.4-9006.6c1.6512 0.9365 4.9354 2.0586 7.4553 3.1863-0.3673-0.7244-0.6994-1.4407-0.6492-1.8376-2.0073-1.5952-4.1164-3.068-6.3158-4.4072-0.7268 0.5706-0.6476 1.8077-0.4903 3.0585z" fill="#b9b8b9"/>
       <path id="pa" d="m1626.7-9001.5c1.551 0.3378 2.7959 0.6549 3.163 0.9133-0.2037-0.2684-0.5454-0.6673-0.8737-1.0606-0.6708-0.5696-1.8599-1.1619-3.1507-1.7401 0.3673 0.7246 0.7701 1.4573 0.8614 1.8874z" fill="#b2b1b2"/>
       <path id="pb" d="m1625.8-9003.4c1.2908 0.5782 2.4799 1.1705 3.1507 1.7401-0.3283-0.3933-0.643-0.7811-0.7926-1.0274-0.9745-0.8809-1.977-1.7319-3.0073-2.5503-0.05 0.3969 0.2819 1.1132 0.6492 1.8376z" fill="#a9a9ab"/>
       <path id="pc" d="m1629.9-9000.6c0.8596 0.6037 1.7017 1.2835 2.4477 1.9967-0.3022-0.3296-0.6078-0.6558-0.9169-0.9785-0.7405-0.7239-1.5893-1.4284-2.4045-2.0788 0.3283 0.3933 0.67 0.7922 0.8737 1.0606z" fill="#a7a6a8"/>
       <path id="pd" d="m1629-9001.7c0.8152 0.6504 1.664 1.3549 2.4045 2.0788-0.3091-0.3227-0.6217-0.642-0.9378-0.958-0.7352-0.7346-1.4886-1.451-2.2593-2.1482 0.1496 0.2463 0.4643 0.6341 0.7926 1.0274z" fill="#a2a2a5"/>
      </g>
     </g>
    </g>
   </g>
  </g>
 </g>
 <g id="pe" transform="translate(.25878 -.0017428)">
  <path id="pf" transform="matrix(2.1985,0,0,2.1985,-251.06,-300.61)" d="m189.5 181.3h207.3v234.4h-207.3z" clip-path="url(#bw)" fill="url(#bv)"/>
  <path id="pg" transform="matrix(2.1985,0,0,2.1985,-251.06,-300.61)" d="m403.1 298.7c0 68.5-55.5 124-124 124s-124-55.5-124-124c0-69.2 55.5-124 124-124s124 55.5 124 124" clip-path="url(#bx)" fill="#161617"/>
  <path id="ph" transform="matrix(2.1985,0,0,2.1985,-251.06,-300.61)" d="m188.5 203.2 133.2 3.5-5.4 200.4-133.1-3.5z" clip-path="url(#bz)" fill="url(#by)"/>
  <path id="pi" transform="matrix(2.1985,0,0,2.1985,-251.06,-300.61)" d="m216.8 258.4c-2.9 6.9-4.2 13.7-5 16.1-0.8 2.6-0.4 4.4-0.7 6.7-0.2 1.4-1.8 5.2-1.1 10.5 0.7 5.4 0.3 6 0.4 8.6s0.7 0.9 0.5 6c-0.1 5.1-0.2 10.9 2.4 22.3 1.8 7.9 1.9 18.7 4.6 24.6-0.9-0.5-1.1-0.9-1.1-0.9s0.1 0.8 0.6 1.4c-1.3-0.6-4.5-1-6.4-5.8-0.6-1.6-3.9-10.4-7.1-15.8-1.5-2.5-3.8-3.4-5.1-5.7s-4.1-26.6-3.6-33.2 1.5-14.3 5.3-22.3c3.7-8 7.8-15.8 10.3-15.8 2.6 0.2 6.7 1.7 6 3.3" clip-path="url(#ca)" fill="#252426"/>
  <path id="pj" transform="matrix(2.1985,0,0,2.1985,-251.06,-300.61)" d="m202.7 224.8-2.4 2.7c-0.8 0.9-1.6 1.8-2.3 2.7-1.5 1.9-3 3.8-4.5 5.7-0.7 1-1.4 1.9-2.1 2.9l-1 1.4-1 1.5c-0.7 1-1.4 2-2 3-0.3 0.5-0.7 1-1 1.5-0.2 0.3-0.3 0.5-0.4 0.8l-0.4 0.8c1-2.2 2.2-4.3 3.5-6.3s2.7-4 4.2-5.9c1.4-1.9 3-3.8 4.5-5.6 1.4-1.8 3.1-3.6 4.9-5.2" clip-path="url(#at)" fill="#353535"/>
  <path id="pk" transform="matrix(2.1985,0,0,2.1985,-251.06,-300.61)" d="m191.5 362.5c-1.5-1.8-2.9-3.7-4.1-5.6-1.3-1.9-2.5-3.9-3.6-6s-2.1-4.1-3-6.3c-0.9-2.1-1.7-4.3-2.3-6.6 0.8 2.2 1.7 4.3 2.7 6.4s2 4.2 3.1 6.2c1.1 2.1 2.2 4.1 3.5 6 1.1 2 2.4 3.9 3.7 5.9" clip-path="url(#at)" fill="#353535"/>
  <path id="pl" transform="matrix(2.1985,0,0,2.1985,-251.06,-300.61)" d="m191.3 250.1c17.6-29.9 49.8-49.6 86.2-49.6 4 0 7.9 0.2 11.7 0.7 0 0 0 9.8-2.6 8.7s-11.6-2.5-17.7-1.9v0.7l-4.2 0.3-0.3 1-1.7-0.4-0.5 0.7h-1.9v1.1h-1.8v0.7h-1.5v0.9h-1.5v0.8h-2.1l0.3 0.7h-2.1v1.1h-1.7v0.8l-2.2 0.5-0.8 1.1s-6.7 3.4-11.3 8.3c-3.8 4.1-8.4 9.1-9.7 10.7-1.3 1.7-5.6 5.9-5.6 5.9l-0.4 1h-0.9v1.1h-1.1v0.9h-1v1.2h-1.1v1.1l-0.5 1.2h-1.8l-0.9 0.7-2.5-0.7-9.9-11.5c0.1 0.1-3.8 4.5-8.9 12.2" clip-path="url(#at)" fill="#616061"/>
  <path id="pm" transform="matrix(2.1985,0,0,2.1985,-251.06,-300.61)" d="m208.6 372.4c2.9-1 5.2-3.4 5.4-4.7s0.8-0.4 0.7-0.8-0.9-1.8-0.9-1.8l0.9 0.4-1.2-1.7 1.2 0.4-1.5-2.1 1.1 0.5-1.7-3 1.4 0.6-2.1-5.2 1.2 0.7-2.3-5s-1.2-8.6-2.7-10.5c-1.5-2-8.8-5.7-7.8-13.7 1.1-7.9 1.1-16.8 0.5-17.5-0.5-0.7-0.1-4-0.6-5.7s0.4-8.9-0.9-11.1c-1.2-2.1 0.8-11.2 2.1-14.6s6.5-18.3 7.9-20.1c1.3-1.8 2-7.2 1.8-8.4-0.1-0.6-0.3-1.4-0.3-1.4h-0.4l0.1-0.7h-0.5s0.3-0.8 0-0.8h-0.7l0.1-0.7h-0.7v-0.8h-0.7v-0.8l-0.6 0.2v-1h-1v-0.6h-0.9l0.1-0.9-0.6 0.2v-0.8h-0.7v-0.7h-1v-0.7h-0.3l0.1-0.6h-0.7v-0.6h-1l-0.3-1.1s-6.6 7.1-9.7 12.4c-8.6 15.2-14.3 32.3-14.3 50.9 0.1 28.1 12.2 53.6 31.5 71.8" clip-path="url(#cb)" fill="#151516"/>
  <path id="pn" transform="matrix(2.1985,0,0,2.1985,-251.06,-300.61)" d="m370.7 298.8c-2 0.1-2.9-1.2-4.6-1.6-5-1.1-8.9 0.7-12.1 0.5s-11.9 0.7-12.9-0.5-4.7-2.2-8-2.2-3.6-2.7-3.9-4.2c-0.4-1.6-4.3-3.2-8-3.4s-7.8 0.1-13 1.3-10-4.7-11-6.2c-2.7-4.3-12.5-8.2-12.5-5.5s1.9 19.7 1.9 22.8c0 3-0.9 5.7-0.9 5.7 0.7 0 26-0.7 29.2-0.8s22.8-0.2 26.5-0.6 7.6 4 8.3 4.6c2.8 2.7 9.8 8.1 10.4 13.9 0.5 5.8-5.6 25.3-6.9 30.5-3.3 12-10.5 22.2-9.5 21.4 2.7-2.5 8-5.9 11.9-11.9s7.3-11.3 9.5-20c2.2-8.6 3.8-14.1 3.8-27.2-0.2-5.9-1.6-12.7 1.8-16.6" clip-path="url(#cc)" fill="#171718"/>
  <path id="po" transform="matrix(2.1985,0,0,2.1985,-251.06,-300.61)" d="m277.8 286.9 115.7 17-16.8 114.7-115.7-17z" clip-path="url(#ce)" fill="url(#cd)"/>
  <path id="pp" transform="matrix(2.1985,0,0,2.1985,-251.06,-300.61)" d="m284.5 276.9c0-2.3 9.6 1.3 12.3 5.5 0.9 1.5 6 7.3 11.2 6.2 5.3-1.1 9.4-1.4 13-1.2 3.7 0.2 7.6 1.8 8 3.3 0.3 1.6 0.6 4.2 3.9 4.2s7 1 8 2.2 9.7 0.4 12.9 0.5c3.2 0.2 7.2-1.7 12.1-0.5 1.7 0.4 2.8 1.8 4.6 1.6 0.9-1.4 2.4-3.2 4.3-5.4 1.9-2.1 3.7-3.4 5.6-2.2-4.3-48.6-42.3-87.4-90.4-93.3l4.8 15.6-12.1 11.6 11.1 23.3z" clip-path="url(#au)" fill="#171717"/>
  <path id="pq" transform="matrix(2.1985,0,0,2.1985,-251.06,-300.61)" d="m369.9 322.3c-0.7 12.5-7.7 29.5-10.7 34.9s9.8-13.5 17.5-33.5c3.2-8.4-0.3 1.5-0.3 1.5s-2.1 14.8-13.9 31.3-24.6 23.4-25.9 24.3c1.8-1.8 8-6 16.9-29.8 7.9-24.4 7.7-29.9 8.1-30.2s8.3 1.5 8.3 1.5" clip-path="url(#au)" fill="#171717"/>
  <path id="pr" transform="matrix(2.1985,0,0,2.1985,-251.06,-300.61)" d="m285 312.1c3.1-0.2 12.2 0.1 18.8 2.6s18 10.8 18.8 8.6c0.9-2.2 2.1-3.1 2.1-3.1s-6.8-9-8.5-10.1 3.5 0.1 4.2-2.2 4.6-0.1 11.3 0 17 0.1 17.7 0.8c0.6 0.7-4.6-5.1-8.3-4.6-3.7 0.4-23.3 0.5-26.5 0.6s-28.5 0.8-29.2 0.8c-0.6-0.1-1.5 6.6-0.4 6.6" clip-path="url(#au)" fill="#171718"/>
  <path id="ps" transform="matrix(2.1985,0,0,2.1985,-251.06,-300.61)" d="m258.1 138.5 85.7 113.6-119.9 90.4-85.7-113.6z" clip-path="url(#ch)" fill="url(#cg)"/>
  <path id="pt" transform="matrix(2.1985,0,0,2.1985,-251.06,-300.61)" d="m297.7 397.1c-2.2 1.3-4.5 2.1-8 2.7-2.4 0.4-5 0.8-7.5 0.9 0 0-2-1.5-3.6-8.2 3.2 1.5 11.9 4.4 19.1 4.6" clip-path="url(#ao)" fill="#2d2c2c"/>
  <path id="pu" transform="matrix(2.1985,0,0,2.1985,-251.06,-300.61)" d="m293.2 398.2c1.5-0.6 1.6-1.2 3.7-1.7 1.7-0.4 8.7-0.8 12.8-2.3 1.7-0.7-10.6 5.2-16.5 4" clip-path="url(#ao)" fill="#191919"/>
  <path id="pv" transform="matrix(2.1985,0,0,2.1985,-251.06,-300.61)" d="m291.8 402.8s-8.4 0.8-12.7 0.8c-57 0-103.2-46.1-103.2-102.9s45.5-102.9 103.2-102.9v0.4c-55.9 0-102 44.5-102 101.2 0 59.2 49 99.5 98.7 101.6l-0.1 0.6 1 0.1 0.1 0.6c0.1-0.1 8.8 0.7 15 0.5" clip-path="url(#ao)" fill="#818384"/>
  <path id="pw" transform="matrix(2.1985,0,0,2.1985,-251.06,-300.61)" d="m326.5 392.2c33.2-17.1 55.9-51.6 55.9-91.5 0-34-18.4-66.6-45.5-85.2 26.5 20.1 44 49.5 44.1 83.8 0.1 41.1-21.4 73-54.5 92.9" clip-path="url(#ao)" fill="#353535"/>
  <path id="px" transform="matrix(2.1985,0,0,2.1985,-251.06,-300.61)" d="m312.9 401.1c-10.8 3.7-22.1 5.1-34.2 5-58.7-0.9-103.7-46.2-103.7-105.7 0-58.8 46.5-104.3 104-104.3 33.3 0 62.9 15.7 82 40.1v-0.1c-19.2-24.7-49.1-40.9-82.7-40.6-58.3 0.6-104.9 47.2-104.9 105.5s45.8 104.7 104.9 105.5c12 0.3 23.7-1.7 34.6-5.4" clip-path="url(#ao)" fill="#272626"/>
  <path id="py" transform="matrix(2.1985,0,0,2.1985,-251.06,-300.61)" d="m222 188.6c-16.1 8.3-29.9 19.2-41.6 34.8 0 0 3.3-3.2 4.7-3.5 10.9-11.3 16.6-17.6 36.4-29.5z" clip-path="url(#ao)" fill="#444445"/>
  <path id="pz" transform="matrix(2.1985,0,0,2.1985,-251.06,-300.61)" d="m266.2 422c4.2 0.4 8.5 0.7 12.8 0.7 43.8-0.1 83.9-25.1 104.3-56.9 0 0-10.4 12.5-16.2 17-22.3 23.2-53.5 37.7-87.2 37.7-6.9 0-15.8-0.6-22.4-1.7z" clip-path="url(#ao)" fill="#313131"/>
  <path id="qa" transform="matrix(2.1985,0,0,2.1985,-251.06,-300.61)" d="m371.3 381.5c3.8-6.5 18.3-28.2 24.4-46.7 1.2-3.5 0.1 6.3-1.7 10.5s-7.8 19.3-22.7 36.2" clip-path="url(#ao)" fill="#1f2021"/>
  <path id="qb" transform="matrix(2.1985,0,0,2.1985,-251.06,-300.61)" d="m273.3 422.6c-34.5-1.9-64.7-16.8-86.4-40.9-19.8-22-31.9-51.1-31.9-83 0-34.1 13.5-64.7 35.4-87 0 0-9.1 12.2-11.9 17.5-2.4 3.9-4.9 7.9-7.2 11.9-10.7 18.1-15.8 36.6-15.8 57.6 0 7.5 1 17.7 3.2 21.9 0.2 1.2 0.5 2.4 0.7 3.7 4.4 21.6 13.3 41.3 25.3 55 2.8 3.2 7.5 6.5 10.3 7.9 19.4 18.4 42.6 29.2 72.9 33.1 0 0 7.9 1 7.7 1.5s-1.1 0.8-2.3 0.8" clip-path="url(#ao)" fill="#737373"/>
  <path id="qc" transform="matrix(2.1985,0,0,2.1985,-251.06,-300.61)" d="m397 260c4 12.2 5.9 25.1 5.9 38.6 0 20-4.5 38.9-12.9 55.6 0 0 4.2-11.4 6.1-20.9 3.2-11 5-22.6 5-34.7 0-6.7-0.6-13.2-1.6-19.7-0.8-9.2-2.5-18.9-2.5-18.9" clip-path="url(#ao)" fill="#4e4d4e"/>
  <path id="qd" transform="matrix(2.1985,0,0,2.1985,-251.06,-300.61)" d="m282.3 400.7s-3.2 0.1-4.9 0c-26.7-0.5-51.7-11.8-70.1-29.8l2.6 0.3 0.1-3.5s5.7 4.8 9.4 7.8c6.3 5 15.4 12.3 25.9 15.7 21.9 7.2 30.8-0.5 30.8-0.5l2.5 1.8c0.1 0 1.5 6.3 3.7 8.2" clip-path="url(#ao)" fill="#292929"/>
  <path id="qe" transform="matrix(2.1985,0,0,2.1985,-251.06,-300.61)" d="m378.3 324c-0.6 2.3-1.4 1.5-3.3 4.1-0.7 2-2.5 7.4-3.7 10.3-7.1 16.9-18.4 26.9-16 23.8 5.5-7 9.9-19.3 11.1-25.8 1.9-10.1 2-13.4 2.3-18 0.3-4.4-1.1-12.6 0.3-16.8 1-2.9 5-7.4 7.1-9.6 2.6-2.7 4.5-1.1 4.5-1.1 0.2 3.4 0.9 10.8 0.1 19.1-0.7 8.3-2.4 14-2.4 14" clip-path="url(#ci)" fill="#171717"/>
  <path id="qf" transform="matrix(2.1985,0,0,2.1985,-251.06,-300.61)" d="m346.5 318.8 45.5 30.8-32.6 48.1-45.4-30.8z" clip-path="url(#ck)" fill="url(#cj)"/>
  <path id="qg" transform="matrix(2.1985,0,0,2.1985,-251.06,-300.61)" d="m188.2 231.2-15.1-9.3 10.1-16.3 15.1 9.4z" clip-path="url(#cm)" fill="url(#cl)"/>
  <path id="qh" transform="matrix(2.1985,0,0,2.1985,-251.06,-300.61)" d="M 359.8,87.8 490.7,379 198.6,510.3 67.7,219.1 Z" clip-path="url(#co)" fill="url(#cn)"/>
  <path id="qi" transform="matrix(2.1985,0,0,2.1985,-251.06,-300.61)" d="m299 179.4c57.3 9.5 100.8 59.3 100.8 119.1 0 66.7-53.8 120.6-120.7 120.6s-120.8-53.9-120.8-120.6 53.7-120.8 120.6-120.8c4.7 0 9.4 0.3 14 0.8" clip-path="url(#ax)" fill="none" stroke="#767677" stroke-miterlimit="10"/>
  <path id="qj" transform="matrix(2.1985,0,0,2.1985,-251.06,-300.61)" d="m299.8 180.5c56.3 9.9 99 59 99 118 0 66.2-53.4 119.6-119.7 119.6s-119.8-53.5-119.8-119.6 53.3-119.8 119.7-119.8c4.8 0 9.4 0.3 14 0.8" clip-path="url(#ax)" fill="none" stroke="#767677" stroke-miterlimit="10"/>
  <path id="qk" transform="matrix(2.1985,0,0,2.1985,-251.06,-300.61)" d="m282.8 197.1c4.2 0.1 17.8 1.9 26.2 4.9 10.8 3.8 22.3 9 28.9 14.3-7.6-4.6-12.1-7.5-29.2-13.7-12.1-4.3-26.6-4.7-26.6-4.7z" clip-path="url(#cp)" fill="#353535"/>
  <path id="ql" transform="matrix(2.1985,0,0,2.1985,-251.06,-300.61)" d="m256.6 317.7c-2.4-2.3-7.5-3.8-13.9-3.9h-12.7l-10.9 40h12.9l3-11.1h5.7c7.6-0.2 11.5-1.7 15.2-5.2 3.2-3.1 4.4-6.9 4.4-11.1 0.1-3.5-1.6-6.6-3.7-8.7m-9.5 13.7c-1.5 1.5-3.8 2.5-6.7 2.5h-4.1l2.7-10.2h3.9c2.1 0 3.6 0.5 4.5 1.4 0.7 0.7 1 1.7 1 2.5 0.2 1.5-0.3 2.8-1.3 3.8" clip-path="url(#ay)" fill="#54151b"/>
  <path id="qm" transform="matrix(2.1985,0,0,2.1985,-251.06,-300.61)" d="m283.1 313.2c5.6 0 10.1 1.7 13.7 5.1 3.5 3.4 5.3 7.6 5.3 12.8 0 3.1-0.6 6-1.8 8.9s-2.9 5.5-5.1 7.6c-4.7 4.6-10.2 6.9-16.7 6.9-5.6 0-10.2-1.7-13.7-5.1s-5.3-7.6-5.3-12.8c0-3.1 0.6-6 1.8-8.9s2.9-5.4 5.1-7.6c4.6-4.6 10.2-6.9 16.7-6.9m-3.7 30.2c2.5 0 4.7-1 6.6-2.8 1-1.1 1.9-2.3 2.5-3.8s0.9-3 0.9-4.5c0-2.3-0.7-4.2-2-5.6s-2.9-2.1-5.3-2.1c-2.5 0-4.7 0.9-6.6 2.8-2.3 2.4-3.4 5.1-3.4 8.3 0 2.3 0.4 4.1 1.7 5.6 1.3 1.3 3.2 2.1 5.6 2.1" clip-path="url(#ay)" fill="#54151b"/>
  <path id="qn" transform="matrix(2.1985,0,0,2.1985,-251.06,-300.61)" d="m222.4 303.7 47.7 13.3-13.1 47-47.7-13.3z" clip-path="url(#cr)" fill="url(#cq)"/>
  <path id="qo" transform="matrix(2.1985,0,0,2.1985,-251.06,-300.61)" d="m264.1 301 49.9 16.7-16.4 49.2-49.9-16.7z" clip-path="url(#ct)" fill="url(#cs)"/>
  <path id="qp" transform="matrix(2.1985,0,0,2.1985,-251.06,-300.61)" d="m302.3 303.2 49.6 13.5-13 47.8-49.6-13.6z" clip-path="url(#cv)" fill="url(#cu)"/>
  <path id="qq" transform="matrix(2.1985,0,0,2.1985,-251.06,-300.61)" d="m346 303.9 45.5 13.2-13.6 46.7-45.5-13.2z" clip-path="url(#cx)" fill="url(#cw)"/>
  <path id="qr" transform="matrix(2.1985,0,0,2.1985,-251.06,-300.61)" d="m346.7 304.1 44.3 13-13.5 45.7-44.3-12.9z" clip-path="url(#cz)" fill="url(#cy)"/>
  <path id="qs" transform="matrix(2.1985,0,0,2.1985,-251.06,-300.61)" d="m191.2 338.6h1.4s1.5 1.9 4.9 3.8c2 1.1 5.4 2 8 1.2-1.4 0.8-4.6 0.9-7.9-0.5-2.4-1.1-3.8-2.2-6.4-4.5" clip-path="url(#da)" fill="#3a1518"/>
  <path id="qt" transform="matrix(2.1985,0,0,2.1985,-251.06,-300.61)" d="m187.3 301.9 48.4 15.2-15.3 49-48.5-15.2z" clip-path="url(#az)" fill="url(#db)"/>
  <path id="qu" transform="matrix(2.1985,0,0,2.1985,-251.06,-300.61)" d="m189.5 300.5 47.1 18.3-18.6 47.8-47.1-18.3z" clip-path="url(#bb)" fill="url(#ba)"/>
  <path id="qv" transform="matrix(2.1985,0,0,2.1985,-251.06,-300.61)" d="m222.8 304.6 46.4 12.5-12.4 45.7-46.3-12.5z" clip-path="url(#bd)" fill="url(#bc)"/>
  <path id="qw" transform="matrix(2.1985,0,0,2.1985,-251.06,-300.61)" d="m239.4 324.3-2.4 8.8s0.8 0.1 0.8 0 2.1-8.4 2.1-8.4h3.3c0.8 0 3-0.1 4.1 1.6 1 1.7 0 3.9-0.9 4.8-0.9 0.8-1.7 1.6-5.1 2 0 0 4.5-0.2 5.9-2.8 1.1-2 0.6-3.7-0.2-4.6-0.8-0.8-1.6-1.3-4-1.3-2-0.1-3.6-0.1-3.6-0.1" clip-path="url(#be)" fill="#3a1518"/>
  <path id="qx" transform="matrix(2.1985,0,0,2.1985,-251.06,-300.61)" d="m302.7 304 48.2 12.8-12.3 46.4-48.2-12.8z" clip-path="url(#bg)" fill="url(#bf)"/>
  <path id="qy" transform="matrix(2.1985,0,0,2.1985,-251.06,-300.61)" d="m328.7 325.6c-0.8-0.8-2.4-1.1-4.4-1.1h-5l-2.2 8h5.3c2.7 0 4.7-0.6 6-1.9 0.8-0.8 1.3-1.6 1.3-2.7-0.1-0.9-0.4-1.7-1-2.3m-1.2 4.9c-1.2 1.2-3.1 1.8-5.6 1.8h-4.5l2.1-7.5h4c2.2 0 3.6 0.3 4.3 1 0.6 0.6 0.9 1.3 0.9 2.1 0 1.1-0.4 1.8-1.2 2.6" clip-path="url(#as)" fill="#3a1518"/>
  <path id="qz" transform="matrix(2.1985,0,0,2.1985,-251.06,-300.61)" d="m311.5 353.7h-12.1l10.7-39.7-0.7 0.3-10.5 39 0.4 0.6h12.1z" clip-path="url(#as)" fill="#54151b"/>
  <path id="ra" transform="matrix(2.1985,0,0,2.1985,-251.06,-300.61)" d="m346.8 353.7 7.7-29.1h-11.2l2.8-10.6-1.3 0.2-2.7 10.8h11l-7.5 28.7z" clip-path="url(#as)" fill="#54151b"/>
  <path id="rb" transform="matrix(2.1985,0,0,2.1985,-251.06,-300.61)" d="m262.8 303.9 48.2 12.3-12.1 47.6-48.3-12.4z" clip-path="url(#bi)" fill="url(#bh)"/>
  <path id="rc" transform="matrix(2.1985,0,0,2.1985,-251.06,-300.61)" d="m204.8 354.3c-0.8 0.1-1.7 0.1-2.6 0.1-7.8 0-13.9-2.3-19-7.7l7.5-7.6-6.9 7.6s2.7 2.5 4.4 3.6c2 1.4 5.6 2.9 9.1 3.5 3.7 0.6 7.5 0.5 7.5 0.5" clip-path="url(#ar)" fill="#5f1317"/>
  <path id="rd" transform="matrix(2.1985,0,0,2.1985,-251.06,-300.61)" d="m214.1 350.8c5.2-4.3 6-10 4.7-13.5-1.6-4.2-5.2-5.7-8-7-3.1-1.4-6-2.1-7.3-3.3-2-1.9 0.1-3.4 1.7-3.5 6.8-0.6 11.3 4.4 11.3 4.4l7.4-8.1c-4.2-3.9-9.5-6.2-16.2-6.3-5.6-0.1-10 1.5-13.3 4.6-2.4 2.2-3.7 4.4-4.1 6.7 0.4-2.4 1.8-4.9 3.6-6.7 3.2-3.1 8-4.9 13.6-4.9 6.8 0 12.9 2.5 17.3 6.6l-7.4 8.4-1 0.1c-3.5-3.1-6-4.2-9.7-4.2-1.3 0-2.3 0.2-2.8 1.2-0.2 0.5-0.1 1.3 0.7 1.8s2.1 1 4.9 2.1c3.5 1.3 6.3 3 7.8 4.6 1.9 2 2.8 4.6 2.6 7.3-0.2 3.6-1.4 6.1-3.8 8.5-2.4 2.3-6.2 4-10.2 4.7 0.2-0.1 5.2-1.1 8.2-3.5" clip-path="url(#ar)" fill="#3a1518"/>
  <path id="re" transform="matrix(2.1985,0,0,2.1985,-251.06,-300.61)" d="m377.9 325 0.2-0.6h-11.4l-0.2 0.6z" clip-path="url(#ar)" fill="#54151b"/>
  <path id="rf" transform="matrix(2.1985,0,0,2.1985,-251.06,-300.61)" d="m289.2 226.8c14.6-2.8 17.8-17.9 17.8-26 0-17.6-12.2-25.4-22.7-29.7-12.5-5.1-28.3-6.2-46.4 0.8-11.9 4.5-22.6 16.6-25.7 24.9-2.8 7.5-1.7 13.1-1.7 13.1h29.4s0.3-5.2 1.9-8.7c2.1-4.8 6.9-9.1 16.1-9.3 14.4-0.3 19.6 6.1 19.8 12.4 0.2 6-4 12-15.3 12.8-8.5 0.6-13.4 0.3-13.4 0.3v22s5.6-1 14-0.2c14 1.4 16.1 8.9 16.6 15.1 0.8 9.5-5.7 18.3-22.8 17.5-12.8-0.6-17.3-7.5-18.9-11.8s-1.4-11.1-1.4-11.1h-29.3s-1 9.5 2 18.6c3.3 10.2 10.7 19.6 23.6 24.9 17.1 7 38.2 5.8 52.2 0.3 11.5-4.5 25.3-13.7 26.2-36.1 0.2-9.8-3.2-25.7-22-29.8" clip-path="url(#ar)" fill="#f4f4f4"/>
  <path id="rg" transform="matrix(2.1985,0,0,2.1985,-251.06,-300.61)" d="m294 205.9 18.1 6.3-6.9 20-18.1-6.3z" clip-path="url(#bk)" fill="url(#bj)"/>
  <path id="rh" transform="matrix(2.1985,0,0,2.1985,-251.06,-300.61)" d="m210.3 208.9h31.2v4h-31.2z" clip-path="url(#bm)" fill="url(#bl)"/>
  <path id="ri" transform="matrix(2.1985,0,0,2.1985,-251.06,-300.61)" d="m239.8 192.9h36.9v19.9h-36.9z" clip-path="url(#bo)" fill="url(#bn)"/>
  <path id="rj" transform="matrix(2.1985,0,0,2.1985,-251.06,-300.61)" d="m292.9 175.5c8.3 4.7 14.8 12.3 15 26.1 0.1 8.7-5 22.5-15.2 25.2-0.1 0-0.1 0.1 0 0.1 16.7 6.3 19.1 19.2 19.1 29.9 0 22.5-14.6 32.2-26.5 36.8-14.3 5.6-35.6 6.9-52.9-0.3-13-5.4-20.5-15-23.9-25.4-2.9-8.8-2.4-18.5-2.3-19.5 0 0 0-0.1 0.1-0.1h30.9s0.3 0 0.3 0.1c0 0.8 0 7.7 1.5 11.8 1.6 4.4 5.7 10.2 18.7 10.6 16 0.5 22.1-7.1 20.8-17.8-0.7-6.2-4.9-12.1-16.5-13-7.8-0.6-13.4 0.3-14.1 0.4-0.1 0-0.1 0-0.1-0.1v-23.7c0.9 0.1 9.5 0.4 16.2-0.4 7.6-0.9 13.2-5 12.8-12.2-0.3-5.6-5.4-10.9-16.7-11.2-9.8-0.2-15.5 3.4-17.5 8.3-1.9 4.6-1.8 8.9-1.8 9.6 0 0 0 0.1-0.1 0.1 0 0-31.1 0-31.1-0.1 0-1 0-8.1 2.6-14-2.8 7.5-1.7 13.1-1.7 13.1h29.4s0.4-5.2 1.9-8.7c2-4.9 6.9-9.1 16.1-9.3 14.4-0.4 19.6 6.1 19.8 12.4 0.2 6-4 12-15.3 12.8-8.5 0.6-13.7 0.3-13.7 0.3v21.9s5.9-1 14.2-0.2c14 1.4 16.1 8.8 16.6 15.1 0.8 9.6-5.7 18.3-22.8 17.5-12.9-0.6-17.3-7.5-18.9-11.8s-1.3-11.1-1.3-11.1h-29.3s-1 9.5 2 18.6c3.3 10.2 10.7 19.6 23.6 24.9 17.1 7.1 38.2 5.8 52.2 0.3 11.5-4.5 25.3-13.7 26.1-36.1 0.4-9.8-3-25.7-21.9-29.8 14.6-2.9 17.8-17.9 17.9-26-0.1-12.6-6.6-20.2-14.2-25.1" clip-path="url(#av)" fill="#c6c4c7"/>
  <path id="rk" transform="matrix(2.1985,0,0,2.1985,-251.06,-300.61)" d="m210.5 212.8h0.9l-0.8-1.9-1-0.1z" clip-path="url(#av)" fill="#5a595d"/>
  <path id="rl" transform="matrix(2.1985,0,0,2.1985,-251.06,-300.61)" d="m247.8 239.8h30.9v14.8h-30.9z" clip-path="url(#bt)" fill="url(#bq)"/>
  <path id="rm" transform="matrix(2.1985,0,0,2.1985,-251.06,-300.61)" d="m296.6 228.7-7.6-0.3 0.2-4.9 7.6 0.3z" clip-path="url(#cf)" fill="url(#bu)"/>
 </g>
</svg>
