<?xml version="1.0" encoding="UTF-8"?>
<svg id="svg30" width="595.22" height="1328.8" version="1.1" viewBox="0 0 157.48 351.59" xmlns="http://www.w3.org/2000/svg" xmlns:cc="http://creativecommons.org/ns#" xmlns:dc="http://purl.org/dc/elements/1.1/" xmlns:rdf="http://www.w3.org/1999/02/22-rdf-syntax-ns#">
 <defs id="defs13">
  <clipPath id="clipPath272">
   <path id="path270" d="m139.33 425.08h9.5v15.088h-9.5z"/>
  </clipPath>
  <clipPath id="clipPath286">
   <path id="path284" d="m139.33 418.95h9.508v21.225h-9.508z"/>
  </clipPath>
 </defs>
 <metadata id="metadata36">
  <rdf:RDF>
   <cc:Work rdf:about="">
    <dc:format>image/svg+xml</dc:format>
    <dc:type rdf:resource="http://purl.org/dc/dcmitype/StillImage"/>
    <dc:title/>
   </cc:Work>
  </rdf:RDF>
 </metadata>
 <g id="g9930" transform="matrix(16.565 0 0 -16.565 -2307.9 7291.4)">
  <g id="g266">
   <g id="g268" clip-path="url(#clipPath272)">
    <path id="path274" d="m148.83 425.08h-9.5v1.861h9.5z"/>
    <g id="g276" transform="translate(146.8 434.71)">
     <path id="path278" d="m0 0c1.319-0.346 1.965-1.287 1.965-2.641 0-2.607-2.378-3.697-4.657-3.697-2.69 0-4.868 1.37-4.703 4.324h2.624c-0.032-1.369 0.643-2.047 2.064-2.047 0.957 0 1.865 0.412 1.865 1.42 0 1.271-0.924 1.568-2.047 1.568-0.248 0-0.495-0.016-0.743-0.033v1.948c0.248 0.016 0.495-0.032 0.743-0.017 0.825 0 1.866 0.216 1.866 1.205 0 0.743-0.743 1.156-1.65 1.156-1.142 0-1.8-0.595-1.785-1.634h-2.624c0.067 2.575 1.933 3.912 4.39 3.912 1.998 0 4.293-0.843 4.293-3.185 0-1.008-0.545-2.064-1.601-2.246z"/>
    </g>
   </g>
  </g>
  <g id="g280">
   <g id="g282" clip-path="url(#clipPath286)">
    <g id="g288" transform="translate(142.38 418.95)">
     <path id="path290" d="m0 0v2.11h-1.808v-2.11h-1.249v4.95h1.255v-1.788h1.802v1.788h1.241v-4.95z"/>
    </g>
    <g id="g292" transform="translate(147.31 422.45)">
     <path id="path294" d="m0 0c-0.069 0.084-0.216 0.252-0.483 0.336-0.231 0.077-0.442 0.07-0.679 0.07h-0.5v-2.91h0.38c0.365 0 0.785 0.021 1.107 0.26 0.252 0.189 0.457 0.547 0.457 1.221 0 0.378-0.043 0.72-0.282 1.023m0.955-2.776c-0.162-0.183-0.526-0.505-1.13-0.646-0.274-0.063-0.511-0.077-0.792-0.077h-1.942v4.95h1.578c0.153 0 0.301 0 0.448-7e-3 0.211-0.014 1.039-0.035 1.641-0.534 0.091-0.069 0.239-0.203 0.393-0.448 0.175-0.273 0.371-0.715 0.371-1.443 0-0.934-0.301-1.487-0.567-1.795"/>
    </g>
   </g>
  </g>
 </g>
</svg>
