<svg id="a" width="600" height="600" version="1.1" viewBox="0 0 158.75 158.75" xmlns="http://www.w3.org/2000/svg">
 <g id="b" transform="translate(-64.256 -128.42)">
  <path id="c" d="m64.258 207.8c0-43.836 35.539-79.374 79.374-79.374s79.374 35.539 79.374 79.374-35.539 79.374-79.374 79.374-79.374-35.539-79.374-79.374" fill="#fff"/>
  <path id="d" transform="matrix(.26458 0 0 .26458 64.256 128.42)" d="m300 0c-30.195 0-59.35 4.5273-86.846 12.834l-189.72 170.76c-15.077 35.802-23.426 75.134-23.426 116.42 0 41.325 8.3897 80.7 23.508 116.54 0-0.20749-0.041015-0.37291-0.041015-0.53906v-0.00195l175.51 166.55c0.14131 0.03034 0.27503 0.05391 0.41601 0.08399 31.453 11.206 65.33 17.348 100.61 17.348 165.68 0 300-134.32 300-300s-134.32-300-300-300v-0.0039062z" fill="#f7ad11" stroke-width="3.7795"/>
 </g>
 <path id="e" d="m61.638 3.1867c-1.7693 0-3.5168 0.076903-5.2421 0.20877l0.0047-0.0093c-22.687 6.8506-41.089 23.58-50.198 45.188h36.962c0-8.4508 8.2753-15.297 18.473-15.297 10.209 0 18.473 6.8461 18.473 15.297 0 8.4508-8.2638 15.297-18.473 15.297v30.176c10.209 0 18.473 6.8461 18.473 15.297 0 8.4398-8.2638 15.297-18.473 15.297-9.9125 0-17.99-6.4622-18.451-14.572h-36.978l0.011369 0.14314h-0.00569c8.6042 20.39 25.485 36.432 46.431 43.924 0.0013-5e-3 0.0023-0.01 0.0036-0.0145 2.934 0.39561 5.9232 0.60461 8.9891 0.60461 30.616 0 55.44-20.319 55.44-45.385 0-11.693-5.3957-22.341-14.253-30.385 8.8574-8.044 14.253-18.704 14.253-30.385 0-25.066-24.824-45.385-55.44-45.385z" fill="#fff"/>
</svg>
