<?xml version="1.0" encoding="UTF-8"?>
<svg id="svg806" width="724.88" height="725.32" version="1.1" viewBox="0 0 724.88 725.32" xmlns="http://www.w3.org/2000/svg" xmlns:cc="http://creativecommons.org/ns#" xmlns:dc="http://purl.org/dc/elements/1.1/" xmlns:rdf="http://www.w3.org/1999/02/22-rdf-syntax-ns#" xmlns:xlink="http://www.w3.org/1999/xlink">
 <metadata id="metadata812">
  <rdf:RDF>
   <cc:Work rdf:about="">
    <dc:format>image/svg+xml</dc:format>
    <dc:type rdf:resource="http://purl.org/dc/dcmitype/StillImage"/>
    <dc:title/>
   </cc:Work>
  </rdf:RDF>
 </metadata>
 <clipPath id="a">
  <path id="path2" width="100%" height="100%" d="m296 228.4c-0.1-0.1-0.3-0.1-0.4-0.2 0.1 0 0.3 0.1 0.4 0.2m-6.9-1.6s1 0.2 1.7 0.4c1.1-0.1 2.2-0.2 4.8 0.9-1.7-0.8-2.1-1-3-1.3 2.1-0.5 3.4-1.4 3.4-1.4-1.7 0.8-3 1.1-3.8 1.1 0.9-0.4 2.8-1.6 3.9-2.4-2.5 1.8-7 2.7-7 2.7m7-2.6c0.2-0.1 0.4-0.2 0.5-0.4-0.1 0.1-0.3 0.2-0.5 0.4"/>
 </clipPath>
 <linearGradient id="b" x1="1269.8" x2="1293.1" y1="3471.4" y2="3471.4" gradientTransform="matrix(-.0020091 .049396 .049396 .0020091 123.96 156.6)" gradientUnits="userSpaceOnUse">
  <stop id="stop5" stop-color="#c6c4c7" offset="0"/>
  <stop id="stop7" stop-color="#a5a6a9" offset=".3604"/>
  <stop id="stop9" stop-color="#95979a" offset=".5179"/>
  <stop id="stop11" stop-color="#c6c4c7" offset="1"/>
 </linearGradient>
 <clipPath id="c">
  <path id="path14" width="100%" height="100%" d="m247.8 240.4 0.6 1.5s9.1-0.9 15.9-0.1c13.6 1.5 14.4 12.8 14.4 12.8-0.3-7.6-5-13.6-16.6-14.6-1.9-0.1-3.7-0.2-5.3-0.2-5.3 0-9 0.6-9 0.6"/>
 </clipPath>
 <linearGradient id="d">
  <stop id="stop17" stop-color="#3a383c" offset="0"/>
  <stop id="stop19" stop-color="#3a383c" offset=".1825"/>
  <stop id="stop21" stop-color="#504f53" offset="1"/>
 </linearGradient>
 <linearGradient id="e" x1="50.62" x2="73.943" y1="1124.5" y2="1124.5" gradientTransform="matrix(1.3229 0 0 -1.3229 180.83 1734.8)" gradientUnits="userSpaceOnUse" xlink:href="#d"/>
 <clipPath id="f">
  <path id="path25" width="100%" height="100%" d="m113.8 137.4h330.5v330.5h-330.5z"/>
 </clipPath>
 <clipPath id="g">
  <path id="path28" width="100%" height="100%" d="m259.3 192.9c-9.3 0-14.7 3.5-16.7 8.4-1.9 4.6-1.8 8.9-1.8 9.5l0.3 1.1-0.7-1h-0.6l1 1.9h0.6s0.1-4.2 0.9-6.8c1.3-4.9 4.3-8.1 9-9.7 4.2-1.3 12.2-2.1 17.9 0.3 5.8 2.5 7.4 7 7.5 9.1v-1.7c-0.3-5.6-5.4-11-16.7-11.2-0.2 0.1-0.5 0.1-0.7 0.1"/>
 </clipPath>
 <linearGradient id="h" x1="37.434" x2="60.749" y1="1162.2" y2="1162.2" gradientTransform="matrix(1.5844 0 0 -1.5844 180.49 2044.3)" gradientUnits="userSpaceOnUse">
  <stop id="stop31" stop-color="#3a383c" offset="0"/>
  <stop id="stop33" stop-color="#3a383c" offset=".6008"/>
  <stop id="stop35" stop-color="#504f53" offset="1"/>
 </linearGradient>
 <clipPath id="i">
  <path id="path38" width="100%" height="100%" d="m240.9 208.9-0.4 1.9h-30.2l0.3 2h30.9v-2z"/>
 </clipPath>
 <linearGradient id="j" x1="23.175" x2="46.497" y1="1151.3" y2="1151.3" gradientTransform="matrix(1.3399 0 0 -1.3399 179.22 1753.5)" gradientUnits="userSpaceOnUse">
  <stop id="stop41" stop-color="#504f53" offset="0"/>
  <stop id="stop43" stop-color="#3a383c" offset=".7067"/>
  <stop id="stop45" stop-color="#3a383c" offset="1"/>
 </linearGradient>
 <clipPath id="k">
  <path id="path48" width="100%" height="100%" d="m299.6 222.7c-3.7 3.6-7.1 4.1-7.1 4.1s0.9 0.4 2.3 0.9c7.1-3.5 10.6-10.9 12-17.4-1.4 5.4-4.8 10.1-7.2 12.4"/>
 </clipPath>
 <linearGradient id="l" x1="-43.245" x2="-19.925" y1="968.64" y2="968.64" gradientTransform="matrix(.1921 -.5529 -.5529 -.1921 841.27 387.67)" gradientUnits="userSpaceOnUse" xlink:href="#d"/>
 <clipPath id="m">
  <path id="path52" width="100%" height="100%" d="m113.8 137.4h330.5v330.5h-330.5z"/>
 </clipPath>
 <clipPath id="n">
  <path id="path55" width="100%" height="100%" d="m273.3 342c-1.5-1.6-2.2-3.6-2.2-6.2 0-3.5 1.3-6.6 3.8-9.2 2.1-2.1 4.5-3.1 7.3-3.1 2.7 0 4.7 0.8 6.2 2.4s2.2 3.6 2.2 6.2c0 1.7-0.3 3.3-1 4.9-0.7 1.7-1.6 3.1-2.8 4.2-2.1 2.1-4.5 3.1-7.3 3.1-2.7 0.1-4.7-0.7-6.2-2.3m-6.4-21.3c-2.1 2.1-3.8 4.6-4.9 7.4-1.2 2.8-1.7 5.6-1.7 8.6 0 4.9 1.7 9 5.1 12.3s7.8 4.9 13.2 4.9c6.2 0 11.6-2.2 16.1-6.6 2.1-2.1 3.8-4.6 4.9-7.4 1.2-2.8 1.8-5.7 1.8-8.6 0-5-1.7-9-5.1-12.3-3.4-3.2-7.8-5.2-13.2-5.2-6.4 0-11.7 2.5-16.2 6.9"/>
 </clipPath>
 <linearGradient id="o">
  <stop id="stop58" stop-color="#8b1722" offset="0"/>
  <stop id="stop60" stop-color="#9b1b25" offset=".1532"/>
  <stop id="stop62" stop-color="#c5262d" offset=".4519"/>
  <stop id="stop64" stop-color="#ee3135" offset=".7067"/>
  <stop id="stop66" stop-color="#ee3135" offset="1"/>
 </linearGradient>
 <linearGradient id="p" x1="-95.306" x2="-71.985" y1="1108.3" y2="1108.3" gradientTransform="matrix(.4144 -1.621 -1.621 -.4144 2111.9 657.73)" gradientUnits="userSpaceOnUse" xlink:href="#o"/>
 <clipPath id="q">
  <path id="path70" width="100%" height="100%" d="m113.8 137.4h330.5v330.5h-330.5z"/>
 </clipPath>
 <clipPath id="r">
  <path id="path73" width="100%" height="100%" d="m318.8 324h5.8c2.2 0 3.8 0.4 4.7 1.4 0.7 0.7 1 1.5 1 2.5 0 1.3-0.5 2.1-1.4 3-1.4 1.4-3.6 2.1-6.6 2.1h-6.1zm-8.2-9.7-10.6 38.6h11l3.1-11.7h4.7l5.1 11.7h11.8l-6-13c3.4-1 6-2.4 8-4.3 2.4-2.4 3.6-5.5 3.6-9.3 0-3.3-1-5.9-3-7.9-2.6-2.7-6.8-4.2-12.9-4.2h-14.8z"/>
 </clipPath>
 <linearGradient id="s" x1="-84.427" x2="-61.107" y1="1091.2" y2="1091.2" gradientTransform="matrix(.4553 -1.7088 -1.7088 -.4553 2218.3 706.58)" gradientUnits="userSpaceOnUse" xlink:href="#o"/>
 <clipPath id="t">
  <path id="path77" width="100%" height="100%" d="m113.8 137.4h330.5v330.5h-330.5z"/>
 </clipPath>
 <clipPath id="u">
  <path id="path80" width="100%" height="100%" d="m239 323.7h4c2.1 0 3.6 0.5 4.5 1.4 0.7 0.7 1 1.8 1 2.5 0.1 1.5-0.4 2.7-1.4 3.8-1.5 1.4-3.8 2.4-6.7 2.4h-4.1zm-8.5-9.2-10.4 38.4h10.9l3-11.1h6.4c6.5 0 11.5-1.7 14.9-5.2 2.8-2.7 4.1-6.2 4.1-10.3 0-3.2-1-5.8-3-7.8-2.7-2.7-7-4.1-13.2-4.1h-12.7z"/>
 </clipPath>
 <linearGradient id="v" x1="-100.54" x2="-77.215" y1="1130" y2="1130" gradientTransform="matrix(.4377 -1.6202 -1.6202 -.4377 2109.3 685.63)" gradientUnits="userSpaceOnUse" xlink:href="#o"/>
 <clipPath id="w">
  <path id="path84" width="100%" height="100%" d="m194.6 318.5c-2.3 2.3-3.8 5.1-3.8 8.4 0 2.6 0.8 4.7 2.4 6.3 1.6 1.5 4.1 3 7.5 4.3 2.7 1 4.4 1.8 5.2 2.4s1.5 1.2 1.5 2c0 0.9-0.4 1.6-1.2 2.1s-1.8 0.8-3.1 0.8c-4.1 0-8.3-1.5-12.1-5l-6.6 6.8c4.4 4.7 10.3 7 17.8 7 5.4 0 9.7-1.5 12.8-4.6 2.4-2.4 3.6-5.3 3.6-8.7 0-2.7-0.8-4.5-2.5-6.2-1.7-1.6-4.2-3-7.5-4.3-2.8-1.1-4.5-1.9-5.3-2.3-0.8-0.5-1.1-1.1-1.1-1.9s0.4-1.5 1.2-2 1.7-0.7 3-0.7c3.5 0 6.9 1.4 10.1 4.2l6.6-7.6c-4-3.8-9.2-6-15.7-6-5.4 0.1-9.7 1.9-12.8 5"/>
 </clipPath>
 <linearGradient id="x" x1="-94.208" x2="-70.887" y1="1143.6" y2="1143.6" gradientTransform="matrix(.6506 -1.6784 -1.6784 -.6506 2176.9 939.03)" gradientUnits="userSpaceOnUse" xlink:href="#o"/>
 <clipPath id="y">
  <path id="path88" width="100%" height="100%" d="m193.9 318.3c-2.4 2.4-3.7 5.1-3.7 8.4 0 2.7 0.9 5.3 2.6 6.9s3.6 3.1 7.2 4.5c2.8 1 4.1 1.7 5.1 2 1.6 0.6 2.3 2.4 0.8 3.3-0.9 0.5-1.7 0.7-3.1 0.7-4.3 0-7.6-2-11.6-5.5l-7.5 8.1c4.6 4.8 10.7 7.9 18.5 7.7 6.9-0.1 10.8-2.1 14-5.3 2.5-2.4 3.3-5.4 3.3-8.8 0-2.7-1.2-4.9-2.8-6.5s-4.4-3.7-7.9-4.7c-2.8-0.8-4.1-1.4-4.9-1.9s-1.4-1.4-1.2-2.2c0.4-1.4 2.3-1.7 3.6-1.6 4.4 0.2 6.7 1.8 10.1 4.6l7.4-8.3c-4.2-3.9-9.6-6.4-16.4-6.4-5.5 0.1-10.2 1.9-13.5 5"/>
 </clipPath>
 <linearGradient id="z">
  <stop id="stop91" stop-color="#721617" offset="0"/>
  <stop id="stop93" stop-color="#971b1e" offset=".3226"/>
  <stop id="stop95" stop-color="#bf2126" offset=".7067"/>
  <stop id="stop97" stop-color="#bf2126" offset="1"/>
 </linearGradient>
 <linearGradient id="A" x1="-99.077" x2="-75.756" y1="1148.3" y2="1148.3" gradientTransform="matrix(.5288 -1.6868 -1.6868 -.5288 2187 793.99)" gradientUnits="userSpaceOnUse" xlink:href="#z"/>
 <clipPath id="B">
  <path id="path101" width="100%" height="100%" d="m113.8 137.4h330.5v330.5h-330.5z"/>
 </clipPath>
 <clipPath id="C">
  <path id="path104" width="100%" height="100%" d="m365.9 324.1h11.5l3-10.1h-33.9l-2.7 10.1h11.4l-7.5 28.8h10.7z"/>
 </clipPath>
 <linearGradient id="D" x1="-77.822" x2="-54.501" y1="1064.3" y2="1064.3" gradientTransform="matrix(.4846 -1.6513 -1.6513 -.4846 2151.2 741.36)" gradientUnits="userSpaceOnUse" xlink:href="#o"/>
 <clipPath id="E">
  <path id="path108" width="100%" height="100%" d="m366.7 324.4h11.4l2.8-10.4h-34.8l-3 10.6h11.4l-7.7 29.1h11.9z"/>
 </clipPath>
 <linearGradient id="F" x1="-75.964" x2="-52.644" y1="1068.8" y2="1068.8" gradientTransform="matrix(.4964 -1.7104 -1.7104 -.4964 2221.7 755.44)" gradientUnits="userSpaceOnUse" xlink:href="#z"/>
 <clipPath id="G">
  <path id="path112" width="100%" height="100%" d="m319.2 324.4h5.3c2 0 3.4 0.4 4.2 1.2 0.7 0.6 1 1.4 1 2.3 0 1.2-0.4 1.9-1.3 2.7-1.3 1.3-3.2 1.9-6 1.9h-5.5zm-9-10.4-10.8 39.7h12.1l3.1-11.4h3.8l5 11.4h13.2l-6-13c3.5-1 5.3-2.4 7.4-4.3 2.8-2.5 3.9-6.2 3.9-10.1 0-3.4-1.3-6-3.2-8.1-2.5-2.7-7.7-4.2-13.3-4.2z"/>
 </clipPath>
 <linearGradient id="H" x1="-81.244" x2="-57.924" y1="1093.6" y2="1093.6" gradientTransform="matrix(.4797 -1.7573 -1.7573 -.4797 2276 735.59)" gradientUnits="userSpaceOnUse" xlink:href="#z"/>
 <clipPath id="I">
  <path id="path116" width="100%" height="100%" d="m273.7 341.5c-1.4-1.5-2.1-3.4-2.1-5.8 0-3.4 1.2-6.2 3.6-8.7 1.9-1.9 4.2-2.9 6.8-2.9 2.5 0 4.5 0.7 5.9 2.2s2.1 3.4 2.1 5.8c0 1.6-0.3 3.1-1 4.7-0.6 1.5-1.5 2.9-2.6 4-1.9 2-4.2 3-6.9 3-2.4 0-4.4-0.8-5.8-2.3m-7-21.1c-2.1 2.1-3.8 4.7-5 7.5s-1.8 5.8-1.8 8.8c0 5.1 1.7 9.3 5.2 12.6s8 5 13.5 5c6.4 0 11.8-2.3 16.4-6.8 2.1-2.2 3.8-4.7 5-7.6 1.2-2.8 1.8-5.8 1.8-8.8 0-5.1-1.7-9.2-5.2-12.5s-8-5-13.5-5c-6.4 0-11.9 2.3-16.4 6.8"/>
 </clipPath>
 <linearGradient id="J" x1="-83.724" x2="-60.404" y1="1108.5" y2="1108.5" gradientTransform="matrix(.5677 -1.705 -1.705 -.5677 2211.9 840.34)" gradientUnits="userSpaceOnUse" xlink:href="#z"/>
 <clipPath id="K">
  <path id="path120" width="100%" height="100%" d="m239.4 324.3h3.6c1.9 0 3.1 0.4 3.9 1.3 0.7 0.7 0.9 1.5 0.9 2.2 0.1 1.3-0.4 2.4-1.3 3.4-1.4 1.3-3.2 1.9-5.9 1.9h-3.6zm-9.2-10.2-10.7 39.5h12.1l3.1-11.1h5.5c7.6-0.2 12.1-2.1 15.7-5.6 2.8-2.8 4-6.3 4-10.6 0-3.3-1-5.9-3.1-8-2.8-2.8-7.3-4.2-13.6-4.2z"/>
 </clipPath>
 <linearGradient id="L" x1="-95.858" x2="-72.538" y1="1132.2" y2="1132.2" gradientTransform="matrix(.4727 -1.6957 -1.6957 -.4727 2199.1 727.3)" gradientUnits="userSpaceOnUse" xlink:href="#z"/>
 <clipPath id="M">
  <path id="path124" width="100%" height="100%" d="m113.8 137.4h330.5v330.5h-330.5z"/>
 </clipPath>
 <clipPath id="N">
  <path id="path127" width="100%" height="100%" d="m113.8 137.4h330.5v330.5h-330.5z"/>
 </clipPath>
 <clipPath id="O">
  <path id="path130" width="100%" height="100%" d="m113.8 137.4h330.5v330.5h-330.5z"/>
 </clipPath>
 <clipPath id="P">
  <path id="path133" width="100%" height="100%" d="m297.3 181.3c3.8 0 7.8 0.6 11.3 1.5 52.6 13.7 90 61.1 89.8 115.8-0.2 65.2-53.3 119-119.3 119s-119-53-119-119c0-42.3 21.7-79.5 54.9-100.8-1.7-0.7-4.3 0.3-6.2 1.6-30.8 21.5-51 58-51 98.7 0 67 54.4 121.3 121.5 121.3s121.5-54.3 121.5-121.3c0-60.1-43.7-109.9-101.1-119.6z"/>
 </clipPath>
 <linearGradient id="Q" x1="-7.9692" x2="15.351" y1="1174.4" y2="1174.4" gradientTransform="matrix(9.2746 -4.1685 -4.1685 -9.2746 5140.4 11206)" gradientUnits="userSpaceOnUse">
  <stop id="stop136" stop-color="#b1b1b3" offset="0"/>
  <stop id="stop138" stop-color="#b1b1b3" offset=".072826"/>
  <stop id="stop140" stop-color="#979798" offset=".5593"/>
  <stop id="stop142" stop-color="#838384" offset="1"/>
 </linearGradient>
 <clipPath id="R">
  <path id="path145" width="100%" height="100%" d="m180 223.6s0.3 2.5 1.7 0.2c3.4-4.8 6.5-9.8 9.6-13.2-3.5 3.3-9.7 10.8-11.3 13"/>
 </clipPath>
 <linearGradient id="S" x1="63.982" x2="87.302" y1="1250.3" y2="1250.3" gradientTransform="matrix(-.3335 .5387 .5387 .3335 -463.1 -238.71)" gradientUnits="userSpaceOnUse">
  <stop id="stop148" stop-color="#e6e5e6" offset="0"/>
  <stop id="stop150" stop-color="#d4d3d4" offset=".1295"/>
  <stop id="stop152" stop-color="#a09fa0" offset=".5311"/>
  <stop id="stop154" stop-color="#7f7f7f" offset=".8336"/>
  <stop id="stop156" stop-color="#737373" offset="1"/>
 </linearGradient>
 <clipPath id="T">
  <path id="path159" width="100%" height="100%" d="m358.9 355.5c-0.2 0.2-0.3 0.5-0.4 0.8-1.2 2.3-8.9 13.4-12.1 15.4-3.9 2.3-6.8 6.5-10.8 9.9 0 0 6.1-4.6 7.2-5.7 1-1 5.2-4.5 6.7-6.2 1.6-1.7 8.3-8.9 10.7-13.1 2.7-4.3 6.4-11 10.1-21.5-1 2.8-10.4 18.9-11.4 20.4m11.4-20.5v0 0"/>
 </clipPath>
 <linearGradient id="U" x1="-37.723" x2="-14.402" y1="1090.4" y2="1090.4" gradientTransform="matrix(1.3848 -2.0434 -2.0434 -1.3848 2617.5 1814.4)" gradientUnits="userSpaceOnUse">
  <stop id="stop162" stop-color="#1f2021" offset="0"/>
  <stop id="stop164" stop-color="#1f2021" offset=".072826"/>
  <stop id="stop166" stop-color="#171718" offset=".7067"/>
  <stop id="stop168" stop-color="#171718" offset="1"/>
 </linearGradient>
 <clipPath id="V">
  <path id="path171" width="100%" height="100%" d="m113.8 137.4h330.5v330.5h-330.5z"/>
 </clipPath>
 <clipPath id="W">
  <path id="path174" width="100%" height="100%" d="m113.8 137.4h330.5v330.5h-330.5z"/>
 </clipPath>
 <clipPath id="X">
  <path id="path177" width="100%" height="100%" d="m275.6 198.3c-50.7 1.5-90.2 39.6-96.8 84.3 8.9-46.7 50.4-82.1 98.7-82.1 8.9 0 17.5 1.1 25.7 3.3v-3c-7.1-1.9-15.9-2.6-23.9-2.6-1.2 0.1-2.5 0.1-3.7 0.1"/>
 </clipPath>
 <linearGradient id="Y" x1="-12.57" x2="10.751" y1="1166.5" y2="1166.5" gradientTransform="matrix(3.3667 -2.5379 -2.5379 -3.3667 3199.9 4168.8)" gradientUnits="userSpaceOnUse">
  <stop id="stop180" stop-color="#4b4b4c" offset="0"/>
  <stop id="stop182" stop-color="#4b4b4c" offset=".2849"/>
  <stop id="stop184" stop-color="#2e2d2e" offset=".5866"/>
  <stop id="stop186" stop-color="#2e2d2e" offset="1"/>
 </linearGradient>
 <clipPath id="Z">
  <path id="path189" width="100%" height="100%" d="m113.8 137.4h330.5v330.5h-330.5z"/>
 </clipPath>
 <clipPath id="aa">
  <path id="path192" width="100%" height="100%" d="m286.3 303.9c-0.3 0.7-2.1 4.4-1 10.2 0.6 3.1-0.4 5.9-0.4 9.1-0.1 5.9 1.9 16.7 1.9 18.7s-1.2 13.4-1.2 13.4-0.6 0.9-1.6 0.8-1.4 5.6-1.4 5.6-4.6 0.4-5.1 0.2c-0.6-0.2 1.7 2 1.3 3.8-0.1 0.9-1 0.4-2.4 0.4-0.6 0 0.6 1.5 0.6 7.4 0 1.9 0.5 8 0.5 8s-1-0.8-1-0.5c0.9 10.3-0.8 21-0.5 21.2 2 1.6 2.9 1.1 8.9 1.1 5.9 0 14.7-1.9 17.7-2.5 12.6-2.8 27-9.7 33.4-14.6 6.4-5 14.5-11.7 19.1-17.4 5.6-6.8 8.3-9.6 14.9-21.8 5.2-9.6 8.9-24.7 8.9-24.7-1.5-1.8-30.1-17.4-33.3-19.6-1-0.7-6.9-1-14.7-1-17.5 0-44.3 1.4-44.6 2.2"/>
 </clipPath>
 <linearGradient id="ab" x1="-46.918" x2="-23.598" y1="1154.6" y2="1154.6" gradientTransform="matrix(.6802 -4.6458 -4.6458 -.6802 5714.9 976.67)" gradientUnits="userSpaceOnUse">
  <stop id="stop195" stop-color="#353437" offset="0"/>
  <stop id="stop197" stop-color="#353437" offset=".072826"/>
  <stop id="stop199" stop-color="#272628" offset=".4171"/>
  <stop id="stop201" stop-color="#171718" offset=".7067"/>
  <stop id="stop203" stop-color="#171718" offset="1"/>
 </linearGradient>
 <clipPath id="ac">
  <path id="path206" width="100%" height="100%" d="m113.8 137.4h330.5v330.5h-330.5z"/>
 </clipPath>
 <clipPath id="ad">
  <path id="path209" width="100%" height="100%" d="m113.8 137.4h330.5v330.5h-330.5z"/>
 </clipPath>
 <clipPath id="ae">
  <path id="path212" width="100%" height="100%" d="m113.8 137.4h330.5v330.5h-330.5z"/>
 </clipPath>
 <clipPath id="af">
  <path id="path215" width="100%" height="100%" d="m113.8 137.4h330.5v330.5h-330.5z"/>
 </clipPath>
 <clipPath id="ag">
  <path id="path218" width="100%" height="100%" d="m243.5 218.8c-8.7 6.6-26.7 23.8-35 38.3-20.1 35.2-1 106.9 2.2 113.1 3.3 6.2 23.2 19.5 43.8 26.6 20.6 7 37.4 2.4 44.2 2s4-48.6 3.9-62.8 13.7-82.8 12.1-94.8-9.1-26.5-25.9-32.6c-3.7-1.3-7.6-1.9-11.4-1.9-13.5-0.1-27.1 6.9-33.9 12.1"/>
 </clipPath>
 <linearGradient id="ah" x1="-31.427" x2="-8.1065" y1="1180.7" y2="1180.7" gradientTransform="matrix(.2019 -7.5881 -7.5881 -.2019 9215.1 407.16)" gradientUnits="userSpaceOnUse">
  <stop id="stop221" stop-color="#858686" offset="0"/>
  <stop id="stop223" stop-color="#858686" offset=".072826"/>
  <stop id="stop225" stop-color="#676868" offset=".3269"/>
  <stop id="stop227" stop-color="#1b1a1b" offset="1"/>
 </linearGradient>
 <clipPath id="ai">
  <path id="path230" width="100%" height="100%" d="m113.8 137.4h330.5v330.5h-330.5z"/>
 </clipPath>
 <clipPath id="aj">
  <path id="path233" width="100%" height="100%" d="m199 216.3c23-20.3 53.3-26.7 80-25 11.6 0.7 21.7 2.3 32.1 6.3 3.2 1.2 3.9 1.3 6.8 3 1.4 0.9 5.8 2.5 7.5 3.6 1.6 1.1 3 2.2 4.9 2.9s2 2.1 4.6 3.1c1.6 0.7 2.7 2.7 5.2 3.9 1.7 0.9 2.1 2.1 4.4 3.5 1.4 0.9 2.3 2.1 3.5 3.3l2.7 2.4 3.4 3.4c17.4 19.2 29.1 44.1 29.1 72.5 0 43.7-25.4 81.2-61.8 97.9-7.6 3.5-22.9 11.1-50.7 10.9-29.9-0.2-53.9-15.6-53.9-15.6-12-6.6-20.8-16.3-20.8-16.3s1.7 2.1 6.3 6.8c-8.9-7.4-12.8-12.5-12.8-12.5 11.9 21 49.3 45.1 89.8 45.1 65.6 0 117.5-53.8 117.5-117.1 0-65.8-53-117.3-117.8-117.3-32.2 0.2-70.8 20.8-80 35.2"/>
 </clipPath>
 <radialGradient id="ak" cx="20.871" cy="1164.1" r="23.32" gradientTransform="matrix(5.1175 0 0 -5.3697 182.62 6555.3)" gradientUnits="userSpaceOnUse">
  <stop id="stop236" stop-color="#464647" offset="0"/>
  <stop id="stop238" stop-color="#464647" offset=".7857"/>
  <stop id="stop240" stop-color="#4f4f50" offset=".8113"/>
  <stop id="stop242" stop-color="#686869" offset=".8535"/>
  <stop id="stop244" stop-color="#909091" offset=".9069"/>
  <stop id="stop246" stop-color="#c7c7c8" offset=".9688"/>
  <stop id="stop248" stop-color="#e6e5e6" offset="1"/>
 </radialGradient>
 <clipPath id="al">
  <path id="path251" d="m677.49 407.17a271.83 272 0 0 0-271.83-272 271.83 272 0 0 0-271.83 272 271.83 272 0 0 0 271.83 272 271.83 272 0 0 0 271.83-272z"/>
 </clipPath>
 <filter id="am" x="-.060019" y="-.059981" width="1.12" height="1.12" color-interpolation-filters="sRGB">
  <feGaussianBlur id="feGaussianBlur254" stdDeviation="13.595726"/>
 </filter>
 <clipPath id="an">
  <path id="path257" d="m381.48 678.12c-14.405-1.26-28.488-3.642-42.163-7.06-48.516-12.126-91.872-37.283-126.13-71.534-2.786-2.786-5.511-5.63-8.174-8.533-7.093-7.73-13.744-15.873-19.913-24.387-3.374-4.653-6.26-9.63-9.338-14.5-26.556-42.003-41.927-91.782-41.927-145.15 0-0.653 2e-3 -1.305 6e-3 -1.955 0.381-54.028 16.171-104.1 43.691-146.28 6.631-10.162 13.923-19.854 21.816-29.014 4.423-5.135 9.036-10.101 13.825-14.891 34.262-34.258 77.621-59.418 126.14-71.547 13.675-3.419 27.759-5.802 42.166-7.061 7.911-0.693 15.921-1.046 24.013-1.046 9.458 0 18.802 0.483 28.012 1.426 25.631 2.621 50.208 8.803 73.229 18.04 24.605 9.873 47.432 23.237 67.868 39.482 4.537 3.606 8.958 7.355 13.255 11.24 3.397 3.071 6.716 6.228 9.955 9.466 4.789 4.79 9.402 9.756 13.825 14.891 7.893 9.16 15.185 18.852 21.816 29.014 27.52 42.174 43.651 92.458 44.032 146.49 5e-3 0.651 7e-3 1.303 7e-3 1.955 0 53.37-15.371 103.15-41.926 145.15-3.079 4.869-6.308 9.634-9.681 14.287-6.17 8.514-12.82 16.657-19.913 24.387-2.663 2.903-5.389 5.747-8.174 8.533-3.238 3.237-6.558 6.392-9.955 9.464-4.295 3.884-8.715 7.632-13.254 11.238-20.435 16.241-43.261 29.603-67.863 39.474-23.019 9.236-47.594 15.416-73.223 18.038-9.209 0.942-18.553 1.426-28.01 1.426-8.091 0-16.099-0.354-24.01-1.046"/>
 </clipPath>
 <g id="g684" transform="matrix(1.3333 0 0 -1.3333 -1916.3 356.27)">
  <path id="path260" d="m1980.9-4.794a271.83 272 0 0 0-271.83-272 271.83 272 0 0 0-271.83 272 271.83 272 0 0 0 271.83 272 271.83 272 0 0 0 271.83-272z" fill="#f0f0f0"/>
  <g id="g682" transform="translate(1303.4 -411.96)" clip-path="url(#al)" filter="url(#am)">
   <g id="g680" clip-path="url(#an)">
    <g id="g678" transform="scale(1 -1)">
     <path id="path262" d="m213.17-214.82c-4.7896-4.7891-9.4018-9.7559-13.826-14.891 9.0806 8.1865 18.394 15.629 27.957 22.421 5.5034 5.8955 7.9409 11.773 13.209 16.396-9.6411-7.3652-18.775-15.361-27.341-23.926z" fill="#f0f0f0"/>
     <path id="path264" d="m240.51-190.9c-5.2681-4.6221-7.7056-10.5-13.209-16.396 9.564 6.792 19.378 12.934 29.46 18.516 7.8789 7.5674 7.8115 13.77 14.132 18.026-10.594-6.0449-20.742-12.78-30.383-20.146z" fill="#e0dfe2"/>
     <path id="path266" d="m270.89-170.75c-6.3203-4.2568-6.2529-10.459-14.132-18.026 10.082 5.583 20.432 10.606 31.068 15.164 10.254 9.2393 8.7476 14.968 16.121 18.858-11.423-4.5996-22.463-9.9522-33.057-15.996z" fill="#d4d3d9"/>
     <path id="path268" d="m303.95-154.75c-7.373-3.8906-5.8667-9.6191-16.121-18.858 10.635 4.5576 21.557 8.6484 32.781 12.364 11.333 10 10.85 14.248 18.701 17.973-12.13-3.0322-23.937-6.8789-35.361-11.479z" fill="#cdcbd3"/>
     <path id="path270" d="m339.31-143.28c13.675 3.419 27.759 5.8018 42.166 7.0615-5.8848-2.3848 2.27-6.3721-5.9892-12.656-16.359-1.4463-38.08-6.836-54.877-12.378 11.333 10 10.85 14.248 18.701 17.973z" fill="#cbc9d1"/>
     <path id="path272" d="m381.48-136.21c7.9116 0.69238 15.921 1.0459 24.012 1.0459-4.272-2.9688-2.4448-9.8662-7.7842-15.056-6.5552 1.29-13.173 2.1533-22.217 1.3535 8.2593 6.2842 0.10449 10.271 5.9892 12.656z" fill="#cbc9d1"/>
     <path id="path274" d="m405.49-135.17c9.458 0 18.803-0.48242 28.013-1.4258-2.207-3.6729-7.5845-13.991-9.3335-17.926-11.244 0.70312-18.811 2.79-26.463 4.2959 5.3394 5.1894 3.5122 12.087 7.7842 15.056z" fill="#cbc9d1"/>
     <path id="path276" d="m433.5-136.59c25.631-2.6211 50.208-8.8027 73.229-18.041-10.108-1.5478-11.155-10.109-8.0771-16.806-23.512 8.7402-47.569 15.268-74.486 16.921 1.749 3.9346 7.1264 14.253 9.3335 17.926z" fill="#cbc9d1"/>
     <path id="path278" d="m506.73-154.63c24.604-9.873 47.432-23.236 67.867-39.48-8.6084-0.0772-15.369-3.4824-10.703-9.1856-21.182 15.369-40.115 22.519-65.241 31.86-3.0776 6.6963-2.0308 15.258 8.0771 16.806z" fill="#cbc9d1"/>
     <path id="path280" d="m574.6-194.12c4.5381-3.6064 8.9585-7.3564 13.255-11.24 4.6714-4.8535 8.7915-9.0596 12.186-16.553-4.8403 3.1299-31.486 15.195-36.144 18.607-4.666 5.7031 2.0947 9.1084 10.703 9.1856z" fill="#cbc9d1"/>
     <path id="path282" d="m587.85-205.36c3.3974-3.0723 6.7168-6.2285 9.9551-9.4668 4.79-4.7891 9.4023-9.7559 13.826-14.891-3.333 3.0644-8.6699 5.9111-11.596 7.8047-3.394 7.4932-7.5142 11.699-12.186 16.553z" fill="#cbc9d1"/>
     <path id="path284" d="m199.35-229.71c-3.9458-4.5801-7.7422-9.293-11.38-14.131 3.6602-1.7539 7.7554-2.2148 12.392-1.5557 9.8213 15.924 20.582 31.565 26.946 38.107-9.5635-6.792-18.877-14.234-27.957-22.421z" fill="#f0f0f0"/>
     <path id="path286" d="m227.3-207.29c9.564 6.792 19.378 12.934 29.46 18.516-5.8418-5.4287-12.731-13.141-19.812-22.071-7.5454-3.8301-14.705-7.749-21.825-11.98 4.7134 6.7178 8.9946 12.265 12.177 15.535z" fill="#e0dfe2"/>
     <path id="path288" d="m215.13-222.83c7.1196 4.2305 14.279 8.1494 21.825 11.98-7.081-8.9316-14.353-19.082-20.96-29.389-5.8218-2.7256-10.998-4.5039-15.634-5.1631 4.9106 7.9619 10.056 15.854 14.77 22.572z" fill="#e2e2e5"/>
     <path id="path290" d="m187.97-243.84c7.3203-3.5078 16.382-1.8428 28.025 3.6074-6.6074-10.308-12.55-20.771-16.972-30.328-10.072-2.8643-16.524 2.1953-16.392 19.37 1.7392 2.4805 3.519 4.9316 5.3384 7.3506z" fill="#f0f0f0"/>
     <path id="path292" d="m182.63-251.19c-0.13282-17.175 6.3193-22.234 16.392-19.37-4.4214-9.5576-7.3228-18.208-7.8467-24.89-10.627 1.7676-17.162 13.34-13.641 36.728 1.6577 2.541 3.3569 5.0518 5.0962 7.5322z" fill="#f0f0f0"/>
     <path id="path294" d="m256.76-188.78c10.082 5.583 20.432 10.606 31.068 15.164-8.502-7.5879-17.716-16.336-26.74-25.786-8.6636-3.8779-16.595-7.6191-24.14-11.449 7.0806 8.9307 13.97 16.643 19.812 22.071z" fill="#d4d3d9"/>
     <path id="path296" d="m236.95-210.85c7.5454 3.8301 15.477 7.5713 24.14 11.449-9.0234-9.4512-17.855-19.603-25.593-29.998-7.2182-4.4434-13.686-8.1152-19.507-10.84 6.6074 10.307 13.879 20.457 20.96 29.389z" fill="#d9d7dc"/>
     <path id="path298" d="m287.83-173.61c10.635 4.5576 21.557 8.6484 32.781 12.364-9.7109-8.5684-20.421-17.153-30.987-25.888-10.474-4.373-19.87-8.3857-28.534-12.263 9.0234 9.4502 18.238 18.198 26.74 25.786z" fill="#cdcbd3"/>
     <path id="path300" d="m261.09-199.4c8.6636 3.877 18.06 7.8896 28.534 12.263-10.565-8.7344-20.985-17.618-30.116-26.784-8.8242-5.8154-16.793-11.032-24.011-15.477 7.7378 10.396 16.57 20.547 25.593 29.998z" fill="#d3d1d7"/>
     <path id="path302" d="m215.99-240.24c11.644 5.4502 25.87 14.685 43.519 26.316-9.1299-9.165-16.97-18.613-22.375-28.475-14.35-14.518-28.043-25.306-38.116-28.17 4.4219 9.5576 10.365 20.021 16.972 30.328z" fill="#e2e1e4"/>
     <path id="path304" d="m199.02-270.56c10.073 2.8642 23.766 13.652 38.116 28.17-5.4053-9.8613-8.3755-20.138-7.7656-30.961-12.85-15.83-27.569-23.867-38.197-22.099 0.52392 6.6816 3.4253 15.332 7.8467 24.89z" fill="#ecebec"/>
     <path id="path306" d="m320.61-161.25c16.797 5.542 38.519 10.932 54.877 12.378-6.7803-5.1133-14.651-10.85-22.634-16.975-19.105-3.8281-46.577-13.56-63.23-21.291 10.565 8.7344 21.276 17.319 30.987 25.888z" fill="#cbc9d1"/>
     <path id="path308" d="m289.62-187.14c16.653 7.7314 44.124 17.463 63.23 21.291-7.9834-6.125-16.079-12.64-23.31-19.311-25.147-9.0693-53.702-16.216-70.036-28.765 9.1304 9.166 19.55 18.05 30.116 26.784z" fill="#d1cfd6"/>
     <path id="path310" d="m259.51-213.92c16.334 12.549 44.889 19.695 70.036 28.765-7.2305-6.6709-13.596-13.497-18.118-20.246-31.189-14.31-58.278-19.627-74.293-36.993 5.4048 9.8613 13.245 19.31 22.375 28.475z" fill="#dedde1"/>
     <path id="path312" d="m237.13-242.39c16.016 17.366 43.104 22.684 74.293 36.993-4.522-6.75-7.2012-13.422-7.0591-19.783-33.936-16.691-59.129-28.615-75-48.171-0.60987 10.823 2.3604 21.1 7.7656 30.961z" fill="#eaeaeb"/>
     <path id="path314" d="m375.49-148.87c8.4282 0.74511 14.749 0.0469 20.876-1.0957-4.4883-4.251-9.0142-8.2695-13.253-12.223-9.9062-0.48633-20.413-1.6836-30.257-3.6562 7.9834 6.125 15.854 11.861 22.634 16.975z" fill="#cbc9d1"/>
     <path id="path316" d="m352.85-165.84c9.8442 1.9727 20.351 3.1699 30.257 3.6562-4.2383-3.9541-8.1899-7.8438-11.528-11.839-13.791-2.5762-29.079-6.4541-42.039-11.128 7.2305 6.6709 15.326 13.186 23.31 19.311z" fill="#d1cfd6"/>
     <path id="path318" d="m329.55-185.16c6.4795 2.3369 13.541 4.4746 20.708 6.3506-5.3159-5.2422-9.8457-10.624-12.99-16.187-8.9516-3.2022-17.798-6.7236-25.835-10.41 4.522 6.749 10.887 13.575 18.118 20.246z" fill="#dedde1"/>
     <path id="path320" d="m311.43-205.4c8.0371 3.6865 16.884 7.208 25.835 10.41-3.1436-5.5635-4.9018-11.307-4.6748-17.272-9.7954-4.2041-19.474-8.6201-28.22-12.921-0.14209 6.3613 2.5371 13.033 7.0591 19.783z" fill="#eaeaeb"/>
     <path id="path322" d="m350.25-178.8c7.1655 1.876 14.436 3.4893 21.331 4.7774-3.3389-3.9951-6.0644-8.0957-7.8525-12.471-8.459-2.4092-17.516-5.292-26.468-8.4932 3.144 5.5625 7.6738 10.944 12.99 16.187z" fill="#dbdadf"/>
     <path id="path324" d="m337.26-194.99c8.9521 3.2012 18.009 6.084 26.468 8.4932-1.7881-4.376-2.6377-9.0264-2.2241-14.12-9.2119-3.4512-19.124-7.4424-28.919-11.646-0.22705 5.9658 1.5312 11.709 4.6748 17.272z" fill="#e7e6e8"/>
     <path id="path326" d="m396.36-149.97c6.1269-1.1426 12.06-2.7285 19.712-3.7588-2.1953-3.3887-4.354-6.332-6.314-9.0801-7.4399 0.875-16.745 1.1016-26.651 0.61621 4.2388 3.9531 8.7646 7.9717 13.253 12.223z" fill="#cbc9d1"/>
     <path id="path328" d="m383.11-162.19c9.9062 0.48535 19.211 0.25879 26.651-0.61621-1.96-2.748-3.7212-5.3008-5.123-7.9082-6.9717 0.53516-19.266-0.73828-33.057-3.3144 3.3384 3.9951 7.29 7.8848 11.528 11.839z" fill="#cecdd4"/>
     <path id="path330" d="m371.58-174.03c6.8955 1.2881 13.417 2.251 19.085 2.8242-1.8496-3.0703-3.2607-6.2119-4.0591-9.6406-6.5591-1.3096-14.42-3.2461-22.879-5.6543 1.7881 4.375 4.5137 8.4756 7.8525 12.471z" fill="#d6d5da"/>
     <path id="path332" d="m363.73-186.5c8.459 2.4082 16.32 4.3447 22.879 5.6543-0.79833-3.4297-0.98437-7.1475-0.38427-11.371-6.9951-2.042-15.507-4.9531-24.719-8.4033-0.41357 5.0938 0.43604 9.7441 2.2241 14.12z" fill="#dedde1"/>
     <path id="path334" d="m390.67-171.2c-3.6997-6.1406-5.6436-12.564-4.4434-21.012 6.9951 2.043 12.474 3.2188 15.619 3.1982-1.3701 7.6553-7e-3 13.089 2.7954 18.304-3.4858 0.26758-8.3022 0.083-13.971-0.49023z" fill="#d0cfd5"/>
     <path id="path336" d="m416.08-153.72c2.4932-0.33594 5.1684-0.6123 8.0923-0.79492-6.0649-13.645-8.6006-17.379-5.7768-32.251-0.96094-0.10547-5.1851-2.3213-16.548-2.2461-2.7397 15.31 5.4507 21.737 14.232 35.292z" fill="#cbc9d1"/>
     <path id="path338" d="m424.17-154.52c26.917-1.6533 50.974-8.1807 74.486-16.921 5.4912-11.946-12.291-13.688-26.166-20.063-23.091 11.542-10.764 9.3994-54.097 4.7324-2.8237 14.872-0.28809 18.606 5.7768 32.251z" fill="#cbc9d1"/>
     <path id="path340" d="m498.66-171.44c2.7456-5.9736-0.32715-9.3955-5.8203-12.12 6.6406-2.918 13.924-6.0137 21.455-9.2461 3.6006 4.0996 5.1474 8.7734 2.1807 14.608-5.6396 2.2236-11.534 4.4219-17.815 6.7578z" fill="#cbc9d1"/>
     <path id="path342" d="m516.47-178.2c5.6392-2.2246 11.023-4.4736 16.284-6.9121 1.727-2.7656 2.874-5.7148 3.5752-8.7188-6.0464 2.6777-12.223 5.1973-18.487 7.6758 0.46582 2.4102 0.11084 5.0371-1.3726 7.9551z" fill="#cbc9d1"/>
     <path id="path344" d="m517.84-186.15c6.2637-2.4785 12.44-4.998 18.487-7.6758 0.70117-3.0039 0.95654-6.0625 0.8999-9.044-7.6304 3.4639-15.409 6.834-22.94 10.066 1.8003 2.0498 3.0874 4.2432 3.5532 6.6533z" fill="#cac8d0"/>
     <path id="path346" d="m492.84-183.56c-5.4936-2.7256-13.408-4.7549-20.345-7.9424 7-3.5 16.553-7.7871 27.296-12.469 5.2485 3.5391 10.903 7.0644 14.504 11.165-7.5308 3.2324-14.814 6.3281-21.455 9.2461z" fill="#cbc9d1"/>
     <path id="path348" d="m514.29-192.81c7.5312-3.2324 15.31-6.6025 22.94-10.066-0.0562-2.9824-0.42432-5.8877-0.96973-8.5869-9.6558 4.3975-19.476 8.7637-28.604 12.86 2.5195 1.8359 4.8335 3.7432 6.6338 5.793z" fill="#c7c6ce"/>
     <path id="path350" d="m507.66-198.6c9.1279-4.0967 18.948-8.4629 28.604-12.86-0.5459-2.6992-1.269-5.1924-2.0356-7.3477-11.761 5.0791-23.695 10.155-34.438 14.836 2.6245 1.7695 5.3501 3.5361 7.8701 5.3721z" fill="#c5c4cc"/>
     <path id="path352" d="m532.75-185.11c5.2607-2.4385 10.398-5.0645 15.545-8.042 1.9702-2.6133 3.8906-5.8154 5.7314-9.3086-5.7402 3.1162-11.655 5.9531-17.701 8.6318-0.70118 3.0039-1.8482 5.9531-3.5752 8.7188z" fill="#cbc9d1"/>
     <path id="path354" d="m536.33-193.83c6.0459-2.6787 11.961-5.5156 17.701-8.6318 1.8408-3.4932 3.6016-7.2764 5.2524-11.051-6.9399 3.6133-14.423 7.1738-22.054 10.639 0.0566 2.9814-0.19873 6.04-0.8999 9.044z" fill="#c7c6ce"/>
     <path id="path356" d="m548.3-193.15c5.146-2.9775 10.301-6.3057 15.597-10.148 2.0811-2.544 4.3833-5.8154 6.7866-9.4619-5.3462 3.791-10.912 7.1856-16.652 10.302-1.8408 3.4932-3.7612 6.6953-5.7314 9.3086z" fill="#cbc9d1"/>
     <path id="path358" d="m554.03-202.46c5.7402-3.1162 11.306-6.5107 16.652-10.302 2.4038-3.6475 4.9087-7.669 7.3955-11.712-5.4585 3.6807-11.855 7.3486-18.795 10.963-1.6509 3.7744-3.4116 7.5576-5.2524 11.051z" fill="#c5c4cc"/>
     <path id="path360" d="m537.23-202.87c7.6308-3.4648 15.114-7.0254 22.054-10.639 1.6509-3.7744 3.1914-7.541 4.5928-10.998-8.4697 4.2227-17.96 8.6514-27.616 13.05 0.54541 2.6992 0.91357 5.6045 0.96973 8.5869z" fill="#bfbfc8"/>
     <path id="path362" d="m536.26-211.46c9.6558-4.3984 19.146-8.8272 27.616-13.05 1.4009-3.457 2.6616-6.6064 3.7524-9.1484-10.054 4.6914-21.643 9.7725-33.404 14.851 0.7666 2.1553 1.4897 4.6484 2.0356 7.3477z" fill="#b7b8c2"/>
     <path id="path364" d="m559.28-213.51c6.9394-3.6143 13.336-7.2822 18.795-10.963 2.4868-4.044 4.9551-8.1084 7.2856-11.843-5.5703 3.5703-13.019 7.585-21.488 11.808-1.4014 3.457-2.9419 7.2236-4.5928 10.998z" fill="#b7b8c2"/>
     <path id="path366" d="m563.88-224.51c8.4692-4.2226 15.917-8.2373 21.488-11.808 2.3311-3.7334 4.5234-7.1357 6.459-9.8525-5.6211 3.5195-14.14 7.8203-24.194 12.512-1.0908 2.542-2.3516 5.6914-3.7524 9.1484z" fill="#aaadb8"/>
     <path id="path368" d="m563.9-203.3c1.1646-0.85254 3.7031-2.2471 6.9316-3.9062 1.9648-2.6084 4.4844-5.9629 7.2768-9.6953-3.1733 1.5869-5.834 3.0293-7.4219 4.1396-2.4033 3.6465-4.7056 6.918-6.7866 9.4619z" fill="#cbc9d1"/>
     <path id="path370" d="m570.68-212.76c1.5879-1.1104 4.2485-2.5527 7.4219-4.1396 2.793-3.7334 5.8584-7.8467 8.916-11.973-3.3169 1.2764-6.4228 2.7236-8.9424 4.4004-2.4868 4.043-4.9917 8.0645-7.3955 11.712z" fill="#c4c3cb"/>
     <path id="path372" d="m570.83-207.21c3.2285-1.6602 7.147-3.5859 11.071-5.5029 1.7104-2.75 4.0469-5.8828 6.7046-9.2041-3.6392 1.6914-7.3252 3.4238-10.499 5.0117-2.7925 3.7324-5.312 7.0869-7.2768 9.6953z" fill="#cbc9d1"/>
     <path id="path374" d="m578.1-216.9c3.1738-1.5879 6.8599-3.3203 10.499-5.0117 2.6572-3.3213 5.6352-6.8311 8.6274-10.336-3.3642 0.99316-6.8931 2.0996-10.21 3.375-3.0576 4.126-6.123 8.2393-8.916 11.973z" fill="#c5c4cc"/>
     <path id="path376" d="m578.08-224.47c2.5195-1.6768 5.6255-3.124 8.9424-4.4004 3.0581-4.126 6.1074-8.2646 8.8682-12.051-3.4976 0.93457-7.0732 2.3662-10.525 4.6084-2.3306 3.7344-4.7988 7.7988-7.2856 11.843z" fill="#b4b5bf"/>
     <path id="path378" d="m585.36-236.32c3.4517-2.2422 7.0273-3.6738 10.525-4.6084 2.7602-3.7861 5.2319-7.2197 7.1323-9.9336-3.5522 0.77051-7.3237 2.1895-11.198 4.6895-1.9355 2.7168-4.1279 6.1191-6.459 9.8525z" fill="#a3a7b3"/>
     <path id="path380" d="m587.02-228.88c3.3174-1.2754 6.8462-2.3818 10.21-3.375 2.9927-3.5049 5.999-7.0039 8.7139-10.305-3.1387 0.25586-6.5586 0.69434-10.056 1.6289-2.7607 3.7861-5.8101 7.9248-8.8682 12.051z" fill="#b7b8c2"/>
     <path id="path382" d="m595.89-240.93c3.4976-0.93457 6.9175-1.373 10.056-1.6289 2.7148-3.2998 5.1387-6.4004 6.9629-9.1074-3-0.0918-6.334 0.0312-9.8867 0.80273-1.9004 2.7139-4.3721 6.1475-7.1323 9.9336z" fill="#aaadb8"/>
     <path id="path384" d="m581.9-212.71c3.9243-1.917 7.8545-3.8252 11.106-5.4502 1.4551-2.8916 3.4824-5.7256 5.8135-8.5195-2.9844 1.4238-6.5757 3.0742-10.215 4.7656-2.6577 3.3213-4.9941 6.4541-6.7046 9.2041z" fill="#cbc9d1"/>
     <path id="path386" d="m588.6-221.91c3.6392-1.6914 7.2305-3.3418 10.215-4.7656 2.3315-2.794 4.9673-5.5469 7.6401-8.2754-2.6621 0.8291-5.8623 1.7109-9.2275 2.7051-2.9922 3.5049-5.9702 7.0146-8.6274 10.336z" fill="#c7c6ce"/>
     <path id="path388" d="m593.01-218.16c2.9102-5.7832 8.1079-11.337 13.454-16.795 2.6611-0.82911 4.7842-1.6055 5.9922-2.3877-4.96 4.6963-9.7334 9.5225-12.411 15.435-1.21 0.78222-3.7832 2.123-7.0347 3.748z" fill="#cbc9d1"/>
     <path id="path390" d="m597.23-232.25c3.3652-0.99415 6.5654-1.876 9.2275-2.7051 2.6719-2.7295 5.3818-5.4346 7.8603-8.1318-2.376 0.2041-5.2344 0.27734-8.374 0.53222-2.7148 3.3008-5.7212 6.7998-8.7139 10.305z" fill="#bfbfc8"/>
     <path id="path392" d="m605.95-242.55c3.1396-0.25488 5.998-0.32812 8.374-0.53222 2.4785-2.6982 4.7266-5.3896 6.4756-8.0898-2.2188-0.0879-4.8857-0.39356-7.8867-0.48535-1.8242 2.707-4.248 5.8076-6.9629 9.1074z" fill="#b7b8c2"/>
     <path id="path394" d="m606.46-234.96c5.3447-5.458 10.837-10.82 14.336-16.222 2.2188 0.0879 3.9883-0.043 5.1953-0.8252-3.4297 5.3945-8.5781 9.9619-13.539 14.659-1.208 0.78223-3.331 1.5586-5.9922 2.3877z" fill="#c7c6ce"/>
     <path id="path396" d="m600.04-221.91c2.9258-1.8936 8.2627-4.7402 11.596-7.8047 7.8916-9.1602 15.185-18.852 21.815-29.014-3.5586 2.6465-3.6455 4.249-7.4609 6.7246-6.8594 10.789-20.594 18.27-25.95 30.094z" fill="#cbc9d1"/>
     <path id="path398" d="m177.53-258.73c-7.041-46.775 26.138-46.289 51.838-14.629 2.4629-57.759 108.63-65.641 109.02-131.09-70.613-0.27343-140.84-0.53613-204.55-0.55176 0.38037 54.028 16.17 104.1 43.691 146.27z" fill="#f0f0f0"/>
     <path id="path400" d="m229.37-273.36c15.871 19.556 41.064 31.48 75 48.171 1.2573-56.303 92.941-111.97 93.44-179.25-19.858-0.0737-39.481 0.0606-59.417-0.0166-0.39306 65.454-106.56 73.335-109.02 131.09z" fill="#f0f0f0"/>
     <path id="path402" d="m304.37-225.18c0.62891-28.151 23.864-56.144 47.004-85.508 6.9306 2.1602 14.511 4.457 22.237 6.6885-19.769 32.596-39.788 63.752-41.022 91.74-9.7954-4.2041-19.474-8.6201-28.22-12.921z" fill="#f0f0f0"/>
     <path id="path404" d="m332.59-212.26c1.2339-27.988 21.253-59.145 41.022-91.74 7.727 2.2314 15.601 4.3965 23.119 6.29-16.032 35.525-32.656 69.465-35.222 97.096-9.2119-3.4512-19.124-7.4424-28.919-11.646z" fill="#ecebec"/>
     <path id="path406" d="m351.37-310.69c13.861 4.3203 30.32 9.1904 45.356 12.979 16.032-35.524 31.471-72.636 31.667-106.61-10.155-0.0347-20.357-0.0713-30.588-0.10889-0.24951 33.64-23.295 64.376-46.435 93.741z" fill="#f0f0f0"/>
     <path id="path408" d="m361.51-200.62c9.2119 3.4502 17.724 6.3613 24.719 8.4033 1.9487-13.636 6.4883-29.432 12.207-46.524-7.001-1.8262-15.386-4.418-24.365-7.4658-6.4805 16.379-11.278 31.772-12.561 45.587z" fill="#e1e1e4"/>
     <path id="path410" d="m374.07-246.21c8.9785 3.0478 17.364 5.6396 24.365 7.4658 5.7182-17.093 12.615-35.482 19.279-54.306-6.3032-1.1504-13.465-2.7744-20.982-4.669-8.0161 17.763-16.18 35.129-22.661 51.509z" fill="#e3e3e5"/>
     <path id="path412" d="m386.23-192.21c6.9951 2.043 12.474 3.2188 15.619 3.1982 2.251-13.555 6.9121-29.494 12.642-46.851-3.4385 0.0146-9.0542-1.0459-16.055-2.8721-5.7183 17.093-10.258 32.889-12.207 46.524z" fill="#d6d4da"/>
     <path id="path414" d="m398.43-238.74c7.0005 1.8262 12.616 2.8867 16.055 2.8721 5.73-17.356 12.528-36.131 19.055-55.355-4.083 2e-3 -9.5273-0.67383-15.831-1.8232-6.6636 18.823-13.561 37.213-19.279 54.306z" fill="#d9d8dd"/>
     <path id="path416" d="m396.73-297.71c15.035 3.7891 28.647 6.4971 36.813 6.4922 6.5259-19.225 12.78-38.898 17.42-58.055-9.4551-0.0195-20.719-1.002-32.461-2.3242-5.8882 17.966-13.756 36.125-21.772 53.887z" fill="#e8e7e9"/>
     <path id="path418" d="m418.5-351.6c11.742 1.3223 23.006 2.3047 32.461 2.3242 4.6401-19.157 7.6665-37.796 7.7383-54.95-10.041-0.0298-20.148-0.0625-30.304-0.0977-0.0981 16.987-4.0068 34.759-9.8955 52.724z" fill="#ededed"/>
     <path id="path420" d="m401.84-189.02c11.363-0.0752 15.587 2.1406 16.548 2.2461 2.5-13.166 6.8818-29.112 12.048-46.682-1.3193-0.0908-5.856-2.4766-15.954-2.415-5.73 17.356-10.391 33.296-12.642 46.851z" fill="#cdcbd3"/>
     <path id="path422" d="m414.49-235.87c10.098-0.0615 14.635 2.3242 15.954 2.415 5.1665-17.57 11.118-36.763 16.756-56.424-2.1084-0.0566-6.3389-1.3789-13.655-1.3457-6.5264 19.224-13.325 37.998-19.055 55.355z" fill="#d2d0d6"/>
     <path id="path424" d="m433.54-291.22c7.3164-0.0332 11.547 1.2891 13.655 1.3457 5.6382-19.66 10.963-39.788 14.878-59.227-2.8975-0.0244-6.5781-0.17774-11.113-0.17383-4.6401 19.156-10.894 38.83-17.42 58.055z" fill="#dcdbdf"/>
     <path id="path426" d="m450.96-349.28c4.5352-4e-3 8.2158 0.14941 11.113 0.17383 3.9146-19.439 6.4189-38.19 6.4155-55.095-3.2558-9e-3 -6.52-0.0186-9.7905-0.0288-0.0718 17.154-3.0981 35.793-7.7383 54.95z" fill="#e8e8e9"/>
     <path id="path428" d="m418.39-186.77c21.667 2.334 29.418 4.0361 34.64 3.7119-4.917-9.416-2.812-23.981 3.1142-41.544-1.2666-2.5811-4.7173-6.873-25.706-8.8496-5.1665 17.569-9.5483 33.516-12.048 46.682z" fill="#cbc9d1"/>
     <path id="path430" d="m430.44-233.45c20.988 1.9766 24.439 6.2686 25.706 8.8496 5.9263-17.563 15.674-38.122 26.043-59.529-7.0376-1.7666-15.498-4.5527-34.993-5.7442-5.6382 19.661-11.589 38.854-16.756 56.424z" fill="#d0ced5"/>
     <path id="path432" d="m447.2-289.88c9.7475 0.59571 16.736 1.5898 22.168 2.6562 6.7598-20.414 13.498-41.414 18.55-61.481-8.27-0.0625-16.839-0.19922-25.84-0.40136-3.9146 19.438-9.2397 39.566-14.878 59.227z" fill="#dbdade"/>
     <path id="path434" d="m462.07-349.1c9.001 0.20214 17.57 0.33886 25.84 0.40136 5.0527-20.067 8.4189-39.202 8.4341-55.885-9.77 0.25293-19.197 0.4126-27.859 0.38819 3e-3 16.905-2.501 35.656-6.4155 55.095z" fill="#e8e7e9"/>
     <path id="path436" d="m469.36-287.22c5.4321 1.0664 9.3061 2.2041 12.825 3.0879 10.369-21.407 21.36-43.661 29.773-64.612-7.8061 0.0937-15.778 0.10547-24.048 0.043-5.0522 20.067-11.791 41.067-18.55 61.481z" fill="#dad8dd"/>
     <path id="path438" d="m487.92-348.7c8.2705 0.0625 16.242 0.0508 24.048-0.043 8.4126-20.951 14.248-40.599 14.304-56.792-10.035 0.35009-20.148 0.69677-29.918 0.95019-0.0151 16.683-3.3813 35.817-8.4341 55.885z" fill="#e5e4e6"/>
     <path id="path440" d="m453.03-183.06c5.2207-0.32324 7.9116-2.6738 19.458-8.4443-12.333-5.667-11.676-18.095-3.7441-34.518-12.251 4.8691-11.333 4-12.599 1.418-5.9263 17.563-8.0312 32.128-3.1142 41.544z" fill="#cbc9d1"/>
     <path id="path442" d="m456.15-224.6c1.2661 2.582 0.34815 3.4512 12.599-1.418 7.9316-16.423 23.137-36.84 39.898-58.483-13.802 2.8857-19.416 2.1387-26.454 0.37207-10.37 21.407-20.117 41.967-26.043 59.529z" fill="#ceccd4"/>
     <path id="path444" d="m482.19-284.13c7.0371 1.7666 12.651 2.5137 26.454-0.37207 33.523-43.287 73.271-91.482 73.504-122.44-16.059 4.9e-4 -35.811 0.71289-55.88 1.4126-0.11329 32.387-23.339 78.59-44.078 121.4z" fill="#d6d4da"/>
     <path id="path446" d="m472.49-191.5c-49.333-22.667 109.19-153.52 109.66-215.45 8.5684-4.9e-4 15.493 0.0576 21.595 0.14453-0.43554 60.902-141.91 178.55-103.96 202.83-10.743 4.6816-20.296 8.9688-27.296 12.469z" fill="#cbc9d1"/>
     <path id="path448" d="m499.79-203.97c-37.954-24.281 103.52-141.93 103.96-202.83 6.1025 0.0869 11.383 0.20264 16.663 0.31836-0.36816 58.649-99.099 159.85-86.182 187.68-11.761 5.0791-23.695 10.155-34.438 14.836z" fill="#c4c3cb"/>
     <path id="path450" d="m534.22-218.81c-12.917-27.833 85.813-129.03 86.182-187.68 5.2812 0.11572 10.562 0.23096 16.664 0.31738-0.30078 56.397-57.322 141.12-69.441 172.51-10.054 4.6914-21.643 9.7725-33.404 14.851z" fill="#b4b5bf"/>
     <path id="path452" d="m567.63-233.66c12.119-31.386 69.141-116.11 69.441-172.51 6.1016 0.0859 13.026 0.14307 21.595 0.1416-0.26953 55.373-43.343 126.86-66.842 159.86-5.6211 3.5195-14.14 7.8203-24.194 12.512z" fill="#a3a7b3"/>
     <path id="path454" d="m591.82-246.17c23.499-33 66.572-104.48 66.842-159.86 1.6875-4.8e-4 3.3965 0.0459 5.0381 0.11475-0.2793 55.249-36.406 120.21-60.682 155.05-3.5522 0.77051-7.3237 2.1895-11.198 4.6895z" fill="#9ca1ae"/>
     <path id="path456" d="m603.02-250.86c24.275-34.841 60.402-99.804 60.682-155.05 1.6426 0.0693 3.2158 0.16113 4.6309 0.25342-0.30176 54.978-29.442 115.11-55.426 154-3-0.0918-6.334 0.0312-9.8867 0.80273z" fill="#a3a7b3"/>
     <path id="path458" d="m612.91-251.66c25.983-38.889 55.124-99.019 55.426-154 1.415 0.0923 2.6719 0.18457 3.6787 0.2539-0.32422 54.706-23.527 111.29-51.218 154.23-2.2188-0.0879-4.8857-0.39356-7.8867-0.48535z" fill="#b4b5bf"/>
     <path id="path460" d="m620.79-251.18c27.69-42.937 50.894-99.523 51.218-154.23 1.0068 0.0688 1.7646 0.11524 2.1826 0.11524-0.33496 54.582-19.738 108.51-48.205 153.29-1.207 0.78223-2.9766 0.91309-5.1953 0.8252z" fill="#c4c3cb"/>
     <path id="path462" d="m625.99-252c3.8154-2.4756 3.9023-4.0781 7.4609-6.7246 27.52-42.175 43.651-92.459 44.032-146.49-1.7236-0.4458 2.4014-0.0767-3.2881-0.0762-0.33496 54.582-19.738 108.51-48.205 153.29z" fill="#cbc9d1"/>
     <g id="g480" fill="#f0f0f0">
      <path id="path464" d="m133.84-405c63.708 0.0156 133.94 0.27833 204.55 0.55176-7e-3 -0.86523-0.021-1.7295-0.042-2.5928-70.595-0.16651-140.74-0.23487-204.52 0.0859 0 0.65234 2e-3 1.3047 7e-3 1.9551z"/>
      <path id="path466" d="m133.83-406.96c63.778-0.32081 133.92-0.25245 204.52-0.0859-1.6494-68.492-46.044-129.95-45.376-198.74-40.961 9.2944-76.047 25.683-117.21 53.673-26.556 42.004-41.927 91.784-41.927 145.15z"/>
      <path id="path468" d="m338.39-404.45c19.936 0.0772 39.559-0.0571 59.417 0.0166-3e-3 -0.75927-0.021-1.5898-0.0508-2.3501-19.853-4e-3 -39.47 0.20459-59.397 0.20947 0.0151 0.70752 0.0254 1.415 0.0312 2.124z"/>
      <path id="path470" d="m338.36-406.57c19.928-5e-3 39.544-0.21338 59.397-0.20947-2.522-67.186-63.993-139.32-68.094-205.5-12.424 1.5322-24.445 3.7188-36.69 6.4971-0.66992 68.942 43.929 130.53 45.387 199.21z"/>
      <path id="path472" d="m397.81-404.43c23.794 0.0879 47.435 0.16944 70.682 0.23536 0-0.8086-0.0112-1.731-0.0596-2.544-23.248-3e-3 -46.885-0.0225-70.673-0.0415 0.0298 0.76025 0.0474 1.5908 0.0508 2.3501z"/>
      <path id="path474" d="m397.76-406.78c23.789 0.019 47.425 0.0381 70.673 0.0415-1.9497-32.621-22.845-69.418-44.547-105.88-19.106 0.59131-40.243 1.8062-59.58 2.7148 16.195 34.704 32.193 69.533 33.455 103.13z"/>
      <path id="path476" d="m364.3-509.91c19.337-0.90869 40.474-2.1235 59.58-2.7148-21.703-36.464-44.213-72.594-49.393-103.88-14.965 1.186-29.94 2.3862-44.827 4.2222 2.0503 33.09 18.443 67.668 34.639 102.37z"/>
      <path id="path478" d="m468.49-404.2c0-0.8086-0.0112-1.731-0.0596-2.544 8.6499 0.0415 18.076-0.0908 27.85-0.30908 0.043 0.79053 0.0684 1.6777 0.0684 2.4648-9.77 0.25293-19.197 0.4126-27.859 0.38819z"/>
     </g>
     <path id="path482" d="m496.35-404.59c0-0.78711-0.0254-1.6743-0.0684-2.4648 9.7739-0.21826 19.896-0.52246 29.941-0.82422 0.0308 0.7417 0.0449 1.5991 0.0459 2.3389-10.035 0.35009-20.148 0.69677-29.918 0.95019z" fill="#ececed"/>
     <path id="path484" d="m526.27-405.54c-9.8e-4 -0.73975-0.0151-1.5972-0.0459-2.3389 20.088-0.60449 39.861-1.2012 55.903-1.0879 0.0137 0.67138 0.0215 1.3428 0.0234 2.0142-16.059 4.9e-4 -35.811 0.71289-55.88 1.4126z" fill="#e3e2e5"/>
     <path id="path486" d="m468.43-406.74c-1.9497-32.621-22.845-69.418-44.547-105.88 8.4961-0.32032 18.644-0.37744 29.588-0.18164 21.095 36.417 41.062 73.222 42.81 105.75-9.7744 0.21826-19.2 0.35058-27.85 0.30908z" fill="#f0f0f0"/>
     <path id="path488" d="m496.28-407.05c-1.7476-32.532-21.714-69.337-42.81-105.75 10.943 0.1958 22.682 0.64404 34.361 1.3335 19.46 35.376 37.087 71.259 38.39 103.6-10.044 0.30176-20.167 0.60596-29.941 0.82422z" fill="#edeced"/>
     <path id="path490" d="m423.88-512.62c-21.703-36.464-44.213-72.594-49.393-103.88 8.3423-0.68213 18.443-0.53418 29.403 0.27002 6.2593 30.98 28.482 67.01 49.578 103.43-10.944-0.1958-21.092-0.13868-29.588 0.18164z" fill="#f6f6f7"/>
     <path id="path492" d="m453.47-512.81c-21.095-36.417-43.318-72.446-49.578-103.43 10.959 0.80371 22.777 2.2632 34.553 4.2036 8.6328 30.311 29.925 65.181 49.386 100.56-11.679-0.68945-23.417-1.1377-34.361-1.3335z" fill="#f0f0f2"/>
     <path id="path494" d="m526.22-407.88c-1.3022-32.338-18.93-68.221-38.39-103.6 11.678 0.68994 23.296 1.6211 33.996 2.7827 17.771 33.616 33.005 67.858 33.862 100-9.4595 0.21045-19.425 0.51074-29.469 0.81299z" fill="#e3e2e5"/>
     <path id="path496" d="m555.69-408.69c-0.85694-32.143-16.091-66.385-33.862-100 10.701 1.1616 20.484 2.5537 28.495 4.1655 17.002 31.414 31.146 63.506 31.801 95.561-8.0205-0.0566-16.975 0.0644-26.434 0.2749z" fill="#d7d5db"/>
     <path id="path498" d="m487.83-511.47c-19.46-35.376-40.753-70.246-49.386-100.56 11.775 1.9404 23.507 4.3623 34.296 7.0903 11.006 29.642 31.315 62.633 49.086 96.249-10.7-1.1616-22.318-2.0928-33.996-2.7827z" fill="#e3e2e6"/>
     <path id="path500" d="m521.83-508.69c-17.771-33.616-38.08-66.607-49.086-96.249 10.789 2.7285 20.633 5.7632 28.633 8.9297 12.085 29.337 31.945 60.071 48.948 91.485-8.0107-1.6118-17.794-3.0039-28.495-4.1655z" fill="#d5d3d9"/>
     <path id="path502" d="m582.15-406.95c17.137-4.9e-4 27.698 0.23144 38.258 0.46289 8e-3 -14.682-2.4102-29.582-6.5078-44.482-12.257-1.8589-24.539-3.7124-41.009-4.5117 5.6724 16.129 9.2158 32.336 9.2588 48.531z" fill="#cbc9d1"/>
     <path id="path504" d="m572.89-455.48c16.47 0.79931 28.752 2.6528 41.009 4.5117-4.0977-14.9-9.876-29.801-16.59-44.484-15.684-2.7715-31.45-5.5254-46.453-8.0845 8.5596 15.878 16.361 31.928 22.033 48.057z" fill="#cbc9d1"/>
     <path id="path506" d="m550.86-503.54c15.002 2.5591 30.769 5.313 46.453 8.0845-6.7139-14.684-14.363-29.149-22.204-43.179-18.579-3.8228-37.294-7.6143-50.829-11.933 8.7036 15.443 18.021 31.15 26.58 47.028z" fill="#cbc9d1"/>
     <path id="path508" d="m524.28-550.56c13.535 4.3188 32.25 8.1104 50.829 11.933-7.8403-14.03-15.872-27.625-23.349-40.566-18.675-5.8643-37.513-11.692-50.38-16.811 6.106 14.822 14.196 30.001 22.9 45.444z" fill="#cbc9d1"/>
     <path id="path510" d="m620.41-406.49c5.2812 0.11572 10.562 0.23096 16.664 0.31738 0.042-13.642-1.4688-27.818-4.2852-42.138-6.6357-0.80078-12.758-1.7314-18.887-2.6611 4.0976 14.9 6.5156 29.8 6.5078 44.482z" fill="#adafbb"/>
     <path id="path512" d="m613.9-450.97c6.1289 0.92968 12.251 1.8604 18.887 2.6611-2.8164-14.32-6.9375-28.783-12.117-42.997-7.6953-1.3726-15.518-2.7627-23.359-4.1484 6.7139 14.683 12.492 29.584 16.59 44.484z" fill="#b2b3be"/>
     <path id="path514" d="m637.07-406.17c6.1016 0.0859 13.026 0.14307 21.595 0.1416 0.0576-13.168-1.2949-26.747-3.9102-40.398-8.1846-0.41016-15.334-1.0811-21.97-1.8818 2.8164 14.32 4.3272 28.497 4.2852 42.138z" fill="#a1a5b2"/>
     <path id="path516" d="m632.79-448.31c6.6357 0.80078 13.785 1.4717 21.97 1.8818-2.6152-13.651-6.4932-27.376-11.483-40.836-7.3379-1.3154-14.907-2.6704-22.603-4.043 5.1797 14.214 9.3008 28.677 12.117 42.997z" fill="#a8abb6"/>
     <path id="path518" d="m597.31-495.45c15.685 2.7715 31.287 5.561 45.963 8.1914-4.9912-13.46-11.096-26.657-18.164-39.254-12.983-4.4409-31.424-8.294-50.002-12.116 7.8403 14.03 15.49 28.496 22.204 43.179z" fill="#bcbcc6"/>
     <path id="path520" d="m575.11-538.63c18.578 3.8223 37.019 7.6753 50.002 12.116-7.0684-12.597-15.103-24.594-23.951-35.654-12.214-5.2637-30.726-11.165-49.4-17.029 7.4775 12.941 15.509 26.536 23.349 40.566z" fill="#c6c5ce"/>
     <path id="path522" d="m658.66-406.03c1.6875-4.8e-4 3.3965 0.0459 5.0381 0.11475 0.0644-13.148-1.0742-26.508-3.3535-39.848-1.7812-0.21582-3.6689-0.43897-5.5947-0.66455 2.6152 13.651 3.9678 27.23 3.9102 40.398z" fill="#9ca1ae"/>
     <path id="path524" d="m654.75-446.42c1.9258 0.22558 3.8135 0.44873 5.5947 0.66455-2.2793-13.34-5.6992-26.661-10.197-39.73-2.125-0.47559-4.4277-1.0474-6.8808-1.7705 4.9902 13.46 8.8682 27.185 11.483 40.836z" fill="#a3a7b3"/>
     <path id="path526" d="m663.7-405.91c1.6426 0.0693 3.2158 0.16113 4.6309 0.25342 0.0781-13.103-0.94727-26.321-3.0254-39.484-1.502-0.19482-3.1777-0.40234-4.959-0.61767 2.2793 13.34 3.418 26.7 3.3535 39.848z" fill="#a3a7b3"/>
     <path id="path528" d="m660.35-445.76c1.7812 0.21533 3.457 0.42285 4.959 0.61767-2.0781-13.163-5.208-26.271-9.3398-39.155-1.7432-0.33789-3.6914-0.71728-5.8164-1.1929 4.498 13.069 7.918 26.39 10.197 39.73z" fill="#aaaeb9"/>
     <path id="path530" d="m643.27-487.26c2.4531 0.72315 4.7559 1.2949 6.8808 1.7705-4.498-13.069-10.075-25.887-16.668-38.222-2.5947-0.6914-5.3965-1.5825-8.3769-2.8032 7.0684 12.597 13.173 25.794 18.164 39.254z" fill="#b4b5bf"/>
     <path id="path532" d="m625.11-526.52c2.9805 1.2207 5.7822 2.1118 8.3769 2.8032-6.5928-12.334-14.202-24.187-22.765-35.324-3.1123-0.70606-6.3438-1.6865-9.5635-3.1333 8.8486 11.06 16.883 23.057 23.951 35.654z" fill="#c4c3cb"/>
     <path id="path534" d="m650.15-485.49c2.125 0.47559 4.0732 0.85498 5.8164 1.1929-4.1318-12.883-9.2646-25.542-15.349-37.808-2.1523-0.42285-4.54-0.91504-7.1357-1.6069 6.5928 12.335 12.17 25.153 16.668 38.222z" fill="#babbc5"/>
     <path id="path536" d="m633.48-523.71c2.5957 0.6919 4.9834 1.1841 7.1357 1.6069-6.084-12.265-13.118-24.136-21.053-35.443-2.7432-0.34961-5.7353-0.78174-8.8476-1.4878 8.5625 11.137 16.172 22.989 22.765 35.324z" fill="#cac9d0"/>
     <path id="path538" d="m668.33-405.66c1.415 0.0923 2.6719 0.18457 3.6787 0.2539 0.0918-13.058-0.85546-26.165-2.7832-39.196-1.0889-0.16455-2.4189-0.34619-3.9209-0.54151 2.0781 13.163 3.1035 26.381 3.0254 39.484z" fill="#b4b5bf"/>
     <path id="path540" d="m665.31-445.14c1.502 0.19532 2.832 0.37696 3.9209 0.54151-1.9277-13.032-4.8369-25.99-8.6709-38.75-1.3076-0.31152-2.8467-0.6084-4.5898-0.94678 4.1318 12.884 7.2617 25.992 9.3398 39.155z" fill="#babbc5"/>
     <path id="path542" d="m672.01-405.4c1.0068 0.0688 1.7646 0.11524 2.1826 0.11524 0.0977-13.037-0.73731-26.018-2.4834-38.878-0.54297-0.12353-1.3926-0.26953-2.4824-0.43359 1.9277 13.032 2.875 26.138 2.7832 39.196z" fill="#c4c3cb"/>
     <path id="path544" d="m669.23-444.6c1.0898 0.16406 1.9394 0.31006 2.4824 0.43359-1.7461-12.86-4.4043-25.599-7.9512-38.153-0.81836-0.39404-1.8945-0.71924-3.2022-1.0303 3.834 12.76 6.7432 25.717 8.6709 38.75z" fill="#cac9d0"/>
     <path id="path546" d="m655.97-484.3c1.7432 0.33838 3.2822 0.63526 4.5898 0.94678-3.834-12.76-8.5918-25.322-14.219-37.564-1.6514-0.41407-3.5674-0.76758-5.7197-1.1904 6.084 12.265 11.217 24.924 15.349 37.808z" fill="#c9c9d0"/>
     <path id="path548" d="m640.62-522.11c2.1523 0.42285 4.0684 0.77636 5.7197 1.1904-5.626-12.241-12.12-24.162-19.426-35.639-2.1113-0.37695-4.6035-0.64453-7.3467-0.99414 7.9346 11.307 14.969 23.178 21.053 35.443z" fill="#d7d6db"/>
     <path id="path550" d="m660.56-483.35c1.3076 0.31103 2.3838 0.63623 3.2022 1.0303-3.5469-12.553-7.9834-24.921-13.288-37.04-1.0938-0.66553-2.4805-1.1406-4.1328-1.5547 5.627 12.242 10.385 24.804 14.219 37.564z" fill="#d7d6db"/>
     <path id="path552" d="m646.34-520.91c1.6523 0.41406 3.0391 0.88916 4.1328 1.5547-5.3047-12.119-11.478-23.987-18.497-35.541-1.2187-0.78857-2.9492-1.2754-5.0615-1.6528 7.3056 11.477 13.8 23.398 19.426 35.639z" fill="#e4e4e6"/>
     <path id="path554" d="m674.2-405.29c5.6894-4.9e-4 1.5644-0.36963 3.2881 0.0762 5e-3 -0.65039 7e-3 -1.3027 7e-3 -1.9551-1.7451-0.45898 2.3779-0.0503-3.2871-0.0674 0 0.64844-3e-3 1.2974-8e-3 1.9463z" fill="#cbc9d1"/>
     <path id="path556" d="m674.2-407.24c5.665 0.0171 1.542-0.3916 3.2871 0.0674 0-13.342-0.96094-26.46-2.8164-39.289-2.0332-0.79053 2.2207 1.252-3.1611 0.84961 1.791 12.691 2.6953 25.502 2.6904 38.372z" fill="#cbc9d1"/>
     <path id="path558" d="m671.51-445.61c5.3818 0.40234 1.1279-1.6401 3.1611-0.84961-1.8564-12.829-4.6074-25.367-8.1885-37.55-2.667-1.519 1.7686 2.001-2.9912 0.75049 3.5469 12.388 6.2266 24.959 8.0185 37.649z" fill="#d1d0d6"/>
     <path id="path560" d="m663.49-483.26c4.7598 1.2505 0.32422-2.2695 2.9912-0.75049-3.5811-12.183-7.9922-24.011-13.168-35.419-3.2998-2.248 1.0938 1.7124-3.043-0.38623 5.2598 11.961 9.6728 24.167 13.22 36.556z" fill="#dedde1"/>
     <path id="path562" d="m650.27-519.81c4.1367 2.0986-0.25683-1.8618 3.043 0.38623-5.1748-11.408-11.115-22.395-17.754-32.896-3.5879-2.5791 0.2666-0.0952-3.5879-2.5791 6.9316 11.41 13.038 23.127 18.299 35.088z" fill="#eaeaeb"/>
     <path id="path564" d="m175.76-552.11c41.166-27.99 76.252-44.378 117.21-53.673-0.0161-6.9531-0.17431-14.189 1.1167-21.033-42.447 9.8511-69.184 30.984-108.99 60.206-3.3726 4.6538-6.2588 9.6304-9.3374 14.5z" fill="#f0f0f0"/>
     <path id="path566" d="m292.97-605.78c12.245-2.7783 24.266-4.9648 36.69-6.4971-0.52929-7.0845 0.61621-21.632 3.3472-27.625-13.531 5.023-26.88 10.298-38.921 13.089-1.291 6.8438-1.1328 14.08-1.1167 21.033z" fill="#f0f0f0"/>
     <path id="path568" d="m329.66-612.28c14.887-1.8359 29.862-3.0361 44.827-4.2222-1.2017-7.2568 1.3799-30.791 6.0005-35.667-14.793 0.58935-31.267 6.2461-47.48 12.265-2.731 5.9932-3.8765 20.541-3.3472 27.625z" fill="#f0f0f0"/>
     <path id="path570" d="m374.49-616.5c-0.60108-3.6284-0.25586-11.326 0.81689-18.726 8.1518-0.55078 17.172-0.24805 26.613 0.67676 0.31591 7.2334 1.25 14.731 1.9736 18.319-10.96-0.8042-21.061-0.95215-29.403-0.27002z" fill="#f7f7f8"/>
     <path id="path572" d="m403.89-616.23c-0.72363-3.5879-1.6577-11.086-1.9736-18.319 9.4409 0.9248 19.303 2.4712 29.139 4.4082 3.0078 7.2124 6.3931 14.617 7.3872 18.115-11.775-1.9404-23.593-3.3999-34.553-4.2036z" fill="#f0f0f2"/>
     <path id="path574" d="m375.31-635.23c1.0728-7.4004 2.873-14.503 5.1836-16.941 7.9614-0.41895 15.637-0.0405 23.166 0.88672-1.7495 2.5293-2.0518 9.498-1.7363 16.731-9.4409-0.92481-18.461-1.2275-26.613-0.67676z" fill="#f7f7f8"/>
     <path id="path576" d="m401.92-634.55c-0.31543-7.2334-0.0132-14.202 1.7363-16.731 7.5283 0.92675 14.909 2.4028 22.28 4.1787-0.51514 2.729 2.1152 9.749 5.123 16.961-9.8359-1.937-19.698-3.4834-29.139-4.4082z" fill="#f1f1f3"/>
     <path id="path578" d="m438.45-612.03c-0.99414-3.498-4.3794-10.902-7.3872-18.115 9.8359 1.9375 19.646 4.2651 28.982 6.752 5.6499 7.4624 11.436 15.045 12.701 18.453-10.789-2.728-22.521-5.1499-34.296-7.0903z" fill="#e1e0e5"/>
     <path id="path580" d="m472.74-604.94c-1.2646-3.4082-7.0508-10.991-12.701-18.453 9.3369 2.4873 18.2 5.1333 26.144 7.7075 6.8882 8.1104 13.803 16.308 15.19 19.675-8-3.1665-17.845-6.2012-28.633-8.9297z" fill="#d2d0d7"/>
     <path id="path582" d="m431.06-630.14c-3.0078-7.2119-5.6382-14.232-5.123-16.961 7.3716 1.7759 14.733 3.852 22.224 5.9795 0.71874 2.9287 6.2319 10.271 11.882 17.733-9.3364-2.4868-19.146-4.8145-28.982-6.752z" fill="#e5e4e8"/>
     <path id="path584" d="m460.04-623.39c-5.6499-7.4624-11.163-14.805-11.882-17.733 7.4907 2.1274 15.11 4.3062 22.996 6.2881 1.2793 3.0195 8.1406 11.042 15.029 19.153-7.9434-2.5742-16.807-5.2202-26.144-7.7075z" fill="#d7d6dc"/>
     <path id="path586" d="m501.38-596.01c12.867 5.1187 31.706 10.946 50.38 16.811-2.0273-3.3506-7.3496-11.178-12.533-18.833-18.59-6.667-38.046-12.929-53.038-17.653 6.8882 8.1104 13.803 16.308 15.19 19.675z" fill="#cbc9d1"/>
     <path id="path588" d="m486.19-615.68c14.992 4.7241 34.448 10.986 53.038 17.653-5.1831-7.6548-10.228-15.135-11.699-17.792-18.842-7.7285-39.251-14.684-56.368-19.014 1.2793 3.0195 8.1406 11.042 15.029 19.153z" fill="#d0ced5"/>
     <path id="path590" d="m551.76-579.2c-4.0547-6.7017-21.289-31.311-24.232-36.625 18.842 7.7285 36.117 16.23 46.965 23.653 3.3266 4.5889 21.333 23.333 26.667 30-12.214-5.2637-30.726-11.165-49.4-17.029z" fill="#cbc9d1"/>
     <path id="path592" d="m601.16-562.17c-5.334-6.6675-23.34-25.412-26.667-30 2.0576 1.4473 5.4023 2.9629 9.3364 4.4732 3.417 4.6763 21.891 22.208 26.894 28.661-3.1123-0.70606-6.3438-1.6865-9.5635-3.1333z" fill="#cbc9d1"/>
     <path id="path594" d="m610.72-559.04c-5.0029-6.4526-23.477-23.984-26.894-28.661 3.9346 1.5102 8.4585 3.0156 12.874 4.4429 3.6147 4.8682 18.593 19.726 22.868 25.706-2.7432-0.34961-5.7353-0.78174-8.8476-1.4878z" fill="#d1cfd6"/>
     <path id="path596" d="m619.57-557.55c-4.2744-5.9795-19.253-20.837-22.868-25.706 4.4155 1.4277 8.7222 2.7769 12.223 3.9756 3.8135 5.0601 14.445 17.218 17.991 22.724-2.1113-0.37695-4.6035-0.64453-7.3467-0.99414z" fill="#dedde1"/>
     <path id="path598" d="m626.91-556.55c-3.5459-5.5059-14.178-17.664-17.991-22.724 3.501 1.1987 6.1953 2.2471 7.3857 3.0713 3.9033 5.147 12.452 16.015 15.667 21.306-1.2187-0.78857-2.9492-1.2754-5.0615-1.6528z" fill="#eaeaeb"/>
     <path id="path600" d="m631.98-554.9c3.8545 2.4839 0 0 3.5879 2.5791-3.0781-4.8692-6.3076-9.6338-9.6806-14.288-3.5176-2.7085-5.8096-6.9971-9.5742-9.5972 3.9033 5.147 12.452 16.015 15.667 21.306z" fill="#f0f0f0"/>
     <path id="path602" d="m185.1-566.61c39.809-29.222 66.546-50.355 108.99-60.206 2.3623-12.52 8.4292-24.438 23.755-34.217-47.406 11.71-77.559 36.705-112.83 70.037-7.0928 7.7305-13.744 15.873-19.914 24.387z" fill="#f0f0f0"/>
     <path id="path604" d="m294.09-626.82c12.041-2.7915 25.39-8.0664 38.921-13.089 5.1147-11.088 13.892-22.69 28.941-30.35-14.931 2.3345-29.718 5.668-44.107 9.2222-15.326 9.7793-21.393 21.697-23.755 34.217z" fill="#f0f0f0"/>
     <path id="path606" d="m333.01-639.91c16.213-6.0186 32.687-11.675 47.48-12.265 8.7241-9.2085 20.62-15.951 35.306-20.832-17.859-1.4131-35.955-0.0508-53.845 2.7461-15.049 7.6602-23.827 19.262-28.941 30.35z" fill="#f0f0f0"/>
     <path id="path608" d="m380.49-652.17c8.7241-9.2085 20.62-15.951 35.306-20.832 6.6914 0.45899 12.988 0.93751 19.053 1.5376-14.24 4.4438-24.564 10.685-31.193 20.181-7.5283-0.92725-15.204-1.3057-23.166-0.88672z" fill="#f7f7f8"/>
     <path id="path610" d="m403.66-651.28c6.6294-9.4961 16.954-15.737 31.193-20.181 6.0644 0.6001 11.897 1.3213 17.663 2.2671-13.256 3.4834-24.555 11.964-26.576 22.092-7.3711-1.7759-14.751-3.252-22.28-4.1787z" fill="#f3f3f5"/>
     <path id="path612" d="m425.94-647.1c14.743 3.5518 29.447 8.3037 45.22 12.268-2.3408-5.5244-1.1895-11.299 2.0254-15.954-14.031-4.231-26.023-7.5654-38.17-9.852-4.7344 3.8218-8.0644 8.4736-9.0752 13.538z" fill="#eaeaed"/>
     <path id="path614" d="m435.01-660.64c12.147 2.2866 24.139 5.6211 38.17 9.852 3.2144-4.6543 8.4922-8.1885 14.405-9.2314-12.29-4.498-23.545-7.2842-35.074-9.1748-6.6284 1.7417-12.767 4.7324-17.501 8.5542z" fill="#ededf0"/>
     <path id="path616" d="m471.16-634.84c17.117 4.3296 37.526 11.285 56.368 19.014-1.3252-2.4018-2.2441-4.956-2.7783-7.5166-18.373-8.0703-38.158-15.393-54.661-19.8-0.39698 2.7158-0.0996 5.5405 1.0708 8.3027z" fill="#d7d6dc"/>
     <path id="path618" d="m470.09-643.14c16.502 4.4067 36.288 11.73 54.661 19.8-0.53369-2.5606-0.68261-5.1274-0.46679-7.5537-17.437-8.0059-35.948-15.32-51.098-19.897-1.6074 2.3276-2.6987 4.9346-3.0962 7.6509z" fill="#dedde2"/>
     <path id="path620" d="m473.18-650.79c15.149 4.5772 33.661 11.891 51.098 19.897 0.21582-2.4263 0.7959-4.7124 1.7202-6.7114-16.048-7.5225-32.831-14.408-46.627-19.155-2.4604 1.5957-4.584 3.6426-6.1909 5.9697z" fill="#e4e3e9"/>
     <path id="path622" d="m479.37-656.76c13.796 4.7471 30.579 11.633 46.627 19.155 0.92383-1.9995 2.1919-3.7119 3.7832-4.9907-14.216-6.6064-29.014-12.602-42.196-17.426-2.9565 0.52149-5.7539 1.666-8.2143 3.2617z" fill="#eae9ee"/>
     <path id="path624" d="m527.52-615.82c18.842 7.7285 36.117 16.23 46.965 23.653-1.48-2.0415-2.6514-4.3862-3.562-6.8828-10.85-7.3984-27.809-16.217-46.182-24.287 0.53418 2.5606 1.4531 5.1148 2.7783 7.5166z" fill="#ceccd4"/>
     <path id="path626" d="m524.75-623.34c18.373 8.0703 35.332 16.889 46.182 24.287-0.91065-2.4961-1.5601-5.1436-1.9966-7.7905-10.852-7.3462-27.215-16.044-44.652-24.05-0.21582 2.4263-0.0669 4.9932 0.46679 7.5537z" fill="#d5d3da"/>
     <path id="path628" d="m524.28-630.89c17.437 8.0059 33.8 16.704 44.652 24.05-0.43604-2.647-0.65918-5.2935-0.7168-7.7871-10.855-7.2935-26.167-15.453-42.215-22.975-0.92431 1.999-1.5044 4.2852-1.7202 6.7114z" fill="#dfdee3"/>
     <path id="path630" d="m526-637.6c16.047 7.522 31.359 15.681 42.215 22.975-0.0576-2.4941 0.0503-4.8354 0.27637-6.8721-10.856-7.2695-24.492-14.487-38.708-21.093-1.5913 1.2788-2.8594 2.9912-3.7832 4.9907z" fill="#eae9ec"/>
     <path id="path632" d="m574.49-592.17c2.0576 1.4473 5.4023 2.9629 9.3364 4.4732-1.5273-2.0903-2.7871-4.4238-3.8208-6.874-3.7764-1.5225-7.0176-3.0425-9.0776-4.4819 0.91064 2.4966 2.082 4.8413 3.562 6.8828z" fill="#cbc9d1"/>
     <path id="path634" d="m570.93-599.05c2.06 1.4394 5.3013 2.9595 9.0776 4.4819-1.0342-2.4507-1.8423-5.0176-2.4678-7.5752-3.4888-1.6675-6.541-3.2754-8.6064-4.6973 0.43652 2.647 1.0859 5.2944 1.9966 7.7905z" fill="#d1cfd6"/>
     <path id="path636" d="m583.83-587.7c3.9346 1.5102 8.4585 3.0156 12.874 4.4429-1.6328-2.1978-3.0913-4.4912-4.4053-6.8188-4.2012-1.4507-8.5132-2.9756-12.29-4.498 1.0337 2.4502 2.2934 4.7837 3.8208 6.874z" fill="#d1cfd6"/>
     <path id="path638" d="m580-594.57c3.7764 1.5225 8.0884 3.0474 12.29 4.498-1.3135-2.3272-2.4824-4.6875-3.5352-7.0186-3.8091-1.6602-7.7339-3.3872-11.222-5.0547 0.62549 2.5576 1.4336 5.1245 2.4678 7.5752z" fill="#d6d4da"/>
     <path id="path640" d="m568.93-606.84c2.0654 1.4219 5.1177 3.0298 8.6064 4.6973-0.62548-2.5576-1.0684-5.1055-1.3711-7.5176-3.0908-1.8452-5.8818-3.563-7.9521-4.9668 0.0576 2.4937 0.28076 5.1401 0.7168 7.7871z" fill="#dedde1"/>
     <path id="path642" d="m568.21-614.63c2.0703 1.4038 4.8613 3.1216 7.9521 4.9668-0.30224-2.4116-0.46484-4.6875-0.52929-6.7007-2.6055-1.9551-5.0737-3.7422-7.1465-5.1382-0.22608 2.0366-0.33399 4.3779-0.27637 6.8721z" fill="#eaeaeb"/>
     <path id="path644" d="m577.54-602.15c3.4883 1.6675 7.4131 3.3945 11.222 5.0547-1.0522-2.331-1.9893-4.6328-2.8389-6.8418-3.2715-1.9126-6.6631-3.8852-9.7544-5.7305 0.30274 2.4121 0.74561 4.96 1.3711 7.5176z" fill="#e0e0e3"/>
     <path id="path646" d="m576.17-609.66c3.0913 1.8452 6.4829 3.8179 9.7544 5.7305-0.84961-2.2095-1.6118-4.3262-2.3164-6.2876-2.6201-2.0659-5.3623-4.1885-7.9673-6.1436 0.0644 2.0132 0.22705 4.2891 0.52929 6.7007z" fill="#ebebec"/>
     <path id="path648" d="m596.7-583.25c4.4155 1.4277 8.7222 2.7769 12.223 3.9756-1.7373-2.3047-3.4004-4.5513-5.0019-6.7432-3.334-1.2241-7.4248-2.6006-11.626-4.0513 1.314 2.3276 2.7725 4.6211 4.4053 6.8188z" fill="#dedde1"/>
     <path id="path650" d="m592.29-590.07c4.2017 1.4507 8.2925 2.8272 11.626 4.0513-1.6006-2.1919-3.1406-4.3301-4.6304-6.4185-3.0278-1.3989-6.7217-2.9917-10.531-4.6514 1.0527 2.3311 2.2217 4.6914 3.5352 7.0186z" fill="#e0e0e3"/>
     <path id="path652" d="m608.92-579.28c-3.4746-4.6099-6.6523-8.9849-9.6323-13.162 3.0268 1.3989 5.3882 2.6035 6.5308 3.4878 3.4209 3.9019 6.917 8.0376 10.487 12.745-1.1904-0.82422-3.8848-1.8726-7.3857-3.0713z" fill="#eaeaeb"/>
     <path id="path654" d="m588.76-597.09c3.8096 1.6597 7.5034 3.2524 10.531 4.6514-1.4902-2.0884-2.9316-4.1279-4.3359-6.1221-2.6108-1.606-5.7627-3.459-9.0342-5.3711 0.8496 2.209 1.7866 4.5108 2.8389 6.8418z" fill="#e7e6e8"/>
     <path id="path656" d="m585.92-603.93c3.2715 1.9121 6.4233 3.7651 9.0342 5.3711-1.4043-1.9946-2.7725-3.9443-4.1162-5.854-2.1167-1.729-4.6142-3.7388-7.2344-5.8047 0.70459 1.9614 1.4668 4.0781 2.3164 6.2876z" fill="#ededee"/>
     <path id="path658" d="m599.29-592.44c-2.9805-4.1772-5.7642-8.1567-8.4521-11.976 2.1162 1.729 3.8516 3.1777 4.9468 4.1221 3.2695 3.7725 6.6152 7.4404 10.036 11.342-1.1426-0.88428-3.5039-2.0889-6.5308-3.4878z" fill="#ededee"/>
     <path id="path660" d="m616.31-576.21c3.7646 2.6001 6.0566 6.8887 9.5742 9.5972-6.1699-8.5142-12.82-16.656-19.913-24.387-3.2891-3.1406-6.7202-6.3125-10.185-9.2974 6.5391 7.5449 13.383 14.671 20.523 24.087z" fill="#f0f0f0"/>
     <path id="path662" d="m205.01-591c35.275-33.332 65.428-58.326 112.83-70.037 5.7544-3.6719 12.814-7.0425 21.474-10.03-48.517 12.126-91.872 37.283-126.13 71.535-2.7856 2.7847-5.5107 5.6294-8.1738 8.5322z" fill="#f0f0f0"/>
     <path id="path664" d="m317.85-661.03c14.389-3.5542 29.177-6.8877 44.107-9.2222 5.6416-2.7012 12.054-5.7559 19.529-7.8682-14.405 1.2598-28.489 3.6426-42.163 7.0601-8.6592 2.9878-15.719 6.3584-21.474 10.03z" fill="#f0f0f0"/>
     <path id="path666" d="m361.95-670.26c8.2544-1.2905 16.552-2.2754 24.851-2.8232 5.5835-2.1885 11.763-4.4463 18.687-6.0903-8.0903 0-16.098 0.35352-24.009 1.0454-7.4746 2.1123-13.887 5.167-19.529 7.8682z" fill="#f0f0f0"/>
     <path id="path668" d="m386.8-673.08c9.6875-0.64014 19.375-0.68409 28.994 0.0771 5.5146-1.8325 11.423-3.4028 17.705-4.7427-9.209-0.9419-18.554-1.4248-28.011-1.4248-6.9243 1.644-13.104 3.9019-18.687 6.0903z" fill="#f0f0f0"/>
     <path id="path670" d="m415.8-673c26.766 1.8359 47.211 3.9829 71.789 12.98 4.4404-0.7832 9.9746 0.37158 19.138 0.31641-23.02-9.2363-47.595-15.417-73.223-18.039-6.2817 1.3398-12.19 2.9102-17.705 4.7427z" fill="#f0f0f0"/>
     <path id="path672" d="m487.59-660.02c26.363 9.6494 59.191 23.98 80.904 38.52 0.24951-2.2456 7.6431 5.1582 6.0967 1.2705-20.436-16.24-43.261-29.603-67.862-39.474-9.1636 0.0552-14.698-1.0996-19.138-0.31641z" fill="#eeeef1"/>
     <path id="path674" d="m568.49-621.5c8.2905 5.5835 22.915 17.432 27.295 21.209-2.4551-2.833-5.0561-5.6929-7.9438-8.6992-4.2954-3.8838-8.7158-7.6323-13.254-11.239 1.5464 3.8877-5.8472-3.5161-6.0967-1.2705z" fill="#f0f0f0"/>
     <path id="path676" d="m595.79-600.29c3.4644 2.9849 6.8955 6.1567 10.185 9.2974-2.6631-2.9028-5.3887-5.7476-8.1738-8.5322-3.2383-3.2373-6.5576-6.3931-9.9546-9.4644 2.8877 3.0064 5.4888 5.8662 7.9438 8.6992z" fill="#f0f0f0"/>
    </g>
   </g>
  </g>
 </g>
 <path id="path686" transform="matrix(2.1985 0 0 2.1985 -251.06 -300.61)" d="m189.5 181.3h207.3v234.4h-207.3z" clip-path="url(#aj)" fill="url(#ak)"/>
 <path id="path688" transform="matrix(2.1985 0 0 2.1985 -251.06 -300.61)" d="m403.1 298.7c0 68.5-55.5 124-124 124s-124-55.5-124-124c0-69.2 55.5-124 124-124s124 55.5 124 124" clip-path="url(#ai)" fill="#161617"/>
 <path id="path690" transform="matrix(2.1985 0 0 2.1985 -251.06 -300.61)" d="m188.5 203.2 133.2 3.5-5.4 200.4-133.1-3.5z" clip-path="url(#ag)" fill="url(#ah)"/>
 <path id="path692" transform="matrix(2.1985 0 0 2.1985 -251.06 -300.61)" d="m216.8 258.4c-2.9 6.9-4.2 13.7-5 16.1-0.8 2.6-0.4 4.4-0.7 6.7-0.2 1.4-1.8 5.2-1.1 10.5 0.7 5.4 0.3 6 0.4 8.6s0.7 0.9 0.5 6c-0.1 5.1-0.2 10.9 2.4 22.3 1.8 7.9 1.9 18.7 4.6 24.6-0.9-0.5-1.1-0.9-1.1-0.9s0.1 0.8 0.6 1.4c-1.3-0.6-4.5-1-6.4-5.8-0.6-1.6-3.9-10.4-7.1-15.8-1.5-2.5-3.8-3.4-5.1-5.7s-4.1-26.6-3.6-33.2 1.5-14.3 5.3-22.3c3.7-8 7.8-15.8 10.3-15.8 2.6 0.2 6.7 1.7 6 3.3" clip-path="url(#af)" fill="#252426"/>
 <path id="path694" transform="matrix(2.1985 0 0 2.1985 -251.06 -300.61)" d="m202.7 224.8-2.4 2.7c-0.8 0.9-1.6 1.8-2.3 2.7-1.5 1.9-3 3.8-4.5 5.7-0.7 1-1.4 1.9-2.1 2.9l-1 1.4-1 1.5c-0.7 1-1.4 2-2 3-0.3 0.5-0.7 1-1 1.5-0.2 0.3-0.3 0.5-0.4 0.8l-0.4 0.8c1-2.2 2.2-4.3 3.5-6.3s2.7-4 4.2-5.9c1.4-1.9 3-3.8 4.5-5.6 1.4-1.8 3.1-3.6 4.9-5.2" clip-path="url(#ae)" fill="#353535"/>
 <path id="path696" transform="matrix(2.1985 0 0 2.1985 -251.06 -300.61)" d="m191.5 362.5c-1.5-1.8-2.9-3.7-4.1-5.6-1.3-1.9-2.5-3.9-3.6-6s-2.1-4.1-3-6.3c-0.9-2.1-1.7-4.3-2.3-6.6 0.8 2.2 1.7 4.3 2.7 6.4s2 4.2 3.1 6.2c1.1 2.1 2.2 4.1 3.5 6 1.1 2 2.4 3.9 3.7 5.9" clip-path="url(#ae)" fill="#353535"/>
 <path id="path698" transform="matrix(2.1985 0 0 2.1985 -251.06 -300.61)" d="m191.3 250.1c17.6-29.9 49.8-49.6 86.2-49.6 4 0 7.9 0.2 11.7 0.7 0 0 0 9.8-2.6 8.7s-11.6-2.5-17.7-1.9v0.7l-4.2 0.3-0.3 1-1.7-0.4-0.5 0.7h-1.9v1.1h-1.8v0.7h-1.5v0.9h-1.5v0.8h-2.1l0.3 0.7h-2.1v1.1h-1.7v0.8l-2.2 0.5-0.8 1.1s-6.7 3.4-11.3 8.3c-3.8 4.1-8.4 9.1-9.7 10.7-1.3 1.7-5.6 5.9-5.6 5.9l-0.4 1h-0.9v1.1h-1.1v0.9h-1v1.2h-1.1v1.1l-0.5 1.2h-1.8l-0.9 0.7-2.5-0.7-9.9-11.5c0.1 0.1-3.8 4.5-8.9 12.2" clip-path="url(#ae)" fill="#616061"/>
 <path id="path700" transform="matrix(2.1985 0 0 2.1985 -251.06 -300.61)" d="m208.6 372.4c2.9-1 5.2-3.4 5.4-4.7s0.8-0.4 0.7-0.8-0.9-1.8-0.9-1.8l0.9 0.4-1.2-1.7 1.2 0.4-1.5-2.1 1.1 0.5-1.7-3 1.4 0.6-2.1-5.2 1.2 0.7-2.3-5s-1.2-8.6-2.7-10.5c-1.5-2-8.8-5.7-7.8-13.7 1.1-7.9 1.1-16.8 0.5-17.5-0.5-0.7-0.1-4-0.6-5.7s0.4-8.9-0.9-11.1c-1.2-2.1 0.8-11.2 2.1-14.6s6.5-18.3 7.9-20.1c1.3-1.8 2-7.2 1.8-8.4-0.1-0.6-0.3-1.4-0.3-1.4h-0.4l0.1-0.7h-0.5s0.3-0.8 0-0.8h-0.7l0.1-0.7h-0.7v-0.8h-0.7v-0.8l-0.6 0.2v-1h-1v-0.6h-0.9l0.1-0.9-0.6 0.2v-0.8h-0.7v-0.7h-1v-0.7h-0.3l0.1-0.6h-0.7v-0.6h-1l-0.3-1.1s-6.6 7.1-9.7 12.4c-8.6 15.2-14.3 32.3-14.3 50.9 0.1 28.1 12.2 53.6 31.5 71.8" clip-path="url(#ad)" fill="#151516"/>
 <path id="path702" transform="matrix(2.1985 0 0 2.1985 -251.06 -300.61)" d="m370.7 298.8c-2 0.1-2.9-1.2-4.6-1.6-5-1.1-8.9 0.7-12.1 0.5s-11.9 0.7-12.9-0.5-4.7-2.2-8-2.2-3.6-2.7-3.9-4.2c-0.4-1.6-4.3-3.2-8-3.4s-7.8 0.1-13 1.3-10-4.7-11-6.2c-2.7-4.3-12.5-8.2-12.5-5.5s1.9 19.7 1.9 22.8c0 3-0.9 5.7-0.9 5.7 0.7 0 26-0.7 29.2-0.8s22.8-0.2 26.5-0.6 7.6 4 8.3 4.6c2.8 2.7 9.8 8.1 10.4 13.9 0.5 5.8-5.6 25.3-6.9 30.5-3.3 12-10.5 22.2-9.5 21.4 2.7-2.5 8-5.9 11.9-11.9s7.3-11.3 9.5-20c2.2-8.6 3.8-14.1 3.8-27.2-0.2-5.9-1.6-12.7 1.8-16.6" clip-path="url(#ac)" fill="#171718"/>
 <path id="path704" transform="matrix(2.1985 0 0 2.1985 -251.06 -300.61)" d="m277.8 286.9 115.7 17-16.8 114.7-115.7-17z" clip-path="url(#aa)" fill="url(#ab)"/>
 <path id="path706" transform="matrix(2.1985 0 0 2.1985 -251.06 -300.61)" d="m284.5 276.9c0-2.3 9.6 1.3 12.3 5.5 0.9 1.5 6 7.3 11.2 6.2 5.3-1.1 9.4-1.4 13-1.2 3.7 0.2 7.6 1.8 8 3.3 0.3 1.6 0.6 4.2 3.9 4.2s7 1 8 2.2 9.7 0.4 12.9 0.5c3.2 0.2 7.2-1.7 12.1-0.5 1.7 0.4 2.8 1.8 4.6 1.6 0.9-1.4 2.4-3.2 4.3-5.4 1.9-2.1 3.7-3.4 5.6-2.2-4.3-48.6-42.3-87.4-90.4-93.3l4.8 15.6-12.1 11.6 11.1 23.3z" clip-path="url(#Z)" fill="#171717"/>
 <path id="path708" transform="matrix(2.1985 0 0 2.1985 -251.06 -300.61)" d="m369.9 322.3c-0.7 12.5-7.7 29.5-10.7 34.9s9.8-13.5 17.5-33.5c3.2-8.4-0.3 1.5-0.3 1.5s-2.1 14.8-13.9 31.3-24.6 23.4-25.9 24.3c1.8-1.8 8-6 16.9-29.8 7.9-24.4 7.7-29.9 8.1-30.2s8.3 1.5 8.3 1.5" clip-path="url(#Z)" fill="#171717"/>
 <path id="path710" transform="matrix(2.1985 0 0 2.1985 -251.06 -300.61)" d="m285 312.1c3.1-0.2 12.2 0.1 18.8 2.6s18 10.8 18.8 8.6c0.9-2.2 2.1-3.1 2.1-3.1s-6.8-9-8.5-10.1 3.5 0.1 4.2-2.2 4.6-0.1 11.3 0 17 0.1 17.7 0.8c0.6 0.7-4.6-5.1-8.3-4.6-3.7 0.4-23.3 0.5-26.5 0.6s-28.5 0.8-29.2 0.8c-0.6-0.1-1.5 6.6-0.4 6.6" clip-path="url(#Z)" fill="#171718"/>
 <path id="path712" transform="matrix(2.1985 0 0 2.1985 -251.06 -300.61)" d="m258.1 138.5 85.7 113.6-119.9 90.4-85.7-113.6z" clip-path="url(#X)" fill="url(#Y)"/>
 <path id="path714" transform="matrix(2.1985 0 0 2.1985 -251.06 -300.61)" d="m297.7 397.1c-2.2 1.3-4.5 2.1-8 2.7-2.4 0.4-5 0.8-7.5 0.9 0 0-2-1.5-3.6-8.2 3.2 1.5 11.9 4.4 19.1 4.6" clip-path="url(#W)" fill="#2d2c2c"/>
 <path id="path716" transform="matrix(2.1985 0 0 2.1985 -251.06 -300.61)" d="m293.2 398.2c1.5-0.6 1.6-1.2 3.7-1.7 1.7-0.4 8.7-0.8 12.8-2.3 1.7-0.7-10.6 5.2-16.5 4" clip-path="url(#W)" fill="#191919"/>
 <path id="path718" transform="matrix(2.1985 0 0 2.1985 -251.06 -300.61)" d="m291.8 402.8s-8.4 0.8-12.7 0.8c-57 0-103.2-46.1-103.2-102.9s45.5-102.9 103.2-102.9v0.4c-55.9 0-102 44.5-102 101.2 0 59.2 49 99.5 98.7 101.6l-0.1 0.6 1 0.1 0.1 0.6c0.1-0.1 8.8 0.7 15 0.5" clip-path="url(#W)" fill="#818384"/>
 <path id="path720" transform="matrix(2.1985 0 0 2.1985 -251.06 -300.61)" d="m326.5 392.2c33.2-17.1 55.9-51.6 55.9-91.5 0-34-18.4-66.6-45.5-85.2 26.5 20.1 44 49.5 44.1 83.8 0.1 41.1-21.4 73-54.5 92.9" clip-path="url(#W)" fill="#353535"/>
 <path id="path722" transform="matrix(2.1985 0 0 2.1985 -251.06 -300.61)" d="m312.9 401.1c-10.8 3.7-22.1 5.1-34.2 5-58.7-0.9-103.7-46.2-103.7-105.7 0-58.8 46.5-104.3 104-104.3 33.3 0 62.9 15.7 82 40.1v-0.1c-19.2-24.7-49.1-40.9-82.7-40.6-58.3 0.6-104.9 47.2-104.9 105.5s45.8 104.7 104.9 105.5c12 0.3 23.7-1.7 34.6-5.4" clip-path="url(#W)" fill="#272626"/>
 <path id="path724" transform="matrix(2.1985 0 0 2.1985 -251.06 -300.61)" d="m222 188.6c-16.1 8.3-29.9 19.2-41.6 34.8 0 0 3.3-3.2 4.7-3.5 10.9-11.3 16.6-17.6 36.4-29.5z" clip-path="url(#W)" fill="#444445"/>
 <path id="path726" transform="matrix(2.1985 0 0 2.1985 -251.06 -300.61)" d="m266.2 422c4.2 0.4 8.5 0.7 12.8 0.7 43.8-0.1 83.9-25.1 104.3-56.9 0 0-10.4 12.5-16.2 17-22.3 23.2-53.5 37.7-87.2 37.7-6.9 0-15.8-0.6-22.4-1.7z" clip-path="url(#W)" fill="#313131"/>
 <path id="path728" transform="matrix(2.1985 0 0 2.1985 -251.06 -300.61)" d="m371.3 381.5c3.8-6.5 18.3-28.2 24.4-46.7 1.2-3.5 0.1 6.3-1.7 10.5s-7.8 19.3-22.7 36.2" clip-path="url(#W)" fill="#1f2021"/>
 <path id="path730" transform="matrix(2.1985 0 0 2.1985 -251.06 -300.61)" d="m273.3 422.6c-34.5-1.9-64.7-16.8-86.4-40.9-19.8-22-31.9-51.1-31.9-83 0-34.1 13.5-64.7 35.4-87 0 0-9.1 12.2-11.9 17.5-2.4 3.9-4.9 7.9-7.2 11.9-10.7 18.1-15.8 36.6-15.8 57.6 0 7.5 1 17.7 3.2 21.9 0.2 1.2 0.5 2.4 0.7 3.7 4.4 21.6 13.3 41.3 25.3 55 2.8 3.2 7.5 6.5 10.3 7.9 19.4 18.4 42.6 29.2 72.9 33.1 0 0 7.9 1 7.7 1.5s-1.1 0.8-2.3 0.8" clip-path="url(#W)" fill="#737373"/>
 <path id="path732" transform="matrix(2.1985 0 0 2.1985 -251.06 -300.61)" d="m397 260c4 12.2 5.9 25.1 5.9 38.6 0 20-4.5 38.9-12.9 55.6 0 0 4.2-11.4 6.1-20.9 3.2-11 5-22.6 5-34.7 0-6.7-0.6-13.2-1.6-19.7-0.8-9.2-2.5-18.9-2.5-18.9" clip-path="url(#W)" fill="#4e4d4e"/>
 <path id="path734" transform="matrix(2.1985 0 0 2.1985 -251.06 -300.61)" d="m282.3 400.7s-3.2 0.1-4.9 0c-26.7-0.5-51.7-11.8-70.1-29.8l2.6 0.3 0.1-3.5s5.7 4.8 9.4 7.8c6.3 5 15.4 12.3 25.9 15.7 21.9 7.2 30.8-0.5 30.8-0.5l2.5 1.8c0.1 0 1.5 6.3 3.7 8.2" clip-path="url(#W)" fill="#292929"/>
 <path id="path736" transform="matrix(2.1985 0 0 2.1985 -251.06 -300.61)" d="m378.3 324c-0.6 2.3-1.4 1.5-3.3 4.1-0.7 2-2.5 7.4-3.7 10.3-7.1 16.9-18.4 26.9-16 23.8 5.5-7 9.9-19.3 11.1-25.8 1.9-10.1 2-13.4 2.3-18 0.3-4.4-1.1-12.6 0.3-16.8 1-2.9 5-7.4 7.1-9.6 2.6-2.7 4.5-1.1 4.5-1.1 0.2 3.4 0.9 10.8 0.1 19.1-0.7 8.3-2.4 14-2.4 14" clip-path="url(#V)" fill="#171717"/>
 <path id="path738" transform="matrix(2.1985 0 0 2.1985 -251.06 -300.61)" d="m346.5 318.8 45.5 30.8-32.6 48.1-45.4-30.8z" clip-path="url(#T)" fill="url(#U)"/>
 <path id="path740" transform="matrix(2.1985 0 0 2.1985 -251.06 -300.61)" d="m188.2 231.2-15.1-9.3 10.1-16.3 15.1 9.4z" clip-path="url(#R)" fill="url(#S)"/>
 <path id="path742" transform="matrix(2.1985 0 0 2.1985 -251.06 -300.61)" d="m359.8 87.8 130.9 291.2-292.1 131.3-130.9-291.2z" clip-path="url(#P)" fill="url(#Q)"/>
 <path id="path744" transform="matrix(2.1985 0 0 2.1985 -251.06 -300.61)" d="m299 179.4c57.3 9.5 100.8 59.3 100.8 119.1 0 66.7-53.8 120.6-120.7 120.6s-120.8-53.9-120.8-120.6 53.7-120.8 120.6-120.8c4.7 0 9.4 0.3 14 0.8" clip-path="url(#O)" fill="none" stroke="#767677" stroke-miterlimit="10"/>
 <path id="path746" transform="matrix(2.1985 0 0 2.1985 -251.06 -300.61)" d="m299.8 180.5c56.3 9.9 99 59 99 118 0 66.2-53.4 119.6-119.7 119.6s-119.8-53.5-119.8-119.6 53.3-119.8 119.7-119.8c4.8 0 9.4 0.3 14 0.8" clip-path="url(#O)" fill="none" stroke="#767677" stroke-miterlimit="10"/>
 <path id="path748" transform="matrix(2.1985 0 0 2.1985 -251.06 -300.61)" d="m282.8 197.1c4.2 0.1 17.8 1.9 26.2 4.9 10.8 3.8 22.3 9 28.9 14.3-7.6-4.6-12.1-7.5-29.2-13.7-12.1-4.3-26.6-4.7-26.6-4.7z" clip-path="url(#N)" fill="#353535"/>
 <path id="path750" transform="matrix(2.1985 0 0 2.1985 -251.06 -300.61)" d="m256.6 317.7c-2.4-2.3-7.5-3.8-13.9-3.9h-12.7l-10.9 40h12.9l3-11.1h5.7c7.6-0.2 11.5-1.7 15.2-5.2 3.2-3.1 4.4-6.9 4.4-11.1 0.1-3.5-1.6-6.6-3.7-8.7m-9.5 13.7c-1.5 1.5-3.8 2.5-6.7 2.5h-4.1l2.7-10.2h3.9c2.1 0 3.6 0.5 4.5 1.4 0.7 0.7 1 1.7 1 2.5 0.2 1.5-0.3 2.8-1.3 3.8" clip-path="url(#M)" fill="#54151b"/>
 <path id="path752" transform="matrix(2.1985 0 0 2.1985 -251.06 -300.61)" d="m283.1 313.2c5.6 0 10.1 1.7 13.7 5.1 3.5 3.4 5.3 7.6 5.3 12.8 0 3.1-0.6 6-1.8 8.9s-2.9 5.5-5.1 7.6c-4.7 4.6-10.2 6.9-16.7 6.9-5.6 0-10.2-1.7-13.7-5.1s-5.3-7.6-5.3-12.8c0-3.1 0.6-6 1.8-8.9s2.9-5.4 5.1-7.6c4.6-4.6 10.2-6.9 16.7-6.9m-3.7 30.2c2.5 0 4.7-1 6.6-2.8 1-1.1 1.9-2.3 2.5-3.8s0.9-3 0.9-4.5c0-2.3-0.7-4.2-2-5.6s-2.9-2.1-5.3-2.1c-2.5 0-4.7 0.9-6.6 2.8-2.3 2.4-3.4 5.1-3.4 8.3 0 2.3 0.4 4.1 1.7 5.6 1.3 1.3 3.2 2.1 5.6 2.1" clip-path="url(#M)" fill="#54151b"/>
 <path id="path754" transform="matrix(2.1985 0 0 2.1985 -251.06 -300.61)" d="m222.4 303.7 47.7 13.3-13.1 47-47.7-13.3z" clip-path="url(#K)" fill="url(#L)"/>
 <path id="path756" transform="matrix(2.1985 0 0 2.1985 -251.06 -300.61)" d="m264.1 301 49.9 16.7-16.4 49.2-49.9-16.7z" clip-path="url(#I)" fill="url(#J)"/>
 <path id="path758" transform="matrix(2.1985 0 0 2.1985 -251.06 -300.61)" d="m302.3 303.2 49.6 13.5-13 47.8-49.6-13.6z" clip-path="url(#G)" fill="url(#H)"/>
 <path id="path760" transform="matrix(2.1985 0 0 2.1985 -251.06 -300.61)" d="m346 303.9 45.5 13.2-13.6 46.7-45.5-13.2z" clip-path="url(#E)" fill="url(#F)"/>
 <path id="path762" transform="matrix(2.1985 0 0 2.1985 -251.06 -300.61)" d="m346.7 304.1 44.3 13-13.5 45.7-44.3-12.9z" clip-path="url(#C)" fill="url(#D)"/>
 <path id="path764" transform="matrix(2.1985 0 0 2.1985 -251.06 -300.61)" d="m191.2 338.6h1.4s1.5 1.9 4.9 3.8c2 1.1 5.4 2 8 1.2-1.4 0.8-4.6 0.9-7.9-0.5-2.4-1.1-3.8-2.2-6.4-4.5" clip-path="url(#B)" fill="#3a1518"/>
 <path id="path766" transform="matrix(2.1985 0 0 2.1985 -251.06 -300.61)" d="m187.3 301.9 48.4 15.2-15.3 49-48.5-15.2z" clip-path="url(#y)" fill="url(#A)"/>
 <path id="path768" transform="matrix(2.1985 0 0 2.1985 -251.06 -300.61)" d="m189.5 300.5 47.1 18.3-18.6 47.8-47.1-18.3z" clip-path="url(#w)" fill="url(#x)"/>
 <path id="path770" transform="matrix(2.1985 0 0 2.1985 -251.06 -300.61)" d="m222.8 304.6 46.4 12.5-12.4 45.7-46.3-12.5z" clip-path="url(#u)" fill="url(#v)"/>
 <path id="path772" transform="matrix(2.1985 0 0 2.1985 -251.06 -300.61)" d="m239.4 324.3-2.4 8.8s0.8 0.1 0.8 0 2.1-8.4 2.1-8.4h3.3c0.8 0 3-0.1 4.1 1.6 1 1.7 0 3.9-0.9 4.8-0.9 0.8-1.7 1.6-5.1 2 0 0 4.5-0.2 5.9-2.8 1.1-2 0.6-3.7-0.2-4.6-0.8-0.8-1.6-1.3-4-1.3-2-0.1-3.6-0.1-3.6-0.1" clip-path="url(#t)" fill="#3a1518"/>
 <path id="path774" transform="matrix(2.1985 0 0 2.1985 -251.06 -300.61)" d="m302.7 304 48.2 12.8-12.3 46.4-48.2-12.8z" clip-path="url(#r)" fill="url(#s)"/>
 <path id="path776" transform="matrix(2.1985 0 0 2.1985 -251.06 -300.61)" d="m328.7 325.6c-0.8-0.8-2.4-1.1-4.4-1.1h-5l-2.2 8h5.3c2.7 0 4.7-0.6 6-1.9 0.8-0.8 1.3-1.6 1.3-2.7-0.1-0.9-0.4-1.7-1-2.3m-1.2 4.9c-1.2 1.2-3.1 1.8-5.6 1.8h-4.5l2.1-7.5h4c2.2 0 3.6 0.3 4.3 1 0.6 0.6 0.9 1.3 0.9 2.1 0 1.1-0.4 1.8-1.2 2.6" clip-path="url(#q)" fill="#3a1518"/>
 <path id="path778" transform="matrix(2.1985 0 0 2.1985 -251.06 -300.61)" d="m311.5 353.7h-12.1l10.7-39.7-0.7 0.3-10.5 39 0.4 0.6h12.1z" clip-path="url(#q)" fill="#54151b"/>
 <path id="path780" transform="matrix(2.1985 0 0 2.1985 -251.06 -300.61)" d="m346.8 353.7 7.7-29.1h-11.2l2.8-10.6-1.3 0.2-2.7 10.8h11l-7.5 28.7z" clip-path="url(#q)" fill="#54151b"/>
 <path id="path782" transform="matrix(2.1985 0 0 2.1985 -251.06 -300.61)" d="m262.8 303.9 48.2 12.3-12.1 47.6-48.3-12.4z" clip-path="url(#n)" fill="url(#p)"/>
 <path id="path784" transform="matrix(2.1985 0 0 2.1985 -251.06 -300.61)" d="m204.8 354.3c-0.8 0.1-1.7 0.1-2.6 0.1-7.8 0-13.9-2.3-19-7.7l7.5-7.6-6.9 7.6s2.7 2.5 4.4 3.6c2 1.4 5.6 2.9 9.1 3.5 3.7 0.6 7.5 0.5 7.5 0.5" clip-path="url(#m)" fill="#5f1317"/>
 <path id="path786" transform="matrix(2.1985 0 0 2.1985 -251.06 -300.61)" d="m214.1 350.8c5.2-4.3 6-10 4.7-13.5-1.6-4.2-5.2-5.7-8-7-3.1-1.4-6-2.1-7.3-3.3-2-1.9 0.1-3.4 1.7-3.5 6.8-0.6 11.3 4.4 11.3 4.4l7.4-8.1c-4.2-3.9-9.5-6.2-16.2-6.3-5.6-0.1-10 1.5-13.3 4.6-2.4 2.2-3.7 4.4-4.1 6.7 0.4-2.4 1.8-4.9 3.6-6.7 3.2-3.1 8-4.9 13.6-4.9 6.8 0 12.9 2.5 17.3 6.6l-7.4 8.4-1 0.1c-3.5-3.1-6-4.2-9.7-4.2-1.3 0-2.3 0.2-2.8 1.2-0.2 0.5-0.1 1.3 0.7 1.8s2.1 1 4.9 2.1c3.5 1.3 6.3 3 7.8 4.6 1.9 2 2.8 4.6 2.6 7.3-0.2 3.6-1.4 6.1-3.8 8.5-2.4 2.3-6.2 4-10.2 4.7 0.2-0.1 5.2-1.1 8.2-3.5" clip-path="url(#m)" fill="#3a1518"/>
 <path id="path788" transform="matrix(2.1985 0 0 2.1985 -251.06 -300.61)" d="m377.9 325 0.2-0.6h-11.4l-0.2 0.6z" clip-path="url(#m)" fill="#54151b"/>
 <path id="path790" transform="matrix(2.1985 0 0 2.1985 -251.06 -300.61)" d="m289.2 226.8c14.6-2.8 17.8-17.9 17.8-26 0-17.6-12.2-25.4-22.7-29.7-12.5-5.1-28.3-6.2-46.4 0.8-11.9 4.5-22.6 16.6-25.7 24.9-2.8 7.5-1.7 13.1-1.7 13.1h29.4s0.3-5.2 1.9-8.7c2.1-4.8 6.9-9.1 16.1-9.3 14.4-0.3 19.6 6.1 19.8 12.4 0.2 6-4 12-15.3 12.8-8.5 0.6-13.4 0.3-13.4 0.3v22s5.6-1 14-0.2c14 1.4 16.1 8.9 16.6 15.1 0.8 9.5-5.7 18.3-22.8 17.5-12.8-0.6-17.3-7.5-18.9-11.8s-1.4-11.1-1.4-11.1h-29.3s-1 9.5 2 18.6c3.3 10.2 10.7 19.6 23.6 24.9 17.1 7 38.2 5.8 52.2 0.3 11.5-4.5 25.3-13.7 26.2-36.1 0.2-9.8-3.2-25.7-22-29.8" clip-path="url(#m)" fill="#f4f4f4"/>
 <path id="path792" transform="matrix(2.1985 0 0 2.1985 -251.06 -300.61)" d="m294 205.9 18.1 6.3-6.9 20-18.1-6.3z" clip-path="url(#k)" fill="url(#l)"/>
 <path id="path794" transform="matrix(2.1985 0 0 2.1985 -251.06 -300.61)" d="m210.3 208.9h31.2v4h-31.2z" clip-path="url(#i)" fill="url(#j)"/>
 <path id="path796" transform="matrix(2.1985 0 0 2.1985 -251.06 -300.61)" d="m239.8 192.9h36.9v19.9h-36.9z" clip-path="url(#g)" fill="url(#h)"/>
 <path id="path798" transform="matrix(2.1985 0 0 2.1985 -251.06 -300.61)" d="m292.9 175.5c8.3 4.7 14.8 12.3 15 26.1 0.1 8.7-5 22.5-15.2 25.2-0.1 0-0.1 0.1 0 0.1 16.7 6.3 19.1 19.2 19.1 29.9 0 22.5-14.6 32.2-26.5 36.8-14.3 5.6-35.6 6.9-52.9-0.3-13-5.4-20.5-15-23.9-25.4-2.9-8.8-2.4-18.5-2.3-19.5 0 0 0-0.1 0.1-0.1h30.9s0.3 0 0.3 0.1c0 0.8 0 7.7 1.5 11.8 1.6 4.4 5.7 10.2 18.7 10.6 16 0.5 22.1-7.1 20.8-17.8-0.7-6.2-4.9-12.1-16.5-13-7.8-0.6-13.4 0.3-14.1 0.4-0.1 0-0.1 0-0.1-0.1v-23.7c0.9 0.1 9.5 0.4 16.2-0.4 7.6-0.9 13.2-5 12.8-12.2-0.3-5.6-5.4-10.9-16.7-11.2-9.8-0.2-15.5 3.4-17.5 8.3-1.9 4.6-1.8 8.9-1.8 9.6 0 0 0 0.1-0.1 0.1 0 0-31.1 0-31.1-0.1 0-1 0-8.1 2.6-14-2.8 7.5-1.7 13.1-1.7 13.1h29.4s0.4-5.2 1.9-8.7c2-4.9 6.9-9.1 16.1-9.3 14.4-0.4 19.6 6.1 19.8 12.4 0.2 6-4 12-15.3 12.8-8.5 0.6-13.7 0.3-13.7 0.3v21.9s5.9-1 14.2-0.2c14 1.4 16.1 8.8 16.6 15.1 0.8 9.6-5.7 18.3-22.8 17.5-12.9-0.6-17.3-7.5-18.9-11.8s-1.3-11.1-1.3-11.1h-29.3s-1 9.5 2 18.6c3.3 10.2 10.7 19.6 23.6 24.9 17.1 7.1 38.2 5.8 52.2 0.3 11.5-4.5 25.3-13.7 26.1-36.1 0.4-9.8-3-25.7-21.9-29.8 14.6-2.9 17.8-17.9 17.9-26-0.1-12.6-6.6-20.2-14.2-25.1" clip-path="url(#f)" fill="#c6c4c7"/>
 <path id="path800" transform="matrix(2.1985 0 0 2.1985 -251.06 -300.61)" d="m210.5 212.8h0.9l-0.8-1.9-1-0.1z" clip-path="url(#f)" fill="#5a595d"/>
 <path id="path802" transform="matrix(2.1985 0 0 2.1985 -251.06 -300.61)" d="m247.8 239.8h30.9v14.8h-30.9z" clip-path="url(#c)" fill="url(#e)"/>
 <path id="path804" transform="matrix(2.1985 0 0 2.1985 -251.06 -300.61)" d="m296.6 228.7-7.6-0.3 0.2-4.9 7.6 0.3z" clip-path="url(#a)" fill="url(#b)"/>
</svg>
