<svg width="600" height="600.04" version="1.1" viewBox="0 0 158.75 158.76" xmlns="http://www.w3.org/2000/svg">
 <g transform="translate(-212.93 -564.03)">
  <path d="m292.3 564.03c43.74 0 79.38 35.65 79.38 79.37 0 43.74-35.64 79.39-79.38 79.39-43.73 0-79.37-35.65-79.37-79.39 0-43.72 35.64-79.37 79.37-79.37" fill="#ff3334"/>
  <path d="m314.89 577.01c-0.6 0.01-1.3 0.34-2.18 0.98l-27.75 41.16-45.02 67.44c-0.74 2.02-0.19 2.94 1.83 2.94h43.19v-0.01h11.02v12.13c0 1.47 1.28 2.02 3.3 1.84h15.62c1.29 0 2.03-0.73 1.84-1.84v-12.13h11.02c1.47-0.17 1.84-1.28 1.84-2.75v-15.07c0-1.46-0.73-2.21-2.2-2.02h-10.66v-91.14c-0.52-1.03-1.09-1.54-1.85-1.53zm-19.83 62.72v29.95h-20.77l10.67-15.62 10.1-14.33z" fill="#fff"/>
 </g>
</svg>
