<?xml version="1.0" encoding="UTF-8"?>
<svg id="svg8" width="1412" height="600.04" version="1.1" viewBox="0 0 373.59 158.76" xmlns="http://www.w3.org/2000/svg" xmlns:cc="http://creativecommons.org/ns#" xmlns:dc="http://purl.org/dc/elements/1.1/" xmlns:rdf="http://www.w3.org/1999/02/22-rdf-syntax-ns#">
 <metadata id="metadata14">
  <rdf:RDF>
   <cc:Work rdf:about="">
    <dc:format>image/svg+xml</dc:format>
    <dc:type rdf:resource="http://purl.org/dc/dcmitype/StillImage"/>
    <dc:title/>
   </cc:Work>
  </rdf:RDF>
 </metadata>
 <g id="g6" transform="translate(-212.93 -564.03)">
  <path id="path2" d="m292.3 564.03c43.74 0 79.38 35.65 79.38 79.37 0 43.74-35.64 79.39-79.38 79.39-43.73 0-79.37-35.65-79.37-79.39 0-43.72 35.64-79.37 79.37-79.37" fill="#ed1c2e"/>
  <path id="path4" d="m314.89 577.01c-0.6 0.01-1.3 0.34-2.18 0.98l-27.75 41.16-45.02 67.44c-0.74 2.02-0.19 2.94 1.83 2.94h43.19v-0.01h11.02v12.13c0 1.47 1.28 2.02 3.3 1.84h15.62c1.29 0 2.03-0.73 1.84-1.84v-12.13h11.02c1.47-0.17 1.84-1.28 1.84-2.75v-15.07c0-1.46-0.73-2.21-2.2-2.02h-10.66v-91.14c-0.52-1.03-1.09-1.54-1.85-1.53zm-19.83 62.72v29.95h-20.77l10.67-15.62z" fill="#fff"/>
 </g>
 <g id="g867" transform="translate(-181.02 -91.835)">
  <g id="g10881" transform="matrix(16.565 0 0 -16.565 1101 10152)"></g>
  <g id="g10892" transform="matrix(16.565 0 0 -16.565 1101 10152)">
   <g id="g140" transform="translate(-43.649 605.48)">
    <path id="path142" d="m0 0h0.583v-2.561h3.012v2.561h0.583v-5.818h-0.583v2.731h-3.012v-2.731h-0.583z" fill="#706d6e"/>
   </g>
   <g id="g144" transform="translate(-43.649 605.48)">
    <path id="path146" d="m0 0h0.583v-2.561h3.012v2.561h0.583v-5.818h-0.583v2.731h-3.012v-2.731h-0.583z" fill="none" stroke="#706d6e" stroke-width=".359"/>
   </g>
   <g id="g148" transform="translate(-37.498 600.19)">
    <path id="path150" d="m0 0h0.842c0.13 0 0.277 2e-3 0.439 5e-3 0.162 8e-3 0.331 0.025 0.507 0.055 0.175 0.028 0.354 0.075 0.53 0.137s0.351 0.155 0.52 0.273c0.09 0.076 0.183 0.172 0.288 0.286 0.105 0.116 0.206 0.251 0.293 0.406 0.097 0.161 0.172 0.34 0.233 0.545 0.066 0.206 0.096 0.434 0.096 0.684 0 0.388-0.09 0.751-0.266 1.088-0.182 0.338-0.419 0.618-0.722 0.839-0.133 0.081-0.266 0.154-0.405 0.213-0.132 0.058-0.279 0.101-0.432 0.138-0.152 0.031-0.316 0.058-0.494 0.074-0.177 0.013-0.374 0.021-0.587 0.021h-0.842zm-0.583 5.292h1.696c0.365 0 0.713-0.041 1.043-0.125 0.337-0.087 0.618-0.203 0.854-0.356 0.257-0.156 0.47-0.339 0.635-0.549 0.17-0.209 0.303-0.427 0.407-0.648 0.103-0.224 0.174-0.442 0.216-0.66 0.041-0.219 0.065-0.413 0.065-0.586 0-0.137-0.015-0.308-0.055-0.509-0.031-0.203-0.095-0.413-0.192-0.635-0.094-0.224-0.228-0.448-0.4-0.669-0.174-0.222-0.4-0.422-0.676-0.602-0.236-0.154-0.517-0.27-0.854-0.352-0.33-0.086-0.678-0.127-1.043-0.127h-1.696z" fill="#706d6e"/>
   </g>
   <g id="g152" transform="translate(-37.498 600.19)">
    <path id="path154" d="m0 0h0.842c0.13 0 0.277 2e-3 0.439 5e-3 0.162 8e-3 0.331 0.025 0.507 0.055 0.175 0.028 0.354 0.075 0.53 0.137s0.351 0.155 0.52 0.273c0.09 0.076 0.183 0.172 0.288 0.286 0.105 0.116 0.206 0.251 0.293 0.406 0.097 0.161 0.172 0.34 0.233 0.545 0.066 0.206 0.096 0.434 0.096 0.684 0 0.388-0.09 0.751-0.266 1.088-0.182 0.338-0.419 0.618-0.722 0.839-0.133 0.081-0.266 0.154-0.405 0.213-0.132 0.058-0.279 0.101-0.432 0.138-0.152 0.031-0.316 0.058-0.494 0.074-0.177 0.013-0.374 0.021-0.587 0.021h-0.842zm-0.583 5.292h1.696c0.365 0 0.713-0.041 1.043-0.125 0.337-0.087 0.618-0.203 0.854-0.356 0.257-0.156 0.47-0.339 0.635-0.549 0.17-0.209 0.303-0.427 0.407-0.648 0.103-0.224 0.174-0.442 0.216-0.66 0.041-0.219 0.065-0.413 0.065-0.586 0-0.137-0.015-0.308-0.055-0.509-0.031-0.203-0.095-0.413-0.192-0.635-0.094-0.224-0.228-0.448-0.4-0.669-0.174-0.222-0.4-0.422-0.676-0.602-0.236-0.154-0.517-0.27-0.854-0.352-0.33-0.086-0.678-0.127-1.043-0.127h-1.696z" fill="none" stroke="#706d6e" stroke-width=".359"/>
   </g>
  </g>
 </g>
</svg>
