<svg id="a" enable-background="new 0 0 509.5 120" version="1.1" viewBox="0 0 509.5 120" xml:space="preserve" xmlns="http://www.w3.org/2000/svg">
<g id="b">
	<path d="M60,120c33.1,0,60-26.9,60-60S93.1,0,60,0S0,26.9,0,60S26.9,120,60,120" fill="#FF3334"/>
	<path d="m62.9 79.7h-15.6l15.6-23.1v23.1zm24.2 0h-8.1v-69.3c0-0.6-0.4-1-0.9-1.2s-1.1 0-1.4 0.5l-56.4 83.3c-0.3 0.4-0.3 0.9-0.1 1.3s0.6 0.7 1.1 0.7h41.6v9.4c0 0.7 0.6 1.2 1.2 1.2h13.5c0.7 0 1.2-0.6 1.3-1.2v-9.4h8.1c0.7 0 1.2-0.5 1.2-1.2v-12.9c0.1-0.7-0.4-1.2-1.1-1.2" fill="#fff"/>
</g>
<g id="c" fill="#FF3334">
	<path d="m165.8 101.9c-4.6 0-5.9-1.4-5.9-5.6v-71.7c0-4.2 1.3-5.6 5.9-5.6h40.9c4.2 0 5.6 1.4 5.6 6v3.6c0 4.6-1.4 5.8-5.6 5.8h-30.4v19.6h25.5c4.2 0 5.6 1.4 5.6 6v3.6c0 4.6-1.4 5.8-5.6 5.8h-25.5v26.7c0 4.2-1.4 5.6-6 5.6h-4.5z"/>
	<path d="m242 24.8c1.4-3.4 3.9-5.8 8.2-5.8h2.1c4.2 0 6.8 2.5 8.2 5.8l26.9 67c0.8 2.2 2.1 4.4 2.1 6.6 0 2.4-1.8 3.5-5.4 3.5h-5.5c-4.6 0-5.4-2.1-7-6.1l-5.9-14.5h-29.2l-5.9 14.5c-1.6 4-2.4 6.1-7 6.1h-5.4c-3.6 0-5.4-1.1-5.4-3.5 0-2.1 1.3-4.3 2.1-6.6l27.1-67zm9.2 18.9-8.7 22.4h17.2l-8.5-22.4z"/>
	<path d="m307.8 101.9c-4.6 0-5.9-1.4-5.9-5.6v-71.7c0-4.2 1.3-5.6 5.9-5.6h4.6c4.6 0 6 1.4 6 5.6v26.3l26.2-27.7c2.6-2.9 4.5-4.2 7.5-4.2h6.1c2.9 0 5.5 1.3 5.5 4.2 0 1.3-0.6 3.4-2.8 5.7l-26.5 27.7 28.1 35.5c2.1 2.7 2.7 4.3 2.7 5.6 0 2.8-2.7 4.1-5.5 4.1h-5.9c-2.9 0-4.9-1.6-7-4.3l-23.5-29.2-4.8 5v22.9c0 4.2-1.4 5.6-6 5.6h-4.7z"/>
	<path d="m431.4 19c4.2 0 5.6 1.3 5.6 5.8v3.6c0 4.6-1.4 6-5.6 6h-17.6v61.8c0 4.2-1.4 5.6-6 5.6h-4.5c-4.6 0-5.9-1.4-5.9-5.6v-61.8h-17.5c-4.2 0-5.6-1.4-5.6-6v-3.6c0-4.6 1.4-5.8 5.6-5.8h51.5z"/>
	<path d="m462 24.8c1.4-3.4 3.9-5.8 8.2-5.8h2.1c4.2 0 6.8 2.5 8.2 5.8l26.9 67c0.8 2.2 2.1 4.4 2.1 6.6 0 2.4-1.8 3.5-5.4 3.5h-5.5c-4.6 0-5.4-2.1-7-6.1l-5.8-14.5h-29.2l-5.8 14.5c-1.6 4-2.5 6.1-7 6.1h-5.4c-3.6 0-5.4-1.1-5.4-3.5 0-2.1 1.3-4.3 2.1-6.6l26.9-67zm9.2 18.9-8.6 22.4h17.2l-8.6-22.4z"/>
</g>
</svg>
