<svg id="a" enable-background="new 0 0 410.8 120" version="1.1" viewBox="0 0 410.8 120" xml:space="preserve" xmlns="http://www.w3.org/2000/svg">
<g id="b">
	<circle cx="60" cy="60" r="60" fill="#FF3334"/>
	<path d="m62.9 79.7h-15.6l15.6-23.1v23.1zm24.2 0h-8.1v-69.3c0-0.6-0.4-1-0.9-1.2s-1.1 0-1.4 0.5l-56.4 83.3c-0.4 0.6-0.2 1.4 0.4 1.7 0.2 0.1 0.4 0.2 0.6 0.2h41.6v9.4c0 0.7 0.6 1.2 1.2 1.2h13.5c0.7 0 1.3-0.5 1.3-1.2v-9.3h8.1c0.7 0 1.2-0.5 1.2-1.2v-12.9c0.2-0.7-0.4-1.2-1.1-1.2 0.1-0.1 0.1-0.1 0 0" fill="#fff"/>
	<path d="m166.1 101.9c-4.6 0-5.9-1.4-5.9-5.6v-71.7c0-4.2 1.3-5.6 5.9-5.6h40.9c4.2 0 5.6 1.4 5.6 6v3.6c0 4.6-1.4 5.8-5.6 5.8h-30.4v19.6h25.5c4.2 0 5.6 1.4 5.6 6v3.6c0 4.6-1.4 5.8-5.6 5.8h-25.5v26.8c0 4.2-1.4 5.6-6 5.6h-4.5z" fill="#FF3334"/>
	<path d="m235 101.9c-4.6 0-5.9-1.4-5.9-5.6v-71.7c0-4.2 1.3-5.6 5.9-5.6h4.6c4.6 0 6 1.4 6 5.6v71.7c0 4.2-1.4 5.6-6 5.6h-4.6z" fill="#FF3334"/>
	<path d="m270.1 101.9c-4.6 0-5.8-1.4-5.8-5.6v-71.7c0-4.2 1.3-5.6 5.8-5.6h4.6c4.6 0 6 1.4 6 5.6v61.9h31.7c4.2 0 5.6 1.4 5.6 6v3.5c0 4.6-1.4 5.8-5.6 5.8l-42.3 0.1z" fill="#FF3334"/>
	<path d="m337.5 101.9c-4.6 0-5.9-1.4-5.9-5.6v-71.7c0-4.2 1.3-5.6 5.9-5.6h4.1c4 0 5.7 1.2 7.8 4.2l21.8 31.9 21.8-31.9c2.1-3 3.7-4.2 7.8-4.2h4.1c4.6 0 5.9 1.4 5.9 5.6v71.7c0 4.2-1.3 5.6-5.9 5.6h-4.6c-4.6 0-6-1.4-6-5.6v-47.3l-14.1 20.9c-2.1 3-3.6 5.4-8 5.4h-2.2c-4.3 0-5.9-2.3-8-5.4l-14-20.9v47.3c0 4.2-1.4 5.6-6 5.6h-4.5z" fill="#FF3334"/>
</g>
</svg>
