<svg id="b" width="800" height="452.61" version="1.1" viewBox="0 0 211.67 119.75" xmlns="http://www.w3.org/2000/svg">
 <defs id="c">
  <clipPath id="a">
   <path id="d" d="m303.06 478.76h13.401v13.401h-13.401z"/>
  </clipPath>
 </defs>
 <g id="e" transform="translate(21.187 -31.444)">
  <g id="f" transform="matrix(8.9368 0 0 -8.9368 -2729.6 4429.7)">
   <g id="g" clip-path="url(#a)">
    <g id="h" transform="translate(305.03 490.19)">
     <path id="i" d="m0 0c-1.266-1.265-1.963-2.948-1.963-4.738 0-1.789 0.697-3.472 1.963-4.738 1.265-1.265 2.948-1.962 4.738-1.962s3.472 0.697 4.738 1.962c1.265 1.266 1.962 2.949 1.962 4.738 0 1.79-0.697 3.473-1.962 4.738-1.266 1.266-2.948 1.962-4.738 1.962s-3.473-0.696-4.738-1.962m0.582-8.893c-1.109 1.11-1.721 2.586-1.721 4.155 0 1.57 0.612 3.045 1.721 4.155 1.111 1.11 2.586 1.721 4.156 1.721s3.045-0.611 4.155-1.721c1.111-1.11 1.721-2.585 1.721-4.155 0-1.569-0.61-3.045-1.721-4.155-1.11-1.11-2.585-1.721-4.155-1.721s-3.045 0.611-4.156 1.721"/>
    </g>
    <g id="j" transform="translate(312.43 489.58)">
     <path id="k" d="m0 0-0.224-2.346h-2.581s-0.075-0.41-0.112-0.653c1.231 0.187 2.612-0.074 3.227-1.212 0.466-1.007 0.243-2.183-0.429-3.022-1.25-1.455-3.283-1.511-4.962-0.914-0.537 0.199-0.811 0.473-0.811 0.473s0.158 1.243 0.27 1.766c0.728-0.504 1.866-0.877 2.687-0.299 0.27 0.201 0.408 0.485 0.335 0.839-0.211 0.59-0.933 0.784-1.567 0.784-0.471-0.032-0.931-0.101-1.324-0.429 0.149 1.679 0.429 3.339 0.634 5.018z"/>
    </g>
   </g>
  </g>
  <g id="l" stroke-width="8.9368" aria-label="HD">
   <path id="m" d="m148.22 110.83h-10.054v-17.175h-14.845v17.175h-10.054v-38.985h10.054v14.269h14.845v-14.269h10.054z"/>
   <path id="n" d="m190.48 91.376q0 5.4458-2.4873 9.7659-2.4873 4.2938-6.2837 6.5978-2.8538 1.728-6.2575 2.4087-3.4037 0.68073-8.064 0.68073h-13.746v-38.985h14.138q4.7651 0 8.2211 0.81164 3.456 0.78546 5.8124 2.2516 4.032 2.4611 6.336 6.6502 2.3302 4.1629 2.3302 9.8182zm-10.394-0.07855q0-3.8487-1.4138-6.5717-1.3876-2.7491-4.4248-4.2938-1.5447-0.75928-3.168-1.0211-1.5971-0.288-4.8437-0.288h-2.5396v24.402h2.5396q3.5869 0 5.2626-0.31419 1.6756-0.34036 3.2728-1.2044 2.7491-1.5709 4.032-4.1891 1.2829-2.6444 1.2829-6.5193z"/>
  </g>
 </g>
</svg>
