<svg id="a" version="1.1" viewBox="0 0 387.73 387.72" xml:space="preserve" xmlns="http://www.w3.org/2000/svg">
  <g id="b" transform="matrix(1.3333 0 0 -1.3333 0 387.72)">
    <g id="c" transform="scale(.1)">
      <path id="d" d="m425.88 2482.1c-274.71-274.59-425.88-639.74-425.88-1028.1 0-388.38 151.17-753.56 425.88-1028.2 274.59-274.59 639.71-425.81 1028.1-425.81 388.43 0 753.54 151.22 1028.2 425.81 274.63 274.62 425.86 639.8 425.86 1028.2 0 388.33-151.23 753.48-425.86 1028.1-274.64 274.63-639.75 425.85-1028.2 425.85-388.34 0-753.46-151.22-1028.1-425.85zm126.39-1929.8c-240.82 240.82-373.48 561.11-373.48 901.72 0 340.58 132.66 660.8 373.48 901.65 240.9 240.85 561.15 373.47 901.66 373.47 340.68 0 660.89-132.62 901.68-373.47 241-240.85 373.55-561.07 373.55-901.65 0-340.61-132.55-660.9-373.55-901.72-240.79-240.88-561-373.5-901.68-373.5-340.51 0-660.77 132.62-901.66 373.5"/>
      <path id="e" d="m2032.9 2348.4-48.57-509.03h-560.19s-16.16-88.98-24.22-141.64c267.14 40.5 566.73-16.19 700.27-263.09 101.2-218.58 52.64-473.61-93.05-655.74-271.23-315.79-712.51-327.93-1076.7-198.42-116.66 43.285-176.11 102.74-176.11 102.74s34.394 269.63 58.703 383.07c157.87-109.34 404.79-190.27 582.92-64.8 58.68 43.67 88.72 105.3 72.83 182.13-45.74 128.07-202.43 170.03-340.02 170.03-102.21-7-202.11-21.98-287.42-93.04 32.441 364.22 93.066 724.55 137.62 1088.9l1054-1.07"/>
    </g>
  </g>
</svg>
