<svg width="800" height="800" version="1.1" viewBox="0 0 800 800" xml:space="preserve" xmlns="http://www.w3.org/2000/svg">
<path d="m400 0c-220.93 0-400 179.15-400 400s179.07 400 400 400 400-179.07 400-400-179.07-400-400-400zm-184.46 418.35v-8.5904l-0.31237-262.79h347.13v121.98h-214.92l-0.23429 39.672h35.064c4.7638-0.15619 8.9809-0.31238 11.792-0.31238 2.1086 0 4.2171 0.15619 6.2476 0.31238 102.46 0.15619 185.47 91.605 185.47 185.71 0 102.54-83.171 185.71-185.71 185.71-102.54 0-185.79-83.093-185.79-185.71 0-0.62476 0.0781-22.179 0.0781-22.882l124.09-0.31238c-0.0781 0.85904-0.0781 22.647-0.0781 23.506 0 33.268 26.943 60.211 60.211 60.211 9.7618 0 19.055-2.3428 27.177-6.4818 1.3276-0.70285 2.6552-1.4057 3.9047-2.1086 0.0781 0 1.7962-1.0933 1.7962-1.1714 0.85904-0.54666 0 0 0.78095-0.54666 16.009-10.855 26.474-29.129 26.474-49.902 0-18.43-8.9028-36.626-21.945-47.716 0 0-15.775-13.588-43.186-21.007-14.369-3.9047-31.863-6.7161-51.464-7.419z" fill="#fff" stroke-width=".78094"/>
</svg>
