<svg id="a" width="600" height="600" version="1.1" viewBox="0 0 158.75 158.75" xmlns="http://www.w3.org/2000/svg">
 <path id="b" d="m158.63 74.994c-1.773-32.133-22.439-58.718-50.613-69.632l-42.244-4.168c-39.157 6.7583-67.894 41.931-65.649 82.573 2.4178 43.762 39.871 77.288 83.633 74.859 43.774-2.4178 77.289-39.859 74.871-83.632" fill="#2e8b80"/>
 <path id="c" d="m79.079 8.2918e-4c-1.3544 0.0061-2.7159 0.04691-4.0835 0.12245-3.1246 0.17346-6.1966 0.52549-9.2072 1.0454l-38.575 59.872c-16.015 24.385-9.2097 57.255 15.175 73.27 8.935 5.8718 19.009 8.6811 28.968 8.6811 17.236 0 34.16-8.4044 44.315-23.855 16.015-24.385 9.2109-57.256-15.186-73.282-4.64-3.0395-9.5904-5.2614-14.668-6.689 7.4035-11.276 14.81-22.549 22.213-33.825-9.0055-3.4934-18.779-5.3855-28.951-5.3392zm-7.8414 72.895c3.3145-0.04433 6.6763 0.86572 9.6511 2.8215 7.9212 5.204 10.132 15.888 4.9279 23.809-5.204 7.9211-15.889 10.143-23.821 4.9392-7.9211-5.2159-10.132-15.9-4.9279-23.821 3.2525-4.9505 8.6461-7.675 14.17-7.7489z" fill="#fff"/>
</svg>
