<?xml version="1.0" encoding="UTF-8"?>
<svg id="svg8" width="600" height="869.94" version="1.1" viewBox="0 0 158.75 230.17" xmlns="http://www.w3.org/2000/svg" xmlns:cc="http://creativecommons.org/ns#" xmlns:dc="http://purl.org/dc/elements/1.1/" xmlns:rdf="http://www.w3.org/1999/02/22-rdf-syntax-ns#">
 <metadata id="metadata14">
  <rdf:RDF>
   <cc:Work rdf:about="">
    <dc:format>image/svg+xml</dc:format>
    <dc:type rdf:resource="http://purl.org/dc/dcmitype/StillImage"/>
    <dc:title/>
   </cc:Work>
  </rdf:RDF>
 </metadata>
 <defs id="defs12">
  <clipPath id="clipPath21576">
   <path id="path21574" d="m97.984 564.95h15.591v17.141h-15.591z"/>
  </clipPath>
 </defs>
 <g id="g21570" transform="matrix(13.428 0 0 -13.428 -1341.1 7816.6)">
  <g id="g21572" clip-path="url(#clipPath21576)">
   <g id="g21578" transform="translate(108.61 581.41)">
    <path id="path21580" d="m0 0c1.835-1.004 3.082-2.953 3.082-5.188 0-3.26-2.652-5.912-5.911-5.912-3.26 0-5.911 2.652-5.911 5.912 0 2.997 2.244 5.48 5.14 5.859l-1.413-1.936c-1.376-0.769-2.308-2.239-2.308-3.923 0-2.478 2.014-4.494 4.492-4.494 2.477 0 4.492 2.016 4.492 4.494 0 1.765-1.025 3.295-2.509 4.029z" fill="#fff"/>
   </g>
   <g id="g21582" transform="translate(105.78 577.82)">
    <path id="path21584" d="m0 0c0.904 0 1.64-0.735 1.64-1.639s-0.736-1.64-1.64-1.64-1.639 0.736-1.639 1.64 0.735 1.639 1.639 1.639m-2.785 0.219-0.059-0.088v-7e-3c-0.329-0.53-0.504-1.136-0.504-1.763 0-1.847 1.502-3.348 3.348-3.348s3.349 1.501 3.349 3.348c0 1.712-1.293 3.128-2.954 3.324l1.632 2.235c-0.576 0.224-1.201 0.348-1.855 0.351l-2.81-3.851c-0.05-0.063-0.101-0.132-0.147-0.201" fill="#ed1a3b"/>
   </g>
   <path id="path21586" d="m109.93 564.95h-7.957v4.42h7.957z" fill="#a7a5a6"/>
   <g id="g21588" transform="translate(104.88 565.65)">
    <path id="path21590" d="m0 0v1.185h-1.127v-1.185h-0.886v3.131h0.886v-1.19h1.127v1.19h0.877v-3.131z" fill="#fff"/>
   </g>
   <g id="g21592" transform="translate(107.11 566.4)">
    <path id="path21594" d="m0 0h0.465c0.564 0 0.76 0.42 0.76 0.85 0 0.429-0.219 0.796-0.76 0.796h-0.465zm0.465 2.384c1.105 0 1.637-0.68 1.637-1.543s-0.514-1.588-1.637-1.588h-1.342v3.131z" fill="#fff"/>
   </g>
  </g>
 </g>
</svg>
