<?xml version="1.0" encoding="UTF-8"?>
<svg id="svg13" width="89.572pt" height="135.41pt" version="1.1" viewBox="0 0 89.572 135.41" xmlns="http://www.w3.org/2000/svg" xmlns:cc="http://creativecommons.org/ns#" xmlns:dc="http://purl.org/dc/elements/1.1/" xmlns:rdf="http://www.w3.org/1999/02/22-rdf-syntax-ns#" xmlns:xlink="http://www.w3.org/1999/xlink">
 <metadata id="metadata19">
  <rdf:RDF>
   <cc:Work rdf:about="">
    <dc:format>image/svg+xml</dc:format>
    <dc:type rdf:resource="http://purl.org/dc/dcmitype/StillImage"/>
    <dc:title/>
   </cc:Work>
  </rdf:RDF>
 </metadata>
 <g id="g14" transform="scale(1.4263)">
  <clipPath id="clipPath865">
   <use id="use863" width="100%" height="100%" overflow="visible" xlink:href="#SVGID_1_"/>
  </clipPath>
  <path id="path8-2" d="m46.8 3.8c0.2 1 0.3 2 0.3 3 0 3.1-0.9 6-2.4 8.4 4.6 3.8 7.5 9.6 7.5 16 0 11.5-9.3 20.8-20.8 20.8s-20.8-9.3-20.8-20.8c0-6.4 2.9-12.2 7.5-16-1.5-2.4-2.4-5.3-2.4-8.4 0-1 0.1-2 0.3-3-9.5 5.4-16 15.6-16 27.4 0 17.3 14.1 31.4 31.4 31.4 11.9 0 22.2-6.6 27.5-16.3h-0.2c-2.4 0-4.4-2-4.4-4.4s2-4.4 4.4-4.4c1.2 0 2.4 0.5 3.2 1.3 0.6-2.4 0.9-5 0.9-7.6 0-11.8-6.5-22-16-27.4" clip-path="url(#SVGID_2_)" fill="#e75152"/>
  <path id="path10-5" d="m31.4 13.6c2.1 0 4-1 5.3-2.5 0.9-1.2 1.5-2.7 1.5-4.3 0-3.8-3-6.8-6.8-6.8s-6.8 3-6.8 6.8c0 1.6 0.6 3.1 1.5 4.3 1.3 1.5 3.2 2.5 5.3 2.5" clip-path="url(#SVGID_2_)" fill="#e75152"/>
  <path id="path12" d="m31.4 42.9c6.5 0 11.7-5.2 11.7-11.7 0-4.2-2.2-7.9-5.6-9.9-1.8-1.1-3.9-1.7-6.1-1.7s-4.3 0.6-6.1 1.7c-3.3 2.1-5.6 5.7-5.6 9.9 0 6.4 5.2 11.7 11.7 11.7" clip-path="url(#SVGID_2_)" fill="#e75152"/>
 </g>
 <path id="path8" d="m49.204 101.3h9.8453c3.5879 0 7.1328 0.0152 10.455 1.465 3.2466 1.8213 5.07 4.7491 6.0157 8.07 0.69729 2.4485 0.87941 5.0705 0.87941 7.7004 0 2.6596-0.18428 5.3172-0.88872 7.6974-1.2274 4.0808-4.1541 7.6594-8.4364 8.7221-2.5775 0.51726-5.1858 0.44975-7.8038 0.44975h-10.066v-34.105m7.465 5.7119v22.613h3.8523c2.7594 0 5.6733-0.52125 6.8127-3.4296 1.79-4.95 1.88-10.89-0.11-15.79-1.2318-2.8628-3.8389-3.3931-6.7027-3.3931z" fill="#e75152"/>
 <path id="path10" d="m15.179 135.4v-34.105h7.4298v13.26h11.4v-13.26h7.3802v34.105l-7.3802 2.5e-4v-14.325h-11.4v14.325z" fill="#e75152"/>
</svg>
