<?xml version="1.0" encoding="UTF-8"?>
<!-- Generator: Adobe Illustrator 18.0.0, SVG Export Plug-In . SVG Version: 6.00 Build 0)  -->
<!DOCTYPE svg  PUBLIC '-//W3C//DTD SVG 1.1//EN'  'http://www.w3.org/Graphics/SVG/1.1/DTD/svg11.dtd'>
<svg id="Layer_1" enable-background="new 0 0 1006.8 180" version="1.1" viewBox="0 0 1006.8 180" xml:space="preserve" xmlns="http://www.w3.org/2000/svg">
<rect width="1006.8" height="180" fill="#fff"/>
<polygon points="995.3 168.2 702.6 168.2 702.6 11.8 995.3 11.8" fill="#444"/>
<rect x="11.8" y="11.8" width="679.1" height="156.4" fill="#d00"/>
<path d="m603 148.8h-212.3s-25.7 1.5-25.7-21.5v-70.5c0-27.4 25.7-25.7 25.7-25.7h214.6c26.3 0 25.8 25.9 25.8 25.9v4.3h-83.8v-4.7s-1-12-15.3-12h-65c-17.7 0-17.2 14.7-17.2 14.7v59.4s-2 16.9 16 16.9h65.5c14.8 0 16.3-14.6 16.3-14.6v-22.2h-47.7v-13.7h131.1v38.7c0 0.1 0 25-28 25z" fill="#fff"/>
	<polyline points="140.9 148.9 39.9 31.2 144 31.1 196.6 110.6 253.4 31 356.3 31.2 254.1 148.9 140.9 148.9" fill="#fff"/>
<g fill="#fff">
	<path d="M841.7,31.1v40.6h-26.8v76.7h-44.8V71.7h-26.5V31.1H841.7z"/>
	<path d="m960.5 31.1-22.8 117.3h-63.9l-26-117.3h45.2c5.4 32.3 9.3 51.2 11.7 73.6 2.4-22.7 4.9-34.2 7.5-51.7l3.1-21.8h45.2z"/>
</g>
</svg>
