<svg id="ce" width="800" height="274.16" version="1.1" viewBox="0 0 211.67 72.538" xmlns="http://www.w3.org/2000/svg">
 <defs id="cf">
  <clipPath id="ap">
   <path id="cg" d="m216.94 201.35h5.14v-2.145h-5.14z"/>
  </clipPath>
  <clipPath id="ao">
   <path id="ch" d="m216.94 199.2h5.14v2.145h-5.14z"/>
  </clipPath>
  <clipPath id="cd">
   <path id="ci" d="m192.73 195.15h29.344v10.057h-29.344z"/>
  </clipPath>
  <clipPath id="cc">
   <path id="cj" d="m212.24 198.02h2.867v-2.866h-2.867z"/>
  </clipPath>
  <clipPath id="cb">
   <path id="ck" d="m213.49 198c-0.71-0.09-1.234-0.685-1.254-1.38v-0.081c1e-3 -0.047 5e-3 -0.094 0.011-0.141 0.09-0.711 0.686-1.234 1.381-1.253h0.08c0.047 1e-3 0.093 4e-3 0.14 0.011 0.786 0.099 1.342 0.816 1.243 1.601-0.091 0.724-0.708 1.254-1.42 1.254-0.059 0-0.12-3e-3 -0.181-0.011"/>
  </clipPath>
  <mask id="n" x="0" y="0" width="1" height="1" maskUnits="userSpaceOnUse">
   <g id="cl">
    <g id="cm" clip-path="url(#ca)">
     <g id="cn">
      <g id="co">
       <g id="cp">
        <g id="cq">
         <path id="cr" d="m213.62 193.54-2.987 3.094 3.093 2.988 2.988-3.094z" fill="url(#an)"/>
        </g>
       </g>
      </g>
     </g>
    </g>
   </g>
  </mask>
  <clipPath id="ca">
   <path id="cs" d="m-726.89 1093h1815.3v-1815.3h-1815.3z"/>
  </clipPath>
  <linearGradient id="an" x2="1" gradientTransform="matrix(-2.1085 2.1834 2.1834 2.1085 214.75 195.46)" gradientUnits="userSpaceOnUse">
   <stop id="ct" stop-color="#fff" offset="0"/>
   <stop id="cu" stop-color="#fff" offset=".127"/>
   <stop id="cv" stop-color="#fff" stop-opacity="0" offset="1"/>
  </linearGradient>
  <linearGradient id="am" x2="1" gradientTransform="matrix(-2.1085 2.1834 2.1834 2.1085 214.75 195.46)" gradientUnits="userSpaceOnUse">
   <stop id="cw" stop-color="#af4f98" offset="0"/>
   <stop id="cx" stop-color="#a75da1" offset="1"/>
  </linearGradient>
  <clipPath id="bz">
   <path id="cy" d="m212.77 204.9h4.486v-7.282h-4.486z"/>
  </clipPath>
  <clipPath id="by">
   <path id="cz" d="m212.81 204.87c-0.015-2e-3 -0.03-4e-3 -0.044-7e-3 1.829-0.421 3.288-1.942 3.536-3.913 0.155-1.232-0.192-2.41-0.881-3.331 1.094 0.696 1.805 1.91 1.831 3.254v0.148c-3e-3 0.14-0.013 0.282-0.031 0.425-0.252 1.996-1.952 3.455-3.913 3.455-0.165 0-0.331-0.01-0.498-0.031"/>
  </clipPath>
  <mask id="m" x="0" y="0" width="1" height="1" maskUnits="userSpaceOnUse">
   <g id="da">
    <g id="db" clip-path="url(#bx)">
     <g id="dc">
      <g id="dd">
       <g id="de">
        <g id="df">
         <path id="dg" d="m210.45 198.41 2.809 8.158 6.475-2.229-2.809-8.158z" fill="url(#al)"/>
        </g>
       </g>
      </g>
     </g>
    </g>
   </g>
  </mask>
  <clipPath id="bx">
   <path id="dh" d="m-726.89 1093h1815.3v-1815.3h-1815.3z"/>
  </clipPath>
  <linearGradient id="al" x2="1" gradientTransform="matrix(2.5647 7.4484 7.4484 -2.5647 212.67 195.78)" gradientUnits="userSpaceOnUse">
   <stop id="di" stop-color="#fff" stop-opacity="0" offset="0"/>
   <stop id="dj" stop-color="#fff" stop-opacity="0" offset=".40616"/>
   <stop id="dk" stop-color="#fff" stop-opacity=".72" offset="1"/>
  </linearGradient>
  <linearGradient id="ak" x2="1" gradientTransform="matrix(2.5647 7.4484 7.4484 -2.5647 212.67 195.78)" gradientUnits="userSpaceOnUse">
   <stop id="dl" stop-color="#a9589e" offset="0"/>
   <stop id="dm" stop-color="#ad4d97" offset="1"/>
  </linearGradient>
  <clipPath id="bw">
   <path id="dn" d="m207.21 205.2h4.287v-4.286h-4.287z"/>
  </clipPath>
  <linearGradient id="aj" x2="1" gradientTransform="matrix(3.3053 -2.5824 -2.5824 -3.3053 207.69 204.36)" gradientUnits="userSpaceOnUse">
   <stop id="do" stop-color="#aa3d8f" offset="0"/>
   <stop id="dp" stop-color="#be80b6" offset="1"/>
  </linearGradient>
  <linearGradient id="ai" x2="1" gradientTransform="matrix(6.8345 7.2186 7.2186 -6.8345 208.15 196.59)" gradientUnits="userSpaceOnUse">
   <stop id="dq" stop-color="#9b338a" offset="0"/>
   <stop id="dr" stop-color="#9b338a" offset=".16564"/>
   <stop id="ds" stop-color="#7e3c8f" offset="1"/>
  </linearGradient>
  <clipPath id="bv">
   <path id="dt" d="m211.74 204.98c-0.192 0-0.386-0.012-0.581-0.037-2.329-0.294-4.031-2.277-4.031-4.565 0-0.191 0.012-0.384 0.037-0.579 2e-3 -0.014 4e-3 -0.029 6e-3 -0.044 0.312-2.305 2.284-3.986 4.556-3.986h1e-3c0.192 0 0.387 0.012 0.581 0.036 2.329 0.294 4.031 2.278 4.03 4.565 0 0.192-0.012 0.385-0.036 0.58-0.075 0.588-0.256 1.137-0.524 1.628l-2e-3 2e-3c-0.787 1.443-2.313 2.39-4.01 2.4h-0.027"/>
  </clipPath>
  <mask id="l" x="0" y="0" width="1" height="1" maskUnits="userSpaceOnUse">
   <g id="du">
    <g id="dv" clip-path="url(#bu)">
     <g id="dw">
      <g id="dx">
       <g id="dy">
        <g id="dz">
         <path id="ea" d="m202.53 200.12 8.953 9.456 9.457-8.953-8.953-9.457z" fill="url(#ah)"/>
        </g>
       </g>
      </g>
     </g>
    </g>
   </g>
  </mask>
  <clipPath id="bu">
   <path id="eb" d="m-726.89 1093h1815.3v-1815.3h-1815.3z"/>
  </clipPath>
  <linearGradient id="ah" x2="1" gradientTransform="matrix(6.8345 7.2186 7.2186 -6.8345 208.15 196.59)" gradientUnits="userSpaceOnUse">
   <stop id="ec" stop-color="#fff" offset="0"/>
   <stop id="ed" stop-color="#fff" offset=".16564"/>
   <stop id="ee" stop-color="#fff" stop-opacity="0" offset=".56891"/>
   <stop id="ef" stop-color="#fff" stop-opacity="0" offset="1"/>
  </linearGradient>
  <linearGradient id="ag" x2="1" gradientTransform="matrix(6.8345 7.2186 7.2186 -6.8345 208.15 196.59)" gradientUnits="userSpaceOnUse">
   <stop id="eg" stop-color="#ae5ca0" offset="0"/>
   <stop id="eh" stop-color="#ae5ca0" offset=".16564"/>
   <stop id="ei" stop-color="#8b328a" offset="1"/>
  </linearGradient>
  <clipPath id="bt">
   <path id="ej" d="m211.16 204.94c-2.524-0.318-4.311-2.621-3.994-5.144 0.318-2.523 2.621-4.312 5.144-3.994 2.524 0.318 4.312 2.621 3.994 5.145-0.293 2.328-2.276 4.03-4.563 4.03-0.192 0-0.386-0.012-0.581-0.037"/>
  </clipPath>
  <clipPath id="bs">
   <path id="ek" d="m207.14 203.12h5.772v-5.772h-5.772z"/>
  </clipPath>
  <clipPath id="br">
   <path id="el" d="m210.03 203.12c-0.12 0-0.242-7e-3 -0.364-0.023-1.581-0.199-2.701-1.641-2.502-3.223 0.199-1.581 1.642-2.701 3.223-2.503 1.581 0.199 2.702 1.643 2.503 3.224-0.184 1.459-1.426 2.525-2.858 2.525h-2e-3"/>
  </clipPath>
  <mask id="k" x="0" y="0" width="1" height="1" maskUnits="userSpaceOnUse">
   <g id="em">
    <g id="en" clip-path="url(#bq)">
     <g id="eo">
      <g id="ep">
       <g id="eq">
        <g id="er">
         <path id="es" d="m215.69 201.86-4.037-7.282-7.281 4.037 4.036 7.281z" fill="url(#af)"/>
        </g>
       </g>
      </g>
     </g>
    </g>
   </g>
  </mask>
  <clipPath id="bq">
   <path id="et" d="m-726.89 1093h1815.3v-1815.3h-1815.3z"/>
  </clipPath>
  <linearGradient id="af" x2="1" gradientTransform="matrix(-2.7383 -4.9401 -4.9401 2.7383 211.41 202.73)" gradientUnits="userSpaceOnUse">
   <stop id="eu" stop-color="#fff" offset="0"/>
   <stop id="ev" stop-color="#fff" stop-opacity=".58" offset=".69052"/>
   <stop id="ew" stop-color="#fff" stop-opacity=".58" offset="1"/>
  </linearGradient>
  <linearGradient id="ae" x2="1" gradientTransform="matrix(-2.7383 -4.9401 -4.9401 2.7383 211.41 202.73)" gradientUnits="userSpaceOnUse">
   <stop id="ex" stop-color="#efcee4" offset="0"/>
   <stop id="ey" stop-color="#8a398e" offset="1"/>
  </linearGradient>
  <clipPath id="bp">
   <path id="ez" d="m207.21 205.2h4.287v-4.286h-4.287z"/>
  </clipPath>
  <linearGradient id="ad" x2="1" gradientTransform="matrix(3.3053 -2.5824 -2.5824 -3.3053 207.69 204.36)" gradientUnits="userSpaceOnUse">
   <stop id="fa" stop-color="#ac4895" offset="0"/>
   <stop id="fb" stop-color="#c083b7" offset="1"/>
  </linearGradient>
  <clipPath id="bo">
   <path id="fc" d="m208.04 200.61h4.286v-4.286h-4.286z"/>
  </clipPath>
  <clipPath id="bn">
   <path id="fd" d="m209.91 200.59c-1.174-0.148-2.006-1.219-1.858-2.394 0.136-1.081 1.054-1.872 2.115-1.875h0.013c0.087 0 0.177 5e-3 0.266 0.017 1.174 0.147 2.006 1.219 1.858 2.394-0.136 1.083-1.059 1.875-2.124 1.875-0.089 0-0.179-5e-3 -0.27-0.017"/>
  </clipPath>
  <mask id="j" x="0" y="0" width="1" height="1" maskUnits="userSpaceOnUse">
   <g id="fe">
    <g id="ff" clip-path="url(#bm)">
     <g id="fg">
      <g id="fh">
       <g id="fi">
        <g id="fj">
         <path id="fk" d="m212.46 196.19h-4.548v4.549h4.548z" fill="url(#ac)"/>
        </g>
       </g>
      </g>
     </g>
    </g>
   </g>
  </mask>
  <clipPath id="bm">
   <path id="fl" d="m-726.89 1093h1815.3v-1815.3h-1815.3z"/>
  </clipPath>
  <linearGradient id="ac" x2="1" gradientTransform="matrix(-4.1951 3.1e-6 3.1e-6 4.1951 212.3 198.46)" gradientUnits="userSpaceOnUse">
   <stop id="fm" stop-color="#fff" stop-opacity=".079988" offset="0"/>
   <stop id="fn" stop-color="#fff" stop-opacity=".079988" offset=".026309"/>
   <stop id="fo" stop-color="#fff" offset="1"/>
  </linearGradient>
  <linearGradient id="ab" x2="1" gradientTransform="matrix(-4.1951 3.1e-6 3.1e-6 4.1951 212.3 198.46)" gradientUnits="userSpaceOnUse">
   <stop id="fp" stop-color="#c889bb" offset="0"/>
   <stop id="fq" stop-color="#bc82b8" offset="1"/>
  </linearGradient>
  <clipPath id="bl">
   <path id="fr" d="m210.59 204.08h5.473v-5.47h-5.473z"/>
  </clipPath>
  <clipPath id="bk">
   <path id="fs" d="m213.28 204.08c-0.099 0-0.199-5e-3 -0.297-0.018-1.374-0.173-2.381-1.335-2.394-2.683v-0.059c1e-3 -0.104 8e-3 -0.209 0.021-0.314 0.172-1.373 1.334-2.379 2.68-2.394h0.055c0.106 1e-3 0.214 8e-3 0.322 0.021 1.374 0.173 2.382 1.339 2.394 2.686v0.051c-1e-3 0.106-8e-3 0.212-0.022 0.319-0.177 1.407-1.488 2.391-2.758 2.391h-1e-3"/>
  </clipPath>
  <mask id="i" x="0" y="0" width="1" height="1" maskUnits="userSpaceOnUse">
   <g id="ft">
    <g id="fu" clip-path="url(#bj)">
     <g id="fv">
      <g id="fw">
       <g id="fx">
        <g id="fy">
         <path id="fz" d="m216.06 205.23 1.165-6.607-6.622-1.168-1.165 6.607z" fill="url(#aa)"/>
        </g>
       </g>
      </g>
     </g>
    </g>
   </g>
  </mask>
  <clipPath id="bj">
   <path id="ga" d="m-726.89 1093h1815.3v-1815.3h-1815.3z"/>
  </clipPath>
  <linearGradient id="aa" x2="1" gradientTransform="matrix(.93903 -5.3255 -5.3255 -.93903 213.06 202.88)" gradientUnits="userSpaceOnUse">
   <stop id="gb" stop-color="#fff" stop-opacity=".93001" offset="0"/>
   <stop id="gc" stop-color="#fff" stop-opacity=".93001" offset=".08589"/>
   <stop id="gd" stop-color="#fff" stop-opacity="0" offset=".51776"/>
   <stop id="ge" stop-color="#fff" stop-opacity="0" offset=".92024"/>
   <stop id="gf" stop-color="#fff" stop-opacity="0" offset="1"/>
  </linearGradient>
  <linearGradient id="z" x2="1" gradientTransform="matrix(.93903 -5.3255 -5.3255 -.93903 213.06 202.88)" gradientUnits="userSpaceOnUse">
   <stop id="gg" stop-color="#ac569c" offset="0"/>
   <stop id="gh" stop-color="#ac569c" offset=".08589"/>
   <stop id="gi" stop-color="#ae73af" offset=".92024"/>
   <stop id="gj" stop-color="#ae73af" offset="1"/>
  </linearGradient>
  <clipPath id="bi">
   <path id="gk" d="m207.13 204.98h8.293v-9.211h-8.293z"/>
  </clipPath>
  <clipPath id="bh">
   <path id="gl" d="m211.73 204.98c-0.188-1e-3 -0.377-0.013-0.568-0.037-2.524-0.318-4.311-2.621-3.994-5.144 0.29-2.304 2.238-3.997 4.495-4.03h0.139c0.169 3e-3 0.339 0.015 0.51 0.036 1.292 0.163 2.39 0.847 3.113 1.814-0.477-0.304-1.027-0.51-1.625-0.584-2.163-0.273-4.138 1.26-4.41 3.424-0.271 2.148 1.24 4.11 3.38 4.404-0.327 0.075-0.665 0.116-1.011 0.117z"/>
  </clipPath>
  <mask id="h" x="0" y="0" width="1" height="1" maskUnits="userSpaceOnUse">
   <g id="gm">
    <g id="gn" clip-path="url(#bg)">
     <g id="go">
      <g id="gp">
       <g id="gq">
        <g id="gr">
         <path id="gs" d="m214.01 208.2 4.957-11.135-10.695-4.762-4.958 11.135z" fill="url(#y)"/>
        </g>
       </g>
      </g>
     </g>
    </g>
   </g>
  </mask>
  <clipPath id="bg">
   <path id="gt" d="m-726.89 1093h1815.3v-1815.3h-1815.3z"/>
  </clipPath>
  <linearGradient id="y" x2="1" gradientTransform="matrix(4.6037 -10.34 -10.34 -4.6037 207.48 207.67)" gradientUnits="userSpaceOnUse">
   <stop id="gu" stop-color="#fff" stop-opacity=".90001" offset="0"/>
   <stop id="gv" stop-color="#fff" stop-opacity=".90001" offset=".092344"/>
   <stop id="gw" stop-color="#fff" offset="1"/>
  </linearGradient>
  <linearGradient id="x" x2="1" gradientTransform="matrix(4.6037 -10.34 -10.34 -4.6037 207.48 207.67)" gradientUnits="userSpaceOnUse">
   <stop id="gx" stop-color="#a662a4" offset="0"/>
   <stop id="gy" stop-color="#a662a4" offset=".092344"/>
   <stop id="gz" stop-color="#8d3c8f" offset="1"/>
  </linearGradient>
  <clipPath id="bf">
   <path id="ha" d="m209.57 202.04h6.028v-6.028h-6.028z"/>
  </clipPath>
  <clipPath id="be">
   <path id="hb" d="m212.54 202.04c-0.108-2e-3 -0.217-0.01-0.327-0.024-1.505-0.19-2.611-1.46-2.637-2.934v-0.105c2e-3 -0.108 0.01-0.218 0.024-0.328 0.207-1.651 1.715-2.821 3.366-2.613 1.652 0.208 2.822 1.715 2.614 3.367-0.19 1.504-1.46 2.61-2.934 2.637z"/>
  </clipPath>
  <mask id="g" x="0" y="0" width="1" height="1" maskUnits="userSpaceOnUse">
   <g id="hc">
    <g id="hd" clip-path="url(#bd)">
     <g id="he">
      <g id="hf">
       <g id="hg">
        <g id="hh">
         <path id="hi" d="m210.71 204.82 7.666-3.905-3.906-7.666-7.665 3.906z" fill="url(#w)"/>
        </g>
       </g>
      </g>
     </g>
    </g>
   </g>
  </mask>
  <clipPath id="bd">
   <path id="hj" d="m-726.89 1093h1815.3v-1815.3h-1815.3z"/>
  </clipPath>
  <linearGradient id="w" x2="1" gradientTransform="matrix(5.3079 -2.7045 -2.7045 -5.3079 211.07 199.81)" gradientUnits="userSpaceOnUse">
   <stop id="hk" stop-color="#fff" stop-opacity=".70001" offset="0"/>
   <stop id="hl" stop-color="#fff" offset=".73402"/>
   <stop id="hm" stop-color="#fff" offset="1"/>
  </linearGradient>
  <linearGradient id="v" x2="1" gradientTransform="matrix(5.3079 -2.7045 -2.7045 -5.3079 211.07 199.81)" gradientUnits="userSpaceOnUse">
   <stop id="hn" stop-color="#ebc8e1" offset="0"/>
   <stop id="ho" stop-color="#9f4996" offset="1"/>
  </linearGradient>
  <clipPath id="bc">
   <path id="hp" d="m207.13 204.98h9.21v-9.211h-9.21z"/>
  </clipPath>
  <clipPath id="bb">
   <path id="hq" d="m211.16 204.94c-2.524-0.318-4.311-2.621-3.994-5.144 0.29-2.305 2.238-3.997 4.495-4.03h0.139c0.169 3e-3 0.339 0.015 0.51 0.036 2.305 0.29 3.996 2.237 4.03 4.495v0.136c-3e-3 0.17-0.014 0.341-0.036 0.514-0.293 2.328-2.276 4.03-4.563 4.03-0.192 0-0.386-0.013-0.581-0.037"/>
  </clipPath>
  <mask id="f" x="0" y="0" width="1" height="1" maskUnits="userSpaceOnUse">
   <g id="hr">
    <g id="hs" clip-path="url(#ba)">
     <g id="ht">
      <g id="hu">
       <g id="hv">
        <g id="hw">
         <path id="hx" d="m205.64 205.1 10.832 1.364 1.363-10.832-10.831-1.363z" fill="url(#b)"/>
        </g>
       </g>
      </g>
     </g>
    </g>
   </g>
  </mask>
  <clipPath id="ba">
   <path id="hy" d="m-726.89 1093h1815.3v-1815.3h-1815.3z"/>
  </clipPath>
  <radialGradient id="b" cx="0" cy="0" r="1" gradientTransform="matrix(4.5689 .57514 .57514 -4.5689 211.74 200.37)" gradientUnits="userSpaceOnUse">
   <stop id="hz" stop-color="#fff" stop-opacity="0" offset="0"/>
   <stop id="ia" stop-color="#fff" stop-opacity="0" offset=".8589"/>
   <stop id="ib" stop-color="#fff" offset="1"/>
  </radialGradient>
  <radialGradient id="a" cx="0" cy="0" r="1" gradientTransform="matrix(4.5689 .57514 .57514 -4.5689 211.74 200.37)" gradientUnits="userSpaceOnUse">
   <stop id="ic" stop-color="#8d3089" offset="0"/>
   <stop id="id" stop-color="#8d3089" offset=".8589"/>
   <stop id="ie" stop-color="#6b2160" offset="1"/>
  </radialGradient>
  <clipPath id="az">
   <path id="if" d="m210.56 204.92h5.79v-9.152h-5.79z"/>
  </clipPath>
  <clipPath id="ay">
   <path id="ig" d="m214.49 201.48c0.329-2.615-1.408-5.013-3.937-5.556 0.558-0.149 1.152-0.195 1.759-0.119 2.524 0.318 4.311 2.621 3.994 5.144-0.262 2.08-1.874 3.66-3.846 3.972 1.083-0.789 1.849-2.007 2.03-3.441"/>
  </clipPath>
  <mask id="e" x="0" y="0" width="1" height="1" maskUnits="userSpaceOnUse">
   <g id="ih">
    <g id="ii" clip-path="url(#ax)">
     <g id="ij">
      <g id="ik">
       <g id="il">
        <g id="im">
         <path id="in" d="m208.12 196.42 2.897 10.103 8.045-2.307-2.897-10.103z" fill="url(#u)"/>
        </g>
       </g>
      </g>
     </g>
    </g>
   </g>
  </mask>
  <clipPath id="ax">
   <path id="io" d="m-726.89 1093h1815.3v-1815.3h-1815.3z"/>
  </clipPath>
  <linearGradient id="u" x2="1" gradientTransform="matrix(2.7397 9.5543 9.5543 -2.7397 212.25 194.81)" gradientUnits="userSpaceOnUse">
   <stop id="ip" stop-color="#fff" offset="0"/>
   <stop id="iq" stop-color="#fff" offset=".26006"/>
   <stop id="ir" stop-color="#fff" stop-opacity="0" offset="1"/>
  </linearGradient>
  <linearGradient id="t" x2="1" gradientTransform="matrix(2.7397 9.5543 9.5543 -2.7397 212.25 194.81)" gradientUnits="userSpaceOnUse">
   <stop id="is" stop-color="#714695" offset="0"/>
   <stop id="it" stop-color="#e3bad8" offset="1"/>
  </linearGradient>
  <clipPath id="aw">
   <path id="iu" d="m212.24 198.02h2.867v-2.866h-2.867z"/>
  </clipPath>
  <clipPath id="av">
   <path id="iv" d="m213.49 198c-0.71-0.09-1.234-0.685-1.254-1.38v-0.081c1e-3 -0.047 5e-3 -0.094 0.011-0.141 0.09-0.711 0.686-1.234 1.381-1.253h0.08c0.047 1e-3 0.093 4e-3 0.14 0.011 0.786 0.099 1.342 0.816 1.243 1.601-0.091 0.724-0.708 1.254-1.42 1.254-0.059 0-0.12-3e-3 -0.181-0.011"/>
  </clipPath>
  <mask id="d" x="0" y="0" width="1" height="1" maskUnits="userSpaceOnUse">
   <g id="iw">
    <g id="ix" clip-path="url(#au)">
     <g id="iy">
      <g id="iz">
       <g id="ja">
        <g id="jb">
         <path id="jc" d="m212.15 198.1h3.042v-3.042h-3.042z" fill="url(#s)"/>
        </g>
       </g>
      </g>
     </g>
    </g>
   </g>
  </mask>
  <clipPath id="au">
   <path id="jd" d="m-726.89 1093h1815.3v-1815.3h-1815.3z"/>
  </clipPath>
  <linearGradient id="s" x2="1" gradientTransform="matrix(2.8667 0 0 -2.8667 212.23 196.58)" gradientUnits="userSpaceOnUse">
   <stop id="je" stop-color="#fff" stop-opacity=".6" offset="0"/>
   <stop id="jf" stop-color="#fff" stop-opacity=".82" offset=".99118"/>
   <stop id="jg" stop-color="#fff" stop-opacity=".82" offset="1"/>
  </linearGradient>
  <linearGradient id="r" x2="1" gradientTransform="matrix(2.8667 0 0 -2.8667 212.23 196.58)" gradientUnits="userSpaceOnUse">
   <stop id="jh" stop-color="#deadd1" offset="0"/>
   <stop id="ji" stop-color="#a7529a" offset="1"/>
  </linearGradient>
  <clipPath id="at">
   <path id="jj" d="m208.12 204.21h3.264v-3.265h-3.264z"/>
  </clipPath>
  <linearGradient id="q" x2="1" gradientTransform="matrix(-.95279 3.3228 3.3228 .95279 210.24 200.87)" gradientUnits="userSpaceOnUse">
   <stop id="jk" stop-color="#b5589d" offset="0"/>
   <stop id="jl" stop-color="#f0cfe5" offset="1"/>
  </linearGradient>
  <clipPath id="as">
   <path id="jm" d="m208.49 204.14h7.783v-7.513h-7.783z"/>
  </clipPath>
  <clipPath id="ar">
   <path id="jn" d="m212.35 204.14c-1.703-0.011-3.85-0.846-3.867-3.711v-0.07c0.013-2.062 1.744-3.725 3.875-3.732h0.04c2.149 0.014 3.88 1.706 3.867 3.781-0.013 2.062-1.744 3.725-3.876 3.732z"/>
  </clipPath>
  <mask id="c" x="0" y="0" width="1" height="1" maskUnits="userSpaceOnUse">
   <g id="jo">
    <g id="jp" clip-path="url(#aq)">
     <g id="jq">
      <g id="jr">
       <g id="js">
        <g id="jt">
         <path id="ju" d="m218.51 203.48-2.93-9.018-9.345 2.827 2.93 9.018z" fill="url(#p)"/>
        </g>
       </g>
      </g>
     </g>
    </g>
   </g>
  </mask>
  <clipPath id="aq">
   <path id="jv" d="m-726.89 1093h1815.3v-1815.3h-1815.3z"/>
  </clipPath>
  <linearGradient id="p" x2="1" gradientTransform="matrix(-3.4757 -10.697 -11.079 3.3512 213.54 204.07)" gradientUnits="userSpaceOnUse">
   <stop id="jw" stop-color="#fff" stop-opacity="0" offset="0"/>
   <stop id="jx" stop-color="#fff" stop-opacity=".51" offset=".53723"/>
   <stop id="jy" stop-color="#fff" stop-opacity=".51" offset=".60736"/>
   <stop id="jz" stop-color="#fff" stop-opacity=".51" offset="1"/>
  </linearGradient>
  <linearGradient id="o" x2="1" gradientTransform="matrix(-3.4757 -10.697 -11.079 3.3512 213.54 204.07)" gradientUnits="userSpaceOnUse">
   <stop id="ka" stop-color="#8d3089" offset="0"/>
   <stop id="kb" stop-color="#b1539a" offset=".60736"/>
   <stop id="kc" stop-color="#b1539a" offset="1"/>
  </linearGradient>
 </defs>
 <g id="kd" transform="translate(-162.3 -19.424)">
  <g id="ke" transform="matrix(7.2134 0 0 -7.2134 -1228 1499.6)">
   <g id="kf" clip-path="url(#cd)">
    <g id="kg">
     <g id="kh">
      <g id="ki" clip-path="url(#cc)" opacity=".37">
       <g id="kj">
        <g id="kk" clip-path="url(#cb)">
         <g id="kl">
          <g id="km" mask="url(#n)">
           <g id="kn">
            <path id="ko" d="m213.49 198c-0.71-0.09-1.234-0.685-1.254-1.38v-0.081c1e-3 -0.047 5e-3 -0.094 0.011-0.141 0.09-0.711 0.686-1.234 1.381-1.253h0.08c0.047 1e-3 0.093 4e-3 0.14 0.011 0.786 0.099 1.342 0.816 1.243 1.601-0.091 0.724-0.708 1.254-1.42 1.254-0.059 0-0.12-3e-3 -0.181-0.011" fill="url(#am)"/>
           </g>
          </g>
         </g>
        </g>
       </g>
      </g>
     </g>
    </g>
    <g id="kp">
     <g id="kq">
      <g id="kr" clip-path="url(#bz)" opacity=".57001">
       <g id="ks">
        <g id="kt" clip-path="url(#by)">
         <g id="ku">
          <g id="kv" mask="url(#m)">
           <g id="kw">
            <path id="kx" d="m212.81 204.87c-0.015-2e-3 -0.03-4e-3 -0.044-7e-3 1.829-0.421 3.288-1.942 3.536-3.913 0.155-1.232-0.192-2.41-0.881-3.331 1.094 0.696 1.805 1.91 1.831 3.254v0.148c-3e-3 0.14-0.013 0.282-0.031 0.425-0.252 1.996-1.952 3.455-3.913 3.455-0.165 0-0.331-0.01-0.498-0.031" fill="url(#ak)"/>
           </g>
          </g>
         </g>
        </g>
       </g>
      </g>
     </g>
    </g>
    <g id="ky">
     <g id="kz">
      <g id="la" clip-path="url(#bw)" opacity=".45">
       <g id="lb">
        <g id="lc">
         <g id="ld">
          <g id="le">
           <path id="lf" d="m209.09 205.19c-1.174-0.147-2.006-1.219-1.859-2.394 0.136-1.081 1.054-1.872 2.114-1.875h0.015c0.087 0 0.176 5e-3 0.265 0.017 1.081 0.136 1.872 1.054 1.876 2.115v0.013c0 0.088-5e-3 0.177-0.017 0.266-0.136 1.083-1.059 1.875-2.124 1.875-0.089 0-0.179-5e-3 -0.27-0.017" fill="url(#aj)"/>
          </g>
         </g>
        </g>
       </g>
      </g>
     </g>
    </g>
   </g>
   <g id="lg">
    <g id="lh">
     <g id="li">
      <path id="lj" d="m211.74 204.98c-0.192 0-0.386-0.012-0.581-0.037-2.329-0.294-4.031-2.277-4.031-4.565 0-0.191 0.012-0.384 0.037-0.579 2e-3 -0.014 4e-3 -0.029 6e-3 -0.044 0.312-2.305 2.284-3.986 4.556-3.986h1e-3c0.192 0 0.387 0.012 0.581 0.036 2.329 0.294 4.031 2.278 4.03 4.565 0 0.192-0.012 0.385-0.036 0.58-0.075 0.588-0.256 1.137-0.524 1.628l-2e-3 2e-3c-0.787 1.443-2.313 2.39-4.01 2.4h-0.027" fill="url(#ai)"/>
     </g>
    </g>
   </g>
   <g id="lk" clip-path="url(#bv)">
    <g id="ll">
     <g id="lm" mask="url(#l)">
      <g id="ln">
       <path id="lo" d="m211.74 204.98c-0.192 0-0.386-0.012-0.581-0.037-2.329-0.294-4.031-2.277-4.031-4.565 0-0.191 0.012-0.384 0.037-0.579 2e-3 -0.014 4e-3 -0.029 6e-3 -0.044 0.312-2.305 2.284-3.986 4.556-3.986h1e-3c0.192 0 0.387 0.012 0.581 0.036 2.329 0.294 4.031 2.278 4.03 4.565 0 0.192-0.012 0.385-0.036 0.58-0.075 0.588-0.256 1.137-0.524 1.628l-2e-3 2e-3c-0.787 1.443-2.313 2.39-4.01 2.4h-0.027" fill="url(#ag)"/>
      </g>
     </g>
    </g>
   </g>
   <g id="lp" clip-path="url(#bt)">
    <g id="lq">
     <g id="lr">
      <g id="ls" clip-path="url(#bs)" opacity=".64999">
       <g id="lt">
        <g id="lu" clip-path="url(#br)">
         <g id="lv">
          <g id="lw" mask="url(#k)">
           <g id="lx">
            <path id="ly" d="m210.03 203.12c-0.12 0-0.242-7e-3 -0.364-0.023-1.581-0.199-2.701-1.641-2.502-3.223 0.199-1.581 1.642-2.701 3.223-2.503 1.581 0.199 2.702 1.643 2.503 3.224-0.184 1.459-1.426 2.525-2.858 2.525h-2e-3" fill="url(#ae)"/>
           </g>
          </g>
         </g>
        </g>
       </g>
      </g>
     </g>
    </g>
    <g id="lz">
     <g id="ma">
      <g id="mb" clip-path="url(#bp)" opacity=".39999">
       <g id="mc">
        <g id="md">
         <g id="me">
          <g id="mf">
           <path id="mg" d="m209.09 205.19c-1.174-0.147-2.006-1.219-1.859-2.394 0.136-1.081 1.054-1.872 2.114-1.875h0.015c0.087 0 0.176 5e-3 0.265 0.017 1.081 0.136 1.872 1.054 1.876 2.115v0.013c0 0.088-5e-3 0.177-0.017 0.266-0.136 1.083-1.059 1.875-2.124 1.875-0.089 0-0.179-5e-3 -0.27-0.017" fill="url(#ad)"/>
          </g>
         </g>
        </g>
       </g>
      </g>
     </g>
    </g>
    <g id="mh">
     <g id="mi">
      <g id="mj" clip-path="url(#bo)" opacity=".42999">
       <g id="mk">
        <g id="ml" clip-path="url(#bn)">
         <g id="mm">
          <g id="mn" mask="url(#j)">
           <g id="mo">
            <path id="mp" d="m209.91 200.59c-1.174-0.148-2.006-1.219-1.858-2.394 0.136-1.081 1.054-1.872 2.115-1.875h0.013c0.087 0 0.177 5e-3 0.266 0.017 1.174 0.147 2.006 1.219 1.858 2.394-0.136 1.083-1.059 1.875-2.124 1.875-0.089 0-0.179-5e-3 -0.27-0.017" fill="url(#ab)"/>
           </g>
          </g>
         </g>
        </g>
       </g>
      </g>
     </g>
    </g>
    <g id="mq">
     <g id="mr">
      <g id="ms" clip-path="url(#bl)" opacity=".60001">
       <g id="mt">
        <g id="mu" clip-path="url(#bk)">
         <g id="mv">
          <g id="mw" mask="url(#i)">
           <g id="mx">
            <path id="my" d="m213.28 204.08c-0.099 0-0.199-5e-3 -0.297-0.018-1.374-0.173-2.381-1.335-2.394-2.683v-0.059c1e-3 -0.104 8e-3 -0.209 0.021-0.314 0.172-1.373 1.334-2.379 2.68-2.394h0.055c0.106 1e-3 0.214 8e-3 0.322 0.021 1.374 0.173 2.382 1.339 2.394 2.686v0.051c-1e-3 0.106-8e-3 0.212-0.022 0.319-0.177 1.407-1.488 2.391-2.758 2.391h-1e-3" fill="url(#z)"/>
           </g>
          </g>
         </g>
        </g>
       </g>
      </g>
     </g>
    </g>
    <g id="mz">
     <g id="na">
      <g id="nb" clip-path="url(#bi)" opacity=".39999">
       <g id="nc">
        <g id="nd" clip-path="url(#bh)">
         <g id="ne">
          <g id="nf" mask="url(#h)">
           <g id="ng">
            <path id="nh" d="m211.73 204.98c-0.188-1e-3 -0.377-0.013-0.568-0.037-2.524-0.318-4.311-2.621-3.994-5.144 0.29-2.304 2.238-3.997 4.495-4.03h0.139c0.169 3e-3 0.339 0.015 0.51 0.036 1.292 0.163 2.39 0.847 3.113 1.814-0.477-0.304-1.027-0.51-1.625-0.584-2.163-0.273-4.138 1.26-4.41 3.424-0.271 2.148 1.24 4.11 3.38 4.404-0.327 0.075-0.665 0.116-1.011 0.117z" fill="url(#x)"/>
           </g>
          </g>
         </g>
        </g>
       </g>
      </g>
     </g>
    </g>
    <g id="ni">
     <g id="nj">
      <g id="nk" clip-path="url(#bf)" opacity=".60001">
       <g id="nl">
        <g id="nm" clip-path="url(#be)">
         <g id="nn">
          <g id="no" mask="url(#g)">
           <g id="np">
            <path id="nq" d="m212.54 202.04c-0.108-2e-3 -0.217-0.01-0.327-0.024-1.505-0.19-2.611-1.46-2.637-2.934v-0.105c2e-3 -0.108 0.01-0.218 0.024-0.328 0.207-1.651 1.715-2.821 3.366-2.613 1.652 0.208 2.822 1.715 2.614 3.367-0.19 1.504-1.46 2.61-2.934 2.637z" fill="url(#v)"/>
           </g>
          </g>
         </g>
        </g>
       </g>
      </g>
     </g>
    </g>
    <g id="nr">
     <g id="ns">
      <g id="nt" clip-path="url(#bc)" opacity=".45">
       <g id="nu">
        <g id="nv" clip-path="url(#bb)">
         <g id="nw">
          <g id="nx" mask="url(#f)">
           <g id="ny">
            <path id="nz" d="m211.16 204.94c-2.524-0.318-4.311-2.621-3.994-5.144 0.29-2.305 2.238-3.997 4.495-4.03h0.139c0.169 3e-3 0.339 0.015 0.51 0.036 2.305 0.29 3.996 2.237 4.03 4.495v0.136c-3e-3 0.17-0.014 0.341-0.036 0.514-0.293 2.328-2.276 4.03-4.563 4.03-0.192 0-0.386-0.013-0.581-0.037" fill="url(#a)"/>
           </g>
          </g>
         </g>
        </g>
       </g>
      </g>
     </g>
    </g>
    <g id="oa">
     <g id="ob">
      <g id="oc" clip-path="url(#az)" opacity=".97">
       <g id="od">
        <g id="oe" clip-path="url(#ay)">
         <g id="of">
          <g id="og" mask="url(#e)">
           <g id="oh">
            <path id="oi" d="m214.49 201.48c0.329-2.615-1.408-5.013-3.937-5.556 0.558-0.149 1.152-0.195 1.759-0.119 2.524 0.318 4.311 2.621 3.994 5.144-0.262 2.08-1.874 3.66-3.846 3.972 1.083-0.789 1.849-2.007 2.03-3.441" fill="url(#t)"/>
           </g>
          </g>
         </g>
        </g>
       </g>
      </g>
     </g>
    </g>
    <g id="oj">
     <g id="ok">
      <g id="ol" clip-path="url(#aw)" opacity=".35001">
       <g id="om">
        <g id="on" clip-path="url(#av)">
         <g id="oo">
          <g id="op" mask="url(#d)">
           <g id="oq">
            <path id="or" d="m213.49 198c-0.71-0.09-1.234-0.685-1.254-1.38v-0.081c1e-3 -0.047 5e-3 -0.094 0.011-0.141 0.09-0.711 0.686-1.234 1.381-1.253h0.08c0.047 1e-3 0.093 4e-3 0.14 0.011 0.786 0.099 1.342 0.816 1.243 1.601-0.091 0.724-0.708 1.254-1.42 1.254-0.059 0-0.12-3e-3 -0.181-0.011" fill="url(#r)"/>
           </g>
          </g>
         </g>
        </g>
       </g>
      </g>
     </g>
    </g>
    <g id="os">
     <g id="ot">
      <g id="ou" clip-path="url(#at)" opacity=".39">
       <g id="ov">
        <g id="ow">
         <g id="ox">
          <g id="oy">
           <path id="oz" d="m209.72 204.21c-0.058-1e-3 -0.117-5e-3 -0.175-0.012-0.815-0.103-1.413-0.789-1.428-1.586v-0.064c1e-3 -0.058 5e-3 -0.115 0.012-0.174 0.114-0.893 0.93-1.527 1.824-1.415 0.814 0.103 1.413 0.789 1.428 1.586v0.063c-1e-3 0.058-5e-3 0.116-0.013 0.175-0.103 0.814-0.79 1.413-1.588 1.427z" fill="url(#q)"/>
          </g>
         </g>
        </g>
       </g>
      </g>
     </g>
    </g>
    <g id="pa">
     <g id="pb">
      <g id="pc" clip-path="url(#as)" opacity=".39">
       <g id="pd">
        <g id="pe" clip-path="url(#ar)">
         <g id="pf">
          <g id="pg" mask="url(#c)">
           <g id="ph">
            <path id="pi" d="m212.35 204.14c-1.703-0.011-3.85-0.846-3.867-3.711v-0.07c0.013-2.062 1.744-3.725 3.875-3.732h0.04c2.149 0.014 3.88 1.706 3.867 3.781-0.013 2.062-1.744 3.725-3.876 3.732z" fill="url(#o)"/>
           </g>
          </g>
         </g>
        </g>
       </g>
      </g>
     </g>
    </g>
   </g>
   <path id="pj" d="m207.96 200.99v-0.562h1.381v-0.361h-1.381v-0.859h-0.401v2.143h1.861v-0.361z" fill="#fff"/>
   <path id="pk" d="m209.75 199.2h0.401v2.143h-0.401z" fill="#fff"/>
   <path id="pl" d="m212.35 199.57v-0.361h-1.678v2.143h0.406v-1.782z" fill="#fff"/>
   <path id="pm" d="m214.27 199.64 1.044 1.7h0.55v-2.131h-0.401v1.694l-1.041-1.694h-0.361l-1.008 1.688v-1.688h-0.401v2.131h0.607z" fill="#fff"/>
  </g>
  <g id="pn" transform="matrix(7.2134 0 0 -7.2134 -1228 1499.6)" fill="#fff">
   <path id="po" d="m195.15 201.36-1.04-1.777-0.897 1.777h-0.483l1.147-2.16h0.416l1.27 2.16z"/>
   <path id="pp" d="m195.83 199.2h0.403v2.16h-0.403z"/>
   <path id="pq" d="m197.63 200.12h0.954l-0.446 0.9zm1.413-0.927-0.278 0.563h-1.34l-0.318-0.563h-0.493l1.291 2.16h0.493l1.12-2.16z"/>
   <g id="pr" transform="translate(201.72 200.79)">
    <path id="ps" d="m0 0c-0.162 0.128-0.596 0.242-0.967 0.242-0.336 0-0.627-0.101-0.627-0.334 0-0.391 1.787 0.031 1.787-0.795 0-0.404-0.398-0.777-1.132-0.777-0.735 0-1.089 0.25-1.221 0.391l0.272 0.303c0.303-0.251 0.637-0.321 0.94-0.321 0.312 0 0.706 0.079 0.706 0.343 0 0.514-1.808-0.031-1.808 0.856 0 0.435 0.496 0.707 1.132 0.707 0.542 0 0.946-0.171 1.138-0.303 0 0-0.137-0.202-0.22-0.312" fill="#fff"/>
   </g>
   <g id="pt" transform="translate(202.95 200.12)">
    <path id="pu" d="m0 0h0.954l-0.446 0.9zm1.413-0.927-0.278 0.563h-1.34l-0.318-0.563h-0.493l1.291 2.16h0.493l1.12-2.16z" fill="#fff"/>
   </g>
   <g id="pv" transform="translate(206.8 200.98)">
    <path id="pw" d="m0 0h-0.89v-1.784h-0.404v1.784h-0.866v0.364h2.16z" fill="#fff"/>
   </g>
  </g>
  <g id="px" transform="matrix(7.2134 0 0 -7.2134 -1228 1499.6)">
   <g id="py" transform="translate(199.81 197.43)">
    <path id="pz" d="m0 0v-0.836h-0.416v1.983h0.416v-0.824h1.13v0.824h0.416v-1.983h-0.416v0.836z" fill="#bf4995"/>
   </g>
   <path id="qa" d="m202.4 196.59h-0.416v1.983h0.416z" fill="#bf4995"/>
   <g id="qb" transform="translate(204.04 196.59)">
    <path id="qc" d="m0 0h-0.42v1.66h-0.751v0.323h1.922v-0.323h-0.751z" fill="#bf4995"/>
   </g>
   <g id="qd" transform="translate(206.09 197.74)">
    <path id="qe" d="m0 0c0.501-0.102 0.761-0.252 0.761-0.583 0-0.374-0.348-0.595-0.846-0.595-0.362 0-0.703 0.105-0.988 0.317l0.251 0.249c0.227-0.164 0.453-0.258 0.748-0.258 0.257 0 0.419 0.1 0.419 0.253 0 0.144-0.095 0.22-0.534 0.305-0.505 0.102-0.789 0.227-0.789 0.595 0 0.346 0.338 0.578 0.809 0.578 0.345 0 0.619-0.088 0.859-0.249l-0.223-0.264c-0.213 0.134-0.426 0.204-0.643 0.204-0.244 0-0.386-0.104-0.386-0.238 0-0.155 0.109-0.223 0.562-0.314" fill="#bf4995"/>
   </g>
  </g>
  <g id="qf" transform="matrix(7.2134 0 0 -7.2134 -1228 1499.6)">
   <g id="qg">
    <g id="qh" clip-path="url(#ap)" opacity=".5">
     <g id="qi">
      <g id="qj" clip-path="url(#ao)">
       <g id="qk" transform="translate(219.25 201.35)">
        <path id="ql" d="m0 0v-2.145h-0.41v0.86h-1.504v-0.86h-0.401v2.145h0.401v-0.924h1.504v0.924z" fill="#fcfdfe"/>
       </g>
       <g id="qm" transform="translate(221.68 200.29)">
        <path id="qn" d="m0 0c0 0.571-0.437 0.693-0.851 0.693h-0.771v-1.422h0.771c0.414 0 0.851 0.149 0.851 0.729m0.401 0c0-0.608-0.401-1.091-1.17-1.091h-1.26v2.145h1.26c0.769 0 1.17-0.452 1.17-1.054" fill="#fcfdfe"/>
       </g>
      </g>
     </g>
    </g>
   </g>
  </g>
 </g>
</svg>
