<svg id="av" width="670.56" height="275.01" version="1.1" viewBox="0 0 177.42 72.762" xmlns="http://www.w3.org/2000/svg">
 <defs id="aw">
  <clipPath id="au">
   <path id="ax" d="m182.23 608.49h46.565v16.007h-46.565z"/>
  </clipPath>
  <clipPath id="at">
   <path id="ay" d="m205.28 624.5h6.824v-6.823h-6.824z"/>
  </clipPath>
  <linearGradient id="w" x2="1" gradientTransform="matrix(5.2611 -4.1104 -4.1104 -5.2611 206.04 623.16)" gradientUnits="userSpaceOnUse">
   <stop id="az" stop-color="#c31718" offset="0"/>
   <stop id="ba" stop-color="#c31718" offset=".055222"/>
   <stop id="bb" stop-color="#c31718" offset=".55644"/>
   <stop id="bc" stop-color="#e6f0e1" offset="1"/>
  </linearGradient>
  <clipPath id="as">
   <path id="bd" d="m214.12 624.01h7.14v-11.591h-7.14z"/>
  </clipPath>
  <clipPath id="ar">
   <path id="be" d="m214.19 623.96c-0.023-2e-3 -0.046-7e-3 -0.069-0.01 2.911-0.67 5.233-3.092 5.629-6.229 0.246-1.96-0.307-3.835-1.403-5.301 1.987 1.264 3.178 3.598 2.864 6.09-0.399 3.177-3.107 5.5-6.228 5.5-0.262 0-0.526-0.016-0.793-0.05"/>
  </clipPath>
  <mask id="f" x="0" y="0" width="1" height="1" maskUnits="userSpaceOnUse">
   <g id="bf">
    <g id="bg" clip-path="url(#aq)">
     <g id="bh">
      <g id="bi">
       <g id="bj">
        <g id="bk">
         <path id="bl" d="m210.43 613.69 4.471 12.984 10.305-3.548-4.471-12.985z" fill="url(#v)"/>
        </g>
       </g>
      </g>
     </g>
    </g>
   </g>
  </mask>
  <clipPath id="aq">
   <path id="bm" d="m-2619.9 3381.6h5581.6v-5581.5h-5581.6z"/>
  </clipPath>
  <linearGradient id="v" x2="1" gradientTransform="matrix(4.0821 11.855 11.855 -4.0821 213.96 609.49)" gradientUnits="userSpaceOnUse">
   <stop id="bn" stop-color="#fff" stop-opacity="0" offset="0"/>
   <stop id="bo" stop-color="#fff" stop-opacity="0" offset=".077533"/>
   <stop id="bp" stop-color="#fff" offset="1"/>
  </linearGradient>
  <linearGradient id="u" x2="1" gradientTransform="matrix(4.0821 11.855 11.855 -4.0821 213.96 609.49)" gradientUnits="userSpaceOnUse">
   <stop id="bq" stop-color="#fff8f4" offset="0"/>
   <stop id="br" stop-color="#fff8f4" offset=".077533"/>
   <stop id="bs" stop-color="#e61b4a" offset="1"/>
  </linearGradient>
  <clipPath id="ap">
   <path id="bt" d="m213.27 613.05h4.563v-4.563h-4.563z"/>
  </clipPath>
  <linearGradient id="t" x2="1" gradientTransform="matrix(-3.3562 3.4754 3.4754 3.3562 217.27 608.99)" gradientUnits="userSpaceOnUse">
   <stop id="bu" stop-color="#cd1425" offset="0"/>
   <stop id="bv" stop-color="#ea5163" offset="1"/>
  </linearGradient>
  <linearGradient id="s" x2="1" gradientTransform="matrix(10.879 11.49 11.49 -10.879 206.77 610.78)" gradientUnits="userSpaceOnUse">
   <stop id="bw" stop-color="#de3d6e" offset="0"/>
   <stop id="bx" stop-color="#de3d6e" offset=".043593"/>
   <stop id="by" stop-color="#c71618" offset="1"/>
  </linearGradient>
  <clipPath id="ao">
   <path id="bz" d="m211.56 624.08c-4.016-0.506-6.862-4.171-6.356-8.187 0.505-4.017 4.171-6.863 8.188-6.358 4.016 0.506 6.861 4.173 6.357 8.189-0.468 3.706-3.624 6.415-7.263 6.415-0.306 0-0.615-0.02-0.926-0.059"/>
  </clipPath>
  <clipPath id="an">
   <path id="ca" d="m205.16 621.18h9.187v-9.188h-9.187z"/>
  </clipPath>
  <linearGradient id="r" x2="1" gradientTransform="matrix(7.1458 5.4567 5.4567 -7.1458 206.15 613.84)" gradientUnits="userSpaceOnUse">
   <stop id="cb" stop-color="#b01917" offset="0"/>
   <stop id="cc" stop-color="#b01917" offset=".10313"/>
   <stop id="cd" stop-color="#ebf0e8" offset="1"/>
  </linearGradient>
  <clipPath id="am">
   <path id="ce" d="m205.28 624.5h6.824v-6.823h-6.824z"/>
  </clipPath>
  <linearGradient id="q" x2="1" gradientTransform="matrix(4.7067 -4.7355 -4.7355 -4.7067 206.32 623.47)" gradientUnits="userSpaceOnUse">
   <stop id="cf" stop-color="#b01917" offset="0"/>
   <stop id="cg" stop-color="#b01917" offset=".055222"/>
   <stop id="ch" stop-color="#b01917" offset=".55644"/>
   <stop id="ci" stop-color="#e6f0e1" offset="1"/>
  </linearGradient>
  <clipPath id="al">
   <path id="cj" d="m206.57 617.18h6.823v-6.823h-6.823z"/>
  </clipPath>
  <linearGradient id="p" x2="1" gradientTransform="matrix(5.261 -4.1104 -4.1104 -5.261 207.33 615.84)" gradientUnits="userSpaceOnUse">
   <stop id="ck" stop-color="#f8f8f9" offset="0"/>
   <stop id="cl" stop-color="#b01917" offset="1"/>
  </linearGradient>
  <clipPath id="ak">
   <path id="cm" d="m209.02 619.51h9.6v-9.6h-9.6z"/>
  </clipPath>
  <linearGradient id="o" x2="1" gradientTransform="matrix(8.6671 -3.8588 -3.8588 -8.6671 211.34 615.81)" gradientUnits="userSpaceOnUse">
   <stop id="cn" stop-color="#f9d5d8" offset="0"/>
   <stop id="co" stop-color="#b01917" offset=".65634"/>
   <stop id="cp" stop-color="#b01917" offset="1"/>
  </linearGradient>
  <clipPath id="aj">
   <path id="cq" d="m210.66 622.71h8.711v-8.706h-8.711z"/>
  </clipPath>
  <linearGradient id="n" x2="1" gradientTransform="matrix(7.864 -3.5013 -3.5013 -7.864 212.75 619.34)" gradientUnits="userSpaceOnUse">
   <stop id="cr" stop-color="#f9d5d8" offset="0"/>
   <stop id="cs" stop-color="#b01917" offset=".65634"/>
   <stop id="ct" stop-color="#b01917" offset="1"/>
  </linearGradient>
  <clipPath id="ai">
   <path id="cu" d="m205.14 624.13h14.661v-14.661h-14.661z"/>
  </clipPath>
  <clipPath id="ah">
   <path id="cv" d="m211.56 624.08c-4.016-0.506-6.862-4.171-6.356-8.187 0.462-3.675 3.569-6.37 7.17-6.415h0.183c0.276 3e-3 0.555 0.022 0.835 0.057 3.68 0.464 6.377 3.582 6.414 7.19v0.153c-3e-3 0.279-0.021 0.561-0.057 0.846-0.468 3.706-3.624 6.415-7.263 6.415-0.306 0-0.615-0.02-0.926-0.059"/>
  </clipPath>
  <mask id="e" x="0" y="0" width="1" height="1" maskUnits="userSpaceOnUse">
   <g id="cw">
    <g id="cx" clip-path="url(#ag)">
     <g id="cy">
      <g id="cz">
       <g id="da">
        <g id="db">
         <path id="dc" d="m202.77 624.34 17.241 2.171 2.17-17.241-17.24-2.171z" fill="url(#b)"/>
        </g>
       </g>
      </g>
     </g>
    </g>
   </g>
  </mask>
  <clipPath id="ag">
   <path id="dd" d="m-2619.8 3381.6h5581.5v-5581.5h-5581.5z"/>
  </clipPath>
  <radialGradient id="b" cx="0" cy="0" r="1" gradientTransform="matrix(7.2722 .91544 .91544 -7.2722 212.48 616.8)" gradientUnits="userSpaceOnUse">
   <stop id="de" stop-color="#fff" stop-opacity="0" offset="0"/>
   <stop id="df" stop-color="#fff" stop-opacity="0" offset=".79141"/>
   <stop id="dg" stop-color="#fff" stop-opacity="0" offset=".8005"/>
   <stop id="dh" stop-color="#fff" offset="1"/>
  </radialGradient>
  <radialGradient id="a" cx="0" cy="0" r="1" gradientTransform="matrix(7.2722 .91544 .91544 -7.2722 212.48 616.8)" gradientUnits="userSpaceOnUse">
   <stop id="di" stop-color="#c12022" offset="0"/>
   <stop id="dj" stop-color="#c12022" offset=".79141"/>
   <stop id="dk" stop-color="#c12022" offset=".8005"/>
   <stop id="dl" stop-color="#93160f" offset="1"/>
  </radialGradient>
  <clipPath id="af">
   <path id="dm" d="m205.14 624.13h13.201v-14.661h-13.201z"/>
  </clipPath>
  <clipPath id="ae">
   <path id="dn" d="m211.56 624.08c-4.016-0.506-6.862-4.171-6.356-8.187 0.505-4.017 4.171-6.862 8.188-6.357 2.056 0.259 3.804 1.348 4.954 2.887-0.759-0.484-1.634-0.811-2.586-0.931-3.444-0.434-6.587 2.006-7.021 5.45-0.43 3.421 1.974 6.543 5.381 7.011-0.529 0.121-1.077 0.185-1.636 0.185-0.305 0-0.613-0.019-0.924-0.058"/>
  </clipPath>
  <mask id="d" x="0" y="0" width="1" height="1" maskUnits="userSpaceOnUse">
   <g id="do">
    <g id="dp" clip-path="url(#ad)">
     <g id="dq">
      <g id="dr">
       <g id="ds">
        <g id="dt">
         <path id="du" d="m201.18 623.32 16.387 4.033 4.297-17.462-16.387-4.033z" fill="url(#m)"/>
        </g>
       </g>
      </g>
     </g>
    </g>
   </g>
  </mask>
  <clipPath id="ad">
   <path id="dv" d="m-2619.9 3381.6h5581.6v-5581.5h-5581.6z"/>
  </clipPath>
  <linearGradient id="m" x2="1" gradientTransform="matrix(14.296 3.5182 3.5182 -14.296 200.57 613.87)" gradientUnits="userSpaceOnUse">
   <stop id="dw" stop-color="#fff" stop-opacity=".56001" offset="0"/>
   <stop id="dx" stop-color="#fff" stop-opacity=".56001" offset=".09816"/>
   <stop id="dy" stop-color="#fff" stop-opacity=".56001" offset=".41824"/>
   <stop id="dz" stop-color="#fff" offset="1"/>
  </linearGradient>
  <linearGradient id="l" x2="1" gradientTransform="matrix(14.296 3.5182 3.5182 -14.296 200.57 613.87)" gradientUnits="userSpaceOnUse">
   <stop id="ea" stop-color="#e4bbb0" offset="0"/>
   <stop id="eb" stop-color="#e4bbb0" offset=".09816"/>
   <stop id="ec" stop-color="#e4bbb0" offset=".41824"/>
   <stop id="ed" stop-color="#e40d1d" offset="1"/>
  </linearGradient>
  <clipPath id="ac">
   <path id="ee" d="m216.86 618.56c0.524-4.162-2.241-7.98-6.267-8.844 0.887-0.236 1.834-0.31 2.802-0.189 0.835 0.106 1.62 0.348 2.333 0.701 2.72 1.346 4.421 4.307 4.022 7.487-0.291 2.305-1.623 4.225-3.465 5.346-0.803 0.489-1.703 0.827-2.656 0.977 1.723-1.257 2.944-3.194 3.231-5.478"/>
  </clipPath>
  <mask id="c" x="0" y="0" width="1" height="1" maskUnits="userSpaceOnUse">
   <g id="ef">
    <g id="eg" clip-path="url(#ab)">
     <g id="eh">
      <g id="ei">
       <g id="ej">
        <g id="ek">
         <path id="el" d="m206.72 610.52 4.603 16.053 12.707-3.643-4.603-16.053z" fill="url(#k)"/>
        </g>
       </g>
      </g>
     </g>
    </g>
   </g>
  </mask>
  <clipPath id="ab">
   <path id="em" d="m-2619.9 3381.6h5581.6v-5581.5h-5581.6z"/>
  </clipPath>
  <linearGradient id="k" x2="1" gradientTransform="matrix(4.3608 15.208 15.208 -4.3608 213.29 607.95)" gradientUnits="userSpaceOnUse">
   <stop id="en" stop-color="#fff" offset="0"/>
   <stop id="eo" stop-color="#fff" offset=".006134"/>
   <stop id="ep" stop-color="#fff" stop-opacity="0" offset=".98241"/>
   <stop id="eq" stop-color="#fff" stop-opacity="0" offset="1"/>
  </linearGradient>
  <linearGradient id="j" x2="1" gradientTransform="matrix(4.3608 15.208 15.208 -4.3608 213.29 607.95)" gradientUnits="userSpaceOnUse">
   <stop id="er" stop-color="#a5183c" offset="0"/>
   <stop id="es" stop-color="#a5183c" offset=".006134"/>
   <stop id="et" stop-color="#e00538" offset=".98241"/>
   <stop id="eu" stop-color="#e00538" offset="1"/>
  </linearGradient>
  <clipPath id="aa">
   <path id="ev" d="m211.56 624.08c-4.016-0.506-6.862-4.171-6.356-8.187 0.505-4.017 4.171-6.863 8.188-6.358 4.016 0.506 6.861 4.173 6.357 8.189-0.468 3.706-3.624 6.415-7.263 6.415-0.306 0-0.615-0.02-0.926-0.059"/>
  </clipPath>
  <clipPath id="z">
   <path id="ew" d="m213.27 613.05h4.563v-4.563h-4.563z"/>
  </clipPath>
  <linearGradient id="i" x2="1" gradientTransform="matrix(3.8022 3.1222 3.1222 -3.8022 213.56 609.14)" gradientUnits="userSpaceOnUse">
   <stop id="ex" stop-color="#d35790" offset="0"/>
   <stop id="ey" stop-color="#d35790" offset=".043593"/>
   <stop id="ez" stop-color="#b41917" offset="1"/>
  </linearGradient>
  <clipPath id="y">
   <path id="fa" d="m206.72 622.91h5.196v-5.196h-5.196z"/>
  </clipPath>
  <linearGradient id="h" x2="1" gradientTransform="matrix(-3.8216 3.9574 3.9574 3.8216 211.28 618.28)" gradientUnits="userSpaceOnUse">
   <stop id="fb" stop-color="#ba172c" offset="0"/>
   <stop id="fc" stop-color="#f2939d" offset=".37145"/>
   <stop id="fd" stop-color="#f2939d" offset="1"/>
  </linearGradient>
  <clipPath id="x">
   <path id="fe" d="m207.3 622.81h12.387v-11.959h-12.387z"/>
  </clipPath>
  <linearGradient id="g" x2="1" gradientTransform="matrix(6.4203 -16.869 -17.476 -6.2048 211.28 622.66)" gradientUnits="userSpaceOnUse">
   <stop id="ff" stop-color="#ad1836" offset="0"/>
   <stop id="fg" stop-color="#ad1836" offset=".012268"/>
   <stop id="fh" stop-color="#de947a" offset=".34315"/>
   <stop id="fi" stop-color="#de947a" offset=".88643"/>
   <stop id="fj" stop-color="#de947a" offset="1"/>
  </linearGradient>
 </defs>
 <g id="fk" transform="translate(-260.44 -5.1081)">
  <g id="fl" transform="matrix(4.5457 0 0 -4.5457 -567.91 2843.9)">
   <g id="fm" transform="translate(184.56 614.03)">
    <path id="fn" d="m0 0-1.957-3.273h0.746l0.483 0.852h2.031l0.421-0.852h0.719l-1.696 3.273zm0.353-0.506 0.677-1.362h-1.448z" fill="#c91e31"/>
   </g>
   <g id="fo" transform="translate(190.68 611.32)">
    <path id="fp" d="m0 0c-0.227-0.232-0.793-0.612-1.725-0.612-1.27 0-1.97 0.691-1.97 1.669 0 0.974 0.871 1.725 2.077 1.725 0.765 0 1.312-0.278 1.53-0.427l-0.227-0.426c-0.385 0.195-0.83 0.333-1.303 0.333-0.89 0-1.484-0.458-1.484-1.205 0-0.691 0.492-1.145 1.377-1.145 0.64 0 1.118 0.26 1.438 0.533z" fill="#c91e31"/>
   </g>
   <g id="fq" transform="translate(194.14 613.46)">
    <path id="fr" d="m0 0h-1.349v-2.703h-0.612v2.703h-1.312v0.552h3.273z" fill="#c91e31"/>
   </g>
   <path id="fs" d="m195.21 610.76h-0.612v3.273h0.612z" fill="#c91e31"/>
   <g id="ft" transform="translate(199.35 612.39)">
    <path id="fu" d="m0 0c0 0.691-0.552 1.15-1.456 1.15s-1.465-0.459-1.465-1.15c0-0.686 0.561-1.113 1.465-1.113s1.456 0.427 1.456 1.113m0.654 0c0-0.974-0.812-1.693-2.11-1.693s-2.123 0.719-2.123 1.693c0 0.978 0.825 1.729 2.123 1.729s2.11-0.751 2.11-1.729" fill="#c91e31"/>
   </g>
   <g id="fv" transform="translate(203.91 610.76)">
    <path id="fw" d="m0 0h-0.779l-2.123 2.504v-2.504h-0.631v3.255h0.797l2.124-2.49v2.49h0.612z" fill="#c91e31"/>
   </g>
  </g>
  <g id="fx" transform="matrix(4.5457 0 0 -4.5457 -567.91 2843.9)">
   <g id="fy">
    <g id="fz" clip-path="url(#au)">
     <g id="ga">
      <g id="gb">
       <g id="gc" clip-path="url(#at)" opacity=".45">
        <g id="gd">
         <g id="ge">
          <g id="gf">
           <g id="gg">
            <path id="gh" d="m208.26 624.47c-1.87-0.235-3.193-1.941-2.959-3.81 0.216-1.715 1.668-2.97 3.349-2.986h0.053c0.135 1e-3 0.272 0.01 0.409 0.027 1.715 0.216 2.973 1.671 2.985 3.354v0.055c-1e-3 0.132-0.01 0.267-0.027 0.402-0.217 1.725-1.686 2.985-3.38 2.985-0.142 0-0.286-9e-3 -0.43-0.027" fill="url(#w)"/>
           </g>
          </g>
         </g>
        </g>
       </g>
      </g>
     </g>
     <g id="gi">
      <g id="gj">
       <g id="gk" clip-path="url(#as)" opacity=".35001">
        <g id="gl">
         <g id="gm" clip-path="url(#ar)">
          <g id="gn">
           <g id="go" mask="url(#f)">
            <g id="gp">
             <path id="gq" d="m214.19 623.96c-0.023-2e-3 -0.046-7e-3 -0.069-0.01 2.911-0.67 5.233-3.092 5.629-6.229 0.246-1.96-0.307-3.835-1.403-5.301 1.987 1.264 3.178 3.598 2.864 6.09-0.399 3.177-3.107 5.5-6.228 5.5-0.262 0-0.526-0.016-0.793-0.05" fill="url(#u)"/>
            </g>
           </g>
          </g>
         </g>
        </g>
       </g>
      </g>
     </g>
     <g id="gr">
      <g id="gs">
       <g id="gt" clip-path="url(#ap)" opacity=".39999">
        <g id="gu">
         <g id="gv">
          <g id="gw">
           <g id="gx">
            <path id="gy" d="m215.54 613.05c-0.09-1e-3 -0.18-6e-3 -0.271-0.018-1.25-0.157-2.135-1.299-1.979-2.548 0.145-1.146 1.115-1.986 2.24-1.997h0.037c0.09 1e-3 0.181 6e-3 0.272 0.018 1.25 0.157 2.136 1.299 1.978 2.549-0.143 1.146-1.113 1.985-2.236 1.996z" fill="url(#t)"/>
           </g>
          </g>
         </g>
        </g>
       </g>
      </g>
     </g>
    </g>
   </g>
   <g id="gz">
    <g id="ha">
     <g id="hb">
      <g id="hc">
       <path id="hd" d="m211.93 624.11c-0.122-9e-3 -0.243-0.021-0.366-0.037-3.707-0.467-6.416-3.624-6.415-7.265 1e-3 -0.305 0.02-0.612 0.059-0.922 1e-3 -0.013 3e-3 -0.024 4e-3 -0.037 0.482-3.685 3.629-6.376 7.255-6.378h4e-3c0.305 0 0.614 0.019 0.925 0.057 3.706 0.467 6.416 3.626 6.414 7.267 0 0.304-0.019 0.612-0.057 0.922-0.01 0.075-0.021 0.15-0.033 0.224-2e-3 0.015-4e-3 0.03-7e-3 0.046-1e-3 4e-3 -1e-3 8e-3 -2e-3 0.011-0.587 3.561-3.675 6.133-7.221 6.133-0.186 0-0.373-6e-3 -0.56-0.021" fill="url(#s)"/>
      </g>
     </g>
    </g>
   </g>
   <g id="he">
    <g id="hf" clip-path="url(#ao)">
     <g id="hg">
      <g id="hh">
       <g id="hi" clip-path="url(#an)" opacity=".50999">
        <g id="hj">
         <g id="hk">
          <g id="hl">
           <g id="hm">
            <path id="hn" d="m209.18 621.15c-2.518-0.316-4.301-2.613-3.984-5.13 0.317-2.518 2.614-4.301 5.131-3.984 2.301 0.29 3.988 2.234 4.019 4.489v0.123c-2e-3 0.172-0.014 0.345-0.036 0.519-0.292 2.321-2.269 4.02-4.55 4.02-0.192 0-0.385-0.013-0.58-0.037" fill="url(#r)"/>
           </g>
          </g>
         </g>
        </g>
       </g>
      </g>
     </g>
     <g id="ho">
      <g id="hp">
       <g id="hq" clip-path="url(#am)" opacity=".32001">
        <g id="hr">
         <g id="hs">
          <g id="ht">
           <g id="hu">
            <path id="hv" d="m208.26 624.47c-1.87-0.235-3.193-1.941-2.959-3.81 0.053-0.413 0.179-0.798 0.361-1.147 0.574-1.101 1.721-1.831 3.002-1.839h0.029c0.138 0 0.278 9e-3 0.419 0.027 1.715 0.216 2.973 1.671 2.985 3.354v0.055c-1e-3 0.132-0.01 0.267-0.027 0.402-0.126 1.004-0.679 1.848-1.451 2.381-0.556 0.382-1.224 0.604-1.933 0.604-0.141 0-0.283-9e-3 -0.426-0.027" fill="url(#q)"/>
           </g>
          </g>
         </g>
        </g>
       </g>
      </g>
     </g>
     <g id="hw">
      <g id="hx">
       <g id="hy" clip-path="url(#al)" opacity=".35001">
        <g id="hz">
         <g id="ia">
          <g id="ib">
           <g id="ic">
            <path id="id" d="m209.96 617.18c-0.135-1e-3 -0.271-0.01-0.409-0.027-1.868-0.235-3.193-1.942-2.958-3.81 0.236-1.87 1.941-3.194 3.81-2.959 1.87 0.236 3.195 1.942 2.959 3.81-0.215 1.715-1.668 2.971-3.35 2.986z" fill="url(#p)"/>
           </g>
          </g>
         </g>
        </g>
       </g>
      </g>
     </g>
     <g id="ie">
      <g id="if">
       <g id="ig" clip-path="url(#ak)" opacity=".60001">
        <g id="ih">
         <g id="ii">
          <g id="ij">
           <g id="ik">
            <path id="il" d="m213.78 619.51c-0.183-2e-3 -0.368-0.015-0.553-0.038-2.631-0.331-4.494-2.732-4.163-5.361 0.303-2.408 2.341-4.174 4.701-4.201h0.107c0.183 2e-3 0.368 0.015 0.553 0.038 2.63 0.331 4.494 2.732 4.162 5.361-0.302 2.409-2.341 4.175-4.702 4.201z" fill="url(#o)"/>
           </g>
          </g>
         </g>
        </g>
       </g>
      </g>
     </g>
     <g id="im">
      <g id="in">
       <g id="io" clip-path="url(#aj)" opacity=".60001">
        <g id="ip">
         <g id="iq">
          <g id="ir">
           <g id="is">
            <path id="it" d="m214.47 622.68c-2.386-0.3-4.077-2.478-3.776-4.865 0.273-2.182 2.119-3.783 4.258-3.811h0.114c0.163 2e-3 0.328 0.014 0.492 0.034 2.386 0.301 4.077 2.479 3.777 4.865-0.282 2.24-2.372 3.807-4.392 3.807-0.158 0-0.316-0.01-0.473-0.03" fill="url(#n)"/>
           </g>
          </g>
         </g>
        </g>
       </g>
      </g>
     </g>
     <g id="iu">
      <g id="iv">
       <g id="iw" clip-path="url(#ai)" opacity=".5">
        <g id="ix">
         <g id="iy" clip-path="url(#ah)">
          <g id="iz">
           <g id="ja" mask="url(#e)">
            <g id="jb">
             <path id="jc" d="m211.56 624.08c-4.016-0.506-6.862-4.171-6.356-8.187 0.462-3.675 3.569-6.37 7.17-6.415h0.183c0.276 3e-3 0.555 0.022 0.835 0.057 3.68 0.464 6.377 3.582 6.414 7.19v0.153c-3e-3 0.279-0.021 0.561-0.057 0.846-0.468 3.706-3.624 6.415-7.263 6.415-0.306 0-0.615-0.02-0.926-0.059" fill="url(#a)"/>
            </g>
           </g>
          </g>
         </g>
        </g>
       </g>
      </g>
     </g>
     <g id="jd">
      <g id="je">
       <g id="jf" clip-path="url(#af)" opacity=".23">
        <g id="jg">
         <g id="jh" clip-path="url(#ae)">
          <g id="ji">
           <g id="jj" mask="url(#d)">
            <g id="jk">
             <path id="jl" d="m211.56 624.08c-4.016-0.506-6.862-4.171-6.356-8.187 0.505-4.017 4.171-6.862 8.188-6.357 2.056 0.259 3.804 1.348 4.954 2.887-0.759-0.484-1.634-0.811-2.586-0.931-3.444-0.434-6.587 2.006-7.021 5.45-0.43 3.421 1.974 6.543 5.381 7.011-0.529 0.121-1.077 0.185-1.636 0.185-0.305 0-0.613-0.019-0.924-0.058" fill="url(#l)"/>
            </g>
           </g>
          </g>
         </g>
        </g>
       </g>
      </g>
     </g>
    </g>
   </g>
   <g id="jm">
    <g id="jn" clip-path="url(#ac)">
     <g id="jo">
      <g id="jp" mask="url(#c)">
       <g id="jq">
        <path id="jr" d="m216.86 618.56c0.524-4.162-2.241-7.98-6.267-8.844 0.887-0.236 1.834-0.31 2.802-0.189 0.835 0.106 1.62 0.348 2.333 0.701 2.72 1.346 4.421 4.307 4.022 7.487-0.291 2.305-1.623 4.225-3.465 5.346-0.803 0.489-1.703 0.827-2.656 0.977 1.723-1.257 2.944-3.194 3.231-5.478" fill="url(#j)"/>
       </g>
      </g>
     </g>
    </g>
   </g>
   <g id="js">
    <g id="jt" clip-path="url(#aa)">
     <g id="ju">
      <g id="jv">
       <g id="jw" clip-path="url(#z)" opacity=".23">
        <g id="jx">
         <g id="jy">
          <g id="jz">
           <g id="ka">
            <path id="kb" d="m215.54 613.05c-0.09-1e-3 -0.18-6e-3 -0.271-0.018-1.25-0.157-2.135-1.299-1.979-2.548 0.044-0.339 0.161-0.65 0.331-0.922 0.456-0.73 1.307-1.171 2.218-1.057 1.25 0.157 2.136 1.299 1.978 2.549-0.025 0.201-0.078 0.391-0.151 0.57-0.341 0.845-1.166 1.421-2.095 1.426z" fill="url(#i)"/>
           </g>
          </g>
         </g>
        </g>
       </g>
      </g>
     </g>
     <g id="kc">
      <g id="kd">
       <g id="ke" clip-path="url(#y)" opacity=".39">
        <g id="kf">
         <g id="kg">
          <g id="kh">
           <g id="ki">
            <path id="kj" d="m208.99 622.89c-1.424-0.179-2.432-1.479-2.253-2.902 0.165-1.308 1.274-2.266 2.558-2.273h0.026c0.104 0 0.21 7e-3 0.318 0.021 1.423 0.179 2.431 1.478 2.252 2.901-0.165 1.313-1.283 2.274-2.574 2.274-0.108 0-0.217-7e-3 -0.327-0.021" fill="url(#h)"/>
           </g>
          </g>
         </g>
        </g>
       </g>
      </g>
     </g>
     <g id="kk">
      <g id="kl">
       <g id="km" clip-path="url(#x)" opacity=".17999">
        <g id="kn">
         <g id="ko">
          <g id="kp">
           <g id="kq">
            <path id="kr" d="m213.46 622.81c-2.708-0.017-6.127-1.346-6.155-5.906v-0.113c0.021-3.274 2.766-5.919 6.149-5.94h0.082c3.397 0.021 6.137 2.678 6.156 5.948v0.07c-0.021 3.276-2.766 5.92-6.15 5.941z" fill="url(#g)"/>
           </g>
          </g>
         </g>
        </g>
       </g>
      </g>
     </g>
    </g>
   </g>
   <g id="ks">
    <g id="kt" transform="translate(206.46 617.78)">
     <path id="ku" d="m0 0v-0.894h2.198v-0.575h-2.198v-1.367h-0.638v3.411h2.962v-0.575z" fill="#fff"/>
    </g>
    <path id="kv" d="m209.95 614.95h-0.638v3.411h0.638z" fill="#fff"/>
    <g id="kw" transform="translate(213.45 615.52)">
     <path id="kx" d="m0 0v-0.575h-2.672v3.411h0.647v-2.836z" fill="#fff"/>
    </g>
    <g id="ky" transform="translate(216.51 615.63)">
     <path id="kz" d="m0 0 1.662 2.706h0.875v-3.392h-0.638v2.696l-1.657-2.696h-0.575l-1.605 2.686v-2.686h-0.637v3.392h0.966z" fill="#fff"/>
    </g>
   </g>
  </g>
  <g id="la" transform="matrix(4.5457 0 0 -4.5457 -567.91 2843.9)">
   <g id="lb" transform="translate(186.08 618.37)">
    <path id="lc" d="m0 0h0.657l-2.021-3.438h-0.662l-1.826 3.438h0.769l1.427-2.829z"/>
   </g>
   <path id="ld" d="m187.79 614.93h-0.643v3.438h0.643z"/>
   <g id="le" transform="translate(190.02 616.41)">
    <path id="lf" d="m0 0h1.519l-0.711 1.432zm2.25-1.476-0.444 0.896h-2.132l-0.507-0.896h-0.784l2.055 3.439h0.784l1.783-3.439z"/>
   </g>
   <g id="lg" transform="translate(196.53 617.47)">
    <path id="lh" d="m0 0c-0.258 0.204-0.949 0.385-1.539 0.385-0.535 0-0.998-0.161-0.998-0.531 0-0.624 2.844 0.049 2.844-1.266 0-0.643-0.633-1.237-1.802-1.237s-1.734 0.399-1.943 0.623l0.433 0.482c0.483-0.399 1.013-0.511 1.495-0.511 0.497 0 1.125 0.126 1.125 0.545 0 0.819-2.878-0.048-2.878 1.364 0 0.691 0.789 1.125 1.802 1.125 0.862 0 1.505-0.273 1.812-0.482 0 0-0.219-0.322-0.351-0.497"/>
   </g>
   <g id="li" transform="translate(198.5 616.41)">
    <path id="lj" d="m0 0h1.519l-0.711 1.432zm2.25-1.476-0.444 0.896h-2.132l-0.507-0.896h-0.784l2.055 3.439h0.784l1.783-3.439z"/>
   </g>
   <g id="lk" transform="translate(204.62 617.77)">
    <path id="ll" d="m0 0h-1.417v-2.839h-0.643v2.839h-1.378v0.58h3.438z"/>
   </g>
  </g>
 </g>
</svg>
