<svg id="ak" width="211.67mm" height="70.228mm" version="1.1" viewBox="0 0 211.67 70.228" xmlns="http://www.w3.org/2000/svg">
 <defs id="al">
  <clipPath id="ag">
   <path id="am" d="m86.47 62.221c0-11.247 9.118-20.364 20.366-20.364s20.366 9.117 20.366 20.364c0 11.249-9.118 20.365-20.366 20.365s-20.366-9.116-20.366-20.365"/>
  </clipPath>
  <clipPath id="af">
   <path id="an" d="m86.47 82.586h40.732v-40.729h-40.732z"/>
  </clipPath>
  <radialGradient id="c" cx="0" cy="0" r="1" gradientTransform="matrix(20.365 0 0 -20.365 106.84 62.221)" gradientUnits="userSpaceOnUse">
   <stop id="ao" stop-color="#fff" offset="0"/>
   <stop id="ap" stop-color="#fff" offset=".3427"/>
   <stop id="aq" stop-color="#fff" offset=".47184"/>
   <stop id="ar" stop-color="#f8f7ef" offset=".56044"/>
   <stop id="as" stop-color="#f8f7ef" offset=".64512"/>
   <stop id="at" stop-color="#a1a3a0" offset="1"/>
  </radialGradient>
  <clipPath id="ae">
   <path id="au" d="m85.01 62.221c0-1.609 0.267-3.177 0.723-4.67 0.599-1.732 1.434-3.02 2.964-3.602 2.333-0.89 4.141-0.906 5.366-0.948 1.14-0.041 2.343 3e-3 3.52 0.121 3.71 0.375 7.433 1.219 10.962 2.436 0.787 0.273 2.044 0.739 3.323 1.331 1.28 0.583 2.59 1.315 3.419 1.984 0.373 0.288 0.632 0.568 0.772 0.748-0.041 0.044-0.091 0.094-0.153 0.152-0.789 0.726-2.063 1.402-3.582 1.947-1.517 0.551-3.242 0.983-4.892 1.41-5.249 1.363-7.551 1.774-12.999 2.763 0 0-3.616 0.56-3.592 0.627 2.422 6.991 13.321 13.827 26.876 14.61-3.208 1.853-6.911 2.917-10.882 2.917-12.053 0-21.825-9.772-21.825-21.826m34.59 13.012c-4.748 0-9.483-0.936-13.455-2.47-1.652-0.632-3.169-1.375-4.498-2.18 2.208-0.449 4.333-0.938 7.279-1.705 1.602-0.419 3.506-0.883 5.422-1.575 1.912-0.7 3.874-1.62 5.554-3.138 1.264-1.116 2.215-2.739 2.2-4.506 1e-3 -0.944-0.26-1.819-0.626-2.539-0.367-0.727-0.835-1.324-1.334-1.848-1.006-1.044-2.167-1.834-3.358-2.527-2.372-1.371-4.901-2.313-6.3-2.8-3.949-1.36-8.104-2.306-12.304-2.73-1.29-0.131-2.672-0.234-4.106-0.234-0.991 2e-3 -2.011 0.059-3.04 0.194 3.975-4.174 9.582-6.779 15.801-6.779 12.053 0 21.825 9.772 21.825 21.825 0 4.758-1.528 9.157-4.112 12.743l-2.252 0.17c-0.89 0.065-1.782 0.099-2.672 0.099z"/>
  </clipPath>
  <clipPath id="ad">
   <path id="av" d="m85.01 84.047h43.65v-43.65h-43.65z"/>
  </clipPath>
  <radialGradient id="b" cx="0" cy="0" r="1" gradientTransform="matrix(24.05 0 0 -24.05 107.49 54.135)" gradientUnits="userSpaceOnUse">
   <stop id="aw" stop-color="#ffce0d" offset="0"/>
   <stop id="ax" stop-color="#ffce0d" offset=".062063"/>
   <stop id="ay" stop-color="#514218" offset="1"/>
  </radialGradient>
  <clipPath id="ac">
   <path id="az" d="m85.009 40.394h131.57v43.653h-131.57z"/>
  </clipPath>
  <clipPath id="ab">
   <path id="ba" d="m85.009 84.046h43.649v-43.65h-43.649z"/>
  </clipPath>
  <clipPath id="aa">
   <path id="bb" d="m85.009 62.221c0-1.61 0.265-3.177 0.722-4.67 0.599-1.733 1.434-3.021 2.963-3.604 2.335-0.888 4.142-0.904 5.367-0.946 1.141-0.041 2.344 2e-3 3.521 0.121 3.709 0.374 7.43 1.218 10.962 2.435 0.786 0.272 2.044 0.738 3.323 1.33 1.279 0.584 2.59 1.315 3.419 1.984 0.372 0.29 0.631 0.57 0.77 0.749-0.041 0.044-0.09 0.094-0.153 0.152-0.788 0.725-2.062 1.401-3.581 1.947-1.517 0.551-3.242 0.984-4.892 1.41-5.248 1.362-7.55 1.775-12.998 2.763 0 0-3.617 0.56-3.593 0.627 2.422 6.991 13.322 13.827 26.876 14.61-3.208 1.853-6.91 2.917-10.882 2.917-12.053 0-21.824-9.772-21.824-21.825m34.591 13.011c-4.748 0-9.484-0.935-13.456-2.47-1.653-0.632-3.17-1.375-4.5-2.179 2.209-0.449 4.334-0.94 7.279-1.706 1.602-0.419 3.506-0.883 5.424-1.575 1.911-0.699 3.874-1.62 5.555-3.138 1.261-1.115 2.213-2.74 2.198-4.506 1e-3 -0.944-0.259-1.819-0.626-2.54-0.367-0.725-0.835-1.323-1.334-1.847-1.006-1.044-2.166-1.833-3.358-2.527-2.372-1.372-4.9-2.313-6.301-2.799-3.948-1.361-8.104-2.307-12.303-2.732-1.289-0.13-2.673-0.233-4.105-0.233-0.993 1e-3 -2.013 0.059-3.041 0.194 3.976-4.174 9.583-6.778 15.801-6.778 12.054 0 21.825 9.771 21.825 21.825 0 4.757-1.527 9.156-4.111 12.742l-2.252 0.17c-0.891 0.064-1.782 0.099-2.674 0.099h-0.021"/>
  </clipPath>
  <clipPath id="z">
   <path id="bc" d="m119.61 101.74 26.749-52.295-52.294-26.749-26.749 52.295z"/>
  </clipPath>
  <linearGradient id="h" x2="1" gradientTransform="matrix(19.663 -38.441 -38.441 -19.663 98.946 78.524)" gradientUnits="userSpaceOnUse">
   <stop id="bd" stop-color="#ffce0d" offset="0"/>
   <stop id="be" stop-color="#ffce0d" offset=".49221"/>
   <stop id="bf" stop-color="#896226" offset="1"/>
  </linearGradient>
  <clipPath id="y">
   <path id="bg" d="m91.013 55.914h29.67v-15.52h-29.67z"/>
  </clipPath>
  <clipPath id="x">
   <path id="bh" d="m120.12 55.268c-1.006-1.044-2.166-1.832-3.357-2.527-2.042-1.179-4.196-2.04-5.65-2.568-1.259-2.404-3.927-4.245-6.739-4.837-1.826-0.385-4.929-0.481-9.094 1.64l-0.05 0.025c-0.356-0.012-0.816-0.025-1.176-0.025-0.992 2e-3 -2.013 0.06-3.042 0.196 3.975-4.174 9.584-6.778 15.802-6.778 3.484 0 6.777 0.817 9.7 2.27 3.494 4.866 4.014 10.045 4.168 13.25-0.18-0.229-0.369-0.442-0.562-0.646"/>
  </clipPath>
  <clipPath id="w">
   <path id="bi" d="m91.013 55.914h29.67v-15.52h-29.67z"/>
  </clipPath>
  <radialGradient id="a" cx="0" cy="0" r="1" gradientTransform="matrix(32.811 0 0 -32.811 83.921 48.441)" gradientUnits="userSpaceOnUse">
   <stop id="bj" stop-color="#fff" offset="0"/>
   <stop id="bk" stop-color="#fff" offset=".40109"/>
   <stop id="bl" stop-color="#fff" offset=".59186"/>
   <stop id="bm" stop-color="#c1ab2f" offset="1"/>
  </radialGradient>
  <clipPath id="v">
   <path id="bn" d="m85.01 82.27h22.872v-29.15h-22.872z"/>
  </clipPath>
  <clipPath id="u">
   <path id="bo" d="m98.981 82.269c-0.215-2e-3 -0.43-0.01-0.644-0.027-0.081-5e-3 -0.197 4e-3 -0.271-0.028-0.139-0.06-0.275-0.123-0.411-0.186-0.515-0.237-1.021-0.497-1.514-0.776-3.946-2.218-7.158-5.672-9.08-9.77-0.925-1.97-1.549-4.077-1.849-6.234-0.319-2.3-0.286-4.631 0.288-6.888 0.069-0.271 0.145-0.541 0.227-0.809 0.42-1.22 1.037-2.448 2.141-3.182 0.625-0.416 1.37-0.639 2.085-0.837 0.699-0.193 1.411-0.33 2.13-0.412-0.926 2.151-1.549 4.414-1.768 6.749-0.109 1.156-0.122 2.321-0.029 3.478 0.087 1.054 0.225 2.157 0.543 3.168 0.298 0.95 0.803 1.858 1.347 2.684 0.628 0.953 1.366 1.832 2.168 2.642 1.623 1.639 3.511 3.021 5.507 4.169 2.535 1.455 5.234 2.571 8.031 3.414-1.706 1.313-3.84 2.103-5.935 2.533-0.94 0.193-1.9 0.313-2.862 0.313-0.035 0-0.069-1e-3 -0.104-1e-3"/>
  </clipPath>
  <clipPath id="t">
   <path id="bp" d="m84.893 82.278h22.989v-29.158h-22.989z"/>
  </clipPath>
  <linearGradient id="g" x2="1" gradientTransform="matrix(22.872 0 0 -22.872 85.01 67.695)" gradientUnits="userSpaceOnUse">
   <stop id="bq" stop-color="#fff" offset="0"/>
   <stop id="br" stop-color="#fff" offset=".075196"/>
   <stop id="bs" stop-color="#ffce0d" offset=".70329"/>
   <stop id="bt" stop-color="#ffce0d" offset=".75318"/>
   <stop id="bu" stop-color="#ffce0d" offset="1"/>
  </linearGradient>
  <clipPath id="s">
   <path id="bv" d="m98.078 84.047h19.632v-4.6325h-19.632z"/>
  </clipPath>
  <clipPath id="r">
   <path id="bw" d="m98.078 82.219c2.272 0.243 5.413-0.397 7.899-1.626 0.701-0.347 1.348-0.739 1.905-1.168-0.012-4e-3 -0.022-6e-3 -0.034-0.011 3.044 0.907 6.365 1.514 9.862 1.716-3.208 1.853-6.91 2.917-10.882 2.917-3.111 0-6.07-0.653-8.75-1.828"/>
  </clipPath>
  <clipPath id="q">
   <path id="bx" d="m95.85 81.1 9.3722 12.392 14.717-11.131-9.3722-12.392z"/>
  </clipPath>
  <linearGradient id="f" x2="1" gradientTransform="matrix(10.312 13.635 13.635 -10.312 101.84 73.671)" gradientUnits="userSpaceOnUse">
   <stop id="by" stop-color="#fff" offset="0"/>
   <stop id="bz" stop-color="#fff" offset=".0050507"/>
   <stop id="ca" stop-color="#fff" offset=".17529"/>
   <stop id="cb" stop-color="#896226" offset=".82967"/>
   <stop id="cc" stop-color="#896226" offset="1"/>
  </linearGradient>
  <clipPath id="p">
   <path id="cd" d="m113.29 75.229h15.372v-32.566h-15.372z"/>
  </clipPath>
  <clipPath id="o">
   <path id="ce" d="m119.59 75.228c-2.125 0-4.246-0.19-6.298-0.535 2.562-1.812 5.373-5.665 6.881-10.775l-4e-3 4e-3c0-1e-3 0-4e-3 1e-3 -5e-3 -6e-3 6e-3 -0.013 0.013-0.02 0.019 1.14-1.103 1.971-2.63 1.957-4.28 0-0.946-0.26-1.82-0.627-2.541-0.224-0.445-0.487-0.841-0.772-1.202-0.155-3.205-0.675-8.383-4.168-13.25 7.185 3.571 12.124 10.984 12.124 19.554 0 4.758-1.527 9.156-4.111 12.741l-2.252 0.171c-0.891 0.065-1.783 0.099-2.673 0.099z"/>
  </clipPath>
  <clipPath id="n">
   <path id="cf" d="m97.599 54.586 21.317 28.049 25.433-19.329-21.317-28.049z"/>
  </clipPath>
  <linearGradient id="e" x2="1" gradientTransform="matrix(21.769 28.644 28.644 -21.769 110.39 50.854)" gradientUnits="userSpaceOnUse">
   <stop id="cg" stop-color="#896226" offset="0"/>
   <stop id="ch" stop-color="#896226" offset=".0054932"/>
   <stop id="ci" stop-color="#896226" offset=".25123"/>
   <stop id="cj" stop-color="#514218" offset="1"/>
  </linearGradient>
  <clipPath id="m">
   <path id="ck" d="m101.64 74.695h18.511v-10.775h-18.511z"/>
  </clipPath>
  <clipPath id="l">
   <path id="cl" d="m106.14 72.761c-1.653-0.632-3.169-1.376-4.5-2.18 2.209-0.448 4.334-0.938 7.281-1.705 1.602-0.418 3.505-0.882 5.422-1.575 1.913-0.692 4.14-1.77 5.809-3.38-0.588 2.005-2.543 7.54-6.767 10.686-0.037 0.034-0.114 0.088-0.114 0.088-2.525-0.426-4.944-1.089-7.131-1.934"/>
  </clipPath>
  <clipPath id="k">
   <path id="cm" d="m114.51 83.215 10.599-16.012-17.83-11.803-10.599 16.012z"/>
  </clipPath>
  <linearGradient id="d" x2="1" gradientTransform="matrix(13.806 -20.856 -20.856 -13.806 104.43 78.046)" gradientUnits="userSpaceOnUse">
   <stop id="cn" stop-color="#ffce0d" offset="0"/>
   <stop id="co" stop-color="#ffce0d" offset=".21979"/>
   <stop id="cp" stop-color="#fff" offset=".80721"/>
   <stop id="cq" stop-color="#fff" offset="1"/>
  </linearGradient>
  <clipPath id="ah">
   <path id="cr" d="m85.009 40.394h131.57v43.653h-131.57z"/>
  </clipPath>
  <clipPath id="aj">
   <path id="cs" d="m134.26 56.157v-9.786h82.323v9.786h-0.01z"/>
  </clipPath>
  <clipPath id="ai">
   <path id="ct" d="m216.17 40.568-82.601 5.8519 1.101 15.54 82.601-5.8519z"/>
  </clipPath>
  <linearGradient id="i" x2="1" gradientTransform="matrix(-82.601 5.852 5.852 82.601 216.72 48.337)" gradientUnits="userSpaceOnUse">
   <stop id="cu" stop-color="#ffce0d" offset="0"/>
   <stop id="cv" stop-color="#ffce0d" offset=".032974"/>
   <stop id="cw" stop-color="#ffce0d" offset=".35691"/>
   <stop id="cx" stop-color="#896226" offset="1"/>
  </linearGradient>
  <clipPath id="j">
   <path id="cy" d="m85.009 40.394h131.57v43.653h-131.57z"/>
  </clipPath>
 </defs>
 <g id="cz" transform="translate(36.699 -173.35)">
  <g id="da" transform="matrix(1.6088 0 0 -1.6088 -173.46 308.57)" fill="#fff">
   <g id="db" clip-path="url(#j)" fill="#fff">
    <g id="dc" transform="translate(142.56 72.92)">
     <path id="dd" d="m0 0c-0.097-0.259-3.511-9.373-3.511-9.373s-3.421 9.114-3.517 9.373h-4.241c0.23-0.543 6.186-14.392 6.287-14.629h2.909c0.1 0.237 6.056 14.086 6.288 14.629z" fill="#fff"/>
    </g>
    <path id="de" d="m149.43 58.346h4.089v14.573h-4.089z"/>
    <g id="df" transform="translate(163.85 67.661)">
     <path id="dg" d="m0 0 1.878-5.015h-3.758zm-1.466 5.256c-0.104-0.237-6.059-14.085-6.29-14.627h4.242c0.083 0.222 0.613 1.641 0.613 1.641h5.801s0.532-1.419 0.616-1.641h4.214c-0.235 0.542-6.186 14.39-6.289 14.627z" fill="#fff"/>
    </g>
    <g id="dh" transform="translate(195.4 67.661)">
     <path id="di" d="m0 0 1.882-5.015h-3.757zm-1.466 5.256c-0.102-0.237-6.055-14.085-6.288-14.627h4.241c0.084 0.222 0.616 1.641 0.616 1.641h5.799s0.53-1.419 0.614-1.641h4.213c-0.233 0.542-6.183 14.39-6.285 14.627z" fill="#fff"/>
    </g>
    <g id="dj" transform="translate(178.56 73.05)">
     <path id="dk" d="m0 0c-3.691 0-5.485-1.227-5.485-3.751v-1.737c0-1.334 0.536-2.331 1.508-2.802 0.735-0.38 1.584-0.49 3.778-0.49h2.874c0.918 0 1.289-0.357 1.289-1.23v-0.2c0-0.884-0.384-1.259-1.289-1.259h-3.131c-0.467 0-0.785 0.098-0.991 0.313-0.159 0.164-0.24 0.401-0.261 0.702-0.355-0.016-3.352-0.14-3.742-0.153 0.454-3.017 1.951-4.15 5.45-4.15h2.279c3.69 0 5.484 1.237 5.484 3.778v1.734c0 1.334-0.533 2.331-1.506 2.805-0.738 0.381-1.583 0.489-3.782 0.489h-2.873c-0.915 0-1.289 0.357-1.289 1.232v0.198c0 0.884 0.387 1.261 1.289 1.261h3.132c0.468 0 0.785-0.1 0.992-0.316 0.158-0.166 0.24-0.397 0.258-0.691 0.372 0.03 3.343 0.273 3.737 0.305-0.579 2.914-2.026 3.962-5.442 3.962z" fill="#fff"/>
    </g>
    <g id="dl" transform="translate(202 72.92)">
     <path id="dm" d="m0 0v-3.498h5.242v-11.075h4.091v11.075h5.248v3.498z" fill="#fff"/>
    </g>
   </g>
  </g>
  <g id="dn" transform="matrix(1.6088 0 0 -1.6088 -173.46 308.57)">
   <g id="do" clip-path="url(#aj)">
    <g id="dp">
     <g id="dq">
      <g id="dr" clip-path="url(#ai)">
       <path id="ds" d="m134.26 56.157v-9.786h82.323v9.786h-0.01z" fill="url(#i)"/>
      </g>
     </g>
    </g>
   </g>
  </g>
  <g id="dt" transform="matrix(1.6088 0 0 -1.6088 -173.46 308.57)">
   <g id="du" clip-path="url(#ah)">
    <g id="dv" transform="translate(143.48 48.3)">
     <path id="dw" d="m0 0c-0.698-0.205-1.757-0.35-2.649-0.35-3.21 0-4.504 1.419-4.504 3.462 0 2.041 1.302 3.513 4.487 3.513 0.883 0 1.846-0.116 2.586-0.32l-0.224-1.81c-0.677 0.195-1.516 0.301-2.247 0.301-1.695 0-2.061-0.462-2.061-1.648 0-1.214 0.403-1.669 1.891-1.669 0.223 0 0.437 9e-3 0.642 0.044v1.802h2.079z" fill="#fff"/>
    </g>
    <g id="dx" transform="translate(148.79 47.961)">
     <path id="dy" d="m0 0c-2.989 0-4.202 1.533-4.202 3.479 0 1.943 1.213 3.459 4.202 3.459 2.996 0 4.201-1.516 4.201-3.459 0-1.936-1.205-3.479-4.201-3.479m0 5.127c-1.248 0-1.659-0.483-1.659-1.64 0-1.159 0.411-1.678 1.659-1.678 1.258 0 1.667 0.519 1.667 1.678 0 1.157-0.374 1.64-1.667 1.64" fill="#fff"/>
    </g>
    <g id="dz" transform="translate(160.35 49.959)">
     <path id="ea" d="m0 0-0.045-1.863h-6.056v6.687h2.4v-4.824z" fill="#fff"/>
    </g>
    <g id="eb" transform="translate(163.82 52.919)">
     <path id="ec" d="m0 0v-0.893h3.335l-0.027-1.695h-3.308v-2.236h-2.408v6.687h6.412l-2e-3 -1.863z" fill="#fff"/>
    </g>
   </g>
  </g>
  <g id="ed" transform="matrix(1.6088 0 0 -1.6088 -173.46 308.57)">
   <g id="ee">
    <g id="ef" clip-path="url(#ag)">
     <g id="eg">
      <g id="eh">
       <g id="ei" clip-path="url(#af)">
        <path id="ej" d="m86.47 62.221c0-11.247 9.118-20.364 20.366-20.364s20.366 9.117 20.366 20.364c0 11.249-9.118 20.365-20.366 20.365s-20.366-9.116-20.366-20.365" fill="url(#c)"/>
       </g>
      </g>
     </g>
    </g>
   </g>
   <g id="ek">
    <g id="el" clip-path="url(#ae)">
     <g id="em">
      <g id="en">
       <g id="eo" clip-path="url(#ad)">
        <path id="ep" d="m85.01 62.221c0-1.609 0.267-3.177 0.723-4.67 0.599-1.732 1.434-3.02 2.964-3.602 2.333-0.89 4.141-0.906 5.366-0.948 1.14-0.041 2.343 3e-3 3.52 0.121 3.71 0.375 7.433 1.219 10.962 2.436 0.787 0.273 2.044 0.739 3.323 1.331 1.28 0.583 2.59 1.315 3.419 1.984 0.373 0.288 0.632 0.568 0.772 0.748-0.041 0.044-0.091 0.094-0.153 0.152-0.789 0.726-2.063 1.402-3.582 1.947-1.517 0.551-3.242 0.983-4.892 1.41-5.249 1.363-7.551 1.774-12.999 2.763 0 0-3.616 0.56-3.592 0.627 2.422 6.991 13.321 13.827 26.876 14.61-3.208 1.853-6.911 2.917-10.882 2.917-12.053 0-21.825-9.772-21.825-21.826m34.59 13.012c-4.748 0-9.483-0.936-13.455-2.47-1.652-0.632-3.169-1.375-4.498-2.18 2.208-0.449 4.333-0.938 7.279-1.705 1.602-0.419 3.506-0.883 5.422-1.575 1.912-0.7 3.874-1.62 5.554-3.138 1.264-1.116 2.215-2.739 2.2-4.506 1e-3 -0.944-0.26-1.819-0.626-2.539-0.367-0.727-0.835-1.324-1.334-1.848-1.006-1.044-2.167-1.834-3.358-2.527-2.372-1.371-4.901-2.313-6.3-2.8-3.949-1.36-8.104-2.306-12.304-2.73-1.29-0.131-2.672-0.234-4.106-0.234-0.991 2e-3 -2.011 0.059-3.04 0.194 3.975-4.174 9.582-6.779 15.801-6.779 12.053 0 21.825 9.772 21.825 21.825 0 4.758-1.528 9.157-4.112 12.743l-2.252 0.17c-0.89 0.065-1.782 0.099-2.672 0.099z" fill="url(#b)"/>
       </g>
      </g>
     </g>
    </g>
   </g>
   <g id="eq">
    <g id="er" clip-path="url(#ac)">
     <g id="es">
      <g id="et">
       <g id="eu" clip-path="url(#ab)" opacity=".60001">
        <g id="ev">
         <g id="ew" clip-path="url(#aa)">
          <g id="ex">
           <g id="ey">
            <g id="ez" clip-path="url(#z)">
             <path id="fa" d="m85.009 62.221c0-1.61 0.265-3.177 0.722-4.67 0.599-1.733 1.434-3.021 2.963-3.604 2.335-0.888 4.142-0.904 5.367-0.946 1.141-0.041 2.344 2e-3 3.521 0.121 3.709 0.374 7.43 1.218 10.962 2.435 0.786 0.272 2.044 0.738 3.323 1.33 1.279 0.584 2.59 1.315 3.419 1.984 0.372 0.29 0.631 0.57 0.77 0.749-0.041 0.044-0.09 0.094-0.153 0.152-0.788 0.725-2.062 1.401-3.581 1.947-1.517 0.551-3.242 0.984-4.892 1.41-5.248 1.362-7.55 1.775-12.998 2.763 0 0-3.617 0.56-3.593 0.627 2.422 6.991 13.322 13.827 26.876 14.61-3.208 1.853-6.91 2.917-10.882 2.917-12.053 0-21.824-9.772-21.824-21.825m34.591 13.011c-4.748 0-9.484-0.935-13.456-2.47-1.653-0.632-3.17-1.375-4.5-2.179 2.209-0.449 4.334-0.94 7.279-1.706 1.602-0.419 3.506-0.883 5.424-1.575 1.911-0.699 3.874-1.62 5.555-3.138 1.261-1.115 2.213-2.74 2.198-4.506 1e-3 -0.944-0.259-1.819-0.626-2.54-0.367-0.725-0.835-1.323-1.334-1.847-1.006-1.044-2.166-1.833-3.358-2.527-2.372-1.372-4.9-2.313-6.301-2.799-3.948-1.361-8.104-2.307-12.303-2.732-1.289-0.13-2.673-0.233-4.105-0.233-0.993 1e-3 -2.013 0.059-3.041 0.194 3.976-4.174 9.583-6.778 15.801-6.778 12.054 0 21.825 9.771 21.825 21.825 0 4.757-1.527 9.156-4.111 12.742l-2.252 0.17c-0.891 0.064-1.782 0.099-2.674 0.099h-0.021" fill="url(#h)"/>
            </g>
           </g>
          </g>
         </g>
        </g>
       </g>
      </g>
     </g>
     <g id="fb">
      <g id="fc">
       <g id="fd" clip-path="url(#y)" opacity=".31">
        <g id="fe">
         <g id="ff" clip-path="url(#x)">
          <g id="fg">
           <g id="fh">
            <g id="fi" clip-path="url(#w)">
             <path id="fj" d="m120.12 55.268c-1.006-1.044-2.166-1.832-3.357-2.527-2.042-1.179-4.196-2.04-5.65-2.568-1.259-2.404-3.927-4.245-6.739-4.837-1.826-0.385-4.929-0.481-9.094 1.64l-0.05 0.025c-0.356-0.012-0.816-0.025-1.176-0.025-0.992 2e-3 -2.013 0.06-3.042 0.196 3.975-4.174 9.584-6.778 15.802-6.778 3.484 0 6.777 0.817 9.7 2.27 3.494 4.866 4.014 10.045 4.168 13.25-0.18-0.229-0.369-0.442-0.562-0.646" fill="url(#a)"/>
            </g>
           </g>
          </g>
         </g>
        </g>
       </g>
      </g>
     </g>
     <g id="fk">
      <g id="fl">
       <g id="fm" clip-path="url(#v)" opacity=".59">
        <g id="fn">
         <g id="fo" clip-path="url(#u)">
          <g id="fp">
           <g id="fq">
            <g id="fr" clip-path="url(#t)">
             <path id="fs" d="m98.981 82.269c-0.215-2e-3 -0.43-0.01-0.644-0.027-0.081-5e-3 -0.197 4e-3 -0.271-0.028-0.139-0.06-0.275-0.123-0.411-0.186-0.515-0.237-1.021-0.497-1.514-0.776-3.946-2.218-7.158-5.672-9.08-9.77-0.925-1.97-1.549-4.077-1.849-6.234-0.319-2.3-0.286-4.631 0.288-6.888 0.069-0.271 0.145-0.541 0.227-0.809 0.42-1.22 1.037-2.448 2.141-3.182 0.625-0.416 1.37-0.639 2.085-0.837 0.699-0.193 1.411-0.33 2.13-0.412-0.926 2.151-1.549 4.414-1.768 6.749-0.109 1.156-0.122 2.321-0.029 3.478 0.087 1.054 0.225 2.157 0.543 3.168 0.298 0.95 0.803 1.858 1.347 2.684 0.628 0.953 1.366 1.832 2.168 2.642 1.623 1.639 3.511 3.021 5.507 4.169 2.535 1.455 5.234 2.571 8.031 3.414-1.706 1.313-3.84 2.103-5.935 2.533-0.94 0.193-1.9 0.313-2.862 0.313-0.035 0-0.069-1e-3 -0.104-1e-3" fill="url(#g)"/>
            </g>
           </g>
          </g>
         </g>
        </g>
       </g>
      </g>
     </g>
     <g id="ft">
      <g id="fu">
       <g id="fv" clip-path="url(#s)" opacity="0">
        <g id="fw">
         <g id="fx" clip-path="url(#r)">
          <g id="fy">
           <g id="fz">
            <g id="ga" clip-path="url(#q)">
             <path id="gb" d="m98.078 82.219c2.272 0.243 5.413-0.397 7.899-1.626 0.701-0.347 1.348-0.739 1.905-1.168-0.012-4e-3 -0.022-6e-3 -0.034-0.011 3.044 0.907 6.365 1.514 9.862 1.716-3.208 1.853-6.91 2.917-10.882 2.917-3.111 0-6.07-0.653-8.75-1.828" fill="url(#f)"/>
            </g>
           </g>
          </g>
         </g>
        </g>
       </g>
      </g>
     </g>
     <g id="gc">
      <g id="gd">
       <g id="ge" clip-path="url(#p)" opacity="0">
        <g id="gf">
         <g id="gg" clip-path="url(#o)">
          <g id="gh">
           <g id="gi">
            <g id="gj" clip-path="url(#n)">
             <path id="gk" d="m119.59 75.228c-2.125 0-4.246-0.19-6.298-0.535 2.562-1.812 5.373-5.665 6.881-10.775l-4e-3 4e-3c0-1e-3 0-4e-3 1e-3 -5e-3 -6e-3 6e-3 -0.013 0.013-0.02 0.019 1.14-1.103 1.971-2.63 1.957-4.28 0-0.946-0.26-1.82-0.627-2.541-0.224-0.445-0.487-0.841-0.772-1.202-0.155-3.205-0.675-8.383-4.168-13.25 7.185 3.571 12.124 10.984 12.124 19.554 0 4.758-1.527 9.156-4.111 12.741l-2.252 0.171c-0.891 0.065-1.783 0.099-2.673 0.099z" fill="url(#e)"/>
            </g>
           </g>
          </g>
         </g>
        </g>
       </g>
      </g>
     </g>
     <g id="gl">
      <g id="gm">
       <g id="gn" clip-path="url(#m)" opacity=".33">
        <g id="go">
         <g id="gp" clip-path="url(#l)">
          <g id="gq">
           <g id="gr">
            <g id="gs" clip-path="url(#k)">
             <path id="gt" d="m106.14 72.761c-1.653-0.632-3.169-1.376-4.5-2.18 2.209-0.448 4.334-0.938 7.281-1.705 1.602-0.418 3.505-0.882 5.422-1.575 1.913-0.692 4.14-1.77 5.809-3.38-0.588 2.005-2.543 7.54-6.767 10.686-0.037 0.034-0.114 0.088-0.114 0.088-2.525-0.426-4.944-1.089-7.131-1.934" fill="url(#d)"/>
            </g>
           </g>
          </g>
         </g>
        </g>
       </g>
      </g>
     </g>
    </g>
   </g>
  </g>
 </g>
</svg>
