<svg id="b" width="800" height="332.71" version="1.1" viewBox="0 0 211.67 88.029" xmlns="http://www.w3.org/2000/svg">
 <defs id="c">
  <clipPath id="a">
   <path id="d" d="m272.22 324.64h35.441v14.715h-35.441z"/>
  </clipPath>
 </defs>
 <g id="e" transform="translate(23.312 -63.426)">
  <g id="f" transform="matrix(5.9827 0 0 -5.9827 -1652.3 2093.7)">
   <g id="g" clip-path="url(#a)">
    <g id="h" transform="translate(280.48 335.72)">
     <path id="i" d="m0 0c-0.036 0.952-0.304 1.743-0.803 2.383-0.035 0.045-0.07 0.09-0.108 0.135-1e-3 2e-3 -2e-3 3e-3 -4e-3 5e-3 -1e-3 1e-3 -2e-3 3e-3 -3e-3 4e-3 -0.128 0.153-0.271 0.302-0.416 0.44l-0.789-1.75-1.259-2.783-0.024-0.053h-1e-3l-0.521-4e-3 -0.772-6e-3 -1.071 2.433-0.878 1.993-0.112 0.254c-0.941-0.819-1.504-2.036-1.437-3.288 0.101-1.886 1.679-3.406 3.412-3.716 0.232-0.041 0.466-0.074 0.718-0.068 0.033 1e-3 0.073 3e-3 0.106 4e-3 0.048 2e-3 0.1 5e-3 0.148 8e-3 2.204 0.134 3.887 2.057 3.814 4.009" fill="#174375"/>
    </g>
    <g id="j" transform="translate(276.36 339.36)">
     <path id="k" d="m0 0c-0.331 0-0.664-0.053-0.966-0.143l0.635-1.904 0.362-1.077 0.417 1.186 0.565 1.604 0.066 0.19c-0.301 0.09-0.748 0.144-1.079 0.144" fill="#174375"/>
    </g>
    <g id="l" transform="translate(298.1 336.01)">
     <path id="m" d="m0 0c-0.222 0.115-0.477 0.148-1.138 0.148h-0.865c-0.276 0-0.388 0.108-0.388 0.371v0.06c0 0.012 0 0.023 1e-3 0.034 0.012 0.237 0.13 0.338 0.387 0.338h0.942c0.126 0 0.221-0.023 0.284-0.075 2e-3 0-2e-3 0 0 0 5e-3 -4e-3 0.01-9e-3 0.015-0.013 0.047-0.049 0.072-0.119 0.078-0.208 0.111 8e-3 1.007 0.081 1.125 0.091-0.022 0.11-0.051 0.211-0.081 0.304-1e-3 -1e-3 1e-3 0 0 0-0.214 0.643-0.661 0.882-1.558 0.882h-0.686c-1.11 0-1.65-0.369-1.65-1.128v-0.517c0-0.402 0.16-0.701 0.453-0.843 0.222-0.115 0.477-0.148 1.138-0.148h0.865c0.275 0 0.388-0.108 0.388-0.371v-0.06c0-0.265-0.116-0.379-0.388-0.379h-0.942c-0.142 0-0.237 0.03-0.299 0.095-0.048 0.049-0.073 0.119-0.079 0.211-0.106-5e-3 -1.009-0.041-1.127-0.046 0.137-0.908 0.588-1.249 1.641-1.249h0.686c1.111 0 1.651 0.371 1.651 1.138v0.521c0 0.402-0.161 0.702-0.453 0.844m9.562 1.894h-4.39v-1.048h1.578v-3.333h1.232v3.333h1.58zm-16.44-3.087 0.566 1.504 0.566-1.504zm1 3.086h-0.876l-1.893-4.398h1.277l0.185 0.495h1.746l0.185-0.495h1.269zm8.499-3.086 0.565 1.51 0.567-1.51zm0.999 3.086h-0.875l-1.893-4.398h1.276l0.186 0.495h1.745l0.186-0.495h1.269zm-17.397-2.821-1.058 2.822h-1.278l1.891-4.399h0.878l1.894 4.399h-1.269zm3.123-1.559h1.231v4.381h-1.231z" fill="#174375"/>
    </g>
    <path id="n" d="m273.77 324.64h15.676v5.596h-15.676z" fill="#08954d"/>
    <path id="o" d="m289.45 324.64h16.641v5.596h-16.641z" fill="#f57c14"/>
    <g id="p" transform="translate(277.23 326.22)">
     <path id="q" d="m0 0c-0.145-0.153-0.34-0.23-0.608-0.23-0.247 0-0.451 0.09-0.596 0.243l0.332 0.319c0.051-0.073 0.153-0.132 0.264-0.132 0.196 0 0.34 0.136 0.34 0.395v2.237h0.477v-2.237c0-0.242-0.069-0.45-0.209-0.595" fill="#fff"/>
    </g>
    <g id="r" transform="translate(279.1 328.32)">
     <path id="s" d="m0 0-0.26-1.267h0.519zm0.472-2.296-0.124 0.599h-0.701l-0.119-0.599h-0.502l0.744 3.027h0.464l0.735-3.027z" fill="#fff"/>
    </g>
    <g id="t" transform="translate(280.77 326.03)">
     <path id="u" d="m0 0v3.028h0.477v-2.598h0.795v-0.43z" fill="#fff"/>
    </g>
    <g id="v" transform="translate(284.02 326.03)">
     <path id="w" d="m0 0-0.489 1.246-0.23-0.468v-0.778h-0.476v3.028h0.476v-1.425l0.659 1.425h0.481l-0.608-1.255 0.701-1.773z" fill="#fff"/>
    </g>
    <g id="x" transform="translate(286.01 328.32)">
     <path id="y" d="m0 0-0.259-1.267h0.519zm0.472-2.296-0.123 0.599h-0.702l-0.119-0.599h-0.502l0.744 3.027h0.464l0.736-3.027z" fill="#fff"/>
    </g>
    <g id="z" transform="translate(288.46 328.63)">
     <path id="aa" d="m0 0h-0.293v-0.987h0.293c0.255 0 0.293 0.226 0.293 0.494s-0.038 0.493-0.293 0.493m-9e-3 -1.416h-0.284v-1.182h-0.477v3.028h0.761c0.549 0 0.778-0.286 0.778-0.919 0-0.613-0.204-0.927-0.778-0.927" fill="#fff"/>
    </g>
    <g id="ab" transform="translate(290.56 328.32)">
     <path id="ac" d="m0 0-0.259-1.267h0.519zm0.472-2.296-0.123 0.599h-0.702l-0.119-0.599h-0.502l0.744 3.027h0.464l0.736-3.027z" fill="#fff"/>
    </g>
    <g id="ad" transform="translate(292.23 326.03)">
     <path id="ae" d="m0 0v3.028h0.476v-2.598h0.795v-0.43z" fill="#fff"/>
    </g>
    <g id="af" transform="translate(294.29 326.03)">
     <path id="ag" d="m0 0v3.028h0.476v-2.598h0.795v-0.43z" fill="#fff"/>
    </g>
    <g id="ah" transform="translate(297.23 328.55)">
     <path id="ai" d="m0 0c-0.042 0.068-0.115 0.115-0.23 0.115s-0.182-0.047-0.225-0.115c-0.089-0.144-0.106-0.451-0.106-1.004 0-0.552 0.017-0.858 0.106-1.003 0.043-0.068 0.11-0.115 0.225-0.115s0.188 0.047 0.23 0.115c0.09 0.145 0.102 0.451 0.102 1.003 0 0.553-0.012 0.86-0.102 1.004m0.357-2.296c-0.127-0.145-0.298-0.255-0.587-0.255s-0.459 0.11-0.586 0.255c-0.226 0.255-0.221 0.697-0.221 1.292 0 0.596-5e-3 1.038 0.221 1.293 0.127 0.145 0.297 0.255 0.586 0.255s0.46-0.11 0.587-0.255c0.226-0.255 0.221-0.697 0.221-1.293 0-0.595 5e-3 -1.037-0.221-1.292" fill="#fff"/>
    </g>
    <g id="aj" transform="translate(300.91 326.03)">
     <path id="ak" d="m0 0v1.327h-0.591v-1.327h-0.476v3.028h0.476v-1.276h0.591v1.276h0.477v-3.028z" fill="#fff"/>
    </g>
    <g id="al" transform="translate(303.32 328.5)">
     <path id="am" d="m0 0c-0.047 0.072-0.128 0.123-0.243 0.123h-0.28v-2.168h0.28c0.115 0 0.196 0.051 0.243 0.123 0.089 0.14 0.102 0.438 0.102 0.965s-0.013 0.817-0.102 0.957m0.357-2.224c-0.123-0.14-0.298-0.251-0.587-0.251h-0.769v3.028h0.769c0.289 0 0.464-0.111 0.587-0.251 0.225-0.251 0.221-0.681 0.221-1.263 0-0.583 4e-3 -1.012-0.221-1.263" fill="#fff"/>
    </g>
   </g>
  </g>
 </g>
</svg>
