<svg id="d" version="1.1" viewBox="0 0 800 152.05" xmlns="http://www.w3.org/2000/svg">
 <defs id="e">
  <linearGradient id="a" x2="1" gradientTransform="matrix(0 6.4032 6.4032 0 418.17 199.55)" gradientUnits="userSpaceOnUse">
   <stop id="f" stop-color="#2d2e83" offset="0"/>
   <stop id="g" stop-color="#36a9e1" offset="1"/>
  </linearGradient>
  <linearGradient id="b" x2="1" gradientTransform="matrix(0 6.4032 6.4032 0 416.61 199.55)" gradientUnits="userSpaceOnUse">
   <stop id="h" stop-color="#2d2e83" offset="0"/>
   <stop id="i" stop-color="#36a9e1" offset="1"/>
  </linearGradient>
  <clipPath id="c">
   <path id="j" d="m414.21 199.47h33.283v6.326h-33.283z"/>
  </clipPath>
 </defs>
 <g id="k" transform="matrix(24.036 0 0 -24.036 -9955.9 4946.6)">
  <g id="l" clip-path="url(#c)">
   <g id="m" transform="translate(418.92 201.08)">
    <path id="n" d="m0 0c0.522 0.448 0.561 0.878 0.502 1.161-0.184 0.882-1.333 1.042-2.256 1.171-0.12 0.017-0.262 0.037-0.4 0.059-0.181 0.03-0.218 0.274-0.055 0.355 0.223 0.11 0.553 0.241 1.041 0.38 0.716 0.205 1.514 0.357 2.05 0.452-0.226 0.271-0.497 0.503-0.8 0.686-2.465-0.491-3.516-1.032-3.572-1.803-0.033-0.473 0.395-0.681 0.654-0.762 0.267-0.085 0.608-0.132 0.968-0.183 0.56-0.078 1.498-0.208 1.564-0.524 0.027-0.128-0.153-0.299-0.232-0.367-0.618-0.53-2.098-0.974-3.44-1.069 0.242-0.294 0.536-0.544 0.868-0.734 1.266 0.199 2.487 0.646 3.108 1.178" fill="#fff"/>
   </g>
  </g>
 </g>
 <g id="o" transform="matrix(24.036 0 0 -24.036 -9955.9 4946.6)">
  <g id="p">
   <g id="q">
    <g id="r">
     <path id="s" d="m414.21 202.64c0-0.761 0.269-1.459 0.717-2.005 1.345 0.095 2.831 0.54 3.451 1.071 0.079 0.067 0.259 0.238 0.232 0.368-0.065 0.315-1.003 0.445-1.564 0.523-0.361 0.051-0.701 0.098-0.968 0.182-0.258 0.082-0.688 0.29-0.654 0.763 0.056 0.773 1.111 1.314 3.585 1.806-0.477 0.289-1.037 0.455-1.636 0.455-1.747 0-3.163-1.416-3.163-3.163" fill="url(#b)"/>
    </g>
   </g>
  </g>
 </g>
 <g id="t" transform="matrix(24.036 0 0 -24.036 -9955.9 4946.6)">
  <g id="u">
   <g id="v">
    <g id="w">
     <path id="x" d="m417.75 204.2c-0.487-0.141-0.818-0.271-1.041-0.381-0.164-0.081-0.125-0.326 0.055-0.355 0.138-0.022 0.28-0.042 0.4-0.059 0.923-0.129 2.072-0.289 2.257-1.171 0.058-0.283 0.02-0.714-0.503-1.161-0.623-0.535-1.851-0.982-3.121-1.181 0.465-0.269 1.004-0.423 1.58-0.423 1.747 0 3.163 1.416 3.163 3.163 0 0.768-0.274 1.472-0.729 2.02-0.536-0.093-1.341-0.246-2.061-0.452" fill="url(#a)"/>
    </g>
   </g>
  </g>
 </g>
 <g id="y" transform="matrix(24.036 0 0 -24.036 -9955.9 4946.6)">
  <path id="z" d="m423.43 200.99h-0.785l-1.227 3.288h0.778l0.854-2.408 0.855 2.408h0.759z" fill="#fff"/>
  <path id="aa" d="m425.1 204.27h0.721v-3.288h-0.721zm0.822 1.001c0-0.25-0.196-0.456-0.455-0.456-0.266 0-0.468 0.206-0.468 0.456 0 0.257 0.202 0.456 0.468 0.456 0.259 0 0.455-0.199 0.455-0.456" fill="#fff"/>
  <g id="ab" transform="translate(428.34 202.26)">
   <path id="ac" d="m0 0v0.347l-0.633-0.154c-0.557-0.135-0.778-0.277-0.778-0.559 0-0.238 0.209-0.392 0.569-0.392 0.5 0 0.842 0.257 0.842 0.758m0.063-1.278c-0.019 0.084-0.031 0.206-0.044 0.373-0.183-0.309-0.538-0.456-1-0.456-0.658 0-1.145 0.314-1.145 0.937 0 0.681 0.525 0.963 1.354 1.137l0.772 0.173c0 0.392-0.24 0.578-0.696 0.578-0.424 0-0.715-0.212-0.905-0.411l-0.418 0.495c0.273 0.302 0.703 0.558 1.348 0.558 0.937 0 1.361-0.488 1.361-1.207v-1.393c0-0.418 0.019-0.662 0.038-0.784z" fill="#fff"/>
  </g>
  <g id="ad" transform="translate(431.79 204.01)">
   <path id="ae" d="m0 0-0.354-0.527c-0.222 0.167-0.475 0.251-0.734 0.251-0.329 0-0.494-0.135-0.494-0.321s0.177-0.264 0.424-0.366l0.285-0.116c0.582-0.237 0.93-0.469 0.93-1.021 0-0.629-0.506-1.021-1.209-1.021-0.525 0-0.993 0.193-1.31 0.469l0.374 0.539c0.24-0.205 0.576-0.359 0.936-0.359 0.291 0 0.507 0.109 0.507 0.372 0 0.238-0.26 0.34-0.614 0.482l-0.291 0.122c-0.545 0.224-0.734 0.501-0.734 0.899 0 0.481 0.411 0.957 1.215 0.957 0.487 0 0.86-0.18 1.069-0.36" fill="#fff"/>
  </g>
  <g id="af" transform="translate(434.72 202.63)">
   <path id="ag" d="m0 0c0 0.687-0.424 1.047-0.905 1.047s-0.911-0.36-0.911-1.047 0.43-1.047 0.911-1.047 0.905 0.36 0.905 1.047m0.728 0c0-1.034-0.658-1.727-1.513-1.727-0.424 0-0.759 0.147-0.993 0.404v-1.541h-0.722v4.508h0.684v-0.372c0.234 0.282 0.588 0.449 1.031 0.449 0.855 0 1.513-0.693 1.513-1.721" fill="#fff"/>
  </g>
  <g id="ah" transform="translate(436.44 202.63)">
   <path id="ai" d="m0 0c0-0.687 0.456-1.047 0.949-1.047 0.487 0 0.943 0.36 0.943 1.047s-0.456 1.047-0.943 1.047c-0.493 0-0.949-0.36-0.949-1.047m2.62 0c0-1.034-0.728-1.74-1.671-1.74s-1.677 0.706-1.677 1.74 0.734 1.74 1.677 1.74 1.671-0.706 1.671-1.74" fill="#fff"/>
  </g>
  <g id="aj" transform="translate(441.21 203.61)">
   <path id="ak" d="m0 0c-0.709-0.019-1.114-0.379-1.114-1.194v-1.433h-0.721v3.288h0.69v-0.565c0.158 0.321 0.493 0.604 1.069 0.61z" fill="#fff"/>
  </g>
  <g id="al" transform="translate(442.73 202.13)">
   <path id="am" d="m0 0c0-0.398 0.152-0.539 0.538-0.539 0.063 0 0.126 6e-3 0.164 0.012v-0.616c-0.095-0.026-0.24-0.051-0.405-0.051-0.664 0-1.018 0.301-1.018 1.014v1.702h-0.601v0.623h0.601v1.04h0.721v-1.04h0.734v-0.623h-0.734z" fill="#fff"/>
  </g>
  <g id="an" transform="translate(446.33 203.06)">
   <path id="ao" d="m0 0v1.214h-0.95v-1.214h-1.177v-0.87h1.177v-1.208h0.95v1.208h1.165v0.87z" fill="#fff"/>
  </g>
 </g>
</svg>
