<svg width="800" height="317.49" version="1.1" viewBox="0 0 211.67 84.002" xmlns="http://www.w3.org/2000/svg">
 <defs>
  <clipPath id="p">
   <path d="m81.816 264.25h4.2339v-1.767h-4.2339z"/>
  </clipPath>
  <clipPath id="o">
   <path d="m81.817 262.48h4.234v1.767h-4.234z"/>
  </clipPath>
  <clipPath id="ad">
   <path d="m54.998 254.9h33.901v16.142h-33.901z"/>
  </clipPath>
  <clipPath id="ac">
   <path d="m75.715 260.54h3.1911v-3.191h-3.1911z"/>
  </clipPath>
  <linearGradient id="m" x2="1" gradientTransform="matrix(-2.3472 2.4306 2.4306 2.3472 78.516 257.69)" gradientUnits="userSpaceOnUse">
   <stop stop-color="#dc916b" offset="0"/>
   <stop stop-color="#b7907f" offset=".14607"/>
   <stop stop-color="#f0c2ab" offset=".52247"/>
   <stop stop-color="#b7907f" offset=".8764"/>
   <stop stop-color="#e1bfaf" offset="1"/>
  </linearGradient>
  <clipPath id="ab">
   <path d="m76.309 268.2h4.994v-8.106h-4.994z"/>
  </clipPath>
  <linearGradient id="l" x2="1" gradientTransform="matrix(2.855 8.2914 8.2914 -2.855 76.201 258.04)" gradientUnits="userSpaceOnUse">
   <stop stop-color="#dc916b" offset="0"/>
   <stop stop-color="#b7907f" offset=".14607"/>
   <stop stop-color="#f0c2ab" offset=".52247"/>
   <stop stop-color="#b7907f" offset=".8764"/>
   <stop stop-color="#e1bfaf" offset="1"/>
  </linearGradient>
  <clipPath id="aa">
   <path d="m70.125 268.54h4.7721v-4.772h-4.7721z"/>
  </clipPath>
  <linearGradient id="k" x2="1" gradientTransform="matrix(10.253 0 0 -10.253 70.033 263.16)" gradientUnits="userSpaceOnUse">
   <stop stop-color="#dc916b" offset="0"/>
   <stop stop-color="#b7907f" offset=".14607"/>
   <stop stop-color="#f0c2ab" offset=".52247"/>
   <stop stop-color="#b7907f" offset=".8764"/>
   <stop stop-color="#e1bfaf" offset="1"/>
  </linearGradient>
  <clipPath id="z">
   <path d="m74.519 268.24c-2.809-0.354-4.799-2.917-4.445-5.727 0.354-2.808 2.917-4.799 5.726-4.445s4.8 2.918 4.446 5.726c-0.327 2.592-2.534 4.486-5.08 4.486-0.213 0-0.429-0.013-0.647-0.04"/>
  </clipPath>
  <clipPath id="y">
   <path d="m70.044 266.22h6.4255v-6.426h-6.4255z"/>
  </clipPath>
  <linearGradient id="j" x2="1" gradientTransform="matrix(-3.0483 -5.4992 -5.4992 3.0483 74.876 265.93)" gradientUnits="userSpaceOnUse">
   <stop stop-color="#dc916b" offset="0"/>
   <stop stop-color="#b7907f" offset=".14607"/>
   <stop stop-color="#f0c2ab" offset=".52247"/>
   <stop stop-color="#b7907f" offset=".8764"/>
   <stop stop-color="#e1bfaf" offset="1"/>
  </linearGradient>
  <clipPath id="x">
   <path d="m70.125 268.54h4.7721v-4.772h-4.7721z"/>
  </clipPath>
  <clipPath id="w">
   <path d="m71.044 263.42h4.7722v-4.772h-4.7722z"/>
  </clipPath>
  <linearGradient id="i" x2="1" gradientTransform="matrix(-4.6699 3.5e-6 3.5e-6 4.6699 75.784 261.03)" gradientUnits="userSpaceOnUse">
   <stop stop-color="#dc916b" offset="0"/>
   <stop stop-color="#b7907f" offset=".14607"/>
   <stop stop-color="#f0c2ab" offset=".52247"/>
   <stop stop-color="#b7907f" offset=".8764"/>
   <stop stop-color="#e1bfaf" offset="1"/>
  </linearGradient>
  <clipPath id="v">
   <path d="m72.751 265.02h6.7106v-6.711h-6.7106z"/>
  </clipPath>
  <linearGradient id="h" x2="1" gradientTransform="matrix(6.7106 0 0 -6.7106 72.751 261.67)" gradientUnits="userSpaceOnUse">
   <stop stop-color="#dc916b" offset="0"/>
   <stop stop-color="#b7907f" offset=".14607"/>
   <stop stop-color="#f0c2ab" offset=".52247"/>
   <stop stop-color="#b7907f" offset=".8764"/>
   <stop stop-color="#e1bfaf" offset="1"/>
  </linearGradient>
  <clipPath id="u">
   <path d="m70.033 268.29h10.253v-10.254h-10.253z"/>
  </clipPath>
  <linearGradient id="g" x2="1" gradientTransform="matrix(10.172 1.2805 1.2805 -10.172 70.074 262.52)" gradientUnits="userSpaceOnUse">
   <stop stop-color="#dc916b" offset="0"/>
   <stop stop-color="#b7907f" offset=".14607"/>
   <stop stop-color="#f0c2ab" offset=".52247"/>
   <stop stop-color="#b7907f" offset=".8764"/>
   <stop stop-color="#e1bfaf" offset="1"/>
  </linearGradient>
  <clipPath id="t">
   <path d="m73.846 268.22h6.4454v-10.189h-6.4454z"/>
  </clipPath>
  <linearGradient id="f" x2="1" gradientTransform="matrix(3.0497 10.636 10.636 -3.0497 75.732 256.97)" gradientUnits="userSpaceOnUse">
   <stop stop-color="#dc916b" offset="0"/>
   <stop stop-color="#b7907f" offset=".14607"/>
   <stop stop-color="#f0c2ab" offset=".52247"/>
   <stop stop-color="#b7907f" offset=".8764"/>
   <stop stop-color="#e1bfaf" offset="1"/>
  </linearGradient>
  <clipPath id="s">
   <path d="m75.715 260.54h3.1911v-3.191h-3.1911z"/>
  </clipPath>
  <linearGradient id="e" x2="1" gradientTransform="matrix(3.1912 0 0 -3.1912 75.715 258.94)" gradientUnits="userSpaceOnUse">
   <stop stop-color="#dc916b" offset="0"/>
   <stop stop-color="#b7907f" offset=".14607"/>
   <stop stop-color="#f0c2ab" offset=".52247"/>
   <stop stop-color="#b7907f" offset=".8764"/>
   <stop stop-color="#e1bfaf" offset="1"/>
  </linearGradient>
  <clipPath id="r">
   <path d="m71.133 267.43h3.6339v-3.634h-3.6339z"/>
  </clipPath>
  <linearGradient id="d" x2="1" gradientTransform="matrix(-1.0606 3.6989 3.6989 1.0606 73.494 263.71)" gradientUnits="userSpaceOnUse">
   <stop stop-color="#dc916b" offset="0"/>
   <stop stop-color="#b7907f" offset=".14607"/>
   <stop stop-color="#f0c2ab" offset=".52247"/>
   <stop stop-color="#b7907f" offset=".8764"/>
   <stop stop-color="#e1bfaf" offset="1"/>
  </linearGradient>
  <clipPath id="q">
   <path d="m71.542 267.36h8.6634v-8.364h-8.6634z"/>
  </clipPath>
  <linearGradient id="c" x2="1" gradientTransform="matrix(-3.8691 -11.908 -12.333 3.7305 77.169 267.28)" gradientUnits="userSpaceOnUse">
   <stop stop-color="#dc916b" offset="0"/>
   <stop stop-color="#b7907f" offset=".14607"/>
   <stop stop-color="#f0c2ab" offset=".52247"/>
   <stop stop-color="#b7907f" offset=".8764"/>
   <stop stop-color="#e1bfaf" offset="1"/>
  </linearGradient>
  <filter id="n" x="-.021127" y="-.1216" width="1.0423" height="1.2432" color-interpolation-filters="sRGB">
   <feGaussianBlur stdDeviation="0.09408825"/>
  </filter>
  <linearGradient id="b" x2="1" gradientTransform="matrix(3.6794 -2.8747 -2.8747 -3.6794 70.656 267.6)" gradientUnits="userSpaceOnUse">
   <stop stop-color="#dc916b" offset="0"/>
   <stop stop-color="#b7907f" offset=".14607"/>
   <stop stop-color="#f0c2ab" offset=".52247"/>
   <stop stop-color="#b7907f" offset=".8764"/>
   <stop stop-color="#e1bfaf" offset="1"/>
  </linearGradient>
  <linearGradient id="a" x2="1" gradientTransform="matrix(7.6081 8.0357 8.0357 -7.6081 71.173 258.95)" gradientUnits="userSpaceOnUse">
   <stop stop-color="#dc916b" offset="0"/>
   <stop stop-color="#b7907f" offset=".14607"/>
   <stop stop-color="#f0c2ab" offset=".52247"/>
   <stop stop-color="#b7907f" offset=".8764"/>
   <stop stop-color="#e1bfaf" offset="1"/>
  </linearGradient>
 </defs>
 <g transform="translate(-267.9 3.3811)">
  <g transform="matrix(7.5035 0 0 -7.5035 -166.12 2011.6)" fill="#fff">
   <g transform="translate(59.821 264.25)">
    <path d="m0 0h0.338l-1.039-1.767h-0.34l-0.939 1.767h0.395l0.734-1.454z" fill="#fff"/>
   </g>
   <path d="m60.371 262.49h0.33v1.767h-0.33z"/>
   <g transform="translate(61.845 263.25)">
    <path d="m0 0h0.781l-0.366 0.736zm1.156-0.758-0.227 0.46h-1.097l-0.26-0.46h-0.403l1.056 1.767h0.403l0.916-1.767z" fill="#fff"/>
   </g>
   <g transform="translate(65.193 263.79)">
    <path d="m0 0c-0.133 0.105-0.488 0.198-0.791 0.198-0.275 0-0.513-0.083-0.513-0.273 0-0.321 1.462 0.025 1.462-0.651 0-0.33-0.326-0.636-0.926-0.636-0.601 0-0.891 0.206-0.999 0.321l0.223 0.248c0.247-0.206 0.52-0.263 0.768-0.263 0.255 0 0.578 0.065 0.578 0.28 0 0.421-1.479-0.025-1.479 0.701 0 0.355 0.405 0.578 0.926 0.578 0.443 0 0.774-0.14 0.931-0.248 0 0-0.112-0.165-0.18-0.255" fill="#fff"/>
   </g>
   <g transform="translate(66.204 263.25)">
    <path d="m0 0h0.781l-0.366 0.736zm1.156-0.758-0.227 0.46h-1.097l-0.26-0.46h-0.403l1.056 1.767h0.403l0.916-1.767z" fill="#fff"/>
   </g>
   <g transform="translate(69.352 263.95)">
    <path d="m0 0h-0.728v-1.459h-0.331v1.459h-0.708v0.298h1.767z" fill="#fff"/>
   </g>
  </g>
  <g transform="matrix(7.5035 0 0 -7.5035 -166.12 2011.6)">
   <g clip-path="url(#ad)">
    <g clip-path="url(#ac)" opacity=".25">
     <path d="m77.311 260.54c-0.066 0-0.132-4e-3 -0.2-0.012-0.804-0.102-1.393-0.787-1.396-1.578v-5e-3c0-0.066 5e-3 -0.132 0.013-0.2 0.101-0.806 0.788-1.396 1.58-1.396h2e-3c0.066 0 0.133 5e-3 0.2 0.013 0.875 0.109 1.494 0.908 1.383 1.782-0.102 0.807-0.787 1.396-1.58 1.396z" fill="url(#m)"/>
    </g>
    <g clip-path="url(#ab)" opacity=".25">
     <path d="m76.358 268.16c-0.016-2e-3 -0.033-4e-3 -0.049-7e-3 2.037-0.469 3.66-2.163 3.937-4.357 0.172-1.37-0.214-2.681-0.981-3.707 1.389 0.885 2.223 2.516 2.003 4.26-0.279 2.221-2.172 3.846-4.356 3.846-0.182 0-0.368-0.012-0.554-0.035" fill="url(#l)"/>
    </g>
    <g clip-path="url(#aa)" opacity=".25">
     <path d="m72.506 268.54c-0.096 0-0.195-6e-3 -0.293-0.019-1.202-0.151-2.081-1.172-2.088-2.35v-0.025c1e-3 -0.095 7e-3 -0.192 0.019-0.29 0.151-1.202 1.173-2.082 2.352-2.088h0.021c0.096 0 0.194 7e-3 0.292 0.019 1.203 0.151 2.083 1.174 2.088 2.353v0.02c0 0.096-6e-3 0.194-0.019 0.292-0.151 1.203-1.172 2.083-2.352 2.088z" fill="url(#b)"/>
    </g>
   </g>
   <path d="m74.519 268.24c-2.809-0.354-4.799-2.917-4.445-5.727 0.354-2.808 2.917-4.799 5.726-4.445s4.8 2.918 4.446 5.726c-0.327 2.592-2.534 4.486-5.08 4.486-0.213 0-0.429-0.013-0.647-0.04" fill="url(#k)"/>
   <path d="m75.166 268.28c-0.164 0-0.329-8e-3 -0.496-0.023-0.05-5e-3 -0.1-0.011-0.151-0.017-2.592-0.327-4.487-2.534-4.486-5.081 0-0.214 0.013-0.429 0.041-0.646 0.326-2.591 2.533-4.485 5.079-4.485h1e-3c0.213 0 0.429 0.012 0.646 0.04 2.593 0.326 4.487 2.535 4.486 5.082 0 0.213-0.013 0.428-0.04 0.644-1e-3 3e-3 -1e-3 5e-3 -1e-3 8e-3 -0.328 2.568-2.501 4.45-5.019 4.478h-0.06" fill="url(#a)"/>
   <path d="m75.166 268.28c-0.164 0-0.329-8e-3 -0.496-0.023-0.05-5e-3 -0.1-0.011-0.151-0.017-2.592-0.327-4.487-2.534-4.486-5.081 0-0.214 0.013-0.429 0.041-0.646 0.326-2.591 2.533-4.485 5.079-4.485h1e-3c0.213 0 0.429 0.012 0.646 0.04 2.593 0.326 4.487 2.535 4.486 5.082 0 0.213-0.013 0.428-0.04 0.644-1e-3 3e-3 -1e-3 5e-3 -1e-3 8e-3 -0.328 2.568-2.501 4.45-5.019 4.478h-0.06" fill="url(#a)"/>
   <g clip-path="url(#z)">
    <g clip-path="url(#y)" opacity=".64999">
     <path d="m73.229 266.22c-0.124-1e-3 -0.248-0.01-0.373-0.026-1.611-0.203-2.793-1.565-2.812-3.145v-0.077c2e-3 -0.121 0.01-0.243 0.026-0.366 0.202-1.611 1.565-2.793 3.143-2.811h0.072c0.124 0 0.248 9e-3 0.373 0.025 1.612 0.202 2.793 1.567 2.811 3.147v0.075c-1e-3 0.121-9e-3 0.243-0.025 0.366-0.202 1.611-1.566 2.793-3.144 2.812z" fill="url(#j)"/>
    </g>
    <g clip-path="url(#x)" opacity=".39999">
     <path d="m72.506 268.54c-0.096 0-0.195-6e-3 -0.293-0.019-1.202-0.151-2.081-1.172-2.088-2.35v-0.025c1e-3 -0.095 7e-3 -0.192 0.019-0.29 0.151-1.202 1.173-2.082 2.352-2.088h0.021c0.096 0 0.194 7e-3 0.292 0.019 1.203 0.151 2.083 1.174 2.088 2.353v0.02c0 0.096-6e-3 0.194-0.019 0.292-0.151 1.203-1.172 2.083-2.352 2.088z" fill="url(#b)"/>
    </g>
    <g clip-path="url(#w)" opacity=".42999">
     <path d="m73.131 263.4c-1.306-0.165-2.233-1.357-2.068-2.665 0.151-1.202 1.174-2.083 2.354-2.088h0.017c0.097 0 0.195 7e-3 0.294 0.019 1.307 0.165 2.233 1.358 2.069 2.666-0.152 1.206-1.179 2.087-2.364 2.087-0.1 0-0.201-6e-3 -0.302-0.019" fill="url(#i)"/>
    </g>
    <g clip-path="url(#v)" opacity=".39">
     <path d="m75.686 265c-1.837-0.231-3.141-1.909-2.908-3.748 0.211-1.677 1.626-2.908 3.268-2.935h0.113c0.12 1e-3 0.243 0.01 0.366 0.026 1.678 0.211 2.909 1.627 2.936 3.269v0.109c-2e-3 0.123-0.011 0.246-0.026 0.369-0.214 1.697-1.659 2.937-3.326 2.937-0.139 0-0.28-9e-3 -0.423-0.027" fill="url(#h)"/>
    </g>
    <g clip-path="url(#u)" opacity=".45">
     <path d="m75.121 268.28c-0.199-1e-3 -0.399-0.015-0.602-0.04-2.809-0.354-4.799-2.917-4.445-5.727 0.325-2.579 2.513-4.468 5.044-4.485h0.08c0.199 1e-3 0.399 0.015 0.602 0.04 2.58 0.325 4.47 2.517 4.486 5.047v0.064c-1e-3 0.203-0.014 0.409-0.04 0.615-0.325 2.579-2.513 4.468-5.043 4.486z" fill="url(#g)"/>
    </g>
    <g clip-path="url(#t)" opacity=".2">
     <path d="m78.23 264.39c0.366-2.91-1.567-5.581-4.383-6.184 0.62-0.165 1.282-0.217 1.959-0.133 2.58 0.325 4.47 2.517 4.486 5.048v0.064c-1e-3 0.203-0.015 0.408-0.041 0.615-0.291 2.316-2.086 4.074-4.281 4.422 1.205-0.88 2.059-2.234 2.26-3.832" fill="url(#f)"/>
    </g>
    <g clip-path="url(#s)" opacity=".35001">
     <path d="m77.311 260.54c-0.066 0-0.132-4e-3 -0.2-0.012-0.804-0.102-1.393-0.787-1.396-1.578v-5e-3c0-0.066 5e-3 -0.132 0.013-0.2 0.101-0.806 0.788-1.396 1.58-1.396h2e-3c0.066 0 0.133 5e-3 0.2 0.013 0.875 0.109 1.494 0.908 1.383 1.782-0.102 0.807-0.787 1.396-1.58 1.396z" fill="url(#e)"/>
    </g>
    <g clip-path="url(#r)" opacity=".39">
     <path d="m72.723 267.42c-0.996-0.125-1.701-1.034-1.576-2.029 0.115-0.91 0.884-1.578 1.776-1.59h0.044c0.069 1e-3 0.139 6e-3 0.209 0.015 0.996 0.125 1.701 1.034 1.576 2.028-0.115 0.919-0.898 1.591-1.801 1.591-0.074 0-0.152-5e-3 -0.228-0.015" fill="url(#d)"/>
    </g>
    <g clip-path="url(#q)" opacity=".39">
     <path d="m75.848 267.36c-1.91-0.012-4.326-0.956-4.305-4.209 0.014-2.309 1.965-4.17 4.358-4.154 2.373 0.014 4.289 1.87 4.304 4.154v0.054c-0.014 2.295-1.94 4.148-4.313 4.155z" fill="url(#c)"/>
    </g>
   </g>
   <g filter="url(#n)">
    <g transform="translate(74.625 263.98)">
     <path d="m0 0v-0.503h0.796c0.198 0 0.32 0.093 0.32 0.256 0 0.14-0.122 0.247-0.32 0.247zm-0.335-1.477v1.758h1.141c0.42 0 0.618-0.231 0.618-0.528 0-0.263-0.148-0.474-0.46-0.526l0.543-0.704h-0.421l-0.528 0.691h-0.558v-0.691z"/>
    </g>
    <g transform="translate(72.01 263.79)">
     <path d="m0 0c-0.132 0.105-0.486 0.197-0.788 0.197-0.274 0-0.511-0.082-0.511-0.272 0-0.319 1.456 0.025 1.456-0.648 0-0.329-0.324-0.633-0.922-0.633-0.599 0-0.888 0.204-0.995 0.319l0.222 0.247c0.247-0.205 0.518-0.262 0.765-0.262 0.254 0 0.576 0.065 0.576 0.279 0 0.419-1.473-0.025-1.473 0.698 0 0.354 0.404 0.576 0.922 0.576 0.441 0 0.77-0.14 0.928-0.247 0 0-0.113-0.164-0.18-0.254"/>
    </g>
    <g transform="translate(80.758 263.79)">
     <path d="m0 0c-0.132 0.105-0.486 0.197-0.788 0.197-0.274 0-0.511-0.082-0.511-0.272 0-0.319 1.456 0.025 1.456-0.648 0-0.329-0.324-0.633-0.922-0.633-0.599 0-0.888 0.204-0.995 0.319l0.222 0.247c0.247-0.205 0.518-0.262 0.765-0.262 0.254 0 0.576 0.065 0.576 0.279 0 0.419-1.473-0.025-1.473 0.698 0 0.354 0.404 0.576 0.922 0.576 0.441 0 0.77-0.14 0.928-0.247 0 0-0.113-0.164-0.18-0.254"/>
    </g>
    <path d="m76.756 262.5h-0.329v1.76h0.329z"/>
    <g transform="translate(73.997 263.97)">
     <path d="m0 0v0.297h-1.53v-1.762h1.53v0.297h-1.201v0.434h1.136v0.297h-1.136v0.437z"/>
    </g>
    <g transform="translate(78.75 263.97)">
     <path d="m0 0v0.297h-1.53v-1.762h1.53v0.297h-1.201v0.434h1.136v0.297h-1.136v0.437z"/>
    </g>
   </g>
   <g transform="translate(74.625 263.98)">
    <path d="m0 0v-0.503h0.796c0.198 0 0.32 0.093 0.32 0.256 0 0.14-0.122 0.247-0.32 0.247zm-0.335-1.477v1.758h1.141c0.42 0 0.618-0.231 0.618-0.528 0-0.263-0.148-0.474-0.46-0.526l0.543-0.704h-0.421l-0.528 0.691h-0.558v-0.691z" fill="#fff"/>
   </g>
   <g transform="translate(72.01 263.79)">
    <path d="m0 0c-0.132 0.105-0.486 0.197-0.788 0.197-0.274 0-0.511-0.082-0.511-0.272 0-0.319 1.456 0.025 1.456-0.648 0-0.329-0.324-0.633-0.922-0.633-0.599 0-0.888 0.204-0.995 0.319l0.222 0.247c0.247-0.205 0.518-0.262 0.765-0.262 0.254 0 0.576 0.065 0.576 0.279 0 0.419-1.473-0.025-1.473 0.698 0 0.354 0.404 0.576 0.922 0.576 0.441 0 0.77-0.14 0.928-0.247 0 0-0.113-0.164-0.18-0.254" fill="#fff"/>
   </g>
   <g transform="translate(80.758 263.79)">
    <path d="m0 0c-0.132 0.105-0.486 0.197-0.788 0.197-0.274 0-0.511-0.082-0.511-0.272 0-0.319 1.456 0.025 1.456-0.648 0-0.329-0.324-0.633-0.922-0.633-0.599 0-0.888 0.204-0.995 0.319l0.222 0.247c0.247-0.205 0.518-0.262 0.765-0.262 0.254 0 0.576 0.065 0.576 0.279 0 0.419-1.473-0.025-1.473 0.698 0 0.354 0.404 0.576 0.922 0.576 0.441 0 0.77-0.14 0.928-0.247 0 0-0.113-0.164-0.18-0.254" fill="#fff"/>
   </g>
   <path d="m76.756 262.5h-0.329v1.76h0.329z" fill="#fff"/>
   <g transform="translate(73.997 263.97)">
    <path d="m0 0v0.297h-1.53v-1.762h1.53v0.297h-1.201v0.434h1.136v0.297h-1.136v0.437z" fill="#fff"/>
   </g>
   <g transform="translate(78.75 263.97)">
    <path d="m0 0v0.297h-1.53v-1.762h1.53v0.297h-1.201v0.434h1.136v0.297h-1.136v0.437z" fill="#fff"/>
   </g>
  </g>
  <g transform="matrix(7.5035 0 0 -7.5035 -166.12 2011.6)">
   <g clip-path="url(#p)" opacity=".5">
    <g clip-path="url(#o)">
     <g transform="translate(83.724 264.25)">
      <path d="m0 0v-1.767h-0.338v0.708h-1.239v-0.708h-0.33v1.767h0.33v-0.761h1.239v0.761z" fill="#fcfefe"/>
     </g>
     <g transform="translate(85.72 263.38)">
      <path d="m0 0c0 0.471-0.36 0.571-0.701 0.571h-0.636v-1.172h0.636c0.341 0 0.701 0.123 0.701 0.601m0.33 0c0-0.501-0.33-0.898-0.963-0.898h-1.039v1.766h1.039c0.633 0 0.963-0.372 0.963-0.868" fill="#fcfefe"/>
     </g>
    </g>
   </g>
  </g>
 </g>
</svg>
