<svg id="a" width="800" height="332.72" version="1.1" viewBox="0 0 211.67 88.031" xmlns="http://www.w3.org/2000/svg">
 <g id="b" transform="translate(23.312 -63.423)">
  <g id="c" transform="matrix(5.9828 0 0 -5.9828 25.767 85.199)">
   <path id="d" d="m0 0c-0.036 0.952-0.304 1.743-0.803 2.383-0.035 0.045-0.07 0.09-0.108 0.135-1e-3 2e-3 -2e-3 3e-3 -4e-3 5e-3 -1e-3 1e-3 -2e-3 3e-3 -3e-3 4e-3 -0.128 0.153-0.271 0.302-0.416 0.44l-0.789-1.75-1.259-2.783-0.024-0.053h-1e-3l-0.521-4e-3 -0.772-6e-3 -1.071 2.433-0.878 1.993-0.112 0.254c-0.941-0.819-1.504-2.036-1.437-3.288 0.101-1.886 1.679-3.406 3.412-3.716 0.232-0.041 0.466-0.074 0.718-0.068 0.033 1e-3 0.073 3e-3 0.106 4e-3 0.048 2e-3 0.1 5e-3 0.148 8e-3 2.204 0.134 3.887 2.057 3.814 4.009" fill="#fff"/>
  </g>
  <g id="e" transform="matrix(5.9828 0 0 -5.9828 1.1142 63.422)">
   <path id="f" d="m0 0c-0.331 0-0.664-0.053-0.966-0.143l0.635-1.904 0.362-1.077 0.417 1.186 0.565 1.604 0.066 0.19c-0.301 0.09-0.748 0.144-1.079 0.144" fill="#fff"/>
  </g>
  <g id="g" transform="matrix(5.9828 0 0 -5.9828 131.15 83.471)">
   <path id="h" d="m0 0c-0.222 0.115-0.477 0.148-1.138 0.148h-0.865c-0.276 0-0.388 0.108-0.388 0.371v0.06c0 0.012 0 0.023 1e-3 0.034 0.012 0.237 0.13 0.338 0.387 0.338h0.942c0.126 0 0.221-0.023 0.284-0.075 2e-3 0-2e-3 0 0 0 5e-3 -4e-3 0.01-9e-3 0.015-0.013 0.047-0.049 0.072-0.119 0.078-0.208 0.111 8e-3 1.007 0.081 1.125 0.091-0.022 0.11-0.051 0.211-0.081 0.304-1e-3 -1e-3 1e-3 0 0 0-0.214 0.643-0.661 0.882-1.558 0.882h-0.686c-1.11 0-1.65-0.369-1.65-1.128v-0.517c0-0.402 0.16-0.701 0.453-0.843 0.222-0.115 0.477-0.148 1.138-0.148h0.865c0.275 0 0.388-0.108 0.388-0.371v-0.06c0-0.265-0.116-0.379-0.388-0.379h-0.942c-0.142 0-0.237 0.03-0.299 0.095-0.048 0.049-0.073 0.119-0.079 0.211-0.106-5e-3 -1.009-0.041-1.127-0.046 0.137-0.908 0.588-1.249 1.641-1.249h0.686c1.111 0 1.651 0.371 1.651 1.138v0.521c0 0.402-0.161 0.702-0.453 0.844m9.562 1.894h-4.39v-1.048h1.578v-3.333h1.232v3.333h1.58zm-16.44-3.087 0.566 1.504 0.566-1.504zm1 3.086h-0.876l-1.893-4.398h1.277l0.185 0.495h1.746l0.185-0.495h1.269zm8.499-3.086 0.565 1.51 0.567-1.51zm0.999 3.086h-0.875l-1.893-4.398h1.276l0.186 0.495h1.745l0.186-0.495h1.269zm-17.397-2.821-1.058 2.822h-1.278l1.891-4.399h0.878l1.894 4.399h-1.269zm3.123-1.559h1.231v4.381h-1.231z" fill="#fff"/>
  </g>
  <g id="i" transform="matrix(5.9828 0 0 -5.9828 -1888.8 2093.7)">
   <path id="j" d="m329.13 324.64h16.491v5.596h-16.491z" fill="#2393d9"/>
   <path id="k" d="m313.28 324.64h15.845v5.596h-15.845z" fill="#841b8f"/>
  </g>
  <g id="l" transform="translate(19.496)">
   <g id="m" transform="matrix(5.9828 0 0 -5.9828 11.691 143.17)">
    <path id="n" d="m0 0c-0.145-0.153-0.34-0.23-0.608-0.23-0.247 0-0.451 0.09-0.596 0.243l0.332 0.319c0.051-0.073 0.153-0.132 0.264-0.132 0.195 0 0.34 0.136 0.34 0.395v2.237h0.476v-2.237c0-0.242-0.068-0.45-0.208-0.595" fill="#fff"/>
   </g>
   <path id="o" d="m25.166 124.89h2.5427v2.5427h-2.5427zm-2.3034 5.7196-1.5555 7.5803h3.1051zm-4.8281-5.7196h2.5427v2.5427h-2.5427zm7.652 19.456-0.74187-3.5897h-4.194l-0.71196 3.5897h-3.0034l4.4512-18.116h2.776l4.3974 18.116z" fill="#fff"/>
   <path id="p" d="m39.621 124.89h2.5427v2.5427h-2.5427zm-2.3094 5.7196-1.5496 7.5803h3.1051zm-4.8222-5.7196h2.5427v2.5427h-2.5427zm7.6461 19.456-0.73589-3.5897h-4.2l-0.71196 3.5897h-3.0034l4.4572-18.116h2.7701l4.4034 18.116z" fill="#fff"/>
   <g id="q" transform="matrix(5.9828 0 0 -5.9828 54.488 144.34)">
    <path id="r" d="m0 0-0.489 1.246-0.23-0.468v-0.778h-0.476v3.028h0.476v-1.425l0.659 1.425h0.481l-0.608-1.255 0.701-1.773z" fill="#fff"/>
   </g>
   <path id="s" d="m61.817 126.23h2.8478v18.116h-2.8478z" fill="#fff"/>
   <g id="t" transform="matrix(5.9828 0 0 -5.9828 70.264 144.34)">
    <path id="u" d="m0 0v3.028h1.272v-0.43h-0.796v-0.859h0.685v-0.429h-0.685v-0.88h0.796v-0.43z" fill="#fff"/>
   </g>
   <g id="v" transform="matrix(5.9828 0 0 -5.9828 90.035 144.34)">
    <path id="w" d="m0 0-0.489 1.246-0.23-0.468v-0.778h-0.476v3.028h0.476v-1.425l0.659 1.425h0.481l-0.608-1.255 0.701-1.773z" fill="#fff"/>
   </g>
   <g id="x" transform="matrix(5.9828 0 0 -5.9828 104.51 144.34)">
    <path id="y" d="m0 0-0.489 1.246-0.23-0.468v-0.778h-0.476v3.028h0.476v-1.425l0.659 1.425h0.481l-0.608-1.255 0.701-1.773z" fill="#fff"/>
   </g>
   <g id="z" transform="matrix(5.9828 0 0 -5.9828 117.57 129.28)">
    <path id="aa" d="m0 0c-0.042 0.068-0.115 0.115-0.23 0.115s-0.183-0.047-0.225-0.115c-0.089-0.144-0.106-0.451-0.106-1.004 0-0.552 0.017-0.858 0.106-1.003 0.042-0.068 0.11-0.115 0.225-0.115s0.188 0.047 0.23 0.115c0.089 0.145 0.102 0.451 0.102 1.003 0 0.553-0.013 0.86-0.102 1.004m0.357-2.296c-0.127-0.145-0.298-0.255-0.587-0.255s-0.459 0.11-0.586 0.255c-0.226 0.255-0.221 0.697-0.221 1.292 0 0.596-5e-3 1.038 0.221 1.293 0.127 0.145 0.297 0.255 0.586 0.255s0.46-0.11 0.587-0.255c0.226-0.255 0.221-0.697 0.221-1.293 0-0.595 5e-3 -1.037-0.221-1.292" fill="#fff"/>
   </g>
  </g>
 </g>
</svg>
