<svg id="c" width="800" height="332.72" version="1.1" viewBox="0 0 211.67 88.032" xmlns="http://www.w3.org/2000/svg">
 <defs id="d">
  <clipPath id="a">
   <path id="e" d="m232.33 324.69h35.799v14.863h-35.799z"/>
  </clipPath>
  <clipPath id="b">
   <path id="f" d="m232.33 324.69h35.799v14.863h-35.799z"/>
  </clipPath>
 </defs>
 <g id="g" transform="translate(23.312 -63.423)">
  <g id="h" transform="matrix(5.9229 0 0 -5.9229 -1399.8 2074.6)">
   <g id="i" clip-path="url(#b)">
    <g id="j" transform="translate(240.68 335.88)">
     <path id="k" d="m0 0c-0.036 0.962-0.307 1.761-0.811 2.407-0.035 0.045-0.071 0.091-0.109 0.137-1e-3 1e-3 -2e-3 3e-3 -4e-3 5e-3 -1e-3 1e-3 -2e-3 2e-3 -3e-3 4e-3 -0.13 0.154-0.274 0.305-0.421 0.444l-0.797-1.767-1.272-2.811-0.024-0.054v-1e-3l-0.527-3e-3 -0.779-7e-3 -1.083 2.458-0.886 2.013-0.113 0.257c-0.951-0.828-1.52-2.057-1.452-3.321 0.103-1.906 1.696-3.441 3.447-3.754 0.234-0.042 0.47-0.075 0.725-0.069 0.034 1e-3 0.073 3e-3 0.107 4e-3 0.049 2e-3 0.101 5e-3 0.149 8e-3 2.227 0.135 3.926 2.078 3.853 4.05" fill="#fff"/>
    </g>
    <g id="l" transform="translate(236.52 339.55)">
     <path id="m" d="m0 0c-0.334 0-0.671-0.054-0.975-0.145l0.641-1.922 0.365-1.088 0.422 1.198 0.57 1.619 0.067 0.192c-0.304 0.092-0.756 0.146-1.09 0.146" fill="#fff"/>
    </g>
    <g id="n" transform="translate(258.47 336.17)">
     <path id="o" d="m0 0c-0.224 0.116-0.482 0.149-1.149 0.149h-0.874c-0.279 0-0.392 0.109-0.392 0.375v0.061c0 0.012 0 0.023 1e-3 0.034 0.012 0.239 0.131 0.342 0.391 0.342h0.951c0.128 0 0.224-0.024 0.287-0.076 2e-3 0-2e-3 0 0 0 5e-3 -4e-3 0.01-9e-3 0.015-0.014 0.048-0.049 0.073-0.119 0.079-0.21 0.112 9e-3 1.017 0.083 1.136 0.093-0.022 0.111-0.051 0.212-0.081 0.306-2e-3 0 1e-3 0 0 0-0.217 0.65-0.668 0.892-1.574 0.892h-0.693c-1.122 0-1.667-0.373-1.667-1.14v-0.522c0-0.406 0.162-0.708 0.458-0.852 0.224-0.116 0.481-0.15 1.149-0.15h0.874c0.278 0 0.392-0.108 0.392-0.373v-0.062c0-0.268-0.117-0.382-0.392-0.382h-0.951c-0.143 0-0.239 0.03-0.303 0.096-0.048 0.05-0.073 0.12-0.079 0.213-0.107-5e-3 -1.019-0.042-1.138-0.047 0.138-0.917 0.593-1.261 1.657-1.261h0.693c1.123 0 1.668 0.375 1.668 1.149v0.527c0 0.406-0.163 0.708-0.458 0.852m9.658 1.913h-4.434v-1.058h1.594v-3.367h1.244v3.367h1.596zm-16.605-3.118 0.571 1.519 0.572-1.519zm1.009 3.117h-0.884l-1.913-4.442h1.291l0.187 0.499h1.763l0.187-0.499h1.282zm8.585-3.117 0.572 1.525 0.572-1.525zm1.01 3.117h-0.884l-1.913-4.442h1.29l0.187 0.499h1.763l0.188-0.499h1.281zm-17.574-2.849-1.068 2.85h-1.29l1.91-4.443h0.886l1.913 4.443h-1.282zm3.156-1.575h1.243v4.425h-1.243z" fill="#fff"/>
    </g>
   </g>
  </g>
  <g id="p">
   <path id="q" d="m80.575 151.45h98.403v-33.476h-98.403z" fill="#66c430"/>
   <path id="r" d="m-14.476 151.45h95.051v-33.476h-95.051z" fill="#292c84"/>
  </g>
  <g id="s" transform="translate(18.04)">
   <g id="t" transform="matrix(5.9229 0 0 -5.9229 -1399.8 2074.6)" clip-path="url(#a)">
    <g id="u" transform="translate(241.2 326.22)">
     <path id="v" d="m0 0c-0.146-0.15-0.339-0.223-0.567-0.223s-0.425 0.073-0.571 0.223c-0.133 0.137-0.211 0.331-0.211 0.563v2.306h0.481v-2.332c0-0.219 0.138-0.327 0.301-0.327s0.296 0.108 0.296 0.327v2.332h0.481v-2.306c0-0.232-0.077-0.426-0.21-0.563" fill="#fff"/>
    </g>
    <g id="w" transform="translate(243.11 328.66)">
     <path id="x" d="m0 0h-0.296v-0.936h0.296c0.258 0 0.296 0.214 0.296 0.468 0 0.253-0.038 0.468-0.296 0.468m0.374-2.624-0.4 1.254h-0.27v-1.254h-0.481v3.058h0.773c0.558 0 0.781-0.271 0.781-0.902 0-0.378-0.077-0.649-0.356-0.799l0.455-1.357z" fill="#fff"/>
    </g>
    <g id="y" transform="translate(245.9 326.04)">
     <path id="z" d="m0 0v1.34h-0.597v-1.34h-0.481v3.058h0.481v-1.288h0.597v1.288h0.481v-3.058z" fill="#fff"/>
    </g>
    <g id="aa" transform="translate(247.32 326.04)">
     <path id="ab" d="m0 0v3.058h1.284v-0.433h-0.803v-0.868h0.692v-0.434h-0.692v-0.889h0.803v-0.434z" fill="#fff"/>
    </g>
    <path id="ac" d="m249.45 329.09h0.481v-3.058h-0.481z" fill="#fff"/>
    <g id="ad" transform="translate(250.88 326.04)">
     <path id="ae" d="m0 0v3.058h0.481v-2.624h0.803v-0.434z" fill="#fff"/>
    </g>
    <g id="af" transform="translate(254.28 326.22)">
     <path id="ag" d="m0 0c-0.146-0.15-0.339-0.223-0.567-0.223s-0.425 0.073-0.571 0.223c-0.133 0.137-0.211 0.331-0.211 0.563v2.306h0.481v-2.332c0-0.219 0.138-0.327 0.301-0.327s0.296 0.108 0.296 0.327v2.332h0.481v-2.306c0-0.232-0.077-0.426-0.21-0.563" fill="#fff"/>
    </g>
   </g>
  </g>
 </g>
</svg>
