<?xml version="1.0" encoding="UTF-8"?>
<svg id="svg31" width="1300" height="860.62" version="1.1" viewBox="0 0 343.96 227.7" xmlns="http://www.w3.org/2000/svg" xmlns:cc="http://creativecommons.org/ns#" xmlns:dc="http://purl.org/dc/elements/1.1/" xmlns:rdf="http://www.w3.org/1999/02/22-rdf-syntax-ns#">
 <metadata id="metadata35">
  <rdf:RDF>
   <cc:Work rdf:about="">
    <dc:format>image/svg+xml</dc:format>
    <dc:type rdf:resource="http://purl.org/dc/dcmitype/StillImage"/>
    <dc:title/>
   </cc:Work>
  </rdf:RDF>
 </metadata>
 <defs id="defs7">
  <linearGradient id="a" x2="1" gradientTransform="matrix(143.78,-171.34,171.34,143.78,4.47,182.65)" gradientUnits="userSpaceOnUse">
   <stop id="stop2" stop-color="#526123" offset="0"/>
   <stop id="stop4" stop-color="#becd0b" offset="1"/>
  </linearGradient>
 </defs>
 <g id="g29" transform="translate(3.0238 -17.596)" stroke-width=".26459">
  <path id="path9" d="m103.11 17.595v52.664l12.88 33.151-12.88-15.983v0.249l-56.477-70.082h-49.651v158.75h52.621v-73.26l58.967 73.26h47.15v-158.75h-52.61z" fill="url(#a)"/>
  <path id="path11" d="m-3.0208 182.54h158.75v30.92h-158.75l0.0012-30.92z" fill="#9d9d9c"/>
  <path id="path13" d="m90.227 196.78c-0.93-0.48-2.01-0.63-4.82-0.63h-3.661c-1.17 0-1.65-0.47-1.65-1.58v-0.23c0-0.06 0-0.11 0.01-0.16 0.05-1 0.55-1.44 1.64-1.44h3.991c0.53 0 0.94 0.11 1.2 0.32 0.03 0.02 0.05 0.05 0.06 0.06 0.21 0.21 0.32 0.5 0.34 0.88 0.47-0.03 4.25-0.34 4.76-0.38-0.1-0.47-0.21-0.91-0.33-1.29-0.92-2.72-2.81-3.74-6.61-3.74h-2.911c-4.69 0-6.99 1.56-6.99 4.78v2.2c0 1.69 0.69 2.96 1.93 3.56 0.94 0.5 2.02 0.63 4.81 0.63h3.671c1.17 0 1.65 0.46 1.65 1.57v0.26c0 1.11-0.49 1.61-1.65 1.61h-3.991c-0.6 0-1.01-0.13-1.27-0.41-0.19-0.22-0.31-0.51-0.32-0.91-0.46 0.03-4.29 0.19-4.79 0.21 0.57 3.84 2.49 5.29 6.95 5.29h2.911c4.71 0 6.99-1.58 6.99-4.83v-2.2c0-1.7-0.67-2.97-1.92-3.57m40.513-8.03h-18.6v4.45h6.68v14.11h5.22v-14.11h6.7zm-69.646 13.09 2.4-6.39 2.401 6.39zm4.231-13.09h-3.701l-8.031 18.64h5.411l0.79-2.1h7.401l0.78 2.1h5.36zm36.025 13.09 2.38-6.41 2.4 6.41zm4.22-13.09h-3.7l-8.032 18.64h5.41l0.782-2.1h7.4l0.79 2.1h5.37zm-73.703 11.95-4.49-11.95h-5.41l8.014 18.64h3.714l8.027-18.64h-5.381l-4.473 11.95zm13.235 6.61h5.221v-18.56h-5.221z" fill="#fff"/>
  <g id="g27" fill="#526023">
   <path id="path15" d="m-3.0238 219.62h5.1335l11.846 15.57v-15.57h5.484v25.28h-4.724l-12.255-16.07v16.07h-5.4838v-25.28z"/>
   <path id="path17" d="m41.852 234.36-3.37-8.2-3.361 8.2zm-5.871-14.93h5.151l10.841 25.48h-5.821l-2.31-5.68h-10.695l-2.325 5.68h-5.66z"/>
   <path id="path19" d="m60.304 224.75h-7.691v-5.13h20.942v5.13h-7.69v20.15h-5.561z"/>
   <path id="path21" d="m90.187 245.3c-3.39 0-6.07-0.93-8.031-2.83-1.94-1.89-2.92-4.68-2.92-8.4v-14.44h5.571v14.3c0 2.07 0.48 3.64 1.45 4.66 0.95 1.06 2.29 1.58 4 1.58s3.051-0.5 4.011-1.5c0.97-1.03 1.45-2.53 1.45-4.57v-14.47h5.572v14.25c0 1.92-0.26 3.59-0.78 5.02-0.522 1.43-1.272 2.62-2.222 3.57-0.98 0.95-2.13 1.66-3.49 2.13s-2.901 0.7-4.611 0.7"/>
   <path id="path23" d="m119.96 231.94c1.37 0 2.42-0.33 3.16-0.98 0.74-0.66 1.11-1.53 1.11-2.62v-0.07c0-1.2-0.4-2.12-1.17-2.72-0.76-0.6-1.83-0.91-3.21-0.91h-5.52v7.3zm-11.2-12.33h11.56c3.2 0 5.66 0.87 7.37 2.58 1.43 1.45 2.17 3.38 2.17 5.77v0.08c0 2.04-0.5 3.71-1.5 5.01-1 1.27-2.31 2.23-3.91 2.82l6.17 9.04h-6.51l-5.41-8.1h-4.37v8.1h-5.57z"/>
   <path id="path25" d="m136.51 219.62h19.04v4.94h-13.56v5.15h11.93v4.94h-11.93v5.31h13.73v4.94h-19.21z"/>
  </g>
 </g>
 <g id="g907" transform="matrix(6.0449 0 0 6.0449 -1543.5 -166.1)">
  <g id="g889">
   <path id="rect4220" d="m290.81 30.33 0.2067 0.46869c0.24811 0.55547 0.62071 1.2746 0.8516 1.6293 0.0414 0.07027 0.0791 0.13413 0.0791 0.14417 0 0.08031 0.8237 1.2748 1.313 1.9073 0.84428 1.0875 1.2957 1.6061 2.3605 2.7103 1.2164 1.2582 2.0157 1.8874 3.4596 2.7206 0.54793 0.31455 1.8506 0.94704 2.5811 1.2516 0.3136 0.1305 0.59304 0.24757 0.62061 0.26096 0.0586 0.03012 0.5234 0.21752 1.2092 0.48523 0.2171 0.087 0.57936 0.23106 0.79991 0.3214 0.22055 0.09035 0.40996 0.16381 0.42374 0.16381 0.0103 0 0.1102 0.03997 0.21703 0.08681 0.2171 0.09704 0.28235 0.12411 0.67178 0.28473 0.14818 0.06023 0.27939 0.12355 0.28626 0.13694 0.0241 0.03681-0.0587 0.04681-0.81334 0.12712-0.66509 0.07027-0.80298 0.08694-1.4474 0.19068-1.1338 0.17735-2.357 0.48528-3.0876 0.77305-1.468 0.57891-2.1708 0.97378-3.3148 1.8639-0.35839 0.27775-1.4234 1.3521-1.6991 1.7068-0.22054 0.28778-0.58237 0.82668-0.58237 0.8702 0 0.0067-0.0449 0.08662-0.0966 0.17363-0.11028 0.18404-0.38271 0.80308-0.48264 1.0976-0.3446 1.0072-0.40622 2.1417-0.16845 2.9817 0.12405 0.43168 0.53763 1.1046 0.94769 1.5363 0.53068 0.56216 1.4644 1.2912 2.0572 1.6091 0.0379 0.02008 0.20992 0.11379 0.37876 0.21083 0.17231 0.09704 0.4657 0.2476 0.65524 0.33794 0.46867 0.22085 1.0886 0.50226 1.1058 0.50226 7e-3 0 0.23451 0.08333 0.50329 0.18706 0.27225 0.10373 0.64244 0.23015 0.81645 0.28783l0.37773 0.14056h11.207v-27.169l-0.0486 0.08061c-0.0265 0.03528-0.14672 0.21702-0.27076 0.42115-0.60651 0.9972-0.95501 1.7036-1.2686 2.577-0.0724 0.20078-0.21356 0.58545-0.31006 0.85314-0.8506 2.3479-0.94383 5.1372-1.0304 7.7366-0.0172 0.42162-0.041 0.7762-0.0548 0.78959-0.031 0.03346-0.13824-0.10021-0.39324-0.50176-0.12405-0.18739-0.38558-0.58216-0.58547-0.8733-0.19987-0.29447-0.38945-0.56883-0.41702-0.61235-0.64096-0.97712-2.95-3.9387-3.7908-4.8523-0.0862-0.09035-0.21718-0.24088-0.29299-0.33124-0.28946-0.34466-1.2266-1.3554-1.7022-1.8406-1.0786-1.0942-2.2157-2.1617-3.0772-2.8912-0.3377-0.28444-0.55343-0.51086-0.5927-0.5555h-7.6022z" fill="#fff" stroke-width=".26457"/>
  </g>
  <g id="g4146" transform="matrix(.33339 0 0 .33339 285.86 30.25)">
   <path id="path18" d="m4.192 90.463c0.62785 0 1.0879-0.30987 1.0879-1.1626 0-0.92022-0.8717-1.0394-1.4447-1.0394h-0.77014v2.2019h1.127zm-3.8312 5.3957v-9.9157h3.9805c2.3767 0 3.521 1.3052 3.521 3.344 0 2.1397-1.0542 3.4872-3.4303 3.4872h-1.3665v3.084h-2.7047z"/>
   <polygon id="polygon20" transform="matrix(.54312 0 0 .58687 -3.8337 -15.062)" points="34.786 185.07 34.786 189 22.947 189 22.947 172.11 27.93 172.11 27.93 185.07"/>
   <path id="path22" d="m19.614 88.931-0.83694 3.5517h1.7086l-0.8717-3.5517zm-4.308 6.9274 2.9622-9.9157h2.7455l2.9605 9.9157h-2.6966l-0.32315-1.3034h-2.6863l-0.31501 1.3034h-2.6472z"/>
   <polygon id="polygon24" transform="matrix(.54312 0 0 .58687 -3.8337 -15.062)" points="55.105 172.11 57.728 177.83 60.35 172.11 65.834 172.11 60.174 182.76 60.174 189 55.196 189 55.196 182.84 49.54 172.11"/>
   <path id="path26" d="m36.119 91.714c0.85813 0 1.493 0.0522 1.493 0.92431 0 0.74063-0.50565 0.91317-1.1715 0.91317h-1.1791v-1.8375h0.85758zm0.09396-3.4525c0.5681 0 1.0993 8e-3 1.0993 0.78055 0 0.58216-0.38833 0.86503-0.92819 0.86503h-1.1226v-1.6456h0.95154zm0.36334 7.5976c2.1442 0 3.5618-0.76939 3.5618-2.9889 0-1.071-0.485-1.9994-1.3817-2.2741 0.52628-0.39847 1.0813-1.1414 1.0813-2.1573 0-1.973-1.4767-2.4954-3.3347-2.4954h-3.9468v9.9157h4.0202z"/>
   <path id="path28" d="m45.168 88.107c1.1889-0.044 1.6549 1.3909 1.6549 2.7448 0 1.6344-0.46545 2.8463-1.6375 2.8463-1.2937 0-1.6076-1.5787-1.6076-2.8463 0-1.2594 0.36606-2.7448 1.5902-2.7448m0.01738-2.4238c-2.5597 0-4.3151 2.0224-4.3151 5.1327 0 3.3756 1.7315 5.3076 4.3151 5.3076 2.45 0 4.3401-1.8991 4.3401-5.2718 0-2.6286-1.385-5.1685-4.3401-5.1685"/>
   <polygon id="polygon30" transform="matrix(.54312 0 0 .58687 -3.8337 -15.062)" points="104.28 172.11 106.9 177.83 109.51 172.11 115.02 172.11 109.35 182.76 109.35 189 104.37 189 104.37 182.84 98.707 172.11"/>
   <polygon id="polygon32" transform="matrix(.54312 0 0 .58687 -3.8337 -15.062)" points="132.12 189 127.12 189 127.12 176.54 122.64 176.54 122.64 172.11 136.58 172.11 136.58 176.54 132.12 176.54"/>
   <polygon id="polygon34" transform="matrix(.54312 0 0 .58687 -3.8337 -15.062)" points="147.74 172.11 152.76 172.11 147.48 189 142.49 189 137.29 172.11 142.3 172.11 144.97 183.35"/>
  </g>
  <g id="g4165" transform="matrix(.33072 0 0 .33072 285.98 30.33)">
   <path id="path8" d="m-3.0518e-6 3.6298e-5v82.15h45.52l-1.1413-0.42504c-0.52621-0.17439-1.6464-0.5565-2.4695-0.87017-0.81276-0.31367-1.5005-0.56662-1.5213-0.56662-0.0521 0-1.9277-0.84993-3.3448-1.5177-0.5731-0.27319-1.4588-0.72851-1.9798-1.0219-0.51058-0.29343-1.0316-0.57674-1.1462-0.63745-1.7922-0.96124-4.616-3.167-6.2207-4.8669-1.24-1.3053-2.4904-3.339-2.8655-4.6443-0.71898-2.5397-0.53142-5.9698 0.51058-9.0154 0.30218-0.89041 1.1254-2.7623 1.4588-3.3188 0.1563-0.26307 0.29176-0.50591 0.29176-0.52615 0-0.13154 1.0941-1.7606 1.761-2.6307 0.8336-1.0725 4.0534-4.3205 5.137-5.1603 3.4594-2.6915 5.5851-3.8854 10.024-5.6359 2.209-0.87017 5.9081-1.801 9.3363-2.3373 1.9485-0.31367 2.3653-0.36426 4.3764-0.57674 2.282-0.24284 2.5321-0.27319 2.4591-0.38449-0.02084-0.04047-0.4168-0.23272-0.86486-0.41485-1.1775-0.48568-1.3754-0.56662-2.0319-0.86005-0.32302-0.14166-0.6252-0.26307-0.65646-0.26307-0.04168 0-0.61478-0.2226-1.2817-0.4958s-1.761-0.70828-2.4174-0.97135c-2.0736-0.80946-3.4803-1.3761-3.6574-1.4671-0.08336-0.04047-0.92738-0.39461-1.8756-0.78922-2.209-0.92076-6.1478-2.8331-7.8046-3.7842-4.366-2.5194-6.7834-4.4217-10.462-8.2261-3.2198-3.339-4.5848-4.9074-7.1377-8.1958-1.4796-1.9124-3.97-5.5246-3.97-5.7674 0-0.030355-0.11462-0.2226-0.23966-0.43509-0.69814-1.0725-1.8235-3.248-2.5737-4.9276l-0.6252-1.4167z"/>
   <path id="path10" d="m37.574-3.0518e-6c0.11874 0.13497 0.77108 0.81975 1.7922 1.6798 2.605 2.2058 6.0436 5.4335 9.305 8.7422 1.438 1.4671 4.2722 4.5229 5.1475 5.565 0.22924 0.27319 0.6252 0.72852 0.8857 1.0017 2.5425 2.7623 9.5239 11.717 11.462 14.671 0.08336 0.13154 0.65646 0.96124 1.2608 1.8516 0.60436 0.88029 1.3963 2.0742 1.7714 2.6409 0.77108 1.2142 1.0941 1.6189 1.1879 1.5177 0.04168-0.04047 0.11462-1.113 0.16672-2.3879 0.26173-7.8598 0.54354-16.294 3.1156-23.393 0.29176-0.80946 0.71898-1.9731 0.9378-2.5802 0.94822-2.6409 2.0006-4.7758 3.8345-7.7911 0.37512-0.61721 0.73904-1.1682 0.81927-1.2749l0.1472-0.24301z"/>
   <path id="path12" d="m42.982 47.849c-2.0736 0.31367-3.6157 1.7403-4.168 3.8551-0.66688 2.5397 0.97948 5.4639 3.5636 6.334 0.8336 0.27319 2.4695 0.27319 3.3031-0.02024 1.5734-0.52615 2.6884-1.4267 3.2615-2.6206 1.7089-3.5313-0.08336-6.931-3.9804-7.5482-0.96906-0.16189-0.89612-0.16189-1.9798 0z"/>
  </g>
 </g>
</svg>
