<?xml version="1.0" encoding="UTF-8"?>
<!-- Created with Inkscape (http://www.inkscape.org/) -->
<svg id="svg43438" width="211.67mm" height="70.228mm" version="1.1" viewBox="0 0 211.67 70.228" xmlns="http://www.w3.org/2000/svg" xmlns:cc="http://creativecommons.org/ns#" xmlns:dc="http://purl.org/dc/elements/1.1/" xmlns:rdf="http://www.w3.org/1999/02/22-rdf-syntax-ns#">
 <defs id="defs43432">
  <clipPath id="clipPath164">
   <path id="path162" d="m86.47 62.221c0-11.247 9.118-20.364 20.366-20.364s20.366 9.117 20.366 20.364c0 11.249-9.118 20.365-20.366 20.365s-20.366-9.116-20.366-20.365"/>
  </clipPath>
  <clipPath id="clipPath174">
   <path id="path172" d="m86.47 82.586h40.732v-40.729h-40.732z"/>
  </clipPath>
  <radialGradient id="radialGradient188" cx="0" cy="0" r="1" gradientTransform="matrix(20.365 0 0 -20.365 106.84 62.221)" gradientUnits="userSpaceOnUse">
   <stop id="stop176" stop-color="#fff" offset="0"/>
   <stop id="stop178" stop-color="#fff" offset=".3427"/>
   <stop id="stop180" stop-color="#fff" offset=".47184"/>
   <stop id="stop182" stop-color="#f8f7ef" offset=".56044"/>
   <stop id="stop184" stop-color="#f8f7ef" offset=".64512"/>
   <stop id="stop186" stop-color="#a1a3a0" offset="1"/>
  </radialGradient>
  <clipPath id="clipPath410">
   <path id="path408" d="m85.01 62.221c0-1.609 0.267-3.177 0.723-4.67 0.599-1.732 1.434-3.02 2.964-3.602 2.333-0.89 4.141-0.906 5.366-0.948 1.14-0.041 2.343 3e-3 3.52 0.121 3.71 0.375 7.433 1.219 10.962 2.436 0.787 0.273 2.044 0.739 3.323 1.331 1.28 0.583 2.59 1.315 3.419 1.984 0.373 0.288 0.632 0.568 0.772 0.748-0.041 0.044-0.091 0.094-0.153 0.152-0.789 0.726-2.063 1.402-3.582 1.947-1.517 0.551-3.242 0.983-4.892 1.41-5.249 1.363-7.551 1.774-12.999 2.763 0 0-3.616 0.56-3.592 0.627 2.422 6.991 13.321 13.827 26.876 14.61-3.208 1.853-6.911 2.917-10.882 2.917-12.053 0-21.825-9.772-21.825-21.826m34.59 13.012c-4.748 0-9.483-0.936-13.455-2.47-1.652-0.632-3.169-1.375-4.498-2.18 2.208-0.449 4.333-0.938 7.279-1.705 1.602-0.419 3.506-0.883 5.422-1.575 1.912-0.7 3.874-1.62 5.554-3.138 1.264-1.116 2.215-2.739 2.2-4.506 1e-3 -0.944-0.26-1.819-0.626-2.539-0.367-0.727-0.835-1.324-1.334-1.848-1.006-1.044-2.167-1.834-3.358-2.527-2.372-1.371-4.901-2.313-6.3-2.8-3.949-1.36-8.104-2.306-12.304-2.73-1.29-0.131-2.672-0.234-4.106-0.234-0.991 2e-3 -2.011 0.059-3.04 0.194 3.975-4.174 9.582-6.779 15.801-6.779 12.053 0 21.825 9.772 21.825 21.825 0 4.758-1.528 9.157-4.112 12.743l-2.252 0.17c-0.89 0.065-1.782 0.099-2.672 0.099z"/>
  </clipPath>
  <clipPath id="clipPath420">
   <path id="path418" d="m85.01 84.047h43.65v-43.65h-43.65z"/>
  </clipPath>
  <radialGradient id="radialGradient428" cx="0" cy="0" r="1" gradientTransform="matrix(24.05 0 0 -24.05 107.49 54.135)" gradientUnits="userSpaceOnUse">
   <stop id="stop422" stop-color="#ffce0d" offset="0"/>
   <stop id="stop424" stop-color="#ffce0d" offset=".062063"/>
   <stop id="stop426" stop-color="#514218" offset="1"/>
  </radialGradient>
  <clipPath id="clipPath438">
   <path id="path436" d="m85.009 40.394h131.57v43.653h-131.57z"/>
  </clipPath>
  <clipPath id="clipPath446">
   <path id="path444" d="m85.009 84.046h43.649v-43.65h-43.649z"/>
  </clipPath>
  <clipPath id="clipPath450">
   <path id="path448" d="m85.009 62.221c0-1.61 0.265-3.177 0.722-4.67 0.599-1.733 1.434-3.021 2.963-3.604 2.335-0.888 4.142-0.904 5.367-0.946 1.141-0.041 2.344 2e-3 3.521 0.121 3.709 0.374 7.43 1.218 10.962 2.435 0.786 0.272 2.044 0.738 3.323 1.33 1.279 0.584 2.59 1.315 3.419 1.984 0.372 0.29 0.631 0.57 0.77 0.749-0.041 0.044-0.09 0.094-0.153 0.152-0.788 0.725-2.062 1.401-3.581 1.947-1.517 0.551-3.242 0.984-4.892 1.41-5.248 1.362-7.55 1.775-12.998 2.763 0 0-3.617 0.56-3.593 0.627 2.422 6.991 13.322 13.827 26.876 14.61-3.208 1.853-6.91 2.917-10.882 2.917-12.053 0-21.824-9.772-21.824-21.825m34.591 13.011c-4.748 0-9.484-0.935-13.456-2.47-1.653-0.632-3.17-1.375-4.5-2.179 2.209-0.449 4.334-0.94 7.279-1.706 1.602-0.419 3.506-0.883 5.424-1.575 1.911-0.699 3.874-1.62 5.555-3.138 1.261-1.115 2.213-2.74 2.198-4.506 1e-3 -0.944-0.259-1.819-0.626-2.54-0.367-0.725-0.835-1.323-1.334-1.847-1.006-1.044-2.166-1.833-3.358-2.527-2.372-1.372-4.9-2.313-6.301-2.799-3.948-1.361-8.104-2.307-12.303-2.732-1.289-0.13-2.673-0.233-4.105-0.233-0.993 1e-3 -2.013 0.059-3.041 0.194 3.976-4.174 9.583-6.778 15.801-6.778 12.054 0 21.825 9.771 21.825 21.825 0 4.757-1.527 9.156-4.111 12.742l-2.252 0.17c-0.891 0.064-1.782 0.099-2.674 0.099h-0.021"/>
  </clipPath>
  <clipPath id="clipPath454">
   <path id="path452" d="m119.61 101.74 26.749-52.295-52.294-26.749-26.749 52.295z"/>
  </clipPath>
  <linearGradient id="linearGradient462" x2="1" gradientTransform="matrix(19.663 -38.441 -38.441 -19.663 98.946 78.524)" gradientUnits="userSpaceOnUse">
   <stop id="stop456" stop-color="#ffce0d" offset="0"/>
   <stop id="stop458" stop-color="#ffce0d" offset=".49221"/>
   <stop id="stop460" stop-color="#896226" offset="1"/>
  </linearGradient>
  <clipPath id="clipPath486">
   <path id="path484" d="m91.013 55.914h29.67v-15.52h-29.67z"/>
  </clipPath>
  <clipPath id="clipPath490">
   <path id="path488" d="m120.12 55.268c-1.006-1.044-2.166-1.832-3.357-2.527-2.042-1.179-4.196-2.04-5.65-2.568-1.259-2.404-3.927-4.245-6.739-4.837-1.826-0.385-4.929-0.481-9.094 1.64l-0.05 0.025c-0.356-0.012-0.816-0.025-1.176-0.025-0.992 2e-3 -2.013 0.06-3.042 0.196 3.975-4.174 9.584-6.778 15.802-6.778 3.484 0 6.777 0.817 9.7 2.27 3.494 4.866 4.014 10.045 4.168 13.25-0.18-0.229-0.369-0.442-0.562-0.646"/>
  </clipPath>
  <clipPath id="clipPath494">
   <path id="path492" d="m91.013 55.914h29.67v-15.52h-29.67z"/>
  </clipPath>
  <radialGradient id="radialGradient504" cx="0" cy="0" r="1" gradientTransform="matrix(32.811 0 0 -32.811 83.921 48.441)" gradientUnits="userSpaceOnUse">
   <stop id="stop496" stop-color="#fff" offset="0"/>
   <stop id="stop498" stop-color="#fff" offset=".40109"/>
   <stop id="stop500" stop-color="#fff" offset=".59186"/>
   <stop id="stop502" stop-color="#c1ab2f" offset="1"/>
  </radialGradient>
  <clipPath id="clipPath528">
   <path id="path526" d="m85.01 82.27h22.872v-29.15h-22.872z"/>
  </clipPath>
  <clipPath id="clipPath532">
   <path id="path530" d="m98.981 82.269c-0.215-2e-3 -0.43-0.01-0.644-0.027-0.081-5e-3 -0.197 4e-3 -0.271-0.028-0.139-0.06-0.275-0.123-0.411-0.186-0.515-0.237-1.021-0.497-1.514-0.776-3.946-2.218-7.158-5.672-9.08-9.77-0.925-1.97-1.549-4.077-1.849-6.234-0.319-2.3-0.286-4.631 0.288-6.888 0.069-0.271 0.145-0.541 0.227-0.809 0.42-1.22 1.037-2.448 2.141-3.182 0.625-0.416 1.37-0.639 2.085-0.837 0.699-0.193 1.411-0.33 2.13-0.412-0.926 2.151-1.549 4.414-1.768 6.749-0.109 1.156-0.122 2.321-0.029 3.478 0.087 1.054 0.225 2.157 0.543 3.168 0.298 0.95 0.803 1.858 1.347 2.684 0.628 0.953 1.366 1.832 2.168 2.642 1.623 1.639 3.511 3.021 5.507 4.169 2.535 1.455 5.234 2.571 8.031 3.414-1.706 1.313-3.84 2.103-5.935 2.533-0.94 0.193-1.9 0.313-2.862 0.313-0.035 0-0.069-1e-3 -0.104-1e-3"/>
  </clipPath>
  <clipPath id="clipPath536">
   <path id="path534" d="m84.893 82.278h22.989v-29.158h-22.989z"/>
  </clipPath>
  <linearGradient id="linearGradient548" x2="1" gradientTransform="matrix(22.872 0 0 -22.872 85.01 67.695)" gradientUnits="userSpaceOnUse">
   <stop id="stop538" stop-color="#fff" offset="0"/>
   <stop id="stop540" stop-color="#fff" offset=".075196"/>
   <stop id="stop542" stop-color="#ffce0d" offset=".70329"/>
   <stop id="stop544" stop-color="#ffce0d" offset=".75318"/>
   <stop id="stop546" stop-color="#ffce0d" offset="1"/>
  </linearGradient>
  <clipPath id="clipPath572">
   <path id="path570" d="m98.078 84.047h19.632v-4.6325h-19.632z"/>
  </clipPath>
  <clipPath id="clipPath576">
   <path id="path574" d="m98.078 82.219c2.272 0.243 5.413-0.397 7.899-1.626 0.701-0.347 1.348-0.739 1.905-1.168-0.012-4e-3 -0.022-6e-3 -0.034-0.011 3.044 0.907 6.365 1.514 9.862 1.716-3.208 1.853-6.91 2.917-10.882 2.917-3.111 0-6.07-0.653-8.75-1.828"/>
  </clipPath>
  <clipPath id="clipPath580">
   <path id="path578" d="m95.85 81.1 9.3722 12.392 14.717-11.131-9.3722-12.392z"/>
  </clipPath>
  <linearGradient id="linearGradient592" x2="1" gradientTransform="matrix(10.312 13.635 13.635 -10.312 101.84 73.671)" gradientUnits="userSpaceOnUse">
   <stop id="stop582" stop-color="#fff" offset="0"/>
   <stop id="stop584" stop-color="#fff" offset=".0050507"/>
   <stop id="stop586" stop-color="#fff" offset=".17529"/>
   <stop id="stop588" stop-color="#896226" offset=".82967"/>
   <stop id="stop590" stop-color="#896226" offset="1"/>
  </linearGradient>
  <clipPath id="clipPath616">
   <path id="path614" d="m113.29 75.229h15.372v-32.566h-15.372z"/>
  </clipPath>
  <clipPath id="clipPath620">
   <path id="path618" d="m119.59 75.228c-2.125 0-4.246-0.19-6.298-0.535 2.562-1.812 5.373-5.665 6.881-10.775l-4e-3 4e-3c0-1e-3 0-4e-3 1e-3 -5e-3 -6e-3 6e-3 -0.013 0.013-0.02 0.019 1.14-1.103 1.971-2.63 1.957-4.28 0-0.946-0.26-1.82-0.627-2.541-0.224-0.445-0.487-0.841-0.772-1.202-0.155-3.205-0.675-8.383-4.168-13.25 7.185 3.571 12.124 10.984 12.124 19.554 0 4.758-1.527 9.156-4.111 12.741l-2.252 0.171c-0.891 0.065-1.783 0.099-2.673 0.099z"/>
  </clipPath>
  <clipPath id="clipPath624">
   <path id="path622" d="m97.599 54.586 21.317 28.049 25.433-19.329-21.317-28.049z"/>
  </clipPath>
  <linearGradient id="linearGradient634" x2="1" gradientTransform="matrix(21.769 28.644 28.644 -21.769 110.39 50.854)" gradientUnits="userSpaceOnUse">
   <stop id="stop626" stop-color="#896226" offset="0"/>
   <stop id="stop628" stop-color="#896226" offset=".0054932"/>
   <stop id="stop630" stop-color="#896226" offset=".25123"/>
   <stop id="stop632" stop-color="#514218" offset="1"/>
  </linearGradient>
  <clipPath id="clipPath658">
   <path id="path656" d="m101.64 74.695h18.511v-10.775h-18.511z"/>
  </clipPath>
  <clipPath id="clipPath662">
   <path id="path660" d="m106.14 72.761c-1.653-0.632-3.169-1.376-4.5-2.18 2.209-0.448 4.334-0.938 7.281-1.705 1.602-0.418 3.505-0.882 5.422-1.575 1.913-0.692 4.14-1.77 5.809-3.38-0.588 2.005-2.543 7.54-6.767 10.686-0.037 0.034-0.114 0.088-0.114 0.088-2.525-0.426-4.944-1.089-7.131-1.934"/>
  </clipPath>
  <clipPath id="clipPath666">
   <path id="path664" d="m114.51 83.215 10.599-16.012-17.83-11.803-10.599 16.012z"/>
  </clipPath>
  <linearGradient id="linearGradient676" x2="1" gradientTransform="matrix(13.806 -20.856 -20.856 -13.806 104.43 78.046)" gradientUnits="userSpaceOnUse">
   <stop id="stop668" stop-color="#ffce0d" offset="0"/>
   <stop id="stop670" stop-color="#ffce0d" offset=".21979"/>
   <stop id="stop672" stop-color="#fff" offset=".80721"/>
   <stop id="stop674" stop-color="#fff" offset="1"/>
  </linearGradient>
  <clipPath id="clipPath140">
   <path id="path138" d="m85.009 40.394h131.57v43.653h-131.57z"/>
  </clipPath>
  <clipPath id="clipPath110">
   <path id="path108" d="m134.26 56.157v-9.786h82.323v9.786h-0.01z"/>
  </clipPath>
  <clipPath id="clipPath120">
   <path id="path118" d="m216.17 40.568-82.601 5.8519 1.101 15.54 82.601-5.8519z"/>
  </clipPath>
  <linearGradient id="linearGradient130" x2="1" gradientTransform="matrix(-82.601 5.852 5.852 82.601 216.72 48.337)" gradientUnits="userSpaceOnUse">
   <stop id="stop122" stop-color="#ffce0d" offset="0"/>
   <stop id="stop124" stop-color="#ffce0d" offset=".032974"/>
   <stop id="stop126" stop-color="#ffce0d" offset=".35691"/>
   <stop id="stop128" stop-color="#896226" offset="1"/>
  </linearGradient>
  <clipPath id="clipPath80">
   <path id="path78" d="m85.009 40.394h131.57v43.653h-131.57z"/>
  </clipPath>
 </defs>
 <metadata id="metadata43435">
  <rdf:RDF>
   <cc:Work rdf:about="">
    <dc:format>image/svg+xml</dc:format>
    <dc:type rdf:resource="http://purl.org/dc/dcmitype/StillImage"/>
    <dc:title/>
   </cc:Work>
  </rdf:RDF>
 </metadata>
 <g id="layer1" transform="translate(36.699 -173.35)">
  <g id="g74" transform="matrix(1.6088 0 0 -1.6088 -173.46 308.57)">
   <g id="g76" clip-path="url(#clipPath80)">
    <g id="g82" transform="translate(142.56 72.92)">
     <path id="path84" d="m0 0c-0.097-0.259-3.511-9.373-3.511-9.373s-3.421 9.114-3.517 9.373h-4.241c0.23-0.543 6.186-14.392 6.287-14.629h2.909c0.1 0.237 6.056 14.086 6.288 14.629z"/>
    </g>
    <path id="path86" d="m149.43 58.346h4.089v14.573h-4.089z"/>
    <g id="g88" transform="translate(163.85 67.661)">
     <path id="path90" d="m0 0 1.878-5.015h-3.758zm-1.466 5.256c-0.104-0.237-6.059-14.085-6.29-14.627h4.242c0.083 0.222 0.613 1.641 0.613 1.641h5.801s0.532-1.419 0.616-1.641h4.214c-0.235 0.542-6.186 14.39-6.289 14.627z"/>
    </g>
    <g id="g92" transform="translate(195.4 67.661)">
     <path id="path94" d="m0 0 1.882-5.015h-3.757zm-1.466 5.256c-0.102-0.237-6.055-14.085-6.288-14.627h4.241c0.084 0.222 0.616 1.641 0.616 1.641h5.799s0.53-1.419 0.614-1.641h4.213c-0.233 0.542-6.183 14.39-6.285 14.627z"/>
    </g>
    <g id="g96" transform="translate(178.56 73.05)">
     <path id="path98" d="m0 0c-3.691 0-5.485-1.227-5.485-3.751v-1.737c0-1.334 0.536-2.331 1.508-2.802 0.735-0.38 1.584-0.49 3.778-0.49h2.874c0.918 0 1.289-0.357 1.289-1.23v-0.2c0-0.884-0.384-1.259-1.289-1.259h-3.131c-0.467 0-0.785 0.098-0.991 0.313-0.159 0.164-0.24 0.401-0.261 0.702-0.355-0.016-3.352-0.14-3.742-0.153 0.454-3.017 1.951-4.15 5.45-4.15h2.279c3.69 0 5.484 1.237 5.484 3.778v1.734c0 1.334-0.533 2.331-1.506 2.805-0.738 0.381-1.583 0.489-3.782 0.489h-2.873c-0.915 0-1.289 0.357-1.289 1.232v0.198c0 0.884 0.387 1.261 1.289 1.261h3.132c0.468 0 0.785-0.1 0.992-0.316 0.158-0.166 0.24-0.397 0.258-0.691 0.372 0.03 3.343 0.273 3.737 0.305-0.579 2.914-2.026 3.962-5.442 3.962z"/>
    </g>
    <g id="g100" transform="translate(202 72.92)">
     <path id="path102" d="m0 0v-3.498h5.242v-11.075h4.091v11.075h5.248v3.498z"/>
    </g>
   </g>
  </g>
  <g id="g104" transform="matrix(1.6088 0 0 -1.6088 -173.46 308.57)">
   <g id="g106" clip-path="url(#clipPath110)">
    <g id="g112">
     <g id="g114">
      <g id="g116" clip-path="url(#clipPath120)">
       <path id="path132" d="m134.26 56.157v-9.786h82.323v9.786h-0.01z" fill="url(#linearGradient130)"/>
      </g>
     </g>
    </g>
   </g>
  </g>
  <g id="g134" transform="matrix(1.6088 0 0 -1.6088 -173.46 308.57)">
   <g id="g136" clip-path="url(#clipPath140)">
    <g id="g142" transform="translate(143.48 48.3)">
     <path id="path144" d="m0 0c-0.698-0.205-1.757-0.35-2.649-0.35-3.21 0-4.504 1.419-4.504 3.462 0 2.041 1.302 3.513 4.487 3.513 0.883 0 1.846-0.116 2.586-0.32l-0.224-1.81c-0.677 0.195-1.516 0.301-2.247 0.301-1.695 0-2.061-0.462-2.061-1.648 0-1.214 0.403-1.669 1.891-1.669 0.223 0 0.437 9e-3 0.642 0.044v1.802h2.079z" fill="#fff"/>
    </g>
    <g id="g146" transform="translate(148.79 47.961)">
     <path id="path148" d="m0 0c-2.989 0-4.202 1.533-4.202 3.479 0 1.943 1.213 3.459 4.202 3.459 2.996 0 4.201-1.516 4.201-3.459 0-1.936-1.205-3.479-4.201-3.479m0 5.127c-1.248 0-1.659-0.483-1.659-1.64 0-1.159 0.411-1.678 1.659-1.678 1.258 0 1.667 0.519 1.667 1.678 0 1.157-0.374 1.64-1.667 1.64" fill="#fff"/>
    </g>
    <g id="g150" transform="translate(160.35 49.959)">
     <path id="path152" d="m0 0-0.045-1.863h-6.056v6.687h2.4v-4.824z" fill="#fff"/>
    </g>
    <g id="g154" transform="translate(163.82 52.919)">
     <path id="path156" d="m0 0v-0.893h3.335l-0.027-1.695h-3.308v-2.236h-2.408v6.687h6.412l-2e-3 -1.863z" fill="#fff"/>
    </g>
   </g>
  </g>
  <g id="g40015" transform="matrix(1.6088 0 0 -1.6088 -173.46 308.57)">
   <g id="g158">
    <g id="g160" clip-path="url(#clipPath164)">
     <g id="g166">
      <g id="g168">
       <g id="g170" clip-path="url(#clipPath174)">
        <path id="path190" d="m86.47 62.221c0-11.247 9.118-20.364 20.366-20.364s20.366 9.117 20.366 20.364c0 11.249-9.118 20.365-20.366 20.365s-20.366-9.116-20.366-20.365" fill="url(#radialGradient188)"/>
       </g>
      </g>
     </g>
    </g>
   </g>
   <g id="g404">
    <g id="g406" clip-path="url(#clipPath410)">
     <g id="g412">
      <g id="g414">
       <g id="g416" clip-path="url(#clipPath420)">
        <path id="path430" d="m85.01 62.221c0-1.609 0.267-3.177 0.723-4.67 0.599-1.732 1.434-3.02 2.964-3.602 2.333-0.89 4.141-0.906 5.366-0.948 1.14-0.041 2.343 3e-3 3.52 0.121 3.71 0.375 7.433 1.219 10.962 2.436 0.787 0.273 2.044 0.739 3.323 1.331 1.28 0.583 2.59 1.315 3.419 1.984 0.373 0.288 0.632 0.568 0.772 0.748-0.041 0.044-0.091 0.094-0.153 0.152-0.789 0.726-2.063 1.402-3.582 1.947-1.517 0.551-3.242 0.983-4.892 1.41-5.249 1.363-7.551 1.774-12.999 2.763 0 0-3.616 0.56-3.592 0.627 2.422 6.991 13.321 13.827 26.876 14.61-3.208 1.853-6.911 2.917-10.882 2.917-12.053 0-21.825-9.772-21.825-21.826m34.59 13.012c-4.748 0-9.483-0.936-13.455-2.47-1.652-0.632-3.169-1.375-4.498-2.18 2.208-0.449 4.333-0.938 7.279-1.705 1.602-0.419 3.506-0.883 5.422-1.575 1.912-0.7 3.874-1.62 5.554-3.138 1.264-1.116 2.215-2.739 2.2-4.506 1e-3 -0.944-0.26-1.819-0.626-2.539-0.367-0.727-0.835-1.324-1.334-1.848-1.006-1.044-2.167-1.834-3.358-2.527-2.372-1.371-4.901-2.313-6.3-2.8-3.949-1.36-8.104-2.306-12.304-2.73-1.29-0.131-2.672-0.234-4.106-0.234-0.991 2e-3 -2.011 0.059-3.04 0.194 3.975-4.174 9.582-6.779 15.801-6.779 12.053 0 21.825 9.772 21.825 21.825 0 4.758-1.528 9.157-4.112 12.743l-2.252 0.17c-0.89 0.065-1.782 0.099-2.672 0.099z" fill="url(#radialGradient428)"/>
       </g>
      </g>
     </g>
    </g>
   </g>
   <g id="g432">
    <g id="g434" clip-path="url(#clipPath438)">
     <g id="g440">
      <g id="g478">
       <g id="g476" clip-path="url(#clipPath446)" opacity=".60001">
        <g id="g474">
         <g id="g472" clip-path="url(#clipPath450)">
          <g id="g470">
           <g id="g468">
            <g id="g466" clip-path="url(#clipPath454)">
             <path id="path464" d="m85.009 62.221c0-1.61 0.265-3.177 0.722-4.67 0.599-1.733 1.434-3.021 2.963-3.604 2.335-0.888 4.142-0.904 5.367-0.946 1.141-0.041 2.344 2e-3 3.521 0.121 3.709 0.374 7.43 1.218 10.962 2.435 0.786 0.272 2.044 0.738 3.323 1.33 1.279 0.584 2.59 1.315 3.419 1.984 0.372 0.29 0.631 0.57 0.77 0.749-0.041 0.044-0.09 0.094-0.153 0.152-0.788 0.725-2.062 1.401-3.581 1.947-1.517 0.551-3.242 0.984-4.892 1.41-5.248 1.362-7.55 1.775-12.998 2.763 0 0-3.617 0.56-3.593 0.627 2.422 6.991 13.322 13.827 26.876 14.61-3.208 1.853-6.91 2.917-10.882 2.917-12.053 0-21.824-9.772-21.824-21.825m34.591 13.011c-4.748 0-9.484-0.935-13.456-2.47-1.653-0.632-3.17-1.375-4.5-2.179 2.209-0.449 4.334-0.94 7.279-1.706 1.602-0.419 3.506-0.883 5.424-1.575 1.911-0.699 3.874-1.62 5.555-3.138 1.261-1.115 2.213-2.74 2.198-4.506 1e-3 -0.944-0.259-1.819-0.626-2.54-0.367-0.725-0.835-1.323-1.334-1.847-1.006-1.044-2.166-1.833-3.358-2.527-2.372-1.372-4.9-2.313-6.301-2.799-3.948-1.361-8.104-2.307-12.303-2.732-1.289-0.13-2.673-0.233-4.105-0.233-0.993 1e-3 -2.013 0.059-3.041 0.194 3.976-4.174 9.583-6.778 15.801-6.778 12.054 0 21.825 9.771 21.825 21.825 0 4.757-1.527 9.156-4.111 12.742l-2.252 0.17c-0.891 0.064-1.782 0.099-2.674 0.099h-0.021" fill="url(#linearGradient462)"/>
            </g>
           </g>
          </g>
         </g>
        </g>
       </g>
      </g>
     </g>
     <g id="g480">
      <g id="g520">
       <g id="g518" clip-path="url(#clipPath486)" opacity=".31">
        <g id="g516">
         <g id="g514" clip-path="url(#clipPath490)">
          <g id="g512">
           <g id="g510">
            <g id="g508" clip-path="url(#clipPath494)">
             <path id="path506" d="m120.12 55.268c-1.006-1.044-2.166-1.832-3.357-2.527-2.042-1.179-4.196-2.04-5.65-2.568-1.259-2.404-3.927-4.245-6.739-4.837-1.826-0.385-4.929-0.481-9.094 1.64l-0.05 0.025c-0.356-0.012-0.816-0.025-1.176-0.025-0.992 2e-3 -2.013 0.06-3.042 0.196 3.975-4.174 9.584-6.778 15.802-6.778 3.484 0 6.777 0.817 9.7 2.27 3.494 4.866 4.014 10.045 4.168 13.25-0.18-0.229-0.369-0.442-0.562-0.646" fill="url(#radialGradient504)"/>
            </g>
           </g>
          </g>
         </g>
        </g>
       </g>
      </g>
     </g>
     <g id="g522">
      <g id="g564">
       <g id="g562" clip-path="url(#clipPath528)" opacity=".59">
        <g id="g560">
         <g id="g558" clip-path="url(#clipPath532)">
          <g id="g556">
           <g id="g554">
            <g id="g552" clip-path="url(#clipPath536)">
             <path id="path550" d="m98.981 82.269c-0.215-2e-3 -0.43-0.01-0.644-0.027-0.081-5e-3 -0.197 4e-3 -0.271-0.028-0.139-0.06-0.275-0.123-0.411-0.186-0.515-0.237-1.021-0.497-1.514-0.776-3.946-2.218-7.158-5.672-9.08-9.77-0.925-1.97-1.549-4.077-1.849-6.234-0.319-2.3-0.286-4.631 0.288-6.888 0.069-0.271 0.145-0.541 0.227-0.809 0.42-1.22 1.037-2.448 2.141-3.182 0.625-0.416 1.37-0.639 2.085-0.837 0.699-0.193 1.411-0.33 2.13-0.412-0.926 2.151-1.549 4.414-1.768 6.749-0.109 1.156-0.122 2.321-0.029 3.478 0.087 1.054 0.225 2.157 0.543 3.168 0.298 0.95 0.803 1.858 1.347 2.684 0.628 0.953 1.366 1.832 2.168 2.642 1.623 1.639 3.511 3.021 5.507 4.169 2.535 1.455 5.234 2.571 8.031 3.414-1.706 1.313-3.84 2.103-5.935 2.533-0.94 0.193-1.9 0.313-2.862 0.313-0.035 0-0.069-1e-3 -0.104-1e-3" fill="url(#linearGradient548)"/>
            </g>
           </g>
          </g>
         </g>
        </g>
       </g>
      </g>
     </g>
     <g id="g566">
      <g id="g608">
       <g id="g606" clip-path="url(#clipPath572)" opacity="0">
        <g id="g604">
         <g id="g602" clip-path="url(#clipPath576)">
          <g id="g600">
           <g id="g598">
            <g id="g596" clip-path="url(#clipPath580)">
             <path id="path594" d="m98.078 82.219c2.272 0.243 5.413-0.397 7.899-1.626 0.701-0.347 1.348-0.739 1.905-1.168-0.012-4e-3 -0.022-6e-3 -0.034-0.011 3.044 0.907 6.365 1.514 9.862 1.716-3.208 1.853-6.91 2.917-10.882 2.917-3.111 0-6.07-0.653-8.75-1.828" fill="url(#linearGradient592)"/>
            </g>
           </g>
          </g>
         </g>
        </g>
       </g>
      </g>
     </g>
     <g id="g610">
      <g id="g650">
       <g id="g648" clip-path="url(#clipPath616)" opacity="0">
        <g id="g646">
         <g id="g644" clip-path="url(#clipPath620)">
          <g id="g642">
           <g id="g640">
            <g id="g638" clip-path="url(#clipPath624)">
             <path id="path636" d="m119.59 75.228c-2.125 0-4.246-0.19-6.298-0.535 2.562-1.812 5.373-5.665 6.881-10.775l-4e-3 4e-3c0-1e-3 0-4e-3 1e-3 -5e-3 -6e-3 6e-3 -0.013 0.013-0.02 0.019 1.14-1.103 1.971-2.63 1.957-4.28 0-0.946-0.26-1.82-0.627-2.541-0.224-0.445-0.487-0.841-0.772-1.202-0.155-3.205-0.675-8.383-4.168-13.25 7.185 3.571 12.124 10.984 12.124 19.554 0 4.758-1.527 9.156-4.111 12.741l-2.252 0.171c-0.891 0.065-1.783 0.099-2.673 0.099z" fill="url(#linearGradient634)"/>
            </g>
           </g>
          </g>
         </g>
        </g>
       </g>
      </g>
     </g>
     <g id="g652">
      <g id="g692">
       <g id="g690" clip-path="url(#clipPath658)" opacity=".33">
        <g id="g688">
         <g id="g686" clip-path="url(#clipPath662)">
          <g id="g684">
           <g id="g682">
            <g id="g680" clip-path="url(#clipPath666)">
             <path id="path678" d="m106.14 72.761c-1.653-0.632-3.169-1.376-4.5-2.18 2.209-0.448 4.334-0.938 7.281-1.705 1.602-0.418 3.505-0.882 5.422-1.575 1.913-0.692 4.14-1.77 5.809-3.38-0.588 2.005-2.543 7.54-6.767 10.686-0.037 0.034-0.114 0.088-0.114 0.088-2.525-0.426-4.944-1.089-7.131-1.934" fill="url(#linearGradient676)"/>
            </g>
           </g>
          </g>
         </g>
        </g>
       </g>
      </g>
     </g>
    </g>
   </g>
  </g>
 </g>
</svg>
