<svg version="1.1" viewBox="0 0 800.01 152.86" xmlns="http://www.w3.org/2000/svg">
 <defs>
  <linearGradient id="a" x2="1" gradientTransform="matrix(0 7.0916 7.0916 0 513.88 231.16)" gradientUnits="userSpaceOnUse">
   <stop stop-color="#2d2e83" offset="0"/>
   <stop stop-color="#36a9e1" offset="1"/>
  </linearGradient>
  <linearGradient id="b" x2="1" gradientTransform="matrix(0 7.0916 7.0916 0 512.15 231.16)" gradientUnits="userSpaceOnUse">
   <stop stop-color="#2d2e83" offset="0"/>
   <stop stop-color="#36a9e1" offset="1"/>
  </linearGradient>
  <clipPath id="c">
   <path d="m509.5 231.08h36.667v7.007h-36.667z"/>
  </clipPath>
 </defs>
 <g transform="matrix(21.818 0 0 -21.818 -11116 5194.6)">
  <g clip-path="url(#c)">
   <g transform="translate(514.71 232.86)">
    <path d="m0 0c0.578 0.496 0.622 0.973 0.556 1.286-0.204 0.977-1.476 1.154-2.499 1.297-0.133 0.018-0.29 0.04-0.443 0.065-0.2 0.033-0.242 0.303-0.06 0.393 0.247 0.122 0.612 0.267 1.153 0.422 0.792 0.227 1.676 0.395 2.27 0.5-0.25 0.3-0.55 0.557-0.887 0.759-2.729-0.544-3.894-1.142-3.955-1.996-0.037-0.524 0.438-0.754 0.724-0.845 0.296-0.093 0.673-0.146 1.072-0.201 0.621-0.087 1.66-0.232 1.732-0.581 0.03-0.142-0.169-0.332-0.257-0.407-0.684-0.587-2.323-1.078-3.81-1.184 0.268-0.326 0.594-0.602 0.962-0.813 1.402 0.221 2.754 0.715 3.442 1.305" fill="#fff"/>
   </g>
  </g>
 </g>
 <g transform="matrix(21.818 0 0 -21.818 -11116 5194.6)">
  <path d="m509.5 234.59c0-0.843 0.298-1.616 0.794-2.22 1.49 0.105 3.136 0.597 3.822 1.186 0.088 0.074 0.287 0.264 0.258 0.407-0.073 0.349-1.112 0.494-1.733 0.58-0.398 0.056-0.775 0.108-1.072 0.202-0.286 0.091-0.761 0.32-0.723 0.844 0.061 0.856 1.229 1.455 3.97 2-0.529 0.32-1.149 0.504-1.812 0.504-1.935 0-3.504-1.568-3.504-3.503" fill="url(#b)"/>
 </g>
 <g transform="matrix(21.818 0 0 -21.818 -11116 5194.6)">
  <path d="m513.41 236.32c-0.541-0.155-0.906-0.299-1.153-0.421-0.182-0.09-0.139-0.361 0.06-0.394 0.154-0.024 0.31-0.046 0.443-0.064 1.023-0.144 2.295-0.321 2.5-1.298 0.065-0.313 0.021-0.79-0.557-1.285-0.69-0.593-2.049-1.088-3.456-1.308 0.514-0.298 1.112-0.469 1.75-0.469 1.935 0 3.503 1.569 3.503 3.503 0 0.851-0.304 1.631-0.808 2.238-0.593-0.104-1.484-0.274-2.282-0.502" fill="url(#a)"/>
 </g>
 <g transform="translate(-264.56 91.182)">
  <g transform="matrix(21.818 0 0 -21.818 487.35 25.142)">
   <path d="m0 0h-0.869l-1.36 3.641h0.862l0.946-2.667 0.947 2.667h0.841z" fill="#162931"/>
  </g>
  <path d="m527.56-54.31h17.433v79.439h-17.433zm19.898-24.196c0 6.0436-4.7563 11.018-11.018 11.018-6.4145 0-11.324-4.9745-11.324-11.018 0-6.2181 4.909-11.018 11.324-11.018 6.2618 0 11.018 4.8 11.018 11.018" fill="#162931"/>
  <g transform="matrix(21.818 0 0 -21.818 605.85 -5.7365)">
   <path d="m0 0v0.384l-0.701-0.171c-0.617-0.149-0.862-0.305-0.862-0.618 0-0.264 0.231-0.434 0.631-0.434 0.554 0 0.932 0.284 0.932 0.839m0.07-1.415c-0.021 0.092-0.035 0.227-0.049 0.412-0.203-0.341-0.596-0.505-1.107-0.505-0.729 0-1.269 0.349-1.269 1.039 0 0.754 0.582 1.066 1.5 1.258l0.855 0.193c0 0.433-0.266 0.64-0.771 0.64-0.469 0-0.792-0.235-1.002-0.456l-0.463 0.548c0.302 0.334 0.778 0.619 1.493 0.619 1.037 0 1.507-0.541 1.507-1.337v-1.544c0-0.462 0.021-0.732 0.042-0.867z" fill="#162931"/>
  </g>
  <g transform="matrix(21.818 0 0 -21.818 689.34 -47.946)">
   <path d="m0 0-0.392-0.583c-0.246 0.185-0.526 0.277-0.813 0.277-0.365 0-0.547-0.149-0.547-0.355 0-0.207 0.196-0.292 0.47-0.406l0.315-0.128c0.645-0.263 1.03-0.519 1.03-1.131 0-0.697-0.561-1.131-1.338-1.131-0.582 0-1.101 0.214-1.451 0.52l0.413 0.597c0.267-0.228 0.638-0.398 1.038-0.398 0.322 0 0.56 0.121 0.56 0.412 0 0.263-0.287 0.377-0.68 0.534l-0.322 0.135c-0.603 0.249-0.813 0.555-0.813 0.996 0 0.533 0.456 1.059 1.346 1.059 0.539 0 0.953-0.199 1.184-0.398" fill="#162931"/>
  </g>
  <g transform="matrix(21.818 0 0 -21.818 759.98 -14.582)">
   <path d="m0 0c0 0.761-0.47 1.159-1.002 1.159-0.533 0-1.009-0.398-1.009-1.159s0.476-1.159 1.009-1.159c0.532 0 1.002 0.398 1.002 1.159m0.806 0c0-1.145-0.729-1.913-1.675-1.913-0.47 0-0.841 0.163-1.1 0.448v-1.707h-0.799v4.993h0.757v-0.413c0.259 0.313 0.651 0.498 1.142 0.498 0.946 0 1.675-0.768 1.675-1.906" fill="#162931"/>
  </g>
  <g transform="matrix(21.818 0 0 -21.818 801.57 -14.582)">
   <path d="m0 0c0-0.761 0.505-1.159 1.051-1.159 0.54 0 1.044 0.398 1.044 1.159s-0.504 1.159-1.044 1.159c-0.546 0-1.051-0.398-1.051-1.159m2.901 0c0-1.145-0.806-1.927-1.85-1.927s-1.857 0.782-1.857 1.927 0.813 1.927 1.857 1.927 1.85-0.782 1.85-1.927" fill="#162931"/>
  </g>
  <g transform="matrix(21.818 0 0 -21.818 916.86 -38.324)">
   <path d="m0 0c-0.785-0.021-1.233-0.42-1.233-1.323v-1.586h-0.799v3.642h0.764v-0.626c0.175 0.355 0.546 0.668 1.184 0.675z" fill="#162931"/>
  </g>
  <g transform="matrix(21.818 0 0 -21.818 953.56 -2.4791)">
   <path d="m0 0c0-0.441 0.168-0.597 0.596-0.597 0.07 0 0.14 7e-3 0.182 0.014v-0.683c-0.105-0.028-0.266-0.057-0.449-0.057-0.735 0-1.128 0.334-1.128 1.124v1.885h-0.666v0.689h0.666v1.153h0.799v-1.153h0.813v-0.689h-0.813z" fill="#162931"/>
  </g>
  <g transform="matrix(21.818 0 0 -21.818 1064.6 25.793)">
   <path d="m0 0h-3.387v0.74l1.132 1.037c0.606 0.56 1.165 0.989 1.165 1.493 0 0.346-0.225 0.567-0.593 0.567-0.436 0-0.682-0.297-0.859-0.739l-0.906 0.352c0.273 0.878 0.92 1.355 1.765 1.355 1.049 0 1.628-0.663 1.628-1.479 0-0.809-0.572-1.362-1.369-2.047l-0.409-0.353h1.833z" fill="#162931"/>
  </g>
 </g>
</svg>
