<?xml version="1.0" encoding="UTF-8"?>
<!-- Created with Inkscape (http://www.inkscape.org/) -->
<svg id="svg2" width="208.4" height="70.573" version="1.1" viewBox="0 0 208.4 70.573" xml:space="preserve" xmlns="http://www.w3.org/2000/svg" xmlns:cc="http://creativecommons.org/ns#" xmlns:dc="http://purl.org/dc/elements/1.1/" xmlns:rdf="http://www.w3.org/1999/02/22-rdf-syntax-ns#"><metadata id="metadata8"><rdf:RDF><cc:Work rdf:about=""><dc:format>image/svg+xml</dc:format><dc:type rdf:resource="http://purl.org/dc/dcmitype/StillImage"/><dc:title/></cc:Work></rdf:RDF></metadata><defs id="defs6"><radialGradient id="radialGradient38" cx="0" cy="0" r="1" gradientTransform="matrix(32.923 0 0 32.923 35.285 35.285)" gradientUnits="userSpaceOnUse"><stop id="stop24" stop-color="#fff" offset="0"/><stop id="stop26" stop-color="#fff" offset=".3427"/><stop id="stop28" stop-color="#fff" offset=".51929"/><stop id="stop30" stop-color="#f6f6ee" offset=".64045"/><stop id="stop32" stop-color="#f6f6ee" offset=".69997"/><stop id="stop34" stop-color="#9ea19e" offset=".94944"/><stop id="stop36" stop-color="#9ea19e" offset="1"/></radialGradient><clipPath id="clipPath48"><path id="path46" d="m18.596 26.899c0-13.637 11.056-24.692 24.694-24.692 13.639 0 24.694 11.055 24.694 24.692 0 13.639-11.055 24.693-24.694 24.693-13.638 0-24.694-11.054-24.694-24.693"/></clipPath><clipPath id="clipPath56"><path id="path54" d="m12.032 56.786h61.161v-61.161h-61.161z"/></clipPath>
		 <linearGradient id="linearGradient108" x2="1" gradientTransform="matrix(-49.899 -49.899 49.899 -49.899 60.069 60.397)" gradientUnits="userSpaceOnUse"><stop id="stop104" stop-color="#16217c" offset="0"/><stop id="stop106" stop-color="#406be6" offset="1"/></linearGradient><clipPath id="clipPath126"><path id="path124" d="m24.105 19.251h35.975v-18.819h-35.975z"/></clipPath><radialGradient id="radialGradient138" cx="0" cy="0" r="1" gradientTransform="matrix(39.784,0,0,-39.784,15.506,10.19)" gradientUnits="userSpaceOnUse"><stop id="stop132" stop-color="#fff" offset="0"/><stop id="stop134" stop-color="#fff" offset=".31853"/><stop id="stop136" stop-color="#4046c2" offset="1"/></radialGradient><clipPath id="clipPath160"><path id="path158" d="m16.825 51.207h27.732v-35.344h-27.732z"/></clipPath><linearGradient id="linearGradient174" x2="1" gradientTransform="matrix(45.678,36.596,36.596,-45.678,18.935,25.99)" gradientUnits="userSpaceOnUse"><stop id="stop166" stop-color="#fff" offset="0"/><stop id="stop168" stop-color="#c1c9ff" offset=".6"/><stop id="stop170" stop-color="#c1c9ff" offset=".66725"/><stop id="stop172" stop-color="#c1c9ff" offset="1"/></linearGradient><clipPath id="clipPath196"><path id="path194" d="m32.67 53.362h23.804v-5.6164h-23.804z"/></clipPath><linearGradient id="linearGradient210" x2="1" gradientTransform="matrix(23.804,0,0,-23.804,32.67,50.554)" gradientUnits="userSpaceOnUse"><stop id="stop202" stop-color="#fff" offset="0"/><stop id="stop204" stop-color="#4046c2" offset=".22706"/><stop id="stop206" stop-color="#4046c2" offset=".90416"/><stop id="stop208" stop-color="#4046c2" offset="1"/></linearGradient><clipPath id="clipPath232"><path id="path230" d="m51.113 42.67h18.639v-39.487h-18.639z"/></clipPath><linearGradient id="linearGradient248" x2="1" gradientTransform="matrix(26.395,34.731,34.731,-26.395,47.601,13.116)" gradientUnits="userSpaceOnUse"><stop id="stop238" stop-color="#fff" offset="0"/><stop id="stop240" stop-color="#fff" offset=".0050505"/><stop id="stop242" stop-color="#500050" offset=".21807"/><stop id="stop244" stop-color="#500050" offset=".6"/><stop id="stop246" stop-color="#500050" offset="1"/></linearGradient><clipPath id="clipPath270"><path id="path268" d="m34.638 43.7h26.64v-17.28h-26.64z"/></clipPath><clipPath id="clipPath274"><path id="path272" d="m34.638 43.7h26.64v-17.28h-26.64z"/></clipPath>
		 <linearGradient id="linearGradient306" x2="1" gradientTransform="matrix(16.739,-25.287,-25.287,-16.739,40.359,46.087)" gradientUnits="userSpaceOnUse"><stop id="stop300" stop-color="#e66400" offset="0"/><stop id="stop302" stop-color="#fff" offset=".20091"/><stop id="stop304" stop-color="#fff" offset="1"/></linearGradient><linearGradient id="linearGradient358" x2="1" gradientTransform="matrix(71.927,0,0,-71.927,74.004,16.747)" gradientUnits="userSpaceOnUse"><stop id="stop352" stop-color="#16217c" offset="0"/><stop id="stop354" stop-color="#2943ad" offset=".46692"/><stop id="stop356" stop-color="#406be6" offset="1"/></linearGradient></defs><g id="g42" transform="matrix(1.3333,0,0,-1.3333,-22.434,71.149)"><g id="g44" clip-path="url(#clipPath48)"><g id="g50"><g id="g90"><g id="g88" clip-path="url(#clipPath56)" opacity=".75"><g id="g86"/></g></g></g></g></g><g id="g1762" transform="translate(-3.2068e-6,-1.8884e-6)"><path id="path40" d="m2.36 35.285c0 18.182 14.741 32.922 32.925 32.922 18.185 0 32.925-14.74 32.925-32.922 0-18.185-14.74-32.923-32.925-32.923-18.184 0-32.925 14.738-32.925 32.923" fill="url(#radialGradient38)" stroke-width="1.3333"/><path id="path110" d="m1.058e-4 35.286c0 2.6013 0.43066 5.1345 1.168 7.5478 0.96798 2.8026 2.3173 4.8852 4.7905 5.8252 3.7719 1.4373 6.6958 1.4626 8.6758 1.532 1.844 0.06667 3.7879-4e-3 5.6905-0.196 5.9998-0.60532 12.016-1.9706 17.724-3.9372 1.2706-0.43999 3.3039-1.1946 5.3732-2.1533 2.0679-0.94131 4.1852-2.1239 5.5252-3.2039 0.60265-0.46932 1.0213-0.92264 1.248-1.212-0.06533-0.07066-0.14666-0.15333-0.24799-0.24399-1.276-1.1733-3.3332-2.2666-5.7892-3.1493-2.4546-0.88931-5.2425-1.5893-7.9105-2.2799-8.4851-2.2013-12.205-2.8693-21.013-4.4652 0 0-5.8465-0.90664-5.8092-1.0133 3.9159-11.302 21.538-22.353 43.45-23.619-5.1865-2.9959-11.172-4.7159-17.593-4.7159-19.485 0-35.282 15.797-35.282 35.284m34.167-17.042c-2.6706 1.0226-5.1225 2.2226-7.2718 3.5239 3.5706 0.72532 7.0038 1.5173 11.768 2.7573 2.5906 0.67332 5.6665 1.4253 8.7664 2.5453 3.0906 1.1333 6.2625 2.6186 8.9784 5.0732 2.0426 1.8026 3.5786 4.4292 3.5572 7.2838 0 1.5266-0.42132 2.9399-1.0133 4.1052-0.59332 1.1746-1.352 2.1399-2.1573 2.9866-1.6266 1.6906-3.5026 2.9653-5.4265 4.0879-3.8372 2.2146-7.9225 3.7372-10.186 4.5252-6.3838 2.1986-13.104 3.7279-19.892 4.4146-2.0839 0.20933-4.3199 0.37732-6.6358 0.37732-1.6053-0.0013-3.2546-0.096-4.9172-0.31332 6.4265 6.7452 15.492 10.957 25.545 10.957 19.488 0 35.284-15.794 35.284-35.282 0-7.6918-2.4693-14.805-6.6465-20.601l-3.6426-0.27466c-1.4386-0.104-2.8799-0.16-4.3212-0.16h-0.036c-7.6771 0-15.332 1.5133-21.753 3.9932" fill="url(#linearGradient108)" stroke-width="1.3333"/><g id="g150" transform="matrix(1.3333,0,0,-1.3333,-22.434,71.149)" clip-path="url(#clipPath126)" opacity=".31"><g id="g148"><g id="g146"><g id="g144"><g id="g142"><path id="path140" d="m29.218 8.444c-0.429-0.015-0.989-0.029-1.426-0.029-1.203 1e-3 -2.44 0.071-3.687 0.235 4.819-5.06 11.619-8.218 19.159-8.218 4.225 0 8.217 0.991 11.761 2.752 4.237 5.901 4.866 12.181 5.054 16.067-0.218-0.277-0.446-0.537-0.681-0.783-1.22-1.266-2.625-2.223-4.071-3.065-2.475-1.429-5.087-2.474-6.85-3.113-1.526-2.914-4.761-5.148-8.172-5.866-2.214-0.467-5.975-0.583-11.025 1.99z" fill="url(#radialGradient138)"/></g></g></g></g></g><g id="g186" transform="matrix(1.3333,0,0,-1.3333,-22.434,71.149)" clip-path="url(#clipPath160)" opacity=".31"><g id="g184"><g id="g182"><g id="g180"><g id="g178"><path id="path176" d="m17.694 21.236c0.511-1.479 1.259-2.969 2.597-3.859 0.757-0.503 1.66-0.774 2.529-1.014 0.846-0.235 1.71-0.4 2.583-0.5-1.125 2.607-1.88 5.352-2.146 8.183-0.131 1.402-0.147 2.815-0.033 4.219 0.103 1.277 0.272 2.613 0.656 3.841 0.361 1.15 0.974 2.251 1.635 3.253 0.761 1.157 1.656 2.22 2.629 3.204 1.966 1.987 4.257 3.663 6.677 5.054 3.073 1.765 6.347 3.118 9.736 4.141-2.068 1.592-4.654 2.549-7.194 3.071-1.182 0.242-2.39 0.389-3.596 0.378-0.262-3e-3 -0.523-0.013-0.783-0.032-0.098-7e-3 -0.239 3e-3 -0.328-0.035-0.168-0.073-0.332-0.149-0.498-0.225-0.625-0.287-1.239-0.603-1.837-0.942-4.784-2.688-8.677-6.878-11.01-11.846-1.12-2.389-1.877-4.944-2.241-7.558-0.387-2.789-0.347-5.615 0.35-8.352 0.083-0.33 0.175-0.656 0.274-0.981" fill="url(#linearGradient174)"/></g></g></g></g></g><g id="g222" transform="matrix(1.3333,0,0,-1.3333,-22.434,71.149)" clip-path="url(#clipPath196)" opacity=".35001"><g id="g220"><g id="g218"><g id="g216"><g id="g214"><path id="path212" d="m42.249 49.174c0.848-0.421 1.634-0.896 2.308-1.416-0.012-4e-3 -0.027-8e-3 -0.04-0.013 3.692 1.1 7.717 1.836 11.957 2.081-3.889 2.246-8.378 3.536-13.193 3.536-3.774 0-7.361-0.791-10.611-2.215 2.756 0.293 6.565-0.483 9.579-1.973" fill="url(#linearGradient210)"/></g></g></g></g></g><g id="g260" transform="matrix(1.3333,0,0,-1.3333,-22.434,71.149)" clip-path="url(#clipPath232)" opacity=".14999"><g id="g258"><g id="g256"><g id="g254"><g id="g252"><path id="path250" d="m64.767 42.343-2.732 0.206c-1.078 0.078-2.159 0.121-3.241 0.121-2.591 2e-3 -5.179-0.229-7.681-0.65 3.106-2.196 6.515-6.868 8.344-13.064-3e-3 2e-3 -4e-3 3e-3 -6e-3 5e-3 0 0 1e-3 -5e-3 2e-3 -7e-3 -8e-3 8e-3 -0.017 0.015-0.025 0.023 1.382-1.338 2.389-3.188 2.373-5.19 0-1.146-0.315-2.206-0.76-3.08-0.272-0.54-0.591-1.02-0.936-1.458-0.188-3.885-0.818-10.165-5.055-16.066 8.713 4.33 14.702 13.319 14.702 23.71 0 5.769-1.852 11.103-4.985 15.45" fill="url(#linearGradient248)"/></g></g></g></g></g><g id="g336" transform="matrix(1.3333,0,0,-1.3333,-22.434,71.149)" clip-path="url(#clipPath270)" opacity=".17"><g id="g324"><g id="g322"><g id="g320" clip-path="url(#clipPath274)" opacity=".75"><g id="g318"/></g></g></g><g id="g334"><g id="g332"><g id="g330"><g id="g328"><path id="path326" d="m51.225 41.918c5.122-3.815 7.492-10.527 8.204-12.958-2.023 1.953-4.725 3.26-7.044 4.098-2.323 0.841-4.631 1.404-6.574 1.91-3.574 0.93-6.149 1.525-8.827 2.068 1.613 0.976 3.452 1.876 5.455 2.643 2.653 1.025 5.585 1.829 8.647 2.345 0 0 0.092-0.064 0.139-0.106" fill="url(#linearGradient306)"/></g></g></g></g></g></g><g id="g348" transform="matrix(1.3333,0,0,-1.3333,-22.434,71.149)"><g id="g350"><path id="path360" d="m74.004 22.678v-11.862h69.236l2.692 11.862z" fill="url(#linearGradient358)"/></g></g><g id="g370" transform="matrix(1.3333 0 0 -1.3333 207.97 40.983)" fill="#fff"><path id="path372" d="m0 0-24.856-6e-3 -2.479-11.719h27.335z" fill="#fff"/></g><g id="g1320" transform="matrix(1.3333,0,0,-1.3333,-22.434,71.149)"><g id="g374" transform="translate(154.83,15.979)"><path id="path376" d="m0 0h-3.573l-0.681-3.211h-3.179l1.708 8.048h3.179l-0.596-2.807h3.574l0.595 2.807h3.179l-1.708-8.048h-3.179z"/></g><g id="g378" transform="translate(162.5,14.797)"><path id="path380" d="m0 0h1.826c1.455 0 2.194 0.72 2.465 1.995 0.27 1.274-0.164 1.995-1.618 1.995h-1.826zm-1.901 6.019h6.188c2.729 0 3.947-1.059 3.317-4.024-0.6-2.83-2.285-4.024-4.957-4.024h-6.256z"/></g></g><g id="g1314" transform="matrix(1.3333,0,0,-1.3333,-22.434,71.149)" fill="#fff"><g id="g382" transform="translate(84.604,41.99)"><path id="path384" d="m0 0c-0.117-0.31-4.198-11.21-4.198-11.21s-4.093 10.9-4.207 11.21h-5.073c0.275-0.65 7.398-17.214 7.519-17.497h3.48c0.12 0.283 7.243 16.847 7.52 17.497z" fill="#fff"/></g><path id="path386" d="m92.81 24.56h4.891v17.43h-4.891z"/><g id="g388" transform="translate(110.06,35.7)"><path id="path390" d="m0 0 2.247-5.998h-4.494zm-1.753 6.286c-0.124-0.283-7.247-16.845-7.523-17.494h5.073c0.099 0.267 0.735 1.963 0.735 1.963h6.936s0.636-1.696 0.738-1.963h5.04c-0.281 0.649-7.399 17.211-7.522 17.494z" fill="#fff"/></g><g id="g392" transform="translate(147.79,35.7)"><path id="path394" d="m0 0 2.252-5.998h-4.494zm-1.753 6.286c-0.121-0.283-7.241-16.845-7.52-17.494h5.073c0.099 0.267 0.737 1.963 0.737 1.963h6.935s0.633-1.696 0.735-1.963h5.038c-0.279 0.649-7.396 17.211-7.517 17.494z" fill="#fff"/></g><g id="g396" transform="translate(127.65,42.145)"><path id="path398" d="m0 0c-4.414 0-6.56-1.468-6.56-4.486v-2.077c0-1.595 0.642-2.788 1.804-3.351 0.879-0.456 1.895-0.587 4.519-0.587h3.438c1.097 0 1.54-0.427 1.54-1.471v-0.24c0-1.056-0.458-1.505-1.54-1.505h-3.746c-0.558 0-0.939 0.117-1.186 0.375-0.189 0.196-0.285 0.479-0.312 0.839-0.425-0.019-4.008-0.168-4.474-0.183 0.541-3.608 2.333-4.963 6.517-4.963h2.726c4.414 0 6.559 1.478 6.559 4.518v2.074c0 1.596-0.638 2.788-1.801 3.354-0.883 0.456-1.893 0.585-4.522 0.585h-3.438c-1.094 0-1.54 0.428-1.54 1.474v0.237c0 1.057 0.462 1.508 1.54 1.508h3.747c0.56 0 0.938-0.12 1.185-0.379 0.189-0.197 0.288-0.473 0.31-0.825 0.444 0.036 3.998 0.327 4.47 0.365-0.693 3.485-2.424 4.738-6.51 4.738z" fill="#fff"/></g><g id="g400" transform="translate(155.69,41.99)"><path id="path402" d="m0 0v-4.184h6.269v-13.246h4.893v13.246h6.276v4.184z" fill="#fff"/></g></g><g id="g1301" transform="matrix(1.3333,0,0,-1.3333,-22.434,71.149)"><g id="g404" transform="translate(85.843,15.552)"><path id="path406" d="m0 0c0-1.971-1.515-3.004-4.589-3.004-3.06 0-4.619 1.023-4.619 3.004v5.134h3.074v-5.113c0-0.746 0.442-1.086 1.559-1.086 1.104 0 1.515 0.319 1.515 1.086v5.113h3.06z" fill="#fff"/></g><g id="g408" transform="translate(94.92,14.614)"><path id="path410" d="m0 0-0.059-1.917h-7.208v7.988h3.104v-6.071z" fill="#fff"/></g><g id="g412" transform="translate(99.774,18.758)"><path id="path414" d="m0 0v-6.061h-3.104v6.061h-2.75l0.059 1.928h8.502l0.059-1.928z" fill="#fff"/></g><g id="g416" transform="translate(108.34,18.906)"><path id="path418" d="m0 0h-1.162v-1.832h1.133c0.911 0 1.25 0.16 1.25 0.937 0 0.704-0.309 0.895-1.221 0.895m2.765-2.992 2.398-3.217h-3.589l-1.618 2.78h-1.118v-2.78h-3.074v7.988h4.207c2.956 0 4.457-0.799 4.457-2.589 0-1.064-0.603-1.874-1.663-2.182" fill="#fff"/></g><g id="g420" transform="translate(119.46,18.087)"><path id="path422" d="m0 0-0.794-2.237h2.162l-0.78 2.226-0.265 0.852h-0.044zm1.986-4.016h-3.413l-0.486-1.374h-3.25l3.663 7.989h3.677l3.721-7.989h-3.427z" fill="#fff"/></g></g></svg>
