<svg id="d" version="1.1" viewBox="0 0 800 152.6" xmlns="http://www.w3.org/2000/svg">
 <defs id="e">
  <linearGradient id="a" x2="1" gradientTransform="matrix(0 6.9544 6.9544 0 368.45 198.5)" gradientUnits="userSpaceOnUse">
   <stop id="f" stop-color="#2d2e83" offset="0"/>
   <stop id="g" stop-color="#36a9e1" offset="1"/>
  </linearGradient>
  <linearGradient id="b" x2="1" gradientTransform="matrix(0 6.9544 6.9544 0 366.76 198.5)" gradientUnits="userSpaceOnUse">
   <stop id="h" stop-color="#2d2e83" offset="0"/>
   <stop id="i" stop-color="#36a9e1" offset="1"/>
  </linearGradient>
  <clipPath id="c">
   <path id="j" d="m364.15 198.43h36.021v6.872h-36.021z"/>
  </clipPath>
 </defs>
 <g id="k" transform="matrix(22.21 0 0 -22.21 -8087.7 4559.6)">
  <g id="l" clip-path="url(#c)">
   <g id="m" transform="translate(369.26 200.17)">
    <path id="n" d="m0 0c0.567 0.486 0.61 0.954 0.546 1.261-0.201 0.958-1.449 1.132-2.451 1.272-0.131 0.018-0.285 0.04-0.435 0.064-0.196 0.032-0.237 0.297-0.059 0.385 0.242 0.12 0.601 0.262 1.131 0.414 0.777 0.222 1.644 0.387 2.226 0.49-0.246 0.294-0.539 0.547-0.869 0.745-2.677-0.533-3.819-1.12-3.879-1.958-0.037-0.514 0.429-0.739 0.71-0.828 0.29-0.092 0.66-0.143 1.051-0.198 0.609-0.085 1.627-0.227 1.699-0.569 0.029-0.14-0.167-0.326-0.252-0.399-0.672-0.576-2.279-1.058-3.737-1.162 0.263-0.319 0.583-0.59 0.943-0.797 1.375 0.217 2.702 0.702 3.376 1.28" fill="#fff"/>
   </g>
  </g>
 </g>
 <g id="o" transform="matrix(22.21 0 0 -22.21 -8087.7 4559.6)">
  <g id="p">
   <g id="q">
    <g id="r">
     <path id="s" d="m364.15 201.86c0-0.826 0.292-1.584 0.778-2.177 1.462 0.102 3.076 0.586 3.749 1.163 0.085 0.073 0.282 0.259 0.252 0.398-0.071 0.343-1.09 0.485-1.698 0.57-0.392 0.054-0.762 0.106-1.052 0.198-0.28 0.088-0.747 0.314-0.71 0.828 0.061 0.839 1.206 1.426 3.894 1.961-0.519 0.314-1.127 0.495-1.777 0.495-1.898 0-3.436-1.538-3.436-3.436" fill="url(#b)"/>
    </g>
   </g>
  </g>
 </g>
 <g id="t" transform="matrix(22.21 0 0 -22.21 -8087.7 4559.6)">
  <g id="u">
   <g id="v">
    <g id="w">
     <path id="x" d="m367.99 203.56c-0.53-0.152-0.888-0.294-1.13-0.413-0.179-0.089-0.137-0.354 0.058-0.386 0.15-0.025 0.304-0.046 0.435-0.064 1.003-0.14 2.251-0.314 2.451-1.272 0.063-0.307 0.021-0.775-0.546-1.261-0.677-0.58-2.01-1.067-3.39-1.283 0.506-0.291 1.092-0.459 1.717-0.459 1.897 0 3.435 1.538 3.435 3.435 0 0.835-0.298 1.599-0.793 2.195-0.581-0.103-1.455-0.268-2.237-0.492" fill="url(#a)"/>
    </g>
   </g>
  </g>
 </g>
 <g id="y" transform="matrix(22.21 0 0 -22.21 -8087.7 4559.6)">
  <path id="z" d="m374.16 200.07h-0.852l-1.333 3.571h0.845l0.928-2.615 0.927 2.615h0.825z" fill="#162931"/>
  <path id="aa" d="m375.97 203.64h0.783v-3.571h-0.783zm0.894 1.088c0-0.272-0.214-0.495-0.495-0.495-0.289 0-0.509 0.223-0.509 0.495 0 0.279 0.22 0.495 0.509 0.495 0.281 0 0.495-0.216 0.495-0.495" fill="#162931"/>
  <g id="ab" transform="translate(379.49 201.46)">
   <path id="ac" d="m0 0v0.377l-0.687-0.168c-0.605-0.146-0.846-0.3-0.846-0.607 0-0.258 0.227-0.425 0.619-0.425 0.543 0 0.914 0.279 0.914 0.823m0.069-1.388c-0.021 0.091-0.035 0.223-0.048 0.405-0.2-0.335-0.585-0.496-1.086-0.496-0.715 0-1.244 0.342-1.244 1.019 0 0.739 0.57 1.046 1.471 1.234l0.838 0.189c0 0.425-0.261 0.627-0.756 0.627-0.46 0-0.777-0.23-0.983-0.446l-0.453 0.537c0.295 0.328 0.762 0.607 1.464 0.607 1.017 0 1.477-0.53 1.477-1.311v-1.514c0-0.453 0.021-0.718 0.041-0.851z" fill="#162931"/>
  </g>
  <g id="ad" transform="translate(383.24 203.35)">
   <path id="ae" d="m0 0-0.385-0.572c-0.24 0.181-0.515 0.272-0.797 0.272-0.357 0-0.536-0.146-0.536-0.349 0-0.202 0.192-0.286 0.46-0.397l0.31-0.126c0.632-0.258 1.01-0.509 1.01-1.109 0-0.683-0.55-1.109-1.313-1.109-0.57 0-1.079 0.21-1.422 0.509l0.405 0.586c0.261-0.223 0.625-0.39 1.017-0.39 0.316 0 0.55 0.118 0.55 0.404 0 0.258-0.282 0.37-0.667 0.523l-0.316 0.133c-0.591 0.244-0.797 0.544-0.797 0.976 0 0.523 0.447 1.04 1.32 1.04 0.529 0 0.934-0.196 1.161-0.391" fill="#162931"/>
  </g>
  <g id="af" transform="translate(386.42 201.85)">
   <path id="ag" d="m0 0c0 0.746-0.46 1.137-0.983 1.137-0.522 0-0.989-0.391-0.989-1.137s0.467-1.137 0.989-1.137c0.523 0 0.983 0.391 0.983 1.137m0.79 0c0-1.123-0.714-1.876-1.642-1.876-0.461 0-0.825 0.16-1.079 0.439v-1.674h-0.784v4.897h0.743v-0.405c0.254 0.307 0.639 0.488 1.12 0.488 0.928 0 1.642-0.753 1.642-1.869" fill="#162931"/>
  </g>
  <g id="ah" transform="translate(388.29 201.85)">
   <path id="ai" d="m0 0c0-0.746 0.495-1.137 1.031-1.137 0.529 0 1.024 0.391 1.024 1.137s-0.495 1.137-1.024 1.137c-0.536 0-1.031-0.391-1.031-1.137m2.845 0c0-1.123-0.79-1.89-1.814-1.89s-1.821 0.767-1.821 1.89 0.797 1.89 1.821 1.89 1.814-0.767 1.814-1.89" fill="#162931"/>
  </g>
  <g id="aj" transform="translate(393.47 202.92)">
   <path id="ak" d="m0 0c-0.77-0.021-1.21-0.411-1.21-1.297v-1.556h-0.783v3.571h0.749v-0.613c0.172 0.348 0.536 0.655 1.162 0.662z" fill="#162931"/>
  </g>
  <g id="al" transform="translate(395.12 201.31)">
   <path id="am" d="m0 0c0-0.432 0.165-0.586 0.584-0.586 0.069 0 0.138 7e-3 0.179 0.014v-0.669c-0.103-0.028-0.261-0.056-0.44-0.056-0.722 0-1.106 0.328-1.106 1.102v1.848h-0.653v0.677h0.653v1.129h0.783v-1.129h0.797v-0.677h-0.797z" fill="#162931"/>
  </g>
  <g id="an" transform="translate(398.83 202.93)">
   <path id="ao" d="m0 0c0.902-0.076 1.343-0.695 1.343-1.397 0-0.84-0.583-1.556-1.75-1.556-0.658 0-1.33 0.22-1.743 0.709l0.637 0.709c0.238-0.262 0.584-0.503 1.038-0.503 0.495 0 0.787 0.255 0.787 0.654 0 0.379-0.305 0.62-0.767 0.62-0.21 0-0.352-0.041-0.461-0.09l-0.515 0.641 1.173 1.115h-1.689v0.922h3.121v-0.702z" fill="#162931"/>
  </g>
 </g>
</svg>
