<svg width="1300" height="860.6" version="1.1" viewBox="0 0 343.96 227.7" xmlns="http://www.w3.org/2000/svg">
 <defs>
  <linearGradient id="c" x2="1" gradientTransform="matrix(143.78,-171.34,171.34,143.78,4.47,182.65)" gradientUnits="userSpaceOnUse">
   <stop stop-color="#526123" offset="0"/>
   <stop stop-color="#becd0b" offset="1"/>
  </linearGradient>
  <clipPath id="b">
   <path d="m0 0h841.89v595.28h-841.89z"/>
  </clipPath>
 </defs>
 <g transform="matrix(.99999 0 0 .99999 3.0238 -17.597)" stroke-width=".26459">
  <path d="m103.11 17.595v52.664l12.88 33.151-12.88-15.983v0.249l-56.477-70.082h-49.651v158.75h52.621v-73.26l58.967 73.26h47.15v-158.75h-52.61z" fill="url(#c)"/>
  <path d="m-3.0208 182.54h158.75v30.92h-158.75l0.0012-30.92z" fill="#9d9d9c"/>
  <path d="m90.227 196.78c-0.93-0.48-2.01-0.63-4.82-0.63h-3.661c-1.17 0-1.65-0.47-1.65-1.58v-0.23c0-0.06 0-0.11 0.01-0.16 0.05-1 0.55-1.44 1.64-1.44h3.991c0.53 0 0.94 0.11 1.2 0.32 0.03 0.02 0.05 0.05 0.06 0.06 0.21 0.21 0.32 0.5 0.34 0.88 0.47-0.03 4.25-0.34 4.76-0.38-0.1-0.47-0.21-0.91-0.33-1.29-0.92-2.72-2.81-3.74-6.61-3.74h-2.911c-4.69 0-6.99 1.56-6.99 4.78v2.2c0 1.69 0.69 2.96 1.93 3.56 0.94 0.5 2.02 0.63 4.81 0.63h3.671c1.17 0 1.65 0.46 1.65 1.57v0.26c0 1.11-0.49 1.61-1.65 1.61h-3.991c-0.6 0-1.01-0.13-1.27-0.41-0.19-0.22-0.31-0.51-0.32-0.91-0.46 0.03-4.29 0.19-4.79 0.21 0.57 3.84 2.49 5.29 6.95 5.29h2.911c4.71 0 6.99-1.58 6.99-4.83v-2.2c0-1.7-0.67-2.97-1.92-3.57m40.513-8.03h-18.6v4.45h6.68v14.11h5.22v-14.11h6.7zm-69.646 13.09 2.4-6.39 2.401 6.39zm4.231-13.09h-3.701l-8.031 18.64h5.411l0.79-2.1h7.401l0.78 2.1h5.36zm36.025 13.09 2.38-6.41 2.4 6.41zm4.22-13.09h-3.7l-8.032 18.64h5.41l0.782-2.1h7.4l0.79 2.1h5.37zm-73.703 11.95-4.49-11.95h-5.41l8.014 18.64h3.714l8.027-18.64h-5.381l-4.473 11.95zm13.235 6.61h5.221v-18.56h-5.221z" fill="#fff"/>
  <g fill="#526023">
   <path d="m-3.0238 219.62h5.1335l11.846 15.57v-15.57h5.484v25.28h-4.724l-12.255-16.07v16.07h-5.4838v-25.28z"/>
   <path d="m41.852 234.36-3.37-8.2-3.361 8.2zm-5.871-14.93h5.151l10.841 25.48h-5.821l-2.31-5.68h-10.695l-2.325 5.68h-5.66z"/>
   <path d="m60.304 224.75h-7.691v-5.13h20.942v5.13h-7.69v20.15h-5.561z"/>
   <path d="m90.187 245.3c-3.39 0-6.07-0.93-8.031-2.83-1.94-1.89-2.92-4.68-2.92-8.4v-14.44h5.571v14.3c0 2.07 0.48 3.64 1.45 4.66 0.95 1.06 2.29 1.58 4 1.58s3.051-0.5 4.011-1.5c0.97-1.03 1.45-2.53 1.45-4.57v-14.47h5.572v14.25c0 1.92-0.26 3.59-0.78 5.02-0.522 1.43-1.272 2.62-2.222 3.57-0.98 0.95-2.13 1.66-3.49 2.13s-2.901 0.7-4.611 0.7"/>
   <path d="m119.96 231.94c1.37 0 2.42-0.33 3.16-0.98 0.74-0.66 1.11-1.53 1.11-2.62v-0.07c0-1.2-0.4-2.12-1.17-2.72-0.76-0.6-1.83-0.91-3.21-0.91h-5.52v7.3zm-11.2-12.33h11.56c3.2 0 5.66 0.87 7.37 2.58 1.43 1.45 2.17 3.38 2.17 5.77v0.08c0 2.04-0.5 3.71-1.5 5.01-1 1.27-2.31 2.23-3.91 2.82l6.17 9.04h-6.51l-5.41-8.1h-4.37v8.1h-5.57z"/>
   <path d="m136.51 219.62h19.04v4.94h-13.56v5.15h11.93v4.94h-11.93v5.31h13.73v4.94h-19.21z"/>
  </g>
 </g>
 <g transform="matrix(.89591 0 0 .89591 -186.8 193.05)" fill="#fff">
  <g transform="translate(432.21 -134.18)">
   <path transform="matrix(.26458 0 0 .26458 -19.617 -59.908)" d="m9.957 9.3301v671.63h661.84v-671.63z"/>
   <g transform="matrix(12.763 0 0 -12.763 -16.872 148.47)">
    <path d="m0 0v1.538h0.701c0.418 0 0.62-0.202 0.62-0.518 0-0.332-0.186-0.542-0.604-0.542h-0.24v-0.478zm0.675 0.838c0.111 0 0.192 0.046 0.192 0.179 0 0.143-0.154 0.162-0.255 0.162h-0.135v-0.341h0.198" fill="#fff"/>
   </g>
   <g transform="matrix(12.763 0 0 -12.763 1.7177 148.47)">
    <path d="m0 0v1.538h0.477v-1.179h0.654v-0.359z" fill="#fff"/>
   </g>
   <g transform="matrix(12.763 0 0 -12.763 16.724 148.47)">
    <path d="m0 0 0.521 1.538h0.485l0.521-1.538h-0.474l-0.057 0.202h-0.475l-0.055-0.202zm0.759 1.075-0.147-0.552h0.301z" fill="#fff"/>
   </g>
   <g transform="matrix(12.763 0 0 -12.763 47.173 148.47)">
    <path d="m0 0h-0.477v0.56l-0.541 0.978h0.533l0.251-0.521 0.25 0.521h0.526l-0.542-0.97z" fill="#fff"/>
   </g>
   <g transform="matrix(12.763 0 0 -12.763 64.548 148.47)">
    <path d="m0 0c0.378 0 0.626 0.119 0.626 0.464 0 0.166-0.084 0.309-0.242 0.353 0.093 0.061 0.19 0.176 0.19 0.334 0 0.306-0.261 0.387-0.588 0.387h-0.695v-1.538zm-0.065 1.179c0.102 0 0.195-1e-3 0.195-0.122 0-0.089-0.069-0.134-0.164-0.134h-0.198v0.256zm-0.016-0.536c0.152 0 0.263-9e-3 0.263-0.143 0-0.115-0.089-0.141-0.206-0.141h-0.208v0.284h0.151" fill="#fff"/>
   </g>
   <g transform="matrix(12.763 0 0 -12.763 83.911 128.32)">
    <path d="m0 0c-0.452 0-0.761-0.314-0.761-0.797 0-0.524 0.305-0.823 0.761-0.823 0.43 0 0.763 0.295 0.763 0.818 0 0.407-0.244 0.802-0.763 0.802m-4e-3 -0.376c0.21 6e-3 0.291-0.216 0.291-0.426 0-0.254-0.081-0.442-0.287-0.442-0.228 0-0.285 0.246-0.285 0.442 0 0.195 0.065 0.426 0.281 0.426" fill="#fff"/>
   </g>
   <g transform="matrix(12.763 0 0 -12.763 107.21 148.47)">
    <path d="m0 0h-0.477v0.56l-0.541 0.978h0.533l0.251-0.521 0.251 0.521h0.525l-0.542-0.97z" fill="#fff"/>
   </g>
   <g transform="matrix(12.763 0 0 -12.763 123.45 128.84)">
    <path d="m0 0h1.333v-0.404h-0.428v-1.134h-0.477v1.134h-0.428z" fill="#fff"/>
   </g>
   <g transform="matrix(12.763 0 0 -12.763 141.32 128.84)">
    <path d="m0 0h0.481l0.254-1.024 0.265 1.024h0.48l-0.504-1.538h-0.479z" fill="#fff"/>
   </g>
  </g>
  <g transform="matrix(12.763 0 0 -12.763 -7658.6 4048.5)">
   <g clip-path="url(#b)" fill="#fff">
    <path transform="matrix(.020731 0 0 -.020731 662.37 323.53)" d="m-1312.6-416.75c29.35 71.728 82.761 134.38 144.26 192.92 68.447 59.475 153.29 82.145 232.16 116.1-89.286 7.0907-172.64 25.518-236.65 89.238-44.619 39.65-69.894 102.6-55.037 151.56 18.759 54.576 103.16 96.468 170.29 116.23h281.39v-666.05h-4.3691c-19.165 27.93-34.395 57.424-44.018 88.1-28.266 66.566-25.324 144.47-29.762 219.52-70.514-108.58-163-219.94-270.98-307.62zm241.36 387.36c18.531-0.20145 37.31 9.1231 44.281 27.928 4.486 15.58 4e-4 33.957-11.914 45.293-13.41 11.336-32.753 15.581-49.106 8.4902-16.352-7.0425-25.276-22.623-26.772-38.203 0-18.426 10.42-35.454 28.268-41.098 4.8854-1.5511 10.054-2.3538 15.242-2.4102z" fill="#231f20"/>
   </g>
  </g>
 </g>
</svg>
