<svg id="b" width="767.47" height="432.82" version="1.1" viewBox="0 0 203.06 114.52" xmlns="http://www.w3.org/2000/svg">
 <defs id="c">
  <clipPath id="a">
   <path id="d" d="m571.75 412.62h18.495v10.43h-18.495z"/>
  </clipPath>
 </defs>
 <g id="e" transform="translate(-47.67 82.787)">
  <path id="f" d="m47.67 31.731h203.06v-114.52h-203.06z" fill="#515253"/>
  <g id="g">
   <g id="h" transform="matrix(10.98 0 0 -10.98 91.098 3.0392)">
    <path id="i" d="m0 0-2.18 5.204h1.266l1.389-3.513 1.418 3.513h1.262l-2.227-5.204z" fill="#fff"/>
   </g>
   <g id="j" transform="matrix(10.98 0 0 -10.98 -6230 4562.1)">
    <g id="k" clip-path="url(#a)">
     <g id="l" transform="translate(581.18 419.37)">
      <path id="m" d="m0 0c-0.33 0-0.633-0.094-0.901-0.28-0.268-0.185-0.462-0.435-0.576-0.744-0.064-0.176-0.097-0.357-0.097-0.539 0-0.374 0.126-0.713 0.375-1.007 0.309-0.366 0.712-0.552 1.199-0.552 0.486 0 0.891 0.184 1.203 0.547 0.249 0.29 0.375 0.631 0.375 1.012 0 0.391-0.127 0.733-0.376 1.017-0.319 0.362-0.724 0.546-1.202 0.546m0-4.246c-0.881 0-1.59 0.297-2.107 0.882-0.453 0.514-0.683 1.12-0.683 1.801 0 0.312 0.063 0.635 0.185 0.962 0.123 0.327 0.289 0.611 0.494 0.844 0.517 0.584 1.227 0.881 2.111 0.881s1.594-0.297 2.11-0.881c0.454-0.515 0.683-1.122 0.683-1.806 0-0.681-0.229-1.287-0.683-1.801-0.516-0.585-1.226-0.882-2.11-0.882" fill="#fff"/>
     </g>
     <g id="n" transform="translate(587.07 415.23)">
      <path id="o" d="m0 0-1.22 1.852-1.251-1.852h-1.401l1.999 2.764-1.69 2.44h1.433l0.914-1.545 0.932 1.545h1.429l-1.7-2.438 1.955-2.766z" fill="#fff"/>
     </g>
    </g>
   </g>
  </g>
 </g>
</svg>
