<svg width="800" height="350.74" version="1.1" viewBox="0 0 211.67 92.8" xmlns="http://www.w3.org/2000/svg">
 <g transform="translate(232.83 -35.153)">
  <g transform="matrix(.35278 0 0 -.35278 -197.63 492.29)" fill="#39b54a">
   <path d="m46.772 1295.8-30.355-55.569-29.741 55.569h-82.413l72.005-124.21-76.067-132.8v-0.063l80.023 0.063 35.347 64.962 35.791-65.025 82.096 0.021-77.653 133.88 70.652 123.18z"/>
   <path d="m181.34 1138.3c1.9038 7.1498 4.8864 12.523 8.9478 16.098 4.0403 3.5749 10.598 5.3729 19.672 5.3729 9.0536 0 15.611-1.798 19.672-5.3729 4.0614-3.5749 7.044-8.9478 8.9478-16.098zm113.59 14.659c-5.3729 13.115-12.417 23.797-21.111 32.026-8.7151 8.2286-18.615 14.13-29.699 17.705s-22.486 5.3729-34.162 5.3729c-15.273 0-28.853-2.2211-40.783-6.6209-11.93-4.421-21.999-10.556-30.228-18.424-8.2286-7.869-14.553-17.176-18.953-27.901-4.421-10.725-6.621-22.317-6.621-34.712 0-12.628 2.1999-24.263 6.621-34.882 4.3999-10.598 10.725-19.842 18.953-27.711s18.298-14.025 30.228-18.424c11.93-4.4211 25.511-6.621 40.783-6.621 17.896 0 33.38 3.1095 46.516 9.3074 13.094 6.1979 25.024 15.611 35.77 28.261l-50.091 25.045c-2.623-2.6442-5.1402-4.9076-7.5094-6.8114-2.3903-1.9037-4.8229-3.3845-7.3402-4.4633-2.4961-1.0788-5.1191-1.8615-7.869-2.3268-2.7499-0.4866-5.9017-0.7192-9.4766-0.7192-7.1498 0-13.475 2.3268-18.953 6.9805-5.4998 4.6537-8.7151 10.069-9.667 16.267h121.63c0 19.334-2.6865 35.537-8.0382 48.652"/>
   <path d="m387.52 1154.4c4.0614 3.5749 10.619 5.3729 19.672 5.3729 9.0747 0 15.611-1.798 19.672-5.3729s7.044-8.9478 8.9478-16.098h-57.241c1.9038 7.1498 4.8864 12.523 8.9478 16.098m44.358-65.829c-2.3903-1.9038-4.8229-3.3846-7.3402-4.4634-2.4961-1.0788-5.1191-1.8614-7.869-2.3268-2.7288-0.4865-5.9017-0.7192-9.4766-0.7192-7.1498 0-13.475 2.3268-18.953 6.9805-5.4998 4.6537-8.7151 10.069-9.667 16.267h121.63c0 19.334-2.6864 35.537-8.0382 48.652-5.3729 13.115-12.417 23.797-21.111 32.026-8.7151 8.2286-18.594 14.13-29.699 17.705-11.084 3.5749-22.486 5.373-34.162 5.373-15.251 0-28.853-2.2211-40.783-6.621-11.93-4.421-21.999-10.555-30.228-18.424s-14.553-17.176-18.953-27.901c-4.421-10.746-6.621-22.317-6.621-34.712 0-12.628 2.1999-24.263 6.621-34.882 4.3999-10.598 10.725-19.842 18.953-27.711s18.298-14.025 30.228-18.424c11.93-4.421 25.532-6.621 40.783-6.621 17.896 0 33.401 3.1096 46.516 9.3074 13.115 6.1979 25.045 15.611 35.77 28.261l-50.091 25.045c-2.623-2.6442-5.1191-4.9076-7.5094-6.8113"/>
  </g>
 </g>
</svg>
