<?xml version="1.0" encoding="UTF-8"?>
<!-- Created with Inkscape (http://www.inkscape.org/) -->
<svg id="svg51777" width="800" height="297.13" version="1.1" viewBox="0 0 211.67 78.616" xmlns="http://www.w3.org/2000/svg" xmlns:cc="http://creativecommons.org/ns#" xmlns:dc="http://purl.org/dc/elements/1.1/" xmlns:rdf="http://www.w3.org/1999/02/22-rdf-syntax-ns#">
 <metadata id="metadata51774">
  <rdf:RDF>
   <cc:Work rdf:about="">
    <dc:format>image/svg+xml</dc:format>
    <dc:type rdf:resource="http://purl.org/dc/dcmitype/StillImage"/>
    <dc:title/>
   </cc:Work>
  </rdf:RDF>
 </metadata>
 <g id="layer1" transform="translate(23.693 -72.7)">
  <g id="g6148" transform="matrix(5.5855 0 0 -5.5855 171.45 135.7)">
   <path id="path6150" d="m0 0v-2.729h0.687v1.902c0.083 0.099 0.3 0.305 0.574 0.305 0.29 0 0.43-0.175 0.43-0.584v-1.623h0.687v1.83c0 0.594-0.29 0.961-0.863 0.961-0.383 0-0.688-0.196-0.885-0.423l-0.057 0.361zm-2.332-1.101c0.01 0.222 0.145 0.647 0.6 0.647 0.388 0 0.512-0.3 0.512-0.647zm1.473-0.894c-0.304-0.161-0.527-0.233-0.801-0.233-0.465 0-0.646 0.258-0.678 0.631h1.763c6e-3 0.047 0.011 0.274 0.011 0.336 0 0.884-0.419 1.323-1.173 1.323-0.812 0-1.324-0.568-1.324-1.447 0-0.916 0.496-1.411 1.318-1.411 0.414 0 0.786 0.113 1.107 0.351zm-2.802 2.988h-0.687v-3.722h0.687zm-1.375-1.934c0 0.709-0.398 1.003-1.08 1.003-0.409 0-0.817-0.16-1.112-0.392l0.233-0.414c0.263 0.155 0.475 0.259 0.806 0.259 0.295 0 0.466-0.14 0.466-0.466v-0.202c-0.129 0.016-0.233 0.021-0.388 0.021-0.936 0-1.246-0.429-1.246-0.863 0-0.533 0.351-0.801 0.842-0.801 0.383 0 0.663 0.144 0.859 0.433l0.072-0.366h0.548zm-0.687-0.739c0-0.284-0.223-0.61-0.58-0.61-0.243 0-0.372 0.103-0.372 0.305 0 0.305 0.253 0.404 0.626 0.404 0.14 0 0.248-0.011 0.326-0.026zm-4.555 1.68v-2.729h0.687v1.902c0.083 0.099 0.3 0.305 0.574 0.305 0.29 0 0.43-0.175 0.43-0.584v-1.623h0.687v1.83c0 0.594-0.29 0.961-0.863 0.961-0.383 0-0.688-0.196-0.885-0.423l-0.057 0.361zm-0.673-0.941c0 0.709-0.397 1.003-1.08 1.003-0.408 0-0.817-0.16-1.111-0.392l0.232-0.414c0.264 0.155 0.476 0.259 0.807 0.259 0.295 0 0.466-0.14 0.466-0.466v-0.202c-0.13 0.016-0.233 0.021-0.389 0.021-0.935 0-1.245-0.429-1.245-0.863 0-0.533 0.351-0.801 0.842-0.801 0.383 0 0.662 0.144 0.859 0.433l0.072-0.366h0.547zm-0.686-0.739c0-0.284-0.223-0.61-0.58-0.61-0.243 0-0.372 0.103-0.372 0.305 0 0.305 0.253 0.404 0.626 0.404 0.139 0 0.248-0.011 0.326-0.026zm-3.698 2.673h-0.687v-3.722h0.687v1.22h0.29l0.724-1.22h0.801l-0.936 1.519 0.812 1.21h-0.755l-0.6-0.941h-0.336zm-2.057-0.993h-0.548v-2.729h0.687v1.809c0.088 0.15 0.28 0.336 0.486 0.336 0.099 0 0.171-0.01 0.259-0.036l0.052 0.62c-0.078 0.036-0.171 0.062-0.269 0.062-0.254 0-0.476-0.201-0.605-0.454zm-2.88-1.101c0.01 0.222 0.145 0.647 0.6 0.647 0.388 0 0.512-0.3 0.512-0.647zm1.474-0.894c-0.305-0.161-0.527-0.233-0.801-0.233-0.466 0-0.647 0.258-0.678 0.631h1.763c5e-3 0.047 0.01 0.274 0.01 0.336 0 0.884-0.418 1.323-1.173 1.323-0.812 0-1.323-0.568-1.323-1.447 0-0.916 0.496-1.411 1.318-1.411 0.414 0 0.786 0.113 1.106 0.351zm-2.803 2.988h-0.687v-3.722h0.687zm-1.427-0.993h-0.682v-2.729h0.682zm-0.738 0.698c0-0.222 0.181-0.346 0.408-0.346 0.243 0 0.413 0.124 0.413 0.346 0 0.233-0.17 0.357-0.413 0.357-0.227 0-0.408-0.124-0.408-0.357m-0.647-1.639c0 0.709-0.398 1.003-1.08 1.003-0.409 0-0.817-0.16-1.112-0.392l0.233-0.414c0.263 0.155 0.475 0.259 0.806 0.259 0.295 0 0.466-0.14 0.466-0.466v-0.202c-0.129 0.016-0.233 0.021-0.388 0.021-0.936 0-1.246-0.429-1.246-0.863 0-0.533 0.352-0.801 0.842-0.801 0.383 0 0.663 0.144 0.859 0.433l0.073-0.366h0.547zm-0.687-0.739c0-0.284-0.222-0.61-0.579-0.61-0.244 0-0.373 0.103-0.373 0.305 0 0.305 0.254 0.404 0.626 0.404 0.14 0 0.248-0.011 0.326-0.026zm-2.818 1.68h-0.548v-2.729h0.687v1.809c0.088 0.15 0.28 0.336 0.486 0.336 0.099 0 0.171-0.01 0.259-0.036l0.052 0.62c-0.078 0.036-0.171 0.062-0.269 0.062-0.254 0-0.476-0.201-0.605-0.454zm-1.065-0.516v0.516h-0.491v0.781h-0.6l-0.072-0.786-0.367-0.114v-0.397h0.357v-1.671c0-0.387 0.196-0.609 0.604-0.609 0.207 0 0.46 0.041 0.641 0.103l-0.067 0.47c-0.078-0.026-0.238-0.047-0.321-0.047-0.124 0-0.175 0.062-0.175 0.223v1.531z" fill="#71bf4b"/>
  </g>
  <g id="g6152" transform="matrix(5.5855 0 0 -5.5855 176.33 97.857)" fill="#fff">
   <path id="path6154" d="m0 0h-2.008c0 0.146 0.111 0.939 1.004 0.939s1.004-0.793 1.004-0.939m-1.004-2.203c-0.576 0-0.961 0.453-1.015 1.09h4.104c0 2.182-0.864 3.425-3.089 3.425-2.106 0-3.056-1.388-3.056-2.944 0-1.555 0.95-2.943 3.056-2.943 1.274 0 2.539 0.561 2.971 1.771h-1.999c-0.034-0.05-0.234-0.399-0.972-0.399m-5.325 2.203h-2.008c0 0.146 0.111 0.939 1.004 0.939s1.004-0.793 1.004-0.939m-1.004-2.203c-0.576 0-0.961 0.453-1.016 1.09h4.105c0 2.182-0.864 3.425-3.089 3.425-2.106 0-3.057-1.388-3.057-2.944 0-1.555 0.951-2.943 3.057-2.943 1.274 0 2.538 0.561 2.97 1.771h-1.998c-0.035-0.05-0.235-0.399-0.972-0.399m-19.548 0.183h-2e-3 -1e-3c-0.7 1e-3 -0.917 0.589-0.917 1.388s0.217 1.387 0.917 1.388h1e-3 2e-3c0.699-1e-3 0.917-0.589 0.917-1.388s-0.218-1.387-0.917-1.388m-2e-3 4.332c-2.106 0-3.056-1.388-3.056-2.944 0-1.555 0.95-2.943 3.056-2.943s3.057 1.388 3.057 2.943c0 1.556-0.951 2.944-3.057 2.944m9.116-5.747h-2.063v0.713c-0.399-0.561-0.993-0.853-1.847-0.853-1.004 0-1.923 0.616-1.923 1.901v3.845h2.139v-2.959c0-0.612 0.076-1.081 0.702-1.081 0.368 0 0.854 0.184 0.854 1.081v2.959h2.138zm-13.916-0.324c0.512 1.385 2.193 5.93 2.193 5.93h-2.198l-1.008-3.257-0.842 3.257h-2.273l2.029-5.327c-0.23-0.553-0.51-0.643-0.82-0.643-0.158 0-0.467 0.044-0.467 0.044v-1.463s0.656-0.163 1.065-0.163c1.045 0 1.944 0.601 2.321 1.622m16.519 2.971c0-0.441 0.102-1.081 1.221-1.081 0.389 0 0.983 0.13 0.983 0.703 0 0.399-0.335 0.507-1.663 0.885-1.221 0.346-2.615 0.681-2.615 2.236 0 1.781 1.523 2.549 3.111 2.549 1.674 0 3.154-0.637 3.219-2.517h-2.247s9e-3 0.068 9e-3 0.11c0 0.445-0.478 0.701-0.991 0.701-0.324 0-0.854-0.087-0.854-0.519 0.043-0.551 1.145-0.67 2.236-0.972 1.091-0.303 2.171-0.811 2.171-2.225 0-2.009-1.847-2.657-3.564-2.657-0.9 0-3.392 0.333-3.392 2.787z" fill="#fff"/>
  </g>
 </g>
</svg>
