<?xml version="1.0" encoding="UTF-8"?>
<!-- Created with Inkscape (http://www.inkscape.org/) -->
<svg id="svg51777" width="800" height="297.09" version="1.1" viewBox="0 0 211.67 78.605" xmlns="http://www.w3.org/2000/svg" xmlns:cc="http://creativecommons.org/ns#" xmlns:dc="http://purl.org/dc/elements/1.1/" xmlns:rdf="http://www.w3.org/1999/02/22-rdf-syntax-ns#">
 <metadata id="metadata51774">
  <rdf:RDF>
   <cc:Work rdf:about="">
    <dc:format>image/svg+xml</dc:format>
    <dc:type rdf:resource="http://purl.org/dc/dcmitype/StillImage"/>
    <dc:title/>
   </cc:Work>
  </rdf:RDF>
 </metadata>
 <g id="layer1" transform="translate(23.693 -72.711)">
  <g id="g1064">
   <g id="g4620" transform="matrix(5.5855 0 0 -5.5855 7.1026 141.84)">
    <path id="path4622" d="m0 0c0 0.346-0.124 0.646-0.512 0.646-0.455 0-0.59-0.424-0.6-0.646zm0.584-1.344c-0.32-0.239-0.693-0.352-1.106-0.352-0.823 0-1.319 0.496-1.319 1.411 0 0.879 0.512 1.448 1.324 1.448 0.755 0 1.174-0.439 1.174-1.324 0-0.062-6e-3 -0.289-0.011-0.336h-1.763c0.031-0.372 0.212-0.63 0.677-0.63 0.275 0 0.497 0.072 0.802 0.232z" fill="#71bf4b"/>
   </g>
   <g id="g4624" transform="matrix(5.5855 0 0 -5.5855 17.756 140.95)">
    <path id="path4626" d="m0 0h0.336l0.6 0.941h0.755l-0.812-1.21 0.936-1.52h-0.802l-0.723 1.22h-0.29v-1.22h-0.688v3.723h0.688z" fill="#71bf4b"/>
   </g>
   <g id="g4628" transform="matrix(5.5855 0 0 -5.5855 30.953 146.35)">
    <path id="path4630" d="m0 0c0.258-0.196 0.6-0.352 0.864-0.352 0.248 0 0.382 0.109 0.382 0.28 0 0.181-0.093 0.263-0.543 0.377-0.589 0.15-0.837 0.372-0.837 0.822 0 0.528 0.413 0.843 1.034 0.843 0.434 0 0.801-0.155 1.086-0.414l-0.306-0.397c-0.258 0.185-0.511 0.289-0.749 0.289-0.254 0-0.378-0.088-0.378-0.243 0-0.202 0.181-0.259 0.595-0.377 0.579-0.166 0.843-0.358 0.843-0.812 0-0.58-0.43-0.905-1.091-0.905-0.502 0-0.926 0.207-1.205 0.475z" fill="#71bf4b"/>
   </g>
   <g id="g4632" transform="matrix(5.5855 0 0 -5.5855 49.925 138.58)">
    <path id="path4634" d="m0 0v-1.531c0-0.16 0.052-0.222 0.176-0.222 0.082 0 0.243 0.021 0.32 0.046l0.067-0.47c-0.18-0.062-0.434-0.103-0.641-0.103-0.408 0-0.605 0.222-0.605 0.61v1.67h-0.356v0.398l0.367 0.114 0.072 0.785h0.6v-0.78h0.491v-0.517z" fill="#71bf4b"/>
   </g>
   <g id="g4636" transform="matrix(5.5855 0 0 -5.5855 58.961 137.89)">
    <path id="path4638" d="m0 0c0.129 0.253 0.352 0.455 0.605 0.455 0.098 0 0.191-0.026 0.269-0.057l-0.052-0.626c-0.088 0.026-0.16 0.037-0.258 0.037-0.207 0-0.399-0.186-0.486-0.336v-1.81h-0.688v2.73h0.548z" fill="#71bf4b"/>
   </g>
   <g id="g4640" transform="matrix(5.5855 0 0 -5.5855 74.373 144.67)">
    <path id="path4642" d="m0 0c-0.078 0.015-0.186 0.026-0.326 0.026-0.372 0-0.625-0.099-0.625-0.404 0-0.201 0.129-0.305 0.372-0.305 0.357 0 0.579 0.326 0.579 0.61zm0.688-1.122h-0.548l-0.073 0.367c-0.196-0.29-0.475-0.434-0.858-0.434-0.491 0-0.843 0.268-0.843 0.801 0 0.434 0.31 0.863 1.246 0.863 0.155 0 0.259-5e-3 0.388-0.02v0.201c0 0.326-0.17 0.466-0.465 0.466-0.331 0-0.543-0.104-0.807-0.259l-0.233 0.414c0.295 0.233 0.704 0.393 1.112 0.393 0.683 0 1.081-0.295 1.081-1.003z" fill="#71bf4b"/>
   </g>
   <g id="g4644" transform="matrix(5.5855 0 0 -5.5855 85.806 140.95)">
    <path id="path4646" d="m0 0h0.336l0.6 0.941h0.755l-0.812-1.21 0.936-1.52h-0.802l-0.723 1.22h-0.29v-1.22h-0.688v3.723h0.688z" fill="#71bf4b"/>
   </g>
   <g id="g4648" transform="matrix(5.5855 0 0 -5.5855 106.74 144.67)">
    <path id="path4650" d="m0 0c-0.078 0.015-0.186 0.026-0.326 0.026-0.372 0-0.625-0.099-0.625-0.404 0-0.201 0.129-0.305 0.372-0.305 0.357 0 0.579 0.326 0.579 0.61zm0.688-1.122h-0.548l-0.072 0.367c-0.197-0.29-0.476-0.434-0.859-0.434-0.491 0-0.843 0.268-0.843 0.801 0 0.434 0.31 0.863 1.246 0.863 0.155 0 0.259-5e-3 0.388-0.02v0.201c0 0.326-0.171 0.466-0.465 0.466-0.331 0-0.543-0.104-0.807-0.259l-0.233 0.414c0.295 0.233 0.704 0.393 1.112 0.393 0.683 0 1.081-0.295 1.081-1.003z" fill="#71bf4b"/>
   </g>
   <g id="g4652" transform="matrix(5.5855 0 0 -5.5855 117.54 135.69)">
    <path id="path4654" d="m0 0 0.057-0.362c0.196 0.228 0.502 0.424 0.884 0.424 0.574 0 0.864-0.367 0.864-0.962v-1.83h-0.688v1.623c0 0.409-0.14 0.585-0.429 0.585-0.274 0-0.492-0.207-0.574-0.305v-1.903h-0.688v2.73z" fill="#71bf4b"/>
   </g>
   <g id="g4656" transform="matrix(5.5855 0 0 -5.5855 139.78 144.67)">
    <path id="path4658" d="m0 0c-0.078 0.015-0.186 0.026-0.326 0.026-0.372 0-0.625-0.099-0.625-0.404 0-0.201 0.129-0.305 0.372-0.305 0.357 0 0.579 0.326 0.579 0.61zm0.688-1.122h-0.548l-0.073 0.367c-0.196-0.29-0.476-0.434-0.858-0.434-0.491 0-0.843 0.268-0.843 0.801 0 0.434 0.31 0.863 1.246 0.863 0.155 0 0.259-5e-3 0.388-0.02v0.201c0 0.326-0.171 0.466-0.465 0.466-0.331 0-0.543-0.104-0.807-0.259l-0.233 0.414c0.295 0.233 0.704 0.393 1.112 0.393 0.683 0 1.081-0.295 1.081-1.003z" fill="#71bf4b"/>
   </g>
   <path id="path4660" d="m147.46 130.15h3.8428v20.795h-3.8428z" fill="#71bf4b"/>
   <g id="g4662" transform="matrix(5.5855 0 0 -5.5855 164.93 141.84)">
    <path id="path4664" d="m0 0c0 0.346-0.124 0.646-0.512 0.646-0.455 0-0.59-0.424-0.6-0.646zm0.584-1.344c-0.321-0.239-0.693-0.352-1.106-0.352-0.822 0-1.319 0.496-1.319 1.411 0 0.879 0.512 1.448 1.324 1.448 0.755 0 1.174-0.439 1.174-1.324 0-0.062-6e-3 -0.289-0.011-0.336h-1.763c0.031-0.372 0.212-0.63 0.677-0.63 0.274 0 0.497 0.072 0.802 0.232z" fill="#71bf4b"/>
   </g>
   <g id="g4666" transform="matrix(5.5855 0 0 -5.5855 174.95 135.69)">
    <path id="path4668" d="m0 0 0.057-0.362c0.196 0.228 0.502 0.424 0.884 0.424 0.574 0 0.864-0.367 0.864-0.962v-1.83h-0.688v1.623c0 0.409-0.14 0.585-0.429 0.585-0.274 0-0.492-0.207-0.574-0.305v-1.903h-0.688v2.73z" fill="#71bf4b"/>
   </g>
  </g>
  <g id="g4670" transform="matrix(5.5855 0 0 -5.5855 176.33 97.868)" fill="#fff">
   <path id="path4672" d="m0 0h-2.008c0 0.146 0.111 0.94 1.004 0.94s1.004-0.794 1.004-0.94m-1.004-2.203c-0.576 0-0.961 0.453-1.015 1.09h4.104c0 2.182-0.864 3.425-3.089 3.425-2.106 0-3.056-1.388-3.056-2.944 0-1.555 0.95-2.943 3.056-2.943 1.274 0 2.539 0.561 2.971 1.771h-1.999c-0.035-0.05-0.234-0.399-0.972-0.399m-5.325 2.203h-2.008c0 0.146 0.111 0.94 1.004 0.94s1.004-0.794 1.004-0.94m-1.004-2.203c-0.576 0-0.961 0.453-1.016 1.09h4.105c0 2.182-0.864 3.425-3.089 3.425-2.106 0-3.057-1.388-3.057-2.944 0-1.555 0.951-2.943 3.057-2.943 1.274 0 2.538 0.561 2.97 1.771h-1.998c-0.035-0.05-0.235-0.399-0.972-0.399m-19.548 0.183h-2e-3 -1e-3c-0.7 1e-3 -0.917 0.589-0.917 1.388s0.217 1.387 0.917 1.388h1e-3 2e-3c0.699-1e-3 0.917-0.589 0.917-1.388s-0.218-1.387-0.917-1.388m-2e-3 4.332c-2.106 0-3.056-1.388-3.056-2.944 0-1.555 0.95-2.943 3.056-2.943s3.057 1.388 3.057 2.943c0 1.556-0.951 2.944-3.057 2.944m9.116-5.747h-2.063v0.713c-0.399-0.561-0.993-0.853-1.847-0.853-1.004 0-1.923 0.616-1.923 1.901v3.845h2.139v-2.959c0-0.612 0.076-1.081 0.702-1.081 0.367 0 0.853 0.184 0.853 1.081v2.959h2.139zm-13.916-0.324c0.512 1.385 2.193 5.93 2.193 5.93h-2.198l-1.008-3.257-0.842 3.257h-2.273l2.029-5.327c-0.23-0.553-0.51-0.643-0.82-0.643-0.159 0-0.467 0.044-0.467 0.044v-1.463s0.656-0.163 1.065-0.163c1.045 0 1.944 0.601 2.321 1.622m16.519 2.971c0-0.441 0.102-1.081 1.221-1.081 0.389 0 0.983 0.13 0.983 0.703 0 0.399-0.335 0.507-1.663 0.885-1.221 0.346-2.615 0.681-2.615 2.236 0 1.781 1.523 2.549 3.111 2.549 1.674 0 3.154-0.637 3.219-2.517h-2.247s9e-3 0.068 9e-3 0.11c0 0.445-0.478 0.701-0.991 0.701-0.324 0-0.854-0.087-0.854-0.519 0.043-0.551 1.145-0.67 2.236-0.972 1.091-0.303 2.171-0.81 2.171-2.225 0-2.009-1.847-2.657-3.564-2.657-0.9 0-3.392 0.333-3.392 2.787z" fill="#fff"/>
  </g>
 </g>
</svg>
